<svg xmlns="http://www.w3.org/2000/svg" viewBox="0 0 24 24">
  <path d="M14.89 3.08h-2h-2.05l-1.39 8.65c-0.03 0-0.06 0.01-0.09 0.01-3.07 0.41-5.45 2.99-5.42 5.88 0.01 1.21 0.42 2.15 1.16 2.93 0.67 0.7 1.58 1.08 2.49 1.08 0.36 0 0.72-0.06 1.07-0.18 1.65-0.57 2.2-1.96 2.46-3.23 0.07-1.42-0.68-2.82-2.13-3.65l-0.46 2.89c-0.15 0.82-0.34 1.31-0.75 1.45-0.24 0.08-0.55-0.003-0.75-0.22-0.26-0.28-0.42-0.58-0.42-1.1-0.01-1.44 1.12-2.58 2.37-3.02 0.39-0.14 0.8-0.21 1.26-0.21 0.46 0 0.95 0.09 1.4 0.24 1.69 0.4 2.72 2.2 2.97 4.14l0.15 1.09h2.81L14.89 3.08zM12.04 11.93l0.81-6.2h0.02h0.07l0.9 6.91C13.28 12.42 12.68 12.21 12.04 11.93z" fill="#000000"/>
</svg>
