<svg width="24" height="24" viewBox="0 0 24 24" fill="none" xmlns="http://www.w3.org/2000/svg">
<path d="M17.4507 12.6359C17.4279 10.1092 19.5195 8.87999 19.6152 8.8228C18.4307 7.09577 16.5946 6.85979 15.9494 6.84095C14.4074 6.67867 12.9116 7.76365 12.1261 7.76365C11.3249 7.76365 10.1152 6.85659 8.81151 6.88333C7.13383 6.90917 5.56439 7.88051 4.70358 9.38884C2.92715 12.4643 4.25206 16.9838 5.954 19.4697C6.8054 20.6872 7.80022 22.0466 9.10238 21.9988C10.3763 21.9462 10.8521 21.1866 12.3895 21.1866C13.9127 21.1866 14.3596 21.9988 15.6876 21.9682C17.0548 21.9463 17.9156 20.7453 18.7372 19.5167C19.721 18.1213 20.1162 16.747 20.1318 16.6765C20.0996 16.6655 17.4765 15.6643 17.4507 12.6359ZM14.942 5.20559C15.6272 4.34877 16.096 3.18297 15.9658 2C14.9741 2.04389 13.7339 2.68599 13.0197 3.524C12.3879 4.26242 11.8234 5.47289 11.9692 6.61122C13.0832 6.6943 14.2271 6.04905 14.942 5.20559Z" fill="black"/>
</svg>
