<svg fill="none" xmlns="http://www.w3.org/2000/svg" viewBox="0 0 24 24">
  <path d="M18.467 12.754c-.027-2.996 2.453-4.453 2.566-4.52-1.404-2.048-3.581-2.328-4.346-2.35-1.828-.193-3.601 1.094-4.533 1.094-.95 0-2.384-1.076-3.93-1.044-1.988.03-3.849 1.182-4.87 2.97C1.25 12.55 2.82 17.91 4.838 20.856c1.01 1.443 2.189 3.055 3.733 2.998 1.51-.062 2.074-.963 3.897-.963 1.806 0 2.335.963 3.91.927 1.62-.026 2.641-1.45 3.615-2.907 1.166-1.654 1.635-3.283 1.653-3.367-.038-.013-3.147-1.2-3.178-4.79Zm-2.974-8.81c.812-1.015 1.368-2.397 1.213-3.8-1.175.053-2.646.814-3.492 1.807-.75.876-1.418 2.31-1.246 3.66 1.321.099 2.677-.666 3.525-1.666Z" fill="#000"/>
</svg>
