<svg fill="none" xmlns="http://www.w3.org/2000/svg" viewBox="0 0 24 24">
  <path d="M13.848 3.53a1 1 0 0 0-1.696-1.06l-2.5 4A1 1 0 0 0 10.5 8h2.196l-1.544 2.47a1 1 0 0 0 1.696 1.06l2.5-4A1 1 0 0 0 14.5 6h-2.196l1.544-2.47ZM8 13a1 1 0 1 1-2 0 1 1 0 0 1 2 0Zm10 0a1 1 0 1 1-2 0 1 1 0 0 1 2 0Zm-8.857 2.045a1 1 0 0 1 1.366-.363c.06.034.615.318 1.492.318.869 0 1.432-.281 1.533-.334a1 1 0 1 1 .932 1.77c-.273.143-1.163.564-2.465.564-1.292 0-2.19-.411-2.495-.588a1 1 0 0 1-.363-1.367Z" fill="#233D48"/>
  <path d="M4 6h4v2H4v11h16V8h-3V6h3a2 2 0 0 1 2 2v11a2 2 0 0 1-2 2H4a2 2 0 0 1-2-2V8a2 2 0 0 1 2-2Z" fill="#233D48"/>
</svg>
