<svg width="24" height="24" viewBox="0 0 24 24" fill="none" xmlns="http://www.w3.org/2000/svg">
<path d="M11.294 2.1288C11.7467 1.95707 12.2457 1.95707 12.6985 2.1288L21.3472 6.04147C21.7999 6.21317 22.0663 6.68785 21.9801 7.16901C21.8938 7.65016 21.4796 8 20.9961 8H2.9963C2.51284 8 2.09862 7.65016 2.01236 7.16901C1.9261 6.68785 2.19251 6.21317 2.64518 6.04147L11.294 2.1288ZM13.4962 5.5C13.4962 4.67157 12.8246 4 11.9962 4C11.1678 4 10.4962 4.67157 10.4962 5.5C10.4962 6.32843 11.1678 7 11.9962 7C12.8246 7 13.4962 6.32843 13.4962 5.5Z" fill="black"/>
<path d="M6.99622 10C6.99622 9.44772 6.5485 9 5.99622 9C5.44393 9 4.99622 9.44772 4.99622 10V18C4.99622 18.5523 5.44393 19 5.99622 19C6.5485 19 6.99622 18.5523 6.99622 18V10Z" fill="black"/>
<path d="M10.9962 10C10.9962 9.44772 10.5485 9 9.99622 9C9.44393 9 8.99622 9.44772 8.99622 10V18C8.99622 18.5523 9.44393 19 9.99622 19C10.5485 19 10.9962 18.5523 10.9962 18V10Z" fill="black"/>
<path d="M13.9962 9C14.5485 9 14.9962 9.44772 14.9962 10V18C14.9962 18.5523 14.5485 19 13.9962 19C13.4439 19 12.9962 18.5523 12.9962 18V10C12.9962 9.44772 13.4439 9 13.9962 9Z" fill="black"/>
<path d="M18.9962 10C18.9962 9.44772 18.5485 9 17.9962 9C17.4439 9 16.9962 9.44772 16.9962 10V18C16.9962 18.5523 17.4439 19 17.9962 19C18.5485 19 18.9962 18.5523 18.9962 18V10Z" fill="black"/>
<path d="M1.99622 21C1.99622 20.4477 2.44393 20 2.99622 20H20.9962C21.5485 20 21.9962 20.4477 21.9962 21C21.9962 21.5523 21.5485 22 20.9962 22H2.99622C2.44393 22 1.99622 21.5523 1.99622 21Z" fill="black"/>
</svg>
