<svg width="24" height="24" viewBox="0 0 24 24" fill="none" xmlns="http://www.w3.org/2000/svg">
<path d="M6 3C5.44772 3 5 3.44772 5 4V5H11V4C11 3.44772 10.5523 3 10 3H6Z" fill="black"/>
<path d="M13.4585 10.4839C13.7258 10.2307 13.7372 9.80877 13.484 9.54148C13.2307 9.2742 12.8088 9.26279 12.5415 9.51601L9.84514 12.0705C9.29795 12.5889 9.66542 13.5088 10.4183 13.5088H12.4471L10.5167 15.5408C10.2631 15.8078 10.2739 16.2297 10.5408 16.4833C10.8078 16.7369 11.2297 16.7261 11.4833 16.4591L14.2159 13.5827C14.722 13.05 14.341 12.1754 13.6115 12.1754H11.6731L13.4585 10.4839Z" fill="black"/>
<path d="M3 18C2.44772 18 2 18.4477 2 19V20H22V19C22 18.4477 21.5523 18 21 18V8C21 6.89543 20.1046 6 19 6H5C3.89543 6 3 6.89543 3 8V18ZM19 8V18H5V8H19Z" fill="black"/>
<path d="M13 4C13 3.44772 13.4477 3 14 3H18C18.5523 3 19 3.44772 19 4V5H13V4Z" fill="black"/>
</svg>
