<svg fill="none" xmlns="http://www.w3.org/2000/svg" viewBox="0 0 24 24">
  <path d="M16 3a1 1 0 0 0-1 1v1H9V4a1 1 0 0 0-2 0v1H5a2 2 0 0 0-2 2v12a2 2 0 0 0 2 2h14a2 2 0 0 0 2-2V7a2 2 0 0 0-2-2h-2V4a1 1 0 0 0-1-1Zm3 4v2H5V7h14ZM5 19v-8h14v8H5Z" fill="#233D48"/>
  <path d="M16.999 15.048a.996.996 0 0 1-.292.66l-2 2a1 1 0 0 1-1.414-1.415c.043-.043.14-.15.269-.293H8a1 1 0 1 1 0-2h5.546a5.632 5.632 0 0 1-.171-.2 1.473 1.473 0 0 0-.082-.093 1 1 0 0 1 1.414-1.414l2 2a.997.997 0 0 1 .293.696l-.001.059Z" fill="#233D48"/>
</svg>
