<svg width="24" height="24" viewBox="0 0 24 24" fill="none" xmlns="http://www.w3.org/2000/svg">
<path d="M9.5 3.96875C11.3855 3.96875 13.1377 4.26092 14.4551 4.76758C15.1104 5.01964 15.7096 5.34441 16.1621 5.75586C16.6113 6.16441 16.9932 6.73614 16.999 7.45215V10.1426C17.9122 10.2785 18.7466 10.4873 19.4551 10.7598C20.1104 11.0118 20.7096 11.3366 21.1621 11.748C21.6113 12.1566 21.9932 12.7283 21.999 13.4443L22 16.5039C21.9851 17.2076 21.6058 17.7703 21.1621 18.1738C20.7096 18.5853 20.1104 18.9101 19.4551 19.1621C18.1377 19.6688 16.3855 19.9609 14.5 19.9609C12.6145 19.9609 10.8623 19.6688 9.54492 19.1621C8.88958 18.9101 8.29036 18.5853 7.83789 18.1738C7.39666 17.7726 7.01884 17.2138 7 16.5156V13.7852C6.08741 13.6488 5.25306 13.4423 4.54492 13.1699C3.88958 12.9179 3.29036 12.5931 2.83789 12.1816C2.39666 11.7804 2.01884 11.2216 2 10.5234V7.39844C2.02398 6.70754 2.39996 6.15413 2.83789 5.75586C3.29036 5.34441 3.88958 5.01964 4.54492 4.76758C5.86229 4.26092 7.61447 3.96875 9.5 3.96875ZM20 15.9268C19.8241 16.0109 19.6422 16.0901 19.4551 16.1621C18.1377 16.6688 16.3855 16.9609 14.5 16.9609C12.6145 16.9609 10.8623 16.6688 9.54492 16.1621C9.3578 16.0901 9.17586 16.0109 9 15.9268V16.4609C9 16.4274 8.97852 16.5079 9.18359 16.6943C9.38894 16.881 9.742 17.0946 10.2627 17.2949C11.2979 17.6931 12.7957 17.9609 14.5 17.9609C16.2043 17.9609 17.7021 17.6931 18.7373 17.2949C19.258 17.0946 19.6111 16.881 19.8164 16.6943C20.0215 16.5079 20 16.4274 20 16.4609V15.9268ZM16.1621 12.1816C15.7096 12.5931 15.1104 12.9179 14.4551 13.1699C13.1539 13.6704 11.4284 13.9597 9.56934 13.9668C9.75491 14.0753 9.98437 14.1879 10.2627 14.2949C11.2979 14.6931 12.7957 14.9609 14.5 14.9609C16.2043 14.9609 17.7021 14.6931 18.7373 14.2949C19.258 14.0946 19.6111 13.881 19.8164 13.6943C20.0215 13.5079 20 13.4274 20 13.4609C20 13.4943 20.0213 13.4139 19.8164 13.2275C19.6111 13.0408 19.258 12.8273 18.7373 12.627C18.0825 12.3751 17.2425 12.1761 16.2822 12.0635C16.2424 12.1037 16.2033 12.1442 16.1621 12.1816ZM15 9.93457C14.8241 10.0187 14.6422 10.098 14.4551 10.1699C13.1377 10.6766 11.3855 10.9687 9.5 10.9688C7.61448 10.9688 5.86228 10.6766 4.54492 10.1699C4.3578 10.098 4.17586 10.0187 4 9.93457V10.4688C4 10.4353 3.97852 10.5157 4.18359 10.7021C4.38894 10.8888 4.742 11.1024 5.2627 11.3027C6.29786 11.7009 7.79574 11.9688 9.5 11.9688C11.2043 11.9687 12.7021 11.7009 13.7373 11.3027C14.258 11.1024 14.6111 10.8888 14.8164 10.7021C15.0215 10.5157 15 10.4353 15 10.4688V9.93457ZM9.5 5.96875C7.79572 5.96875 6.29786 6.23663 5.2627 6.63477C4.74198 6.83506 4.38893 7.04866 4.18359 7.23535C3.97868 7.4217 3.99997 7.50209 4 7.46875C4 7.43525 3.97852 7.51567 4.18359 7.70215C4.38894 7.88884 4.742 8.10244 5.2627 8.30273C6.29786 8.70087 7.79574 8.96875 9.5 8.96875C11.2043 8.96875 12.7021 8.70087 13.7373 8.30273C14.258 8.10244 14.6111 7.88884 14.8164 7.70215C15.0215 7.51567 15 7.43525 15 7.46875C15 7.50209 15.0213 7.4217 14.8164 7.23535C14.6111 7.04866 14.258 6.83506 13.7373 6.63477C12.7021 6.23663 11.2043 5.96875 9.5 5.96875Z" fill="black"/>
</svg>
