<svg width="24" height="20" viewBox="0 0 24 20" fill="none" xmlns="http://www.w3.org/2000/svg">
<path d="M9 0.96875C11.2626 0.96875 13.3653 1.31587 14.9461 1.91782C15.7325 2.21729 16.4516 2.60315 16.9945 3.09198C17.5336 3.57737 17.9918 4.25664 17.9988 5.10731V8.30375C19.0946 8.46528 20.0959 8.71329 20.9461 9.03702C21.7325 9.33649 22.4516 9.72235 22.9945 10.2112C23.5336 10.6966 23.9918 11.3758 23.9988 12.2265L24 15.8615C23.9821 16.6975 23.527 17.3661 22.9945 17.8455C22.4516 18.3343 21.7325 18.7202 20.9461 19.0197C19.3653 19.6216 17.2626 19.9687 15 19.9687C12.7374 19.9687 10.6347 19.6216 9.05391 19.0197C8.2675 18.7202 7.54844 18.3343 7.00547 17.8455C6.47599 17.3688 6.02261 16.7049 6 15.8754V12.6314C4.9049 12.4695 3.90367 12.224 3.05391 11.9005C2.2675 11.601 1.54844 11.2151 1.00547 10.7263C0.475988 10.2496 0.0226092 9.58575 0 8.75624V5.04349C0.0287818 4.22265 0.47995 3.56516 1.00547 3.09198C1.54843 2.60315 2.26749 2.21729 3.05391 1.91782C4.63474 1.31587 6.73737 0.96875 9 0.96875ZM21.6 15.1758C21.389 15.2758 21.1706 15.3699 20.9461 15.4554C19.3653 16.0574 17.2626 16.4045 15 16.4045C12.7374 16.4045 10.6347 16.0574 9.05391 15.4554C8.82936 15.3699 8.61103 15.2758 8.4 15.1758V15.8105C8.4 15.7707 8.37423 15.8662 8.62031 16.0878C8.86673 16.3096 9.2904 16.5633 9.91523 16.8013C11.1574 17.2743 12.9549 17.5926 15 17.5926C17.0451 17.5926 18.8426 17.2743 20.0848 16.8013C20.7096 16.5633 21.1333 16.3096 21.3797 16.0878C21.6258 15.8662 21.6 15.7707 21.6 15.8105V15.1758ZM16.9945 10.7263C16.4516 11.2151 15.7325 11.601 14.9461 11.9005C13.3847 12.495 11.3141 12.8388 9.0832 12.8472C9.30589 12.9762 9.58124 13.1099 9.91523 13.2371C11.1574 13.7101 12.9549 14.0283 15 14.0283C17.0451 14.0283 18.8426 13.7101 20.0848 13.2371C20.7096 12.9991 21.1333 12.7453 21.3797 12.5235C21.6258 12.302 21.6 12.2064 21.6 12.2462C21.6 12.2858 21.6256 12.1903 21.3797 11.9689C21.1333 11.7471 20.7096 11.4934 20.0848 11.2554C19.299 10.9562 18.291 10.7197 17.1387 10.5859C17.0909 10.6337 17.044 10.6818 16.9945 10.7263ZM15.6 8.05662C15.389 8.1566 15.1706 8.25073 14.9461 8.33624C13.3653 8.93818 11.2626 9.28531 9 9.28531C6.73738 9.28531 4.63474 8.93818 3.05391 8.33624C2.82936 8.25073 2.61103 8.1566 2.4 8.05662V8.69127C2.4 8.65147 2.37423 8.74701 2.62031 8.96857C2.86673 9.19037 3.2904 9.44415 3.91523 9.68211C5.15743 10.1551 6.95488 10.4734 9 10.4734C11.0451 10.4734 12.8426 10.1551 14.0848 9.68211C14.7096 9.44415 15.1333 9.19037 15.3797 8.96857C15.6258 8.74701 15.6 8.65147 15.6 8.69127V8.05662ZM9 3.34491C6.95487 3.34491 5.15743 3.66317 3.91523 4.13619C3.29038 4.37416 2.86672 4.62793 2.62031 4.84973C2.37442 5.07113 2.39997 5.16664 2.4 5.12703C2.4 5.08723 2.37423 5.18277 2.62031 5.40433C2.86673 5.62613 3.2904 5.87991 3.91523 6.11787C5.15743 6.59089 6.95488 6.90915 9 6.90915C11.0451 6.90915 12.8426 6.59089 14.0848 6.11787C14.7096 5.87991 15.1333 5.62613 15.3797 5.40433C15.6258 5.18278 15.6 5.08723 15.6 5.12703C15.6 5.16664 15.6256 5.07113 15.3797 4.84973C15.1333 4.62793 14.7096 4.37416 14.0848 4.13619C12.8426 3.66317 11.0451 3.34491 9 3.34491Z" fill="black"/>
</svg>
