<svg width="24" height="24" viewBox="0 0 24 24" fill="none" xmlns="http://www.w3.org/2000/svg">
<path d="M12 2C17.5228 2 22 6.47715 22 12C22 17.5228 17.5228 22 12 22C6.47715 22 2 17.5228 2 12C2 6.47715 6.47715 2 12 2ZM17.7334 8.29297C17.3429 7.90245 16.7099 7.90245 16.3193 8.29297L10 14.5L7.70703 12.207C7.31653 11.8166 6.68348 11.8166 6.29297 12.207C5.90247 12.5975 5.90251 13.2306 6.29297 13.6211L9.29297 16.6211C9.68349 17.0116 10.3165 17.0116 10.707 16.6211L17.7334 9.70703C18.1239 9.31651 18.1239 8.68349 17.7334 8.29297Z" fill="#233D48"/>
</svg>
