<svg width="24" height="17" viewBox="0 0 24 17" fill="none" xmlns="http://www.w3.org/2000/svg">
<path d="M7.19648 6.07024C7.56399 6.07024 8.17788 6.12298 8.63203 6.58252C9.19506 7.15238 9.0955 7.86711 8.97539 8.23556C8.85555 8.60281 8.63572 8.93283 8.44453 9.18304C8.38767 9.25742 8.32618 9.33097 8.26406 9.40479L8.25469 9.41546C8.54666 9.67803 8.835 9.75842 9.1125 9.70124C9.46508 9.62836 10.1477 9.26707 10.9992 7.88337C11.3013 7.3924 11.9042 7.18484 12.4395 7.3877C12.9745 7.59074 13.2935 8.14848 13.2023 8.71938C13.2012 8.72776 13.2 8.74344 13.1977 8.76444C13.1927 8.80878 13.1853 8.87732 13.1813 8.9601C13.1727 9.13393 13.176 9.33892 13.207 9.521C13.2242 9.62135 13.2449 9.68807 13.2609 9.72852C13.9734 9.7356 14.1219 9.64705 14.1398 9.63602C14.1505 9.62942 14.1851 9.60678 14.2676 9.50914C14.3702 9.38766 14.4581 9.2631 14.6496 9.01109L14.7504 8.89488C15.0005 8.64044 15.3518 8.50842 15.7102 8.5415C16.1162 8.57913 16.5641 9.07763 16.5703 9.08461L16.8574 9.37751C17.0097 9.49708 17.2913 9.66084 17.7738 9.70006L17.9941 9.70954L18.116 9.71547C18.7214 9.77743 19.1941 10.2949 19.1941 10.9238C19.1938 11.5523 18.7211 12.069 18.116 12.131L17.9941 12.1381L17.5664 12.1203C16.7752 12.0536 16.1507 11.8037 15.675 11.499C15.5851 11.5738 15.4903 11.6469 15.3879 11.71C14.7713 12.0898 14.0497 12.1691 13.2059 12.1583C12.4649 12.1486 11.8568 11.84 11.441 11.3341C11.4053 11.2907 11.3732 11.2448 11.3414 11.2001C10.7875 11.6561 10.204 11.9548 9.5918 12.0812C8.3093 12.3457 7.23423 11.8015 6.51797 11.097C6.43385 11.1686 6.35553 11.2407 6.27891 11.3045L5.52891 11.9069C4.99963 12.31 4.24596 12.2027 3.84727 11.6673C3.44888 11.1319 3.5551 10.3704 4.08398 9.96687L5.30391 8.95299C5.26253 8.77771 5.23117 8.6033 5.21719 8.43122C5.18069 7.98047 5.23237 7.4032 5.57109 6.90151C5.95277 6.33668 6.55911 6.07046 7.19648 6.07024Z" fill="black"/>
<path d="M21.6 0C22.9255 0 24 1.08731 24 2.42857V14.5714C24 15.9127 22.9255 17 21.6 17H2.4C1.07454 17 3.95824e-05 15.9127 0 14.5714V2.42857C0 1.08731 1.07452 0 2.4 0H21.6ZM2.4 14.5714H21.6V2.42857H2.4V14.5714Z" fill="black"/>
</svg>
