<svg width="24" height="24" viewBox="0 0 24 24" fill="none" xmlns="http://www.w3.org/2000/svg">
<path d="M7.99707 9.96777C8.30333 9.96777 8.8149 10.0112 9.19336 10.3896C9.66255 10.8589 9.57958 11.4475 9.47949 11.751C9.37962 12.0534 9.19643 12.3252 9.03711 12.5312C8.98972 12.5925 8.93849 12.6531 8.88672 12.7139L8.87891 12.7227C9.12222 12.9389 9.3625 13.0051 9.59375 12.958C9.88757 12.898 10.4564 12.6005 11.166 11.4609C11.4177 11.0566 11.9202 10.8857 12.3662 11.0527C12.8121 11.2199 13.0779 11.6793 13.002 12.1494C13.001 12.1563 13 12.1692 12.998 12.1865C12.9939 12.223 12.9878 12.2795 12.9844 12.3477C12.9772 12.4908 12.98 12.6596 13.0059 12.8096C13.0201 12.8922 13.0374 12.9472 13.0508 12.9805C13.6445 12.9863 13.7683 12.9134 13.7832 12.9043C13.7921 12.8989 13.8209 12.8802 13.8896 12.7998C13.9751 12.6998 14.0484 12.5972 14.208 12.3896L14.292 12.2939C14.5004 12.0844 14.7931 11.9757 15.0918 12.0029C15.4301 12.0339 15.8034 12.4444 15.8086 12.4502L16.0479 12.6914C16.1747 12.7899 16.4094 12.9247 16.8115 12.957L16.9951 12.9648L17.0967 12.9697C17.6011 13.0208 17.9951 13.4469 17.9951 13.9648C17.9948 14.4824 17.6009 14.908 17.0967 14.959L16.9951 14.9648L16.6387 14.9502C15.9794 14.8952 15.4589 14.6894 15.0625 14.4385C14.9876 14.5001 14.9086 14.5603 14.8232 14.6123C14.3094 14.925 13.7081 14.9904 13.0049 14.9814C12.3874 14.9735 11.8807 14.7193 11.5342 14.3027C11.5044 14.2669 11.4777 14.2292 11.4512 14.1924C10.9896 14.5679 10.5034 14.8138 9.99316 14.918C8.92442 15.1358 8.02852 14.6876 7.43164 14.1074C7.36154 14.1664 7.29628 14.2258 7.23242 14.2783L6.60742 14.7744C6.16636 15.1064 5.5383 15.0181 5.20605 14.5771C4.87406 14.1362 4.96258 13.5091 5.40332 13.1768L6.41992 12.3418C6.38544 12.1974 6.35931 12.0538 6.34766 11.9121C6.31724 11.5409 6.36031 11.0655 6.64258 10.6523C6.96064 10.1872 7.46593 9.96795 7.99707 9.96777Z" fill="black"/>
<path d="M20 4.96875C21.1046 4.96875 22 5.86418 22 6.96875V16.9688C22 18.0733 21.1046 18.9688 20 18.9688H4C2.89545 18.9687 2.00003 18.0733 2 16.9688V6.96875C2 5.86418 2.89543 4.96875 4 4.96875H20ZM4 16.9688H20V6.96875H4V16.9688Z" fill="black"/>
</svg>
