<svg width="24" height="24" viewBox="0 0 24 24" fill="none" xmlns="http://www.w3.org/2000/svg">
<path d="M14.6006 6.66797C15.0984 6.42903 15.6955 6.63894 15.9346 7.13672L15.9355 7.1377L15.9375 7.1416C15.9384 7.1436 15.9391 7.14655 15.9404 7.14941C15.9433 7.15553 15.9476 7.16392 15.9521 7.17383C15.9613 7.19377 15.974 7.22131 15.9893 7.25586C16.0202 7.32576 16.0623 7.42575 16.1123 7.55078C16.2122 7.80059 16.3441 8.15577 16.4746 8.59082C16.7342 9.45598 17 10.6646 17 12C17 13.3353 16.7342 14.544 16.4746 15.4092C16.3441 15.8443 16.2122 16.1994 16.1123 16.4492C16.0623 16.5741 16.0202 16.6733 15.9893 16.7432C15.9739 16.778 15.9614 16.8061 15.9521 16.8262C15.9475 16.8362 15.9433 16.8444 15.9404 16.8506C15.9391 16.8535 15.9385 16.8564 15.9375 16.8584L15.9355 16.8613L15.9346 16.8623C15.6956 17.3601 15.0984 17.5709 14.6006 17.332C14.1338 17.1079 13.9196 16.5686 14.0918 16.0918L14.1318 15.998L14.1602 15.9346C14.1821 15.885 14.2154 15.8081 14.2559 15.707C14.3372 15.5038 14.4475 15.2042 14.5586 14.834C14.7823 14.0881 15 13.0811 15 12C15 10.9189 14.7823 9.91188 14.5586 9.16602C14.4475 8.79582 14.3371 8.49619 14.2559 8.29297C14.2154 8.19193 14.1821 8.11505 14.1602 8.06543L14.1309 8.00098L14.1318 8.00195C13.893 7.5041 14.1028 6.90694 14.6006 6.66797Z" fill="black"/>
<path d="M11.0547 7.49902C11.5386 7.2331 12.146 7.40973 12.4121 7.89355L12.4131 7.89551L12.415 7.89746C12.4161 7.89947 12.4174 7.90248 12.4189 7.90527C12.422 7.91086 12.4261 7.91809 12.4307 7.92676C12.4398 7.94415 12.452 7.96774 12.4668 7.99707C12.4967 8.05623 12.5375 8.13979 12.585 8.24414C12.6798 8.45245 12.8038 8.74794 12.9268 9.11133C13.1712 9.83345 13.4219 10.8519 13.4219 12C13.4219 13.1481 13.1712 14.1666 12.9268 14.8887C12.8038 15.2521 12.6798 15.5476 12.585 15.7559C12.5375 15.8602 12.4967 15.9438 12.4668 16.0029C12.452 16.0323 12.4398 16.0558 12.4307 16.0732C12.4261 16.0819 12.422 16.0891 12.4189 16.0947C12.4174 16.0975 12.4161 16.1005 12.415 16.1025L12.4131 16.1045V16.1064C12.147 16.5903 11.5386 16.7669 11.0547 16.501C10.5709 16.2349 10.3942 15.6274 10.6602 15.1436L10.6621 15.1396C10.6658 15.1326 10.6725 15.1198 10.6816 15.1016C10.7002 15.0648 10.7291 15.0058 10.7646 14.9277C10.836 14.7711 10.9338 14.5379 11.0322 14.2471C11.2309 13.6602 11.4219 12.8657 11.4219 12C11.4219 11.1343 11.2309 10.3398 11.0322 9.75293C10.9338 9.46208 10.836 9.22892 10.7646 9.07227C10.7291 8.99418 10.7002 8.93524 10.6816 8.89844C10.6725 8.88025 10.6658 8.86742 10.6621 8.86035L10.6602 8.85645C10.3942 8.37257 10.5709 7.76513 11.0547 7.49902Z" fill="black"/>
<path d="M7.68555 8.72559C8.15897 8.44176 8.77344 8.59514 9.05762 9.06836L9.05859 9.06934L9.06445 9.0791L9.10352 9.14941C9.12745 9.19287 9.15937 9.25281 9.19629 9.32715C9.27001 9.47561 9.36619 9.68482 9.46094 9.94141C9.64831 10.4489 9.84467 11.1747 9.84473 12C9.84467 12.8249 9.64824 13.5502 9.46094 14.0576C9.36628 14.314 9.26999 14.5234 9.19629 14.6719C9.15948 14.746 9.12744 14.8062 9.10352 14.8496C9.09163 14.8712 9.08197 14.8898 9.07422 14.9033C9.07055 14.9097 9.06709 14.9154 9.06445 14.9199C9.06318 14.9221 9.06158 14.925 9.06055 14.9268L9.05859 14.9287L9.05762 14.9307C8.77347 15.4042 8.15913 15.5576 7.68555 15.2734C7.21221 14.9892 7.05869 14.3748 7.34277 13.9014C7.34479 13.8978 7.34769 13.8918 7.35156 13.8848C7.36285 13.8643 7.38207 13.8299 7.40527 13.7832C7.45233 13.6884 7.51777 13.5445 7.58398 13.3652C7.71872 13.0002 7.84467 12.5168 7.84473 12C7.84467 11.483 7.71877 10.9988 7.58398 10.6338C7.5178 10.4547 7.45229 10.3115 7.40527 10.2168C7.38188 10.1697 7.36282 10.1347 7.35156 10.1143C7.34613 10.1044 7.34249 10.0976 7.34082 10.0947L7.33984 10.0928C7.05974 9.61992 7.21372 9.00878 7.68555 8.72559Z" fill="black"/>
<path d="M12 2C17.5228 2 22 6.47715 22 12C22 17.5228 17.5228 22 12 22C6.47715 22 2 17.5228 2 12C2 6.47715 6.47715 2 12 2ZM12 4C7.58172 4 4 7.58172 4 12C4 16.4183 7.58172 20 12 20C16.4183 20 20 16.4183 20 12C20 7.58172 16.4183 4 12 4Z" fill="black"/>
</svg>
