<svg width="24" height="24" viewBox="0 0 24 24" fill="none" xmlns="http://www.w3.org/2000/svg">
<path d="M16.5127 2.07402C16.9757 1.84257 17.5324 2.00448 17.8037 2.43241L17.8545 2.52128L18.1084 3.0496C19.3397 5.71927 20 8.79594 20 11.9685C20 15.3619 19.2449 18.5093 17.8623 21.4002C17.624 21.8984 17.0265 22.1092 16.5283 21.8709C16.0302 21.6325 15.8194 21.0351 16.0576 20.5369C17.3149 17.9079 18 15.055 18 11.9685C18 9.06646 17.395 6.2785 16.293 3.88847L16.0654 3.41581L16.0244 3.32206C15.8448 2.8482 16.0497 2.30554 16.5127 2.07402Z" fill="black"/>
<path d="M12.2334 3.97441C12.7379 3.75028 13.3292 3.97797 13.5537 4.48222C14.5635 6.75432 15.2001 9.4126 15.2002 11.9685C15.2002 14.5315 14.5603 17.0699 13.5537 19.3348C13.3294 19.8394 12.7381 20.0669 12.2334 19.8426C11.729 19.6181 11.5023 19.0268 11.7266 18.5223L11.8936 18.1346C12.7076 16.1847 13.2002 14.0655 13.2002 11.9685C13.2001 9.86492 12.7044 7.63958 11.8926 5.68241L11.7266 5.29472L11.6895 5.19902C11.5318 4.71763 11.7606 4.18468 12.2334 3.97441Z" fill="black"/>
<path d="M7.87305 6.15409C8.33612 5.92268 8.89279 6.08443 9.16406 6.51249L9.21484 6.60136L9.36035 6.90605C10.0629 8.44861 10.4004 10.276 10.4004 11.9685C10.4004 13.7911 10.0098 15.6145 9.22852 17.3074C8.99713 17.8087 8.40274 18.0278 7.90137 17.7967C7.40005 17.5652 7.18081 16.9709 7.41211 16.4695C8.07059 15.0427 8.40037 13.5056 8.40039 11.9685C8.40035 10.5113 8.10495 8.97713 7.54199 7.73906L7.42578 7.49589L7.38477 7.40214C7.20505 6.92822 7.40994 6.38565 7.87305 6.15409Z" fill="black"/>
<path d="M3.60645 8.16972C4.08204 7.96607 4.6282 8.15958 4.87402 8.60234L4.91895 8.69511L5.06641 9.06425C5.39281 9.95207 5.59956 11.0024 5.59961 11.9685C5.59961 13.0893 5.32121 14.1842 4.91895 15.1228C4.70135 15.6301 4.11387 15.8654 3.60645 15.6482C3.09891 15.4306 2.86352 14.8423 3.08105 14.3348C3.39867 13.5936 3.59961 12.7676 3.59961 11.9685C3.59954 11.1529 3.39123 10.2059 3.08105 9.48222C2.86388 8.97471 3.09899 8.38721 3.60645 8.16972Z" fill="black"/>
</svg>
