<svg fill="none" xmlns="http://www.w3.org/2000/svg" viewBox="0 0 24 24">
  <path d="M14.707 3.88A2.987 2.987 0 0 1 16.83 3a2.99 2.99 0 0 1 2.121.88l1.172 1.175c.585.587.878 1.357.878 2.126 0 .77-.293 1.54-.878 2.127l-9.22 9.291a1 1 0 0 1-.313.213l-4.795 2.02a2.017 2.017 0 0 1-.788.168 1.988 1.988 0 0 1-1.414-.593A2 2 0 0 1 3 19.037a2.021 2.021 0 0 1 .168-.837l2.108-4.714c.05-.117.122-.223.212-.314l9.22-9.291Zm2.829 1.418a.998.998 0 0 0-1.414 0l-.879.881 2.586 2.592.878-.88a1.004 1.004 0 0 0 0-1.418l-1.171-1.175Zm-1.121 4.89-2.586-2.591-6.22 6.284 2.586 2.592 6.22-6.285Zm-7.972 7.364-1.911-1.915-1.526 3.352 3.437-1.437Z" fill="#657884"/>
  <path d="M8.26 2.611a2.086 2.086 0 0 0-2.951 0L2.61 5.31a2.086 2.086 0 0 0 0 2.95l3.89 3.89L8 10.697 6.694 9.392l.612-.611A1.043 1.043 0 1 0 5.83 7.306l-.61.61-1.134-1.132 2.698-2.698L10.637 8 12 6.637 8.26 2.611Zm9.24 9.123-1.5 1.45 3.914 4.032-2.698 2.698-1.133-1.133.611-.611a1.043 1.043 0 0 0-1.475-1.476l-.611.611L13 15.5 11.5 17l4.24 4.389a2.086 2.086 0 0 0 2.951 0l2.698-2.698a2.086 2.086 0 0 0 0-2.95L17.5 11.734Z" fill="#657884"/>
</svg>
