<svg width="24" height="24" viewBox="0 0 24 24" fill="none" xmlns="http://www.w3.org/2000/svg">
<path d="M16 19C16.5523 19 17 19.4477 17 20C17 20.5523 16.5523 21 16 21H8C7.44772 21 7 20.5523 7 20C7 19.4477 7.44772 19 8 19H11V18H4L3.7959 17.9893C2.85435 17.8938 2.1062 17.1457 2.01074 16.2041L2 16V5C2 3.96435 2.78722 3.113 3.7959 3.01074L4 3H20L20.2041 3.01074C21.2128 3.113 22 3.96435 22 5V16L21.9893 16.2041C21.8938 17.1457 21.1457 17.8938 20.2041 17.9893L20 18H13V19H16ZM4 16H20V5H4V16Z" fill="#233D48"/>
</svg>
