<svg fill="none" xmlns="http://www.w3.org/2000/svg" viewBox="0 0 24 24">
  <path d="M2 10.5C2 13.538 4.686 16 8 16v-2c-2.21 0-4-1.567-4-3.5S5.79 7 8 7a4.5 4.5 0 0 1 1.414.225A4 4 0 0 1 17 9h.5a2.5 2.5 0 0 1 0 5H16v2h1.5a4.5 4.5 0 0 0 1.215-8.834A6.003 6.003 0 0 0 8.51 5.02 6.633 6.633 0 0 0 8 5c-3.314 0-6 2.462-6 5.5Z" fill="#657884"/>
  <path d="M11 12v5.586L10.414 17A1 1 0 0 0 9 18.414l2.293 2.293a1 1 0 0 0 1.414 0L15 18.414A1 1 0 0 0 13.586 17l-.586.586V12a1 1 0 1 0-2 0Z" fill="#657884"/>
</svg>
