<svg fill="none" xmlns="http://www.w3.org/2000/svg" viewBox="0 0 24 24">
  <path d="M14.707 3.923a2.987 2.987 0 0 1 2.121-.88c.768 0 1.536.293 2.122.88l1.171 1.174c.586.588.879 1.357.879 2.127 0 .77-.293 1.539-.879 2.126l-9.22 9.292a1 1 0 0 1-.313.212l-4.794 2.02a2.017 2.017 0 0 1-.788.168 1.988 1.988 0 0 1-1.415-.593A2 2 0 0 1 3 19.08a2.021 2.021 0 0 1 .167-.837l2.108-4.713a.99.99 0 0 1 .212-.314l9.22-9.292Zm2.828 1.418a.998.998 0 0 0-1.414 0l-.878.88 2.585 2.592.88-.88c.39-.392.39-1.027 0-1.418L17.535 5.34Zm-1.12 4.89-2.587-2.592-6.22 6.285 2.586 2.591 6.22-6.284Zm-7.972 7.364-1.911-1.916-1.526 3.353 3.437-1.437Z" fill="#657884"/>
</svg>
