<svg width="24" height="24" viewBox="0 0 24 24" fill="none" xmlns="http://www.w3.org/2000/svg">
<path d="M14.7075 3.92273C15.2933 3.33557 16.0611 3.04199 16.8288 3.04199C17.5966 3.04199 18.3644 3.33557 18.9502 3.92273L20.1217 5.09706C20.7075 5.68423 21.0004 6.4538 21.0004 7.22338C21.0004 7.99295 20.7075 8.76252 20.1217 9.34969L16.8696 12.6271L15.4488 11.2062L16.4146 10.2304L13.8288 7.63856L12.8601 8.61735L11.4492 7.2064L14.7075 3.92273ZM17.5359 5.34027C17.1454 4.94883 16.5123 4.94883 16.1217 5.34028L15.243 6.22102L17.8288 8.81289L18.7075 7.93215C19.098 7.5407 19.098 6.90605 18.7075 6.5146L17.5359 5.34027Z" fill="#233D48"/>
<path d="M18.4995 17.0858C18.89 17.4763 18.89 18.1095 18.4995 18.5C18.1089 18.8905 17.4758 18.8905 17.0852 18.5L14.052 15.4666L10.9018 18.6413C10.8119 18.7315 10.7056 18.8036 10.5887 18.8539L5.79391 20.8738C5.52849 20.9878 5.26259 21.0406 5.00607 21.042C4.46071 21.0449 3.95775 20.8155 3.59186 20.4488C3.23679 20.0929 3.0108 19.6076 3.00038 19.0796C2.99501 18.8076 3.04687 18.5243 3.16778 18.2415L5.27556 13.5283C5.32567 13.4111 5.39764 13.3046 5.48759 13.2144L8.63157 10.0459L5.29289 6.70711C4.90237 6.31658 4.90237 5.68342 5.29289 5.29289C5.68342 4.90237 6.31658 4.90237 6.70711 5.29289L18.4995 17.0858ZM10.0461 11.4606L7.60891 13.9232L10.1947 16.515L12.6349 14.0494L10.0461 11.4606ZM8.44317 17.5945L6.53201 15.6788L5.00607 19.0312L8.44317 17.5945Z" fill="#233D48"/>
</svg>
