<svg width="24" height="24" viewBox="0 0 24 24" fill="none" xmlns="http://www.w3.org/2000/svg">
<path fill-rule="evenodd" clip-rule="evenodd" d="M15.4999 3C15.86 3 16.1925 3.19358 16.37 3.50684C16.5475 3.82034 16.5427 4.20572 16.3573 4.51465L14.2665 8H17.9999C18.3957 8 18.7538 8.23374 18.914 8.5957C19.0741 8.95765 19.0063 9.37999 18.7401 9.67285L8.74013 20.6729C8.41749 21.0277 7.88773 21.1035 7.47841 20.8535C7.06923 20.6035 6.89501 20.0975 7.06337 19.6484L9.55654 13H5.9999C5.6379 13 5.30366 12.8042 5.12685 12.4883C4.9503 12.1726 4.95837 11.786 5.14736 11.4775L10.0546 3.47754C10.2364 3.1812 10.5595 3.00012 10.9071 3H15.4999ZM7.78603 11H10.9999C11.3279 11 11.6353 11.1611 11.8222 11.4307C12.0088 11.7002 12.0515 12.0446 11.9364 12.3516L10.7675 15.4678L15.7392 10H12.4999C12.1398 9.99997 11.8073 9.80642 11.6298 9.49316C11.4523 9.17967 11.4571 8.79426 11.6425 8.48535L13.7333 5H11.4667L7.78603 11Z" fill="black"/>
<path fill-rule="evenodd" clip-rule="evenodd" d="M19.4989 13.0137C19.8768 13.077 20.1916 13.3538 20.2968 13.7324L21.9638 19.7324C22.1115 20.2645 21.7996 20.8161 21.2675 20.9639C20.7354 21.1115 20.1838 20.7996 20.036 20.2676L19.6845 19H17.3153L16.9638 20.2676C16.8159 20.7996 16.2644 21.1116 15.7323 20.9639C15.2003 20.816 14.8884 20.2645 15.036 19.7324L16.703 13.7324C16.8232 13.2997 17.2177 13.0001 17.6669 13H19.3329L19.4989 13.0137ZM17.871 17H19.1288L18.5731 15H18.4267L17.871 17Z" fill="black"/>
</svg>
