<svg width="24" height="24" viewBox="0 0 24 24" fill="none" xmlns="http://www.w3.org/2000/svg">
<path d="M15.5 3C15.8601 3 16.1925 3.19356 16.3701 3.50684C16.5476 3.82034 16.5428 4.20572 16.3574 4.51465L14.2666 8H18C18.3958 8 18.7539 8.23372 18.914 8.5957C19.0741 8.95765 19.0064 9.37999 18.7402 9.67285L8.74022 20.6729C8.41757 21.0278 7.88783 21.1035 7.4785 20.8535C7.06926 20.6035 6.89506 20.0975 7.06346 19.6484L9.55662 13H5.99998C5.63795 13 5.30376 12.8042 5.12693 12.4883C4.95035 12.1726 4.95842 11.786 5.14744 11.4775L10.0547 3.47754C10.2365 3.18118 10.5595 3.00009 10.9072 3H15.5ZM7.78611 11H11C11.328 11 11.6354 11.1611 11.8222 11.4307C12.0089 11.7002 12.0516 12.0446 11.9365 12.3516L10.7676 15.4678L15.7392 10H12.5C12.1399 10 11.8074 9.80644 11.6299 9.49316C11.4524 9.17966 11.4572 8.79428 11.6426 8.48535L13.7334 5H11.4668L7.78611 11Z" fill="black"/>
</svg>
