<svg width="24" height="24" viewBox="0 0 24 24" fill="none" xmlns="http://www.w3.org/2000/svg">
<path d="M4.29308 4.29297C4.6836 3.9025 5.31663 3.90246 5.70714 4.29297L19.7071 18.293C20.0976 18.6835 20.0976 19.3165 19.7071 19.707C19.3166 20.0975 18.6836 20.0975 18.2931 19.707L13.7482 15.1621L8.74034 20.6729C8.41773 21.0277 7.88792 21.1034 7.47862 20.8535C7.06944 20.6035 6.89522 20.0975 7.06358 19.6484L9.55675 13H6.00011C5.63814 13 5.30388 12.8041 5.12706 12.4883C4.95051 12.1726 4.95858 11.786 5.14757 11.4775L7.01573 8.42969L4.29308 5.70703C3.90255 5.31651 3.90255 4.68349 4.29308 4.29297ZM10.7677 15.4678L12.3312 13.7451L11.6632 13.0771L10.7677 15.4678ZM7.78624 11H9.58605L8.46983 9.88379L7.78624 11Z" fill="black"/>
<path d="M15.5001 3C15.8596 3.00007 16.1915 3.19343 16.3692 3.50586C16.5468 3.81825 16.543 4.20182 16.3595 4.51074L14.2657 8.03125L17.9913 8C18.3886 7.99668 18.7509 8.22916 18.9132 8.5918C19.0752 8.95436 19.0074 9.37894 18.7403 9.67285L16.1105 12.5635L14.6935 11.1465L15.7208 10.0186L13.5841 10.0371L11.8048 8.25781L13.7423 5H11.4669L10.3566 6.80957L8.90245 5.35547L10.0548 3.47754C10.2366 3.18125 10.5597 3.00012 10.9073 3H15.5001Z" fill="black"/>
</svg>
