<svg width="24" height="24" viewBox="0 0 24 24" fill="none" xmlns="http://www.w3.org/2000/svg">
<path d="M12 5H7V20H10V18C10 17.4477 10.4477 17 11 17C11.5523 17 12 17.4477 12 18V20H15V12H17V20C17 21.1046 16.1046 22 15 22H7C5.89543 22 5 21.1046 5 20V5C5 3.89543 5.89543 3 7 3H12V5Z" fill="black"/>
<path d="M10 15H8V13H10V15Z" fill="black"/>
<path d="M14 15H12V13H14V15Z" fill="black"/>
<path d="M10 12H8V10H10V12Z" fill="black"/>
<path d="M14 12H12V10H14V12Z" fill="black"/>
<path d="M16.5 2C18.433 2 20 3.55738 20 5.47852C20 7.1842 18.1607 9.51769 16.9316 10.8311C16.6967 11.0818 16.3033 11.0818 16.0684 10.8311C14.8393 9.51769 13 7.1842 13 5.47852C13 3.55738 14.567 2 16.5 2ZM16.5 4C15.6716 4 15 4.67157 15 5.5C15 6.32843 15.6716 7 16.5 7C17.3284 7 18 6.32843 18 5.5C18 4.67157 17.3284 4 16.5 4Z" fill="black"/>
<path d="M10 9H8V7H10V9Z" fill="black"/>
</svg>
