<svg width="24" height="24" viewBox="0 0 24 24" fill="none" xmlns="http://www.w3.org/2000/svg">
<path d="M13 2C14.1046 2 15 2.89543 15 4V6C15 7.03565 14.2128 7.887 13.2041 7.98926L13 8V10H18C19.1046 10 20 10.8954 20 12V14.1787C21.1646 14.6019 22 15.7394 22 17.0801C22 18.5995 20.404 20.681 19.3506 21.8398C19.1614 22.048 18.8386 22.048 18.6494 21.8398C17.596 20.681 16 18.5995 16 17.0801C16 15.7394 16.8354 14.6019 18 14.1787V12H13V14.1787C14.1646 14.6019 15 15.7394 15 17.0801C15 18.5995 13.404 20.681 12.3506 21.8398C12.1614 22.048 11.8386 22.048 11.6494 21.8398C10.596 20.681 9 18.5995 9 17.0801C9 15.7394 9.83539 14.6019 11 14.1787V12H6V14.1787C7.16461 14.6019 8 15.7394 8 17.0801C8 18.5995 6.40401 20.681 5.35059 21.8398C5.16137 22.048 4.83863 22.048 4.64941 21.8398C3.59599 20.681 2 18.5995 2 17.0801C2 15.7394 2.83539 14.6019 4 14.1787V12C4 10.8954 4.89543 10 6 10H11V8L10.7959 7.98926C9.78722 7.887 9 7.03565 9 6V4C9 2.89543 9.89543 2 11 2H13ZM5 16C4.44772 16 4 16.4477 4 17C4 17.5523 4.44772 18 5 18C5.55228 18 6 17.5523 6 17C6 16.4477 5.55228 16 5 16ZM12 16C11.4477 16 11 16.4477 11 17C11 17.5523 11.4477 18 12 18C12.5523 18 13 17.5523 13 17C13 16.4477 12.5523 16 12 16ZM19 16C18.4477 16 18 16.4477 18 17C18 17.5523 18.4477 18 19 18C19.5523 18 20 17.5523 20 17C20 16.4477 19.5523 16 19 16Z" fill="#233D48"/>
</svg>
