<svg fill="none" xmlns="http://www.w3.org/2000/svg" viewBox="0 0 24 24">
  <path d="M12.406 3.22a1.005 1.005 0 0 1 1.41.155l3.512 4.376c.586.73.586 1.768 0 2.498l-3.512 4.376a1.005 1.005 0 0 1-1.41.156.998.998 0 0 1-.157-1.406L14.96 10H9.52a4.507 4.507 0 0 0-4.514 4.5c0 2.485 2.02 4.5 4.514 4.5h3.476c.554 0 1.003.448 1.003 1s-.45 1-1.003 1H9.52C5.92 21 3 18.09 3 14.5S5.92 8 9.521 8h5.437L12.25 4.625a.998.998 0 0 1 .157-1.406Zm4.232 0a1.006 1.006 0 0 1 1.41.155l3.512 4.376c.587.73.587 1.768 0 2.498l-3.511 4.376a1.006 1.006 0 0 1-1.41.156.998.998 0 0 1-.157-1.406L19.994 9l-3.512-4.375a.998.998 0 0 1 .157-1.406Z" fill="#657884"/>
</svg>
