<svg fill="none" xmlns="http://www.w3.org/2000/svg" viewBox="0 0 24 24">
  <path d="M4 2a2 2 0 0 0-2 2v2a2 2 0 0 0 2 2h8a2 2 0 0 0 2-2V4a2 2 0 0 0-2-2H4Zm8 2v2H4V4h8Zm0 5a2 2 0 0 0-2 2v2a2 2 0 0 0 2 2h8a2 2 0 0 0 2-2v-2a2 2 0 0 0-2-2h-8Zm8 4h-8v-2h8v2ZM5 18a2 2 0 0 1 2-2h8a2 2 0 0 1 2 2v2a2 2 0 0 1-2 2H7a2 2 0 0 1-2-2v-2Zm2 0v2h8v-2H7ZM4 9a2 2 0 0 0-2 2v2a2 2 0 0 0 2 2h2a2 2 0 0 0 2-2v-2a2 2 0 0 0-2-2H4Zm2 2v2H4v-2h2Zm10-7a2 2 0 0 1 2-2h2a2 2 0 0 1 2 2v2a2 2 0 0 1-2 2h-2a2 2 0 0 1-2-2V4Zm2 0v2h2V4h-2Z" fill="#657884"/>
</svg>
