<svg fill="none" xmlns="http://www.w3.org/2000/svg" viewBox="0 0 24 24">
  <path d="M8.5 11a1.5 1.5 0 1 0 0-3 1.5 1.5 0 0 0 0 3ZM17 9.5a1.5 1.5 0 1 1-3 0 1.5 1.5 0 0 1 3 0Zm-7.072 4.129a1 1 0 1 0-1.856.742c.688 1.72 2.376 2.504 3.928 2.504s3.24-.784 3.928-2.504a1 1 0 0 0-1.857-.742c-.312.78-1.123 1.246-2.071 1.246-.948 0-1.76-.466-2.072-1.246Z" fill="#000"/>
  <path d="M22 12c0 5.523-4.477 10-10 10S2 17.523 2 12 6.477 2 12 2s10 4.477 10 10Zm-2 0a8 8 0 1 0-16 0 8 8 0 0 0 16 0Z" fill="#000"/>
</svg>
