<svg width="24" height="24" viewBox="0 0 24 24" fill="none" xmlns="http://www.w3.org/2000/svg">
<path fill-rule="evenodd" clip-rule="evenodd" d="M17 5H7C5.89543 5 5 5.89543 5 7V9H7C7.55228 9 8 9.44772 8 10V15C8 15.5523 7.55228 16 7 16H4C3.44772 16 3 15.5523 3 15V7C3 4.79086 4.79086 3 7 3H17C19.2091 3 21 4.79086 21 7V17C21 19.2091 19.2091 21 17 21H12C11.4477 21 11 20.5523 11 20C11 19.4477 11.4477 19 12 19H17C18.1046 19 19 18.1046 19 17V16H17C16.4477 16 16 15.5523 16 15V10C16 9.44772 16.4477 9 17 9H19V7C19 5.89543 18.1046 5 17 5ZM19 11H18V14H19V11ZM5 14H6V11H5V14Z" fill="#233D48"/>
</svg>
