<svg fill="none" xmlns="http://www.w3.org/2000/svg" viewBox="0 0 24 24">
  <path d="M11.969 7c-1.375 0-2.575 1.161-2.707 1.293a1.001 1.001 0 0 0 1.41 1.417c.291-.286.904-.71 1.296-.71a1 1 0 0 1 .591 1.808c-1.01.74-1.59 1.808-1.59 2.929V14a1 1 0 0 0 2 0v-.263c0-.653.484-1.105.773-1.317A3.013 3.013 0 0 0 14.968 10c0-1.654-1.345-3-3-3ZM12 16a1 1 0 1 0 0 2 1 1 0 0 0 0-2Z" fill="#657884"/>
  <path d="M22 12c0 5.523-4.477 10-10 10S2 17.523 2 12 6.477 2 12 2s10 4.477 10 10Zm-2 0a8 8 0 1 0-16 0 8 8 0 0 0 16 0Z" fill="#657884"/>
</svg>
