<svg width="24" height="24" viewBox="0 0 24 24" fill="none" xmlns="http://www.w3.org/2000/svg">
<path d="M3.99951 6.39998C3.99951 5.95815 4.35769 5.59998 4.79951 5.59998H19.1995C19.6414 5.59998 19.9995 5.95815 19.9995 6.39998C19.9995 6.8418 19.6414 7.19998 19.1995 7.19998H4.79951C4.35769 7.19998 3.99951 6.8418 3.99951 6.39998Z" fill="#233D48"/>
<path d="M3.99951 17.6C3.99951 17.1581 4.35769 16.8 4.79951 16.8H19.1995C19.6414 16.8 19.9995 17.1581 19.9995 17.6C19.9995 18.0418 19.6414 18.4 19.1995 18.4H4.79951C4.35769 18.4 3.99951 18.0418 3.99951 17.6Z" fill="#233D48"/>
<path d="M5.59951 8.79998C4.71586 8.79998 3.99951 9.51632 3.99951 10.4V13.6C3.99951 14.4837 4.71586 15.2 5.59951 15.2H9.59951C10.4832 15.2 11.1995 14.4837 11.1995 13.6V10.4C11.1995 9.51632 10.4832 8.79998 9.59951 8.79998H5.59951ZM9.59951 10.4V13.6H5.59951V10.4H9.59951Z" fill="#233D48"/>
<path d="M5.59951 8.79998C4.71586 8.79998 3.99951 9.51632 3.99951 10.4V13.6C3.99951 14.4837 4.71586 15.2 5.59951 15.2H9.59951C10.4832 15.2 11.1995 14.4837 11.1995 13.6V10.4C11.1995 9.51632 10.4832 8.79998 9.59951 8.79998H5.59951ZM9.59951 10.4V13.6H5.59951V10.4H9.59951Z" fill="#233D48"/>
<path d="M14.2984 8.79998C13.4148 8.79998 12.6984 9.51632 12.6984 10.4V13.6C12.6984 14.4837 13.4148 15.2 14.2984 15.2H18.2984C19.1821 15.2 19.8984 14.4837 19.8984 13.6V10.4C19.8984 9.51632 19.1821 8.79998 18.2984 8.79998H14.2984ZM18.2984 10.4V13.6H14.2984V10.4H18.2984Z" fill="#233D48"/>
<path d="M14.2984 8.79998C13.4148 8.79998 12.6984 9.51632 12.6984 10.4V13.6C12.6984 14.4837 13.4148 15.2 14.2984 15.2H18.2984C19.1821 15.2 19.8984 14.4837 19.8984 13.6V10.4C19.8984 9.51632 19.1821 8.79998 18.2984 8.79998H14.2984ZM18.2984 10.4V13.6H14.2984V10.4H18.2984Z" fill="#233D48"/>
</svg>
