<svg width="24" height="24" viewBox="0 0 24 24" fill="none" xmlns="http://www.w3.org/2000/svg">
<path d="M12 8C12.5523 8 13 7.5523 13 7C13 6.4477 12.5523 6 12 6C11.4477 6 11 6.4477 11 7C11 7.5523 11.4477 8 12 8Z" fill="#233D48"/>
<path d="M14.5 15H13V10C13 9.4477 12.5523 9 12 9L10 9C9.44772 9 9 9.4477 9 10C9 10.5523 9.44772 11 10 11L11 11V15H9.5C8.94772 15 8.5 15.4477 8.5 16C8.5 16.5523 8.94772 17 9.5 17H14.5C15.0523 17 15.5 16.5523 15.5 16C15.5 15.4477 15.0523 15 14.5 15Z" fill="#233D48"/>
<path d="M2 12C2 6.4772 6.4772 2 12 2C17.5229 2 22 6.4772 22 12C22 17.5229 17.5228 22 12 22C6.4772 22 2 17.5228 2 12ZM4 12C4 16.4183 7.5817 20 12 20C16.4183 20 20 16.4183 20 12C20 7.5817 16.4183 4 12 4C7.5817 4 4 7.5817 4 12Z" fill="#233D48"/>
</svg>
