<svg width="24" height="24" viewBox="0 0 24 24" fill="none" xmlns="http://www.w3.org/2000/svg">
<path d="M16.6667 5.33333C17.0349 5.33333 17.3333 5.63181 17.3333 6V12.6667C17.3333 13.0349 17.0349 13.3333 16.6667 13.3333H7.33333C6.96514 13.3333 6.66667 13.0349 6.66667 12.6667V6C6.66667 5.63181 6.96514 5.33333 7.33333 5.33333H16.6667ZM9.33333 10.6667H14.6667V8H9.33333V10.6667Z" fill="black"/>
<path d="M21.3333 0C22.8061 0 24 1.19391 24 2.66667V20C24 22.2091 22.2091 24 20 24H4C1.79086 24 0 22.2091 0 20V2.66667C0 1.19391 1.19391 0 2.66667 0H21.3333ZM2.66667 20C2.66667 20.7364 3.26362 21.3333 4 21.3333H20C20.7364 21.3333 21.3333 20.7364 21.3333 20V18.6667H2.66667V20ZM2.66667 16H21.3333V2.66667H2.66667V16Z" fill="black"/>
</svg>
