<svg width="24" height="24" viewBox="0 0 24 24" fill="none" xmlns="http://www.w3.org/2000/svg">
<path d="M15.5 7C15.7761 7 16 7.22386 16 7.5V12.5C16 12.7761 15.7761 13 15.5 13H8.5C8.22386 13 8.00001 12.7761 8 12.5V7.5C8 7.22386 8.22386 7 8.5 7H15.5ZM10 11H14V9H10V11Z" fill="black"/>
<path d="M19 3C20.1046 3 21 3.89543 21 5V18C21 19.6568 19.6568 21 18 21H6C4.34315 21 3.00001 19.6568 3 18V5C3 3.89543 3.89543 3 5 3H19ZM5 18C5.00001 18.5523 5.44772 19 6 19H18C18.5523 19 19 18.5523 19 18V17H5V18ZM5 15H19V5H5V15Z" fill="black"/>
</svg>
