<svg fill="none" xmlns="http://www.w3.org/2000/svg" viewBox="0 0 24 24">
  <path d="M8 12a1 1 0 1 1 2 0 1 1 0 0 1-2 0Zm1 3a1 1 0 1 0 0 2 1 1 0 0 0 0-2Zm3-3a1 1 0 0 1 1-1h2a1 1 0 1 1 0 2h-2a1 1 0 0 1-1-1Zm1 3a1 1 0 1 0 0 2h2a1 1 0 1 0 0-2h-2Z" fill="#657884"/>
  <path d="M10 2a1 1 0 0 0-.707.293L7.586 4H6a2 2 0 0 0-2 2v14a2 2 0 0 0 2 2h12a2 2 0 0 0 2-2V6a2 2 0 0 0-2-2h-1.586l-1.707-1.707A1 1 0 0 0 14 2h-4Zm6.414 4H18v14H6V6h1.586l1.707 1.707A1 1 0 0 0 10 8h4a1 1 0 0 0 .707-.293L16.414 6Zm-7-1 1-1h3.172l1 1-1 1h-3.172l-1-1Z" fill="#657884"/>
</svg>
