<svg width="24" height="24" viewBox="0 0 24 24" fill="none" xmlns="http://www.w3.org/2000/svg">
<path d="M19.6289 6.07129C19.9369 5.94824 20.2859 5.98599 20.5605 6.17188C20.8353 6.35789 21 6.66822 21 7V17C21 17.4089 20.7507 17.7769 20.3711 17.9287L15.3818 19.9238L15.377 19.9268L15.2539 19.9678C15.2256 19.9752 15.1966 19.9785 15.168 19.9834C15.1607 19.9846 15.1537 19.9872 15.1465 19.9883C15.1179 19.9925 15.0893 19.9944 15.0605 19.9961C15.0498 19.9967 15.0391 19.9978 15.0283 19.998C15.0022 19.9988 14.9763 19.9974 14.9502 19.9961C14.9359 19.9954 14.9215 19.9955 14.9072 19.9941C14.8816 19.9917 14.8564 19.9878 14.8311 19.9834C14.8181 19.9812 14.8049 19.9803 14.792 19.9775C14.764 19.9716 14.7365 19.9635 14.709 19.9551C14.7006 19.9525 14.6919 19.951 14.6836 19.9482L9.03125 18.0635L4.37109 19.9287C4.06314 20.0518 3.7141 20.014 3.43945 19.8281C3.16472 19.6421 3.00002 19.3318 3 19V9C3.00003 8.59113 3.24928 8.22315 3.62891 8.07129L7.5 6.52148C7.50345 7.18523 7.6673 7.86593 7.9043 8.51367L5 9.67676V17.5225L8 16.3223V9H8.10156C8.28484 9.4285 8.48954 9.83684 8.69531 10.2061C9.10617 10.9432 9.57594 11.6425 10 12.2324V16.2793L14 17.6123V13.4473C14.1469 13.3294 14.2832 13.1916 14.4053 13.0342C14.8093 12.513 15.3294 11.7965 15.8281 11H16V17.5225L19 16.3223V8.47656L17 9.27539V8.76172C17.2349 8.17227 17.4163 7.54919 17.4766 6.93164L19.6289 6.07129Z" fill="#233D48"/>
<path d="M12.5 3C14.433 3 16 4.567 16 6.5C16 8.27055 14.2442 10.7937 13.2197 12.1152C12.8491 12.593 12.1509 12.593 11.7803 12.1152C10.7558 10.7937 9 8.27055 9 6.5C9 4.567 10.567 3 12.5 3ZM12.5 5C11.6716 5 11 5.67157 11 6.5C11 7.32843 11.6716 8 12.5 8C13.3284 8 14 7.32843 14 6.5C14 5.67157 13.3284 5 12.5 5Z" fill="#233D48"/>
</svg>
