<svg viewBox="0 0 24 24" fill="none" xmlns="http://www.w3.org/2000/svg">
<path d="M18.3086 8.72168C19.1537 8.43082 20.0713 9.05609 20.0713 9.98535V17.8311C20.0712 18.2457 19.8779 18.6333 19.5557 18.8838L19.4092 18.9824L15.0859 21.5049L14.7744 21.6865L9.34473 18.9717L6.00586 20.9199C5.11708 21.4383 4.00021 20.7964 4 19.7676V11.29C4 10.7518 4.32446 10.2656 4.82129 10.0586L7.35254 9.00293C7.4954 9.39333 7.67586 9.80455 7.88184 10.2266L5.33398 11.29V19.7676L8.6543 17.8301V11.665C9.0749 12.3898 9.53697 13.1109 9.9873 13.7812V17.8018L14.084 19.8496V14.9053C14.5056 14.3115 14.9658 13.6359 15.417 12.9297V19.7676L18.7373 17.8311V9.98535L16.5117 11.0967C16.8806 10.4237 17.2023 9.75889 17.4385 9.14258L18.1416 8.79199L18.3086 8.72168ZM12.4229 3.47656C14.5646 3.47663 16.3016 5.21281 16.3018 7.35449C16.3018 9.49121 12.4415 14.3127 12.4229 14.3359C12.4229 14.3359 8.54492 9.49637 8.54492 7.35449C8.54511 5.21289 10.2813 3.47676 12.4229 3.47656ZM12.4229 5.80371C11.5664 5.8039 10.8723 6.49803 10.8721 7.35449C10.8721 8.21113 11.5663 8.90606 12.4229 8.90625C13.2795 8.90618 13.9746 8.2112 13.9746 7.35449C13.9744 6.49796 13.2794 5.80378 12.4229 5.80371Z" fill="#032B3A"/>
</svg>
