<svg fill="none" xmlns="http://www.w3.org/2000/svg" viewBox="0 0 24 24">
  <path d="M19 4.024c0-.91-1.1-1.366-1.742-.723L16.121 4.44A8.65 8.65 0 0 1 10 6.979H5c-1.657 0-3 1.345-3 3.004v2.003a3.002 3.002 0 0 0 3 3.004v4.006A3.002 3.002 0 0 0 8 22c1.657 0 3-1.345 3-3.004v-3.948a8.652 8.652 0 0 1 5.121 2.481l1.137 1.139c.643.643 1.742.188 1.742-.723v-3.081a4.006 4.006 0 0 0 3-3.88 4.006 4.006 0 0 0-3-3.879V4.024Zm0 5.226a2.003 2.003 0 0 1 0 3.47V9.25ZM7 18.996V14.99h2v4.006a1 1 0 1 1-2 0Zm10-3.384a10.65 10.65 0 0 0-6-2.578v-4.1a10.65 10.65 0 0 0 6-2.577v9.255Zm-8-2.625H5a1 1 0 0 1-1-1.001V9.983a1 1 0 0 1 1-1.001h4v4.005Z" fill="#000"/>
</svg>
