<svg width="24" height="24" viewBox="0 0 24 24" fill="none" xmlns="http://www.w3.org/2000/svg">
<g id="measurement">
<g id="Union">
<path d="M5 18C5 18.5523 5.44772 19 6 19H7.5V21H6C4.34315 21 3 19.6569 3 18V16.5H5V18Z" fill="black"/>
<path d="M13.5 21H10.5V19H13.5V21Z" fill="black"/>
<path d="M21 18C21 19.6569 19.6569 21 18 21H16.5V19H18C18.5523 19 19 18.5523 19 18V16.5H21V18Z" fill="black"/>
<path d="M5 13.5H3V10.5H5V13.5Z" fill="black"/>
<path d="M21 13.5H19V10.5H21V13.5Z" fill="black"/>
<path d="M7.5 5H6C5.44772 5 5 5.44772 5 6V7.5H3V6C3 4.34315 4.34315 3 6 3H7.5V5Z" fill="black"/>
<path d="M18 3C19.6569 3 21 4.34315 21 6V7.5H19V6C19 5.44772 18.5523 5 18 5H16.5V3H18Z" fill="black"/>
<path d="M13.5 5H10.5V3H13.5V5Z" fill="black"/>
</g>
</g>
</svg>
