<svg width="24" height="24" viewBox="0 0 24 24" fill="none" xmlns="http://www.w3.org/2000/svg">
<rect width="24" height="24" fill="white"/>
<path d="M8 6C8 3.79086 9.79086 2 12 2C14.2091 2 16 3.79086 16 6V12C16 14.2091 14.2091 16 12 16C9.79086 16 8 14.2091 8 12V6ZM14 6C14 4.89543 13.1046 4 12 4C10.8954 4 10 4.89543 10 6V12C10 13.1046 10.8954 14 12 14C13.1046 14 14 13.1046 14 12V6Z" fill="#233D48"/>
<path d="M7 13C7 12.4477 6.55228 12 6 12C5.44772 12 5 12.4477 5 13C5 16.3137 7.68629 19 11 19V20H8C7.44772 20 7 20.4477 7 21C7 21.5523 7.44772 22 8 22H16C16.5523 22 17 21.5523 17 21C17 20.4477 16.5523 20 16 20H13V19C16.3137 19 19 16.3137 19 13C19 12.4477 18.5523 12 18 12C17.4477 12 17 12.4477 17 13C17 15.2091 15.2091 17 13 17H11C8.79086 17 7 15.2091 7 13Z" fill="#233D48"/>
</svg>
