<svg width="24" height="24" viewBox="0 0 24 24" fill="none" xmlns="http://www.w3.org/2000/svg">
<rect width="24" height="24" fill="white"/>
<path d="M14 6V10.5858L15.9627 12.5485C15.9873 12.3692 16 12.1861 16 12V6C16 3.79086 14.2091 2 12 2C10.2176 2 8.70755 3.16576 8.19061 4.7764L10 6.58578V6C10 4.89543 10.8954 4 12 4C13.1046 4 14 4.89543 14 6Z" fill="#233D48"/>
<path d="M8 9.41421L4.29289 5.70711C3.90237 5.31658 3.90237 4.68342 4.29289 4.29289C4.68342 3.90237 5.31658 3.90237 5.70711 4.29289L19.7071 18.2929C20.0976 18.6834 20.0976 19.3166 19.7071 19.7071C19.3166 20.0976 18.6834 20.0976 18.2929 19.7071L16.4765 17.8907C15.4957 18.5892 14.2958 19 13 19V20H16C16.5523 20 17 20.4477 17 21C17 21.5523 16.5523 22 16 22H8C7.44772 22 7 21.5523 7 21C7 20.4477 7.44772 20 8 20H11V19C7.68629 19 5 16.3137 5 13C5 12.4477 5.44772 12 6 12C6.55228 12 7 12.4477 7 13C7 15.2091 8.79086 17 11 17H13C13.7418 17 14.4365 16.7981 15.032 16.4462L14.032 15.4462C13.4365 15.7981 12.7418 16 12 16C9.79086 16 8 14.2091 8 12V9.41421ZM12.518 13.9323L10 11.4142V12C10 13.1046 10.8954 14 12 14C12.1792 14 12.3528 13.9764 12.518 13.9323Z" fill="#233D48"/>
<path d="M16.9627 13.5485L18.5924 15.1782C18.8556 14.503 19 13.7683 19 13C19 12.4477 18.5523 12 18 12C17.4477 12 17 12.4477 17 13C17 13.1861 16.9873 13.3692 16.9627 13.5485Z" fill="#233D48"/>
</svg>
