<svg width="24" height="24" viewBox="0 0 24 24" fill="none" xmlns="http://www.w3.org/2000/svg">
<path d="M13.9909 3.61298C13.9632 2.91265 14.5697 2.31132 15.2331 2.53778C19.1686 3.88159 21.9994 7.609 21.9997 11.9997L21.987 12.5143C21.7193 17.798 17.4997 21.9994 11.9997 21.9997C5.50035 21.9997 3.00022 16.5004 2.67155 15.6013L2.53874 15.235C2.31262 14.5718 2.91355 13.9652 3.61394 13.9929L3.9987 13.9997C9.34863 13.9994 13.7181 9.7978 13.986 4.51434L13.9987 3.9997L13.9909 3.61298ZM15.9518 5.04559C15.4516 10.8378 10.8376 15.4517 5.04558 15.9528C6.42213 18.3714 9.02144 19.9995 11.9987 19.9997C16.2789 19.9997 19.7736 16.6387 19.988 12.4118L19.9987 11.9997C19.9984 9.02222 18.3704 6.42212 15.9518 5.04559Z" fill="black"/>
</svg>
