<svg fill="none" xmlns="http://www.w3.org/2000/svg" viewBox="0 0 24 24">
  <path d="M4 4a2 2 0 0 0-2 2h10v10h-1.17a3.001 3.001 0 0 0-5.66 0H2a2 2 0 0 0 2 2h1.17a3.001 3.001 0 0 0 5.66 0h3.34a3.001 3.001 0 0 0 5.66 0H20a2 2 0 0 0 2-2v-6l-2.903-4.147A2 2 0 0 0 17.46 5h-3.727A2 2 0 0 0 12 4H4Zm15.83 12a3.001 3.001 0 0 0-5.66 0H14v-4h6v4h-.17ZM9 17a1 1 0 1 1-2 0 1 1 0 0 1 2 0Zm8.25-10L19 10h-5V7h3.25ZM18 17a1 1 0 1 1-2 0 1 1 0 0 1 2 0Z" fill="#7DB00E"/>
  <path d="M2 8a1 1 0 0 1 1-1h4a1 1 0 0 1 0 2H3a1 1 0 0 1-1-1Zm2 3a1 1 0 0 1 1-1h3a1 1 0 1 1 0 2H5a1 1 0 0 1-1-1Z" fill="#7DB00E"/>
</svg>
