<svg fill="none" xmlns="http://www.w3.org/2000/svg" viewBox="0 0 24 24">
  <path d="M4 12a1 1 0 0 1 1-1h4a1 1 0 1 1 0 2H5a1 1 0 0 1-1-1Zm2 3a1 1 0 0 1 1-1h3a1 1 0 1 1 0 2H7a1 1 0 0 1-1-1Z" fill="#657884"/>
  <path d="m13.84 21.51-.066.09a.952.952 0 0 1-1.548 0l-.066-.09c-.777-1.07-1.979-2.725-3.116-4.51h2.228A57.251 57.251 0 0 0 13 19.5s5-6.739 5-9.5a5 5 0 0 0-10 0H6a7 7 0 0 1 14 0c0 3.03-4.3 8.95-6.16 11.51Z" fill="#657884"/>
  <path d="M11 10a2 2 0 1 0 4 0 2 2 0 0 0-4 0Z" fill="#657884"/>
</svg>
