<svg width="24" height="24" viewBox="0 0 24 24" fill="none" xmlns="http://www.w3.org/2000/svg">
<g id="number">
<g id="Union">
<path d="M15.666 3.00617C16.2147 3.06737 16.6098 3.56193 16.5488 4.11067L16.1172 8.00031H19C19.5523 8.00031 20 8.44803 20 9.00031C19.9998 9.55245 19.5522 10.0003 19 10.0003H15.8945L15.4502 14.0003H19C19.5523 14.0003 20 14.448 20 15.0003C19.9998 15.5525 19.5522 16.0003 19 16.0003H15.2285L14.7715 20.1107C14.7103 20.6593 14.2157 21.0554 13.667 20.9945C13.1184 20.9333 12.7225 20.4385 12.7832 19.89L13.2158 16.0003H9.89551L9.43848 20.1107C9.37733 20.6594 8.88274 21.0554 8.33398 20.9945C7.78526 20.9334 7.38947 20.4387 7.4502 19.89L7.88281 16.0003H5C4.44782 16.0003 4.00017 15.5525 4 15.0003C4 14.448 4.44772 14.0003 5 14.0003H8.10449L8.5498 10.0003H5C4.44782 10.0003 4.00017 9.55245 4 9.00031C4 8.44803 4.44772 8.00031 5 8.00031H8.77148L9.22852 3.88996C9.2895 3.34108 9.78413 2.94523 10.333 3.00617C10.8817 3.06737 11.2768 3.56193 11.2158 4.11067L10.7842 8.00031H14.1045L14.5615 3.88996C14.6225 3.34119 15.1173 2.94542 15.666 3.00617ZM10.5615 10.0003L10.1172 14.0003H13.4375L13.8828 10.0003H10.5615Z" fill="black"/>
</g>
</g>
</svg>
