<svg fill="none" xmlns="http://www.w3.org/2000/svg" viewBox="0 0 24 24">
  <path d="M7 3v1H5a2 2 0 0 0-2 2v3a1 1 0 0 0 2 0V6h15v2h-8a1 1 0 1 0 0 2h8v7h-7a1 1 0 1 0 0 2h7a2 2 0 0 0 2-2V6a2 2 0 0 0-2-2h-2V3a1 1 0 1 0-2 0v1H9V3a1 1 0 0 0-2 0Z" fill="#657884"/>
  <path d="M10.628 12.303 8.822 7.639c-.223-.852-1.474-.852-1.698 0l-1.752 4.663-2.903 1.37a.835.835 0 0 0 0 1.5l2.903 1.37L7.15 21.36c.224.852 1.475.852 1.698 0l1.78-4.82 2.902-1.368a.835.835 0 0 0 0-1.502l-2.903-1.368Zm-6.132 2.12 1.752-.849.876-.848L8 10.183l.876 2.543.876.848 1.752.848-1.752.848-.876.848L8 18.662l-.876-2.544-.876-.848-1.752-.848Z" fill="#657884"/>
</svg>
