<svg width="24" height="24" viewBox="0 0 24 24" fill="none" xmlns="http://www.w3.org/2000/svg">
<path d="M5 6C5 5.44772 4.55228 5 4 5C3.44772 5 3 5.44772 3 6V18C3 18.5523 3.44772 19 4 19C4.55229 19 5 18.5523 5 18L5 6Z" fill="#233D48"/>
<path d="M21 6C21 5.44772 20.5523 5 20 5C19.4477 5 19 5.44772 19 6V18C19 18.5523 19.4477 19 20 19C20.5523 19 21 18.5523 21 18V6Z" fill="#233D48"/>
<path d="M8 5C6.89543 5 6 5.89543 6 7V10C6 11.1046 6.89543 12 8 12H16C17.1046 12 18 11.1046 18 10V7C18 5.89543 17.1046 5 16 5H8ZM16 7V10H8V7H16Z" fill="#233D48"/>
<path d="M7 15C7 13.8954 7.89543 13 9 13H15C16.1046 13 17 13.8954 17 15V17C17 18.1046 16.1046 19 15 19H9C7.89543 19 7 18.1046 7 17V15ZM9 15V17H15V15H9Z" fill="#233D48"/>
</svg>
