<svg width="24" height="24" viewBox="0 0 24 24" fill="none" xmlns="http://www.w3.org/2000/svg">
<path d="M3 6C3 5.44772 3.44772 5 4 5H20C20.5523 5 21 5.44772 21 6C21 6.55229 20.5523 7 20 7L4 7C3.44772 7 3 6.55228 3 6Z" fill="#233D48"/>
<path d="M3 10C3 8.89543 3.89543 8 5 8H9C10.1046 8 11 8.89543 11 10V14C11 15.1046 10.1046 16 9 16H5C3.89543 16 3 15.1046 3 14V10ZM5 10V14H9V10H5Z" fill="#233D48"/>
<path d="M13 10C13 8.89543 13.8954 8 15 8H19C20.1046 8 21 8.89543 21 10V14C21 15.1046 20.1046 16 19 16H15C13.8954 16 13 15.1046 13 14V10ZM15 10V14H19V10H15Z" fill="#233D48"/>
<path d="M4 17C3.44772 17 3 17.4477 3 18C3 18.5523 3.44772 19 4 19L20 19C20.5523 19 21 18.5523 21 18C21 17.4477 20.5523 17 20 17L4 17Z" fill="#233D48"/>
</svg>
