<svg fill="none" xmlns="http://www.w3.org/2000/svg" viewBox="0 0 24 24">
  <path d="M12.038 10.807c.487-1.64.553-2.779.155-3.347-.199-.307-.53-.46-.907-.46-.442 0-.796.197-.95.59-.332.767.176 2.167.774 3.305a17.46 17.46 0 0 1-.642 1.75c-.133.35-.31.7-.486 1.029-1.327.503-2.787 1.27-2.963 2.188a.901.901 0 0 0 .353.92.877.877 0 0 0 .597.218c.089 0 .177-.022.266-.044.818-.197 1.68-1.4 2.344-2.582a22.18 22.18 0 0 1 1.282-.416 21.548 21.548 0 0 1 1.504-.372c.818.657 1.548 1.007 2.167 1.007.442.022.84-.153 1.15-.481.487-.482.288-.92.221-1.05-.354-.591-1.548-.723-3.295-.395a35.2 35.2 0 0 1-.884-.897 5.224 5.224 0 0 1-.686-.963Zm-4.157 5.208c.044-.219.464-.634 1.371-1.072-.464.657-.907 1.116-1.216 1.182-.067.022-.089 0-.155-.11Zm3.233-8.083c.018-.038.027-.057.15-.057.133 0 .177.044.2.088.154.219.154.788-.023 1.685-.287-.744-.464-1.423-.332-1.707l.005-.01Zm.423 5.224a4.788 4.788 0 0 0-.405.124c.044-.11.088-.219.132-.306l.091-.23c.123-.31.24-.605.33-.886a5.025 5.025 0 0 0 .397.503c.177.175.354.35.51.525-.288.066-.62.153-.952.24l-.103.03Zm4.04.562c-.266 0-.62-.132-.996-.35 1.084-.11 1.637-.066 1.526.13-.11.198-.287.22-.53.22Z" fill="#B00000"/>
  <path d="M6 2a2 2 0 0 0-2 2v16a2 2 0 0 0 2 2h12a2 2 0 0 0 2-2V7.414A2 2 0 0 0 19.414 6L16 2.586A2 2 0 0 0 14.586 2H6Zm0 18V4h8.586L18 7.414V20H6Z" fill="#B00000"/>
</svg>
