<svg fill="none" xmlns="http://www.w3.org/2000/svg" viewBox="0 0 24 24">
  <path d="M2.007 5.06C1.89 3.35 3.3 2 4.947 2h2.368a3.004 3.004 0 0 1 2.95 2.4l.458 2.268A2.471 2.471 0 0 1 9.39 9.369a.429.429 0 0 0-.197.19.198.198 0 0 0-.014.156c.587 1.765 2.087 4.156 5.01 5.021a.248.248 0 0 0 .184-.02.452.452 0 0 0 .2-.204 2.5 2.5 0 0 1 2.722-1.32l2.285.453A2.992 2.992 0 0 1 22 16.573v2.558c0 1.492-1.149 2.876-2.799 2.869-3.168-.013-7.23-.854-10.634-3.418-3.44-2.59-6.106-6.864-6.56-13.521Zm2.94-1.07c-.568 0-.972.454-.939.936.42 6.14 2.838 9.86 5.772 12.07 2.968 2.236 6.569 3.002 9.43 3.013.394.002.784-.34.784-.878v-2.558a.997.997 0 0 0-.807-.976l-2.284-.454a.491.491 0 0 0-.534.26c-.476.943-1.586 1.586-2.752 1.241-3.775-1.116-5.635-4.179-6.342-6.304-.39-1.169.27-2.28 1.22-2.752a.485.485 0 0 0 .26-.53L8.3 4.791a1.001 1.001 0 0 0-.984-.8H4.947Z" fill="#657884"/>
</svg>
