<svg fill="none" xmlns="http://www.w3.org/2000/svg" viewBox="0 0 24 24">
  <path d="M2.015 5.012v11.011c0 1.106.896 2.002 2.002 2.002H20.02a2.002 2.002 0 0 0 2.001-2.002V5.013A2.002 2.002 0 0 0 20.02 3.01H4.018a2.002 2.002 0 0 0-2.002 2.001Zm2.002 0H20.02v11.011H4.017V5.013Zm2.61 16.016a1 1 0 0 1 1.002-1h8.766a1.001 1.001 0 1 1 0 2.001H7.629a1.001 1.001 0 0 1-1.001-1Zm7.489-11.667a2.104 2.104 0 1 1-4.208 0 2.104 2.104 0 0 1 4.208 0Zm2.76 6.662H7.143c0-.473 1.296-3.656 4.87-3.656s4.865 3.184 4.865 3.656Z" fill="#000"/>
</svg>
