<svg width="24" height="24" viewBox="0 0 24 24" fill="none" xmlns="http://www.w3.org/2000/svg">
<path d="M15.9141 7C16.7425 7 17.4141 7.67157 17.4141 8.5C17.4141 9.32843 16.7425 10 15.9141 10C15.0856 10 14.4141 9.32843 14.4141 8.5C14.4141 7.67157 15.0856 7 15.9141 7Z" fill="black"/>
<path fill-rule="evenodd" clip-rule="evenodd" d="M21.4141 11.9998C21.4141 12.2651 21.3087 12.5194 21.1212 12.707L12.8283 20.9999C12.0472 21.7809 10.7809 21.7809 9.99985 20.9998L3.41421 14.4142C2.63316 13.6332 2.63317 12.3668 3.41421 11.5858L11.7071 3.29289C11.8946 3.10536 12.149 3 12.4142 3H19.4141C20.5186 3 21.4141 3.89543 21.4141 5V11.9998ZM4.82812 13L11.4141 19.5859L19.4141 11.5859V5H12.8281L4.82812 13Z" fill="black"/>
</svg>
