<svg viewBox="0 0 24 24" fill="none" xmlns="http://www.w3.org/2000/svg">
    <path
        d="M1.412 15.529c-.78-.78-.78-2.044 0-2.824L9.747 4.37c.408-.408.972-.62 1.547-.58l6.61.45c0 0 .45-.003 1.156.703.706.706.702 1.155.702 1.155l.45 6.61c.04.575-.17 1.14-.578 1.547L11.294 22.588c-.78.78-2.044.78-2.824 0L1.412 15.529zm9.747-9.747L2.824 14.117l7.059 7.059 8.335-8.336-.45-6.61-6.61-.45zm3.318 5.346c.829 0 1.5-.672 1.5-1.5s-.671-1.5-1.5-1.5-1.5.672-1.5 1.5.671 1.5 1.5 1.5z"
        fill="#000" />
</svg>