<svg fill="none" xmlns="http://www.w3.org/2000/svg" viewBox="0 0 24 24">
  <path d="M12 2C6.477 2 2 6.477 2 12s4.477 10 10 10 10-4.477 10-10S17.523 2 12 2Zm2.779 6.112h.555a3.888 3.888 0 1 1 0 7.778h-2.78V5.445c.799 0 1.445.647 1.445 1.445v7.554h1.335a2.447 2.447 0 0 0 2.445-2.443 2.447 2.447 0 0 0-2.445-2.445h-.555V8.112Zm-6.113 7.777a3.888 3.888 0 1 1 0-7.778h2.78v10.445A1.445 1.445 0 0 1 10 17.11V9.556H8.666A2.447 2.447 0 0 0 6.22 12a2.447 2.447 0 0 0 2.445 2.444h.555v1.445h-.555Z" fill="#657884"/>
</svg>
