<svg fill="none" xmlns="http://www.w3.org/2000/svg" viewBox="0 0 24 24">
  <path d="M7.007 2.933a1 1 0 0 0-1.001 1v1.002H5.005a2.002 2.002 0 0 0-2.002 2.001v9.01c0 1.105.896 2.001 2.002 2.001h11.01a2.002 2.002 0 0 0 2.002-2.002V6.936a2.002 2.002 0 0 0-2.001-2.002h-1.001v-1a1.001 1.001 0 1 0-2.002 0v1H8.008v-1c0-.553-.448-1.002-1.001-1.002Zm9.009 4.003v2.002H5.005V6.936h11.01Zm-11.011 9.01V10.94h11.01v5.005H5.006Zm2.002 5.004a2.002 2.002 0 0 1-2.002-2.002h13.013a1 1 0 0 0 1-1V6.935c1.106 0 2.003.897 2.003 2.002v10.01a2.002 2.002 0 0 1-2.002 2.002H7.007Z" fill="#000"/>
</svg>
