<svg width="24" height="24" viewBox="0 0 24 24" fill="none" xmlns="http://www.w3.org/2000/svg">
<path d="M15 9C18.3137 9 21 11.6863 21 15C21 18.3137 18.3137 21 15 21C11.6863 21 9 18.3137 9 15C9 11.6863 11.6863 9 15 9ZM15 11C12.7909 11 11 12.7909 11 15C11 17.2091 12.7909 19 15 19C17.2091 19 19 17.2091 19 15C19 12.7909 17.2091 11 15 11Z" fill="black"/>
<path d="M15 4C15.5523 4 16 4.44772 16 5V8.07227C15.6733 8.02553 15.3396 8 15 8C14.6604 8 14.3267 8.02553 14 8.07227V6H6V14H8.07227C8.02553 14.3267 8 14.6604 8 15C8 15.3396 8.02553 15.6733 8.07227 16H5C4.44772 16 4 15.5523 4 15V5C4 4.44772 4.44772 4 5 4H15Z" fill="black"/>
</svg>
