<svg width="24" height="24" viewBox="0 0 24 24" fill="none" xmlns="http://www.w3.org/2000/svg">
<path d="M15 9C18.3137 9 21 11.6863 21 15C21 18.3137 18.3137 21 15 21C11.6863 21 9 18.3137 9 15C9 11.6863 11.6863 9 15 9ZM15 11C12.7909 11 11 12.7909 11 15C11 17.2091 12.7909 19 15 19C17.2091 19 19 17.2091 19 15C19 12.7909 17.2091 11 15 11Z" fill="black"/>
<path d="M14.2041 4.01074C15.2128 4.113 16 4.96435 16 6V8H14V6H6V14H8V16H6C4.96435 16 4.113 15.2128 4.01074 14.2041L4 14V6C4 4.89543 4.89543 4 6 4H14L14.2041 4.01074Z" fill="black"/>
</svg>
