<svg width="24" height="24" viewBox="0 0 24 24" fill="none" xmlns="http://www.w3.org/2000/svg">
<path d="M13.2812 8.30566C13.665 7.90846 14.2971 7.89755 14.6943 8.28125L17.6143 11.1006C18.1229 11.592 18.1229 12.408 17.6143 12.8994L14.6943 15.7188C14.2971 16.1025 13.665 16.0915 13.2812 15.6943C12.8976 15.2971 12.9085 14.665 13.3057 14.2812L15.666 12L13.3057 9.71875C12.9085 9.33503 12.8976 8.70287 13.2812 8.30566Z" fill="#233D48"/>
<path d="M20.2041 4.01074C21.2128 4.113 22 4.96435 22 6V18C22 19.0357 21.2128 19.887 20.2041 19.9893L20 20H4C2.89543 20 2 19.1046 2 18V6C2 4.89543 2.89543 4 4 4H20L20.2041 4.01074ZM4 18H9V6H4V18ZM11 18H20V6H11V18Z" fill="#233D48"/>
</svg>
