<svg fill="none" xmlns="http://www.w3.org/2000/svg" viewBox="0 0 24 24">
  <path d="M9 13.83a2 2 0 0 1 .586-1.413l7.83-7.831a1.996 1.996 0 0 1 2.829 0l1.172 1.171c.365.366.56.838.583 1.317a1.995 1.995 0 0 1-.583 1.512l-7.831 7.83a2 2 0 0 1-1.414.586H9v-3.171Zm3.172 1.172 7.83-7.83L18.831 6 11 13.83v1.172h1.172Zm-6.39 2c-.33 0-.65.091-.957.226h-.001c-.261.116-.52.268-.776.442a7.548 7.548 0 0 0-.75.589c-.375.343-.398 1.073-.058 1.445l.002.002a.917.917 0 0 0 1.294.055c.108-.099.306-.263.546-.426a3.18 3.18 0 0 1 .482-.279c.067-.029.12-.047.161-.058.04-.01.057-.012.057-.012.038 0 .17.025.415.125.227.093.503.231.804.404.554.32 1.179.487 1.817.487h4.19c.506 0 .916-.41.916-.916s-.418-1.084-.924-1.084H8.819a1.8 1.8 0 0 1-.903-.242l-.001-.001c-.756-.434-1.503-.757-2.133-.757Z" fill="#657884"/>
</svg>
