<svg fill="none" xmlns="http://www.w3.org/2000/svg" viewBox="0 0 24 24">
  <path d="M6 11.014c.552 0 1-.45 1-1.003a1.001 1.001 0 1 0-1 1.003Z" fill="#000"/>
  <path d="M10.575 5.045c.392-.049.79.02 1.143.196l9.176 4.6A2.005 2.005 0 0 1 22 11.632v3.39a3.003 3.003 0 0 1-3 3.007H5c-1.657 0-3-1.346-3-3.007V7.889c0-1.01.751-1.863 1.752-1.989l6.824-.855ZM5 16.025h14c.552 0 1-.449 1-1.002H4c0 .553.448 1.002 1 1.002Zm15-4.392-3.225-1.616-.346.868a1 1 0 1 1-1.857-.745l.408-1.023-.622-.311-.43 1.076a1 1 0 1 1-1.857-.744l.492-1.232-1.74-.872L4 7.89v5.13h16v-1.386Z" fill="#000"/>
</svg>
