<svg fill="none" xmlns="http://www.w3.org/2000/svg" viewBox="0 0 24 24">
  <path d="M16 8a2 2 0 0 1 2 2v1a2 2 0 0 1 2 2v1a2 2 0 0 1-2 2H8a2 2 0 0 1-2-2v-1a2 2 0 0 1-2-2v-1a2 2 0 0 1 2-2h10Zm-.5 3a.5.5 0 0 0 0-1h-9a.5.5 0 0 0 0 1h9ZM8 13v1h10v-1H8Zm3.293-9.707a.997.997 0 0 1 1.414 0l2.293 2a1 1 0 0 1-1.414 1.414L12 5.414l-1.586 1.293A1 1 0 1 1 9 5.293l2.293-2ZM12 18.586l-1.586-1.293a.997.997 0 0 0-1.414 0 1 1 0 0 0 0 1.414l2.293 2a.997.997 0 0 0 1.414 0l2.293-2a1 1 0 0 0-1.414-1.414L12 18.586Z" fill="#657884"/>
</svg>
