<svg fill="none" xmlns="http://www.w3.org/2000/svg" viewBox="0 0 24 24">
  <path d="M6 2a1 1 0 0 1 1 1v1l1 1h1a1 1 0 1 1 0 2H8L7 8v1a1 1 0 1 1-2 0V8L4 7H3a1 1 0 1 1 0-2h1l1-1V3a1 1 0 0 1 1-1Zm1 12a1 1 0 0 1 1 1v1l1 1h1a1 1 0 1 1 0 2H9l-1 1v1a1 1 0 1 1-2 0v-1l-1-1H4a1 1 0 1 1 0-2h1l1-1v-1a1 1 0 0 1 1-1Zm7-10c.255-1.005 1.683-1.005 1.938 0L18 9.5l3.314 1.615a1 1 0 0 1 0 1.77L18 14.5l-2.03 5.684c-.256 1.005-1.684 1.005-1.94 0L12 14.5l-3.314-1.615a1 1 0 0 1 0-1.77L12 9.5 14 4Zm-3 8 2 1 1 1 1 3 1-3 1-1 2-1-2-1-1-1-1-3-1 3-1 1-2 1Z" fill="#657884"/>
</svg>
