<svg width="24" height="24" viewBox="0 0 24 24" fill="none" xmlns="http://www.w3.org/2000/svg">
<path d="M12 5C7.58172 5 4 8.58172 4 13C4 15.2091 4.89543 17.2091 6.34315 18.6569L4.92893 20.0711C3.11929 18.2614 2 15.7614 2 13C2 7.47715 6.47715 3 12 3C17.5228 3 22 7.47715 22 13C22 15.7614 20.8807 18.2614 19.0711 20.0711L17.6569 18.6569C19.1046 17.2091 20 15.2091 20 13C20 8.58172 16.4183 5 12 5Z" fill="black"/>
<path d="M16.6585 10.7526C17.0741 10.3889 17.1163 9.75715 16.7526 9.34151C16.3889 8.92587 15.7571 8.88375 15.3415 9.24744L11.3415 12.7474C10.9259 13.1111 10.8837 13.7429 11.2474 14.1585C11.6111 14.5742 12.2429 14.6163 12.6585 14.2526L16.6585 10.7526Z" fill="black"/>
</svg>
