<svg width="24" height="24" viewBox="0 0 24 24" fill="none" xmlns="http://www.w3.org/2000/svg">
<path d="M6 3C9.48982 3 12.3831 5.55379 12.9131 8.8945C14.0882 7.72389 15.7095 7 17.4999 7H19.9999C21.1045 7 21.9999 7.89543 21.9999 9V9.5C21.9999 13.0899 19.0899 16 15.5 16H13V20C13 20.5523 12.5522 21 12 21C11.4477 21 11 20.5523 11 20V13H9C5.134 13 2 9.86599 2 6V5C2 3.89543 2.89543 3 4 3H6ZM19.9999 9H17.4999C15.0147 9 13 11.0147 13 13.5V14H15.5C17.9853 14 19.9999 11.9853 19.9999 9.5V9ZM6 5H4V6C4 8.76142 6.23857 11 9 11H11V10C11 7.23858 8.76142 5 6 5Z" fill="black"/>
</svg>
