<svg fill="none" xmlns="http://www.w3.org/2000/svg" viewBox="0 0 24 24">
  <path d="M12 2a1 1 0 0 0-1 1v4a1 1 0 1 0 2 0V3a1 1 0 0 0-1-1Zm0 14a1 1 0 0 0-1 1v4a1 1 0 1 0 2 0v-4a1 1 0 0 0-1-1ZM2 12a1 1 0 0 1 1-1h4a1 1 0 1 1 0 2H3a1 1 0 0 1-1-1Zm15-1a1 1 0 1 0 0 2h4a1 1 0 1 0 0-2h-4ZM5.292 5.292a.997.997 0 0 1 1.414 0l2.002 2.002a.997.997 0 0 1 0 1.414.996.996 0 0 1-1.414 0L5.292 6.707a.996.996 0 0 1 0-1.415Zm13.416 0a.997.997 0 0 0-1.414 0l-2.002 2.002a.997.997 0 0 0 0 1.414.996.996 0 0 0 1.414 0l2.002-2.001a.996.996 0 0 0 0-1.415ZM5.292 18.708a.997.997 0 0 0 1.414 0l2.002-2.002a.997.997 0 0 0 0-1.414.996.996 0 0 0-1.414 0l-2.002 2.001a.997.997 0 0 0 0 1.415Zm13.416-.048a.997.997 0 0 1-1.414 0l-2.002-1.954a.997.997 0 0 1 0-1.414.996.996 0 0 1 1.414 0l2.002 1.954a.996.996 0 0 1 0 1.415Z" fill="#657884"/>
</svg>
