<svg width="24" height="24" viewBox="0 0 24 24" fill="none" xmlns="http://www.w3.org/2000/svg">
<path d="M15.6728 13.3369L19.3458 9.75693L14.2698 9.01893L11.9998 4.41993V16.0059L16.5398 18.3919L15.6728 13.3369ZM11.9998 18.3349L7.49485 20.8259C7.23947 20.9604 6.95153 21.0207 6.66365 21C6.37576 20.9793 6.09941 20.8785 5.86589 20.7088C5.63236 20.5392 5.45098 20.3076 5.34229 20.0402C5.23359 19.7728 5.20192 19.4804 5.25085 19.1959L6.11085 14.0579L2.46685 10.5049C2.26027 10.3036 2.11416 10.0484 2.04504 9.76833C1.97591 9.48825 1.98653 9.19442 2.0757 8.92006C2.16486 8.6457 2.32901 8.40176 2.54959 8.21583C2.77016 8.02989 3.03836 7.90939 3.32385 7.86793L8.36085 7.13593L10.6128 2.8631C10.7404 2.60408 10.9379 2.38594 11.183 2.23339C11.4282 2.08085 11.7111 2 11.9998 2C12.2886 2 12.5715 2.08085 12.8167 2.23339C13.0618 2.38594 13.2593 2.60408 13.3868 2.8631L15.6388 7.13593L20.6758 7.86793C20.9613 7.90939 21.2295 8.02989 21.4501 8.21583C21.6707 8.40176 21.8348 8.6457 21.924 8.92006C22.0132 9.19442 22.0238 9.48825 21.9547 9.76833C21.8855 10.0484 21.7394 10.3036 21.5328 10.5049L17.8878 14.0579L18.7478 19.1965C18.7966 19.4809 18.7649 19.7732 18.6563 20.0404C18.5476 20.3076 18.3663 20.5391 18.133 20.7087C17.8996 20.8783 17.6235 20.9792 17.3357 21C17.048 21.0208 16.7602 20.9608 16.5048 20.8265L11.9998 18.3349Z" fill="black"/>
</svg>
