<svg fill="none" xmlns="http://www.w3.org/2000/svg" viewBox="0 0 24 24">
  <path d="M12 7c.55 0 1-.45 1-1V4c0-.55-.45-1-1-1s-1 .45-1 1v2c0 .55.45 1 1 1Zm4.58 8H19a1 1 0 1 1 0 2H5a1 1 0 1 1 0-2h2.42A4.94 4.94 0 0 1 7 13c0-2.76 2.24-5 5-5s5 2.24 5 5c0 .71-.15 1.39-.42 2ZM12 10c-1.66 0-3 1.34-3 3 0 .77.3 1.47.78 2h4.44c.48-.53.78-1.23.78-2 0-1.66-1.34-3-3-3Zm-5 9a1 1 0 0 1 1-1h8a1 1 0 1 1 0 2H8a1 1 0 0 1-1-1Z" fill="#657884"/>
  <path d="M5 14H3c-.55 0-1-.45-1-1s.45-1 1-1h2c.55 0 1 .45 1 1s-.45 1-1 1Zm14 0c-.55 0-1-.45-1-1s.45-1 1-1h2c.55 0 1 .45 1 1s-.45 1-1 1h-2ZM7.71 8.709A.995.995 0 0 1 6.95 9a1.021 1.021 0 0 1-.66-.291l-2.05-2.06a1 1 0 0 1 1.41-1.41l2.06 2.05A.972.972 0 0 1 8 8.14a.992.992 0 0 1-.28.559l-.01.01Z" fill="#657884"/>
  <path d="M7.71 8.709A.995.995 0 0 1 6.95 9a1.021 1.021 0 0 1-.66-.291l-2.05-2.06a1 1 0 0 1 1.41-1.41l2.06 2.05A.972.972 0 0 1 8 8.14a.992.992 0 0 1-.28.559l-.01.01Zm8.58 0a.996.996 0 0 0 .76.291 1.02 1.02 0 0 0 .66-.291l2.05-2.06a1 1 0 0 0-1.41-1.41l-2.06 2.05a.974.974 0 0 0-.29.851c.03.205.124.402.28.559l.01.01Z" fill="#657884"/>
  <path d="M16.29 8.709a.996.996 0 0 0 .76.291 1.02 1.02 0 0 0 .66-.291l2.05-2.06a1 1 0 0 0-1.41-1.41l-2.06 2.05a.974.974 0 0 0-.29.851c.03.205.124.402.28.559l.01.01Z" fill="#657884"/>
</svg>
