<svg width="24" height="24" viewBox="0 0 24 24" fill="none" xmlns="http://www.w3.org/2000/svg">
<path d="M12 18C12.5523 18 13 18.4477 13 19V21C13 21.5523 12.5523 22 12 22C11.4477 22 11 21.5523 11 21V19C11 18.4477 11.4477 18 12 18Z" fill="black"/>
<path d="M6.29297 16.293C6.68349 15.9024 7.31651 15.9024 7.70703 16.293C8.09756 16.6835 8.09756 17.3165 7.70703 17.707L5.70703 19.707C5.31651 20.0976 4.68349 20.0976 4.29297 19.707C3.90244 19.3165 3.90244 18.6835 4.29297 18.293L6.29297 16.293Z" fill="black"/>
<path d="M16.293 16.293C16.6591 15.9269 17.2381 15.9043 17.6309 16.2246L17.707 16.293L19.707 18.293L19.7754 18.3691C20.0957 18.7619 20.0731 19.3409 19.707 19.707C19.3409 20.0731 18.7619 20.0957 18.3691 19.7754L18.293 19.707L16.293 17.707L16.2246 17.6309C15.9043 17.2381 15.9269 16.6591 16.293 16.293Z" fill="black"/>
<path d="M12 7C14.7614 7 17 9.23858 17 12C17 14.7614 14.7614 17 12 17C9.23858 17 7 14.7614 7 12C7 9.23858 9.23858 7 12 7ZM12 9C10.3431 9 9 10.3431 9 12C9 13.6569 10.3431 15 12 15C13.6569 15 15 13.6569 15 12C15 10.3431 13.6569 9 12 9Z" fill="black"/>
<path d="M5.10254 11.0049C5.60667 11.0562 6 11.4823 6 12C6 12.5177 5.60667 12.9438 5.10254 12.9951L5 13H3C2.44772 13 2 12.5523 2 12C2 11.4477 2.44772 11 3 11H5L5.10254 11.0049Z" fill="black"/>
<path d="M21 11C21.5523 11 22 11.4477 22 12C22 12.5523 21.5523 13 21 13H19C18.4477 13 18 12.5523 18 12C18 11.4477 18.4477 11 19 11H21Z" fill="black"/>
<path d="M18.293 4.29297C18.6835 3.90244 19.3165 3.90244 19.707 4.29297C20.0976 4.68349 20.0976 5.31651 19.707 5.70703L17.707 7.70703C17.3165 8.09756 16.6835 8.09756 16.293 7.70703C15.9024 7.31651 15.9024 6.68349 16.293 6.29297L18.293 4.29297Z" fill="black"/>
<path d="M4.29297 4.29297C4.65908 3.92685 5.23809 3.90426 5.63086 4.22461L5.70703 4.29297L7.70703 6.29297L7.77539 6.36914C8.09574 6.76191 8.07315 7.34092 7.70703 7.70703C7.34092 8.07315 6.76191 8.09574 6.36914 7.77539L6.29297 7.70703L4.29297 5.70703L4.22461 5.63086C3.90426 5.23809 3.92685 4.65908 4.29297 4.29297Z" fill="black"/>
<path d="M12 2C12.5523 2 13 2.44772 13 3V5C13 5.55228 12.5523 6 12 6C11.4477 6 11 5.55228 11 5V3C11 2.44772 11.4477 2 12 2Z" fill="black"/>
</svg>
