<svg fill="none" xmlns="http://www.w3.org/2000/svg" viewBox="0 0 24 24">
  <path d="M9.72 13.305a1 1 0 1 0-1.415 1.414l2 2a1 1 0 0 0 1.414 0l4-4a1 1 0 1 0-1.414-1.414l-3.293 3.293-1.293-1.293Z" fill="#4B6A96"/>
  <path d="M9.293 2.293A1 1 0 0 1 10 2h4a1 1 0 0 1 .707.293L16.414 4H18a2 2 0 0 1 2 2v14a2 2 0 0 1-2 2H6a2 2 0 0 1-2-2V6a2 2 0 0 1 2-2h1.586l1.707-1.707Zm5.414 5.414A1 1 0 0 1 14 8h-4a1 1 0 0 1-.707-.293L7.586 6H6v14h12V6h-1.586l-1.707 1.707ZM10.414 4l-1 1 1 1h3.172l1-1-1-1h-3.172Z" fill="#4B6A96"/>
</svg>
