<svg width="24" height="24" viewBox="0 0 24 24" fill="none" xmlns="http://www.w3.org/2000/svg">
<path d="M19 4C19.5523 4 20 4.44772 20 5V8C20 8.55228 19.5523 9 19 9C18.4477 9 18 8.55228 18 8V6H15V18H16C16.5523 18 17 18.4477 17 19C17 19.5523 16.5523 20 16 20H8C7.44772 20 7 19.5523 7 19C7 18.4477 7.44772 18 8 18H9V6H6V8L5.99512 8.10254C5.94379 8.60667 5.51768 9 5 9C4.48232 9 4.05621 8.60667 4.00488 8.10254L4 8V5L4.00488 4.89746C4.05621 4.39333 4.48232 4 5 4H19ZM11 18H13V6H11V18Z" fill="black"/>
</svg>
