<svg fill="none" xmlns="http://www.w3.org/2000/svg" viewBox="0 0 24 24">
  <path d="M8 5a3.001 3.001 0 0 1-2 2.83v1.34a3.001 3.001 0 0 1 0 5.66v1.34a3.001 3.001 0 1 1-2 0v-1.34a3.001 3.001 0 0 1 0-5.66V7.83A3.001 3.001 0 1 1 8 5ZM5 6a1 1 0 1 0 0-2 1 1 0 0 0 0 2Zm1 6a1 1 0 1 0-2 0 1 1 0 0 0 2 0Zm0 7a1 1 0 1 0-2 0 1 1 0 0 0 2 0Zm6-16a2 2 0 0 0-2 2v4a2 2 0 0 0 2 2h8a2 2 0 0 0 2-2V5a2 2 0 0 0-2-2h-8Zm8 2v4h-8V5h8Zm-8 8a2 2 0 0 0-2 2v4a2 2 0 0 0 2 2h8a2 2 0 0 0 2-2v-4a2 2 0 0 0-2-2h-8Zm8 2v4h-8v-4h8Z" fill="#657884"/>
</svg>
