<svg width="24" height="24" viewBox="0 0 24 24" fill="none" xmlns="http://www.w3.org/2000/svg">
<g id="toggle">
<g id="Union">
<path d="M15 9C16.6569 9 18 10.3431 18 12C18 13.6569 16.6569 15 15 15C13.3431 15 12 13.6569 12 12C12 10.3431 13.3431 9 15 9Z" fill="black"/>
<path d="M15.3604 5.00879C19.0589 5.19633 22 8.25486 22 12C22 15.866 18.866 19 15 19H9C5.13401 19 2 15.866 2 12C2 8.25486 4.94111 5.19633 8.63965 5.00879L9 5H15L15.3604 5.00879ZM9 7C6.23858 7 4 9.23858 4 12C4 14.7614 6.23858 17 9 17H15C17.7614 17 20 14.7614 20 12C20 9.23858 17.7614 7 15 7H9Z" fill="black"/>
</g>
</g>
</svg>
