<svg width="24" height="24" viewBox="0 0 24 24" fill="none" xmlns="http://www.w3.org/2000/svg">
<path d="M11 3C15.4744 3 19.1844 6.26542 19.8809 10.543L17.9893 12.3672C17.9956 12.2456 18 12.1232 18 12C18 8.13401 14.866 5 11 5C7.13401 5 4 8.13401 4 12C4 14.231 5.04518 16.2162 6.6709 17.498C7.86207 16.5595 9.36583 16 11 16C12.6311 16 14.1312 16.5588 15.3213 17.4941L15.3203 17.4961C15.7923 17.8627 16.264 18.323 16.7129 18.9541C15.1589 20.2322 13.1692 21 11 21C6.02944 21 2 16.9706 2 12C2 7.02944 6.02944 3 11 3ZM11 18C10.1467 18 9.34345 18.214 8.64062 18.5908C9.37793 18.8548 10.1719 19 11 19C11.8281 19 12.6221 18.8548 13.3594 18.5908C12.6566 18.2139 11.8533 18 11 18Z" fill="#233D48"/>
<path d="M20.2939 12.04C20.6854 11.6509 21.3186 11.6526 21.708 12.0439C22.0972 12.4354 22.0953 13.0685 21.7041 13.458L18.415 16.7344C18.221 16.9275 17.9563 17.0328 17.6826 17.0254C17.4089 17.0179 17.1501 16.8987 16.9668 16.6953L15.7217 15.3135C15.3523 14.9033 15.385 14.271 15.7949 13.9014C16.2052 13.5318 16.8383 13.5644 17.208 13.9746L17.749 14.5752L20.2939 12.04Z" fill="#233D48"/>
<path d="M11 7C13.2091 7 15 8.79086 15 11C15 13.2091 13.2091 15 11 15C8.79086 15 7 13.2091 7 11C7 8.79086 8.79086 7 11 7ZM11 9C9.89543 9 9 9.89543 9 11C9 12.1046 9.89543 13 11 13C12.1046 13 13 12.1046 13 11C13 9.89543 12.1046 9 11 9Z" fill="#233D48"/>
</svg>
