<svg width="24" height="24" viewBox="0 0 24 24" fill="none" xmlns="http://www.w3.org/2000/svg">
<path d="M10.6953 3.3042C15.4323 3.3042 19.2817 7.09211 19.3857 11.8042C19.3642 11.8237 19.3422 11.8426 19.3213 11.8628L19.3203 11.8618L18.3818 12.7349C18.275 12.6518 18.1636 12.5729 18.0449 12.5073L17.8115 12.394L17.6426 12.3315C17.6477 12.2216 17.6523 12.1107 17.6523 11.9995C17.6522 8.15768 14.5372 5.04346 10.6953 5.04346C6.85359 5.04363 3.73943 8.15779 3.73926 11.9995C3.73926 13.9079 4.50758 15.6372 5.75195 16.894C6.63727 16.0111 7.8359 15.1314 9.29688 14.7837C11.2151 14.3272 13.369 14.8325 15.5977 16.936C15.6033 16.9304 15.6086 16.9241 15.6143 16.9185L16.7822 18.0864C16.803 18.1072 16.822 18.1299 16.8418 18.1509C15.2684 19.7231 13.0953 20.6958 10.6953 20.6958C5.89299 20.6956 2 16.8018 2 11.9995C2.00018 7.1973 5.8931 3.30438 10.6953 3.3042ZM14.1992 18.0112C12.3925 16.3902 10.8735 16.1961 9.7002 16.4751C8.71435 16.7097 7.8404 17.3065 7.13379 17.9771C8.17554 18.5991 9.39376 18.9565 10.6953 18.9565C11.9729 18.9565 13.1704 18.6122 14.1992 18.0112Z" fill="black"/>
<path d="M21.123 12.8697C21.2385 12.8688 21.3531 12.8905 21.46 12.9342C21.5668 12.9778 21.6635 13.043 21.7451 13.1246C21.8267 13.2062 21.8918 13.3029 21.9355 13.4098C21.9792 13.5166 22.001 13.6312 22 13.7467C21.999 13.8622 21.9753 13.9765 21.9297 14.0826C21.8841 14.1886 21.8174 14.2846 21.7344 14.3648L18.7871 17.149C18.6241 17.312 18.4024 17.4029 18.1719 17.4029C17.9804 17.4029 17.7961 17.3391 17.6455 17.2242L17.6416 17.2213C17.6181 17.2031 17.595 17.1843 17.5732 17.1637C17.5679 17.1586 17.5619 17.1542 17.5566 17.149L16.1787 15.4166C16.0957 15.3364 16.029 15.2404 15.9834 15.1344C15.9378 15.0283 15.9141 14.9139 15.9131 14.7984C15.9121 14.683 15.9338 14.5684 15.9775 14.4615C16.0213 14.3547 16.0864 14.258 16.168 14.1764C16.2496 14.0947 16.3463 14.0297 16.4531 13.9859C16.56 13.9422 16.6746 13.9205 16.79 13.9215C16.9055 13.9224 17.0199 13.9462 17.126 13.9918C17.2243 14.034 17.3132 14.0949 17.3896 14.1695C17.3957 14.1752 17.4024 14.1802 17.4082 14.1861L18.1719 15.3043L19.0195 14.5152L19.0186 14.5162L20.5049 13.1354C20.5851 13.0523 20.681 12.9856 20.7871 12.94C20.8932 12.8945 21.0076 12.8708 21.123 12.8697Z" fill="black"/>
<path d="M10.6953 6.78271C12.6161 6.78271 14.1736 8.33948 14.1738 10.2603C14.1738 12.1812 12.6163 13.7388 10.6953 13.7388C8.77447 13.7386 7.21777 12.1811 7.21777 10.2603C7.21802 8.33958 8.77463 6.78289 10.6953 6.78271ZM10.6953 8.52197C9.73509 8.52215 8.9563 9.30008 8.95605 10.2603C8.95605 11.2207 9.73494 11.9993 10.6953 11.9995C11.6558 11.9995 12.4346 11.2208 12.4346 10.2603C12.4343 9.29997 11.6557 8.52197 10.6953 8.52197Z" fill="black"/>
</svg>
