<svg width="24" height="24" viewBox="0 0 24 24" fill="none" xmlns="http://www.w3.org/2000/svg">
<path d="M19.1288 5.64182C19.6097 5.64182 19.9995 5.96711 19.9995 6.36838L19.9995 17.9935C19.9995 18.3947 19.6097 18.72 19.1288 18.72C18.6479 18.72 18.258 18.3947 18.258 17.9935L18.258 6.36838C18.258 5.96711 18.6479 5.64182 19.1288 5.64182Z" fill="#233D48"/>
<path d="M4.87026 5.64182C5.35118 5.64182 5.74101 5.96711 5.74101 6.36838L5.74101 17.9935C5.74101 18.3947 5.35118 18.72 4.87026 18.72C4.38935 18.72 3.99951 18.3947 3.99951 17.9935L3.99951 6.36838C3.99951 5.96711 4.38935 5.64182 4.87026 5.64182Z" fill="#233D48"/>
<path d="M17.0591 6.73316C17.0591 5.93062 16.2794 5.28003 15.3176 5.28003L8.56973 5.28003C7.6079 5.28003 6.82823 5.93062 6.82823 6.73316L6.82823 10.366C6.82823 11.1686 7.6079 11.8191 8.56973 11.8191L15.3176 11.8191C16.2794 11.8191 17.0591 11.1686 17.0591 10.366L17.0591 6.73316ZM15.3176 10.366L8.56973 10.366L8.56973 6.73316L15.3176 6.73316L15.3176 10.366Z" fill="#233D48"/>
<path d="M16.5165 14.7254C16.5165 13.9228 15.7368 13.2723 14.775 13.2723L9.00592 13.2723C8.04409 13.2723 7.26442 13.9228 7.26442 14.7254L7.26442 17.2669C7.26442 18.0695 8.04409 18.72 9.00592 18.72L14.775 18.72C15.7368 18.72 16.5165 18.0695 16.5165 17.2669L16.5165 14.7254ZM14.775 17.2669L9.00592 17.2669L9.00592 14.7254L14.775 14.7254L14.775 17.2669Z" fill="#233D48"/>
<path d="M17.0591 6.73316C17.0591 5.93062 16.2794 5.28003 15.3176 5.28003L8.56973 5.28003C7.6079 5.28003 6.82823 5.93062 6.82823 6.73316L6.82823 10.366C6.82823 11.1686 7.6079 11.8191 8.56973 11.8191L15.3176 11.8191C16.2794 11.8191 17.0591 11.1686 17.0591 10.366L17.0591 6.73316ZM15.3176 10.366L8.56973 10.366L8.56973 6.73316L15.3176 6.73316L15.3176 10.366Z" fill="#233D48"/>
</svg>
