<svg width="24" height="24" viewBox="0 0 24 24" fill="none" xmlns="http://www.w3.org/2000/svg">
<path d="M11 10C11 9.44772 11.4477 9 12 9C12.5523 9 13 9.44772 13 10V14C13 14.5523 12.5523 15 12 15C11.4477 15 11 14.5523 11 14V10Z" fill="#233D48"/>
<path d="M12 16C11.4477 16 11 16.4477 11 17C11 17.5523 11.4477 18 12 18C12.5523 18 13 17.5523 13 17C13 16.4477 12.5523 16 12 16Z" fill="#233D48"/>
<path d="M12.8314 3.48522C12.6631 3.18562 12.345 3 12 3C11.655 3 11.3369 3.18562 11.1686 3.48522L2.12101 19.5905C1.95619 19.8839 1.95997 20.2422 2.13095 20.532C2.30193 20.8219 2.61451 21 2.95238 21H21.0476C21.3855 21 21.6981 20.8219 21.8691 20.532C22.04 20.2422 22.0438 19.8839 21.879 19.5905L12.8314 3.48522ZM12 5.88941L19 19H5L12 5.88941Z" fill="#233D48"/>
</svg>
