<svg width="24" height="24" viewBox="0 0 24 24" fill="none" xmlns="http://www.w3.org/2000/svg">
<path d="M11 9C11 8.44772 11.4477 8 12 8C12.5523 8 13 8.44772 13 9V13C13 13.5523 12.5523 14 12 14C11.4477 14 11 13.5523 11 13V9Z" fill="#233D48"/>
<path d="M12 15C11.4477 15 11 15.4477 11 16C11 16.5523 11.4477 17 12 17C12.5523 17 13 16.5523 13 16C13 15.4477 12.5523 15 12 15Z" fill="#233D48"/>
<path d="M12.8314 2.48522C12.6631 2.18562 12.345 2 12 2C11.655 2 11.3369 2.18562 11.1686 2.48522L2.12101 18.5905C1.95619 18.8839 1.95997 19.2422 2.13095 19.532C2.30193 19.8219 2.61451 20 2.95238 20H21.0476C21.3855 20 21.6981 19.8219 21.8691 19.532C22.04 19.2422 22.0438 18.8839 21.879 18.5905L12.8314 2.48522ZM12 4.88941L19 18H5L12 4.88941Z" fill="#233D48"/>
</svg>
