<svg width="24" height="24" viewBox="0 0 24 24" fill="none" xmlns="http://www.w3.org/2000/svg">
<path d="M13 22C18.5228 22 23 17.5228 23 12C23 6.47715 18.5228 2 13 2C8.70007 2 5.03404 4.71389 3.6213 8.52223C3.57138 8.61385 3.53537 8.71414 3.51611 8.82027C3.38761 9.20367 3.28172 9.59745 3.2 10H5.252C6.14009 6.54955 9.27229 4 13 4C17.4182 4 21 7.58172 21 12C21 16.4183 17.4183 20 13 20H6C5.44772 20 5 20.4477 5 21C5 21.5523 5.44772 22 6 22H13Z" fill="black"/>
<path d="M19 12C19 15.3137 16.3137 18 13 18C9.68629 18 7 15.3137 7 12C7 8.68629 9.68629 6 13 6C16.3137 6 19 8.68629 19 12ZM16.2773 14.294C16.7327 13.6445 17 12.8535 17 12C17 11.8545 16.9922 11.7109 16.9771 11.5694L14.4088 12.4255L16.2773 14.294ZM14.7518 15.597L12.8809 13.7261L11.091 15.516C11.6584 15.8246 12.3087 16 13 16C13.6283 16 14.2228 15.8551 14.7518 15.597ZM9.62721 14.1513L11.3531 12.4255L9.01543 11.6463C9.00521 11.7628 9 11.8808 9 12C9 12.7919 9.23015 13.5301 9.62721 14.1513ZM9.68474 9.7612L11.8809 10.4933V8.15864C10.9747 8.42219 10.2013 8.99771 9.68474 9.7612ZM13.8809 8.09732V10.4933L16.2707 9.69668C15.7087 8.90018 14.8632 8.31809 13.8809 8.09732Z" fill="black"/>
<path d="M3 17C3 16.4477 3.44772 16 4 16H6C6.55228 16 7 16.4477 7 17C7 17.5523 6.55228 18 6 18H4C3.44772 18 3 17.5523 3 17Z" fill="black"/>
<path d="M2 12C1.44772 12 1 12.4477 1 13C1 13.5523 1.44772 14 2 14H4C4.55228 14 5 13.5523 5 13C5 12.4477 4.55228 12 4 12H2Z" fill="black"/>
</svg>
