<svg fill="none" xmlns="http://www.w3.org/2000/svg" viewBox="0 0 24 24">
  <path d="M12.1 10.638c-.053-1.26-.426-6.877-.47-7.138-.064-.235-.245-.403-.506-.47-.799-.202-3.854.669-4.421 1.263-.182.192-.25.43-.195.64.088.186 3.876 6.239 3.876 6.239.56.922 1.016.78 1.166.732.15-.048.602-.192.55-1.266Zm3.146 2.628c3.132-.77 3.253-.812 3.377-.895.19-.128.284-.346.268-.61v-.029c-.08-.78-1.428-2.814-2.092-3.143-.235-.115-.471-.107-.665.025-.12.08-.21.202-1.887 2.531l-.767 1.06c-.2.246-.202.6-.008.904.202.314.544.467.857.379 0 0-.013.022-.017.026.155-.06.432-.128.934-.25Zm3.745 3.95c-.106.755-1.626 2.718-2.322 3-.241.099-.473.075-.654-.07-.118-.094-.243-.285-1.88-2.985l-.487-.805c-.186-.288-.15-.668.083-.957.224-.283.56-.388.851-.273.016.007 1.225.413 1.225.413 2.755.919 2.846.954 2.962 1.043.178.144.259.371.222.634Zm-7.005 4.024c.049-.14.054-.238.062-3.182l.008-1.314c.02-.318-.183-.608-.516-.74-.343-.133-.711-.05-.918.213 0 0-.604.729-.607.729-2.077 2.477-2.162 2.591-2.213 2.738a.596.596 0 0 0-.032.27c.012.131.07.262.167.382.481.582 2.79 1.446 3.527 1.318.257-.048.443-.194.522-.414Zm-6.951-6.222c-.102-1.015.023-2.546.322-3.031.14-.225.344-.342.573-.333.15.002.282.05 3.246 1.293l.865.358c.313.119.504.45.484.823-.02.365-.226.651-.531.73l-1.231.399c-2.758.901-2.85.927-2.996.918-.229-.007-.43-.145-.55-.375-.085-.167-.145-.446-.182-.782Z" fill="#657884"/>
</svg>
