<svg width="224" height="117" viewBox="0 0 224 117" fill="none" xmlns="http://www.w3.org/2000/svg">
<rect x="79.3608" y="35" width="5.22222" height="15.6667" rx="2.61111" fill="#627A84"/>
<rect opacity="0.45" x="79.3608" y="66.3333" width="5.22222" height="15.6667" rx="2.61111" fill="#627A84"/>
<rect opacity="0.15" x="96.7427" y="40.0367" width="5.22222" height="15.6667" rx="2.61111" transform="rotate(45 96.7427 40.0367)" fill="#627A84"/>
<rect opacity="0.55" x="74.5869" y="62.1926" width="5.22222" height="15.6667" rx="2.61111" transform="rotate(45 74.5869 62.1926)" fill="#627A84"/>
<rect opacity="0.25" x="105.472" y="55.8889" width="5.22222" height="15.6667" rx="2.61111" transform="rotate(90 105.472 55.8889)" fill="#627A84"/>
<rect opacity="0.65" x="74.1387" y="55.889" width="5.22222" height="15.6667" rx="2.61111" transform="rotate(90 74.1387 55.889)" fill="#627A84"/>
<rect opacity="0.35" x="100.436" y="73.2707" width="5.22222" height="15.6667" rx="2.61111" transform="rotate(135 100.436 73.2707)" fill="#627A84"/>
<rect opacity="0.85" x="78.2793" y="51.1148" width="5.22222" height="15.6667" rx="2.61111" transform="rotate(135 78.2793 51.1148)" fill="#627A84"/>
<path fill-rule="evenodd" clip-rule="evenodd" d="M142.028 68.9444C147.796 68.9444 152.472 64.2683 152.472 58.5C152.472 52.7317 147.796 48.0555 142.028 48.0555C136.26 48.0555 131.584 52.7317 131.584 58.5C131.584 64.2683 136.26 68.9444 142.028 68.9444ZM142.028 74.1666C150.68 74.1666 157.695 67.1524 157.695 58.5C157.695 49.8475 150.68 42.8333 142.028 42.8333C133.376 42.8333 126.361 49.8475 126.361 58.5C126.361 67.1524 133.376 74.1666 142.028 74.1666Z" fill="white"/>
<path fill-rule="evenodd" clip-rule="evenodd" d="M137.769 43.4235C140.886 42.5428 144.199 42.65 147.253 43.7303C150.307 44.8107 152.951 46.8111 154.821 49.4561C156.691 52.1011 157.695 55.2607 157.695 58.5H152.472C152.472 56.3405 151.803 54.2341 150.556 52.4707C149.31 50.7074 147.547 49.3738 145.511 48.6535C143.476 47.9333 141.266 47.8618 139.188 48.449C137.11 49.0361 135.265 50.253 133.907 51.932C132.549 53.6111 131.745 55.6699 131.605 57.8249C131.466 59.9798 131.998 62.1251 133.128 63.9654C134.258 65.8056 135.93 67.2503 137.915 68.1007C139.9 68.951 142.1 69.1651 144.212 68.7135L145.304 73.8203C142.136 74.4977 138.837 74.1765 135.859 72.901C132.882 71.6255 130.373 69.4584 128.677 66.6981C126.982 63.9377 126.185 60.7198 126.394 57.4873C126.603 54.2548 127.81 51.1667 129.847 48.6481C131.884 46.1295 134.651 44.3042 137.769 43.4235Z" fill="#627A84"/>
</svg>
