<svg width="224" height="117" viewBox="0 0 224 117" fill="none" xmlns="http://www.w3.org/2000/svg">
<g clip-path="url(#clip0_2314_43254)">
<path d="M27 10.3694C27 9.06089 28.0608 8.00009 29.3693 8.00009H194.631C195.939 8.00009 197 9.06088 197 10.3694V106.328C197 107.636 195.939 108.697 194.631 108.697H29.3693C28.0608 108.697 27 107.636 27 106.328V10.3694Z" fill="white"/>
<path d="M45.3624 19.8468C45.3624 19.5197 45.6276 19.2545 45.9547 19.2545C46.2819 19.2545 46.5471 19.5197 46.5471 19.8468V20.4391H47.7317C48.386 20.4391 48.9164 20.9695 48.9164 21.6238V28.7318C48.9164 29.3861 48.386 29.9165 47.7317 29.9165H39.4391C38.7848 29.9165 38.2544 29.3861 38.2544 28.7318V21.6238C38.2544 20.9695 38.7848 20.4391 39.4391 20.4391H40.6237V19.8468C40.6237 19.5197 40.8889 19.2545 41.2161 19.2545C41.5432 19.2545 41.8084 19.5197 41.8084 19.8468V20.4391H45.3624V19.8468ZM39.4391 21.6238V22.8085H47.7317V21.6238H39.4391ZM47.7317 23.9931H39.4391V28.7318H47.7317V23.9931Z" fill="#233D48"/>
<path d="M57.2192 27.6621H55.6576L58.0371 20.7695H59.915L62.2911 27.6621H60.7295L59.003 22.3446H58.9491L57.2192 27.6621ZM57.1216 24.9529H60.8103V26.0904H57.1216V24.9529ZM65.1888 27.7631C64.6593 27.7631 64.2038 27.6509 63.8224 27.4265C63.4432 27.1999 63.1515 26.8858 62.9474 26.4842C62.7454 26.0826 62.6445 25.6204 62.6445 25.0976C62.6445 24.5681 62.7466 24.1036 62.9507 23.7042C63.1572 23.3026 63.45 22.9896 63.8291 22.7653C64.2083 22.5386 64.6593 22.4253 65.1821 22.4253C65.6331 22.4253 66.028 22.5072 66.3668 22.671C66.7056 22.8348 66.9737 23.0648 67.1711 23.361C67.3686 23.6571 67.4774 24.0049 67.4976 24.4043H66.1446C66.1065 24.1462 66.0055 23.9387 65.8417 23.7816C65.6802 23.6223 65.4682 23.5427 65.2056 23.5427C64.9835 23.5427 64.7894 23.6033 64.6234 23.7244C64.4596 23.8433 64.3317 24.0172 64.2397 24.2461C64.1477 24.4749 64.1018 24.752 64.1018 25.0774C64.1018 25.4072 64.1466 25.6877 64.2364 25.9188C64.3284 26.1499 64.4574 26.326 64.6234 26.4472C64.7894 26.5683 64.9835 26.6289 65.2056 26.6289C65.3694 26.6289 65.5164 26.5952 65.6465 26.5279C65.7789 26.4606 65.8877 26.363 65.973 26.2351C66.0605 26.105 66.1177 25.9491 66.1446 25.7673H67.4976C67.4751 26.1622 67.3674 26.51 67.1745 26.8106C66.9838 27.109 66.7201 27.3424 66.3836 27.5107C66.047 27.6789 65.6488 27.7631 65.1888 27.7631ZM71.1652 22.4926V23.5696H68.0521V22.4926H71.1652ZM68.7588 21.2541H70.1925V26.0736C70.1925 26.206 70.2127 26.3092 70.2531 26.3832C70.2935 26.455 70.3496 26.5055 70.4214 26.5347C70.4954 26.5638 70.5807 26.5784 70.6772 26.5784C70.7445 26.5784 70.8118 26.5728 70.8791 26.5616C70.9464 26.5481 70.998 26.538 71.0339 26.5313L71.2594 27.5982C71.1876 27.6206 71.0866 27.6464 70.9565 27.6756C70.8264 27.707 70.6682 27.7261 70.482 27.7328C70.1364 27.7462 69.8335 27.7003 69.5733 27.5948C69.3152 27.4893 69.1144 27.3256 68.9708 27.1034C68.8272 26.8813 68.7566 26.6008 68.7588 26.262V21.2541ZM72.0991 27.6621V22.4926H73.5328V27.6621H72.0991ZM72.8193 21.8263C72.6062 21.8263 72.4233 21.7556 72.2708 21.6142C72.1204 21.4706 72.0453 21.299 72.0453 21.0993C72.0453 20.9019 72.1204 20.7325 72.2708 20.5911C72.4233 20.4475 72.6062 20.3757 72.8193 20.3757C73.0325 20.3757 73.2142 20.4475 73.3646 20.5911C73.5171 20.7325 73.5934 20.9019 73.5934 21.0993C73.5934 21.299 73.5171 21.4706 73.3646 21.6142C73.2142 21.7556 73.0325 21.8263 72.8193 21.8263ZM77.017 27.7631C76.4942 27.7631 76.0421 27.652 75.6607 27.4299C75.2815 27.2055 74.9887 26.8936 74.7823 26.4943C74.5759 26.0926 74.4727 25.6271 74.4727 25.0976C74.4727 24.5636 74.5759 24.0969 74.7823 23.6975C74.9887 23.2959 75.2815 22.984 75.6607 22.7619C76.0421 22.5375 76.4942 22.4253 77.017 22.4253C77.5398 22.4253 77.9908 22.5375 78.3699 22.7619C78.7514 22.984 79.0453 23.2959 79.2517 23.6975C79.4581 24.0969 79.5613 24.5636 79.5613 25.0976C79.5613 25.6271 79.4581 26.0926 79.2517 26.4943C79.0453 26.8936 78.7514 27.2055 78.3699 27.4299C77.9908 27.652 77.5398 27.7631 77.017 27.7631ZM77.0237 26.6524C77.2616 26.6524 77.4601 26.5851 77.6194 26.4505C77.7787 26.3137 77.8988 26.1274 77.9795 25.8918C78.0626 25.6562 78.1041 25.3881 78.1041 25.0875C78.1041 24.7868 78.0626 24.5187 77.9795 24.2831C77.8988 24.0475 77.7787 23.8613 77.6194 23.7244C77.4601 23.5876 77.2616 23.5191 77.0237 23.5191C76.7837 23.5191 76.5817 23.5876 76.4179 23.7244C76.2564 23.8613 76.1341 24.0475 76.0511 24.2831C75.9703 24.5187 75.9299 24.7868 75.9299 25.0875C75.9299 25.3881 75.9703 25.6562 76.0511 25.8918C76.1341 26.1274 76.2564 26.3137 76.4179 26.4505C76.5817 26.5851 76.7837 26.6524 77.0237 26.6524ZM81.9273 24.6735V27.6621H80.4936V22.4926H81.86V23.4047H81.9206C82.035 23.1041 82.2269 22.8662 82.4961 22.6912C82.7653 22.514 83.0918 22.4253 83.4755 22.4253C83.8345 22.4253 84.1475 22.5039 84.4145 22.6609C84.6815 22.818 84.889 23.0423 85.0371 23.334C85.1852 23.6235 85.2592 23.969 85.2592 24.3706V27.6621H83.8255V24.6264C83.8277 24.31 83.747 24.0632 83.5832 23.886C83.4194 23.7065 83.1939 23.6167 82.9067 23.6167C82.7137 23.6167 82.5432 23.6582 82.3951 23.7413C82.2493 23.8243 82.1349 23.9454 82.0518 24.1047C81.9711 24.2618 81.9296 24.4514 81.9273 24.6735ZM87.8734 20.7695V27.6621H86.4161V20.7695H87.8734ZM91.7951 22.4926V23.5696H88.682V22.4926H91.7951ZM89.3887 21.2541H90.8224V26.0736C90.8224 26.206 90.8426 26.3092 90.883 26.3832C90.9234 26.455 90.9795 26.5055 91.0513 26.5347C91.1253 26.5638 91.2106 26.5784 91.3071 26.5784C91.3744 26.5784 91.4417 26.5728 91.509 26.5616C91.5763 26.5481 91.6279 26.538 91.6638 26.5313L91.8893 27.5982C91.8175 27.6206 91.7165 27.6464 91.5864 27.6756C91.4563 27.707 91.2981 27.7261 91.1119 27.7328C90.7663 27.7462 90.4634 27.7003 90.2032 27.5948C89.9452 27.4893 89.7443 27.3256 89.6007 27.1034C89.4571 26.8813 89.3865 26.6008 89.3887 26.262V21.2541ZM95.0294 27.7631C94.4976 27.7631 94.0399 27.6554 93.6562 27.44C93.2748 27.2223 92.9809 26.915 92.7744 26.5178C92.568 26.1184 92.4648 25.6462 92.4648 25.1009C92.4648 24.5692 92.568 24.1025 92.7744 23.7009C92.9809 23.2993 93.2714 22.9863 93.6461 22.7619C94.0231 22.5375 94.4651 22.4253 94.9721 22.4253C95.3132 22.4253 95.6307 22.4803 95.9246 22.5902C96.2208 22.6979 96.4788 22.8606 96.6987 23.0782C96.9208 23.2959 97.0936 23.5696 97.217 23.8994C97.3404 24.227 97.4021 24.6107 97.4021 25.0505V25.4442H93.037V24.5557H96.0525C96.0525 24.3493 96.0076 24.1664 95.9179 24.0071C95.8281 23.8478 95.7036 23.7233 95.5443 23.6336C95.3872 23.5416 95.2044 23.4956 94.9957 23.4956C94.7781 23.4956 94.5851 23.5461 94.4168 23.647C94.2508 23.7457 94.1207 23.8792 94.0264 24.0475C93.9322 24.2136 93.884 24.3987 93.8817 24.6028V25.4476C93.8817 25.7034 93.9288 25.9244 94.0231 26.1106C94.1195 26.2968 94.2553 26.4404 94.4303 26.5414C94.6053 26.6424 94.8128 26.6928 95.0529 26.6928C95.2122 26.6928 95.3581 26.6704 95.4904 26.6255C95.6228 26.5807 95.7361 26.5133 95.8304 26.4236C95.9246 26.3338 95.9964 26.2239 96.0457 26.0938L97.3718 26.1813C97.3045 26.4999 97.1665 26.7781 96.9578 27.0159C96.7514 27.2515 96.4844 27.4355 96.1568 27.5679C95.8315 27.698 95.4557 27.7631 95.0294 27.7631ZM98.3377 27.6621V22.4926H99.7041V23.4047H99.7647C99.8724 23.1018 100.052 22.8629 100.303 22.6878C100.554 22.5128 100.855 22.4253 101.205 22.4253C101.56 22.4253 101.861 22.514 102.11 22.6912C102.359 22.8662 102.526 23.1041 102.609 23.4047H102.662C102.768 23.1085 102.959 22.8718 103.235 22.6946C103.513 22.5151 103.841 22.4253 104.221 22.4253C104.703 22.4253 105.095 22.579 105.395 22.8864C105.698 23.1916 105.85 23.6246 105.85 24.1855V27.6621H104.419V24.4682C104.419 24.181 104.343 23.9656 104.19 23.822C104.038 23.6784 103.847 23.6066 103.618 23.6066C103.358 23.6066 103.155 23.6897 103.009 23.8557C102.863 24.0195 102.79 24.236 102.79 24.5052V27.6621H101.4V24.4379C101.4 24.1844 101.327 23.9825 101.182 23.8321C101.038 23.6818 100.848 23.6066 100.613 23.6066C100.453 23.6066 100.31 23.647 100.182 23.7278C100.056 23.8063 99.9565 23.9174 99.8825 24.061C99.8084 24.2023 99.7714 24.3684 99.7714 24.5591V27.6621H98.3377ZM111.579 22.9975C111.532 22.8337 111.466 22.689 111.381 22.5633C111.296 22.4354 111.191 22.3277 111.068 22.2402C110.947 22.1505 110.808 22.082 110.65 22.0349C110.496 21.9878 110.324 21.9643 110.136 21.9643C109.783 21.9643 109.474 22.0518 109.207 22.2268C108.942 22.4018 108.736 22.6564 108.587 22.9907C108.439 23.3228 108.365 23.7289 108.365 24.2091C108.365 24.6892 108.438 25.0976 108.584 25.4341C108.73 25.7707 108.936 26.0276 109.203 26.2048C109.47 26.3798 109.786 26.4673 110.149 26.4673C110.479 26.4673 110.76 26.409 110.994 26.2923C111.229 26.1734 111.409 26.0063 111.532 25.7909C111.658 25.5755 111.721 25.3208 111.721 25.0269L112.017 25.0706H110.24V23.9735H113.124V24.8418C113.124 25.4476 112.996 25.9681 112.74 26.4034C112.485 26.8364 112.132 27.1707 111.684 27.4063C111.235 27.6397 110.721 27.7563 110.142 27.7563C109.496 27.7563 108.928 27.6139 108.439 27.3289C107.95 27.0417 107.569 26.6345 107.295 26.1072C107.024 25.5777 106.888 24.9495 106.888 24.2225C106.888 23.6639 106.969 23.1658 107.13 22.7282C107.294 22.2885 107.523 21.916 107.817 21.6109C108.111 21.3057 108.453 21.0735 108.843 20.9142C109.234 20.7549 109.657 20.6753 110.112 20.6753C110.502 20.6753 110.866 20.7325 111.202 20.8469C111.539 20.9591 111.837 21.1184 112.098 21.3248C112.36 21.5312 112.574 21.7769 112.74 22.0619C112.907 22.3446 113.013 22.6564 113.06 22.9975H111.579ZM114.192 27.6621V22.4926H115.582V23.3946H115.636C115.73 23.0738 115.888 22.8314 116.11 22.6677C116.332 22.5016 116.588 22.4186 116.878 22.4186C116.949 22.4186 117.027 22.4231 117.11 22.4321C117.193 22.441 117.266 22.4534 117.329 22.4691V23.7413C117.261 23.7211 117.168 23.7031 117.049 23.6874C116.93 23.6717 116.821 23.6639 116.723 23.6639C116.512 23.6639 116.323 23.7098 116.157 23.8018C115.994 23.8916 115.863 24.0172 115.767 24.1788C115.673 24.3403 115.626 24.5266 115.626 24.7375V27.6621H114.192ZM120.165 27.7631C119.642 27.7631 119.19 27.652 118.809 27.4299C118.429 27.2055 118.137 26.8936 117.93 26.4943C117.724 26.0926 117.621 25.6271 117.621 25.0976C117.621 24.5636 117.724 24.0969 117.93 23.6975C118.137 23.2959 118.429 22.984 118.809 22.7619C119.19 22.5375 119.642 22.4253 120.165 22.4253C120.688 22.4253 121.139 22.5375 121.518 22.7619C121.899 22.984 122.193 23.2959 122.4 23.6975C122.606 24.0969 122.709 24.5636 122.709 25.0976C122.709 25.6271 122.606 26.0926 122.4 26.4943C122.193 26.8936 121.899 27.2055 121.518 27.4299C121.139 27.652 120.688 27.7631 120.165 27.7631ZM120.172 26.6524C120.409 26.6524 120.608 26.5851 120.767 26.4505C120.927 26.3137 121.047 26.1274 121.127 25.8918C121.21 25.6562 121.252 25.3881 121.252 25.0875C121.252 24.7868 121.21 24.5187 121.127 24.2831C121.047 24.0475 120.927 23.8613 120.767 23.7244C120.608 23.5876 120.409 23.5191 120.172 23.5191C119.932 23.5191 119.73 23.5876 119.566 23.7244C119.404 23.8613 119.282 24.0475 119.199 24.2831C119.118 24.5187 119.078 24.7868 119.078 25.0875C119.078 25.3881 119.118 25.6562 119.199 25.8918C119.282 26.1274 119.404 26.3137 119.566 26.4505C119.73 26.5851 119.932 26.6524 120.172 26.6524ZM126.957 25.461V22.4926H128.39V27.6621H127.014V26.7231H126.96C126.843 27.026 126.649 27.2695 126.378 27.4534C126.108 27.6374 125.78 27.7294 125.392 27.7294C125.046 27.7294 124.742 27.6509 124.479 27.4938C124.217 27.3368 124.012 27.1135 123.864 26.8241C123.718 26.5347 123.644 26.188 123.641 25.7841V22.4926H125.075V25.5284C125.077 25.8335 125.159 26.0747 125.321 26.2519C125.482 26.4292 125.699 26.5178 125.97 26.5178C126.143 26.5178 126.305 26.4786 126.455 26.4C126.605 26.3193 126.727 26.2003 126.819 26.0433C126.913 25.8862 126.959 25.6921 126.957 25.461ZM129.537 29.6007V22.4926H130.951V23.361H131.015C131.077 23.2218 131.168 23.0805 131.287 22.9369C131.408 22.7911 131.565 22.6699 131.758 22.5734C131.954 22.4747 132.196 22.4253 132.485 22.4253C132.862 22.4253 133.21 22.5241 133.529 22.7215C133.847 22.9167 134.102 23.2117 134.293 23.6066C134.483 23.9993 134.579 24.4918 134.579 25.0841C134.579 25.6607 134.486 26.1476 134.299 26.5448C134.115 26.9396 133.864 27.2392 133.545 27.4433C133.229 27.6453 132.875 27.7462 132.482 27.7462C132.204 27.7462 131.967 27.7003 131.772 27.6083C131.579 27.5163 131.421 27.4007 131.297 27.2616C131.174 27.1203 131.08 26.9778 131.015 26.8342H130.971V29.6007H129.537ZM130.94 25.0774C130.94 25.3848 130.983 25.6529 131.068 25.8817C131.154 26.1106 131.277 26.289 131.439 26.4169C131.6 26.5425 131.796 26.6053 132.028 26.6053C132.261 26.6053 132.458 26.5414 132.62 26.4135C132.781 26.2834 132.904 26.1039 132.987 25.875C133.072 25.6439 133.115 25.378 133.115 25.0774C133.115 24.779 133.073 24.5165 132.99 24.2898C132.907 24.0632 132.785 23.886 132.623 23.7581C132.462 23.6302 132.263 23.5663 132.028 23.5663C131.794 23.5663 131.597 23.628 131.435 23.7514C131.276 23.8748 131.154 24.0498 131.068 24.2764C130.983 24.503 130.94 24.77 130.94 25.0774Z" fill="#032B3A"/>
<path d="M183.131 25.1778L181.599 26.7095C181.368 26.9408 181.368 27.3159 181.599 27.5472C181.831 27.7785 182.206 27.7785 182.437 27.5472L184.98 25.0044C185.211 24.773 185.211 24.398 184.98 24.1666L182.437 21.6238C182.206 21.3925 181.831 21.3925 181.599 21.6238C181.368 21.8552 181.368 22.2302 181.599 22.4615L183.131 23.9931H176.268C175.941 23.9931 175.676 24.2584 175.676 24.5855C175.676 24.9126 175.941 25.1778 176.268 25.1778H183.131Z" fill="#388523"/>
<g clip-path="url(#clip1_2314_43254)">
<rect x="36.4773" y="41.1708" width="151.171" height="0.592335" fill="#DADFE2"/>
</g>
<path d="M45.9548 57.1638C45.9548 58.4724 44.894 59.5332 43.5855 59.5332C42.2769 59.5332 41.2161 58.4724 41.2161 57.1638C41.2161 55.8553 42.2769 54.7945 43.5855 54.7945C44.894 54.7945 45.9548 55.8553 45.9548 57.1638ZM44.7701 57.1638C44.7701 56.5096 44.2397 55.9792 43.5855 55.9792C42.9312 55.9792 42.4008 56.5096 42.4008 57.1638C42.4008 57.8181 42.9312 58.3485 43.5855 58.3485C44.2397 58.3485 44.7701 57.8181 44.7701 57.1638Z" fill="#233D48"/>
<path d="M49.5088 58.3485C49.5088 61.6199 46.8568 64.2719 43.5855 64.2719C40.3141 64.2719 37.6621 61.6199 37.6621 58.3485C37.6621 55.0771 40.3141 52.4252 43.5855 52.4252C46.8568 52.4252 49.5088 55.0771 49.5088 58.3485ZM43.5855 63.0872C44.4558 63.0872 45.2714 62.8526 45.9723 62.4431C44.7414 61.3387 43.7063 61.207 42.9071 61.3972C42.2355 61.557 41.6405 61.9631 41.1592 62.4198C41.8689 62.8436 42.6987 63.0872 43.5855 63.0872ZM42.6328 60.2448C43.9395 59.9338 45.4065 60.2778 46.9247 61.7107C47.789 60.8523 48.3241 59.6629 48.3241 58.3485C48.3241 55.7314 46.2026 53.6098 43.5855 53.6098C40.9684 53.6098 38.8468 55.7314 38.8468 58.3485C38.8468 59.6486 39.3704 60.8265 40.2182 61.6826C40.8213 61.0811 41.6375 60.4816 42.6328 60.2448Z" fill="#233D48"/>
<path d="M57.2192 61.4252H55.6576L58.0371 54.5326H59.915L62.2911 61.4252H60.7295L59.003 56.1076H58.9491L57.2192 61.4252ZM57.1216 58.7159H60.8103V59.8535H57.1216V58.7159ZM65.1888 61.5261C64.6593 61.5261 64.2038 61.414 63.8224 61.1896C63.4432 60.963 63.1515 60.6489 62.9474 60.2472C62.7454 59.8456 62.6445 59.3834 62.6445 58.8606C62.6445 58.3311 62.7466 57.8667 62.9507 57.4673C63.1572 57.0657 63.45 56.7527 63.8291 56.5283C64.2083 56.3017 64.6593 56.1884 65.1821 56.1884C65.6331 56.1884 66.028 56.2703 66.3668 56.4341C66.7056 56.5979 66.9737 56.8278 67.1711 57.124C67.3686 57.4202 67.4774 57.768 67.4976 58.1673H66.1446C66.1065 57.9093 66.0055 57.7018 65.8417 57.5447C65.6802 57.3854 65.4682 57.3058 65.2056 57.3058C64.9835 57.3058 64.7894 57.3663 64.6234 57.4875C64.4596 57.6064 64.3317 57.7803 64.2397 58.0092C64.1477 58.238 64.1018 58.5151 64.1018 58.8404C64.1018 59.1703 64.1466 59.4507 64.2364 59.6818C64.3284 59.9129 64.4574 60.0891 64.6234 60.2102C64.7894 60.3314 64.9835 60.392 65.2056 60.392C65.3694 60.392 65.5164 60.3583 65.6465 60.291C65.7789 60.2237 65.8877 60.1261 65.973 59.9982C66.0605 59.868 66.1177 59.7121 66.1446 59.5304H67.4976C67.4751 59.9253 67.3674 60.273 67.1745 60.5737C66.9838 60.8721 66.7201 61.1054 66.3836 61.2737C66.047 61.442 65.6488 61.5261 65.1888 61.5261ZM71.1652 56.2557V57.3327H68.0521V56.2557H71.1652ZM68.7588 55.0172H70.1925V59.8366C70.1925 59.969 70.2127 60.0722 70.2531 60.1463C70.2935 60.2181 70.3496 60.2685 70.4214 60.2977C70.4954 60.3269 70.5807 60.3415 70.6772 60.3415C70.7445 60.3415 70.8118 60.3359 70.8791 60.3246C70.9464 60.3112 70.998 60.3011 71.0339 60.2944L71.2594 61.3612C71.1876 61.3837 71.0866 61.4095 70.9565 61.4386C70.8264 61.47 70.6682 61.4891 70.482 61.4958C70.1364 61.5093 69.8335 61.4633 69.5733 61.3579C69.3152 61.2524 69.1144 61.0886 68.9708 60.8665C68.8272 60.6444 68.7566 60.3639 68.7588 60.0251V55.0172ZM72.0991 61.4252V56.2557H73.5328V61.4252H72.0991ZM72.8193 55.5893C72.6062 55.5893 72.4233 55.5187 72.2708 55.3773C72.1204 55.2337 72.0453 55.0621 72.0453 54.8624C72.0453 54.6649 72.1204 54.4955 72.2708 54.3542C72.4233 54.2106 72.6062 54.1388 72.8193 54.1388C73.0325 54.1388 73.2142 54.2106 73.3646 54.3542C73.5171 54.4955 73.5934 54.6649 73.5934 54.8624C73.5934 55.0621 73.5171 55.2337 73.3646 55.3773C73.2142 55.5187 73.0325 55.5893 72.8193 55.5893ZM77.017 61.5261C76.4942 61.5261 76.0421 61.4151 75.6607 61.1929C75.2815 60.9686 74.9887 60.6567 74.7823 60.2573C74.5759 59.8557 74.4727 59.3901 74.4727 58.8606C74.4727 58.3266 74.5759 57.8599 74.7823 57.4606C74.9887 57.0589 75.2815 56.7471 75.6607 56.5249C76.0421 56.3006 76.4942 56.1884 77.017 56.1884C77.5398 56.1884 77.9908 56.3006 78.3699 56.5249C78.7514 56.7471 79.0453 57.0589 79.2517 57.4606C79.4581 57.8599 79.5613 58.3266 79.5613 58.8606C79.5613 59.3901 79.4581 59.8557 79.2517 60.2573C79.0453 60.6567 78.7514 60.9686 78.3699 61.1929C77.9908 61.4151 77.5398 61.5261 77.017 61.5261ZM77.0237 60.4155C77.2616 60.4155 77.4601 60.3482 77.6194 60.2136C77.7787 60.0767 77.8988 59.8905 77.9795 59.6549C78.0626 59.4193 78.1041 59.1512 78.1041 58.8505C78.1041 58.5499 78.0626 58.2818 77.9795 58.0462C77.8988 57.8106 77.7787 57.6244 77.6194 57.4875C77.4601 57.3506 77.2616 57.2822 77.0237 57.2822C76.7837 57.2822 76.5817 57.3506 76.4179 57.4875C76.2564 57.6244 76.1341 57.8106 76.0511 58.0462C75.9703 58.2818 75.9299 58.5499 75.9299 58.8505C75.9299 59.1512 75.9703 59.4193 76.0511 59.6549C76.1341 59.8905 76.2564 60.0767 76.4179 60.2136C76.5817 60.3482 76.7837 60.4155 77.0237 60.4155ZM81.9273 58.4366V61.4252H80.4936V56.2557H81.86V57.1678H81.9206C82.035 56.8671 82.2269 56.6293 82.4961 56.4543C82.7653 56.277 83.0918 56.1884 83.4755 56.1884C83.8345 56.1884 84.1475 56.2669 84.4145 56.424C84.6815 56.581 84.889 56.8054 85.0371 57.0971C85.1852 57.3865 85.2592 57.7321 85.2592 58.1337V61.4252H83.8255V58.3895C83.8277 58.0731 83.747 57.8263 83.5832 57.649C83.4194 57.4695 83.1939 57.3798 82.9067 57.3798C82.7137 57.3798 82.5432 57.4213 82.3951 57.5043C82.2493 57.5873 82.1349 57.7085 82.0518 57.8678C81.9711 58.0249 81.9296 58.2144 81.9273 58.4366ZM87.8734 54.5326V61.4252H86.4161V54.5326H87.8734ZM91.7951 56.2557V57.3327H88.682V56.2557H91.7951ZM89.3887 55.0172H90.8224V59.8366C90.8224 59.969 90.8426 60.0722 90.883 60.1463C90.9234 60.2181 90.9795 60.2685 91.0513 60.2977C91.1253 60.3269 91.2106 60.3415 91.3071 60.3415C91.3744 60.3415 91.4417 60.3359 91.509 60.3246C91.5763 60.3112 91.6279 60.3011 91.6638 60.2944L91.8893 61.3612C91.8175 61.3837 91.7165 61.4095 91.5864 61.4386C91.4563 61.47 91.2981 61.4891 91.1119 61.4958C90.7663 61.5093 90.4634 61.4633 90.2032 61.3579C89.9452 61.2524 89.7443 61.0886 89.6007 60.8665C89.4571 60.6444 89.3865 60.3639 89.3887 60.0251V55.0172ZM95.0294 61.5261C94.4976 61.5261 94.0399 61.4184 93.6562 61.203C93.2748 60.9854 92.9809 60.678 92.7744 60.2809C92.568 59.8815 92.4648 59.4092 92.4648 58.864C92.4648 58.3322 92.568 57.8656 92.7744 57.4639C92.9809 57.0623 93.2714 56.7493 93.6461 56.5249C94.0231 56.3006 94.4651 56.1884 94.9721 56.1884C95.3132 56.1884 95.6307 56.2434 95.9246 56.3533C96.2208 56.461 96.4788 56.6237 96.6987 56.8413C96.9208 57.0589 97.0936 57.3327 97.217 57.6625C97.3404 57.9901 97.4021 58.3738 97.4021 58.8135V59.2073H93.037V58.3188H96.0525C96.0525 58.1124 96.0076 57.9295 95.9179 57.7702C95.8281 57.6109 95.7036 57.4864 95.5443 57.3966C95.3872 57.3046 95.2044 57.2586 94.9957 57.2586C94.7781 57.2586 94.5851 57.3091 94.4168 57.4101C94.2508 57.5088 94.1207 57.6423 94.0264 57.8106C93.9322 57.9766 93.884 58.1617 93.8817 58.3659V59.2106C93.8817 59.4664 93.9288 59.6874 94.0231 59.8737C94.1195 60.0599 94.2553 60.2035 94.4303 60.3044C94.6053 60.4054 94.8128 60.4559 95.0529 60.4559C95.2122 60.4559 95.3581 60.4335 95.4904 60.3886C95.6228 60.3437 95.7361 60.2764 95.8304 60.1867C95.9246 60.0969 95.9964 59.987 96.0457 59.8568L97.3718 59.9443C97.3045 60.2629 97.1665 60.5412 96.9578 60.779C96.7514 61.0146 96.4844 61.1986 96.1568 61.3309C95.8315 61.4611 95.4557 61.5261 95.0294 61.5261ZM98.3377 61.4252V56.2557H99.7041V57.1678H99.7647C99.8724 56.8649 100.052 56.6259 100.303 56.4509C100.554 56.2759 100.855 56.1884 101.205 56.1884C101.56 56.1884 101.861 56.277 102.11 56.4543C102.359 56.6293 102.526 56.8671 102.609 57.1678H102.662C102.768 56.8716 102.959 56.6349 103.235 56.4576C103.513 56.2781 103.841 56.1884 104.221 56.1884C104.703 56.1884 105.095 56.3421 105.395 56.6495C105.698 56.9546 105.85 57.3876 105.85 57.9486V61.4252H104.419V58.2313C104.419 57.9441 104.343 57.7287 104.19 57.5851C104.038 57.4415 103.847 57.3697 103.618 57.3697C103.358 57.3697 103.155 57.4527 103.009 57.6187C102.863 57.7825 102.79 57.9991 102.79 58.2683V61.4252H101.4V58.201C101.4 57.9474 101.327 57.7455 101.182 57.5952C101.038 57.4449 100.848 57.3697 100.613 57.3697C100.453 57.3697 100.31 57.4101 100.182 57.4909C100.056 57.5694 99.9565 57.6805 99.8825 57.824C99.8084 57.9654 99.7714 58.1314 99.7714 58.3221V61.4252H98.3377ZM111.579 56.7605C111.532 56.5967 111.466 56.452 111.381 56.3264C111.296 56.1985 111.191 56.0908 111.068 56.0033C110.947 55.9135 110.808 55.8451 110.65 55.798C110.496 55.7509 110.324 55.7273 110.136 55.7273C109.783 55.7273 109.474 55.8148 109.207 55.9898C108.942 56.1648 108.736 56.4195 108.587 56.7538C108.439 57.0859 108.365 57.492 108.365 57.9721C108.365 58.4523 108.438 58.8606 108.584 59.1972C108.73 59.5337 108.936 59.7906 109.203 59.9679C109.47 60.1429 109.786 60.2304 110.149 60.2304C110.479 60.2304 110.76 60.1721 110.994 60.0554C111.229 59.9365 111.409 59.7693 111.532 59.5539C111.658 59.3385 111.721 59.0839 111.721 58.79L112.017 58.8337H110.24V57.7365H113.124V58.6049C113.124 59.2106 112.996 59.7312 112.74 60.1665C112.485 60.5995 112.132 60.9338 111.684 61.1694C111.235 61.4027 110.721 61.5194 110.142 61.5194C109.496 61.5194 108.928 61.3769 108.439 61.092C107.95 60.8048 107.569 60.3976 107.295 59.8703C107.024 59.3408 106.888 58.7125 106.888 57.9856C106.888 57.4269 106.969 56.9288 107.13 56.4913C107.294 56.0515 107.523 55.6791 107.817 55.3739C108.111 55.0688 108.453 54.8366 108.843 54.6773C109.234 54.518 109.657 54.4383 110.112 54.4383C110.502 54.4383 110.866 54.4955 111.202 54.61C111.539 54.7221 111.837 54.8814 112.098 55.0879C112.36 55.2943 112.574 55.54 112.74 55.8249C112.907 56.1076 113.013 56.4195 113.06 56.7605H111.579ZM114.192 61.4252V56.2557H115.582V57.1577H115.636C115.73 56.8368 115.888 56.5945 116.11 56.4307C116.332 56.2647 116.588 56.1817 116.878 56.1817C116.949 56.1817 117.027 56.1862 117.11 56.1951C117.193 56.2041 117.266 56.2164 117.329 56.2321V57.5043C117.261 57.4841 117.168 57.4662 117.049 57.4505C116.93 57.4348 116.821 57.4269 116.723 57.4269C116.512 57.4269 116.323 57.4729 116.157 57.5649C115.994 57.6546 115.863 57.7803 115.767 57.9418C115.673 58.1034 115.626 58.2896 115.626 58.5005V61.4252H114.192ZM120.165 61.5261C119.642 61.5261 119.19 61.4151 118.809 61.1929C118.429 60.9686 118.137 60.6567 117.93 60.2573C117.724 59.8557 117.621 59.3901 117.621 58.8606C117.621 58.3266 117.724 57.8599 117.93 57.4606C118.137 57.0589 118.429 56.7471 118.809 56.5249C119.19 56.3006 119.642 56.1884 120.165 56.1884C120.688 56.1884 121.139 56.3006 121.518 56.5249C121.899 56.7471 122.193 57.0589 122.4 57.4606C122.606 57.8599 122.709 58.3266 122.709 58.8606C122.709 59.3901 122.606 59.8557 122.4 60.2573C122.193 60.6567 121.899 60.9686 121.518 61.1929C121.139 61.4151 120.688 61.5261 120.165 61.5261ZM120.172 60.4155C120.409 60.4155 120.608 60.3482 120.767 60.2136C120.927 60.0767 121.047 59.8905 121.127 59.6549C121.21 59.4193 121.252 59.1512 121.252 58.8505C121.252 58.5499 121.21 58.2818 121.127 58.0462C121.047 57.8106 120.927 57.6244 120.767 57.4875C120.608 57.3506 120.409 57.2822 120.172 57.2822C119.932 57.2822 119.73 57.3506 119.566 57.4875C119.404 57.6244 119.282 57.8106 119.199 58.0462C119.118 58.2818 119.078 58.5499 119.078 58.8505C119.078 59.1512 119.118 59.4193 119.199 59.6549C119.282 59.8905 119.404 60.0767 119.566 60.2136C119.73 60.3482 119.932 60.4155 120.172 60.4155ZM126.957 59.2241V56.2557H128.39V61.4252H127.014V60.4862H126.96C126.843 60.7891 126.649 61.0325 126.378 61.2165C126.108 61.4005 125.78 61.4925 125.392 61.4925C125.046 61.4925 124.742 61.414 124.479 61.2569C124.217 61.0998 124.012 60.8766 123.864 60.5872C123.718 60.2977 123.644 59.9511 123.641 59.5472V56.2557H125.075V59.2914C125.077 59.5966 125.159 59.8378 125.321 60.015C125.482 60.1923 125.699 60.2809 125.97 60.2809C126.143 60.2809 126.305 60.2416 126.455 60.1631C126.605 60.0823 126.727 59.9634 126.819 59.8063C126.913 59.6493 126.959 59.4552 126.957 59.2241ZM129.537 63.3637V56.2557H130.951V57.124H131.015C131.077 56.9849 131.168 56.8436 131.287 56.7C131.408 56.5541 131.565 56.433 131.758 56.3365C131.954 56.2378 132.196 56.1884 132.485 56.1884C132.862 56.1884 133.21 56.2871 133.529 56.4846C133.847 56.6798 134.102 56.9748 134.293 57.3697C134.483 57.7623 134.579 58.2548 134.579 58.8472C134.579 59.4238 134.486 59.9107 134.299 60.3078C134.115 60.7027 133.864 61.0022 133.545 61.2064C133.229 61.4083 132.875 61.5093 132.482 61.5093C132.204 61.5093 131.967 61.4633 131.772 61.3713C131.579 61.2793 131.421 61.1638 131.297 61.0247C131.174 60.8833 131.08 60.7408 131.015 60.5972H130.971V63.3637H129.537ZM130.94 58.8404C130.94 59.1478 130.983 59.4159 131.068 59.6448C131.154 59.8737 131.277 60.052 131.439 60.1799C131.6 60.3056 131.796 60.3684 132.028 60.3684C132.261 60.3684 132.458 60.3044 132.62 60.1766C132.781 60.0464 132.904 59.8669 132.987 59.6381C133.072 59.407 133.115 59.1411 133.115 58.8404C133.115 58.542 133.073 58.2795 132.99 58.0529C132.907 57.8263 132.785 57.649 132.623 57.5211C132.462 57.3933 132.263 57.3293 132.028 57.3293C131.794 57.3293 131.597 57.391 131.435 57.5144C131.276 57.6378 131.154 57.8128 131.068 58.0394C130.983 58.2661 130.94 58.5331 130.94 58.8404Z" fill="#032B3A"/>
<path d="M183.131 58.9408L181.599 60.4725C181.368 60.7039 181.368 61.0789 181.599 61.3102C181.831 61.5416 182.206 61.5416 182.437 61.3102L184.98 58.7674C185.211 58.536 185.211 58.161 184.98 57.9297L182.437 55.3869C182.206 55.1555 181.831 55.1555 181.599 55.3869C181.368 55.6182 181.368 55.9932 181.599 56.2246L183.131 57.7562H176.268C175.941 57.7562 175.676 58.0214 175.676 58.3485C175.676 58.6757 175.941 58.9408 176.268 58.9408H183.131Z" fill="#388523"/>
<g clip-path="url(#clip2_2314_43254)">
<rect x="36.4773" y="74.9339" width="151.171" height="0.592335" fill="#DADFE2"/>
</g>
<path d="M41.8085 86.7806C41.1542 86.7806 40.6238 87.311 40.6238 87.9652V89.1499H38.8468C38.1925 89.1499 37.6621 89.6803 37.6621 90.3346V96.8503C37.6621 97.5046 38.1925 98.0349 38.8468 98.0349H48.3241C48.9784 98.0349 49.5088 97.5046 49.5088 96.8503V90.3346C49.5088 89.6803 48.9784 89.1499 48.3241 89.1499H46.5471V87.9652C46.5471 87.311 46.0168 86.7806 45.3625 86.7806H41.8085ZM45.3625 89.1499H41.8085V87.9652H45.3625V89.1499ZM48.3241 90.3346V92.7039H45.3625C45.3625 92.0496 44.8321 91.5193 44.1778 91.5193H42.9931C42.3388 91.5193 41.8085 92.0496 41.8085 92.7039H38.8468V90.3346H48.3241ZM48.3241 93.8886V96.8503H38.8468V93.8886H41.8085V94.4809C41.8085 95.1352 42.3388 95.6656 42.9931 95.6656H44.1778C44.8321 95.6656 45.3625 95.1352 45.3625 94.4809V93.8886H48.3241ZM42.9931 92.7039H44.1778V94.4809H42.9931V92.7039Z" fill="#233D48"/>
<path d="M57.2192 95.1882H55.6576L58.0371 88.2956H59.915L62.2911 95.1882H60.7295L59.003 89.8707H58.9491L57.2192 95.1882ZM57.1216 92.479H60.8103V93.6165H57.1216V92.479ZM65.1888 95.2892C64.6593 95.2892 64.2038 95.177 63.8224 94.9526C63.4432 94.726 63.1515 94.4119 62.9474 94.0103C62.7454 93.6087 62.6445 93.1465 62.6445 92.6237C62.6445 92.0942 62.7466 91.6297 62.9507 91.2304C63.1572 90.8287 63.45 90.5157 63.8291 90.2914C64.2083 90.0648 64.6593 89.9515 65.1821 89.9515C65.6331 89.9515 66.028 90.0334 66.3668 90.1971C66.7056 90.3609 66.9737 90.5909 67.1711 90.8871C67.3686 91.1832 67.4774 91.531 67.4976 91.9304H66.1446C66.1065 91.6724 66.0055 91.4648 65.8417 91.3078C65.6802 91.1485 65.4682 91.0688 65.2056 91.0688C64.9835 91.0688 64.7894 91.1294 64.6234 91.2506C64.4596 91.3695 64.3317 91.5434 64.2397 91.7722C64.1477 92.0011 64.1018 92.2782 64.1018 92.6035C64.1018 92.9333 64.1466 93.2138 64.2364 93.4449C64.3284 93.676 64.4574 93.8521 64.6234 93.9733C64.7894 94.0944 64.9835 94.155 65.2056 94.155C65.3694 94.155 65.5164 94.1214 65.6465 94.054C65.7789 93.9867 65.8877 93.8891 65.973 93.7612C66.0605 93.6311 66.1177 93.4752 66.1446 93.2934H67.4976C67.4751 93.6883 67.3674 94.0361 67.1745 94.3368C66.9838 94.6352 66.7201 94.8685 66.3836 95.0368C66.047 95.2051 65.6488 95.2892 65.1888 95.2892ZM71.1652 90.0188V91.0957H68.0521V90.0188H71.1652ZM68.7588 88.7802H70.1925V93.5997C70.1925 93.7321 70.2127 93.8353 70.2531 93.9093C70.2935 93.9811 70.3496 94.0316 70.4214 94.0608C70.4954 94.0899 70.5807 94.1045 70.6772 94.1045C70.7445 94.1045 70.8118 94.0989 70.8791 94.0877C70.9464 94.0742 70.998 94.0641 71.0339 94.0574L71.2594 95.1243C71.1876 95.1467 71.0866 95.1725 70.9565 95.2017C70.8264 95.2331 70.6682 95.2522 70.482 95.2589C70.1364 95.2724 69.8335 95.2264 69.5733 95.1209C69.3152 95.0155 69.1144 94.8517 68.9708 94.6296C68.8272 94.4074 68.7566 94.127 68.7588 93.7882V88.7802ZM72.0991 95.1882V90.0188H73.5328V95.1882H72.0991ZM72.8193 89.3524C72.6062 89.3524 72.4233 89.2817 72.2708 89.1404C72.1204 88.9968 72.0453 88.8251 72.0453 88.6254C72.0453 88.428 72.1204 88.2586 72.2708 88.1172C72.4233 87.9736 72.6062 87.9018 72.8193 87.9018C73.0325 87.9018 73.2142 87.9736 73.3646 88.1172C73.5171 88.2586 73.5934 88.428 73.5934 88.6254C73.5934 88.8251 73.5171 88.9968 73.3646 89.1404C73.2142 89.2817 73.0325 89.3524 72.8193 89.3524ZM77.017 95.2892C76.4942 95.2892 76.0421 95.1781 75.6607 94.956C75.2815 94.7316 74.9887 94.4198 74.7823 94.0204C74.5759 93.6188 74.4727 93.1532 74.4727 92.6237C74.4727 92.0897 74.5759 91.623 74.7823 91.2236C74.9887 90.822 75.2815 90.5101 75.6607 90.288C76.0421 90.0636 76.4942 89.9515 77.017 89.9515C77.5398 89.9515 77.9908 90.0636 78.3699 90.288C78.7514 90.5101 79.0453 90.822 79.2517 91.2236C79.4581 91.623 79.5613 92.0897 79.5613 92.6237C79.5613 93.1532 79.4581 93.6188 79.2517 94.0204C79.0453 94.4198 78.7514 94.7316 78.3699 94.956C77.9908 95.1781 77.5398 95.2892 77.017 95.2892ZM77.0237 94.1786C77.2616 94.1786 77.4601 94.1113 77.6194 93.9766C77.7787 93.8398 77.8988 93.6535 77.9795 93.418C78.0626 93.1824 78.1041 92.9143 78.1041 92.6136C78.1041 92.3129 78.0626 92.0448 77.9795 91.8092C77.8988 91.5736 77.7787 91.3874 77.6194 91.2506C77.4601 91.1137 77.2616 91.0453 77.0237 91.0453C76.7837 91.0453 76.5817 91.1137 76.4179 91.2506C76.2564 91.3874 76.1341 91.5736 76.0511 91.8092C75.9703 92.0448 75.9299 92.3129 75.9299 92.6136C75.9299 92.9143 75.9703 93.1824 76.0511 93.418C76.1341 93.6535 76.2564 93.8398 76.4179 93.9766C76.5817 94.1113 76.7837 94.1786 77.0237 94.1786ZM81.9273 92.1996V95.1882H80.4936V90.0188H81.86V90.9308H81.9206C82.035 90.6302 82.2269 90.3923 82.4961 90.2173C82.7653 90.0401 83.0918 89.9515 83.4755 89.9515C83.8345 89.9515 84.1475 90.03 84.4145 90.187C84.6815 90.3441 84.889 90.5685 85.0371 90.8602C85.1852 91.1496 85.2592 91.4951 85.2592 91.8967V95.1882H83.8255V92.1525C83.8277 91.8362 83.747 91.5894 83.5832 91.4121C83.4194 91.2326 83.1939 91.1429 82.9067 91.1429C82.7137 91.1429 82.5432 91.1844 82.3951 91.2674C82.2493 91.3504 82.1349 91.4716 82.0518 91.6309C81.9711 91.7879 81.9296 91.9775 81.9273 92.1996ZM87.8734 88.2956V95.1882H86.4161V88.2956H87.8734ZM91.7951 90.0188V91.0957H88.682V90.0188H91.7951ZM89.3887 88.7802H90.8224V93.5997C90.8224 93.7321 90.8426 93.8353 90.883 93.9093C90.9234 93.9811 90.9795 94.0316 91.0513 94.0608C91.1253 94.0899 91.2106 94.1045 91.3071 94.1045C91.3744 94.1045 91.4417 94.0989 91.509 94.0877C91.5763 94.0742 91.6279 94.0641 91.6638 94.0574L91.8893 95.1243C91.8175 95.1467 91.7165 95.1725 91.5864 95.2017C91.4563 95.2331 91.2981 95.2522 91.1119 95.2589C90.7663 95.2724 90.4634 95.2264 90.2032 95.1209C89.9452 95.0155 89.7443 94.8517 89.6007 94.6296C89.4571 94.4074 89.3865 94.127 89.3887 93.7882V88.7802ZM95.0294 95.2892C94.4976 95.2892 94.0399 95.1815 93.6562 94.9661C93.2748 94.7485 92.9809 94.4411 92.7744 94.0439C92.568 93.6446 92.4648 93.1723 92.4648 92.6271C92.4648 92.0953 92.568 91.6286 92.7744 91.227C92.9809 90.8254 93.2714 90.5124 93.6461 90.288C94.0231 90.0636 94.4651 89.9515 94.9721 89.9515C95.3132 89.9515 95.6307 90.0064 95.9246 90.1164C96.2208 90.2241 96.4788 90.3867 96.6987 90.6044C96.9208 90.822 97.0936 91.0957 97.217 91.4256C97.3404 91.7531 97.4021 92.1368 97.4021 92.5766V92.9703H93.037V92.0818H96.0525C96.0525 91.8754 96.0076 91.6926 95.9179 91.5333C95.8281 91.374 95.7036 91.2494 95.5443 91.1597C95.3872 91.0677 95.2044 91.0217 94.9957 91.0217C94.7781 91.0217 94.5851 91.0722 94.4168 91.1731C94.2508 91.2719 94.1207 91.4054 94.0264 91.5736C93.9322 91.7397 93.884 91.9248 93.8817 92.129V92.9737C93.8817 93.2295 93.9288 93.4505 94.0231 93.6367C94.1195 93.8229 94.2553 93.9665 94.4303 94.0675C94.6053 94.1685 94.8128 94.219 95.0529 94.219C95.2122 94.219 95.3581 94.1965 95.4904 94.1516C95.6228 94.1068 95.7361 94.0395 95.8304 93.9497C95.9246 93.86 95.9964 93.75 96.0457 93.6199L97.3718 93.7074C97.3045 94.026 97.1665 94.3042 96.9578 94.542C96.7514 94.7776 96.4844 94.9616 96.1568 95.094C95.8315 95.2241 95.4557 95.2892 95.0294 95.2892ZM98.3377 95.1882V90.0188H99.7041V90.9308H99.7647C99.8724 90.6279 100.052 90.389 100.303 90.214C100.554 90.039 100.855 89.9515 101.205 89.9515C101.56 89.9515 101.861 90.0401 102.11 90.2173C102.359 90.3923 102.526 90.6302 102.609 90.9308H102.662C102.768 90.6347 102.959 90.398 103.235 90.2207C103.513 90.0412 103.841 89.9515 104.221 89.9515C104.703 89.9515 105.095 90.1051 105.395 90.4125C105.698 90.7177 105.85 91.1507 105.85 91.7116V95.1882H104.419V91.9943C104.419 91.7071 104.343 91.4918 104.19 91.3482C104.038 91.2046 103.847 91.1328 103.618 91.1328C103.358 91.1328 103.155 91.2158 103.009 91.3818C102.863 91.5456 102.79 91.7621 102.79 92.0314V95.1882H101.4V91.964C101.4 91.7105 101.327 91.5086 101.182 91.3583C101.038 91.2079 100.848 91.1328 100.613 91.1328C100.453 91.1328 100.31 91.1731 100.182 91.2539C100.056 91.3324 99.9565 91.4435 99.8825 91.5871C99.8084 91.7285 99.7714 91.8945 99.7714 92.0852V95.1882H98.3377ZM111.579 90.5236C111.532 90.3598 111.466 90.2151 111.381 90.0894C111.296 89.9616 111.191 89.8539 111.068 89.7664C110.947 89.6766 110.808 89.6082 110.65 89.5611C110.496 89.5139 110.324 89.4904 110.136 89.4904C109.783 89.4904 109.474 89.5779 109.207 89.7529C108.942 89.9279 108.736 90.1826 108.587 90.5169C108.439 90.8489 108.365 91.255 108.365 91.7352C108.365 92.2153 108.438 92.6237 108.584 92.9602C108.73 93.2968 108.936 93.5537 109.203 93.731C109.47 93.906 109.786 93.9935 110.149 93.9935C110.479 93.9935 110.76 93.9351 110.994 93.8185C111.229 93.6995 111.409 93.5324 111.532 93.317C111.658 93.1016 111.721 92.8469 111.721 92.553L112.017 92.5968H110.24V91.4996H113.124V92.3679C113.124 92.9737 112.996 93.4942 112.74 93.9295C112.485 94.3626 112.132 94.6969 111.684 94.9325C111.235 95.1658 110.721 95.2825 110.142 95.2825C109.496 95.2825 108.928 95.14 108.439 94.855C107.95 94.5679 107.569 94.1606 107.295 93.6334C107.024 93.1038 106.888 92.4756 106.888 91.7487C106.888 91.19 106.969 90.6919 107.13 90.2544C107.294 89.8146 107.523 89.4421 107.817 89.137C108.111 88.8319 108.453 88.5996 108.843 88.4403C109.234 88.281 109.657 88.2014 110.112 88.2014C110.502 88.2014 110.866 88.2586 111.202 88.373C111.539 88.4852 111.837 88.6445 112.098 88.8509C112.36 89.0573 112.574 89.303 112.74 89.588C112.907 89.8707 113.013 90.1826 113.06 90.5236H111.579ZM114.192 95.1882V90.0188H115.582V90.9207H115.636C115.73 90.5999 115.888 90.3576 116.11 90.1938C116.332 90.0277 116.588 89.9447 116.878 89.9447C116.949 89.9447 117.027 89.9492 117.11 89.9582C117.193 89.9672 117.266 89.9795 117.329 89.9952V91.2674C117.261 91.2472 117.168 91.2292 117.049 91.2135C116.93 91.1978 116.821 91.19 116.723 91.19C116.512 91.19 116.323 91.236 116.157 91.328C115.994 91.4177 115.863 91.5434 115.767 91.7049C115.673 91.8664 115.626 92.0527 115.626 92.2636V95.1882H114.192ZM120.165 95.2892C119.642 95.2892 119.19 95.1781 118.809 94.956C118.429 94.7316 118.137 94.4198 117.93 94.0204C117.724 93.6188 117.621 93.1532 117.621 92.6237C117.621 92.0897 117.724 91.623 117.93 91.2236C118.137 90.822 118.429 90.5101 118.809 90.288C119.19 90.0636 119.642 89.9515 120.165 89.9515C120.688 89.9515 121.139 90.0636 121.518 90.288C121.899 90.5101 122.193 90.822 122.4 91.2236C122.606 91.623 122.709 92.0897 122.709 92.6237C122.709 93.1532 122.606 93.6188 122.4 94.0204C122.193 94.4198 121.899 94.7316 121.518 94.956C121.139 95.1781 120.688 95.2892 120.165 95.2892ZM120.172 94.1786C120.409 94.1786 120.608 94.1113 120.767 93.9766C120.927 93.8398 121.047 93.6535 121.127 93.418C121.21 93.1824 121.252 92.9143 121.252 92.6136C121.252 92.3129 121.21 92.0448 121.127 91.8092C121.047 91.5736 120.927 91.3874 120.767 91.2506C120.608 91.1137 120.409 91.0453 120.172 91.0453C119.932 91.0453 119.73 91.1137 119.566 91.2506C119.404 91.3874 119.282 91.5736 119.199 91.8092C119.118 92.0448 119.078 92.3129 119.078 92.6136C119.078 92.9143 119.118 93.1824 119.199 93.418C119.282 93.6535 119.404 93.8398 119.566 93.9766C119.73 94.1113 119.932 94.1786 120.172 94.1786ZM126.957 92.9872V90.0188H128.39V95.1882H127.014V94.2492H126.96C126.843 94.5521 126.649 94.7956 126.378 94.9796C126.108 95.1636 125.78 95.2555 125.392 95.2555C125.046 95.2555 124.742 95.177 124.479 95.02C124.217 94.8629 124.012 94.6396 123.864 94.3502C123.718 94.0608 123.644 93.7141 123.641 93.3103V90.0188H125.075V93.0545C125.077 93.3596 125.159 93.6008 125.321 93.7781C125.482 93.9553 125.699 94.0439 125.97 94.0439C126.143 94.0439 126.305 94.0047 126.455 93.9262C126.605 93.8454 126.727 93.7265 126.819 93.5694C126.913 93.4124 126.959 93.2183 126.957 92.9872ZM129.537 97.1268V90.0188H130.951V90.8871H131.015C131.077 90.748 131.168 90.6066 131.287 90.463C131.408 90.3172 131.565 90.196 131.758 90.0995C131.954 90.0008 132.196 89.9515 132.485 89.9515C132.862 89.9515 133.21 90.0502 133.529 90.2476C133.847 90.4428 134.102 90.7379 134.293 91.1328C134.483 91.5254 134.579 92.0179 134.579 92.6102C134.579 93.1869 134.486 93.6737 134.299 94.0709C134.115 94.4658 133.864 94.7653 133.545 94.9695C133.229 95.1714 132.875 95.2724 132.482 95.2724C132.204 95.2724 131.967 95.2264 131.772 95.1344C131.579 95.0424 131.421 94.9268 131.297 94.7877C131.174 94.6464 131.08 94.5039 131.015 94.3603H130.971V97.1268H129.537ZM130.94 92.6035C130.94 92.9109 130.983 93.179 131.068 93.4079C131.154 93.6367 131.277 93.8151 131.439 93.943C131.6 94.0686 131.796 94.1315 132.028 94.1315C132.261 94.1315 132.458 94.0675 132.62 93.9396C132.781 93.8095 132.904 93.63 132.987 93.4011C133.072 93.17 133.115 92.9042 133.115 92.6035C133.115 92.3051 133.073 92.0426 132.99 91.816C132.907 91.5894 132.785 91.4121 132.623 91.2842C132.462 91.1563 132.263 91.0924 132.028 91.0924C131.794 91.0924 131.597 91.1541 131.435 91.2775C131.276 91.4009 131.154 91.5759 131.068 91.8025C130.983 92.0291 130.94 92.2961 130.94 92.6035Z" fill="#032B3A"/>
<path d="M183.131 92.7039L181.599 94.2356C181.368 94.4669 181.368 94.8419 181.599 95.0732C181.831 95.3046 182.206 95.3046 182.437 95.0732L184.98 92.5305C185.211 92.2991 185.211 91.9241 184.98 91.6927L182.437 89.1499C182.206 88.9186 181.831 88.9186 181.599 89.1499C181.368 89.3813 181.368 89.7563 181.599 89.9876L183.131 91.5192H176.268C175.941 91.5192 175.676 91.7845 175.676 92.1116C175.676 92.4387 175.941 92.7039 176.268 92.7039H183.131Z" fill="#388523"/>
</g>
<defs>
<clipPath id="clip0_2314_43254">
<path d="M0 8C0 3.58172 3.58172 0 8 0H216C220.418 0 224 3.58172 224 8V109C224 113.418 220.418 117 216 117H8C3.58172 117 0 113.418 0 109V8Z" fill="white"/>
</clipPath>
<clipPath id="clip1_2314_43254">
<rect width="151.045" height="1" fill="white" transform="translate(36.4773 41.1708)"/>
</clipPath>
<clipPath id="clip2_2314_43254">
<rect width="151.045" height="1" fill="white" transform="translate(36.4773 74.9339)"/>
</clipPath>
</defs>
</svg>
