<svg width="224" height="117" viewBox="0 0 224 117" fill="none" xmlns="http://www.w3.org/2000/svg">
<g clip-path="url(#clip0_2314_43785)">
<path d="M57 46C57 43.7909 58.7909 42 61 42H162C164.209 42 166 43.7909 166 46V72C166 74.2091 164.209 76 162 76H61C58.7909 76 57 74.2091 57 72V46Z" fill="white"/>
<path d="M68.0092 65H65.7592L69.8558 53.3636H72.4581L76.5604 65H74.3104L71.2024 55.75H71.1115L68.0092 65ZM68.0831 60.4375H74.2195V62.1307H68.0831V60.4375ZM81.5433 65.1705C80.6721 65.1705 79.924 64.9792 79.299 64.5966C78.6778 64.214 78.1986 63.6856 77.8615 63.0114C77.5282 62.3333 77.3615 61.553 77.3615 60.6705C77.3615 59.7841 77.532 59.0019 77.8729 58.3239C78.2138 57.642 78.6948 57.1117 79.3161 56.733C79.9411 56.3504 80.6797 56.1591 81.532 56.1591C82.2403 56.1591 82.8672 56.2898 83.4126 56.5511C83.9619 56.8087 84.3994 57.1742 84.7251 57.6477C85.0509 58.1174 85.2365 58.6667 85.282 59.2955H83.3161C83.2365 58.875 83.0471 58.5246 82.7479 58.2443C82.4524 57.9602 82.0566 57.8182 81.5604 57.8182C81.1399 57.8182 80.7706 57.9318 80.4524 58.1591C80.1342 58.3826 79.8861 58.7045 79.7081 59.125C79.5339 59.5455 79.4467 60.0492 79.4467 60.6364C79.4467 61.2311 79.5339 61.7424 79.7081 62.1705C79.8823 62.5947 80.1267 62.9223 80.4411 63.1534C80.7592 63.3807 81.1323 63.4943 81.5604 63.4943C81.8634 63.4943 82.1342 63.4375 82.3729 63.3239C82.6153 63.2064 82.8179 63.0379 82.9808 62.8182C83.1437 62.5985 83.2554 62.3314 83.3161 62.017H85.282C85.2327 62.6345 85.0509 63.1818 84.7365 63.6591C84.4221 64.1326 83.9941 64.5038 83.4524 64.7727C82.9107 65.0379 82.2744 65.1705 81.5433 65.1705ZM91.3288 56.2727V57.8636H86.3118V56.2727H91.3288ZM87.5504 54.1818H89.6072V62.375C89.6072 62.6515 89.6489 62.8636 89.7322 63.0114C89.8194 63.1553 89.933 63.2538 90.0732 63.3068C90.2133 63.3598 90.3686 63.3864 90.5391 63.3864C90.6679 63.3864 90.7853 63.3769 90.8913 63.358C91.0012 63.339 91.0845 63.322 91.1413 63.3068L91.4879 64.9148C91.3781 64.9527 91.2209 64.9943 91.0163 65.0398C90.8156 65.0852 90.5694 65.1117 90.2777 65.1193C89.7625 65.1345 89.2985 65.0568 88.8857 64.8864C88.4728 64.7121 88.1451 64.4432 87.9027 64.0795C87.6641 63.7159 87.5466 63.2614 87.5504 62.7159V54.1818ZM93.049 65V56.2727H95.1058V65H93.049ZM94.0831 55.0341C93.7573 55.0341 93.477 54.9261 93.2422 54.7102C93.0073 54.4905 92.8899 54.2273 92.8899 53.9205C92.8899 53.6098 93.0073 53.3466 93.2422 53.1307C93.477 52.911 93.7573 52.8011 94.0831 52.8011C94.4126 52.8011 94.6929 52.911 94.924 53.1307C95.1589 53.3466 95.2763 53.6098 95.2763 53.9205C95.2763 54.2273 95.1589 54.4905 94.924 54.7102C94.6929 54.9261 94.4126 55.0341 94.0831 55.0341ZM101.028 65.1705C100.175 65.1705 99.4368 64.983 98.8118 64.608C98.1868 64.233 97.7019 63.7083 97.3572 63.0341C97.0163 62.3598 96.8459 61.572 96.8459 60.6705C96.8459 59.7689 97.0163 58.9792 97.3572 58.3011C97.7019 57.6231 98.1868 57.0966 98.8118 56.7216C99.4368 56.3466 100.175 56.1591 101.028 56.1591C101.88 56.1591 102.619 56.3466 103.244 56.7216C103.869 57.0966 104.352 57.6231 104.692 58.3011C105.037 58.9792 105.21 59.7689 105.21 60.6705C105.21 61.572 105.037 62.3598 104.692 63.0341C104.352 63.7083 103.869 64.233 103.244 64.608C102.619 64.983 101.88 65.1705 101.028 65.1705ZM101.039 63.5227C101.501 63.5227 101.888 63.3958 102.198 63.142C102.509 62.8845 102.74 62.5398 102.891 62.108C103.047 61.6761 103.124 61.1951 103.124 60.6648C103.124 60.1307 103.047 59.6477 102.891 59.2159C102.74 58.7803 102.509 58.4337 102.198 58.1761C101.888 57.9186 101.501 57.7898 101.039 57.7898C100.566 57.7898 100.172 57.9186 99.8572 58.1761C99.5466 58.4337 99.3137 58.7803 99.1584 59.2159C99.0069 59.6477 98.9311 60.1307 98.9311 60.6648C98.9311 61.1951 99.0069 61.6761 99.1584 62.108C99.3137 62.5398 99.5466 62.8845 99.8572 63.142C100.172 63.3958 100.566 63.5227 101.039 63.5227ZM109.012 59.8864V65H106.955V56.2727H108.921V57.7557H109.023C109.224 57.267 109.544 56.8788 109.984 56.5909C110.427 56.303 110.974 56.1591 111.626 56.1591C112.228 56.1591 112.753 56.2879 113.2 56.5455C113.65 56.803 113.999 57.1761 114.245 57.6648C114.495 58.1534 114.618 58.7462 114.614 59.4432V65H112.558V59.7614C112.558 59.178 112.406 58.7216 112.103 58.392C111.804 58.0625 111.389 57.8977 110.859 57.8977C110.499 57.8977 110.179 57.9773 109.898 58.1364C109.622 58.2917 109.404 58.517 109.245 58.8125C109.09 59.108 109.012 59.4659 109.012 59.8864ZM116.796 65V53.3636H118.904V63.233H124.029V65H116.796ZM128.279 65.1761C127.726 65.1761 127.228 65.0777 126.785 64.8807C126.345 64.6799 125.997 64.3845 125.739 63.9943C125.486 63.6042 125.359 63.1231 125.359 62.5511C125.359 62.0587 125.45 61.6515 125.631 61.3295C125.813 61.0076 126.061 60.75 126.376 60.5568C126.69 60.3636 127.044 60.2178 127.438 60.1193C127.836 60.017 128.247 59.9432 128.671 59.8977C129.183 59.8447 129.597 59.7973 129.915 59.7557C130.234 59.7102 130.465 59.642 130.609 59.5511C130.756 59.4564 130.83 59.3106 130.83 59.1136V59.0795C130.83 58.6515 130.703 58.3201 130.45 58.0852C130.196 57.8504 129.83 57.733 129.353 57.733C128.849 57.733 128.45 57.8428 128.154 58.0625C127.862 58.2822 127.665 58.5417 127.563 58.8409L125.643 58.5682C125.794 58.0379 126.044 57.5947 126.393 57.2386C126.741 56.8788 127.167 56.6098 127.671 56.4318C128.175 56.25 128.732 56.1591 129.342 56.1591C129.762 56.1591 130.181 56.2083 130.597 56.3068C131.014 56.4053 131.395 56.5682 131.739 56.7955C132.084 57.0189 132.361 57.3239 132.569 57.7102C132.781 58.0966 132.887 58.5795 132.887 59.1591V65H130.91V63.8011H130.842C130.717 64.0436 130.54 64.2708 130.313 64.483C130.09 64.6913 129.808 64.8598 129.467 64.9886C129.129 65.1136 128.734 65.1761 128.279 65.1761ZM128.813 63.6648C129.226 63.6648 129.584 63.5833 129.887 63.4205C130.19 63.2538 130.423 63.0341 130.586 62.7614C130.753 62.4886 130.836 62.1913 130.836 61.8693V60.8409C130.772 60.8939 130.662 60.9432 130.506 60.9886C130.355 61.0341 130.184 61.0739 129.995 61.108C129.806 61.142 129.618 61.1723 129.433 61.1989C129.247 61.2254 129.086 61.2481 128.95 61.267C128.643 61.3087 128.368 61.3769 128.126 61.4716C127.883 61.5663 127.692 61.6989 127.552 61.8693C127.412 62.036 127.342 62.2519 127.342 62.517C127.342 62.8958 127.48 63.1818 127.756 63.375C128.033 63.5682 128.385 63.6648 128.813 63.6648ZM135.046 65V53.3636H137.103V57.7159H137.188C137.294 57.5038 137.444 57.2784 137.637 57.0398C137.83 56.7973 138.092 56.5909 138.421 56.4205C138.751 56.2462 139.171 56.1591 139.683 56.1591C140.357 56.1591 140.965 56.3314 141.506 56.6761C142.052 57.017 142.484 57.5227 142.802 58.1932C143.124 58.8598 143.285 59.678 143.285 60.6477C143.285 61.6061 143.128 62.4205 142.813 63.0909C142.499 63.7614 142.071 64.2727 141.529 64.625C140.987 64.9773 140.374 65.1534 139.688 65.1534C139.188 65.1534 138.773 65.0701 138.444 64.9034C138.114 64.7367 137.849 64.536 137.648 64.3011C137.451 64.0625 137.298 63.8371 137.188 63.625H137.069V65H135.046ZM137.063 60.6364C137.063 61.2008 137.143 61.6951 137.302 62.1193C137.465 62.5436 137.698 62.875 138.001 63.1136C138.308 63.3485 138.679 63.4659 139.114 63.4659C139.569 63.4659 139.95 63.3447 140.256 63.1023C140.563 62.8561 140.794 62.5208 140.95 62.0966C141.109 61.6686 141.188 61.1818 141.188 60.6364C141.188 60.0947 141.111 59.6136 140.955 59.1932C140.8 58.7727 140.569 58.4432 140.262 58.2045C139.955 57.9659 139.573 57.8466 139.114 57.8466C138.675 57.8466 138.302 57.9621 137.995 58.1932C137.688 58.4242 137.455 58.7481 137.296 59.1648C137.141 59.5814 137.063 60.072 137.063 60.6364ZM148.897 65.1705C148.022 65.1705 147.266 64.9886 146.63 64.625C145.997 64.2576 145.511 63.7386 145.17 63.0682C144.829 62.3939 144.658 61.6004 144.658 60.6875C144.658 59.7898 144.829 59.0019 145.17 58.3239C145.514 57.642 145.996 57.1117 146.613 56.733C147.23 56.3504 147.956 56.1591 148.789 56.1591C149.327 56.1591 149.835 56.2462 150.312 56.4205C150.793 56.5909 151.217 56.8561 151.585 57.2159C151.956 57.5758 152.247 58.0341 152.46 58.5909C152.672 59.1439 152.778 59.803 152.778 60.5682V61.1989H145.624V59.8125H150.806C150.802 59.4186 150.717 59.0682 150.55 58.7614C150.384 58.4508 150.151 58.2064 149.852 58.0284C149.556 57.8504 149.211 57.7614 148.817 57.7614C148.397 57.7614 148.028 57.8636 147.71 58.0682C147.391 58.2689 147.143 58.5341 146.965 58.8636C146.791 59.1894 146.702 59.5473 146.698 59.9375V61.1477C146.698 61.6553 146.791 62.0909 146.977 62.4545C147.162 62.8144 147.422 63.0909 147.755 63.2841C148.088 63.4735 148.478 63.5682 148.925 63.5682C149.225 63.5682 149.496 63.5265 149.738 63.4432C149.98 63.3561 150.191 63.2292 150.369 63.0625C150.547 62.8958 150.681 62.6894 150.772 62.4432L152.692 62.6591C152.571 63.1667 152.34 63.6098 151.999 63.9886C151.662 64.3636 151.23 64.6553 150.704 64.8636C150.177 65.0682 149.575 65.1705 148.897 65.1705ZM156.575 53.3636V65H154.518V53.3636H156.575Z" fill="#388523"/>
</g>
<defs>
<clipPath id="clip0_2314_43785">
<path d="M0 8C0 3.58172 3.58172 0 8 0H216C220.418 0 224 3.58172 224 8V109C224 113.418 220.418 117 216 117H8C3.58172 117 0 113.418 0 109V8Z" fill="white"/>
</clipPath>
</defs>
</svg>
