<svg width="224" height="117" viewBox="0 0 224 117" fill="none" xmlns="http://www.w3.org/2000/svg">
<g clip-path="url(#clip0_1346_32265)">
<path d="M6 35C6 32.7909 7.79086 31 10 31H213C215.209 31 217 32.7909 217 35V83C217 85.2091 215.209 87 213 87H9.99999C7.79085 87 6 85.2091 6 83V35Z" fill="white"/>
<path d="M37 51C37 50.4477 37.4477 50 38 50C38.5523 50 39 50.4477 39 51V52H41C42.1046 52 43 52.8954 43 54V66C43 67.1046 42.1046 68 41 68H27C25.8954 68 25 67.1046 25 66V54C25 52.8954 25.8954 52 27 52H29V51C29 50.4477 29.4477 50 30 50C30.5523 50 31 50.4477 31 51V52H37V51ZM27 54V56H41V54H27ZM41 58H27V66H41V58Z" fill="#233D48"/>
<path d="M57.017 65H54.3807L58.3977 53.3636H61.5682L65.5795 65H62.9432L60.0284 56.0227H59.9375L57.017 65ZM56.8523 60.4261H63.0795V62.3466H56.8523V60.4261ZM70.4716 65.1705C69.5777 65.1705 68.8087 64.9811 68.1648 64.6023C67.5246 64.2197 67.0322 63.6894 66.6875 63.0114C66.3466 62.3333 66.1761 61.553 66.1761 60.6705C66.1761 59.7765 66.3485 58.9924 66.6932 58.3182C67.0417 57.6402 67.536 57.1117 68.1761 56.733C68.8163 56.3504 69.5777 56.1591 70.4602 56.1591C71.2216 56.1591 71.8883 56.2973 72.4602 56.5739C73.0322 56.8504 73.4848 57.2386 73.8182 57.7386C74.1515 58.2386 74.3352 58.8258 74.3693 59.5H72.0852C72.0208 59.0644 71.8504 58.714 71.5739 58.4489C71.3011 58.1799 70.9432 58.0455 70.5 58.0455C70.125 58.0455 69.7973 58.1477 69.517 58.3523C69.2405 58.553 69.0246 58.8466 68.8693 59.233C68.714 59.6193 68.6364 60.0871 68.6364 60.6364C68.6364 61.1932 68.7121 61.6667 68.8636 62.0568C69.0189 62.447 69.2367 62.7443 69.517 62.9489C69.7973 63.1534 70.125 63.2557 70.5 63.2557C70.7765 63.2557 71.0246 63.1989 71.2443 63.0852C71.4678 62.9716 71.6515 62.8068 71.7955 62.5909C71.9432 62.3712 72.0398 62.108 72.0852 61.8011H74.3693C74.3314 62.4678 74.1496 63.0549 73.8239 63.5625C73.5019 64.0663 73.0568 64.4602 72.4886 64.7443C71.9205 65.0284 71.2481 65.1705 70.4716 65.1705ZM80.5611 56.2727V58.0909H75.3054V56.2727H80.5611ZM76.4986 54.1818H78.919V62.3182C78.919 62.5417 78.9531 62.7159 79.0213 62.8409C79.0895 62.9621 79.1842 63.0473 79.3054 63.0966C79.4304 63.1458 79.5743 63.1705 79.7372 63.1705C79.8509 63.1705 79.9645 63.161 80.0781 63.142C80.1918 63.1193 80.2789 63.1023 80.3395 63.0909L80.7202 64.892C80.599 64.9299 80.4285 64.9735 80.2088 65.0227C79.9891 65.0758 79.7221 65.108 79.4077 65.1193C78.8243 65.142 78.313 65.0644 77.8736 64.8864C77.438 64.7083 77.099 64.4318 76.8565 64.0568C76.6141 63.6818 76.4948 63.2083 76.4986 62.6364V54.1818ZM82.1378 65V56.2727H84.5582V65H82.1378ZM83.3537 55.1477C82.9938 55.1477 82.6851 55.0284 82.4276 54.7898C82.1738 54.5473 82.0469 54.2576 82.0469 53.9205C82.0469 53.5871 82.1738 53.3011 82.4276 53.0625C82.6851 52.8201 82.9938 52.6989 83.3537 52.6989C83.7135 52.6989 84.0204 52.8201 84.2741 53.0625C84.5317 53.3011 84.6605 53.5871 84.6605 53.9205C84.6605 54.2576 84.5317 54.5473 84.2741 54.7898C84.0204 55.0284 83.7135 55.1477 83.3537 55.1477ZM90.4403 65.1705C89.5578 65.1705 88.7945 64.983 88.1506 64.608C87.5104 64.2292 87.0161 63.7027 86.6676 63.0284C86.3191 62.3504 86.1449 61.5644 86.1449 60.6705C86.1449 59.7689 86.3191 58.9811 86.6676 58.3068C87.0161 57.6288 87.5104 57.1023 88.1506 56.7273C88.7945 56.3485 89.5578 56.1591 90.4403 56.1591C91.3229 56.1591 92.0843 56.3485 92.7244 56.7273C93.3684 57.1023 93.8646 57.6288 94.2131 58.3068C94.5616 58.9811 94.7358 59.7689 94.7358 60.6705C94.7358 61.5644 94.5616 62.3504 94.2131 63.0284C93.8646 63.7027 93.3684 64.2292 92.7244 64.608C92.0843 64.983 91.3229 65.1705 90.4403 65.1705ZM90.4517 63.2955C90.8532 63.2955 91.1884 63.1818 91.4574 62.9545C91.7263 62.7235 91.929 62.4091 92.0653 62.0114C92.2055 61.6136 92.2756 61.161 92.2756 60.6534C92.2756 60.1458 92.2055 59.6932 92.0653 59.2955C91.929 58.8977 91.7263 58.5833 91.4574 58.3523C91.1884 58.1212 90.8532 58.0057 90.4517 58.0057C90.0464 58.0057 89.7055 58.1212 89.429 58.3523C89.1563 58.5833 88.9498 58.8977 88.8097 59.2955C88.6733 59.6932 88.6051 60.1458 88.6051 60.6534C88.6051 61.161 88.6733 61.6136 88.8097 62.0114C88.9498 62.4091 89.1563 62.7235 89.429 62.9545C89.7055 63.1818 90.0464 63.2955 90.4517 63.2955ZM98.7301 59.9545V65H96.3097V56.2727H98.6165V57.8125H98.7188C98.9119 57.3049 99.2358 56.9034 99.6903 56.608C100.145 56.3087 100.696 56.1591 101.344 56.1591C101.95 56.1591 102.478 56.2917 102.929 56.5568C103.38 56.822 103.73 57.2008 103.98 57.6932C104.23 58.1818 104.355 58.7652 104.355 59.4432V65H101.935V59.875C101.938 59.3409 101.802 58.9242 101.526 58.625C101.249 58.322 100.868 58.1705 100.384 58.1705C100.058 58.1705 99.7699 58.2405 99.5199 58.3807C99.2737 58.5208 99.0805 58.7254 98.9403 58.9943C98.804 59.2595 98.7339 59.5795 98.7301 59.9545ZM108.768 53.3636V65H106.308V53.3636H108.768ZM115.389 56.2727V58.0909H110.134V56.2727H115.389ZM111.327 54.1818H113.747V62.3182C113.747 62.5417 113.781 62.7159 113.849 62.8409C113.918 62.9621 114.012 63.0473 114.134 63.0966C114.259 63.1458 114.402 63.1705 114.565 63.1705C114.679 63.1705 114.793 63.161 114.906 63.142C115.02 63.1193 115.107 63.1023 115.168 63.0909L115.548 64.892C115.427 64.9299 115.257 64.9735 115.037 65.0227C114.817 65.0758 114.55 65.108 114.236 65.1193C113.652 65.142 113.141 65.0644 112.702 64.8864C112.266 64.7083 111.927 64.4318 111.685 64.0568C111.442 63.6818 111.323 63.2083 111.327 62.6364V54.1818ZM120.849 65.1705C119.952 65.1705 119.179 64.9886 118.531 64.625C117.887 64.2576 117.391 63.7386 117.043 63.0682C116.694 62.3939 116.52 61.5966 116.52 60.6761C116.52 59.7784 116.694 58.9905 117.043 58.3125C117.391 57.6345 117.882 57.1061 118.514 56.7273C119.151 56.3485 119.897 56.1591 120.753 56.1591C121.329 56.1591 121.865 56.2519 122.361 56.4375C122.861 56.6193 123.296 56.8939 123.668 57.2614C124.043 57.6288 124.334 58.0909 124.543 58.6477C124.751 59.2008 124.855 59.8485 124.855 60.5909V61.2557H117.486V59.7557H122.577C122.577 59.4072 122.501 59.0985 122.349 58.8295C122.198 58.5606 121.988 58.3504 121.719 58.1989C121.454 58.0436 121.145 57.9659 120.793 57.9659C120.425 57.9659 120.099 58.0511 119.815 58.2216C119.535 58.3883 119.315 58.6136 119.156 58.8977C118.997 59.178 118.916 59.4905 118.912 59.8352V61.2614C118.912 61.6932 118.991 62.0663 119.151 62.3807C119.313 62.6951 119.543 62.9375 119.838 63.108C120.134 63.2784 120.484 63.3636 120.889 63.3636C121.158 63.3636 121.404 63.3258 121.628 63.25C121.851 63.1742 122.043 63.0606 122.202 62.9091C122.361 62.7576 122.482 62.572 122.565 62.3523L124.804 62.5C124.69 63.0379 124.457 63.5076 124.105 63.9091C123.757 64.3068 123.306 64.6174 122.753 64.8409C122.204 65.0606 121.569 65.1705 120.849 65.1705ZM126.435 65V56.2727H128.741V57.8125H128.844C129.026 57.3011 129.329 56.8977 129.753 56.6023C130.177 56.3068 130.685 56.1591 131.276 56.1591C131.874 56.1591 132.384 56.3087 132.804 56.608C133.224 56.9034 133.505 57.3049 133.645 57.8125H133.736C133.914 57.3125 134.236 56.9129 134.702 56.6136C135.171 56.3106 135.726 56.1591 136.366 56.1591C137.181 56.1591 137.842 56.4186 138.349 56.9375C138.861 57.4527 139.116 58.1837 139.116 59.1307V65H136.702V59.608C136.702 59.1231 136.573 58.7595 136.315 58.517C136.058 58.2746 135.736 58.1534 135.349 58.1534C134.91 58.1534 134.567 58.2936 134.321 58.5739C134.075 58.8504 133.952 59.2159 133.952 59.6705V65H131.605V59.5568C131.605 59.1288 131.482 58.7879 131.236 58.5341C130.993 58.2803 130.673 58.1534 130.276 58.1534C130.007 58.1534 129.764 58.2216 129.548 58.358C129.336 58.4905 129.168 58.678 129.043 58.9205C128.918 59.1591 128.855 59.4394 128.855 59.7614V65H126.435Z" fill="#032B3A"/>
<path d="M193.586 60L191 62.5858C190.609 62.9764 190.609 63.6095 191 64C191.391 64.3906 192.024 64.3906 192.414 64L196.707 59.7072C197.098 59.3166 197.098 58.6835 196.707 58.2929L192.414 54.0001C192.024 53.6095 191.391 53.6095 191 54.0001C190.609 54.3906 190.609 55.0237 191 55.4143L193.586 58H182C181.448 58 181 58.4478 181 59C181 59.5523 181.448 60 182 60H193.586Z" fill="#388523"/>
</g>
<defs>
<clipPath id="clip0_1346_32265">
<path d="M0 8C0 3.58172 3.58172 0 8 0H216C220.418 0 224 3.58172 224 8V109C224 113.418 220.418 117 216 117H8C3.58172 117 0 113.418 0 109V8Z" fill="white"/>
</clipPath>
</defs>
</svg>
