<svg width="224" height="117" viewBox="0 0 224 117" fill="none" xmlns="http://www.w3.org/2000/svg">
<g clip-path="url(#clip0_38_15684)">
<path d="M5 47.3806C5 43.3044 8.30443 40 12.3806 40H211.071C215.147 40 218.452 43.3044 218.452 47.3806V68.6194C218.452 72.6956 215.147 76 211.071 76H12.3806C8.30443 76 5 72.6956 5 68.6194V47.3806Z" fill="#F1F0E9"/>
<path d="M21.3394 53.7318L21.9373 54.6839L16.7265 57.8797L21.9373 61.1051L21.273 62.0129L15.6637 58.5071V57.2376L21.3394 53.7318ZM29.6148 59.9094H25.5923L24.7804 62.5H23.5184L26.8249 52.3369H28.4634L31.7699 62.5H30.4266L29.6148 59.9094ZM25.9244 58.8466H29.2826L27.6146 53.4144L25.9244 58.8466ZM39.7205 62.1088C39.4548 62.286 39.1325 62.4237 38.7536 62.5221C38.3747 62.6206 38.0033 62.6698 37.6391 62.6698C36.8027 62.6698 36.1581 62.4508 35.7054 62.0129C35.2527 61.575 35.0264 61.0116 35.0264 60.3227V55.6877H33.2403V54.7282H35.0264V52.9642L36.2663 52.8166V54.7282H38.9529L38.8053 55.6877H36.2663V60.3079C36.2663 60.7409 36.3795 61.0706 36.6059 61.297C36.8371 61.5233 37.2184 61.6365 37.7499 61.6365C38.0402 61.6365 38.3083 61.602 38.5543 61.5331C38.8004 61.4642 39.0292 61.3757 39.2407 61.2674L39.7205 62.1088ZM45.4273 51.5988V60.581C45.4273 60.9648 45.5454 61.2379 45.7816 61.4003C46.0227 61.5577 46.3327 61.6365 46.7116 61.6365C46.9478 61.6365 47.1716 61.6119 47.3832 61.5627C47.5948 61.5135 47.8064 61.447 48.0179 61.3634L48.3501 62.2712C48.1385 62.3745 47.8753 62.4656 47.5603 62.5443C47.2504 62.6279 46.8985 62.6698 46.5049 62.6698C45.8161 62.6698 45.2576 62.4803 44.8295 62.1014C44.4014 61.7177 44.1874 61.1887 44.1874 60.5146V52.5804H41.8034V51.5988H45.4273ZM56.8173 60.8025C56.8173 61.1124 56.869 61.3388 56.9723 61.4815C57.0756 61.6242 57.2355 61.73 57.452 61.7988L57.1494 62.6698C56.8148 62.6255 56.5221 62.5197 56.2711 62.3524C56.0202 62.1802 55.8381 61.9218 55.725 61.5774C55.4445 61.9366 55.0951 62.2097 54.6769 62.3967C54.2587 62.5787 53.7961 62.6698 53.2893 62.6698C52.5119 62.6698 51.8993 62.4508 51.4516 62.0129C51.0038 61.575 50.7799 60.9943 50.7799 60.271C50.7799 59.469 51.0924 58.854 51.7173 58.4259C52.3422 57.9978 53.2451 57.7838 54.426 57.7838H55.57V57.1343C55.57 56.5733 55.4051 56.1772 55.0755 55.946C54.7507 55.7098 54.298 55.5917 53.7174 55.5917C53.4616 55.5917 53.1614 55.6237 52.817 55.6877C52.4725 55.7467 52.0986 55.8476 51.6951 55.9903L51.3704 55.0529C51.8477 54.8758 52.2954 54.7503 52.7136 54.6765C53.1319 54.6027 53.5304 54.5658 53.9093 54.5658C54.8786 54.5658 55.6044 54.7921 56.0866 55.2448C56.5737 55.6926 56.8173 56.3027 56.8173 57.0752V60.8025ZM53.6067 61.725C53.9905 61.725 54.3571 61.6291 54.7064 61.4372C55.0558 61.2404 55.3436 60.9697 55.57 60.6253V58.6252H54.4481C53.5919 58.6252 52.9867 58.7728 52.6325 59.068C52.2831 59.3632 52.1084 59.7593 52.1084 60.2563C52.1084 60.7385 52.2314 61.1051 52.4775 61.356C52.7284 61.602 53.1048 61.725 53.6067 61.725ZM60.1033 62.5V54.7282H61.1587L61.2547 55.8058C61.5696 55.4072 61.9632 55.1021 62.4356 54.8906C62.9129 54.6741 63.3754 54.5658 63.8231 54.5658C64.5858 54.5658 65.1394 54.7675 65.4838 55.171C65.8331 55.5745 66.0078 56.1354 66.0078 56.8538V62.5H64.7679V57.769C64.7679 57.2376 64.7383 56.8095 64.6793 56.4848C64.6202 56.1551 64.4972 55.9165 64.3103 55.7689C64.1233 55.6163 63.833 55.5401 63.4393 55.5401C63.1343 55.5401 62.8464 55.6065 62.5758 55.7393C62.3101 55.8722 62.0715 56.0395 61.8599 56.2412C61.6532 56.438 61.481 56.6373 61.3432 56.839V62.5H60.1033ZM75.1245 62.1088C74.8588 62.286 74.5365 62.4237 74.1577 62.5221C73.7788 62.6206 73.4073 62.6698 73.0432 62.6698C72.2067 62.6698 71.5621 62.4508 71.1094 62.0129C70.6568 61.575 70.4304 61.0116 70.4304 60.3227V55.6877H68.6443V54.7282H70.4304V52.9642L71.6704 52.8166V54.7282H74.3569L74.2093 55.6877H71.6704V60.3079C71.6704 60.7409 71.7835 61.0706 72.0099 61.297C72.2411 61.5233 72.6225 61.6365 73.1539 61.6365C73.4442 61.6365 73.7124 61.602 73.9584 61.5331C74.2044 61.4642 74.4332 61.3757 74.6448 61.2674L75.1245 62.1088ZM81.7392 54.7282V61.5184H83.9312V62.5H78.1005V61.5184H80.4992V55.7098H78.1743V54.7282H81.7392ZM80.7502 51.0895C81.0257 51.0895 81.2447 51.1732 81.4071 51.3405C81.5744 51.5078 81.658 51.712 81.658 51.9531C81.658 52.204 81.5744 52.4156 81.4071 52.5878C81.2447 52.7551 81.0257 52.8387 80.7502 52.8387C80.4894 52.8387 80.2754 52.7551 80.1081 52.5878C79.9408 52.4156 79.8571 52.204 79.8571 51.9531C79.8571 51.712 79.9408 51.5078 80.1081 51.3405C80.2754 51.1732 80.4894 51.0895 80.7502 51.0895ZM89.2986 61.6438C89.894 61.6438 90.3639 61.5331 90.7083 61.3117C91.0576 61.0854 91.2323 60.7852 91.2323 60.4113C91.2323 60.1751 91.188 59.9709 91.0995 59.7987C91.0158 59.6265 90.8411 59.4715 90.5754 59.3337C90.3097 59.1959 89.9013 59.0582 89.3503 58.9204C88.8139 58.7875 88.3465 58.635 87.9479 58.4628C87.5543 58.2857 87.2468 58.0569 87.0253 57.7764C86.8088 57.4959 86.7006 57.1318 86.7006 56.6841C86.7006 56.2461 86.8236 55.8697 87.0696 55.5548C87.3206 55.235 87.6675 54.9914 88.1103 54.8241C88.5531 54.6519 89.0673 54.5658 89.6529 54.5658C90.2778 54.5658 90.8215 54.6495 91.284 54.8167C91.7514 54.9791 92.1475 55.1809 92.4723 55.422L91.9261 56.2634C91.6309 56.0616 91.3061 55.8968 90.9519 55.7689C90.5976 55.636 90.1695 55.5696 89.6676 55.5696C89.0575 55.5696 88.6245 55.6655 88.3686 55.8574C88.1128 56.0444 87.9848 56.288 87.9848 56.5881C87.9848 56.8144 88.0463 57.0039 88.1693 57.1564C88.2973 57.304 88.5113 57.4393 88.8115 57.5623C89.1116 57.6804 89.5249 57.8108 90.0514 57.9535C90.5582 58.0864 90.9986 58.2463 91.3725 58.4333C91.7514 58.6202 92.0466 58.8663 92.2582 59.1713C92.4698 59.4764 92.5756 59.87 92.5756 60.3522C92.5756 60.9033 92.4181 61.3511 92.1032 61.6955C91.7883 62.035 91.3799 62.2835 90.878 62.441C90.3811 62.5935 89.8546 62.6698 89.2986 62.6698C88.595 62.6698 87.9947 62.5689 87.4977 62.3671C87.0057 62.1605 86.5923 61.912 86.2578 61.6217L86.9663 60.8025C87.2714 61.0534 87.6207 61.2576 88.0144 61.415C88.4129 61.5676 88.841 61.6438 89.2986 61.6438ZM99.0648 53.4366V62.5H97.7879V53.4366H94.6143V52.3369H102.283L102.15 53.4366H99.0648ZM105.598 51.4807V55.791C105.903 55.3826 106.277 55.0775 106.72 54.8758C107.168 54.6691 107.621 54.5658 108.078 54.5658C108.836 54.5658 109.389 54.7675 109.739 55.171C110.088 55.5745 110.263 56.1354 110.263 56.8538V62.5H109.023V56.8833C109.023 56.4159 108.915 56.0764 108.698 55.8648C108.482 55.6483 108.142 55.5401 107.68 55.5401C107.384 55.5401 107.104 55.6065 106.838 55.7393C106.573 55.8722 106.334 56.037 106.122 56.2338C105.911 56.4306 105.736 56.6324 105.598 56.839V62.5H104.358V51.6135L105.598 51.4807ZM114.184 59.0532C114.208 59.6535 114.324 60.1456 114.53 60.5294C114.737 60.9082 115.01 61.1887 115.35 61.3708C115.689 61.5479 116.058 61.6365 116.457 61.6365C116.855 61.6365 117.215 61.5774 117.534 61.4593C117.859 61.3412 118.191 61.1666 118.531 60.9353L119.114 61.7546C118.75 62.0399 118.334 62.2638 117.867 62.4262C117.404 62.5886 116.929 62.6698 116.442 62.6698C115.689 62.6698 115.047 62.5 114.516 62.1605C113.984 61.821 113.578 61.3486 113.298 60.7434C113.022 60.1333 112.885 59.4272 112.885 58.6252C112.885 57.8379 113.025 57.1392 113.305 56.5291C113.586 55.9189 113.979 55.4392 114.486 55.0898C114.993 54.7405 115.591 54.5658 116.28 54.5658C116.934 54.5658 117.497 54.7208 117.97 55.0308C118.442 55.3359 118.804 55.7738 119.055 56.3445C119.311 56.9104 119.439 57.587 119.439 58.3742C119.439 58.5071 119.436 58.6325 119.431 58.7506C119.426 58.8638 119.419 58.9647 119.409 59.0532H114.184ZM116.294 55.5843C115.719 55.5843 115.237 55.7885 114.848 56.1969C114.464 56.6053 114.245 57.2376 114.191 58.0938H118.243C118.228 57.2622 118.046 56.6373 117.697 56.2191C117.347 55.7959 116.88 55.5843 116.294 55.5843ZM127.183 54.5658C127.433 54.5658 127.672 54.6199 127.898 54.7282C128.13 54.8364 128.319 55.0455 128.467 55.3555C128.614 55.6655 128.688 56.1182 128.688 56.7136V62.5H127.537V56.9129C127.537 56.4257 127.507 56.0739 127.448 55.8574C127.389 55.6409 127.219 55.5327 126.939 55.5327C126.708 55.5327 126.476 55.6065 126.245 55.7541C126.019 55.8968 125.797 56.133 125.581 56.4626V62.5H124.422V56.9129C124.422 56.4257 124.393 56.0739 124.334 55.8574C124.275 55.6409 124.105 55.5327 123.824 55.5327C123.583 55.5327 123.349 55.6065 123.123 55.7541C122.902 55.8968 122.683 56.133 122.466 56.4626V62.5H121.322V54.7282H122.297L122.37 55.6286C122.582 55.3285 122.818 55.0775 123.079 54.8758C123.345 54.6691 123.672 54.5658 124.061 54.5658C124.356 54.5658 124.634 54.6372 124.895 54.7798C125.155 54.9176 125.347 55.1882 125.47 55.5917C125.682 55.2866 125.92 55.0406 126.186 54.8537C126.452 54.6618 126.784 54.5658 127.183 54.5658ZM131.886 59.0532C131.91 59.6535 132.026 60.1456 132.232 60.5294C132.439 60.9082 132.712 61.1887 133.052 61.3708C133.391 61.5479 133.76 61.6365 134.159 61.6365C134.557 61.6365 134.917 61.5774 135.236 61.4593C135.561 61.3412 135.893 61.1666 136.233 60.9353L136.816 61.7546C136.452 62.0399 136.036 62.2638 135.569 62.4262C135.106 62.5886 134.631 62.6698 134.144 62.6698C133.391 62.6698 132.749 62.5 132.218 62.1605C131.686 61.821 131.28 61.3486 131 60.7434C130.724 60.1333 130.587 59.4272 130.587 58.6252C130.587 57.8379 130.727 57.1392 131.007 56.5291C131.288 55.9189 131.681 55.4392 132.188 55.0898C132.695 54.7405 133.293 54.5658 133.982 54.5658C134.636 54.5658 135.2 54.7208 135.672 55.0308C136.144 55.3359 136.506 55.7738 136.757 56.3445C137.013 56.9104 137.141 57.587 137.141 58.3742C137.141 58.5071 137.138 58.6325 137.133 58.7506C137.128 58.8638 137.121 58.9647 137.111 59.0532H131.886ZM133.996 55.5843C133.421 55.5843 132.939 55.7885 132.55 56.1969C132.166 56.6053 131.947 57.2376 131.893 58.0938H135.945C135.93 57.2622 135.748 56.6373 135.399 56.2191C135.049 55.7959 134.582 55.5843 133.996 55.5843ZM143.563 52.1745C144.228 52.1745 144.784 52.2581 145.231 52.4254C145.679 52.5927 146.105 52.8387 146.508 53.1635L145.792 53.9975C145.473 53.7269 145.133 53.535 144.774 53.4218C144.42 53.3037 144.048 53.2447 143.659 53.2447C143.103 53.2447 142.589 53.3775 142.117 53.6432C141.644 53.904 141.263 54.3395 140.973 54.9496C140.687 55.5548 140.545 56.3765 140.545 57.4147C140.545 58.4234 140.68 59.2328 140.951 59.843C141.226 60.4531 141.598 60.8935 142.065 61.1641C142.533 61.4347 143.054 61.57 143.63 61.57C144.201 61.57 144.668 61.4839 145.032 61.3117C145.401 61.1395 145.721 60.9427 145.992 60.7213L146.656 61.5627C146.346 61.8628 145.942 62.1236 145.445 62.345C144.948 62.5615 144.338 62.6698 143.615 62.6698C142.793 62.6698 142.048 62.468 141.379 62.0645C140.714 61.6611 140.188 61.0706 139.799 60.2932C139.411 59.5108 139.216 58.5514 139.216 57.4147C139.216 56.2732 139.413 55.3137 139.807 54.5363C140.205 53.7589 140.734 53.1709 141.393 52.7723C142.058 52.3738 142.781 52.1745 143.563 52.1745ZM151.573 54.5658C152.306 54.5658 152.919 54.7331 153.411 55.0677C153.908 55.3974 154.279 55.8648 154.525 56.47C154.776 57.0752 154.902 57.7887 154.902 58.6104C154.902 59.4026 154.774 60.1038 154.518 60.7139C154.262 61.324 153.886 61.8038 153.389 62.1531C152.897 62.4975 152.286 62.6698 151.558 62.6698C150.83 62.6698 150.217 62.5025 149.72 62.1679C149.223 61.8333 148.847 61.3634 148.591 60.7582C148.34 60.148 148.215 59.437 148.215 58.6252C148.215 57.8231 148.343 57.117 148.599 56.5069C148.854 55.8968 149.231 55.422 149.728 55.0825C150.23 54.738 150.845 54.5658 151.573 54.5658ZM151.573 55.577C150.904 55.577 150.397 55.8254 150.053 56.3224C149.713 56.8144 149.543 57.582 149.543 58.6252C149.543 59.6486 149.711 60.4088 150.045 60.9058C150.385 61.4027 150.889 61.6512 151.558 61.6512C152.227 61.6512 152.729 61.4027 153.064 60.9058C153.403 60.4088 153.573 59.6437 153.573 58.6104C153.573 57.5771 153.406 56.8144 153.071 56.3224C152.737 55.8254 152.237 55.577 151.573 55.577ZM157.464 62.5V54.7282H158.52L158.616 55.8058C158.931 55.4072 159.324 55.1021 159.797 54.8906C160.274 54.6741 160.736 54.5658 161.184 54.5658C161.947 54.5658 162.5 54.7675 162.845 55.171C163.194 55.5745 163.369 56.1354 163.369 56.8538V62.5H162.129V57.769C162.129 57.2376 162.099 56.8095 162.04 56.4848C161.981 56.1551 161.858 55.9165 161.671 55.7689C161.484 55.6163 161.194 55.5401 160.8 55.5401C160.495 55.5401 160.208 55.6065 159.937 55.7393C159.671 55.8722 159.433 56.0395 159.221 56.2412C159.014 56.438 158.842 56.6373 158.704 56.839V62.5H157.464ZM172.486 62.1088C172.22 62.286 171.898 62.4237 171.519 62.5221C171.14 62.6206 170.768 62.6698 170.404 62.6698C169.568 62.6698 168.923 62.4508 168.471 62.0129C168.018 61.575 167.792 61.0116 167.792 60.3227V55.6877H166.005V54.7282H167.792V52.9642L169.031 52.8166V54.7282H171.718L171.57 55.6877H169.031V60.3079C169.031 60.7409 169.145 61.0706 169.371 61.297C169.602 61.5233 169.984 61.6365 170.515 61.6365C170.805 61.6365 171.073 61.602 171.319 61.5331C171.565 61.4642 171.794 61.3757 172.006 61.2674L172.486 62.1088ZM176.141 59.0532C176.165 59.6535 176.281 60.1456 176.488 60.5294C176.694 60.9082 176.967 61.1887 177.307 61.3708C177.646 61.5479 178.015 61.6365 178.414 61.6365C178.812 61.6365 179.172 61.5774 179.491 61.4593C179.816 61.3412 180.148 61.1666 180.488 60.9353L181.071 61.7546C180.707 62.0399 180.291 62.2638 179.824 62.4262C179.361 62.5886 178.886 62.6698 178.399 62.6698C177.646 62.6698 177.004 62.5 176.473 62.1605C175.941 61.821 175.535 61.3486 175.255 60.7434C174.979 60.1333 174.842 59.4272 174.842 58.6252C174.842 57.8379 174.982 57.1392 175.262 56.5291C175.543 55.9189 175.936 55.4392 176.443 55.0898C176.95 54.7405 177.548 54.5658 178.237 54.5658C178.891 54.5658 179.455 54.7208 179.927 55.0308C180.399 55.3359 180.761 55.7738 181.012 56.3445C181.268 56.9104 181.396 57.587 181.396 58.3742C181.396 58.5071 181.393 58.6325 181.388 58.7506C181.383 58.8638 181.376 58.9647 181.366 59.0532H176.141ZM178.252 55.5843C177.676 55.5843 177.194 55.7885 176.805 56.1969C176.421 56.6053 176.202 57.2376 176.148 58.0938H180.2C180.185 57.2622 180.003 56.6373 179.654 56.2191C179.304 55.7959 178.837 55.5843 178.252 55.5843ZM184.77 62.5H183.353L186.224 58.3964L183.707 54.7282H185.176L186.977 57.6214L188.8 54.7282H190.217L187.708 58.3447L190.571 62.5H189.051L186.925 59.1639L184.77 62.5ZM199.039 62.1088C198.773 62.286 198.451 62.4237 198.072 62.5221C197.693 62.6206 197.321 62.6698 196.957 62.6698C196.121 62.6698 195.476 62.4508 195.024 62.0129C194.571 61.575 194.345 61.0116 194.345 60.3227V55.6877H192.558V54.7282H194.345V52.9642L195.585 52.8166V54.7282H198.271L198.123 55.6877H195.585V60.3079C195.585 60.7409 195.698 61.0706 195.924 61.297C196.155 61.5233 196.537 61.6365 197.068 61.6365C197.358 61.6365 197.626 61.602 197.873 61.5331C198.119 61.4642 198.347 61.3757 198.559 61.2674L199.039 62.1088ZM202.133 53.7318L207.808 57.2376V58.5071L202.207 62.0129L201.535 61.0977L206.746 57.8797L201.535 54.6691L202.133 53.7318Z" fill="#233D48"/>
<g clip-path="url(#clip1_38_15684)">
<path d="M5.77417 47.3806C5.77417 43.3044 9.0786 40 13.1548 40H211.845C215.921 40 219.226 43.3044 219.226 47.3806V68.6194C219.226 72.6956 215.921 76 211.845 76H13.1548C9.0786 76 5.77417 72.6956 5.77417 68.6194V47.3806Z" fill="#171B1C"/>
<path d="M22.1136 53.7318L22.7115 54.6839L17.5007 57.8797L22.7115 61.1051L22.0472 62.0129L16.4379 58.5071V57.2376L22.1136 53.7318ZM30.3889 59.9094H26.3665L25.5546 62.5H24.2925L27.5991 52.3369H29.2376L32.5441 62.5H31.2008L30.3889 59.9094ZM26.6986 58.8466H30.0568L28.3888 53.4144L26.6986 58.8466ZM40.4947 62.1088C40.229 62.286 39.9067 62.4237 39.5278 62.5221C39.1489 62.6206 38.7774 62.6698 38.4133 62.6698C37.5768 62.6698 36.9323 62.4508 36.4796 62.0129C36.0269 61.575 35.8006 61.0116 35.8006 60.3227V55.6877H34.0144V54.7282H35.8006V52.9642L37.0405 52.8166V54.7282H39.7271L39.5795 55.6877H37.0405V60.3079C37.0405 60.7409 37.1537 61.0706 37.38 61.297C37.6113 61.5233 37.9926 61.6365 38.524 61.6365C38.8143 61.6365 39.0825 61.602 39.3285 61.5331C39.5745 61.4642 39.8033 61.3757 40.0149 61.2674L40.4947 62.1088ZM46.2015 51.5988V60.581C46.2015 60.9648 46.3196 61.2379 46.5558 61.4003C46.7969 61.5577 47.1069 61.6365 47.4857 61.6365C47.7219 61.6365 47.9458 61.6119 48.1574 61.5627C48.369 61.5135 48.5805 61.447 48.7921 61.3634L49.1242 62.2712C48.9127 62.3745 48.6494 62.4656 48.3345 62.5443C48.0245 62.6279 47.6727 62.6698 47.2791 62.6698C46.5902 62.6698 46.0318 62.4803 45.6037 62.1014C45.1756 61.7177 44.9616 61.1887 44.9616 60.5146V52.5804H42.5776V51.5988H46.2015ZM57.5915 60.8025C57.5915 61.1124 57.6431 61.3388 57.7465 61.4815C57.8498 61.6242 58.0097 61.73 58.2262 61.7988L57.9236 62.6698C57.589 62.6255 57.2962 62.5197 57.0453 62.3524C56.7943 62.1802 56.6123 61.9218 56.4991 61.5774C56.2187 61.9366 55.8693 62.2097 55.4511 62.3967C55.0328 62.5787 54.5703 62.6698 54.0635 62.6698C53.2861 62.6698 52.6735 62.4508 52.2257 62.0129C51.778 61.575 51.5541 60.9943 51.5541 60.271C51.5541 59.469 51.8665 58.854 52.4914 58.4259C53.1163 57.9978 54.0192 57.7838 55.2001 57.7838H56.3441V57.1343C56.3441 56.5733 56.1793 56.1772 55.8496 55.946C55.5249 55.7098 55.0722 55.5917 54.4916 55.5917C54.2357 55.5917 53.9356 55.6237 53.5911 55.6877C53.2467 55.7467 52.8728 55.8476 52.4693 55.9903L52.1445 55.0529C52.6218 54.8758 53.0696 54.7503 53.4878 54.6765C53.9061 54.6027 54.3046 54.5658 54.6835 54.5658C55.6528 54.5658 56.3786 54.7921 56.8608 55.2448C57.3479 55.6926 57.5915 56.3027 57.5915 57.0752V60.8025ZM54.3809 61.725C54.7647 61.725 55.1312 61.6291 55.4806 61.4372C55.8299 61.2404 56.1178 60.9697 56.3441 60.6253V58.6252H55.2223C54.3661 58.6252 53.7609 58.7728 53.4066 59.068C53.0573 59.3632 52.8826 59.7593 52.8826 60.2563C52.8826 60.7385 53.0056 61.1051 53.2516 61.356C53.5026 61.602 53.879 61.725 54.3809 61.725ZM60.8775 62.5V54.7282H61.9329L62.0288 55.8058C62.3437 55.4072 62.7374 55.1021 63.2097 54.8906C63.687 54.6741 64.1495 54.5658 64.5973 54.5658C65.36 54.5658 65.9135 54.7675 66.258 55.171C66.6073 55.5745 66.782 56.1354 66.782 56.8538V62.5H65.542V57.769C65.542 57.2376 65.5125 56.8095 65.4535 56.4848C65.3944 56.1551 65.2714 55.9165 65.0844 55.7689C64.8975 55.6163 64.6071 55.5401 64.2135 55.5401C63.9084 55.5401 63.6206 55.6065 63.35 55.7393C63.0843 55.8722 62.8456 56.0395 62.6341 56.2412C62.4274 56.438 62.2552 56.6373 62.1174 56.839V62.5H60.8775ZM75.8987 62.1088C75.633 62.286 75.3107 62.4237 74.9318 62.5221C74.5529 62.6206 74.1815 62.6698 73.8173 62.6698C72.9809 62.6698 72.3363 62.4508 71.8836 62.0129C71.4309 61.575 71.2046 61.0116 71.2046 60.3227V55.6877H69.4185V54.7282H71.2046V52.9642L72.4445 52.8166V54.7282H75.1311L74.9835 55.6877H72.4445V60.3079C72.4445 60.7409 72.5577 61.0706 72.7841 61.297C73.0153 61.5233 73.3966 61.6365 73.9281 61.6365C74.2184 61.6365 74.4865 61.602 74.7325 61.5331C74.9786 61.4642 75.2074 61.3757 75.4189 61.2674L75.8987 62.1088ZM82.5134 54.7282V61.5184H84.7054V62.5H78.8747V61.5184H81.2734V55.7098H78.9485V54.7282H82.5134ZM81.5244 51.0895C81.7999 51.0895 82.0189 51.1732 82.1812 51.3405C82.3485 51.5078 82.4322 51.712 82.4322 51.9531C82.4322 52.204 82.3485 52.4156 82.1812 52.5878C82.0189 52.7551 81.7999 52.8387 81.5244 52.8387C81.2636 52.8387 81.0495 52.7551 80.8822 52.5878C80.7149 52.4156 80.6313 52.204 80.6313 51.9531C80.6313 51.712 80.7149 51.5078 80.8822 51.3405C81.0495 51.1732 81.2636 51.0895 81.5244 51.0895ZM90.0728 61.6438C90.6681 61.6438 91.138 61.5331 91.4825 61.3117C91.8318 61.0854 92.0065 60.7852 92.0065 60.4113C92.0065 60.1751 91.9622 59.9709 91.8736 59.7987C91.79 59.6265 91.6153 59.4715 91.3496 59.3337C91.0839 59.1959 90.6755 59.0582 90.1244 58.9204C89.5881 58.7875 89.1207 58.635 88.7221 58.4628C88.3285 58.2857 88.0209 58.0569 87.7995 57.7764C87.583 57.4959 87.4748 57.1318 87.4748 56.6841C87.4748 56.2461 87.5978 55.8697 87.8438 55.5548C88.0947 55.235 88.4416 54.9914 88.8845 54.8241C89.3273 54.6519 89.8415 54.5658 90.427 54.5658C91.0519 54.5658 91.5956 54.6495 92.0582 54.8167C92.5256 54.9791 92.9217 55.1809 93.2464 55.422L92.7003 56.2634C92.405 56.0616 92.0803 55.8968 91.726 55.7689C91.3718 55.636 90.9437 55.5696 90.4418 55.5696C89.8317 55.5696 89.3987 55.6655 89.1428 55.8574C88.8869 56.0444 88.759 56.288 88.759 56.5881C88.759 56.8144 88.8205 57.0039 88.9435 57.1564C89.0714 57.304 89.2855 57.4393 89.5856 57.5623C89.8858 57.6804 90.2991 57.8108 90.8256 57.9535C91.3324 58.0864 91.7728 58.2463 92.1467 58.4333C92.5256 58.6202 92.8208 58.8663 93.0324 59.1713C93.244 59.4764 93.3498 59.87 93.3498 60.3522C93.3498 60.9033 93.1923 61.3511 92.8774 61.6955C92.5625 62.035 92.1541 62.2835 91.6522 62.441C91.1553 62.5935 90.6288 62.6698 90.0728 62.6698C89.3691 62.6698 88.7688 62.5689 88.2719 62.3671C87.7798 62.1605 87.3665 61.912 87.0319 61.6217L87.7405 60.8025C88.0455 61.0534 88.3949 61.2576 88.7885 61.415C89.1871 61.5676 89.6152 61.6438 90.0728 61.6438ZM99.839 53.4366V62.5H98.5621V53.4366H95.3884V52.3369H103.057L102.924 53.4366H99.839ZM106.372 51.4807V55.791C106.678 55.3826 107.051 55.0775 107.494 54.8758C107.942 54.6691 108.395 54.5658 108.852 54.5658C109.61 54.5658 110.164 54.7675 110.513 55.171C110.862 55.5745 111.037 56.1354 111.037 56.8538V62.5H109.797V56.8833C109.797 56.4159 109.689 56.0764 109.472 55.8648C109.256 55.6483 108.916 55.5401 108.454 55.5401C108.159 55.5401 107.878 55.6065 107.612 55.7393C107.347 55.8722 107.108 56.037 106.896 56.2338C106.685 56.4306 106.51 56.6324 106.372 56.839V62.5H105.133V51.6135L106.372 51.4807ZM114.958 59.0532C114.982 59.6535 115.098 60.1456 115.305 60.5294C115.511 60.9082 115.784 61.1887 116.124 61.3708C116.463 61.5479 116.832 61.6365 117.231 61.6365C117.63 61.6365 117.989 61.5774 118.309 61.4593C118.633 61.3412 118.965 61.1666 119.305 60.9353L119.888 61.7546C119.524 62.0399 119.108 62.2638 118.641 62.4262C118.178 62.5886 117.703 62.6698 117.216 62.6698C116.463 62.6698 115.821 62.5 115.29 62.1605C114.758 61.821 114.353 61.3486 114.072 60.7434C113.797 60.1333 113.659 59.4272 113.659 58.6252C113.659 57.8379 113.799 57.1392 114.079 56.5291C114.36 55.9189 114.754 55.4392 115.26 55.0898C115.767 54.7405 116.365 54.5658 117.054 54.5658C117.708 54.5658 118.272 54.7208 118.744 55.0308C119.216 55.3359 119.578 55.7738 119.829 56.3445C120.085 56.9104 120.213 57.587 120.213 58.3742C120.213 58.5071 120.21 58.6325 120.205 58.7506C120.2 58.8638 120.193 58.9647 120.183 59.0532H114.958ZM117.069 55.5843C116.493 55.5843 116.011 55.7885 115.622 56.1969C115.238 56.6053 115.019 57.2376 114.965 58.0938H119.017C119.002 57.2622 118.82 56.6373 118.471 56.2191C118.122 55.7959 117.654 55.5843 117.069 55.5843ZM127.957 54.5658C128.208 54.5658 128.446 54.6199 128.673 54.7282C128.904 54.8364 129.093 55.0455 129.241 55.3555C129.389 55.6655 129.462 56.1182 129.462 56.7136V62.5H128.311V56.9129C128.311 56.4257 128.281 56.0739 128.222 55.8574C128.163 55.6409 127.994 55.5327 127.713 55.5327C127.482 55.5327 127.251 55.6065 127.019 55.7541C126.793 55.8968 126.572 56.133 126.355 56.4626V62.5H125.196V56.9129C125.196 56.4257 125.167 56.0739 125.108 55.8574C125.049 55.6409 124.879 55.5327 124.598 55.5327C124.357 55.5327 124.124 55.6065 123.897 55.7541C123.676 55.8968 123.457 56.133 123.24 56.4626V62.5H122.096V54.7282H123.071L123.145 55.6286C123.356 55.3285 123.592 55.0775 123.853 54.8758C124.119 54.6691 124.446 54.5658 124.835 54.5658C125.13 54.5658 125.408 54.6372 125.669 54.7798C125.929 54.9176 126.121 55.1882 126.244 55.5917C126.456 55.2866 126.695 55.0406 126.96 54.8537C127.226 54.6618 127.558 54.5658 127.957 54.5658ZM132.66 59.0532C132.684 59.6535 132.8 60.1456 133.007 60.5294C133.213 60.9082 133.486 61.1887 133.826 61.3708C134.165 61.5479 134.534 61.6365 134.933 61.6365C135.332 61.6365 135.691 61.5774 136.011 61.4593C136.335 61.3412 136.667 61.1666 137.007 60.9353L137.59 61.7546C137.226 62.0399 136.81 62.2638 136.343 62.4262C135.88 62.5886 135.405 62.6698 134.918 62.6698C134.165 62.6698 133.523 62.5 132.992 62.1605C132.46 61.821 132.055 61.3486 131.774 60.7434C131.499 60.1333 131.361 59.4272 131.361 58.6252C131.361 57.8379 131.501 57.1392 131.781 56.5291C132.062 55.9189 132.456 55.4392 132.962 55.0898C133.469 54.7405 134.067 54.5658 134.756 54.5658C135.41 54.5658 135.974 54.7208 136.446 55.0308C136.918 55.3359 137.28 55.7738 137.531 56.3445C137.787 56.9104 137.915 57.587 137.915 58.3742C137.915 58.5071 137.912 58.6325 137.907 58.7506C137.902 58.8638 137.895 58.9647 137.885 59.0532H132.66ZM134.771 55.5843C134.195 55.5843 133.713 55.7885 133.324 56.1969C132.94 56.6053 132.721 57.2376 132.667 58.0938H136.719C136.704 57.2622 136.522 56.6373 136.173 56.2191C135.824 55.7959 135.356 55.5843 134.771 55.5843ZM144.338 52.1745C145.002 52.1745 145.558 52.2581 146.006 52.4254C146.453 52.5927 146.879 52.8387 147.282 53.1635L146.567 53.9975C146.247 53.7269 145.907 53.535 145.548 53.4218C145.194 53.3037 144.822 53.2447 144.434 53.2447C143.878 53.2447 143.363 53.3775 142.891 53.6432C142.419 53.904 142.037 54.3395 141.747 54.9496C141.462 55.5548 141.319 56.3765 141.319 57.4147C141.319 58.4234 141.454 59.2328 141.725 59.843C142 60.4531 142.372 60.8935 142.839 61.1641C143.307 61.4347 143.828 61.57 144.404 61.57C144.975 61.57 145.442 61.4839 145.806 61.3117C146.175 61.1395 146.495 60.9427 146.766 60.7213L147.43 61.5627C147.12 61.8628 146.717 62.1236 146.22 62.345C145.723 62.5615 145.113 62.6698 144.389 62.6698C143.568 62.6698 142.822 62.468 142.153 62.0645C141.489 61.6611 140.962 61.0706 140.573 60.2932C140.185 59.5108 139.99 58.5514 139.99 57.4147C139.99 56.2732 140.187 55.3137 140.581 54.5363C140.979 53.7589 141.508 53.1709 142.168 52.7723C142.832 52.3738 143.555 52.1745 144.338 52.1745ZM152.347 54.5658C153.08 54.5658 153.693 54.7331 154.185 55.0677C154.682 55.3974 155.053 55.8648 155.299 56.47C155.55 57.0752 155.676 57.7887 155.676 58.6104C155.676 59.4026 155.548 60.1038 155.292 60.7139C155.036 61.324 154.66 61.8038 154.163 62.1531C153.671 62.4975 153.061 62.6698 152.332 62.6698C151.604 62.6698 150.992 62.5025 150.495 62.1679C149.998 61.8333 149.621 61.3634 149.365 60.7582C149.114 60.148 148.989 59.437 148.989 58.6252C148.989 57.8231 149.117 57.117 149.373 56.5069C149.629 55.8968 150.005 55.422 150.502 55.0825C151.004 54.738 151.619 54.5658 152.347 54.5658ZM152.347 55.577C151.678 55.577 151.171 55.8254 150.827 56.3224C150.487 56.8144 150.317 57.582 150.317 58.6252C150.317 59.6486 150.485 60.4088 150.819 60.9058C151.159 61.4027 151.663 61.6512 152.332 61.6512C153.002 61.6512 153.503 61.4027 153.838 60.9058C154.178 60.4088 154.347 59.6437 154.347 58.6104C154.347 57.5771 154.18 56.8144 153.845 56.3224C153.511 55.8254 153.011 55.577 152.347 55.577ZM158.239 62.5V54.7282H159.294L159.39 55.8058C159.705 55.4072 160.098 55.1021 160.571 54.8906C161.048 54.6741 161.511 54.5658 161.958 54.5658C162.721 54.5658 163.275 54.7675 163.619 55.171C163.968 55.5745 164.143 56.1354 164.143 56.8538V62.5H162.903V57.769C162.903 57.2376 162.874 56.8095 162.815 56.4848C162.756 56.1551 162.632 55.9165 162.446 55.7689C162.259 55.6163 161.968 55.5401 161.575 55.5401C161.27 55.5401 160.982 55.6065 160.711 55.7393C160.445 55.8722 160.207 56.0395 159.995 56.2412C159.788 56.438 159.616 56.6373 159.478 56.839V62.5H158.239ZM173.26 62.1088C172.994 62.286 172.672 62.4237 172.293 62.5221C171.914 62.6206 171.543 62.6698 171.178 62.6698C170.342 62.6698 169.697 62.4508 169.245 62.0129C168.792 61.575 168.566 61.0116 168.566 60.3227V55.6877H166.78V54.7282H168.566V52.9642L169.806 52.8166V54.7282H172.492L172.345 55.6877H169.806V60.3079C169.806 60.7409 169.919 61.0706 170.145 61.297C170.376 61.5233 170.758 61.6365 171.289 61.6365C171.579 61.6365 171.848 61.602 172.094 61.5331C172.34 61.4642 172.568 61.3757 172.78 61.2674L173.26 62.1088ZM176.915 59.0532C176.939 59.6535 177.055 60.1456 177.262 60.5294C177.468 60.9082 177.741 61.1887 178.081 61.3708C178.42 61.5479 178.79 61.6365 179.188 61.6365C179.587 61.6365 179.946 61.5774 180.266 61.4593C180.59 61.3412 180.923 61.1666 181.262 60.9353L181.845 61.7546C181.481 62.0399 181.065 62.2638 180.598 62.4262C180.135 62.5886 179.66 62.6698 179.173 62.6698C178.42 62.6698 177.778 62.5 177.247 62.1605C176.716 61.821 176.31 61.3486 176.029 60.7434C175.754 60.1333 175.616 59.4272 175.616 58.6252C175.616 57.8379 175.756 57.1392 176.037 56.5291C176.317 55.9189 176.711 55.4392 177.217 55.0898C177.724 54.7405 178.322 54.5658 179.011 54.5658C179.665 54.5658 180.229 54.7208 180.701 55.0308C181.173 55.3359 181.535 55.7738 181.786 56.3445C182.042 56.9104 182.17 57.587 182.17 58.3742C182.17 58.5071 182.167 58.6325 182.162 58.7506C182.158 58.8638 182.15 58.9647 182.14 59.0532H176.915ZM179.026 55.5843C178.45 55.5843 177.968 55.7885 177.579 56.1969C177.195 56.6053 176.976 57.2376 176.922 58.0938H180.974C180.959 57.2622 180.777 56.6373 180.428 56.2191C180.079 55.7959 179.611 55.5843 179.026 55.5843ZM185.544 62.5H184.127L186.998 58.3964L184.482 54.7282H185.95L187.751 57.6214L189.574 54.7282H190.991L188.482 58.3447L191.346 62.5H189.825L187.7 59.1639L185.544 62.5ZM199.813 62.1088C199.547 62.286 199.225 62.4237 198.846 62.5221C198.467 62.6206 198.096 62.6698 197.731 62.6698C196.895 62.6698 196.25 62.4508 195.798 62.0129C195.345 61.575 195.119 61.0116 195.119 60.3227V55.6877H193.333V54.7282H195.119V52.9642L196.359 52.8166V54.7282H199.045L198.898 55.6877H196.359V60.3079C196.359 60.7409 196.472 61.0706 196.698 61.297C196.929 61.5233 197.311 61.6365 197.842 61.6365C198.132 61.6365 198.401 61.602 198.647 61.5331C198.893 61.4642 199.121 61.3757 199.333 61.2674L199.813 62.1088ZM202.907 53.7318L208.583 57.2376V58.5071L202.981 62.0129L202.309 61.0977L207.52 57.8797L202.309 54.6691L202.907 53.7318Z" fill="#EEF1F2"/>
</g>
</g>
<defs>
<clipPath id="clip0_38_15684">
<path d="M0 8C0 3.58172 3.58172 0 8 0H216C220.418 0 224 3.58172 224 8V109C224 113.418 220.418 117 216 117H8C3.58172 117 0 113.418 0 109V8Z" fill="white"/>
</clipPath>
<clipPath id="clip1_38_15684">
<rect width="107" height="36" fill="white" transform="translate(112 40)"/>
</clipPath>
</defs>
</svg>
