<svg width="32" height="32" viewBox="0 0 32 32" fill="none" xmlns="http://www.w3.org/2000/svg">
<path d="M8.14482 16.9911L12.6346 5.95996L2.53268 18.7262C1.29868 20.2857 2.40937 22.5809 4.39801 22.5809H16.0737V16.9911H8.14482Z" fill="#F2C94C"/>
<path d="M3.90283 13.6211L12.6246 5.96973L8.66018 13.6211H3.90283Z" fill="#F2C94C"/>
<path d="M24.8552 16.9911L20.3654 5.95996L30.4673 18.7262C31.7013 20.2857 30.5906 22.5809 28.602 22.5809H16.9263V16.9911H24.8552Z" fill="#8F762D"/>
<path d="M29.0972 13.6211L20.3754 5.96973L24.3398 13.6211H29.0972Z" fill="#8F762D"/>
<path d="M14.7899 13.413L11.8516 26.02H21.168L18.2297 13.413L16.5098 12.8184L14.7899 13.413Z" fill="#F2C94C"/>
<path d="M16.5098 5.97949L18.6728 11.0044H14.3468L16.5098 5.97949Z" fill="#F2C94C"/>
<g style="mix-blend-mode:multiply">
<path d="M16.51 9.46875L18.6706 10.9752H14.3494L16.51 9.46875Z" fill="#BA9A3A"/>
</g>
<g style="mix-blend-mode:multiply">
<path d="M16.5098 23.8594L21.168 26.0398H11.8516L16.5098 23.8594Z" fill="#BA9A3A"/>
</g>
<g style="mix-blend-mode:multiply">
<path d="M16.5693 9.5481V6.13867L18.6309 11.015L16.5693 9.5481Z" fill="#C4C4C4"/>
</g>
<path d="M16.53 18.8443L16.51 12.8184L18.238 13.413L19.0671 16.991L16.53 18.8443Z" fill="#BA9A3A"/>
<path d="M16.5298 18.8644V23.8596L21.1682 26.04L20.3654 22.5811L16.5298 18.8644Z" fill="#BA9A3A"/>
<path d="M8.14493 16.9909L12.6248 5.96973L5.19141 18.8641L8.14493 16.9909Z" fill="#BA9A3A"/>
<path d="M24.8551 17.0007L20.3753 5.97949L27.6897 18.864L24.8551 17.0007Z" fill="#F2C94C"/>
<path d="M6.57884 13.6214L8.13489 11.6689L3.90283 13.6214H6.57884Z" fill="#B07911"/>
<path d="M26.4409 13.592L24.3199 11.6494L29.0376 13.592H26.4409Z" fill="#B07911"/>
<path d="M30.5837 21.5304L27.6897 18.8643H16.5297L20.3753 22.5908H28.552C29.8682 22.5908 30.4549 21.8839 30.5837 21.5304Z" fill="#B07911"/>
<path d="M2.47583 21.5304L5.19148 18.8643H16.5298L12.6843 22.5908H4.50761C3.19141 22.5908 2.60467 21.8839 2.47583 21.5304Z" fill="#B07911"/>
<path d="M19.0669 17.001H25.0532L27.6896 18.8643H16.9062L19.0669 17.001Z" fill="#F2C94C"/>
</svg>
