<svg width="224" height="117" viewBox="0 0 224 117" fill="none" xmlns="http://www.w3.org/2000/svg">
<g clip-path="url(#clip0_4_5759)">
<path d="M24.4015 11.3376H198.599C201.395 11.3376 203.662 13.6048 203.662 16.4015V39.3577C203.662 42.1544 201.395 44.4215 198.599 44.4215H24.4015C21.6048 44.4215 19.3376 42.1544 19.3376 39.3577V16.4015C19.3376 13.6048 21.6048 11.3376 24.4015 11.3376Z" fill="white"/>
<path d="M24.4015 11.3376H198.599C201.395 11.3376 203.662 13.6048 203.662 16.4015V39.3577C203.662 42.1544 201.395 44.4215 198.599 44.4215H24.4015C21.6048 44.4215 19.3376 42.1544 19.3376 39.3577V16.4015C19.3376 13.6048 21.6048 11.3376 24.4015 11.3376Z" stroke="#DADFE2" stroke-width="0.675183" stroke-linecap="round"/>
<g filter="url(#filter0_dd_4_5759)">
<path d="M19 16.4015C19 13.4183 21.4183 11 24.4015 11H198.361C201.344 11 203.763 13.4183 203.763 16.4015V39.3577C203.763 42.3408 201.344 44.7591 198.361 44.7591H24.4015C21.4183 44.7591 19 42.3408 19 39.3577V16.4015Z" fill="white"/>
<path d="M24.4015 11.3376H198.361C201.158 11.3376 203.425 13.6048 203.425 16.4015V39.3577C203.425 42.1544 201.158 44.4215 198.361 44.4215H24.4015C21.6048 44.4215 19.3376 42.1544 19.3376 39.3577V16.4015C19.3376 13.6048 21.6048 11.3376 24.4015 11.3376Z" stroke="#DADFE2" stroke-width="0.675183"/>
</g>
<path d="M30.6354 30.4653V23.5907H32.9582C33.4976 23.5907 33.9384 23.6881 34.2808 23.8828C34.6254 24.0752 34.8805 24.3359 35.0461 24.6649C35.2117 24.9939 35.2945 25.3609 35.2945 25.7659C35.2945 26.171 35.2117 26.5391 35.0461 26.8703C34.8828 27.2015 34.6299 27.4655 34.2875 27.6625C33.9451 27.8572 33.5065 27.9545 32.9717 27.9545H31.3067V27.216H32.9448C33.3141 27.216 33.6106 27.1522 33.8344 27.0247C34.0581 26.8971 34.2204 26.7248 34.3211 26.5077C34.424 26.2884 34.4755 26.0412 34.4755 25.7659C34.4755 25.4907 34.424 25.2445 34.3211 25.0274C34.2204 24.8104 34.057 24.6403 33.831 24.5172C33.605 24.3919 33.3051 24.3292 32.9314 24.3292H31.4679V30.4653H30.6354ZM37.3203 23.5907V30.4653H36.5281V23.5907H37.3203ZM40.2885 30.5862C39.9618 30.5862 39.6653 30.5246 39.399 30.4016C39.1327 30.2762 38.9212 30.0961 38.7646 29.8611C38.6079 29.6239 38.5296 29.3375 38.5296 29.0018C38.5296 28.7064 38.5878 28.467 38.7041 28.2835C38.8205 28.0977 38.976 27.9523 39.1707 27.8471C39.3654 27.7419 39.5802 27.6636 39.8152 27.6121C40.0524 27.5584 40.2907 27.5159 40.5302 27.4846C40.8435 27.4443 41.0975 27.4141 41.2922 27.3939C41.4891 27.3715 41.6323 27.3346 41.7218 27.2832C41.8136 27.2317 41.8595 27.1422 41.8595 27.0146V26.9878C41.8595 26.6566 41.7688 26.3992 41.5876 26.2157C41.4085 26.0322 41.1366 25.9405 40.7719 25.9405C40.3937 25.9405 40.0972 26.0233 39.8823 26.1889C39.6675 26.3545 39.5165 26.5312 39.4292 26.7192L38.6773 26.4507C38.8115 26.1374 38.9906 25.8935 39.2144 25.7189C39.4404 25.5421 39.6865 25.419 39.9528 25.3497C40.2214 25.2781 40.4854 25.2423 40.745 25.2423C40.9106 25.2423 41.1008 25.2624 41.3157 25.3027C41.5327 25.3407 41.742 25.4202 41.9434 25.541C42.147 25.6618 42.316 25.8442 42.4502 26.0882C42.5845 26.3321 42.6516 26.6588 42.6516 27.0683V30.4653H41.8595V29.7671H41.8192C41.7655 29.879 41.676 29.9987 41.5506 30.1263C41.4253 30.2539 41.2586 30.3624 41.0505 30.4519C40.8424 30.5414 40.5884 30.5862 40.2885 30.5862ZM40.4093 29.8745C40.7226 29.8745 40.9867 29.813 41.2015 29.6899C41.4186 29.5668 41.582 29.408 41.6916 29.2133C41.8035 29.0186 41.8595 28.8138 41.8595 28.599V27.8739C41.8259 27.9142 41.752 27.9511 41.6379 27.9847C41.526 28.016 41.3962 28.044 41.2485 28.0686C41.1031 28.091 40.961 28.1111 40.8222 28.129C40.6857 28.1447 40.5749 28.1581 40.4899 28.1693C40.284 28.1962 40.0916 28.2398 39.9126 28.3002C39.7358 28.3584 39.5925 28.4468 39.4829 28.5654C39.3755 28.6818 39.3218 28.8407 39.3218 29.0421C39.3218 29.3173 39.4236 29.5254 39.6272 29.6664C39.8331 29.8052 40.0938 29.8745 40.4093 29.8745ZM46.1922 30.5727C45.7088 30.5727 45.2926 30.4586 44.9435 30.2304C44.5944 30.0021 44.3258 29.6877 44.1378 29.2871C43.9499 28.8865 43.8559 28.4289 43.8559 27.9142C43.8559 27.3906 43.9521 26.9285 44.1446 26.5279C44.3392 26.1251 44.61 25.8107 44.9569 25.5846C45.306 25.3564 45.7133 25.2423 46.1787 25.2423C46.5413 25.2423 46.868 25.3094 47.1589 25.4437C47.4498 25.5779 47.6881 25.7659 47.8739 26.0076C48.0596 26.2493 48.1749 26.5312 48.2196 26.8535H47.4274C47.367 26.6185 47.2327 26.4104 47.0246 26.2291C46.8187 26.0456 46.5413 25.9539 46.1922 25.9539C45.8833 25.9539 45.6126 26.0344 45.3798 26.1956C45.1493 26.3545 44.9692 26.5794 44.8394 26.8703C44.7118 27.159 44.6481 27.498 44.6481 27.8874C44.6481 28.2857 44.7107 28.6326 44.836 28.9279C44.9636 29.2233 45.1426 29.4527 45.3731 29.6161C45.6058 29.7794 45.8789 29.8611 46.1922 29.8611C46.398 29.8611 46.5849 29.8253 46.7527 29.7537C46.9206 29.6821 47.0627 29.5792 47.179 29.4449C47.2954 29.3106 47.3782 29.1495 47.4274 28.9615H48.2196C48.1749 29.2659 48.0641 29.54 47.8873 29.7839C47.7128 30.0256 47.4811 30.2181 47.1925 30.3613C46.906 30.5023 46.5726 30.5727 46.1922 30.5727ZM51.5394 30.5727C51.0426 30.5727 50.6141 30.4631 50.2538 30.2438C49.8958 30.0222 49.6194 29.7134 49.4247 29.3173C49.2322 28.919 49.136 28.4558 49.136 27.9276C49.136 27.3995 49.2322 26.9341 49.4247 26.5312C49.6194 26.1262 49.8902 25.8107 50.237 25.5846C50.5861 25.3564 50.9934 25.2423 51.4589 25.2423C51.7274 25.2423 51.9926 25.287 52.2544 25.3765C52.5162 25.466 52.7546 25.6115 52.9694 25.8129C53.1842 26.0121 53.3554 26.2761 53.483 26.6051C53.6105 26.9341 53.6743 27.3391 53.6743 27.8202V28.1559H49.6999V27.4711H52.8687C52.8687 27.1802 52.8105 26.9206 52.6941 26.6924C52.58 26.4641 52.4167 26.284 52.2041 26.1519C51.9937 26.0199 51.7453 25.9539 51.4589 25.9539C51.1433 25.9539 50.8703 26.0322 50.6398 26.1889C50.4116 26.3433 50.2359 26.5447 50.1128 26.7931C49.9897 27.0415 49.9282 27.3078 49.9282 27.592V28.0485C49.9282 28.4379 49.9953 28.7679 50.1296 29.0387C50.2661 29.3073 50.4552 29.512 50.6969 29.653C50.9386 29.7917 51.2194 29.8611 51.5394 29.8611C51.7475 29.8611 51.9355 29.832 52.1034 29.7738C52.2734 29.7134 52.42 29.6239 52.5431 29.5053C52.6662 29.3845 52.7613 29.2345 52.8284 29.0555L53.5938 29.2703C53.5132 29.5299 53.3778 29.7582 53.1876 29.9551C52.9974 30.1498 52.7624 30.302 52.4827 30.4116C52.2029 30.519 51.8885 30.5727 51.5394 30.5727ZM55.6716 27.3637V30.4653H54.8794V23.5907H55.6716V26.115H55.7387C55.8595 25.8487 56.0408 25.6372 56.2825 25.4806C56.5264 25.3217 56.8509 25.2423 57.2559 25.2423C57.6073 25.2423 57.915 25.3127 58.179 25.4537C58.4431 25.5925 58.6479 25.8062 58.7933 26.0949C58.941 26.3813 59.0149 26.7461 59.0149 27.1892V30.4653H58.2227V27.2429C58.2227 26.8333 58.1164 26.5167 57.9038 26.2929C57.6934 26.0669 57.4014 25.9539 57.0277 25.9539C56.7681 25.9539 56.5354 26.0087 56.3295 26.1184C56.1258 26.228 55.9647 26.388 55.8461 26.5984C55.7298 26.8087 55.6716 27.0638 55.6716 27.3637ZM62.5587 30.5727C62.0933 30.5727 61.6849 30.462 61.3335 30.2404C60.9844 30.0189 60.7114 29.7089 60.5145 29.3106C60.3198 28.9123 60.2225 28.4468 60.2225 27.9142C60.2225 27.3771 60.3198 26.9083 60.5145 26.5077C60.7114 26.1072 60.9844 25.7961 61.3335 25.5746C61.6849 25.353 62.0933 25.2423 62.5587 25.2423C63.0242 25.2423 63.4315 25.353 63.7806 25.5746C64.1319 25.7961 64.4049 26.1072 64.5996 26.5077C64.7966 26.9083 64.895 27.3771 64.895 27.9142C64.895 28.4468 64.7966 28.9123 64.5996 29.3106C64.4049 29.7089 64.1319 30.0189 63.7806 30.2404C63.4315 30.462 63.0242 30.5727 62.5587 30.5727ZM62.5587 29.8611C62.9123 29.8611 63.2032 29.7705 63.4315 29.5892C63.6598 29.408 63.8287 29.1696 63.9384 28.8742C64.048 28.5788 64.1028 28.2588 64.1028 27.9142C64.1028 27.5696 64.048 27.2485 63.9384 26.9508C63.8287 26.6532 63.6598 26.4126 63.4315 26.2291C63.2032 26.0456 62.9123 25.9539 62.5587 25.9539C62.2052 25.9539 61.9143 26.0456 61.686 26.2291C61.4577 26.4126 61.2888 26.6532 61.1791 26.9508C61.0695 27.2485 61.0146 27.5696 61.0146 27.9142C61.0146 28.2588 61.0695 28.5788 61.1791 28.8742C61.2888 29.1696 61.4577 29.408 61.686 29.5892C61.9143 29.7705 62.2052 29.8611 62.5587 29.8611ZM66.8965 23.5907V30.4653H66.1043V23.5907H66.8965ZM70.2943 30.5727C69.8647 30.5727 69.4854 30.4642 69.1564 30.2471C68.8274 30.0278 68.5701 29.719 68.3843 29.3207C68.1986 28.9201 68.1057 28.4468 68.1057 27.9008C68.1057 27.3592 68.1986 26.8893 68.3843 26.491C68.5701 26.0926 68.8286 25.7849 69.1598 25.5679C69.491 25.3508 69.8736 25.2423 70.3078 25.2423C70.6434 25.2423 70.9086 25.2982 71.1033 25.4101C71.3002 25.5197 71.4502 25.6451 71.5531 25.786C71.6583 25.9248 71.74 26.0389 71.7981 26.1284H71.8653V23.5907H72.6575V30.4653H71.8921V29.6731H71.7981C71.74 29.7671 71.6572 29.8857 71.5497 30.029C71.4423 30.1699 71.289 30.2964 71.0899 30.4083C70.8907 30.5179 70.6255 30.5727 70.2943 30.5727ZM70.4017 29.8611C70.7195 29.8611 70.9881 29.7783 71.2074 29.6127C71.4267 29.4449 71.5934 29.2133 71.7075 28.9179C71.8216 28.6202 71.8787 28.2767 71.8787 27.8874C71.8787 27.5025 71.8228 27.1657 71.7109 26.877C71.599 26.5861 71.4334 26.36 71.2141 26.1989C70.9948 26.0356 70.724 25.9539 70.4017 25.9539C70.0661 25.9539 69.7863 26.04 69.5626 26.2124C69.341 26.3824 69.1743 26.614 69.0624 26.9072C68.9528 27.1981 68.8979 27.5248 68.8979 27.8874C68.8979 28.2544 68.9539 28.5878 69.0658 28.8877C69.1799 29.1853 69.3477 29.4225 69.5693 29.5993C69.7931 29.7738 70.0705 29.8611 70.4017 29.8611ZM76.3801 30.5727C75.8833 30.5727 75.4547 30.4631 75.0945 30.2438C74.7364 30.0222 74.46 29.7134 74.2653 29.3173C74.0729 28.919 73.9767 28.4558 73.9767 27.9276C73.9767 27.3995 74.0729 26.9341 74.2653 26.5312C74.46 26.1262 74.7308 25.8107 75.0777 25.5846C75.4268 25.3564 75.8341 25.2423 76.2995 25.2423C76.5681 25.2423 76.8332 25.287 77.0951 25.3765C77.3569 25.466 77.5952 25.6115 77.8101 25.8129C78.0249 26.0121 78.1961 26.2761 78.3236 26.6051C78.4512 26.9341 78.515 27.3391 78.515 27.8202V28.1559H74.5406V27.4711H77.7093C77.7093 27.1802 77.6512 26.9206 77.5348 26.6924C77.4207 26.4641 77.2573 26.284 77.0447 26.1519C76.8344 26.0199 76.586 25.9539 76.2995 25.9539C75.984 25.9539 75.711 26.0322 75.4805 26.1889C75.2522 26.3433 75.0766 26.5447 74.9535 26.7931C74.8304 27.0415 74.7689 27.3078 74.7689 27.592V28.0485C74.7689 28.4379 74.836 28.7679 74.9703 29.0387C75.1068 29.3073 75.2959 29.512 75.5375 29.653C75.7792 29.7917 76.0601 29.8611 76.3801 29.8611C76.5882 29.8611 76.7762 29.832 76.944 29.7738C77.1141 29.7134 77.2607 29.6239 77.3837 29.5053C77.5068 29.3845 77.6019 29.2345 77.6691 29.0555L78.4344 29.2703C78.3538 29.5299 78.2185 29.7582 78.0282 29.9551C77.838 30.1498 77.6031 30.302 77.3233 30.4116C77.0436 30.519 76.7292 30.5727 76.3801 30.5727ZM79.72 30.4653V25.3094H80.4854V26.0882H80.5391C80.6331 25.833 80.8031 25.626 81.0493 25.4672C81.2955 25.3083 81.5729 25.2288 81.8818 25.2288C81.9399 25.2288 82.0127 25.2299 82.1 25.2322C82.1872 25.2344 82.2532 25.2378 82.298 25.2423V26.0479C82.2711 26.0412 82.2096 26.0311 82.1134 26.0177C82.0194 26.002 81.9198 25.9942 81.8146 25.9942C81.564 25.9942 81.3402 26.0468 81.1433 26.1519C80.9486 26.2549 80.7942 26.3981 80.6801 26.5816C80.5682 26.7629 80.5122 26.9699 80.5122 27.2026V30.4653H79.72ZM86.6878 23.5907V30.4653H85.8956V23.5907H86.6878ZM89.656 30.5862C89.3292 30.5862 89.0327 30.5246 88.7664 30.4016C88.5001 30.2762 88.2886 30.0961 88.132 29.8611C87.9754 29.6239 87.897 29.3375 87.897 29.0018C87.897 28.7064 87.9552 28.467 88.0716 28.2835C88.1879 28.0977 88.3435 27.9523 88.5382 27.8471C88.7329 27.7419 88.9477 27.6636 89.1827 27.6121C89.4199 27.5584 89.6582 27.5159 89.8976 27.4846C90.2109 27.4443 90.4649 27.4141 90.6596 27.3939C90.8565 27.3715 90.9998 27.3346 91.0893 27.2832C91.181 27.2317 91.2269 27.1422 91.2269 27.0146V26.9878C91.2269 26.6566 91.1363 26.3992 90.955 26.2157C90.776 26.0322 90.5041 25.9405 90.1393 25.9405C89.7611 25.9405 89.4646 26.0233 89.2498 26.1889C89.035 26.3545 88.8839 26.5312 88.7966 26.7192L88.0447 26.4507C88.179 26.1374 88.358 25.8935 88.5818 25.7189C88.8078 25.5421 89.054 25.419 89.3203 25.3497C89.5888 25.2781 89.8529 25.2423 90.1125 25.2423C90.2781 25.2423 90.4683 25.2624 90.6831 25.3027C90.9002 25.3407 91.1094 25.4202 91.3108 25.541C91.5145 25.6618 91.6834 25.8442 91.8177 26.0882C91.952 26.3321 92.0191 26.6588 92.0191 27.0683V30.4653H91.2269V29.7671H91.1866C91.1329 29.879 91.0434 29.9987 90.9181 30.1263C90.7928 30.2539 90.6261 30.3624 90.4179 30.4519C90.2098 30.5414 89.9558 30.5862 89.656 30.5862ZM89.7768 29.8745C90.0901 29.8745 90.3542 29.813 90.569 29.6899C90.7861 29.5668 90.9494 29.408 91.0591 29.2133C91.171 29.0186 91.2269 28.8138 91.2269 28.599V27.8739C91.1933 27.9142 91.1195 27.9511 91.0054 27.9847C90.8935 28.016 90.7637 28.044 90.616 28.0686C90.4705 28.091 90.3284 28.1111 90.1897 28.129C90.0532 28.1447 89.9424 28.1581 89.8574 28.1693C89.6515 28.1962 89.459 28.2398 89.28 28.3002C89.1032 28.3584 88.96 28.4468 88.8503 28.5654C88.7429 28.6818 88.6892 28.8407 88.6892 29.0421C88.6892 29.3173 88.791 29.5254 88.9947 29.6664C89.2006 29.8052 89.4613 29.8745 89.7768 29.8745ZM93.5724 30.4653V23.5907H94.3646V26.1284H94.4317C94.4899 26.0389 94.5705 25.9248 94.6734 25.786C94.7786 25.6451 94.9285 25.5197 95.1232 25.4101C95.3202 25.2982 95.5865 25.2423 95.9221 25.2423C96.3563 25.2423 96.7389 25.3508 97.0701 25.5679C97.4013 25.7849 97.6598 26.0926 97.8455 26.491C98.0313 26.8893 98.1241 27.3592 98.1241 27.9008C98.1241 28.4468 98.0313 28.9201 97.8455 29.3207C97.6598 29.719 97.4025 30.0278 97.0735 30.2471C96.7445 30.4642 96.3652 30.5727 95.9356 30.5727C95.6044 30.5727 95.3392 30.5179 95.14 30.4083C94.9408 30.2964 94.7876 30.1699 94.6801 30.029C94.5727 29.8857 94.4899 29.7671 94.4317 29.6731H94.3378V30.4653H93.5724ZM94.3512 27.8874C94.3512 28.2767 94.4082 28.6202 94.5224 28.9179C94.6365 29.2133 94.8032 29.4449 95.0225 29.6127C95.2418 29.7783 95.5104 29.8611 95.8281 29.8611C96.1593 29.8611 96.4357 29.7738 96.6573 29.5993C96.881 29.4225 97.0489 29.1853 97.1608 28.8877C97.2749 28.5878 97.332 28.2544 97.332 27.8874C97.332 27.5248 97.276 27.1981 97.1641 26.9072C97.0545 26.614 96.8878 26.3824 96.664 26.2124C96.4424 26.04 96.1638 25.9539 95.8281 25.9539C95.5059 25.9539 95.2351 26.0356 95.0158 26.1989C94.7965 26.36 94.6309 26.5861 94.519 26.877C94.4071 27.1657 94.3512 27.5025 94.3512 27.8874ZM101.498 30.5727C101.001 30.5727 100.572 30.4631 100.212 30.2438C99.854 30.0222 99.5776 29.7134 99.3829 29.3173C99.1905 28.919 99.0942 28.4558 99.0942 27.9276C99.0942 27.3995 99.1905 26.9341 99.3829 26.5312C99.5776 26.1262 99.8484 25.8107 100.195 25.5846C100.544 25.3564 100.952 25.2423 101.417 25.2423C101.686 25.2423 101.951 25.287 102.213 25.3765C102.474 25.466 102.713 25.6115 102.928 25.8129C103.142 26.0121 103.314 26.2761 103.441 26.6051C103.569 26.9341 103.633 27.3391 103.633 27.8202V28.1559H99.6582V27.4711H102.827C102.827 27.1802 102.769 26.9206 102.652 26.6924C102.538 26.4641 102.375 26.284 102.162 26.1519C101.952 26.0199 101.704 25.9539 101.417 25.9539C101.102 25.9539 100.829 26.0322 100.598 26.1889C100.37 26.3433 100.194 26.5447 100.071 26.7931C99.948 27.0415 99.8864 27.3078 99.8864 27.592V28.0485C99.8864 28.4379 99.9536 28.7679 100.088 29.0387C100.224 29.3073 100.413 29.512 100.655 29.653C100.897 29.7917 101.178 29.8611 101.498 29.8611C101.706 29.8611 101.894 29.832 102.062 29.7738C102.232 29.7134 102.378 29.6239 102.501 29.5053C102.624 29.3845 102.72 29.2345 102.787 29.0555L103.552 29.2703C103.471 29.5299 103.336 29.7582 103.146 29.9551C102.956 30.1498 102.721 30.302 102.441 30.4116C102.161 30.519 101.847 30.5727 101.498 30.5727ZM105.63 23.5907V30.4653H104.838V23.5907H105.63Z" fill="#627A84"/>
<g filter="url(#filter1_dd_4_5759)">
<g clip-path="url(#clip1_4_5759)">
<path d="M19 52.8613C19 49.8782 21.4183 47.4598 24.4015 47.4598H198.599C201.582 47.4598 204 49.8782 204 52.8613V146.467C204 149.45 201.582 151.869 198.599 151.869H24.4015C21.4183 151.869 19 149.45 19 146.467V52.8613Z" fill="white"/>
<path d="M42.2708 54.9867V61.8613H41.4383V54.9867H42.2708ZM46.0748 56.7054V57.3767H43.4028V56.7054H46.0748ZM44.1816 55.4701H44.9738V60.3844C44.9738 60.6081 45.0062 60.776 45.0711 60.8879C45.1383 60.9975 45.2233 61.0714 45.3262 61.1094C45.4314 61.1452 45.5422 61.1631 45.6586 61.1631C45.7458 61.1631 45.8174 61.1587 45.8734 61.1497C45.9293 61.1385 45.9741 61.1296 46.0077 61.1228L46.1688 61.8345C46.1151 61.8546 46.0401 61.8748 45.9439 61.8949C45.8477 61.9173 45.7257 61.9285 45.578 61.9285C45.3542 61.9285 45.1349 61.8803 44.9201 61.7841C44.7075 61.6879 44.5307 61.5413 44.3897 61.3444C44.251 61.1475 44.1816 60.8991 44.1816 60.5992V55.4701ZM49.3728 61.9687C48.876 61.9687 48.4474 61.8591 48.0871 61.6398C47.7291 61.4182 47.4527 61.1094 47.258 60.7133C47.0656 60.315 46.9694 59.8518 46.9694 59.3236C46.9694 58.7955 47.0656 58.33 47.258 57.9272C47.4527 57.5222 47.7235 57.2067 48.0704 56.9806C48.4195 56.7524 48.8267 56.6383 49.2922 56.6383C49.5608 56.6383 49.8259 56.683 50.0878 56.7725C50.3496 56.862 50.5879 57.0075 50.8027 57.2089C51.0176 57.4081 51.1888 57.6721 51.3163 58.0011C51.4439 58.33 51.5077 58.7351 51.5077 59.2162V59.5519H47.5333V58.8671H50.702C50.702 58.5762 50.6439 58.3166 50.5275 58.0884C50.4134 57.8601 50.25 57.68 50.0374 57.5479C49.8271 57.4159 49.5787 57.3499 49.2922 57.3499C48.9767 57.3499 48.7037 57.4282 48.4732 57.5849C48.2449 57.7393 48.0692 57.9407 47.9462 58.1891C47.8231 58.4375 47.7615 58.7038 47.7615 58.988V59.4445C47.7615 59.8339 47.8287 60.1639 47.963 60.4347C48.0995 60.7033 48.2886 60.908 48.5302 61.049C48.7719 61.1877 49.0528 61.2571 49.3728 61.2571C49.5809 61.2571 49.7689 61.228 49.9367 61.1698C50.1068 61.1094 50.2534 61.0199 50.3764 60.9013C50.4995 60.7805 50.5946 60.6305 50.6618 60.4515L51.4271 60.6663C51.3465 60.9259 51.2111 61.1542 51.0209 61.3511C50.8307 61.5458 50.5957 61.698 50.316 61.8076C50.0363 61.915 49.7219 61.9687 49.3728 61.9687ZM52.7127 61.8613V56.7054H53.4781V57.511H53.5452C53.6526 57.2358 53.826 57.022 54.0655 56.8699C54.3049 56.7155 54.5925 56.6383 54.9282 56.6383C55.2683 56.6383 55.5514 56.7155 55.7774 56.8699C56.0057 57.022 56.1836 57.2358 56.3111 57.511H56.3648C56.4969 57.2447 56.6949 57.0332 56.959 56.8766C57.2231 56.7177 57.5397 56.6383 57.9089 56.6383C58.3699 56.6383 58.747 56.7826 59.0402 57.0713C59.3333 57.3577 59.4799 57.8042 59.4799 58.4106V61.8613H58.6877V58.4106C58.6877 58.0302 58.5836 57.7583 58.3755 57.5949C58.1674 57.4316 57.9224 57.3499 57.6404 57.3499C57.2779 57.3499 56.997 57.4595 56.7979 57.6788C56.5987 57.8959 56.4991 58.1712 56.4991 58.5046V61.8613H55.6935V58.33C55.6935 58.0369 55.5984 57.8008 55.4082 57.6218C55.218 57.4405 54.9729 57.3499 54.6731 57.3499C54.4672 57.3499 54.2747 57.4047 54.0957 57.5144C53.9189 57.624 53.7757 57.7762 53.666 57.9709C53.5586 58.1633 53.5049 58.386 53.5049 58.6389V61.8613H52.7127ZM65.8292 56.7054V57.3767H63.1572V56.7054H65.8292ZM63.936 55.4701H64.7281V60.3844C64.7281 60.6081 64.7606 60.776 64.8255 60.8879C64.8926 60.9975 64.9777 61.0714 65.0806 61.1094C65.1858 61.1452 65.2966 61.1631 65.4129 61.1631C65.5002 61.1631 65.5718 61.1587 65.6277 61.1497C65.6837 61.1385 65.7285 61.1296 65.762 61.1228L65.9231 61.8345C65.8694 61.8546 65.7945 61.8748 65.6982 61.8949C65.602 61.9173 65.4801 61.9285 65.3324 61.9285C65.1086 61.9285 64.8893 61.8803 64.6744 61.7841C64.4618 61.6879 64.2851 61.5413 64.1441 61.3444C64.0053 61.1475 63.936 60.8991 63.936 60.5992V55.4701ZM67.0208 61.8613V56.7054H67.813V61.8613H67.0208ZM67.4236 55.8461C67.2692 55.8461 67.136 55.7935 67.0241 55.6883C66.9145 55.5831 66.8597 55.4567 66.8597 55.309C66.8597 55.1613 66.9145 55.0349 67.0241 54.9297C67.136 54.8245 67.2692 54.7719 67.4236 54.7719C67.578 54.7719 67.71 54.8245 67.8197 54.9297C67.9316 55.0349 67.9875 55.1613 67.9875 55.309C67.9875 55.4567 67.9316 55.5831 67.8197 55.6883C67.71 55.7935 67.578 55.8461 67.4236 55.8461ZM71.5062 56.7054V57.3767H68.8343V56.7054H71.5062ZM69.613 55.4701H70.4052V60.3844C70.4052 60.6081 70.4377 60.776 70.5026 60.8879C70.5697 60.9975 70.6547 61.0714 70.7577 61.1094C70.8629 61.1452 70.9736 61.1631 71.09 61.1631C71.1773 61.1631 71.2489 61.1587 71.3048 61.1497C71.3608 61.1385 71.4055 61.1296 71.4391 61.1228L71.6002 61.8345C71.5465 61.8546 71.4715 61.8748 71.3753 61.8949C71.2791 61.9173 71.1571 61.9285 71.0094 61.9285C70.7856 61.9285 70.5663 61.8803 70.3515 61.7841C70.1389 61.6879 69.9621 61.5413 69.8211 61.3444C69.6824 61.1475 69.613 60.8991 69.613 60.5992V55.4701ZM73.6008 54.9867V61.8613H72.8086V54.9867H73.6008ZM77.2135 61.9687C76.7167 61.9687 76.2882 61.8591 75.9279 61.6398C75.5698 61.4182 75.2935 61.1094 75.0988 60.7133C74.9063 60.315 74.8101 59.8518 74.8101 59.3236C74.8101 58.7955 74.9063 58.33 75.0988 57.9272C75.2935 57.5222 75.5642 57.2067 75.9111 56.9806C76.2602 56.7524 76.6675 56.6383 77.1329 56.6383C77.4015 56.6383 77.6667 56.683 77.9285 56.7725C78.1903 56.862 78.4286 57.0075 78.6435 57.2089C78.8583 57.4081 79.0295 57.6721 79.1571 58.0011C79.2846 58.33 79.3484 58.7351 79.3484 59.2162V59.5519H75.374V58.8671H78.5428C78.5428 58.5762 78.4846 58.3166 78.3682 58.0884C78.2541 57.8601 78.0907 57.68 77.8781 57.5479C77.6678 57.4159 77.4194 57.3499 77.1329 57.3499C76.8174 57.3499 76.5444 57.4282 76.3139 57.5849C76.0856 57.7393 75.91 57.9407 75.7869 58.1891C75.6638 58.4375 75.6023 58.7038 75.6023 58.988V59.4445C75.6023 59.8339 75.6694 60.1639 75.8037 60.4347C75.9402 60.7033 76.1293 60.908 76.371 61.049C76.6127 61.1877 76.8935 61.2571 77.2135 61.2571C77.4216 61.2571 77.6096 61.228 77.7774 61.1698C77.9475 61.1094 78.0941 61.0199 78.2172 60.9013C78.3402 60.7805 78.4354 60.6305 78.5025 60.4515L79.2678 60.6663C79.1873 60.9259 79.0519 61.1542 78.8617 61.3511C78.6714 61.5458 78.4365 61.698 78.1567 61.8076C77.877 61.915 77.5626 61.9687 77.2135 61.9687Z" fill="#233D48"/>
<path d="M43.5598 73.8613H41.4383V66.9867H43.6537C44.3206 66.9867 44.8913 67.1244 45.3657 67.3996C45.8401 67.6726 46.2037 68.0654 46.4566 68.5778C46.7095 69.0881 46.8359 69.699 46.8359 70.4106C46.8359 71.1267 46.7084 71.7432 46.4533 72.2602C46.1981 72.7749 45.8267 73.171 45.3388 73.4485C44.851 73.7237 44.258 73.8613 43.5598 73.8613ZM42.2708 73.1228H43.5061C44.0745 73.1228 44.5455 73.0132 44.9192 72.7939C45.293 72.5746 45.5716 72.2624 45.7551 71.8574C45.9386 71.4523 46.0303 70.9701 46.0303 70.4106C46.0303 69.8556 45.9397 69.3779 45.7584 68.9773C45.5772 68.5745 45.3064 68.2657 44.9461 68.0508C44.5858 67.8338 44.1371 67.7252 43.6 67.7252H42.2708V73.1228ZM50.2866 73.9687C49.7899 73.9687 49.3613 73.8591 49.001 73.6398C48.643 73.4182 48.3666 73.1094 48.1719 72.7133C47.9795 72.315 47.8832 71.8518 47.8832 71.3236C47.8832 70.7955 47.9795 70.33 48.1719 69.9272C48.3666 69.5222 48.6374 69.2067 48.9842 68.9806C49.3333 68.7524 49.7406 68.6383 50.2061 68.6383C50.4746 68.6383 50.7398 68.683 51.0016 68.7725C51.2635 68.862 51.5018 69.0075 51.7166 69.2089C51.9314 69.4081 52.1026 69.6721 52.2302 70.0011C52.3578 70.33 52.4215 70.7351 52.4215 71.2162V71.5519H48.4472V70.8671H51.6159C51.6159 70.5762 51.5577 70.3166 51.4414 70.0884C51.3272 69.8601 51.1639 69.68 50.9513 69.5479C50.7409 69.4159 50.4925 69.3499 50.2061 69.3499C49.8906 69.3499 49.6175 69.4282 49.387 69.5849C49.1588 69.7393 48.9831 69.9407 48.86 70.1891C48.737 70.4375 48.6754 70.7038 48.6754 70.988V71.4445C48.6754 71.8339 48.7426 72.1639 48.8768 72.4347C49.0133 72.7033 49.2024 72.908 49.4441 73.049C49.6858 73.1877 49.9666 73.2571 50.2866 73.2571C50.4948 73.2571 50.6827 73.228 50.8506 73.1698C51.0207 73.1094 51.1672 73.0199 51.2903 72.9013C51.4134 72.7805 51.5085 72.6305 51.5756 72.4515L52.341 72.6663C52.2604 72.9259 52.125 73.1542 51.9348 73.3511C51.7446 73.5458 51.5096 73.698 51.2299 73.8076C50.9502 73.915 50.6357 73.9687 50.2866 73.9687ZM57.2787 69.8601L56.5671 70.0615C56.5223 69.9429 56.4563 69.8277 56.369 69.7158C56.284 69.6016 56.1676 69.5076 56.0199 69.4338C55.8723 69.36 55.6832 69.323 55.4527 69.323C55.1371 69.323 54.8742 69.3958 54.6638 69.5412C54.4557 69.6844 54.3517 69.8668 54.3517 70.0884C54.3517 70.2853 54.4233 70.4408 54.5665 70.5549C54.7097 70.6691 54.9335 70.7642 55.2378 70.8403L56.0032 71.0282C56.4642 71.1401 56.8077 71.3113 57.0337 71.5418C57.2597 71.7701 57.3727 72.0644 57.3727 72.4246C57.3727 72.72 57.2877 72.9841 57.1176 73.2168C56.9498 73.4496 56.7148 73.6331 56.4127 73.7673C56.1106 73.9016 55.7592 73.9687 55.3587 73.9687C54.8328 73.9687 54.3975 73.8546 54.0529 73.6264C53.7083 73.3981 53.4901 73.0647 53.3983 72.6261L54.1502 72.4381C54.2219 72.7156 54.3572 72.9237 54.5564 73.0624C54.7578 73.2012 55.0208 73.2705 55.3452 73.2705C55.7145 73.2705 56.0076 73.1922 56.2247 73.0356C56.444 72.8767 56.5537 72.6865 56.5537 72.4649C56.5537 72.2859 56.491 72.136 56.3657 72.0151C56.2404 71.892 56.0479 71.8003 55.7883 71.7399L54.929 71.5385C54.4568 71.4266 54.11 71.2531 53.8884 71.0182C53.6691 70.781 53.5595 70.4845 53.5595 70.1286C53.5595 69.8377 53.6411 69.5804 53.8045 69.3566C53.9701 69.1328 54.195 68.9571 54.4792 68.8296C54.7656 68.702 55.0901 68.6383 55.4527 68.6383C55.9629 68.6383 56.3635 68.7501 56.6544 68.9739C56.9475 69.1977 57.1556 69.4931 57.2787 69.8601ZM60.6598 73.9687C60.1764 73.9687 59.7602 73.8546 59.4111 73.6264C59.062 73.3981 58.7934 73.0837 58.6055 72.6831C58.4175 72.2825 58.3235 71.8249 58.3235 71.3102C58.3235 70.7866 58.4197 70.3245 58.6122 69.9239C58.8069 69.5211 59.0776 69.2067 59.4245 68.9806C59.7736 68.7524 60.1809 68.6383 60.6464 68.6383C61.0089 68.6383 61.3356 68.7054 61.6265 68.8397C61.9174 68.9739 62.1558 69.1619 62.3415 69.4036C62.5272 69.6453 62.6425 69.9272 62.6873 70.2495H61.8951C61.8346 70.0145 61.7004 69.8064 61.4923 69.6251C61.2864 69.4416 61.0089 69.3499 60.6598 69.3499C60.351 69.3499 60.0802 69.4304 59.8475 69.5916C59.617 69.7505 59.4368 69.9754 59.307 70.2663C59.1795 70.5549 59.1157 70.894 59.1157 71.2834C59.1157 71.6817 59.1784 72.0286 59.3037 72.3239C59.4312 72.6193 59.6103 72.8487 59.8407 73.0121C60.0735 73.1754 60.3465 73.2571 60.6598 73.2571C60.8657 73.2571 61.0525 73.2213 61.2204 73.1497C61.3882 73.0781 61.5303 72.9752 61.6467 72.8409C61.763 72.7066 61.8458 72.5455 61.8951 72.3575H62.6873C62.6425 72.6619 62.5317 72.936 62.3549 73.1799C62.1804 73.4216 61.9488 73.614 61.6601 73.7573C61.3737 73.8983 61.0402 73.9687 60.6598 73.9687ZM63.8453 73.8613V68.7054H64.6107V69.4842H64.6644C64.7584 69.229 64.9284 69.022 65.1746 68.8632C65.4208 68.7043 65.6982 68.6248 66.0071 68.6248C66.0652 68.6248 66.138 68.6259 66.2252 68.6282C66.3125 68.6304 66.3785 68.6338 66.4233 68.6383V69.4439C66.3964 69.4372 66.3349 69.4271 66.2387 69.4137C66.1447 69.398 66.0451 69.3902 65.9399 69.3902C65.6893 69.3902 65.4655 69.4428 65.2686 69.5479C65.0739 69.6509 64.9195 69.7941 64.8054 69.9776C64.6935 70.1589 64.6375 70.3659 64.6375 70.5986V73.8613H63.8453ZM67.3623 73.8613V68.7054H68.1545V73.8613H67.3623ZM67.7651 67.8461C67.6107 67.8461 67.4776 67.7935 67.3657 67.6883C67.256 67.5831 67.2012 67.4567 67.2012 67.309C67.2012 67.1613 67.256 67.0349 67.3657 66.9297C67.4776 66.8245 67.6107 66.7719 67.7651 66.7719C67.9196 66.7719 68.0516 66.8245 68.1612 66.9297C68.2731 67.0349 68.3291 67.1613 68.3291 67.309C68.3291 67.4567 68.2731 67.5831 68.1612 67.6883C68.0516 67.7935 67.9196 67.8461 67.7651 67.8461ZM69.6055 75.7948V68.7054H70.3708V69.5244H70.4648C70.523 69.4349 70.6035 69.3208 70.7065 69.182C70.8117 69.0411 70.9616 68.9157 71.1563 68.8061C71.3532 68.6942 71.6195 68.6383 71.9552 68.6383C72.3893 68.6383 72.772 68.7468 73.1032 68.9639C73.4344 69.1809 73.6929 69.4886 73.8786 69.887C74.0643 70.2853 74.1572 70.7552 74.1572 71.2968C74.1572 71.8428 74.0643 72.3161 73.8786 72.7167C73.6929 73.115 73.4355 73.4238 73.1065 73.6431C72.7776 73.8602 72.3983 73.9687 71.9686 73.9687C71.6374 73.9687 71.3722 73.9139 71.1731 73.8043C70.9739 73.6924 70.8206 73.5659 70.7132 73.425C70.6058 73.2817 70.523 73.1631 70.4648 73.0691H70.3977V75.7948H69.6055ZM70.3842 71.2834C70.3842 71.6727 70.4413 72.0162 70.5554 72.3139C70.6696 72.6093 70.8363 72.8409 71.0556 73.0087C71.2749 73.1743 71.5434 73.2571 71.8612 73.2571C72.1924 73.2571 72.4688 73.1698 72.6903 72.9953C72.9141 72.8185 73.0819 72.5813 73.1938 72.2837C73.308 71.9838 73.365 71.6504 73.365 71.2834C73.365 70.9208 73.3091 70.5941 73.1972 70.3032C73.0875 70.01 72.9208 69.7784 72.697 69.6083C72.4755 69.436 72.1969 69.3499 71.8612 69.3499C71.539 69.3499 71.2682 69.4316 71.0489 69.5949C70.8296 69.756 70.664 69.9821 70.5521 70.273C70.4402 70.5617 70.3842 70.8985 70.3842 71.2834ZM77.6079 68.7054V69.3767H74.936V68.7054H77.6079ZM75.7147 67.4701H76.5069V72.3844C76.5069 72.6081 76.5394 72.776 76.6043 72.8879C76.6714 72.9975 76.7564 73.0714 76.8594 73.1094C76.9645 73.1452 77.0753 73.1631 77.1917 73.1631C77.279 73.1631 77.3506 73.1587 77.4065 73.1497C77.4625 73.1385 77.5072 73.1296 77.5408 73.1228L77.7019 73.8345C77.6482 73.8546 77.5732 73.8748 77.477 73.8949C77.3808 73.9173 77.2588 73.9285 77.1111 73.9285C76.8873 73.9285 76.668 73.8803 76.4532 73.7841C76.2406 73.6879 76.0638 73.5413 75.9228 73.3444C75.7841 73.1475 75.7147 72.8991 75.7147 72.5992V67.4701ZM78.7996 73.8613V68.7054H79.5918V73.8613H78.7996ZM79.2024 67.8461C79.048 67.8461 78.9148 67.7935 78.8029 67.6883C78.6933 67.5831 78.6384 67.4567 78.6384 67.309C78.6384 67.1613 78.6933 67.0349 78.8029 66.9297C78.9148 66.8245 79.048 66.7719 79.2024 66.7719C79.3568 66.7719 79.4888 66.8245 79.5985 66.9297C79.7104 67.0349 79.7663 67.1613 79.7663 67.309C79.7663 67.4567 79.7104 67.5831 79.5985 67.6883C79.4888 67.7935 79.3568 67.8461 79.2024 67.8461ZM83.1373 73.9687C82.6718 73.9687 82.2634 73.858 81.9121 73.6364C81.563 73.4149 81.29 73.1049 81.0931 72.7066C80.8984 72.3083 80.801 71.8428 80.801 71.3102C80.801 70.7731 80.8984 70.3043 81.0931 69.9037C81.29 69.5032 81.563 69.1921 81.9121 68.9706C82.2634 68.749 82.6718 68.6383 83.1373 68.6383C83.6028 68.6383 84.0101 68.749 84.3592 68.9706C84.7105 69.1921 84.9835 69.5032 85.1782 69.9037C85.3751 70.3043 85.4736 70.7731 85.4736 71.3102C85.4736 71.8428 85.3751 72.3083 85.1782 72.7066C84.9835 73.1049 84.7105 73.4149 84.3592 73.6364C84.0101 73.858 83.6028 73.9687 83.1373 73.9687ZM83.1373 73.2571C83.4909 73.2571 83.7818 73.1665 84.0101 72.9852C84.2383 72.804 84.4073 72.5656 84.5169 72.2702C84.6266 71.9748 84.6814 71.6548 84.6814 71.3102C84.6814 70.9656 84.6266 70.6445 84.5169 70.3468C84.4073 70.0492 84.2383 69.8086 84.0101 69.6251C83.7818 69.4416 83.4909 69.3499 83.1373 69.3499C82.7837 69.3499 82.4928 69.4416 82.2646 69.6251C82.0363 69.8086 81.8673 70.0492 81.7577 70.3468C81.648 70.6445 81.5932 70.9656 81.5932 71.3102C81.5932 71.6548 81.648 71.9748 81.7577 72.2702C81.8673 72.5656 82.0363 72.804 82.2646 72.9852C82.4928 73.1665 82.7837 73.2571 83.1373 73.2571ZM87.475 70.7597V73.8613H86.6828V68.7054H87.4482V69.511H87.5153C87.6362 69.2492 87.8197 69.0388 88.0658 68.8799C88.312 68.7188 88.6298 68.6383 89.0191 68.6383C89.3682 68.6383 89.6737 68.7099 89.9355 68.8531C90.1973 68.9941 90.401 69.2089 90.5464 69.4976C90.6919 69.784 90.7646 70.1465 90.7646 70.5852V73.8613H89.9724V70.6389C89.9724 70.2338 89.8673 69.9183 89.6569 69.6923C89.4466 69.464 89.1579 69.3499 88.7909 69.3499C88.538 69.3499 88.312 69.4047 88.1128 69.5144C87.9159 69.624 87.7604 69.784 87.6462 69.9944C87.5321 70.2047 87.475 70.4598 87.475 70.7597ZM96.9654 73.9687C96.4999 73.9687 96.0915 73.858 95.7401 73.6364C95.391 73.4149 95.118 73.1049 94.9211 72.7066C94.7264 72.3083 94.6291 71.8428 94.6291 71.3102C94.6291 70.7731 94.7264 70.3043 94.9211 69.9037C95.118 69.5032 95.391 69.1921 95.7401 68.9706C96.0915 68.749 96.4999 68.6383 96.9654 68.6383C97.4308 68.6383 97.8381 68.749 98.1872 68.9706C98.5385 69.1921 98.8116 69.5032 99.0062 69.9037C99.2032 70.3043 99.3016 70.7731 99.3016 71.3102C99.3016 71.8428 99.2032 72.3083 99.0062 72.7066C98.8116 73.1049 98.5385 73.4149 98.1872 73.6364C97.8381 73.858 97.4308 73.9687 96.9654 73.9687ZM96.9654 73.2571C97.3189 73.2571 97.6098 73.1665 97.8381 72.9852C98.0664 72.804 98.2353 72.5656 98.345 72.2702C98.4546 71.9748 98.5095 71.6548 98.5095 71.3102C98.5095 70.9656 98.4546 70.6445 98.345 70.3468C98.2353 70.0492 98.0664 69.8086 97.8381 69.6251C97.6098 69.4416 97.3189 69.3499 96.9654 69.3499C96.6118 69.3499 96.3209 69.4416 96.0926 69.6251C95.8643 69.8086 95.6954 70.0492 95.5857 70.3468C95.4761 70.6445 95.4213 70.9656 95.4213 71.3102C95.4213 71.6548 95.4761 71.9748 95.5857 72.2702C95.6954 72.5656 95.8643 72.804 96.0926 72.9852C96.3209 73.1665 96.6118 73.2571 96.9654 73.2571ZM102.807 68.7054V69.3767H100.028V68.7054H102.807ZM100.86 73.8613V67.9938C100.86 67.6984 100.929 67.4522 101.068 67.2553C101.207 67.0584 101.387 66.9107 101.609 66.8122C101.83 66.7137 102.064 66.6645 102.31 66.6645C102.505 66.6645 102.664 66.6802 102.787 66.7115C102.91 66.7428 103.002 66.7719 103.062 66.7988L102.834 67.4835C102.793 67.4701 102.738 67.4533 102.666 67.4332C102.597 67.413 102.505 67.403 102.391 67.403C102.129 67.403 101.94 67.469 101.823 67.601C101.709 67.7331 101.652 67.9266 101.652 68.1817V73.8613H100.86ZM108.818 68.7054V69.3767H106.146V68.7054H108.818ZM106.925 67.4701H107.717V72.3844C107.717 72.6081 107.749 72.776 107.814 72.8879C107.881 72.9975 107.966 73.0714 108.069 73.1094C108.175 73.1452 108.285 73.1631 108.402 73.1631C108.489 73.1631 108.561 73.1587 108.617 73.1497C108.673 73.1385 108.717 73.1296 108.751 73.1228L108.912 73.8345C108.858 73.8546 108.783 73.8748 108.687 73.8949C108.591 73.9173 108.469 73.9285 108.321 73.9285C108.097 73.9285 107.878 73.8803 107.663 73.7841C107.451 73.6879 107.274 73.5413 107.133 73.3444C106.994 73.1475 106.925 72.8991 106.925 72.5992V67.4701ZM110.913 70.7597V73.8613H110.12V66.9867H110.913V69.511H110.98C111.101 69.2447 111.282 69.0332 111.524 68.8766C111.767 68.7177 112.092 68.6383 112.497 68.6383C112.848 68.6383 113.156 68.7087 113.42 68.8497C113.684 68.9885 113.889 69.2022 114.034 69.4909C114.182 69.7773 114.256 70.1421 114.256 70.5852V73.8613H113.464V70.6389C113.464 70.2293 113.357 69.9127 113.145 69.6889C112.934 69.4629 112.642 69.3499 112.269 69.3499C112.009 69.3499 111.776 69.4047 111.57 69.5144C111.367 69.624 111.206 69.784 111.087 69.9944C110.971 70.2047 110.913 70.4598 110.913 70.7597ZM117.867 73.9687C117.37 73.9687 116.942 73.8591 116.581 73.6398C116.223 73.4182 115.947 73.1094 115.752 72.7133C115.56 72.315 115.463 71.8518 115.463 71.3236C115.463 70.7955 115.56 70.33 115.752 69.9272C115.947 69.5222 116.218 69.2067 116.564 68.9806C116.914 68.7524 117.321 68.6383 117.786 68.6383C118.055 68.6383 118.32 68.683 118.582 68.7725C118.844 68.862 119.082 69.0075 119.297 69.2089C119.512 69.4081 119.683 69.6721 119.81 70.0011C119.938 70.33 120.002 70.7351 120.002 71.2162V71.5519H116.027V70.8671H119.196C119.196 70.5762 119.138 70.3166 119.022 70.0884C118.907 69.8601 118.744 69.68 118.532 69.5479C118.321 69.4159 118.073 69.3499 117.786 69.3499C117.471 69.3499 117.198 69.4282 116.967 69.5849C116.739 69.7393 116.563 69.9407 116.44 70.1891C116.317 70.4375 116.256 70.7038 116.256 70.988V71.4445C116.256 71.8339 116.323 72.1639 116.457 72.4347C116.594 72.7033 116.783 72.908 117.024 73.049C117.266 73.1877 117.547 73.2571 117.867 73.2571C118.075 73.2571 118.263 73.228 118.431 73.1698C118.601 73.1094 118.747 73.0199 118.871 72.9013C118.994 72.7805 119.089 72.6305 119.156 72.4515L119.921 72.6663C119.841 72.9259 119.705 73.1542 119.515 73.3511C119.325 73.5458 119.09 73.698 118.81 73.8076C118.53 73.915 118.216 73.9687 117.867 73.9687ZM123.865 73.8613V68.7054H124.658V73.8613H123.865ZM124.268 67.8461C124.114 67.8461 123.981 67.7935 123.869 67.6883C123.759 67.5831 123.704 67.4567 123.704 67.309C123.704 67.1613 123.759 67.0349 123.869 66.9297C123.981 66.8245 124.114 66.7719 124.268 66.7719C124.423 66.7719 124.555 66.8245 124.664 66.9297C124.776 67.0349 124.832 67.1613 124.832 67.309C124.832 67.4567 124.776 67.5831 124.664 67.6883C124.555 67.7935 124.423 67.8461 124.268 67.8461ZM128.351 68.7054V69.3767H125.679V68.7054H128.351ZM126.458 67.4701H127.25V72.3844C127.25 72.6081 127.282 72.776 127.347 72.8879C127.414 72.9975 127.499 73.0714 127.602 73.1094C127.707 73.1452 127.818 73.1631 127.935 73.1631C128.022 73.1631 128.093 73.1587 128.149 73.1497C128.205 73.1385 128.25 73.1296 128.284 73.1228L128.445 73.8345C128.391 73.8546 128.316 73.8748 128.22 73.8949C128.124 73.9173 128.002 73.9285 127.854 73.9285C127.63 73.9285 127.411 73.8803 127.196 73.7841C126.983 73.6879 126.807 73.5413 126.666 73.3444C126.527 73.1475 126.458 72.8991 126.458 72.5992V67.4701ZM131.649 73.9687C131.152 73.9687 130.723 73.8591 130.363 73.6398C130.005 73.4182 129.729 73.1094 129.534 72.7133C129.342 72.315 129.245 71.8518 129.245 71.3236C129.245 70.7955 129.342 70.33 129.534 69.9272C129.729 69.5222 130 69.2067 130.346 68.9806C130.695 68.7524 131.103 68.6383 131.568 68.6383C131.837 68.6383 132.102 68.683 132.364 68.7725C132.626 68.862 132.864 69.0075 133.079 69.2089C133.294 69.4081 133.465 69.6721 133.592 70.0011C133.72 70.33 133.784 70.7351 133.784 71.2162V71.5519H129.809V70.8671H132.978C132.978 70.5762 132.92 70.3166 132.803 70.0884C132.689 69.8601 132.526 69.68 132.313 69.5479C132.103 69.4159 131.855 69.3499 131.568 69.3499C131.253 69.3499 130.98 69.4282 130.749 69.5849C130.521 69.7393 130.345 69.9407 130.222 70.1891C130.099 70.4375 130.038 70.7038 130.038 70.988V71.4445C130.038 71.8339 130.105 72.1639 130.239 72.4347C130.375 72.7033 130.565 72.908 130.806 73.049C131.048 73.1877 131.329 73.2571 131.649 73.2571C131.857 73.2571 132.045 73.228 132.213 73.1698C132.383 73.1094 132.529 73.0199 132.652 72.9013C132.776 72.7805 132.871 72.6305 132.938 72.4515L133.703 72.6663C133.623 72.9259 133.487 73.1542 133.297 73.3511C133.107 73.5458 132.872 73.698 132.592 73.8076C132.312 73.915 131.998 73.9687 131.649 73.9687ZM134.989 73.8613V68.7054H135.754V69.511H135.821C135.929 69.2358 136.102 69.022 136.341 68.8699C136.581 68.7155 136.869 68.6383 137.204 68.6383C137.544 68.6383 137.827 68.7155 138.053 68.8699C138.282 69.022 138.46 69.2358 138.587 69.511H138.641C138.773 69.2447 138.971 69.0332 139.235 68.8766C139.499 68.7177 139.816 68.6383 140.185 68.6383C140.646 68.6383 141.023 68.7826 141.316 69.0713C141.609 69.3577 141.756 69.8042 141.756 70.4106V73.8613H140.964V70.4106C140.964 70.0302 140.86 69.7583 140.652 69.5949C140.443 69.4316 140.198 69.3499 139.916 69.3499C139.554 69.3499 139.273 69.4595 139.074 69.6788C138.875 69.8959 138.775 70.1712 138.775 70.5046V73.8613H137.97V70.33C137.97 70.0369 137.874 69.8008 137.684 69.6218C137.494 69.4405 137.249 69.3499 136.949 69.3499C136.743 69.3499 136.551 69.4047 136.372 69.5144C136.195 69.624 136.052 69.7762 135.942 69.9709C135.835 70.1633 135.781 70.386 135.781 70.6389V73.8613H134.989Z" fill="#627A84"/>
<path d="M170.552 73.8613H168.431V66.9867H170.646C171.313 66.9867 171.884 67.1244 172.358 67.3996C172.833 67.6726 173.196 68.0654 173.449 68.5778C173.702 69.0881 173.829 69.699 173.829 70.4106C173.829 71.1267 173.701 71.7432 173.446 72.2602C173.191 72.7749 172.819 73.171 172.332 73.4485C171.844 73.7237 171.251 73.8613 170.552 73.8613ZM169.263 73.1228H170.499C171.067 73.1228 171.538 73.0132 171.912 72.7939C172.286 72.5746 172.564 72.2624 172.748 71.8574C172.931 71.4523 173.023 70.9701 173.023 70.4106C173.023 69.8556 172.932 69.3779 172.751 68.9773C172.57 68.5745 172.299 68.2657 171.939 68.0508C171.578 67.8338 171.13 67.7252 170.593 67.7252H169.263V73.1228ZM177.279 73.9687C176.783 73.9687 176.354 73.8591 175.994 73.6398C175.636 73.4182 175.359 73.1094 175.165 72.7133C174.972 72.315 174.876 71.8518 174.876 71.3236C174.876 70.7955 174.972 70.33 175.165 69.9272C175.359 69.5222 175.63 69.2067 175.977 68.9806C176.326 68.7524 176.733 68.6383 177.199 68.6383C177.467 68.6383 177.732 68.683 177.994 68.7725C178.256 68.862 178.494 69.0075 178.709 69.2089C178.924 69.4081 179.095 69.6721 179.223 70.0011C179.35 70.33 179.414 70.7351 179.414 71.2162V71.5519H175.44V70.8671H178.609C178.609 70.5762 178.55 70.3166 178.434 70.0884C178.32 69.8601 178.157 69.68 177.944 69.5479C177.734 69.4159 177.485 69.3499 177.199 69.3499C176.883 69.3499 176.61 69.4282 176.38 69.5849C176.151 69.7393 175.976 69.9407 175.853 70.1891C175.73 70.4375 175.668 70.7038 175.668 70.988V71.4445C175.668 71.8339 175.735 72.1639 175.869 72.4347C176.006 72.7033 176.195 72.908 176.437 73.049C176.678 73.1877 176.959 73.2571 177.279 73.2571C177.487 73.2571 177.675 73.228 177.843 73.1698C178.013 73.1094 178.16 73.0199 178.283 72.9013C178.406 72.7805 178.501 72.6305 178.568 72.4515L179.334 72.6663C179.253 72.9259 179.118 73.1542 178.927 73.3511C178.737 73.5458 178.502 73.698 178.223 73.8076C177.943 73.915 177.628 73.9687 177.279 73.9687ZM182.862 68.7054V69.3767H180.19V68.7054H182.862ZM180.968 67.4701H181.761V72.3844C181.761 72.6081 181.793 72.776 181.858 72.8879C181.925 72.9975 182.01 73.0714 182.113 73.1094C182.218 73.1452 182.329 73.1631 182.445 73.1631C182.533 73.1631 182.604 73.1587 182.66 73.1497C182.716 73.1385 182.761 73.1296 182.794 73.1228L182.956 73.8345C182.902 73.8546 182.827 73.8748 182.731 73.8949C182.634 73.9173 182.512 73.9285 182.365 73.9285C182.141 73.9285 181.922 73.8803 181.707 73.7841C181.494 73.6879 181.317 73.5413 181.176 73.3444C181.038 73.1475 180.968 72.8991 180.968 72.5992V67.4701ZM185.57 73.9822C185.244 73.9822 184.947 73.9206 184.681 73.7976C184.415 73.6722 184.203 73.4921 184.046 73.2571C183.89 73.0199 183.812 72.7335 183.812 72.3978C183.812 72.1024 183.87 71.863 183.986 71.6795C184.102 71.4937 184.258 71.3483 184.453 71.2431C184.647 71.1379 184.862 71.0596 185.097 71.0081C185.334 70.9544 185.573 70.9119 185.812 70.8806C186.125 70.8403 186.379 70.8101 186.574 70.7899C186.771 70.7675 186.914 70.7306 187.004 70.6791C187.096 70.6277 187.141 70.5382 187.141 70.4106V70.3838C187.141 70.0526 187.051 69.7952 186.87 69.6117C186.69 69.4282 186.419 69.3365 186.054 69.3365C185.676 69.3365 185.379 69.4193 185.164 69.5849C184.949 69.7505 184.798 69.9272 184.711 70.1152L183.959 69.8467C184.093 69.5334 184.273 69.2895 184.496 69.1149C184.722 68.9381 184.968 68.815 185.235 68.7457C185.503 68.6741 185.767 68.6383 186.027 68.6383C186.193 68.6383 186.383 68.6584 186.598 68.6987C186.815 68.7367 187.024 68.8162 187.225 68.937C187.429 69.0578 187.598 69.2402 187.732 69.4842C187.866 69.7281 187.934 70.0548 187.934 70.4643V73.8613H187.141V73.1631H187.101C187.047 73.275 186.958 73.3947 186.833 73.5223C186.707 73.6499 186.541 73.7584 186.332 73.8479C186.124 73.9374 185.87 73.9822 185.57 73.9822ZM185.691 73.2705C186.005 73.2705 186.269 73.209 186.483 73.0859C186.701 72.9628 186.864 72.804 186.974 72.6093C187.085 72.4146 187.141 72.2098 187.141 71.995V71.2699C187.108 71.3102 187.034 71.3471 186.92 71.3807C186.808 71.412 186.678 71.44 186.53 71.4646C186.385 71.487 186.243 71.5071 186.104 71.525C185.968 71.5407 185.857 71.5541 185.772 71.5653C185.566 71.5922 185.374 71.6358 185.194 71.6962C185.018 71.7544 184.874 71.8428 184.765 71.9614C184.657 72.0778 184.604 72.2367 184.604 72.4381C184.604 72.7133 184.706 72.9214 184.909 73.0624C185.115 73.2012 185.376 73.2705 185.691 73.2705ZM189.38 73.8613V68.7054H190.172V73.8613H189.38ZM189.782 67.8461C189.628 67.8461 189.495 67.7935 189.383 67.6883C189.273 67.5831 189.218 67.4567 189.218 67.309C189.218 67.1613 189.273 67.0349 189.383 66.9297C189.495 66.8245 189.628 66.7719 189.782 66.7719C189.937 66.7719 190.069 66.8245 190.178 66.9297C190.29 67.0349 190.346 67.1613 190.346 67.309C190.346 67.4567 190.29 67.5831 190.178 67.6883C190.069 67.7935 189.937 67.8461 189.782 67.8461ZM192.415 66.9867V73.8613H191.623V66.9867H192.415ZM197.518 69.8601L196.806 70.0615C196.762 69.9429 196.695 69.8277 196.608 69.7158C196.523 69.6016 196.407 69.5076 196.259 69.4338C196.111 69.36 195.922 69.323 195.692 69.323C195.376 69.323 195.113 69.3958 194.903 69.5412C194.695 69.6844 194.591 69.8668 194.591 70.0884C194.591 70.2853 194.662 70.4408 194.806 70.5549C194.949 70.6691 195.173 70.7642 195.477 70.8403L196.242 71.0282C196.703 71.1401 197.047 71.3113 197.273 71.5418C197.499 71.7701 197.612 72.0644 197.612 72.4246C197.612 72.72 197.527 72.9841 197.357 73.2168C197.189 73.4496 196.954 73.6331 196.652 73.7673C196.35 73.9016 195.998 73.9687 195.598 73.9687C195.072 73.9687 194.637 73.8546 194.292 73.6264C193.947 73.3981 193.729 73.0647 193.638 72.6261L194.389 72.4381C194.461 72.7156 194.596 72.9237 194.796 73.0624C194.997 73.2012 195.26 73.2705 195.584 73.2705C195.954 73.2705 196.247 73.1922 196.464 73.0356C196.683 72.8767 196.793 72.6865 196.793 72.4649C196.793 72.2859 196.73 72.136 196.605 72.0151C196.48 71.892 196.287 71.8003 196.028 71.7399L195.168 71.5385C194.696 71.4266 194.349 71.2531 194.128 71.0182C193.908 70.781 193.799 70.4845 193.799 70.1286C193.799 69.8377 193.88 69.5804 194.044 69.3566C194.209 69.1328 194.434 68.9571 194.718 68.8296C195.005 68.702 195.329 68.6383 195.692 68.6383C196.202 68.6383 196.603 68.7501 196.894 68.9739C197.187 69.1977 197.395 69.4931 197.518 69.8601Z" fill="#233D48"/>
<g clip-path="url(#clip2_4_5759)">
<rect x="19" y="81.8942" width="184.763" height="0.675183" fill="#DADFE2"/>
</g>
<path d="M42.2708 89.7896V96.6642H41.4383V89.7896H42.2708ZM46.0748 91.5082V92.1796H43.4028V91.5082H46.0748ZM44.1816 90.273H44.9738V95.1872C44.9738 95.411 45.0062 95.5788 45.0711 95.6907C45.1383 95.8004 45.2233 95.8742 45.3262 95.9123C45.4314 95.9481 45.5422 95.966 45.6586 95.966C45.7458 95.966 45.8174 95.9615 45.8734 95.9526C45.9293 95.9414 45.9741 95.9324 46.0077 95.9257L46.1688 96.6373C46.1151 96.6575 46.0401 96.6776 45.9439 96.6978C45.8477 96.7201 45.7257 96.7313 45.578 96.7313C45.3542 96.7313 45.1349 96.6832 44.9201 96.587C44.7075 96.4908 44.5307 96.3442 44.3897 96.1472C44.251 95.9503 44.1816 95.7019 44.1816 95.4021V90.273ZM49.3728 96.7716C48.876 96.7716 48.4474 96.6619 48.0871 96.4426C47.7291 96.2211 47.4527 95.9123 47.258 95.5162C47.0656 95.1179 46.9694 94.6546 46.9694 94.1265C46.9694 93.5984 47.0656 93.1329 47.258 92.7301C47.4527 92.325 47.7235 92.0095 48.0704 91.7835C48.4195 91.5552 48.8267 91.4411 49.2922 91.4411C49.5608 91.4411 49.8259 91.4859 50.0878 91.5754C50.3496 91.6649 50.5879 91.8104 50.8027 92.0118C51.0176 92.2109 51.1888 92.475 51.3163 92.8039C51.4439 93.1329 51.5077 93.5379 51.5077 94.0191V94.3548H47.5333V93.67H50.702C50.702 93.3791 50.6439 93.1195 50.5275 92.8912C50.4134 92.663 50.25 92.4828 50.0374 92.3508C49.8271 92.2188 49.5787 92.1527 49.2922 92.1527C48.9767 92.1527 48.7037 92.2311 48.4732 92.3877C48.2449 92.5421 48.0692 92.7435 47.9462 92.9919C47.8231 93.2403 47.7615 93.5066 47.7615 93.7908V94.2473C47.7615 94.6367 47.8287 94.9668 47.963 95.2376C48.0995 95.5061 48.2886 95.7109 48.5302 95.8519C48.7719 95.9906 49.0528 96.06 49.3728 96.06C49.5809 96.06 49.7689 96.0309 49.9367 95.9727C50.1068 95.9123 50.2534 95.8228 50.3764 95.7042C50.4995 95.5833 50.5946 95.4334 50.6618 95.2544L51.4271 95.4692C51.3465 95.7288 51.2111 95.957 51.0209 96.154C50.8307 96.3487 50.5957 96.5008 50.316 96.6105C50.0363 96.7179 49.7219 96.7716 49.3728 96.7716ZM52.7127 96.6642V91.5082H53.4781V92.3139H53.5452C53.6526 92.0386 53.826 91.8249 54.0655 91.6727C54.3049 91.5183 54.5925 91.4411 54.9282 91.4411C55.2683 91.4411 55.5514 91.5183 55.7774 91.6727C56.0057 91.8249 56.1836 92.0386 56.3111 92.3139H56.3648C56.4969 92.0476 56.6949 91.8361 56.959 91.6794C57.2231 91.5206 57.5397 91.4411 57.9089 91.4411C58.3699 91.4411 58.747 91.5854 59.0402 91.8741C59.3333 92.1606 59.4799 92.607 59.4799 93.2135V96.6642H58.6877V93.2135C58.6877 92.833 58.5836 92.5611 58.3755 92.3978C58.1674 92.2344 57.9224 92.1527 57.6404 92.1527C57.2779 92.1527 56.997 92.2624 56.7979 92.4817C56.5987 92.6988 56.4991 92.974 56.4991 93.3075V96.6642H55.6935V93.1329C55.6935 92.8397 55.5984 92.6037 55.4082 92.4246C55.218 92.2434 54.9729 92.1527 54.6731 92.1527C54.4672 92.1527 54.2747 92.2076 54.0957 92.3172C53.9189 92.4269 53.7757 92.579 53.666 92.7737C53.5586 92.9662 53.5049 93.1888 53.5049 93.4417V96.6642H52.7127ZM65.8292 91.5082V92.1796H63.1572V91.5082H65.8292ZM63.936 90.273H64.7281V95.1872C64.7281 95.411 64.7606 95.5788 64.8255 95.6907C64.8926 95.8004 64.9777 95.8742 65.0806 95.9123C65.1858 95.9481 65.2966 95.966 65.4129 95.966C65.5002 95.966 65.5718 95.9615 65.6277 95.9526C65.6837 95.9414 65.7285 95.9324 65.762 95.9257L65.9231 96.6373C65.8694 96.6575 65.7945 96.6776 65.6982 96.6978C65.602 96.7201 65.4801 96.7313 65.3324 96.7313C65.1086 96.7313 64.8893 96.6832 64.6744 96.587C64.4618 96.4908 64.2851 96.3442 64.1441 96.1472C64.0053 95.9503 63.936 95.7019 63.936 95.4021V90.273ZM67.0208 96.6642V91.5082H67.813V96.6642H67.0208ZM67.4236 90.6489C67.2692 90.6489 67.136 90.5963 67.0241 90.4912C66.9145 90.386 66.8597 90.2595 66.8597 90.1118C66.8597 89.9641 66.9145 89.8377 67.0241 89.7325C67.136 89.6274 67.2692 89.5748 67.4236 89.5748C67.578 89.5748 67.71 89.6274 67.8197 89.7325C67.9316 89.8377 67.9875 89.9641 67.9875 90.1118C67.9875 90.2595 67.9316 90.386 67.8197 90.4912C67.71 90.5963 67.578 90.6489 67.4236 90.6489ZM71.5062 91.5082V92.1796H68.8343V91.5082H71.5062ZM69.613 90.273H70.4052V95.1872C70.4052 95.411 70.4377 95.5788 70.5026 95.6907C70.5697 95.8004 70.6547 95.8742 70.7577 95.9123C70.8629 95.9481 70.9736 95.966 71.09 95.966C71.1773 95.966 71.2489 95.9615 71.3048 95.9526C71.3608 95.9414 71.4055 95.9324 71.4391 95.9257L71.6002 96.6373C71.5465 96.6575 71.4715 96.6776 71.3753 96.6978C71.2791 96.7201 71.1571 96.7313 71.0094 96.7313C70.7856 96.7313 70.5663 96.6832 70.3515 96.587C70.1389 96.4908 69.9621 96.3442 69.8211 96.1472C69.6824 95.9503 69.613 95.7019 69.613 95.4021V90.273ZM73.6008 89.7896V96.6642H72.8086V89.7896H73.6008ZM77.2135 96.7716C76.7167 96.7716 76.2882 96.6619 75.9279 96.4426C75.5698 96.2211 75.2935 95.9123 75.0988 95.5162C74.9063 95.1179 74.8101 94.6546 74.8101 94.1265C74.8101 93.5984 74.9063 93.1329 75.0988 92.7301C75.2935 92.325 75.5642 92.0095 75.9111 91.7835C76.2602 91.5552 76.6675 91.4411 77.1329 91.4411C77.4015 91.4411 77.6667 91.4859 77.9285 91.5754C78.1903 91.6649 78.4286 91.8104 78.6435 92.0118C78.8583 92.2109 79.0295 92.475 79.1571 92.8039C79.2846 93.1329 79.3484 93.5379 79.3484 94.0191V94.3548H75.374V93.67H78.5428C78.5428 93.3791 78.4846 93.1195 78.3682 92.8912C78.2541 92.663 78.0907 92.4828 77.8781 92.3508C77.6678 92.2188 77.4194 92.1527 77.1329 92.1527C76.8174 92.1527 76.5444 92.2311 76.3139 92.3877C76.0856 92.5421 75.91 92.7435 75.7869 92.9919C75.6638 93.2403 75.6023 93.5066 75.6023 93.7908V94.2473C75.6023 94.6367 75.6694 94.9668 75.8037 95.2376C75.9402 95.5061 76.1293 95.7109 76.371 95.8519C76.6127 95.9906 76.8935 96.06 77.2135 96.06C77.4216 96.06 77.6096 96.0309 77.7774 95.9727C77.9475 95.9123 78.0941 95.8228 78.2172 95.7042C78.3402 95.5833 78.4354 95.4334 78.5025 95.2544L79.2678 95.4692C79.1873 95.7288 79.0519 95.957 78.8617 96.154C78.6714 96.3487 78.4365 96.5008 78.1567 96.6105C77.877 96.7179 77.5626 96.7716 77.2135 96.7716Z" fill="#233D48"/>
<path d="M43.5598 108.664H41.4383V101.79H43.6537C44.3206 101.79 44.8913 101.927 45.3657 102.202C45.8401 102.475 46.2037 102.868 46.4566 103.381C46.7095 103.891 46.8359 104.502 46.8359 105.213C46.8359 105.93 46.7084 106.546 46.4533 107.063C46.1981 107.578 45.8267 107.974 45.3388 108.251C44.851 108.527 44.258 108.664 43.5598 108.664ZM42.2708 107.926H43.5061C44.0745 107.926 44.5455 107.816 44.9192 107.597C45.293 107.377 45.5716 107.065 45.7551 106.66C45.9386 106.255 46.0303 105.773 46.0303 105.213C46.0303 104.658 45.9397 104.181 45.7584 103.78C45.5772 103.377 45.3064 103.069 44.9461 102.854C44.5858 102.637 44.1371 102.528 43.6 102.528H42.2708V107.926ZM50.2866 108.772C49.7899 108.772 49.3613 108.662 49.001 108.443C48.643 108.221 48.3666 107.912 48.1719 107.516C47.9795 107.118 47.8832 106.655 47.8832 106.126C47.8832 105.598 47.9795 105.133 48.1719 104.73C48.3666 104.325 48.6374 104.01 48.9842 103.783C49.3333 103.555 49.7406 103.441 50.2061 103.441C50.4746 103.441 50.7398 103.486 51.0016 103.575C51.2635 103.665 51.5018 103.81 51.7166 104.012C51.9314 104.211 52.1026 104.475 52.2302 104.804C52.3578 105.133 52.4215 105.538 52.4215 106.019V106.355H48.4472V105.67H51.6159C51.6159 105.379 51.5577 105.119 51.4414 104.891C51.3272 104.663 51.1639 104.483 50.9513 104.351C50.7409 104.219 50.4925 104.153 50.2061 104.153C49.8906 104.153 49.6175 104.231 49.387 104.388C49.1588 104.542 48.9831 104.744 48.86 104.992C48.737 105.24 48.6754 105.507 48.6754 105.791V106.247C48.6754 106.637 48.7426 106.967 48.8768 107.238C49.0133 107.506 49.2024 107.711 49.4441 107.852C49.6858 107.991 49.9666 108.06 50.2866 108.06C50.4948 108.06 50.6827 108.031 50.8506 107.973C51.0207 107.912 51.1672 107.823 51.2903 107.704C51.4134 107.583 51.5085 107.433 51.5756 107.254L52.341 107.469C52.2604 107.729 52.125 107.957 51.9348 108.154C51.7446 108.349 51.5096 108.501 51.2299 108.61C50.9502 108.718 50.6357 108.772 50.2866 108.772ZM57.2787 104.663L56.5671 104.864C56.5223 104.746 56.4563 104.631 56.369 104.519C56.284 104.404 56.1676 104.311 56.0199 104.237C55.8723 104.163 55.6832 104.126 55.4527 104.126C55.1371 104.126 54.8742 104.199 54.6638 104.344C54.4557 104.487 54.3517 104.67 54.3517 104.891C54.3517 105.088 54.4233 105.244 54.5665 105.358C54.7097 105.472 54.9335 105.567 55.2378 105.643L56.0032 105.831C56.4642 105.943 56.8077 106.114 57.0337 106.345C57.2597 106.573 57.3727 106.867 57.3727 107.228C57.3727 107.523 57.2877 107.787 57.1176 108.02C56.9498 108.252 56.7148 108.436 56.4127 108.57C56.1106 108.704 55.7592 108.772 55.3587 108.772C54.8328 108.772 54.3975 108.657 54.0529 108.429C53.7083 108.201 53.4901 107.868 53.3983 107.429L54.1502 107.241C54.2219 107.518 54.3572 107.727 54.5564 107.865C54.7578 108.004 55.0208 108.073 55.3452 108.073C55.7145 108.073 56.0076 107.995 56.2247 107.838C56.444 107.68 56.5537 107.489 56.5537 107.268C56.5537 107.089 56.491 106.939 56.3657 106.818C56.2404 106.695 56.0479 106.603 55.7883 106.543L54.929 106.341C54.4568 106.229 54.11 106.056 53.8884 105.821C53.6691 105.584 53.5595 105.287 53.5595 104.931C53.5595 104.641 53.6411 104.383 53.8045 104.159C53.9701 103.936 54.195 103.76 54.4792 103.632C54.7656 103.505 55.0901 103.441 55.4527 103.441C55.9629 103.441 56.3635 103.553 56.6544 103.777C56.9475 104.001 57.1556 104.296 57.2787 104.663ZM60.6598 108.772C60.1764 108.772 59.7602 108.657 59.4111 108.429C59.062 108.201 58.7934 107.887 58.6055 107.486C58.4175 107.085 58.3235 106.628 58.3235 106.113C58.3235 105.589 58.4197 105.127 58.6122 104.727C58.8069 104.324 59.0776 104.01 59.4245 103.783C59.7736 103.555 60.1809 103.441 60.6464 103.441C61.0089 103.441 61.3356 103.508 61.6265 103.643C61.9174 103.777 62.1558 103.965 62.3415 104.206C62.5272 104.448 62.6425 104.73 62.6873 105.052H61.8951C61.8346 104.817 61.7004 104.609 61.4923 104.428C61.2864 104.244 61.0089 104.153 60.6598 104.153C60.351 104.153 60.0802 104.233 59.8475 104.394C59.617 104.553 59.4368 104.778 59.307 105.069C59.1795 105.358 59.1157 105.697 59.1157 106.086C59.1157 106.485 59.1784 106.831 59.3037 107.127C59.4312 107.422 59.6103 107.652 59.8407 107.815C60.0735 107.978 60.3465 108.06 60.6598 108.06C60.8657 108.06 61.0525 108.024 61.2204 107.953C61.3882 107.881 61.5303 107.778 61.6467 107.644C61.763 107.509 61.8458 107.348 61.8951 107.16H62.6873C62.6425 107.465 62.5317 107.739 62.3549 107.983C62.1804 108.224 61.9488 108.417 61.6601 108.56C61.3737 108.701 61.0402 108.772 60.6598 108.772ZM63.8453 108.664V103.508H64.6107V104.287H64.6644C64.7584 104.032 64.9284 103.825 65.1746 103.666C65.4208 103.507 65.6982 103.428 66.0071 103.428C66.0652 103.428 66.138 103.429 66.2252 103.431C66.3125 103.433 66.3785 103.437 66.4233 103.441V104.247C66.3964 104.24 66.3349 104.23 66.2387 104.217C66.1447 104.201 66.0451 104.193 65.9399 104.193C65.6893 104.193 65.4655 104.246 65.2686 104.351C65.0739 104.454 64.9195 104.597 64.8054 104.78C64.6935 104.962 64.6375 105.169 64.6375 105.401V108.664H63.8453ZM67.3623 108.664V103.508H68.1545V108.664H67.3623ZM67.7651 102.649C67.6107 102.649 67.4776 102.596 67.3657 102.491C67.256 102.386 67.2012 102.26 67.2012 102.112C67.2012 101.964 67.256 101.838 67.3657 101.733C67.4776 101.627 67.6107 101.575 67.7651 101.575C67.9196 101.575 68.0516 101.627 68.1612 101.733C68.2731 101.838 68.3291 101.964 68.3291 102.112C68.3291 102.26 68.2731 102.386 68.1612 102.491C68.0516 102.596 67.9196 102.649 67.7651 102.649ZM69.6055 110.598V103.508H70.3708V104.327H70.4648C70.523 104.238 70.6035 104.124 70.7065 103.985C70.8117 103.844 70.9616 103.719 71.1563 103.609C71.3532 103.497 71.6195 103.441 71.9552 103.441C72.3893 103.441 72.772 103.55 73.1032 103.767C73.4344 103.984 73.6929 104.291 73.8786 104.69C74.0643 105.088 74.1572 105.558 74.1572 106.1C74.1572 106.646 74.0643 107.119 73.8786 107.52C73.6929 107.918 73.4355 108.227 73.1065 108.446C72.7776 108.663 72.3983 108.772 71.9686 108.772C71.6374 108.772 71.3722 108.717 71.1731 108.607C70.9739 108.495 70.8206 108.369 70.7132 108.228C70.6058 108.085 70.523 107.966 70.4648 107.872H70.3977V110.598H69.6055ZM70.3842 106.086C70.3842 106.476 70.4413 106.819 70.5554 107.117C70.6696 107.412 70.8363 107.644 71.0556 107.812C71.2749 107.977 71.5434 108.06 71.8612 108.06C72.1924 108.06 72.4688 107.973 72.6903 107.798C72.9141 107.621 73.0819 107.384 73.1938 107.087C73.308 106.787 73.365 106.453 73.365 106.086C73.365 105.724 73.3091 105.397 73.1972 105.106C73.0875 104.813 72.9208 104.581 72.697 104.411C72.4755 104.239 72.1969 104.153 71.8612 104.153C71.539 104.153 71.2682 104.234 71.0489 104.398C70.8296 104.559 70.664 104.785 70.5521 105.076C70.4402 105.365 70.3842 105.701 70.3842 106.086ZM77.6079 103.508V104.18H74.936V103.508H77.6079ZM75.7147 102.273H76.5069V107.187C76.5069 107.411 76.5394 107.579 76.6043 107.691C76.6714 107.8 76.7564 107.874 76.8594 107.912C76.9645 107.948 77.0753 107.966 77.1917 107.966C77.279 107.966 77.3506 107.962 77.4065 107.953C77.4625 107.941 77.5072 107.932 77.5408 107.926L77.7019 108.637C77.6482 108.657 77.5732 108.678 77.477 108.698C77.3808 108.72 77.2588 108.731 77.1111 108.731C76.8873 108.731 76.668 108.683 76.4532 108.587C76.2406 108.491 76.0638 108.344 75.9228 108.147C75.7841 107.95 75.7147 107.702 75.7147 107.402V102.273ZM78.7996 108.664V103.508H79.5918V108.664H78.7996ZM79.2024 102.649C79.048 102.649 78.9148 102.596 78.8029 102.491C78.6933 102.386 78.6384 102.26 78.6384 102.112C78.6384 101.964 78.6933 101.838 78.8029 101.733C78.9148 101.627 79.048 101.575 79.2024 101.575C79.3568 101.575 79.4888 101.627 79.5985 101.733C79.7104 101.838 79.7663 101.964 79.7663 102.112C79.7663 102.26 79.7104 102.386 79.5985 102.491C79.4888 102.596 79.3568 102.649 79.2024 102.649ZM83.1373 108.772C82.6718 108.772 82.2634 108.661 81.9121 108.439C81.563 108.218 81.29 107.908 81.0931 107.509C80.8984 107.111 80.801 106.646 80.801 106.113C80.801 105.576 80.8984 105.107 81.0931 104.707C81.29 104.306 81.563 103.995 81.9121 103.773C82.2634 103.552 82.6718 103.441 83.1373 103.441C83.6028 103.441 84.0101 103.552 84.3592 103.773C84.7105 103.995 84.9835 104.306 85.1782 104.707C85.3751 105.107 85.4736 105.576 85.4736 106.113C85.4736 106.646 85.3751 107.111 85.1782 107.509C84.9835 107.908 84.7105 108.218 84.3592 108.439C84.0101 108.661 83.6028 108.772 83.1373 108.772ZM83.1373 108.06C83.4909 108.06 83.7818 107.969 84.0101 107.788C84.2383 107.607 84.4073 107.368 84.5169 107.073C84.6266 106.778 84.6814 106.458 84.6814 106.113C84.6814 105.768 84.6266 105.447 84.5169 105.15C84.4073 104.852 84.2383 104.611 84.0101 104.428C83.7818 104.244 83.4909 104.153 83.1373 104.153C82.7837 104.153 82.4928 104.244 82.2646 104.428C82.0363 104.611 81.8673 104.852 81.7577 105.15C81.648 105.447 81.5932 105.768 81.5932 106.113C81.5932 106.458 81.648 106.778 81.7577 107.073C81.8673 107.368 82.0363 107.607 82.2646 107.788C82.4928 107.969 82.7837 108.06 83.1373 108.06ZM87.475 105.563V108.664H86.6828V103.508H87.4482V104.314H87.5153C87.6362 104.052 87.8197 103.842 88.0658 103.683C88.312 103.522 88.6298 103.441 89.0191 103.441C89.3682 103.441 89.6737 103.513 89.9355 103.656C90.1973 103.797 90.401 104.012 90.5464 104.3C90.6919 104.587 90.7646 104.949 90.7646 105.388V108.664H89.9724V105.442C89.9724 105.037 89.8673 104.721 89.6569 104.495C89.4466 104.267 89.1579 104.153 88.7909 104.153C88.538 104.153 88.312 104.208 88.1128 104.317C87.9159 104.427 87.7604 104.587 87.6462 104.797C87.5321 105.008 87.475 105.263 87.475 105.563ZM96.9654 108.772C96.4999 108.772 96.0915 108.661 95.7401 108.439C95.391 108.218 95.118 107.908 94.9211 107.509C94.7264 107.111 94.6291 106.646 94.6291 106.113C94.6291 105.576 94.7264 105.107 94.9211 104.707C95.118 104.306 95.391 103.995 95.7401 103.773C96.0915 103.552 96.4999 103.441 96.9654 103.441C97.4308 103.441 97.8381 103.552 98.1872 103.773C98.5385 103.995 98.8116 104.306 99.0062 104.707C99.2032 105.107 99.3016 105.576 99.3016 106.113C99.3016 106.646 99.2032 107.111 99.0062 107.509C98.8116 107.908 98.5385 108.218 98.1872 108.439C97.8381 108.661 97.4308 108.772 96.9654 108.772ZM96.9654 108.06C97.3189 108.06 97.6098 107.969 97.8381 107.788C98.0664 107.607 98.2353 107.368 98.345 107.073C98.4546 106.778 98.5095 106.458 98.5095 106.113C98.5095 105.768 98.4546 105.447 98.345 105.15C98.2353 104.852 98.0664 104.611 97.8381 104.428C97.6098 104.244 97.3189 104.153 96.9654 104.153C96.6118 104.153 96.3209 104.244 96.0926 104.428C95.8643 104.611 95.6954 104.852 95.5857 105.15C95.4761 105.447 95.4213 105.768 95.4213 106.113C95.4213 106.458 95.4761 106.778 95.5857 107.073C95.6954 107.368 95.8643 107.607 96.0926 107.788C96.3209 107.969 96.6118 108.06 96.9654 108.06ZM102.807 103.508V104.18H100.028V103.508H102.807ZM100.86 108.664V102.797C100.86 102.501 100.929 102.255 101.068 102.058C101.207 101.861 101.387 101.714 101.609 101.615C101.83 101.517 102.064 101.467 102.31 101.467C102.505 101.467 102.664 101.483 102.787 101.514C102.91 101.546 103.002 101.575 103.062 101.602L102.834 102.286C102.793 102.273 102.738 102.256 102.666 102.236C102.597 102.216 102.505 102.206 102.391 102.206C102.129 102.206 101.94 102.272 101.823 102.404C101.709 102.536 101.652 102.729 101.652 102.985V108.664H100.86ZM108.818 103.508V104.18H106.146V103.508H108.818ZM106.925 102.273H107.717V107.187C107.717 107.411 107.749 107.579 107.814 107.691C107.881 107.8 107.966 107.874 108.069 107.912C108.175 107.948 108.285 107.966 108.402 107.966C108.489 107.966 108.561 107.962 108.617 107.953C108.673 107.941 108.717 107.932 108.751 107.926L108.912 108.637C108.858 108.657 108.783 108.678 108.687 108.698C108.591 108.72 108.469 108.731 108.321 108.731C108.097 108.731 107.878 108.683 107.663 108.587C107.451 108.491 107.274 108.344 107.133 108.147C106.994 107.95 106.925 107.702 106.925 107.402V102.273ZM110.913 105.563V108.664H110.12V101.79H110.913V104.314H110.98C111.101 104.048 111.282 103.836 111.524 103.679C111.767 103.521 112.092 103.441 112.497 103.441C112.848 103.441 113.156 103.512 113.42 103.653C113.684 103.791 113.889 104.005 114.034 104.294C114.182 104.58 114.256 104.945 114.256 105.388V108.664H113.464V105.442C113.464 105.032 113.357 104.716 113.145 104.492C112.934 104.266 112.642 104.153 112.269 104.153C112.009 104.153 111.776 104.208 111.57 104.317C111.367 104.427 111.206 104.587 111.087 104.797C110.971 105.008 110.913 105.263 110.913 105.563ZM117.867 108.772C117.37 108.772 116.942 108.662 116.581 108.443C116.223 108.221 115.947 107.912 115.752 107.516C115.56 107.118 115.463 106.655 115.463 106.126C115.463 105.598 115.56 105.133 115.752 104.73C115.947 104.325 116.218 104.01 116.564 103.783C116.914 103.555 117.321 103.441 117.786 103.441C118.055 103.441 118.32 103.486 118.582 103.575C118.844 103.665 119.082 103.81 119.297 104.012C119.512 104.211 119.683 104.475 119.81 104.804C119.938 105.133 120.002 105.538 120.002 106.019V106.355H116.027V105.67H119.196C119.196 105.379 119.138 105.119 119.022 104.891C118.907 104.663 118.744 104.483 118.532 104.351C118.321 104.219 118.073 104.153 117.786 104.153C117.471 104.153 117.198 104.231 116.967 104.388C116.739 104.542 116.563 104.744 116.44 104.992C116.317 105.24 116.256 105.507 116.256 105.791V106.247C116.256 106.637 116.323 106.967 116.457 107.238C116.594 107.506 116.783 107.711 117.024 107.852C117.266 107.991 117.547 108.06 117.867 108.06C118.075 108.06 118.263 108.031 118.431 107.973C118.601 107.912 118.747 107.823 118.871 107.704C118.994 107.583 119.089 107.433 119.156 107.254L119.921 107.469C119.841 107.729 119.705 107.957 119.515 108.154C119.325 108.349 119.09 108.501 118.81 108.61C118.53 108.718 118.216 108.772 117.867 108.772ZM123.865 108.664V103.508H124.658V108.664H123.865ZM124.268 102.649C124.114 102.649 123.981 102.596 123.869 102.491C123.759 102.386 123.704 102.26 123.704 102.112C123.704 101.964 123.759 101.838 123.869 101.733C123.981 101.627 124.114 101.575 124.268 101.575C124.423 101.575 124.555 101.627 124.664 101.733C124.776 101.838 124.832 101.964 124.832 102.112C124.832 102.26 124.776 102.386 124.664 102.491C124.555 102.596 124.423 102.649 124.268 102.649ZM128.351 103.508V104.18H125.679V103.508H128.351ZM126.458 102.273H127.25V107.187C127.25 107.411 127.282 107.579 127.347 107.691C127.414 107.8 127.499 107.874 127.602 107.912C127.707 107.948 127.818 107.966 127.935 107.966C128.022 107.966 128.093 107.962 128.149 107.953C128.205 107.941 128.25 107.932 128.284 107.926L128.445 108.637C128.391 108.657 128.316 108.678 128.22 108.698C128.124 108.72 128.002 108.731 127.854 108.731C127.63 108.731 127.411 108.683 127.196 108.587C126.983 108.491 126.807 108.344 126.666 108.147C126.527 107.95 126.458 107.702 126.458 107.402V102.273ZM131.649 108.772C131.152 108.772 130.723 108.662 130.363 108.443C130.005 108.221 129.729 107.912 129.534 107.516C129.342 107.118 129.245 106.655 129.245 106.126C129.245 105.598 129.342 105.133 129.534 104.73C129.729 104.325 130 104.01 130.346 103.783C130.695 103.555 131.103 103.441 131.568 103.441C131.837 103.441 132.102 103.486 132.364 103.575C132.626 103.665 132.864 103.81 133.079 104.012C133.294 104.211 133.465 104.475 133.592 104.804C133.72 105.133 133.784 105.538 133.784 106.019V106.355H129.809V105.67H132.978C132.978 105.379 132.92 105.119 132.803 104.891C132.689 104.663 132.526 104.483 132.313 104.351C132.103 104.219 131.855 104.153 131.568 104.153C131.253 104.153 130.98 104.231 130.749 104.388C130.521 104.542 130.345 104.744 130.222 104.992C130.099 105.24 130.038 105.507 130.038 105.791V106.247C130.038 106.637 130.105 106.967 130.239 107.238C130.375 107.506 130.565 107.711 130.806 107.852C131.048 107.991 131.329 108.06 131.649 108.06C131.857 108.06 132.045 108.031 132.213 107.973C132.383 107.912 132.529 107.823 132.652 107.704C132.776 107.583 132.871 107.433 132.938 107.254L133.703 107.469C133.623 107.729 133.487 107.957 133.297 108.154C133.107 108.349 132.872 108.501 132.592 108.61C132.312 108.718 131.998 108.772 131.649 108.772ZM134.989 108.664V103.508H135.754V104.314H135.821C135.929 104.039 136.102 103.825 136.341 103.673C136.581 103.518 136.869 103.441 137.204 103.441C137.544 103.441 137.827 103.518 138.053 103.673C138.282 103.825 138.46 104.039 138.587 104.314H138.641C138.773 104.048 138.971 103.836 139.235 103.679C139.499 103.521 139.816 103.441 140.185 103.441C140.646 103.441 141.023 103.585 141.316 103.874C141.609 104.161 141.756 104.607 141.756 105.213V108.664H140.964V105.213C140.964 104.833 140.86 104.561 140.652 104.398C140.443 104.234 140.198 104.153 139.916 104.153C139.554 104.153 139.273 104.262 139.074 104.482C138.875 104.699 138.775 104.974 138.775 105.307V108.664H137.97V105.133C137.97 104.84 137.874 104.604 137.684 104.425C137.494 104.243 137.249 104.153 136.949 104.153C136.743 104.153 136.551 104.208 136.372 104.317C136.195 104.427 136.052 104.579 135.942 104.774C135.835 104.966 135.781 105.189 135.781 105.442V108.664H134.989Z" fill="#627A84"/>
<path d="M170.552 108.664H168.431V101.79H170.646C171.313 101.79 171.884 101.927 172.358 102.202C172.833 102.475 173.196 102.868 173.449 103.381C173.702 103.891 173.829 104.502 173.829 105.213C173.829 105.93 173.701 106.546 173.446 107.063C173.191 107.578 172.819 107.974 172.332 108.251C171.844 108.527 171.251 108.664 170.552 108.664ZM169.263 107.926H170.499C171.067 107.926 171.538 107.816 171.912 107.597C172.286 107.377 172.564 107.065 172.748 106.66C172.931 106.255 173.023 105.773 173.023 105.213C173.023 104.658 172.932 104.181 172.751 103.78C172.57 103.377 172.299 103.069 171.939 102.854C171.578 102.637 171.13 102.528 170.593 102.528H169.263V107.926ZM177.279 108.772C176.783 108.772 176.354 108.662 175.994 108.443C175.636 108.221 175.359 107.912 175.165 107.516C174.972 107.118 174.876 106.655 174.876 106.126C174.876 105.598 174.972 105.133 175.165 104.73C175.359 104.325 175.63 104.01 175.977 103.783C176.326 103.555 176.733 103.441 177.199 103.441C177.467 103.441 177.732 103.486 177.994 103.575C178.256 103.665 178.494 103.81 178.709 104.012C178.924 104.211 179.095 104.475 179.223 104.804C179.35 105.133 179.414 105.538 179.414 106.019V106.355H175.44V105.67H178.609C178.609 105.379 178.55 105.119 178.434 104.891C178.32 104.663 178.157 104.483 177.944 104.351C177.734 104.219 177.485 104.153 177.199 104.153C176.883 104.153 176.61 104.231 176.38 104.388C176.151 104.542 175.976 104.744 175.853 104.992C175.73 105.24 175.668 105.507 175.668 105.791V106.247C175.668 106.637 175.735 106.967 175.869 107.238C176.006 107.506 176.195 107.711 176.437 107.852C176.678 107.991 176.959 108.06 177.279 108.06C177.487 108.06 177.675 108.031 177.843 107.973C178.013 107.912 178.16 107.823 178.283 107.704C178.406 107.583 178.501 107.433 178.568 107.254L179.334 107.469C179.253 107.729 179.118 107.957 178.927 108.154C178.737 108.349 178.502 108.501 178.223 108.61C177.943 108.718 177.628 108.772 177.279 108.772ZM182.862 103.508V104.18H180.19V103.508H182.862ZM180.968 102.273H181.761V107.187C181.761 107.411 181.793 107.579 181.858 107.691C181.925 107.8 182.01 107.874 182.113 107.912C182.218 107.948 182.329 107.966 182.445 107.966C182.533 107.966 182.604 107.962 182.66 107.953C182.716 107.941 182.761 107.932 182.794 107.926L182.956 108.637C182.902 108.657 182.827 108.678 182.731 108.698C182.634 108.72 182.512 108.731 182.365 108.731C182.141 108.731 181.922 108.683 181.707 108.587C181.494 108.491 181.317 108.344 181.176 108.147C181.038 107.95 180.968 107.702 180.968 107.402V102.273ZM185.57 108.785C185.244 108.785 184.947 108.723 184.681 108.6C184.415 108.475 184.203 108.295 184.046 108.06C183.89 107.823 183.812 107.536 183.812 107.201C183.812 106.905 183.87 106.666 183.986 106.482C184.102 106.297 184.258 106.151 184.453 106.046C184.647 105.941 184.862 105.862 185.097 105.811C185.334 105.757 185.573 105.715 185.812 105.683C186.125 105.643 186.379 105.613 186.574 105.593C186.771 105.57 186.914 105.533 187.004 105.482C187.096 105.431 187.141 105.341 187.141 105.213V105.187C187.141 104.855 187.051 104.598 186.87 104.415C186.69 104.231 186.419 104.139 186.054 104.139C185.676 104.139 185.379 104.222 185.164 104.388C184.949 104.553 184.798 104.73 184.711 104.918L183.959 104.65C184.093 104.336 184.273 104.092 184.496 103.918C184.722 103.741 184.968 103.618 185.235 103.549C185.503 103.477 185.767 103.441 186.027 103.441C186.193 103.441 186.383 103.461 186.598 103.502C186.815 103.54 187.024 103.619 187.225 103.74C187.429 103.861 187.598 104.043 187.732 104.287C187.866 104.531 187.934 104.858 187.934 105.267V108.664H187.141V107.966H187.101C187.047 108.078 186.958 108.198 186.833 108.325C186.707 108.453 186.541 108.561 186.332 108.651C186.124 108.74 185.87 108.785 185.57 108.785ZM185.691 108.073C186.005 108.073 186.269 108.012 186.483 107.889C186.701 107.766 186.864 107.607 186.974 107.412C187.085 107.217 187.141 107.013 187.141 106.798V106.073C187.108 106.113 187.034 106.15 186.92 106.184C186.808 106.215 186.678 106.243 186.53 106.267C186.385 106.29 186.243 106.31 186.104 106.328C185.968 106.344 185.857 106.357 185.772 106.368C185.566 106.395 185.374 106.439 185.194 106.499C185.018 106.557 184.874 106.646 184.765 106.764C184.657 106.881 184.604 107.04 184.604 107.241C184.604 107.516 184.706 107.724 184.909 107.865C185.115 108.004 185.376 108.073 185.691 108.073ZM189.38 108.664V103.508H190.172V108.664H189.38ZM189.782 102.649C189.628 102.649 189.495 102.596 189.383 102.491C189.273 102.386 189.218 102.26 189.218 102.112C189.218 101.964 189.273 101.838 189.383 101.733C189.495 101.627 189.628 101.575 189.782 101.575C189.937 101.575 190.069 101.627 190.178 101.733C190.29 101.838 190.346 101.964 190.346 102.112C190.346 102.26 190.29 102.386 190.178 102.491C190.069 102.596 189.937 102.649 189.782 102.649ZM192.415 101.79V108.664H191.623V101.79H192.415ZM197.518 104.663L196.806 104.864C196.762 104.746 196.695 104.631 196.608 104.519C196.523 104.404 196.407 104.311 196.259 104.237C196.111 104.163 195.922 104.126 195.692 104.126C195.376 104.126 195.113 104.199 194.903 104.344C194.695 104.487 194.591 104.67 194.591 104.891C194.591 105.088 194.662 105.244 194.806 105.358C194.949 105.472 195.173 105.567 195.477 105.643L196.242 105.831C196.703 105.943 197.047 106.114 197.273 106.345C197.499 106.573 197.612 106.867 197.612 107.228C197.612 107.523 197.527 107.787 197.357 108.02C197.189 108.252 196.954 108.436 196.652 108.57C196.35 108.704 195.998 108.772 195.598 108.772C195.072 108.772 194.637 108.657 194.292 108.429C193.947 108.201 193.729 107.868 193.638 107.429L194.389 107.241C194.461 107.518 194.596 107.727 194.796 107.865C194.997 108.004 195.26 108.073 195.584 108.073C195.954 108.073 196.247 107.995 196.464 107.838C196.683 107.68 196.793 107.489 196.793 107.268C196.793 107.089 196.73 106.939 196.605 106.818C196.48 106.695 196.287 106.603 196.028 106.543L195.168 106.341C194.696 106.229 194.349 106.056 194.128 105.821C193.908 105.584 193.799 105.287 193.799 104.931C193.799 104.641 193.88 104.383 194.044 104.159C194.209 103.936 194.434 103.76 194.718 103.632C195.005 103.505 195.329 103.441 195.692 103.441C196.202 103.441 196.603 103.553 196.894 103.777C197.187 104.001 197.395 104.296 197.518 104.663Z" fill="#233D48"/>
<g clip-path="url(#clip3_4_5759)">
<rect x="19" y="116.697" width="184.763" height="0.675183" fill="#DADFE2"/>
</g>
</g>
<path d="M24.4015 47.7974H198.599C201.395 47.7974 203.662 50.0646 203.662 52.8613V146.467C203.662 149.264 201.395 151.531 198.599 151.531H24.4015C21.6048 151.531 19.3376 149.264 19.3376 146.467V52.8613C19.3376 50.0646 21.6048 47.7974 24.4015 47.7974Z" stroke="#DADFE2" stroke-width="0.675183"/>
</g>
</g>
<defs>
<filter id="filter0_dd_4_5759" x="16.2993" y="8.29927" width="190.164" height="39.1606" filterUnits="userSpaceOnUse" color-interpolation-filters="sRGB">
<feFlood flood-opacity="0" result="BackgroundImageFix"/>
<feColorMatrix in="SourceAlpha" type="matrix" values="0 0 0 0 0 0 0 0 0 0 0 0 0 0 0 0 0 0 127 0" result="hardAlpha"/>
<feMorphology radius="2.70073" operator="dilate" in="SourceAlpha" result="effect1_dropShadow_4_5759"/>
<feOffset/>
<feColorMatrix type="matrix" values="0 0 0 0 0.5184 0 0 0 0 0.59064 0 0 0 0 0.6216 0 0 0 1 0"/>
<feBlend mode="normal" in2="BackgroundImageFix" result="effect1_dropShadow_4_5759"/>
<feColorMatrix in="SourceAlpha" type="matrix" values="0 0 0 0 0 0 0 0 0 0 0 0 0 0 0 0 0 0 127 0" result="hardAlpha"/>
<feMorphology radius="1.35037" operator="dilate" in="SourceAlpha" result="effect2_dropShadow_4_5759"/>
<feOffset/>
<feColorMatrix type="matrix" values="0 0 0 0 1 0 0 0 0 1 0 0 0 0 1 0 0 0 1 0"/>
<feBlend mode="normal" in2="effect1_dropShadow_4_5759" result="effect2_dropShadow_4_5759"/>
<feBlend mode="normal" in="SourceGraphic" in2="effect2_dropShadow_4_5759" result="shape"/>
</filter>
<filter id="filter1_dd_4_5759" x="10.8978" y="42.0584" width="201.204" height="120.613" filterUnits="userSpaceOnUse" color-interpolation-filters="sRGB">
<feFlood flood-opacity="0" result="BackgroundImageFix"/>
<feColorMatrix in="SourceAlpha" type="matrix" values="0 0 0 0 0 0 0 0 0 0 0 0 0 0 0 0 0 0 127 0" result="hardAlpha"/>
<feOffset dy="2.70073"/>
<feGaussianBlur stdDeviation="4.0511"/>
<feColorMatrix type="matrix" values="0 0 0 0 0 0 0 0 0 0 0 0 0 0 0 0 0 0 0.05 0"/>
<feBlend mode="normal" in2="BackgroundImageFix" result="effect1_dropShadow_4_5759"/>
<feColorMatrix in="SourceAlpha" type="matrix" values="0 0 0 0 0 0 0 0 0 0 0 0 0 0 0 0 0 0 127 0" result="hardAlpha"/>
<feOffset dy="0.675183"/>
<feGaussianBlur stdDeviation="1.35037"/>
<feColorMatrix type="matrix" values="0 0 0 0 0 0 0 0 0 0 0 0 0 0 0 0 0 0 0.1 0"/>
<feBlend mode="normal" in2="effect1_dropShadow_4_5759" result="effect2_dropShadow_4_5759"/>
<feBlend mode="normal" in="SourceGraphic" in2="effect2_dropShadow_4_5759" result="shape"/>
</filter>
<clipPath id="clip0_4_5759">
<rect width="224" height="117" fill="white"/>
</clipPath>
<clipPath id="clip1_4_5759">
<path d="M19 52.8613C19 49.8782 21.4183 47.4598 24.4015 47.4598H198.599C201.582 47.4598 204 49.8782 204 52.8613V146.467C204 149.45 201.582 151.869 198.599 151.869H24.4015C21.4183 151.869 19 149.45 19 146.467V52.8613Z" fill="white"/>
</clipPath>
<clipPath id="clip2_4_5759">
<rect width="184.763" height="0.675183" fill="white" transform="translate(19 81.8942)"/>
</clipPath>
<clipPath id="clip3_4_5759">
<rect width="184.763" height="0.675183" fill="white" transform="translate(19 116.697)"/>
</clipPath>
</defs>
</svg>
