<svg width="224" height="117" viewBox="0 0 224 117" fill="none" xmlns="http://www.w3.org/2000/svg">
<g clip-path="url(#clip0_2314_47233)">
<path d="M70 46C70 43.7909 71.7909 42 74 42H149C151.209 42 153 43.7909 153 46V72C153 74.2091 151.209 76 149 76H74C71.7909 76 70 74.2091 70 72V46Z" fill="white"/>
<path d="M80.2692 65H78.7919L83.0646 53.3636H84.5192L88.7919 65H87.3146L83.8374 55.2045H83.7464L80.2692 65ZM80.8146 60.4545H86.7692V61.7045H80.8146V60.4545ZM95.9226 61.4318V56.2727H97.2635V65H95.9226V63.5227H95.8317C95.6271 63.9659 95.3089 64.3428 94.8771 64.6534C94.4453 64.9602 93.8999 65.1136 93.2408 65.1136C92.6953 65.1136 92.2105 64.9943 91.7862 64.7557C91.362 64.5133 91.0286 64.1496 90.7862 63.6648C90.5438 63.1761 90.4226 62.5606 90.4226 61.8182V56.2727H91.7635V61.7273C91.7635 62.3636 91.9415 62.8712 92.2976 63.25C92.6574 63.6288 93.1158 63.8182 93.6726 63.8182C94.0059 63.8182 94.3449 63.733 94.6896 63.5625C95.0381 63.392 95.3298 63.1307 95.5646 62.7784C95.8033 62.4261 95.9226 61.9773 95.9226 61.4318ZM103.515 56.2727V57.4091H98.9922V56.2727H103.515ZM100.31 54.1818H101.651V62.5C101.651 62.8788 101.706 63.1629 101.816 63.3523C101.93 63.5379 102.074 63.6629 102.248 63.7273C102.426 63.7879 102.613 63.8182 102.81 63.8182C102.958 63.8182 103.079 63.8106 103.174 63.7955C103.269 63.7765 103.344 63.7614 103.401 63.75L103.674 64.9545C103.583 64.9886 103.456 65.0227 103.293 65.0568C103.13 65.0947 102.924 65.1136 102.674 65.1136C102.295 65.1136 101.924 65.0322 101.56 64.8693C101.201 64.7064 100.901 64.4583 100.663 64.125C100.428 63.7917 100.31 63.3712 100.31 62.8636V54.1818ZM108.984 65.1818C108.196 65.1818 107.504 64.9943 106.91 64.6193C106.319 64.2443 105.857 63.7197 105.523 63.0455C105.194 62.3712 105.029 61.5833 105.029 60.6818C105.029 59.7727 105.194 58.9792 105.523 58.3011C105.857 57.6231 106.319 57.0966 106.91 56.7216C107.504 56.3466 108.196 56.1591 108.984 56.1591C109.772 56.1591 110.461 56.3466 111.052 56.7216C111.647 57.0966 112.109 57.6231 112.438 58.3011C112.772 58.9792 112.938 59.7727 112.938 60.6818C112.938 61.5833 112.772 62.3712 112.438 63.0455C112.109 63.7197 111.647 64.2443 111.052 64.6193C110.461 64.9943 109.772 65.1818 108.984 65.1818ZM108.984 63.9773C109.582 63.9773 110.075 63.8239 110.461 63.517C110.847 63.2102 111.133 62.8068 111.319 62.3068C111.504 61.8068 111.597 61.2652 111.597 60.6818C111.597 60.0985 111.504 59.5549 111.319 59.0511C111.133 58.5473 110.847 58.1402 110.461 57.8295C110.075 57.5189 109.582 57.3636 108.984 57.3636C108.385 57.3636 107.893 57.5189 107.506 57.8295C107.12 58.1402 106.834 58.5473 106.648 59.0511C106.463 59.5549 106.37 60.0985 106.37 60.6818C106.37 61.2652 106.463 61.8068 106.648 62.3068C106.834 62.8068 107.12 63.2102 107.506 63.517C107.893 63.8239 108.385 63.9773 108.984 63.9773ZM115.167 65V53.3636H116.576V63.75H121.985V65H115.167ZM123.985 65V56.2727H125.326V65H123.985ZM124.667 54.8182C124.406 54.8182 124.18 54.7292 123.991 54.5511C123.805 54.3731 123.712 54.1591 123.712 53.9091C123.712 53.6591 123.805 53.4451 123.991 53.267C124.18 53.089 124.406 53 124.667 53C124.928 53 125.152 53.089 125.337 53.267C125.527 53.4451 125.621 53.6591 125.621 53.9091C125.621 54.1591 125.527 54.3731 125.337 54.5511C125.152 54.7292 124.928 54.8182 124.667 54.8182ZM129.123 59.75V65H127.782V56.2727H129.077V57.6364H129.191C129.396 57.1932 129.706 56.8371 130.123 56.5682C130.54 56.2955 131.077 56.1591 131.737 56.1591C132.327 56.1591 132.844 56.2803 133.288 56.5227C133.731 56.7614 134.076 57.125 134.322 57.6136C134.568 58.0985 134.691 58.7121 134.691 59.4545V65H133.35V59.5455C133.35 58.8598 133.172 58.3258 132.816 57.9432C132.46 57.5568 131.971 57.3636 131.35 57.3636C130.922 57.3636 130.54 57.4564 130.202 57.642C129.869 57.8277 129.606 58.0985 129.413 58.4545C129.219 58.8106 129.123 59.2424 129.123 59.75ZM138.391 61.8182L138.369 60.1591H138.641L142.46 56.2727H144.119L140.05 60.3864H139.937L138.391 61.8182ZM137.141 65V53.3636H138.482V65H137.141ZM142.687 65L139.278 60.6818L140.232 59.75L144.391 65H142.687Z" fill="#388523"/>
</g>
<defs>
<clipPath id="clip0_2314_47233">
<path d="M0 8C0 3.58172 3.58172 0 8 0H216C220.418 0 224 3.58172 224 8V109C224 113.418 220.418 117 216 117H8C3.58172 117 0 113.418 0 109V8Z" fill="white"/>
</clipPath>
</defs>
</svg>
