<svg width="224" height="117" viewBox="0 0 224 117" fill="none" xmlns="http://www.w3.org/2000/svg">
<g filter="url(#filter0_dd_4_5749)">
<g filter="url(#filter1_dd_4_5749)">
<path d="M14 41.5942C14 37.9523 16.9523 35 20.5941 35H204.406C208.048 35 211 37.9523 211 41.5941V74.5648C211 78.2067 208.048 81.159 204.406 81.159H20.5941C16.9523 81.159 14 78.2067 14 74.5649V41.5942Z" fill="white"/>
<path d="M27.1883 58.0795C27.1883 52.6167 31.6167 48.1883 37.0795 48.1883V48.1883C42.5423 48.1883 46.9707 52.6167 46.9707 58.0795V58.0795C46.9707 63.5423 42.5423 67.9707 37.0795 67.9707V67.9707C31.6167 67.9707 27.1883 63.5423 27.1883 58.0795V58.0795Z" fill="#CDB52D"/>
<path d="M37.0622 55.3319C36.3066 55.3319 35.6472 55.9699 35.5747 56.0424C35.4794 56.1468 35.428 56.2839 35.4311 56.4252C35.4342 56.5665 35.4915 56.7012 35.5913 56.8013C35.691 56.9014 35.8254 56.9594 35.9667 56.963C36.108 56.9667 36.2452 56.9159 36.35 56.8211C36.5099 56.6639 36.8468 56.4309 37.0622 56.4309C37.1781 56.4311 37.291 56.4678 37.3847 56.5359C37.4785 56.604 37.5483 56.6999 37.5843 56.8101C37.6204 56.9202 37.6207 57.0389 37.5852 57.1493C37.5498 57.2596 37.4804 57.3559 37.387 57.4245C36.8314 57.8311 36.5127 58.418 36.5127 59.034V59.1785C36.5127 59.3242 36.5706 59.464 36.6736 59.5671C36.7767 59.6701 36.9165 59.728 37.0622 59.728C37.2079 59.728 37.3477 59.6701 37.4507 59.5671C37.5538 59.464 37.6117 59.3242 37.6117 59.1785V59.034C37.6117 58.6751 37.8777 58.4268 38.0365 58.3103C38.245 58.1568 38.4147 57.9565 38.5318 57.7255C38.6488 57.4946 38.7102 57.2394 38.7107 56.9804C38.7107 56.0716 37.9711 55.3319 37.0622 55.3319Z" fill="white"/>
<path d="M37.0795 60.2775C36.776 60.2775 36.53 60.5235 36.53 60.827C36.53 61.1305 36.776 61.3765 37.0795 61.3765C37.383 61.3765 37.629 61.1305 37.629 60.827C37.629 60.5235 37.383 60.2775 37.0795 60.2775Z" fill="white"/>
<path d="M42.5746 58.0795C42.5746 61.1143 40.1143 63.5746 37.0795 63.5746C34.0446 63.5746 31.5844 61.1143 31.5844 58.0795C31.5844 55.0446 34.0446 52.5844 37.0795 52.5844C40.1143 52.5844 42.5746 55.0446 42.5746 58.0795ZM41.4756 58.0795C41.4756 55.6516 39.5074 53.6834 37.0795 53.6834C34.6516 53.6834 32.6834 55.6516 32.6834 58.0795C32.6834 60.5074 34.6516 62.4756 37.0795 62.4756C39.5074 62.4756 41.4756 60.5074 41.4756 58.0795Z" fill="white"/>
<path d="M56.1056 62.4854L53.8107 54.0928H54.8434L56.5973 60.9281H56.6793L58.466 54.0928H59.6134L61.4001 60.9281H61.482L63.2359 54.0928H64.2686L61.9738 62.4854H60.9247L59.0725 55.7975H59.0069L57.1546 62.4854H56.1056ZM66.67 62.6329C66.2711 62.6329 65.9092 62.5577 65.5841 62.4075C65.259 62.2545 65.0008 62.0346 64.8095 61.7477C64.6183 61.4581 64.5227 61.1084 64.5227 60.6987C64.5227 60.338 64.5937 60.0457 64.7358 59.8217C64.8778 59.595 65.0677 59.4174 65.3054 59.289C65.5431 59.1606 65.8053 59.065 66.0922 59.0021C66.3818 58.9366 66.6727 58.8846 66.9651 58.8464C67.3475 58.7972 67.6576 58.7603 67.8953 58.7358C68.1357 58.7084 68.3105 58.6634 68.4198 58.6005C68.5318 58.5377 68.5878 58.4284 68.5878 58.2727V58.2399C68.5878 57.8356 68.4772 57.5214 68.2559 57.2974C68.0373 57.0734 67.7054 56.9614 67.2601 56.9614C66.7984 56.9614 66.4364 57.0624 66.1742 57.2646C65.9119 57.4668 65.7275 57.6826 65.6209 57.9121L64.703 57.5842C64.8669 57.2018 65.0855 56.904 65.3587 56.6909C65.6346 56.4751 65.9351 56.3248 66.2602 56.2401C66.588 56.1527 66.9104 56.109 67.2273 56.109C67.4295 56.109 67.6617 56.1336 67.924 56.1827C68.189 56.2292 68.4444 56.3262 68.6903 56.4737C68.9389 56.6212 69.1451 56.8439 69.3091 57.1417C69.473 57.4394 69.5549 57.8383 69.5549 58.3383V62.4854H68.5878V61.633H68.5387C68.4731 61.7696 68.3638 61.9157 68.2108 62.0715C68.0578 62.2272 67.8543 62.3597 67.6002 62.469C67.3462 62.5782 67.0361 62.6329 66.67 62.6329ZM66.8175 61.7641C67.2 61.7641 67.5224 61.689 67.7846 61.5387C68.0496 61.3885 68.2491 61.1945 68.3829 60.9568C68.5195 60.7191 68.5878 60.4692 68.5878 60.2069V59.3218C68.5469 59.3709 68.4567 59.416 68.3174 59.457C68.1808 59.4952 68.0223 59.5294 67.842 59.5594C67.6644 59.5868 67.491 59.6113 67.3216 59.6332C67.1549 59.6523 67.0197 59.6687 66.9159 59.6824C66.6645 59.7152 66.4296 59.7684 66.211 59.8422C65.9952 59.9132 65.8204 60.0211 65.6865 60.1659C65.5554 60.308 65.4898 60.502 65.4898 60.7478C65.4898 61.0839 65.6141 61.3379 65.8627 61.51C66.1141 61.6794 66.4323 61.7641 66.8175 61.7641ZM71.3201 62.4854V56.1909H72.2544V57.1417H72.32C72.4348 56.8302 72.6424 56.5775 72.9429 56.3835C73.2434 56.1896 73.5822 56.0926 73.9592 56.0926C74.0302 56.0926 74.119 56.094 74.2255 56.0967C74.3321 56.0994 74.4127 56.1035 74.4673 56.109V57.0925C74.4345 57.0843 74.3594 57.072 74.2419 57.0556C74.1272 57.0365 74.0056 57.0269 73.8772 57.0269C73.5712 57.0269 73.2981 57.0911 73.0576 57.2195C72.82 57.3452 72.6315 57.52 72.4921 57.7441C72.3555 57.9653 72.2872 58.218 72.2872 58.5022V62.4854H71.3201ZM76.5808 58.6989V62.4854H75.6137V56.1909H76.548V57.1744H76.63C76.7775 56.8548 77.0015 56.598 77.3021 56.404C77.6026 56.2073 77.9905 56.109 78.4659 56.109C78.8921 56.109 79.265 56.1964 79.5846 56.3713C79.9042 56.5434 80.1528 56.8056 80.3304 57.1581C80.508 57.5077 80.5968 57.9503 80.5968 58.4858V62.4854H79.6297V58.5513C79.6297 58.0569 79.5013 57.6717 79.2445 57.3957C78.9877 57.1171 78.6353 56.9777 78.1872 56.9777C77.8785 56.9777 77.6026 57.0447 77.3594 57.1785C77.119 57.3124 76.9292 57.5077 76.7898 57.7645C76.6505 58.0213 76.5808 58.3328 76.5808 58.6989ZM82.364 62.4854V56.1909H83.3311V62.4854H82.364ZM82.8558 55.1419C82.6673 55.1419 82.5047 55.0777 82.3681 54.9493C82.2343 54.8209 82.1673 54.6665 82.1673 54.4862C82.1673 54.3059 82.2343 54.1515 82.3681 54.0231C82.5047 53.8947 82.6673 53.8305 82.8558 53.8305C83.0443 53.8305 83.2055 53.8947 83.3393 54.0231C83.4759 54.1515 83.5442 54.3059 83.5442 54.4862C83.5442 54.6665 83.4759 54.8209 83.3393 54.9493C83.2055 55.0777 83.0443 55.1419 82.8558 55.1419ZM86.0696 58.6989V62.4854H85.1025V56.1909H86.0368V57.1744H86.1187C86.2663 56.8548 86.4903 56.598 86.7908 56.404C87.0913 56.2073 87.4793 56.109 87.9546 56.109C88.3808 56.109 88.7537 56.1964 89.0733 56.3713C89.393 56.5434 89.6416 56.8056 89.8192 57.1581C89.9967 57.5077 90.0855 57.9503 90.0855 58.4858V62.4854H89.1184V58.5513C89.1184 58.0569 88.99 57.6717 88.7332 57.3957C88.4764 57.1171 88.124 56.9777 87.676 56.9777C87.3672 56.9777 87.0913 57.0447 86.8482 57.1785C86.6078 57.3124 86.4179 57.5077 86.2786 57.7645C86.1392 58.0213 86.0696 58.3328 86.0696 58.6989ZM94.3935 64.9769C93.9263 64.9769 93.5247 64.9168 93.1887 64.7966C92.8526 64.6791 92.5726 64.5234 92.3486 64.3294C92.1273 64.1382 91.9511 63.9333 91.82 63.7147L92.5904 63.1738C92.6778 63.2885 92.7884 63.4197 92.9223 63.5672C93.0562 63.7175 93.2392 63.8472 93.4714 63.9565C93.7064 64.0685 94.0137 64.1245 94.3935 64.1245C94.9016 64.1245 95.321 64.0016 95.6515 63.7557C95.9821 63.5098 96.1474 63.1246 96.1474 62.6001V61.3215H96.0654C95.9944 61.4363 95.8933 61.5783 95.7622 61.7477C95.6338 61.9144 95.448 62.0633 95.2049 62.1944C94.9644 62.3228 94.6393 62.387 94.2296 62.387C93.7214 62.387 93.2652 62.2668 92.8608 62.0264C92.4592 61.786 92.141 61.4363 91.906 60.9773C91.6738 60.5183 91.5577 59.961 91.5577 59.3054C91.5577 58.6606 91.6711 58.0992 91.8978 57.6211C92.1246 57.1403 92.4401 56.7688 92.8445 56.5065C93.2488 56.2415 93.7159 56.109 94.2459 56.109C94.6557 56.109 94.9808 56.1773 95.2212 56.3139C95.4644 56.4477 95.6502 56.6007 95.7786 56.7728C95.9097 56.9422 96.0108 57.0816 96.0818 57.1908H96.1802V56.1909H97.1145V62.6657C97.1145 63.2066 96.9916 63.6464 96.7457 63.9852C96.5025 64.3267 96.1747 64.5767 95.7622 64.7351C95.3524 64.8963 94.8961 64.9769 94.3935 64.9769ZM94.3607 61.5182C94.7486 61.5182 95.0765 61.4295 95.3442 61.2519C95.6119 61.0743 95.8154 60.8189 95.9548 60.4856C96.0941 60.1523 96.1638 59.7534 96.1638 59.289C96.1638 58.8355 96.0955 58.4352 95.9589 58.0883C95.8223 57.7413 95.6201 57.4695 95.3524 57.2728C95.0847 57.0761 94.7541 56.9777 94.3607 56.9777C93.9509 56.9777 93.6094 57.0816 93.3362 57.2892C93.0657 57.4968 92.8622 57.7755 92.7256 58.1252C92.5917 58.4749 92.5248 58.8628 92.5248 59.289C92.5248 59.7261 92.5931 60.1127 92.7297 60.4487C92.869 60.782 93.0739 61.0442 93.3444 61.2355C93.6176 61.424 93.9564 61.5182 94.3607 61.5182ZM102.13 62.4854V56.1909H103.065V57.1744H103.147C103.278 56.8384 103.489 56.5775 103.782 56.3917C104.074 56.2032 104.425 56.109 104.835 56.109C105.25 56.109 105.596 56.2032 105.872 56.3917C106.15 56.5775 106.368 56.8384 106.523 57.1744H106.589C106.75 56.8493 106.992 56.5912 107.314 56.3999C107.637 56.206 108.023 56.109 108.474 56.109C109.037 56.109 109.497 56.2852 109.855 56.6376C110.213 56.9873 110.392 57.5323 110.392 58.2727V62.4854H109.425V58.2727C109.425 57.8083 109.298 57.4763 109.044 57.2769C108.789 57.0775 108.49 56.9777 108.146 56.9777C107.704 56.9777 107.361 57.1116 107.118 57.3793C106.874 57.6443 106.753 57.9804 106.753 58.3874V62.4854H105.769V58.1743C105.769 57.8165 105.653 57.5282 105.421 57.3097C105.189 57.0884 104.89 56.9777 104.524 56.9777C104.272 56.9777 104.037 57.0447 103.819 57.1785C103.603 57.3124 103.428 57.4982 103.294 57.7359C103.163 57.9708 103.097 58.2426 103.097 58.5513V62.4854H102.13ZM114.799 62.6165C114.193 62.6165 113.669 62.4826 113.23 62.2149C112.792 61.9444 112.455 61.5674 112.217 61.0839C111.982 60.5976 111.865 60.0321 111.865 59.3873C111.865 58.7426 111.982 58.1743 112.217 57.6826C112.455 57.1881 112.786 56.8029 113.209 56.527C113.635 56.2483 114.132 56.109 114.701 56.109C115.029 56.109 115.352 56.1636 115.672 56.2729C115.992 56.3822 116.283 56.5598 116.545 56.8056C116.807 57.0488 117.016 57.3711 117.172 57.7727C117.327 58.1743 117.405 58.6688 117.405 59.2562V59.666H112.553V58.83H116.422C116.422 58.4749 116.351 58.1579 116.209 57.8793C116.069 57.6006 115.87 57.3807 115.61 57.2195C115.354 57.0583 115.05 56.9777 114.701 56.9777C114.316 56.9777 113.982 57.0734 113.701 57.2646C113.422 57.4531 113.208 57.699 113.057 58.0022C112.907 58.3055 112.832 58.6306 112.832 58.9775V59.5348C112.832 60.0102 112.914 60.4132 113.078 60.7437C113.245 61.0716 113.475 61.3215 113.77 61.4937C114.066 61.663 114.408 61.7477 114.799 61.7477C115.053 61.7477 115.283 61.7122 115.488 61.6412C115.695 61.5674 115.874 61.4581 116.024 61.3133C116.175 61.1658 116.291 60.9828 116.373 60.7642L117.307 61.0265C117.209 61.3434 117.043 61.6221 116.811 61.8625C116.579 62.1001 116.292 62.2859 115.951 62.4198C115.609 62.5509 115.225 62.6165 114.799 62.6165ZM123.335 57.6006L122.466 57.8465C122.412 57.7017 122.331 57.561 122.225 57.4244C122.121 57.2851 121.979 57.1703 121.798 57.0802C121.618 56.99 121.387 56.945 121.106 56.945C120.721 56.945 120.4 57.0337 120.143 57.2113C119.889 57.3862 119.762 57.6088 119.762 57.8793C119.762 58.1197 119.849 58.3096 120.024 58.4489C120.199 58.5882 120.472 58.7043 120.844 58.7972L121.778 59.0267C122.341 59.1633 122.76 59.3723 123.036 59.6537C123.312 59.9323 123.45 60.2916 123.45 60.7314C123.45 61.0921 123.346 61.4144 123.138 61.6986C122.933 61.9827 122.647 62.2067 122.278 62.3706C121.909 62.5345 121.48 62.6165 120.991 62.6165C120.349 62.6165 119.818 62.4772 119.397 62.1985C118.976 61.9198 118.71 61.5128 118.598 60.9773L119.516 60.7478C119.603 61.0866 119.768 61.3407 120.012 61.51C120.258 61.6794 120.579 61.7641 120.975 61.7641C121.425 61.7641 121.783 61.6685 122.048 61.4773C122.316 61.2833 122.45 61.0511 122.45 60.7806C122.45 60.5621 122.373 60.379 122.22 60.2315C122.067 60.0812 121.832 59.9692 121.516 59.8955L120.467 59.6496C119.89 59.513 119.467 59.3013 119.196 59.0144C118.928 58.7248 118.795 58.3628 118.795 57.9285C118.795 57.5733 118.894 57.2591 119.094 56.9859C119.296 56.7127 119.57 56.4983 119.917 56.3426C120.267 56.1868 120.663 56.109 121.106 56.109C121.729 56.109 122.218 56.2456 122.573 56.5188C122.931 56.792 123.185 57.1526 123.335 57.6006ZM129.364 57.6006L128.495 57.8465C128.441 57.7017 128.36 57.561 128.254 57.4244C128.15 57.2851 128.008 57.1703 127.827 57.0802C127.647 56.99 127.416 56.945 127.135 56.945C126.75 56.945 126.429 57.0337 126.172 57.2113C125.918 57.3862 125.791 57.6088 125.791 57.8793C125.791 58.1197 125.878 58.3096 126.053 58.4489C126.228 58.5882 126.501 58.7043 126.873 58.7972L127.807 59.0267C128.37 59.1633 128.789 59.3723 129.065 59.6537C129.341 59.9323 129.479 60.2916 129.479 60.7314C129.479 61.0921 129.375 61.4144 129.167 61.6986C128.963 61.9827 128.676 62.2067 128.307 62.3706C127.938 62.5345 127.509 62.6165 127.02 62.6165C126.378 62.6165 125.847 62.4772 125.426 62.1985C125.005 61.9198 124.739 61.5128 124.627 60.9773L125.545 60.7478C125.632 61.0866 125.798 61.3407 126.041 61.51C126.287 61.6794 126.608 61.7641 127.004 61.7641C127.454 61.7641 127.812 61.6685 128.077 61.4773C128.345 61.2833 128.479 61.0511 128.479 60.7806C128.479 60.5621 128.402 60.379 128.249 60.2315C128.096 60.0812 127.862 59.9692 127.545 59.8955L126.496 59.6496C125.919 59.513 125.496 59.3013 125.225 59.0144C124.957 58.7248 124.824 58.3628 124.824 57.9285C124.824 57.5733 124.923 57.2591 125.123 56.9859C125.325 56.7127 125.599 56.4983 125.946 56.3426C126.296 56.1868 126.692 56.109 127.135 56.109C127.758 56.109 128.247 56.2456 128.602 56.5188C128.96 56.792 129.214 57.1526 129.364 57.6006ZM132.787 62.6329C132.388 62.6329 132.026 62.5577 131.701 62.4075C131.376 62.2545 131.118 62.0346 130.926 61.7477C130.735 61.4581 130.64 61.1084 130.64 60.6987C130.64 60.338 130.711 60.0457 130.853 59.8217C130.995 59.595 131.185 59.4174 131.422 59.289C131.66 59.1606 131.922 59.065 132.209 59.0021C132.499 58.9366 132.79 58.8846 133.082 58.8464C133.464 58.7972 133.775 58.7603 134.012 58.7358C134.253 58.7084 134.427 58.6634 134.537 58.6005C134.649 58.5377 134.705 58.4284 134.705 58.2727V58.2399C134.705 57.8356 134.594 57.5214 134.373 57.2974C134.154 57.0734 133.822 56.9614 133.377 56.9614C132.915 56.9614 132.553 57.0624 132.291 57.2646C132.029 57.4668 131.844 57.6826 131.738 57.9121L130.82 57.5842C130.984 57.2018 131.202 56.904 131.476 56.6909C131.751 56.4751 132.052 56.3248 132.377 56.2401C132.705 56.1527 133.027 56.109 133.344 56.109C133.546 56.109 133.779 56.1336 134.041 56.1827C134.306 56.2292 134.561 56.3262 134.807 56.4737C135.056 56.6212 135.262 56.8439 135.426 57.1417C135.59 57.4394 135.672 57.8383 135.672 58.3383V62.4854H134.705V61.633H134.656C134.59 61.7696 134.481 61.9157 134.328 62.0715C134.175 62.2272 133.971 62.3597 133.717 62.469C133.463 62.5782 133.153 62.6329 132.787 62.6329ZM132.934 61.7641C133.317 61.7641 133.639 61.689 133.902 61.5387C134.167 61.3885 134.366 61.1945 134.5 60.9568C134.636 60.7191 134.705 60.4692 134.705 60.2069V59.3218C134.664 59.3709 134.574 59.416 134.434 59.457C134.298 59.4952 134.139 59.5294 133.959 59.5594C133.781 59.5868 133.608 59.6113 133.438 59.6332C133.272 59.6523 133.137 59.6687 133.033 59.6824C132.781 59.7152 132.546 59.7684 132.328 59.8422C132.112 59.9132 131.937 60.0211 131.803 60.1659C131.672 60.308 131.607 60.502 131.607 60.7478C131.607 61.0839 131.731 61.3379 131.98 61.51C132.231 61.6794 132.549 61.7641 132.934 61.7641ZM139.978 64.9769C139.511 64.9769 139.109 64.9168 138.773 64.7966C138.437 64.6791 138.157 64.5234 137.933 64.3294C137.712 64.1382 137.535 63.9333 137.404 63.7147L138.175 63.1738C138.262 63.2885 138.373 63.4197 138.507 63.5672C138.64 63.7175 138.823 63.8472 139.056 63.9565C139.291 64.0685 139.598 64.1245 139.978 64.1245C140.486 64.1245 140.905 64.0016 141.236 63.7557C141.566 63.5098 141.732 63.1246 141.732 62.6001V61.3215H141.65C141.579 61.4363 141.478 61.5783 141.346 61.7477C141.218 61.9144 141.032 62.0633 140.789 62.1944C140.549 62.3228 140.224 62.387 139.814 62.387C139.306 62.387 138.849 62.2668 138.445 62.0264C138.044 61.786 137.725 61.4363 137.49 60.9773C137.258 60.5183 137.142 59.961 137.142 59.3054C137.142 58.6606 137.255 58.0992 137.482 57.6211C137.709 57.1403 138.024 56.7688 138.429 56.5065C138.833 56.2415 139.3 56.109 139.83 56.109C140.24 56.109 140.565 56.1773 140.806 56.3139C141.049 56.4477 141.234 56.6007 141.363 56.7728C141.494 56.9422 141.595 57.0816 141.666 57.1908H141.764V56.1909H142.699V62.6657C142.699 63.2066 142.576 63.6464 142.33 63.9852C142.087 64.3267 141.759 64.5767 141.346 64.7351C140.937 64.8963 140.48 64.9769 139.978 64.9769ZM139.945 61.5182C140.333 61.5182 140.661 61.4295 140.928 61.2519C141.196 61.0743 141.4 60.8189 141.539 60.4856C141.678 60.1523 141.748 59.7534 141.748 59.289C141.748 58.8355 141.68 58.4352 141.543 58.0883C141.407 57.7413 141.204 57.4695 140.937 57.2728C140.669 57.0761 140.338 56.9777 139.945 56.9777C139.535 56.9777 139.194 57.0816 138.92 57.2892C138.65 57.4968 138.446 57.7755 138.31 58.1252C138.176 58.4749 138.109 58.8628 138.109 59.289C138.109 59.7261 138.177 60.1127 138.314 60.4487C138.453 60.782 138.658 61.0442 138.929 61.2355C139.202 61.424 139.541 61.5182 139.945 61.5182ZM147.108 62.6165C146.502 62.6165 145.978 62.4826 145.539 62.2149C145.101 61.9444 144.764 61.5674 144.526 61.0839C144.291 60.5976 144.174 60.0321 144.174 59.3873C144.174 58.7426 144.291 58.1743 144.526 57.6826C144.764 57.1881 145.095 56.8029 145.518 56.527C145.944 56.2483 146.442 56.109 147.01 56.109C147.338 56.109 147.661 56.1636 147.981 56.2729C148.301 56.3822 148.592 56.5598 148.854 56.8056C149.116 57.0488 149.325 57.3711 149.481 57.7727C149.637 58.1743 149.714 58.6688 149.714 59.2562V59.666H144.862V58.83H148.731C148.731 58.4749 148.66 58.1579 148.518 57.8793C148.378 57.6006 148.179 57.3807 147.92 57.2195C147.663 57.0583 147.359 56.9777 147.01 56.9777C146.625 56.9777 146.291 57.0734 146.01 57.2646C145.731 57.4531 145.517 57.699 145.366 58.0022C145.216 58.3055 145.141 58.6306 145.141 58.9775V59.5348C145.141 60.0102 145.223 60.4132 145.387 60.7437C145.554 61.0716 145.784 61.3215 146.08 61.4937C146.375 61.663 146.717 61.7477 147.108 61.7477C147.362 61.7477 147.592 61.7122 147.797 61.6412C148.004 61.5674 148.183 61.4581 148.333 61.3133C148.484 61.1658 148.6 60.9828 148.682 60.7642L149.616 61.0265C149.518 61.3434 149.352 61.6221 149.12 61.8625C148.888 62.1001 148.601 62.2859 148.26 62.4198C147.918 62.5509 147.534 62.6165 147.108 62.6165Z" fill="#233D48"/>
<path d="M184.623 56.914L180.26 52.5511C180.105 52.401 179.897 52.3179 179.681 52.3198C179.465 52.3217 179.258 52.4084 179.105 52.5612C178.952 52.714 178.865 52.9207 178.864 53.1369C178.862 53.353 178.945 53.5612 179.095 53.7167L183.458 58.0795L179.095 62.4423C178.945 62.5978 178.862 62.806 178.864 63.0221C178.865 63.2382 178.952 63.445 179.105 63.5978C179.258 63.7506 179.465 63.8373 179.681 63.8392C179.897 63.8411 180.105 63.758 180.26 63.6078L184.623 59.245L188.986 63.6078C189.142 63.758 189.35 63.8411 189.566 63.8392C189.782 63.8373 189.989 63.7506 190.142 63.5978C190.294 63.445 190.381 63.2382 190.383 63.0221C190.385 62.806 190.302 62.5978 190.152 62.4423L185.789 58.0795L190.152 53.7167C190.23 53.6406 190.293 53.5497 190.336 53.4491C190.38 53.3485 190.402 53.2404 190.403 53.1309C190.404 53.0215 190.383 52.9129 190.342 52.8116C190.3 52.7103 190.239 52.6183 190.162 52.5409C190.085 52.4635 189.992 52.4023 189.891 52.3609C189.79 52.3194 189.681 52.2986 189.572 52.2995C189.462 52.3005 189.354 52.3232 189.254 52.3664C189.153 52.4096 189.062 52.4724 188.986 52.5511L184.623 56.914Z" fill="#233D48"/>
</g>
</g>
<defs>
<filter id="filter0_dd_4_5749" x="4.10879" y="28.4059" width="216.782" height="65.9414" filterUnits="userSpaceOnUse" color-interpolation-filters="sRGB">
<feFlood flood-opacity="0" result="BackgroundImageFix"/>
<feColorMatrix in="SourceAlpha" type="matrix" values="0 0 0 0 0 0 0 0 0 0 0 0 0 0 0 0 0 0 127 0" result="hardAlpha"/>
<feOffset dy="3.29707"/>
<feGaussianBlur stdDeviation="4.94561"/>
<feColorMatrix type="matrix" values="0 0 0 0 0 0 0 0 0 0 0 0 0 0 0 0 0 0 0.05 0"/>
<feBlend mode="normal" in2="BackgroundImageFix" result="effect1_dropShadow_4_5749"/>
<feColorMatrix in="SourceAlpha" type="matrix" values="0 0 0 0 0 0 0 0 0 0 0 0 0 0 0 0 0 0 127 0" result="hardAlpha"/>
<feOffset dy="0.824268"/>
<feGaussianBlur stdDeviation="1.64854"/>
<feColorMatrix type="matrix" values="0 0 0 0 0 0 0 0 0 0 0 0 0 0 0 0 0 0 0.1 0"/>
<feBlend mode="normal" in2="effect1_dropShadow_4_5749" result="effect2_dropShadow_4_5749"/>
<feBlend mode="normal" in="SourceGraphic" in2="effect2_dropShadow_4_5749" result="shape"/>
</filter>
<filter id="filter1_dd_4_5749" x="4.10879" y="28.4059" width="216.782" height="65.9414" filterUnits="userSpaceOnUse" color-interpolation-filters="sRGB">
<feFlood flood-opacity="0" result="BackgroundImageFix"/>
<feColorMatrix in="SourceAlpha" type="matrix" values="0 0 0 0 0 0 0 0 0 0 0 0 0 0 0 0 0 0 127 0" result="hardAlpha"/>
<feOffset dy="3.29707"/>
<feGaussianBlur stdDeviation="4.94561"/>
<feColorMatrix type="matrix" values="0 0 0 0 0 0 0 0 0 0 0 0 0 0 0 0 0 0 0.05 0"/>
<feBlend mode="normal" in2="BackgroundImageFix" result="effect1_dropShadow_4_5749"/>
<feColorMatrix in="SourceAlpha" type="matrix" values="0 0 0 0 0 0 0 0 0 0 0 0 0 0 0 0 0 0 127 0" result="hardAlpha"/>
<feOffset dy="0.824268"/>
<feGaussianBlur stdDeviation="1.64854"/>
<feColorMatrix type="matrix" values="0 0 0 0 0 0 0 0 0 0 0 0 0 0 0 0 0 0 0.1 0"/>
<feBlend mode="normal" in2="effect1_dropShadow_4_5749" result="effect2_dropShadow_4_5749"/>
<feBlend mode="normal" in="SourceGraphic" in2="effect2_dropShadow_4_5749" result="shape"/>
</filter>
</defs>
</svg>
