<svg width="298" height="80" viewBox="0 0 298 80" fill="none" xmlns="http://www.w3.org/2000/svg">
<g filter="url(#filter0_dd_1_5227)">
<g filter="url(#filter1_dd_1_5227)">
<path d="M12 16C12 11.5817 15.5817 8 20 8H278C282.418 8 286 11.5817 286 16V56C286 60.4183 282.418 64 278 64H20C15.5817 64 12 60.4183 12 56V16Z" fill="white"/>
<path d="M28 36C28 29.3726 33.3726 24 40 24C46.6274 24 52 29.3726 52 36C52 42.6274 46.6274 48 40 48C33.3726 48 28 42.6274 28 36Z" fill="#CDB52D"/>
<path d="M39.979 32.6666C39.0623 32.6666 38.2624 33.4406 38.1744 33.5286C38.0588 33.6553 37.9964 33.8216 38.0002 33.993C38.0039 34.1644 38.0735 34.3278 38.1945 34.4493C38.3154 34.5708 38.4785 34.6411 38.6499 34.6455C38.8213 34.65 38.9879 34.5883 39.115 34.4733C39.309 34.2826 39.7177 34 39.979 34C40.1196 34.0002 40.2565 34.0447 40.3703 34.1273C40.4841 34.2099 40.5688 34.3263 40.6125 34.46C40.6562 34.5936 40.6565 34.7376 40.6135 34.8714C40.5705 35.0053 40.4863 35.1221 40.373 35.2053C39.699 35.6986 39.3123 36.4106 39.3123 37.158V37.3333C39.3123 37.5101 39.3826 37.6797 39.5076 37.8047C39.6327 37.9297 39.8022 38 39.979 38C40.1558 38 40.3254 37.9297 40.4504 37.8047C40.5755 37.6797 40.6457 37.5101 40.6457 37.3333V37.158C40.6457 36.7226 40.9683 36.4213 41.161 36.28C41.414 36.0938 41.6199 35.8508 41.7619 35.5706C41.9039 35.2904 41.9783 34.9808 41.979 34.6666C41.979 33.564 41.0817 32.6666 39.979 32.6666Z" fill="white"/>
<path d="M40 38.6666C39.6318 38.6666 39.3333 38.9651 39.3333 39.3333C39.3333 39.7015 39.6318 40 40 40C40.3682 40 40.6667 39.7015 40.6667 39.3333C40.6667 38.9651 40.3682 38.6666 40 38.6666Z" fill="white"/>
<path d="M46.6667 36C46.6667 39.6818 43.6819 42.6666 40 42.6666C36.3181 42.6666 33.3333 39.6818 33.3333 36C33.3333 32.3181 36.3181 29.3333 40 29.3333C43.6819 29.3333 46.6667 32.3181 46.6667 36ZM45.3333 36C45.3333 33.0545 42.9455 30.6666 40 30.6666C37.0545 30.6666 34.6667 33.0545 34.6667 36C34.6667 38.9455 37.0545 41.3333 40 41.3333C42.9455 41.3333 45.3333 38.9455 45.3333 36Z" fill="white"/>
<path d="M63.0824 42L60.2983 31.8182H61.5511L63.679 40.1108H63.7784L65.946 31.8182H67.3381L69.5057 40.1108H69.6051L71.733 31.8182H72.9858L70.2017 42H68.929L66.6818 33.8864H66.6023L64.3551 42H63.0824ZM75.8991 42.179C75.4152 42.179 74.9761 42.0878 74.5817 41.9055C74.1873 41.7199 73.8741 41.4531 73.642 41.1051C73.41 40.7538 73.294 40.3295 73.294 39.8324C73.294 39.3949 73.3802 39.0402 73.5526 38.7685C73.7249 38.4934 73.9553 38.2779 74.2436 38.1222C74.532 37.9664 74.8501 37.8504 75.1982 37.7741C75.5495 37.6946 75.9025 37.6316 76.2571 37.5852C76.7211 37.5256 77.0973 37.4808 77.3857 37.451C77.6773 37.4179 77.8894 37.3632 78.022 37.2869C78.1579 37.2107 78.2259 37.0781 78.2259 36.8892V36.8494C78.2259 36.3589 78.0916 35.9777 77.8232 35.706C77.558 35.4342 77.1553 35.2983 76.6151 35.2983C76.0549 35.2983 75.6158 35.4209 75.2976 35.6662C74.9794 35.9115 74.7557 36.1733 74.6264 36.4517L73.5128 36.054C73.7116 35.59 73.9768 35.2287 74.3082 34.9702C74.643 34.7083 75.0076 34.526 75.402 34.4233C75.7997 34.3172 76.1908 34.2642 76.5753 34.2642C76.8205 34.2642 77.1023 34.294 77.4205 34.3537C77.742 34.41 78.0518 34.5277 78.3501 34.7067C78.6518 34.8857 78.902 35.1558 79.1009 35.517C79.2997 35.8783 79.3991 36.3622 79.3991 36.9688V42H78.2259V40.9659H78.1662C78.0866 41.1316 77.9541 41.3089 77.7685 41.4979C77.5829 41.6868 77.3359 41.8475 77.0277 41.9801C76.7195 42.1127 76.3433 42.179 75.8991 42.179ZM76.0781 41.125C76.5421 41.125 76.9332 41.0339 77.2514 40.8516C77.5729 40.6693 77.8149 40.4339 77.9773 40.1456C78.143 39.8572 78.2259 39.554 78.2259 39.2358V38.1619C78.1761 38.2216 78.0668 38.2763 77.8977 38.326C77.732 38.3724 77.5398 38.4138 77.321 38.4503C77.1056 38.4834 76.8951 38.5133 76.6896 38.5398C76.4875 38.563 76.3234 38.5829 76.1974 38.5994C75.8925 38.6392 75.6075 38.7038 75.3423 38.7933C75.0805 38.8795 74.8684 39.0104 74.706 39.1861C74.5469 39.3584 74.4673 39.5937 74.4673 39.892C74.4673 40.2997 74.6181 40.608 74.9197 40.8168C75.2247 41.0223 75.6108 41.125 76.0781 41.125ZM81.5407 42V34.3636H82.6742V35.517H82.7537C82.8929 35.1392 83.1448 34.8326 83.5094 34.5973C83.874 34.362 84.285 34.2443 84.7424 34.2443C84.8285 34.2443 84.9363 34.246 85.0655 34.2493C85.1948 34.2526 85.2926 34.2576 85.3588 34.2642V35.4574C85.3191 35.4474 85.2279 35.4325 85.0854 35.4126C84.9462 35.3894 84.7987 35.3778 84.6429 35.3778C84.2717 35.3778 83.9403 35.4557 83.6486 35.6115C83.3603 35.764 83.1316 35.9761 82.9625 36.2479C82.7968 36.5163 82.714 36.8229 82.714 37.1676V42H81.5407ZM87.9229 37.4062V42H86.7496V34.3636H87.8832V35.5568H87.9826C88.1616 35.169 88.4334 34.8575 88.7979 34.6222C89.1625 34.3835 89.6332 34.2642 90.2099 34.2642C90.7269 34.2642 91.1793 34.3703 91.5671 34.5824C91.9549 34.7912 92.2565 35.1094 92.4719 35.5369C92.6874 35.9612 92.7951 36.4981 92.7951 37.1477V42H91.6218V37.2273C91.6218 36.6274 91.466 36.16 91.1545 35.8253C90.8429 35.4872 90.4154 35.3182 89.8718 35.3182C89.4973 35.3182 89.1625 35.3994 88.8675 35.5618C88.5759 35.7242 88.3455 35.9612 88.1765 36.2727C88.0075 36.5843 87.9229 36.9621 87.9229 37.4062ZM94.9391 42V34.3636H96.1124V42H94.9391ZM95.5357 33.0909C95.307 33.0909 95.1098 33.013 94.9441 32.8572C94.7817 32.7015 94.7005 32.5142 94.7005 32.2955C94.7005 32.0767 94.7817 31.8894 94.9441 31.7337C95.1098 31.5779 95.307 31.5 95.5357 31.5C95.7644 31.5 95.9599 31.5779 96.1223 31.7337C96.2881 31.8894 96.3709 32.0767 96.3709 32.2955C96.3709 32.5142 96.2881 32.7015 96.1223 32.8572C95.9599 33.013 95.7644 33.0909 95.5357 33.0909ZM99.4347 37.4062V42H98.2614V34.3636H99.3949V35.5568H99.4943C99.6733 35.169 99.9451 34.8575 100.31 34.6222C100.674 34.3835 101.145 34.2642 101.722 34.2642C102.239 34.2642 102.691 34.3703 103.079 34.5824C103.467 34.7912 103.768 35.1094 103.984 35.5369C104.199 35.9612 104.307 36.4981 104.307 37.1477V42H103.134V37.2273C103.134 36.6274 102.978 36.16 102.666 35.8253C102.355 35.4872 101.927 35.3182 101.384 35.3182C101.009 35.3182 100.674 35.3994 100.379 35.5618C100.088 35.7242 99.8572 35.9612 99.6882 36.2727C99.5192 36.5843 99.4347 36.9621 99.4347 37.4062ZM109.533 45.0227C108.966 45.0227 108.479 44.9498 108.072 44.804C107.664 44.6615 107.324 44.4725 107.052 44.2372C106.784 44.0052 106.57 43.7566 106.411 43.4915L107.346 42.8352C107.452 42.9744 107.586 43.1335 107.748 43.3125C107.911 43.4948 108.133 43.6522 108.415 43.7848C108.7 43.9207 109.073 43.9886 109.533 43.9886C110.15 43.9886 110.658 43.8395 111.059 43.5412C111.461 43.2429 111.661 42.7756 111.661 42.1392V40.5881H111.562C111.475 40.7273 111.353 40.8996 111.194 41.1051C111.038 41.3073 110.813 41.4879 110.518 41.647C110.226 41.8028 109.831 41.8807 109.334 41.8807C108.718 41.8807 108.164 41.7348 107.674 41.4432C107.187 41.1515 106.8 40.7273 106.515 40.1705C106.234 39.6136 106.093 38.9375 106.093 38.142C106.093 37.3598 106.23 36.6787 106.506 36.0987C106.781 35.5154 107.163 35.0646 107.654 34.7464C108.144 34.425 108.711 34.2642 109.354 34.2642C109.851 34.2642 110.246 34.3471 110.537 34.5128C110.832 34.6752 111.058 34.8608 111.214 35.0696C111.373 35.2751 111.495 35.4441 111.581 35.5767H111.701V34.3636H112.834V42.2188C112.834 42.875 112.685 43.4086 112.387 43.8196C112.092 44.2339 111.694 44.5372 111.194 44.7294C110.697 44.925 110.143 45.0227 109.533 45.0227ZM109.493 40.8267C109.964 40.8267 110.362 40.719 110.687 40.5036C111.011 40.2881 111.258 39.9782 111.427 39.5739C111.596 39.1695 111.681 38.6856 111.681 38.1222C111.681 37.572 111.598 37.0864 111.432 36.6655C111.267 36.2446 111.021 35.9148 110.697 35.6761C110.372 35.4375 109.971 35.3182 109.493 35.3182C108.996 35.3182 108.582 35.4441 108.251 35.696C107.922 35.9479 107.675 36.286 107.51 36.7102C107.347 37.1345 107.266 37.6051 107.266 38.1222C107.266 38.6525 107.349 39.1214 107.515 39.5291C107.684 39.9335 107.932 40.2517 108.26 40.4837C108.592 40.7124 109.003 40.8267 109.493 40.8267ZM118.92 42V34.3636H120.053V35.5568H120.153C120.312 35.1491 120.568 34.8326 120.923 34.6072C121.278 34.3786 121.704 34.2642 122.201 34.2642C122.705 34.2642 123.124 34.3786 123.459 34.6072C123.797 34.8326 124.06 35.1491 124.249 35.5568H124.329C124.524 35.1624 124.818 34.8492 125.209 34.6172C125.6 34.3819 126.069 34.2642 126.616 34.2642C127.298 34.2642 127.857 34.478 128.291 34.9055C128.725 35.3298 128.942 35.991 128.942 36.8892V42H127.769V36.8892C127.769 36.3258 127.615 35.9231 127.307 35.6811C126.998 35.4392 126.635 35.3182 126.218 35.3182C125.681 35.3182 125.265 35.4806 124.97 35.8054C124.675 36.1269 124.528 36.5346 124.528 37.0284V42H123.334V36.7699C123.334 36.3357 123.193 35.986 122.912 35.7209C122.63 35.4524 122.267 35.3182 121.823 35.3182C121.518 35.3182 121.233 35.3994 120.968 35.5618C120.706 35.7242 120.494 35.9496 120.331 36.2379C120.172 36.523 120.093 36.8527 120.093 37.2273V42H118.92ZM134.289 42.1591C133.553 42.1591 132.919 41.9967 132.385 41.6719C131.855 41.3438 131.445 40.8864 131.157 40.2997C130.872 39.7098 130.73 39.0237 130.73 38.2415C130.73 37.4593 130.872 36.7699 131.157 36.1733C131.445 35.5734 131.847 35.1061 132.36 34.7713C132.877 34.4332 133.481 34.2642 134.17 34.2642C134.568 34.2642 134.96 34.3305 135.348 34.4631C135.736 34.5956 136.089 34.8111 136.407 35.1094C136.725 35.4044 136.979 35.7955 137.168 36.2827C137.357 36.7699 137.451 37.3698 137.451 38.0824V38.5795H131.565V37.5653H136.258C136.258 37.1345 136.172 36.75 135.999 36.4119C135.83 36.0739 135.588 35.8071 135.274 35.6115C134.962 35.416 134.594 35.3182 134.17 35.3182C133.703 35.3182 133.298 35.4342 132.957 35.6662C132.619 35.8949 132.359 36.1932 132.176 36.5611C131.994 36.929 131.903 37.3234 131.903 37.7443V38.4205C131.903 38.9972 132.002 39.486 132.201 39.8871C132.403 40.2848 132.683 40.5881 133.041 40.7969C133.399 41.0024 133.815 41.1051 134.289 41.1051C134.597 41.1051 134.876 41.062 135.124 40.9759C135.376 40.8864 135.593 40.7538 135.776 40.5781C135.958 40.3991 136.099 40.1771 136.198 39.9119L137.332 40.2301C137.213 40.6146 137.012 40.9527 136.73 41.2443C136.449 41.5327 136.101 41.758 135.686 41.9205C135.272 42.0795 134.806 42.1591 134.289 42.1591ZM144.645 36.0739L143.591 36.3722C143.525 36.1965 143.427 36.0258 143.298 35.8601C143.172 35.6911 142.999 35.5518 142.781 35.4425C142.562 35.3331 142.282 35.2784 141.941 35.2784C141.473 35.2784 141.084 35.3861 140.772 35.6016C140.464 35.8137 140.31 36.0838 140.31 36.4119C140.31 36.7036 140.416 36.9339 140.628 37.103C140.84 37.272 141.172 37.4129 141.622 37.5256L142.756 37.804C143.439 37.9697 143.947 38.2232 144.282 38.5646C144.617 38.9027 144.784 39.3385 144.784 39.8722C144.784 40.3097 144.658 40.7008 144.406 41.0455C144.158 41.3902 143.81 41.6619 143.362 41.8608C142.915 42.0597 142.395 42.1591 141.801 42.1591C141.022 42.1591 140.378 41.9901 139.867 41.652C139.357 41.3139 139.034 40.8201 138.898 40.1705L140.012 39.892C140.118 40.303 140.318 40.6113 140.613 40.8168C140.911 41.0223 141.301 41.125 141.781 41.125C142.328 41.125 142.762 41.009 143.084 40.777C143.409 40.5417 143.571 40.2599 143.571 39.9318C143.571 39.6667 143.478 39.4446 143.293 39.2656C143.107 39.0833 142.822 38.9474 142.438 38.858L141.165 38.5597C140.466 38.3939 139.952 38.1371 139.624 37.7891C139.299 37.4377 139.137 36.9986 139.137 36.4716C139.137 36.0407 139.258 35.6596 139.499 35.3281C139.745 34.9967 140.078 34.7365 140.499 34.5476C140.923 34.3587 141.404 34.2642 141.941 34.2642C142.696 34.2642 143.289 34.4299 143.72 34.7614C144.155 35.0928 144.463 35.5303 144.645 36.0739ZM151.96 36.0739L150.906 36.3722C150.839 36.1965 150.741 36.0258 150.612 35.8601C150.486 35.6911 150.314 35.5518 150.095 35.4425C149.876 35.3331 149.596 35.2784 149.255 35.2784C148.788 35.2784 148.398 35.3861 148.087 35.6016C147.778 35.8137 147.624 36.0838 147.624 36.4119C147.624 36.7036 147.73 36.9339 147.942 37.103C148.155 37.272 148.486 37.4129 148.937 37.5256L150.07 37.804C150.753 37.9697 151.262 38.2232 151.597 38.5646C151.931 38.9027 152.099 39.3385 152.099 39.8722C152.099 40.3097 151.973 40.7008 151.721 41.0455C151.472 41.3902 151.124 41.6619 150.677 41.8608C150.229 42.0597 149.709 42.1591 149.116 42.1591C148.337 42.1591 147.692 41.9901 147.182 41.652C146.671 41.3139 146.348 40.8201 146.212 40.1705L147.326 39.892C147.432 40.303 147.633 40.6113 147.928 40.8168C148.226 41.0223 148.615 41.125 149.096 41.125C149.643 41.125 150.077 41.009 150.398 40.777C150.723 40.5417 150.886 40.2599 150.886 39.9318C150.886 39.6667 150.793 39.4446 150.607 39.2656C150.422 39.0833 150.137 38.9474 149.752 38.858L148.479 38.5597C147.78 38.3939 147.266 38.1371 146.938 37.7891C146.613 37.4377 146.451 36.9986 146.451 36.4716C146.451 36.0407 146.572 35.6596 146.814 35.3281C147.059 34.9967 147.392 34.7365 147.813 34.5476C148.237 34.3587 148.718 34.2642 149.255 34.2642C150.011 34.2642 150.604 34.4299 151.035 34.7614C151.469 35.0928 151.777 35.5303 151.96 36.0739ZM156.112 42.179C155.628 42.179 155.189 42.0878 154.795 41.9055C154.4 41.7199 154.087 41.4531 153.855 41.1051C153.623 40.7538 153.507 40.3295 153.507 39.8324C153.507 39.3949 153.593 39.0402 153.765 38.7685C153.938 38.4934 154.168 38.2779 154.456 38.1222C154.745 37.9664 155.063 37.8504 155.411 37.7741C155.762 37.6946 156.115 37.6316 156.47 37.5852C156.934 37.5256 157.31 37.4808 157.599 37.451C157.89 37.4179 158.102 37.3632 158.235 37.2869C158.371 37.2107 158.439 37.0781 158.439 36.8892V36.8494C158.439 36.3589 158.305 35.9777 158.036 35.706C157.771 35.4342 157.368 35.2983 156.828 35.2983C156.268 35.2983 155.829 35.4209 155.51 35.6662C155.192 35.9115 154.969 36.1733 154.839 36.4517L153.726 36.054C153.925 35.59 154.19 35.2287 154.521 34.9702C154.856 34.7083 155.22 34.526 155.615 34.4233C156.013 34.3172 156.404 34.2642 156.788 34.2642C157.033 34.2642 157.315 34.294 157.633 34.3537C157.955 34.41 158.265 34.5277 158.563 34.7067C158.865 34.8857 159.115 35.1558 159.314 35.517C159.513 35.8783 159.612 36.3622 159.612 36.9688V42H158.439V40.9659H158.379C158.3 41.1316 158.167 41.3089 157.981 41.4979C157.796 41.6868 157.549 41.8475 157.241 41.9801C156.932 42.1127 156.556 42.179 156.112 42.179ZM156.291 41.125C156.755 41.125 157.146 41.0339 157.464 40.8516C157.786 40.6693 158.028 40.4339 158.19 40.1456C158.356 39.8572 158.439 39.554 158.439 39.2358V38.1619C158.389 38.2216 158.28 38.2763 158.111 38.326C157.945 38.3724 157.753 38.4138 157.534 38.4503C157.318 38.4834 157.108 38.5133 156.903 38.5398C156.7 38.563 156.536 38.5829 156.41 38.5994C156.105 38.6392 155.82 38.7038 155.555 38.7933C155.293 38.8795 155.081 39.0104 154.919 39.1861C154.76 39.3584 154.68 39.5937 154.68 39.892C154.68 40.2997 154.831 40.608 155.133 40.8168C155.438 41.0223 155.824 41.125 156.291 41.125ZM164.836 45.0227C164.269 45.0227 163.782 44.9498 163.374 44.804C162.967 44.6615 162.627 44.4725 162.355 44.2372C162.087 44.0052 161.873 43.7566 161.714 43.4915L162.648 42.8352C162.754 42.9744 162.889 43.1335 163.051 43.3125C163.214 43.4948 163.436 43.6522 163.717 43.7848C164.002 43.9207 164.375 43.9886 164.836 43.9886C165.452 43.9886 165.961 43.8395 166.362 43.5412C166.763 43.2429 166.964 42.7756 166.964 42.1392V40.5881H166.864C166.778 40.7273 166.656 40.8996 166.496 41.1051C166.341 41.3073 166.115 41.4879 165.82 41.647C165.529 41.8028 165.134 41.8807 164.637 41.8807C164.021 41.8807 163.467 41.7348 162.977 41.4432C162.489 41.1515 162.103 40.7273 161.818 40.1705C161.536 39.6136 161.396 38.9375 161.396 38.142C161.396 37.3598 161.533 36.6787 161.808 36.0987C162.083 35.5154 162.466 35.0646 162.957 34.7464C163.447 34.425 164.014 34.2642 164.657 34.2642C165.154 34.2642 165.549 34.3471 165.84 34.5128C166.135 34.6752 166.361 34.8608 166.516 35.0696C166.675 35.2751 166.798 35.4441 166.884 35.5767H167.004V34.3636H168.137V42.2188C168.137 42.875 167.988 43.4086 167.69 43.8196C167.395 44.2339 166.997 44.5372 166.496 44.7294C165.999 44.925 165.446 45.0227 164.836 45.0227ZM164.796 40.8267C165.267 40.8267 165.665 40.719 165.989 40.5036C166.314 40.2881 166.561 39.9782 166.73 39.5739C166.899 39.1695 166.984 38.6856 166.984 38.1222C166.984 37.572 166.901 37.0864 166.735 36.6655C166.569 36.2446 166.324 35.9148 165.999 35.6761C165.674 35.4375 165.273 35.3182 164.796 35.3182C164.299 35.3182 163.885 35.4441 163.553 35.696C163.225 35.9479 162.978 36.286 162.812 36.7102C162.65 37.1345 162.569 37.6051 162.569 38.1222C162.569 38.6525 162.652 39.1214 162.817 39.5291C162.987 39.9335 163.235 40.2517 163.563 40.4837C163.895 40.7124 164.306 40.8267 164.796 40.8267ZM173.487 42.1591C172.751 42.1591 172.116 41.9967 171.582 41.6719C171.052 41.3438 170.643 40.8864 170.354 40.2997C170.069 39.7098 169.927 39.0237 169.927 38.2415C169.927 37.4593 170.069 36.7699 170.354 36.1733C170.643 35.5734 171.044 35.1061 171.558 34.7713C172.075 34.4332 172.678 34.2642 173.367 34.2642C173.765 34.2642 174.158 34.3305 174.545 34.4631C174.933 34.5956 175.286 34.8111 175.604 35.1094C175.923 35.4044 176.176 35.7955 176.365 36.2827C176.554 36.7699 176.648 37.3698 176.648 38.0824V38.5795H170.762V37.5653H175.455C175.455 37.1345 175.369 36.75 175.197 36.4119C175.028 36.0739 174.786 35.8071 174.471 35.6115C174.159 35.416 173.791 35.3182 173.367 35.3182C172.9 35.3182 172.496 35.4342 172.154 35.6662C171.816 35.8949 171.556 36.1932 171.374 36.5611C171.191 36.929 171.1 37.3234 171.1 37.7443V38.4205C171.1 38.9972 171.2 39.486 171.398 39.8871C171.601 40.2848 171.881 40.5881 172.239 40.7969C172.597 41.0024 173.013 41.1051 173.487 41.1051C173.795 41.1051 174.073 41.062 174.322 40.9759C174.574 40.8864 174.791 40.7538 174.973 40.5781C175.155 40.3991 175.296 40.1771 175.396 39.9119L176.529 40.2301C176.41 40.6146 176.209 40.9527 175.928 41.2443C175.646 41.5327 175.298 41.758 174.884 41.9205C174.469 42.0795 174.004 42.1591 173.487 42.1591Z" fill="#233D48"/>
<path d="M254 34.586L248.707 29.293C248.518 29.1109 248.266 29.0101 248.004 29.0123C247.741 29.0146 247.491 29.1198 247.305 29.3052C247.12 29.4906 247.015 29.7414 247.012 30.0036C247.01 30.2658 247.111 30.5184 247.293 30.707L252.586 36L247.293 41.293C247.111 41.4816 247.01 41.7342 247.012 41.9964C247.015 42.2586 247.12 42.5094 247.305 42.6948C247.491 42.8802 247.741 42.9854 248.004 42.9877C248.266 42.99 248.518 42.8892 248.707 42.707L254 37.414L259.293 42.707C259.482 42.8892 259.734 42.99 259.996 42.9877C260.259 42.9854 260.509 42.8802 260.695 42.6948C260.88 42.5094 260.985 42.2586 260.988 41.9964C260.99 41.7342 260.889 41.4816 260.707 41.293L255.414 36L260.707 30.707C260.803 30.6148 260.879 30.5044 260.931 30.3824C260.984 30.2604 261.011 30.1292 261.012 29.9964C261.013 29.8636 260.988 29.732 260.938 29.6091C260.888 29.4862 260.813 29.3745 260.719 29.2806C260.626 29.1867 260.514 29.1125 260.391 29.0622C260.268 29.0119 260.136 28.9866 260.004 28.9878C259.871 28.9889 259.74 29.0165 259.618 29.0689C259.496 29.1213 259.385 29.1975 259.293 29.293L254 34.586Z" fill="#233D48"/>
</g>
</g>
<defs>
<filter id="filter0_dd_1_5227" x="0" y="0" width="298" height="80" filterUnits="userSpaceOnUse" color-interpolation-filters="sRGB">
<feFlood flood-opacity="0" result="BackgroundImageFix"/>
<feColorMatrix in="SourceAlpha" type="matrix" values="0 0 0 0 0 0 0 0 0 0 0 0 0 0 0 0 0 0 127 0" result="hardAlpha"/>
<feOffset dy="4"/>
<feGaussianBlur stdDeviation="6"/>
<feColorMatrix type="matrix" values="0 0 0 0 0 0 0 0 0 0 0 0 0 0 0 0 0 0 0.05 0"/>
<feBlend mode="normal" in2="BackgroundImageFix" result="effect1_dropShadow_1_5227"/>
<feColorMatrix in="SourceAlpha" type="matrix" values="0 0 0 0 0 0 0 0 0 0 0 0 0 0 0 0 0 0 127 0" result="hardAlpha"/>
<feOffset dy="1"/>
<feGaussianBlur stdDeviation="2"/>
<feColorMatrix type="matrix" values="0 0 0 0 0 0 0 0 0 0 0 0 0 0 0 0 0 0 0.1 0"/>
<feBlend mode="normal" in2="effect1_dropShadow_1_5227" result="effect2_dropShadow_1_5227"/>
<feBlend mode="normal" in="SourceGraphic" in2="effect2_dropShadow_1_5227" result="shape"/>
</filter>
<filter id="filter1_dd_1_5227" x="0" y="0" width="298" height="80" filterUnits="userSpaceOnUse" color-interpolation-filters="sRGB">
<feFlood flood-opacity="0" result="BackgroundImageFix"/>
<feColorMatrix in="SourceAlpha" type="matrix" values="0 0 0 0 0 0 0 0 0 0 0 0 0 0 0 0 0 0 127 0" result="hardAlpha"/>
<feOffset dy="4"/>
<feGaussianBlur stdDeviation="6"/>
<feColorMatrix type="matrix" values="0 0 0 0 0 0 0 0 0 0 0 0 0 0 0 0 0 0 0.05 0"/>
<feBlend mode="normal" in2="BackgroundImageFix" result="effect1_dropShadow_1_5227"/>
<feColorMatrix in="SourceAlpha" type="matrix" values="0 0 0 0 0 0 0 0 0 0 0 0 0 0 0 0 0 0 127 0" result="hardAlpha"/>
<feOffset dy="1"/>
<feGaussianBlur stdDeviation="2"/>
<feColorMatrix type="matrix" values="0 0 0 0 0 0 0 0 0 0 0 0 0 0 0 0 0 0 0.1 0"/>
<feBlend mode="normal" in2="effect1_dropShadow_1_5227" result="effect2_dropShadow_1_5227"/>
<feBlend mode="normal" in="SourceGraphic" in2="effect2_dropShadow_1_5227" result="shape"/>
</filter>
</defs>
</svg>
