<svg width="224" height="117" viewBox="0 0 224 117" fill="none" xmlns="http://www.w3.org/2000/svg">
<path d="M11 41.5942C11 37.9523 13.9523 35 17.5941 35H205.406C209.048 35 212 37.9523 212 41.5941V74.5648C212 78.2067 209.048 81.159 205.406 81.159H17.5941C13.9523 81.159 11 78.2067 11 74.5649V41.5942Z" fill="#F5F0D1"/>
<path d="M24.1882 58.0795C24.1882 52.6167 28.6167 48.1883 34.0794 48.1883V48.1883C39.5422 48.1883 43.9707 52.6167 43.9707 58.0795V58.0795C43.9707 63.5423 39.5422 67.9707 34.0794 67.9707V67.9707C28.6167 67.9707 24.1882 63.5423 24.1882 58.0795V58.0795Z" fill="#CDB52D"/>
<path d="M34.0623 55.3319C33.3067 55.3319 32.6473 55.9699 32.5748 56.0424C32.4795 56.1468 32.4281 56.2839 32.4312 56.4252C32.4343 56.5665 32.4916 56.7012 32.5913 56.8013C32.6911 56.9014 32.8255 56.9594 32.9668 56.963C33.1081 56.9667 33.2453 56.9159 33.3501 56.8211C33.51 56.6639 33.8469 56.4309 34.0623 56.4309C34.1782 56.4311 34.291 56.4678 34.3848 56.5359C34.4786 56.604 34.5484 56.6999 34.5844 56.8101C34.6205 56.9202 34.6207 57.0389 34.5853 57.1493C34.5499 57.2596 34.4805 57.3559 34.387 57.4245C33.8315 57.8311 33.5128 58.418 33.5128 59.034V59.1785C33.5128 59.3242 33.5707 59.464 33.6737 59.5671C33.7768 59.6701 33.9166 59.728 34.0623 59.728C34.208 59.728 34.3478 59.6701 34.4508 59.5671C34.5539 59.464 34.6118 59.3242 34.6118 59.1785V59.034C34.6118 58.6751 34.8778 58.4268 35.0366 58.3103C35.2451 58.1568 35.4148 57.9565 35.5319 57.7255C35.6489 57.4946 35.7103 57.2394 35.7108 56.9804C35.7108 56.0716 34.9712 55.3319 34.0623 55.3319Z" fill="#F5F0D1"/>
<path d="M34.0796 60.2775C33.7761 60.2775 33.5301 60.5235 33.5301 60.827C33.5301 61.1305 33.7761 61.3765 34.0796 61.3765C34.3831 61.3765 34.6291 61.1305 34.6291 60.827C34.6291 60.5235 34.3831 60.2775 34.0796 60.2775Z" fill="#F5F0D1"/>
<path d="M39.5747 58.0795C39.5747 61.1143 37.1144 63.5746 34.0796 63.5746C31.0447 63.5746 28.5845 61.1143 28.5845 58.0795C28.5845 55.0446 31.0447 52.5844 34.0796 52.5844C37.1144 52.5844 39.5747 55.0446 39.5747 58.0795ZM38.4757 58.0795C38.4757 55.6516 36.5075 53.6834 34.0796 53.6834C31.6517 53.6834 29.6835 55.6516 29.6835 58.0795C29.6835 60.5074 31.6517 62.4756 34.0796 62.4756C36.5075 62.4756 38.4757 60.5074 38.4757 58.0795Z" fill="#F5F0D1"/>
<path d="M56.1708 56.1909C56.1216 55.7757 55.9222 55.4533 55.5725 55.2238C55.2228 54.9944 54.7939 54.8796 54.2857 54.8796C53.9142 54.8796 53.5891 54.9397 53.3104 55.0599C53.0345 55.1801 52.8187 55.3454 52.663 55.5558C52.51 55.7661 52.4335 56.0052 52.4335 56.2729C52.4335 56.4969 52.4867 56.6895 52.5933 56.8507C52.7026 57.0092 52.8419 57.1417 53.0113 57.2482C53.1807 57.352 53.3582 57.4381 53.544 57.5064C53.7298 57.5719 53.9005 57.6252 54.0562 57.6662L54.9086 57.8957C55.1272 57.953 55.3703 58.0323 55.638 58.1334C55.9085 58.2344 56.1667 58.3724 56.4126 58.5472C56.6612 58.7194 56.8661 58.9406 57.0272 59.2111C57.1884 59.4816 57.269 59.8135 57.269 60.2069C57.269 60.6604 57.1502 61.0702 56.9125 61.4363C56.6776 61.8024 56.3333 62.0933 55.8798 62.3091C55.4291 62.525 54.8813 62.6329 54.2366 62.6329C53.6355 62.6329 53.1151 62.5359 52.6752 62.3419C52.2381 62.148 51.8939 61.8775 51.6426 61.5305C51.394 61.1836 51.2533 60.7806 51.2205 60.3216H52.2696C52.2969 60.6386 52.4034 60.9008 52.5892 61.1084C52.7777 61.3133 53.0154 61.4663 53.3022 61.5674C53.5918 61.6658 53.9033 61.7149 54.2366 61.7149C54.6245 61.7149 54.9728 61.6521 55.2815 61.5264C55.5902 61.398 55.8347 61.2205 56.0151 60.9937C56.1954 60.7642 56.2855 60.4965 56.2855 60.1905C56.2855 59.9119 56.2077 59.6851 56.0519 59.5103C55.8962 59.3354 55.6913 59.1934 55.4372 59.0841C55.1832 58.9748 54.9086 58.8792 54.6136 58.7972L53.5809 58.5022C52.9252 58.3137 52.4062 58.0446 52.0237 57.6949C51.6412 57.3452 51.45 56.8876 51.45 56.3221C51.45 55.8522 51.577 55.4424 51.8311 55.0927C52.0879 54.7403 52.4321 54.4671 52.8638 54.2731C53.2981 54.0764 53.7831 53.9781 54.3185 53.9781C54.8594 53.9781 55.3403 54.075 55.761 54.269C56.1817 54.4603 56.515 54.7225 56.7609 55.0558C57.0095 55.3891 57.1406 55.7675 57.1543 56.1909H56.1708ZM61.5462 56.1909V57.0105H58.2843V56.1909H61.5462ZM59.235 54.6829H60.2021V60.6823C60.2021 60.9555 60.2417 61.1604 60.3209 61.297C60.4029 61.4308 60.5067 61.521 60.6324 61.5674C60.7608 61.6111 60.896 61.633 61.0381 61.633C61.1446 61.633 61.2321 61.6275 61.3004 61.6166C61.3686 61.6029 61.4233 61.592 61.4643 61.5838L61.661 62.4526C61.5954 62.4772 61.5039 62.5017 61.3864 62.5263C61.2689 62.5537 61.12 62.5673 60.9397 62.5673C60.6665 62.5673 60.3988 62.5086 60.1365 62.3911C59.877 62.2736 59.6612 62.0947 59.4891 61.8543C59.3197 61.6139 59.235 61.3106 59.235 60.9445V54.6829ZM64.8532 62.6329C64.4544 62.6329 64.0924 62.5577 63.7673 62.4075C63.4422 62.2545 63.184 62.0346 62.9928 61.7477C62.8016 61.4581 62.7059 61.1084 62.7059 60.6987C62.7059 60.338 62.777 60.0457 62.919 59.8217C63.0611 59.595 63.251 59.4174 63.4886 59.289C63.7263 59.1606 63.9886 59.065 64.2754 59.0021C64.565 58.9366 64.856 58.8846 65.1483 58.8464C65.5308 58.7972 65.8408 58.7603 66.0785 58.7358C66.3189 58.7084 66.4938 58.6634 66.6031 58.6005C66.7151 58.5377 66.7711 58.4284 66.7711 58.2727V58.2399C66.7711 57.8356 66.6604 57.5214 66.4391 57.2974C66.2206 57.0734 65.8887 56.9614 65.4433 56.9614C64.9817 56.9614 64.6197 57.0624 64.3574 57.2646C64.0951 57.4668 63.9107 57.6826 63.8042 57.9121L62.8862 57.5842C63.0502 57.2018 63.2687 56.904 63.5419 56.6909C63.8178 56.4751 64.1184 56.3248 64.4435 56.2401C64.7713 56.1527 65.0937 56.109 65.4106 56.109C65.6127 56.109 65.8449 56.1336 66.1072 56.1827C66.3722 56.2292 66.6276 56.3262 66.8735 56.4737C67.1221 56.6212 67.3284 56.8439 67.4923 57.1417C67.6562 57.4394 67.7382 57.8383 67.7382 58.3383V62.4854H66.7711V61.633H66.7219C66.6563 61.7696 66.5471 61.9157 66.3941 62.0715C66.2411 62.2272 66.0375 62.3597 65.7835 62.469C65.5294 62.5782 65.2193 62.6329 64.8532 62.6329ZM65.0008 61.7641C65.3832 61.7641 65.7056 61.689 65.9679 61.5387C66.2329 61.3885 66.4323 61.1945 66.5662 60.9568C66.7028 60.7191 66.7711 60.4692 66.7711 60.2069V59.3218C66.7301 59.3709 66.6399 59.416 66.5006 59.457C66.364 59.4952 66.2056 59.5294 66.0253 59.5594C65.8477 59.5868 65.6742 59.6113 65.5048 59.6332C65.3382 59.6523 65.2029 59.6687 65.0991 59.6824C64.8478 59.7152 64.6128 59.7684 64.3943 59.8422C64.1785 59.9132 64.0036 60.0211 63.8697 60.1659C63.7386 60.308 63.673 60.502 63.673 60.7478C63.673 61.0839 63.7974 61.3379 64.046 61.51C64.2973 61.6794 64.6156 61.7641 65.0008 61.7641ZM72.2408 56.1909V57.0105H68.9788V56.1909H72.2408ZM69.9295 54.6829H70.8967V60.6823C70.8967 60.9555 70.9363 61.1604 71.0155 61.297C71.0975 61.4308 71.2013 61.521 71.3269 61.5674C71.4553 61.6111 71.5906 61.633 71.7326 61.633C71.8392 61.633 71.9266 61.6275 71.9949 61.6166C72.0632 61.6029 72.1178 61.592 72.1588 61.5838L72.3555 62.4526C72.29 62.4772 72.1984 62.5017 72.081 62.5263C71.9635 62.5537 71.8146 62.5673 71.6343 62.5673C71.3611 62.5673 71.0934 62.5086 70.8311 62.3911C70.5716 62.2736 70.3557 62.0947 70.1836 61.8543C70.0142 61.6139 69.9295 61.3106 69.9295 60.9445V54.6829ZM77.6623 59.9119V56.1909H78.6294V62.4854H77.6623V61.4199H77.5968C77.4492 61.7395 77.2198 62.0114 76.9083 62.2354C76.5969 62.4567 76.2035 62.5673 75.7281 62.5673C75.3347 62.5673 74.985 62.4813 74.679 62.3091C74.3731 62.1343 74.1327 61.872 73.9578 61.5223C73.783 61.1699 73.6955 60.726 73.6955 60.1905V56.1909H74.6626V60.1249C74.6626 60.5839 74.7911 60.95 75.0479 61.2232C75.3074 61.4964 75.638 61.633 76.0396 61.633C76.28 61.633 76.5245 61.5715 76.7731 61.4486C77.0244 61.3256 77.2348 61.1371 77.4042 60.8831C77.5763 60.629 77.6623 60.3053 77.6623 59.9119ZM84.8593 57.6006L83.9905 57.8465C83.9359 57.7017 83.8553 57.561 83.7488 57.4244C83.645 57.2851 83.5029 57.1703 83.3226 57.0802C83.1423 56.99 82.9114 56.945 82.63 56.945C82.2448 56.945 81.9238 57.0337 81.667 57.2113C81.413 57.3862 81.2859 57.6088 81.2859 57.8793C81.2859 58.1197 81.3733 58.3096 81.5482 58.4489C81.723 58.5882 81.9962 58.7043 82.3678 58.7972L83.3021 59.0267C83.8649 59.1633 84.2842 59.3723 84.5602 59.6537C84.8361 59.9323 84.974 60.2916 84.974 60.7314C84.974 61.0921 84.8702 61.4144 84.6626 61.6986C84.4577 61.9827 84.1709 62.2067 83.802 62.3706C83.4332 62.5345 83.0043 62.6165 82.5153 62.6165C81.8733 62.6165 81.3419 62.4772 80.9212 62.1985C80.5005 61.9198 80.2341 61.5128 80.1221 60.9773L81.04 60.7478C81.1275 61.0866 81.2927 61.3407 81.5359 61.51C81.7818 61.6794 82.1028 61.7641 82.4989 61.7641C82.9497 61.7641 83.3076 61.6685 83.5726 61.4773C83.8403 61.2833 83.9742 61.0511 83.9742 60.7806C83.9742 60.5621 83.8977 60.379 83.7447 60.2315C83.5917 60.0812 83.3567 59.9692 83.0398 59.8955L81.9908 59.6496C81.4143 59.513 80.9909 59.3013 80.7204 59.0144C80.4527 58.7248 80.3188 58.3628 80.3188 57.9285C80.3188 57.5733 80.4185 57.2591 80.618 56.9859C80.8201 56.7127 81.0947 56.4983 81.4416 56.3426C81.7913 56.1868 82.1875 56.109 82.63 56.109C83.2529 56.109 83.7419 56.2456 84.0971 56.5188C84.455 56.792 84.709 57.1526 84.8593 57.6006ZM89.6754 62.4854V56.1909H90.6097V57.1744H90.6917C90.8228 56.8384 91.0345 56.5775 91.3268 56.3917C91.6192 56.2032 91.9702 56.109 92.38 56.109C92.7953 56.109 93.1409 56.2032 93.4168 56.3917C93.6954 56.5775 93.9126 56.8384 94.0684 57.1744H94.1339C94.2951 56.8493 94.5369 56.5912 94.8593 56.3999C95.1816 56.206 95.5682 56.109 96.019 56.109C96.5817 56.109 97.0421 56.2852 97.4 56.6376C97.7579 56.9873 97.9368 57.5323 97.9368 58.2727V62.4854H96.9697V58.2727C96.9697 57.8083 96.8427 57.4763 96.5886 57.2769C96.3345 57.0775 96.0354 56.9777 95.6911 56.9777C95.2486 56.9777 94.9057 57.1116 94.6626 57.3793C94.4194 57.6443 94.2978 57.9804 94.2978 58.3874V62.4854H93.3143V58.1743C93.3143 57.8165 93.1982 57.5282 92.966 57.3097C92.7338 57.0884 92.4347 56.9777 92.0686 56.9777C91.8172 56.9777 91.5823 57.0447 91.3637 57.1785C91.1479 57.3124 90.9731 57.4982 90.8392 57.7359C90.7081 57.9708 90.6425 58.2426 90.6425 58.5513V62.4854H89.6754ZM102.344 62.6165C101.738 62.6165 101.214 62.4826 100.775 62.2149C100.337 61.9444 100 61.5674 99.7624 61.0839C99.5275 60.5976 99.41 60.0321 99.41 59.3873C99.41 58.7426 99.5275 58.1743 99.7624 57.6826C100 57.1881 100.331 56.8029 100.754 56.527C101.18 56.2483 101.678 56.109 102.246 56.109C102.574 56.109 102.897 56.1636 103.217 56.2729C103.537 56.3822 103.828 56.5598 104.09 56.8056C104.352 57.0488 104.561 57.3711 104.717 57.7727C104.873 58.1743 104.95 58.6688 104.95 59.2562V59.666H100.098V58.83H103.967C103.967 58.4749 103.896 58.1579 103.754 57.8793C103.614 57.6006 103.415 57.3807 103.156 57.2195C102.899 57.0583 102.595 56.9777 102.246 56.9777C101.861 56.9777 101.527 57.0734 101.246 57.2646C100.967 57.4531 100.753 57.699 100.602 58.0022C100.452 58.3055 100.377 58.6306 100.377 58.9775V59.5348C100.377 60.0102 100.459 60.4132 100.623 60.7437C100.79 61.0716 101.02 61.3215 101.316 61.4937C101.611 61.663 101.953 61.7477 102.344 61.7477C102.598 61.7477 102.828 61.7122 103.033 61.6412C103.24 61.5674 103.419 61.4581 103.569 61.3133C103.72 61.1658 103.836 60.9828 103.918 60.7642L104.852 61.0265C104.754 61.3434 104.588 61.6221 104.356 61.8625C104.124 62.1001 103.837 62.2859 103.496 62.4198C103.154 62.5509 102.77 62.6165 102.344 62.6165ZM110.88 57.6006L110.011 57.8465C109.957 57.7017 109.876 57.561 109.77 57.4244C109.666 57.2851 109.524 57.1703 109.343 57.0802C109.163 56.99 108.932 56.945 108.651 56.945C108.266 56.945 107.945 57.0337 107.688 57.2113C107.434 57.3862 107.307 57.6088 107.307 57.8793C107.307 58.1197 107.394 58.3096 107.569 58.4489C107.744 58.5882 108.017 58.7043 108.389 58.7972L109.323 59.0267C109.886 59.1633 110.305 59.3723 110.581 59.6537C110.857 59.9323 110.995 60.2916 110.995 60.7314C110.995 61.0921 110.891 61.4144 110.683 61.6986C110.478 61.9827 110.192 62.2067 109.823 62.3706C109.454 62.5345 109.025 62.6165 108.536 62.6165C107.894 62.6165 107.363 62.4772 106.942 62.1985C106.521 61.9198 106.255 61.5128 106.143 60.9773L107.061 60.7478C107.148 61.0866 107.314 61.3407 107.557 61.51C107.803 61.6794 108.124 61.7641 108.52 61.7641C108.97 61.7641 109.328 61.6685 109.593 61.4773C109.861 61.2833 109.995 61.0511 109.995 60.7806C109.995 60.5621 109.918 60.379 109.765 60.2315C109.612 60.0812 109.378 59.9692 109.061 59.8955L108.012 59.6496C107.435 59.513 107.012 59.3013 106.741 59.0144C106.473 58.7248 106.34 58.3628 106.34 57.9285C106.34 57.5733 106.439 57.2591 106.639 56.9859C106.841 56.7127 107.115 56.4983 107.462 56.3426C107.812 56.1868 108.208 56.109 108.651 56.109C109.274 56.109 109.763 56.2456 110.118 56.5188C110.476 56.792 110.73 57.1526 110.88 57.6006ZM116.909 57.6006L116.04 57.8465C115.986 57.7017 115.905 57.561 115.799 57.4244C115.695 57.2851 115.553 57.1703 115.372 57.0802C115.192 56.99 114.961 56.945 114.68 56.945C114.295 56.945 113.974 57.0337 113.717 57.2113C113.463 57.3862 113.336 57.6088 113.336 57.8793C113.336 58.1197 113.423 58.3096 113.598 58.4489C113.773 58.5882 114.046 58.7043 114.418 58.7972L115.352 59.0267C115.915 59.1633 116.334 59.3723 116.61 59.6537C116.886 59.9323 117.024 60.2916 117.024 60.7314C117.024 61.0921 116.92 61.4144 116.712 61.6986C116.508 61.9827 116.221 62.2067 115.852 62.3706C115.483 62.5345 115.054 62.6165 114.565 62.6165C113.923 62.6165 113.392 62.4772 112.971 62.1985C112.55 61.9198 112.284 61.5128 112.172 60.9773L113.09 60.7478C113.177 61.0866 113.343 61.3407 113.586 61.51C113.832 61.6794 114.153 61.7641 114.549 61.7641C115 61.7641 115.357 61.6685 115.622 61.4773C115.89 61.2833 116.024 61.0511 116.024 60.7806C116.024 60.5621 115.948 60.379 115.795 60.2315C115.642 60.0812 115.407 59.9692 115.09 59.8955L114.041 59.6496C113.464 59.513 113.041 59.3013 112.77 59.0144C112.503 58.7248 112.369 58.3628 112.369 57.9285C112.369 57.5733 112.468 57.2591 112.668 56.9859C112.87 56.7127 113.145 56.4983 113.491 56.3426C113.841 56.1868 114.237 56.109 114.68 56.109C115.303 56.109 115.792 56.2456 116.147 56.5188C116.505 56.792 116.759 57.1526 116.909 57.6006ZM120.332 62.6329C119.933 62.6329 119.571 62.5577 119.246 62.4075C118.921 62.2545 118.663 62.0346 118.471 61.7477C118.28 61.4581 118.185 61.1084 118.185 60.6987C118.185 60.338 118.256 60.0457 118.398 59.8217C118.54 59.595 118.73 59.4174 118.967 59.289C119.205 59.1606 119.467 59.065 119.754 59.0021C120.044 58.9366 120.335 58.8846 120.627 58.8464C121.009 58.7972 121.32 58.7603 121.557 58.7358C121.798 58.7084 121.972 58.6634 122.082 58.6005C122.194 58.5377 122.25 58.4284 122.25 58.2727V58.2399C122.25 57.8356 122.139 57.5214 121.918 57.2974C121.699 57.0734 121.367 56.9614 120.922 56.9614C120.46 56.9614 120.098 57.0624 119.836 57.2646C119.574 57.4668 119.389 57.6826 119.283 57.9121L118.365 57.5842C118.529 57.2018 118.747 56.904 119.021 56.6909C119.297 56.4751 119.597 56.3248 119.922 56.2401C120.25 56.1527 120.572 56.109 120.889 56.109C121.091 56.109 121.324 56.1336 121.586 56.1827C121.851 56.2292 122.106 56.3262 122.352 56.4737C122.601 56.6212 122.807 56.8439 122.971 57.1417C123.135 57.4394 123.217 57.8383 123.217 58.3383V62.4854H122.25V61.633H122.201C122.135 61.7696 122.026 61.9157 121.873 62.0715C121.72 62.2272 121.516 62.3597 121.262 62.469C121.008 62.5782 120.698 62.6329 120.332 62.6329ZM120.479 61.7641C120.862 61.7641 121.184 61.689 121.447 61.5387C121.712 61.3885 121.911 61.1945 122.045 60.9568C122.181 60.7191 122.25 60.4692 122.25 60.2069V59.3218C122.209 59.3709 122.119 59.416 121.979 59.457C121.843 59.4952 121.684 59.5294 121.504 59.5594C121.326 59.5868 121.153 59.6113 120.984 59.6332C120.817 59.6523 120.682 59.6687 120.578 59.6824C120.326 59.7152 120.092 59.7684 119.873 59.8422C119.657 59.9132 119.482 60.0211 119.348 60.1659C119.217 60.308 119.152 60.502 119.152 60.7478C119.152 61.0839 119.276 61.3379 119.525 61.51C119.776 61.6794 120.094 61.7641 120.479 61.7641ZM127.523 64.9769C127.056 64.9769 126.654 64.9168 126.318 64.7966C125.982 64.6791 125.702 64.5234 125.478 64.3294C125.257 64.1382 125.08 63.9333 124.949 63.7147L125.72 63.1738C125.807 63.2885 125.918 63.4197 126.052 63.5672C126.185 63.7175 126.369 63.8472 126.601 63.9565C126.836 64.0685 127.143 64.1245 127.523 64.1245C128.031 64.1245 128.45 64.0016 128.781 63.7557C129.111 63.5098 129.277 63.1246 129.277 62.6001V61.3215H129.195C129.124 61.4363 129.023 61.5783 128.891 61.7477C128.763 61.9144 128.577 62.0633 128.334 62.1944C128.094 62.3228 127.769 62.387 127.359 62.387C126.851 62.387 126.394 62.2668 125.99 62.0264C125.589 61.786 125.27 61.4363 125.035 60.9773C124.803 60.5183 124.687 59.961 124.687 59.3054C124.687 58.6606 124.8 58.0992 125.027 57.6211C125.254 57.1403 125.569 56.7688 125.974 56.5065C126.378 56.2415 126.845 56.109 127.375 56.109C127.785 56.109 128.11 56.1773 128.351 56.3139C128.594 56.4477 128.779 56.6007 128.908 56.7728C129.039 56.9422 129.14 57.0816 129.211 57.1908H129.309V56.1909H130.244V62.6657C130.244 63.2066 130.121 63.6464 129.875 63.9852C129.632 64.3267 129.304 64.5767 128.891 64.7351C128.482 64.8963 128.025 64.9769 127.523 64.9769ZM127.49 61.5182C127.878 61.5182 128.206 61.4295 128.473 61.2519C128.741 61.0743 128.945 60.8189 129.084 60.4856C129.223 60.1523 129.293 59.7534 129.293 59.289C129.293 58.8355 129.225 58.4352 129.088 58.0883C128.952 57.7413 128.749 57.4695 128.482 57.2728C128.214 57.0761 127.883 56.9777 127.49 56.9777C127.08 56.9777 126.739 57.0816 126.466 57.2892C126.195 57.4968 125.992 57.7755 125.855 58.1252C125.721 58.4749 125.654 58.8628 125.654 59.289C125.654 59.7261 125.722 60.1127 125.859 60.4487C125.998 60.782 126.203 61.0442 126.474 61.2355C126.747 61.424 127.086 61.5182 127.49 61.5182ZM134.653 62.6165C134.047 62.6165 133.523 62.4826 133.084 62.2149C132.647 61.9444 132.309 61.5674 132.071 61.0839C131.837 60.5976 131.719 60.0321 131.719 59.3873C131.719 58.7426 131.837 58.1743 132.071 57.6826C132.309 57.1881 132.64 56.8029 133.063 56.527C133.489 56.2483 133.987 56.109 134.555 56.109C134.883 56.109 135.206 56.1636 135.526 56.2729C135.846 56.3822 136.137 56.5598 136.399 56.8056C136.661 57.0488 136.87 57.3711 137.026 57.7727C137.182 58.1743 137.259 58.6688 137.259 59.2562V59.666H132.407V58.83H136.276C136.276 58.4749 136.205 58.1579 136.063 57.8793C135.924 57.6006 135.724 57.3807 135.465 57.2195C135.208 57.0583 134.904 56.9777 134.555 56.9777C134.17 56.9777 133.836 57.0734 133.555 57.2646C133.276 57.4531 133.062 57.699 132.912 58.0022C132.761 58.3055 132.686 58.6306 132.686 58.9775V59.5348C132.686 60.0102 132.768 60.4132 132.932 60.7437C133.099 61.0716 133.33 61.3215 133.625 61.4937C133.92 61.663 134.262 61.7477 134.653 61.7477C134.907 61.7477 135.137 61.7122 135.342 61.6412C135.549 61.5674 135.728 61.4581 135.878 61.3133C136.029 61.1658 136.145 60.9828 136.227 60.7642L137.161 61.0265C137.063 61.3434 136.897 61.6221 136.665 61.8625C136.433 62.1001 136.146 62.2859 135.805 62.4198C135.463 62.5509 135.079 62.6165 134.653 62.6165Z" fill="#645916"/>
<path d="M185.623 56.914L181.261 52.5511C181.105 52.401 180.897 52.3179 180.681 52.3198C180.465 52.3217 180.258 52.4084 180.105 52.5612C179.952 52.714 179.866 52.9207 179.864 53.1369C179.862 53.353 179.945 53.5612 180.095 53.7167L184.458 58.0795L180.095 62.4423C179.945 62.5978 179.862 62.806 179.864 63.0221C179.866 63.2382 179.952 63.445 180.105 63.5978C180.258 63.7506 180.465 63.8373 180.681 63.8392C180.897 63.8411 181.105 63.758 181.261 63.6078L185.623 59.245L189.986 63.6078C190.142 63.758 190.35 63.8411 190.566 63.8392C190.782 63.8373 190.989 63.7506 191.142 63.5978C191.295 63.445 191.381 63.2382 191.383 63.0221C191.385 62.806 191.302 62.5978 191.152 62.4423L186.789 58.0795L191.152 53.7167C191.231 53.6406 191.293 53.5497 191.337 53.4491C191.38 53.3485 191.402 53.2404 191.403 53.1309C191.404 53.0215 191.384 52.9129 191.342 52.8116C191.301 52.7103 191.239 52.6183 191.162 52.5409C191.085 52.4635 190.993 52.4023 190.891 52.3609C190.79 52.3194 190.682 52.2986 190.572 52.2995C190.463 52.3005 190.354 52.3232 190.254 52.3664C190.153 52.4096 190.062 52.4724 189.986 52.5511L185.623 56.914Z" fill="#233D48"/>
</svg>
