<svg width="224" height="117" viewBox="0 0 224 117" fill="none" xmlns="http://www.w3.org/2000/svg">
<g clip-path="url(#clip0_2314_47293)">
<g clip-path="url(#clip1_2314_47293)">
<rect width="224" height="519" transform="translate(0 -295)" fill="black" fill-opacity="0.32"/>
<path d="M0 61.5556C0 58.7328 2.28832 56.4445 5.11111 56.4445H218.889C221.712 56.4445 224 58.7328 224 61.5556V224H0V61.5556Z" fill="white"/>
<path d="M12.7778 68.2778C12.0721 68.2778 11.5 68.8499 11.5 69.5556V79.5132C11.5 80.0824 12.1882 80.3675 12.5907 79.965L14.0556 78.5001H23C23.7057 78.5001 24.2778 77.928 24.2778 77.2223V69.5556C24.2778 68.8499 23.7057 68.2778 23 68.2778H12.7778ZM23 69.5556V77.2223H13.4167L12.7778 77.8612V69.5556H23ZM14.0556 71.4723C14.0556 71.1194 14.3416 70.8334 14.6944 70.8334H21.0833C21.4362 70.8334 21.7222 71.1194 21.7222 71.4723C21.7222 71.8251 21.4362 72.1112 21.0833 72.1112H14.6944C14.3416 72.1112 14.0556 71.8251 14.0556 71.4723ZM14.6944 72.7501C14.3416 72.7501 14.0556 73.0361 14.0556 73.3889C14.0556 73.7418 14.3416 74.0278 14.6944 74.0278H21.0833C21.4362 74.0278 21.7222 73.7418 21.7222 73.3889C21.7222 73.0361 21.4362 72.7501 21.0833 72.7501H14.6944ZM14.6944 74.6667C14.3416 74.6667 14.0556 74.9528 14.0556 75.3056C14.0556 75.6585 14.3416 75.9445 14.6944 75.9445H18.5278C18.8806 75.9445 19.1667 75.6585 19.1667 75.3056C19.1667 74.9528 18.8806 74.6667 18.5278 74.6667H14.6944Z" fill="#233D48"/>
<path d="M40.5513 72.2761C40.5175 71.9591 40.3747 71.7122 40.123 71.5356C39.8737 71.3589 39.5495 71.2706 39.1501 71.2706C38.8694 71.2706 38.6286 71.3129 38.4278 71.3976C38.2269 71.4823 38.0732 71.5973 37.9668 71.7425C37.8603 71.8877 37.8058 72.0534 37.8034 72.2398C37.8034 72.3947 37.8385 72.529 37.9087 72.6427C37.9813 72.7565 38.0793 72.8533 38.2027 72.9331C38.3261 73.0106 38.4629 73.0759 38.6129 73.1292C38.7629 73.1824 38.9142 73.2272 39.0667 73.2635L39.7636 73.4377C40.0444 73.503 40.3142 73.5914 40.5731 73.7027C40.8345 73.814 41.068 73.9544 41.2737 74.1238C41.4819 74.2932 41.6464 74.4977 41.7674 74.7373C41.8884 74.9768 41.9489 75.2576 41.9489 75.5794C41.9489 76.015 41.8376 76.3986 41.615 76.7302C41.3923 77.0593 41.0704 77.317 40.6494 77.5034C40.2307 77.6873 39.7237 77.7792 39.1284 77.7792C38.55 77.7792 38.0478 77.6897 37.6219 77.5106C37.1984 77.3315 36.8668 77.0702 36.6273 76.7265C36.3901 76.3829 36.2618 75.9642 36.2425 75.4705H37.5674C37.5868 75.7295 37.6667 75.9449 37.807 76.1167C37.9474 76.2885 38.1301 76.4168 38.3552 76.5015C38.5827 76.5862 38.8368 76.6285 39.1175 76.6285C39.4103 76.6285 39.6668 76.585 39.887 76.4978C40.1097 76.4083 40.2839 76.2849 40.4098 76.1276C40.5356 75.9679 40.5997 75.7815 40.6022 75.5685C40.5997 75.3749 40.5429 75.2152 40.4316 75.0894C40.3202 74.9611 40.1641 74.8546 39.9633 74.7699C39.7648 74.6828 39.5325 74.6054 39.2663 74.5376L38.4205 74.3198C37.8082 74.1625 37.3242 73.9241 36.9685 73.6047C36.6152 73.2828 36.4385 72.8557 36.4385 72.3233C36.4385 71.8853 36.5571 71.5017 36.7942 71.1726C37.0338 70.8434 37.3593 70.5881 37.7707 70.4066C38.1821 70.2227 38.648 70.1307 39.1683 70.1307C39.6959 70.1307 40.1581 70.2227 40.555 70.4066C40.9543 70.5881 41.2677 70.841 41.4952 71.1653C41.7226 71.4872 41.84 71.8574 41.8473 72.2761H40.5513ZM45.5599 77.7756C45.0009 77.7756 44.5181 77.6595 44.1115 77.4271C43.7074 77.1924 43.3964 76.8608 43.1786 76.4325C42.9608 76.0017 42.8519 75.4947 42.8519 74.9115C42.8519 74.338 42.9608 73.8346 43.1786 73.4014C43.3988 72.9658 43.7062 72.627 44.1006 72.385C44.4951 72.1406 44.9585 72.0184 45.4909 72.0184C45.8346 72.0184 46.1589 72.074 46.4638 72.1853C46.7711 72.2942 47.0422 72.4636 47.2769 72.6935C47.5141 72.9235 47.7004 73.2163 47.836 73.572C47.9715 73.9253 48.0392 74.3464 48.0392 74.8353V75.2382H43.469V74.3525H46.7796C46.7772 74.1008 46.7227 73.8769 46.6163 73.6809C46.5098 73.4825 46.3609 73.3264 46.1698 73.2126C45.981 73.0989 45.7608 73.042 45.5091 73.042C45.2405 73.042 45.0045 73.1074 44.8012 73.2381C44.5979 73.3663 44.4394 73.5357 44.3257 73.7463C44.2144 73.9544 44.1575 74.1831 44.1551 74.4323V75.2055C44.1551 75.5298 44.2144 75.8081 44.333 76.0405C44.4515 76.2704 44.6173 76.447 44.8303 76.5704C45.0432 76.6914 45.2925 76.7519 45.5781 76.7519C45.7692 76.7519 45.9423 76.7253 46.0972 76.6721C46.252 76.6164 46.3864 76.5354 46.5001 76.4289C46.6138 76.3224 46.6997 76.1905 46.7578 76.0332L47.9848 76.1711C47.9073 76.4954 47.7597 76.7786 47.5419 77.0206C47.3265 77.2602 47.0507 77.4465 46.7143 77.5796C46.3779 77.7103 45.9931 77.7756 45.5599 77.7756ZM50.465 74.3997V77.6667H49.1509V72.091H50.4069V73.0384H50.4723C50.6005 72.7262 50.805 72.4782 51.0858 72.2942C51.3689 72.1103 51.7186 72.0184 52.1348 72.0184C52.5196 72.0184 52.8548 72.1006 53.1404 72.2652C53.4283 72.4298 53.651 72.6681 53.8083 72.9803C53.968 73.2925 54.0467 73.6712 54.0442 74.1165V77.6667H52.7302V74.3198C52.7302 73.9471 52.6334 73.6555 52.4398 73.445C52.2486 73.2344 51.9836 73.1292 51.6448 73.1292C51.4149 73.1292 51.2104 73.18 51.0313 73.2816C50.8546 73.3808 50.7155 73.5248 50.6138 73.7136C50.5146 73.9024 50.465 74.131 50.465 74.3997ZM57.4492 77.7647C57.0112 77.7647 56.6192 77.6522 56.2731 77.4271C55.927 77.2021 55.6536 76.8754 55.4527 76.447C55.2518 76.0187 55.1514 75.4984 55.1514 74.8861C55.1514 74.2666 55.2531 73.7438 55.4563 73.3179C55.662 72.8896 55.9391 72.5665 56.2876 72.3487C56.6361 72.1285 57.0245 72.0184 57.4529 72.0184C57.7796 72.0184 58.0482 72.074 58.2587 72.1853C58.4693 72.2942 58.6363 72.4261 58.7597 72.581C58.8831 72.7335 58.9787 72.8775 59.0465 73.013H59.1009V70.2324H60.4186V77.6667H59.1263V76.7882H59.0465C58.9787 76.9238 58.8807 77.0678 58.7524 77.2202C58.6242 77.3703 58.4548 77.4985 58.2442 77.605C58.0337 77.7115 57.7687 77.7647 57.4492 77.7647ZM57.8159 76.6866C58.0942 76.6866 58.3313 76.6116 58.5274 76.4615C58.7234 76.3091 58.8722 76.0973 58.9739 75.8263C59.0755 75.5552 59.1263 75.2394 59.1263 74.8788C59.1263 74.5183 59.0755 74.2049 58.9739 73.9387C58.8746 73.6725 58.727 73.4655 58.531 73.3179C58.3374 73.1703 58.099 73.0965 57.8159 73.0965C57.523 73.0965 57.2786 73.1727 57.0826 73.3252C56.8866 73.4776 56.739 73.6882 56.6397 73.9568C56.5405 74.2254 56.4909 74.5328 56.4909 74.8788C56.4909 75.2273 56.5405 75.5383 56.6397 75.8118C56.7414 76.0828 56.8902 76.297 57.0862 76.4543C57.2847 76.6092 57.5279 76.6866 57.8159 76.6866ZM64.4126 77.6667V70.2324H65.7267V73.013H65.7811C65.8489 72.8775 65.9445 72.7335 66.0679 72.581C66.1913 72.4261 66.3583 72.2942 66.5688 72.1853C66.7794 72.074 67.048 72.0184 67.3747 72.0184C67.8055 72.0184 68.1939 72.1285 68.5399 72.3487C68.8884 72.5665 69.1643 72.8896 69.3676 73.3179C69.5733 73.7438 69.6762 74.2666 69.6762 74.8861C69.6762 75.4984 69.5757 76.0187 69.3749 76.447C69.174 76.8754 68.9005 77.2021 68.5545 77.4271C68.2084 77.6522 67.8164 77.7647 67.3783 77.7647C67.0589 77.7647 66.7939 77.7115 66.5833 77.605C66.3728 77.4985 66.2034 77.3703 66.0751 77.2202C65.9493 77.0678 65.8513 76.9238 65.7811 76.7882H65.7049V77.6667H64.4126ZM65.7012 74.8788C65.7012 75.2394 65.7521 75.5552 65.8537 75.8263C65.9578 76.0973 66.1066 76.3091 66.3002 76.4615C66.4962 76.6116 66.7334 76.6866 67.0117 76.6866C67.3021 76.6866 67.5453 76.6092 67.7413 76.4543C67.9374 76.297 68.085 76.0828 68.1842 75.8118C68.2858 75.5383 68.3367 75.2273 68.3367 74.8788C68.3367 74.5328 68.2871 74.2254 68.1878 73.9568C68.0886 73.6882 67.941 73.4776 67.745 73.3252C67.5489 73.1727 67.3045 73.0965 67.0117 73.0965C66.731 73.0965 66.4926 73.1703 66.2966 73.3179C66.1006 73.4655 65.9517 73.6725 65.8501 73.9387C65.7509 74.2049 65.7012 74.5183 65.7012 74.8788ZM71.4204 79.7576C71.2413 79.7576 71.0755 79.7431 70.9231 79.7141C70.773 79.6874 70.6532 79.656 70.5637 79.6197L70.8686 78.596C71.0598 78.6517 71.2304 78.6783 71.3805 78.6759C71.5305 78.6735 71.6624 78.6263 71.7761 78.5343C71.8923 78.4448 71.9903 78.2947 72.0702 78.0842L72.1827 77.7829L70.1608 72.091H71.5547L72.8397 76.3018H72.8978L74.1865 72.091H75.5841L73.3516 78.3419C73.2475 78.6372 73.1096 78.89 72.9378 79.1006C72.7659 79.3136 72.5554 79.4757 72.3061 79.587C72.0593 79.7008 71.764 79.7576 71.4204 79.7576ZM81.8132 72.091V73.1074H78.6079V72.091H81.8132ZM79.3992 70.7551H80.7133V75.9896C80.7133 76.1663 80.7399 76.3018 80.7932 76.3962C80.8488 76.4882 80.9214 76.5511 81.011 76.585C81.1005 76.6188 81.1997 76.6358 81.3086 76.6358C81.3909 76.6358 81.4659 76.6297 81.5337 76.6176C81.6039 76.6055 81.6571 76.5946 81.6934 76.585L81.9149 77.6123C81.8447 77.6365 81.7443 77.6631 81.6136 77.6921C81.4853 77.7212 81.328 77.7381 81.1417 77.7429C80.8125 77.7526 80.5161 77.703 80.2523 77.5941C79.9885 77.4828 79.7792 77.311 79.6243 77.0786C79.4718 76.8463 79.3968 76.5559 79.3992 76.2074V70.7551ZM85.3208 77.7756C84.7617 77.7756 84.2789 77.6595 83.8724 77.4271C83.4682 77.1924 83.1573 76.8608 82.9394 76.4325C82.7216 76.0017 82.6127 75.4947 82.6127 74.9115C82.6127 74.338 82.7216 73.8346 82.9394 73.4014C83.1597 72.9658 83.467 72.627 83.8615 72.385C84.2559 72.1406 84.7194 72.0184 85.2518 72.0184C85.5954 72.0184 85.9197 72.074 86.2246 72.1853C86.532 72.2942 86.803 72.4636 87.0378 72.6935C87.2749 72.9235 87.4613 73.2163 87.5968 73.572C87.7323 73.9253 87.8001 74.3464 87.8001 74.8353V75.2382H83.2299V74.3525H86.5405C86.538 74.1008 86.4836 73.8769 86.3771 73.6809C86.2706 73.4825 86.1218 73.3264 85.9306 73.2126C85.7418 73.0989 85.5216 73.042 85.2699 73.042C85.0013 73.042 84.7654 73.1074 84.5621 73.2381C84.3588 73.3663 84.2003 73.5357 84.0865 73.7463C83.9752 73.9544 83.9184 74.1831 83.9159 74.4323V75.2055C83.9159 75.5298 83.9752 75.8081 84.0938 76.0405C84.2124 76.2704 84.3782 76.447 84.5911 76.5704C84.8041 76.6914 85.0533 76.7519 85.3389 76.7519C85.5301 76.7519 85.7031 76.7253 85.858 76.6721C86.0129 76.6164 86.1472 76.5354 86.2609 76.4289C86.3747 76.3224 86.4606 76.1905 86.5187 76.0332L87.7456 76.1711C87.6682 76.4954 87.5206 76.7786 87.3028 77.0206C87.0874 77.2602 86.8115 77.4465 86.4751 77.5796C86.1387 77.7103 85.7539 77.7756 85.3208 77.7756ZM89.8665 72.091L90.9918 74.1492L92.1353 72.091H93.5256L91.8449 74.8788L93.5546 77.6667H92.1716L90.9918 75.6593L89.8229 77.6667H88.429L90.1279 74.8788L88.4726 72.091H89.8665ZM97.3262 72.091V73.1074H94.1209V72.091H97.3262ZM94.9123 70.7551H96.2263V75.9896C96.2263 76.1663 96.253 76.3018 96.3062 76.3962C96.3619 76.4882 96.4345 76.5511 96.524 76.585C96.6135 76.6188 96.7128 76.6358 96.8217 76.6358C96.904 76.6358 96.979 76.6297 97.0467 76.6176C97.1169 76.6055 97.1702 76.5946 97.2065 76.585L97.4279 77.6123C97.3577 77.6365 97.2573 77.6631 97.1266 77.6921C96.9983 77.7212 96.841 77.7381 96.6547 77.7429C96.3256 77.7526 96.0291 77.703 95.7653 77.5941C95.5015 77.4828 95.2922 77.311 95.1373 77.0786C94.9849 76.8463 94.9098 76.5559 94.9123 76.2074V70.7551ZM100.961 77.6667V72.091H102.217V73.0384H102.282C102.398 72.719 102.591 72.4697 102.859 72.2906C103.128 72.1091 103.449 72.0184 103.821 72.0184C104.199 72.0184 104.517 72.1103 104.776 72.2942C105.037 72.4757 105.221 72.7238 105.328 73.0384H105.386C105.509 72.7286 105.717 72.4818 106.01 72.2979C106.305 72.1115 106.655 72.0184 107.059 72.0184C107.572 72.0184 107.991 72.1805 108.315 72.5048C108.64 72.8291 108.802 73.3022 108.802 73.9241V77.6667H107.484V74.1274C107.484 73.7814 107.392 73.5285 107.208 73.3687C107.024 73.2066 106.799 73.1255 106.533 73.1255C106.216 73.1255 105.968 73.2247 105.789 73.4232C105.612 73.6192 105.524 73.8745 105.524 74.1891V77.6667H104.235V74.073C104.235 73.785 104.148 73.5551 103.974 73.3833C103.802 73.2114 103.577 73.1255 103.299 73.1255C103.11 73.1255 102.938 73.1739 102.783 73.2707C102.628 73.3651 102.505 73.4994 102.413 73.6737C102.321 73.8455 102.275 74.0463 102.275 74.2763V77.6667H100.961ZM112.603 77.7756C112.044 77.7756 111.561 77.6595 111.155 77.4271C110.751 77.1924 110.44 76.8608 110.222 76.4325C110.004 76.0017 109.895 75.4947 109.895 74.9115C109.895 74.338 110.004 73.8346 110.222 73.4014C110.442 72.9658 110.75 72.627 111.144 72.385C111.539 72.1406 112.002 72.0184 112.534 72.0184C112.878 72.0184 113.202 72.074 113.507 72.1853C113.815 72.2942 114.086 72.4636 114.32 72.6935C114.557 72.9235 114.744 73.2163 114.879 73.572C115.015 73.9253 115.083 74.3464 115.083 74.8353V75.2382H110.512V74.3525H113.823C113.821 74.1008 113.766 73.8769 113.66 73.6809C113.553 73.4825 113.404 73.3264 113.213 73.2126C113.024 73.0989 112.804 73.042 112.552 73.042C112.284 73.042 112.048 73.1074 111.845 73.2381C111.641 73.3663 111.483 73.5357 111.369 73.7463C111.258 73.9544 111.201 74.1831 111.198 74.4323V75.2055C111.198 75.5298 111.258 75.8081 111.376 76.0405C111.495 76.2704 111.661 76.447 111.874 76.5704C112.087 76.6914 112.336 76.7519 112.621 76.7519C112.813 76.7519 112.986 76.7253 113.141 76.6721C113.295 76.6164 113.43 76.5354 113.544 76.4289C113.657 76.3224 113.743 76.1905 113.801 76.0332L115.028 76.1711C114.951 76.4954 114.803 76.7786 114.585 77.0206C114.37 77.2602 114.094 77.4465 113.758 77.5796C113.421 77.7103 113.037 77.7756 112.603 77.7756ZM120.601 73.5648L119.403 73.6954C119.369 73.5744 119.31 73.4607 119.225 73.3542C119.143 73.2477 119.032 73.1618 118.891 73.0965C118.751 73.0311 118.579 72.9985 118.376 72.9985C118.103 72.9985 117.873 73.0578 117.686 73.1763C117.502 73.2949 117.412 73.4486 117.414 73.6374C117.412 73.7995 117.471 73.9314 117.592 74.033C117.715 74.1347 117.919 74.2182 118.202 74.2835L119.153 74.4868C119.68 74.6005 120.072 74.7808 120.329 75.0277C120.588 75.2745 120.719 75.5976 120.721 75.9969C120.719 76.3478 120.616 76.6576 120.412 76.9262C120.212 77.1924 119.932 77.4005 119.574 77.5506C119.216 77.7006 118.804 77.7756 118.34 77.7756C117.657 77.7756 117.108 77.6328 116.692 77.3473C116.275 77.0593 116.027 76.6588 115.947 76.1457L117.229 76.0223C117.287 76.274 117.41 76.464 117.599 76.5922C117.788 76.7205 118.034 76.7846 118.336 76.7846C118.648 76.7846 118.899 76.7205 119.087 76.5922C119.279 76.464 119.374 76.3054 119.374 76.1167C119.374 75.957 119.313 75.8251 119.189 75.721C119.068 75.6169 118.879 75.5371 118.623 75.4814L117.672 75.2818C117.137 75.1705 116.741 74.9829 116.485 74.7191C116.228 74.4529 116.101 74.1165 116.104 73.71C116.101 73.3663 116.194 73.0687 116.383 72.817C116.574 72.5629 116.839 72.3668 117.178 72.2289C117.519 72.0885 117.913 72.0184 118.358 72.0184C119.011 72.0184 119.526 72.1575 119.901 72.4358C120.278 72.7141 120.512 73.0904 120.601 73.5648ZM126.211 73.5648L125.014 73.6954C124.98 73.5744 124.92 73.4607 124.836 73.3542C124.753 73.2477 124.642 73.1618 124.502 73.0965C124.361 73.0311 124.19 72.9985 123.986 72.9985C123.713 72.9985 123.483 73.0578 123.297 73.1763C123.113 73.2949 123.022 73.4486 123.024 73.6374C123.022 73.7995 123.081 73.9314 123.202 74.033C123.326 74.1347 123.529 74.2182 123.812 74.2835L124.763 74.4868C125.291 74.6005 125.683 74.7808 125.939 75.0277C126.198 75.2745 126.329 75.5976 126.331 75.9969C126.329 76.3478 126.226 76.6576 126.023 76.9262C125.822 77.1924 125.542 77.4005 125.184 77.5506C124.826 77.7006 124.415 77.7756 123.95 77.7756C123.267 77.7756 122.718 77.6328 122.302 77.3473C121.886 77.0593 121.638 76.6588 121.558 76.1457L122.839 76.0223C122.897 76.274 123.021 76.464 123.209 76.5922C123.398 76.7205 123.644 76.7846 123.946 76.7846C124.258 76.7846 124.509 76.7205 124.698 76.5922C124.889 76.464 124.985 76.3054 124.985 76.1167C124.985 75.957 124.923 75.8251 124.799 75.721C124.678 75.6169 124.49 75.5371 124.233 75.4814L123.282 75.2818C122.747 75.1705 122.352 74.9829 122.095 74.7191C121.838 74.4529 121.711 74.1165 121.714 73.71C121.711 73.3663 121.805 73.0687 121.993 72.817C122.185 72.5629 122.45 72.3668 122.788 72.2289C123.13 72.0885 123.523 72.0184 123.968 72.0184C124.622 72.0184 125.136 72.1575 125.511 72.4358C125.888 72.7141 126.122 73.0904 126.211 73.5648ZM129.019 77.7792C128.666 77.7792 128.348 77.7163 128.065 77.5905C127.784 77.4622 127.561 77.2735 127.397 77.0242C127.235 76.7749 127.153 76.4676 127.153 76.1022C127.153 75.7876 127.212 75.5274 127.328 75.3217C127.444 75.116 127.602 74.9514 127.803 74.828C128.004 74.7046 128.23 74.6114 128.482 74.5485C128.736 74.4832 128.999 74.436 129.27 74.4069C129.596 74.3731 129.861 74.3428 130.065 74.3162C130.268 74.2871 130.416 74.2436 130.508 74.1855C130.602 74.125 130.649 74.0318 130.649 73.906V73.8842C130.649 73.6107 130.568 73.399 130.406 73.2489C130.244 73.0989 130.01 73.0239 129.705 73.0239C129.384 73.0239 129.128 73.0941 128.939 73.2344C128.753 73.3748 128.627 73.5406 128.562 73.7317L127.335 73.5575C127.432 73.2187 127.591 72.9356 127.814 72.7081C128.037 72.4782 128.309 72.3063 128.631 72.1926C128.953 72.0764 129.309 72.0184 129.698 72.0184C129.967 72.0184 130.234 72.0498 130.5 72.1127C130.767 72.1757 131.01 72.2797 131.23 72.4249C131.45 72.5677 131.627 72.7625 131.76 73.0094C131.896 73.2562 131.963 73.5648 131.963 73.935V77.6667H130.7V76.9008H130.656C130.577 77.0557 130.464 77.2009 130.319 77.3364C130.176 77.4695 129.996 77.5772 129.778 77.6595C129.563 77.7393 129.31 77.7792 129.019 77.7792ZM129.361 76.8137C129.624 76.8137 129.853 76.7616 130.047 76.6576C130.24 76.5511 130.389 76.4107 130.493 76.2365C130.6 76.0622 130.653 75.8723 130.653 75.6666V75.0095C130.612 75.0434 130.542 75.0749 130.442 75.1039C130.345 75.1329 130.237 75.1584 130.116 75.1801C129.995 75.2019 129.875 75.2213 129.756 75.2382C129.638 75.2552 129.535 75.2697 129.448 75.2818C129.252 75.3084 129.076 75.352 128.921 75.4125C128.766 75.473 128.644 75.5577 128.555 75.6666C128.465 75.773 128.42 75.911 128.42 76.0804C128.42 76.3224 128.509 76.5051 128.685 76.6285C128.862 76.7519 129.087 76.8137 129.361 76.8137ZM135.709 79.8738C135.238 79.8738 134.832 79.8097 134.493 79.6814C134.155 79.5556 133.882 79.3862 133.677 79.1732C133.471 78.9602 133.328 78.7243 133.248 78.4653L134.432 78.1786C134.485 78.2875 134.562 78.3951 134.664 78.5016C134.766 78.6105 134.902 78.7001 135.074 78.7703C135.248 78.8429 135.467 78.8792 135.731 78.8792C136.104 78.8792 136.413 78.7884 136.657 78.6069C136.901 78.4278 137.024 78.1326 137.024 77.7212V76.6648H136.958C136.89 76.8003 136.791 76.9395 136.661 77.0823C136.532 77.2251 136.362 77.3449 136.149 77.4417C135.938 77.5385 135.673 77.5869 135.354 77.5869C134.925 77.5869 134.537 77.4864 134.189 77.2856C133.842 77.0823 133.567 76.7798 133.361 76.378C133.158 75.9739 133.056 75.4681 133.056 74.8607C133.056 74.2484 133.158 73.7317 133.361 73.3107C133.567 72.8872 133.844 72.5665 134.192 72.3487C134.541 72.1285 134.929 72.0184 135.357 72.0184C135.684 72.0184 135.953 72.074 136.163 72.1853C136.376 72.2942 136.546 72.4261 136.671 72.581C136.797 72.7335 136.893 72.8775 136.958 73.013H137.031V72.091H138.327V77.7575C138.327 78.2342 138.213 78.6287 137.986 78.9409C137.758 79.253 137.447 79.4866 137.053 79.6415C136.658 79.7963 136.21 79.8738 135.709 79.8738ZM135.72 76.5559C135.999 76.5559 136.236 76.4882 136.432 76.3526C136.628 76.2171 136.777 76.0223 136.878 75.7682C136.98 75.5141 137.031 75.2092 137.031 74.8534C137.031 74.5025 136.98 74.1952 136.878 73.9314C136.779 73.6676 136.632 73.4631 136.436 73.3179C136.242 73.1703 136.004 73.0965 135.72 73.0965C135.428 73.0965 135.183 73.1727 134.987 73.3252C134.791 73.4776 134.643 73.687 134.544 73.9532C134.445 74.217 134.395 74.517 134.395 74.8534C134.395 75.1947 134.445 75.4935 134.544 75.7501C134.646 76.0042 134.795 76.2026 134.991 76.3454C135.189 76.4857 135.432 76.5559 135.72 76.5559ZM142.142 77.7756C141.583 77.7756 141.1 77.6595 140.694 77.4271C140.289 77.1924 139.978 76.8608 139.761 76.4325C139.543 76.0017 139.434 75.4947 139.434 74.9115C139.434 74.338 139.543 73.8346 139.761 73.4014C139.981 72.9658 140.288 72.627 140.683 72.385C141.077 72.1406 141.541 72.0184 142.073 72.0184C142.417 72.0184 142.741 72.074 143.046 72.1853C143.353 72.2942 143.624 72.4636 143.859 72.6935C144.096 72.9235 144.282 73.2163 144.418 73.572C144.554 73.9253 144.621 74.3464 144.621 74.8353V75.2382H140.051V74.3525H143.362C143.359 74.1008 143.305 73.8769 143.198 73.6809C143.092 73.4825 142.943 73.3264 142.752 73.2126C142.563 73.0989 142.343 73.042 142.091 73.042C141.823 73.042 141.587 73.1074 141.383 73.2381C141.18 73.3663 141.021 73.5357 140.908 73.7463C140.796 73.9544 140.74 74.1831 140.737 74.4323V75.2055C140.737 75.5298 140.796 75.8081 140.915 76.0405C141.034 76.2704 141.199 76.447 141.412 76.5704C141.625 76.6914 141.875 76.7519 142.16 76.7519C142.351 76.7519 142.524 76.7253 142.679 76.6721C142.834 76.6164 142.968 76.5354 143.082 76.4289C143.196 76.3224 143.282 76.1905 143.34 76.0332L144.567 76.1711C144.489 76.4954 144.342 76.7786 144.124 77.0206C143.909 77.2602 143.633 77.4465 143.296 77.5796C142.96 77.7103 142.575 77.7756 142.142 77.7756Z" fill="#233D48"/>
<path d="M11.5 97.6945C11.5 96.9888 12.0721 96.4167 12.7778 96.4167H23C23.7057 96.4167 24.2778 96.9888 24.2778 97.6945V105.361C24.2778 106.067 23.7057 106.639 23 106.639H12.7778C12.0721 106.639 11.5 106.067 11.5 105.361V97.6945ZM22.1484 97.6945H13.6293L17.8889 102.167L22.1484 97.6945ZM12.7778 98.6639V105.361H23V98.6639L18.8185 103.098C18.3141 103.632 17.4636 103.632 16.9593 103.098L12.7778 98.6639Z" fill="#233D48"/>
<path d="M40.5513 98.4983C40.5175 98.1812 40.3747 97.9344 40.123 97.7577C39.8737 97.5811 39.5495 97.4927 39.1501 97.4927C38.8694 97.4927 38.6286 97.5351 38.4278 97.6198C38.2269 97.7045 38.0732 97.8194 37.9668 97.9646C37.8603 98.1098 37.8058 98.2756 37.8034 98.462C37.8034 98.6168 37.8385 98.7512 37.9087 98.8649C37.9813 98.9786 38.0793 99.0754 38.2027 99.1553C38.3261 99.2327 38.4629 99.2981 38.6129 99.3513C38.7629 99.4046 38.9142 99.4493 39.0667 99.4856L39.7636 99.6599C40.0444 99.7252 40.3142 99.8135 40.5731 99.9249C40.8345 100.036 41.068 100.177 41.2737 100.346C41.4819 100.515 41.6464 100.72 41.7674 100.959C41.8884 101.199 41.9489 101.48 41.9489 101.802C41.9489 102.237 41.8376 102.621 41.615 102.952C41.3923 103.281 41.0704 103.539 40.6494 103.726C40.2307 103.909 39.7237 104.001 39.1284 104.001C38.55 104.001 38.0478 103.912 37.6219 103.733C37.1984 103.554 36.8668 103.292 36.6273 102.949C36.3901 102.605 36.2618 102.186 36.2425 101.693H37.5674C37.5868 101.952 37.6667 102.167 37.807 102.339C37.9474 102.511 38.1301 102.639 38.3552 102.724C38.5827 102.808 38.8368 102.851 39.1175 102.851C39.4103 102.851 39.6668 102.807 39.887 102.72C40.1097 102.63 40.2839 102.507 40.4098 102.35C40.5356 102.19 40.5997 102.004 40.6022 101.791C40.5997 101.597 40.5429 101.437 40.4316 101.312C40.3202 101.183 40.1641 101.077 39.9633 100.992C39.7648 100.905 39.5325 100.828 39.2663 100.76L38.4205 100.542C37.8082 100.385 37.3242 100.146 36.9685 99.8269C36.6152 99.505 36.4385 99.0779 36.4385 98.5455C36.4385 98.1074 36.5571 97.7238 36.7942 97.3947C37.0338 97.0656 37.3593 96.8103 37.7707 96.6288C38.1821 96.4449 38.648 96.3529 39.1683 96.3529C39.6959 96.3529 40.1581 96.4449 40.555 96.6288C40.9543 96.8103 41.2677 97.0632 41.4952 97.3875C41.7226 97.7093 41.84 98.0796 41.8473 98.4983H40.5513ZM45.5599 103.998C45.0009 103.998 44.5181 103.882 44.1115 103.649C43.7074 103.415 43.3964 103.083 43.1786 102.655C42.9608 102.224 42.8519 101.717 42.8519 101.134C42.8519 100.56 42.9608 100.057 43.1786 99.6236C43.3988 99.188 43.7062 98.8492 44.1006 98.6072C44.4951 98.3627 44.9585 98.2405 45.4909 98.2405C45.8346 98.2405 46.1589 98.2962 46.4638 98.4075C46.7711 98.5164 47.0422 98.6858 47.2769 98.9157C47.5141 99.1456 47.7004 99.4384 47.836 99.7942C47.9715 100.148 48.0392 100.569 48.0392 101.057V101.46H43.469V100.575H46.7796C46.7772 100.323 46.7227 100.099 46.6163 99.9031C46.5098 99.7046 46.3609 99.5486 46.1698 99.4348C45.981 99.3211 45.7608 99.2642 45.5091 99.2642C45.2405 99.2642 45.0045 99.3295 44.8012 99.4602C44.5979 99.5885 44.4394 99.7579 44.3257 99.9684C44.2144 100.177 44.1575 100.405 44.1551 100.655V101.428C44.1551 101.752 44.2144 102.03 44.333 102.263C44.4515 102.493 44.6173 102.669 44.8303 102.793C45.0432 102.914 45.2925 102.974 45.5781 102.974C45.7692 102.974 45.9423 102.947 46.0972 102.894C46.252 102.839 46.3864 102.758 46.5001 102.651C46.6138 102.545 46.6997 102.413 46.7578 102.255L47.9848 102.393C47.9073 102.718 47.7597 103.001 47.5419 103.243C47.3265 103.482 47.0507 103.669 46.7143 103.802C46.3779 103.932 45.9931 103.998 45.5599 103.998ZM50.465 100.622V103.889H49.1509V98.3131H50.4069V99.2606H50.4723C50.6005 98.9484 50.805 98.7003 51.0858 98.5164C51.3689 98.3325 51.7186 98.2405 52.1348 98.2405C52.5196 98.2405 52.8548 98.3228 53.1404 98.4874C53.4283 98.6519 53.651 98.8903 53.8083 99.2025C53.968 99.5147 54.0467 99.8934 54.0442 100.339V103.889H52.7302V100.542C52.7302 100.169 52.6334 99.8777 52.4398 99.6671C52.2486 99.4566 51.9836 99.3513 51.6448 99.3513C51.4149 99.3513 51.2104 99.4021 51.0313 99.5038C50.8546 99.603 50.7155 99.747 50.6138 99.9358C50.5146 100.125 50.465 100.353 50.465 100.622ZM57.4492 103.987C57.0112 103.987 56.6192 103.874 56.2731 103.649C55.927 103.424 55.6536 103.098 55.4527 102.669C55.2518 102.241 55.1514 101.721 55.1514 101.108C55.1514 100.489 55.2531 99.966 55.4563 99.5401C55.662 99.1117 55.9391 98.7887 56.2876 98.5709C56.6361 98.3506 57.0245 98.2405 57.4529 98.2405C57.7796 98.2405 58.0482 98.2962 58.2587 98.4075C58.4693 98.5164 58.6363 98.6483 58.7597 98.8032C58.8831 98.9556 58.9787 99.0996 59.0465 99.2352H59.1009V96.4545H60.4186V103.889H59.1263V103.01H59.0465C58.9787 103.146 58.8807 103.29 58.7524 103.442C58.6242 103.592 58.4548 103.721 58.2442 103.827C58.0337 103.934 57.7687 103.987 57.4492 103.987ZM57.8159 102.909C58.0942 102.909 58.3313 102.834 58.5274 102.684C58.7234 102.531 58.8722 102.319 58.9739 102.048C59.0755 101.777 59.1263 101.462 59.1263 101.101C59.1263 100.74 59.0755 100.427 58.9739 100.161C58.8746 99.8946 58.727 99.6877 58.531 99.5401C58.3374 99.3925 58.099 99.3187 57.8159 99.3187C57.523 99.3187 57.2786 99.3949 57.0826 99.5473C56.8866 99.6998 56.739 99.9104 56.6397 100.179C56.5405 100.448 56.4909 100.755 56.4909 101.101C56.4909 101.449 56.5405 101.76 56.6397 102.034C56.7414 102.305 56.8902 102.519 57.0862 102.676C57.2847 102.831 57.5279 102.909 57.8159 102.909ZM64.4126 103.889V96.4545H65.7267V99.2352H65.7811C65.8489 99.0996 65.9445 98.9556 66.0679 98.8032C66.1913 98.6483 66.3583 98.5164 66.5688 98.4075C66.7794 98.2962 67.048 98.2405 67.3747 98.2405C67.8055 98.2405 68.1939 98.3506 68.5399 98.5709C68.8884 98.7887 69.1643 99.1117 69.3676 99.5401C69.5733 99.966 69.6762 100.489 69.6762 101.108C69.6762 101.721 69.5757 102.241 69.3749 102.669C69.174 103.098 68.9005 103.424 68.5545 103.649C68.2084 103.874 67.8164 103.987 67.3783 103.987C67.0589 103.987 66.7939 103.934 66.5833 103.827C66.3728 103.721 66.2034 103.592 66.0751 103.442C65.9493 103.29 65.8513 103.146 65.7811 103.01H65.7049V103.889H64.4126ZM65.7012 101.101C65.7012 101.462 65.7521 101.777 65.8537 102.048C65.9578 102.319 66.1066 102.531 66.3002 102.684C66.4962 102.834 66.7334 102.909 67.0117 102.909C67.3021 102.909 67.5453 102.831 67.7413 102.676C67.9374 102.519 68.085 102.305 68.1842 102.034C68.2858 101.76 68.3367 101.449 68.3367 101.101C68.3367 100.755 68.2871 100.448 68.1878 100.179C68.0886 99.9104 67.941 99.6998 67.745 99.5473C67.5489 99.3949 67.3045 99.3187 67.0117 99.3187C66.731 99.3187 66.4926 99.3925 66.2966 99.5401C66.1006 99.6877 65.9517 99.8946 65.8501 100.161C65.7509 100.427 65.7012 100.74 65.7012 101.101ZM71.4204 105.98C71.2413 105.98 71.0755 105.965 70.9231 105.936C70.773 105.91 70.6532 105.878 70.5637 105.842L70.8686 104.818C71.0598 104.874 71.2304 104.9 71.3805 104.898C71.5305 104.896 71.6624 104.848 71.7761 104.756C71.8923 104.667 71.9903 104.517 72.0702 104.306L72.1827 104.005L70.1608 98.3131H71.5547L72.8397 102.524H72.8978L74.1865 98.3131H75.5841L73.3516 104.564C73.2475 104.859 73.1096 105.112 72.9378 105.323C72.7659 105.536 72.5554 105.698 72.3061 105.809C72.0593 105.923 71.764 105.98 71.4204 105.98ZM81.4974 103.998C80.9384 103.998 80.4556 103.882 80.049 103.649C79.6449 103.415 79.3339 103.083 79.1161 102.655C78.8983 102.224 78.7894 101.717 78.7894 101.134C78.7894 100.56 78.8983 100.057 79.1161 99.6236C79.3363 99.188 79.6437 98.8492 80.0381 98.6072C80.4326 98.3627 80.896 98.2405 81.4284 98.2405C81.7721 98.2405 82.0964 98.2962 82.4013 98.4075C82.7086 98.5164 82.9797 98.6858 83.2144 98.9157C83.4516 99.1456 83.6379 99.4384 83.7735 99.7942C83.909 100.148 83.9767 100.569 83.9767 101.057V101.46H79.4065V100.575H82.7171C82.7147 100.323 82.6602 100.099 82.5538 99.9031C82.4473 99.7046 82.2984 99.5486 82.1073 99.4348C81.9185 99.3211 81.6983 99.2642 81.4466 99.2642C81.178 99.2642 80.942 99.3295 80.7387 99.4602C80.5354 99.5885 80.3769 99.7579 80.2632 99.9684C80.1519 100.177 80.095 100.405 80.0926 100.655V101.428C80.0926 101.752 80.1519 102.03 80.2705 102.263C80.389 102.493 80.5548 102.669 80.7678 102.793C80.9807 102.914 81.23 102.974 81.5156 102.974C81.7067 102.974 81.8798 102.947 82.0347 102.894C82.1895 102.839 82.3239 102.758 82.4376 102.651C82.5513 102.545 82.6372 102.413 82.6953 102.255L83.9223 102.393C83.8448 102.718 83.6972 103.001 83.4794 103.243C83.264 103.482 82.9882 103.669 82.6518 103.802C82.3154 103.932 81.9306 103.998 81.4974 103.998ZM85.0884 103.889V98.3131H86.3444V99.2606H86.4098C86.5259 98.9411 86.7183 98.6919 86.987 98.5128C87.2556 98.3313 87.5762 98.2405 87.9489 98.2405C88.3264 98.2405 88.6447 98.3325 88.9036 98.5164C89.165 98.6979 89.3489 98.946 89.4554 99.2606H89.5135C89.6369 98.9508 89.845 98.704 90.1378 98.52C90.4331 98.3337 90.7828 98.2405 91.1869 98.2405C91.7 98.2405 92.1186 98.4027 92.4429 98.727C92.7672 99.0512 92.9293 99.5244 92.9293 100.146V103.889H91.6116V100.35C91.6116 100.004 91.5197 99.7506 91.3358 99.5909C91.1518 99.4288 90.9268 99.3477 90.6606 99.3477C90.3435 99.3477 90.0955 99.4469 89.9164 99.6454C89.7397 99.8414 89.6514 100.097 89.6514 100.411V103.889H88.3627V100.295C88.3627 100.007 88.2756 99.7772 88.1014 99.6054C87.9296 99.4336 87.7045 99.3477 87.4262 99.3477C87.2374 99.3477 87.0656 99.3961 86.9107 99.4929C86.7558 99.5873 86.6324 99.7216 86.5405 99.8958C86.4485 100.068 86.4025 100.269 86.4025 100.498V103.889H85.0884ZM95.867 104.001C95.5136 104.001 95.1954 103.938 94.9123 103.813C94.6315 103.684 94.4089 103.496 94.2443 103.246C94.0822 102.997 94.0011 102.69 94.0011 102.324C94.0011 102.01 94.0592 101.75 94.1754 101.544C94.2915 101.338 94.45 101.174 94.6509 101.05C94.8518 100.927 95.078 100.834 95.3297 100.771C95.5838 100.705 95.8464 100.658 96.1174 100.629C96.4441 100.595 96.7091 100.565 96.9124 100.538C97.1157 100.509 97.2633 100.466 97.3553 100.408C97.4497 100.347 97.4969 100.254 97.4969 100.128V100.106C97.4969 99.8329 97.4158 99.6212 97.2536 99.4711C97.0915 99.3211 96.858 99.2461 96.553 99.2461C96.2312 99.2461 95.9759 99.3162 95.7871 99.4566C95.6008 99.597 95.4749 99.7627 95.4096 99.9539L94.1826 99.7797C94.2794 99.4409 94.4391 99.1577 94.6618 98.9302C94.8844 98.7003 95.1567 98.5285 95.4786 98.4148C95.8004 98.2986 96.1562 98.2405 96.5458 98.2405C96.8144 98.2405 97.0818 98.272 97.348 98.3349C97.6142 98.3978 97.8574 98.5019 98.0777 98.6471C98.2979 98.7899 98.4746 98.9847 98.6077 99.2315C98.7432 99.4784 98.8109 99.7869 98.8109 100.157V103.889H97.5477V103.123H97.5041C97.4243 103.278 97.3117 103.423 97.1665 103.559C97.0237 103.692 96.8435 103.799 96.6256 103.882C96.4103 103.961 96.1574 104.001 95.867 104.001ZM96.2082 103.036C96.472 103.036 96.7007 102.984 96.8943 102.88C97.0879 102.773 97.2367 102.633 97.3408 102.459C97.4472 102.284 97.5005 102.094 97.5005 101.889V101.232C97.4593 101.266 97.3892 101.297 97.2899 101.326C97.1931 101.355 97.0842 101.381 96.9632 101.402C96.8422 101.424 96.7224 101.443 96.6039 101.46C96.4853 101.477 96.3824 101.492 96.2953 101.504C96.0993 101.531 95.9238 101.574 95.769 101.635C95.6141 101.695 95.4919 101.78 95.4023 101.889C95.3128 101.995 95.268 102.133 95.268 102.303C95.268 102.545 95.3563 102.727 95.533 102.851C95.7097 102.974 95.9347 103.036 96.2082 103.036ZM100.132 103.889V98.3131H101.446V103.889H100.132ZM100.793 97.5218C100.585 97.5218 100.406 97.4528 100.256 97.3149C100.106 97.1745 100.031 97.0063 100.031 96.8103C100.031 96.6118 100.106 96.4437 100.256 96.3057C100.406 96.1653 100.585 96.0952 100.793 96.0952C101.003 96.0952 101.183 96.1653 101.33 96.3057C101.48 96.4437 101.555 96.6118 101.555 96.8103C101.555 97.0063 101.48 97.1745 101.33 97.3149C101.183 97.4528 101.003 97.5218 100.793 97.5218ZM104.112 96.4545V103.889H102.798V96.4545H104.112Z" fill="#233D48"/>
</g>
</g>
<defs>
<clipPath id="clip0_2314_47293">
<path d="M0 8C0 3.58172 3.58172 0 8 0H216C220.418 0 224 3.58172 224 8V109C224 113.418 220.418 117 216 117H8C3.58172 117 0 113.418 0 109V8Z" fill="white"/>
</clipPath>
<clipPath id="clip1_2314_47293">
<rect width="224" height="519" fill="white" transform="translate(0 -295)"/>
</clipPath>
</defs>
</svg>
