<svg width="224" height="117" viewBox="0 0 224 117" fill="none" xmlns="http://www.w3.org/2000/svg">
<path d="M68 10.5H156C157.933 10.5 159.5 12.067 159.5 14V102C159.5 103.933 157.933 105.5 156 105.5H68C66.067 105.5 64.5 103.933 64.5 102V14C64.5 12.067 66.067 10.5 68 10.5Z" fill="white"/>
<path d="M68 10.5H156C157.933 10.5 159.5 12.067 159.5 14V102C159.5 103.933 157.933 105.5 156 105.5H68C66.067 105.5 64.5 103.933 64.5 102V14C64.5 12.067 66.067 10.5 68 10.5Z" stroke="#DADFE2"/>
<path d="M72 22C72 19.7909 73.7909 18 76 18H148C150.209 18 152 19.7909 152 22V94C152 96.2091 150.209 98 148 98H76C73.7909 98 72 96.2091 72 94V22Z" fill="#DADFE2"/>
</svg>
