<svg width="224" height="117" viewBox="0 0 224 117" fill="none" xmlns="http://www.w3.org/2000/svg">
<path d="M112 56.586L106.707 51.293C106.519 51.1109 106.266 51.0101 106.004 51.0123C105.742 51.0146 105.491 51.1198 105.306 51.3052C105.12 51.4906 105.015 51.7414 105.013 52.0036C105.01 52.2658 105.111 52.5184 105.293 52.707L110.586 58L105.293 63.293C105.111 63.4816 105.01 63.7342 105.013 63.9964C105.015 64.2586 105.12 64.5094 105.306 64.6948C105.491 64.8802 105.742 64.9854 106.004 64.9877C106.266 64.99 106.519 64.8892 106.707 64.707L112 59.414L117.293 64.707C117.482 64.8892 117.735 64.99 117.997 64.9877C118.259 64.9854 118.51 64.8802 118.695 64.6948C118.881 64.5094 118.986 64.2586 118.988 63.9964C118.99 63.7342 118.89 63.4816 118.707 63.293L113.414 58L118.707 52.707C118.803 52.6148 118.879 52.5044 118.932 52.3824C118.984 52.2604 119.012 52.1292 119.013 51.9964C119.014 51.8636 118.989 51.732 118.938 51.6091C118.888 51.4862 118.814 51.3745 118.72 51.2806C118.626 51.1867 118.514 51.1125 118.391 51.0622C118.268 51.0119 118.137 50.9866 118.004 50.9878C117.871 50.9889 117.74 51.0165 117.618 51.0689C117.496 51.1213 117.386 51.1975 117.293 51.293L112 56.586Z" fill="#233D48"/>
</svg>
