<svg width="224" height="117" viewBox="0 0 224 117" fill="none" xmlns="http://www.w3.org/2000/svg">
<path d="M73 47C73 42.5817 76.5817 39 81 39H143C147.418 39 151 42.5817 151 47V71C151 75.4183 147.418 79 143 79H81C76.5817 79 73 75.4183 73 71V47Z" fill="#388523"/>
<path d="M73 47C73 42.5817 76.5817 39 81 39H143C147.418 39 151 42.5817 151 47V71C151 75.4183 147.418 79 143 79H81C76.5817 79 73 75.4183 73 71V47Z" stroke="#388523"/>
<path d="M90.3431 64V53.8182H94.2409C94.9767 53.8182 95.5882 53.9342 96.0754 54.1662C96.5659 54.3949 96.9321 54.7081 97.1741 55.1058C97.4194 55.5036 97.542 55.9543 97.542 56.4581C97.542 56.8724 97.4624 57.227 97.3034 57.522C97.1443 57.8137 96.9305 58.0507 96.662 58.233C96.3936 58.4152 96.0936 58.5462 95.7622 58.6257V58.7251C96.1234 58.745 96.4698 58.8561 96.8012 59.0582C97.136 59.2571 97.4094 59.5388 97.6215 59.9034C97.8337 60.268 97.9397 60.7088 97.9397 61.2259C97.9397 61.7528 97.8121 62.2268 97.5569 62.6477C97.3017 63.0653 96.9172 63.3951 96.4035 63.6371C95.8898 63.879 95.2435 64 94.4646 64H90.3431ZM92.1876 62.4588H94.1713C94.8408 62.4588 95.323 62.3312 95.618 62.076C95.9163 61.8175 96.0654 61.486 96.0654 61.0817C96.0654 60.7801 95.9909 60.5083 95.8417 60.2663C95.6926 60.0211 95.4804 59.8288 95.2053 59.6896C94.9302 59.5471 94.6021 59.4759 94.221 59.4759H92.1876V62.4588ZM92.1876 58.1484H94.0122C94.3303 58.1484 94.617 58.0904 94.8722 57.9744C95.1275 57.8551 95.328 57.6877 95.4738 57.4723C95.623 57.2536 95.6975 56.995 95.6975 56.6967C95.6975 56.3023 95.5583 55.9775 95.2799 55.7223C95.0048 55.4671 94.5955 55.3395 94.0519 55.3395H92.1876V58.1484ZM104.332 60.7884V56.3636H106.132V64H104.387V62.6428H104.307C104.135 63.0703 103.851 63.42 103.457 63.6918C103.066 63.9635 102.584 64.0994 102.01 64.0994C101.51 64.0994 101.067 63.9884 100.683 63.7663C100.302 63.541 100.003 63.2145 99.7879 62.7869C99.5725 62.3561 99.4648 61.8357 99.4648 61.2259V56.3636H101.264V60.9474C101.264 61.4313 101.397 61.8158 101.662 62.1009C101.927 62.3859 102.275 62.5284 102.706 62.5284C102.971 62.5284 103.228 62.4638 103.477 62.3345C103.725 62.2053 103.929 62.013 104.088 61.7578C104.251 61.4993 104.332 61.1761 104.332 60.7884ZM111.796 56.3636V57.7557H107.406V56.3636H111.796ZM108.489 54.5341H110.289V61.7031C110.289 61.9451 110.326 62.1307 110.399 62.2599C110.475 62.3859 110.574 62.4721 110.697 62.5185C110.819 62.5649 110.955 62.5881 111.104 62.5881C111.217 62.5881 111.32 62.5798 111.413 62.5632C111.509 62.5466 111.582 62.5317 111.631 62.5185L111.935 63.9254C111.839 63.9586 111.701 63.995 111.522 64.0348C111.346 64.0746 111.131 64.0978 110.876 64.1044C110.425 64.1177 110.019 64.0497 109.658 63.9006C109.296 63.7481 109.01 63.5128 108.798 63.1946C108.589 62.8764 108.486 62.4787 108.489 62.0014V54.5341ZM117.114 56.3636V57.7557H112.724V56.3636H117.114ZM113.808 54.5341H115.608V61.7031C115.608 61.9451 115.644 62.1307 115.717 62.2599C115.793 62.3859 115.893 62.4721 116.015 62.5185C116.138 62.5649 116.274 62.5881 116.423 62.5881C116.536 62.5881 116.638 62.5798 116.731 62.5632C116.827 62.5466 116.9 62.5317 116.95 62.5185L117.253 63.9254C117.157 63.9586 117.019 63.995 116.84 64.0348C116.665 64.0746 116.449 64.0978 116.194 64.1044C115.743 64.1177 115.337 64.0497 114.976 63.9006C114.615 63.7481 114.328 63.5128 114.116 63.1946C113.907 62.8764 113.804 62.4787 113.808 62.0014V54.5341ZM121.868 64.1491C121.122 64.1491 120.476 63.9851 119.929 63.657C119.382 63.3288 118.958 62.8698 118.656 62.2798C118.358 61.6899 118.209 61.0005 118.209 60.2116C118.209 59.4228 118.358 58.7318 118.656 58.1385C118.958 57.5452 119.382 57.0845 119.929 56.7564C120.476 56.4283 121.122 56.2642 121.868 56.2642C122.614 56.2642 123.26 56.4283 123.807 56.7564C124.354 57.0845 124.776 57.5452 125.075 58.1385C125.376 58.7318 125.527 59.4228 125.527 60.2116C125.527 61.0005 125.376 61.6899 125.075 62.2798C124.776 62.8698 124.354 63.3288 123.807 63.657C123.26 63.9851 122.614 64.1491 121.868 64.1491ZM121.878 62.7074C122.282 62.7074 122.62 62.5964 122.892 62.3743C123.164 62.1489 123.366 61.8473 123.499 61.4695C123.635 61.0916 123.703 60.6707 123.703 60.2067C123.703 59.7393 123.635 59.3168 123.499 58.9389C123.366 58.5578 123.164 58.2545 122.892 58.0291C122.62 57.8037 122.282 57.6911 121.878 57.6911C121.464 57.6911 121.119 57.8037 120.844 58.0291C120.572 58.2545 120.368 58.5578 120.232 58.9389C120.1 59.3168 120.033 59.7393 120.033 60.2067C120.033 60.6707 120.1 61.0916 120.232 61.4695C120.368 61.8473 120.572 62.1489 120.844 62.3743C121.119 62.5964 121.464 62.7074 121.878 62.7074ZM128.854 59.5256V64H127.055V56.3636H128.775V57.6612H128.864C129.04 57.2337 129.32 56.8939 129.704 56.642C130.092 56.3902 130.571 56.2642 131.141 56.2642C131.668 56.2642 132.127 56.3769 132.518 56.6023C132.913 56.8277 133.218 57.1541 133.433 57.5817C133.652 58.0092 133.76 58.5279 133.756 59.1378V64H131.957V59.4162C131.957 58.9058 131.824 58.5064 131.559 58.218C131.297 57.9297 130.934 57.7855 130.47 57.7855C130.155 57.7855 129.875 57.8551 129.63 57.9943C129.388 58.1302 129.197 58.3274 129.058 58.5859C128.922 58.8445 128.854 59.1577 128.854 59.5256Z" fill="white"/>
</svg>
