<svg width="224" height="117" viewBox="0 0 224 117" fill="none" xmlns="http://www.w3.org/2000/svg">
<g clip-path="url(#clip0_2314_43953)">
<path d="M6.15454 48.2C6.15454 45.3281 8.48266 43 11.3545 43H84.3933C87.2652 43 89.5933 45.3281 89.5933 48.2V68.7271C89.5933 71.599 87.2652 73.9271 84.3933 73.9271H11.3546C8.48267 73.9271 6.15454 71.599 6.15454 68.7271V48.2Z" fill="#388523"/>
<path d="M30.3247 62.1414V54.6439H33.1948C33.7366 54.6439 34.1869 54.7293 34.5457 54.9002C34.9069 55.0686 35.1766 55.2992 35.3548 55.5921C35.5354 55.8849 35.6257 56.2169 35.6257 56.5878C35.6257 56.8929 35.5671 57.154 35.4499 57.3713C35.3328 57.586 35.1754 57.7605 34.9777 57.8948C34.78 58.029 34.5591 58.1254 34.3151 58.184V58.2572C34.5811 58.2718 34.8361 58.3536 35.0802 58.5025C35.3267 58.6489 35.528 58.8564 35.6842 59.1248C35.8404 59.3933 35.9185 59.7179 35.9185 60.0986C35.9185 60.4867 35.8246 60.8357 35.6366 61.1456C35.4487 61.4531 35.1656 61.696 34.7873 61.8741C34.409 62.0523 33.9331 62.1414 33.3596 62.1414H30.3247ZM31.6829 61.0065H33.1436C33.6366 61.0065 33.9917 60.9126 34.2089 60.7246C34.4285 60.5343 34.5384 60.2902 34.5384 59.9925C34.5384 59.7704 34.4835 59.5702 34.3736 59.3921C34.2638 59.2115 34.1076 59.0699 33.905 58.9674C33.7025 58.8625 33.4609 58.81 33.1802 58.81H31.6829V61.0065ZM31.6829 57.8325H33.0264C33.2607 57.8325 33.4718 57.7898 33.6598 57.7044C33.8477 57.6165 33.9953 57.4933 34.1027 57.3347C34.2126 57.1736 34.2675 56.9832 34.2675 56.7636C34.2675 56.4731 34.165 56.2339 33.96 56.046C33.7574 55.8581 33.456 55.7641 33.0557 55.7641H31.6829V57.8325ZM40.6255 59.7765V56.5183H41.9507V62.1414H40.6658V61.142H40.6072C40.4803 61.4568 40.2716 61.7143 39.9812 61.9144C39.6932 62.1145 39.3381 62.2146 38.9159 62.2146C38.5473 62.2146 38.2215 62.1328 37.9384 61.9693C37.6578 61.8034 37.4381 61.563 37.2795 61.2481C37.1208 60.9309 37.0415 60.5477 37.0415 60.0986V56.5183H38.3667V59.8936C38.3667 60.2499 38.4644 60.533 38.6596 60.7429C38.8549 60.9528 39.1111 61.0578 39.4284 61.0578C39.6236 61.0578 39.8128 61.0102 39.9958 60.915C40.1789 60.8198 40.329 60.6783 40.4461 60.4903C40.5657 60.3 40.6255 60.062 40.6255 59.7765ZM46.1214 56.5183V57.5433H42.8888V56.5183H46.1214ZM43.6869 55.1711H45.0122V60.4501C45.0122 60.6282 45.039 60.7649 45.0927 60.8601C45.1488 60.9528 45.222 61.0163 45.3123 61.0504C45.4026 61.0846 45.5027 61.1017 45.6125 61.1017C45.6955 61.1017 45.7712 61.0956 45.8395 61.0834C45.9103 61.0712 45.964 61.0602 46.0006 61.0504L46.2239 62.0865C46.1531 62.1109 46.0518 62.1377 45.9201 62.167C45.7907 62.1963 45.6321 62.2134 45.4441 62.2183C45.1122 62.228 44.8132 62.178 44.5472 62.0682C44.2812 61.9559 44.0701 61.7826 43.9139 61.5483C43.7601 61.314 43.6845 61.0212 43.6869 60.6697V55.1711ZM50.0376 56.5183V57.5433H46.8051V56.5183H50.0376ZM47.6031 55.1711H48.9284V60.4501C48.9284 60.6282 48.9552 60.7649 49.0089 60.8601C49.0651 60.9528 49.1383 61.0163 49.2286 61.0504C49.3189 61.0846 49.4189 61.1017 49.5288 61.1017C49.6117 61.1017 49.6874 61.0956 49.7557 61.0834C49.8265 61.0712 49.8802 61.0602 49.9168 61.0504L50.1401 62.0865C50.0694 62.1109 49.9681 62.1377 49.8363 62.167C49.7069 62.1963 49.5483 62.2134 49.3604 62.2183C49.0284 62.228 48.7295 62.178 48.4634 62.0682C48.1974 61.9559 47.9863 61.7826 47.8301 61.5483C47.6764 61.314 47.6007 61.0212 47.6031 60.6697V55.1711ZM53.5383 62.2512C52.9892 62.2512 52.5133 62.1304 52.1106 61.8888C51.7079 61.6472 51.3955 61.3091 51.1734 60.8747C50.9538 60.4403 50.8439 59.9327 50.8439 59.3518C50.8439 58.7709 50.9538 58.2621 51.1734 57.8252C51.3955 57.3883 51.7079 57.0491 52.1106 56.8075C52.5133 56.5659 52.9892 56.4451 53.5383 56.4451C54.0875 56.4451 54.5634 56.5659 54.9661 56.8075C55.3688 57.0491 55.68 57.3883 55.8996 57.8252C56.1217 58.2621 56.2328 58.7709 56.2328 59.3518C56.2328 59.9327 56.1217 60.4403 55.8996 60.8747C55.68 61.3091 55.3688 61.6472 54.9661 61.8888C54.5634 62.1304 54.0875 62.2512 53.5383 62.2512ZM53.5457 61.1896C53.8434 61.1896 54.0924 61.1078 54.2925 60.9443C54.4926 60.7783 54.6415 60.5562 54.7391 60.278C54.8392 59.9998 54.8892 59.6898 54.8892 59.3481C54.8892 59.004 54.8392 58.6928 54.7391 58.4146C54.6415 58.1339 54.4926 57.9106 54.2925 57.7447C54.0924 57.5787 53.8434 57.4957 53.5457 57.4957C53.2406 57.4957 52.9868 57.5787 52.7842 57.7447C52.5841 57.9106 52.434 58.1339 52.3339 58.4146C52.2363 58.6928 52.1875 59.004 52.1875 59.3481C52.1875 59.6898 52.2363 59.9998 52.3339 60.278C52.434 60.5562 52.5841 60.7783 52.7842 60.9443C52.9868 61.1078 53.2406 61.1896 53.5457 61.1896ZM58.6828 58.8466V62.1414H57.3576V56.5183H58.6242V57.4738H58.6901C58.8195 57.1589 59.0257 56.9088 59.3088 56.7233C59.5944 56.5378 59.947 56.4451 60.3668 56.4451C60.7549 56.4451 61.0929 56.528 61.3809 56.694C61.6713 56.86 61.8958 57.1004 62.0545 57.4152C62.2155 57.73 62.2949 58.112 62.2924 58.561V62.1414H60.9672V58.7661C60.9672 58.3902 60.8696 58.0961 60.6743 57.8838C60.4815 57.6715 60.2143 57.5653 59.8726 57.5653C59.6407 57.5653 59.4345 57.6165 59.2539 57.719C59.0757 57.8191 58.9354 57.9643 58.8329 58.1547C58.7328 58.3451 58.6828 58.5757 58.6828 58.8466Z" fill="white"/>
<path d="M92.1707 48.2C92.1707 45.3281 94.4988 43 97.3707 43H170.409C173.281 43 175.609 45.3281 175.609 48.2V68.7271C175.609 71.599 173.281 73.9271 170.409 73.9271H97.3707C94.4988 73.9271 92.1707 71.599 92.1707 68.7271V48.2Z" fill="#388523"/>
<path d="M122.864 57.0381C122.803 56.8404 122.718 56.6635 122.611 56.5073C122.506 56.3487 122.379 56.2132 122.23 56.1009C122.084 55.9887 121.915 55.9045 121.725 55.8483C121.535 55.7898 121.327 55.7605 121.103 55.7605C120.7 55.7605 120.341 55.8618 120.026 56.0643C119.712 56.2669 119.464 56.5646 119.283 56.9576C119.105 57.3481 119.016 57.824 119.016 58.3853C119.016 58.9515 119.105 59.4311 119.283 59.8241C119.461 60.217 119.709 60.516 120.026 60.721C120.344 60.9235 120.712 61.0248 121.132 61.0248C121.513 61.0248 121.842 60.9516 122.12 60.8052C122.401 60.6587 122.617 60.4513 122.768 60.1828C122.92 59.9119 122.995 59.5946 122.995 59.231L123.303 59.2786H121.267V58.2169H124.31V59.1175C124.31 59.7594 124.173 60.3146 123.9 60.7832C123.626 61.2518 123.25 61.613 122.772 61.8668C122.294 62.1182 121.745 62.2439 121.125 62.2439C120.434 62.2439 119.827 62.0889 119.305 61.779C118.785 61.4666 118.379 61.0236 118.086 60.4501C117.796 59.8741 117.65 59.1907 117.65 58.4C117.65 57.7947 117.736 57.2541 117.907 56.7782C118.08 56.3023 118.322 55.8984 118.632 55.5664C118.942 55.2321 119.305 54.9783 119.723 54.805C120.14 54.6293 120.594 54.5414 121.084 54.5414C121.499 54.5414 121.886 54.6024 122.245 54.7244C122.604 54.844 122.922 55.0149 123.2 55.237C123.481 55.4591 123.712 55.7226 123.892 56.0277C124.073 56.3328 124.191 56.6696 124.247 57.0381H122.864ZM125.564 62.1414V56.5183H126.849V57.4555H126.908C127.01 57.1309 127.186 56.8807 127.435 56.705C127.686 56.5268 127.973 56.4377 128.295 56.4377C128.369 56.4377 128.45 56.4414 128.541 56.4487C128.633 56.4536 128.71 56.4621 128.771 56.4743V57.6934C128.715 57.6739 128.626 57.6568 128.504 57.6422C128.384 57.6251 128.269 57.6165 128.156 57.6165C127.915 57.6165 127.697 57.669 127.505 57.774C127.314 57.8765 127.164 58.0192 127.054 58.2023C126.945 58.3853 126.89 58.5964 126.89 58.8356V62.1414H125.564ZM131.873 62.2512C131.324 62.2512 130.848 62.1304 130.445 61.8888C130.043 61.6472 129.73 61.3091 129.508 60.8747C129.288 60.4403 129.179 59.9327 129.179 59.3518C129.179 58.7709 129.288 58.2621 129.508 57.8252C129.73 57.3883 130.043 57.0491 130.445 56.8075C130.848 56.5659 131.324 56.4451 131.873 56.4451C132.422 56.4451 132.898 56.5659 133.301 56.8075C133.703 57.0491 134.015 57.3883 134.234 57.8252C134.456 58.2621 134.567 58.7709 134.567 59.3518C134.567 59.9327 134.456 60.4403 134.234 60.8747C134.015 61.3091 133.703 61.6472 133.301 61.8888C132.898 62.1304 132.422 62.2512 131.873 62.2512ZM131.88 61.1896C132.178 61.1896 132.427 61.1078 132.627 60.9443C132.827 60.7783 132.976 60.5562 133.074 60.278C133.174 59.9998 133.224 59.6898 133.224 59.3481C133.224 59.004 133.174 58.6928 133.074 58.4146C132.976 58.1339 132.827 57.9106 132.627 57.7447C132.427 57.5787 132.178 57.4957 131.88 57.4957C131.575 57.4957 131.321 57.5787 131.119 57.7447C130.919 57.9106 130.769 58.1339 130.669 58.4146C130.571 58.6928 130.522 59.004 130.522 59.3481C130.522 59.6898 130.571 59.9998 130.669 60.278C130.769 60.5562 130.919 60.7783 131.119 60.9443C131.321 61.1078 131.575 61.1896 131.88 61.1896ZM139.276 59.7765V56.5183H140.601V62.1414H139.316V61.142H139.258C139.131 61.4568 138.922 61.7143 138.632 61.9144C138.344 62.1145 137.989 62.2146 137.567 62.2146C137.198 62.2146 136.872 62.1328 136.589 61.9693C136.308 61.8034 136.089 61.563 135.93 61.2481C135.772 60.9309 135.692 60.5477 135.692 60.0986V56.5183H137.017V59.8936C137.017 60.2499 137.115 60.533 137.31 60.7429C137.506 60.9528 137.762 61.0578 138.079 61.0578C138.274 61.0578 138.463 61.0102 138.647 60.915C138.83 60.8198 138.98 60.6783 139.097 60.4903C139.216 60.3 139.276 60.062 139.276 59.7765ZM141.964 64.2501V56.5183H143.267V57.4481H143.344C143.413 57.3115 143.509 57.1663 143.634 57.0125C143.758 56.8563 143.926 56.7233 144.139 56.6135C144.351 56.5012 144.622 56.4451 144.951 56.4451C145.386 56.4451 145.778 56.5561 146.127 56.7782C146.478 56.9979 146.756 57.3237 146.961 57.7557C147.169 58.1852 147.272 58.7124 147.272 59.3372C147.272 59.9546 147.171 60.4793 146.969 60.9113C146.766 61.3433 146.49 61.6728 146.141 61.8998C145.792 62.1267 145.397 62.2402 144.955 62.2402C144.633 62.2402 144.366 62.1865 144.153 62.0792C143.941 61.9718 143.77 61.8424 143.641 61.6911C143.514 61.5373 143.415 61.3921 143.344 61.2555H143.289V64.2501H141.964ZM143.264 59.3298C143.264 59.6935 143.315 60.012 143.418 60.2853C143.523 60.5587 143.673 60.7722 143.868 60.926C144.066 61.0773 144.305 61.153 144.585 61.153C144.878 61.153 145.124 61.0749 145.321 60.9187C145.519 60.76 145.668 60.544 145.768 60.2707C145.87 59.9949 145.922 59.6813 145.922 59.3298C145.922 58.9808 145.872 58.6709 145.772 58.4C145.671 58.1291 145.523 57.9167 145.325 57.763C145.127 57.6092 144.881 57.5323 144.585 57.5323C144.302 57.5323 144.062 57.6068 143.864 57.7557C143.666 57.9045 143.516 58.1132 143.414 58.3817C143.314 58.6501 143.264 58.9662 143.264 59.3298Z" fill="white"/>
<path d="M183.387 43.3222H211.645C214.339 43.3222 216.523 45.506 216.523 48.2V68.7271C216.523 71.4211 214.339 73.605 211.645 73.605H183.387C180.693 73.605 178.509 71.4211 178.509 68.7271V48.2C178.509 45.506 180.693 43.3222 183.387 43.3222Z" fill="white"/>
<path d="M183.387 43.3222H211.645C214.339 43.3222 216.523 45.506 216.523 48.2V68.7271C216.523 71.4211 214.339 73.605 211.645 73.605H183.387C180.693 73.605 178.509 71.4211 178.509 68.7271V48.2C178.509 45.506 180.693 43.3222 183.387 43.3222Z" stroke="#DADFE2" stroke-width="0.644315"/>
<path d="M192.362 58.4636C192.362 57.7518 192.939 57.1749 193.65 57.1749C194.362 57.1749 194.939 57.7518 194.939 58.4636C194.939 59.1753 194.362 59.7522 193.65 59.7522C192.939 59.7522 192.362 59.1753 192.362 58.4636ZM196.227 58.4636C196.227 57.7518 196.804 57.1749 197.516 57.1749C198.228 57.1749 198.805 57.7518 198.805 58.4636C198.805 59.1753 198.228 59.7522 197.516 59.7522C196.804 59.7522 196.227 59.1753 196.227 58.4636ZM201.382 57.1749C200.67 57.1749 200.093 57.7518 200.093 58.4636C200.093 59.1753 200.67 59.7522 201.382 59.7522C202.094 59.7522 202.671 59.1753 202.671 58.4636C202.671 57.7518 202.094 57.1749 201.382 57.1749Z" fill="#388523"/>
</g>
<defs>
<clipPath id="clip0_2314_43953">
<path d="M0 8C0 3.58172 3.58172 0 8 0H216C220.418 0 224 3.58172 224 8V109C224 113.418 220.418 117 216 117H8C3.58172 117 0 113.418 0 109V8Z" fill="white"/>
</clipPath>
</defs>
</svg>
