<svg width="224" height="117" viewBox="0 0 224 117" fill="none" xmlns="http://www.w3.org/2000/svg">
<path d="M14.3094 10.3929H210.691C213.958 10.3929 216.607 13.0418 216.607 16.3094V100.333C216.607 103.601 213.958 106.25 210.691 106.25H14.3094C11.0418 106.25 8.39286 103.601 8.39286 100.333V16.3094C8.39286 13.0418 11.0418 10.3929 14.3094 10.3929Z" fill="white"/>
<path d="M14.3094 10.3929H210.691C213.958 10.3929 216.607 13.0418 216.607 16.3094V100.333C216.607 103.601 213.958 106.25 210.691 106.25H14.3094C11.0418 106.25 8.39286 103.601 8.39286 100.333V16.3094C8.39286 13.0418 11.0418 10.3929 14.3094 10.3929Z" stroke="#DADFE2" stroke-width="0.785714"/>
<path d="M33.8638 32.6585H30.9308C30.8772 32.279 30.7679 31.9419 30.6027 31.6473C30.4375 31.3482 30.2254 31.0937 29.9665 30.8839C29.7076 30.6741 29.4085 30.5134 29.0692 30.4018C28.7344 30.2902 28.3705 30.2344 27.9777 30.2344C27.2679 30.2344 26.6496 30.4107 26.1228 30.7634C25.596 31.1116 25.1875 31.6205 24.8973 32.2902C24.6071 32.9553 24.4621 33.7634 24.4621 34.7143C24.4621 35.6919 24.6071 36.5134 24.8973 37.1786C25.192 37.8437 25.6027 38.346 26.1295 38.6853C26.6562 39.0245 27.2656 39.1942 27.9576 39.1942C28.346 39.1942 28.7054 39.1428 29.0357 39.0402C29.3705 38.9375 29.6674 38.7879 29.9263 38.5915C30.1853 38.3906 30.3996 38.1473 30.5692 37.8616C30.7433 37.5759 30.8638 37.25 30.9308 36.8839L33.8638 36.8973C33.7879 37.5268 33.5982 38.1339 33.2946 38.7187C32.9955 39.2991 32.5915 39.8192 32.0826 40.279C31.5781 40.7344 30.9754 41.096 30.2746 41.3638C29.5781 41.6272 28.7902 41.7589 27.9107 41.7589C26.6875 41.7589 25.5937 41.4821 24.6295 40.9286C23.6696 40.375 22.9107 39.5736 22.3527 38.5245C21.7991 37.4754 21.5223 36.2053 21.5223 34.7143C21.5223 33.2187 21.8036 31.9464 22.3661 30.8973C22.9286 29.8482 23.692 29.0491 24.6562 28.5C25.6205 27.9464 26.7054 27.6696 27.9107 27.6696C28.7054 27.6696 29.442 27.7812 30.1205 28.0044C30.8036 28.2277 31.4085 28.5536 31.9353 28.9821C32.4621 29.4062 32.8906 29.9263 33.221 30.5424C33.5558 31.1585 33.7701 31.8638 33.8638 32.6585ZM38.8225 41.7656C38.1663 41.7656 37.5815 41.6518 37.0681 41.4241C36.5547 41.1919 36.1484 40.8504 35.8493 40.3995C35.5547 39.9442 35.4074 39.3772 35.4074 38.6986C35.4074 38.1272 35.5123 37.6473 35.7221 37.2589C35.9319 36.8705 36.2176 36.558 36.5792 36.3214C36.9408 36.0848 37.3516 35.9062 37.8114 35.7857C38.2757 35.6652 38.7623 35.5803 39.2712 35.5312C39.8694 35.4687 40.3516 35.4107 40.7176 35.3571C41.0837 35.2991 41.3493 35.2143 41.5145 35.1027C41.6797 34.9911 41.7623 34.8259 41.7623 34.6071V34.5669C41.7623 34.1428 41.6283 33.8147 41.3605 33.5826C41.0971 33.3504 40.7221 33.2344 40.2355 33.2344C39.7221 33.2344 39.3136 33.3482 39.01 33.5759C38.7065 33.7991 38.5056 34.0803 38.4074 34.4196L35.769 34.2053C35.9029 33.5803 36.1663 33.0402 36.5591 32.5848C36.952 32.125 37.4587 31.7723 38.0792 31.5268C38.7042 31.2768 39.4275 31.1518 40.2489 31.1518C40.8203 31.1518 41.3672 31.2187 41.8895 31.3527C42.4163 31.4866 42.8828 31.6942 43.2891 31.9754C43.6998 32.2567 44.0234 32.6183 44.26 33.0603C44.4966 33.4977 44.615 34.0223 44.615 34.6339V41.5714H41.9096V40.1451H41.8292C41.6641 40.4665 41.4431 40.75 41.1663 40.9955C40.8895 41.2366 40.5569 41.4263 40.1685 41.5647C39.7801 41.6986 39.3315 41.7656 38.8225 41.7656ZM39.6395 39.7969C40.0592 39.7969 40.4297 39.7143 40.7511 39.5491C41.0725 39.3794 41.3248 39.1518 41.5078 38.8661C41.6908 38.5803 41.7824 38.2567 41.7824 37.8951V36.8036C41.6931 36.8616 41.5703 36.9152 41.4141 36.9643C41.2623 37.0089 41.0904 37.0513 40.8984 37.0915C40.7065 37.1272 40.5145 37.1607 40.3225 37.1919C40.1306 37.2187 39.9565 37.2433 39.8002 37.2656C39.4654 37.3147 39.173 37.3928 38.923 37.5C38.673 37.6071 38.4788 37.7522 38.3404 37.9353C38.202 38.1138 38.1328 38.337 38.1328 38.6049C38.1328 38.9933 38.2734 39.2902 38.5547 39.4955C38.8404 39.6964 39.202 39.7969 39.6395 39.7969ZM46.8281 41.5714V31.2857H49.5937V33.0803H49.7009C49.8884 32.4419 50.2031 31.9598 50.6451 31.6339C51.0871 31.3036 51.596 31.1384 52.1719 31.1384C52.3147 31.1384 52.4687 31.1473 52.6339 31.1652C52.7991 31.183 52.9442 31.2076 53.0692 31.2388V33.7701C52.9353 33.7299 52.75 33.6942 52.5134 33.6629C52.2768 33.6317 52.0603 33.6161 51.8638 33.6161C51.4442 33.6161 51.0692 33.7076 50.7388 33.8906C50.4129 34.0692 50.154 34.3192 49.9621 34.6406C49.7746 34.962 49.6808 35.3326 49.6808 35.7522V41.5714H46.8281ZM57.8555 41.7388C57.0742 41.7388 56.3666 41.5379 55.7327 41.1361C55.1032 40.7299 54.6032 40.1339 54.2327 39.3482C53.8666 38.558 53.6836 37.5893 53.6836 36.4419C53.6836 35.2634 53.8733 34.2835 54.2528 33.5022C54.6323 32.7165 55.1367 32.1294 55.7662 31.7411C56.4001 31.3482 57.0943 31.1518 57.8488 31.1518C58.4247 31.1518 58.9046 31.25 59.2885 31.4464C59.6769 31.6384 59.9894 31.8794 60.226 32.1696C60.4671 32.4553 60.6501 32.7366 60.7751 33.0134H60.8622V27.8571H63.7081V41.5714H60.8956V39.9241H60.7751C60.6412 40.2098 60.4514 40.4933 60.2059 40.7745C59.9648 41.0513 59.6501 41.2812 59.2617 41.4643C58.8778 41.6473 58.409 41.7388 57.8555 41.7388ZM58.7595 39.4687C59.2193 39.4687 59.6077 39.3437 59.9247 39.0937C60.2461 38.8393 60.4916 38.4844 60.6613 38.029C60.8354 37.5736 60.9224 37.0402 60.9224 36.4286C60.9224 35.8169 60.8376 35.2857 60.668 34.8348C60.4983 34.3839 60.2528 34.0357 59.9314 33.7902C59.6099 33.5446 59.2193 33.4219 58.7595 33.4219C58.2907 33.4219 57.8956 33.5491 57.5742 33.8036C57.2528 34.058 57.0095 34.4107 56.8443 34.8616C56.6791 35.3125 56.5965 35.8348 56.5965 36.4286C56.5965 37.0268 56.6791 37.5558 56.8443 38.0156C57.0139 38.471 57.2573 38.8281 57.5742 39.087C57.8956 39.3415 58.2907 39.4687 58.7595 39.4687ZM75.889 31.2857V33.4286H69.6948V31.2857H75.889ZM71.101 28.8214H73.9537V38.4107C73.9537 38.6741 73.9939 38.8794 74.0742 39.0268C74.1546 39.1696 74.2662 39.2701 74.409 39.3281C74.5564 39.3861 74.726 39.4152 74.918 39.4152C75.0519 39.4152 75.1858 39.404 75.3198 39.3817C75.4537 39.3549 75.5564 39.3348 75.6278 39.3214L76.0765 41.4442C75.9336 41.4888 75.7327 41.5402 75.4738 41.5982C75.2148 41.6607 74.9001 41.6986 74.5296 41.712C73.8421 41.7388 73.2394 41.6473 72.7215 41.4375C72.2081 41.2277 71.8086 40.9018 71.5229 40.4598C71.2372 40.0178 71.0965 39.4598 71.101 38.7857V28.8214ZM77.7472 41.5714V31.2857H80.5999V41.5714H77.7472ZM79.1802 29.9598C78.7561 29.9598 78.3923 29.8192 78.0887 29.5379C77.7896 29.2522 77.6401 28.9107 77.6401 28.5134C77.6401 28.1205 77.7896 27.7835 78.0887 27.5022C78.3923 27.2165 78.7561 27.0736 79.1802 27.0736C79.6044 27.0736 79.966 27.2165 80.2651 27.5022C80.5686 27.7835 80.7204 28.1205 80.7204 28.5134C80.7204 28.9107 80.5686 29.2522 80.2651 29.5379C79.966 29.8192 79.6044 29.9598 79.1802 29.9598ZM88.356 31.2857V33.4286H82.1618V31.2857H88.356ZM83.5681 28.8214H86.4208V38.4107C86.4208 38.6741 86.4609 38.8794 86.5413 39.0268C86.6217 39.1696 86.7333 39.2701 86.8761 39.3281C87.0234 39.3861 87.1931 39.4152 87.385 39.4152C87.519 39.4152 87.6529 39.404 87.7868 39.3817C87.9208 39.3549 88.0234 39.3348 88.0949 39.3214L88.5435 41.4442C88.4007 41.4888 88.1998 41.5402 87.9408 41.5982C87.6819 41.6607 87.3672 41.6986 86.9967 41.712C86.3092 41.7388 85.7065 41.6473 85.1886 41.4375C84.6752 41.2277 84.2757 40.9018 83.99 40.4598C83.7042 40.0178 83.5636 39.4598 83.5681 38.7857V28.8214ZM93.2879 27.8571V41.5714H90.4353V27.8571H93.2879ZM100.261 41.7723C99.2026 41.7723 98.2919 41.558 97.5285 41.1294C96.7695 40.6964 96.1847 40.0848 95.774 39.2946C95.3633 38.5 95.1579 37.5603 95.1579 36.4754C95.1579 35.4174 95.3633 34.4888 95.774 33.6897C96.1847 32.8906 96.7628 32.2678 97.5084 31.8214C98.2584 31.375 99.1378 31.1518 100.147 31.1518C100.825 31.1518 101.457 31.2611 102.042 31.4799C102.631 31.6942 103.145 32.0178 103.582 32.4509C104.024 32.8839 104.368 33.4286 104.613 34.0848C104.859 34.7366 104.982 35.5 104.982 36.375V37.1585H96.2963V35.3906H102.296C102.296 34.9799 102.207 34.6161 102.028 34.2991C101.85 33.9821 101.602 33.7344 101.285 33.5558C100.973 33.3728 100.609 33.2812 100.194 33.2812C99.7606 33.2812 99.3767 33.3817 99.0419 33.5826C98.7115 33.779 98.4526 34.0446 98.2651 34.3794C98.0776 34.7098 97.9816 35.0781 97.9771 35.4844V37.1652C97.9771 37.6741 98.0709 38.1138 98.2584 38.4844C98.4503 38.8549 98.7204 39.1406 99.0686 39.3415C99.4169 39.5424 99.8298 39.6428 100.307 39.6428C100.624 39.6428 100.915 39.5982 101.178 39.5089C101.441 39.4196 101.667 39.2857 101.854 39.1071C102.042 38.9286 102.185 38.7098 102.283 38.4509L104.921 38.625C104.787 39.2589 104.513 39.8125 104.098 40.2857C103.687 40.7544 103.156 41.1205 102.504 41.3839C101.857 41.6428 101.109 41.7723 100.261 41.7723Z" fill="#032B3A"/>
<path d="M149.571 28.8808C149.571 25.3962 152.396 22.5714 155.881 22.5714H198.119C201.604 22.5714 204.429 25.3962 204.429 28.8808V41.4048C204.429 44.8894 201.604 47.7143 198.119 47.7143H155.881C152.396 47.7143 149.571 44.8894 149.571 41.4048V28.8808Z" fill="white"/>
<path d="M149.571 28.8808C149.571 25.3962 152.396 22.5714 155.881 22.5714H198.119C201.604 22.5714 204.429 25.3962 204.429 28.8808V41.4048C204.429 44.8894 201.604 47.7143 198.119 47.7143H155.881C152.396 47.7143 149.571 44.8894 149.571 41.4048V28.8808Z" stroke="#DADFE2"/>
<path d="M159.984 39.1428V31.1428H163.046C163.625 31.1428 164.105 31.234 164.488 31.4163C164.873 31.5959 165.161 31.842 165.351 32.1545C165.544 32.467 165.64 32.8212 165.64 33.217C165.64 33.5426 165.578 33.8212 165.453 34.053C165.328 34.2821 165.16 34.4683 164.949 34.6116C164.738 34.7548 164.502 34.8577 164.242 34.9202V34.9983C164.526 35.0139 164.798 35.1012 165.058 35.26C165.321 35.4163 165.536 35.6376 165.703 35.9241C165.869 36.2105 165.953 36.5569 165.953 36.9631C165.953 37.3772 165.852 37.7496 165.652 38.0803C165.451 38.4084 165.149 38.6676 164.746 38.8577C164.342 39.0478 163.834 39.1428 163.222 39.1428H159.984ZM161.433 37.9319H162.992C163.518 37.9319 163.897 37.8316 164.128 37.6311C164.363 37.428 164.48 37.1676 164.48 36.8499C164.48 36.6129 164.421 36.3993 164.304 36.2092C164.187 36.0165 164.02 35.8655 163.804 35.7561C163.588 35.6441 163.33 35.5881 163.031 35.5881H161.433V37.9319ZM161.433 34.5452H162.867C163.117 34.5452 163.342 34.4996 163.542 34.4084C163.743 34.3147 163.901 34.1832 164.015 34.0139C164.132 33.842 164.191 33.6389 164.191 33.4045C164.191 33.0946 164.082 32.8394 163.863 32.6389C163.647 32.4384 163.325 32.3381 162.898 32.3381H161.433V34.5452ZM170.975 36.6194V33.1428H172.389V39.1428H171.018V38.0764H170.956C170.82 38.4124 170.597 38.6871 170.288 38.9006C169.98 39.1142 169.601 39.2209 169.151 39.2209C168.758 39.2209 168.41 39.1337 168.108 38.9592C167.808 38.7821 167.574 38.5256 167.405 38.1897C167.236 37.8512 167.151 37.4423 167.151 36.9631V33.1428H168.565V36.7444C168.565 37.1246 168.669 37.4267 168.877 37.6506C169.086 37.8746 169.359 37.9866 169.698 37.9866C169.906 37.9866 170.108 37.9358 170.303 37.8342C170.499 37.7327 170.659 37.5816 170.784 37.3811C170.911 37.178 170.975 36.9241 170.975 36.6194ZM176.839 33.1428V34.2366H173.39V33.1428H176.839ZM174.242 31.7053H175.656V37.3381C175.656 37.5282 175.684 37.6741 175.742 37.7756C175.802 37.8746 175.88 37.9423 175.976 37.9788C176.072 38.0152 176.179 38.0334 176.296 38.0334C176.385 38.0334 176.466 38.0269 176.539 38.0139C176.614 38.0009 176.671 37.9892 176.71 37.9788L176.949 39.0842C176.873 39.1103 176.765 39.1389 176.625 39.1702C176.486 39.2014 176.317 39.2196 176.117 39.2249C175.763 39.2353 175.444 39.1819 175.16 39.0647C174.876 38.9449 174.651 38.76 174.484 38.51C174.32 38.26 174.239 37.9475 174.242 37.5725V31.7053ZM181.018 33.1428V34.2366H177.569V33.1428H181.018ZM178.42 31.7053H179.834V37.3381C179.834 37.5282 179.863 37.6741 179.92 37.7756C179.98 37.8746 180.058 37.9423 180.155 37.9788C180.251 38.0152 180.358 38.0334 180.475 38.0334C180.564 38.0334 180.644 38.0269 180.717 38.0139C180.793 38.0009 180.85 37.9892 180.889 37.9788L181.127 39.0842C181.052 39.1103 180.944 39.1389 180.803 39.1702C180.665 39.2014 180.496 39.2196 180.295 39.2249C179.941 39.2353 179.622 39.1819 179.338 39.0647C179.055 38.9449 178.829 38.76 178.663 38.51C178.499 38.26 178.418 37.9475 178.42 37.5725V31.7053ZM184.753 39.26C184.167 39.26 183.66 39.1311 183.23 38.8733C182.8 38.6155 182.467 38.2548 182.23 37.7913C181.996 37.3277 181.878 36.7861 181.878 36.1663C181.878 35.5465 181.996 35.0035 182.23 34.5374C182.467 34.0712 182.8 33.7092 183.23 33.4514C183.66 33.1936 184.167 33.0647 184.753 33.0647C185.339 33.0647 185.847 33.1936 186.277 33.4514C186.707 33.7092 187.039 34.0712 187.273 34.5374C187.51 35.0035 187.628 35.5465 187.628 36.1663C187.628 36.7861 187.51 37.3277 187.273 37.7913C187.039 38.2548 186.707 38.6155 186.277 38.8733C185.847 39.1311 185.339 39.26 184.753 39.26ZM184.761 38.1272C185.079 38.1272 185.345 38.04 185.558 37.8655C185.772 37.6884 185.931 37.4514 186.035 37.1545C186.141 36.8577 186.195 36.5269 186.195 36.1624C186.195 35.7952 186.141 35.4631 186.035 35.1663C185.931 34.8668 185.772 34.6285 185.558 34.4514C185.345 34.2743 185.079 34.1858 184.761 34.1858C184.436 34.1858 184.165 34.2743 183.949 34.4514C183.735 34.6285 183.575 34.8668 183.468 35.1663C183.364 35.4631 183.312 35.7952 183.312 36.1624C183.312 36.5269 183.364 36.8577 183.468 37.1545C183.575 37.4514 183.735 37.6884 183.949 37.8655C184.165 38.04 184.436 38.1272 184.761 38.1272ZM190.243 35.6272V39.1428H188.829V33.1428H190.18V34.1624H190.25C190.389 33.8264 190.609 33.5595 190.911 33.3616C191.215 33.1637 191.592 33.0647 192.04 33.0647C192.454 33.0647 192.814 33.1532 193.122 33.3303C193.431 33.5074 193.671 33.7639 193.84 34.0999C194.012 34.4358 194.097 34.8433 194.094 35.3225V39.1428H192.68V35.5413C192.68 35.1402 192.576 34.8264 192.368 34.5999C192.162 34.3733 191.877 34.26 191.512 34.26C191.265 34.26 191.045 34.3147 190.852 34.4241C190.662 34.5308 190.512 34.6858 190.403 34.8889C190.296 35.092 190.243 35.3381 190.243 35.6272Z" fill="#388523"/>
<path d="M159.195 41.3303H166.425V42.0803H159.195V41.3303ZM166.424 41.3303H177.296V42.0803H166.424V41.3303ZM177.295 41.3303H181.475V42.0803H177.295V41.3303ZM181.41 41.3303H194.809V42.0803H181.41V41.3303Z" fill="#388523"/>
<g clip-path="url(#clip0_4_5767)">
<path d="M20.5714 63.4286C20.5714 61.6928 21.9785 60.2857 23.7143 60.2857H168.892C170.628 60.2857 172.035 61.6928 172.035 63.4286V63.4286C172.035 65.1643 170.628 66.5714 168.892 66.5714H23.7143C21.9785 66.5714 20.5714 65.1643 20.5714 63.4286V63.4286Z" fill="black" fill-opacity="0.08"/>
<rect x="20.5714" y="60.2857" width="150.857" height="6.28571" fill="url(#paint0_linear_4_5767)"/>
</g>
<g clip-path="url(#clip1_4_5767)">
<path d="M20.5714 76C20.5714 74.2643 21.9785 72.8571 23.7143 72.8571H201.286C203.021 72.8571 204.429 74.2643 204.429 76V76C204.429 77.7358 203.021 79.1429 201.286 79.1429H23.7143C21.9785 79.1429 20.5714 77.7358 20.5714 76V76Z" fill="black" fill-opacity="0.08"/>
<rect x="20.5714" y="72.8571" width="184" height="6.28571" fill="url(#paint1_linear_4_5767)"/>
<rect x="-161.714" y="72.8571" width="184" height="6.28571" fill="url(#paint2_linear_4_5767)"/>
</g>
<g clip-path="url(#clip2_4_5767)">
<path d="M20.5714 88.5714C20.5714 86.8357 21.9785 85.4286 23.7143 85.4286H155.759C157.495 85.4286 158.902 86.8357 158.902 88.5714V88.5714C158.902 90.3072 157.495 91.7143 155.759 91.7143H23.7143C21.9785 91.7143 20.5714 90.3072 20.5714 88.5714V88.5714Z" fill="black" fill-opacity="0.08"/>
<rect x="20.5714" y="85.4286" width="138.286" height="6.28571" fill="url(#paint3_linear_4_5767)"/>
</g>
<defs>
<linearGradient id="paint0_linear_4_5767" x1="171.429" y1="63.4286" x2="20.5714" y2="63.4286" gradientUnits="userSpaceOnUse">
<stop stop-color="white" stop-opacity="0"/>
<stop offset="0.299948" stop-color="white" stop-opacity="0.8"/>
<stop offset="1" stop-color="white" stop-opacity="0"/>
</linearGradient>
<linearGradient id="paint1_linear_4_5767" x1="204.571" y1="76" x2="20.5714" y2="76" gradientUnits="userSpaceOnUse">
<stop stop-color="white" stop-opacity="0"/>
<stop offset="0.299948" stop-color="white" stop-opacity="0.8"/>
<stop offset="1" stop-color="white" stop-opacity="0"/>
</linearGradient>
<linearGradient id="paint2_linear_4_5767" x1="22.2857" y1="76" x2="-161.714" y2="76" gradientUnits="userSpaceOnUse">
<stop stop-color="white" stop-opacity="0"/>
<stop offset="0.299948" stop-color="white" stop-opacity="0.8"/>
<stop offset="1" stop-color="white" stop-opacity="0"/>
</linearGradient>
<linearGradient id="paint3_linear_4_5767" x1="158.857" y1="88.5714" x2="20.5714" y2="88.5714" gradientUnits="userSpaceOnUse">
<stop stop-color="white" stop-opacity="0"/>
<stop offset="0.299948" stop-color="white" stop-opacity="0.8"/>
<stop offset="1" stop-color="white" stop-opacity="0"/>
</linearGradient>
<clipPath id="clip0_4_5767">
<path d="M20.5714 63.4286C20.5714 61.6928 21.9785 60.2857 23.7143 60.2857H168.892C170.628 60.2857 172.035 61.6928 172.035 63.4286V63.4286C172.035 65.1643 170.628 66.5714 168.892 66.5714H23.7143C21.9785 66.5714 20.5714 65.1643 20.5714 63.4286V63.4286Z" fill="white"/>
</clipPath>
<clipPath id="clip1_4_5767">
<path d="M20.5714 76C20.5714 74.2643 21.9785 72.8571 23.7143 72.8571H201.286C203.021 72.8571 204.429 74.2643 204.429 76V76C204.429 77.7358 203.021 79.1429 201.286 79.1429H23.7143C21.9785 79.1429 20.5714 77.7358 20.5714 76V76Z" fill="white"/>
</clipPath>
<clipPath id="clip2_4_5767">
<path d="M20.5714 88.5714C20.5714 86.8357 21.9785 85.4286 23.7143 85.4286H155.759C157.495 85.4286 158.902 86.8357 158.902 88.5714V88.5714C158.902 90.3072 157.495 91.7143 155.759 91.7143H23.7143C21.9785 91.7143 20.5714 90.3072 20.5714 88.5714V88.5714Z" fill="white"/>
</clipPath>
</defs>
</svg>
