<svg width="434" height="120" viewBox="0 0 434 120" fill="none" xmlns="http://www.w3.org/2000/svg">
<g clip-path="url(#clip0_1_13793)">
<path d="M32.9176 29.6562H29.1847C29.1165 29.1733 28.9773 28.7443 28.767 28.3693C28.5568 27.9886 28.2869 27.6648 27.9574 27.3977C27.6278 27.1307 27.2472 26.9261 26.8153 26.7841C26.3892 26.642 25.9261 26.571 25.4261 26.571C24.5227 26.571 23.7358 26.7955 23.0653 27.2443C22.3949 27.6875 21.875 28.3352 21.5057 29.1875C21.1364 30.0341 20.9517 31.0625 20.9517 32.2727C20.9517 33.517 21.1364 34.5625 21.5057 35.4091C21.8807 36.2557 22.4034 36.8949 23.0739 37.3267C23.7443 37.7585 24.5199 37.9744 25.4006 37.9744C25.8949 37.9744 26.3523 37.9091 26.7727 37.7784C27.1989 37.6477 27.5767 37.4574 27.9062 37.2074C28.2358 36.9517 28.5085 36.642 28.7244 36.2784C28.946 35.9148 29.0994 35.5 29.1847 35.0341L32.9176 35.0511C32.821 35.8523 32.5795 36.625 32.1932 37.3693C31.8125 38.108 31.2983 38.7699 30.6506 39.3551C30.0085 39.9347 29.2415 40.3949 28.3494 40.7358C27.4631 41.071 26.4602 41.2386 25.3409 41.2386C23.7841 41.2386 22.392 40.8864 21.1648 40.1818C19.9432 39.4773 18.9773 38.4574 18.267 37.1222C17.5625 35.7869 17.2102 34.1705 17.2102 32.2727C17.2102 30.3693 17.5682 28.75 18.2841 27.4148C19 26.0795 19.9716 25.0625 21.1989 24.3636C22.4261 23.6591 23.8068 23.3068 25.3409 23.3068C26.3523 23.3068 27.2898 23.4489 28.1534 23.733C29.0227 24.017 29.7926 24.4318 30.4631 24.9773C31.1335 25.517 31.679 26.179 32.0994 26.9631C32.5256 27.7472 32.7983 28.6449 32.9176 29.6562ZM39.2287 41.2472C38.3935 41.2472 37.6491 41.1023 36.9957 40.8125C36.3423 40.517 35.8253 40.0824 35.4446 39.5085C35.0696 38.929 34.8821 38.2074 34.8821 37.3438C34.8821 36.6165 35.0156 36.0057 35.2827 35.5114C35.5497 35.017 35.9134 34.6193 36.3736 34.3182C36.8338 34.017 37.3565 33.7898 37.9418 33.6364C38.5327 33.483 39.152 33.375 39.7997 33.3125C40.5611 33.233 41.1747 33.1591 41.6406 33.0909C42.1065 33.017 42.4446 32.9091 42.6548 32.767C42.8651 32.625 42.9702 32.4148 42.9702 32.1364V32.0852C42.9702 31.5455 42.7997 31.1278 42.4588 30.8324C42.1236 30.5369 41.6463 30.3892 41.027 30.3892C40.3736 30.3892 39.8537 30.5341 39.4673 30.8239C39.081 31.108 38.8253 31.4659 38.7003 31.8977L35.3423 31.625C35.5128 30.8295 35.848 30.142 36.348 29.5625C36.848 28.9773 37.4929 28.5284 38.2827 28.2159C39.0781 27.8977 39.9986 27.7386 41.044 27.7386C41.7713 27.7386 42.4673 27.8239 43.1321 27.9943C43.8026 28.1648 44.3963 28.429 44.9134 28.7869C45.4361 29.1449 45.848 29.6051 46.1491 30.1676C46.4503 30.7244 46.6009 31.392 46.6009 32.1705V41H43.1577V39.1847H43.0554C42.8452 39.5938 42.5639 39.9545 42.2116 40.267C41.8594 40.5739 41.4361 40.8153 40.9418 40.9915C40.4474 41.1619 39.8764 41.2472 39.2287 41.2472ZM40.2685 38.7415C40.8026 38.7415 41.2741 38.6364 41.6832 38.4261C42.0923 38.2102 42.4134 37.9205 42.6463 37.5568C42.8793 37.1932 42.9957 36.7812 42.9957 36.321V34.9318C42.8821 35.0057 42.7259 35.0739 42.527 35.1364C42.3338 35.1932 42.1151 35.2472 41.8707 35.2983C41.6264 35.3437 41.3821 35.3864 41.1378 35.4261C40.8935 35.4602 40.6719 35.4915 40.473 35.5199C40.0469 35.5824 39.6747 35.6818 39.3565 35.8182C39.0384 35.9545 38.7912 36.1392 38.6151 36.3722C38.4389 36.5994 38.3509 36.8835 38.3509 37.2244C38.3509 37.7188 38.5298 38.0966 38.8878 38.358C39.2514 38.6136 39.7116 38.7415 40.2685 38.7415ZM49.4176 41V27.9091H52.9375V30.1932H53.0739C53.3125 29.3807 53.7131 28.767 54.2756 28.3523C54.8381 27.9318 55.4858 27.7216 56.2188 27.7216C56.4006 27.7216 56.5966 27.733 56.8068 27.7557C57.017 27.7784 57.2017 27.8097 57.3608 27.8494V31.071C57.1903 31.0199 56.9545 30.9744 56.6534 30.9347C56.3523 30.8949 56.0767 30.875 55.8267 30.875C55.2926 30.875 54.8153 30.9915 54.3949 31.2244C53.9801 31.4517 53.6506 31.7699 53.4062 32.179C53.1676 32.5881 53.0483 33.0597 53.0483 33.5938V41H49.4176ZM63.4524 41.2131C62.4581 41.2131 61.5575 40.9574 60.7507 40.446C59.9496 39.929 59.3132 39.1705 58.8416 38.1705C58.3757 37.1648 58.1428 35.9318 58.1428 34.4716C58.1428 32.9716 58.3842 31.7244 58.8672 30.7301C59.3501 29.7301 59.9922 28.983 60.7933 28.4886C61.6001 27.9886 62.4837 27.7386 63.4439 27.7386C64.1768 27.7386 64.7876 27.8636 65.2763 28.1136C65.7706 28.358 66.1683 28.6648 66.4695 29.0341C66.7763 29.3977 67.0092 29.7557 67.1683 30.108H67.2791V23.5455H70.9013V41H67.3217V38.9034H67.1683C66.9979 39.267 66.7564 39.6278 66.4439 39.9858C66.1371 40.3381 65.7365 40.6307 65.2422 40.8636C64.7536 41.0966 64.157 41.2131 63.4524 41.2131ZM64.603 38.3239C65.1882 38.3239 65.6825 38.1648 66.0859 37.8466C66.495 37.5227 66.8075 37.071 67.0234 36.4915C67.245 35.9119 67.3558 35.233 67.3558 34.4545C67.3558 33.6761 67.2479 33 67.032 32.4261C66.8161 31.8523 66.5036 31.4091 66.0945 31.0966C65.6854 30.7841 65.1882 30.6278 64.603 30.6278C64.0064 30.6278 63.5036 30.7898 63.0945 31.1136C62.6854 31.4375 62.3757 31.8864 62.1655 32.4602C61.9553 33.0341 61.8501 33.6989 61.8501 34.4545C61.8501 35.2159 61.9553 35.8892 62.1655 36.4744C62.3814 37.054 62.6911 37.5085 63.0945 37.8381C63.5036 38.1619 64.0064 38.3239 64.603 38.3239ZM86.4041 27.9091V30.6364H78.5206V27.9091H86.4041ZM80.3104 24.7727H83.9411V36.9773C83.9411 37.3125 83.9922 37.5739 84.0945 37.7614C84.1967 37.9432 84.3388 38.071 84.5206 38.1449C84.7081 38.2187 84.924 38.2557 85.1683 38.2557C85.3388 38.2557 85.5092 38.2415 85.6797 38.2131C85.8501 38.179 85.9808 38.1534 86.0717 38.1364L86.6428 40.8381C86.4609 40.8949 86.2053 40.9602 85.8757 41.0341C85.5462 41.1136 85.1456 41.1619 84.674 41.179C83.799 41.2131 83.032 41.0966 82.3729 40.8295C81.7195 40.5625 81.2109 40.1477 80.8473 39.5852C80.4837 39.0227 80.3047 38.3125 80.3104 37.4545V24.7727ZM88.7692 41V27.9091H92.3999V41H88.7692ZM90.593 26.2216C90.0533 26.2216 89.5902 26.0426 89.2038 25.6847C88.8232 25.321 88.6328 24.8864 88.6328 24.3807C88.6328 23.8807 88.8232 23.4517 89.2038 23.0938C89.5902 22.7301 90.0533 22.5483 90.593 22.5483C91.1328 22.5483 91.593 22.7301 91.9737 23.0938C92.3601 23.4517 92.5533 23.8807 92.5533 24.3807C92.5533 24.8864 92.3601 25.321 91.9737 25.6847C91.593 26.0426 91.1328 26.2216 90.593 26.2216ZM102.271 27.9091V30.6364H94.3878V27.9091H102.271ZM96.1776 24.7727H99.8082V36.9773C99.8082 37.3125 99.8594 37.5739 99.9616 37.7614C100.064 37.9432 100.206 38.071 100.388 38.1449C100.575 38.2187 100.791 38.2557 101.036 38.2557C101.206 38.2557 101.376 38.2415 101.547 38.2131C101.717 38.179 101.848 38.1534 101.939 38.1364L102.51 40.8381C102.328 40.8949 102.072 40.9602 101.743 41.0341C101.413 41.1136 101.013 41.1619 100.541 41.179C99.6662 41.2131 98.8991 41.0966 98.2401 40.8295C97.5866 40.5625 97.0781 40.1477 96.7145 39.5852C96.3509 39.0227 96.1719 38.3125 96.1776 37.4545V24.7727ZM108.548 23.5455V41H104.918V23.5455H108.548ZM117.423 41.2557C116.076 41.2557 114.917 40.983 113.945 40.4375C112.979 39.8864 112.235 39.108 111.712 38.1023C111.19 37.0909 110.928 35.8949 110.928 34.5142C110.928 33.1676 111.19 31.9858 111.712 30.9688C112.235 29.9517 112.971 29.1591 113.92 28.5909C114.874 28.0227 115.994 27.7386 117.278 27.7386C118.141 27.7386 118.945 27.8778 119.69 28.1562C120.44 28.429 121.093 28.8409 121.65 29.392C122.212 29.9432 122.65 30.6364 122.962 31.4716C123.275 32.3011 123.431 33.2727 123.431 34.3864V35.3835H112.377V33.1335H120.013C120.013 32.6108 119.9 32.1477 119.673 31.7443C119.445 31.3409 119.13 31.0256 118.727 30.7983C118.329 30.5653 117.866 30.4489 117.337 30.4489C116.786 30.4489 116.298 30.5767 115.871 30.8324C115.451 31.0824 115.121 31.4205 114.883 31.8466C114.644 32.267 114.522 32.7358 114.516 33.2528V35.392C114.516 36.0398 114.636 36.5994 114.874 37.071C115.119 37.5426 115.462 37.9062 115.906 38.1619C116.349 38.4176 116.874 38.5455 117.482 38.5455C117.886 38.5455 118.255 38.4886 118.59 38.375C118.925 38.2614 119.212 38.0909 119.451 37.8636C119.69 37.6364 119.871 37.358 119.996 37.0284L123.354 37.25C123.184 38.0568 122.835 38.7614 122.306 39.3636C121.783 39.9602 121.107 40.4261 120.278 40.7614C119.454 41.0909 118.502 41.2557 117.423 41.2557Z" fill="#032B3A"/>
<path d="M348 24C348 19.5817 351.582 16 356 16H410C414.418 16 418 19.5817 418 24V40C418 44.4183 414.418 48 410 48H356C351.582 48 348 44.4183 348 40V24Z" fill="white"/>
<path d="M348 24C348 19.5817 351.582 16 356 16H410C414.418 16 418 19.5817 418 24V40C418 44.4183 414.418 48 410 48H356C351.582 48 348 44.4183 348 40V24Z" stroke="#DADFE2"/>
<path d="M361.343 37V26.8182H365.241C365.977 26.8182 366.588 26.9342 367.075 27.1662C367.566 27.3949 367.932 27.7081 368.174 28.1058C368.419 28.5036 368.542 28.9543 368.542 29.4581C368.542 29.8724 368.462 30.227 368.303 30.522C368.144 30.8137 367.93 31.0507 367.662 31.233C367.394 31.4152 367.094 31.5462 366.762 31.6257V31.7251C367.123 31.745 367.47 31.8561 367.801 32.0582C368.136 32.2571 368.409 32.5388 368.622 32.9034C368.834 33.268 368.94 33.7088 368.94 34.2259C368.94 34.7528 368.812 35.2268 368.557 35.6477C368.302 36.0653 367.917 36.3951 367.403 36.6371C366.89 36.879 366.243 37 365.465 37H361.343ZM363.188 35.4588H365.171C365.841 35.4588 366.323 35.3312 366.618 35.076C366.916 34.8175 367.065 34.486 367.065 34.0817C367.065 33.7801 366.991 33.5083 366.842 33.2663C366.693 33.0211 366.48 32.8288 366.205 32.6896C365.93 32.5471 365.602 32.4759 365.221 32.4759H363.188V35.4588ZM363.188 31.1484H365.012C365.33 31.1484 365.617 31.0904 365.872 30.9744C366.127 30.8551 366.328 30.6877 366.474 30.4723C366.623 30.2536 366.698 29.995 366.698 29.6967C366.698 29.3023 366.558 28.9775 366.28 28.7223C366.005 28.4671 365.595 28.3395 365.052 28.3395H363.188V31.1484ZM375.332 33.7884V29.3636H377.132V37H375.387V35.6428H375.307C375.135 36.0703 374.851 36.42 374.457 36.6918C374.066 36.9635 373.584 37.0994 373.01 37.0994C372.51 37.0994 372.067 36.9884 371.683 36.7663C371.302 36.541 371.003 36.2145 370.788 35.7869C370.572 35.3561 370.465 34.8357 370.465 34.2259V29.3636H372.264V33.9474C372.264 34.4313 372.397 34.8158 372.662 35.1009C372.927 35.3859 373.275 35.5284 373.706 35.5284C373.971 35.5284 374.228 35.4638 374.477 35.3345C374.725 35.2053 374.929 35.013 375.088 34.7578C375.251 34.4993 375.332 34.1761 375.332 33.7884ZM382.796 29.3636V30.7557H378.406V29.3636H382.796ZM379.489 27.5341H381.289V34.7031C381.289 34.9451 381.326 35.1307 381.399 35.2599C381.475 35.3859 381.574 35.4721 381.697 35.5185C381.819 35.5649 381.955 35.5881 382.104 35.5881C382.217 35.5881 382.32 35.5798 382.413 35.5632C382.509 35.5466 382.582 35.5317 382.631 35.5185L382.935 36.9254C382.839 36.9586 382.701 36.995 382.522 37.0348C382.346 37.0746 382.131 37.0978 381.876 37.1044C381.425 37.1177 381.019 37.0497 380.658 36.9006C380.296 36.7481 380.01 36.5128 379.798 36.1946C379.589 35.8764 379.486 35.4787 379.489 35.0014V27.5341ZM388.114 29.3636V30.7557H383.724V29.3636H388.114ZM384.808 27.5341H386.608V34.7031C386.608 34.9451 386.644 35.1307 386.717 35.2599C386.793 35.3859 386.893 35.4721 387.015 35.5185C387.138 35.5649 387.274 35.5881 387.423 35.5881C387.536 35.5881 387.638 35.5798 387.731 35.5632C387.827 35.5466 387.9 35.5317 387.95 35.5185L388.253 36.9254C388.157 36.9586 388.019 36.995 387.84 37.0348C387.665 37.0746 387.449 37.0978 387.194 37.1044C386.743 37.1177 386.337 37.0497 385.976 36.9006C385.615 36.7481 385.328 36.5128 385.116 36.1946C384.907 35.8764 384.804 35.4787 384.808 35.0014V27.5341ZM392.868 37.1491C392.122 37.1491 391.476 36.9851 390.929 36.657C390.382 36.3288 389.958 35.8698 389.656 35.2798C389.358 34.6899 389.209 34.0005 389.209 33.2116C389.209 32.4228 389.358 31.7318 389.656 31.1385C389.958 30.5452 390.382 30.0845 390.929 29.7564C391.476 29.4283 392.122 29.2642 392.868 29.2642C393.614 29.2642 394.26 29.4283 394.807 29.7564C395.354 30.0845 395.776 30.5452 396.075 31.1385C396.376 31.7318 396.527 32.4228 396.527 33.2116C396.527 34.0005 396.376 34.6899 396.075 35.2798C395.776 35.8698 395.354 36.3288 394.807 36.657C394.26 36.9851 393.614 37.1491 392.868 37.1491ZM392.878 35.7074C393.282 35.7074 393.62 35.5964 393.892 35.3743C394.164 35.1489 394.366 34.8473 394.499 34.4695C394.635 34.0916 394.703 33.6707 394.703 33.2067C394.703 32.7393 394.635 32.3168 394.499 31.9389C394.366 31.5578 394.164 31.2545 393.892 31.0291C393.62 30.8037 393.282 30.6911 392.878 30.6911C392.464 30.6911 392.119 30.8037 391.844 31.0291C391.572 31.2545 391.368 31.5578 391.232 31.9389C391.1 32.3168 391.033 32.7393 391.033 33.2067C391.033 33.6707 391.1 34.0916 391.232 34.4695C391.368 34.8473 391.572 35.1489 391.844 35.3743C392.119 35.5964 392.464 35.7074 392.878 35.7074ZM399.854 32.5256V37H398.055V29.3636H399.775V30.6612H399.864C400.04 30.2337 400.32 29.8939 400.704 29.642C401.092 29.3902 401.571 29.2642 402.141 29.2642C402.668 29.2642 403.127 29.3769 403.518 29.6023C403.913 29.8277 404.218 30.1541 404.433 30.5817C404.652 31.0092 404.76 31.5279 404.756 32.1378V37H402.957V32.4162C402.957 31.9058 402.824 31.5064 402.559 31.218C402.297 30.9297 401.934 30.7855 401.47 30.7855C401.155 30.7855 400.875 30.8551 400.63 30.9943C400.388 31.1302 400.197 31.3274 400.058 31.5859C399.922 31.8445 399.854 32.1577 399.854 32.5256Z" fill="#388523"/>
<path d="M360.339 39.7841H369.541V40.7386H360.339V39.7841ZM369.54 39.7841H383.377V40.7386H369.54V39.7841ZM383.376 39.7841H388.696V40.7386H383.376V39.7841ZM388.612 39.7841H405.666V40.7386H388.612V39.7841Z" fill="#388523"/>
<g clip-path="url(#clip1_1_13793)">
<path d="M16 68C16 65.7909 17.7909 64 20 64H343.171C345.381 64 347.171 65.7909 347.171 68V68C347.171 70.2091 345.381 72 343.171 72H20C17.7909 72 16 70.2091 16 68V68Z" fill="black" fill-opacity="0.08"/>
<rect x="16" y="64" width="331" height="8" fill="url(#paint0_linear_1_13793)"/>
<rect x="-216" y="64" width="331" height="8" fill="url(#paint1_linear_1_13793)"/>
</g>
<g clip-path="url(#clip2_1_13793)">
<path d="M16 84C16 81.7909 17.7909 80 20 80H414C416.209 80 418 81.7909 418 84V84C418 86.2091 416.209 88 414 88H20C17.7908 88 16 86.2091 16 84V84Z" fill="black" fill-opacity="0.08"/>
<rect x="16" y="80" width="402" height="8" fill="url(#paint2_linear_1_13793)"/>
<rect x="-216" y="80" width="402" height="8" fill="url(#paint3_linear_1_13793)"/>
</g>
<g clip-path="url(#clip3_1_13793)">
<path d="M16 100C16 97.7909 17.7909 96 20 96H314.457C316.666 96 318.457 97.7909 318.457 100V100C318.457 102.209 316.666 104 314.457 104H20C17.7909 104 16 102.209 16 100V100Z" fill="black" fill-opacity="0.08"/>
<rect x="16" y="96" width="302" height="8" fill="url(#paint4_linear_1_13793)"/>
<rect x="-216" y="96" width="302" height="8" fill="url(#paint5_linear_1_13793)"/>
</g>
</g>
<path d="M8 0.5H426C430.142 0.5 433.5 3.85786 433.5 8V112C433.5 116.142 430.142 119.5 426 119.5H7.99999C3.85785 119.5 0.5 116.142 0.5 112V8C0.5 3.85786 3.85786 0.5 8 0.5Z" stroke="#DADFE2"/>
<defs>
<linearGradient id="paint0_linear_1_13793" x1="347" y1="68" x2="16" y2="68" gradientUnits="userSpaceOnUse">
<stop stop-color="white" stop-opacity="0"/>
<stop offset="0.299948" stop-color="white" stop-opacity="0.8"/>
<stop offset="1" stop-color="white" stop-opacity="0"/>
</linearGradient>
<linearGradient id="paint1_linear_1_13793" x1="115" y1="68" x2="-216" y2="68" gradientUnits="userSpaceOnUse">
<stop stop-color="white" stop-opacity="0"/>
<stop offset="0.299948" stop-color="white" stop-opacity="0.8"/>
<stop offset="1" stop-color="white" stop-opacity="0"/>
</linearGradient>
<linearGradient id="paint2_linear_1_13793" x1="418" y1="84" x2="16" y2="84" gradientUnits="userSpaceOnUse">
<stop stop-color="white" stop-opacity="0"/>
<stop offset="0.299948" stop-color="white" stop-opacity="0.8"/>
<stop offset="1" stop-color="white" stop-opacity="0"/>
</linearGradient>
<linearGradient id="paint3_linear_1_13793" x1="186" y1="84" x2="-216" y2="84" gradientUnits="userSpaceOnUse">
<stop stop-color="white" stop-opacity="0"/>
<stop offset="0.299948" stop-color="white" stop-opacity="0.8"/>
<stop offset="1" stop-color="white" stop-opacity="0"/>
</linearGradient>
<linearGradient id="paint4_linear_1_13793" x1="318" y1="100" x2="16" y2="100" gradientUnits="userSpaceOnUse">
<stop stop-color="white" stop-opacity="0"/>
<stop offset="0.299948" stop-color="white" stop-opacity="0.8"/>
<stop offset="1" stop-color="white" stop-opacity="0"/>
</linearGradient>
<linearGradient id="paint5_linear_1_13793" x1="86" y1="100" x2="-216" y2="100" gradientUnits="userSpaceOnUse">
<stop stop-color="white" stop-opacity="0"/>
<stop offset="0.299948" stop-color="white" stop-opacity="0.8"/>
<stop offset="1" stop-color="white" stop-opacity="0"/>
</linearGradient>
<clipPath id="clip0_1_13793">
<path d="M0 8C0 3.58172 3.58172 0 8 0H426C430.418 0 434 3.58172 434 8V112C434 116.418 430.418 120 426 120H7.99999C3.58171 120 0 116.418 0 112V8Z" fill="white"/>
</clipPath>
<clipPath id="clip1_1_13793">
<path d="M16 68C16 65.7909 17.7909 64 20 64H343.171C345.381 64 347.171 65.7909 347.171 68V68C347.171 70.2091 345.381 72 343.171 72H20C17.7909 72 16 70.2091 16 68V68Z" fill="white"/>
</clipPath>
<clipPath id="clip2_1_13793">
<path d="M16 84C16 81.7909 17.7909 80 20 80H414C416.209 80 418 81.7909 418 84V84C418 86.2091 416.209 88 414 88H20C17.7908 88 16 86.2091 16 84V84Z" fill="white"/>
</clipPath>
<clipPath id="clip3_1_13793">
<path d="M16 100C16 97.7909 17.7909 96 20 96H314.457C316.666 96 318.457 97.7909 318.457 100V100C318.457 102.209 316.666 104 314.457 104H20C17.7909 104 16 102.209 16 100V100Z" fill="white"/>
</clipPath>
</defs>
</svg>
