<svg width="224" height="117" viewBox="0 0 224 117" fill="none" xmlns="http://www.w3.org/2000/svg">
<path d="M48 45C48 40.5817 51.5817 37 56 37H168C172.418 37 176 40.5817 176 45V71C176 75.4183 172.418 79 168 79H56C51.5817 79 48 75.4183 48 71V45Z" fill="white"/>
<rect x="63" y="49" width="18" height="18" rx="1" fill="#388523" stroke="#388523" stroke-width="2"/>
<path d="M67.1461 58.2032C67.0846 58.1395 67.011 58.0887 66.9297 58.0538C66.8484 58.0189 66.7609 58.0005 66.6724 57.9997C66.5839 57.9989 66.4961 58.0158 66.4142 58.0493C66.3323 58.0829 66.2578 58.1323 66.1952 58.1949C66.1327 58.2575 66.0832 58.332 66.0496 58.4139C66.0161 58.4958 65.9993 58.5836 66 58.6721C66.0008 58.7606 66.0192 58.8481 66.0541 58.9294C66.0891 59.0107 66.1398 59.0843 66.2035 59.1458L69.3359 62.6741C69.4609 62.7991 69.6304 62.8693 69.8072 62.8693C69.984 62.8693 70.1535 62.7991 70.2785 62.6741L77.8065 55.1461C77.8702 55.0846 77.9209 55.011 77.9559 54.9297C77.9908 54.8484 78.0092 54.7609 78.01 54.6724C78.0108 54.5839 77.9939 54.4961 77.9604 54.4142C77.9268 54.3323 77.8773 54.2578 77.8147 54.1952C77.7522 54.1327 77.6777 54.0832 77.5958 54.0496C77.5139 54.0161 77.4261 53.9993 77.3376 54C77.2491 54.0008 77.1616 54.0192 77.0803 54.0541C76.9989 54.0891 76.9254 54.1398 76.8639 54.2035L69.8072 61.2602L67.1461 58.2032Z" fill="white"/>
<path d="M99.4261 56H98.1932C98.1203 55.6454 97.9927 55.3338 97.8104 55.0653C97.6314 54.7969 97.4126 54.5715 97.1541 54.3892C96.8989 54.2036 96.6155 54.0644 96.304 53.9716C95.9924 53.8788 95.6676 53.8324 95.3295 53.8324C94.7131 53.8324 94.1546 53.9882 93.6541 54.2997C93.157 54.6113 92.7609 55.0703 92.4659 55.6768C92.1742 56.2834 92.0284 57.0275 92.0284 57.9091C92.0284 58.7907 92.1742 59.5348 92.4659 60.1413C92.7609 60.7479 93.157 61.2069 93.6541 61.5185C94.1546 61.83 94.7131 61.9858 95.3295 61.9858C95.6676 61.9858 95.9924 61.9394 96.304 61.8466C96.6155 61.7538 96.8989 61.6162 97.1541 61.4339C97.4126 61.2483 97.6314 61.0213 97.8104 60.7528C97.9927 60.4811 98.1203 60.1695 98.1932 59.8182H99.4261C99.3333 60.3385 99.1643 60.8042 98.919 61.2152C98.6738 61.6262 98.3688 61.9759 98.0043 62.2642C97.6397 62.5492 97.2304 62.7663 96.7763 62.9155C96.3255 63.0646 95.8433 63.1392 95.3295 63.1392C94.4612 63.1392 93.6889 62.9271 93.0128 62.5028C92.3366 62.0786 91.8047 61.4754 91.4169 60.6932C91.0291 59.911 90.8352 58.983 90.8352 57.9091C90.8352 56.8352 91.0291 55.9072 91.4169 55.125C91.8047 54.3428 92.3366 53.7396 93.0128 53.3153C93.6889 52.8911 94.4612 52.679 95.3295 52.679C95.8433 52.679 96.3255 52.7536 96.7763 52.9027C97.2304 53.0518 97.6397 53.2706 98.0043 53.5589C98.3688 53.844 98.6738 54.192 98.919 54.603C99.1643 55.0107 99.3333 55.4763 99.4261 56ZM102.433 58.4062V63H101.259V52.8182H102.433V56.5568H102.532C102.711 56.1624 102.98 55.8492 103.338 55.6172C103.699 55.3819 104.179 55.2642 104.779 55.2642C105.3 55.2642 105.755 55.3686 106.146 55.5774C106.538 55.7829 106.841 56.0994 107.056 56.527C107.275 56.9512 107.384 57.4915 107.384 58.1477V63H106.211V58.2273C106.211 57.6207 106.054 57.1518 105.739 56.8203C105.427 56.4856 104.995 56.3182 104.441 56.3182C104.057 56.3182 103.712 56.3994 103.407 56.5618C103.106 56.7242 102.867 56.9612 102.691 57.2727C102.519 57.5843 102.433 57.9621 102.433 58.4062ZM112.733 63.1591C111.997 63.1591 111.362 62.9967 110.828 62.6719C110.298 62.3438 109.889 61.8864 109.6 61.2997C109.315 60.7098 109.173 60.0237 109.173 59.2415C109.173 58.4593 109.315 57.7699 109.6 57.1733C109.889 56.5734 110.29 56.1061 110.804 55.7713C111.321 55.4332 111.924 55.2642 112.613 55.2642C113.011 55.2642 113.404 55.3305 113.792 55.4631C114.179 55.5956 114.532 55.8111 114.85 56.1094C115.169 56.4044 115.422 56.7955 115.611 57.2827C115.8 57.7699 115.895 58.3698 115.895 59.0824V59.5795H110.008V58.5653H114.701C114.701 58.1345 114.615 57.75 114.443 57.4119C114.274 57.0739 114.032 56.8071 113.717 56.6115C113.405 56.416 113.038 56.3182 112.613 56.3182C112.146 56.3182 111.742 56.4342 111.4 56.6662C111.062 56.8949 110.802 57.1932 110.62 57.5611C110.437 57.929 110.346 58.3234 110.346 58.7443V59.4205C110.346 59.9972 110.446 60.486 110.645 60.8871C110.847 61.2848 111.127 61.5881 111.485 61.7969C111.843 62.0024 112.259 62.1051 112.733 62.1051C113.041 62.1051 113.319 62.062 113.568 61.9759C113.82 61.8864 114.037 61.7538 114.219 61.5781C114.401 61.3991 114.542 61.1771 114.642 60.9119L115.775 61.2301C115.656 61.6146 115.455 61.9527 115.174 62.2443C114.892 62.5327 114.544 62.758 114.13 62.9205C113.715 63.0795 113.25 63.1591 112.733 63.1591ZM120.782 63.1591C120.066 63.1591 119.449 62.9901 118.932 62.652C118.415 62.3139 118.017 61.8482 117.739 61.255C117.461 60.6617 117.321 59.9839 117.321 59.2216C117.321 58.446 117.464 57.7616 117.749 57.1683C118.037 56.5717 118.438 56.1061 118.952 55.7713C119.469 55.4332 120.072 55.2642 120.762 55.2642C121.299 55.2642 121.783 55.3636 122.213 55.5625C122.644 55.7614 122.997 56.0398 123.272 56.3977C123.547 56.7557 123.718 57.1733 123.784 57.6506H122.611C122.522 57.3026 122.323 56.9943 122.015 56.7259C121.71 56.4541 121.299 56.3182 120.782 56.3182C120.324 56.3182 119.923 56.4375 119.578 56.6761C119.237 56.9115 118.97 57.2446 118.778 57.6754C118.589 58.103 118.495 58.6051 118.495 59.1818C118.495 59.7718 118.587 60.2855 118.773 60.723C118.962 61.1605 119.227 61.5002 119.569 61.7422C119.913 61.9841 120.318 62.1051 120.782 62.1051C121.087 62.1051 121.363 62.0521 121.612 61.946C121.86 61.84 122.071 61.6875 122.243 61.4886C122.416 61.2898 122.538 61.0511 122.611 60.7727H123.784C123.718 61.2235 123.554 61.6295 123.292 61.9908C123.034 62.3487 122.691 62.6338 122.263 62.8459C121.839 63.0547 121.345 63.1591 120.782 63.1591ZM126.593 60.2159L126.574 58.7642H126.812L130.153 55.3636H131.605L128.045 58.9631H127.946L126.593 60.2159ZM125.5 63V52.8182H126.673V63H125.5ZM130.352 63L127.369 59.2216L128.204 58.4062L131.843 63H130.352ZM133.274 63V52.8182H134.447V56.5767H134.547C134.633 56.4441 134.752 56.2751 134.905 56.0696C135.06 55.8608 135.282 55.6752 135.571 55.5128C135.863 55.3471 136.257 55.2642 136.754 55.2642C137.397 55.2642 137.964 55.425 138.454 55.7464C138.945 56.0679 139.328 56.5237 139.603 57.1136C139.878 57.7036 140.015 58.3996 140.015 59.2017C140.015 60.0104 139.878 60.7114 139.603 61.3047C139.328 61.8946 138.947 62.352 138.459 62.6768C137.972 62.9983 137.41 63.1591 136.774 63.1591C136.283 63.1591 135.891 63.0779 135.596 62.9155C135.301 62.7498 135.074 62.5625 134.915 62.3537C134.756 62.1416 134.633 61.9659 134.547 61.8267H134.407V63H133.274ZM134.427 59.1818C134.427 59.7585 134.512 60.2673 134.681 60.7081C134.85 61.1456 135.097 61.4886 135.422 61.7372C135.747 61.9825 136.144 62.1051 136.615 62.1051C137.105 62.1051 137.515 61.9759 137.843 61.7173C138.174 61.4555 138.423 61.1042 138.589 60.6634C138.758 60.2192 138.842 59.7254 138.842 59.1818C138.842 58.6449 138.759 58.161 138.594 57.7301C138.431 57.2959 138.184 56.9529 137.853 56.701C137.525 56.4458 137.112 56.3182 136.615 56.3182C136.138 56.3182 135.737 56.4392 135.412 56.6811C135.087 56.9197 134.842 57.2545 134.676 57.6854C134.51 58.1129 134.427 58.6117 134.427 59.1818ZM144.912 63.1591C144.223 63.1591 143.618 62.995 143.098 62.6669C142.581 62.3388 142.176 61.8797 141.885 61.2898C141.596 60.6998 141.452 60.0104 141.452 59.2216C141.452 58.4261 141.596 57.7318 141.885 57.1385C142.176 56.5452 142.581 56.0845 143.098 55.7564C143.618 55.4283 144.223 55.2642 144.912 55.2642C145.602 55.2642 146.205 55.4283 146.722 55.7564C147.242 56.0845 147.647 56.5452 147.935 57.1385C148.227 57.7318 148.373 58.4261 148.373 59.2216C148.373 60.0104 148.227 60.6998 147.935 61.2898C147.647 61.8797 147.242 62.3388 146.722 62.6669C146.205 62.995 145.602 63.1591 144.912 63.1591ZM144.912 62.1051C145.436 62.1051 145.867 61.9709 146.205 61.7024C146.543 61.4339 146.793 61.081 146.956 60.6435C147.118 60.206 147.199 59.732 147.199 59.2216C147.199 58.7112 147.118 58.2356 146.956 57.7947C146.793 57.3539 146.543 56.9976 146.205 56.7259C145.867 56.4541 145.436 56.3182 144.912 56.3182C144.389 56.3182 143.958 56.4541 143.62 56.7259C143.282 56.9976 143.032 57.3539 142.869 57.7947C142.707 58.2356 142.626 58.7112 142.626 59.2216C142.626 59.732 142.707 60.206 142.869 60.6435C143.032 61.081 143.282 61.4339 143.62 61.7024C143.958 61.9709 144.389 62.1051 144.912 62.1051ZM150.724 55.3636L152.554 58.4858L154.383 55.3636H155.736L153.27 59.1818L155.736 63H154.383L152.554 60.0369L150.724 63H149.372L151.798 59.1818L149.372 55.3636H150.724Z" fill="#233D48"/>
</svg>
