<svg width="224" height="117" viewBox="0 0 224 117" fill="none" xmlns="http://www.w3.org/2000/svg">
<g clip-path="url(#clip0_25_4876)">
<rect x="-20.5" y="38.5" width="70" height="39" rx="19.5" fill="white"/>
<rect x="-20.5" y="38.5" width="70" height="39" rx="19.5" stroke="#DADFE2"/>
<path d="M4.57528 56.1293H3.02415C2.96449 55.7978 2.85346 55.5062 2.69105 55.2543C2.52865 55.0024 2.32978 54.7886 2.09446 54.6129C1.85914 54.4373 1.59564 54.3047 1.30398 54.2152C1.01563 54.1257 0.709044 54.081 0.384233 54.081C-0.202415 54.081 -0.727746 54.2285 -1.19176 54.5234C-1.65246 54.8184 -2.01705 55.2509 -2.28551 55.821C-2.55066 56.3911 -2.68324 57.0871 -2.68324 57.9091C-2.68324 58.7377 -2.55066 59.437 -2.28551 60.0071C-2.01705 60.5772 -1.6508 61.008 -1.18679 61.2997C-0.722774 61.5914 -0.200757 61.7372 0.379262 61.7372C0.700758 61.7372 1.00568 61.6941 1.29403 61.608C1.5857 61.5185 1.8492 61.3875 2.08452 61.2152C2.31984 61.0429 2.5187 60.8324 2.68111 60.5838C2.84683 60.3319 2.96117 60.0436 3.02415 59.7188L4.57528 59.7237C4.49242 60.2242 4.33168 60.6849 4.09304 61.1058C3.85772 61.5234 3.55445 61.8847 3.18324 62.1896C2.81534 62.4912 2.39441 62.7249 1.92045 62.8906C1.4465 63.0563 0.929451 63.1392 0.369318 63.1392C-0.512311 63.1392 -1.29782 62.9304 -1.98722 62.5128C-2.67661 62.0919 -3.22017 61.4903 -3.6179 60.7081C-4.01231 59.9259 -4.20952 58.9929 -4.20952 57.9091C-4.20952 56.822 -4.01065 55.889 -3.61293 55.1101C-3.2152 54.3279 -2.67164 53.728 -1.98224 53.3104C-1.29285 52.8894 -0.508996 52.679 0.369318 52.679C0.909564 52.679 1.41335 52.7569 1.88068 52.9126C2.35133 53.0651 2.77391 53.2905 3.14844 53.5888C3.52296 53.8838 3.83286 54.245 4.07812 54.6726C4.32339 55.0968 4.48911 55.5824 4.57528 56.1293ZM7.78072 58.4659V63H6.29421V52.8182H7.76083V56.6065H7.85529C8.03427 56.1955 8.30771 55.8691 8.6756 55.6271C9.0435 55.3852 9.52409 55.2642 10.1174 55.2642C10.641 55.2642 11.0984 55.3719 11.4895 55.5874C11.8839 55.8028 12.1889 56.1243 12.4043 56.5518C12.623 56.9761 12.7324 57.5064 12.7324 58.1428V63H11.2459V58.3217C11.2459 57.7616 11.1017 57.3274 10.8134 57.0192C10.525 56.7076 10.124 56.5518 9.61026 56.5518C9.25894 56.5518 8.94407 56.6264 8.66566 56.7756C8.39057 56.9247 8.17347 57.1435 8.01438 57.4318C7.85861 57.7169 7.78072 58.0616 7.78072 58.4659ZM14.7161 63V55.3636H16.2026V63H14.7161ZM15.4668 54.1854C15.2083 54.1854 14.9862 54.0992 14.8006 53.9268C14.6183 53.7512 14.5272 53.5424 14.5272 53.3004C14.5272 53.0552 14.6183 52.8464 14.8006 52.674C14.9862 52.4983 15.2083 52.4105 15.4668 52.4105C15.7253 52.4105 15.9457 52.4983 16.128 52.674C16.3136 52.8464 16.4064 53.0552 16.4064 53.3004C16.4064 53.5424 16.3136 53.7512 16.128 53.9268C15.9457 54.0992 15.7253 54.1854 15.4668 54.1854ZM18.2024 65.8636V55.3636H19.6541V56.6016H19.7784C19.8646 56.4425 19.9889 56.2585 20.1513 56.0497C20.3137 55.8409 20.5391 55.6586 20.8274 55.5028C21.1158 55.3438 21.4969 55.2642 21.9709 55.2642C22.5874 55.2642 23.1375 55.42 23.6214 55.7315C24.1054 56.0431 24.4848 56.4922 24.7599 57.0788C25.0384 57.6655 25.1776 58.3714 25.1776 59.1967C25.1776 60.022 25.04 60.7296 24.7649 61.3196C24.4898 61.9062 24.112 62.3587 23.6314 62.6768C23.1508 62.9917 22.6023 63.1491 21.9858 63.1491C21.5218 63.1491 21.1423 63.0713 20.8473 62.9155C20.5556 62.7597 20.3269 62.5774 20.1612 62.3686C19.9955 62.1598 19.8679 61.9742 19.7784 61.8118H19.6889V65.8636H18.2024ZM19.6591 59.1818C19.6591 59.7187 19.737 60.1894 19.8928 60.5938C20.0485 60.9981 20.2739 61.3146 20.5689 61.5433C20.8639 61.7687 21.2251 61.8814 21.6527 61.8814C22.0968 61.8814 22.468 61.7637 22.7663 61.5284C23.0646 61.2898 23.29 60.9666 23.4425 60.5589C23.5982 60.1513 23.6761 59.6922 23.6761 59.1818C23.6761 58.678 23.5999 58.2256 23.4474 57.8246C23.2983 57.4235 23.0729 57.107 22.7713 56.875C22.473 56.643 22.1001 56.527 21.6527 56.527C21.2218 56.527 20.8572 56.638 20.5589 56.8601C20.264 57.0821 20.0402 57.392 19.8878 57.7898C19.7353 58.1875 19.6591 58.6515 19.6591 59.1818ZM32.5653 57.228L31.218 57.4666C31.1617 57.2943 31.0722 57.1302 30.9496 56.9744C30.8303 56.8187 30.6679 56.6911 30.4624 56.5916C30.2569 56.4922 30 56.4425 29.6918 56.4425C29.2708 56.4425 28.9195 56.5369 28.6378 56.7259C28.3561 56.9115 28.2152 57.1518 28.2152 57.4467C28.2152 57.7019 28.3097 57.9074 28.4986 58.0632C28.6875 58.219 28.9924 58.3466 29.4134 58.446L30.6264 58.7244C31.3291 58.8868 31.8527 59.1371 32.1974 59.4751C32.5421 59.8132 32.7145 60.2524 32.7145 60.7926C32.7145 61.25 32.5819 61.6577 32.3168 62.0156C32.0549 62.3703 31.6887 62.6487 31.218 62.8509C30.7507 63.053 30.2088 63.1541 29.5923 63.1541C28.7372 63.1541 28.0395 62.9718 27.4993 62.6072C26.959 62.2393 26.6276 61.7173 26.505 61.0412L27.9418 60.8224C28.0313 61.197 28.2152 61.4804 28.4936 61.6726C28.772 61.8615 29.1349 61.956 29.5824 61.956C30.0696 61.956 30.459 61.8549 30.7507 61.6527C31.0424 61.4472 31.1882 61.197 31.1882 60.902C31.1882 60.6634 31.0987 60.4628 30.9197 60.3004C30.7441 60.138 30.474 60.0154 30.1094 59.9325L28.8168 59.6491C28.1042 59.4867 27.5772 59.2282 27.2358 58.8736C26.8977 58.5189 26.7287 58.0698 26.7287 57.5263C26.7287 57.0755 26.8546 56.6811 27.1065 56.343C27.3584 56.005 27.7064 55.7415 28.1506 55.5526C28.5947 55.3603 29.1035 55.2642 29.6768 55.2642C30.5021 55.2642 31.1518 55.4432 31.6257 55.8011C32.0997 56.1558 32.4129 56.6314 32.5653 57.228Z" fill="#233D48"/>
<rect x="58" y="38" width="115" height="40" rx="20" fill="#F1F0E9"/>
<path d="M80.6719 55.4929C80.6188 55.0223 80.4001 54.6577 80.0156 54.3991C79.6312 54.1373 79.1473 54.0064 78.5639 54.0064C78.1463 54.0064 77.785 54.0727 77.4801 54.2053C77.1752 54.3345 76.9382 54.5135 76.7692 54.7422C76.6035 54.9676 76.5206 55.2244 76.5206 55.5128C76.5206 55.7547 76.5769 55.9635 76.6896 56.1392C76.8056 56.3149 76.9564 56.4624 77.142 56.5817C77.331 56.6977 77.5331 56.7955 77.7486 56.875C77.964 56.9512 78.1712 57.0142 78.37 57.0639L79.3643 57.3224C79.6892 57.402 80.0223 57.5097 80.3636 57.6456C80.705 57.7815 81.0215 57.9605 81.3132 58.1825C81.6049 58.4046 81.8402 58.6797 82.0192 59.0078C82.2015 59.3359 82.2926 59.7287 82.2926 60.1861C82.2926 60.7628 82.1435 61.2749 81.8452 61.7223C81.5502 62.1697 81.121 62.5227 80.5575 62.7812C79.9974 63.0398 79.3196 63.169 78.5241 63.169C77.7618 63.169 77.1023 63.0481 76.5455 62.8061C75.9886 62.5642 75.5528 62.2211 75.2379 61.777C74.9231 61.3295 74.7491 60.7992 74.7159 60.1861H76.2571C76.2869 60.554 76.4063 60.8606 76.6151 61.1058C76.8272 61.3478 77.0973 61.5284 77.4254 61.6477C77.7569 61.7637 78.1198 61.8217 78.5142 61.8217C78.9484 61.8217 79.3345 61.7538 79.6726 61.6179C80.014 61.4787 80.2824 61.2865 80.478 61.0412C80.6735 60.7926 80.7713 60.5026 80.7713 60.1712C80.7713 59.8696 80.6851 59.6226 80.5128 59.4304C80.3438 59.2382 80.1134 59.0791 79.8217 58.9531C79.5334 58.8272 79.2069 58.7161 78.8423 58.62L77.6392 58.2919C76.8239 58.0698 76.1776 57.7434 75.7003 57.3125C75.2263 56.8816 74.9893 56.3116 74.9893 55.6023C74.9893 55.0156 75.1484 54.5036 75.4666 54.0661C75.7848 53.6286 76.2157 53.2888 76.7592 53.0469C77.3028 52.8016 77.916 52.679 78.5987 52.679C79.2881 52.679 79.8963 52.8 80.4233 53.0419C80.9536 53.2839 81.3712 53.617 81.6761 54.0412C81.9811 54.4621 82.1402 54.946 82.1534 55.4929H80.6719ZM87.3002 63.1541C86.5479 63.1541 85.8999 62.9934 85.3564 62.6719C84.8161 62.3471 84.3985 61.8913 84.1035 61.3047C83.8118 60.7147 83.666 60.0237 83.666 59.2315C83.666 58.4493 83.8118 57.7599 84.1035 57.1634C84.3985 56.5668 84.8095 56.1011 85.3365 55.7663C85.8668 55.4316 86.4866 55.2642 87.1958 55.2642C87.6267 55.2642 88.0443 55.3355 88.4487 55.478C88.853 55.6205 89.216 55.8442 89.5375 56.1491C89.859 56.4541 90.1125 56.8501 90.2981 57.3374C90.4837 57.8213 90.5765 58.4096 90.5765 59.1023V59.6293H84.5062V58.5156H89.1199C89.1199 58.1245 89.0403 57.7782 88.8812 57.4766C88.7221 57.1716 88.4984 56.9313 88.21 56.7557C87.925 56.58 87.5903 56.4922 87.2058 56.4922C86.7882 56.4922 86.4236 56.5949 86.112 56.8004C85.8038 57.0026 85.5652 57.2678 85.3961 57.5959C85.2304 57.9207 85.1475 58.2737 85.1475 58.6548V59.5249C85.1475 60.0353 85.237 60.4695 85.416 60.8274C85.5983 61.1854 85.8519 61.4588 86.1767 61.6477C86.5015 61.8333 86.881 61.9261 87.3152 61.9261C87.5969 61.9261 87.8538 61.8864 88.0858 61.8068C88.3178 61.724 88.5183 61.6013 88.6873 61.4389C88.8564 61.2765 88.9856 61.076 89.0751 60.8374L90.4821 61.0909C90.3694 61.5052 90.1672 61.8681 89.8755 62.1797C89.5872 62.4879 89.2243 62.7282 88.7868 62.9006C88.3526 63.0696 87.8571 63.1541 87.3002 63.1541ZM93.7124 52.8182V63H92.2259V52.8182H93.7124ZM99.0034 63.1541C98.251 63.1541 97.603 62.9934 97.0595 62.6719C96.5192 62.3471 96.1016 61.8913 95.8066 61.3047C95.515 60.7147 95.3691 60.0237 95.3691 59.2315C95.3691 58.4493 95.515 57.7599 95.8066 57.1634C96.1016 56.5668 96.5126 56.1011 97.0396 55.7663C97.5699 55.4316 98.1897 55.2642 98.899 55.2642C99.3298 55.2642 99.7475 55.3355 100.152 55.478C100.556 55.6205 100.919 55.8442 101.241 56.1491C101.562 56.4541 101.816 56.8501 102.001 57.3374C102.187 57.8213 102.28 58.4096 102.28 59.1023V59.6293H96.2093V58.5156H100.823C100.823 58.1245 100.743 57.7782 100.584 57.4766C100.425 57.1716 100.202 56.9313 99.9132 56.7557C99.6281 56.58 99.2934 56.4922 98.9089 56.4922C98.4913 56.4922 98.1267 56.5949 97.8152 56.8004C97.5069 57.0026 97.2683 57.2678 97.0993 57.5959C96.9335 57.9207 96.8507 58.2737 96.8507 58.6548V59.5249C96.8507 60.0353 96.9402 60.4695 97.1191 60.8274C97.3014 61.1854 97.555 61.4588 97.8798 61.6477C98.2046 61.8333 98.5841 61.9261 99.0183 61.9261C99.3 61.9261 99.5569 61.8864 99.7889 61.8068C100.021 61.724 100.221 61.6013 100.39 61.4389C100.559 61.2765 100.689 61.076 100.778 60.8374L102.185 61.0909C102.073 61.5052 101.87 61.8681 101.579 62.1797C101.29 62.4879 100.927 62.7282 100.49 62.9006C100.056 63.0696 99.5602 63.1541 99.0034 63.1541ZM107.146 63.1541C106.406 63.1541 105.77 62.9867 105.237 62.652C104.706 62.3139 104.299 61.8482 104.013 61.255C103.728 60.6617 103.586 59.9822 103.586 59.2166C103.586 58.4411 103.732 57.7566 104.023 57.1634C104.315 56.5668 104.726 56.1011 105.256 55.7663C105.787 55.4316 106.411 55.2642 107.131 55.2642C107.711 55.2642 108.228 55.3719 108.682 55.5874C109.136 55.7995 109.502 56.0978 109.781 56.4822C110.062 56.8667 110.23 57.3158 110.283 57.8295H108.836C108.756 57.4716 108.574 57.1634 108.289 56.9048C108.007 56.6463 107.629 56.517 107.156 56.517C106.741 56.517 106.378 56.6264 106.067 56.8452C105.759 57.0606 105.518 57.3688 105.346 57.7699C105.174 58.1676 105.087 58.6383 105.087 59.1818C105.087 59.7386 105.172 60.2192 105.341 60.6236C105.51 61.0279 105.749 61.3411 106.057 61.5632C106.368 61.7853 106.735 61.8963 107.156 61.8963C107.437 61.8963 107.692 61.8449 107.921 61.7422C108.153 61.6361 108.347 61.4853 108.503 61.2898C108.662 61.0942 108.773 60.8589 108.836 60.5838H110.283C110.23 61.0777 110.069 61.5185 109.8 61.9062C109.532 62.294 109.172 62.599 108.722 62.821C108.274 63.0431 107.749 63.1541 107.146 63.1541ZM115.437 55.3636V56.5568H111.266V55.3636H115.437ZM112.384 53.5341H113.871V60.7578C113.871 61.0462 113.914 61.2633 114 61.4091C114.086 61.5516 114.197 61.6494 114.333 61.7024C114.472 61.7521 114.623 61.777 114.786 61.777C114.905 61.777 115.009 61.7687 115.099 61.7521C115.188 61.7356 115.258 61.7223 115.308 61.7124L115.576 62.9403C115.49 62.9735 115.367 63.0066 115.208 63.0398C115.049 63.0762 114.85 63.0961 114.612 63.0994C114.221 63.1061 113.856 63.0365 113.518 62.8906C113.18 62.7448 112.906 62.5194 112.698 62.2145C112.489 61.9096 112.384 61.5268 112.384 61.0661V53.5341ZM120.29 63.1541C119.538 63.1541 118.89 62.9934 118.347 62.6719C117.806 62.3471 117.389 61.8913 117.094 61.3047C116.802 60.7147 116.656 60.0237 116.656 59.2315C116.656 58.4493 116.802 57.7599 117.094 57.1634C117.389 56.5668 117.8 56.1011 118.327 55.7663C118.857 55.4316 119.477 55.2642 120.186 55.2642C120.617 55.2642 121.035 55.3355 121.439 55.478C121.843 55.6205 122.206 55.8442 122.528 56.1491C122.849 56.4541 123.103 56.8501 123.288 57.3374C123.474 57.8213 123.567 58.4096 123.567 59.1023V59.6293H117.496V58.5156H122.11C122.11 58.1245 122.031 57.7782 121.871 57.4766C121.712 57.1716 121.489 56.9313 121.2 56.7557C120.915 56.58 120.58 56.4922 120.196 56.4922C119.778 56.4922 119.414 56.5949 119.102 56.8004C118.794 57.0026 118.555 57.2678 118.386 57.5959C118.221 57.9207 118.138 58.2737 118.138 58.6548V59.5249C118.138 60.0353 118.227 60.4695 118.406 60.8274C118.589 61.1854 118.842 61.4588 119.167 61.6477C119.492 61.8333 119.871 61.9261 120.305 61.9261C120.587 61.9261 120.844 61.8864 121.076 61.8068C121.308 61.724 121.509 61.6013 121.678 61.4389C121.847 61.2765 121.976 61.076 122.065 60.8374L123.472 61.0909C123.36 61.5052 123.157 61.8681 122.866 62.1797C122.577 62.4879 122.214 62.7282 121.777 62.9006C121.343 63.0696 120.847 63.1541 120.29 63.1541ZM128.075 63.1491C127.458 63.1491 126.908 62.9917 126.424 62.6768C125.944 62.3587 125.566 61.9062 125.291 61.3196C125.019 60.7296 124.883 60.022 124.883 59.1967C124.883 58.3714 125.021 57.6655 125.296 57.0788C125.574 56.4922 125.955 56.0431 126.439 55.7315C126.923 55.42 127.472 55.2642 128.085 55.2642C128.559 55.2642 128.94 55.3438 129.228 55.5028C129.52 55.6586 129.745 55.8409 129.904 56.0497C130.067 56.2585 130.193 56.4425 130.282 56.6016H130.372V52.8182H131.858V63H130.406V61.8118H130.282C130.193 61.9742 130.063 62.1598 129.894 62.3686C129.729 62.5774 129.5 62.7597 129.208 62.9155C128.917 63.0713 128.539 63.1491 128.075 63.1491ZM128.403 61.8814C128.83 61.8814 129.192 61.7687 129.487 61.5433C129.785 61.3146 130.01 60.9981 130.163 60.5938C130.319 60.1894 130.396 59.7187 130.396 59.1818C130.396 58.6515 130.32 58.1875 130.168 57.7898C130.015 57.392 129.792 57.0821 129.497 56.8601C129.202 56.638 128.837 56.527 128.403 56.527C127.955 56.527 127.583 56.643 127.284 56.875C126.986 57.107 126.761 57.4235 126.608 57.8246C126.459 58.2256 126.384 58.678 126.384 59.1818C126.384 59.6922 126.461 60.1513 126.613 60.5589C126.766 60.9666 126.991 61.2898 127.289 61.5284C127.591 61.7637 127.962 61.8814 128.403 61.8814Z" fill="#233D48"/>
<rect x="141" y="46" width="24" height="24" rx="12" fill="white"/>
<path d="M148.146 58.2032C148.085 58.1395 148.011 58.0887 147.93 58.0538C147.848 58.0189 147.761 58.0005 147.672 57.9997C147.584 57.9989 147.496 58.0158 147.414 58.0493C147.332 58.0829 147.258 58.1323 147.195 58.1949C147.133 58.2575 147.083 58.332 147.05 58.4139C147.016 58.4958 146.999 58.5836 147 58.6721C147.001 58.7606 147.019 58.8481 147.054 58.9294C147.089 59.0107 147.14 59.0843 147.204 59.1458L150.336 62.6741C150.461 62.7991 150.63 62.8693 150.807 62.8693C150.984 62.8693 151.154 62.7991 151.279 62.6741L158.806 55.1461C158.87 55.0846 158.921 55.011 158.956 54.9297C158.991 54.8484 159.009 54.7609 159.01 54.6724C159.011 54.5839 158.994 54.4961 158.96 54.4142C158.927 54.3323 158.877 54.2578 158.815 54.1952C158.752 54.1327 158.678 54.0832 158.596 54.0496C158.514 54.0161 158.426 53.9993 158.338 54C158.249 54.0008 158.162 54.0192 158.08 54.0541C157.999 54.0891 157.925 54.1398 157.864 54.2035L150.807 61.2602L148.146 58.2032Z" fill="#233D48"/>
<rect x="181.5" y="38.5" width="70" height="39" rx="19.5" fill="white"/>
<rect x="181.5" y="38.5" width="70" height="39" rx="19.5" stroke="#DADFE2"/>
<path d="M206.575 56.1293H205.024C204.964 55.7978 204.853 55.5062 204.691 55.2543C204.529 55.0024 204.33 54.7886 204.094 54.6129C203.859 54.4373 203.596 54.3047 203.304 54.2152C203.016 54.1257 202.709 54.081 202.384 54.081C201.798 54.081 201.272 54.2285 200.808 54.5234C200.348 54.8184 199.983 55.2509 199.714 55.821C199.449 56.3911 199.317 57.0871 199.317 57.9091C199.317 58.7377 199.449 59.437 199.714 60.0071C199.983 60.5772 200.349 61.008 200.813 61.2997C201.277 61.5914 201.799 61.7372 202.379 61.7372C202.701 61.7372 203.006 61.6941 203.294 61.608C203.586 61.5185 203.849 61.3875 204.085 61.2152C204.32 61.0429 204.519 60.8324 204.681 60.5838C204.847 60.3319 204.961 60.0436 205.024 59.7188L206.575 59.7237C206.492 60.2242 206.332 60.6849 206.093 61.1058C205.858 61.5234 205.554 61.8847 205.183 62.1896C204.815 62.4912 204.394 62.7249 203.92 62.8906C203.446 63.0563 202.929 63.1392 202.369 63.1392C201.488 63.1392 200.702 62.9304 200.013 62.5128C199.323 62.0919 198.78 61.4903 198.382 60.7081C197.988 59.9259 197.79 58.9929 197.79 57.9091C197.79 56.822 197.989 55.889 198.387 55.1101C198.785 54.3279 199.328 53.728 200.018 53.3104C200.707 52.8894 201.491 52.679 202.369 52.679C202.91 52.679 203.413 52.7569 203.881 52.9126C204.351 53.0651 204.774 53.2905 205.148 53.5888C205.523 53.8838 205.833 54.245 206.078 54.6726C206.323 55.0968 206.489 55.5824 206.575 56.1293ZM209.781 58.4659V63H208.294V52.8182H209.761V56.6065H209.855C210.034 56.1955 210.308 55.8691 210.676 55.6271C211.044 55.3852 211.524 55.2642 212.117 55.2642C212.641 55.2642 213.098 55.3719 213.49 55.5874C213.884 55.8028 214.189 56.1243 214.404 56.5518C214.623 56.9761 214.732 57.5064 214.732 58.1428V63H213.246V58.3217C213.246 57.7616 213.102 57.3274 212.813 57.0192C212.525 56.7076 212.124 56.5518 211.61 56.5518C211.259 56.5518 210.944 56.6264 210.666 56.7756C210.391 56.9247 210.173 57.1435 210.014 57.4318C209.859 57.7169 209.781 58.0616 209.781 58.4659ZM216.716 63V55.3636H218.203V63H216.716ZM217.467 54.1854C217.208 54.1854 216.986 54.0992 216.801 53.9268C216.618 53.7512 216.527 53.5424 216.527 53.3004C216.527 53.0552 216.618 52.8464 216.801 52.674C216.986 52.4983 217.208 52.4105 217.467 52.4105C217.725 52.4105 217.946 52.4983 218.128 52.674C218.314 52.8464 218.406 53.0552 218.406 53.3004C218.406 53.5424 218.314 53.7512 218.128 53.9268C217.946 54.0992 217.725 54.1854 217.467 54.1854ZM220.202 65.8636V55.3636H221.654V56.6016H221.778C221.865 56.4425 221.989 56.2585 222.151 56.0497C222.314 55.8409 222.539 55.6586 222.827 55.5028C223.116 55.3438 223.497 55.2642 223.971 55.2642C224.587 55.2642 225.138 55.42 225.621 55.7315C226.105 56.0431 226.485 56.4922 226.76 57.0788C227.038 57.6655 227.178 58.3714 227.178 59.1967C227.178 60.022 227.04 60.7296 226.765 61.3196C226.49 61.9062 226.112 62.3587 225.631 62.6768C225.151 62.9917 224.602 63.1491 223.986 63.1491C223.522 63.1491 223.142 63.0713 222.847 62.9155C222.556 62.7597 222.327 62.5774 222.161 62.3686C221.996 62.1598 221.868 61.9742 221.778 61.8118H221.689V65.8636H220.202ZM221.659 59.1818C221.659 59.7187 221.737 60.1894 221.893 60.5938C222.049 60.9981 222.274 61.3146 222.569 61.5433C222.864 61.7687 223.225 61.8814 223.653 61.8814C224.097 61.8814 224.468 61.7637 224.766 61.5284C225.065 61.2898 225.29 60.9666 225.442 60.5589C225.598 60.1513 225.676 59.6922 225.676 59.1818C225.676 58.678 225.6 58.2256 225.447 57.8246C225.298 57.4235 225.073 57.107 224.771 56.875C224.473 56.643 224.1 56.527 223.653 56.527C223.222 56.527 222.857 56.638 222.559 56.8601C222.264 57.0821 222.04 57.392 221.888 57.7898C221.735 58.1875 221.659 58.6515 221.659 59.1818ZM234.565 57.228L233.218 57.4666C233.162 57.2943 233.072 57.1302 232.95 56.9744C232.83 56.8187 232.668 56.6911 232.462 56.5916C232.257 56.4922 232 56.4425 231.692 56.4425C231.271 56.4425 230.92 56.5369 230.638 56.7259C230.356 56.9115 230.215 57.1518 230.215 57.4467C230.215 57.7019 230.31 57.9074 230.499 58.0632C230.688 58.219 230.992 58.3466 231.413 58.446L232.626 58.7244C233.329 58.8868 233.853 59.1371 234.197 59.4751C234.542 59.8132 234.714 60.2524 234.714 60.7926C234.714 61.25 234.582 61.6577 234.317 62.0156C234.055 62.3703 233.689 62.6487 233.218 62.8509C232.751 63.053 232.209 63.1541 231.592 63.1541C230.737 63.1541 230.04 62.9718 229.499 62.6072C228.959 62.2393 228.628 61.7173 228.505 61.0412L229.942 60.8224C230.031 61.197 230.215 61.4804 230.494 61.6726C230.772 61.8615 231.135 61.956 231.582 61.956C232.07 61.956 232.459 61.8549 232.751 61.6527C233.042 61.4472 233.188 61.197 233.188 60.902C233.188 60.6634 233.099 60.4628 232.92 60.3004C232.744 60.138 232.474 60.0154 232.109 59.9325L230.817 59.6491C230.104 59.4867 229.577 59.2282 229.236 58.8736C228.898 58.5189 228.729 58.0698 228.729 57.5263C228.729 57.0755 228.855 56.6811 229.107 56.343C229.358 56.005 229.706 55.7415 230.151 55.5526C230.595 55.3603 231.103 55.2642 231.677 55.2642C232.502 55.2642 233.152 55.4432 233.626 55.8011C234.1 56.1558 234.413 56.6314 234.565 57.228Z" fill="#233D48"/>
</g>
<defs>
<clipPath id="clip0_25_4876">
<rect width="224" height="117" fill="white"/>
</clipPath>
</defs>
</svg>
