<svg width="224" height="117" viewBox="0 0 224 117" fill="none" xmlns="http://www.w3.org/2000/svg">
<path d="M26 30C26 27.7909 27.7909 26 30 26H194C196.209 26 198 27.7909 198 30V88C198 90.2091 196.209 92 194 92H30C27.7909 92 26 90.2091 26 88V30Z" fill="white"/>
<path d="M34 41C34 37.134 37.134 34 41 34H67C70.866 34 74 37.134 74 41V41C74 44.866 70.866 48 67 48H41C37.134 48 34 44.866 34 41V41Z" fill="#DADFE2"/>
<path d="M78 41C78 37.134 81.134 34 85 34H97C100.866 34 104 37.134 104 41V41C104 44.866 100.866 48 97 48H85C81.134 48 78 44.866 78 41V41Z" fill="#DADFE2"/>
<path d="M108 41C108 37.134 111.134 34 115 34H141C144.866 34 148 37.134 148 41V41C148 44.866 144.866 48 141 48H115C111.134 48 108 44.866 108 41V41Z" fill="#DADFE2"/>
<path d="M34 59C34 55.134 37.134 52 41 52H84C87.866 52 91 55.134 91 59V59C91 62.866 87.866 66 84 66H41C37.134 66 34 62.866 34 59V59Z" fill="#DADFE2"/>
<path d="M95 59C95 55.134 98.134 52 102 52H128C131.866 52 135 55.134 135 59V59C135 62.866 131.866 66 128 66H102C98.134 66 95 62.866 95 59V59Z" fill="#DADFE2"/>
<path d="M139 59C139 55.134 142.134 52 146 52H158C161.866 52 165 55.134 165 59V59C165 62.866 161.866 66 158 66H146C142.134 66 139 62.866 139 59V59Z" fill="#DADFE2"/>
<path d="M34 77C34 73.134 37.134 70 41 70H74C77.866 70 81 73.134 81 77V77C81 80.866 77.866 84 74 84H41C37.134 84 34 80.866 34 77V77Z" fill="#DADFE2"/>
<path d="M85 77C85 73.134 88.134 70 92 70H115C118.866 70 122 73.134 122 77V77C122 80.866 118.866 84 115 84H92C88.134 84 85 80.866 85 77V77Z" fill="#DADFE2"/>
</svg>
