<svg width="224" height="117" viewBox="0 0 224 117" fill="none" xmlns="http://www.w3.org/2000/svg">
<g clip-path="url(#clip0_3_6672)">
<g filter="url(#filter0_dd_3_6672)">
<g clip-path="url(#clip1_3_6672)">
<path d="M26 17C26 12.5817 29.5817 9 34 9H189.111C193.529 9 197.111 12.5817 197.111 17V141C197.111 145.418 193.529 149 189.111 149H34C29.5817 149 26 145.418 26 141V17Z" fill="white"/>
<mask id="path-2-inside-1_3_6672" fill="white">
<path d="M26 9H197.111V37.8889H26V9Z"/>
</mask>
<path d="M26 9H197.111V37.8889H26V9Z" fill="white"/>
<path d="M197.111 37.3333H26V38.4444H197.111V37.3333Z" fill="#DADFE2" mask="url(#path-2-inside-1_3_6672)"/>
<path d="M35.8801 19.2427V28.5451H35.3277V19.2427H35.8801Z" fill="#032B3A"/>
<path d="M41.1118 22.4798C41.0786 22.1999 40.9442 21.9826 40.7085 21.828C40.4728 21.6733 40.1838 21.596 39.8413 21.596C39.5908 21.596 39.3717 21.6365 39.1839 21.7175C38.9979 21.7985 38.8525 21.9099 38.7475 22.0517C38.6444 22.1935 38.5928 22.3546 38.5928 22.535C38.5928 22.686 38.6287 22.8158 38.7006 22.9245C38.7742 23.0313 38.8681 23.1206 38.9823 23.1924C39.0964 23.2624 39.2161 23.3204 39.3413 23.3664C39.4666 23.4106 39.5816 23.4465 39.6866 23.4741L40.2611 23.6288C40.4084 23.6675 40.5723 23.7209 40.7527 23.789C40.935 23.8571 41.109 23.9501 41.2747 24.068C41.4423 24.184 41.5804 24.3331 41.689 24.5154C41.7977 24.6977 41.852 24.9214 41.852 25.1866C41.852 25.4922 41.7719 25.7684 41.6117 26.0152C41.4533 26.2619 41.2213 26.458 40.9157 26.6035C40.6119 26.7489 40.2427 26.8217 39.8081 26.8217C39.403 26.8217 39.0523 26.7563 38.7558 26.6256C38.4612 26.4948 38.2292 26.3125 38.0598 26.0787C37.8922 25.8448 37.7974 25.5732 37.7753 25.2639H38.4824C38.5008 25.4775 38.5726 25.6543 38.6978 25.7942C38.8249 25.9323 38.985 26.0354 39.1784 26.1035C39.3736 26.1698 39.5835 26.203 39.8081 26.203C40.0696 26.203 40.3044 26.1606 40.5124 26.0759C40.7205 25.9894 40.8853 25.8697 41.0068 25.7169C41.1284 25.5622 41.1891 25.3817 41.1891 25.1755C41.1891 24.9877 41.1366 24.8349 41.0317 24.717C40.9267 24.5992 40.7886 24.5034 40.6174 24.4298C40.4461 24.3561 40.2611 24.2917 40.0622 24.2364L39.3662 24.0376C38.9243 23.9105 38.5744 23.7291 38.3166 23.4935C38.0589 23.2578 37.93 22.9493 37.93 22.5682C37.93 22.2515 38.0156 21.9753 38.1868 21.7396C38.3599 21.5021 38.5919 21.3179 38.8829 21.1872C39.1756 21.0546 39.5025 20.9883 39.8634 20.9883C40.2279 20.9883 40.552 21.0537 40.8356 21.1844C41.1191 21.3133 41.3438 21.4901 41.5095 21.7147C41.6771 21.9394 41.7655 22.1944 41.7747 22.4798H41.1118ZM44.6685 26.8106C44.2598 26.8106 43.9072 26.7204 43.6107 26.5399C43.3161 26.3576 43.0887 26.1035 42.9285 25.7776C42.7701 25.4499 42.691 25.0687 42.691 24.6342C42.691 24.1996 42.7701 23.8166 42.9285 23.4852C43.0887 23.1519 43.3115 22.8923 43.5969 22.7063C43.8841 22.5185 44.2193 22.4246 44.6023 22.4246C44.8232 22.4246 45.0414 22.4614 45.2568 22.535C45.4723 22.6087 45.6684 22.7284 45.8452 22.8941C46.0219 23.058 46.1628 23.2753 46.2677 23.5459C46.3727 23.8166 46.4252 24.1499 46.4252 24.5458V24.822H43.155V24.2585H45.7623C45.7623 24.0192 45.7144 23.8056 45.6187 23.6177C45.5248 23.4299 45.3903 23.2817 45.2154 23.1731C45.0423 23.0644 44.8379 23.0101 44.6023 23.0101C44.3426 23.0101 44.118 23.0746 43.9283 23.2034C43.7405 23.3305 43.596 23.4962 43.4947 23.7006C43.3934 23.905 43.3428 24.1241 43.3428 24.358V24.7336C43.3428 25.054 43.398 25.3256 43.5085 25.5484C43.6208 25.7693 43.7764 25.9378 43.9753 26.0538C44.1741 26.168 44.4052 26.2251 44.6685 26.2251C44.8398 26.2251 44.9945 26.2011 45.1326 26.1533C45.2725 26.1035 45.3931 26.0299 45.4944 25.9323C45.5957 25.8329 45.6739 25.7095 45.7291 25.5622L46.3589 25.739C46.2926 25.9526 46.1812 26.1404 46.0247 26.3024C45.8682 26.4626 45.6748 26.5878 45.4447 26.678C45.2145 26.7664 44.9558 26.8106 44.6685 26.8106ZM48.6651 26.8217C48.3963 26.8217 48.1523 26.771 47.9332 26.6698C47.7141 26.5666 47.5401 26.4184 47.4112 26.2251C47.2823 26.0299 47.2179 25.7942 47.2179 25.518C47.2179 25.2749 47.2657 25.0779 47.3615 24.9269C47.4572 24.7741 47.5852 24.6544 47.7454 24.5679C47.9056 24.4813 48.0824 24.4169 48.2757 24.3745C48.4709 24.3303 48.667 24.2954 48.864 24.2696C49.1218 24.2364 49.3308 24.2116 49.491 24.195C49.653 24.1766 49.7709 24.1462 49.8445 24.1039C49.92 24.0615 49.9578 23.9879 49.9578 23.8829V23.8608C49.9578 23.5883 49.8832 23.3765 49.734 23.2255C49.5867 23.0746 49.363 22.9991 49.0629 22.9991C48.7517 22.9991 48.5077 23.0672 48.3309 23.2034C48.1542 23.3397 48.0299 23.4852 47.9581 23.6398L47.3394 23.4189C47.4499 23.1611 47.5972 22.9604 47.7813 22.8168C47.9673 22.6713 48.1698 22.57 48.3889 22.5129C48.6099 22.454 48.8272 22.4246 49.0408 22.4246C49.177 22.4246 49.3336 22.4411 49.5103 22.4743C49.6889 22.5056 49.8611 22.571 50.0268 22.6704C50.1944 22.7698 50.3334 22.9199 50.4439 23.1206C50.5544 23.3213 50.6096 23.5901 50.6096 23.9271V26.7222H49.9578V26.1477H49.9246C49.8804 26.2398 49.8068 26.3383 49.7037 26.4433C49.6005 26.5482 49.4634 26.6375 49.2921 26.7112C49.1209 26.7848 48.9119 26.8217 48.6651 26.8217ZM48.7646 26.2361C49.0224 26.2361 49.2396 26.1855 49.4164 26.0842C49.595 25.9829 49.7294 25.8522 49.8197 25.692C49.9117 25.5318 49.9578 25.3633 49.9578 25.1866V24.59C49.9301 24.6231 49.8694 24.6535 49.7755 24.6811C49.6834 24.7069 49.5766 24.7299 49.4551 24.7502C49.3354 24.7686 49.2185 24.7852 49.1043 24.7999C48.992 24.8128 48.9008 24.8238 48.8309 24.833C48.6615 24.8551 48.5031 24.891 48.3558 24.9407C48.2103 24.9886 48.0925 25.0613 48.0023 25.1589C47.9139 25.2547 47.8697 25.3854 47.8697 25.5511C47.8697 25.7776 47.9535 25.9489 48.121 26.0649C48.2904 26.179 48.505 26.2361 48.7646 26.2361ZM51.7993 26.7222V22.4798H52.4291V23.1206H52.4732C52.5506 22.9107 52.6905 22.7404 52.8931 22.6096C53.0956 22.4789 53.3239 22.4135 53.578 22.4135C53.6259 22.4135 53.6858 22.4144 53.7576 22.4163C53.8294 22.4181 53.8837 22.4209 53.9205 22.4246V23.0874C53.8984 23.0819 53.8478 23.0736 53.7686 23.0626C53.6913 23.0497 53.6093 23.0433 53.5228 23.0433C53.3166 23.0433 53.1324 23.0865 52.9704 23.1731C52.8102 23.2578 52.6832 23.3756 52.5893 23.5266C52.4972 23.6757 52.4512 23.8461 52.4512 24.0376V26.7222H51.7993ZM56.2876 26.8106C55.8898 26.8106 55.5473 26.7167 55.2601 26.5289C54.9729 26.3411 54.7519 26.0824 54.5972 25.7528C54.4426 25.4232 54.3652 25.0466 54.3652 24.6231C54.3652 24.1922 54.4444 23.812 54.6027 23.4824C54.7629 23.151 54.9857 22.8923 55.2711 22.7063C55.5584 22.5185 55.8935 22.4246 56.2765 22.4246C56.5748 22.4246 56.8436 22.4798 57.083 22.5903C57.3224 22.7008 57.5185 22.8554 57.6713 23.0543C57.8242 23.2532 57.919 23.4852 57.9558 23.7503H57.304C57.2543 23.557 57.1438 23.3857 56.9725 23.2366C56.8031 23.0856 56.5748 23.0101 56.2876 23.0101C56.0335 23.0101 55.8107 23.0764 55.6192 23.209C55.4295 23.3397 55.2813 23.5248 55.1745 23.7641C55.0695 24.0017 55.017 24.2806 55.017 24.601C55.017 24.9288 55.0686 25.2142 55.1717 25.4572C55.2767 25.7003 55.424 25.889 55.6136 26.0234C55.8051 26.1579 56.0298 26.2251 56.2876 26.2251C56.457 26.2251 56.6107 26.1956 56.7488 26.1367C56.8869 26.0778 57.0038 25.9931 57.0996 25.8826C57.1953 25.7721 57.2635 25.6395 57.304 25.4849H57.9558C57.919 25.7353 57.8278 25.9608 57.6824 26.1615C57.5387 26.3604 57.3482 26.5188 57.1106 26.6366C56.8749 26.7526 56.6006 26.8106 56.2876 26.8106ZM59.5605 24.1701V26.7222H58.9087V21.0657H59.5605V23.1427H59.6158C59.7152 22.9236 59.8643 22.7496 60.0632 22.6207C60.2639 22.4899 60.5309 22.4246 60.8642 22.4246C61.1533 22.4246 61.4065 22.4826 61.6237 22.5986C61.841 22.7127 62.0095 22.8886 62.1292 23.1261C62.2507 23.3618 62.3115 23.6619 62.3115 24.0265V26.7222H61.6596V24.0707C61.6596 23.7338 61.5722 23.4732 61.3973 23.2891C61.2242 23.1031 60.9839 23.0101 60.6764 23.0101C60.4628 23.0101 60.2713 23.0552 60.1019 23.1454C59.9343 23.2357 59.8017 23.3673 59.7042 23.5404C59.6084 23.7135 59.5605 23.9234 59.5605 24.1701Z" fill="#627A84"/>
<g clip-path="url(#clip2_3_6672)">
<path d="M40.424 50.2828C40.424 50.8868 40.3135 51.406 40.0925 51.8406C39.8716 52.2733 39.5687 52.6066 39.1838 52.8404C38.8008 53.0724 38.3653 53.1885 37.8774 53.1885C37.3876 53.1885 36.9503 53.0724 36.5654 52.8404C36.1825 52.6066 35.8805 52.2724 35.6595 51.8378C35.4386 51.4033 35.3281 50.8849 35.3281 50.2828C35.3281 49.6789 35.4386 49.1605 35.6595 48.7278C35.8805 48.2933 36.1825 47.96 36.5654 47.728C36.9503 47.4941 37.3876 47.3772 37.8774 47.3772C38.3653 47.3772 38.8008 47.4941 39.1838 47.728C39.5687 47.96 39.8716 48.2933 40.0925 48.7278C40.3135 49.1605 40.424 49.6789 40.424 50.2828ZM39.5788 50.2828C39.5788 49.8225 39.5042 49.4349 39.3551 49.12C39.2078 48.8033 39.0052 48.564 38.7474 48.4019C38.4915 48.238 38.2015 48.1561 37.8774 48.1561C37.5515 48.1561 37.2605 48.238 37.0046 48.4019C36.7487 48.564 36.5461 48.8033 36.397 49.12C36.2497 49.4349 36.176 49.8225 36.176 50.2828C36.176 50.7432 36.2497 51.1317 36.397 51.4484C36.5461 51.7633 36.7487 52.0026 37.0046 52.1665C37.2605 52.3285 37.5515 52.4096 37.8774 52.4096C38.2015 52.4096 38.4915 52.3285 38.7474 52.1665C39.0052 52.0026 39.2078 51.7633 39.3551 51.4484C39.5042 51.1317 39.5788 50.7432 39.5788 50.2828ZM41.4217 54.702V48.8687H42.2282V49.5564H42.2973C42.3452 49.468 42.4142 49.3658 42.5044 49.2498C42.5947 49.1338 42.7199 49.0326 42.8801 48.946C43.0403 48.8576 43.252 48.8135 43.5153 48.8135C43.8578 48.8135 44.1635 48.9 44.4323 49.0731C44.7011 49.2462 44.912 49.4957 45.0648 49.8216C45.2195 50.1475 45.2968 50.5397 45.2968 50.9982C45.2968 51.4567 45.2204 51.8498 45.0676 52.1776C44.9147 52.5035 44.7048 52.7548 44.4378 52.9316C44.1708 53.1065 43.8661 53.194 43.5236 53.194C43.2658 53.194 43.055 53.1507 42.8911 53.0642C42.7291 52.9776 42.602 52.8763 42.51 52.7603C42.4179 52.6443 42.347 52.5412 42.2973 52.451H42.2476V54.702H41.4217ZM42.231 50.9899C42.231 51.2882 42.2743 51.5497 42.3608 51.7743C42.4473 51.999 42.5726 52.1748 42.7364 52.3019C42.9003 52.4271 43.101 52.4897 43.3385 52.4897C43.5853 52.4897 43.7915 52.4243 43.9572 52.2936C44.123 52.161 44.2482 51.9815 44.3329 51.755C44.4194 51.5285 44.4627 51.2735 44.4627 50.9899C44.4627 50.71 44.4203 50.4587 44.3356 50.2359C44.2528 50.0131 44.1276 49.8372 43.96 49.7083C43.7943 49.5794 43.5871 49.515 43.3385 49.515C43.0992 49.515 42.8966 49.5767 42.7309 49.7001C42.567 49.8234 42.4427 49.9956 42.358 50.2165C42.2733 50.4375 42.231 50.6953 42.231 50.9899ZM48.2024 48.8687V49.5316H45.8851V48.8687H48.2024ZM46.5066 47.8523H47.3324V51.8655C47.3324 52.0257 47.3563 52.1463 47.4042 52.2273C47.4521 52.3065 47.5138 52.3608 47.5893 52.3902C47.6666 52.4179 47.7504 52.4317 47.8406 52.4317C47.9069 52.4317 47.9649 52.4271 48.0146 52.4179C48.0643 52.4086 48.103 52.4013 48.1306 52.3958L48.2798 53.078C48.2319 53.0964 48.1638 53.1148 48.0754 53.1332C47.987 53.1535 47.8765 53.1645 47.7439 53.1664C47.5267 53.17 47.3241 53.1314 47.1363 53.0504C46.9485 52.9693 46.7966 52.8441 46.6806 52.6747C46.5646 52.5053 46.5066 52.2926 46.5066 52.0367V47.8523ZM49.116 53.1111V48.8687H49.9418V53.1111H49.116ZM49.533 48.2141C49.3894 48.2141 49.266 48.1662 49.1629 48.0705C49.0616 47.9729 49.011 47.8569 49.011 47.7225C49.011 47.5862 49.0616 47.4702 49.1629 47.3745C49.266 47.2769 49.3894 47.2281 49.533 47.2281C49.6766 47.2281 49.7991 47.2769 49.9004 47.3745C50.0035 47.4702 50.055 47.5862 50.055 47.7225C50.055 47.8569 50.0035 47.9729 49.9004 48.0705C49.7991 48.1662 49.6766 48.2141 49.533 48.2141ZM52.8398 53.1967C52.4421 53.1967 52.095 53.1056 51.7985 52.9233C51.5021 52.741 51.2719 52.486 51.108 52.1582C50.9442 51.8305 50.8622 51.4475 50.8622 51.0092C50.8622 50.5692 50.9442 50.1843 51.108 49.8547C51.2719 49.5251 51.5021 49.2692 51.7985 49.0869C52.095 48.9046 52.4421 48.8135 52.8398 48.8135C53.2375 48.8135 53.5846 48.9046 53.8811 49.0869C54.1775 49.2692 54.4077 49.5251 54.5716 49.8547C54.7355 50.1843 54.8174 50.5692 54.8174 51.0092C54.8174 51.4475 54.7355 51.8305 54.5716 52.1582C54.4077 52.486 54.1775 52.741 53.8811 52.9233C53.5846 53.1056 53.2375 53.1967 52.8398 53.1967ZM52.8426 52.5035C53.1004 52.5035 53.314 52.4353 53.4834 52.2991C53.6528 52.1628 53.778 51.9815 53.859 51.755C53.9418 51.5285 53.9833 51.279 53.9833 51.0065C53.9833 50.7358 53.9418 50.4872 53.859 50.2607C53.778 50.0324 53.6528 49.8492 53.4834 49.7111C53.314 49.573 53.1004 49.5039 52.8426 49.5039C52.5829 49.5039 52.3675 49.573 52.1963 49.7111C52.0269 49.8492 51.9007 50.0324 51.8179 50.2607C51.7369 50.4872 51.6963 50.7358 51.6963 51.0065C51.6963 51.279 51.7369 51.5285 51.8179 51.755C51.9007 51.9815 52.0269 52.1628 52.1963 52.2991C52.3675 52.4353 52.5829 52.5035 52.8426 52.5035ZM56.5651 50.5922V53.1111H55.7392V48.8687H56.5319V49.5592H56.5844C56.682 49.3345 56.8348 49.1541 57.0429 49.0178C57.2528 48.8816 57.517 48.8135 57.8356 48.8135C58.1247 48.8135 58.3778 48.8742 58.5951 48.9957C58.8124 49.1154 58.9809 49.294 59.1006 49.5316C59.2202 49.7691 59.2801 50.0628 59.2801 50.4126V53.1111H58.4543V50.5121C58.4543 50.2046 58.3742 49.9643 58.214 49.7912C58.0538 49.6163 57.8337 49.5288 57.5538 49.5288C57.3623 49.5288 57.192 49.5702 57.0429 49.6531C56.8956 49.736 56.7786 49.8575 56.6921 50.0177C56.6074 50.176 56.5651 50.3675 56.5651 50.5922ZM63.2719 47.4545V53.1111H62.446V47.4545H63.2719ZM65.6175 53.205C65.3487 53.205 65.1056 53.1553 64.8883 53.0559C64.671 52.9546 64.4989 52.8082 64.3718 52.6167C64.2466 52.4252 64.184 52.1904 64.184 51.9124C64.184 51.673 64.23 51.476 64.3221 51.3213C64.4142 51.1667 64.5385 51.0442 64.695 50.954C64.8515 50.8638 65.0264 50.7956 65.2198 50.7496C65.4131 50.7036 65.6101 50.6686 65.8108 50.6447C66.0649 50.6152 66.2712 50.5913 66.4295 50.5728C66.5879 50.5526 66.703 50.5204 66.7748 50.4762C66.8466 50.432 66.8825 50.3602 66.8825 50.2607V50.2414C66.8825 50.0002 66.8144 49.8133 66.6781 49.6807C66.5437 49.5481 66.343 49.4819 66.076 49.4819C65.7979 49.4819 65.5788 49.5435 65.4186 49.6669C65.2603 49.7884 65.1507 49.9238 65.0899 50.0729L64.3138 49.8962C64.4059 49.6384 64.5403 49.4303 64.7171 49.2719C64.8957 49.1117 65.101 48.9957 65.333 48.9239C65.565 48.8503 65.809 48.8135 66.0649 48.8135C66.2343 48.8135 66.4139 48.8337 66.6035 48.8742C66.795 48.9129 66.9736 48.9847 67.1393 49.0896C67.3069 49.1946 67.4441 49.3447 67.5509 49.5399C67.6577 49.7332 67.7111 49.9845 67.7111 50.2939V53.1111H66.9046V52.5311H66.8714C66.818 52.6379 66.7379 52.7428 66.6311 52.846C66.5243 52.9491 66.3872 53.0347 66.2196 53.1028C66.052 53.171 65.8513 53.205 65.6175 53.205ZM65.797 52.5421C66.0253 52.5421 66.2205 52.497 66.3826 52.4068C66.5464 52.3166 66.6707 52.1987 66.7554 52.0533C66.842 51.906 66.8852 51.7485 66.8852 51.581V51.0341C66.8558 51.0636 66.7987 51.0912 66.714 51.117C66.6311 51.1409 66.5363 51.1621 66.4295 51.1805C66.3227 51.1971 66.2187 51.2127 66.1174 51.2274C66.0161 51.2403 65.9314 51.2514 65.8633 51.2606C65.7031 51.2808 65.5567 51.3149 65.4241 51.3628C65.2934 51.4106 65.1885 51.4797 65.1093 51.5699C65.0319 51.6583 64.9933 51.7762 64.9933 51.9235C64.9933 52.1278 65.0688 52.2825 65.2198 52.3875C65.3708 52.4906 65.5632 52.5421 65.797 52.5421ZM68.8773 53.1111V47.4545H69.7032V49.5564H69.7529C69.8008 49.468 69.8698 49.3658 69.96 49.2498C70.0503 49.1338 70.1755 49.0326 70.3357 48.946C70.4959 48.8576 70.7076 48.8135 70.9709 48.8135C71.3134 48.8135 71.6191 48.9 71.8879 49.0731C72.1567 49.2462 72.3676 49.4957 72.5204 49.8216C72.6751 50.1475 72.7524 50.5397 72.7524 50.9982C72.7524 51.4567 72.676 51.8498 72.5232 52.1776C72.3703 52.5035 72.1604 52.7548 71.8934 52.9316C71.6264 53.1065 71.3217 53.194 70.9792 53.194C70.7214 53.194 70.5106 53.1507 70.3467 53.0642C70.1847 52.9776 70.0576 52.8763 69.9656 52.7603C69.8735 52.6443 69.8026 52.5412 69.7529 52.451H69.6838V53.1111H68.8773ZM69.6866 50.9899C69.6866 51.2882 69.7299 51.5497 69.8164 51.7743C69.903 51.999 70.0282 52.1748 70.192 52.3019C70.3559 52.4271 70.5566 52.4897 70.7942 52.4897C71.0409 52.4897 71.2471 52.4243 71.4128 52.2936C71.5786 52.161 71.7038 51.9815 71.7885 51.755C71.875 51.5285 71.9183 51.2735 71.9183 50.9899C71.9183 50.71 71.8759 50.4587 71.7912 50.2359C71.7084 50.0131 71.5832 49.8372 71.4156 49.7083C71.2499 49.5794 71.0427 49.515 70.7942 49.515C70.5548 49.515 70.3522 49.5767 70.1865 49.7001C70.0226 49.8234 69.8983 49.9956 69.8136 50.2165C69.7289 50.4375 69.6866 50.6953 69.6866 50.9899ZM75.5082 53.1967C75.0902 53.1967 74.7302 53.1074 74.4283 52.9288C74.1281 52.7484 73.8961 52.4952 73.7322 52.1693C73.5702 51.8415 73.4892 51.4576 73.4892 51.0175C73.4892 50.583 73.5702 50.2 73.7322 49.8685C73.8961 49.5371 74.1244 49.2784 74.4172 49.0924C74.7118 48.9064 75.0561 48.8135 75.4502 48.8135C75.6896 48.8135 75.9216 48.853 76.1462 48.9322C76.3709 49.0114 76.5725 49.1357 76.7511 49.3051C76.9297 49.4745 77.0706 49.6945 77.1737 49.9652C77.2768 50.234 77.3283 50.5609 77.3283 50.9457V51.2385H73.956V50.6198H76.5191C76.5191 50.4025 76.4749 50.2101 76.3865 50.0425C76.2981 49.8731 76.1738 49.7396 76.0136 49.642C75.8553 49.5445 75.6693 49.4957 75.4557 49.4957C75.2237 49.4957 75.0212 49.5527 74.8481 49.6669C74.6768 49.7792 74.5443 49.9265 74.4503 50.1088C74.3583 50.2893 74.3122 50.4854 74.3122 50.6971V51.1805C74.3122 51.464 74.362 51.7053 74.4614 51.9041C74.5627 52.103 74.7035 52.2549 74.884 52.3599C75.0644 52.463 75.2753 52.5145 75.5165 52.5145C75.673 52.5145 75.8157 52.4924 75.9446 52.4482C76.0735 52.4022 76.1849 52.3341 76.2788 52.2438C76.3727 52.1536 76.4445 52.0422 76.4942 51.9096L77.2759 52.0505C77.2133 52.2807 77.1009 52.4823 76.9389 52.6554C76.7787 52.8266 76.5771 52.9601 76.334 53.0559C76.0928 53.1498 75.8175 53.1967 75.5082 53.1967ZM79.0705 47.4545V53.1111H78.2446V47.4545H79.0705Z" fill="#032B3A"/>
<path d="M40.424 76.9495C40.424 77.5535 40.3135 78.0727 40.0925 78.5073C39.8716 78.94 39.5687 79.2733 39.1838 79.5071C38.8008 79.7391 38.3653 79.8551 37.8774 79.8551C37.3876 79.8551 36.9503 79.7391 36.5654 79.5071C36.1825 79.2733 35.8805 78.9391 35.6595 78.5045C35.4386 78.07 35.3281 77.5516 35.3281 76.9495C35.3281 76.3456 35.4386 75.8272 35.6595 75.3945C35.8805 74.96 36.1825 74.6267 36.5654 74.3947C36.9503 74.1608 37.3876 74.0439 37.8774 74.0439C38.3653 74.0439 38.8008 74.1608 39.1838 74.3947C39.5687 74.6267 39.8716 74.96 40.0925 75.3945C40.3135 75.8272 40.424 76.3456 40.424 76.9495ZM39.5788 76.9495C39.5788 76.4892 39.5042 76.1016 39.3551 75.7867C39.2078 75.47 39.0052 75.2306 38.7474 75.0686C38.4915 74.9047 38.2015 74.8228 37.8774 74.8228C37.5515 74.8228 37.2605 74.9047 37.0046 75.0686C36.7487 75.2306 36.5461 75.47 36.397 75.7867C36.2497 76.1016 36.176 76.4892 36.176 76.9495C36.176 77.4099 36.2497 77.7984 36.397 78.1151C36.5461 78.4299 36.7487 78.6693 37.0046 78.8332C37.2605 78.9952 37.5515 79.0763 37.8774 79.0763C38.2015 79.0763 38.4915 78.9952 38.7474 78.8332C39.0052 78.6693 39.2078 78.4299 39.3551 78.1151C39.5042 77.7984 39.5788 77.4099 39.5788 76.9495ZM41.4217 81.3687V75.5354H42.2282V76.2231H42.2973C42.3452 76.1347 42.4142 76.0325 42.5044 75.9165C42.5947 75.8005 42.7199 75.6993 42.8801 75.6127C43.0403 75.5243 43.252 75.4801 43.5153 75.4801C43.8578 75.4801 44.1635 75.5667 44.4323 75.7398C44.7011 75.9129 44.912 76.1624 45.0648 76.4883C45.2195 76.8142 45.2968 77.2064 45.2968 77.6649C45.2968 78.1234 45.2204 78.5165 45.0676 78.8442C44.9147 79.1702 44.7048 79.4215 44.4378 79.5983C44.1708 79.7732 43.8661 79.8607 43.5236 79.8607C43.2658 79.8607 43.055 79.8174 42.8911 79.7308C42.7291 79.6443 42.602 79.543 42.51 79.427C42.4179 79.311 42.347 79.2079 42.2973 79.1177H42.2476V81.3687H41.4217ZM42.231 77.6566C42.231 77.9549 42.2743 78.2164 42.3608 78.441C42.4473 78.6656 42.5726 78.8415 42.7364 78.9685C42.9003 79.0937 43.101 79.1564 43.3385 79.1564C43.5853 79.1564 43.7915 79.091 43.9572 78.9603C44.123 78.8277 44.2482 78.6481 44.3329 78.4217C44.4194 78.1952 44.4627 77.9402 44.4627 77.6566C44.4627 77.3767 44.4203 77.1254 44.3356 76.9026C44.2528 76.6798 44.1276 76.5039 43.96 76.375C43.7943 76.2461 43.5871 76.1817 43.3385 76.1817C43.0992 76.1817 42.8966 76.2434 42.7309 76.3667C42.567 76.4901 42.4427 76.6623 42.358 76.8832C42.2733 77.1042 42.231 77.362 42.231 77.6566ZM48.2024 75.5354V76.1983H45.8851V75.5354H48.2024ZM46.5066 74.519H47.3324V78.5321C47.3324 78.6923 47.3563 78.8129 47.4042 78.894C47.4521 78.9731 47.5138 79.0275 47.5893 79.0569C47.6666 79.0845 47.7504 79.0984 47.8406 79.0984C47.9069 79.0984 47.9649 79.0937 48.0146 79.0845C48.0643 79.0753 48.103 79.068 48.1306 79.0624L48.2798 79.7447C48.2319 79.7631 48.1638 79.7815 48.0754 79.7999C47.987 79.8202 47.8765 79.8312 47.7439 79.833C47.5267 79.8367 47.3241 79.7981 47.1363 79.717C46.9485 79.636 46.7966 79.5108 46.6806 79.3414C46.5646 79.172 46.5066 78.9593 46.5066 78.7034V74.519ZM49.116 79.7778V75.5354H49.9418V79.7778H49.116ZM49.533 74.8808C49.3894 74.8808 49.266 74.8329 49.1629 74.7372C49.0616 74.6396 49.011 74.5236 49.011 74.3891C49.011 74.2529 49.0616 74.1369 49.1629 74.0411C49.266 73.9435 49.3894 73.8948 49.533 73.8948C49.6766 73.8948 49.7991 73.9435 49.9004 74.0411C50.0035 74.1369 50.055 74.2529 50.055 74.3891C50.055 74.5236 50.0035 74.6396 49.9004 74.7372C49.7991 74.8329 49.6766 74.8808 49.533 74.8808ZM52.8398 79.8634C52.4421 79.8634 52.095 79.7723 51.7985 79.59C51.5021 79.4077 51.2719 79.1527 51.108 78.8249C50.9442 78.4972 50.8622 78.1142 50.8622 77.6759C50.8622 77.2358 50.9442 76.851 51.108 76.5214C51.2719 76.1918 51.5021 75.9359 51.7985 75.7536C52.095 75.5713 52.4421 75.4801 52.8398 75.4801C53.2375 75.4801 53.5846 75.5713 53.8811 75.7536C54.1775 75.9359 54.4077 76.1918 54.5716 76.5214C54.7355 76.851 54.8174 77.2358 54.8174 77.6759C54.8174 78.1142 54.7355 78.4972 54.5716 78.8249C54.4077 79.1527 54.1775 79.4077 53.8811 79.59C53.5846 79.7723 53.2375 79.8634 52.8398 79.8634ZM52.8426 79.1702C53.1004 79.1702 53.314 79.102 53.4834 78.9658C53.6528 78.8295 53.778 78.6481 53.859 78.4217C53.9418 78.1952 53.9833 77.9457 53.9833 77.6732C53.9833 77.4025 53.9418 77.1539 53.859 76.9274C53.778 76.6991 53.6528 76.5159 53.4834 76.3778C53.314 76.2397 53.1004 76.1706 52.8426 76.1706C52.5829 76.1706 52.3675 76.2397 52.1963 76.3778C52.0269 76.5159 51.9007 76.6991 51.8179 76.9274C51.7369 77.1539 51.6963 77.4025 51.6963 77.6732C51.6963 77.9457 51.7369 78.1952 51.8179 78.4217C51.9007 78.6481 52.0269 78.8295 52.1963 78.9658C52.3675 79.102 52.5829 79.1702 52.8426 79.1702ZM56.5651 77.2589V79.7778H55.7392V75.5354H56.5319V76.2259H56.5844C56.682 76.0012 56.8348 75.8208 57.0429 75.6845C57.2528 75.5483 57.517 75.4801 57.8356 75.4801C58.1247 75.4801 58.3778 75.5409 58.5951 75.6624C58.8124 75.7821 58.9809 75.9607 59.1006 76.1983C59.2202 76.4358 59.2801 76.7295 59.2801 77.0793V79.7778H58.4543V77.1788C58.4543 76.8713 58.3742 76.631 58.214 76.4579C58.0538 76.283 57.8337 76.1955 57.5538 76.1955C57.3623 76.1955 57.192 76.2369 57.0429 76.3198C56.8956 76.4026 56.7786 76.5242 56.6921 76.6844C56.6074 76.8427 56.5651 77.0342 56.5651 77.2589ZM63.2719 74.1212V79.7778H62.446V74.1212H63.2719ZM65.6175 79.8717C65.3487 79.8717 65.1056 79.822 64.8883 79.7226C64.671 79.6213 64.4989 79.4749 64.3718 79.2834C64.2466 79.0919 64.184 78.8571 64.184 78.5791C64.184 78.3397 64.23 78.1427 64.3221 77.988C64.4142 77.8334 64.5385 77.7109 64.695 77.6207C64.8515 77.5305 65.0264 77.4623 65.2198 77.4163C65.4131 77.3703 65.6101 77.3353 65.8108 77.3113C66.0649 77.2819 66.2712 77.2579 66.4295 77.2395C66.5879 77.2193 66.703 77.1871 66.7748 77.1429C66.8466 77.0987 66.8825 77.0269 66.8825 76.9274V76.9081C66.8825 76.6669 66.8144 76.48 66.6781 76.3474C66.5437 76.2148 66.343 76.1485 66.076 76.1485C65.7979 76.1485 65.5788 76.2102 65.4186 76.3336C65.2603 76.4551 65.1507 76.5905 65.0899 76.7396L64.3138 76.5628C64.4059 76.3051 64.5403 76.097 64.7171 75.9386C64.8957 75.7784 65.101 75.6624 65.333 75.5906C65.565 75.517 65.809 75.4801 66.0649 75.4801C66.2343 75.4801 66.4139 75.5004 66.6035 75.5409C66.795 75.5796 66.9736 75.6514 67.1393 75.7563C67.3069 75.8613 67.4441 76.0114 67.5509 76.2065C67.6577 76.3999 67.7111 76.6512 67.7111 76.9606V79.7778H66.9046V79.1978H66.8714C66.818 79.3046 66.7379 79.4095 66.6311 79.5127C66.5243 79.6158 66.3872 79.7014 66.2196 79.7695C66.052 79.8376 65.8513 79.8717 65.6175 79.8717ZM65.797 79.2088C66.0253 79.2088 66.2205 79.1637 66.3826 79.0735C66.5464 78.9833 66.6707 78.8654 66.7554 78.72C66.842 78.5727 66.8852 78.4152 66.8852 78.2477V77.7008C66.8558 77.7302 66.7987 77.7579 66.714 77.7836C66.6311 77.8076 66.5363 77.8288 66.4295 77.8472C66.3227 77.8637 66.2187 77.8794 66.1174 77.8941C66.0161 77.907 65.9314 77.9181 65.8633 77.9273C65.7031 77.9475 65.5567 77.9816 65.4241 78.0295C65.2934 78.0773 65.1885 78.1464 65.1093 78.2366C65.0319 78.325 64.9933 78.4428 64.9933 78.5901C64.9933 78.7945 65.0688 78.9492 65.2198 79.0542C65.3708 79.1573 65.5632 79.2088 65.797 79.2088ZM68.8773 79.7778V74.1212H69.7032V76.2231H69.7529C69.8008 76.1347 69.8698 76.0325 69.96 75.9165C70.0503 75.8005 70.1755 75.6993 70.3357 75.6127C70.4959 75.5243 70.7076 75.4801 70.9709 75.4801C71.3134 75.4801 71.6191 75.5667 71.8879 75.7398C72.1567 75.9129 72.3676 76.1624 72.5204 76.4883C72.6751 76.8142 72.7524 77.2064 72.7524 77.6649C72.7524 78.1234 72.676 78.5165 72.5232 78.8442C72.3703 79.1702 72.1604 79.4215 71.8934 79.5983C71.6264 79.7732 71.3217 79.8607 70.9792 79.8607C70.7214 79.8607 70.5106 79.8174 70.3467 79.7308C70.1847 79.6443 70.0576 79.543 69.9656 79.427C69.8735 79.311 69.8026 79.2079 69.7529 79.1177H69.6838V79.7778H68.8773ZM69.6866 77.6566C69.6866 77.9549 69.7299 78.2164 69.8164 78.441C69.903 78.6656 70.0282 78.8415 70.192 78.9685C70.3559 79.0937 70.5566 79.1564 70.7942 79.1564C71.0409 79.1564 71.2471 79.091 71.4128 78.9603C71.5786 78.8277 71.7038 78.6481 71.7885 78.4217C71.875 78.1952 71.9183 77.9402 71.9183 77.6566C71.9183 77.3767 71.8759 77.1254 71.7912 76.9026C71.7084 76.6798 71.5832 76.5039 71.4156 76.375C71.2499 76.2461 71.0427 76.1817 70.7942 76.1817C70.5548 76.1817 70.3522 76.2434 70.1865 76.3667C70.0226 76.4901 69.8983 76.6623 69.8136 76.8832C69.7289 77.1042 69.6866 77.362 69.6866 77.6566ZM75.5082 79.8634C75.0902 79.8634 74.7302 79.7741 74.4283 79.5955C74.1281 79.4151 73.8961 79.1619 73.7322 78.836C73.5702 78.5082 73.4892 78.1243 73.4892 77.6842C73.4892 77.2497 73.5702 76.8667 73.7322 76.5352C73.8961 76.2038 74.1244 75.9451 74.4172 75.7591C74.7118 75.5731 75.0561 75.4801 75.4502 75.4801C75.6896 75.4801 75.9216 75.5197 76.1462 75.5989C76.3709 75.6781 76.5725 75.8024 76.7511 75.9718C76.9297 76.1412 77.0706 76.3612 77.1737 76.6319C77.2768 76.9007 77.3283 77.2276 77.3283 77.6124V77.9052H73.956V77.2865H76.5191C76.5191 77.0692 76.4749 76.8768 76.3865 76.7092C76.2981 76.5398 76.1738 76.4063 76.0136 76.3087C75.8553 76.2111 75.6693 76.1624 75.4557 76.1624C75.2237 76.1624 75.0212 76.2194 74.8481 76.3336C74.6768 76.4459 74.5443 76.5932 74.4503 76.7755C74.3583 76.956 74.3122 77.1521 74.3122 77.3638V77.8472C74.3122 78.1307 74.362 78.3719 74.4614 78.5708C74.5627 78.7697 74.7035 78.9216 74.884 79.0265C75.0644 79.1297 75.2753 79.1812 75.5165 79.1812C75.673 79.1812 75.8157 79.1591 75.9446 79.1149C76.0735 79.0689 76.1849 79.0008 76.2788 78.9105C76.3727 78.8203 76.4445 78.7089 76.4942 78.5763L77.2759 78.7172C77.2133 78.9474 77.1009 79.149 76.9389 79.3221C76.7787 79.4933 76.5771 79.6268 76.334 79.7226C76.0928 79.8165 75.8175 79.8634 75.5082 79.8634ZM79.0705 74.1212V79.7778H78.2446V74.1212H79.0705Z" fill="#032B3A"/>
<path d="M177.502 76.7938C177.45 76.7407 177.389 76.6984 177.321 76.6693C177.254 76.6402 177.181 76.6249 177.107 76.6242C177.033 76.6236 176.96 76.6376 176.892 76.6656C176.823 76.6935 176.761 76.7347 176.709 76.7869C176.657 76.8391 176.616 76.9011 176.588 76.9694C176.56 77.0376 176.546 77.1108 176.547 77.1846C176.547 77.2584 176.562 77.3312 176.592 77.399C176.621 77.4668 176.663 77.5281 176.716 77.5794L179.327 80.5199C179.431 80.624 179.572 80.6825 179.719 80.6825C179.867 80.6825 180.008 80.624 180.112 80.5199L186.386 74.246C186.439 74.1948 186.481 74.1335 186.511 74.0657C186.54 73.9979 186.555 73.925 186.556 73.8512C186.556 73.7775 186.542 73.7043 186.514 73.6361C186.486 73.5678 186.445 73.5057 186.393 73.4536C186.341 73.4014 186.279 73.3602 186.21 73.3322C186.142 73.3043 186.069 73.2902 185.995 73.2909C185.922 73.2915 185.849 73.3069 185.781 73.336C185.713 73.3651 185.652 73.4074 185.601 73.4605L179.719 79.3415L177.502 76.7938Z" fill="#032B3A"/>
<path d="M40.424 103.616C40.424 104.22 40.3135 104.739 40.0925 105.174C39.8716 105.607 39.5687 105.94 39.1838 106.174C38.8008 106.406 38.3653 106.522 37.8774 106.522C37.3876 106.522 36.9503 106.406 36.5654 106.174C36.1825 105.94 35.8805 105.606 35.6595 105.171C35.4386 104.737 35.3281 104.218 35.3281 103.616C35.3281 103.012 35.4386 102.494 35.6595 102.061C35.8805 101.627 36.1825 101.293 36.5654 101.061C36.9503 100.827 37.3876 100.711 37.8774 100.711C38.3653 100.711 38.8008 100.827 39.1838 101.061C39.5687 101.293 39.8716 101.627 40.0925 102.061C40.3135 102.494 40.424 103.012 40.424 103.616ZM39.5788 103.616C39.5788 103.156 39.5042 102.768 39.3551 102.453C39.2078 102.137 39.0052 101.897 38.7474 101.735C38.4915 101.571 38.2015 101.489 37.8774 101.489C37.5515 101.489 37.2605 101.571 37.0046 101.735C36.7487 101.897 36.5461 102.137 36.397 102.453C36.2497 102.768 36.176 103.156 36.176 103.616C36.176 104.077 36.2497 104.465 36.397 104.782C36.5461 105.097 36.7487 105.336 37.0046 105.5C37.2605 105.662 37.5515 105.743 37.8774 105.743C38.2015 105.743 38.4915 105.662 38.7474 105.5C39.0052 105.336 39.2078 105.097 39.3551 104.782C39.5042 104.465 39.5788 104.077 39.5788 103.616ZM41.4217 108.035V102.202H42.2282V102.89H42.2973C42.3452 102.801 42.4142 102.699 42.5044 102.583C42.5947 102.467 42.7199 102.366 42.8801 102.279C43.0403 102.191 43.252 102.147 43.5153 102.147C43.8578 102.147 44.1635 102.233 44.4323 102.406C44.7011 102.58 44.912 102.829 45.0648 103.155C45.2195 103.481 45.2968 103.873 45.2968 104.332C45.2968 104.79 45.2204 105.183 45.0676 105.511C44.9147 105.837 44.7048 106.088 44.4378 106.265C44.1708 106.44 43.8661 106.527 43.5236 106.527C43.2658 106.527 43.055 106.484 42.8911 106.398C42.7291 106.311 42.602 106.21 42.51 106.094C42.4179 105.978 42.347 105.875 42.2973 105.784H42.2476V108.035H41.4217ZM42.231 104.323C42.231 104.622 42.2743 104.883 42.3608 105.108C42.4473 105.332 42.5726 105.508 42.7364 105.635C42.9003 105.76 43.101 105.823 43.3385 105.823C43.5853 105.823 43.7915 105.758 43.9572 105.627C44.123 105.494 44.2482 105.315 44.3329 105.088C44.4194 104.862 44.4627 104.607 44.4627 104.323C44.4627 104.043 44.4203 103.792 44.3356 103.569C44.2528 103.346 44.1276 103.171 43.96 103.042C43.7943 102.913 43.5871 102.848 43.3385 102.848C43.0992 102.848 42.8966 102.91 42.7309 103.033C42.567 103.157 42.4427 103.329 42.358 103.55C42.2733 103.771 42.231 104.029 42.231 104.323ZM48.2024 102.202V102.865H45.8851V102.202H48.2024ZM46.5066 101.186H47.3324V105.199C47.3324 105.359 47.3563 105.48 47.4042 105.561C47.4521 105.64 47.5138 105.694 47.5893 105.724C47.6666 105.751 47.7504 105.765 47.8406 105.765C47.9069 105.765 47.9649 105.76 48.0146 105.751C48.0643 105.742 48.103 105.735 48.1306 105.729L48.2798 106.411C48.2319 106.43 48.1638 106.448 48.0754 106.467C47.987 106.487 47.8765 106.498 47.7439 106.5C47.5267 106.503 47.3241 106.465 47.1363 106.384C46.9485 106.303 46.7966 106.177 46.6806 106.008C46.5646 105.839 46.5066 105.626 46.5066 105.37V101.186ZM49.116 106.444V102.202H49.9418V106.444H49.116ZM49.533 101.547C49.3894 101.547 49.266 101.5 49.1629 101.404C49.0616 101.306 49.011 101.19 49.011 101.056C49.011 100.92 49.0616 100.804 49.1629 100.708C49.266 100.61 49.3894 100.561 49.533 100.561C49.6766 100.561 49.7991 100.61 49.9004 100.708C50.0035 100.804 50.055 100.92 50.055 101.056C50.055 101.19 50.0035 101.306 49.9004 101.404C49.7991 101.5 49.6766 101.547 49.533 101.547ZM52.8398 106.53C52.4421 106.53 52.095 106.439 51.7985 106.257C51.5021 106.074 51.2719 105.819 51.108 105.492C50.9442 105.164 50.8622 104.781 50.8622 104.343C50.8622 103.903 50.9442 103.518 51.108 103.188C51.2719 102.858 51.5021 102.603 51.7985 102.42C52.095 102.238 52.4421 102.147 52.8398 102.147C53.2375 102.147 53.5846 102.238 53.8811 102.42C54.1775 102.603 54.4077 102.858 54.5716 103.188C54.7355 103.518 54.8174 103.903 54.8174 104.343C54.8174 104.781 54.7355 105.164 54.5716 105.492C54.4077 105.819 54.1775 106.074 53.8811 106.257C53.5846 106.439 53.2375 106.53 52.8398 106.53ZM52.8426 105.837C53.1004 105.837 53.314 105.769 53.4834 105.632C53.6528 105.496 53.778 105.315 53.859 105.088C53.9418 104.862 53.9833 104.612 53.9833 104.34C53.9833 104.069 53.9418 103.821 53.859 103.594C53.778 103.366 53.6528 103.183 53.4834 103.044C53.314 102.906 53.1004 102.837 52.8426 102.837C52.5829 102.837 52.3675 102.906 52.1963 103.044C52.0269 103.183 51.9007 103.366 51.8179 103.594C51.7369 103.821 51.6963 104.069 51.6963 104.34C51.6963 104.612 51.7369 104.862 51.8179 105.088C51.9007 105.315 52.0269 105.496 52.1963 105.632C52.3675 105.769 52.5829 105.837 52.8426 105.837ZM56.5651 103.926V106.444H55.7392V102.202H56.5319V102.893H56.5844C56.682 102.668 56.8348 102.487 57.0429 102.351C57.2528 102.215 57.517 102.147 57.8356 102.147C58.1247 102.147 58.3778 102.208 58.5951 102.329C58.8124 102.449 58.9809 102.627 59.1006 102.865C59.2202 103.102 59.2801 103.396 59.2801 103.746V106.444H58.4543V103.845C58.4543 103.538 58.3742 103.298 58.214 103.125C58.0538 102.95 57.8337 102.862 57.5538 102.862C57.3623 102.862 57.192 102.904 57.0429 102.986C56.8956 103.069 56.7786 103.191 56.6921 103.351C56.6074 103.509 56.5651 103.701 56.5651 103.926ZM63.2719 100.788V106.444H62.446V100.788H63.2719ZM65.6175 106.538C65.3487 106.538 65.1056 106.489 64.8883 106.389C64.671 106.288 64.4989 106.142 64.3718 105.95C64.2466 105.759 64.184 105.524 64.184 105.246C64.184 105.006 64.23 104.809 64.3221 104.655C64.4142 104.5 64.5385 104.378 64.695 104.287C64.8515 104.197 65.0264 104.129 65.2198 104.083C65.4131 104.037 65.6101 104.002 65.8108 103.978C66.0649 103.949 66.2712 103.925 66.4295 103.906C66.5879 103.886 66.703 103.854 66.7748 103.81C66.8466 103.765 66.8825 103.694 66.8825 103.594V103.575C66.8825 103.334 66.8144 103.147 66.6781 103.014C66.5437 102.881 66.343 102.815 66.076 102.815C65.7979 102.815 65.5788 102.877 65.4186 103C65.2603 103.122 65.1507 103.257 65.0899 103.406L64.3138 103.229C64.4059 102.972 64.5403 102.764 64.7171 102.605C64.8957 102.445 65.101 102.329 65.333 102.257C65.565 102.184 65.809 102.147 66.0649 102.147C66.2343 102.147 66.4139 102.167 66.6035 102.208C66.795 102.246 66.9736 102.318 67.1393 102.423C67.3069 102.528 67.4441 102.678 67.5509 102.873C67.6577 103.067 67.7111 103.318 67.7111 103.627V106.444H66.9046V105.864H66.8714C66.818 105.971 66.7379 106.076 66.6311 106.179C66.5243 106.282 66.3872 106.368 66.2196 106.436C66.052 106.504 65.8513 106.538 65.6175 106.538ZM65.797 105.875C66.0253 105.875 66.2205 105.83 66.3826 105.74C66.5464 105.65 66.6707 105.532 66.7554 105.387C66.842 105.239 66.8852 105.082 66.8852 104.914V104.367C66.8558 104.397 66.7987 104.425 66.714 104.45C66.6311 104.474 66.5363 104.495 66.4295 104.514C66.3227 104.53 66.2187 104.546 66.1174 104.561C66.0161 104.574 65.9314 104.585 65.8633 104.594C65.7031 104.614 65.5567 104.648 65.4241 104.696C65.2934 104.744 65.1885 104.813 65.1093 104.903C65.0319 104.992 64.9933 105.109 64.9933 105.257C64.9933 105.461 65.0688 105.616 65.2198 105.721C65.3708 105.824 65.5632 105.875 65.797 105.875ZM68.8773 106.444V100.788H69.7032V102.89H69.7529C69.8008 102.801 69.8698 102.699 69.96 102.583C70.0503 102.467 70.1755 102.366 70.3357 102.279C70.4959 102.191 70.7076 102.147 70.9709 102.147C71.3134 102.147 71.6191 102.233 71.8879 102.406C72.1567 102.58 72.3676 102.829 72.5204 103.155C72.6751 103.481 72.7524 103.873 72.7524 104.332C72.7524 104.79 72.676 105.183 72.5232 105.511C72.3703 105.837 72.1604 106.088 71.8934 106.265C71.6264 106.44 71.3217 106.527 70.9792 106.527C70.7214 106.527 70.5106 106.484 70.3467 106.398C70.1847 106.311 70.0576 106.21 69.9656 106.094C69.8735 105.978 69.8026 105.875 69.7529 105.784H69.6838V106.444H68.8773ZM69.6866 104.323C69.6866 104.622 69.7299 104.883 69.8164 105.108C69.903 105.332 70.0282 105.508 70.192 105.635C70.3559 105.76 70.5566 105.823 70.7942 105.823C71.0409 105.823 71.2471 105.758 71.4128 105.627C71.5786 105.494 71.7038 105.315 71.7885 105.088C71.875 104.862 71.9183 104.607 71.9183 104.323C71.9183 104.043 71.8759 103.792 71.7912 103.569C71.7084 103.346 71.5832 103.171 71.4156 103.042C71.2499 102.913 71.0427 102.848 70.7942 102.848C70.5548 102.848 70.3522 102.91 70.1865 103.033C70.0226 103.157 69.8983 103.329 69.8136 103.55C69.7289 103.771 69.6866 104.029 69.6866 104.323ZM75.5082 106.53C75.0902 106.53 74.7302 106.441 74.4283 106.262C74.1281 106.082 73.8961 105.829 73.7322 105.503C73.5702 105.175 73.4892 104.791 73.4892 104.351C73.4892 103.916 73.5702 103.533 73.7322 103.202C73.8961 102.87 74.1244 102.612 74.4172 102.426C74.7118 102.24 75.0561 102.147 75.4502 102.147C75.6896 102.147 75.9216 102.186 76.1462 102.266C76.3709 102.345 76.5725 102.469 76.7511 102.638C76.9297 102.808 77.0706 103.028 77.1737 103.299C77.2768 103.567 77.3283 103.894 77.3283 104.279V104.572H73.956V103.953H76.5191C76.5191 103.736 76.4749 103.543 76.3865 103.376C76.2981 103.206 76.1738 103.073 76.0136 102.975C75.8553 102.878 75.6693 102.829 75.4557 102.829C75.2237 102.829 75.0212 102.886 74.8481 103C74.6768 103.113 74.5443 103.26 74.4503 103.442C74.3583 103.623 74.3122 103.819 74.3122 104.03V104.514C74.3122 104.797 74.362 105.039 74.4614 105.237C74.5627 105.436 74.7035 105.588 74.884 105.693C75.0644 105.796 75.2753 105.848 75.5165 105.848C75.673 105.848 75.8157 105.826 75.9446 105.782C76.0735 105.736 76.1849 105.667 76.2788 105.577C76.3727 105.487 76.4445 105.376 76.4942 105.243L77.2759 105.384C77.2133 105.614 77.1009 105.816 76.9389 105.989C76.7787 106.16 76.5771 106.293 76.334 106.389C76.0928 106.483 75.8175 106.53 75.5082 106.53ZM79.0705 100.788V106.444H78.2446V100.788H79.0705Z" fill="#032B3A"/>
<rect x="26" y="106.778" width="171.111" height="8.88889" fill="url(#paint0_linear_3_6672)"/>
<rect x="197.111" y="46.7778" width="171.111" height="8.88889" transform="rotate(180 197.111 46.7778)" fill="url(#paint1_linear_3_6672)"/>
</g>
</g>
</g>
</g>
<defs>
<filter id="filter0_dd_3_6672" x="19.3333" y="4.55556" width="184.444" height="153.333" filterUnits="userSpaceOnUse" color-interpolation-filters="sRGB">
<feFlood flood-opacity="0" result="BackgroundImageFix"/>
<feColorMatrix in="SourceAlpha" type="matrix" values="0 0 0 0 0 0 0 0 0 0 0 0 0 0 0 0 0 0 127 0" result="hardAlpha"/>
<feOffset dy="2.22222"/>
<feGaussianBlur stdDeviation="3.33333"/>
<feColorMatrix type="matrix" values="0 0 0 0 0 0 0 0 0 0 0 0 0 0 0 0 0 0 0.05 0"/>
<feBlend mode="normal" in2="BackgroundImageFix" result="effect1_dropShadow_3_6672"/>
<feColorMatrix in="SourceAlpha" type="matrix" values="0 0 0 0 0 0 0 0 0 0 0 0 0 0 0 0 0 0 127 0" result="hardAlpha"/>
<feOffset dy="0.555556"/>
<feGaussianBlur stdDeviation="1.11111"/>
<feColorMatrix type="matrix" values="0 0 0 0 0 0 0 0 0 0 0 0 0 0 0 0 0 0 0.1 0"/>
<feBlend mode="normal" in2="effect1_dropShadow_3_6672" result="effect2_dropShadow_3_6672"/>
<feBlend mode="normal" in="SourceGraphic" in2="effect2_dropShadow_3_6672" result="shape"/>
</filter>
<linearGradient id="paint0_linear_3_6672" x1="111.556" y1="106.778" x2="111.556" y2="115.667" gradientUnits="userSpaceOnUse">
<stop stop-color="white" stop-opacity="0"/>
<stop offset="1" stop-color="white"/>
</linearGradient>
<linearGradient id="paint1_linear_3_6672" x1="282.667" y1="46.7778" x2="282.667" y2="55.6667" gradientUnits="userSpaceOnUse">
<stop stop-color="white" stop-opacity="0"/>
<stop offset="1" stop-color="white"/>
</linearGradient>
<clipPath id="clip0_3_6672">
<rect width="224" height="117" fill="white"/>
</clipPath>
<clipPath id="clip1_3_6672">
<path d="M26 17C26 12.5817 29.5817 9 34 9H189.111C193.529 9 197.111 12.5817 197.111 17V141C197.111 145.418 193.529 149 189.111 149H34C29.5817 149 26 145.418 26 141V17Z" fill="white"/>
</clipPath>
<clipPath id="clip2_3_6672">
<rect width="171.111" height="77.7778" fill="white" transform="translate(26 37.8889)"/>
</clipPath>
</defs>
</svg>
