<svg width="298" height="280" viewBox="0 0 298 280" fill="none" xmlns="http://www.w3.org/2000/svg">
<g filter="url(#filter0_dd_1_16797)">
<g clip-path="url(#clip0_1_16797)">
<path d="M11 46.6331C11 42.6709 14.2121 39.4588 18.1743 39.4588H280.037C284 39.4588 287.212 42.6709 287.212 46.6331V258.276C287.212 262.238 284 265.45 280.037 265.45H18.1743C14.212 265.45 11 262.238 11 258.276V46.6331Z" fill="white"/>
<mask id="path-2-inside-1_1_16797" fill="white">
<path d="M11 39.4588H287.212V86.0919H11V39.4588Z"/>
</mask>
<path d="M11 39.4588H287.212V86.0919H11V39.4588Z" fill="white"/>
<path d="M287.212 85.1951H11V86.9887H287.212V85.1951Z" fill="#DADFE2" mask="url(#path-2-inside-1_1_16797)"/>
<path d="M26.9486 56.0791V71.0952H26.0569V56.0791H26.9486Z" fill="#032B3A"/>
<path d="M30.5576 68.1526V59.0217H33.6429C34.3592 59.0217 34.9447 59.151 35.3995 59.4096C35.8573 59.6652 36.1961 60.0115 36.416 60.4484C36.636 60.8853 36.746 61.3728 36.746 61.9108C36.746 62.4488 36.636 62.9377 36.416 63.3776C36.1991 63.8175 35.8632 64.1683 35.4084 64.4298C34.9537 64.6884 34.3711 64.8177 33.6607 64.8177H31.4493V63.8368H33.625C34.1155 63.8368 34.5093 63.7521 34.8065 63.5827C35.1038 63.4133 35.3193 63.1844 35.453 62.8961C35.5897 62.6048 35.6581 62.2764 35.6581 61.9108C35.6581 61.5452 35.5897 61.2182 35.453 60.9299C35.3193 60.6416 35.1023 60.4157 34.8021 60.2522C34.5019 60.0858 34.1036 60.0026 33.6072 60.0026H31.6633V68.1526H30.5576ZM39.4367 59.0217V68.1526H38.3845V59.0217H39.4367ZM43.3791 68.3132C42.9451 68.3132 42.5513 68.2314 42.1976 68.0679C41.8439 67.9015 41.563 67.6622 41.3549 67.3501C41.1469 67.0351 41.0428 66.6546 41.0428 66.2088C41.0428 65.8164 41.1201 65.4984 41.2747 65.2546C41.4292 65.0079 41.6358 64.8147 41.8944 64.675C42.153 64.5353 42.4383 64.4313 42.7504 64.3629C43.0655 64.2916 43.382 64.2351 43.7001 64.1935C44.1162 64.14 44.4536 64.0999 44.7122 64.0731C44.9737 64.0434 45.164 63.9944 45.2828 63.926C45.4047 63.8576 45.4656 63.7388 45.4656 63.5693V63.5337C45.4656 63.0938 45.3453 62.7519 45.1045 62.5082C44.8667 62.2645 44.5056 62.1426 44.0211 62.1426C43.5188 62.1426 43.1249 62.2526 42.8396 62.4725C42.5543 62.6925 42.3536 62.9273 42.2377 63.177L41.239 62.8203C41.4173 62.4042 41.6551 62.0802 41.9524 61.8484C42.2526 61.6135 42.5795 61.4501 42.9332 61.3579C43.2899 61.2628 43.6406 61.2153 43.9854 61.2153C44.2054 61.2153 44.458 61.242 44.7434 61.2955C45.0317 61.346 45.3096 61.4516 45.5771 61.6121C45.8476 61.7726 46.072 62.0148 46.2503 62.3388C46.4287 62.6628 46.5178 63.0967 46.5178 63.6407V68.1526H45.4656V67.2253H45.4121C45.3408 67.3739 45.2219 67.5329 45.0555 67.7023C44.889 67.8718 44.6676 68.0159 44.3911 68.1348C44.1147 68.2537 43.7774 68.3132 43.3791 68.3132ZM43.5396 67.368C43.9557 67.368 44.3064 67.2862 44.5918 67.1227C44.8801 66.9593 45.0971 66.7482 45.2427 66.4896C45.3913 66.231 45.4656 65.9591 45.4656 65.6737V64.7107C45.4211 64.7642 45.323 64.8132 45.1714 64.8578C45.0228 64.8994 44.8504 64.9366 44.6542 64.9693C44.461 64.999 44.2723 65.0258 44.088 65.0495C43.9067 65.0704 43.7595 65.0882 43.6466 65.103C43.3731 65.1387 43.1175 65.1967 42.8797 65.2769C42.6449 65.3542 42.4547 65.4716 42.309 65.6292C42.1664 65.7837 42.095 65.9947 42.095 66.2623C42.095 66.6278 42.2303 66.9043 42.5008 67.0915C42.7742 67.2758 43.1205 67.368 43.5396 67.368ZM51.2204 68.2953C50.5784 68.2953 50.0255 68.1437 49.5619 67.8406C49.0982 67.5374 48.7415 67.1198 48.4918 66.5877C48.2422 66.0557 48.1173 65.4478 48.1173 64.7642C48.1173 64.0687 48.2451 63.4549 48.5007 62.9229C48.7593 62.3878 49.119 61.9702 49.5797 61.67C50.0434 61.3668 50.5843 61.2153 51.2026 61.2153C51.6841 61.2153 52.1181 61.3044 52.5045 61.4828C52.8909 61.6611 53.2074 61.9108 53.4541 62.2318C53.7008 62.5528 53.8539 62.9273 53.9133 63.3553H52.8611C52.7809 63.0432 52.6025 62.7668 52.3261 62.526C52.0527 62.2823 51.6841 62.1605 51.2204 62.1605C50.8102 62.1605 50.4506 62.2675 50.1415 62.4815C49.8353 62.6925 49.596 62.9912 49.4237 63.3776C49.2542 63.761 49.1695 64.2114 49.1695 64.7285C49.1695 65.2576 49.2527 65.7183 49.4192 66.1107C49.5886 66.503 49.8264 66.8077 50.1326 67.0247C50.4417 67.2416 50.8043 67.3501 51.2204 67.3501C51.4939 67.3501 51.7421 67.3026 51.965 67.2075C52.1879 67.1123 52.3767 66.9756 52.5312 66.7973C52.6858 66.6189 52.7958 66.4049 52.8611 66.1553H53.9133C53.8539 66.5595 53.7068 66.9236 53.472 67.2476C53.2401 67.5686 52.9325 67.8242 52.549 68.0144C52.1686 68.2017 51.7257 68.2953 51.2204 68.2953ZM58.3228 68.2953C57.6629 68.2953 57.0937 68.1497 56.6152 67.8584C56.1396 67.5641 55.7725 67.1539 55.5139 66.6278C55.2583 66.0988 55.1305 65.4835 55.1305 64.782C55.1305 64.0806 55.2583 63.4623 55.5139 62.9273C55.7725 62.3893 56.1322 61.9702 56.5929 61.67C57.0566 61.3668 57.5975 61.2153 58.2158 61.2153C58.5725 61.2153 58.9247 61.2747 59.2724 61.3936C59.6202 61.5125 59.9367 61.7057 60.2221 61.9732C60.5074 62.2377 60.7348 62.5885 60.9042 63.0254C61.0737 63.4623 61.1584 64.0003 61.1584 64.6394V65.0852H55.8795V64.1757H60.0883C60.0883 63.7893 60.0111 63.4445 59.8565 63.1413C59.7049 62.8381 59.4879 62.5989 59.2056 62.4235C58.9262 62.2481 58.5962 62.1605 58.2158 62.1605C57.7967 62.1605 57.4341 62.2645 57.1279 62.4725C56.8247 62.6776 56.5914 62.9451 56.4279 63.2751C56.2644 63.605 56.1827 63.9587 56.1827 64.3362V64.9425C56.1827 65.4597 56.2719 65.8981 56.4502 66.2578C56.6315 66.6145 56.8827 66.8864 57.2037 67.0737C57.5247 67.258 57.8977 67.3501 58.3228 67.3501C58.5992 67.3501 58.8489 67.3115 59.0718 67.2342C59.2977 67.1539 59.4924 67.0351 59.6559 66.8775C59.8193 66.717 59.9457 66.5179 60.0348 66.2801L61.0514 66.5654C60.9444 66.9102 60.7645 67.2134 60.5119 67.475C60.2592 67.7336 59.9472 67.9357 59.5756 68.0813C59.2041 68.224 58.7865 68.2953 58.3228 68.2953ZM63.8112 64.033V68.1526H62.759V59.0217H63.8112V62.3745H63.9003C64.0608 62.0208 64.3016 61.7399 64.6226 61.5318C64.9466 61.3208 65.3776 61.2153 65.9156 61.2153C66.3822 61.2153 66.7909 61.3089 67.1416 61.4961C67.4924 61.6804 67.7643 61.9643 67.9575 62.3477C68.1537 62.7282 68.2518 63.2127 68.2518 63.8012V68.1526H67.1996V63.8725C67.1996 63.3286 67.0584 62.908 66.7761 62.6108C66.4967 62.3106 66.1088 62.1605 65.6124 62.1605C65.2676 62.1605 64.9585 62.2333 64.685 62.3789C64.4145 62.5246 64.2005 62.7371 64.043 63.0165C63.8884 63.2959 63.8112 63.6347 63.8112 64.033ZM72.9588 68.2953C72.3406 68.2953 71.7982 68.1482 71.3315 67.8539C70.8678 67.5597 70.5052 67.148 70.2436 66.6189C69.985 66.0899 69.8557 65.4716 69.8557 64.7642C69.8557 64.0508 69.985 63.4281 70.2436 62.8961C70.5052 62.3641 70.8678 61.9509 71.3315 61.6566C71.7982 61.3624 72.3406 61.2153 72.9588 61.2153C73.5771 61.2153 74.118 61.3624 74.5817 61.6566C75.0484 61.9509 75.411 62.3641 75.6696 62.8961C75.9312 63.4281 76.0619 64.0508 76.0619 64.7642C76.0619 65.4716 75.9312 66.0899 75.6696 66.6189C75.411 67.148 75.0484 67.5597 74.5817 67.8539C74.118 68.1482 73.5771 68.2953 72.9588 68.2953ZM72.9588 67.3501C73.4285 67.3501 73.8149 67.2297 74.118 66.989C74.4212 66.7482 74.6456 66.4317 74.7913 66.0393C74.9369 65.647 75.0097 65.2219 75.0097 64.7642C75.0097 64.3065 74.9369 63.8799 74.7913 63.4846C74.6456 63.0893 74.4212 62.7698 74.118 62.526C73.8149 62.2823 73.4285 62.1605 72.9588 62.1605C72.4892 62.1605 72.1028 62.2823 71.7996 62.526C71.4965 62.7698 71.2721 63.0893 71.1264 63.4846C70.9808 63.8799 70.9079 64.3065 70.9079 64.7642C70.9079 65.2219 70.9808 65.647 71.1264 66.0393C71.2721 66.4317 71.4965 66.7482 71.7996 66.989C72.1028 67.2297 72.4892 67.3501 72.9588 67.3501ZM78.7203 59.0217V68.1526H77.6681V59.0217H78.7203ZM83.2334 68.2953C82.6627 68.2953 82.1589 68.1512 81.722 67.8628C81.2851 67.5716 80.9432 67.1614 80.6965 66.6323C80.4498 66.1003 80.3265 65.4716 80.3265 64.7464C80.3265 64.0271 80.4498 63.4029 80.6965 62.8738C80.9432 62.3447 81.2865 61.936 81.7264 61.6477C82.1663 61.3594 82.6746 61.2153 83.2512 61.2153C83.6971 61.2153 84.0493 61.2896 84.3079 61.4382C84.5695 61.5838 84.7686 61.7503 84.9053 61.9375C85.045 62.1218 85.1535 62.2734 85.2308 62.3923H85.32V59.0217H86.3722V68.1526H85.3556V67.1004H85.2308C85.1535 67.2253 85.0436 67.3828 84.9009 67.573C84.7582 67.7603 84.5546 67.9282 84.2901 68.0769C84.0255 68.2225 83.6733 68.2953 83.2334 68.2953ZM83.3761 67.3501C83.7981 67.3501 84.1548 67.2401 84.4461 67.0202C84.7374 66.7973 84.9588 66.4896 85.1104 66.0973C85.262 65.702 85.3378 65.2457 85.3378 64.7285C85.3378 64.2173 85.2635 63.77 85.1149 63.3865C84.9663 63.0001 84.7463 62.6999 84.455 62.4859C84.1637 62.2689 83.8041 62.1605 83.3761 62.1605C82.9302 62.1605 82.5587 62.2749 82.2615 62.5038C81.9672 62.7297 81.7458 63.0373 81.5971 63.4267C81.4515 63.8131 81.3787 64.247 81.3787 64.7285C81.3787 65.216 81.453 65.6589 81.6016 66.0572C81.7532 66.4525 81.9761 66.7675 82.2704 67.0024C82.5676 67.2342 82.9362 67.3501 83.3761 67.3501ZM91.3166 68.2953C90.6568 68.2953 90.0876 68.1497 89.609 67.8584C89.1335 67.5641 88.7664 67.1539 88.5078 66.6278C88.2522 66.0988 88.1244 65.4835 88.1244 64.782C88.1244 64.0806 88.2522 63.4623 88.5078 62.9273C88.7664 62.3893 89.126 61.9702 89.5867 61.67C90.0504 61.3668 90.5914 61.2153 91.2096 61.2153C91.5663 61.2153 91.9185 61.2747 92.2663 61.3936C92.614 61.5125 92.9306 61.7057 93.2159 61.9732C93.5013 62.2377 93.7287 62.5885 93.8981 63.0254C94.0675 63.4623 94.1522 64.0003 94.1522 64.6394V65.0852H88.8734V64.1757H93.0822C93.0822 63.7893 93.0049 63.4445 92.8503 63.1413C92.6988 62.8381 92.4818 62.5989 92.1994 62.4235C91.92 62.2481 91.5901 62.1605 91.2096 62.1605C90.7905 62.1605 90.4279 62.2645 90.1218 62.4725C89.8186 62.6776 89.5853 62.9451 89.4218 63.2751C89.2583 63.605 89.1766 63.9587 89.1766 64.3362V64.9425C89.1766 65.4597 89.2657 65.8981 89.4441 66.2578C89.6254 66.6145 89.8765 66.8864 90.1976 67.0737C90.5186 67.258 90.8916 67.3501 91.3166 67.3501C91.5931 67.3501 91.8427 67.3115 92.0657 67.2342C92.2915 67.1539 92.4862 67.0351 92.6497 66.8775C92.8132 66.717 92.9395 66.5179 93.0287 66.2801L94.0452 66.5654C93.9382 66.9102 93.7584 67.2134 93.5057 67.475C93.2531 67.7336 92.941 67.9357 92.5695 68.0813C92.1979 68.224 91.7803 68.2953 91.3166 68.2953ZM95.7528 68.1526V61.3044H96.7693V62.3388H96.8407C96.9655 61.9999 97.1914 61.725 97.5184 61.514C97.8453 61.3029 98.2139 61.1974 98.6241 61.1974C98.7014 61.1974 98.798 61.1989 98.9139 61.2019C99.0298 61.2049 99.1175 61.2093 99.1769 61.2153V62.2853C99.1413 62.2764 99.0595 62.263 98.9317 62.2452C98.8069 62.2244 98.6746 62.214 98.5349 62.214C98.202 62.214 97.9048 62.2838 97.6432 62.4235C97.3846 62.5602 97.1795 62.7505 97.0279 62.9942C96.8793 63.2349 96.805 63.5099 96.805 63.819V68.1526H95.7528Z" fill="#627A84"/>
<g clip-path="url(#clip1_1_16797)">
<path d="M34.2834 106.256C34.2834 107.231 34.1051 108.069 33.7484 108.77C33.3917 109.469 32.9028 110.007 32.2816 110.384C31.6633 110.759 30.9604 110.946 30.1727 110.946C29.3821 110.946 28.6761 110.759 28.0549 110.384C27.4367 110.007 26.9492 109.467 26.5925 108.766C26.2359 108.064 26.0575 107.228 26.0575 106.256C26.0575 105.281 26.2359 104.444 26.5925 103.746C26.9492 103.044 27.4367 102.506 28.0549 102.132C28.6761 101.754 29.3821 101.566 30.1727 101.566C30.9604 101.566 31.6633 101.754 32.2816 102.132C32.9028 102.506 33.3917 103.044 33.7484 103.746C34.1051 104.444 34.2834 105.281 34.2834 106.256ZM32.9191 106.256C32.9191 105.513 32.7987 104.887 32.558 104.379C32.3202 103.868 31.9933 103.481 31.5771 103.22C31.164 102.955 30.6958 102.823 30.1727 102.823C29.6466 102.823 29.177 102.955 28.7638 103.22C28.3507 103.481 28.0237 103.868 27.783 104.379C27.5452 104.887 27.4263 105.513 27.4263 106.256C27.4263 106.999 27.5452 107.626 27.783 108.137C28.0237 108.646 28.3507 109.032 28.7638 109.297C29.177 109.558 29.6466 109.689 30.1727 109.689C30.6958 109.689 31.164 109.558 31.5771 109.297C31.9933 109.032 32.3202 108.646 32.558 108.137C32.7987 107.626 32.9191 106.999 32.9191 106.256ZM35.894 113.389V103.973H37.1959V105.083H37.3074C37.3847 104.941 37.4961 104.776 37.6418 104.588C37.7874 104.401 37.9895 104.238 38.2481 104.098C38.5067 103.955 38.8485 103.884 39.2736 103.884C39.8264 103.884 40.3198 104.024 40.7538 104.303C41.1877 104.582 41.5281 104.985 41.7748 105.511C42.0245 106.037 42.1493 106.67 42.1493 107.411C42.1493 108.151 42.0259 108.785 41.7792 109.314C41.5325 109.84 41.1937 110.246 40.7627 110.532C40.3317 110.814 39.8398 110.955 39.2869 110.955C38.8708 110.955 38.5305 110.885 38.266 110.746C38.0044 110.606 37.7993 110.442 37.6507 110.255C37.5021 110.068 37.3876 109.901 37.3074 109.756H37.2271V113.389H35.894ZM37.2004 107.397C37.2004 107.879 37.2702 108.301 37.4099 108.663C37.5496 109.026 37.7517 109.31 38.0163 109.515C38.2808 109.717 38.6048 109.818 38.9882 109.818C39.3865 109.818 39.7194 109.713 39.9869 109.502C40.2544 109.288 40.4566 108.998 40.5933 108.632C40.733 108.267 40.8028 107.855 40.8028 107.397C40.8028 106.945 40.7345 106.54 40.5977 106.18C40.464 105.82 40.2619 105.537 39.9914 105.328C39.7239 105.12 39.3895 105.016 38.9882 105.016C38.6018 105.016 38.2749 105.116 38.0074 105.315C37.7428 105.514 37.5422 105.792 37.4055 106.149C37.2687 106.506 37.2004 106.922 37.2004 107.397ZM46.8396 103.973V105.043H43.0989V103.973H46.8396ZM44.1021 102.332H45.4352V108.811C45.4352 109.069 45.4738 109.264 45.5511 109.395C45.6284 109.522 45.728 109.61 45.8498 109.658C45.9747 109.702 46.1099 109.725 46.2555 109.725C46.3626 109.725 46.4562 109.717 46.5364 109.702C46.6167 109.687 46.6791 109.675 46.7237 109.667L46.9644 110.768C46.8872 110.798 46.7772 110.827 46.6345 110.857C46.4918 110.89 46.3135 110.908 46.0995 110.91C45.7488 110.916 45.4218 110.854 45.1186 110.723C44.8155 110.592 44.5702 110.39 44.383 110.117C44.1957 109.843 44.1021 109.5 44.1021 109.087V102.332ZM48.3143 110.821V103.973H49.6473V110.821H48.3143ZM48.9875 102.916C48.7556 102.916 48.5565 102.839 48.39 102.685C48.2266 102.527 48.1448 102.34 48.1448 102.123C48.1448 101.903 48.2266 101.716 48.39 101.561C48.5565 101.404 48.7556 101.325 48.9875 101.325C49.2193 101.325 49.417 101.404 49.5805 101.561C49.7469 101.716 49.8301 101.903 49.8301 102.123C49.8301 102.34 49.7469 102.527 49.5805 102.685C49.417 102.839 49.2193 102.916 48.9875 102.916ZM54.3254 110.96C53.6834 110.96 53.1231 110.812 52.6445 110.518C52.166 110.224 51.7945 109.812 51.5299 109.283C51.2654 108.754 51.1331 108.136 51.1331 107.428C51.1331 106.718 51.2654 106.097 51.5299 105.565C51.7945 105.033 52.166 104.62 52.6445 104.325C53.1231 104.031 53.6834 103.884 54.3254 103.884C54.9674 103.884 55.5277 104.031 56.0062 104.325C56.4848 104.62 56.8563 105.033 57.1209 105.565C57.3854 106.097 57.5177 106.718 57.5177 107.428C57.5177 108.136 57.3854 108.754 57.1209 109.283C56.8563 109.812 56.4848 110.224 56.0062 110.518C55.5277 110.812 54.9674 110.96 54.3254 110.96ZM54.3299 109.84C54.746 109.84 55.0908 109.73 55.3642 109.511C55.6377 109.291 55.8398 108.998 55.9706 108.632C56.1043 108.267 56.1712 107.864 56.1712 107.424C56.1712 106.987 56.1043 106.586 55.9706 106.22C55.8398 105.852 55.6377 105.556 55.3642 105.333C55.0908 105.11 54.746 104.999 54.3299 104.999C53.9108 104.999 53.563 105.11 53.2866 105.333C53.0131 105.556 52.8095 105.852 52.6758 106.22C52.545 106.586 52.4796 106.987 52.4796 107.424C52.4796 107.864 52.545 108.267 52.6758 108.632C52.8095 108.998 53.0131 109.291 53.2866 109.511C53.563 109.73 53.9108 109.84 54.3299 109.84ZM60.3388 106.755V110.821H59.0057V103.973H60.2853V105.088H60.37C60.5275 104.725 60.7742 104.434 61.1101 104.214C61.4489 103.994 61.8755 103.884 62.3897 103.884C62.8563 103.884 63.265 103.982 63.6157 104.178C63.9665 104.371 64.2384 104.66 64.4316 105.043C64.6249 105.427 64.7215 105.901 64.7215 106.465V110.821H63.3884V106.626C63.3884 106.13 63.2591 105.742 63.0005 105.462C62.7419 105.18 62.3867 105.039 61.9349 105.039C61.6258 105.039 61.3508 105.106 61.1101 105.239C60.8723 105.373 60.6836 105.569 60.5439 105.828C60.4071 106.083 60.3388 106.393 60.3388 106.755ZM71.1651 101.69V110.821H69.832V101.69H71.1651ZM74.9514 110.973C74.5175 110.973 74.1251 110.893 73.7744 110.732C73.4237 110.569 73.1457 110.332 72.9407 110.023C72.7385 109.714 72.6375 109.335 72.6375 108.886C72.6375 108.5 72.7118 108.182 72.8604 107.932C73.009 107.683 73.2097 107.485 73.4623 107.339C73.7149 107.194 73.9973 107.084 74.3094 107.009C74.6215 106.935 74.9395 106.879 75.2635 106.84C75.6737 106.792 76.0066 106.754 76.2622 106.724C76.5178 106.691 76.7036 106.639 76.8195 106.568C76.9355 106.497 76.9934 106.381 76.9934 106.22V106.189C76.9934 105.8 76.8834 105.498 76.6635 105.284C76.4465 105.07 76.1225 104.963 75.6915 104.963C75.2427 104.963 74.889 105.062 74.6304 105.262C74.3748 105.458 74.1979 105.676 74.0999 105.917L72.847 105.632C72.9956 105.216 73.2126 104.88 73.498 104.624C73.7863 104.365 74.1177 104.178 74.4922 104.062C74.8667 103.943 75.2606 103.884 75.6737 103.884C75.9472 103.884 76.237 103.917 76.5431 103.982C76.8522 104.044 77.1405 104.16 77.4081 104.33C77.6785 104.499 77.9 104.741 78.0724 105.057C78.2448 105.369 78.331 105.774 78.331 106.274V110.821H77.0291V109.885H76.9756C76.8894 110.057 76.7601 110.227 76.5877 110.393C76.4153 110.56 76.1939 110.698 75.9234 110.808C75.6529 110.918 75.3289 110.973 74.9514 110.973ZM75.2412 109.903C75.6098 109.903 75.9249 109.83 76.1864 109.684C76.451 109.539 76.6516 109.349 76.7883 109.114C76.928 108.876 76.9979 108.622 76.9979 108.351V107.469C76.9503 107.516 76.8582 107.561 76.7214 107.602C76.5877 107.641 76.4346 107.675 76.2622 107.705C76.0898 107.732 75.9219 107.757 75.7584 107.781C75.5949 107.801 75.4582 107.819 75.3482 107.834C75.0896 107.867 74.8533 107.922 74.6393 107.999C74.4283 108.076 74.2589 108.188 74.1311 108.333C74.0062 108.476 73.9438 108.666 73.9438 108.904C73.9438 109.234 74.0657 109.484 74.3094 109.653C74.5531 109.82 74.8637 109.903 75.2412 109.903ZM80.2135 110.821V101.69H81.5466V105.083H81.6269C81.7042 104.941 81.8156 104.776 81.9613 104.588C82.1069 104.401 82.309 104.238 82.5676 104.098C82.8262 103.955 83.168 103.884 83.5931 103.884C84.1459 103.884 84.6393 104.024 85.0733 104.303C85.5072 104.582 85.8476 104.985 86.0943 105.511C86.344 106.037 86.4688 106.67 86.4688 107.411C86.4688 108.151 86.3454 108.785 86.0987 109.314C85.852 109.84 85.5132 110.246 85.0822 110.532C84.6512 110.814 84.1593 110.955 83.6064 110.955C83.1903 110.955 82.85 110.885 82.5855 110.746C82.3239 110.606 82.1188 110.442 81.9702 110.255C81.8216 110.068 81.7071 109.901 81.6269 109.756H81.5154V110.821H80.2135ZM81.5199 107.397C81.5199 107.879 81.5897 108.301 81.7294 108.663C81.8691 109.026 82.0712 109.31 82.3358 109.515C82.6003 109.717 82.9243 109.818 83.3077 109.818C83.706 109.818 84.0389 109.713 84.3064 109.502C84.5739 109.288 84.7761 108.998 84.9128 108.632C85.0525 108.267 85.1223 107.855 85.1223 107.397C85.1223 106.945 85.054 106.54 84.9172 106.18C84.7835 105.82 84.5814 105.537 84.3109 105.328C84.0434 105.12 83.709 105.016 83.3077 105.016C82.9213 105.016 82.5944 105.116 82.3269 105.315C82.0623 105.514 81.8617 105.792 81.725 106.149C81.5882 106.506 81.5199 106.922 81.5199 107.397ZM90.9172 110.96C90.2425 110.96 89.6614 110.815 89.174 110.527C88.6895 110.236 88.315 109.827 88.0504 109.301C87.7889 108.772 87.6581 108.152 87.6581 107.442C87.6581 106.74 87.7889 106.122 88.0504 105.587C88.315 105.052 88.6835 104.634 89.1561 104.334C89.6317 104.034 90.1875 103.884 90.8236 103.884C91.21 103.884 91.5845 103.948 91.9471 104.076C92.3098 104.203 92.6352 104.404 92.9236 104.678C93.2119 104.951 93.4393 105.306 93.6057 105.743C93.7722 106.177 93.8554 106.705 93.8554 107.326V107.798H88.4116V106.8H92.549C92.549 106.449 92.4777 106.138 92.335 105.868C92.1924 105.594 91.9917 105.379 91.7331 105.221C91.4775 105.064 91.1773 104.985 90.8325 104.985C90.458 104.985 90.1311 105.077 89.8517 105.262C89.5752 105.443 89.3612 105.681 89.2096 105.975C89.061 106.266 88.9867 106.583 88.9867 106.925V107.705C88.9867 108.163 89.067 108.552 89.2275 108.873C89.391 109.194 89.6183 109.439 89.9096 109.609C90.2009 109.775 90.5412 109.858 90.9306 109.858C91.1833 109.858 91.4136 109.823 91.6217 109.751C91.8297 109.677 92.0096 109.567 92.1612 109.421C92.3127 109.276 92.4287 109.096 92.5089 108.882L93.7707 109.109C93.6696 109.481 93.4883 109.806 93.2267 110.086C92.9681 110.362 92.6427 110.578 92.2503 110.732C91.861 110.884 91.4166 110.96 90.9172 110.96ZM96.6676 101.69V110.821H95.3345V101.69H96.6676Z" fill="#032B3A"/>
<path d="M34.2834 149.302C34.2834 150.277 34.1051 151.115 33.7484 151.816C33.3917 152.515 32.9028 153.053 32.2816 153.43C31.6633 153.805 30.9604 153.992 30.1727 153.992C29.3821 153.992 28.6761 153.805 28.0549 153.43C27.4367 153.053 26.9492 152.513 26.5925 151.812C26.2359 151.11 26.0575 150.274 26.0575 149.302C26.0575 148.327 26.2359 147.49 26.5925 146.792C26.9492 146.09 27.4367 145.552 28.0549 145.178C28.6761 144.8 29.3821 144.612 30.1727 144.612C30.9604 144.612 31.6633 144.8 32.2816 145.178C32.9028 145.552 33.3917 146.09 33.7484 146.792C34.1051 147.49 34.2834 148.327 34.2834 149.302ZM32.9191 149.302C32.9191 148.559 32.7987 147.933 32.558 147.425C32.3202 146.914 31.9933 146.527 31.5771 146.266C31.164 146.001 30.6958 145.869 30.1727 145.869C29.6466 145.869 29.177 146.001 28.7638 146.266C28.3507 146.527 28.0237 146.914 27.783 147.425C27.5452 147.933 27.4263 148.559 27.4263 149.302C27.4263 150.045 27.5452 150.672 27.783 151.183C28.0237 151.692 28.3507 152.078 28.7638 152.343C29.177 152.604 29.6466 152.735 30.1727 152.735C30.6958 152.735 31.164 152.604 31.5771 152.343C31.9933 152.078 32.3202 151.692 32.558 151.183C32.7987 150.672 32.9191 150.045 32.9191 149.302ZM35.894 156.435V147.019H37.1959V148.129H37.3074C37.3847 147.987 37.4961 147.822 37.6418 147.634C37.7874 147.447 37.9895 147.284 38.2481 147.144C38.5067 147.001 38.8485 146.93 39.2736 146.93C39.8264 146.93 40.3198 147.07 40.7538 147.349C41.1877 147.628 41.5281 148.031 41.7748 148.557C42.0245 149.083 42.1493 149.716 42.1493 150.457C42.1493 151.197 42.0259 151.831 41.7792 152.36C41.5325 152.886 41.1937 153.292 40.7627 153.578C40.3317 153.86 39.8398 154.001 39.2869 154.001C38.8708 154.001 38.5305 153.931 38.266 153.792C38.0044 153.652 37.7993 153.488 37.6507 153.301C37.5021 153.114 37.3876 152.947 37.3074 152.802H37.2271V156.435H35.894ZM37.2004 150.443C37.2004 150.925 37.2702 151.347 37.4099 151.709C37.5496 152.072 37.7517 152.356 38.0163 152.561C38.2808 152.763 38.6048 152.864 38.9882 152.864C39.3865 152.864 39.7194 152.759 39.9869 152.548C40.2544 152.334 40.4566 152.044 40.5933 151.678C40.733 151.313 40.8028 150.901 40.8028 150.443C40.8028 149.991 40.7345 149.586 40.5977 149.226C40.464 148.866 40.2619 148.583 39.9914 148.374C39.7239 148.166 39.3895 148.062 38.9882 148.062C38.6018 148.062 38.2749 148.162 38.0074 148.361C37.7428 148.56 37.5422 148.838 37.4055 149.195C37.2687 149.552 37.2004 149.968 37.2004 150.443ZM46.8396 147.019V148.089H43.0989V147.019H46.8396ZM44.1021 145.378H45.4352V151.857C45.4352 152.115 45.4738 152.31 45.5511 152.441C45.6284 152.568 45.728 152.656 45.8498 152.704C45.9747 152.748 46.1099 152.771 46.2555 152.771C46.3626 152.771 46.4562 152.763 46.5364 152.748C46.6167 152.733 46.6791 152.721 46.7237 152.713L46.9644 153.814C46.8872 153.844 46.7772 153.873 46.6345 153.903C46.4918 153.936 46.3135 153.954 46.0995 153.956C45.7488 153.962 45.4218 153.9 45.1186 153.769C44.8155 153.638 44.5702 153.436 44.383 153.163C44.1957 152.889 44.1021 152.546 44.1021 152.133V145.378ZM48.3143 153.867V147.019H49.6473V153.867H48.3143ZM48.9875 145.962C48.7556 145.962 48.5565 145.885 48.39 145.731C48.2266 145.573 48.1448 145.386 48.1448 145.169C48.1448 144.949 48.2266 144.762 48.39 144.607C48.5565 144.45 48.7556 144.371 48.9875 144.371C49.2193 144.371 49.417 144.45 49.5805 144.607C49.7469 144.762 49.8301 144.949 49.8301 145.169C49.8301 145.386 49.7469 145.573 49.5805 145.731C49.417 145.885 49.2193 145.962 48.9875 145.962ZM54.3254 154.006C53.6834 154.006 53.1231 153.858 52.6445 153.564C52.166 153.27 51.7945 152.858 51.5299 152.329C51.2654 151.8 51.1331 151.182 51.1331 150.474C51.1331 149.764 51.2654 149.143 51.5299 148.611C51.7945 148.079 52.166 147.666 52.6445 147.371C53.1231 147.077 53.6834 146.93 54.3254 146.93C54.9674 146.93 55.5277 147.077 56.0062 147.371C56.4848 147.666 56.8563 148.079 57.1209 148.611C57.3854 149.143 57.5177 149.764 57.5177 150.474C57.5177 151.182 57.3854 151.8 57.1209 152.329C56.8563 152.858 56.4848 153.27 56.0062 153.564C55.5277 153.858 54.9674 154.006 54.3254 154.006ZM54.3299 152.886C54.746 152.886 55.0908 152.776 55.3642 152.557C55.6377 152.337 55.8398 152.044 55.9706 151.678C56.1043 151.313 56.1712 150.91 56.1712 150.47C56.1712 150.033 56.1043 149.632 55.9706 149.266C55.8398 148.898 55.6377 148.602 55.3642 148.379C55.0908 148.156 54.746 148.045 54.3299 148.045C53.9108 148.045 53.563 148.156 53.2866 148.379C53.0131 148.602 52.8095 148.898 52.6758 149.266C52.545 149.632 52.4796 150.033 52.4796 150.47C52.4796 150.91 52.545 151.313 52.6758 151.678C52.8095 152.044 53.0131 152.337 53.2866 152.557C53.563 152.776 53.9108 152.886 54.3299 152.886ZM60.3388 149.801V153.867H59.0057V147.019H60.2853V148.134H60.37C60.5275 147.771 60.7742 147.48 61.1101 147.26C61.4489 147.04 61.8755 146.93 62.3897 146.93C62.8563 146.93 63.265 147.028 63.6157 147.224C63.9665 147.417 64.2384 147.706 64.4316 148.089C64.6249 148.473 64.7215 148.947 64.7215 149.511V153.867H63.3884V149.672C63.3884 149.176 63.2591 148.788 63.0005 148.508C62.7419 148.226 62.3867 148.085 61.9349 148.085C61.6258 148.085 61.3508 148.152 61.1101 148.285C60.8723 148.419 60.6836 148.615 60.5439 148.874C60.4071 149.129 60.3388 149.439 60.3388 149.801ZM71.1651 144.736V153.867H69.832V144.736H71.1651ZM74.9514 154.019C74.5175 154.019 74.1251 153.939 73.7744 153.778C73.4237 153.615 73.1457 153.378 72.9407 153.069C72.7385 152.76 72.6375 152.381 72.6375 151.932C72.6375 151.546 72.7118 151.228 72.8604 150.978C73.009 150.729 73.2097 150.531 73.4623 150.385C73.7149 150.24 73.9973 150.13 74.3094 150.055C74.6215 149.981 74.9395 149.925 75.2635 149.886C75.6737 149.838 76.0066 149.8 76.2622 149.77C76.5178 149.737 76.7036 149.685 76.8195 149.614C76.9355 149.543 76.9934 149.427 76.9934 149.266V149.235C76.9934 148.846 76.8834 148.544 76.6635 148.33C76.4465 148.116 76.1225 148.009 75.6915 148.009C75.2427 148.009 74.889 148.108 74.6304 148.308C74.3748 148.504 74.1979 148.722 74.0999 148.963L72.847 148.678C72.9956 148.262 73.2126 147.926 73.498 147.67C73.7863 147.411 74.1177 147.224 74.4922 147.108C74.8667 146.989 75.2606 146.93 75.6737 146.93C75.9472 146.93 76.237 146.963 76.5431 147.028C76.8522 147.09 77.1405 147.206 77.4081 147.376C77.6785 147.545 77.9 147.787 78.0724 148.102C78.2448 148.415 78.331 148.82 78.331 149.32V153.867H77.0291V152.931H76.9756C76.8894 153.103 76.7601 153.273 76.5877 153.439C76.4153 153.606 76.1939 153.744 75.9234 153.854C75.6529 153.964 75.3289 154.019 74.9514 154.019ZM75.2412 152.949C75.6098 152.949 75.9249 152.876 76.1864 152.73C76.451 152.585 76.6516 152.395 76.7883 152.16C76.928 151.922 76.9979 151.668 76.9979 151.397V150.515C76.9503 150.562 76.8582 150.607 76.7214 150.648C76.5877 150.687 76.4346 150.721 76.2622 150.751C76.0898 150.778 75.9219 150.803 75.7584 150.827C75.5949 150.847 75.4582 150.865 75.3482 150.88C75.0896 150.913 74.8533 150.968 74.6393 151.045C74.4283 151.122 74.2589 151.234 74.1311 151.379C74.0062 151.522 73.9438 151.712 73.9438 151.95C73.9438 152.28 74.0657 152.53 74.3094 152.699C74.5531 152.866 74.8637 152.949 75.2412 152.949ZM80.2135 153.867V144.736H81.5466V148.129H81.6269C81.7042 147.987 81.8156 147.822 81.9613 147.634C82.1069 147.447 82.309 147.284 82.5676 147.144C82.8262 147.001 83.168 146.93 83.5931 146.93C84.1459 146.93 84.6393 147.07 85.0733 147.349C85.5072 147.628 85.8476 148.031 86.0943 148.557C86.344 149.083 86.4688 149.716 86.4688 150.457C86.4688 151.197 86.3454 151.831 86.0987 152.36C85.852 152.886 85.5132 153.292 85.0822 153.578C84.6512 153.86 84.1593 154.001 83.6064 154.001C83.1903 154.001 82.85 153.931 82.5855 153.792C82.3239 153.652 82.1188 153.488 81.9702 153.301C81.8216 153.114 81.7071 152.947 81.6269 152.802H81.5154V153.867H80.2135ZM81.5199 150.443C81.5199 150.925 81.5897 151.347 81.7294 151.709C81.8691 152.072 82.0712 152.356 82.3358 152.561C82.6003 152.763 82.9243 152.864 83.3077 152.864C83.706 152.864 84.0389 152.759 84.3064 152.548C84.5739 152.334 84.7761 152.044 84.9128 151.678C85.0525 151.313 85.1223 150.901 85.1223 150.443C85.1223 149.991 85.054 149.586 84.9172 149.226C84.7835 148.866 84.5814 148.583 84.3109 148.374C84.0434 148.166 83.709 148.062 83.3077 148.062C82.9213 148.062 82.5944 148.162 82.3269 148.361C82.0623 148.56 81.8617 148.838 81.725 149.195C81.5882 149.552 81.5199 149.968 81.5199 150.443ZM90.9172 154.006C90.2425 154.006 89.6614 153.861 89.174 153.573C88.6895 153.282 88.315 152.873 88.0504 152.347C87.7889 151.818 87.6581 151.198 87.6581 150.488C87.6581 149.786 87.7889 149.168 88.0504 148.633C88.315 148.098 88.6835 147.68 89.1561 147.38C89.6317 147.08 90.1875 146.93 90.8236 146.93C91.21 146.93 91.5845 146.994 91.9471 147.122C92.3098 147.249 92.6352 147.45 92.9236 147.724C93.2119 147.997 93.4393 148.352 93.6057 148.789C93.7722 149.223 93.8554 149.751 93.8554 150.372V150.844H88.4116V149.846H92.549C92.549 149.495 92.4777 149.184 92.335 148.914C92.1924 148.64 91.9917 148.425 91.7331 148.267C91.4775 148.11 91.1773 148.031 90.8325 148.031C90.458 148.031 90.1311 148.123 89.8517 148.308C89.5752 148.489 89.3612 148.727 89.2096 149.021C89.061 149.312 88.9867 149.629 88.9867 149.971V150.751C88.9867 151.209 89.067 151.598 89.2275 151.919C89.391 152.24 89.6183 152.485 89.9096 152.655C90.2009 152.821 90.5412 152.904 90.9306 152.904C91.1833 152.904 91.4136 152.869 91.6217 152.797C91.8297 152.723 92.0096 152.613 92.1612 152.467C92.3127 152.322 92.4287 152.142 92.5089 151.928L93.7707 152.155C93.6696 152.527 93.4883 152.852 93.2267 153.132C92.9681 153.408 92.6427 153.624 92.2503 153.778C91.861 153.93 91.4166 154.006 90.9172 154.006ZM96.6676 144.736V153.867H95.3345V144.736H96.6676Z" fill="#032B3A"/>
<path d="M255.557 148.893C255.475 148.807 255.376 148.739 255.266 148.692C255.157 148.645 255.039 148.62 254.92 148.619C254.801 148.618 254.683 148.641 254.573 148.686C254.463 148.731 254.362 148.798 254.278 148.882C254.194 148.966 254.127 149.066 254.082 149.177C254.037 149.287 254.015 149.405 254.016 149.524C254.017 149.643 254.041 149.761 254.088 149.87C254.135 149.979 254.204 150.078 254.289 150.161L258.503 154.908C258.672 155.076 258.9 155.17 259.137 155.17C259.375 155.17 259.603 155.076 259.771 154.908L269.899 144.78C269.985 144.698 270.053 144.599 270.1 144.489C270.147 144.38 270.172 144.262 270.173 144.143C270.174 144.024 270.151 143.906 270.106 143.796C270.061 143.686 269.994 143.585 269.91 143.501C269.826 143.417 269.726 143.35 269.615 143.305C269.505 143.26 269.387 143.238 269.268 143.239C269.149 143.24 269.031 143.264 268.922 143.311C268.812 143.358 268.714 143.427 268.631 143.512L259.137 153.006L255.557 148.893Z" fill="#032B3A"/>
<path d="M34.2834 192.348C34.2834 193.323 34.1051 194.161 33.7484 194.862C33.3917 195.561 32.9028 196.099 32.2816 196.476C31.6633 196.851 30.9604 197.038 30.1727 197.038C29.3821 197.038 28.6761 196.851 28.0549 196.476C27.4367 196.099 26.9492 195.559 26.5925 194.858C26.2359 194.156 26.0575 193.32 26.0575 192.348C26.0575 191.373 26.2359 190.536 26.5925 189.838C26.9492 189.136 27.4367 188.598 28.0549 188.224C28.6761 187.846 29.3821 187.657 30.1727 187.657C30.9604 187.657 31.6633 187.846 32.2816 188.224C32.9028 188.598 33.3917 189.136 33.7484 189.838C34.1051 190.536 34.2834 191.373 34.2834 192.348ZM32.9191 192.348C32.9191 191.605 32.7987 190.979 32.558 190.471C32.3202 189.96 31.9933 189.573 31.5771 189.312C31.164 189.047 30.6958 188.915 30.1727 188.915C29.6466 188.915 29.177 189.047 28.7638 189.312C28.3507 189.573 28.0237 189.96 27.783 190.471C27.5452 190.979 27.4263 191.605 27.4263 192.348C27.4263 193.091 27.5452 193.718 27.783 194.229C28.0237 194.738 28.3507 195.124 28.7638 195.388C29.177 195.65 29.6466 195.781 30.1727 195.781C30.6958 195.781 31.164 195.65 31.5771 195.388C31.9933 195.124 32.3202 194.738 32.558 194.229C32.7987 193.718 32.9191 193.091 32.9191 192.348ZM35.894 199.481V190.065H37.1959V191.175H37.3074C37.3847 191.033 37.4961 190.868 37.6418 190.68C37.7874 190.493 37.9895 190.33 38.2481 190.19C38.5067 190.047 38.8485 189.976 39.2736 189.976C39.8264 189.976 40.3198 190.116 40.7538 190.395C41.1877 190.674 41.5281 191.077 41.7748 191.603C42.0245 192.129 42.1493 192.762 42.1493 193.503C42.1493 194.243 42.0259 194.877 41.7792 195.406C41.5325 195.932 41.1937 196.338 40.7627 196.623C40.3317 196.906 39.8398 197.047 39.2869 197.047C38.8708 197.047 38.5305 196.977 38.266 196.837C38.0044 196.698 37.7993 196.534 37.6507 196.347C37.5021 196.16 37.3876 195.993 37.3074 195.848H37.2271V199.481H35.894ZM37.2004 193.489C37.2004 193.971 37.2702 194.393 37.4099 194.755C37.5496 195.118 37.7517 195.402 38.0163 195.607C38.2808 195.809 38.6048 195.91 38.9882 195.91C39.3865 195.91 39.7194 195.805 39.9869 195.594C40.2544 195.38 40.4566 195.09 40.5933 194.724C40.733 194.359 40.8028 193.947 40.8028 193.489C40.8028 193.037 40.7345 192.632 40.5977 192.272C40.464 191.912 40.2619 191.628 39.9914 191.42C39.7239 191.212 39.3895 191.108 38.9882 191.108C38.6018 191.108 38.2749 191.208 38.0074 191.407C37.7428 191.606 37.5422 191.884 37.4055 192.241C37.2687 192.597 37.2004 193.014 37.2004 193.489ZM46.8396 190.065V191.135H43.0989V190.065H46.8396ZM44.1021 188.424H45.4352V194.902C45.4352 195.161 45.4738 195.356 45.5511 195.487C45.6284 195.614 45.728 195.702 45.8498 195.75C45.9747 195.794 46.1099 195.816 46.2555 195.816C46.3626 195.816 46.4562 195.809 46.5364 195.794C46.6167 195.779 46.6791 195.767 46.7237 195.759L46.9644 196.86C46.8872 196.889 46.7772 196.919 46.6345 196.949C46.4918 196.982 46.3135 196.999 46.0995 197.002C45.7488 197.008 45.4218 196.946 45.1186 196.815C44.8155 196.684 44.5702 196.482 44.383 196.209C44.1957 195.935 44.1021 195.592 44.1021 195.179V188.424ZM48.3143 196.913V190.065H49.6473V196.913H48.3143ZM48.9875 189.008C48.7556 189.008 48.5565 188.931 48.39 188.777C48.2266 188.619 48.1448 188.432 48.1448 188.215C48.1448 187.995 48.2266 187.808 48.39 187.653C48.5565 187.495 48.7556 187.417 48.9875 187.417C49.2193 187.417 49.417 187.495 49.5805 187.653C49.7469 187.808 49.8301 187.995 49.8301 188.215C49.8301 188.432 49.7469 188.619 49.5805 188.777C49.417 188.931 49.2193 189.008 48.9875 189.008ZM54.3254 197.051C53.6834 197.051 53.1231 196.904 52.6445 196.61C52.166 196.316 51.7945 195.904 51.5299 195.375C51.2654 194.846 51.1331 194.228 51.1331 193.52C51.1331 192.81 51.2654 192.189 51.5299 191.657C51.7945 191.125 52.166 190.712 52.6445 190.417C53.1231 190.123 53.6834 189.976 54.3254 189.976C54.9674 189.976 55.5277 190.123 56.0062 190.417C56.4848 190.712 56.8563 191.125 57.1209 191.657C57.3854 192.189 57.5177 192.81 57.5177 193.52C57.5177 194.228 57.3854 194.846 57.1209 195.375C56.8563 195.904 56.4848 196.316 56.0062 196.61C55.5277 196.904 54.9674 197.051 54.3254 197.051ZM54.3299 195.932C54.746 195.932 55.0908 195.822 55.3642 195.602C55.6377 195.383 55.8398 195.09 55.9706 194.724C56.1043 194.359 56.1712 193.956 56.1712 193.516C56.1712 193.079 56.1043 192.678 55.9706 192.312C55.8398 191.944 55.6377 191.648 55.3642 191.425C55.0908 191.202 54.746 191.09 54.3299 191.09C53.9108 191.09 53.563 191.202 53.2866 191.425C53.0131 191.648 52.8095 191.944 52.6758 192.312C52.545 192.678 52.4796 193.079 52.4796 193.516C52.4796 193.956 52.545 194.359 52.6758 194.724C52.8095 195.09 53.0131 195.383 53.2866 195.602C53.563 195.822 53.9108 195.932 54.3299 195.932ZM60.3388 192.847V196.913H59.0057V190.065H60.2853V191.18H60.37C60.5275 190.817 60.7742 190.526 61.1101 190.306C61.4489 190.086 61.8755 189.976 62.3897 189.976C62.8563 189.976 63.265 190.074 63.6157 190.27C63.9665 190.463 64.2384 190.752 64.4316 191.135C64.6249 191.519 64.7215 191.993 64.7215 192.557V196.913H63.3884V192.718C63.3884 192.221 63.2591 191.834 63.0005 191.554C62.7419 191.272 62.3867 191.131 61.9349 191.131C61.6258 191.131 61.3508 191.198 61.1101 191.331C60.8723 191.465 60.6836 191.661 60.5439 191.92C60.4071 192.175 60.3388 192.485 60.3388 192.847ZM71.1651 187.782V196.913H69.832V187.782H71.1651ZM74.9514 197.065C74.5175 197.065 74.1251 196.985 73.7744 196.824C73.4237 196.661 73.1457 196.424 72.9407 196.115C72.7385 195.806 72.6375 195.427 72.6375 194.978C72.6375 194.592 72.7118 194.274 72.8604 194.024C73.009 193.775 73.2097 193.577 73.4623 193.431C73.7149 193.286 73.9973 193.176 74.3094 193.101C74.6215 193.027 74.9395 192.97 75.2635 192.932C75.6737 192.884 76.0066 192.846 76.2622 192.816C76.5178 192.783 76.7036 192.731 76.8195 192.66C76.9355 192.589 76.9934 192.473 76.9934 192.312V192.281C76.9934 191.892 76.8834 191.59 76.6635 191.376C76.4465 191.162 76.1225 191.055 75.6915 191.055C75.2427 191.055 74.889 191.154 74.6304 191.354C74.3748 191.55 74.1979 191.768 74.0999 192.009L72.847 191.724C72.9956 191.307 73.2126 190.972 73.498 190.716C73.7863 190.457 74.1177 190.27 74.4922 190.154C74.8667 190.035 75.2606 189.976 75.6737 189.976C75.9472 189.976 76.237 190.009 76.5431 190.074C76.8522 190.136 77.1405 190.252 77.4081 190.422C77.6785 190.591 77.9 190.833 78.0724 191.148C78.2448 191.461 78.331 191.866 78.331 192.366V196.913H77.0291V195.977H76.9756C76.8894 196.149 76.7601 196.319 76.5877 196.485C76.4153 196.652 76.1939 196.79 75.9234 196.9C75.6529 197.01 75.3289 197.065 74.9514 197.065ZM75.2412 195.995C75.6098 195.995 75.9249 195.922 76.1864 195.776C76.451 195.631 76.6516 195.44 76.7883 195.206C76.928 194.968 76.9979 194.714 76.9979 194.443V193.56C76.9503 193.608 76.8582 193.653 76.7214 193.694C76.5877 193.733 76.4346 193.767 76.2622 193.797C76.0898 193.824 75.9219 193.849 75.7584 193.873C75.5949 193.893 75.4582 193.911 75.3482 193.926C75.0896 193.959 74.8533 194.014 74.6393 194.091C74.4283 194.168 74.2589 194.28 74.1311 194.425C74.0062 194.568 73.9438 194.758 73.9438 194.996C73.9438 195.326 74.0657 195.576 74.3094 195.745C74.5531 195.912 74.8637 195.995 75.2412 195.995ZM80.2135 196.913V187.782H81.5466V191.175H81.6269C81.7042 191.033 81.8156 190.868 81.9613 190.68C82.1069 190.493 82.309 190.33 82.5676 190.19C82.8262 190.047 83.168 189.976 83.5931 189.976C84.1459 189.976 84.6393 190.116 85.0733 190.395C85.5072 190.674 85.8476 191.077 86.0943 191.603C86.344 192.129 86.4688 192.762 86.4688 193.503C86.4688 194.243 86.3454 194.877 86.0987 195.406C85.852 195.932 85.5132 196.338 85.0822 196.623C84.6512 196.906 84.1593 197.047 83.6064 197.047C83.1903 197.047 82.85 196.977 82.5855 196.837C82.3239 196.698 82.1188 196.534 81.9702 196.347C81.8216 196.16 81.7071 195.993 81.6269 195.848H81.5154V196.913H80.2135ZM81.5199 193.489C81.5199 193.971 81.5897 194.393 81.7294 194.755C81.8691 195.118 82.0712 195.402 82.3358 195.607C82.6003 195.809 82.9243 195.91 83.3077 195.91C83.706 195.91 84.0389 195.805 84.3064 195.594C84.5739 195.38 84.7761 195.09 84.9128 194.724C85.0525 194.359 85.1223 193.947 85.1223 193.489C85.1223 193.037 85.054 192.632 84.9172 192.272C84.7835 191.912 84.5814 191.628 84.3109 191.42C84.0434 191.212 83.709 191.108 83.3077 191.108C82.9213 191.108 82.5944 191.208 82.3269 191.407C82.0623 191.606 81.8617 191.884 81.725 192.241C81.5882 192.597 81.5199 193.014 81.5199 193.489ZM90.9172 197.051C90.2425 197.051 89.6614 196.907 89.174 196.619C88.6895 196.328 88.315 195.919 88.0504 195.393C87.7889 194.864 87.6581 194.244 87.6581 193.534C87.6581 192.832 87.7889 192.214 88.0504 191.679C88.315 191.144 88.6835 190.726 89.1561 190.426C89.6317 190.126 90.1875 189.976 90.8236 189.976C91.21 189.976 91.5845 190.04 91.9471 190.168C92.3098 190.295 92.6352 190.496 92.9236 190.769C93.2119 191.043 93.4393 191.398 93.6057 191.835C93.7722 192.269 93.8554 192.797 93.8554 193.418V193.89H88.4116V192.892H92.549C92.549 192.541 92.4777 192.23 92.335 191.96C92.1924 191.686 91.9917 191.471 91.7331 191.313C91.4775 191.156 91.1773 191.077 90.8325 191.077C90.458 191.077 90.1311 191.169 89.8517 191.354C89.5752 191.535 89.3612 191.773 89.2096 192.067C89.061 192.358 88.9867 192.675 88.9867 193.017V193.797C88.9867 194.255 89.067 194.644 89.2275 194.965C89.391 195.286 89.6183 195.531 89.9096 195.701C90.2009 195.867 90.5412 195.95 90.9306 195.95C91.1833 195.95 91.4136 195.915 91.6217 195.843C91.8297 195.769 92.0096 195.659 92.1612 195.513C92.3127 195.368 92.4287 195.188 92.5089 194.974L93.7707 195.201C93.6696 195.573 93.4883 195.898 93.2267 196.178C92.9681 196.454 92.6427 196.67 92.2503 196.824C91.861 196.976 91.4166 197.051 90.9172 197.051ZM96.6676 187.782V196.913H95.3345V187.782H96.6676Z" fill="#032B3A"/>
<rect x="11" y="197.29" width="276.212" height="14.3487" fill="url(#paint0_linear_1_16797)"/>
<rect x="287.212" y="100.441" width="276.212" height="14.3487" transform="rotate(180 287.212 100.441)" fill="url(#paint1_linear_1_16797)"/>
</g>
<path d="M27.4218 243.546H25.6563L28.8708 234.415H30.9128L34.1318 243.546H32.3663L29.9275 236.288H29.8562L27.4218 243.546ZM27.4798 239.966H32.2949V241.295H27.4798V239.966ZM38.0419 243.68C37.3583 243.68 36.7713 243.53 36.2808 243.23C35.7934 242.93 35.4174 242.515 35.1528 241.986C34.8913 241.454 34.7605 240.842 34.7605 240.149C34.7605 239.454 34.8942 238.84 35.1617 238.308C35.4293 237.773 35.8067 237.357 36.2942 237.059C36.7846 236.759 37.3642 236.609 38.033 236.609C38.5888 236.609 39.0807 236.712 39.5088 236.917C39.9397 237.119 40.283 237.406 40.5387 237.777C40.7943 238.146 40.9399 238.577 40.9756 239.07H39.433C39.3705 238.74 39.2219 238.465 38.9871 238.245C38.7553 238.022 38.4447 237.911 38.0553 237.911C37.7254 237.911 37.4356 238 37.1859 238.178C36.9362 238.354 36.7415 238.606 36.6018 238.936C36.4651 239.266 36.3967 239.662 36.3967 240.122C36.3967 240.589 36.4651 240.99 36.6018 241.326C36.7386 241.659 36.9303 241.916 37.177 242.097C37.4266 242.276 37.7194 242.365 38.0553 242.365C38.2931 242.365 38.5056 242.32 38.6929 242.231C38.8831 242.139 39.0421 242.007 39.1699 241.834C39.2977 241.662 39.3854 241.452 39.433 241.206H40.9756C40.937 241.69 40.7943 242.12 40.5476 242.494C40.3009 242.866 39.965 243.157 39.54 243.368C39.1149 243.576 38.6156 243.68 38.0419 243.68ZM45.7205 236.698V237.947H41.7837V236.698H45.7205ZM42.7556 235.057H44.3696V241.487C44.3696 241.704 44.4023 241.87 44.4677 241.986C44.5361 242.099 44.6252 242.176 44.7352 242.218C44.8452 242.259 44.9671 242.28 45.1008 242.28C45.2019 242.28 45.294 242.273 45.3772 242.258C45.4634 242.243 45.5288 242.23 45.5734 242.218L45.8454 243.48C45.7592 243.509 45.6358 243.542 45.4753 243.578C45.3178 243.613 45.1246 243.634 44.8957 243.64C44.4915 243.652 44.1274 243.591 43.8034 243.457C43.4794 243.32 43.2223 243.109 43.0321 242.824C42.8448 242.539 42.7527 242.182 42.7556 241.754V235.057ZM47.0703 243.546V236.698H48.6843V243.546H47.0703ZM47.8818 235.726C47.6262 235.726 47.4062 235.642 47.2219 235.472C47.0376 235.3 46.9455 235.093 46.9455 234.852C46.9455 234.609 47.0376 234.402 47.2219 234.233C47.4062 234.06 47.6262 233.974 47.8818 233.974C48.1404 233.974 48.3603 234.06 48.5416 234.233C48.7259 234.402 48.8181 234.609 48.8181 234.852C48.8181 235.093 48.7259 235.3 48.5416 235.472C48.3603 235.642 48.1404 235.726 47.8818 235.726ZM53.3312 243.68C52.6624 243.68 52.0828 243.533 51.5923 243.239C51.1019 242.944 50.7215 242.533 50.451 242.004C50.1835 241.475 50.0497 240.856 50.0497 240.149C50.0497 239.442 50.1835 238.822 50.451 238.29C50.7215 237.758 51.1019 237.345 51.5923 237.05C52.0828 236.756 52.6624 236.609 53.3312 236.609C53.9999 236.609 54.5795 236.756 55.07 237.05C55.5604 237.345 55.9394 237.758 56.2069 238.29C56.4774 238.822 56.6126 239.442 56.6126 240.149C56.6126 240.856 56.4774 241.475 56.2069 242.004C55.9394 242.533 55.5604 242.944 55.07 243.239C54.5795 243.533 53.9999 243.68 53.3312 243.68ZM53.3401 242.387C53.7027 242.387 54.0059 242.288 54.2496 242.088C54.4933 241.886 54.6746 241.616 54.7935 241.277C54.9154 240.938 54.9763 240.561 54.9763 240.145C54.9763 239.725 54.9154 239.347 54.7935 239.008C54.6746 238.666 54.4933 238.394 54.2496 238.192C54.0059 237.99 53.7027 237.889 53.3401 237.889C52.9685 237.889 52.6594 237.99 52.4127 238.192C52.169 238.394 51.9862 238.666 51.8643 239.008C51.7454 239.347 51.686 239.725 51.686 240.145C51.686 240.561 51.7454 240.938 51.8643 241.277C51.9862 241.616 52.169 241.886 52.4127 242.088C52.6594 242.288 52.9685 242.387 53.3401 242.387ZM59.5964 239.534V243.546H57.9825V236.698H59.5251V237.862H59.6053C59.7629 237.478 60.014 237.174 60.3588 236.948C60.7066 236.722 61.1361 236.609 61.6473 236.609C62.1199 236.609 62.5316 236.71 62.8823 236.912C63.236 237.114 63.5095 237.407 63.7027 237.79C63.8989 238.174 63.9955 238.639 63.9925 239.186V243.546H62.3785V239.436C62.3785 238.978 62.2596 238.62 62.0218 238.361C61.787 238.103 61.4616 237.973 61.0454 237.973C60.7631 237.973 60.5119 238.036 60.292 238.161C60.075 238.282 59.9041 238.459 59.7792 238.691C59.6574 238.923 59.5964 239.204 59.5964 239.534ZM70.3614 234.415V243.546H68.7475V234.415H70.3614ZM73.9917 243.685C73.5578 243.685 73.1669 243.607 72.8192 243.453C72.4744 243.295 72.2009 243.063 71.9988 242.757C71.7997 242.451 71.7001 242.074 71.7001 241.625C71.7001 241.238 71.7714 240.919 71.9141 240.666C72.0568 240.414 72.2514 240.211 72.4982 240.06C72.7449 239.908 73.0228 239.794 73.3319 239.717C73.644 239.636 73.9665 239.578 74.2994 239.543C74.7006 239.501 75.0261 239.464 75.2758 239.431C75.5255 239.396 75.7068 239.342 75.8197 239.271C75.9356 239.196 75.9936 239.082 75.9936 238.927V238.901C75.9936 238.565 75.894 238.305 75.6949 238.12C75.4957 237.936 75.2089 237.844 74.8344 237.844C74.4391 237.844 74.1255 237.93 73.8937 238.103C73.6648 238.275 73.5102 238.479 73.43 238.713L71.923 238.499C72.0419 238.083 72.2381 237.736 72.5115 237.456C72.785 237.174 73.1194 236.963 73.5147 236.823C73.91 236.68 74.3469 236.609 74.8255 236.609C75.1554 236.609 75.4838 236.648 75.8108 236.725C76.1378 236.802 76.4365 236.93 76.707 237.108C76.9774 237.284 77.1944 237.523 77.3579 237.826C77.5243 238.129 77.6076 238.508 77.6076 238.963V243.546H76.056V242.606H76.0025C75.9044 242.796 75.7662 242.974 75.5879 243.141C75.4125 243.304 75.1911 243.436 74.9236 243.537C74.659 243.636 74.3484 243.685 73.9917 243.685ZM74.4108 242.499C74.7348 242.499 75.0157 242.435 75.2535 242.307C75.4913 242.176 75.6741 242.004 75.8019 241.79C75.9327 241.576 75.9981 241.342 75.9981 241.09V240.283C75.9475 240.324 75.8613 240.363 75.7395 240.399C75.6206 240.434 75.4868 240.466 75.3382 240.492C75.1896 240.519 75.0425 240.543 74.8968 240.564C74.7512 240.584 74.6248 240.602 74.5178 240.617C74.2771 240.65 74.0616 240.703 73.8714 240.778C73.6811 240.852 73.531 240.956 73.4211 241.09C73.3111 241.221 73.2561 241.39 73.2561 241.598C73.2561 241.895 73.3646 242.12 73.5816 242.271C73.7985 242.423 74.075 242.499 74.4108 242.499ZM79.3018 243.546V234.415H80.9158V237.831H80.9826C81.0659 237.664 81.1833 237.487 81.3349 237.3C81.4864 237.11 81.6915 236.948 81.9501 236.814C82.2087 236.677 82.5386 236.609 82.9399 236.609C83.469 236.609 83.946 236.744 84.3711 237.015C84.7991 237.282 85.1379 237.679 85.3876 238.205C85.6403 238.728 85.7666 239.37 85.7666 240.131C85.7666 240.883 85.6432 241.522 85.3965 242.048C85.1498 242.574 84.814 242.976 84.3889 243.252C83.9639 243.529 83.4824 243.667 82.9444 243.667C82.552 243.667 82.2266 243.601 81.968 243.471C81.7094 243.34 81.5013 243.182 81.3438 242.998C81.1892 242.811 81.0688 242.634 80.9826 242.467H80.889V243.546H79.3018ZM80.8845 240.122C80.8845 240.565 80.947 240.953 81.0718 241.286C81.1996 241.619 81.3824 241.879 81.6202 242.066C81.861 242.25 82.1522 242.343 82.4941 242.343C82.8507 242.343 83.1495 242.247 83.3902 242.057C83.631 241.864 83.8123 241.601 83.9341 241.268C84.059 240.932 84.1214 240.55 84.1214 240.122C84.1214 239.697 84.0605 239.32 83.9386 238.99C83.8167 238.66 83.6354 238.401 83.3947 238.214C83.1539 238.027 82.8537 237.933 82.4941 237.933C82.1493 237.933 81.8565 238.024 81.6157 238.205C81.375 238.386 81.1922 238.641 81.0673 238.968C80.9455 239.294 80.8845 239.679 80.8845 240.122ZM90.1704 243.68C89.4838 243.68 88.8909 243.537 88.3915 243.252C87.8951 242.964 87.5132 242.557 87.2457 242.031C86.9782 241.501 86.8444 240.879 86.8444 240.162C86.8444 239.458 86.9782 238.84 87.2457 238.308C87.5162 237.773 87.8936 237.357 88.3781 237.059C88.8626 236.759 89.4318 236.609 90.0857 236.609C90.5078 236.609 90.9061 236.677 91.2806 236.814C91.6581 236.948 91.991 237.156 92.2793 237.438C92.5706 237.721 92.7995 238.08 92.9659 238.517C93.1324 238.951 93.2156 239.468 93.2156 240.069V240.564H87.6024V239.476H91.6685C91.6655 239.167 91.5986 238.892 91.4679 238.651C91.3371 238.407 91.1543 238.216 90.9195 238.076C90.6876 237.936 90.4171 237.866 90.108 237.866C89.7781 237.866 89.4883 237.947 89.2386 238.107C88.9889 238.265 88.7943 238.473 88.6546 238.731C88.5178 238.987 88.448 239.268 88.445 239.574V240.524C88.445 240.922 88.5178 241.264 88.6635 241.549C88.8091 241.831 89.0127 242.048 89.2743 242.2C89.5359 242.349 89.842 242.423 90.1927 242.423C90.4276 242.423 90.6401 242.39 90.8303 242.325C91.0205 242.256 91.1855 242.157 91.3252 242.026C91.4649 241.895 91.5704 241.733 91.6417 241.54L93.1487 241.709C93.0536 242.108 92.8723 242.456 92.6048 242.753C92.3402 243.047 92.0014 243.276 91.5882 243.439C91.1751 243.6 90.7025 243.68 90.1704 243.68ZM96.195 234.415V243.546H94.581V234.415H96.195Z" fill="#388523"/>
</g>
</g>
<rect x="11.4484" y="0.448395" width="87.3235" height="34.9748" rx="17.4874" fill="white"/>
<rect x="11.4484" y="0.448395" width="87.3235" height="34.9748" rx="17.4874" stroke="#DADFE2" stroke-width="0.896791"/>
<path d="M31.3319 16.2035C31.2844 15.7814 31.0882 15.4545 30.7434 15.2226C30.3986 14.9878 29.9646 14.8704 29.4415 14.8704C29.067 14.8704 28.743 14.9299 28.4696 15.0487C28.1961 15.1647 27.9836 15.3252 27.832 15.5303C27.6834 15.7324 27.6091 15.9627 27.6091 16.2213C27.6091 16.4383 27.6596 16.6256 27.7607 16.7831C27.8647 16.9406 27.9999 17.0729 28.1664 17.1799C28.3358 17.2839 28.5171 17.3716 28.7103 17.4429C28.9035 17.5113 29.0893 17.5678 29.2676 17.6124L30.1593 17.8442C30.4506 17.9155 30.7493 18.0121 31.0555 18.134C31.3616 18.2559 31.6455 18.4164 31.9071 18.6155C32.1686 18.8147 32.3797 19.0614 32.5402 19.3556C32.7036 19.6499 32.7854 20.0021 32.7854 20.4123C32.7854 20.9295 32.6516 21.3887 32.3841 21.79C32.1196 22.1912 31.7347 22.5078 31.2294 22.7396C30.727 22.9715 30.1192 23.0874 29.4058 23.0874C28.7222 23.0874 28.1307 22.9789 27.6314 22.7619C27.132 22.5449 26.7412 22.2373 26.4588 21.839C26.1764 21.4377 26.0204 20.9622 25.9907 20.4123H27.3728C27.3995 20.7422 27.5065 21.0172 27.6938 21.2371C27.884 21.4541 28.1263 21.6161 28.4205 21.7231C28.7178 21.8271 29.0432 21.8791 29.3969 21.8791C29.7863 21.8791 30.1326 21.8182 30.4358 21.6963C30.7419 21.5715 30.9827 21.3991 31.158 21.1792C31.3334 20.9562 31.4211 20.6961 31.4211 20.3989C31.4211 20.1284 31.3438 19.907 31.1892 19.7346C31.0377 19.5622 30.8311 19.4195 30.5695 19.3066C30.3109 19.1936 30.0181 19.0941 29.6912 19.0079L28.6122 18.7136C27.881 18.5145 27.3014 18.2217 26.8734 17.8353C26.4484 17.4489 26.2359 16.9377 26.2359 16.3016C26.2359 15.7755 26.3785 15.3163 26.6639 14.9239C26.9492 14.5316 27.3356 14.2269 27.8231 14.0099C28.3105 13.79 28.8604 13.68 29.4727 13.68C30.091 13.68 30.6364 13.7885 31.109 14.0055C31.5846 14.2224 31.9591 14.5212 32.2325 14.9016C32.506 15.2791 32.6486 15.7131 32.6605 16.2035H31.3319ZM37.2762 23.074C36.6015 23.074 36.0204 22.9298 35.5329 22.6415C35.0484 22.3502 34.6739 21.9416 34.4094 21.4155C34.1478 20.8864 34.017 20.2666 34.017 19.5563C34.017 18.8548 34.1478 18.2366 34.4094 17.7015C34.6739 17.1665 35.0425 16.7489 35.5151 16.4487C35.9906 16.1485 36.5465 15.9984 37.1825 15.9984C37.5689 15.9984 37.9435 16.0623 38.3061 16.1901C38.6687 16.3179 38.9942 16.5186 39.2825 16.792C39.5708 17.0655 39.7982 17.4207 39.9646 17.8576C40.1311 18.2915 40.2143 18.8191 40.2143 19.4403V19.9129H34.7705V18.9142H38.908C38.908 18.5635 38.8366 18.2529 38.694 17.9824C38.5513 17.709 38.3507 17.4935 38.0921 17.3359C37.8365 17.1784 37.5363 17.0996 37.1915 17.0996C36.817 17.0996 36.49 17.1918 36.2106 17.3761C35.9342 17.5574 35.7202 17.7952 35.5686 18.0894C35.42 18.3807 35.3457 18.6973 35.3457 19.0391V19.8193C35.3457 20.2771 35.4259 20.6664 35.5864 20.9874C35.7499 21.3084 35.9773 21.5537 36.2686 21.7231C36.5598 21.8895 36.9002 21.9728 37.2896 21.9728C37.5422 21.9728 37.7726 21.9371 37.9806 21.8658C38.1887 21.7914 38.3685 21.6815 38.5201 21.5358C38.6717 21.3902 38.7876 21.2104 38.8679 20.9964L40.1296 21.2237C40.0285 21.5953 39.8472 21.9207 39.5857 22.2001C39.3271 22.4766 39.0016 22.6921 38.6093 22.8466C38.2199 22.9982 37.7755 23.074 37.2762 23.074ZM43.0265 13.8048V22.9358H41.6934V13.8048H43.0265ZM47.7714 23.074C47.0967 23.074 46.5156 22.9298 46.0282 22.6415C45.5437 22.3502 45.1692 21.9416 44.9046 21.4155C44.6431 20.8864 44.5123 20.2666 44.5123 19.5563C44.5123 18.8548 44.6431 18.2366 44.9046 17.7015C45.1692 17.1665 45.5377 16.7489 46.0103 16.4487C46.4859 16.1485 47.0417 15.9984 47.6778 15.9984C48.0642 15.9984 48.4387 16.0623 48.8013 16.1901C49.164 16.3179 49.4894 16.5186 49.7777 16.792C50.0661 17.0655 50.2934 17.4207 50.4599 17.8576C50.6263 18.2915 50.7096 18.8191 50.7096 19.4403V19.9129H45.2658V18.9142H49.4032C49.4032 18.5635 49.3319 18.2529 49.1892 17.9824C49.0466 17.709 48.8459 17.4935 48.5873 17.3359C48.3317 17.1784 48.0315 17.0996 47.6867 17.0996C47.3122 17.0996 46.9853 17.1918 46.7059 17.3761C46.4294 17.5574 46.2154 17.7952 46.0638 18.0894C45.9152 18.3807 45.8409 18.6973 45.8409 19.0391V19.8193C45.8409 20.2771 45.9212 20.6664 46.0817 20.9874C46.2451 21.3084 46.4725 21.5537 46.7638 21.7231C47.0551 21.8895 47.3954 21.9728 47.7848 21.9728C48.0375 21.9728 48.2678 21.9371 48.4759 21.8658C48.6839 21.7914 48.8638 21.6815 49.0153 21.5358C49.1669 21.3902 49.2829 21.2104 49.3631 20.9964L50.6249 21.2237C50.5238 21.5953 50.3425 21.9207 50.0809 22.2001C49.8223 22.4766 49.4969 22.6921 49.1045 22.8466C48.7151 22.9982 48.2708 23.074 47.7714 23.074ZM55.0733 23.074C54.4105 23.074 53.8398 22.9239 53.3612 22.6237C52.8857 22.3205 52.5201 21.9029 52.2645 21.3709C52.0088 20.8388 51.881 20.2295 51.881 19.5429C51.881 18.8474 52.0118 18.2336 52.2734 17.7015C52.5349 17.1665 52.9035 16.7489 53.3791 16.4487C53.8547 16.1485 54.4149 15.9984 55.0599 15.9984C55.5801 15.9984 56.0438 16.095 56.451 16.2882C56.8582 16.4784 57.1866 16.7459 57.4363 17.0907C57.6889 17.4355 57.839 17.8383 57.8866 18.299H56.5892C56.5179 17.978 56.3544 17.7015 56.0988 17.4697C55.8461 17.2379 55.5073 17.1219 55.0822 17.1219C54.7107 17.1219 54.3852 17.22 54.1058 17.4162C53.8294 17.6094 53.6139 17.8858 53.4593 18.2455C53.3048 18.6022 53.2275 19.0242 53.2275 19.5117C53.2275 20.011 53.3033 20.442 53.4549 20.8046C53.6065 21.1673 53.8205 21.4481 54.0969 21.6473C54.3763 21.8464 54.7047 21.946 55.0822 21.946C55.3349 21.946 55.5637 21.8999 55.7688 21.8078C55.9769 21.7127 56.1508 21.5774 56.2905 21.4021C56.4331 21.2267 56.5327 21.0157 56.5892 20.769H57.8866C57.839 21.2118 57.6949 21.6072 57.4541 21.9549C57.2134 22.3027 56.8909 22.5761 56.4866 22.7753C56.0854 22.9744 55.6143 23.074 55.0733 23.074ZM62.5089 16.0876V17.1576H58.7683V16.0876H62.5089ZM59.7714 14.4468H61.1045V20.925C61.1045 21.1836 61.1432 21.3783 61.2204 21.5091C61.2977 21.6369 61.3973 21.7246 61.5192 21.7721C61.644 21.8167 61.7792 21.839 61.9249 21.839C62.0319 21.839 62.1255 21.8316 62.2058 21.8167C62.286 21.8019 62.3484 21.79 62.393 21.781L62.6338 22.8823C62.5565 22.912 62.4465 22.9417 62.3038 22.9715C62.1612 23.0042 61.9828 23.022 61.7688 23.025C61.4181 23.0309 61.0911 22.9685 60.788 22.8377C60.4848 22.7069 60.2396 22.5048 60.0523 22.2314C59.8651 21.9579 59.7714 21.6146 59.7714 21.2014V14.4468Z" fill="#233D48"/>
<rect x="70.5229" y="7.17432" width="21.523" height="21.523" rx="10.7615" fill="white"/>
<path d="M81.2845 13.7508C80.9543 13.7508 80.6867 14.0185 80.6867 14.3487V17.338H77.6973C77.3672 17.338 77.0995 17.6056 77.0995 17.9358C77.0995 18.266 77.3672 18.5337 77.6973 18.5337H80.6867V21.523C80.6867 21.8532 80.9543 22.1208 81.2845 22.1208C81.6147 22.1208 81.8824 21.8532 81.8824 21.523V18.5337H84.8717C85.2019 18.5337 85.4695 18.266 85.4695 17.9358C85.4695 17.6056 85.2019 17.338 84.8717 17.338H81.8824V14.3487C81.8824 14.0185 81.6147 13.7508 81.2845 13.7508Z" fill="#032B3A"/>
<defs>
<filter id="filter0_dd_1_16797" x="0.238508" y="32.2845" width="297.735" height="247.514" filterUnits="userSpaceOnUse" color-interpolation-filters="sRGB">
<feFlood flood-opacity="0" result="BackgroundImageFix"/>
<feColorMatrix in="SourceAlpha" type="matrix" values="0 0 0 0 0 0 0 0 0 0 0 0 0 0 0 0 0 0 127 0" result="hardAlpha"/>
<feOffset dy="3.58716"/>
<feGaussianBlur stdDeviation="5.38075"/>
<feColorMatrix type="matrix" values="0 0 0 0 0 0 0 0 0 0 0 0 0 0 0 0 0 0 0.05 0"/>
<feBlend mode="normal" in2="BackgroundImageFix" result="effect1_dropShadow_1_16797"/>
<feColorMatrix in="SourceAlpha" type="matrix" values="0 0 0 0 0 0 0 0 0 0 0 0 0 0 0 0 0 0 127 0" result="hardAlpha"/>
<feOffset dy="0.896791"/>
<feGaussianBlur stdDeviation="1.79358"/>
<feColorMatrix type="matrix" values="0 0 0 0 0 0 0 0 0 0 0 0 0 0 0 0 0 0 0.1 0"/>
<feBlend mode="normal" in2="effect1_dropShadow_1_16797" result="effect2_dropShadow_1_16797"/>
<feBlend mode="normal" in="SourceGraphic" in2="effect2_dropShadow_1_16797" result="shape"/>
</filter>
<linearGradient id="paint0_linear_1_16797" x1="149.106" y1="197.29" x2="149.106" y2="211.638" gradientUnits="userSpaceOnUse">
<stop stop-color="white" stop-opacity="0"/>
<stop offset="1" stop-color="white"/>
</linearGradient>
<linearGradient id="paint1_linear_1_16797" x1="425.317" y1="100.441" x2="425.317" y2="114.789" gradientUnits="userSpaceOnUse">
<stop stop-color="white" stop-opacity="0"/>
<stop offset="1" stop-color="white"/>
</linearGradient>
<clipPath id="clip0_1_16797">
<path d="M11 46.6331C11 42.6709 14.2121 39.4588 18.1743 39.4588H280.037C284 39.4588 287.212 42.6709 287.212 46.6331V258.276C287.212 262.238 284 265.45 280.037 265.45H18.1743C14.212 265.45 11 262.238 11 258.276V46.6331Z" fill="white"/>
</clipPath>
<clipPath id="clip1_1_16797">
<rect width="276.212" height="125.551" fill="white" transform="translate(11 86.0919)"/>
</clipPath>
</defs>
</svg>
