<svg width="224" height="117" viewBox="0 0 224 117" fill="none" xmlns="http://www.w3.org/2000/svg">
<g clip-path="url(#clip0_37_5170)">
<path d="M15 17C15 14.7909 16.7909 13 19 13H77C79.2091 13 81 14.7909 81 17V33.1463C81 35.3555 79.2091 37.1463 77 37.1463H19C16.7909 37.1463 15 35.3555 15 33.1463V17Z" fill="#388523"/>
<path d="M34.3171 25.0732C34.3171 24.1842 35.0379 23.4634 35.9269 23.4634H60.0732C60.9623 23.4634 61.683 24.1842 61.683 25.0732V25.0732C61.683 25.9622 60.9623 26.683 60.0732 26.683H35.9269C35.0379 26.683 34.3171 25.9622 34.3171 25.0732V25.0732Z" fill="white"/>
<circle cx="146.5" cy="20.5" r="6.5" fill="white" stroke="#388523" stroke-width="4"/>
<path d="M158 20.5C158 19.3954 158.895 18.5 160 18.5H190C191.105 18.5 192 19.3954 192 20.5V20.5C192 21.6046 191.105 22.5 190 22.5H160C158.895 22.5 158 21.6046 158 20.5V20.5Z" fill="#627A84"/>
<circle cx="146.5" cy="37.5" r="5.5" fill="white" stroke="#DADFE2" stroke-width="2"/>
<path d="M158 37.5C158 36.3954 158.895 35.5 160 35.5H198C199.105 35.5 200 36.3954 200 37.5V37.5C200 38.6046 199.105 39.5 198 39.5H160C158.895 39.5 158 38.6046 158 37.5V37.5Z" fill="#627A84"/>
<circle cx="146.5" cy="54.5" r="5.5" fill="white" stroke="#DADFE2" stroke-width="2"/>
<path d="M158 54.5C158 53.3954 158.895 52.5 160 52.5H181C182.105 52.5 183 53.3954 183 54.5V54.5C183 55.6046 182.105 56.5 181 56.5H160C158.895 56.5 158 55.6046 158 54.5V54.5Z" fill="#627A84"/>
<rect x="140" y="78" width="12" height="12" rx="2" fill="#388523"/>
<path d="M143.525 83.9265C143.497 83.8973 143.463 83.874 143.426 83.858C143.389 83.842 143.349 83.8335 143.308 83.8332C143.268 83.8328 143.227 83.8406 143.19 83.8559C143.152 83.8713 143.118 83.894 143.089 83.9227C143.061 83.9514 143.038 83.9855 143.023 84.023C143.007 84.0606 143 84.1008 143 84.1414C143 84.1819 143.009 84.222 143.025 84.2593C143.041 84.2966 143.064 84.3303 143.093 84.3585L144.529 85.9756C144.586 86.0329 144.664 86.0651 144.745 86.0651C144.826 86.0651 144.904 86.0329 144.961 85.9756L148.411 82.5253C148.441 82.4971 148.464 82.4634 148.48 82.4261C148.496 82.3888 148.504 82.3488 148.505 82.3082C148.505 82.2676 148.497 82.2274 148.482 82.1898C148.466 82.1523 148.444 82.1182 148.415 82.0895C148.386 82.0608 148.352 82.0381 148.315 82.0228C148.277 82.0074 148.237 81.9997 148.196 82C148.156 82.0004 148.116 82.0088 148.078 82.0248C148.041 82.0408 148.007 82.0641 147.979 82.0933L144.745 85.3276L143.525 83.9265Z" fill="white"/>
<path d="M157 84C157 82.8954 157.895 82 159 82H189C190.105 82 191 82.8954 191 84V84C191 85.1046 190.105 86 189 86H159C157.895 86 157 85.1046 157 84V84Z" fill="#627A84"/>
<rect x="140.5" y="94.5" width="11" height="11" rx="1.5" fill="white"/>
<rect x="140.5" y="94.5" width="11" height="11" rx="1.5" stroke="#DADFE2"/>
<path d="M143.525 99.9265C143.497 99.8973 143.463 99.874 143.426 99.858C143.389 99.842 143.349 99.8335 143.308 99.8332C143.268 99.8328 143.227 99.8406 143.19 99.8559C143.152 99.8713 143.118 99.894 143.089 99.9227C143.061 99.9514 143.038 99.9855 143.023 100.023C143.007 100.061 143 100.101 143 100.141C143 100.182 143.009 100.222 143.025 100.259C143.041 100.297 143.064 100.33 143.093 100.358L144.529 101.976C144.586 102.033 144.664 102.065 144.745 102.065C144.826 102.065 144.904 102.033 144.961 101.976L148.411 98.5253C148.441 98.4971 148.464 98.4634 148.48 98.4261C148.496 98.3888 148.504 98.3488 148.505 98.3082C148.505 98.2676 148.497 98.2274 148.482 98.1898C148.466 98.1523 148.444 98.1182 148.415 98.0895C148.386 98.0608 148.352 98.0381 148.315 98.0228C148.277 98.0074 148.237 97.9997 148.196 98C148.156 98.0004 148.116 98.0088 148.078 98.0248C148.041 98.0408 148.007 98.0641 147.979 98.0933L144.745 101.328L143.525 99.9265Z" fill="white"/>
<path d="M157 100C157 98.8954 157.895 98 159 98H197C198.105 98 199 98.8954 199 100V100C199 101.105 198.105 102 197 102H159C157.895 102 157 101.105 157 100V100Z" fill="#627A84"/>
<rect x="140.5" y="110.5" width="11" height="11" rx="1.5" fill="white"/>
<rect x="140.5" y="110.5" width="11" height="11" rx="1.5" stroke="#DADFE2"/>
<path d="M143.525 115.926C143.497 115.897 143.463 115.874 143.426 115.858C143.389 115.842 143.349 115.834 143.308 115.833C143.268 115.833 143.227 115.841 143.19 115.856C143.152 115.871 143.118 115.894 143.089 115.923C143.061 115.951 143.038 115.985 143.023 116.023C143.007 116.061 143 116.101 143 116.141C143 116.182 143.009 116.222 143.025 116.259C143.041 116.297 143.064 116.33 143.093 116.358L144.529 117.976C144.586 118.033 144.664 118.065 144.745 118.065C144.826 118.065 144.904 118.033 144.961 117.976L148.411 114.525C148.441 114.497 148.464 114.463 148.48 114.426C148.496 114.389 148.504 114.349 148.505 114.308C148.505 114.268 148.497 114.227 148.482 114.19C148.466 114.152 148.444 114.118 148.415 114.089C148.386 114.061 148.352 114.038 148.315 114.023C148.277 114.007 148.237 114 148.196 114C148.156 114 148.116 114.009 148.078 114.025C148.041 114.041 148.007 114.064 147.979 114.093L144.745 117.328L143.525 115.926Z" fill="white"/>
<path d="M157 116C157 114.895 157.895 114 159 114H180C181.105 114 182 114.895 182 116V116C182 117.105 181.105 118 180 118H159C157.895 118 157 117.105 157 116V116Z" fill="#627A84"/>
<path d="M22.25 46.5208H34.75C37.9141 46.5208 40.4792 49.0859 40.4792 52.25C40.4792 55.4141 37.9141 57.9792 34.75 57.9792H22.25C19.0859 57.9792 16.5208 55.4141 16.5208 52.25C16.5208 49.0859 19.0859 46.5208 22.25 46.5208Z" fill="#388523"/>
<path d="M22.25 46.5208H34.75C37.9141 46.5208 40.4792 49.0859 40.4792 52.25C40.4792 55.4141 37.9141 57.9792 34.75 57.9792H22.25C19.0859 57.9792 16.5208 55.4141 16.5208 52.25C16.5208 49.0859 19.0859 46.5208 22.25 46.5208Z" stroke="#388523" stroke-width="1.04167"/>
<circle cx="34.7499" cy="52.25" r="4.16667" fill="white"/>
<path d="M20 95.5H105C106.933 95.5 108.5 97.067 108.5 99V121C108.5 122.933 106.933 124.5 105 124.5H20C18.067 124.5 16.5 122.933 16.5 121V99C16.5 97.067 18.067 95.5 20 95.5Z" fill="white"/>
<path d="M20 95.5H105C106.933 95.5 108.5 97.067 108.5 99V121C108.5 122.933 106.933 124.5 105 124.5H20C18.067 124.5 16.5 122.933 16.5 121V99C16.5 97.067 18.067 95.5 20 95.5Z" stroke="#DADFE2"/>
<path d="M22 102C22 100.895 22.8954 100 24 100H39C40.1046 100 41 100.895 41 102V102C41 103.105 40.1046 104 39 104H24C22.8954 104 22 103.105 22 102V102Z" fill="#627A84"/>
<path d="M22 111C22 109.895 22.8954 109 24 109H76C77.1046 109 78 109.895 78 111V111C78 112.105 77.1046 113 76 113H24C22.8954 113 22 112.105 22 111V111Z" fill="#032B3A"/>
<path d="M82 111C82 109.895 82.8954 109 84 109H101C102.105 109 103 109.895 103 111V111C103 112.105 102.105 113 101 113H84C82.8954 113 82 112.105 82 111V111Z" fill="#032B3A"/>
<path d="M22 118C22 116.895 22.8954 116 24 116H54C55.1046 116 56 116.895 56 118V118C56 119.105 55.1046 120 54 120H24C22.8954 120 22 119.105 22 118V118Z" fill="#032B3A"/>
<path d="M60 118C60 116.895 60.8954 116 62 116H101C102.105 116 103 116.895 103 118V118C103 119.105 102.105 120 101 120H62C60.8954 120 60 119.105 60 118V118Z" fill="#032B3A"/>
<path d="M25 68.5H51C55.6944 68.5 59.5 72.3056 59.5 77C59.5 81.6944 55.6944 85.5 51 85.5H25C20.3056 85.5 16.5 81.6944 16.5 77C16.5 72.3056 20.3056 68.5 25 68.5Z" fill="white"/>
<path d="M25 68.5H51C55.6944 68.5 59.5 72.3056 59.5 77C59.5 81.6944 55.6944 85.5 51 85.5H25C20.3056 85.5 16.5 81.6944 16.5 77C16.5 72.3056 20.3056 68.5 25 68.5Z" stroke="#DADFE2"/>
<path d="M22 77C22 75.8954 22.8954 75 24 75H37C38.1046 75 39 75.8954 39 77V77C39 78.1046 38.1046 79 37 79H24C22.8954 79 22 78.1046 22 77V77Z" fill="#032B3A"/>
<path d="M48.9999 76.4109L46.7945 74.2055C46.7159 74.1296 46.6107 74.0876 46.5014 74.0885C46.3922 74.0895 46.2877 74.1333 46.2104 74.2105C46.1332 74.2878 46.0893 74.3923 46.0884 74.5015C46.0874 74.6108 46.1294 74.716 46.2053 74.7946L48.4108 77L46.2053 79.2054C46.1294 79.284 46.0874 79.3893 46.0884 79.4985C46.0893 79.6078 46.1332 79.7123 46.2104 79.7895C46.2877 79.8668 46.3922 79.9106 46.5014 79.9116C46.6107 79.9125 46.7159 79.8705 46.7945 79.7946L48.9999 77.5892L51.2053 79.7946C51.2839 79.8705 51.3892 79.9125 51.4984 79.9116C51.6077 79.9106 51.7122 79.8668 51.7894 79.7895C51.8667 79.7123 51.9105 79.6078 51.9115 79.4985C51.9124 79.3893 51.8704 79.284 51.7945 79.2054L49.5891 77L51.7945 74.7946C51.8343 74.7562 51.8661 74.7102 51.8879 74.6594C51.9097 74.6085 51.9212 74.5539 51.9217 74.4985C51.9222 74.4432 51.9116 74.3883 51.8907 74.3371C51.8697 74.2859 51.8388 74.2394 51.7997 74.2003C51.7606 74.1612 51.714 74.1302 51.6628 74.1093C51.6116 74.0883 51.5568 74.0778 51.5014 74.0783C51.4461 74.0787 51.3914 74.0902 51.3406 74.1121C51.2898 74.1339 51.2438 74.1657 51.2053 74.2055L48.9999 76.4109Z" fill="#233D48"/>
<path d="M74 68.5H100C104.694 68.5 108.5 72.3056 108.5 77C108.5 81.6944 104.694 85.5 100 85.5H74C69.3056 85.5 65.5 81.6944 65.5 77C65.5 72.3056 69.3056 68.5 74 68.5Z" fill="#F1F0E9"/>
<path d="M74 68.5H100C104.694 68.5 108.5 72.3056 108.5 77C108.5 81.6944 104.694 85.5 100 85.5H74C69.3056 85.5 65.5 81.6944 65.5 77C65.5 72.3056 69.3056 68.5 74 68.5Z" stroke="#DADFE2"/>
<path d="M71 77C71 75.8954 71.8954 75 73 75H86C87.1046 75 88 75.8954 88 77V77C88 78.1046 87.1046 79 86 79H73C71.8954 79 71 78.1046 71 77V77Z" fill="#032B3A"/>
<path d="M97.9999 76.4109L95.7945 74.2055C95.7159 74.1296 95.6107 74.0876 95.5014 74.0885C95.3922 74.0895 95.2877 74.1333 95.2104 74.2105C95.1332 74.2878 95.0893 74.3923 95.0884 74.5015C95.0874 74.6108 95.1294 74.716 95.2053 74.7946L97.4108 77L95.2053 79.2054C95.1294 79.284 95.0874 79.3893 95.0884 79.4985C95.0893 79.6078 95.1332 79.7123 95.2104 79.7895C95.2877 79.8668 95.3922 79.9106 95.5014 79.9116C95.6107 79.9125 95.7159 79.8705 95.7945 79.7946L97.9999 77.5892L100.205 79.7946C100.284 79.8705 100.389 79.9125 100.498 79.9116C100.608 79.9106 100.712 79.8668 100.789 79.7895C100.867 79.7123 100.911 79.6078 100.911 79.4985C100.912 79.3893 100.87 79.284 100.795 79.2054L98.5891 77L100.795 74.7946C100.834 74.7562 100.866 74.7102 100.888 74.6594C100.91 74.6085 100.921 74.5539 100.922 74.4985C100.922 74.4432 100.912 74.3883 100.891 74.3371C100.87 74.2859 100.839 74.2394 100.8 74.2003C100.761 74.1612 100.714 74.1302 100.663 74.1093C100.612 74.0883 100.557 74.0778 100.501 74.0783C100.446 74.0787 100.391 74.0902 100.341 74.1121C100.29 74.1339 100.244 74.1657 100.205 74.2055L97.9999 76.4109Z" fill="#233D48"/>
</g>
<defs>
<clipPath id="clip0_37_5170">
<path d="M0 8C0 3.58172 3.58172 0 8 0H216C220.418 0 224 3.58172 224 8V109C224 113.418 220.418 117 216 117H8C3.58172 117 0 113.418 0 109V8Z" fill="white"/>
</clipPath>
</defs>
</svg>
