<svg width="296" height="161" viewBox="0 0 296 161" fill="none" xmlns="http://www.w3.org/2000/svg">
<g filter="url(#filter0_dd_1_17162)">
<g clip-path="url(#clip0_1_17162)">
<path d="M11 14.4852C11 10.9035 13.9035 8 17.4852 8H278.515C282.096 8 285 10.9035 285 14.4852V139.822C285 143.404 282.096 146.308 278.515 146.308H17.4852C13.9035 146.308 11 143.404 11 139.822V14.4852Z" fill="white"/>
<path d="M37.6847 31.7746H34.6586C34.6033 31.3831 34.4905 31.0353 34.3201 30.7314C34.1497 30.4228 33.9309 30.1602 33.6637 29.9437C33.3966 29.7273 33.088 29.5614 32.7379 29.4463C32.3925 29.3311 32.0171 29.2736 31.6118 29.2736C30.8794 29.2736 30.2415 29.4555 29.698 29.8194C29.1545 30.1786 28.733 30.7037 28.4336 31.3946C28.1343 32.0809 27.9846 32.9146 27.9846 33.8957C27.9846 34.9044 28.1343 35.7519 28.4336 36.4382C28.7376 37.1244 29.1614 37.6426 29.7049 37.9927C30.2484 38.3427 30.8771 38.5177 31.591 38.5177C31.9918 38.5177 32.3625 38.4648 32.7034 38.3588C33.0488 38.2529 33.3551 38.0986 33.6223 37.8959C33.8894 37.6887 34.1105 37.4376 34.2855 37.1429C34.4652 36.8481 34.5895 36.5118 34.6586 36.1342L37.6847 36.148C37.6064 36.7974 37.4107 37.4238 37.0975 38.0272C36.7889 38.626 36.372 39.1626 35.847 39.637C35.3265 40.1068 34.7047 40.4799 33.9815 40.7563C33.263 41.028 32.4501 41.1639 31.5427 41.1639C30.2806 41.1639 29.1522 40.8783 28.1573 40.3072C27.167 39.736 26.384 38.9093 25.8082 37.8269C25.2371 36.7444 24.9515 35.4341 24.9515 33.8957C24.9515 32.3527 25.2417 31.04 25.8221 29.9576C26.4024 28.8751 27.19 28.0507 28.1849 27.4841C29.1798 26.913 30.2991 26.6274 31.5427 26.6274C32.3625 26.6274 33.1225 26.7426 33.8226 26.9729C34.5273 27.2032 35.1515 27.5394 35.695 27.9816C36.2385 28.4192 36.6806 28.9558 37.0215 29.5914C37.3669 30.227 37.588 30.9547 37.6847 31.7746ZM44.5695 41.1777C43.4963 41.1777 42.5682 40.9497 41.7852 40.4937C41.0068 40.0331 40.4057 39.3929 39.982 38.573C39.5582 37.7486 39.3463 36.7928 39.3463 35.7058C39.3463 34.6096 39.5582 33.6515 39.982 32.8317C40.4057 32.0072 41.0068 31.367 41.7852 30.911C42.5682 30.4504 43.4963 30.2201 44.5695 30.2201C45.6427 30.2201 46.5685 30.4504 47.3469 30.911C48.1299 31.367 48.7333 32.0072 49.1571 32.8317C49.5808 33.6515 49.7927 34.6096 49.7927 35.7058C49.7927 36.7928 49.5808 37.7486 49.1571 38.573C48.7333 39.3929 48.1299 40.0331 47.3469 40.4937C46.5685 40.9497 45.6427 41.1777 44.5695 41.1777ZM44.5833 38.8977C45.0716 38.8977 45.4792 38.7596 45.8062 38.4832C46.1332 38.2022 46.3797 37.8199 46.5455 37.3363C46.7159 36.8527 46.8011 36.3023 46.8011 35.6851C46.8011 35.0679 46.7159 34.5175 46.5455 34.0338C46.3797 33.5502 46.1332 33.1679 45.8062 32.8869C45.4792 32.606 45.0716 32.4655 44.5833 32.4655C44.0905 32.4655 43.676 32.606 43.3397 32.8869C43.0081 33.1679 42.7571 33.5502 42.5866 34.0338C42.4208 34.5175 42.3379 35.0679 42.3379 35.6851C42.3379 36.3023 42.4208 36.8527 42.5866 37.3363C42.7571 37.8199 43.0081 38.2022 43.3397 38.4832C43.676 38.7596 44.0905 38.8977 44.5833 38.8977ZM54.6497 34.8353V40.9704H51.7065V30.3583H54.5115V32.2306H54.6359C54.8708 31.6134 55.2646 31.1252 55.8173 30.7659C56.37 30.402 57.0402 30.2201 57.8278 30.2201C58.5648 30.2201 59.2073 30.3813 59.7554 30.7037C60.3035 31.0261 60.7296 31.4867 61.0336 32.0855C61.3376 32.6797 61.4895 33.389 61.4895 34.2135V40.9704H58.5463V34.7385C58.5509 34.0891 58.3851 33.5825 58.0489 33.2186C57.7127 32.8501 57.2498 32.6659 56.6602 32.6659C56.2641 32.6659 55.914 32.7511 55.61 32.9215C55.3106 33.0919 55.0757 33.3406 54.9053 33.6677C54.7395 33.9901 54.6543 34.3793 54.6497 34.8353ZM69.516 30.3583V32.5691H62.9663V30.3583H69.516ZM64.4656 40.9704V29.5914C64.4656 28.8222 64.6153 28.1843 64.9147 27.6776C65.2187 27.1709 65.6332 26.7909 66.1583 26.5376C66.6834 26.2843 67.2798 26.1576 67.9477 26.1576C68.3991 26.1576 68.8113 26.1922 69.1844 26.2613C69.5621 26.3303 69.8431 26.3925 70.0273 26.4478L69.5022 28.6587C69.3871 28.6218 69.2443 28.5873 69.0739 28.555C68.908 28.5228 68.7376 28.5067 68.5626 28.5067C68.1296 28.5067 67.8279 28.608 67.6575 28.8107C67.4871 29.0087 67.4019 29.2874 67.4019 29.6466V40.9704H64.4656ZM71.3141 40.9704V30.3583H74.2573V40.9704H71.3141ZM72.7926 28.9903C72.355 28.9903 71.9797 28.8452 71.6664 28.555C71.3578 28.2603 71.2035 27.9079 71.2035 27.498C71.2035 27.0926 71.3578 26.7449 71.6664 26.4547C71.9797 26.1599 72.355 26.0125 72.7926 26.0125C73.2302 26.0125 73.6033 26.1599 73.9119 26.4547C74.2251 26.7449 74.3817 27.0926 74.3817 27.498C74.3817 27.9079 74.2251 28.2603 73.9119 28.555C73.6033 28.8452 73.2302 28.9903 72.7926 28.9903ZM76.615 40.9704V30.3583H79.4684V32.2099H79.5789C79.7724 31.5512 80.0971 31.0538 80.5531 30.7175C81.0091 30.3767 81.5342 30.2063 82.1283 30.2063C82.2757 30.2063 82.4346 30.2155 82.605 30.2339C82.7755 30.2523 82.9252 30.2777 83.0541 30.3099V32.9215C82.916 32.88 82.7248 32.8432 82.4807 32.811C82.2366 32.7787 82.0132 32.7626 81.8105 32.7626C81.3776 32.7626 80.9907 32.857 80.6498 33.0459C80.3136 33.2301 80.0464 33.488 79.8484 33.8197C79.6549 34.1513 79.5582 34.5336 79.5582 34.9665V40.9704H76.615ZM84.5758 40.9704V30.3583H87.3809V32.2306H87.5052C87.7263 31.6088 88.0948 31.1183 88.6107 30.759C89.1265 30.3997 89.7437 30.2201 90.4623 30.2201C91.19 30.2201 91.8095 30.402 92.3208 30.7659C92.832 31.1252 93.1729 31.6134 93.3433 32.2306H93.4538C93.6703 31.6226 94.0618 31.1367 94.6284 30.7728C95.1995 30.4043 95.8743 30.2201 96.6527 30.2201C97.643 30.2201 98.4467 30.5356 99.0639 31.1666C99.6857 31.793 99.9966 32.682 99.9966 33.8335V40.9704H97.0603V34.4138C97.0603 33.8243 96.9037 33.3821 96.5905 33.0873C96.2773 32.7925 95.8858 32.6451 95.416 32.6451C94.8817 32.6451 94.4648 32.8156 94.1655 33.1564C93.8661 33.4926 93.7164 33.9371 93.7164 34.4898V40.9704H90.863V34.3516C90.863 33.8312 90.7133 33.4166 90.4139 33.108C90.1191 32.7994 89.7299 32.6451 89.2463 32.6451C88.9193 32.6451 88.6245 32.728 88.3619 32.8939C88.104 33.0551 87.899 33.2831 87.747 33.5778C87.595 33.868 87.519 34.2089 87.519 34.6004V40.9704H84.5758ZM106.251 35.3604V33.9717C107.048 33.9717 107.601 33.8127 107.909 33.4949C108.218 33.1771 108.372 32.6636 108.372 31.9542V30.4274C108.372 29.5753 108.489 28.8936 108.724 28.3823C108.964 27.8664 109.295 27.4772 109.719 27.2147C110.148 26.9522 110.654 26.7771 111.239 26.6896C111.824 26.6021 112.464 26.5583 113.16 26.5583V28.7554C112.616 28.7554 112.202 28.8268 111.916 28.9696C111.635 29.1077 111.444 29.3242 111.343 29.619C111.242 29.9092 111.191 30.2777 111.191 30.7244V32.7419C111.191 33.0919 111.126 33.4258 110.997 33.7437C110.868 34.0569 110.629 34.3355 110.279 34.5796C109.929 34.8192 109.429 35.0103 108.78 35.1531C108.13 35.2913 107.287 35.3604 106.251 35.3604ZM113.16 44.0449C112.464 44.0449 111.824 44.0012 111.239 43.9136C110.654 43.8261 110.148 43.6511 109.719 43.3886C109.295 43.126 108.964 42.7368 108.724 42.2209C108.489 41.7097 108.372 41.028 108.372 40.1759V38.6421C108.372 37.9328 108.218 37.4192 107.909 37.1014C107.601 36.7836 107.048 36.6247 106.251 36.6247V35.236C107.287 35.236 108.13 35.3074 108.78 35.4502C109.429 35.5884 109.929 35.7795 110.279 36.0236C110.629 36.2631 110.868 36.5418 110.997 36.8596C111.126 37.1728 111.191 37.5067 111.191 37.8614V39.8788C111.191 40.321 111.242 40.6872 111.343 40.9773C111.444 41.2721 111.635 41.4886 111.916 41.6268C112.202 41.7696 112.616 41.841 113.16 41.841V44.0449ZM106.251 36.6247V33.9717H108.731V36.6247H106.251ZM120.43 30.3583V32.5691H114.039V30.3583H120.43ZM115.49 27.8158H118.433V37.7094C118.433 37.9812 118.475 38.193 118.558 38.345C118.64 38.4924 118.756 38.5961 118.903 38.6559C119.055 38.7158 119.23 38.7457 119.428 38.7457C119.566 38.7457 119.704 38.7342 119.843 38.7112C119.981 38.6836 120.087 38.6628 120.16 38.649L120.623 40.8392C120.476 40.8852 120.269 40.9382 120.002 40.9981C119.734 41.0625 119.41 41.1017 119.027 41.1155C118.318 41.1432 117.696 41.0487 117.162 40.8322C116.632 40.6158 116.22 40.2795 115.925 39.8235C115.63 39.3676 115.485 38.7918 115.49 38.0963V27.8158ZM125.518 34.8353V40.9704H122.575V26.8209H125.435V32.2306H125.56C125.799 31.6042 126.186 31.1136 126.72 30.759C127.255 30.3997 127.925 30.2201 128.731 30.2201C129.468 30.2201 130.11 30.3813 130.659 30.7037C131.211 31.0215 131.64 31.4798 131.944 32.0786C132.252 32.6728 132.404 33.3844 132.4 34.2135V40.9704H129.456V34.7385C129.461 34.0845 129.295 33.5755 128.959 33.2117C128.627 32.8478 128.162 32.6659 127.563 32.6659C127.163 32.6659 126.808 32.7511 126.499 32.9215C126.195 33.0919 125.956 33.3406 125.781 33.6677C125.61 33.9901 125.523 34.3793 125.518 34.8353ZM134.716 40.9704V30.3583H137.659V40.9704H134.716ZM136.194 28.9903C135.757 28.9903 135.381 28.8452 135.068 28.555C134.76 28.2603 134.605 27.9079 134.605 27.498C134.605 27.0926 134.76 26.7449 135.068 26.4547C135.381 26.1599 135.757 26.0125 136.194 26.0125C136.632 26.0125 137.005 26.1599 137.314 26.4547C137.627 26.7449 137.783 27.0926 137.783 27.498C137.783 27.9079 137.627 28.2603 137.314 28.555C137.005 28.8452 136.632 28.9903 136.194 28.9903ZM142.96 34.8353V40.9704H140.017V30.3583H142.822V32.2306H142.946C143.181 31.6134 143.575 31.1252 144.128 30.7659C144.68 30.402 145.35 30.2201 146.138 30.2201C146.875 30.2201 147.518 30.3813 148.066 30.7037C148.614 31.0261 149.04 31.4867 149.344 32.0855C149.648 32.6797 149.8 33.389 149.8 34.2135V40.9704H146.857V34.7385C146.861 34.0891 146.695 33.5825 146.359 33.2186C146.023 32.8501 145.56 32.6659 144.97 32.6659C144.574 32.6659 144.224 32.7511 143.92 32.9215C143.621 33.0919 143.386 33.3406 143.216 33.6677C143.05 33.9901 142.965 34.3793 142.96 34.8353ZM156.901 45.1711C155.947 45.1711 155.13 45.0398 154.448 44.7773C153.771 44.5193 153.232 44.167 152.831 43.7202C152.43 43.2734 152.17 42.7714 152.05 42.214L154.773 41.8479C154.855 42.0597 154.987 42.2578 155.166 42.442C155.346 42.6263 155.583 42.7737 155.878 42.8842C156.177 42.9994 156.541 43.0569 156.97 43.0569C157.61 43.0569 158.137 42.9003 158.552 42.5871C158.971 42.2785 159.18 41.7604 159.18 41.0326V39.0912H159.056C158.927 39.386 158.734 39.6646 158.476 39.9272C158.218 40.1897 157.886 40.4039 157.481 40.5697C157.076 40.7355 156.592 40.8184 156.03 40.8184C155.233 40.8184 154.508 40.6342 153.854 40.2657C153.204 39.8926 152.686 39.3238 152.299 38.5592C151.917 37.79 151.726 36.8181 151.726 35.6436C151.726 34.4415 151.921 33.4374 152.313 32.6313C152.704 31.8253 153.225 31.2219 153.874 30.8212C154.528 30.4205 155.245 30.2201 156.023 30.2201C156.617 30.2201 157.115 30.3214 157.515 30.5241C157.916 30.7221 158.239 30.9709 158.483 31.2703C158.731 31.565 158.923 31.8552 159.056 32.1408H159.167V30.3583H162.089V41.0741C162.089 41.9768 161.868 42.7322 161.426 43.3402C160.984 43.9482 160.371 44.4042 159.588 44.7082C158.81 45.0168 157.914 45.1711 156.901 45.1711ZM156.963 38.6076C157.437 38.6076 157.838 38.4901 158.165 38.2552C158.496 38.0157 158.75 37.6749 158.925 37.2327C159.104 36.7859 159.194 36.2516 159.194 35.6298C159.194 35.008 159.107 34.4691 158.932 34.0131C158.757 33.5525 158.503 33.1955 158.172 32.9422C157.84 32.6889 157.437 32.5622 156.963 32.5622C156.479 32.5622 156.071 32.6935 155.74 32.956C155.408 33.214 155.157 33.5732 154.987 34.0338C154.816 34.4944 154.731 35.0264 154.731 35.6298C154.731 36.2424 154.816 36.7721 154.987 37.2189C155.162 37.661 155.413 38.0042 155.74 38.2483C156.071 38.4878 156.479 38.6076 156.963 38.6076ZM170.615 35.236V36.6247C169.823 36.6247 169.27 36.7836 168.957 37.1014C168.648 37.4192 168.494 37.9328 168.494 38.6421V40.1759C168.494 41.028 168.374 41.7097 168.134 42.2209C167.9 42.7368 167.568 43.126 167.14 43.3886C166.716 43.6511 166.211 43.8261 165.627 43.9136C165.046 44.0012 164.406 44.0449 163.706 44.0449V41.841C164.249 41.841 164.662 41.7696 164.943 41.6268C165.228 41.4886 165.422 41.2721 165.523 40.9773C165.624 40.6872 165.675 40.321 165.675 39.8788V37.8614C165.675 37.5067 165.739 37.1728 165.868 36.8596C165.997 36.5418 166.237 36.2631 166.587 36.0236C166.937 35.7795 167.437 35.5884 168.086 35.4502C168.736 35.3074 169.578 35.236 170.615 35.236ZM163.706 26.5583C164.406 26.5583 165.046 26.6021 165.627 26.6896C166.211 26.7771 166.716 26.9522 167.14 27.2147C167.568 27.4772 167.9 27.8664 168.134 28.3823C168.374 28.8936 168.494 29.5753 168.494 30.4274V31.9542C168.494 32.6636 168.648 33.1771 168.957 33.4949C169.27 33.8127 169.823 33.9717 170.615 33.9717V35.3604C169.578 35.3604 168.736 35.2913 168.086 35.1531C167.437 35.0103 166.937 34.8192 166.587 34.5796C166.237 34.3355 165.997 34.0569 165.868 33.7437C165.739 33.4258 165.675 33.0919 165.675 32.7419V30.7244C165.675 30.2777 165.624 29.9092 165.523 29.619C165.422 29.3242 165.228 29.1077 164.943 28.9696C164.662 28.8268 164.249 28.7554 163.706 28.7554V26.5583ZM170.615 33.9717V36.6247H168.134V33.9717H170.615Z" fill="#032B3A"/>
<rect width="248.059" height="28" transform="translate(23.9705 59.9408)" fill="white"/>
<path d="M31.6118 65.2662H30.6123C30.5532 64.9788 30.4497 64.7262 30.3019 64.5086C30.1569 64.2909 29.9795 64.1082 29.77 63.9604C29.5631 63.81 29.3333 63.6971 29.0808 63.6219C28.8282 63.5467 28.5649 63.5091 28.2909 63.5091C27.7911 63.5091 27.3384 63.6353 26.9327 63.8879C26.5297 64.1405 26.2086 64.5126 25.9695 65.0043C25.733 65.496 25.6148 66.0992 25.6148 66.8138C25.6148 67.5285 25.733 68.1317 25.9695 68.6234C26.2086 69.1151 26.5297 69.4872 26.9327 69.7398C27.3384 69.9923 27.7911 70.1186 28.2909 70.1186C28.5649 70.1186 28.8282 70.081 29.0808 70.0058C29.3333 69.9306 29.5631 69.8191 29.77 69.6713C29.9795 69.5208 30.1569 69.3368 30.3019 69.1191C30.4497 68.8988 30.5532 68.6463 30.6123 68.3615H31.6118C31.5365 68.7833 31.3995 69.1608 31.2007 69.4939C31.0019 69.8271 30.7547 70.1106 30.4591 70.3443C30.1636 70.5754 29.8317 70.7514 29.4637 70.8723C29.0982 70.9932 28.7073 71.0536 28.2909 71.0536C27.5869 71.0536 26.9609 70.8817 26.4128 70.5378C25.8647 70.1939 25.4334 69.7049 25.1191 69.0708C24.8047 68.4367 24.6475 67.6844 24.6475 66.8138C24.6475 65.9433 24.8047 65.191 25.1191 64.5569C25.4334 63.9228 25.8647 63.4338 26.4128 63.0899C26.9609 62.746 27.5869 62.574 28.2909 62.574C28.7073 62.574 29.0982 62.6345 29.4637 62.7554C29.8317 62.8763 30.1636 63.0536 30.4591 63.2874C30.7547 63.5185 31.0019 63.8006 31.2007 64.1337C31.3995 64.4642 31.5365 64.8417 31.6118 65.2662ZM35.6128 71.0698C35.0539 71.0698 34.5636 70.9368 34.1417 70.6708C33.7226 70.4048 33.3948 70.0327 33.1584 69.5544C32.9246 69.0761 32.8077 68.5173 32.8077 67.8778C32.8077 67.233 32.9246 66.6701 33.1584 66.1892C33.3948 65.7082 33.7226 65.3348 34.1417 65.0688C34.5636 64.8028 35.0539 64.6698 35.6128 64.6698C36.1716 64.6698 36.6606 64.8028 37.0798 65.0688C37.5016 65.3348 37.8294 65.7082 38.0631 66.1892C38.2996 66.6701 38.4178 67.233 38.4178 67.8778C38.4178 68.5173 38.2996 69.0761 38.0631 69.5544C37.8294 70.0327 37.5016 70.4048 37.0798 70.6708C36.6606 70.9368 36.1716 71.0698 35.6128 71.0698ZM35.6128 70.2154C36.0373 70.2154 36.3866 70.1065 36.6606 69.8889C36.9347 69.6713 37.1375 69.3851 37.2692 69.0305C37.4008 68.6758 37.4667 68.2916 37.4667 67.8778C37.4667 67.4641 37.4008 67.0785 37.2692 66.7212C37.1375 66.3638 36.9347 66.075 36.6606 65.8547C36.3866 65.6343 36.0373 65.5242 35.6128 65.5242C35.1883 65.5242 34.839 65.6343 34.5649 65.8547C34.2909 66.075 34.088 66.3638 33.9563 66.7212C33.8247 67.0785 33.7589 67.4641 33.7589 67.8778C33.7589 68.2916 33.8247 68.6758 33.9563 69.0305C34.088 69.3851 34.2909 69.6713 34.5649 69.8889C34.839 70.1065 35.1883 70.2154 35.6128 70.2154ZM40.8208 67.2169V70.9408H39.8697V64.7504H40.7886V65.7176H40.8692C41.0143 65.4033 41.2346 65.1507 41.5301 64.9599C41.8257 64.7665 42.2072 64.6698 42.6747 64.6698C43.0939 64.6698 43.4606 64.7557 43.775 64.9277C44.0893 65.097 44.3338 65.3549 44.5085 65.7015C44.6831 66.0454 44.7704 66.4807 44.7704 67.0073V70.9408H43.8193V67.0718C43.8193 66.5855 43.693 66.2066 43.4405 65.9353C43.1879 65.6612 42.8413 65.5242 42.4007 65.5242C42.0971 65.5242 41.8257 65.59 41.5866 65.7217C41.3501 65.8533 41.1634 66.0454 41.0264 66.298C40.8893 66.5505 40.8208 66.8568 40.8208 67.2169ZM49.2652 64.7504V65.5564H45.9281V64.7504H49.2652ZM46.9276 70.9408V63.896C46.9276 63.5413 47.0109 63.2458 47.1775 63.0093C47.3441 62.7729 47.5604 62.5955 47.8264 62.4773C48.0924 62.3591 48.3731 62.3 48.6687 62.3C48.9024 62.3 49.0932 62.3188 49.241 62.3564C49.3888 62.394 49.4989 62.429 49.5715 62.4612L49.2974 63.2834C49.249 63.2672 49.1819 63.2471 49.0959 63.2229C49.0126 63.1987 48.9024 63.1866 48.7654 63.1866C48.4511 63.1866 48.224 63.2659 48.0843 63.4244C47.9473 63.5829 47.8788 63.8154 47.8788 64.1217V70.9408H46.9276ZM50.5982 70.9408V64.7504H51.5493V70.9408H50.5982ZM51.0818 63.7186C50.8964 63.7186 50.7365 63.6555 50.6022 63.5292C50.4705 63.4029 50.4047 63.2511 50.4047 63.0738C50.4047 62.8965 50.4705 62.7447 50.6022 62.6184C50.7365 62.4921 50.8964 62.429 51.0818 62.429C51.2672 62.429 51.4257 62.4921 51.5573 62.6184C51.6917 62.7447 51.7589 62.8965 51.7589 63.0738C51.7589 63.2511 51.6917 63.4029 51.5573 63.5292C51.4257 63.6555 51.2672 63.7186 51.0818 63.7186ZM53.2914 70.9408V64.7504H54.2102V65.6854H54.2747C54.3876 65.3791 54.5918 65.1306 54.8873 64.9398C55.1829 64.749 55.516 64.6536 55.8868 64.6536C55.9567 64.6536 56.044 64.655 56.1488 64.6577C56.2536 64.6604 56.3328 64.6644 56.3866 64.6698V65.637C56.3543 65.629 56.2804 65.6169 56.1649 65.6007C56.0521 65.5819 55.9325 65.5725 55.8062 65.5725C55.5053 65.5725 55.2366 65.6357 55.0002 65.762C54.7664 65.8856 54.581 66.0575 54.444 66.2778C54.3097 66.4955 54.2425 66.744 54.2425 67.0234V70.9408H53.2914ZM57.514 70.9408V64.7504H58.4329V65.7176H58.5135C58.6425 65.3871 58.8507 65.1306 59.1382 64.9479C59.4257 64.7625 59.7709 64.6698 60.174 64.6698C60.5824 64.6698 60.9222 64.7625 61.1936 64.9479C61.4677 65.1306 61.6813 65.3871 61.8344 65.7176H61.8989C62.0574 65.3979 62.2952 65.144 62.6123 64.9559C62.9293 64.7651 63.3095 64.6698 63.7528 64.6698C64.3063 64.6698 64.759 64.8431 65.111 65.1897C65.463 65.5336 65.639 66.0696 65.639 66.7977V70.9408H64.6878V66.7977C64.6878 66.341 64.5629 66.0145 64.313 65.8184C64.0631 65.6222 63.7689 65.5242 63.4304 65.5242C62.9951 65.5242 62.6579 65.6558 62.4188 65.9191C62.1797 66.1798 62.0601 66.5102 62.0601 66.9106V70.9408H61.0929V66.701C61.0929 66.349 60.9787 66.0656 60.7503 65.8506C60.5219 65.633 60.2277 65.5242 59.8677 65.5242C59.6205 65.5242 59.3894 65.59 59.1745 65.7217C58.9622 65.8533 58.7903 66.036 58.6586 66.2698C58.5296 66.5008 58.4652 66.7682 58.4652 67.0718V70.9408H57.514ZM69.1997 71.0859C68.8074 71.0859 68.4514 71.012 68.1316 70.8642C67.8119 70.7138 67.558 70.4975 67.3699 70.2154C67.1819 69.9306 67.0878 69.5866 67.0878 69.1836C67.0878 68.829 67.1577 68.5415 67.2974 68.3211C67.4371 68.0981 67.6238 67.9235 67.8576 67.7972C68.0913 67.6709 68.3493 67.5769 68.6314 67.5151C68.9162 67.4506 69.2023 67.3996 69.4898 67.362C69.866 67.3136 70.1709 67.2773 70.4047 67.2531C70.6411 67.2263 70.8131 67.1819 70.9206 67.1201C71.0307 67.0583 71.0858 66.9509 71.0858 66.7977V66.7655C71.0858 66.3678 70.977 66.0589 70.7594 65.8385C70.5444 65.6182 70.218 65.5081 69.78 65.5081C69.3259 65.5081 68.9699 65.6075 68.712 65.8063C68.4541 66.0051 68.2727 66.2174 68.1679 66.4431L67.2651 66.1206C67.4264 65.7445 67.6413 65.4516 67.91 65.2421C68.1814 65.0298 68.4769 64.882 68.7966 64.7987C69.1191 64.7128 69.4361 64.6698 69.7478 64.6698C69.9466 64.6698 70.175 64.6939 70.4329 64.7423C70.6935 64.788 70.9447 64.8834 71.1866 65.0285C71.4311 65.1735 71.6339 65.3925 71.7951 65.6854C71.9563 65.9782 72.0369 66.3705 72.0369 66.8622V70.9408H71.0858V70.1025H71.0374C70.973 70.2368 70.8655 70.3806 70.715 70.5337C70.5646 70.6869 70.3644 70.8172 70.1145 70.9247C69.8646 71.0321 69.5597 71.0859 69.1997 71.0859ZM69.3447 70.2315C69.7209 70.2315 70.0379 70.1576 70.2959 70.0098C70.5565 69.862 70.7526 69.6713 70.8843 69.4375C71.0186 69.2038 71.0858 68.9579 71.0858 68.7V67.8295C71.0455 67.8778 70.9568 67.9222 70.8198 67.9625C70.6855 68.0001 70.5296 68.0337 70.3523 68.0632C70.1777 68.0901 70.007 68.1143 69.8405 68.1358C69.6766 68.1546 69.5436 68.1707 69.4415 68.1841C69.1943 68.2164 68.9632 68.2688 68.7483 68.3413C68.536 68.4112 68.3641 68.5173 68.2324 68.6597C68.1034 68.7994 68.039 68.9902 68.039 69.232C68.039 69.5625 68.1612 69.8123 68.4057 69.9816C68.6529 70.1482 68.9659 70.2315 69.3447 70.2315ZM76.4651 64.7504V65.5564H73.2571V64.7504H76.4651ZM74.1921 63.2672H75.1432V69.1675C75.1432 69.4362 75.1822 69.6377 75.2601 69.772C75.3407 69.9037 75.4428 69.9923 75.5664 70.038C75.6927 70.081 75.8257 70.1025 75.9654 70.1025C76.0702 70.1025 76.1562 70.0971 76.2233 70.0864C76.2905 70.073 76.3442 70.0622 76.3845 70.0541L76.578 70.9086C76.5135 70.9327 76.4235 70.9569 76.308 70.9811C76.1924 71.008 76.046 71.0214 75.8687 71.0214C75.6 71.0214 75.3367 70.9636 75.0787 70.8481C74.8235 70.7326 74.6112 70.5566 74.442 70.3201C74.2754 70.0837 74.1921 69.7855 74.1921 69.4254V63.2672ZM77.8959 70.9408V64.7504H78.847V70.9408H77.8959ZM78.3795 63.7186C78.1941 63.7186 78.0342 63.6555 77.8999 63.5292C77.7682 63.4029 77.7024 63.2511 77.7024 63.0738C77.7024 62.8965 77.7682 62.7447 77.8999 62.6184C78.0342 62.4921 78.1941 62.429 78.3795 62.429C78.5649 62.429 78.7234 62.4921 78.8551 62.6184C78.9894 62.7447 79.0566 62.8965 79.0566 63.0738C79.0566 63.2511 78.9894 63.4029 78.8551 63.5292C78.7234 63.6555 78.5649 63.7186 78.3795 63.7186ZM83.1039 71.0698C82.5451 71.0698 82.0547 70.9368 81.6329 70.6708C81.2138 70.4048 80.886 70.0327 80.6495 69.5544C80.4158 69.0761 80.2989 68.5173 80.2989 67.8778C80.2989 67.233 80.4158 66.6701 80.6495 66.1892C80.886 65.7082 81.2138 65.3348 81.6329 65.0688C82.0547 64.8028 82.5451 64.6698 83.1039 64.6698C83.6628 64.6698 84.1518 64.8028 84.5709 65.0688C84.9928 65.3348 85.3206 65.7082 85.5543 66.1892C85.7907 66.6701 85.909 67.233 85.909 67.8778C85.909 68.5173 85.7907 69.0761 85.5543 69.5544C85.3206 70.0327 84.9928 70.4048 84.5709 70.6708C84.1518 70.9368 83.6628 71.0698 83.1039 71.0698ZM83.1039 70.2154C83.5284 70.2154 83.8777 70.1065 84.1518 69.8889C84.4258 69.6713 84.6287 69.3851 84.7604 69.0305C84.892 68.6758 84.9578 68.2916 84.9578 67.8778C84.9578 67.4641 84.892 67.0785 84.7604 66.7212C84.6287 66.3638 84.4258 66.075 84.1518 65.8547C83.8777 65.6343 83.5284 65.5242 83.1039 65.5242C82.6794 65.5242 82.3301 65.6343 82.0561 65.8547C81.782 66.075 81.5792 66.3638 81.4475 66.7212C81.3159 67.0785 81.25 67.4641 81.25 67.8778C81.25 68.2916 81.3159 68.6758 81.4475 69.0305C81.5792 69.3851 81.782 69.6713 82.0561 69.8889C82.3301 70.1065 82.6794 70.2154 83.1039 70.2154ZM88.312 67.2169V70.9408H87.3609V64.7504H88.2797V65.7176H88.3604C88.5054 65.4033 88.7258 65.1507 89.0213 64.9599C89.3169 64.7665 89.6984 64.6698 90.1659 64.6698C90.585 64.6698 90.9518 64.7557 91.2661 64.9277C91.5805 65.097 91.825 65.3549 91.9996 65.7015C92.1743 66.0454 92.2616 66.4807 92.2616 67.0073V70.9408H91.3105V67.0718C91.3105 66.5855 91.1842 66.2066 90.9316 65.9353C90.6791 65.6612 90.3325 65.5242 89.8918 65.5242C89.5882 65.5242 89.3169 65.59 89.0777 65.7217C88.8413 65.8533 88.6546 66.0454 88.5175 66.298C88.3805 66.5505 88.312 66.8568 88.312 67.2169ZM97.1916 70.9408V64.7504H98.1105V65.7176H98.1911C98.32 65.3871 98.5283 65.1306 98.8158 64.9479C99.1033 64.7625 99.4485 64.6698 99.8515 64.6698C100.26 64.6698 100.6 64.7625 100.871 64.9479C101.145 65.1306 101.359 65.3871 101.512 65.7176H101.576C101.735 65.3979 101.973 65.144 102.29 64.9559C102.607 64.7651 102.987 64.6698 103.43 64.6698C103.984 64.6698 104.437 64.8431 104.789 65.1897C105.141 65.5336 105.317 66.0696 105.317 66.7977V70.9408H104.365V66.7977C104.365 66.341 104.24 66.0145 103.991 65.8184C103.741 65.6222 103.446 65.5242 103.108 65.5242C102.673 65.5242 102.335 65.6558 102.096 65.9191C101.857 66.1798 101.738 66.5102 101.738 66.9106V70.9408H100.77V66.701C100.77 66.349 100.656 66.0656 100.428 65.8506C100.199 65.633 99.9053 65.5242 99.5452 65.5242C99.298 65.5242 99.067 65.59 98.852 65.7217C98.6398 65.8533 98.4678 66.036 98.3362 66.2698C98.2072 66.5008 98.1427 66.7682 98.1427 67.0718V70.9408H97.1916ZM109.651 71.0698C109.055 71.0698 108.54 70.9381 108.107 70.6748C107.678 70.4088 107.346 70.038 107.112 69.5625C106.881 69.0842 106.765 68.528 106.765 67.8939C106.765 67.2599 106.881 66.701 107.112 66.2174C107.346 65.7311 107.671 65.3522 108.087 65.0808C108.506 64.8068 108.995 64.6698 109.554 64.6698C109.877 64.6698 110.195 64.7235 110.509 64.831C110.824 64.9384 111.11 65.1131 111.368 65.3549C111.626 65.594 111.831 65.9111 111.985 66.306C112.138 66.701 112.214 67.1873 112.214 67.765V68.168H107.442V67.3458H111.247C111.247 66.9965 111.177 66.6849 111.037 66.4108C110.9 66.1368 110.704 65.9205 110.449 65.762C110.196 65.6034 109.898 65.5242 109.554 65.5242C109.175 65.5242 108.848 65.6182 108.571 65.8063C108.297 65.9917 108.086 66.2335 107.938 66.5317C107.79 66.83 107.717 67.1497 107.717 67.4909V68.039C107.717 68.5065 107.797 68.9028 107.958 69.228C108.122 69.5504 108.349 69.7962 108.639 69.9655C108.93 70.1321 109.267 70.2154 109.651 70.2154C109.901 70.2154 110.127 70.1804 110.328 70.1106C110.532 70.038 110.708 69.9306 110.856 69.7882C111.004 69.6431 111.118 69.463 111.199 69.2481L112.118 69.506C112.021 69.8177 111.858 70.0918 111.63 70.3282C111.401 70.562 111.119 70.7447 110.784 70.8763C110.448 71.0053 110.07 71.0698 109.651 71.0698ZM118.046 66.1368L117.192 66.3786C117.138 66.2362 117.059 66.0978 116.954 65.9635C116.852 65.8264 116.712 65.7136 116.535 65.6249C116.357 65.5363 116.13 65.4919 115.854 65.4919C115.475 65.4919 115.159 65.5793 114.906 65.7539C114.657 65.9259 114.532 66.1448 114.532 66.4108C114.532 66.6473 114.618 66.834 114.79 66.971C114.962 67.1081 115.23 67.2222 115.596 67.3136L116.514 67.5393C117.068 67.6736 117.48 67.8792 117.752 68.1559C118.023 68.43 118.159 68.7833 118.159 69.2159C118.159 69.5705 118.057 69.8876 117.853 70.167C117.651 70.4464 117.369 70.6667 117.006 70.8279C116.643 70.9892 116.222 71.0698 115.741 71.0698C115.109 71.0698 114.587 70.9327 114.173 70.6587C113.759 70.3846 113.497 69.9843 113.387 69.4577L114.29 69.232C114.376 69.5651 114.538 69.815 114.777 69.9816C115.019 70.1482 115.335 70.2315 115.725 70.2315C116.168 70.2315 116.52 70.1374 116.78 69.9494C117.044 69.7586 117.175 69.5302 117.175 69.2642C117.175 69.0493 117.1 68.8693 116.95 68.7242C116.799 68.5764 116.568 68.4662 116.257 68.3937L115.225 68.1519C114.658 68.0175 114.241 67.8093 113.975 67.5272C113.712 67.2424 113.58 66.8864 113.58 66.4592C113.58 66.1099 113.679 65.8009 113.875 65.5322C114.074 65.2636 114.344 65.0526 114.685 64.8995C115.029 64.7463 115.418 64.6698 115.854 64.6698C116.466 64.6698 116.947 64.8041 117.296 65.0728C117.648 65.3415 117.898 65.6961 118.046 66.1368ZM123.975 66.1368L123.121 66.3786C123.067 66.2362 122.988 66.0978 122.883 65.9635C122.781 65.8264 122.641 65.7136 122.464 65.6249C122.287 65.5363 122.06 65.4919 121.783 65.4919C121.404 65.4919 121.088 65.5793 120.836 65.7539C120.586 65.9259 120.461 66.1448 120.461 66.4108C120.461 66.6473 120.547 66.834 120.719 66.971C120.891 67.1081 121.16 67.2222 121.525 67.3136L122.444 67.5393C122.997 67.6736 123.41 67.8792 123.681 68.1559C123.953 68.43 124.088 68.7833 124.088 69.2159C124.088 69.5705 123.986 69.8876 123.782 70.167C123.58 70.4464 123.298 70.6667 122.936 70.8279C122.573 70.9892 122.151 71.0698 121.67 71.0698C121.039 71.0698 120.516 70.9327 120.102 70.6587C119.689 70.3846 119.427 69.9843 119.317 69.4577L120.219 69.232C120.305 69.5651 120.468 69.815 120.707 69.9816C120.949 70.1482 121.264 70.2315 121.654 70.2315C122.097 70.2315 122.449 70.1374 122.71 69.9494C122.973 69.7586 123.105 69.5302 123.105 69.2642C123.105 69.0493 123.03 68.8693 122.879 68.7242C122.729 68.5764 122.498 68.4662 122.186 68.3937L121.154 68.1519C120.587 68.0175 120.171 67.8093 119.905 67.5272C119.642 67.2424 119.51 66.8864 119.51 66.4592C119.51 66.1099 119.608 65.8009 119.804 65.5322C120.003 65.2636 120.273 65.0526 120.614 64.8995C120.958 64.7463 121.348 64.6698 121.783 64.6698C122.396 64.6698 122.877 64.8041 123.226 65.0728C123.578 65.3415 123.828 65.6961 123.975 66.1368ZM127.342 71.0859C126.949 71.0859 126.593 71.012 126.274 70.8642C125.954 70.7138 125.7 70.4975 125.512 70.2154C125.324 69.9306 125.23 69.5866 125.23 69.1836C125.23 68.829 125.3 68.5415 125.439 68.3211C125.579 68.0981 125.766 67.9235 126 67.7972C126.233 67.6709 126.491 67.5769 126.773 67.5151C127.058 67.4506 127.344 67.3996 127.632 67.362C128.008 67.3136 128.313 67.2773 128.547 67.2531C128.783 67.2263 128.955 67.1819 129.063 67.1201C129.173 67.0583 129.228 66.9509 129.228 66.7977V66.7655C129.228 66.3678 129.119 66.0589 128.901 65.8385C128.686 65.6182 128.36 65.5081 127.922 65.5081C127.468 65.5081 127.112 65.6075 126.854 65.8063C126.596 66.0051 126.415 66.2174 126.31 66.4431L125.407 66.1206C125.568 65.7445 125.783 65.4516 126.052 65.2421C126.323 65.0298 126.619 64.882 126.939 64.7987C127.261 64.7128 127.578 64.6698 127.89 64.6698C128.089 64.6698 128.317 64.6939 128.575 64.7423C128.836 64.788 129.087 64.8834 129.329 65.0285C129.573 65.1735 129.776 65.3925 129.937 65.6854C130.098 65.9782 130.179 66.3705 130.179 66.8622V70.9408H129.228V70.1025H129.179C129.115 70.2368 129.008 70.3806 128.857 70.5337C128.707 70.6869 128.506 70.8172 128.257 70.9247C128.007 71.0321 127.702 71.0859 127.342 71.0859ZM127.487 70.2315C127.863 70.2315 128.18 70.1576 128.438 70.0098C128.699 69.862 128.895 69.6713 129.026 69.4375C129.161 69.2038 129.228 68.9579 129.228 68.7V67.8295C129.188 67.8778 129.099 67.9222 128.962 67.9625C128.827 68.0001 128.672 68.0337 128.494 68.0632C128.32 68.0901 128.149 68.1143 127.982 68.1358C127.819 68.1546 127.686 68.1707 127.584 68.1841C127.336 68.2164 127.105 68.2688 126.89 68.3413C126.678 68.4112 126.506 68.5173 126.374 68.6597C126.245 68.7994 126.181 68.9902 126.181 69.232C126.181 69.5625 126.303 69.8123 126.548 69.9816C126.795 70.1482 127.108 70.2315 127.487 70.2315ZM134.414 73.3912C133.954 73.3912 133.559 73.3321 133.229 73.2138C132.898 73.0983 132.623 72.9452 132.403 72.7544C132.185 72.5663 132.012 72.3648 131.883 72.1499L132.64 71.6179C132.726 71.7307 132.835 71.8597 132.967 72.0048C133.099 72.1526 133.279 72.2802 133.507 72.3876C133.738 72.4978 134.04 72.5529 134.414 72.5529C134.913 72.5529 135.326 72.432 135.651 72.1902C135.976 71.9484 136.139 71.5695 136.139 71.0536V69.7962H136.058C135.988 69.9091 135.889 70.0488 135.76 70.2154C135.634 70.3793 135.451 70.5257 135.212 70.6546C134.975 70.7809 134.656 70.8441 134.253 70.8441C133.753 70.8441 133.304 70.7259 132.906 70.4894C132.511 70.253 132.198 69.9091 131.967 69.4577C131.739 69.0063 131.625 68.4582 131.625 67.8133C131.625 67.1793 131.736 66.6271 131.959 66.1569C132.182 65.684 132.493 65.3186 132.89 65.0607C133.288 64.8001 133.747 64.6698 134.269 64.6698C134.672 64.6698 134.991 64.7369 135.228 64.8713C135.467 65.0029 135.65 65.1534 135.776 65.3227C135.905 65.4892 136.004 65.6263 136.074 65.7337H136.171V64.7504H137.09V71.1181C137.09 71.6501 136.969 72.0827 136.727 72.4159C136.488 72.7517 136.166 72.9976 135.76 73.1534C135.357 73.3119 134.908 73.3912 134.414 73.3912ZM134.381 69.9897C134.763 69.9897 135.085 69.9023 135.349 69.7277C135.612 69.5531 135.812 69.3018 135.949 68.974C136.086 68.6463 136.155 68.254 136.155 67.7972C136.155 67.3512 136.088 66.9576 135.953 66.6164C135.819 66.2751 135.62 66.0078 135.357 65.8144C135.093 65.6209 134.768 65.5242 134.381 65.5242C133.978 65.5242 133.643 65.6263 133.374 65.8305C133.108 66.0347 132.908 66.3087 132.773 66.6526C132.642 66.9965 132.576 67.3781 132.576 67.7972C132.576 68.2271 132.643 68.6073 132.777 68.9378C132.914 69.2656 133.116 69.5235 133.382 69.7116C133.651 69.897 133.984 69.9897 134.381 69.9897ZM141.426 71.0698C140.83 71.0698 140.315 70.9381 139.883 70.6748C139.453 70.4088 139.121 70.038 138.887 69.5625C138.656 69.0842 138.541 68.528 138.541 67.8939C138.541 67.2599 138.656 66.701 138.887 66.2174C139.121 65.7311 139.446 65.3522 139.863 65.0808C140.282 64.8068 140.771 64.6698 141.33 64.6698C141.652 64.6698 141.97 64.7235 142.285 64.831C142.599 64.9384 142.885 65.1131 143.143 65.3549C143.401 65.594 143.607 65.9111 143.76 66.306C143.913 66.701 143.99 67.1873 143.99 67.765V68.168H139.218V67.3458H143.022C143.022 66.9965 142.952 66.6849 142.813 66.4108C142.676 66.1368 142.48 65.9205 142.224 65.762C141.972 65.6034 141.674 65.5242 141.33 65.5242C140.951 65.5242 140.623 65.6182 140.346 65.8063C140.072 65.9917 139.861 66.2335 139.713 66.5317C139.566 66.83 139.492 67.1497 139.492 67.4909V68.039C139.492 68.5065 139.572 68.9028 139.734 69.228C139.898 69.5504 140.125 69.7962 140.415 69.9655C140.705 70.1321 141.042 70.2154 141.426 70.2154C141.676 70.2154 141.902 70.1804 142.103 70.1106C142.308 70.038 142.484 69.9306 142.631 69.7882C142.779 69.6431 142.893 69.463 142.974 69.2481L143.893 69.506C143.796 69.8177 143.634 70.0918 143.405 70.3282C143.177 70.562 142.895 70.7447 142.559 70.8763C142.223 71.0053 141.845 71.0698 141.426 71.0698ZM151.385 64.7504V65.5564H148.048V64.7504H151.385ZM149.047 70.9408V63.896C149.047 63.5413 149.131 63.2458 149.297 63.0093C149.464 62.7729 149.68 62.5955 149.946 62.4773C150.212 62.3591 150.493 62.3 150.789 62.3C151.022 62.3 151.213 62.3188 151.361 62.3564C151.509 62.394 151.619 62.429 151.691 62.4612L151.417 63.2834C151.369 63.2672 151.302 63.2471 151.216 63.2229C151.132 63.1987 151.022 63.1866 150.885 63.1866C150.571 63.1866 150.344 63.2659 150.204 63.4244C150.067 63.5829 149.999 63.8154 149.999 64.1217V70.9408H149.047ZM154.978 71.0698C154.419 71.0698 153.929 70.9368 153.507 70.6708C153.088 70.4048 152.76 70.0327 152.524 69.5544C152.29 69.0761 152.173 68.5173 152.173 67.8778C152.173 67.233 152.29 66.6701 152.524 66.1892C152.76 65.7082 153.088 65.3348 153.507 65.0688C153.929 64.8028 154.419 64.6698 154.978 64.6698C155.537 64.6698 156.026 64.8028 156.445 65.0688C156.867 65.3348 157.195 65.7082 157.428 66.1892C157.665 66.6701 157.783 67.233 157.783 67.8778C157.783 68.5173 157.665 69.0761 157.428 69.5544C157.195 70.0327 156.867 70.4048 156.445 70.6708C156.026 70.9368 155.537 71.0698 154.978 71.0698ZM154.978 70.2154C155.402 70.2154 155.752 70.1065 156.026 69.8889C156.3 69.6713 156.503 69.3851 156.634 69.0305C156.766 68.6758 156.832 68.2916 156.832 67.8778C156.832 67.4641 156.766 67.0785 156.634 66.7212C156.503 66.3638 156.3 66.075 156.026 65.8547C155.752 65.6343 155.402 65.5242 154.978 65.5242C154.553 65.5242 154.204 65.6343 153.93 65.8547C153.656 66.075 153.453 66.3638 153.322 66.7212C153.19 67.0785 153.124 67.4641 153.124 67.8778C153.124 68.2916 153.19 68.6758 153.322 69.0305C153.453 69.3851 153.656 69.6713 153.93 69.8889C154.204 70.1065 154.553 70.2154 154.978 70.2154ZM159.235 70.9408V64.7504H160.154V65.6854H160.218C160.331 65.3791 160.535 65.1306 160.831 64.9398C161.126 64.749 161.46 64.6536 161.83 64.6536C161.9 64.6536 161.988 64.655 162.092 64.6577C162.197 64.6604 162.276 64.6644 162.33 64.6698V65.637C162.298 65.629 162.224 65.6169 162.108 65.6007C161.996 65.5819 161.876 65.5725 161.75 65.5725C161.449 65.5725 161.18 65.6357 160.944 65.762C160.71 65.8856 160.525 66.0575 160.388 66.2778C160.253 66.4955 160.186 66.744 160.186 67.0234V70.9408H159.235ZM169.342 64.7504V65.5564H166.134V64.7504H169.342ZM167.069 63.2672H168.02V69.1675C168.02 69.4362 168.059 69.6377 168.137 69.772C168.217 69.9037 168.319 69.9923 168.443 70.038C168.569 70.081 168.702 70.1025 168.842 70.1025C168.947 70.1025 169.033 70.0971 169.1 70.0864C169.167 70.073 169.221 70.0622 169.261 70.0541L169.455 70.9086C169.39 70.9327 169.3 70.9569 169.184 70.9811C169.069 71.008 168.923 71.0214 168.745 71.0214C168.477 71.0214 168.213 70.9636 167.955 70.8481C167.7 70.7326 167.488 70.5566 167.318 70.3201C167.152 70.0837 167.069 69.7855 167.069 69.4254V63.2672ZM171.857 67.2169V70.9408H170.905V62.6869H171.857V65.7176H171.937C172.082 65.3979 172.3 65.144 172.59 64.9559C172.883 64.7651 173.272 64.6698 173.759 64.6698C174.181 64.6698 174.55 64.7544 174.867 64.9237C175.184 65.0903 175.43 65.3468 175.605 65.6934C175.782 66.0374 175.871 66.4753 175.871 67.0073V70.9408H174.919V67.0718C174.919 66.5801 174.792 66.1999 174.537 65.9312C174.284 65.6599 173.933 65.5242 173.485 65.5242C173.173 65.5242 172.894 65.59 172.646 65.7217C172.402 65.8533 172.209 66.0454 172.066 66.298C171.926 66.5505 171.857 66.8568 171.857 67.2169ZM180.206 71.0698C179.61 71.0698 179.095 70.9381 178.663 70.6748C178.233 70.4088 177.901 70.038 177.667 69.5625C177.436 69.0842 177.321 68.528 177.321 67.8939C177.321 67.2599 177.436 66.701 177.667 66.2174C177.901 65.7311 178.226 65.3522 178.642 65.0808C179.062 64.8068 179.551 64.6698 180.109 64.6698C180.432 64.6698 180.75 64.7235 181.065 64.831C181.379 64.9384 181.665 65.1131 181.923 65.3549C182.181 65.594 182.387 65.9111 182.54 66.306C182.693 66.701 182.769 67.1873 182.769 67.765V68.168H177.998V67.3458H181.802C181.802 66.9965 181.732 66.6849 181.593 66.4108C181.456 66.1368 181.259 65.9205 181.004 65.762C180.752 65.6034 180.453 65.5242 180.109 65.5242C179.731 65.5242 179.403 65.6182 179.126 65.8063C178.852 65.9917 178.641 66.2335 178.493 66.5317C178.346 66.83 178.272 67.1497 178.272 67.4909V68.039C178.272 68.5065 178.352 68.9028 178.513 69.228C178.677 69.5504 178.904 69.7962 179.195 69.9655C179.485 70.1321 179.822 70.2154 180.206 70.2154C180.456 70.2154 180.682 70.1804 180.883 70.1106C181.087 70.038 181.263 69.9306 181.411 69.7882C181.559 69.6431 181.673 69.463 181.754 69.2481L182.673 69.506C182.576 69.8177 182.413 70.0918 182.185 70.3282C181.957 70.562 181.674 70.7447 181.339 70.8763C181.003 71.0053 180.625 71.0698 180.206 71.0698ZM191.309 68.4098V64.7504H192.261V70.9408H191.309V69.8929H191.245C191.1 70.2073 190.874 70.4746 190.568 70.695C190.262 70.9126 189.875 71.0214 189.407 71.0214C189.02 71.0214 188.676 70.9368 188.375 70.7675C188.074 70.5955 187.838 70.3376 187.666 69.9937C187.494 69.6471 187.408 69.2105 187.408 68.6839V64.7504H188.359V68.6194C188.359 69.0708 188.486 69.4308 188.738 69.6995C188.993 69.9682 189.318 70.1025 189.713 70.1025C189.95 70.1025 190.19 70.0421 190.435 69.9211C190.682 69.8002 190.889 69.6149 191.056 69.365C191.225 69.1151 191.309 68.7967 191.309 68.4098ZM198.387 66.1368L197.533 66.3786C197.479 66.2362 197.4 66.0978 197.295 65.9635C197.193 65.8264 197.053 65.7136 196.876 65.6249C196.699 65.5363 196.472 65.4919 196.195 65.4919C195.816 65.4919 195.501 65.5793 195.248 65.7539C194.998 65.9259 194.873 66.1448 194.873 66.4108C194.873 66.6473 194.959 66.834 195.131 66.971C195.303 67.1081 195.572 67.2222 195.937 67.3136L196.856 67.5393C197.409 67.6736 197.822 67.8792 198.093 68.1559C198.365 68.43 198.5 68.7833 198.5 69.2159C198.5 69.5705 198.398 69.8876 198.194 70.167C197.993 70.4464 197.71 70.6667 197.348 70.8279C196.985 70.9892 196.563 71.0698 196.082 71.0698C195.451 71.0698 194.928 70.9327 194.514 70.6587C194.101 70.3846 193.839 69.9843 193.729 69.4577L194.631 69.232C194.717 69.5651 194.88 69.815 195.119 69.9816C195.361 70.1482 195.676 70.2315 196.066 70.2315C196.509 70.2315 196.861 70.1374 197.122 69.9494C197.385 69.7586 197.517 69.5302 197.517 69.2642C197.517 69.0493 197.442 68.8693 197.291 68.7242C197.141 68.5764 196.91 68.4662 196.598 68.3937L195.566 68.1519C194.999 68.0175 194.583 67.8093 194.317 67.5272C194.054 67.2424 193.922 66.8864 193.922 66.4592C193.922 66.1099 194.02 65.8009 194.216 65.5322C194.415 65.2636 194.685 65.0526 195.026 64.8995C195.37 64.7463 195.76 64.6698 196.195 64.6698C196.808 64.6698 197.289 64.8041 197.638 65.0728C197.99 65.3415 198.24 65.6961 198.387 66.1368ZM202.528 71.0698C201.931 71.0698 201.417 70.9381 200.984 70.6748C200.554 70.4088 200.222 70.038 199.989 69.5625C199.757 69.0842 199.642 68.528 199.642 67.8939C199.642 67.2599 199.757 66.701 199.989 66.2174C200.222 65.7311 200.547 65.3522 200.964 65.0808C201.383 64.8068 201.872 64.6698 202.431 64.6698C202.753 64.6698 203.072 64.7235 203.386 64.831C203.7 64.9384 203.986 65.1131 204.244 65.3549C204.502 65.594 204.708 65.9111 204.861 66.306C205.014 66.701 205.091 67.1873 205.091 67.765V68.168H200.319V67.3458H204.124C204.124 66.9965 204.054 66.6849 203.914 66.4108C203.777 66.1368 203.581 65.9205 203.326 65.762C203.073 65.6034 202.775 65.5242 202.431 65.5242C202.052 65.5242 201.724 65.6182 201.447 65.8063C201.173 65.9917 200.962 66.2335 200.815 66.5317C200.667 66.83 200.593 67.1497 200.593 67.4909V68.039C200.593 68.5065 200.674 68.9028 200.835 69.228C200.999 69.5504 201.226 69.7962 201.516 69.9655C201.806 70.1321 202.143 70.2154 202.528 70.2154C202.777 70.2154 203.003 70.1804 203.205 70.1106C203.409 70.038 203.585 69.9306 203.733 69.7882C203.88 69.6431 203.995 69.463 204.075 69.2481L204.994 69.506C204.897 69.8177 204.735 70.0918 204.506 70.3282C204.278 70.562 203.996 70.7447 203.66 70.8763C203.324 71.0053 202.947 71.0698 202.528 71.0698ZM206.538 70.9408V64.7504H207.457V65.6854H207.521C207.634 65.3791 207.838 65.1306 208.134 64.9398C208.429 64.749 208.762 64.6536 209.133 64.6536C209.203 64.6536 209.29 64.655 209.395 64.6577C209.5 64.6604 209.579 64.6644 209.633 64.6698V65.637C209.601 65.629 209.527 65.6169 209.411 65.6007C209.298 65.5819 209.179 65.5725 209.052 65.5725C208.752 65.5725 208.483 65.6357 208.246 65.762C208.013 65.8856 207.827 66.0575 207.69 66.2778C207.556 66.4955 207.489 66.744 207.489 67.0234V70.9408H206.538ZM216.644 64.7504V65.5564H213.436V64.7504H216.644ZM214.371 63.2672H215.323V69.1675C215.323 69.4362 215.361 69.6377 215.439 69.772C215.52 69.9037 215.622 69.9923 215.746 70.038C215.872 70.081 216.005 70.1025 216.145 70.1025C216.249 70.1025 216.335 70.0971 216.403 70.0864C216.47 70.073 216.524 70.0622 216.564 70.0541L216.757 70.9086C216.693 70.9327 216.603 70.9569 216.487 70.9811C216.372 71.008 216.225 71.0214 216.048 71.0214C215.779 71.0214 215.516 70.9636 215.258 70.8481C215.003 70.7326 214.791 70.5566 214.621 70.3201C214.455 70.0837 214.371 69.7855 214.371 69.4254V63.2672ZM220.524 71.0698C219.965 71.0698 219.474 70.9368 219.052 70.6708C218.633 70.4048 218.306 70.0327 218.069 69.5544C217.835 69.0761 217.718 68.5173 217.718 67.8778C217.718 67.233 217.835 66.6701 218.069 66.1892C218.306 65.7082 218.633 65.3348 219.052 65.0688C219.474 64.8028 219.965 64.6698 220.524 64.6698C221.082 64.6698 221.571 64.8028 221.991 65.0688C222.412 65.3348 222.74 65.7082 222.974 66.1892C223.21 66.6701 223.329 67.233 223.329 67.8778C223.329 68.5173 223.21 69.0761 222.974 69.5544C222.74 70.0327 222.412 70.4048 221.991 70.6708C221.571 70.9368 221.082 71.0698 220.524 71.0698ZM220.524 70.2154C220.948 70.2154 221.297 70.1065 221.571 69.8889C221.845 69.6713 222.048 69.3851 222.18 69.0305C222.312 68.6758 222.377 68.2916 222.377 67.8778C222.377 67.4641 222.312 67.0785 222.18 66.7212C222.048 66.3638 221.845 66.075 221.571 65.8547C221.297 65.6343 220.948 65.5242 220.524 65.5242C220.099 65.5242 219.75 65.6343 219.476 65.8547C219.202 66.075 218.999 66.3638 218.867 66.7212C218.735 67.0785 218.67 67.4641 218.67 67.8778C218.67 68.2916 218.735 68.6758 218.867 69.0305C218.999 69.3851 219.202 69.6713 219.476 69.8889C219.75 70.1065 220.099 70.2154 220.524 70.2154ZM230.487 71.0698C229.907 71.0698 229.407 70.9327 228.988 70.6587C228.569 70.3846 228.246 70.0071 228.021 69.5262C227.795 69.0452 227.682 68.4958 227.682 67.8778C227.682 67.2491 227.798 66.6943 228.029 66.2133C228.263 65.7297 228.588 65.3522 229.004 65.0808C229.423 64.8068 229.912 64.6698 230.471 64.6698C230.906 64.6698 231.299 64.7504 231.648 64.9116C231.997 65.0728 232.283 65.2985 232.506 65.5887C232.729 65.8788 232.868 66.2174 232.921 66.6043H231.97C231.898 66.3222 231.737 66.0723 231.487 65.8547C231.24 65.6343 230.906 65.5242 230.487 65.5242C230.116 65.5242 229.791 65.6209 229.512 65.8144C229.235 66.0051 229.019 66.2751 228.863 66.6244C228.71 66.971 228.633 67.3781 228.633 67.8456C228.633 68.3238 228.709 68.7403 228.859 69.095C229.012 69.4496 229.227 69.725 229.504 69.9211C229.783 70.1173 230.111 70.2154 230.487 70.2154C230.734 70.2154 230.959 70.1724 231.16 70.0864C231.362 70.0004 231.532 69.8768 231.672 69.7156C231.812 69.5544 231.911 69.3609 231.97 69.1353H232.921C232.868 69.5007 232.735 69.8298 232.522 70.1227C232.313 70.4128 232.035 70.6439 231.688 70.8159C231.344 70.9851 230.944 71.0698 230.487 71.0698ZM236.827 71.0698C236.268 71.0698 235.778 70.9368 235.356 70.6708C234.937 70.4048 234.609 70.0327 234.372 69.5544C234.139 69.0761 234.022 68.5173 234.022 67.8778C234.022 67.233 234.139 66.6701 234.372 66.1892C234.609 65.7082 234.937 65.3348 235.356 65.0688C235.778 64.8028 236.268 64.6698 236.827 64.6698C237.386 64.6698 237.875 64.8028 238.294 65.0688C238.716 65.3348 239.043 65.7082 239.277 66.1892C239.514 66.6701 239.632 67.233 239.632 67.8778C239.632 68.5173 239.514 69.0761 239.277 69.5544C239.043 70.0327 238.716 70.4048 238.294 70.6708C237.875 70.9368 237.386 71.0698 236.827 71.0698ZM236.827 70.2154C237.251 70.2154 237.601 70.1065 237.875 69.8889C238.149 69.6713 238.352 69.3851 238.483 69.0305C238.615 68.6758 238.681 68.2916 238.681 67.8778C238.681 67.4641 238.615 67.0785 238.483 66.7212C238.352 66.3638 238.149 66.075 237.875 65.8547C237.601 65.6343 237.251 65.5242 236.827 65.5242C236.402 65.5242 236.053 65.6343 235.779 65.8547C235.505 66.075 235.302 66.3638 235.17 66.7212C235.039 67.0785 234.973 67.4641 234.973 67.8778C234.973 68.2916 235.039 68.6758 235.17 69.0305C235.302 69.3851 235.505 69.6713 235.779 69.8889C236.053 70.1065 236.402 70.2154 236.827 70.2154ZM242.035 67.2169V70.9408H241.084V64.7504H242.003V65.7176H242.083C242.228 65.4033 242.449 65.1507 242.744 64.9599C243.04 64.7665 243.421 64.6698 243.889 64.6698C244.308 64.6698 244.675 64.7557 244.989 64.9277C245.303 65.097 245.548 65.3549 245.722 65.7015C245.897 66.0454 245.984 66.4807 245.984 67.0073V70.9408H245.033V67.0718C245.033 66.5855 244.907 66.2066 244.654 65.9353C244.402 65.6612 244.055 65.5242 243.615 65.5242C243.311 65.5242 243.04 65.59 242.801 65.7217C242.564 65.8533 242.377 66.0454 242.24 66.298C242.103 66.5505 242.035 66.8568 242.035 67.2169ZM250.479 64.7504V65.5564H247.142V64.7504H250.479ZM248.142 70.9408V63.896C248.142 63.5413 248.225 63.2458 248.392 63.0093C248.558 62.7729 248.774 62.5955 249.04 62.4773C249.306 62.3591 249.587 62.3 249.883 62.3C250.116 62.3 250.307 62.3188 250.455 62.3564C250.603 62.394 250.713 62.429 250.785 62.4612L250.511 63.2834C250.463 63.2672 250.396 63.2471 250.31 63.2229C250.227 63.1987 250.116 63.1866 249.979 63.1866C249.665 63.1866 249.438 63.2659 249.298 63.4244C249.161 63.5829 249.093 63.8154 249.093 64.1217V70.9408H248.142ZM251.812 70.9408V64.7504H252.763V70.9408H251.812ZM252.296 63.7186C252.11 63.7186 251.951 63.6555 251.816 63.5292C251.685 63.4029 251.619 63.2511 251.619 63.0738C251.619 62.8965 251.685 62.7447 251.816 62.6184C251.951 62.4921 252.11 62.429 252.296 62.429C252.481 62.429 252.64 62.4921 252.771 62.6184C252.906 62.7447 252.973 62.8965 252.973 63.0738C252.973 63.2511 252.906 63.4029 252.771 63.5292C252.64 63.6555 252.481 63.7186 252.296 63.7186ZM254.505 70.9408V64.7504H255.424V65.6854H255.489C255.602 65.3791 255.806 65.1306 256.101 64.9398C256.397 64.749 256.73 64.6536 257.101 64.6536C257.171 64.6536 257.258 64.655 257.363 64.6577C257.468 64.6604 257.547 64.6644 257.601 64.6698V65.637C257.568 65.629 257.494 65.6169 257.379 65.6007C257.266 65.5819 257.146 65.5725 257.02 65.5725C256.719 65.5725 256.451 65.6357 256.214 65.762C255.98 65.8856 255.795 66.0575 255.658 66.2778C255.524 66.4955 255.456 66.744 255.456 67.0234V70.9408H254.505ZM258.728 70.9408V64.7504H259.647V65.7176H259.728C259.856 65.3871 260.065 65.1306 260.352 64.9479C260.64 64.7625 260.985 64.6698 261.388 64.6698C261.796 64.6698 262.136 64.7625 262.408 64.9479C262.682 65.1306 262.895 65.3871 263.048 65.7176H263.113C263.271 65.3979 263.509 65.144 263.826 64.9559C264.143 64.7651 264.523 64.6698 264.967 64.6698C265.52 64.6698 265.973 64.8431 266.325 65.1897C266.677 65.5336 266.853 66.0696 266.853 66.7977V70.9408H265.902V66.7977C265.902 66.341 265.777 66.0145 265.527 65.8184C265.277 65.6222 264.983 65.5242 264.644 65.5242C264.209 65.5242 263.872 65.6558 263.633 65.9191C263.394 66.1798 263.274 66.5102 263.274 66.9106V70.9408H262.307V66.701C262.307 66.349 262.193 66.0656 261.964 65.8506C261.736 65.633 261.442 65.5242 261.082 65.5242C260.834 65.5242 260.603 65.59 260.388 65.7217C260.176 65.8533 260.004 66.036 259.873 66.2698C259.744 66.5008 259.679 66.7682 259.679 67.0718V70.9408H258.728ZM27.5332 78.7504V79.5564H24.3251V78.7504H27.5332ZM25.2601 77.2672H26.2113V83.1675C26.2113 83.4362 26.2502 83.6377 26.3281 83.772C26.4087 83.9037 26.5108 83.9923 26.6344 84.038C26.7607 84.081 26.8937 84.1025 27.0334 84.1025C27.1382 84.1025 27.2242 84.0971 27.2914 84.0864C27.3585 84.073 27.4123 84.0622 27.4526 84.0541L27.646 84.9086C27.5815 84.9327 27.4915 84.9569 27.376 84.9811C27.2605 85.008 27.114 85.0214 26.9367 85.0214C26.668 85.0214 26.4047 84.9636 26.1468 84.8481C25.8915 84.7326 25.6793 84.5566 25.51 84.3201C25.3434 84.0837 25.2601 83.7855 25.2601 83.4254V77.2672ZM30.048 81.2169V84.9408H29.0969V76.6869H30.048V79.7176H30.1286C30.2737 79.3979 30.4914 79.144 30.7815 78.9559C31.0744 78.7651 31.464 78.6698 31.9503 78.6698C32.3721 78.6698 32.7416 78.7544 33.0586 78.9237C33.3757 79.0903 33.6215 79.3468 33.7961 79.6934C33.9735 80.0374 34.0621 80.4753 34.0621 81.0073V84.9408H33.111V81.0718C33.111 80.5801 32.9834 80.1999 32.7281 79.9312C32.4756 79.6599 32.1249 79.5242 31.6762 79.5242C31.3646 79.5242 31.0851 79.59 30.838 79.7217C30.5935 79.8533 30.4 80.0454 30.2576 80.298C30.1179 80.5505 30.048 80.8568 30.048 81.2169ZM37.6239 85.0859C37.2316 85.0859 36.8756 85.012 36.5558 84.8642C36.2361 84.7138 35.9822 84.4975 35.7941 84.2154C35.6061 83.9306 35.512 83.5866 35.512 83.1836C35.512 82.829 35.5819 82.5415 35.7216 82.3211C35.8613 82.0981 36.048 81.9235 36.2818 81.7972C36.5155 81.6709 36.7735 81.5769 37.0556 81.5151C37.3404 81.4506 37.6265 81.3996 37.914 81.362C38.2902 81.3136 38.5951 81.2773 38.8289 81.2531C39.0653 81.2263 39.2373 81.1819 39.3448 81.1201C39.4549 81.0583 39.51 80.9509 39.51 80.7977V80.7655C39.51 80.3678 39.4012 80.0589 39.1835 79.8385C38.9686 79.6182 38.6422 79.5081 38.2042 79.5081C37.7501 79.5081 37.3941 79.6075 37.1362 79.8063C36.8783 80.0051 36.6969 80.2174 36.5921 80.4431L35.6893 80.1206C35.8506 79.7445 36.0655 79.4516 36.3342 79.2421C36.6055 79.0298 36.9011 78.882 37.2208 78.7987C37.5432 78.7128 37.8603 78.6698 38.172 78.6698C38.3708 78.6698 38.5992 78.6939 38.8571 78.7423C39.1177 78.788 39.3689 78.8834 39.6108 79.0285C39.8553 79.1735 40.0581 79.3925 40.2193 79.6854C40.3805 79.9782 40.4611 80.3705 40.4611 80.8622V84.9408H39.51V84.1025H39.4616C39.3972 84.2368 39.2897 84.3806 39.1392 84.5337C38.9888 84.6869 38.7886 84.8172 38.5387 84.9247C38.2888 85.0321 37.9839 85.0859 37.6239 85.0859ZM37.7689 84.2315C38.1451 84.2315 38.4621 84.1576 38.7201 84.0098C38.9807 83.862 39.1768 83.6713 39.3085 83.4375C39.4428 83.2038 39.51 82.9579 39.51 82.7V81.8295C39.4697 81.8778 39.381 81.9222 39.244 81.9625C39.1097 82.0001 38.9538 82.0337 38.7765 82.0632C38.6019 82.0901 38.4312 82.1143 38.2647 82.1358C38.1008 82.1546 37.9678 82.1707 37.8657 82.1841C37.6185 82.2164 37.3874 82.2688 37.1725 82.3413C36.9602 82.4112 36.7883 82.5173 36.6566 82.6597C36.5276 82.7994 36.4631 82.9902 36.4631 83.232C36.4631 83.5625 36.5854 83.8123 36.8299 83.9816C37.0771 84.1482 37.3901 84.2315 37.7689 84.2315ZM44.8893 78.7504V79.5564H41.6813V78.7504H44.8893ZM42.6163 77.2672H43.5674V83.1675C43.5674 83.4362 43.6064 83.6377 43.6843 83.772C43.7649 83.9037 43.867 83.9923 43.9906 84.038C44.1169 84.081 44.2499 84.1025 44.3896 84.1025C44.4944 84.1025 44.5804 84.0971 44.6475 84.0864C44.7147 84.073 44.7684 84.0622 44.8087 84.0541L45.0022 84.9086C44.9377 84.9327 44.8477 84.9569 44.7322 84.9811C44.6166 85.008 44.4702 85.0214 44.2929 85.0214C44.0242 85.0214 43.7609 84.9636 43.5029 84.8481C43.2477 84.7326 43.0354 84.5566 42.8662 84.3201C42.6996 84.0837 42.6163 83.7855 42.6163 83.4254V77.2672ZM52.2042 78.7504V79.5564H48.9961V78.7504H52.2042ZM49.9312 77.2672H50.8823V83.1675C50.8823 83.4362 50.9212 83.6377 50.9992 83.772C51.0798 83.9037 51.1819 83.9923 51.3055 84.038C51.4317 84.081 51.5647 84.1025 51.7045 84.1025C51.8092 84.1025 51.8952 84.0971 51.9624 84.0864C52.0296 84.073 52.0833 84.0622 52.1236 84.0541L52.317 84.9086C52.2526 84.9327 52.1626 84.9569 52.047 84.9811C51.9315 85.008 51.7851 85.0214 51.6077 85.0214C51.339 85.0214 51.0757 84.9636 50.8178 84.8481C50.5626 84.7326 50.3503 84.5566 50.181 84.3201C50.0144 84.0837 49.9312 83.7855 49.9312 83.4254V77.2672ZM54.7191 81.2169V84.9408H53.7679V76.6869H54.7191V79.7176H54.7997C54.9448 79.3979 55.1624 79.144 55.4526 78.9559C55.7454 78.7651 56.135 78.6698 56.6213 78.6698C57.0432 78.6698 57.4126 78.7544 57.7296 78.9237C58.0467 79.0903 58.2925 79.3468 58.4672 79.6934C58.6445 80.0374 58.7332 80.4753 58.7332 81.0073V84.9408H57.782V81.0718C57.782 80.5801 57.6544 80.1999 57.3992 79.9312C57.1466 79.6599 56.796 79.5242 56.3473 79.5242C56.0356 79.5242 55.7562 79.59 55.509 79.7217C55.2645 79.8533 55.071 80.0454 54.9286 80.298C54.7889 80.5505 54.7191 80.8568 54.7191 81.2169ZM63.0687 85.0698C62.4722 85.0698 61.9577 84.9381 61.5251 84.6748C61.0952 84.4088 60.7634 84.038 60.5296 83.5625C60.2986 83.0842 60.183 82.528 60.183 81.8939C60.183 81.2599 60.2986 80.701 60.5296 80.2174C60.7634 79.7311 61.0885 79.3522 61.5049 79.0808C61.9241 78.8068 62.4131 78.6698 62.9719 78.6698C63.2944 78.6698 63.6128 78.7235 63.9271 78.831C64.2415 78.9384 64.5276 79.1131 64.7855 79.3549C65.0435 79.594 65.249 79.9111 65.4022 80.306C65.5553 80.701 65.6319 81.1873 65.6319 81.765V82.168H60.8601V81.3458H64.6646C64.6646 80.9965 64.5948 80.6849 64.4551 80.4108C64.318 80.1368 64.1219 79.9205 63.8667 79.762C63.6141 79.6034 63.3159 79.5242 62.9719 79.5242C62.5931 79.5242 62.2653 79.6182 61.9886 79.8063C61.7145 79.9917 61.5036 80.2335 61.3558 80.5317C61.2081 80.83 61.1342 81.1497 61.1342 81.4909V82.039C61.1342 82.5065 61.2148 82.9028 61.376 83.228C61.5399 83.5504 61.7669 83.7962 62.0571 83.9655C62.3473 84.1321 62.6845 84.2154 63.0687 84.2154C63.3185 84.2154 63.5442 84.1804 63.7458 84.1106C63.9499 84.038 64.1259 83.9306 64.2737 83.7882C64.4215 83.6431 64.5357 83.463 64.6163 83.2481L65.5352 83.506C65.4384 83.8177 65.2759 84.0918 65.0475 84.3282C64.8191 84.562 64.537 84.7447 64.2012 84.8763C63.8653 85.0053 63.4878 85.0698 63.0687 85.0698ZM67.5029 87.2622C67.3417 87.2622 67.198 87.2488 67.0717 87.2219C66.9454 87.1977 66.8581 87.1735 66.8097 87.1494L67.0515 86.3111C67.2826 86.3702 67.4868 86.3917 67.6641 86.3756C67.8415 86.3594 67.9986 86.2802 68.1357 86.1378C68.2754 85.9981 68.403 85.771 68.5185 85.4567L68.6959 84.973L66.4067 78.7504H67.4384L69.1473 83.6834H69.2117L70.9206 78.7504H71.9523L69.3246 85.8436C69.2064 86.1633 69.0599 86.4279 68.8853 86.6375C68.7107 86.8498 68.5078 87.007 68.2767 87.1091C68.0484 87.2112 67.7904 87.2622 67.5029 87.2622ZM77.8022 84.9408L75.916 78.7504H76.9155L78.2536 83.4899H78.318L79.64 78.7504H80.6556L81.9614 83.4738H82.0258L83.3639 78.7504H84.3634L82.4772 84.9408H81.5422L80.1881 80.1851H80.0913L78.7372 84.9408H77.8022ZM87.4425 85.0859C87.0502 85.0859 86.6942 85.012 86.3745 84.8642C86.0547 84.7138 85.8008 84.4975 85.6127 84.2154C85.4247 83.9306 85.3306 83.5866 85.3306 83.1836C85.3306 82.829 85.4005 82.5415 85.5402 82.3211C85.6799 82.0981 85.8666 81.9235 86.1004 81.7972C86.3342 81.6709 86.5921 81.5769 86.8742 81.5151C87.159 81.4506 87.4452 81.3996 87.7326 81.362C88.1088 81.3136 88.4137 81.2773 88.6475 81.2531C88.8839 81.2263 89.0559 81.1819 89.1634 81.1201C89.2735 81.0583 89.3286 80.9509 89.3286 80.7977V80.7655C89.3286 80.3678 89.2198 80.0589 89.0022 79.8385C88.7872 79.6182 88.4608 79.5081 88.0228 79.5081C87.5687 79.5081 87.2127 79.6075 86.9548 79.8063C86.6969 80.0051 86.5155 80.2174 86.4107 80.4431L85.508 80.1206C85.6692 79.7445 85.8841 79.4516 86.1528 79.2421C86.4242 79.0298 86.7197 78.882 87.0394 78.7987C87.3619 78.7128 87.6789 78.6698 87.9906 78.6698C88.1894 78.6698 88.4178 78.6939 88.6757 78.7423C88.9363 78.788 89.1876 78.8834 89.4294 79.0285C89.6739 79.1735 89.8767 79.3925 90.0379 79.6854C90.1991 79.9782 90.2797 80.3705 90.2797 80.8622V84.9408H89.3286V84.1025H89.2802C89.2158 84.2368 89.1083 84.3806 88.9578 84.5337C88.8074 84.6869 88.6072 84.8172 88.3573 84.9247C88.1075 85.0321 87.8025 85.0859 87.4425 85.0859ZM87.5876 84.2315C87.9637 84.2315 88.2808 84.1576 88.5387 84.0098C88.7993 83.862 88.9954 83.6713 89.1271 83.4375C89.2614 83.2038 89.3286 82.9579 89.3286 82.7V81.8295C89.2883 81.8778 89.1996 81.9222 89.0626 81.9625C88.9283 82.0001 88.7724 82.0337 88.5951 82.0632C88.4205 82.0901 88.2499 82.1143 88.0833 82.1358C87.9194 82.1546 87.7864 82.1707 87.6843 82.1841C87.4371 82.2164 87.206 82.2688 86.9911 82.3413C86.7788 82.4112 86.6069 82.5173 86.4752 82.6597C86.3462 82.7994 86.2818 82.9902 86.2818 83.232C86.2818 83.5625 86.404 83.8123 86.6485 83.9816C86.8957 84.1482 87.2087 84.2315 87.5876 84.2315ZM92.9669 81.2169V84.9408H92.0158V78.7504H92.9347V79.7176H93.0153C93.1603 79.4033 93.3807 79.1507 93.6762 78.9599C93.9718 78.7665 94.3533 78.6698 94.8208 78.6698C95.2399 78.6698 95.6067 78.7557 95.921 78.9277C96.2354 79.097 96.4799 79.3549 96.6546 79.7015C96.8292 80.0454 96.9165 80.4807 96.9165 81.0073V84.9408H95.9654V81.0718C95.9654 80.5855 95.8391 80.2066 95.5865 79.9353C95.334 79.6612 94.9874 79.5242 94.5467 79.5242C94.2431 79.5242 93.9718 79.59 93.7326 79.7217C93.4962 79.8533 93.3095 80.0454 93.1724 80.298C93.0354 80.5505 92.9669 80.8568 92.9669 81.2169ZM101.347 78.7504V79.5564H98.1387V78.7504H101.347ZM99.0737 77.2672H100.025V83.1675C100.025 83.4362 100.064 83.6377 100.142 83.772C100.222 83.9037 100.324 83.9923 100.448 84.038C100.574 84.081 100.707 84.1025 100.847 84.1025C100.952 84.1025 101.038 84.0971 101.105 84.0864C101.172 84.073 101.226 84.0622 101.266 84.0541L101.46 84.9086C101.395 84.9327 101.305 84.9569 101.19 84.9811C101.074 85.008 100.928 85.0214 100.75 85.0214C100.482 85.0214 100.218 84.9636 99.9603 84.8481C99.7051 84.7326 99.4928 84.5566 99.3236 84.3201C99.157 84.0837 99.0737 83.7855 99.0737 83.4254V77.2672ZM108.662 78.7504V79.5564H105.454V78.7504H108.662ZM106.389 77.2672H107.34V83.1675C107.34 83.4362 107.379 83.6377 107.457 83.772C107.537 83.9037 107.639 83.9923 107.763 84.038C107.889 84.081 108.022 84.1025 108.162 84.1025C108.267 84.1025 108.353 84.0971 108.42 84.0864C108.487 84.073 108.541 84.0622 108.581 84.0541L108.774 84.9086C108.71 84.9327 108.62 84.9569 108.504 84.9811C108.389 85.008 108.242 85.0214 108.065 85.0214C107.796 85.0214 107.533 84.9636 107.275 84.8481C107.02 84.7326 106.808 84.5566 106.638 84.3201C106.472 84.0837 106.389 83.7855 106.389 83.4254V77.2672ZM112.541 85.0698C111.982 85.0698 111.491 84.9368 111.07 84.6708C110.651 84.4048 110.323 84.0327 110.086 83.5544C109.853 83.0761 109.736 82.5173 109.736 81.8778C109.736 81.233 109.853 80.6701 110.086 80.1892C110.323 79.7082 110.651 79.3348 111.07 79.0688C111.491 78.8028 111.982 78.6698 112.541 78.6698C113.1 78.6698 113.589 78.8028 114.008 79.0688C114.43 79.3348 114.757 79.7082 114.991 80.1892C115.228 80.6701 115.346 81.233 115.346 81.8778C115.346 82.5173 115.228 83.0761 114.991 83.5544C114.757 84.0327 114.43 84.4048 114.008 84.6708C113.589 84.9368 113.1 85.0698 112.541 85.0698ZM112.541 84.2154C112.965 84.2154 113.314 84.1065 113.589 83.8889C113.863 83.6713 114.065 83.3851 114.197 83.0305C114.329 82.6758 114.395 82.2916 114.395 81.8778C114.395 81.4641 114.329 81.0785 114.197 80.7212C114.065 80.3638 113.863 80.075 113.589 79.8547C113.314 79.6343 112.965 79.5242 112.541 79.5242C112.116 79.5242 111.767 79.6343 111.493 79.8547C111.219 80.075 111.016 80.3638 110.884 80.7212C110.753 81.0785 110.687 81.4641 110.687 81.8778C110.687 82.2916 110.753 82.6758 110.884 83.0305C111.016 83.3851 111.219 83.6713 111.493 83.8889C111.767 84.1065 112.116 84.2154 112.541 84.2154ZM122.327 85.0698C121.811 85.0698 121.356 84.9395 120.961 84.6788C120.566 84.4155 120.257 84.0447 120.034 83.5665C119.811 83.0855 119.699 82.5173 119.699 81.8617C119.699 81.2115 119.811 80.6473 120.034 80.169C120.257 79.6908 120.567 79.3213 120.965 79.0607C121.363 78.8001 121.822 78.6698 122.343 78.6698C122.746 78.6698 123.065 78.7369 123.298 78.8713C123.535 79.0029 123.715 79.1534 123.838 79.3227C123.965 79.4892 124.063 79.6263 124.133 79.7337H124.213V76.6869H125.164V84.9408H124.245V83.9897H124.133C124.063 84.1025 123.963 84.2449 123.834 84.4169C123.705 84.5861 123.521 84.7379 123.282 84.8723C123.043 85.0039 122.725 85.0698 122.327 85.0698ZM122.456 84.2154C122.838 84.2154 123.16 84.1159 123.423 83.9171C123.687 83.7156 123.887 83.4375 124.024 83.0829C124.161 82.7255 124.229 82.3131 124.229 81.8456C124.229 81.3835 124.162 80.9791 124.028 80.6325C123.893 80.2832 123.695 80.0118 123.431 79.8184C123.168 79.6222 122.843 79.5242 122.456 79.5242C122.053 79.5242 121.717 79.6276 121.448 79.8345C121.183 80.0387 120.982 80.3168 120.848 80.6688C120.716 81.018 120.651 81.4103 120.651 81.8456C120.651 82.2862 120.718 82.6866 120.852 83.0466C120.989 83.4039 121.191 83.6887 121.457 83.901C121.725 84.1106 122.058 84.2154 122.456 84.2154ZM129.553 85.0698C128.994 85.0698 128.504 84.9368 128.082 84.6708C127.663 84.4048 127.335 84.0327 127.099 83.5544C126.865 83.0761 126.748 82.5173 126.748 81.8778C126.748 81.233 126.865 80.6701 127.099 80.1892C127.335 79.7082 127.663 79.3348 128.082 79.0688C128.504 78.8028 128.994 78.6698 129.553 78.6698C130.112 78.6698 130.601 78.8028 131.02 79.0688C131.442 79.3348 131.77 79.7082 132.004 80.1892C132.24 80.6701 132.358 81.233 132.358 81.8778C132.358 82.5173 132.24 83.0761 132.004 83.5544C131.77 84.0327 131.442 84.4048 131.02 84.6708C130.601 84.9368 130.112 85.0698 129.553 85.0698ZM129.553 84.2154C129.978 84.2154 130.327 84.1065 130.601 83.8889C130.875 83.6713 131.078 83.3851 131.21 83.0305C131.341 82.6758 131.407 82.2916 131.407 81.8778C131.407 81.4641 131.341 81.0785 131.21 80.7212C131.078 80.3638 130.875 80.075 130.601 79.8547C130.327 79.6343 129.978 79.5242 129.553 79.5242C129.129 79.5242 128.779 79.6343 128.505 79.8547C128.231 80.075 128.029 80.3638 127.897 80.7212C127.765 81.0785 127.699 81.4641 127.699 81.8778C127.699 82.2916 127.765 82.6758 127.897 83.0305C128.029 83.3851 128.231 83.6713 128.505 83.8889C128.779 84.1065 129.129 84.2154 129.553 84.2154ZM139.694 78.7504V79.5564H136.486V78.7504H139.694ZM137.421 77.2672H138.372V83.1675C138.372 83.4362 138.411 83.6377 138.489 83.772C138.57 83.9037 138.672 83.9923 138.796 84.038C138.922 84.081 139.055 84.1025 139.195 84.1025C139.299 84.1025 139.385 84.0971 139.453 84.0864C139.52 84.073 139.573 84.0622 139.614 84.0541L139.807 84.9086C139.743 84.9327 139.653 84.9569 139.537 84.9811C139.422 85.008 139.275 85.0214 139.098 85.0214C138.829 85.0214 138.566 84.9636 138.308 84.8481C138.053 84.7326 137.84 84.5566 137.671 84.3201C137.505 84.0837 137.421 83.7855 137.421 83.4254V77.2672ZM142.209 81.2169V84.9408H141.258V76.6869H142.209V79.7176H142.29C142.435 79.3979 142.653 79.144 142.943 78.9559C143.236 78.7651 143.625 78.6698 144.111 78.6698C144.533 78.6698 144.903 78.7544 145.22 78.9237C145.537 79.0903 145.783 79.3468 145.957 79.6934C146.135 80.0374 146.223 80.4753 146.223 81.0073V84.9408H145.272V81.0718C145.272 80.5801 145.145 80.1999 144.889 79.9312C144.637 79.6599 144.286 79.5242 143.837 79.5242C143.526 79.5242 143.246 79.59 142.999 79.7217C142.755 79.8533 142.561 80.0454 142.419 80.298C142.279 80.5505 142.209 80.8568 142.209 81.2169ZM150.559 85.0698C149.962 85.0698 149.448 84.9381 149.015 84.6748C148.585 84.4088 148.254 84.038 148.02 83.5625C147.789 83.0842 147.673 82.528 147.673 81.8939C147.673 81.2599 147.789 80.701 148.02 80.2174C148.254 79.7311 148.579 79.3522 148.995 79.0808C149.414 78.8068 149.903 78.6698 150.462 78.6698C150.784 78.6698 151.103 78.7235 151.417 78.831C151.732 78.9384 152.018 79.1131 152.276 79.3549C152.534 79.594 152.739 79.9111 152.892 80.306C153.045 80.701 153.122 81.1873 153.122 81.765V82.168H148.35V81.3458H152.155C152.155 80.9965 152.085 80.6849 151.945 80.4108C151.808 80.1368 151.612 79.9205 151.357 79.762C151.104 79.6034 150.806 79.5242 150.462 79.5242C150.083 79.5242 149.755 79.6182 149.479 79.8063C149.205 79.9917 148.994 80.2335 148.846 80.5317C148.698 80.83 148.624 81.1497 148.624 81.4909V82.039C148.624 82.5065 148.705 82.9028 148.866 83.228C149.03 83.5504 149.257 83.7962 149.547 83.9655C149.837 84.1321 150.175 84.2154 150.559 84.2154C150.809 84.2154 151.034 84.1804 151.236 84.1106C151.44 84.038 151.616 83.9306 151.764 83.7882C151.912 83.6431 152.026 83.463 152.106 83.2481L153.025 83.506C152.929 83.8177 152.766 84.0918 152.538 84.3282C152.309 84.562 152.027 84.7447 151.691 84.8763C151.355 85.0053 150.978 85.0698 150.559 85.0698ZM160.453 78.7504V79.5564H157.245V78.7504H160.453ZM158.18 77.2672H159.131V83.1675C159.131 83.4362 159.17 83.6377 159.248 83.772C159.329 83.9037 159.431 83.9923 159.554 84.038C159.681 84.081 159.814 84.1025 159.953 84.1025C160.058 84.1025 160.144 84.0971 160.211 84.0864C160.278 84.073 160.332 84.0622 160.372 84.0541L160.566 84.9086C160.501 84.9327 160.411 84.9569 160.296 84.9811C160.18 85.008 160.034 85.0214 159.857 85.0214C159.588 85.0214 159.325 84.9636 159.067 84.8481C158.811 84.7326 158.599 84.5566 158.43 84.3201C158.263 84.0837 158.18 83.7855 158.18 83.4254V77.2672ZM162.968 81.2169V84.9408H162.017V76.6869H162.968V79.7176H163.048C163.194 79.3979 163.411 79.144 163.701 78.9559C163.994 78.7651 164.384 78.6698 164.87 78.6698C165.292 78.6698 165.661 78.7544 165.978 78.9237C166.295 79.0903 166.541 79.3468 166.716 79.6934C166.893 80.0374 166.982 80.4753 166.982 81.0073V84.9408H166.031V81.0718C166.031 80.5801 165.903 80.1999 165.648 79.9312C165.395 79.6599 165.045 79.5242 164.596 79.5242C164.284 79.5242 164.005 79.59 163.758 79.7217C163.513 79.8533 163.32 80.0454 163.177 80.298C163.038 80.5505 162.968 80.8568 162.968 81.2169ZM168.722 84.9408V78.7504H169.673V84.9408H168.722ZM169.206 77.7186C169.02 77.7186 168.86 77.6555 168.726 77.5292C168.594 77.4029 168.529 77.2511 168.529 77.0738C168.529 76.8965 168.594 76.7447 168.726 76.6184C168.86 76.4921 169.02 76.429 169.206 76.429C169.391 76.429 169.55 76.4921 169.681 76.6184C169.816 76.7447 169.883 76.8965 169.883 77.0738C169.883 77.2511 169.816 77.4029 169.681 77.5292C169.55 77.6555 169.391 77.7186 169.206 77.7186ZM172.366 81.2169V84.9408H171.415V78.7504H172.334V79.7176H172.415C172.56 79.4033 172.78 79.1507 173.076 78.9599C173.371 78.7665 173.753 78.6698 174.22 78.6698C174.639 78.6698 175.006 78.7557 175.321 78.9277C175.635 79.097 175.879 79.3549 176.054 79.7015C176.229 80.0454 176.316 80.4807 176.316 81.0073V84.9408H175.365V81.0718C175.365 80.5855 175.239 80.2066 174.986 79.9353C174.733 79.6612 174.387 79.5242 173.946 79.5242C173.643 79.5242 173.371 79.59 173.132 79.7217C172.896 79.8533 172.709 80.0454 172.572 80.298C172.435 80.5505 172.366 80.8568 172.366 81.2169ZM180.553 87.3912C180.093 87.3912 179.698 87.3321 179.368 87.2138C179.037 87.0983 178.762 86.9452 178.542 86.7544C178.324 86.5663 178.151 86.3648 178.022 86.1499L178.779 85.6179C178.865 85.7307 178.974 85.8597 179.106 86.0048C179.238 86.1526 179.418 86.2802 179.646 86.3876C179.877 86.4978 180.179 86.5529 180.553 86.5529C181.052 86.5529 181.465 86.432 181.79 86.1902C182.115 85.9484 182.278 85.5695 182.278 85.0536V83.7962H182.197C182.127 83.9091 182.028 84.0488 181.899 84.2154C181.773 84.3793 181.59 84.5257 181.351 84.6546C181.114 84.7809 180.795 84.8441 180.392 84.8441C179.892 84.8441 179.443 84.7259 179.045 84.4894C178.65 84.253 178.337 83.9091 178.106 83.4577C177.878 83.0063 177.764 82.4582 177.764 81.8133C177.764 81.1793 177.875 80.6271 178.098 80.1569C178.321 79.684 178.632 79.3186 179.029 79.0607C179.427 78.8001 179.886 78.6698 180.408 78.6698C180.811 78.6698 181.13 78.7369 181.367 78.8713C181.606 79.0029 181.789 79.1534 181.915 79.3227C182.044 79.4892 182.143 79.6263 182.213 79.7337H182.31V78.7504H183.229V85.1181C183.229 85.6501 183.108 86.0827 182.866 86.4159C182.627 86.7517 182.305 86.9976 181.899 87.1534C181.496 87.3119 181.047 87.3912 180.553 87.3912ZM180.52 83.9897C180.902 83.9897 181.224 83.9023 181.488 83.7277C181.751 83.5531 181.951 83.3018 182.088 82.974C182.225 82.6463 182.294 82.254 182.294 81.7972C182.294 81.3512 182.227 80.9576 182.092 80.6164C181.958 80.2751 181.759 80.0078 181.496 79.8144C181.233 79.6209 180.907 79.5242 180.52 79.5242C180.117 79.5242 179.782 79.6263 179.513 79.8305C179.247 80.0347 179.047 80.3087 178.912 80.6526C178.781 80.9965 178.715 81.3781 178.715 81.7972C178.715 82.2271 178.782 82.6073 178.916 82.9378C179.053 83.2656 179.255 83.5235 179.521 83.7116C179.79 83.897 180.123 83.9897 180.52 83.9897ZM185.663 85.0053C185.464 85.0053 185.294 84.9341 185.151 84.7917C185.009 84.6493 184.938 84.4787 184.938 84.2798C184.938 84.081 185.009 83.9104 185.151 83.768C185.294 83.6256 185.464 83.5544 185.663 83.5544C185.862 83.5544 186.032 83.6256 186.175 83.768C186.317 83.9104 186.389 84.081 186.389 84.2798C186.389 84.4115 186.355 84.5324 186.288 84.6426C186.223 84.7527 186.136 84.8414 186.026 84.9086C185.918 84.973 185.797 85.0053 185.663 85.0053Z" fill="#233D48"/>
<path d="M138.148 101.317H190.118C193.476 101.317 196.198 104.039 196.198 107.396V126.852C196.198 130.21 193.476 132.932 190.118 132.932H138.148C134.79 132.932 132.068 130.21 132.068 126.852V107.396C132.068 104.039 134.79 101.317 138.148 101.317Z" fill="white"/>
<path d="M138.148 101.317H190.118C193.476 101.317 196.198 104.039 196.198 107.396V126.852C196.198 130.21 193.476 132.932 190.118 132.932H138.148C134.79 132.932 132.068 130.21 132.068 126.852V107.396C132.068 104.039 134.79 101.317 138.148 101.317Z" stroke="#DADFE2" stroke-width="0.810651"/>
<path d="M152.96 115.655H151.453C151.41 115.408 151.331 115.189 151.215 114.998C151.1 114.805 150.956 114.641 150.784 114.507C150.612 114.372 150.416 114.272 150.196 114.204C149.978 114.135 149.743 114.1 149.49 114.1C149.042 114.1 148.644 114.212 148.297 114.438C147.951 114.661 147.679 114.989 147.483 115.421C147.287 115.851 147.189 116.377 147.189 116.997C147.189 117.629 147.287 118.161 147.483 118.593C147.682 119.023 147.954 119.348 148.297 119.569C148.644 119.786 149.04 119.895 149.486 119.895C149.734 119.895 149.965 119.863 150.18 119.798C150.397 119.731 150.592 119.633 150.764 119.504C150.939 119.375 151.085 119.217 151.203 119.029C151.324 118.84 151.407 118.626 151.453 118.384L152.96 118.392C152.904 118.784 152.782 119.152 152.594 119.496C152.408 119.84 152.165 120.144 151.864 120.407C151.563 120.668 151.211 120.872 150.808 121.019C150.405 121.165 149.958 121.237 149.466 121.237C148.741 121.237 148.093 121.069 147.524 120.733C146.954 120.397 146.505 119.913 146.178 119.278C145.85 118.644 145.686 117.884 145.686 116.997C145.686 116.108 145.851 115.348 146.182 114.716C146.512 114.082 146.962 113.597 147.532 113.261C148.101 112.925 148.746 112.758 149.466 112.758C149.926 112.758 150.353 112.822 150.748 112.951C151.143 113.08 151.495 113.269 151.804 113.519C152.113 113.766 152.367 114.07 152.565 114.43C152.767 114.787 152.899 115.196 152.96 115.655ZM156.047 121.249C155.654 121.249 155.301 121.179 154.987 121.04C154.675 120.897 154.428 120.688 154.245 120.411C154.065 120.134 153.975 119.793 153.975 119.387C153.975 119.038 154.039 118.749 154.168 118.521C154.297 118.292 154.473 118.11 154.696 117.973C154.919 117.836 155.171 117.732 155.45 117.662C155.732 117.59 156.024 117.537 156.325 117.505C156.687 117.468 156.982 117.434 157.207 117.404C157.433 117.372 157.597 117.324 157.699 117.259C157.804 117.192 157.856 117.089 157.856 116.949V116.925C157.856 116.621 157.766 116.386 157.586 116.219C157.406 116.053 157.147 115.97 156.808 115.97C156.451 115.97 156.167 116.048 155.958 116.203C155.751 116.359 155.611 116.543 155.539 116.756L154.177 116.562C154.284 116.186 154.461 115.872 154.708 115.619C154.956 115.364 155.258 115.173 155.615 115.047C155.973 114.918 156.368 114.853 156.8 114.853C157.098 114.853 157.395 114.888 157.691 114.958C157.986 115.028 158.256 115.143 158.501 115.305C158.745 115.463 158.942 115.679 159.089 115.953C159.24 116.228 159.315 116.57 159.315 116.981V121.124H157.913V120.274H157.864C157.775 120.446 157.651 120.607 157.489 120.758C157.331 120.905 157.131 121.025 156.889 121.116C156.65 121.205 156.369 121.249 156.047 121.249ZM156.425 120.177C156.718 120.177 156.972 120.119 157.187 120.004C157.402 119.886 157.567 119.73 157.683 119.536C157.801 119.343 157.86 119.132 157.86 118.904V118.174C157.814 118.212 157.737 118.247 157.626 118.279C157.519 118.311 157.398 118.339 157.264 118.364C157.129 118.388 156.996 118.409 156.865 118.428C156.733 118.447 156.619 118.463 156.522 118.476C156.304 118.506 156.11 118.554 155.938 118.621C155.766 118.689 155.63 118.783 155.531 118.904C155.431 119.022 155.382 119.175 155.382 119.363C155.382 119.632 155.48 119.835 155.676 119.972C155.872 120.109 156.122 120.177 156.425 120.177ZM162.241 117.497V121.124H160.782V114.934H162.177V115.986H162.249C162.391 115.639 162.618 115.364 162.93 115.16C163.245 114.955 163.633 114.853 164.095 114.853C164.522 114.853 164.894 114.945 165.211 115.127C165.531 115.31 165.778 115.575 165.953 115.921C166.13 116.268 166.217 116.688 166.215 117.183V121.124H164.756V117.408C164.756 116.995 164.648 116.671 164.433 116.437C164.221 116.203 163.927 116.086 163.551 116.086C163.296 116.086 163.069 116.143 162.87 116.256C162.674 116.366 162.519 116.526 162.406 116.735C162.296 116.945 162.241 117.199 162.241 117.497ZM170.398 121.245C169.78 121.245 169.25 121.109 168.806 120.838C168.366 120.567 168.026 120.192 167.787 119.714C167.55 119.233 167.432 118.679 167.432 118.053C167.432 117.425 167.553 116.87 167.795 116.389C168.036 115.905 168.378 115.529 168.818 115.26C169.262 114.989 169.786 114.853 170.39 114.853C170.893 114.853 171.337 114.946 171.724 115.131C172.114 115.314 172.424 115.573 172.655 115.909C172.886 116.242 173.018 116.632 173.05 117.078H171.656C171.599 116.78 171.465 116.531 171.253 116.332C171.043 116.131 170.762 116.03 170.41 116.03C170.112 116.03 169.85 116.111 169.624 116.272C169.399 116.43 169.223 116.659 169.096 116.957C168.973 117.255 168.911 117.613 168.911 118.029C168.911 118.451 168.973 118.814 169.096 119.117C169.22 119.418 169.393 119.651 169.616 119.814C169.842 119.976 170.107 120.056 170.41 120.056C170.625 120.056 170.817 120.016 170.987 119.935C171.159 119.852 171.302 119.732 171.418 119.577C171.533 119.421 171.613 119.231 171.656 119.008H173.05C173.015 119.446 172.886 119.835 172.663 120.173C172.44 120.509 172.137 120.772 171.752 120.963C171.368 121.151 170.917 121.245 170.398 121.245ZM176.989 121.245C176.368 121.245 175.832 121.116 175.381 120.858C174.932 120.598 174.587 120.23 174.345 119.754C174.103 119.276 173.982 118.713 173.982 118.065C173.982 117.429 174.103 116.87 174.345 116.389C174.589 115.905 174.93 115.529 175.368 115.26C175.806 114.989 176.321 114.853 176.912 114.853C177.294 114.853 177.654 114.915 177.992 115.039C178.333 115.16 178.634 115.348 178.895 115.603C179.158 115.858 179.365 116.183 179.516 116.578C179.666 116.97 179.741 117.438 179.741 117.981V118.428H174.667V117.445H178.343C178.34 117.165 178.28 116.917 178.161 116.699C178.043 116.479 177.878 116.305 177.666 116.179C177.456 116.053 177.212 115.99 176.932 115.99C176.634 115.99 176.372 116.062 176.146 116.207C175.921 116.35 175.745 116.538 175.618 116.772C175.495 117.003 175.432 117.257 175.429 117.533V118.392C175.429 118.752 175.495 119.061 175.626 119.319C175.758 119.574 175.942 119.77 176.179 119.907C176.415 120.041 176.692 120.109 177.009 120.109C177.221 120.109 177.413 120.079 177.585 120.02C177.757 119.958 177.906 119.868 178.032 119.75C178.159 119.632 178.254 119.485 178.319 119.311L179.681 119.464C179.595 119.824 179.431 120.138 179.189 120.407C178.95 120.673 178.644 120.88 178.27 121.028C177.897 121.173 177.47 121.245 176.989 121.245ZM182.434 112.87V121.124H180.975V112.87H182.434Z" fill="#233D48"/>
<path d="M203.089 107.396C203.089 103.815 205.992 100.911 209.574 100.911H265.544C269.126 100.911 272.03 103.815 272.03 107.396V126.852C272.03 130.434 269.126 133.337 265.544 133.337H209.574C205.992 133.337 203.089 130.434 203.089 126.852V107.396Z" fill="#388523"/>
<path d="M203.089 107.396C203.089 103.815 205.992 100.911 209.574 100.911H265.544C269.126 100.911 272.03 103.815 272.03 107.396V126.852C272.03 130.434 269.126 133.337 265.544 133.337H209.574C205.992 133.337 203.089 130.434 203.089 126.852V107.396Z" stroke="#388523"/>
<path d="M217.027 121.124V112.87H220.122C220.757 112.87 221.289 112.989 221.718 113.225C222.151 113.461 222.477 113.787 222.698 114.2C222.921 114.611 223.032 115.079 223.032 115.603C223.032 116.132 222.921 116.602 222.698 117.013C222.475 117.425 222.146 117.748 221.71 117.985C221.275 118.218 220.739 118.335 220.102 118.335H218.051V117.106H219.901C220.272 117.106 220.575 117.042 220.812 116.913C221.048 116.784 221.223 116.606 221.336 116.381C221.451 116.155 221.509 115.896 221.509 115.603C221.509 115.31 221.451 115.052 221.336 114.829C221.223 114.606 221.047 114.433 220.808 114.309C220.571 114.183 220.266 114.12 219.893 114.12H218.522V121.124H217.027ZM224.267 121.124V114.934H225.681V115.966H225.746C225.858 115.608 226.052 115.333 226.326 115.139C226.603 114.943 226.918 114.845 227.273 114.845C227.354 114.845 227.444 114.849 227.543 114.857C227.645 114.863 227.73 114.872 227.797 114.885V116.228C227.735 116.206 227.637 116.187 227.503 116.171C227.371 116.152 227.244 116.143 227.12 116.143C226.854 116.143 226.615 116.201 226.403 116.316C226.193 116.429 226.028 116.586 225.907 116.788C225.786 116.989 225.725 117.222 225.725 117.485V121.124H224.267ZM228.766 121.124V114.934H230.225V121.124H228.766ZM229.5 114.055C229.269 114.055 229.07 113.979 228.903 113.826C228.737 113.67 228.653 113.483 228.653 113.265C228.653 113.045 228.737 112.858 228.903 112.705C229.07 112.549 229.269 112.471 229.5 112.471C229.734 112.471 229.932 112.549 230.096 112.705C230.263 112.858 230.346 113.045 230.346 113.265C230.346 113.483 230.263 113.67 230.096 113.826C229.932 113.979 229.734 114.055 229.5 114.055ZM231.725 121.124V114.934H233.12V115.986H233.192C233.321 115.631 233.535 115.354 233.833 115.156C234.131 114.954 234.488 114.853 234.901 114.853C235.32 114.853 235.674 114.955 235.961 115.16C236.251 115.361 236.456 115.636 236.574 115.986H236.638C236.775 115.642 237.006 115.368 237.331 115.164C237.659 114.957 238.048 114.853 238.496 114.853C239.066 114.853 239.531 115.033 239.891 115.393C240.251 115.753 240.431 116.279 240.431 116.969V121.124H238.968V117.195C238.968 116.811 238.866 116.53 238.661 116.352C238.457 116.172 238.207 116.082 237.912 116.082C237.56 116.082 237.284 116.193 237.086 116.413C236.89 116.631 236.791 116.914 236.791 117.263V121.124H235.361V117.134C235.361 116.815 235.264 116.559 235.071 116.369C234.88 116.178 234.63 116.082 234.321 116.082C234.111 116.082 233.921 116.136 233.749 116.244C233.577 116.348 233.44 116.498 233.338 116.691C233.235 116.882 233.184 117.105 233.184 117.36V121.124H231.725ZM243.692 121.249C243.3 121.249 242.947 121.179 242.632 121.04C242.321 120.897 242.073 120.688 241.891 120.411C241.711 120.134 241.621 119.793 241.621 119.387C241.621 119.038 241.685 118.749 241.814 118.521C241.943 118.292 242.119 118.11 242.342 117.973C242.565 117.836 242.816 117.732 243.096 117.662C243.378 117.59 243.669 117.537 243.97 117.505C244.333 117.468 244.627 117.434 244.853 117.404C245.079 117.372 245.242 117.324 245.345 117.259C245.449 117.192 245.502 117.089 245.502 116.949V116.925C245.502 116.621 245.412 116.386 245.232 116.219C245.052 116.053 244.792 115.97 244.454 115.97C244.097 115.97 243.813 116.048 243.604 116.203C243.397 116.359 243.257 116.543 243.184 116.756L241.822 116.562C241.93 116.186 242.107 115.872 242.354 115.619C242.601 115.364 242.904 115.173 243.261 115.047C243.618 114.918 244.013 114.853 244.446 114.853C244.744 114.853 245.041 114.888 245.337 114.958C245.632 115.028 245.902 115.143 246.147 115.305C246.391 115.463 246.587 115.679 246.735 115.953C246.885 116.228 246.961 116.57 246.961 116.981V121.124H245.558V120.274H245.51C245.421 120.446 245.296 120.607 245.135 120.758C244.976 120.905 244.776 121.025 244.535 121.116C244.295 121.205 244.015 121.249 243.692 121.249ZM244.071 120.177C244.364 120.177 244.618 120.119 244.833 120.004C245.048 119.886 245.213 119.73 245.328 119.536C245.447 119.343 245.506 119.132 245.506 118.904V118.174C245.46 118.212 245.382 118.247 245.272 118.279C245.165 118.311 245.044 118.339 244.909 118.364C244.775 118.388 244.642 118.409 244.51 118.428C244.379 118.447 244.264 118.463 244.168 118.476C243.95 118.506 243.755 118.554 243.583 118.621C243.411 118.689 243.276 118.783 243.176 118.904C243.077 119.022 243.027 119.175 243.027 119.363C243.027 119.632 243.125 119.835 243.321 119.972C243.518 120.109 243.767 120.177 244.071 120.177ZM248.428 121.124V114.934H249.842V115.966H249.907C250.02 115.608 250.213 115.333 250.487 115.139C250.764 114.943 251.08 114.845 251.434 114.845C251.515 114.845 251.605 114.849 251.704 114.857C251.806 114.863 251.891 114.872 251.958 114.885V116.228C251.896 116.206 251.798 116.187 251.664 116.171C251.532 116.152 251.405 116.143 251.281 116.143C251.015 116.143 250.776 116.201 250.564 116.316C250.354 116.429 250.189 116.586 250.068 116.788C249.947 116.989 249.887 117.222 249.887 117.485V121.124H248.428ZM254.023 123.446C253.824 123.446 253.64 123.43 253.471 123.397C253.304 123.368 253.171 123.333 253.072 123.293L253.41 122.156C253.622 122.218 253.812 122.247 253.978 122.245C254.145 122.242 254.291 122.19 254.418 122.087C254.547 121.988 254.655 121.821 254.744 121.588L254.869 121.253L252.624 114.934H254.172L255.598 119.609H255.663L257.094 114.934H258.645L256.167 121.874C256.051 122.202 255.898 122.482 255.707 122.716C255.517 122.953 255.283 123.133 255.006 123.256C254.732 123.383 254.404 123.446 254.023 123.446Z" fill="white"/>
</g>
<path d="M278.515 7.59467H17.4852C13.6797 7.59467 10.5947 10.6797 10.5947 14.4852V139.822C10.5947 143.628 13.6797 146.713 17.4852 146.713H278.515C282.32 146.713 285.405 143.628 285.405 139.822V14.4852C285.405 10.6797 282.32 7.59467 278.515 7.59467Z" stroke="#DADFE2" stroke-width="0.810651"/>
</g>
<defs>
<filter id="filter0_dd_1_17162" x="0.46152" y="0.704124" width="295.077" height="159.385" filterUnits="userSpaceOnUse" color-interpolation-filters="sRGB">
<feFlood flood-opacity="0" result="BackgroundImageFix"/>
<feColorMatrix in="SourceAlpha" type="matrix" values="0 0 0 0 0 0 0 0 0 0 0 0 0 0 0 0 0 0 127 0" result="hardAlpha"/>
<feOffset dy="3.2426"/>
<feGaussianBlur stdDeviation="4.86391"/>
<feColorMatrix type="matrix" values="0 0 0 0 0 0 0 0 0 0 0 0 0 0 0 0 0 0 0.05 0"/>
<feBlend mode="normal" in2="BackgroundImageFix" result="effect1_dropShadow_1_17162"/>
<feColorMatrix in="SourceAlpha" type="matrix" values="0 0 0 0 0 0 0 0 0 0 0 0 0 0 0 0 0 0 127 0" result="hardAlpha"/>
<feOffset dy="0.810651"/>
<feGaussianBlur stdDeviation="1.6213"/>
<feColorMatrix type="matrix" values="0 0 0 0 0 0 0 0 0 0 0 0 0 0 0 0 0 0 0.1 0"/>
<feBlend mode="normal" in2="effect1_dropShadow_1_17162" result="effect2_dropShadow_1_17162"/>
<feBlend mode="normal" in="SourceGraphic" in2="effect2_dropShadow_1_17162" result="shape"/>
</filter>
<clipPath id="clip0_1_17162">
<path d="M11 14.4852C11 10.9035 13.9035 8 17.4852 8H278.515C282.096 8 285 10.9035 285 14.4852V139.822C285 143.404 282.096 146.308 278.515 146.308H17.4852C13.9035 146.308 11 143.404 11 139.822V14.4852Z" fill="white"/>
</clipPath>
</defs>
</svg>
