<svg width="224" height="118" viewBox="0 0 224 118" fill="none" xmlns="http://www.w3.org/2000/svg">
<g filter="url(#filter0_dd_3_6626)">
<g clip-path="url(#clip0_3_6626)">
<path d="M12 11.7442C12 9.12405 14.124 7 16.7442 7H207.698C210.318 7 212.442 9.12404 212.442 11.7442V102.93C212.442 105.55 210.318 107.674 207.698 107.674H16.7442C14.124 107.674 12 105.55 12 102.93V11.7442Z" fill="white"/>
<path d="M31.5208 24.7613H29.3071C29.2667 24.4749 29.1841 24.2205 29.0594 23.9981C28.9348 23.7723 28.7747 23.5803 28.5793 23.4219C28.3839 23.2635 28.1581 23.1422 27.902 23.058C27.6493 22.9738 27.3747 22.9317 27.0782 22.9317C26.5425 22.9317 26.0758 23.0647 25.6782 23.3309C25.2806 23.5937 24.9723 23.9779 24.7533 24.4833C24.5343 24.9853 24.4248 25.5952 24.4248 26.3129C24.4248 27.0508 24.5343 27.6708 24.7533 28.1728C24.9757 28.6749 25.2857 29.0539 25.6832 29.31C26.0808 29.5661 26.5408 29.6941 27.063 29.6941C27.3562 29.6941 27.6274 29.6554 27.8768 29.5779C28.1295 29.5004 28.3535 29.3875 28.549 29.2393C28.7444 29.0876 28.9061 28.904 29.0342 28.6884C29.1656 28.4727 29.2565 28.2267 29.3071 27.9504L31.5208 27.9606C31.4635 28.4357 31.3203 28.8939 31.0912 29.3353C30.8655 29.7733 30.5605 30.1659 30.1764 30.5129C29.7957 30.8566 29.3408 31.1295 28.8118 31.3317C28.2861 31.5305 27.6914 31.6299 27.0277 31.6299C26.1044 31.6299 25.2789 31.421 24.5511 31.0032C23.8267 30.5854 23.2539 29.9805 22.8327 29.1887C22.4149 28.3969 22.206 27.4383 22.206 26.3129C22.206 25.1841 22.4182 24.2238 22.8428 23.432C23.2674 22.6402 23.8435 22.0371 24.5713 21.6226C25.2991 21.2048 26.1179 20.9959 27.0277 20.9959C27.6274 20.9959 28.1834 21.0801 28.6955 21.2486C29.2111 21.4171 29.6676 21.6631 30.0652 21.9865C30.4628 22.3066 30.7863 22.6992 31.0356 23.1641C31.2883 23.6291 31.4501 24.1615 31.5208 24.7613ZM36.5573 31.64C35.7722 31.64 35.0933 31.4732 34.5205 31.1396C33.951 30.8027 33.5113 30.3343 33.2013 29.7346C32.8913 29.1314 32.7363 28.4323 32.7363 27.6371C32.7363 26.8352 32.8913 26.1343 33.2013 25.5346C33.5113 24.9314 33.951 24.4631 34.5205 24.1295C35.0933 23.7925 35.7722 23.6241 36.5573 23.6241C37.3424 23.6241 38.0196 23.7925 38.5891 24.1295C39.1619 24.4631 39.6033 24.9314 39.9133 25.5346C40.2233 26.1343 40.3783 26.8352 40.3783 27.6371C40.3783 28.4323 40.2233 29.1314 39.9133 29.7346C39.6033 30.3343 39.1619 30.8027 38.5891 31.1396C38.0196 31.4732 37.3424 31.64 36.5573 31.64ZM36.5674 29.9721C36.9246 29.9721 37.2228 29.871 37.462 29.6689C37.7012 29.4633 37.8815 29.1837 38.0028 28.8299C38.1275 28.4761 38.1898 28.0734 38.1898 27.6219C38.1898 27.1704 38.1275 26.7678 38.0028 26.414C37.8815 26.0602 37.7012 25.7805 37.462 25.575C37.2228 25.3695 36.9246 25.2667 36.5674 25.2667C36.2069 25.2667 35.9036 25.3695 35.6577 25.575C35.4151 25.7805 35.2314 26.0602 35.1068 26.414C34.9855 26.7678 34.9248 27.1704 34.9248 27.6219C34.9248 28.0734 34.9855 28.4761 35.1068 28.8299C35.2314 29.1837 35.4151 29.4633 35.6577 29.6689C35.9036 29.871 36.2069 29.9721 36.5674 29.9721ZM43.9313 27.0003V31.4884H41.7783V23.7252H43.8303V25.0948H43.9212C44.0931 24.6433 44.3812 24.2862 44.7855 24.0234C45.1898 23.7572 45.6801 23.6241 46.2563 23.6241C46.7954 23.6241 47.2654 23.742 47.6664 23.9779C48.0673 24.2137 48.379 24.5507 48.6014 24.9887C48.8238 25.4234 48.935 25.9423 48.935 26.5454V31.4884H46.7819V26.9295C46.7853 26.4544 46.664 26.0838 46.418 25.8176C46.172 25.548 45.8334 25.4133 45.4021 25.4133C45.1123 25.4133 44.8563 25.4756 44.6339 25.6003C44.4149 25.7249 44.243 25.9069 44.1184 26.1461C43.9971 26.382 43.9347 26.6667 43.9313 27.0003ZM54.8067 23.7252V25.3425H50.0153V23.7252H54.8067ZM51.1121 31.4884V23.1641C51.1121 22.6014 51.2216 22.1348 51.4406 21.7641C51.663 21.3935 51.9662 21.1155 52.3503 20.9302C52.7345 20.7449 53.1708 20.6522 53.6594 20.6522C53.9896 20.6522 54.2911 20.6775 54.5641 20.728C54.8404 20.7786 55.0459 20.8241 55.1807 20.8645L54.7966 22.4818C54.7123 22.4549 54.6079 22.4296 54.4832 22.406C54.3619 22.3824 54.2372 22.3706 54.1092 22.3706C53.7925 22.3706 53.5718 22.4448 53.4471 22.593C53.3224 22.7379 53.2601 22.9418 53.2601 23.2046V31.4884H51.1121ZM56.122 31.4884V23.7252H58.2751V31.4884H56.122ZM57.2036 22.7244C56.8835 22.7244 56.6089 22.6183 56.3798 22.406C56.154 22.1904 56.0412 21.9326 56.0412 21.6327C56.0412 21.3362 56.154 21.0818 56.3798 20.8695C56.6089 20.6539 56.8835 20.5461 57.2036 20.5461C57.5237 20.5461 57.7966 20.6539 58.0224 20.8695C58.2515 21.0818 58.3661 21.3362 58.3661 21.6327C58.3661 21.9326 58.2515 22.1904 58.0224 22.406C57.7966 22.6183 57.5237 22.7244 57.2036 22.7244ZM59.9998 31.4884V23.7252H62.0872V25.0797H62.1681C62.3096 24.5978 62.5471 24.2339 62.8807 23.988C63.2143 23.7386 63.5984 23.614 64.0331 23.614C64.1409 23.614 64.2571 23.6207 64.3818 23.6342C64.5065 23.6477 64.616 23.6662 64.7103 23.6898V25.6003C64.6092 25.5699 64.4694 25.543 64.2908 25.5194C64.1123 25.4958 63.9488 25.484 63.8006 25.484C63.4839 25.484 63.2008 25.5531 62.9515 25.6912C62.7055 25.826 62.5101 26.0147 62.3652 26.2573C62.2237 26.4999 62.1529 26.7796 62.1529 27.0963V31.4884H59.9998ZM65.8235 31.4884V23.7252H67.8755V25.0948H67.9665C68.1282 24.64 68.3978 24.2811 68.7752 24.0183C69.1525 23.7555 69.604 23.6241 70.1297 23.6241C70.662 23.6241 71.1152 23.7572 71.4892 24.0234C71.8633 24.2862 72.1126 24.6433 72.2373 25.0948H72.3181C72.4765 24.6501 72.7629 24.2946 73.1773 24.0284C73.5951 23.7589 74.0888 23.6241 74.6582 23.6241C75.3826 23.6241 75.9706 23.8549 76.4221 24.3165C76.877 24.7747 77.1044 25.425 77.1044 26.2674V31.4884H74.9564V26.692C74.9564 26.2607 74.8418 25.9372 74.6127 25.7216C74.3836 25.5059 74.0972 25.3981 73.7535 25.3981C73.3627 25.3981 73.0577 25.5228 72.8387 25.7721C72.6197 26.0181 72.5102 26.3432 72.5102 26.7476V31.4884H70.4228V26.6465C70.4228 26.2657 70.3133 25.9625 70.0943 25.7367C69.8786 25.511 69.5939 25.3981 69.2401 25.3981C69.0009 25.3981 68.7853 25.4587 68.5932 25.58C68.4045 25.698 68.2546 25.8648 68.1434 26.0804C68.0322 26.2927 67.9766 26.542 67.9766 26.8284V31.4884H65.8235ZM81.0189 31.6349C80.5236 31.6349 80.0822 31.549 79.6947 31.3772C79.3072 31.202 79.0006 30.9442 78.7748 30.6039C78.5525 30.2602 78.4413 29.8323 78.4413 29.3201C78.4413 28.8888 78.5204 28.5266 78.6788 28.2335C78.8372 27.9403 79.0528 27.7045 79.3257 27.5259C79.5987 27.3473 79.9087 27.2125 80.2557 27.1216C80.6061 27.0306 80.9734 26.9666 81.3575 26.9295C81.809 26.8823 82.1729 26.8385 82.4492 26.7981C82.7255 26.7543 82.926 26.6903 83.0507 26.606C83.1753 26.5218 83.2377 26.3971 83.2377 26.232V26.2017C83.2377 25.8816 83.1366 25.634 82.9344 25.4587C82.7356 25.2835 82.4526 25.1959 82.0853 25.1959C81.6978 25.1959 81.3895 25.2818 81.1604 25.4537C80.9313 25.6222 80.7797 25.8344 80.7055 26.0905L78.7142 25.9288C78.8153 25.4571 79.0141 25.0494 79.3106 24.7057C79.6071 24.3586 79.9895 24.0924 80.4579 23.9071C80.9296 23.7184 81.4755 23.6241 82.0954 23.6241C82.5267 23.6241 82.9395 23.6746 83.3337 23.7757C83.7313 23.8768 84.0834 24.0335 84.39 24.2457C84.7 24.458 84.9443 24.7309 85.1229 25.0645C85.3015 25.3947 85.3908 25.7906 85.3908 26.2522V31.4884H83.3489V30.4118H83.2882C83.1635 30.6544 82.9968 30.8684 82.7879 31.0537C82.5789 31.2357 82.3279 31.3789 82.0348 31.4833C81.7416 31.5844 81.403 31.6349 81.0189 31.6349ZM81.6355 30.149C81.9522 30.149 82.2319 30.0867 82.4745 29.962C82.7171 29.834 82.9075 29.6621 83.0456 29.4465C83.1838 29.2308 83.2528 28.9866 83.2528 28.7136V27.8898C83.1854 27.9336 83.0928 27.974 82.9749 28.0111C82.8603 28.0448 82.7306 28.0768 82.5857 28.1071C82.4408 28.1341 82.2959 28.1594 82.151 28.1829C82.0061 28.2032 81.8747 28.2217 81.7568 28.2385C81.5041 28.2756 81.2834 28.3346 81.0947 28.4154C80.906 28.4963 80.7594 28.6058 80.655 28.744C80.5505 28.8787 80.4983 29.0472 80.4983 29.2494C80.4983 29.5425 80.6044 29.7666 80.8167 29.9216C81.0324 30.0732 81.3053 30.149 81.6355 30.149ZM91.1904 23.7252V25.3425H86.5153V23.7252H91.1904ZM87.5767 21.8652H89.7298V29.1028C89.7298 29.3016 89.7601 29.4566 89.8207 29.5678C89.8814 29.6756 89.9656 29.7514 90.0734 29.7952C90.1846 29.839 90.3127 29.8609 90.4576 29.8609C90.5586 29.8609 90.6597 29.8525 90.7608 29.8357C90.8619 29.8154 90.9394 29.8003 90.9933 29.7902L91.3319 31.3923C91.2241 31.426 91.0725 31.4648 90.8771 31.5086C90.6816 31.5558 90.4441 31.5844 90.1644 31.5945C89.6455 31.6147 89.1907 31.5457 88.7998 31.3873C88.4123 31.2289 88.1107 30.983 87.8951 30.6494C87.6795 30.3158 87.5733 29.8946 87.5767 29.3858V21.8652ZM92.593 31.4884V23.7252H94.746V31.4884H92.593ZM93.6745 22.7244C93.3544 22.7244 93.0798 22.6183 92.8507 22.406C92.625 22.1904 92.5121 21.9326 92.5121 21.6327C92.5121 21.3362 92.625 21.0818 92.8507 20.8695C93.0798 20.6539 93.3544 20.5461 93.6745 20.5461C93.9946 20.5461 94.2676 20.6539 94.4933 20.8695C94.7224 21.0818 94.837 21.3362 94.837 21.6327C94.837 21.9326 94.7224 22.1904 94.4933 22.406C94.2676 22.6183 93.9946 22.7244 93.6745 22.7244ZM99.9784 31.64C99.1933 31.64 98.5143 31.4732 97.9415 31.1396C97.3721 30.8027 96.9324 30.3343 96.6224 29.7346C96.3124 29.1314 96.1574 28.4323 96.1574 27.6371C96.1574 26.8352 96.3124 26.1343 96.6224 25.5346C96.9324 24.9314 97.3721 24.4631 97.9415 24.1295C98.5143 23.7925 99.1933 23.6241 99.9784 23.6241C100.763 23.6241 101.441 23.7925 102.01 24.1295C102.583 24.4631 103.024 24.9314 103.334 25.5346C103.644 26.1343 103.799 26.8352 103.799 27.6371C103.799 28.4323 103.644 29.1314 103.334 29.7346C103.024 30.3343 102.583 30.8027 102.01 31.1396C101.441 31.4732 100.763 31.64 99.9784 31.64ZM99.9885 29.9721C100.346 29.9721 100.644 29.871 100.883 29.6689C101.122 29.4633 101.303 29.1837 101.424 28.8299C101.549 28.4761 101.611 28.0734 101.611 27.6219C101.611 27.1704 101.549 26.7678 101.424 26.414C101.303 26.0602 101.122 25.7805 100.883 25.575C100.644 25.3695 100.346 25.2667 99.9885 25.2667C99.6279 25.2667 99.3247 25.3695 99.0787 25.575C98.8361 25.7805 98.6525 26.0602 98.5278 26.414C98.4065 26.7678 98.3459 27.1704 98.3459 27.6219C98.3459 28.0734 98.4065 28.4761 98.5278 28.8299C98.6525 29.1837 98.8361 29.4633 99.0787 29.6689C99.3247 29.871 99.6279 29.9721 99.9885 29.9721ZM107.352 27.0003V31.4884H105.199V23.7252H107.251V25.0948H107.342C107.514 24.6433 107.802 24.2862 108.207 24.0234C108.611 23.7572 109.101 23.6241 109.677 23.6241C110.216 23.6241 110.686 23.742 111.087 23.9779C111.488 24.2137 111.8 24.5507 112.022 24.9887C112.245 25.4234 112.356 25.9423 112.356 26.5454V31.4884H110.203V26.9295C110.206 26.4544 110.085 26.0838 109.839 25.8176C109.593 25.548 109.254 25.4133 108.823 25.4133C108.533 25.4133 108.277 25.4756 108.055 25.6003C107.836 25.7249 107.664 25.9069 107.539 26.1461C107.418 26.382 107.356 26.6667 107.352 27.0003ZM117.387 21.1374H120.086L122.937 28.092H123.058L125.909 21.1374H128.608V31.4884H126.485V24.7512H126.399L123.72 31.4378H122.275L119.596 24.7259H119.51V31.4884H117.387V21.1374ZM133.878 31.64C133.093 31.64 132.414 31.4732 131.841 31.1396C131.272 30.8027 130.832 30.3343 130.522 29.7346C130.212 29.1314 130.057 28.4323 130.057 27.6371C130.057 26.8352 130.212 26.1343 130.522 25.5346C130.832 24.9314 131.272 24.4631 131.841 24.1295C132.414 23.7925 133.093 23.6241 133.878 23.6241C134.663 23.6241 135.34 23.7925 135.91 24.1295C136.483 24.4631 136.924 24.9314 137.234 25.5346C137.544 26.1343 137.699 26.8352 137.699 27.6371C137.699 28.4323 137.544 29.1314 137.234 29.7346C136.924 30.3343 136.483 30.8027 135.91 31.1396C135.34 31.4732 134.663 31.64 133.878 31.64ZM133.888 29.9721C134.245 29.9721 134.543 29.871 134.783 29.6689C135.022 29.4633 135.202 29.1837 135.323 28.8299C135.448 28.4761 135.51 28.0734 135.51 27.6219C135.51 27.1704 135.448 26.7678 135.323 26.414C135.202 26.0602 135.022 25.7805 134.783 25.575C134.543 25.3695 134.245 25.2667 133.888 25.2667C133.528 25.2667 133.224 25.3695 132.978 25.575C132.736 25.7805 132.552 26.0602 132.427 26.414C132.306 26.7678 132.245 27.1704 132.245 27.6219C132.245 28.0734 132.306 28.4761 132.427 28.8299C132.552 29.1837 132.736 29.4633 132.978 29.6689C133.224 29.871 133.528 29.9721 133.888 29.9721ZM141.96 31.6147C141.37 31.6147 140.836 31.4631 140.357 31.1599C139.882 30.8532 139.505 30.4034 139.225 29.8104C138.949 29.214 138.811 28.4828 138.811 27.6169C138.811 26.7273 138.954 25.9877 139.24 25.3981C139.527 24.8051 139.908 24.362 140.383 24.0688C140.861 23.7723 141.385 23.6241 141.955 23.6241C142.389 23.6241 142.751 23.6982 143.041 23.8465C143.334 23.9913 143.57 24.1733 143.749 24.3923C143.931 24.608 144.069 24.8202 144.163 25.0291H144.229V21.1374H146.377V31.4884H144.254V30.245H144.163C144.062 30.4607 143.919 30.6747 143.734 30.8869C143.552 31.0958 143.314 31.2694 143.021 31.4075C142.731 31.5457 142.377 31.6147 141.96 31.6147ZM142.642 29.9014C142.989 29.9014 143.282 29.807 143.521 29.6183C143.764 29.4263 143.949 29.1584 144.077 28.8147C144.209 28.471 144.274 28.0684 144.274 27.6068C144.274 27.1452 144.21 26.7442 144.082 26.4039C143.954 26.0636 143.769 25.8007 143.526 25.6154C143.284 25.4301 142.989 25.3374 142.642 25.3374C142.288 25.3374 141.99 25.4335 141.747 25.6255C141.505 25.8176 141.321 26.0838 141.196 26.4241C141.072 26.7644 141.009 27.1586 141.009 27.6068C141.009 28.0583 141.072 28.4576 141.196 28.8046C141.324 29.1483 141.508 29.4178 141.747 29.6133C141.99 29.8053 142.288 29.9014 142.642 29.9014ZM150.361 31.6349C149.866 31.6349 149.424 31.549 149.037 31.3772C148.649 31.202 148.343 30.9442 148.117 30.6039C147.894 30.2602 147.783 29.8323 147.783 29.3201C147.783 28.8888 147.862 28.5266 148.021 28.2335C148.179 27.9403 148.395 27.7045 148.668 27.5259C148.941 27.3473 149.251 27.2125 149.598 27.1216C149.948 27.0306 150.315 26.9666 150.7 26.9295C151.151 26.8823 151.515 26.8385 151.791 26.7981C152.068 26.7543 152.268 26.6903 152.393 26.606C152.517 26.5218 152.58 26.3971 152.58 26.232V26.2017C152.58 25.8816 152.479 25.634 152.276 25.4587C152.078 25.2835 151.795 25.1959 151.427 25.1959C151.04 25.1959 150.732 25.2818 150.502 25.4537C150.273 25.6222 150.122 25.8344 150.048 26.0905L148.056 25.9288C148.157 25.4571 148.356 25.0494 148.653 24.7057C148.949 24.3586 149.332 24.0924 149.8 23.9071C150.272 23.7184 150.817 23.6241 151.437 23.6241C151.869 23.6241 152.282 23.6746 152.676 23.7757C153.073 23.8768 153.425 24.0335 153.732 24.2457C154.042 24.458 154.286 24.7309 154.465 25.0645C154.643 25.3947 154.733 25.7906 154.733 26.2522V31.4884H152.691V30.4118H152.63C152.506 30.6544 152.339 30.8684 152.13 31.0537C151.921 31.2357 151.67 31.3789 151.377 31.4833C151.084 31.5844 150.745 31.6349 150.361 31.6349ZM150.978 30.149C151.294 30.149 151.574 30.0867 151.817 29.962C152.059 29.834 152.249 29.6621 152.388 29.4465C152.526 29.2308 152.595 28.9866 152.595 28.7136V27.8898C152.527 27.9336 152.435 27.974 152.317 28.0111C152.202 28.0448 152.073 28.0768 151.928 28.1071C151.783 28.1341 151.638 28.1594 151.493 28.1829C151.348 28.2032 151.217 28.2217 151.099 28.2385C150.846 28.2756 150.625 28.3346 150.437 28.4154C150.248 28.4963 150.101 28.6058 149.997 28.744C149.893 28.8787 149.84 29.0472 149.84 29.2494C149.84 29.5425 149.946 29.7666 150.159 29.9216C150.374 30.0732 150.647 30.149 150.978 30.149ZM158.556 21.1374V31.4884H156.403V21.1374H158.556Z" fill="#032B3A"/>
<rect width="181.465" height="20" transform="translate(21.4883 44.9767)" fill="white"/>
<path d="M27.0782 48.8256H26.347C26.3038 48.6153 26.2281 48.4305 26.12 48.2713C26.0139 48.1121 25.8842 47.9784 25.7308 47.8703C25.5795 47.7603 25.4114 47.6777 25.2267 47.6227C25.0419 47.5677 24.8493 47.5401 24.6488 47.5401C24.2832 47.5401 23.9521 47.6325 23.6553 47.8173C23.3604 48.002 23.1256 48.2743 22.9506 48.6339C22.7777 48.9936 22.6912 49.4349 22.6912 49.9577C22.6912 50.4805 22.7777 50.9218 22.9506 51.2815C23.1256 51.6412 23.3604 51.9134 23.6553 52.0982C23.9521 52.2829 24.2832 52.3753 24.6488 52.3753C24.8493 52.3753 25.0419 52.3478 25.2267 52.2927C25.4114 52.2377 25.5795 52.1561 25.7308 52.048C25.8842 51.938 26.0139 51.8033 26.12 51.6441C26.2281 51.483 26.3038 51.2982 26.347 51.0899H27.0782C27.0232 51.3984 26.9229 51.6746 26.7775 51.9183C26.632 52.162 26.4512 52.3694 26.235 52.5404C26.0188 52.7094 25.776 52.8382 25.5068 52.9266C25.2395 53.0151 24.9535 53.0593 24.6488 53.0593C24.1339 53.0593 23.6759 52.9335 23.2749 52.6819C22.874 52.4303 22.5585 52.0726 22.3285 51.6087C22.0986 51.1449 21.9836 50.5945 21.9836 49.9577C21.9836 49.3209 22.0986 48.7705 22.3285 48.3067C22.5585 47.8428 22.874 47.4851 23.2749 47.2335C23.6759 46.9819 24.1339 46.8561 24.6488 46.8561C24.9535 46.8561 25.2395 46.9004 25.5068 46.9888C25.776 47.0773 26.0188 47.207 26.235 47.378C26.4512 47.547 26.632 47.7534 26.7775 47.9971C26.9229 48.2389 27.0232 48.515 27.0782 48.8256ZM30.0051 53.0711C29.5963 53.0711 29.2376 52.9738 28.929 52.7792C28.6224 52.5846 28.3826 52.3124 28.2096 51.9625C28.0386 51.6127 27.9531 51.2039 27.9531 50.7361C27.9531 50.2643 28.0386 49.8526 28.2096 49.5007C28.3826 49.1489 28.6224 48.8757 28.929 48.6811C29.2376 48.4865 29.5963 48.3892 30.0051 48.3892C30.4139 48.3892 30.7716 48.4865 31.0783 48.6811C31.3868 48.8757 31.6266 49.1489 31.7976 49.5007C31.9706 49.8526 32.0571 50.2643 32.0571 50.7361C32.0571 51.2039 31.9706 51.6127 31.7976 51.9625C31.6266 52.3124 31.3868 52.5846 31.0783 52.7792C30.7716 52.9738 30.4139 53.0711 30.0051 53.0711ZM30.0051 52.4461C30.3156 52.4461 30.5712 52.3665 30.7716 52.2072C30.9721 52.048 31.1205 51.8387 31.2168 51.5793C31.3131 51.3198 31.3613 51.0387 31.3613 50.7361C31.3613 50.4334 31.3131 50.1513 31.2168 49.8899C31.1205 49.6285 30.9721 49.4172 30.7716 49.256C30.5712 49.0949 30.3156 49.0143 30.0051 49.0143C29.6945 49.0143 29.439 49.0949 29.2385 49.256C29.0381 49.4172 28.8897 49.6285 28.7934 49.8899C28.697 50.1513 28.6489 50.4334 28.6489 50.7361C28.6489 51.0387 28.697 51.3198 28.7934 51.5793C28.8897 51.8387 29.0381 52.048 29.2385 52.2072C29.439 52.3665 29.6945 52.4461 30.0051 52.4461ZM33.815 50.2525V52.9767H33.1192V48.4482H33.7914V49.1558H33.8504C33.9565 48.9258 34.1177 48.7411 34.3339 48.6015C34.5501 48.46 34.8292 48.3892 35.1712 48.3892C35.4778 48.3892 35.7461 48.4521 35.9761 48.5779C36.206 48.7018 36.3849 48.8904 36.5127 49.144C36.6404 49.3956 36.7043 49.714 36.7043 50.0992V52.9767H36.0085V50.1464C36.0085 49.7906 35.9161 49.5135 35.7314 49.315C35.5466 49.1145 35.2931 49.0143 34.9707 49.0143C34.7486 49.0143 34.5501 49.0624 34.3752 49.1587C34.2022 49.255 34.0656 49.3956 33.9654 49.5803C33.8651 49.7651 33.815 49.9892 33.815 50.2525ZM39.9924 48.4482V49.0379H37.5512V48.4482H39.9924ZM38.2824 52.9767V47.8232C38.2824 47.5637 38.3433 47.3475 38.4652 47.1746C38.587 47.0016 38.7452 46.8719 38.9398 46.7854C39.1344 46.6989 39.3398 46.6557 39.556 46.6557C39.727 46.6557 39.8666 46.6694 39.9747 46.6969C40.0828 46.7244 40.1634 46.75 40.2164 46.7736L40.0159 47.375C39.9806 47.3632 39.9314 47.3485 39.8685 47.3308C39.8076 47.3131 39.727 47.3043 39.6268 47.3043C39.3968 47.3043 39.2307 47.3623 39.1285 47.4782C39.0283 47.5942 38.9782 47.7642 38.9782 47.9883V52.9767H38.2824ZM40.9675 52.9767V48.4482H41.6633V52.9767H40.9675ZM41.3213 47.6934C41.1857 47.6934 41.0687 47.6473 40.9704 47.5549C40.8741 47.4625 40.826 47.3514 40.826 47.2217C40.826 47.092 40.8741 46.9809 40.9704 46.8886C41.0687 46.7962 41.1857 46.75 41.3213 46.75C41.4569 46.75 41.5729 46.7962 41.6692 46.8886C41.7675 46.9809 41.8166 47.092 41.8166 47.2217C41.8166 47.3514 41.7675 47.4625 41.6692 47.5549C41.5729 47.6473 41.4569 47.6934 41.3213 47.6934ZM42.9377 52.9767V48.4482H43.6099V49.1322H43.6571C43.7396 48.9081 43.889 48.7263 44.1052 48.5868C44.3214 48.4472 44.5651 48.3774 44.8364 48.3774C44.8875 48.3774 44.9513 48.3784 45.028 48.3804C45.1047 48.3824 45.1626 48.3853 45.2019 48.3892V49.0968C45.1784 49.0909 45.1243 49.0821 45.0398 49.0703C44.9572 49.0565 44.8698 49.0497 44.7774 49.0497C44.5573 49.0497 44.3607 49.0958 44.1877 49.1882C44.0167 49.2786 43.8811 49.4044 43.7809 49.5656C43.6826 49.7248 43.6335 49.9066 43.6335 50.111V52.9767H42.9377ZM46.0267 52.9767V48.4482H46.6989V49.1558H46.7579C46.8522 48.914 47.0046 48.7263 47.2149 48.5927C47.4252 48.457 47.6778 48.3892 47.9726 48.3892C48.2713 48.3892 48.52 48.457 48.7185 48.5927C48.919 48.7263 49.0752 48.914 49.1873 49.1558H49.2344C49.3504 48.9219 49.5244 48.7362 49.7563 48.5986C49.9882 48.459 50.2663 48.3892 50.5906 48.3892C50.9955 48.3892 51.3267 48.516 51.5842 48.7696C51.8417 49.0212 51.9704 49.4133 51.9704 49.9459V52.9767H51.2746V49.9459C51.2746 49.6118 51.1832 49.373 51.0005 49.2295C50.8177 49.086 50.6024 49.0143 50.3548 49.0143C50.0364 49.0143 49.7897 49.1106 49.6148 49.3032C49.4398 49.4939 49.3524 49.7356 49.3524 50.0285V52.9767H48.6448V49.8752C48.6448 49.6177 48.5613 49.4103 48.3942 49.2531C48.2271 49.0939 48.0119 49.0143 47.7485 49.0143C47.5677 49.0143 47.3987 49.0624 47.2414 49.1587C47.0861 49.255 46.9603 49.3887 46.864 49.5597C46.7697 49.7287 46.7225 49.9243 46.7225 50.1464V52.9767H46.0267ZM54.5752 53.0829C54.2883 53.0829 54.0278 53.0288 53.7939 52.9207C53.56 52.8107 53.3743 52.6524 53.2367 52.4461C53.0991 52.2377 53.0303 51.9861 53.0303 51.6913C53.0303 51.4319 53.0814 51.2215 53.1836 51.0604C53.2859 50.8972 53.4225 50.7695 53.5935 50.6771C53.7645 50.5847 53.9531 50.5159 54.1595 50.4707C54.3679 50.4235 54.5772 50.3862 54.7875 50.3587C55.0627 50.3233 55.2858 50.2968 55.4568 50.2791C55.6297 50.2594 55.7555 50.227 55.8341 50.1818C55.9147 50.1366 55.955 50.058 55.955 49.9459V49.9223C55.955 49.6314 55.8754 49.4054 55.7162 49.2442C55.559 49.0831 55.3202 49.0025 54.9998 49.0025C54.6676 49.0025 54.4072 49.0752 54.2185 49.2207C54.0298 49.3661 53.8971 49.5214 53.8205 49.6865L53.1601 49.4506C53.278 49.1754 53.4352 48.9612 53.6318 48.8079C53.8303 48.6526 54.0465 48.5445 54.2804 48.4836C54.5163 48.4207 54.7482 48.3892 54.9762 48.3892C55.1216 48.3892 55.2887 48.4069 55.4774 48.4423C55.6681 48.4757 55.8518 48.5455 56.0287 48.6516C56.2076 48.7578 56.356 48.918 56.4739 49.1322C56.5918 49.3464 56.6508 49.6334 56.6508 49.9931V52.9767H55.955V52.3635H55.9196C55.8725 52.4618 55.7939 52.5669 55.6838 52.679C55.5737 52.791 55.4273 52.8863 55.2445 52.965C55.0617 53.0436 54.8386 53.0829 54.5752 53.0829ZM54.6814 52.4579C54.9565 52.4579 55.1885 52.4038 55.3772 52.2957C55.5678 52.1876 55.7113 52.048 55.8076 51.877C55.9059 51.706 55.955 51.5262 55.955 51.3375V50.7007C55.9255 50.7361 55.8607 50.7685 55.7604 50.798C55.6622 50.8255 55.5482 50.8501 55.4184 50.8717C55.2907 50.8913 55.1659 50.909 55.044 50.9248C54.9241 50.9385 54.8268 50.9503 54.7521 50.9601C54.5713 50.9837 54.4023 51.022 54.245 51.0751C54.0898 51.1262 53.964 51.2039 53.8676 51.308C53.7733 51.4102 53.7261 51.5498 53.7261 51.7267C53.7261 51.9684 53.8156 52.1512 53.9944 52.2751C54.1753 52.3969 54.4042 52.4579 54.6814 52.4579ZM59.8902 48.4482V49.0379H57.5434V48.4482H59.8902ZM58.2274 47.3632H58.9232V51.6795C58.9232 51.8761 58.9517 52.0235 59.0087 52.1217C59.0677 52.2181 59.1423 52.2829 59.2328 52.3163C59.3251 52.3478 59.4224 52.3635 59.5246 52.3635C59.6013 52.3635 59.6642 52.3596 59.7133 52.3517C59.7625 52.3419 59.8018 52.334 59.8313 52.3281L59.9728 52.9532C59.9256 52.9708 59.8598 52.9885 59.7752 53.0062C59.6907 53.0259 59.5836 53.0357 59.4539 53.0357C59.2573 53.0357 59.0647 52.9935 58.876 52.9089C58.6893 52.8244 58.534 52.6957 58.4102 52.5227C58.2883 52.3497 58.2274 52.1316 58.2274 51.8682V47.3632ZM60.9369 52.9767V48.4482H61.6327V52.9767H60.9369ZM61.2907 47.6934C61.155 47.6934 61.0381 47.6473 60.9398 47.5549C60.8435 47.4625 60.7953 47.3514 60.7953 47.2217C60.7953 47.092 60.8435 46.9809 60.9398 46.8886C61.0381 46.7962 61.155 46.75 61.2907 46.75C61.4263 46.75 61.5422 46.7962 61.6385 46.8886C61.7368 46.9809 61.786 47.092 61.786 47.2217C61.786 47.3514 61.7368 47.4625 61.6385 47.5549C61.5422 47.6473 61.4263 47.6934 61.2907 47.6934ZM64.7468 53.0711C64.3379 53.0711 63.9792 52.9738 63.6706 52.7792C63.364 52.5846 63.1242 52.3124 62.9513 51.9625C62.7803 51.6127 62.6948 51.2039 62.6948 50.7361C62.6948 50.2643 62.7803 49.8526 62.9513 49.5007C63.1242 49.1489 63.364 48.8757 63.6706 48.6811C63.9792 48.4865 64.3379 48.3892 64.7468 48.3892C65.1556 48.3892 65.5133 48.4865 65.8199 48.6811C66.1285 48.8757 66.3683 49.1489 66.5393 49.5007C66.7123 49.8526 66.7988 50.2643 66.7988 50.7361C66.7988 51.2039 66.7123 51.6127 66.5393 51.9625C66.3683 52.3124 66.1285 52.5846 65.8199 52.7792C65.5133 52.9738 65.1556 53.0711 64.7468 53.0711ZM64.7468 52.4461C65.0573 52.4461 65.3128 52.3665 65.5133 52.2072C65.7138 52.048 65.8622 51.8387 65.9585 51.5793C66.0548 51.3198 66.103 51.0387 66.103 50.7361C66.103 50.4334 66.0548 50.1513 65.9585 49.8899C65.8622 49.6285 65.7138 49.4172 65.5133 49.256C65.3128 49.0949 65.0573 49.0143 64.7468 49.0143C64.4362 49.0143 64.1807 49.0949 63.9802 49.256C63.7797 49.4172 63.6313 49.6285 63.535 49.8899C63.4387 50.1513 63.3906 50.4334 63.3906 50.7361C63.3906 51.0387 63.4387 51.3198 63.535 51.5793C63.6313 51.8387 63.7797 52.048 63.9802 52.2072C64.1807 52.3665 64.4362 52.4461 64.7468 52.4461ZM68.5567 50.2525V52.9767H67.8609V48.4482H68.5331V49.1558H68.592C68.6982 48.9258 68.8594 48.7411 69.0756 48.6015C69.2918 48.46 69.5709 48.3892 69.9129 48.3892C70.2195 48.3892 70.4878 48.4521 70.7177 48.5779C70.9477 48.7018 71.1266 48.8904 71.2543 49.144C71.3821 49.3956 71.446 49.714 71.446 50.0992V52.9767H70.7502V50.1464C70.7502 49.7906 70.6578 49.5135 70.473 49.315C70.2883 49.1145 70.0347 49.0143 69.7124 49.0143C69.4903 49.0143 69.2918 49.0624 69.1168 49.1587C68.9439 49.255 68.8073 49.3956 68.707 49.5803C68.6068 49.7651 68.5567 49.9892 68.5567 50.2525ZM75.0524 52.9767V48.4482H75.7246V49.1558H75.7836C75.878 48.914 76.0303 48.7263 76.2406 48.5927C76.4509 48.457 76.7035 48.3892 76.9983 48.3892C77.2971 48.3892 77.5457 48.457 77.7442 48.5927C77.9447 48.7263 78.1009 48.914 78.213 49.1558H78.2602C78.3761 48.9219 78.5501 48.7362 78.782 48.5986C79.0139 48.459 79.292 48.3892 79.6164 48.3892C80.0213 48.3892 80.3524 48.516 80.6099 48.7696C80.8674 49.0212 80.9961 49.4133 80.9961 49.9459V52.9767H80.3004V49.9459C80.3004 49.6118 80.209 49.373 80.0262 49.2295C79.8434 49.086 79.6282 49.0143 79.3805 49.0143C79.0621 49.0143 78.8154 49.1106 78.6405 49.3032C78.4656 49.4939 78.3781 49.7356 78.3781 50.0285V52.9767H77.6705V49.8752C77.6705 49.6177 77.587 49.4103 77.4199 49.2531C77.2528 49.0939 77.0376 49.0143 76.7742 49.0143C76.5934 49.0143 76.4244 49.0624 76.2671 49.1587C76.1118 49.255 75.9861 49.3887 75.8897 49.5597C75.7954 49.7287 75.7482 49.9243 75.7482 50.1464V52.9767H75.0524ZM84.167 53.0711C83.7307 53.0711 83.3543 52.9748 83.0378 52.7822C82.7233 52.5876 82.4806 52.3163 82.3096 51.9684C82.1406 51.6186 82.0561 51.2117 82.0561 50.7479C82.0561 50.284 82.1406 49.8752 82.3096 49.5214C82.4806 49.1656 82.7184 48.8885 83.0231 48.69C83.3297 48.4895 83.6874 48.3892 84.0963 48.3892C84.3321 48.3892 84.565 48.4285 84.795 48.5072C85.025 48.5858 85.2343 48.7135 85.423 48.8904C85.6117 49.0654 85.762 49.2973 85.8741 49.5862C85.9861 49.8752 86.0421 50.2309 86.0421 50.6535V50.9483H82.5514V50.3469H85.3345C85.3345 50.0914 85.2834 49.8634 85.1812 49.6629C85.081 49.4624 84.9375 49.3042 84.7508 49.1882C84.566 49.0723 84.3478 49.0143 84.0963 49.0143C83.8191 49.0143 83.5793 49.0831 83.3769 49.2207C83.1764 49.3563 83.0221 49.5332 82.914 49.7513C82.8059 49.9695 82.7518 50.2034 82.7518 50.453V50.854C82.7518 51.196 82.8108 51.4859 82.9287 51.7237C83.0486 51.9596 83.2147 52.1394 83.427 52.2633C83.6393 52.3851 83.8859 52.4461 84.167 52.4461C84.3498 52.4461 84.5149 52.4205 84.6623 52.3694C84.8117 52.3163 84.9404 52.2377 85.0485 52.1335C85.1566 52.0274 85.2402 51.8957 85.2991 51.7385L85.9714 51.9272C85.9006 52.1552 85.7817 52.3556 85.6146 52.5286C85.4475 52.6996 85.2412 52.8333 84.9955 52.9296C84.7498 53.0239 84.4736 53.0711 84.167 53.0711ZM90.3083 49.4624L89.6832 49.6393C89.6439 49.5351 89.5859 49.4339 89.5093 49.3356C89.4346 49.2354 89.3324 49.1528 89.2027 49.088C89.0729 49.0231 88.9068 48.9907 88.7044 48.9907C88.4273 48.9907 88.1963 49.0546 88.0116 49.1823C87.8288 49.3081 87.7374 49.4683 87.7374 49.6629C87.7374 49.8359 87.8003 49.9725 87.9261 50.0727C88.0518 50.1729 88.2484 50.2565 88.5157 50.3233L89.1879 50.4884C89.5928 50.5867 89.8945 50.737 90.093 50.9395C90.2916 51.14 90.3908 51.3984 90.3908 51.7149C90.3908 51.9743 90.3161 52.2063 90.1667 52.4107C90.0193 52.6151 89.8129 52.7763 89.5476 52.8942C89.2823 53.0121 88.9737 53.0711 88.6218 53.0711C88.16 53.0711 87.7777 52.9708 87.475 52.7704C87.1723 52.5699 86.9806 52.277 86.9001 51.8918L87.5605 51.7267C87.6234 51.9704 87.7423 52.1532 87.9172 52.2751C88.0941 52.3969 88.3251 52.4579 88.6101 52.4579C88.9344 52.4579 89.1918 52.3891 89.3825 52.2515C89.5751 52.1119 89.6714 51.9449 89.6714 51.7503C89.6714 51.593 89.6164 51.4613 89.5063 51.3552C89.3963 51.2471 89.2272 51.1665 88.9992 51.1134L88.2445 50.9365C87.8297 50.8383 87.5251 50.6859 87.3305 50.4796C87.1379 50.2712 87.0416 50.0108 87.0416 49.6983C87.0416 49.4428 87.1133 49.2167 87.2568 49.0202C87.4022 48.8236 87.5998 48.6693 87.8494 48.5573C88.101 48.4453 88.386 48.3892 88.7044 48.3892C89.1525 48.3892 89.5044 48.4875 89.7599 48.6841C90.0174 48.8806 90.2002 49.1401 90.3083 49.4624ZM94.6459 49.4624L94.0209 49.6393C93.9816 49.5351 93.9236 49.4339 93.8469 49.3356C93.7722 49.2354 93.67 49.1528 93.5403 49.088C93.4106 49.0231 93.2445 48.9907 93.042 48.9907C92.7649 48.9907 92.534 49.0546 92.3492 49.1823C92.1664 49.3081 92.075 49.4683 92.075 49.6629C92.075 49.8359 92.1379 49.9725 92.2637 50.0727C92.3895 50.1729 92.586 50.2565 92.8533 50.3233L93.5256 50.4884C93.9304 50.5867 94.2322 50.737 94.4307 50.9395C94.6292 51.14 94.7284 51.3984 94.7284 51.7149C94.7284 51.9743 94.6538 52.2063 94.5044 52.4107C94.357 52.6151 94.1506 52.7763 93.8852 52.8942C93.6199 53.0121 93.3113 53.0711 92.9595 53.0711C92.4976 53.0711 92.1153 52.9708 91.8126 52.7704C91.5099 52.5699 91.3183 52.277 91.2377 51.8918L91.8981 51.7267C91.961 51.9704 92.0799 52.1532 92.2549 52.2751C92.4317 52.3969 92.6627 52.4579 92.9477 52.4579C93.272 52.4579 93.5295 52.3891 93.7201 52.2515C93.9128 52.1119 94.0091 51.9449 94.0091 51.7503C94.0091 51.593 93.954 51.4613 93.844 51.3552C93.7339 51.2471 93.5649 51.1665 93.3369 51.1134L92.5821 50.9365C92.1674 50.8383 91.8627 50.6859 91.6681 50.4796C91.4755 50.2712 91.3792 50.0108 91.3792 49.6983C91.3792 49.4428 91.451 49.2167 91.5944 49.0202C91.7399 48.8236 91.9374 48.6693 92.187 48.5573C92.4386 48.4453 92.7236 48.3892 93.042 48.3892C93.4902 48.3892 93.842 48.4875 94.0975 48.6841C94.355 48.8806 94.5378 49.1401 94.6459 49.4624ZM97.1084 53.0829C96.8215 53.0829 96.561 53.0288 96.3271 52.9207C96.0932 52.8107 95.9075 52.6524 95.7699 52.4461C95.6323 52.2377 95.5635 51.9861 95.5635 51.6913C95.5635 51.4319 95.6146 51.2215 95.7169 51.0604C95.8191 50.8972 95.9557 50.7695 96.1267 50.6771C96.2977 50.5847 96.4864 50.5159 96.6927 50.4707C96.9011 50.4235 97.1104 50.3862 97.3207 50.3587C97.5959 50.3233 97.819 50.2968 97.99 50.2791C98.1629 50.2594 98.2887 50.227 98.3673 50.1818C98.4479 50.1366 98.4882 50.058 98.4882 49.9459V49.9223C98.4882 49.6314 98.4086 49.4054 98.2494 49.2442C98.0922 49.0831 97.8534 49.0025 97.533 49.0025C97.2008 49.0025 96.9404 49.0752 96.7517 49.2207C96.563 49.3661 96.4303 49.5214 96.3537 49.6865L95.6933 49.4506C95.8112 49.1754 95.9684 48.9612 96.165 48.8079C96.3635 48.6526 96.5797 48.5445 96.8136 48.4836C97.0495 48.4207 97.2814 48.3892 97.5094 48.3892C97.6548 48.3892 97.8219 48.4069 98.0106 48.4423C98.2013 48.4757 98.385 48.5455 98.5619 48.6516C98.7408 48.7578 98.8892 48.918 99.0071 49.1322C99.1251 49.3464 99.184 49.6334 99.184 49.9931V52.9767H98.4882V52.3635H98.4528C98.4057 52.4618 98.3271 52.5669 98.217 52.679C98.1069 52.791 97.9605 52.8863 97.7777 52.965C97.5949 53.0436 97.3718 53.0829 97.1084 53.0829ZM97.2146 52.4579C97.4897 52.4579 97.7217 52.4038 97.9104 52.2957C98.101 52.1876 98.2445 52.048 98.3408 51.877C98.4391 51.706 98.4882 51.5262 98.4882 51.3375V50.7007C98.4587 50.7361 98.3939 50.7685 98.2936 50.798C98.1954 50.8255 98.0814 50.8501 97.9516 50.8717C97.8239 50.8913 97.6991 50.909 97.5772 50.9248C97.4573 50.9385 97.36 50.9503 97.2853 50.9601C97.1045 50.9837 96.9355 51.022 96.7782 51.0751C96.623 51.1262 96.4972 51.2039 96.4009 51.308C96.3065 51.4102 96.2593 51.5498 96.2593 51.7267C96.2593 51.9684 96.3488 52.1512 96.5276 52.2751C96.7085 52.3969 96.9374 52.4579 97.2146 52.4579ZM102.282 54.7693C101.946 54.7693 101.657 54.7261 101.415 54.6396C101.173 54.5551 100.972 54.443 100.811 54.3035C100.652 54.1659 100.525 54.0185 100.43 53.8612L100.985 53.4721C101.048 53.5546 101.127 53.649 101.223 53.7551C101.32 53.8632 101.451 53.9566 101.619 54.0352C101.788 54.1158 102.009 54.1561 102.282 54.1561C102.648 54.1561 102.949 54.0676 103.187 53.8907C103.425 53.7138 103.544 53.4367 103.544 53.0593V52.1394H103.485C103.434 52.222 103.361 52.3242 103.267 52.4461C103.174 52.566 103.041 52.6731 102.866 52.7674C102.693 52.8598 102.459 52.906 102.164 52.906C101.798 52.906 101.47 52.8195 101.179 52.6465C100.89 52.4736 100.661 52.222 100.492 51.8918C100.325 51.5616 100.242 51.1606 100.242 50.6889C100.242 50.225 100.323 49.8211 100.486 49.4771C100.65 49.1312 100.877 48.8639 101.167 48.6752C101.458 48.4846 101.794 48.3892 102.176 48.3892C102.471 48.3892 102.705 48.4384 102.877 48.5367C103.052 48.633 103.186 48.743 103.278 48.8669C103.373 48.9887 103.445 49.089 103.497 49.1676H103.567V48.4482H104.24V53.1065C104.24 53.4956 104.151 53.8121 103.974 54.0558C103.799 54.3015 103.563 54.4813 103.267 54.5953C102.972 54.7113 102.644 54.7693 102.282 54.7693ZM102.258 52.281C102.537 52.281 102.773 52.2171 102.966 52.0893C103.159 51.9616 103.305 51.7778 103.405 51.538C103.505 51.2982 103.556 51.0112 103.556 50.6771C103.556 50.3508 103.506 50.0629 103.408 49.8133C103.31 49.5636 103.164 49.3681 102.972 49.2265C102.779 49.085 102.541 49.0143 102.258 49.0143C101.964 49.0143 101.718 49.089 101.521 49.2383C101.327 49.3877 101.18 49.5882 101.082 49.8398C100.986 50.0914 100.938 50.3705 100.938 50.6771C100.938 50.9916 100.987 51.2697 101.085 51.5115C101.185 51.7512 101.333 51.9399 101.527 52.0775C101.724 52.2131 101.967 52.281 102.258 52.281ZM107.412 53.0711C106.976 53.0711 106.599 52.9748 106.283 52.7822C105.968 52.5876 105.725 52.3163 105.554 51.9684C105.385 51.6186 105.301 51.2117 105.301 50.7479C105.301 50.284 105.385 49.8752 105.554 49.5214C105.725 49.1656 105.963 48.8885 106.268 48.69C106.575 48.4895 106.932 48.3892 107.341 48.3892C107.577 48.3892 107.81 48.4285 108.04 48.5072C108.27 48.5858 108.479 48.7135 108.668 48.8904C108.857 49.0654 109.007 49.2973 109.119 49.5862C109.231 49.8752 109.287 50.2309 109.287 50.6535V50.9483H105.796V50.3469H108.579C108.579 50.0914 108.528 49.8634 108.426 49.6629C108.326 49.4624 108.182 49.3042 107.996 49.1882C107.811 49.0723 107.593 49.0143 107.341 49.0143C107.064 49.0143 106.824 49.0831 106.622 49.2207C106.421 49.3563 106.267 49.5332 106.159 49.7513C106.051 49.9695 105.997 50.2034 105.997 50.453V50.854C105.997 51.196 106.056 51.4859 106.174 51.7237C106.294 51.9596 106.46 52.1394 106.672 52.2633C106.884 52.3851 107.131 52.4461 107.412 52.4461C107.595 52.4461 107.76 52.4205 107.907 52.3694C108.057 52.3163 108.185 52.2377 108.293 52.1335C108.402 52.0274 108.485 51.8957 108.544 51.7385L109.216 51.9272C109.145 52.1552 109.027 52.3556 108.86 52.5286C108.692 52.6996 108.486 52.8333 108.24 52.9296C107.995 53.0239 107.719 53.0711 107.412 53.0711ZM114.697 48.4482V49.0379H112.256V48.4482H114.697ZM112.987 52.9767V47.8232C112.987 47.5637 113.048 47.3475 113.17 47.1746C113.292 47.0016 113.45 46.8719 113.645 46.7854C113.839 46.6989 114.045 46.6557 114.261 46.6557C114.432 46.6557 114.571 46.6694 114.679 46.6969C114.787 46.7244 114.868 46.75 114.921 46.7736L114.721 47.375C114.685 47.3632 114.636 47.3485 114.573 47.3308C114.512 47.3131 114.432 47.3043 114.331 47.3043C114.102 47.3043 113.935 47.3623 113.833 47.4782C113.733 47.5942 113.683 47.7642 113.683 47.9883V52.9767H112.987ZM117.325 53.0711C116.917 53.0711 116.558 52.9738 116.249 52.7792C115.943 52.5846 115.703 52.3124 115.53 51.9625C115.359 51.6127 115.273 51.2039 115.273 50.7361C115.273 50.2643 115.359 49.8526 115.53 49.5007C115.703 49.1489 115.943 48.8757 116.249 48.6811C116.558 48.4865 116.917 48.3892 117.325 48.3892C117.734 48.3892 118.092 48.4865 118.399 48.6811C118.707 48.8757 118.947 49.1489 119.118 49.5007C119.291 49.8526 119.377 50.2643 119.377 50.7361C119.377 51.2039 119.291 51.6127 119.118 51.9625C118.947 52.3124 118.707 52.5846 118.399 52.7792C118.092 52.9738 117.734 53.0711 117.325 53.0711ZM117.325 52.4461C117.636 52.4461 117.892 52.3665 118.092 52.2072C118.292 52.048 118.441 51.8387 118.537 51.5793C118.634 51.3198 118.682 51.0387 118.682 50.7361C118.682 50.4334 118.634 50.1513 118.537 49.8899C118.441 49.6285 118.292 49.4172 118.092 49.256C117.892 49.0949 117.636 49.0143 117.325 49.0143C117.015 49.0143 116.759 49.0949 116.559 49.256C116.358 49.4172 116.21 49.6285 116.114 49.8899C116.017 50.1513 115.969 50.4334 115.969 50.7361C115.969 51.0387 116.017 51.3198 116.114 51.5793C116.21 51.8387 116.358 52.048 116.559 52.2072C116.759 52.3665 117.015 52.4461 117.325 52.4461ZM120.44 52.9767V48.4482H121.112V49.1322H121.159C121.241 48.9081 121.391 48.7263 121.607 48.5868C121.823 48.4472 122.067 48.3774 122.338 48.3774C122.389 48.3774 122.453 48.3784 122.53 48.3804C122.607 48.3824 122.665 48.3853 122.704 48.3892V49.0968C122.68 49.0909 122.626 49.0821 122.542 49.0703C122.459 49.0565 122.372 49.0497 122.279 49.0497C122.059 49.0497 121.863 49.0958 121.69 49.1882C121.519 49.2786 121.383 49.4044 121.283 49.5656C121.184 49.7248 121.135 49.9066 121.135 50.111V52.9767H120.44ZM127.833 48.4482V49.0379H125.486V48.4482H127.833ZM126.17 47.3632H126.866V51.6795C126.866 51.8761 126.895 52.0235 126.952 52.1217C127.011 52.2181 127.085 52.2829 127.176 52.3163C127.268 52.3478 127.365 52.3635 127.468 52.3635C127.544 52.3635 127.607 52.3596 127.656 52.3517C127.705 52.3419 127.745 52.334 127.774 52.3281L127.916 52.9532C127.868 52.9708 127.803 52.9885 127.718 53.0062C127.634 53.0259 127.526 53.0357 127.397 53.0357C127.2 53.0357 127.008 52.9935 126.819 52.9089C126.632 52.8244 126.477 52.6957 126.353 52.5227C126.231 52.3497 126.17 52.1316 126.17 51.8682V47.3632ZM129.673 50.2525V52.9767H128.977V46.9387H129.673V49.1558H129.732C129.838 48.9219 129.997 48.7362 130.209 48.5986C130.424 48.459 130.709 48.3892 131.064 48.3892C131.373 48.3892 131.643 48.4512 131.875 48.575C132.107 48.6968 132.287 48.8845 132.415 49.1381C132.544 49.3897 132.609 49.7101 132.609 50.0992V52.9767H131.913V50.1464C131.913 49.7867 131.82 49.5086 131.633 49.312C131.449 49.1135 131.192 49.0143 130.864 49.0143C130.636 49.0143 130.432 49.0624 130.251 49.1587C130.072 49.255 129.93 49.3956 129.826 49.5803C129.724 49.7651 129.673 49.9892 129.673 50.2525ZM135.781 53.0711C135.345 53.0711 134.968 52.9748 134.652 52.7822C134.337 52.5876 134.094 52.3163 133.923 51.9684C133.754 51.6186 133.67 51.2117 133.67 50.7479C133.67 50.284 133.754 49.8752 133.923 49.5214C134.094 49.1656 134.332 48.8885 134.637 48.69C134.944 48.4895 135.301 48.3892 135.71 48.3892C135.946 48.3892 136.179 48.4285 136.409 48.5072C136.639 48.5858 136.848 48.7135 137.037 48.8904C137.226 49.0654 137.376 49.2973 137.488 49.5862C137.6 49.8752 137.656 50.2309 137.656 50.6535V50.9483H134.165V50.3469H136.948C136.948 50.0914 136.897 49.8634 136.795 49.6629C136.695 49.4624 136.551 49.3042 136.365 49.1882C136.18 49.0723 135.962 49.0143 135.71 49.0143C135.433 49.0143 135.193 49.0831 134.991 49.2207C134.79 49.3563 134.636 49.5332 134.528 49.7513C134.42 49.9695 134.366 50.2034 134.366 50.453V50.854C134.366 51.196 134.425 51.4859 134.543 51.7237C134.663 51.9596 134.829 52.1394 135.041 52.2633C135.253 52.3851 135.5 52.4461 135.781 52.4461C135.964 52.4461 136.129 52.4205 136.276 52.3694C136.426 52.3163 136.554 52.2377 136.662 52.1335C136.771 52.0274 136.854 51.8957 136.913 51.7385L137.585 51.9272C137.514 52.1552 137.396 52.3556 137.228 52.5286C137.061 52.6996 136.855 52.8333 136.609 52.9296C136.364 53.0239 136.088 53.0711 135.781 53.0711ZM143.903 51.1252V48.4482H144.599V52.9767H143.903V52.2102H143.856C143.75 52.4402 143.585 52.6357 143.361 52.7969C143.137 52.9561 142.854 53.0357 142.512 53.0357C142.229 53.0357 141.977 52.9738 141.757 52.85C141.537 52.7242 141.364 52.5355 141.238 52.2839C141.112 52.0304 141.049 51.711 141.049 51.3257V48.4482H141.745V51.2785C141.745 51.6087 141.838 51.8721 142.022 52.0687C142.209 52.2652 142.447 52.3635 142.736 52.3635C142.909 52.3635 143.085 52.3193 143.264 52.2308C143.444 52.1424 143.596 52.0068 143.718 51.824C143.841 51.6412 143.903 51.4083 143.903 51.1252ZM149.081 49.4624L148.456 49.6393C148.417 49.5351 148.359 49.4339 148.282 49.3356C148.208 49.2354 148.105 49.1528 147.976 49.088C147.846 49.0231 147.68 48.9907 147.477 48.9907C147.2 48.9907 146.969 49.0546 146.785 49.1823C146.602 49.3081 146.51 49.4683 146.51 49.6629C146.51 49.8359 146.573 49.9725 146.699 50.0727C146.825 50.1729 147.021 50.2565 147.289 50.3233L147.961 50.4884C148.366 50.5867 148.668 50.737 148.866 50.9395C149.065 51.14 149.164 51.3984 149.164 51.7149C149.164 51.9743 149.089 52.2063 148.94 52.4107C148.792 52.6151 148.586 52.7763 148.321 52.8942C148.055 53.0121 147.747 53.0711 147.395 53.0711C146.933 53.0711 146.551 52.9708 146.248 52.7704C145.945 52.5699 145.754 52.277 145.673 51.8918L146.333 51.7267C146.396 51.9704 146.515 52.1532 146.69 52.2751C146.867 52.3969 147.098 52.4579 147.383 52.4579C147.707 52.4579 147.965 52.3891 148.156 52.2515C148.348 52.1119 148.444 51.9449 148.444 51.7503C148.444 51.593 148.389 51.4613 148.279 51.3552C148.169 51.2471 148 51.1665 147.772 51.1134L147.017 50.9365C146.603 50.8383 146.298 50.6859 146.104 50.4796C145.911 50.2712 145.815 50.0108 145.815 49.6983C145.815 49.4428 145.886 49.2167 146.03 49.0202C146.175 48.8236 146.373 48.6693 146.622 48.5573C146.874 48.4453 147.159 48.3892 147.477 48.3892C147.926 48.3892 148.277 48.4875 148.533 48.6841C148.79 48.8806 148.973 49.1401 149.081 49.4624ZM152.11 53.0711C151.674 53.0711 151.297 52.9748 150.981 52.7822C150.666 52.5876 150.423 52.3163 150.252 51.9684C150.083 51.6186 149.999 51.2117 149.999 50.7479C149.999 50.284 150.083 49.8752 150.252 49.5214C150.423 49.1656 150.661 48.8885 150.966 48.69C151.273 48.4895 151.63 48.3892 152.039 48.3892C152.275 48.3892 152.508 48.4285 152.738 48.5072C152.968 48.5858 153.177 48.7135 153.366 48.8904C153.555 49.0654 153.705 49.2973 153.817 49.5862C153.929 49.8752 153.985 50.2309 153.985 50.6535V50.9483H150.494V50.3469H153.277C153.277 50.0914 153.226 49.8634 153.124 49.6629C153.024 49.4624 152.88 49.3042 152.694 49.1882C152.509 49.0723 152.291 49.0143 152.039 49.0143C151.762 49.0143 151.522 49.0831 151.32 49.2207C151.119 49.3563 150.965 49.5332 150.857 49.7513C150.749 49.9695 150.695 50.2034 150.695 50.453V50.854C150.695 51.196 150.754 51.4859 150.872 51.7237C150.992 51.9596 151.158 52.1394 151.37 52.2633C151.582 52.3851 151.829 52.4461 152.11 52.4461C152.293 52.4461 152.458 52.4205 152.605 52.3694C152.755 52.3163 152.883 52.2377 152.991 52.1335C153.1 52.0274 153.183 51.8957 153.242 51.7385L153.914 51.9272C153.843 52.1552 153.725 52.3556 153.557 52.5286C153.39 52.6996 153.184 52.8333 152.938 52.9296C152.693 53.0239 152.417 53.0711 152.11 53.0711ZM155.043 52.9767V48.4482H155.716V49.1322H155.763C155.845 48.9081 155.995 48.7263 156.211 48.5868C156.427 48.4472 156.671 48.3774 156.942 48.3774C156.993 48.3774 157.057 48.3784 157.134 48.3804C157.21 48.3824 157.268 48.3853 157.308 48.3892V49.0968C157.284 49.0909 157.23 49.0821 157.146 49.0703C157.063 49.0565 156.975 49.0497 156.883 49.0497C156.663 49.0497 156.466 49.0958 156.293 49.1882C156.122 49.2786 155.987 49.4044 155.887 49.5656C155.788 49.7248 155.739 49.9066 155.739 50.111V52.9767H155.043ZM162.437 48.4482V49.0379H160.09V48.4482H162.437ZM160.774 47.3632H161.47V51.6795C161.47 51.8761 161.498 52.0235 161.555 52.1217C161.614 52.2181 161.689 52.2829 161.779 52.3163C161.872 52.3478 161.969 52.3635 162.071 52.3635C162.148 52.3635 162.211 52.3596 162.26 52.3517C162.309 52.3419 162.348 52.334 162.378 52.3281L162.519 52.9532C162.472 52.9708 162.406 52.9885 162.322 53.0062C162.237 53.0259 162.13 53.0357 162.001 53.0357C161.804 53.0357 161.611 52.9935 161.423 52.9089C161.236 52.8244 161.081 52.6957 160.957 52.5227C160.835 52.3497 160.774 52.1316 160.774 51.8682V47.3632ZM165.275 53.0711C164.866 53.0711 164.507 52.9738 164.199 52.7792C163.892 52.5846 163.652 52.3124 163.479 51.9625C163.308 51.6127 163.223 51.2039 163.223 50.7361C163.223 50.2643 163.308 49.8526 163.479 49.5007C163.652 49.1489 163.892 48.8757 164.199 48.6811C164.507 48.4865 164.866 48.3892 165.275 48.3892C165.683 48.3892 166.041 48.4865 166.348 48.6811C166.656 48.8757 166.896 49.1489 167.067 49.5007C167.24 49.8526 167.327 50.2643 167.327 50.7361C167.327 51.2039 167.24 51.6127 167.067 51.9625C166.896 52.3124 166.656 52.5846 166.348 52.7792C166.041 52.9738 165.683 53.0711 165.275 53.0711ZM165.275 52.4461C165.585 52.4461 165.841 52.3665 166.041 52.2072C166.242 52.048 166.39 51.8387 166.486 51.5793C166.583 51.3198 166.631 51.0387 166.631 50.7361C166.631 50.4334 166.583 50.1513 166.486 49.8899C166.39 49.6285 166.242 49.4172 166.041 49.256C165.841 49.0949 165.585 49.0143 165.275 49.0143C164.964 49.0143 164.709 49.0949 164.508 49.256C164.308 49.4172 164.159 49.6285 164.063 49.8899C163.967 50.1513 163.918 50.4334 163.918 50.7361C163.918 51.0387 163.967 51.3198 164.063 51.5793C164.159 51.8387 164.308 52.048 164.508 52.2072C164.709 52.3665 164.964 52.4461 165.275 52.4461ZM172.563 53.0711C172.139 53.0711 171.773 52.9708 171.467 52.7704C171.16 52.5699 170.924 52.2937 170.759 51.9419C170.594 51.5901 170.511 51.1881 170.511 50.7361C170.511 50.2761 170.596 49.8703 170.765 49.5184C170.936 49.1646 171.174 48.8885 171.479 48.69C171.785 48.4895 172.143 48.3892 172.552 48.3892C172.87 48.3892 173.157 48.4482 173.413 48.5661C173.668 48.6841 173.877 48.8492 174.041 49.0614C174.204 49.2737 174.305 49.5214 174.344 49.8044H173.648C173.595 49.598 173.477 49.4152 173.295 49.256C173.114 49.0949 172.87 49.0143 172.563 49.0143C172.292 49.0143 172.054 49.085 171.85 49.2265C171.648 49.3661 171.489 49.5636 171.375 49.8191C171.263 50.0727 171.207 50.3705 171.207 50.7125C171.207 51.0623 171.262 51.367 171.372 51.6264C171.484 51.8859 171.642 52.0874 171.844 52.2308C172.049 52.3743 172.288 52.4461 172.563 52.4461C172.744 52.4461 172.908 52.4146 173.056 52.3517C173.203 52.2888 173.328 52.1984 173.43 52.0805C173.532 51.9625 173.605 51.821 173.648 51.6559H174.344C174.305 51.9232 174.208 52.164 174.052 52.3782C173.899 52.5905 173.696 52.7596 173.442 52.8853C173.19 53.0092 172.898 53.0711 172.563 53.0711ZM177.201 53.0711C176.792 53.0711 176.434 52.9738 176.125 52.7792C175.818 52.5846 175.579 52.3124 175.406 51.9625C175.235 51.6127 175.149 51.2039 175.149 50.7361C175.149 50.2643 175.235 49.8526 175.406 49.5007C175.579 49.1489 175.818 48.8757 176.125 48.6811C176.434 48.4865 176.792 48.3892 177.201 48.3892C177.61 48.3892 177.968 48.4865 178.274 48.6811C178.583 48.8757 178.823 49.1489 178.994 49.5007C179.167 49.8526 179.253 50.2643 179.253 50.7361C179.253 51.2039 179.167 51.6127 178.994 51.9625C178.823 52.3124 178.583 52.5846 178.274 52.7792C177.968 52.9738 177.61 53.0711 177.201 53.0711ZM177.201 52.4461C177.512 52.4461 177.767 52.3665 177.968 52.2072C178.168 52.048 178.317 51.8387 178.413 51.5793C178.509 51.3198 178.557 51.0387 178.557 50.7361C178.557 50.4334 178.509 50.1513 178.413 49.8899C178.317 49.6285 178.168 49.4172 177.968 49.256C177.767 49.0949 177.512 49.0143 177.201 49.0143C176.891 49.0143 176.635 49.0949 176.435 49.256C176.234 49.4172 176.086 49.6285 175.989 49.8899C175.893 50.1513 175.845 50.4334 175.845 50.7361C175.845 51.0387 175.893 51.3198 175.989 51.5793C176.086 51.8387 176.234 52.048 176.435 52.2072C176.635 52.3665 176.891 52.4461 177.201 52.4461ZM181.011 50.2525V52.9767H180.315V48.4482H180.987V49.1558H181.046C181.153 48.9258 181.314 48.7411 181.53 48.6015C181.746 48.46 182.025 48.3892 182.367 48.3892C182.674 48.3892 182.942 48.4521 183.172 48.5779C183.402 48.7018 183.581 48.8904 183.709 49.144C183.836 49.3956 183.9 49.714 183.9 50.0992V52.9767H183.205V50.1464C183.205 49.7906 183.112 49.5135 182.927 49.315C182.743 49.1145 182.489 49.0143 182.167 49.0143C181.945 49.0143 181.746 49.0624 181.571 49.1587C181.398 49.255 181.262 49.3956 181.161 49.5803C181.061 49.7651 181.011 49.9892 181.011 50.2525ZM187.188 48.4482V49.0379H184.747V48.4482H187.188ZM185.478 52.9767V47.8232C185.478 47.5637 185.539 47.3475 185.661 47.1746C185.783 47.0016 185.941 46.8719 186.136 46.7854C186.33 46.6989 186.536 46.6557 186.752 46.6557C186.923 46.6557 187.063 46.6694 187.171 46.6969C187.279 46.7244 187.359 46.75 187.412 46.7736L187.212 47.375C187.177 47.3632 187.127 47.3485 187.065 47.3308C187.004 47.3131 186.923 47.3043 186.823 47.3043C186.593 47.3043 186.427 47.3623 186.325 47.4782C186.224 47.5942 186.174 47.7642 186.174 47.9883V52.9767H185.478ZM188.164 52.9767V48.4482H188.859V52.9767H188.164ZM188.517 47.6934C188.382 47.6934 188.265 47.6473 188.166 47.5549C188.07 47.4625 188.022 47.3514 188.022 47.2217C188.022 47.092 188.07 46.9809 188.166 46.8886C188.265 46.7962 188.382 46.75 188.517 46.75C188.653 46.75 188.769 46.7962 188.865 46.8886C188.963 46.9809 189.013 47.092 189.013 47.2217C189.013 47.3514 188.963 47.4625 188.865 47.5549C188.769 47.6473 188.653 47.6934 188.517 47.6934ZM190.134 52.9767V48.4482H190.806V49.1322H190.853C190.936 48.9081 191.085 48.7263 191.301 48.5868C191.517 48.4472 191.761 48.3774 192.032 48.3774C192.083 48.3774 192.147 48.3784 192.224 48.3804C192.301 48.3824 192.359 48.3853 192.398 48.3892V49.0968C192.374 49.0909 192.32 49.0821 192.236 49.0703C192.153 49.0565 192.066 49.0497 191.973 49.0497C191.753 49.0497 191.557 49.0958 191.384 49.1882C191.213 49.2786 191.077 49.4044 190.977 49.5656C190.879 49.7248 190.829 49.9066 190.829 50.111V52.9767H190.134ZM193.223 52.9767V48.4482H193.895V49.1558H193.954C194.048 48.914 194.201 48.7263 194.411 48.5927C194.621 48.457 194.874 48.3892 195.169 48.3892C195.467 48.3892 195.716 48.457 195.915 48.5927C196.115 48.7263 196.271 48.914 196.383 49.1558H196.43C196.546 48.9219 196.72 48.7362 196.952 48.5986C197.184 48.459 197.462 48.3892 197.787 48.3892C198.192 48.3892 198.523 48.516 198.78 48.7696C199.038 49.0212 199.166 49.4133 199.166 49.9459V52.9767H198.471V49.9459C198.471 49.6118 198.379 49.373 198.196 49.2295C198.014 49.086 197.798 49.0143 197.551 49.0143C197.232 49.0143 196.986 49.1106 196.811 49.3032C196.636 49.4939 196.548 49.7356 196.548 50.0285V52.9767H195.841V49.8752C195.841 49.6177 195.757 49.4103 195.59 49.2531C195.423 49.0939 195.208 49.0143 194.945 49.0143C194.764 49.0143 194.595 49.0624 194.437 49.1587C194.282 49.255 194.156 49.3887 194.06 49.5597C193.966 49.7287 193.919 49.9243 193.919 50.1464V52.9767H193.223ZM24.0946 58.4482V59.0379H21.7477V58.4482H24.0946ZM22.4317 57.3632H23.1275V61.6795C23.1275 61.8761 23.156 62.0235 23.213 62.1217C23.272 62.2181 23.3467 62.2829 23.4371 62.3163C23.5295 62.3478 23.6268 62.3635 23.729 62.3635C23.8056 62.3635 23.8685 62.3596 23.9177 62.3517C23.9668 62.3419 24.0061 62.334 24.0356 62.3281L24.1771 62.9532C24.1299 62.9708 24.0641 62.9885 23.9796 63.0062C23.8951 63.0259 23.7879 63.0357 23.6582 63.0357C23.4617 63.0357 23.269 62.9935 23.0803 62.9089C22.8936 62.8244 22.7383 62.6957 22.6145 62.5227C22.4927 62.3497 22.4317 62.1316 22.4317 61.8682V57.3632ZM25.9343 60.2525V62.9767H25.2385V56.9387H25.9343V59.1558H25.9932C26.0994 58.9219 26.2586 58.7362 26.4709 58.5986C26.6851 58.459 26.9701 58.3892 27.3259 58.3892C27.6344 58.3892 27.9047 58.4512 28.1366 58.575C28.3686 58.6968 28.5484 58.8845 28.6762 59.1381C28.8059 59.3897 28.8707 59.7101 28.8707 60.0992V62.9767H28.175V60.1464C28.175 59.7867 28.0816 59.5086 27.8949 59.312C27.7101 59.1135 27.4536 59.0143 27.1254 59.0143C26.8974 59.0143 26.693 59.0624 26.5121 59.1587C26.3333 59.255 26.1918 59.3956 26.0876 59.5803C25.9854 59.7651 25.9343 59.9892 25.9343 60.2525ZM31.4763 63.0829C31.1893 63.0829 30.9289 63.0288 30.695 62.9207C30.4611 62.8107 30.2754 62.6524 30.1378 62.4461C30.0002 62.2377 29.9314 61.9861 29.9314 61.6913C29.9314 61.4319 29.9825 61.2215 30.0847 61.0604C30.1869 60.8972 30.3235 60.7695 30.4945 60.6771C30.6655 60.5847 30.8542 60.5159 31.0606 60.4707C31.2689 60.4235 31.4782 60.3862 31.6886 60.3587C31.9637 60.3233 32.1868 60.2968 32.3578 60.2791C32.5308 60.2594 32.6566 60.227 32.7352 60.1818C32.8158 60.1366 32.8561 60.058 32.8561 59.9459V59.9223C32.8561 59.6314 32.7765 59.4054 32.6173 59.2442C32.46 59.0831 32.2212 59.0025 31.9008 59.0025C31.5687 59.0025 31.3082 59.0752 31.1195 59.2207C30.9309 59.3661 30.7982 59.5214 30.7215 59.6865L30.0611 59.4506C30.179 59.1754 30.3363 58.9612 30.5328 58.8079C30.7314 58.6526 30.9476 58.5445 31.1815 58.4836C31.4173 58.4207 31.6492 58.3892 31.8772 58.3892C32.0227 58.3892 32.1898 58.4069 32.3785 58.4423C32.5691 58.4757 32.7529 58.5455 32.9298 58.6516C33.1086 58.7578 33.257 58.918 33.375 59.1322C33.4929 59.3464 33.5519 59.6334 33.5519 59.9931V62.9767H32.8561V62.3635H32.8207C32.7735 62.4618 32.6949 62.5669 32.5848 62.679C32.4748 62.791 32.3283 62.8863 32.1455 62.965C31.9627 63.0436 31.7397 63.0829 31.4763 63.0829ZM31.5824 62.4579C31.8576 62.4579 32.0895 62.4038 32.2782 62.2957C32.4689 62.1876 32.6123 62.048 32.7087 61.877C32.8069 61.706 32.8561 61.5262 32.8561 61.3375V60.7007C32.8266 60.7361 32.7617 60.7685 32.6615 60.798C32.5632 60.8255 32.4492 60.8501 32.3195 60.8717C32.1917 60.8913 32.0669 60.909 31.9451 60.9248C31.8252 60.9385 31.7279 60.9503 31.6532 60.9601C31.4723 60.9837 31.3033 61.022 31.1461 61.0751C30.9908 61.1262 30.865 61.2039 30.7687 61.308C30.6744 61.4102 30.6272 61.5498 30.6272 61.7267C30.6272 61.9684 30.7166 62.1512 30.8955 62.2751C31.0763 62.3969 31.3053 62.4579 31.5824 62.4579ZM36.7913 58.4482V59.0379H34.4445V58.4482H36.7913ZM35.1284 57.3632H35.8242V61.6795C35.8242 61.8761 35.8527 62.0235 35.9097 62.1217C35.9687 62.2181 36.0434 62.2829 36.1338 62.3163C36.2262 62.3478 36.3235 62.3635 36.4257 62.3635C36.5023 62.3635 36.5652 62.3596 36.6144 62.3517C36.6635 62.3419 36.7028 62.334 36.7323 62.3281L36.8738 62.9532C36.8267 62.9708 36.7608 62.9885 36.6763 63.0062C36.5918 63.0259 36.4847 63.0357 36.3549 63.0357C36.1584 63.0357 35.9658 62.9935 35.7771 62.9089C35.5903 62.8244 35.4351 62.6957 35.3112 62.5227C35.1894 62.3497 35.1284 62.1316 35.1284 61.8682V57.3632ZM42.1424 58.4482V59.0379H39.7956V58.4482H42.1424ZM40.4796 57.3632H41.1753V61.6795C41.1753 61.8761 41.2038 62.0235 41.2608 62.1217C41.3198 62.2181 41.3945 62.2829 41.4849 62.3163C41.5773 62.3478 41.6746 62.3635 41.7768 62.3635C41.8535 62.3635 41.9163 62.3596 41.9655 62.3517C42.0146 62.3419 42.0539 62.334 42.0834 62.3281L42.2249 62.9532C42.1778 62.9708 42.1119 62.9885 42.0274 63.0062C41.9429 63.0259 41.8358 63.0357 41.706 63.0357C41.5095 63.0357 41.3169 62.9935 41.1282 62.9089C40.9415 62.8244 40.7862 62.6957 40.6624 62.5227C40.5405 62.3497 40.4796 62.1316 40.4796 61.8682V57.3632ZM43.9821 60.2525V62.9767H43.2863V56.9387H43.9821V59.1558H44.0411C44.1472 58.9219 44.3064 58.7362 44.5187 58.5986C44.7329 58.459 45.0179 58.3892 45.3737 58.3892C45.6823 58.3892 45.9525 58.4512 46.1845 58.575C46.4164 58.6968 46.5962 58.8845 46.724 59.1381C46.8537 59.3897 46.9186 59.7101 46.9186 60.0992V62.9767H46.2228V60.1464C46.2228 59.7867 46.1294 59.5086 45.9427 59.312C45.7579 59.1135 45.5014 59.0143 45.1732 59.0143C44.9452 59.0143 44.7408 59.0624 44.56 59.1587C44.3811 59.255 44.2396 59.3956 44.1354 59.5803C44.0332 59.7651 43.9821 59.9892 43.9821 60.2525ZM50.0902 63.0711C49.6538 63.0711 49.2774 62.9748 48.961 62.7822C48.6465 62.5876 48.4038 62.3163 48.2328 61.9684C48.0637 61.6186 47.9792 61.2117 47.9792 60.7479C47.9792 60.284 48.0637 59.8752 48.2328 59.5214C48.4038 59.1656 48.6416 58.8885 48.9462 58.69C49.2529 58.4895 49.6106 58.3892 50.0194 58.3892C50.2553 58.3892 50.4882 58.4285 50.7182 58.5072C50.9481 58.5858 51.1575 58.7135 51.3461 58.8904C51.5348 59.0654 51.6852 59.2973 51.7972 59.5862C51.9093 59.8752 51.9653 60.2309 51.9653 60.6535V60.9483H48.4745V60.3469H51.2577C51.2577 60.0914 51.2066 59.8634 51.1044 59.6629C51.0041 59.4624 50.8607 59.3042 50.6739 59.1882C50.4892 59.0723 50.271 59.0143 50.0194 59.0143C49.7423 59.0143 49.5025 59.0831 49.3 59.2207C49.0996 59.3563 48.9453 59.5332 48.8372 59.7513C48.7291 59.9695 48.675 60.2034 48.675 60.453V60.854C48.675 61.196 48.734 61.4859 48.8519 61.7237C48.9718 61.9596 49.1379 62.1394 49.3502 62.2633C49.5624 62.3851 49.8091 62.4461 50.0902 62.4461C50.273 62.4461 50.4381 62.4205 50.5855 62.3694C50.7349 62.3163 50.8636 62.2377 50.9717 62.1335C51.0798 62.0274 51.1633 61.8957 51.2223 61.7385L51.8945 61.9272C51.8238 62.1552 51.7048 62.3556 51.5378 62.5286C51.3707 62.6996 51.1643 62.8333 50.9186 62.9296C50.673 63.0239 50.3968 63.0711 50.0902 63.0711ZM53.334 64.6749C53.2161 64.6749 53.1109 64.6651 53.0185 64.6455C52.9262 64.6278 52.8623 64.6101 52.8269 64.5924L53.0038 63.9792C53.1728 64.0224 53.3222 64.0381 53.4519 64.0263C53.5817 64.0145 53.6966 63.9566 53.7969 63.8524C53.8991 63.7502 53.9925 63.5841 54.077 63.3541L54.2067 63.0003L52.5321 58.4482H53.2868L54.5369 62.0569H54.5841L55.8341 58.4482H56.5889L54.6666 63.6372C54.5801 63.8711 54.473 64.0647 54.3453 64.218C54.2175 64.3732 54.0691 64.4882 53.9001 64.5629C53.733 64.6376 53.5443 64.6749 53.334 64.6749ZM60.8683 62.9767L59.4885 58.4482H60.2197L61.1985 61.9154H61.2457L62.2127 58.4482H62.9557L63.9109 61.9036H63.9581L64.9369 58.4482H65.6681L64.2883 62.9767H63.6043L62.6137 59.4978H62.5429L61.5523 62.9767H60.8683ZM67.9206 63.0829C67.6336 63.0829 67.3732 63.0288 67.1393 62.9207C66.9054 62.8107 66.7196 62.6524 66.5821 62.4461C66.4445 62.2377 66.3757 61.9861 66.3757 61.6913C66.3757 61.4319 66.4268 61.2215 66.529 61.0604C66.6312 60.8972 66.7678 60.7695 66.9388 60.6771C67.1098 60.5847 67.2985 60.5159 67.5049 60.4707C67.7132 60.4235 67.9225 60.3862 68.1328 60.3587C68.408 60.3233 68.6311 60.2968 68.8021 60.2791C68.9751 60.2594 69.1009 60.227 69.1795 60.1818C69.2601 60.1366 69.3004 60.058 69.3004 59.9459V59.9223C69.3004 59.6314 69.2208 59.4054 69.0616 59.2442C68.9043 59.0831 68.6655 59.0025 68.3451 59.0025C68.013 59.0025 67.7525 59.0752 67.5638 59.2207C67.3751 59.3661 67.2425 59.5214 67.1658 59.6865L66.5054 59.4506C66.6233 59.1754 66.7806 58.9612 66.9771 58.8079C67.1756 58.6526 67.3919 58.5445 67.6257 58.4836C67.8616 58.4207 68.0935 58.3892 68.3215 58.3892C68.467 58.3892 68.6341 58.4069 68.8227 58.4423C69.0134 58.4757 69.1972 58.5455 69.3741 58.6516C69.5529 58.7578 69.7013 58.918 69.8193 59.1322C69.9372 59.3464 69.9962 59.6334 69.9962 59.9931V62.9767H69.3004V62.3635H69.265C69.2178 62.4618 69.1392 62.5669 69.0291 62.679C68.9191 62.791 68.7726 62.8863 68.5898 62.965C68.407 63.0436 68.184 63.0829 67.9206 63.0829ZM68.0267 62.4579C68.3019 62.4579 68.5338 62.4038 68.7225 62.2957C68.9132 62.1876 69.0566 62.048 69.153 61.877C69.2512 61.706 69.3004 61.5262 69.3004 61.3375V60.7007C69.2709 60.7361 69.206 60.7685 69.1058 60.798C69.0075 60.8255 68.8935 60.8501 68.7638 60.8717C68.636 60.8913 68.5112 60.909 68.3893 60.9248C68.2695 60.9385 68.1722 60.9503 68.0975 60.9601C67.9166 60.9837 67.7476 61.022 67.5904 61.0751C67.4351 61.1262 67.3093 61.2039 67.213 61.308C67.1186 61.4102 67.0715 61.5498 67.0715 61.7267C67.0715 61.9684 67.1609 62.1512 67.3398 62.2751C67.5206 62.3969 67.7496 62.4579 68.0267 62.4579ZM71.9619 60.2525V62.9767H71.2661V58.4482H71.9383V59.1558H71.9973C72.1034 58.9258 72.2646 58.7411 72.4808 58.6015C72.697 58.46 72.9761 58.3892 73.3181 58.3892C73.6247 58.3892 73.893 58.4521 74.123 58.5779C74.353 58.7018 74.5318 58.8904 74.6596 59.144C74.7873 59.3956 74.8512 59.714 74.8512 60.0992V62.9767H74.1554V60.1464C74.1554 59.7906 74.063 59.5135 73.8783 59.315C73.6935 59.1145 73.44 59.0143 73.1176 59.0143C72.8955 59.0143 72.697 59.0624 72.5221 59.1587C72.3491 59.255 72.2125 59.3956 72.1123 59.5803C72.012 59.7651 71.9619 59.9892 71.9619 60.2525ZM78.0921 58.4482V59.0379H75.7453V58.4482H78.0921ZM76.4293 57.3632H77.1251V61.6795C77.1251 61.8761 77.1536 62.0235 77.2106 62.1217C77.2695 62.2181 77.3442 62.2829 77.4346 62.3163C77.527 62.3478 77.6243 62.3635 77.7265 62.3635C77.8032 62.3635 77.8661 62.3596 77.9152 62.3517C77.9643 62.3419 78.0037 62.334 78.0331 62.3281L78.1747 62.9532C78.1275 62.9708 78.0616 62.9885 77.9771 63.0062C77.8926 63.0259 77.7855 63.0357 77.6558 63.0357C77.4592 63.0357 77.2666 62.9935 77.0779 62.9089C76.8912 62.8244 76.7359 62.6957 76.6121 62.5227C76.4902 62.3497 76.4293 62.1316 76.4293 61.8682V57.3632ZM83.4432 58.4482V59.0379H81.0964V58.4482H83.4432ZM81.7804 57.3632H82.4762V61.6795C82.4762 61.8761 82.5047 62.0235 82.5617 62.1217C82.6206 62.2181 82.6953 62.2829 82.7857 62.3163C82.8781 62.3478 82.9754 62.3635 83.0776 62.3635C83.1543 62.3635 83.2172 62.3596 83.2663 62.3517C83.3155 62.3419 83.3548 62.334 83.3842 62.3281L83.5258 62.9532C83.4786 62.9708 83.4127 62.9885 83.3282 63.0062C83.2437 63.0259 83.1366 63.0357 83.0069 63.0357C82.8103 63.0357 82.6177 62.9935 82.429 62.9089C82.2423 62.8244 82.087 62.6957 81.9632 62.5227C81.8413 62.3497 81.7804 62.1316 81.7804 61.8682V57.3632ZM86.2809 63.0711C85.8721 63.0711 85.5134 62.9738 85.2048 62.7792C84.8982 62.5846 84.6584 62.3124 84.4854 61.9625C84.3144 61.6127 84.2289 61.2039 84.2289 60.7361C84.2289 60.2643 84.3144 59.8526 84.4854 59.5007C84.6584 59.1489 84.8982 58.8757 85.2048 58.6811C85.5134 58.4865 85.8721 58.3892 86.2809 58.3892C86.6897 58.3892 87.0475 58.4865 87.3541 58.6811C87.6627 58.8757 87.9025 59.1489 88.0735 59.5007C88.2464 59.8526 88.3329 60.2643 88.3329 60.7361C88.3329 61.2039 88.2464 61.6127 88.0735 61.9625C87.9025 62.3124 87.6627 62.5846 87.3541 62.7792C87.0475 62.9738 86.6897 63.0711 86.2809 63.0711ZM86.2809 62.4461C86.5915 62.4461 86.847 62.3665 87.0475 62.2072C87.248 62.048 87.3963 61.8387 87.4927 61.5793C87.589 61.3198 87.6371 61.0387 87.6371 60.7361C87.6371 60.4334 87.589 60.1513 87.4927 59.8899C87.3963 59.6285 87.248 59.4172 87.0475 59.256C86.847 59.0949 86.5915 59.0143 86.2809 59.0143C85.9704 59.0143 85.7149 59.0949 85.5144 59.256C85.3139 59.4172 85.1655 59.6285 85.0692 59.8899C84.9729 60.1513 84.9247 60.4334 84.9247 60.7361C84.9247 61.0387 84.9729 61.3198 85.0692 61.5793C85.1655 61.8387 85.3139 62.048 85.5144 62.2072C85.7149 62.3665 85.9704 62.4461 86.2809 62.4461ZM93.4401 63.0711C93.0627 63.0711 92.7295 62.9758 92.4406 62.7851C92.1517 62.5925 91.9256 62.3212 91.7625 61.9714C91.5994 61.6196 91.5178 61.2039 91.5178 60.7243C91.5178 60.2486 91.5994 59.8359 91.7625 59.486C91.9256 59.1361 92.1526 58.8659 92.4435 58.6752C92.7344 58.4846 93.0705 58.3892 93.4518 58.3892C93.7467 58.3892 93.9796 58.4384 94.1506 58.5367C94.3236 58.633 94.4552 58.743 94.5457 58.8669C94.638 58.9887 94.7098 59.089 94.7609 59.1676H94.8198V56.9387H95.5156V62.9767H94.8434V62.281H94.7609C94.7098 62.3635 94.6371 62.4677 94.5427 62.5935C94.4484 62.7173 94.3137 62.8283 94.1388 62.9266C93.9639 63.0229 93.7309 63.0711 93.4401 63.0711ZM93.5344 62.4461C93.8135 62.4461 94.0494 62.3733 94.242 62.2279C94.4346 62.0805 94.581 61.877 94.6813 61.6176C94.7815 61.3562 94.8316 61.0545 94.8316 60.7125C94.8316 60.3744 94.7825 60.0786 94.6842 59.825C94.5859 59.5695 94.4405 59.371 94.2479 59.2295C94.0553 59.086 93.8174 59.0143 93.5344 59.0143C93.2396 59.0143 92.9939 59.0899 92.7973 59.2413C92.6027 59.3907 92.4563 59.5941 92.358 59.8516C92.2617 60.1071 92.2136 60.3941 92.2136 60.7125C92.2136 61.0348 92.2627 61.3277 92.361 61.5911C92.4612 61.8525 92.6086 62.0608 92.8032 62.2161C92.9998 62.3694 93.2435 62.4461 93.5344 62.4461ZM98.7263 63.0711C98.3175 63.0711 97.9588 62.9738 97.6502 62.7792C97.3436 62.5846 97.1038 62.3124 96.9308 61.9625C96.7598 61.6127 96.6743 61.2039 96.6743 60.7361C96.6743 60.2643 96.7598 59.8526 96.9308 59.5007C97.1038 59.1489 97.3436 58.8757 97.6502 58.6811C97.9588 58.4865 98.3175 58.3892 98.7263 58.3892C99.1351 58.3892 99.4929 58.4865 99.7995 58.6811C100.108 58.8757 100.348 59.1489 100.519 59.5007C100.692 59.8526 100.778 60.2643 100.778 60.7361C100.778 61.2039 100.692 61.6127 100.519 61.9625C100.348 62.3124 100.108 62.5846 99.7995 62.7792C99.4929 62.9738 99.1351 63.0711 98.7263 63.0711ZM98.7263 62.4461C99.0369 62.4461 99.2924 62.3665 99.4929 62.2072C99.6933 62.048 99.8417 61.8387 99.938 61.5793C100.034 61.3198 100.083 61.0387 100.083 60.7361C100.083 60.4334 100.034 60.1513 99.938 59.8899C99.8417 59.6285 99.6933 59.4172 99.4929 59.256C99.2924 59.0949 99.0369 59.0143 98.7263 59.0143C98.4158 59.0143 98.1602 59.0949 97.9598 59.256C97.7593 59.4172 97.6109 59.6285 97.5146 59.8899C97.4183 60.1513 97.3701 60.4334 97.3701 60.7361C97.3701 61.0387 97.4183 61.3198 97.5146 61.5793C97.6109 61.8387 97.7593 62.048 97.9598 62.2072C98.1602 62.3665 98.4158 62.4461 98.7263 62.4461ZM106.145 58.4482V59.0379H103.798V58.4482H106.145ZM104.482 57.3632H105.178V61.6795C105.178 61.8761 105.206 62.0235 105.263 62.1217C105.322 62.2181 105.397 62.2829 105.487 62.3163C105.58 62.3478 105.677 62.3635 105.779 62.3635C105.856 62.3635 105.919 62.3596 105.968 62.3517C106.017 62.3419 106.056 62.334 106.086 62.3281L106.227 62.9532C106.18 62.9708 106.114 62.9885 106.03 63.0062C105.945 63.0259 105.838 63.0357 105.709 63.0357C105.512 63.0357 105.319 62.9935 105.131 62.9089C104.944 62.8244 104.789 62.6957 104.665 62.5227C104.543 62.3497 104.482 62.1316 104.482 61.8682V57.3632ZM107.985 60.2525V62.9767H107.289V56.9387H107.985V59.1558H108.044C108.15 58.9219 108.309 58.7362 108.521 58.5986C108.735 58.459 109.02 58.3892 109.376 58.3892C109.685 58.3892 109.955 58.4512 110.187 58.575C110.419 58.6968 110.599 58.8845 110.726 59.1381C110.856 59.3897 110.921 59.7101 110.921 60.0992V62.9767H110.225V60.1464C110.225 59.7867 110.132 59.5086 109.945 59.312C109.76 59.1135 109.504 59.0143 109.176 59.0143C108.948 59.0143 108.743 59.0624 108.562 59.1587C108.384 59.255 108.242 59.3956 108.138 59.5803C108.036 59.7651 107.985 59.9892 107.985 60.2525ZM114.093 63.0711C113.656 63.0711 113.28 62.9748 112.963 62.7822C112.649 62.5876 112.406 62.3163 112.235 61.9684C112.066 61.6186 111.982 61.2117 111.982 60.7479C111.982 60.284 112.066 59.8752 112.235 59.5214C112.406 59.1656 112.644 58.8885 112.949 58.69C113.255 58.4895 113.613 58.3892 114.022 58.3892C114.258 58.3892 114.491 58.4285 114.721 58.5072C114.951 58.5858 115.16 58.7135 115.349 58.8904C115.537 59.0654 115.688 59.2973 115.8 59.5862C115.912 59.8752 115.968 60.2309 115.968 60.6535V60.9483H112.477V60.3469H115.26C115.26 60.0914 115.209 59.8634 115.107 59.6629C115.007 59.4624 114.863 59.3042 114.676 59.1882C114.492 59.0723 114.274 59.0143 114.022 59.0143C113.745 59.0143 113.505 59.0831 113.303 59.2207C113.102 59.3563 112.948 59.5332 112.84 59.7513C112.732 59.9695 112.678 60.2034 112.678 60.453V60.854C112.678 61.196 112.736 61.4859 112.854 61.7237C112.974 61.9596 113.14 62.1394 113.353 62.2633C113.565 62.3851 113.812 62.4461 114.093 62.4461C114.275 62.4461 114.441 62.4205 114.588 62.3694C114.737 62.3163 114.866 62.2377 114.974 62.1335C115.082 62.0274 115.166 61.8957 115.225 61.7385L115.897 61.9272C115.826 62.1552 115.707 62.3556 115.54 62.5286C115.373 62.6996 115.167 62.8333 114.921 62.9296C114.675 63.0239 114.399 63.0711 114.093 63.0711ZM121.331 58.4482V59.0379H118.984V58.4482H121.331ZM119.668 57.3632H120.364V61.6795C120.364 61.8761 120.392 62.0235 120.449 62.1217C120.508 62.2181 120.583 62.2829 120.673 62.3163C120.766 62.3478 120.863 62.3635 120.965 62.3635C121.042 62.3635 121.105 62.3596 121.154 62.3517C121.203 62.3419 121.242 62.334 121.272 62.3281L121.413 62.9532C121.366 62.9708 121.3 62.9885 121.216 63.0062C121.131 63.0259 121.024 63.0357 120.894 63.0357C120.698 63.0357 120.505 62.9935 120.316 62.9089C120.13 62.8244 119.974 62.6957 119.851 62.5227C119.729 62.3497 119.668 62.1316 119.668 61.8682V57.3632ZM123.17 60.2525V62.9767H122.475V56.9387H123.17V59.1558H123.229C123.336 58.9219 123.495 58.7362 123.707 58.5986C123.921 58.459 124.206 58.3892 124.562 58.3892C124.871 58.3892 125.141 58.4512 125.373 58.575C125.605 58.6968 125.785 58.8845 125.912 59.1381C126.042 59.3897 126.107 59.7101 126.107 60.0992V62.9767H125.411V60.1464C125.411 59.7867 125.318 59.5086 125.131 59.312C124.946 59.1135 124.69 59.0143 124.362 59.0143C124.134 59.0143 123.929 59.0624 123.748 59.1587C123.569 59.255 123.428 59.3956 123.324 59.5803C123.222 59.7651 123.17 59.9892 123.17 60.2525ZM127.38 62.9767V58.4482H128.076V62.9767H127.38ZM127.734 57.6934C127.598 57.6934 127.481 57.6473 127.383 57.5549C127.286 57.4625 127.238 57.3514 127.238 57.2217C127.238 57.092 127.286 56.9809 127.383 56.8886C127.481 56.7962 127.598 56.75 127.734 56.75C127.869 56.75 127.985 56.7962 128.081 56.8886C128.18 56.9809 128.229 57.092 128.229 57.2217C128.229 57.3514 128.18 57.4625 128.081 57.5549C127.985 57.6473 127.869 57.6934 127.734 57.6934ZM130.046 60.2525V62.9767H129.35V58.4482H130.022V59.1558H130.081C130.187 58.9258 130.348 58.7411 130.565 58.6015C130.781 58.46 131.06 58.3892 131.402 58.3892C131.709 58.3892 131.977 58.4521 132.207 58.5779C132.437 58.7018 132.616 58.8904 132.743 59.144C132.871 59.3956 132.935 59.714 132.935 60.0992V62.9767H132.239V60.1464C132.239 59.7906 132.147 59.5135 131.962 59.315C131.777 59.1145 131.524 59.0143 131.201 59.0143C130.979 59.0143 130.781 59.0624 130.606 59.1587C130.433 59.255 130.296 59.3956 130.196 59.5803C130.096 59.7651 130.046 59.9892 130.046 60.2525ZM136.034 64.7693C135.698 64.7693 135.409 64.7261 135.168 64.6396C134.926 64.5551 134.724 64.443 134.563 64.3035C134.404 64.1659 134.277 64.0185 134.183 63.8612L134.737 63.4721C134.8 63.5546 134.88 63.649 134.976 63.7551C135.072 63.8632 135.204 63.9566 135.371 64.0352C135.54 64.1158 135.761 64.1561 136.034 64.1561C136.4 64.1561 136.702 64.0676 136.94 63.8907C137.177 63.7138 137.296 63.4367 137.296 63.0593V62.1394H137.237C137.186 62.222 137.114 62.3242 137.019 62.4461C136.927 62.566 136.793 62.6731 136.618 62.7674C136.445 62.8598 136.211 62.906 135.917 62.906C135.551 62.906 135.223 62.8195 134.932 62.6465C134.643 62.4736 134.414 62.222 134.245 61.8918C134.078 61.5616 133.994 61.1606 133.994 60.6889C133.994 60.225 134.076 59.8211 134.239 59.4771C134.402 59.1312 134.629 58.8639 134.92 58.6752C135.211 58.4846 135.547 58.3892 135.928 58.3892C136.223 58.3892 136.457 58.4384 136.63 58.5367C136.805 58.633 136.939 58.743 137.031 58.8669C137.125 58.9887 137.198 59.089 137.249 59.1676H137.32V58.4482H137.992V63.1065C137.992 63.4956 137.904 63.8121 137.727 64.0558C137.552 64.3015 137.316 64.4813 137.019 64.5953C136.724 64.7113 136.396 64.7693 136.034 64.7693ZM136.011 62.281C136.29 62.281 136.526 62.2171 136.718 62.0893C136.911 61.9616 137.057 61.7778 137.158 61.538C137.258 61.2982 137.308 61.0112 137.308 60.6771C137.308 60.3508 137.259 60.0629 137.161 59.8133C137.062 59.5636 136.917 59.3681 136.724 59.2265C136.532 59.085 136.294 59.0143 136.011 59.0143C135.716 59.0143 135.47 59.089 135.274 59.2383C135.079 59.3877 134.933 59.5882 134.834 59.8398C134.738 60.0914 134.69 60.3705 134.69 60.6771C134.69 60.9916 134.739 61.2697 134.837 61.5115C134.938 61.7512 135.085 61.9399 135.28 62.0775C135.476 62.2131 135.72 62.281 136.011 62.281ZM139.773 63.0239C139.627 63.0239 139.503 62.9718 139.398 62.8677C139.294 62.7635 139.242 62.6387 139.242 62.4932C139.242 62.3478 139.294 62.223 139.398 62.1188C139.503 62.0146 139.627 61.9625 139.773 61.9625C139.918 61.9625 140.043 62.0146 140.147 62.1188C140.251 62.223 140.304 62.3478 140.304 62.4932C140.304 62.5895 140.279 62.678 140.23 62.7586C140.183 62.8392 140.119 62.904 140.038 62.9532C139.96 63.0003 139.871 63.0239 139.773 63.0239Z" fill="#233D48"/>
<path d="M105 74.7616H142.488C144.945 74.7616 146.936 76.7529 146.936 79.2093V93.4419C146.936 95.8983 144.945 97.8895 142.488 97.8895H105C102.544 97.8895 100.552 95.8982 100.552 93.4419V79.2093C100.552 76.7529 102.544 74.7616 105 74.7616Z" fill="white"/>
<path d="M105 74.7616H142.488C144.945 74.7616 146.936 76.7529 146.936 79.2093V93.4419C146.936 95.8983 144.945 97.8895 142.488 97.8895H105C102.544 97.8895 100.552 95.8982 100.552 93.4419V79.2093C100.552 76.7529 102.544 74.7616 105 74.7616Z" stroke="#DADFE2" stroke-width="0.593023"/>
<path d="M115.571 84.8248H114.468C114.437 84.644 114.379 84.4838 114.294 84.3442C114.21 84.2027 114.105 84.0828 113.979 83.9845C113.853 83.8863 113.709 83.8126 113.548 83.7634C113.389 83.7123 113.217 83.6868 113.032 83.6868C112.704 83.6868 112.413 83.7693 112.16 83.9344C111.906 84.0976 111.708 84.3373 111.564 84.6538C111.421 84.9683 111.349 85.3525 111.349 85.8066C111.349 86.2685 111.421 86.6576 111.564 86.9741C111.71 87.2886 111.908 87.5264 112.16 87.6876C112.413 87.8468 112.703 87.9264 113.029 87.9264C113.21 87.9264 113.379 87.9028 113.536 87.8556C113.696 87.8065 113.838 87.7347 113.964 87.6404C114.092 87.546 114.199 87.4301 114.285 87.2925C114.374 87.1549 114.435 86.9977 114.468 86.8208L115.571 86.8267C115.53 87.1136 115.44 87.3829 115.303 87.6345C115.167 87.8861 114.989 88.1082 114.769 88.3008C114.549 88.4915 114.291 88.6408 113.996 88.7489C113.702 88.8551 113.374 88.9081 113.015 88.9081C112.484 88.9081 112.01 88.7853 111.594 88.5396C111.177 88.2939 110.849 87.9391 110.609 87.4753C110.369 87.0114 110.249 86.4552 110.249 85.8066C110.249 85.156 110.37 84.5997 110.612 84.1378C110.854 83.674 111.183 83.3192 111.599 83.0735C112.016 82.8278 112.488 82.705 113.015 82.705C113.351 82.705 113.663 82.7522 113.952 82.8465C114.241 82.9408 114.499 83.0794 114.725 83.2622C114.951 83.443 115.136 83.6651 115.282 83.9285C115.429 84.1899 115.526 84.4887 115.571 84.8248ZM117.828 88.917C117.541 88.917 117.283 88.8659 117.053 88.7637C116.825 88.6595 116.644 88.5062 116.511 88.3037C116.379 88.1013 116.313 87.8517 116.313 87.5549C116.313 87.2994 116.36 87.0881 116.455 86.921C116.549 86.7539 116.678 86.6203 116.841 86.52C117.004 86.4198 117.188 86.3441 117.392 86.293C117.598 86.24 117.812 86.2016 118.032 86.178C118.297 86.1505 118.512 86.126 118.678 86.1043C118.843 86.0808 118.963 86.0454 119.037 85.9982C119.114 85.9491 119.152 85.8734 119.152 85.7712V85.7535C119.152 85.5314 119.086 85.3594 118.955 85.2375C118.823 85.1157 118.633 85.0548 118.386 85.0548C118.124 85.0548 117.917 85.1118 117.764 85.2258C117.612 85.3398 117.51 85.4744 117.457 85.6297L116.46 85.4882C116.539 85.213 116.669 84.983 116.85 84.7983C117.03 84.6115 117.252 84.472 117.513 84.3796C117.774 84.2853 118.063 84.2381 118.38 84.2381C118.598 84.2381 118.815 84.2636 119.031 84.3147C119.248 84.3658 119.445 84.4504 119.624 84.5683C119.803 84.6843 119.946 84.8425 120.054 85.043C120.164 85.2434 120.219 85.494 120.219 85.7948V88.8256H119.193V88.2035H119.158C119.093 88.3293 119.002 88.4472 118.884 88.5573C118.768 88.6654 118.622 88.7529 118.445 88.8197C118.27 88.8846 118.064 88.917 117.828 88.917ZM118.106 88.1327C118.32 88.1327 118.506 88.0905 118.663 88.006C118.82 87.9195 118.941 87.8055 119.025 87.664C119.112 87.5225 119.155 87.3682 119.155 87.2011V86.6675C119.122 86.695 119.065 86.7205 118.984 86.7441C118.906 86.7677 118.817 86.7883 118.719 86.806C118.621 86.8237 118.523 86.8394 118.427 86.8532C118.331 86.867 118.247 86.8788 118.176 86.8886C118.017 86.9102 117.875 86.9456 117.749 86.9947C117.623 87.0439 117.524 87.1126 117.451 87.2011C117.378 87.2876 117.342 87.3996 117.342 87.5372C117.342 87.7337 117.414 87.8821 117.557 87.9824C117.701 88.0826 117.883 88.1327 118.106 88.1327ZM122.36 86.1721V88.8256H121.293V84.2971H122.313V85.0665H122.366C122.47 84.813 122.636 84.6115 122.864 84.4622C123.094 84.3128 123.378 84.2381 123.716 84.2381C124.029 84.2381 124.301 84.3049 124.533 84.4386C124.767 84.5722 124.948 84.7658 125.075 85.0194C125.205 85.2729 125.269 85.5805 125.267 85.9422V88.8256H124.2V86.1073C124.2 85.8046 124.121 85.5678 123.964 85.3968C123.809 85.2258 123.593 85.1403 123.318 85.1403C123.131 85.1403 122.965 85.1815 122.82 85.2641C122.676 85.3447 122.563 85.4616 122.481 85.6149C122.4 85.7682 122.36 85.954 122.36 86.1721ZM128.327 88.914C127.875 88.914 127.487 88.8148 127.163 88.6163C126.84 88.4177 126.592 88.1436 126.417 87.7937C126.244 87.4419 126.157 87.037 126.157 86.579C126.157 86.1191 126.246 85.7132 126.423 85.3614C126.6 85.0076 126.849 84.7324 127.172 84.5359C127.496 84.3373 127.879 84.2381 128.321 84.2381C128.689 84.2381 129.014 84.3059 129.297 84.4415C129.582 84.5752 129.809 84.7648 129.978 85.0105C130.147 85.2543 130.244 85.5393 130.267 85.8655H129.247C129.206 85.6474 129.108 85.4655 128.952 85.3201C128.799 85.1727 128.594 85.099 128.336 85.099C128.118 85.099 127.926 85.1579 127.761 85.2759C127.596 85.3918 127.467 85.5589 127.375 85.7771C127.285 85.9953 127.239 86.2567 127.239 86.5613C127.239 86.8699 127.285 87.1353 127.375 87.3574C127.465 87.5775 127.592 87.7475 127.755 87.8674C127.92 87.9853 128.114 88.0443 128.336 88.0443C128.493 88.0443 128.634 88.0148 128.758 87.9559C128.883 87.8949 128.989 87.8075 129.073 87.6935C129.158 87.5795 129.216 87.4409 129.247 87.2778H130.267C130.242 87.5981 130.147 87.8821 129.984 88.1298C129.821 88.3755 129.599 88.5681 129.318 88.7077C129.037 88.8452 128.707 88.914 128.327 88.914ZM133.148 88.914C132.694 88.914 132.302 88.8197 131.972 88.631C131.644 88.4404 131.391 88.1711 131.214 87.8232C131.037 87.4733 130.949 87.0615 130.949 86.5879C130.949 86.122 131.037 85.7132 131.214 85.3614C131.393 85.0076 131.643 84.7324 131.963 84.5359C132.284 84.3373 132.66 84.2381 133.092 84.2381C133.371 84.2381 133.635 84.2833 133.883 84.3737C134.132 84.4622 134.352 84.5997 134.543 84.7865C134.736 84.9732 134.887 85.211 134.997 85.4999C135.107 85.7869 135.162 86.1289 135.162 86.5259V86.8532H131.45V86.1338H134.139C134.137 85.9294 134.093 85.7476 134.006 85.5884C133.92 85.4272 133.799 85.3004 133.644 85.2081C133.49 85.1157 133.312 85.0695 133.107 85.0695C132.889 85.0695 132.697 85.1226 132.532 85.2287C132.367 85.3329 132.238 85.4705 132.146 85.6415C132.056 85.8105 132.009 85.9962 132.007 86.1987V86.8267C132.007 87.09 132.056 87.3161 132.152 87.5048C132.248 87.6915 132.383 87.835 132.556 87.9352C132.729 88.0335 132.931 88.0826 133.163 88.0826C133.318 88.0826 133.459 88.061 133.585 88.0178C133.711 87.9726 133.82 87.9067 133.912 87.8202C134.004 87.7337 134.074 87.6266 134.121 87.4989L135.118 87.6109C135.055 87.8743 134.935 88.1042 134.758 88.3008C134.583 88.4954 134.359 88.6467 134.086 88.7548C133.813 88.861 133.5 88.914 133.148 88.914ZM137.132 82.7875V88.8256H136.065V82.7875H137.132Z" fill="#233D48"/>
<path d="M151.977 79.2093C151.977 76.5892 154.101 74.4651 156.721 74.4651H198.209C200.83 74.4651 202.954 76.5892 202.954 79.2093V93.4419C202.954 96.062 200.83 98.1861 198.209 98.1861H156.721C154.101 98.1861 151.977 96.062 151.977 93.4419V79.2093Z" fill="#388523"/>
<path d="M151.977 79.2093C151.977 76.5892 154.101 74.4651 156.721 74.4651H198.209C200.83 74.4651 202.954 76.5892 202.954 79.2093V93.4419C202.954 96.062 200.83 98.1861 198.209 98.1861H156.721C154.101 98.1861 151.977 96.062 151.977 93.4419V79.2093Z" stroke="#388523"/>
<path d="M162.445 88.8256V82.7875H164.709C165.173 82.7875 165.562 82.874 165.877 83.047C166.193 83.2199 166.432 83.4578 166.593 83.7605C166.756 84.0612 166.838 84.4032 166.838 84.7865C166.838 85.1737 166.756 85.5176 166.593 85.8184C166.43 86.1191 166.189 86.3559 165.871 86.5289C165.553 86.6999 165.16 86.7854 164.695 86.7854H163.194V85.8862H164.547C164.818 85.8862 165.041 85.839 165.214 85.7447C165.387 85.6503 165.514 85.5206 165.597 85.3555C165.681 85.1904 165.724 85.0007 165.724 84.7865C165.724 84.5722 165.681 84.3835 165.597 84.2204C165.514 84.0573 165.386 83.9305 165.211 83.8401C165.038 83.7477 164.815 83.7015 164.541 83.7015H163.539V88.8256H162.445ZM167.741 88.8256V84.2971H168.776V85.0518H168.823C168.906 84.7904 169.047 84.5889 169.248 84.4474C169.45 84.3039 169.681 84.2322 169.94 84.2322C169.999 84.2322 170.065 84.2351 170.138 84.241C170.213 84.245 170.275 84.2518 170.324 84.2617V85.2434C170.278 85.2277 170.207 85.214 170.108 85.2022C170.012 85.1884 169.919 85.1815 169.828 85.1815C169.634 85.1815 169.459 85.2238 169.304 85.3083C169.15 85.3909 169.029 85.5058 168.941 85.6533C168.852 85.8007 168.808 85.9707 168.808 86.1633V88.8256H167.741ZM171.033 88.8256V84.2971H172.1V88.8256H171.033ZM171.569 83.6543C171.4 83.6543 171.255 83.5983 171.133 83.4863C171.011 83.3723 170.95 83.2357 170.95 83.0765C170.95 82.9153 171.011 82.7787 171.133 82.6667C171.255 82.5527 171.4 82.4957 171.569 82.4957C171.74 82.4957 171.886 82.5527 172.006 82.6667C172.127 82.7787 172.188 82.9153 172.188 83.0765C172.188 83.2357 172.127 83.3723 172.006 83.4863C171.886 83.5983 171.74 83.6543 171.569 83.6543ZM173.197 88.8256V84.2971H174.218V85.0665H174.271C174.365 84.8071 174.521 84.6047 174.739 84.4592C174.958 84.3118 175.218 84.2381 175.521 84.2381C175.827 84.2381 176.086 84.3128 176.296 84.4622C176.508 84.6096 176.658 84.811 176.744 85.0665H176.791C176.892 84.815 177.061 84.6145 177.299 84.4651C177.538 84.3138 177.822 84.2381 178.151 84.2381C178.567 84.2381 178.907 84.3698 179.171 84.6332C179.434 84.8965 179.566 85.2808 179.566 85.7859V88.8256H178.496V85.951C178.496 85.67 178.421 85.4646 178.271 85.3348C178.122 85.2032 177.939 85.1373 177.723 85.1373C177.466 85.1373 177.264 85.2179 177.119 85.3791C176.975 85.5383 176.903 85.7456 176.903 86.0012V88.8256H175.857V85.9068C175.857 85.6729 175.786 85.4862 175.645 85.3466C175.505 85.2071 175.322 85.1373 175.096 85.1373C174.943 85.1373 174.803 85.1766 174.677 85.2552C174.552 85.3319 174.451 85.441 174.377 85.5825C174.302 85.722 174.265 85.8852 174.265 86.0719V88.8256H173.197ZM181.952 88.917C181.665 88.917 181.406 88.8659 181.176 88.7637C180.948 88.6595 180.767 88.5062 180.634 88.3037C180.502 88.1013 180.436 87.8517 180.436 87.5549C180.436 87.2994 180.483 87.0881 180.578 86.921C180.672 86.7539 180.801 86.6203 180.964 86.52C181.127 86.4198 181.311 86.3441 181.515 86.293C181.722 86.24 181.935 86.2016 182.155 86.178C182.42 86.1505 182.636 86.126 182.801 86.1043C182.966 86.0808 183.086 86.0454 183.16 85.9982C183.237 85.9491 183.275 85.8734 183.275 85.7712V85.7535C183.275 85.5314 183.21 85.3594 183.078 85.2375C182.946 85.1157 182.756 85.0548 182.509 85.0548C182.247 85.0548 182.04 85.1118 181.887 85.2258C181.735 85.3398 181.633 85.4744 181.58 85.6297L180.584 85.4882C180.662 85.213 180.792 84.983 180.973 84.7983C181.154 84.6115 181.375 84.472 181.636 84.3796C181.898 84.2853 182.186 84.2381 182.503 84.2381C182.721 84.2381 182.938 84.2636 183.155 84.3147C183.371 84.3658 183.568 84.4504 183.747 84.5683C183.926 84.6843 184.069 84.8425 184.178 85.043C184.288 85.2434 184.343 85.494 184.343 85.7948V88.8256H183.317V88.2035H183.281C183.216 88.3293 183.125 88.4472 183.007 88.5573C182.891 88.6654 182.745 88.7529 182.568 88.8197C182.393 88.8846 182.187 88.917 181.952 88.917ZM182.229 88.1327C182.443 88.1327 182.629 88.0905 182.786 88.006C182.943 87.9195 183.064 87.8055 183.149 87.664C183.235 87.5225 183.278 87.3682 183.278 87.2011V86.6675C183.245 86.695 183.188 86.7205 183.107 86.7441C183.029 86.7677 182.94 86.7883 182.842 86.806C182.744 86.8237 182.646 86.8394 182.55 86.8532C182.454 86.867 182.37 86.8788 182.3 86.8886C182.14 86.9102 181.998 86.9456 181.872 86.9947C181.746 87.0439 181.647 87.1126 181.574 87.2011C181.502 87.2876 181.465 87.3996 181.465 87.5372C181.465 87.7337 181.537 87.8821 181.68 87.9824C181.824 88.0826 182.007 88.1327 182.229 88.1327ZM185.416 88.8256V84.2971H186.451V85.0518H186.498C186.58 84.7904 186.722 84.5889 186.922 84.4474C187.125 84.3039 187.356 84.2322 187.615 84.2322C187.674 84.2322 187.74 84.2351 187.813 84.241C187.887 84.245 187.949 84.2518 187.999 84.2617V85.2434C187.953 85.2277 187.882 85.214 187.783 85.2022C187.687 85.1884 187.594 85.1815 187.503 85.1815C187.309 85.1815 187.134 85.2238 186.978 85.3083C186.825 85.3909 186.704 85.5058 186.616 85.6533C186.527 85.8007 186.483 85.9707 186.483 86.1633V88.8256H185.416ZM189.509 90.5238C189.363 90.5238 189.229 90.512 189.105 90.4884C188.983 90.4668 188.886 90.4412 188.813 90.4118L189.061 89.5803C189.216 89.6256 189.354 89.6472 189.476 89.6452C189.598 89.6432 189.705 89.6049 189.798 89.5302C189.892 89.4575 189.972 89.3356 190.037 89.1646L190.128 88.9199L188.486 84.2971H189.618L190.662 87.717H190.709L191.755 84.2971H192.89L191.077 89.374C190.993 89.6138 190.881 89.8192 190.741 89.9902C190.602 90.1631 190.431 90.2948 190.228 90.3852C190.028 90.4776 189.788 90.5238 189.509 90.5238Z" fill="white"/>
</g>
<path d="M207.698 6.70349H16.7442C13.9603 6.70349 11.7035 8.96029 11.7035 11.7442V102.93C11.7035 105.714 13.9603 107.971 16.7442 107.971H207.698C210.482 107.971 212.738 105.714 212.738 102.93V11.7442C212.738 8.96029 210.482 6.70349 207.698 6.70349Z" stroke="#DADFE2" stroke-width="0.593023"/>
</g>
<defs>
<filter id="filter0_dd_3_6626" x="4.2907" y="1.6628" width="215.86" height="116.093" filterUnits="userSpaceOnUse" color-interpolation-filters="sRGB">
<feFlood flood-opacity="0" result="BackgroundImageFix"/>
<feColorMatrix in="SourceAlpha" type="matrix" values="0 0 0 0 0 0 0 0 0 0 0 0 0 0 0 0 0 0 127 0" result="hardAlpha"/>
<feOffset dy="2.37209"/>
<feGaussianBlur stdDeviation="3.55814"/>
<feColorMatrix type="matrix" values="0 0 0 0 0 0 0 0 0 0 0 0 0 0 0 0 0 0 0.05 0"/>
<feBlend mode="normal" in2="BackgroundImageFix" result="effect1_dropShadow_3_6626"/>
<feColorMatrix in="SourceAlpha" type="matrix" values="0 0 0 0 0 0 0 0 0 0 0 0 0 0 0 0 0 0 127 0" result="hardAlpha"/>
<feOffset dy="0.593023"/>
<feGaussianBlur stdDeviation="1.18605"/>
<feColorMatrix type="matrix" values="0 0 0 0 0 0 0 0 0 0 0 0 0 0 0 0 0 0 0.1 0"/>
<feBlend mode="normal" in2="effect1_dropShadow_3_6626" result="effect2_dropShadow_3_6626"/>
<feBlend mode="normal" in="SourceGraphic" in2="effect2_dropShadow_3_6626" result="shape"/>
</filter>
<clipPath id="clip0_3_6626">
<path d="M12 11.7442C12 9.12405 14.124 7 16.7442 7H207.698C210.318 7 212.442 9.12404 212.442 11.7442V102.93C212.442 105.55 210.318 107.674 207.698 107.674H16.7442C14.124 107.674 12 105.55 12 102.93V11.7442Z" fill="white"/>
</clipPath>
</defs>
</svg>
