<svg width="224" height="117" viewBox="0 0 224 117" fill="none" xmlns="http://www.w3.org/2000/svg">
<path d="M153.556 10V10.5H156C156.475 10.5 156.928 10.5948 157.34 10.7656L157.53 10.3037C158.508 10.709 159.29 11.491 159.695 12.4688L159.234 12.6602C159.405 13.0721 159.5 13.5245 159.5 14V16.4443H160V21.333H159.5V26.2227H160V31.1113H159.5V36H160V40.8887H159.5V45.7773H160V50.667H159.5V55.5557H160V60.4443H159.5V65.333H160V70.2227H159.5V75.1113H160V80H159.5V84.8887H160V89.7773H159.5V94.667H160V99.5557H159.5V102C159.5 102.475 159.405 102.928 159.234 103.34L159.695 103.53C159.29 104.508 158.508 105.29 157.53 105.695L157.34 105.234C156.928 105.405 156.475 105.5 156 105.5H153.556V106H148.667V105.5H143.777V106H138.889V105.5H134V106H129.111V105.5H124.223V106H119.333V105.5H114.444V106H109.556V105.5H104.667V106H99.7773V105.5H94.8887V106H90V105.5H85.1113V106H80.2227V105.5H75.333V106H70.4443V105.5H68C67.5245 105.5 67.0721 105.405 66.6602 105.234L66.4688 105.695C65.491 105.29 64.709 104.508 64.3037 103.53L64.7656 103.34C64.6161 102.979 64.5253 102.588 64.5049 102.177L64.5 102V99.5557H64V94.667H64.5V89.7773H64V84.8887H64.5V80H64V75.1113H64.5V70.2227H64V65.333H64.5V60.4443H64V55.5557H64.5V50.667H64V45.7773H64.5V40.8887H64V36H64.5V31.1113H64V26.2227H64.5V21.333H64V16.4443H64.5V14C64.5 13.5245 64.5948 13.0721 64.7656 12.6602L64.3037 12.4688C64.7092 11.4911 65.4911 10.7092 66.4688 10.3037L66.6602 10.7656C67.0721 10.5948 67.5245 10.5 68 10.5H70.4443V10H75.333V10.5H80.2227V10H85.1113V10.5H90V10H94.8887V10.5H99.7773V10H104.667V10.5H109.556V10H114.444V10.5H119.333V10H124.223V10.5H129.111V10H134V10.5H138.889V10H143.777V10.5H148.667V10H153.556Z" fill="white"/>
<path d="M153.556 10V10.5H156C156.475 10.5 156.928 10.5948 157.34 10.7656L157.53 10.3037C158.508 10.709 159.29 11.491 159.695 12.4688L159.234 12.6602C159.405 13.0721 159.5 13.5245 159.5 14V16.4443H160V21.333H159.5V26.2227H160V31.1113H159.5V36H160V40.8887H159.5V45.7773H160V50.667H159.5V55.5557H160V60.4443H159.5V65.333H160V70.2227H159.5V75.1113H160V80H159.5V84.8887H160V89.7773H159.5V94.667H160V99.5557H159.5V102C159.5 102.475 159.405 102.928 159.234 103.34L159.695 103.53C159.29 104.508 158.508 105.29 157.53 105.695L157.34 105.234C156.928 105.405 156.475 105.5 156 105.5H153.556V106H148.667V105.5H143.777V106H138.889V105.5H134V106H129.111V105.5H124.223V106H119.333V105.5H114.444V106H109.556V105.5H104.667V106H99.7773V105.5H94.8887V106H90V105.5H85.1113V106H80.2227V105.5H75.333V106H70.4443V105.5H68C67.5245 105.5 67.0721 105.405 66.6602 105.234L66.4688 105.695C65.491 105.29 64.709 104.508 64.3037 103.53L64.7656 103.34C64.6161 102.979 64.5253 102.588 64.5049 102.177L64.5 102V99.5557H64V94.667H64.5V89.7773H64V84.8887H64.5V80H64V75.1113H64.5V70.2227H64V65.333H64.5V60.4443H64V55.5557H64.5V50.667H64V45.7773H64.5V40.8887H64V36H64.5V31.1113H64V26.2227H64.5V21.333H64V16.4443H64.5V14C64.5 13.5245 64.5948 13.0721 64.7656 12.6602L64.3037 12.4688C64.7092 11.4911 65.4911 10.7092 66.4688 10.3037L66.6602 10.7656C67.0721 10.5948 67.5245 10.5 68 10.5H70.4443V10H75.333V10.5H80.2227V10H85.1113V10.5H90V10H94.8887V10.5H99.7773V10H104.667V10.5H109.556V10H114.444V10.5H119.333V10H124.223V10.5H129.111V10H134V10.5H138.889V10H143.777V10.5H148.667V10H153.556Z" stroke="#DADFE2" stroke-dasharray="5 5"/>
</svg>
