<svg width="224" height="117" viewBox="0 0 224 117" fill="none" xmlns="http://www.w3.org/2000/svg">
<path d="M64 14.5H160C161.933 14.5 163.5 16.067 163.5 18V98C163.5 99.933 161.933 101.5 160 101.5H64C62.067 101.5 60.5 99.933 60.5 98V18L60.5049 17.8203C60.5984 15.9708 62.1273 14.5 64 14.5Z" fill="white"/>
<path d="M64 14.5H160C161.933 14.5 163.5 16.067 163.5 18V98C163.5 99.933 161.933 101.5 160 101.5H64C62.067 101.5 60.5 99.933 60.5 98V18L60.5049 17.8203C60.5984 15.9708 62.1273 14.5 64 14.5Z" stroke="#DADFE2"/>
<path d="M68 26C68 23.7909 69.7909 22 72 22H152C154.209 22 156 23.7909 156 26V30C156 32.2091 154.209 34 152 34H72C69.7909 34 68 32.2091 68 30V26Z" fill="#DADFE2"/>
<path d="M68 46C68 43.7909 69.7909 42 72 42H152C154.209 42 156 43.7909 156 46V50C156 52.2091 154.209 54 152 54H72C69.7909 54 68 52.2091 68 50V46Z" fill="#DADFE2"/>
<path d="M68 66C68 63.7909 69.7909 62 72 62H152C154.209 62 156 63.7909 156 66V70C156 72.2091 154.209 74 152 74H72C69.7909 74 68 72.2091 68 70V66Z" fill="#DADFE2"/>
<path d="M68 86C68 83.7909 69.7909 82 72 82H152C154.209 82 156 83.7909 156 86V90C156 92.2091 154.209 94 152 94H72C69.7909 94 68 92.2091 68 90V86Z" fill="#DADFE2"/>
</svg>
