<svg width="224" height="117" viewBox="0 0 224 117" fill="none" xmlns="http://www.w3.org/2000/svg">
<g clip-path="url(#clip0_2417_19576)">
<path d="M50 18C50 15.7909 51.7909 14 54 14H135C137.209 14 139 15.7909 139 18V26C139 28.2091 137.209 30 135 30H54C51.7909 30 50 28.2091 50 26V18Z" fill="#032B3A"/>
<path d="M50 46C50 43.7909 51.7909 42 54 42H155C157.209 42 159 43.7909 159 46V46C159 48.2091 157.209 50 155 50H54C51.7909 50 50 48.2091 50 46V46Z" fill="#233D48"/>
<path d="M50 60C50 58.8954 50.8954 58 52 58H165C166.105 58 167 58.8954 167 60V60C167 61.1046 166.105 62 165 62H52C50.8954 62 50 61.1046 50 60V60Z" fill="#627A84"/>
<path d="M50 68C50 66.8954 50.8954 66 52 66H171C172.105 66 173 66.8954 173 68V68C173 69.1046 172.105 70 171 70H52C50.8954 70 50 69.1046 50 68V68Z" fill="#627A84"/>
<path d="M50 76C50 74.8954 50.8954 74 52 74H150C151.105 74 152 74.8954 152 76V76C152 77.1046 151.105 78 150 78H52C50.8954 78 50 77.1046 50 76V76Z" fill="#627A84"/>
<path d="M50 94C50 91.7909 51.7909 90 54 90H141C143.209 90 145 91.7909 145 94V94C145 96.2091 143.209 98 141 98H54C51.7909 98 50 96.2091 50 94V94Z" fill="#233D48"/>
<path d="M50 108C50 106.895 50.8954 106 52 106H159C160.105 106 161 106.895 161 108V108C161 109.105 160.105 110 159 110H52C50.8954 110 50 109.105 50 108V108Z" fill="#627A84"/>
<path d="M50 116C50 114.895 50.8954 114 52 114H166C167.105 114 168 114.895 168 116V116C168 117.105 167.105 118 166 118H52C50.8954 118 50 117.105 50 116V116Z" fill="#627A84"/>
</g>
<defs>
<clipPath id="clip0_2417_19576">
<path d="M0 8C0 3.58172 3.58172 0 8 0H216C220.418 0 224 3.58172 224 8V109C224 113.418 220.418 117 216 117H8C3.58172 117 0 113.418 0 109V8Z" fill="white"/>
</clipPath>
</defs>
</svg>
