<svg width="224" height="117" viewBox="0 0 224 117" fill="none" xmlns="http://www.w3.org/2000/svg">
<path d="M52 10.5H172C173.933 10.5 175.5 12.067 175.5 14V102C175.5 103.933 173.933 105.5 172 105.5H52C50.067 105.5 48.5 103.933 48.5 102V14C48.5 12.067 50.067 10.5 52 10.5Z" fill="white"/>
<path d="M52 10.5H172C173.933 10.5 175.5 12.067 175.5 14V102C175.5 103.933 173.933 105.5 172 105.5H52C50.067 105.5 48.5 103.933 48.5 102V14C48.5 12.067 50.067 10.5 52 10.5Z" stroke="#DADFE2"/>
<path d="M56 26C56 23.7909 57.7909 22 60 22H117C119.209 22 121 23.7909 121 26V30C121 32.2091 119.209 34 117 34H60C57.7909 34 56 32.2091 56 30V26Z" fill="#233D48"/>
<path d="M56 46C56 43.7909 57.7909 42 60 42H147C149.209 42 151 43.7909 151 46V50C151 52.2091 149.209 54 147 54H60C57.7909 54 56 52.2091 56 50V46Z" fill="#5D757E"/>
<path d="M56 66C56 63.7909 57.7909 62 60 62H164C166.209 62 168 63.7909 168 66V70C168 72.2091 166.209 74 164 74H60C57.7909 74 56 72.2091 56 70V66Z" fill="#5D757E"/>
<path d="M56 86C56 83.7909 57.7909 82 60 82H140C142.209 82 144 83.7909 144 86V90C144 92.2091 142.209 94 140 94H60C57.7909 94 56 92.2091 56 90V86Z" fill="#5D757E"/>
</svg>
