<svg width="224" height="117" viewBox="0 0 224 117" fill="none" xmlns="http://www.w3.org/2000/svg">
<g clip-path="url(#clip0_2314_47496)">
<g clip-path="url(#clip1_2314_47496)">
<rect width="224" height="519" transform="translate(0 -402)" fill="black" fill-opacity="0.32"/>
<g filter="url(#filter0_d_2314_47496)">
<path d="M0 30.3333C0 27.5106 2.28832 25.2222 5.11111 25.2222H218.889C221.712 25.2222 224 27.5106 224 30.3333V117.222H0V30.3333Z" fill="white"/>
<path d="M0 30.3333C0 27.5105 2.28832 25.2222 5.11111 25.2222H218.889C221.712 25.2222 224 27.5106 224 30.3333V66.1111H0V30.3333Z" fill="white"/>
<rect x="100.5" y="30.3333" width="30.6667" height="3.83333" rx="1.91667" fill="#DADFE2"/>
<path d="M15.6195 54.6968C12.8927 54.6968 10.686 52.4057 10.686 49.5806C10.686 46.7554 12.8927 44.4643 15.6195 44.4643C18.5009 44.4643 19.8783 46.6711 20.2157 48.1891L17.77 48.3015C17.5732 47.5987 16.8704 46.7132 15.6195 46.7132C14.2421 46.7132 13.0754 47.8939 13.0754 49.5806C13.0754 51.2672 14.2421 52.4479 15.6195 52.4479C16.8564 52.4479 17.5592 51.5764 17.8122 50.8737L20.2578 50.9861C19.9486 52.4338 18.5431 54.6968 15.6195 54.6968ZM24.8429 54.6968C22.7627 54.6968 21.076 52.9679 21.076 50.9158C21.076 48.8637 22.7627 47.1349 24.8429 47.1349C26.9091 47.1349 28.6098 48.8637 28.6098 50.9158C28.6098 52.9679 26.9091 54.6968 24.8429 54.6968ZM24.8429 52.6868C25.7144 52.6868 26.389 51.9419 26.389 50.9158C26.389 49.8898 25.7144 49.1448 24.8429 49.1448C23.9574 49.1448 23.2968 49.8898 23.2968 50.9158C23.2968 51.9419 23.9574 52.6868 24.8429 52.6868ZM32.0205 54.5H29.7997V47.3317H31.4442L31.7675 48.0344H31.8377C32.0345 47.7814 32.7514 47.1349 33.8477 47.1349C35.5484 47.1349 36.715 48.3577 36.715 50.2271V54.5H34.4942V50.5082C34.4942 49.7633 33.9742 49.187 33.2574 49.187C32.5405 49.187 32.0205 49.7633 32.0205 50.5082V54.5ZM41.1279 54.6968C39.5959 54.6968 38.5558 53.6848 38.5558 51.9559V49.2713H37.4594V47.4722H37.9795C38.4995 47.4722 38.8088 47.163 38.8088 46.657V45.5044H40.7765V47.3317H42.2243V49.2713H40.7765V51.6046C40.7765 52.2792 41.1279 52.5884 41.7183 52.5884C41.8869 52.5884 42.0837 52.5603 42.2243 52.4901V54.5141C42.0134 54.5984 41.6339 54.6968 41.1279 54.6968ZM50.3755 50.7893C50.3755 51.1829 50.3333 51.464 50.2912 51.6046H45.1749C45.3858 52.3917 45.9761 52.8274 46.7351 52.8274C47.4379 52.8274 47.8033 52.476 47.9439 52.3214L50.1647 52.4198C49.7711 53.4318 48.5904 54.6968 46.7632 54.6968C44.6689 54.6968 43.0104 52.9961 43.0104 50.9158C43.0104 48.8637 44.697 47.1349 46.7492 47.1349C48.8294 47.1349 50.3755 48.7653 50.3755 50.7893ZM46.721 48.9762C45.9761 48.9762 45.3717 49.44 45.1609 50.2271H48.2672C48.0985 49.4962 47.5082 48.9762 46.721 48.9762ZM53.7901 54.5H51.5693V47.3317H53.2138L53.5371 48.0344H53.6074C53.8042 47.7814 54.521 47.1349 55.6173 47.1349C57.3181 47.1349 58.4847 48.3577 58.4847 50.2271V54.5H56.2639V50.5082C56.2639 49.7633 55.7438 49.187 55.027 49.187C54.3102 49.187 53.7901 49.7633 53.7901 50.5082V54.5ZM62.8976 54.6968C61.3655 54.6968 60.3254 53.6848 60.3254 51.9559V49.2713H59.2291V47.4722H59.7491C60.2692 47.4722 60.5784 47.163 60.5784 46.657V45.5044H62.5462V47.3317H63.9939V49.2713H62.5462V51.6046C62.5462 52.2792 62.8976 52.5884 63.4879 52.5884C63.6566 52.5884 63.8533 52.5603 63.9939 52.4901V54.5141C63.7831 54.5984 63.4036 54.6968 62.8976 54.6968ZM69.8929 54.6968C67.1521 54.6968 64.9454 52.4057 64.9454 49.5806C64.9454 46.7554 67.1521 44.4643 69.8929 44.4643C72.6197 44.4643 74.8405 46.7554 74.8405 49.5806C74.8405 52.4057 72.6197 54.6968 69.8929 54.6968ZM69.8929 52.4479C71.2704 52.4479 72.4511 51.2672 72.4511 49.5806C72.4511 47.8939 71.2704 46.7132 69.8929 46.7132C68.5014 46.7132 67.3348 47.8939 67.3348 49.5806C67.3348 51.2672 68.5014 52.4479 69.8929 52.4479ZM79.0927 52.0684L80.5686 47.3317H82.8456L80.2031 54.5H77.898L75.2696 47.3317H77.6169L79.0927 52.0684ZM90.4695 50.7893C90.4695 51.1829 90.4273 51.464 90.3852 51.6046H85.2689C85.4798 52.3917 86.0701 52.8274 86.8291 52.8274C87.5319 52.8274 87.8973 52.476 88.0379 52.3214L90.2587 52.4198C89.8651 53.4318 88.6844 54.6968 86.8572 54.6968C84.7629 54.6968 83.1044 52.9961 83.1044 50.9158C83.1044 48.8637 84.7911 47.1349 86.8432 47.1349C88.9234 47.1349 90.4695 48.7653 90.4695 50.7893ZM86.8151 48.9762C86.0701 48.9762 85.4657 49.44 85.2549 50.2271H88.3612C88.1925 49.4962 87.6022 48.9762 86.8151 48.9762ZM93.8841 54.5H91.6634V47.3317H93.3079L93.6311 48.0344H93.7014C93.8701 47.8096 94.4323 47.1349 95.374 47.1349C95.6551 47.1349 95.8519 47.163 96.0346 47.2192V49.4822C95.8519 49.4259 95.627 49.4119 95.3459 49.4119C94.4464 49.4119 93.8841 49.9601 93.8841 50.9158V54.5ZM99.2801 54.5H97.0594V44.6611H99.2801V54.5ZM103.839 54.6968C102.11 54.6968 100.55 53.1085 100.55 50.9158C100.55 48.7232 102.11 47.1349 103.839 47.1349C104.893 47.1349 105.638 47.6971 105.92 48.0344H105.99L106.313 47.3317H107.958V54.5H106.313L105.99 53.7972H105.92C105.638 54.1346 104.893 54.6968 103.839 54.6968ZM104.247 52.6868C105.048 52.6868 105.737 51.9559 105.737 50.9158C105.737 49.8757 105.048 49.1448 104.247 49.1448C103.446 49.1448 102.771 49.8757 102.771 50.9158C102.771 51.9559 103.446 52.6868 104.247 52.6868ZM112.586 51.7311L113.992 47.3317H116.269L113.444 54.6406C112.769 56.3553 111.954 57.1003 110.773 57.1003C110.351 57.1003 110 57.0019 109.775 56.9316V55.006C109.944 55.0763 110.084 55.1044 110.323 55.1044C110.998 55.1044 111.293 54.8654 111.49 54.3454L108.693 47.3317H111.096L112.586 51.7311Z" fill="#032B3A"/>
<path d="M206.445 48.9299L203.063 45.5483C202.942 45.4319 202.781 45.3675 202.614 45.369C202.446 45.3704 202.286 45.4376 202.167 45.5561C202.049 45.6746 201.982 45.8348 201.98 46.0023C201.979 46.1698 202.043 46.3312 202.16 46.4517L205.541 49.8333L202.16 53.215C202.043 53.3355 201.979 53.4968 201.98 53.6644C201.982 53.8319 202.049 53.9921 202.167 54.1106C202.286 54.229 202.446 54.2962 202.614 54.2977C202.781 54.2992 202.942 54.2348 203.063 54.1184L206.445 50.7367L209.826 54.1184C209.947 54.2348 210.108 54.2992 210.276 54.2977C210.443 54.2962 210.603 54.229 210.722 54.1106C210.84 53.9921 210.908 53.8319 210.909 53.6644C210.91 53.4968 210.846 53.3355 210.73 53.215L207.348 49.8333L210.73 46.4517C210.791 46.3928 210.839 46.3223 210.873 46.2443C210.906 46.1664 210.924 46.0825 210.925 45.9977C210.925 45.9129 210.909 45.8288 210.877 45.7502C210.845 45.6717 210.798 45.6004 210.738 45.5404C210.678 45.4804 210.606 45.433 210.528 45.4008C210.449 45.3687 210.365 45.3526 210.28 45.3533C210.195 45.354 210.112 45.3717 210.034 45.4051C209.956 45.4386 209.885 45.4873 209.826 45.5483L206.445 48.9299Z" fill="#032B3A"/>
<path d="M5.11108 73.7778C5.11108 72.3664 6.25525 71.2222 7.66664 71.2222H216.333C217.745 71.2222 218.889 72.3664 218.889 73.7778V76.3333C218.889 77.7447 217.745 78.8889 216.333 78.8889H7.66664C6.25524 78.8889 5.11108 77.7447 5.11108 76.3333V73.7778Z" fill="#DADFE2"/>
<path d="M5.11108 86.5556C5.11108 85.1442 6.25525 84 7.66664 84H216.333C217.745 84 218.889 85.1442 218.889 86.5556V89.1111C218.889 90.5225 217.745 91.6667 216.333 91.6667H7.66664C6.25524 91.6667 5.11108 90.5225 5.11108 89.1111V86.5556Z" fill="#DADFE2"/>
<path d="M5.11108 99.3333C5.11108 97.9219 6.25525 96.7778 7.66664 96.7778H216.333C217.745 96.7778 218.889 97.9219 218.889 99.3333V109.556C218.889 110.967 217.745 112.111 216.333 112.111H7.66664C6.25524 112.111 5.11108 110.967 5.11108 109.556V99.3333Z" fill="#388523"/>
</g>
</g>
</g>
<defs>
<filter id="filter0_d_2314_47496" x="-2.55556" y="23.3056" width="229.111" height="97.1111" filterUnits="userSpaceOnUse" color-interpolation-filters="sRGB">
<feFlood flood-opacity="0" result="BackgroundImageFix"/>
<feColorMatrix in="SourceAlpha" type="matrix" values="0 0 0 0 0 0 0 0 0 0 0 0 0 0 0 0 0 0 127 0" result="hardAlpha"/>
<feOffset dy="0.638889"/>
<feGaussianBlur stdDeviation="1.27778"/>
<feColorMatrix type="matrix" values="0 0 0 0 0 0 0 0 0 0 0 0 0 0 0 0 0 0 0.16 0"/>
<feBlend mode="normal" in2="BackgroundImageFix" result="effect1_dropShadow_2314_47496"/>
<feBlend mode="normal" in="SourceGraphic" in2="effect1_dropShadow_2314_47496" result="shape"/>
</filter>
<clipPath id="clip0_2314_47496">
<path d="M0 8C0 3.58172 3.58172 0 8 0H216C220.418 0 224 3.58172 224 8V109C224 113.418 220.418 117 216 117H8C3.58172 117 0 113.418 0 109V8Z" fill="white"/>
</clipPath>
<clipPath id="clip1_2314_47496">
<rect width="224" height="519" fill="white" transform="translate(0 -402)"/>
</clipPath>
</defs>
</svg>
