<svg width="224" height="117" viewBox="0 0 224 117" fill="none" xmlns="http://www.w3.org/2000/svg">
<path d="M19 10.5H103C104.933 10.5 106.5 12.067 106.5 14V102C106.5 103.933 104.933 105.5 103 105.5H19C17.067 105.5 15.5 103.933 15.5 102V14C15.5 12.067 17.067 10.5 19 10.5Z" fill="white"/>
<path d="M19 10.5H103C104.933 10.5 106.5 12.067 106.5 14V102C106.5 103.933 104.933 105.5 103 105.5H19C17.067 105.5 15.5 103.933 15.5 102V14C15.5 12.067 17.067 10.5 19 10.5Z" stroke="#DADFE2"/>
<path d="M23 22C23 19.7909 24.7909 18 27 18H69C71.2091 18 73 19.7909 73 22V26C73 28.2091 71.2091 30 69 30H27C24.7909 30 23 28.2091 23 26V22Z" fill="#233D48"/>
<path d="M23 42C23 39.7909 24.7909 38 27 38H95C97.2091 38 99 39.7909 99 42V46C99 48.2091 97.2091 50 95 50H27C24.7909 50 23 48.2091 23 46V42Z" fill="#5D757E"/>
<path d="M121 10.5H205C206.933 10.5 208.5 12.067 208.5 14V102C208.5 103.933 206.933 105.5 205 105.5H121C119.067 105.5 117.5 103.933 117.5 102V14C117.5 12.067 119.067 10.5 121 10.5Z" fill="white"/>
<path d="M121 10.5H205C206.933 10.5 208.5 12.067 208.5 14V102C208.5 103.933 206.933 105.5 205 105.5H121C119.067 105.5 117.5 103.933 117.5 102V14C117.5 12.067 119.067 10.5 121 10.5Z" stroke="#DADFE2"/>
<path d="M125 70C125 67.7909 126.791 66 129 66H156C158.209 66 160 67.7909 160 70V74C160 76.2091 158.209 78 156 78H129C126.791 78 125 76.2091 125 74V70Z" fill="#233D48"/>
<path d="M125 90C125 87.7909 126.791 86 129 86H197C199.209 86 201 87.7909 201 90V94C201 96.2091 199.209 98 197 98H129C126.791 98 125 96.2091 125 94V90Z" fill="#5D757E"/>
</svg>
