<svg width="224" height="117" viewBox="0 0 224 117" fill="none" xmlns="http://www.w3.org/2000/svg">
<path d="M14 41C14 36.5817 17.5817 33 22 33H202C206.418 33 210 36.5817 210 41V75C210 79.4183 206.418 83 202 83H22C17.5817 83 14 79.4183 14 75V41Z" fill="white"/>
<path d="M40.8821 65.3196C39.6605 65.3149 38.6094 65.0142 37.7287 64.4176C36.8527 63.821 36.178 62.9569 35.7045 61.8253C35.2358 60.6937 35.0038 59.3324 35.0085 57.7415C35.0085 56.1553 35.2429 54.8035 35.7116 53.6861C36.1851 52.5687 36.8598 51.7187 37.7358 51.1364C38.6165 50.5492 39.6652 50.2557 40.8821 50.2557C42.099 50.2557 43.1454 50.5492 44.0213 51.1364C44.902 51.7235 45.5791 52.5758 46.0526 53.6932C46.526 54.8059 46.7604 56.1553 46.7557 57.7415C46.7557 59.3371 46.5189 60.7008 46.0455 61.8324C45.5767 62.964 44.9044 63.8281 44.0284 64.4247C43.1525 65.0213 42.1037 65.3196 40.8821 65.3196ZM40.8821 62.7699C41.7154 62.7699 42.3807 62.3509 42.8778 61.5128C43.375 60.6747 43.6212 59.4176 43.6165 57.7415C43.6165 56.6383 43.5028 55.7197 43.2756 54.9858C43.053 54.2519 42.7358 53.7003 42.3239 53.331C41.9167 52.9616 41.4361 52.777 40.8821 52.777C40.0535 52.777 39.3906 53.1913 38.8935 54.0199C38.3963 54.8485 38.1454 56.089 38.1406 57.7415C38.1406 58.8589 38.2519 59.7917 38.4744 60.5398C38.7017 61.2831 39.0213 61.8419 39.4332 62.2159C39.8452 62.5852 40.3281 62.7699 40.8821 62.7699ZM54.6516 65.3196C53.43 65.3149 52.3789 65.0142 51.4982 64.4176C50.6223 63.821 49.9476 62.9569 49.4741 61.8253C49.0053 60.6937 48.7733 59.3324 48.7781 57.7415C48.7781 56.1553 49.0124 54.8035 49.4812 53.6861C49.9547 52.5687 50.6294 51.7187 51.5053 51.1364C52.386 50.5492 53.4348 50.2557 54.6516 50.2557C55.8685 50.2557 56.9149 50.5492 57.7908 51.1364C58.6715 51.7235 59.3486 52.5758 59.8221 53.6932C60.2956 54.8059 60.5299 56.1553 60.5252 57.7415C60.5252 59.3371 60.2885 60.7008 59.815 61.8324C59.3462 62.964 58.6739 63.8281 57.7979 64.4247C56.922 65.0213 55.8732 65.3196 54.6516 65.3196ZM54.6516 62.7699C55.485 62.7699 56.1502 62.3509 56.6474 61.5128C57.1445 60.6747 57.3907 59.4176 57.386 57.7415C57.386 56.6383 57.2724 55.7197 57.0451 54.9858C56.8226 54.2519 56.5053 53.7003 56.0934 53.331C55.6862 52.9616 55.2056 52.777 54.6516 52.777C53.823 52.777 53.1602 53.1913 52.663 54.0199C52.1658 54.8485 51.9149 56.089 51.9102 57.7415C51.9102 58.8589 52.0214 59.7917 52.244 60.5398C52.4712 61.2831 52.7908 61.8419 53.2028 62.2159C53.6147 62.5852 54.0977 62.7699 54.6516 62.7699Z" fill="#032B3A"/>
<path d="M68.9759 65.1847C68.5071 65.1847 68.1046 65.0189 67.7685 64.6875C67.437 64.3513 67.2713 63.9489 67.2713 63.4801C67.2713 63.0161 67.437 62.6184 67.7685 62.2869C68.1046 61.9555 68.5071 61.7898 68.9759 61.7898C69.4304 61.7898 69.8281 61.9555 70.169 62.2869C70.5099 62.6184 70.6804 63.0161 70.6804 63.4801C70.6804 63.7926 70.5999 64.0791 70.4389 64.3395C70.2827 64.5952 70.0767 64.8011 69.821 64.9574C69.5653 65.1089 69.2836 65.1847 68.9759 65.1847ZM68.9759 57.5426C68.5071 57.5426 68.1046 57.3769 67.7685 57.0455C67.437 56.714 67.2713 56.3116 67.2713 55.8381C67.2713 55.3741 67.437 54.9787 67.7685 54.652C68.1046 54.3205 68.5071 54.1548 68.9759 54.1548C69.4304 54.1548 69.8281 54.3205 70.169 54.652C70.5099 54.9787 70.6804 55.3741 70.6804 55.8381C70.6804 56.1553 70.5999 56.4441 70.4389 56.7045C70.2827 56.9602 70.0767 57.1638 69.821 57.3153C69.5653 57.4669 69.2836 57.5426 68.9759 57.5426Z" fill="#032B3A"/>
<path d="M82.8821 65.3196C81.6605 65.3149 80.6094 65.0142 79.7287 64.4176C78.8527 63.821 78.178 62.9569 77.7045 61.8253C77.2358 60.6937 77.0038 59.3324 77.0085 57.7415C77.0085 56.1553 77.2429 54.8035 77.7116 53.6861C78.1851 52.5687 78.8598 51.7187 79.7358 51.1364C80.6165 50.5492 81.6652 50.2557 82.8821 50.2557C84.099 50.2557 85.1454 50.5492 86.0213 51.1364C86.902 51.7235 87.5791 52.5758 88.0526 53.6932C88.526 54.8059 88.7604 56.1553 88.7557 57.7415C88.7557 59.3371 88.5189 60.7008 88.0455 61.8324C87.5767 62.964 86.9044 63.8281 86.0284 64.4247C85.1525 65.0213 84.1037 65.3196 82.8821 65.3196ZM82.8821 62.7699C83.7154 62.7699 84.3807 62.3509 84.8778 61.5128C85.375 60.6747 85.6212 59.4176 85.6165 57.7415C85.6165 56.6383 85.5028 55.7197 85.2756 54.9858C85.053 54.2519 84.7358 53.7003 84.3239 53.331C83.9167 52.9616 83.4361 52.777 82.8821 52.777C82.0535 52.777 81.3906 53.1913 80.8935 54.0199C80.3963 54.8485 80.1454 56.089 80.1406 57.7415C80.1406 58.8589 80.2519 59.7917 80.4744 60.5398C80.7017 61.2831 81.0213 61.8419 81.4332 62.2159C81.8452 62.5852 82.3281 62.7699 82.8821 62.7699ZM96.6516 65.3196C95.43 65.3149 94.3789 65.0142 93.4982 64.4176C92.6223 63.821 91.9476 62.9569 91.4741 61.8253C91.0053 60.6937 90.7733 59.3324 90.7781 57.7415C90.7781 56.1553 91.0124 54.8035 91.4812 53.6861C91.9547 52.5687 92.6294 51.7187 93.5053 51.1364C94.386 50.5492 95.4348 50.2557 96.6516 50.2557C97.8685 50.2557 98.9149 50.5492 99.7908 51.1364C100.672 51.7235 101.349 52.5758 101.822 53.6932C102.296 54.8059 102.53 56.1553 102.525 57.7415C102.525 59.3371 102.288 60.7008 101.815 61.8324C101.346 62.964 100.674 63.8281 99.7979 64.4247C98.922 65.0213 97.8732 65.3196 96.6516 65.3196ZM96.6516 62.7699C97.485 62.7699 98.1502 62.3509 98.6474 61.5128C99.1445 60.6747 99.3907 59.4176 99.386 57.7415C99.386 56.6383 99.2724 55.7197 99.0451 54.9858C98.8226 54.2519 98.5053 53.7003 98.0934 53.331C97.6862 52.9616 97.2056 52.777 96.6516 52.777C95.823 52.777 95.1602 53.1913 94.663 54.0199C94.1658 54.8485 93.9149 56.089 93.9102 57.7415C93.9102 58.8589 94.0214 59.7917 94.244 60.5398C94.4712 61.2831 94.7908 61.8419 95.2028 62.2159C95.6147 62.5852 96.0977 62.7699 96.6516 62.7699Z" fill="#032B3A"/>
<path d="M110.976 65.1847C110.507 65.1847 110.105 65.0189 109.768 64.6875C109.437 64.3513 109.271 63.9489 109.271 63.4801C109.271 63.0161 109.437 62.6184 109.768 62.2869C110.105 61.9555 110.507 61.7898 110.976 61.7898C111.43 61.7898 111.828 61.9555 112.169 62.2869C112.51 62.6184 112.68 63.0161 112.68 63.4801C112.68 63.7926 112.6 64.0791 112.439 64.3395C112.283 64.5952 112.077 64.8011 111.821 64.9574C111.565 65.1089 111.284 65.1847 110.976 65.1847ZM110.976 57.5426C110.507 57.5426 110.105 57.3769 109.768 57.0455C109.437 56.714 109.271 56.3116 109.271 55.8381C109.271 55.3741 109.437 54.9787 109.768 54.652C110.105 54.3205 110.507 54.1548 110.976 54.1548C111.43 54.1548 111.828 54.3205 112.169 54.652C112.51 54.9787 112.68 55.3741 112.68 55.8381C112.68 56.1553 112.6 56.4441 112.439 56.7045C112.283 56.9602 112.077 57.1638 111.821 57.3153C111.565 57.4669 111.284 57.5426 110.976 57.5426Z" fill="#032B3A"/>
<path d="M124.882 65.3196C123.661 65.3149 122.609 65.0142 121.729 64.4176C120.853 63.821 120.178 62.9569 119.705 61.8253C119.236 60.6937 119.004 59.3324 119.009 57.7415C119.009 56.1553 119.243 54.8035 119.712 53.6861C120.185 52.5687 120.86 51.7187 121.736 51.1364C122.616 50.5492 123.665 50.2557 124.882 50.2557C126.099 50.2557 127.145 50.5492 128.021 51.1364C128.902 51.7235 129.579 52.5758 130.053 53.6932C130.526 54.8059 130.76 56.1553 130.756 57.7415C130.756 59.3371 130.519 60.7008 130.045 61.8324C129.577 62.964 128.904 63.8281 128.028 64.4247C127.152 65.0213 126.104 65.3196 124.882 65.3196ZM124.882 62.7699C125.715 62.7699 126.381 62.3509 126.878 61.5128C127.375 60.6747 127.621 59.4176 127.616 57.7415C127.616 56.6383 127.503 55.7197 127.276 54.9858C127.053 54.2519 126.736 53.7003 126.324 53.331C125.917 52.9616 125.436 52.777 124.882 52.777C124.054 52.777 123.391 53.1913 122.893 54.0199C122.396 54.8485 122.145 56.089 122.141 57.7415C122.141 58.8589 122.252 59.7917 122.474 60.5398C122.702 61.2831 123.021 61.8419 123.433 62.2159C123.845 62.5852 124.328 62.7699 124.882 62.7699ZM138.652 65.3196C137.43 65.3149 136.379 65.0142 135.498 64.4176C134.622 63.821 133.948 62.9569 133.474 61.8253C133.005 60.6937 132.773 59.3324 132.778 57.7415C132.778 56.1553 133.012 54.8035 133.481 53.6861C133.955 52.5687 134.629 51.7187 135.505 51.1364C136.386 50.5492 137.435 50.2557 138.652 50.2557C139.868 50.2557 140.915 50.5492 141.791 51.1364C142.672 51.7235 143.349 52.5758 143.822 53.6932C144.296 54.8059 144.53 56.1553 144.525 57.7415C144.525 59.3371 144.288 60.7008 143.815 61.8324C143.346 62.964 142.674 63.8281 141.798 64.4247C140.922 65.0213 139.873 65.3196 138.652 65.3196ZM138.652 62.7699C139.485 62.7699 140.15 62.3509 140.647 61.5128C141.145 60.6747 141.391 59.4176 141.386 57.7415C141.386 56.6383 141.272 55.7197 141.045 54.9858C140.823 54.2519 140.505 53.7003 140.093 53.331C139.686 52.9616 139.206 52.777 138.652 52.777C137.823 52.777 137.16 53.1913 136.663 54.0199C136.166 54.8485 135.915 56.089 135.91 57.7415C135.91 58.8589 136.021 59.7917 136.244 60.5398C136.471 61.2831 136.791 61.8419 137.203 62.2159C137.615 62.5852 138.098 62.7699 138.652 62.7699Z" fill="#032B3A"/>
<path d="M152.976 65.1847C152.507 65.1847 152.105 65.0189 151.768 64.6875C151.437 64.3513 151.271 63.9489 151.271 63.4801C151.271 63.0161 151.437 62.6184 151.768 62.2869C152.105 61.9555 152.507 61.7898 152.976 61.7898C153.43 61.7898 153.828 61.9555 154.169 62.2869C154.51 62.6184 154.68 63.0161 154.68 63.4801C154.68 63.7926 154.6 64.0791 154.439 64.3395C154.283 64.5952 154.077 64.8011 153.821 64.9574C153.565 65.1089 153.284 65.1847 152.976 65.1847ZM152.976 57.5426C152.507 57.5426 152.105 57.3769 151.768 57.0455C151.437 56.714 151.271 56.3116 151.271 55.8381C151.271 55.3741 151.437 54.9787 151.768 54.652C152.105 54.3205 152.507 54.1548 152.976 54.1548C153.43 54.1548 153.828 54.3205 154.169 54.652C154.51 54.9787 154.68 55.3741 154.68 55.8381C154.68 56.1553 154.6 56.4441 154.439 56.7045C154.283 56.9602 154.077 57.1638 153.821 57.3153C153.565 57.4669 153.284 57.5426 152.976 57.5426Z" fill="#032B3A"/>
<path d="M166.882 65.3196C165.661 65.3149 164.609 65.0142 163.729 64.4176C162.853 63.821 162.178 62.9569 161.705 61.8253C161.236 60.6937 161.004 59.3324 161.009 57.7415C161.009 56.1553 161.243 54.8035 161.712 53.6861C162.185 52.5687 162.86 51.7187 163.736 51.1364C164.616 50.5492 165.665 50.2557 166.882 50.2557C168.099 50.2557 169.145 50.5492 170.021 51.1364C170.902 51.7235 171.579 52.5758 172.053 53.6932C172.526 54.8059 172.76 56.1553 172.756 57.7415C172.756 59.3371 172.519 60.7008 172.045 61.8324C171.577 62.964 170.904 63.8281 170.028 64.4247C169.152 65.0213 168.104 65.3196 166.882 65.3196ZM166.882 62.7699C167.715 62.7699 168.381 62.3509 168.878 61.5128C169.375 60.6747 169.621 59.4176 169.616 57.7415C169.616 56.6383 169.503 55.7197 169.276 54.9858C169.053 54.2519 168.736 53.7003 168.324 53.331C167.917 52.9616 167.436 52.777 166.882 52.777C166.054 52.777 165.391 53.1913 164.893 54.0199C164.396 54.8485 164.145 56.089 164.141 57.7415C164.141 58.8589 164.252 59.7917 164.474 60.5398C164.702 61.2831 165.021 61.8419 165.433 62.2159C165.845 62.5852 166.328 62.7699 166.882 62.7699ZM180.652 65.3196C179.43 65.3149 178.379 65.0142 177.498 64.4176C176.622 63.821 175.948 62.9569 175.474 61.8253C175.005 60.6937 174.773 59.3324 174.778 57.7415C174.778 56.1553 175.012 54.8035 175.481 53.6861C175.955 52.5687 176.629 51.7187 177.505 51.1364C178.386 50.5492 179.435 50.2557 180.652 50.2557C181.868 50.2557 182.915 50.5492 183.791 51.1364C184.672 51.7235 185.349 52.5758 185.822 53.6932C186.296 54.8059 186.53 56.1553 186.525 57.7415C186.525 59.3371 186.288 60.7008 185.815 61.8324C185.346 62.964 184.674 63.8281 183.798 64.4247C182.922 65.0213 181.873 65.3196 180.652 65.3196ZM180.652 62.7699C181.485 62.7699 182.15 62.3509 182.647 61.5128C183.145 60.6747 183.391 59.4176 183.386 57.7415C183.386 56.6383 183.272 55.7197 183.045 54.9858C182.823 54.2519 182.505 53.7003 182.093 53.331C181.686 52.9616 181.206 52.777 180.652 52.777C179.823 52.777 179.16 53.1913 178.663 54.0199C178.166 54.8485 177.915 56.089 177.91 57.7415C177.91 58.8589 178.021 59.7917 178.244 60.5398C178.471 61.2831 178.791 61.8419 179.203 62.2159C179.615 62.5852 180.098 62.7699 180.652 62.7699Z" fill="#032B3A"/>
</svg>
