<svg width="224" height="117" viewBox="0 0 224 117" fill="none" xmlns="http://www.w3.org/2000/svg">
<path d="M36.8821 65.3196C35.6605 65.3149 34.6094 65.0142 33.7287 64.4176C32.8527 63.821 32.178 62.9569 31.7045 61.8253C31.2358 60.6937 31.0038 59.3324 31.0085 57.7415C31.0085 56.1553 31.2429 54.8035 31.7116 53.6861C32.1851 52.5687 32.8598 51.7187 33.7358 51.1364C34.6165 50.5492 35.6652 50.2557 36.8821 50.2557C38.099 50.2557 39.1454 50.5492 40.0213 51.1364C40.902 51.7235 41.5791 52.5758 42.0526 53.6932C42.526 54.8059 42.7604 56.1553 42.7557 57.7415C42.7557 59.3371 42.5189 60.7008 42.0455 61.8324C41.5767 62.964 40.9044 63.8281 40.0284 64.4247C39.1525 65.0213 38.1037 65.3196 36.8821 65.3196ZM36.8821 62.7699C37.7154 62.7699 38.3807 62.3509 38.8778 61.5128C39.375 60.6747 39.6212 59.4176 39.6165 57.7415C39.6165 56.6383 39.5028 55.7197 39.2756 54.9858C39.053 54.2519 38.7358 53.7003 38.3239 53.331C37.9167 52.9616 37.4361 52.777 36.8821 52.777C36.0535 52.777 35.3906 53.1913 34.8935 54.0199C34.3963 54.8485 34.1454 56.089 34.1406 57.7415C34.1406 58.8589 34.2519 59.7917 34.4744 60.5398C34.7017 61.2831 35.0213 61.8419 35.4332 62.2159C35.8452 62.5852 36.3281 62.7699 36.8821 62.7699ZM50.6516 65.3196C49.43 65.3149 48.3789 65.0142 47.4982 64.4176C46.6223 63.821 45.9476 62.9569 45.4741 61.8253C45.0053 60.6937 44.7733 59.3324 44.7781 57.7415C44.7781 56.1553 45.0124 54.8035 45.4812 53.6861C45.9547 52.5687 46.6294 51.7187 47.5053 51.1364C48.386 50.5492 49.4348 50.2557 50.6516 50.2557C51.8685 50.2557 52.9149 50.5492 53.7908 51.1364C54.6715 51.7235 55.3486 52.5758 55.8221 53.6932C56.2956 54.8059 56.5299 56.1553 56.5252 57.7415C56.5252 59.3371 56.2885 60.7008 55.815 61.8324C55.3462 62.964 54.6739 63.8281 53.7979 64.4247C52.922 65.0213 51.8732 65.3196 50.6516 65.3196ZM50.6516 62.7699C51.485 62.7699 52.1502 62.3509 52.6474 61.5128C53.1445 60.6747 53.3907 59.4176 53.386 57.7415C53.386 56.6383 53.2724 55.7197 53.0451 54.9858C52.8226 54.2519 52.5053 53.7003 52.0934 53.331C51.6862 52.9616 51.2056 52.777 50.6516 52.777C49.823 52.777 49.1602 53.1913 48.663 54.0199C48.1658 54.8485 47.9149 56.089 47.9102 57.7415C47.9102 58.8589 48.0214 59.7917 48.244 60.5398C48.4712 61.2831 48.7908 61.8419 49.2028 62.2159C49.6147 62.5852 50.0977 62.7699 50.6516 62.7699Z" fill="#032B3A"/>
<path d="M64.9759 65.1847C64.5071 65.1847 64.1046 65.0189 63.7685 64.6875C63.437 64.3513 63.2713 63.9489 63.2713 63.4801C63.2713 63.0161 63.437 62.6184 63.7685 62.2869C64.1046 61.9555 64.5071 61.7898 64.9759 61.7898C65.4304 61.7898 65.8281 61.9555 66.169 62.2869C66.5099 62.6184 66.6804 63.0161 66.6804 63.4801C66.6804 63.7926 66.5999 64.0791 66.4389 64.3395C66.2827 64.5952 66.0767 64.8011 65.821 64.9574C65.5653 65.1089 65.2836 65.1847 64.9759 65.1847ZM64.9759 57.5426C64.5071 57.5426 64.1046 57.3769 63.7685 57.0455C63.437 56.714 63.2713 56.3116 63.2713 55.8381C63.2713 55.3741 63.437 54.9787 63.7685 54.652C64.1046 54.3205 64.5071 54.1548 64.9759 54.1548C65.4304 54.1548 65.8281 54.3205 66.169 54.652C66.5099 54.9787 66.6804 55.3741 66.6804 55.8381C66.6804 56.1553 66.5999 56.4441 66.4389 56.7045C66.2827 56.9602 66.0767 57.1638 65.821 57.3153C65.5653 57.4669 65.2836 57.5426 64.9759 57.5426Z" fill="#032B3A"/>
<path d="M78.8821 65.3196C77.6605 65.3149 76.6094 65.0142 75.7287 64.4176C74.8527 63.821 74.178 62.9569 73.7045 61.8253C73.2358 60.6937 73.0038 59.3324 73.0085 57.7415C73.0085 56.1553 73.2429 54.8035 73.7116 53.6861C74.1851 52.5687 74.8598 51.7187 75.7358 51.1364C76.6165 50.5492 77.6652 50.2557 78.8821 50.2557C80.099 50.2557 81.1454 50.5492 82.0213 51.1364C82.902 51.7235 83.5791 52.5758 84.0526 53.6932C84.526 54.8059 84.7604 56.1553 84.7557 57.7415C84.7557 59.3371 84.5189 60.7008 84.0455 61.8324C83.5767 62.964 82.9044 63.8281 82.0284 64.4247C81.1525 65.0213 80.1037 65.3196 78.8821 65.3196ZM78.8821 62.7699C79.7154 62.7699 80.3807 62.3509 80.8778 61.5128C81.375 60.6747 81.6212 59.4176 81.6165 57.7415C81.6165 56.6383 81.5028 55.7197 81.2756 54.9858C81.053 54.2519 80.7358 53.7003 80.3239 53.331C79.9167 52.9616 79.4361 52.777 78.8821 52.777C78.0535 52.777 77.3906 53.1913 76.8935 54.0199C76.3963 54.8485 76.1454 56.089 76.1406 57.7415C76.1406 58.8589 76.2519 59.7917 76.4744 60.5398C76.7017 61.2831 77.0213 61.8419 77.4332 62.2159C77.8452 62.5852 78.3281 62.7699 78.8821 62.7699ZM92.6516 65.3196C91.43 65.3149 90.3789 65.0142 89.4982 64.4176C88.6223 63.821 87.9476 62.9569 87.4741 61.8253C87.0053 60.6937 86.7733 59.3324 86.7781 57.7415C86.7781 56.1553 87.0124 54.8035 87.4812 53.6861C87.9547 52.5687 88.6294 51.7187 89.5053 51.1364C90.386 50.5492 91.4348 50.2557 92.6516 50.2557C93.8685 50.2557 94.9149 50.5492 95.7908 51.1364C96.6715 51.7235 97.3486 52.5758 97.8221 53.6932C98.2956 54.8059 98.5299 56.1553 98.5252 57.7415C98.5252 59.3371 98.2885 60.7008 97.815 61.8324C97.3462 62.964 96.6739 63.8281 95.7979 64.4247C94.922 65.0213 93.8732 65.3196 92.6516 65.3196ZM92.6516 62.7699C93.485 62.7699 94.1502 62.3509 94.6474 61.5128C95.1445 60.6747 95.3907 59.4176 95.386 57.7415C95.386 56.6383 95.2724 55.7197 95.0451 54.9858C94.8226 54.2519 94.5053 53.7003 94.0934 53.331C93.6862 52.9616 93.2056 52.777 92.6516 52.777C91.823 52.777 91.1602 53.1913 90.663 54.0199C90.1658 54.8485 89.9149 56.089 89.9102 57.7415C89.9102 58.8589 90.0214 59.7917 90.244 60.5398C90.4712 61.2831 90.7908 61.8419 91.2028 62.2159C91.6147 62.5852 92.0977 62.7699 92.6516 62.7699Z" fill="#032B3A"/>
<path d="M106.976 65.1847C106.507 65.1847 106.105 65.0189 105.768 64.6875C105.437 64.3513 105.271 63.9489 105.271 63.4801C105.271 63.0161 105.437 62.6184 105.768 62.2869C106.105 61.9555 106.507 61.7898 106.976 61.7898C107.43 61.7898 107.828 61.9555 108.169 62.2869C108.51 62.6184 108.68 63.0161 108.68 63.4801C108.68 63.7926 108.6 64.0791 108.439 64.3395C108.283 64.5952 108.077 64.8011 107.821 64.9574C107.565 65.1089 107.284 65.1847 106.976 65.1847ZM106.976 57.5426C106.507 57.5426 106.105 57.3769 105.768 57.0455C105.437 56.714 105.271 56.3116 105.271 55.8381C105.271 55.3741 105.437 54.9787 105.768 54.652C106.105 54.3205 106.507 54.1548 106.976 54.1548C107.43 54.1548 107.828 54.3205 108.169 54.652C108.51 54.9787 108.68 55.3741 108.68 55.8381C108.68 56.1553 108.6 56.4441 108.439 56.7045C108.283 56.9602 108.077 57.1638 107.821 57.3153C107.565 57.4669 107.284 57.5426 106.976 57.5426Z" fill="#032B3A"/>
<path d="M120.882 65.3196C119.661 65.3149 118.609 65.0142 117.729 64.4176C116.853 63.821 116.178 62.9569 115.705 61.8253C115.236 60.6937 115.004 59.3324 115.009 57.7415C115.009 56.1553 115.243 54.8035 115.712 53.6861C116.185 52.5687 116.86 51.7187 117.736 51.1364C118.616 50.5492 119.665 50.2557 120.882 50.2557C122.099 50.2557 123.145 50.5492 124.021 51.1364C124.902 51.7235 125.579 52.5758 126.053 53.6932C126.526 54.8059 126.76 56.1553 126.756 57.7415C126.756 59.3371 126.519 60.7008 126.045 61.8324C125.577 62.964 124.904 63.8281 124.028 64.4247C123.152 65.0213 122.104 65.3196 120.882 65.3196ZM120.882 62.7699C121.715 62.7699 122.381 62.3509 122.878 61.5128C123.375 60.6747 123.621 59.4176 123.616 57.7415C123.616 56.6383 123.503 55.7197 123.276 54.9858C123.053 54.2519 122.736 53.7003 122.324 53.331C121.917 52.9616 121.436 52.777 120.882 52.777C120.054 52.777 119.391 53.1913 118.893 54.0199C118.396 54.8485 118.145 56.089 118.141 57.7415C118.141 58.8589 118.252 59.7917 118.474 60.5398C118.702 61.2831 119.021 61.8419 119.433 62.2159C119.845 62.5852 120.328 62.7699 120.882 62.7699ZM134.652 65.3196C133.43 65.3149 132.379 65.0142 131.498 64.4176C130.622 63.821 129.948 62.9569 129.474 61.8253C129.005 60.6937 128.773 59.3324 128.778 57.7415C128.778 56.1553 129.012 54.8035 129.481 53.6861C129.955 52.5687 130.629 51.7187 131.505 51.1364C132.386 50.5492 133.435 50.2557 134.652 50.2557C135.868 50.2557 136.915 50.5492 137.791 51.1364C138.672 51.7235 139.349 52.5758 139.822 53.6932C140.296 54.8059 140.53 56.1553 140.525 57.7415C140.525 59.3371 140.288 60.7008 139.815 61.8324C139.346 62.964 138.674 63.8281 137.798 64.4247C136.922 65.0213 135.873 65.3196 134.652 65.3196ZM134.652 62.7699C135.485 62.7699 136.15 62.3509 136.647 61.5128C137.145 60.6747 137.391 59.4176 137.386 57.7415C137.386 56.6383 137.272 55.7197 137.045 54.9858C136.823 54.2519 136.505 53.7003 136.093 53.331C135.686 52.9616 135.206 52.777 134.652 52.777C133.823 52.777 133.16 53.1913 132.663 54.0199C132.166 54.8485 131.915 56.089 131.91 57.7415C131.91 58.8589 132.021 59.7917 132.244 60.5398C132.471 61.2831 132.791 61.8419 133.203 62.2159C133.615 62.5852 134.098 62.7699 134.652 62.7699Z" fill="#032B3A"/>
<path d="M148.976 65.1847C148.507 65.1847 148.105 65.0189 147.768 64.6875C147.437 64.3513 147.271 63.9489 147.271 63.4801C147.271 63.0161 147.437 62.6184 147.768 62.2869C148.105 61.9555 148.507 61.7898 148.976 61.7898C149.43 61.7898 149.828 61.9555 150.169 62.2869C150.51 62.6184 150.68 63.0161 150.68 63.4801C150.68 63.7926 150.6 64.0791 150.439 64.3395C150.283 64.5952 150.077 64.8011 149.821 64.9574C149.565 65.1089 149.284 65.1847 148.976 65.1847ZM148.976 57.5426C148.507 57.5426 148.105 57.3769 147.768 57.0455C147.437 56.714 147.271 56.3116 147.271 55.8381C147.271 55.3741 147.437 54.9787 147.768 54.652C148.105 54.3205 148.507 54.1548 148.976 54.1548C149.43 54.1548 149.828 54.3205 150.169 54.652C150.51 54.9787 150.68 55.3741 150.68 55.8381C150.68 56.1553 150.6 56.4441 150.439 56.7045C150.283 56.9602 150.077 57.1638 149.821 57.3153C149.565 57.4669 149.284 57.5426 148.976 57.5426Z" fill="#032B3A"/>
<path d="M162.882 65.3196C161.661 65.3149 160.609 65.0142 159.729 64.4176C158.853 63.821 158.178 62.9569 157.705 61.8253C157.236 60.6937 157.004 59.3324 157.009 57.7415C157.009 56.1553 157.243 54.8035 157.712 53.6861C158.185 52.5687 158.86 51.7187 159.736 51.1364C160.616 50.5492 161.665 50.2557 162.882 50.2557C164.099 50.2557 165.145 50.5492 166.021 51.1364C166.902 51.7235 167.579 52.5758 168.053 53.6932C168.526 54.8059 168.76 56.1553 168.756 57.7415C168.756 59.3371 168.519 60.7008 168.045 61.8324C167.577 62.964 166.904 63.8281 166.028 64.4247C165.152 65.0213 164.104 65.3196 162.882 65.3196ZM162.882 62.7699C163.715 62.7699 164.381 62.3509 164.878 61.5128C165.375 60.6747 165.621 59.4176 165.616 57.7415C165.616 56.6383 165.503 55.7197 165.276 54.9858C165.053 54.2519 164.736 53.7003 164.324 53.331C163.917 52.9616 163.436 52.777 162.882 52.777C162.054 52.777 161.391 53.1913 160.893 54.0199C160.396 54.8485 160.145 56.089 160.141 57.7415C160.141 58.8589 160.252 59.7917 160.474 60.5398C160.702 61.2831 161.021 61.8419 161.433 62.2159C161.845 62.5852 162.328 62.7699 162.882 62.7699ZM176.652 65.3196C175.43 65.3149 174.379 65.0142 173.498 64.4176C172.622 63.821 171.948 62.9569 171.474 61.8253C171.005 60.6937 170.773 59.3324 170.778 57.7415C170.778 56.1553 171.012 54.8035 171.481 53.6861C171.955 52.5687 172.629 51.7187 173.505 51.1364C174.386 50.5492 175.435 50.2557 176.652 50.2557C177.868 50.2557 178.915 50.5492 179.791 51.1364C180.672 51.7235 181.349 52.5758 181.822 53.6932C182.296 54.8059 182.53 56.1553 182.525 57.7415C182.525 59.3371 182.288 60.7008 181.815 61.8324C181.346 62.964 180.674 63.8281 179.798 64.4247C178.922 65.0213 177.873 65.3196 176.652 65.3196ZM176.652 62.7699C177.485 62.7699 178.15 62.3509 178.647 61.5128C179.145 60.6747 179.391 59.4176 179.386 57.7415C179.386 56.6383 179.272 55.7197 179.045 54.9858C178.823 54.2519 178.505 53.7003 178.093 53.331C177.686 52.9616 177.206 52.777 176.652 52.777C175.823 52.777 175.16 53.1913 174.663 54.0199C174.166 54.8485 173.915 56.089 173.91 57.7415C173.91 58.8589 174.021 59.7917 174.244 60.5398C174.471 61.2831 174.791 61.8419 175.203 62.2159C175.615 62.5852 176.098 62.7699 176.652 62.7699Z" fill="#032B3A"/>
</svg>
