<svg width="224" height="117" viewBox="0 0 224 117" fill="none" xmlns="http://www.w3.org/2000/svg">
<path d="M32 18C32 15.7909 33.7909 14 36 14H188C190.209 14 192 15.7909 192 18V100C192 102.209 190.209 104 188 104H36C33.7909 104 32 102.209 32 100V18Z" fill="#DADFE2"/>
<path d="M41.3536 17.6464C41.1583 17.4512 40.8417 17.4512 40.6464 17.6464L37.4645 20.8284C37.2692 21.0237 37.2692 21.3403 37.4645 21.5355C37.6597 21.7308 37.9763 21.7308 38.1716 21.5355L41 18.7071L43.8284 21.5355C44.0237 21.7308 44.3403 21.7308 44.5355 21.5355C44.7308 21.3403 44.7308 21.0237 44.5355 20.8284L41.3536 17.6464ZM40.6464 100.354C40.8417 100.549 41.1583 100.549 41.3536 100.354L44.5355 97.1716C44.7308 96.9763 44.7308 96.6597 44.5355 96.4645C44.3403 96.2692 44.0237 96.2692 43.8284 96.4645L41 99.2929L38.1716 96.4645C37.9763 96.2692 37.6597 96.2692 37.4645 96.4645C37.2692 96.6597 37.2692 96.9763 37.4645 97.1716L40.6464 100.354ZM40.5 22.1C40.5 22.3761 40.7239 22.6 41 22.6C41.2761 22.6 41.5 22.3761 41.5 22.1L40.5 22.1ZM41.5 30.3C41.5 30.0239 41.2761 29.8 41 29.8C40.7239 29.8 40.5 30.0239 40.5 30.3L41.5 30.3ZM40.5 38.5C40.5 38.7761 40.7239 39 41 39C41.2761 39 41.5 38.7761 41.5 38.5L40.5 38.5ZM41.5 46.7C41.5 46.4239 41.2761 46.2 41 46.2C40.7239 46.2 40.5 46.4239 40.5 46.7L41.5 46.7ZM40.5 54.9C40.5 55.1761 40.7239 55.4 41 55.4C41.2761 55.4 41.5 55.1761 41.5 54.9L40.5 54.9ZM41.5 63.1C41.5 62.8239 41.2761 62.6 41 62.6C40.7239 62.6 40.5 62.8239 40.5 63.1L41.5 63.1ZM40.5 71.3C40.5 71.5761 40.7239 71.8 41 71.8C41.2761 71.8 41.5 71.5761 41.5 71.3L40.5 71.3ZM41.5 79.5C41.5 79.2239 41.2761 79 41 79C40.7239 79 40.5 79.2239 40.5 79.5L41.5 79.5ZM40.5 87.7C40.5 87.9761 40.7239 88.2 41 88.2C41.2761 88.2 41.5 87.9761 41.5 87.7L40.5 87.7ZM41.5 95.9C41.5 95.6239 41.2761 95.4 41 95.4C40.7239 95.4 40.5 95.6239 40.5 95.9L41.5 95.9ZM41 18L40.5 18L40.5 22.1L41 22.1L41.5 22.1L41.5 18L41 18ZM41 30.3L40.5 30.3L40.5 38.5L41 38.5L41.5 38.5L41.5 30.3L41 30.3ZM41 46.7L40.5 46.7L40.5 54.9L41 54.9L41.5 54.9L41.5 46.7L41 46.7ZM41 63.1L40.5 63.1L40.5 71.3L41 71.3L41.5 71.3L41.5 63.1L41 63.1ZM41 79.5L40.5 79.5L40.5 87.7L41 87.7L41.5 87.7L41.5 79.5L41 79.5ZM41 95.9L40.5 95.9L40.5 100L41 100L41.5 100L41.5 95.9L41 95.9Z" fill="#5D757E"/>
</svg>
