<svg width="224" height="117" viewBox="0 0 224 117" fill="none" xmlns="http://www.w3.org/2000/svg">
<path d="M36 14.5H188C189.933 14.5 191.5 16.067 191.5 18V100C191.5 101.933 189.933 103.5 188 103.5H36C34.067 103.5 32.5 101.933 32.5 100V18C32.5 16.067 34.067 14.5 36 14.5Z" stroke="#DADFE2"/>
<path d="M80 53C80 50.7909 81.7909 49 84 49H141C143.209 49 145 50.7909 145 53V65C145 67.2091 143.209 69 141 69H84C81.7909 69 80 67.2091 80 65V53Z" fill="#233D48"/>
<rect x="94" y="90" width="37" height="8" rx="3" fill="#5D757E"/>
<rect x="102" y="20" width="21" height="8" rx="3" fill="#5D757E"/>
</svg>
