<svg width="224" height="117" viewBox="0 0 224 117" fill="none" xmlns="http://www.w3.org/2000/svg">
<g clip-path="url(#clip0_3_6506)">
<g clip-path="url(#clip1_3_6506)">
<path d="M14.8367 11.3352C14.8367 9.49322 16.3299 8 18.1719 8H205.828C207.67 8 209.164 9.49322 209.164 11.3352V152.665C209.164 154.507 207.67 156 205.828 156H18.1719C16.3299 156 14.8367 154.507 14.8367 152.665V11.3352Z" fill="white"/>
<g clip-path="url(#clip2_3_6506)">
<rect x="21.6012" y="14.7646" width="36.5485" height="15.9889" rx="7.99446" fill="white"/>
<rect x="21.6012" y="14.7646" width="36.5485" height="15.9889" rx="7.99446" stroke="#DADFE2" stroke-width="0.409972"/>
<path d="M28.4144 24.259V20.0847H31.0029V20.6269H29.0442V21.8988H30.8175V22.4389H29.0442V24.259H28.4144ZM31.7285 24.259V21.1283H32.338V24.259H31.7285ZM32.0363 20.6452C31.9303 20.6452 31.8393 20.6099 31.7632 20.5393C31.6885 20.4672 31.6511 20.3816 31.6511 20.2824C31.6511 20.1819 31.6885 20.0963 31.7632 20.0256C31.8393 19.9536 31.9303 19.9176 32.0363 19.9176C32.1423 19.9176 32.2327 19.9536 32.3074 20.0256C32.3835 20.0963 32.4215 20.1819 32.4215 20.2824C32.4215 20.3816 32.3835 20.4672 32.3074 20.5393C32.2327 20.6099 32.1423 20.6452 32.0363 20.6452ZM33.7673 20.0847V24.259H33.1578V20.0847H33.7673ZM36.0485 21.1283V21.6175H34.3385V21.1283H36.0485ZM34.7971 20.3782H35.4065V23.3398C35.4065 23.458 35.4242 23.547 35.4595 23.6068C35.4948 23.6652 35.5403 23.7053 35.5961 23.727C35.6531 23.7474 35.715 23.7576 35.7815 23.7576C35.8305 23.7576 35.8733 23.7542 35.9099 23.7474C35.9466 23.7406 35.9752 23.7352 35.9955 23.7311L36.1056 24.2345C36.0703 24.2481 36.02 24.2617 35.9548 24.2753C35.8896 24.2903 35.808 24.2984 35.7102 24.2998C35.5499 24.3025 35.4004 24.2739 35.2618 24.2142C35.1232 24.1544 35.0111 24.062 34.9255 23.937C34.8399 23.812 34.7971 23.655 34.7971 23.4661V20.3782ZM38.0383 24.3222C37.7299 24.3222 37.4643 24.2563 37.2414 24.1245C37.0199 23.9913 36.8487 23.8045 36.7278 23.564C36.6082 23.3221 36.5484 23.0388 36.5484 22.714C36.5484 22.3934 36.6082 22.1107 36.7278 21.8661C36.8487 21.6216 37.0172 21.4306 37.2333 21.2934C37.4507 21.1562 37.7048 21.0875 37.9955 21.0875C38.1722 21.0875 38.3434 21.1168 38.5092 21.1752C38.675 21.2336 38.8237 21.3253 38.9555 21.4503C39.0873 21.5754 39.1913 21.7377 39.2674 21.9375C39.3435 22.1359 39.3815 22.3771 39.3815 22.661V22.8771H36.8929V22.4205H38.7843C38.7843 22.2602 38.7517 22.1182 38.6865 21.9945C38.6213 21.8695 38.5296 21.771 38.4113 21.699C38.2945 21.627 38.1572 21.591 37.9996 21.591C37.8284 21.591 37.6789 21.6331 37.5512 21.7173C37.4248 21.8002 37.327 21.9089 37.2577 22.0435C37.1898 22.1766 37.1558 22.3213 37.1558 22.4776V22.8343C37.1558 23.0435 37.1925 23.2216 37.2659 23.3683C37.3406 23.5151 37.4445 23.6272 37.5777 23.7046C37.7109 23.7807 37.8665 23.8187 38.0445 23.8187C38.16 23.8187 38.2653 23.8024 38.3604 23.7698C38.4555 23.7359 38.5377 23.6856 38.607 23.619C38.6763 23.5524 38.7293 23.4702 38.766 23.3724L39.3428 23.4763C39.2966 23.6462 39.2137 23.795 39.0941 23.9227C38.9759 24.0491 38.8271 24.1476 38.6478 24.2182C38.4698 24.2875 38.2666 24.3222 38.0383 24.3222ZM40.0577 24.259V21.1283H40.6468V21.6256H40.6794C40.7364 21.4571 40.837 21.3247 40.981 21.2282C41.1264 21.1303 41.2908 21.0814 41.4743 21.0814C41.5123 21.0814 41.5572 21.0828 41.6088 21.0855C41.6618 21.0882 41.7032 21.0916 41.7331 21.0957V21.6786C41.7087 21.6718 41.6652 21.6644 41.6027 21.6562C41.5402 21.6467 41.4777 21.6419 41.4152 21.6419C41.2711 21.6419 41.1427 21.6725 41.0299 21.7337C40.9185 21.7934 40.8302 21.877 40.765 21.9844C40.6997 22.0903 40.6671 22.2113 40.6671 22.3472V24.259H40.0577Z" fill="#233D48"/>
<rect x="45.2356" y="17.8394" width="9.83934" height="9.83934" rx="4.91967" fill="white"/>
<path d="M50.1554 20.8458C50.0044 20.8458 49.8821 20.9682 49.8821 21.1191V22.4857H48.5155C48.3646 22.4857 48.2422 22.6081 48.2422 22.759C48.2422 22.91 48.3646 23.0323 48.5155 23.0323H49.8821V24.3989C49.8821 24.5499 50.0044 24.6722 50.1554 24.6722C50.3063 24.6722 50.4287 24.5499 50.4287 24.3989V23.0323H51.7953C51.9462 23.0323 52.0686 22.91 52.0686 22.759C52.0686 22.6081 51.9462 22.4857 51.7953 22.4857H50.4287V21.1191C50.4287 20.9682 50.3063 20.8458 50.1554 20.8458Z" fill="#233D48"/>
<rect x="61.6345" y="14.5596" width="78.0886" height="16.3989" rx="8.19945" fill="#F1F0E9"/>
<path d="M70.8743 21.2323C70.8553 21.0542 70.7752 20.9157 70.6338 20.8165C70.4939 20.7173 70.3118 20.6677 70.0876 20.6677C69.93 20.6677 69.7948 20.6914 69.682 20.739C69.5692 20.7866 69.4829 20.8511 69.4231 20.9326C69.3633 21.0142 69.3328 21.1072 69.3314 21.2119C69.3314 21.2988 69.3511 21.3742 69.3905 21.4381C69.4313 21.502 69.4863 21.5563 69.5556 21.6012C69.6249 21.6447 69.7017 21.6813 69.7859 21.7112C69.8702 21.7411 69.9551 21.7663 70.0407 21.7866L70.4321 21.8845C70.5897 21.9212 70.7412 21.9708 70.8866 22.0333C71.0333 22.0958 71.1645 22.1746 71.2799 22.2697C71.3968 22.3648 71.4892 22.4796 71.5571 22.6142C71.6251 22.7487 71.6591 22.9063 71.6591 23.087C71.6591 23.3316 71.5966 23.547 71.4715 23.7331C71.3465 23.9179 71.1658 24.0627 70.9294 24.1673C70.6943 24.2706 70.4096 24.3222 70.0754 24.3222C69.7506 24.3222 69.4687 24.2719 69.2295 24.1714C68.9917 24.0708 68.8056 23.9241 68.671 23.7311C68.5379 23.5382 68.4659 23.3031 68.455 23.0259H69.1989C69.2098 23.1713 69.2546 23.2922 69.3335 23.3887C69.4123 23.4852 69.5149 23.5572 69.6412 23.6047C69.769 23.6523 69.9116 23.6761 70.0692 23.6761C70.2337 23.6761 70.3777 23.6516 70.5014 23.6027C70.6264 23.5524 70.7242 23.4831 70.7949 23.3948C70.8655 23.3051 70.9015 23.2005 70.9029 23.0809C70.9015 22.9722 70.8696 22.8825 70.8071 22.8119C70.7446 22.7399 70.6569 22.6801 70.5442 22.6325C70.4327 22.5836 70.3023 22.5401 70.1528 22.5021L69.6779 22.3798C69.3341 22.2914 69.0624 22.1576 68.8626 21.9782C68.6642 21.7975 68.565 21.5577 68.565 21.2588C68.565 21.0128 68.6316 20.7974 68.7648 20.6126C68.8993 20.4278 69.0821 20.2845 69.3131 20.1826C69.5441 20.0793 69.8056 20.0277 70.0978 20.0277C70.394 20.0277 70.6535 20.0793 70.8764 20.1826C71.1006 20.2845 71.2766 20.4265 71.4043 20.6086C71.532 20.7893 71.5979 20.9972 71.602 21.2323H70.8743ZM73.6866 24.3201C73.3727 24.3201 73.1016 24.2549 72.8733 24.1245C72.6464 23.9927 72.4718 23.8065 72.3495 23.566C72.2272 23.3241 72.1661 23.0395 72.1661 22.712C72.1661 22.39 72.2272 22.1073 72.3495 21.8641C72.4732 21.6195 72.6457 21.4293 72.8672 21.2934C73.0887 21.1562 73.3489 21.0875 73.6478 21.0875C73.8408 21.0875 74.0229 21.1188 74.1941 21.1813C74.3667 21.2424 74.5188 21.3376 74.6506 21.4666C74.7838 21.5957 74.8884 21.7602 74.9645 21.9599C75.0406 22.1583 75.0787 22.3947 75.0787 22.6692V22.8954H72.5126V22.3981H74.3714C74.3701 22.2568 74.3395 22.1311 74.2797 22.021C74.2199 21.9096 74.1363 21.822 74.029 21.7581C73.923 21.6942 73.7994 21.6623 73.658 21.6623C73.5072 21.6623 73.3747 21.699 73.2606 21.7724C73.1464 21.8444 73.0574 21.9395 72.9936 22.0577C72.9311 22.1746 72.8991 22.303 72.8978 22.443V22.8771C72.8978 23.0592 72.9311 23.2154 72.9977 23.3459C73.0642 23.475 73.1573 23.5742 73.2769 23.6435C73.3965 23.7114 73.5364 23.7454 73.6968 23.7454C73.8041 23.7454 73.9013 23.7304 73.9882 23.7005C74.0752 23.6693 74.1506 23.6238 74.2145 23.564C74.2783 23.5042 74.3266 23.4301 74.3592 23.3418L75.0481 23.4193C75.0046 23.6013 74.9217 23.7603 74.7994 23.8962C74.6785 24.0307 74.5236 24.1354 74.3347 24.2101C74.1458 24.2835 73.9298 24.3201 73.6866 24.3201ZM76.4407 20.0847V24.259H75.7029V20.0847H76.4407ZM78.5854 24.3201C78.2715 24.3201 78.0005 24.2549 77.7722 24.1245C77.5453 23.9927 77.3706 23.8065 77.2484 23.566C77.1261 23.3241 77.0649 23.0395 77.0649 22.712C77.0649 22.39 77.1261 22.1073 77.2484 21.8641C77.372 21.6195 77.5446 21.4293 77.7661 21.2934C77.9875 21.1562 78.2478 21.0875 78.5467 21.0875C78.7396 21.0875 78.9217 21.1188 79.0929 21.1813C79.2655 21.2424 79.4177 21.3376 79.5495 21.4666C79.6827 21.5957 79.7873 21.7602 79.8634 21.9599C79.9395 22.1583 79.9775 22.3947 79.9775 22.6692V22.8954H77.4114V22.3981H79.2703C79.2689 22.2568 79.2383 22.1311 79.1785 22.021C79.1188 21.9096 79.0352 21.822 78.9278 21.7581C78.8219 21.6942 78.6982 21.6623 78.5569 21.6623C78.4061 21.6623 78.2736 21.699 78.1594 21.7724C78.0453 21.8444 77.9563 21.9395 77.8924 22.0577C77.8299 22.1746 77.798 22.303 77.7966 22.443V22.8771C77.7966 23.0592 77.8299 23.2154 77.8965 23.3459C77.9631 23.475 78.0562 23.5742 78.1757 23.6435C78.2953 23.7114 78.4353 23.7454 78.5956 23.7454C78.703 23.7454 78.8001 23.7304 78.8871 23.7005C78.974 23.6693 79.0495 23.6238 79.1133 23.564C79.1772 23.5042 79.2254 23.4301 79.258 23.3418L79.9469 23.4193C79.9035 23.6013 79.8206 23.7603 79.6983 23.8962C79.5774 24.0307 79.4224 24.1354 79.2336 24.2101C79.0447 24.2835 78.8286 24.3201 78.5854 24.3201ZM81.9673 24.3201C81.6548 24.3201 81.3864 24.2515 81.1622 24.1143C80.9394 23.977 80.7675 23.7875 80.6466 23.5456C80.527 23.3024 80.4672 23.0225 80.4672 22.7059C80.4672 22.3879 80.5283 22.1073 80.6506 21.8641C80.7729 21.6195 80.9455 21.4293 81.1683 21.2934C81.3926 21.1562 81.6575 21.0875 81.9633 21.0875C82.2173 21.0875 82.4422 21.1344 82.6379 21.2282C82.8349 21.3206 82.9919 21.4517 83.1087 21.6216C83.2256 21.79 83.2922 21.9871 83.3085 22.2126H82.6033C82.5747 22.0618 82.5068 21.9361 82.3994 21.8356C82.2934 21.7337 82.1514 21.6827 81.9734 21.6827C81.8226 21.6827 81.6901 21.7235 81.576 21.805C81.4619 21.8852 81.3728 22.0007 81.309 22.1515C81.2465 22.3023 81.2152 22.483 81.2152 22.6937C81.2152 22.907 81.2465 23.0904 81.309 23.244C81.3715 23.3962 81.4591 23.5137 81.5719 23.5966C81.6861 23.6781 81.8199 23.7189 81.9734 23.7189C82.0821 23.7189 82.1793 23.6985 82.2649 23.6577C82.3519 23.6156 82.4246 23.5551 82.483 23.4763C82.5414 23.3975 82.5815 23.3017 82.6033 23.1889H83.3085C83.2908 23.4104 83.2256 23.6068 83.1128 23.778C83 23.9478 82.8465 24.081 82.6522 24.1775C82.4579 24.2726 82.2296 24.3201 81.9673 24.3201ZM85.4776 21.1283V21.699H83.6779V21.1283H85.4776ZM84.1222 20.3782H84.8601V23.3173C84.8601 23.4165 84.875 23.4926 84.9049 23.5456C84.9362 23.5973 84.9769 23.6326 85.0272 23.6516C85.0775 23.6706 85.1332 23.6801 85.1943 23.6801C85.2405 23.6801 85.2827 23.6768 85.3207 23.67C85.3601 23.6632 85.39 23.657 85.4104 23.6516L85.5347 24.2284C85.4953 24.242 85.4389 24.257 85.3655 24.2733C85.2935 24.2896 85.2052 24.2991 85.1006 24.3018C84.9158 24.3072 84.7493 24.2794 84.6012 24.2182C84.4531 24.1557 84.3356 24.0593 84.2486 23.9288C84.163 23.7984 84.1209 23.6353 84.1222 23.4396V20.3782ZM87.4471 24.3201C87.1332 24.3201 86.8621 24.2549 86.6338 24.1245C86.4069 23.9927 86.2323 23.8065 86.11 23.566C85.9877 23.3241 85.9266 23.0395 85.9266 22.712C85.9266 22.39 85.9877 22.1073 86.11 21.8641C86.2337 21.6195 86.4062 21.4293 86.6277 21.2934C86.8492 21.1562 87.1094 21.0875 87.4083 21.0875C87.6013 21.0875 87.7834 21.1188 87.9546 21.1813C88.1272 21.2424 88.2793 21.3376 88.4111 21.4666C88.5443 21.5957 88.6489 21.7602 88.725 21.9599C88.8011 22.1583 88.8392 22.3947 88.8392 22.6692V22.8954H86.2731V22.3981H88.1319C88.1305 22.2568 88.1 22.1311 88.0402 22.021C87.9804 21.9096 87.8968 21.822 87.7895 21.7581C87.6835 21.6942 87.5598 21.6623 87.4185 21.6623C87.2677 21.6623 87.1352 21.699 87.0211 21.7724C86.9069 21.8444 86.8179 21.9395 86.7541 22.0577C86.6916 22.1746 86.6596 22.303 86.6583 22.443V22.8771C86.6583 23.0592 86.6916 23.2154 86.7582 23.3459C86.8247 23.475 86.9178 23.5742 87.0374 23.6435C87.157 23.7114 87.2969 23.7454 87.4573 23.7454C87.5646 23.7454 87.6618 23.7304 87.7487 23.7005C87.8357 23.6693 87.9111 23.6238 87.975 23.564C88.0388 23.5042 88.0871 23.4301 88.1197 23.3418L88.8086 23.4193C88.7651 23.6013 88.6822 23.7603 88.5599 23.8962C88.439 24.0307 88.2841 24.1354 88.0952 24.2101C87.9063 24.2835 87.6903 24.3201 87.4471 24.3201ZM90.6252 24.314C90.3792 24.314 90.1591 24.2508 89.9648 24.1245C89.7705 23.9981 89.6169 23.8147 89.5041 23.5742C89.3914 23.3337 89.335 23.0415 89.335 22.6977C89.335 22.3499 89.392 22.0564 89.5062 21.8172C89.6217 21.5767 89.7773 21.3953 89.9729 21.273C90.1686 21.1494 90.3867 21.0875 90.6272 21.0875C90.8106 21.0875 90.9615 21.1188 91.0797 21.1813C91.1979 21.2424 91.2916 21.3165 91.3609 21.4035C91.4302 21.4891 91.4839 21.5699 91.522 21.646H91.5525V20.0847H92.2924V24.259H91.5668V23.7658H91.522C91.4839 23.8418 91.4289 23.9227 91.3569 24.0083C91.2849 24.0925 91.1897 24.1646 91.0715 24.2244C90.9533 24.2841 90.8045 24.314 90.6252 24.314ZM90.831 23.7087C90.9873 23.7087 91.1204 23.6666 91.2305 23.5823C91.3406 23.4967 91.4241 23.3778 91.4812 23.2256C91.5383 23.0734 91.5668 22.8961 91.5668 22.6937C91.5668 22.4912 91.5383 22.3152 91.4812 22.1658C91.4255 22.0163 91.3426 21.9001 91.2325 21.8172C91.1238 21.7343 90.99 21.6929 90.831 21.6929C90.6666 21.6929 90.5294 21.7357 90.4193 21.8213C90.3092 21.9069 90.2263 22.0251 90.1706 22.1759C90.1149 22.3268 90.0871 22.4993 90.0871 22.6937C90.0871 22.8893 90.1149 23.0639 90.1706 23.2175C90.2277 23.3697 90.3113 23.4899 90.4213 23.5782C90.5328 23.6652 90.6693 23.7087 90.831 23.7087ZM96.0881 21.1283V21.699H94.2374V21.1283H96.0881ZM94.7001 24.259V20.8328C94.7001 20.6221 94.7435 20.4469 94.8305 20.3069C94.9188 20.1669 95.037 20.0623 95.1851 19.993C95.3333 19.9237 95.4977 19.8891 95.6784 19.8891C95.8061 19.8891 95.9196 19.8993 96.0188 19.9196C96.118 19.94 96.1913 19.9584 96.2389 19.9747L96.0922 20.5454C96.0609 20.5359 96.0215 20.5264 95.9739 20.5168C95.9264 20.506 95.8734 20.5005 95.815 20.5005C95.6777 20.5005 95.5806 20.5338 95.5235 20.6004C95.4678 20.6656 95.4399 20.7594 95.4399 20.8817V24.259H94.7001ZM96.6659 24.259V21.1283H97.4037V24.259H96.6659ZM97.0369 20.684C96.92 20.684 96.8195 20.6452 96.7352 20.5678C96.651 20.489 96.6088 20.3945 96.6088 20.2845C96.6088 20.1731 96.651 20.0786 96.7352 20.0012C96.8195 19.9224 96.92 19.883 97.0369 19.883C97.1551 19.883 97.2556 19.9224 97.3385 20.0012C97.4228 20.0786 97.4649 20.1731 97.4649 20.2845C97.4649 20.3945 97.4228 20.489 97.3385 20.5678C97.2556 20.6452 97.1551 20.684 97.0369 20.684ZM98.9003 20.0847V24.259H98.1625V20.0847H98.9003ZM101.222 21.1283V21.699H99.4226V21.1283H101.222ZM99.8669 20.3782H100.605V23.3173C100.605 23.4165 100.62 23.4926 100.65 23.5456C100.681 23.5973 100.722 23.6326 100.772 23.6516C100.822 23.6706 100.878 23.6801 100.939 23.6801C100.985 23.6801 101.027 23.6768 101.065 23.67C101.105 23.6632 101.135 23.657 101.155 23.6516L101.279 24.2284C101.24 24.242 101.184 24.257 101.11 24.2733C101.038 24.2896 100.95 24.2991 100.845 24.3018C100.66 24.3072 100.494 24.2794 100.346 24.2182C100.198 24.1557 100.08 24.0593 99.9933 23.9288C99.9077 23.7984 99.8656 23.6353 99.8669 23.4396V20.3782ZM103.192 24.3201C102.878 24.3201 102.607 24.2549 102.379 24.1245C102.152 23.9927 101.977 23.8065 101.855 23.566C101.732 23.3241 101.671 23.0395 101.671 22.712C101.671 22.39 101.732 22.1073 101.855 21.8641C101.978 21.6195 102.151 21.4293 102.372 21.2934C102.594 21.1562 102.854 21.0875 103.153 21.0875C103.346 21.0875 103.528 21.1188 103.699 21.1813C103.872 21.2424 104.024 21.3376 104.156 21.4666C104.289 21.5957 104.394 21.7602 104.47 21.9599C104.546 22.1583 104.584 22.3947 104.584 22.6692V22.8954H102.018V22.3981H103.877C103.875 22.2568 103.845 22.1311 103.785 22.021C103.725 21.9096 103.642 21.822 103.534 21.7581C103.428 21.6942 103.305 21.6623 103.163 21.6623C103.012 21.6623 102.88 21.699 102.766 21.7724C102.652 21.8444 102.563 21.9395 102.499 22.0577C102.436 22.1746 102.404 22.303 102.403 22.443V22.8771C102.403 23.0592 102.436 23.2154 102.503 23.3459C102.569 23.475 102.663 23.5742 102.782 23.6435C102.902 23.7114 103.042 23.7454 103.202 23.7454C103.309 23.7454 103.406 23.7304 103.493 23.7005C103.58 23.6693 103.656 23.6238 103.72 23.564C103.784 23.5042 103.832 23.4301 103.864 23.3418L104.553 23.4193C104.51 23.6013 104.427 23.7603 104.305 23.8962C104.184 24.0307 104.029 24.1354 103.84 24.2101C103.651 24.2835 103.435 24.3201 103.192 24.3201ZM105.208 24.259V21.1283H105.923V21.6501H105.956C106.013 21.4694 106.111 21.3301 106.25 21.2323C106.39 21.1331 106.549 21.0835 106.729 21.0835C106.769 21.0835 106.815 21.0855 106.865 21.0896C106.917 21.0923 106.96 21.0971 106.994 21.1038V21.7826C106.962 21.7717 106.913 21.7622 106.845 21.754C106.778 21.7445 106.714 21.7398 106.651 21.7398C106.517 21.7398 106.396 21.769 106.288 21.8274C106.182 21.8845 106.099 21.964 106.038 22.0659C105.976 22.1678 105.946 22.2853 105.946 22.4185V24.259H105.208Z" fill="#233D48"/>
<rect x="110.474" y="18.6593" width="0.409972" height="8.19945" fill="#84979F"/>
<path d="M114.622 24.259V20.0847H117.211V20.6269H115.252V21.8988H117.025V22.4389H115.252V24.259H114.622ZM117.936 24.259V21.1283H118.546V24.259H117.936ZM118.244 20.6452C118.138 20.6452 118.047 20.6099 117.971 20.5393C117.896 20.4672 117.859 20.3816 117.859 20.2824C117.859 20.1819 117.896 20.0963 117.971 20.0256C118.047 19.9536 118.138 19.9176 118.244 19.9176C118.35 19.9176 118.44 19.9536 118.515 20.0256C118.591 20.0963 118.629 20.1819 118.629 20.2824C118.629 20.3816 118.591 20.4672 118.515 20.5393C118.44 20.6099 118.35 20.6452 118.244 20.6452ZM119.975 20.0847V24.259H119.366V20.0847H119.975ZM122.256 21.1283V21.6175H120.546V21.1283H122.256ZM121.005 20.3782H121.614V23.3398C121.614 23.458 121.632 23.547 121.667 23.6068C121.703 23.6652 121.748 23.7053 121.804 23.727C121.861 23.7474 121.923 23.7576 121.989 23.7576C122.038 23.7576 122.081 23.7542 122.118 23.7474C122.154 23.7406 122.183 23.7352 122.203 23.7311L122.313 24.2345C122.278 24.2481 122.228 24.2617 122.163 24.2753C122.097 24.2903 122.016 24.2984 121.918 24.2998C121.758 24.3025 121.608 24.2739 121.47 24.2142C121.331 24.1544 121.219 24.062 121.133 23.937C121.048 23.812 121.005 23.655 121.005 23.4661V20.3782ZM124.246 24.3222C123.938 24.3222 123.672 24.2563 123.449 24.1245C123.228 23.9913 123.056 23.8045 122.936 23.564C122.816 23.3221 122.756 23.0388 122.756 22.714C122.756 22.3934 122.816 22.1107 122.936 21.8661C123.056 21.6216 123.225 21.4306 123.441 21.2934C123.658 21.1562 123.913 21.0875 124.203 21.0875C124.38 21.0875 124.551 21.1168 124.717 21.1752C124.883 21.2336 125.032 21.3253 125.163 21.4503C125.295 21.5754 125.399 21.7377 125.475 21.9375C125.551 22.1359 125.589 22.3771 125.589 22.661V22.8771H123.101V22.4205H124.992C124.992 22.2602 124.959 22.1182 124.894 21.9945C124.829 21.8695 124.737 21.771 124.619 21.699C124.502 21.627 124.365 21.591 124.207 21.591C124.036 21.591 123.887 21.6331 123.759 21.7173C123.633 21.8002 123.535 21.9089 123.465 22.0435C123.398 22.1766 123.364 22.3213 123.364 22.4776V22.8343C123.364 23.0435 123.4 23.2216 123.474 23.3683C123.548 23.5151 123.652 23.6272 123.785 23.7046C123.919 23.7807 124.074 23.8187 124.252 23.8187C124.368 23.8187 124.473 23.8024 124.568 23.7698C124.663 23.7359 124.745 23.6856 124.815 23.619C124.884 23.5524 124.937 23.4702 124.974 23.3724L125.551 23.4763C125.504 23.6462 125.421 23.795 125.302 23.9227C125.184 24.0491 125.035 24.1476 124.856 24.2182C124.678 24.2875 124.474 24.3222 124.246 24.3222ZM126.265 24.259V21.1283H126.855V21.6256H126.887C126.944 21.4571 127.045 21.3247 127.189 21.2282C127.334 21.1303 127.499 21.0814 127.682 21.0814C127.72 21.0814 127.765 21.0828 127.817 21.0855C127.87 21.0882 127.911 21.0916 127.941 21.0957V21.6786C127.916 21.6718 127.873 21.6644 127.81 21.6562C127.748 21.6467 127.685 21.6419 127.623 21.6419C127.479 21.6419 127.35 21.6725 127.238 21.7337C127.126 21.7934 127.038 21.877 126.973 21.9844C126.908 22.0903 126.875 22.2113 126.875 22.3472V24.259H126.265ZM129.979 24.259V23.8024L131.392 22.339C131.542 22.18 131.667 22.0407 131.765 21.9212C131.864 21.8002 131.938 21.6854 131.987 21.5767C132.036 21.468 132.06 21.3525 132.06 21.2302C132.06 21.0916 132.028 20.972 131.962 20.8715C131.897 20.7696 131.808 20.6914 131.695 20.6371C131.582 20.5814 131.455 20.5535 131.314 20.5535C131.165 20.5535 131.034 20.5841 130.923 20.6452C130.811 20.7064 130.726 20.7927 130.666 20.9041C130.606 21.0155 130.576 21.146 130.576 21.2954H129.975C129.975 21.0413 130.033 20.8192 130.15 20.6289C130.267 20.4387 130.428 20.2913 130.631 20.1866C130.835 20.0807 131.067 20.0277 131.326 20.0277C131.589 20.0277 131.82 20.08 132.019 20.1846C132.22 20.2879 132.377 20.4292 132.49 20.6086C132.603 20.7866 132.659 20.9877 132.659 21.2119C132.659 21.3668 132.63 21.5183 132.572 21.6664C132.515 21.8145 132.415 21.9796 132.272 22.1617C132.129 22.3424 131.931 22.5618 131.677 22.82L130.847 23.6883V23.7189H132.727V24.259H129.979Z" fill="#233D48"/>
</g>
<rect width="29.518" height="20.4986" transform="translate(172.845 12.5097)" fill="url(#paint0_linear_3_6506)"/>
<path d="M185.964 17.8948C185.964 16.0528 187.457 14.5596 189.299 14.5596H199.028C200.87 14.5596 202.363 16.0528 202.363 17.8948V27.6233C202.363 29.4652 200.87 30.9585 199.028 30.9585H189.299C187.457 30.9585 185.964 29.4652 185.964 27.6233V17.8948Z" fill="white"/>
<path d="M195.765 24.94C195.209 25.3717 194.512 25.6288 193.754 25.6288C191.942 25.6288 190.474 24.1604 190.474 22.349C190.474 20.5377 191.942 19.0692 193.754 19.0692C195.565 19.0692 197.033 20.5377 197.033 22.349C197.033 23.1069 196.776 23.8048 196.345 24.3602L197.733 25.7489C197.893 25.909 197.893 26.1686 197.733 26.3287C197.573 26.4888 197.314 26.4888 197.154 26.3287L195.765 24.94ZM196.213 22.349C196.213 20.9905 195.112 19.8892 193.754 19.8892C192.395 19.8892 191.294 20.9905 191.294 22.349C191.294 23.7075 192.395 24.8089 193.754 24.8089C195.112 24.8089 196.213 23.7075 196.213 22.349Z" fill="#233D48"/>
<mask id="path-14-inside-1_3_6506" fill="white">
<path d="M21.3962 37.518H202.604V57.1967H21.3962V37.518Z"/>
</mask>
<path d="M21.3962 37.518H202.604V57.1967H21.3962V37.518Z" fill="white"/>
<path d="M202.604 56.7867H21.3962V57.6066H202.604V56.7867Z" fill="#DADFE2" mask="url(#path-14-inside-1_3_6506)"/>
<rect x="25.086" y="43.6676" width="7.3795" height="7.3795" rx="0.409972" fill="white" stroke="#DADFE2" stroke-width="0.819945"/>
<path d="M36.6608 49.8574V45.6831H37.1662V47.5419H39.392V45.6831H39.8974V49.8574H39.392V47.9904H37.1662V49.8574H36.6608ZM42.1568 49.9226C41.8551 49.9226 41.5949 49.856 41.3762 49.7228C41.1588 49.5883 40.9909 49.4008 40.8727 49.1603C40.7559 48.9184 40.6974 48.6371 40.6974 48.3165C40.6974 47.9958 40.7559 47.7132 40.8727 47.4686C40.9909 47.2226 41.1554 47.031 41.366 46.8938C41.5779 46.7552 41.8252 46.6859 42.1079 46.6859C42.2709 46.6859 42.432 46.7131 42.5909 46.7674C42.7499 46.8218 42.8946 46.9101 43.0251 47.0324C43.1555 47.1533 43.2595 47.3137 43.3369 47.5134C43.4144 47.7132 43.4531 47.9591 43.4531 48.2512V48.4551H41.0399V48.0393H42.9639C42.9639 47.8626 42.9286 47.705 42.8579 47.5664C42.7886 47.4278 42.6895 47.3184 42.5604 47.2383C42.4326 47.1581 42.2818 47.118 42.1079 47.118C41.9163 47.118 41.7505 47.1656 41.6106 47.2607C41.472 47.3544 41.3653 47.4767 41.2906 47.6276C41.2158 47.7784 41.1785 47.9401 41.1785 48.1126V48.3898C41.1785 48.6263 41.2192 48.8267 41.3007 48.9911C41.3836 49.1542 41.4985 49.2785 41.6452 49.3641C41.792 49.4484 41.9625 49.4905 42.1568 49.4905C42.2832 49.4905 42.3973 49.4728 42.4992 49.4375C42.6025 49.4008 42.6915 49.3464 42.7662 49.2744C42.841 49.2011 42.8987 49.11 42.9395 49.0013L43.4042 49.1318C43.3553 49.2894 43.2731 49.428 43.1576 49.5476C43.0421 49.6658 42.8994 49.7582 42.7295 49.8247C42.5597 49.89 42.3688 49.9226 42.1568 49.9226ZM45.1061 49.9307C44.9077 49.9307 44.7277 49.8934 44.566 49.8186C44.4043 49.7425 44.2759 49.6332 44.1807 49.4905C44.0856 49.3464 44.0381 49.1725 44.0381 48.9687C44.0381 48.7893 44.0734 48.6439 44.1441 48.5325C44.2147 48.4197 44.3092 48.3314 44.4274 48.2676C44.5456 48.2037 44.676 48.1561 44.8187 48.1249C44.9627 48.0923 45.1075 48.0664 45.2528 48.0474C45.4431 48.023 45.5973 48.0046 45.7155 47.9924C45.8351 47.9788 45.9221 47.9564 45.9764 47.9251C46.0321 47.8939 46.06 47.8395 46.06 47.7621V47.7458C46.06 47.5447 46.0049 47.3884 45.8949 47.277C45.7862 47.1656 45.6211 47.1098 45.3996 47.1098C45.17 47.1098 44.9899 47.1601 44.8595 47.2607C44.729 47.3612 44.6373 47.4686 44.5843 47.5827L44.1278 47.4197C44.2093 47.2294 44.318 47.0813 44.4539 46.9753C44.5911 46.868 44.7406 46.7932 44.9023 46.7511C45.0653 46.7076 45.2257 46.6859 45.3833 46.6859C45.4838 46.6859 45.5993 46.6981 45.7298 46.7226C45.8616 46.7457 45.9886 46.7939 46.1109 46.8673C46.2346 46.9407 46.3372 47.0514 46.4187 47.1995C46.5002 47.3476 46.541 47.546 46.541 47.7947V49.8574H46.06V49.4334H46.0355C46.0029 49.5014 45.9486 49.574 45.8725 49.6515C45.7964 49.729 45.6951 49.7949 45.5688 49.8492C45.4424 49.9036 45.2882 49.9307 45.1061 49.9307ZM45.1795 49.4986C45.3697 49.4986 45.53 49.4613 45.6605 49.3865C45.7923 49.3118 45.8915 49.2153 45.9581 49.0971C46.026 48.9789 46.06 48.8546 46.06 48.7241V48.2839C46.0396 48.3083 45.9948 48.3307 45.9255 48.3511C45.8575 48.3701 45.7787 48.3871 45.689 48.4021C45.6007 48.4157 45.5144 48.4279 45.4302 48.4388C45.3473 48.4483 45.28 48.4564 45.2284 48.4632C45.1034 48.4795 44.9865 48.506 44.8778 48.5427C44.7705 48.578 44.6835 48.6317 44.6169 48.7037C44.5517 48.7744 44.5191 48.8709 44.5191 48.9932C44.5191 49.1603 44.5809 49.2867 44.7046 49.3723C44.8296 49.4565 44.9879 49.4986 45.1795 49.4986ZM48.6011 49.9226C48.3402 49.9226 48.1099 49.8567 47.9102 49.7249C47.7104 49.5917 47.5542 49.4042 47.4414 49.1623C47.3286 48.9191 47.2722 48.6317 47.2722 48.3002C47.2722 47.9713 47.3286 47.686 47.4414 47.4441C47.5542 47.2022 47.7111 47.0154 47.9122 46.8836C48.1133 46.7518 48.3457 46.6859 48.6093 46.6859C48.8131 46.6859 48.9741 46.7199 49.0923 46.7878C49.2119 46.8544 49.3029 46.9305 49.3655 47.0161C49.4293 47.1003 49.4789 47.1696 49.5142 47.224H49.555V45.6831H50.036V49.8574H49.5713V49.3763H49.5142C49.4789 49.4334 49.4286 49.5054 49.3634 49.5924C49.2982 49.678 49.2051 49.7548 49.0842 49.8227C48.9632 49.8893 48.8022 49.9226 48.6011 49.9226ZM48.6663 49.4905C48.8593 49.4905 49.0224 49.4402 49.1555 49.3397C49.2887 49.2377 49.3899 49.0971 49.4592 48.9177C49.5285 48.737 49.5632 48.5284 49.5632 48.292C49.5632 48.0583 49.5292 47.8538 49.4612 47.6785C49.3933 47.5019 49.2928 47.3646 49.1596 47.2668C49.0264 47.1676 48.862 47.118 48.6663 47.118C48.4625 47.118 48.2927 47.1703 48.1568 47.2749C48.0223 47.3782 47.921 47.5188 47.8531 47.6969C47.7865 47.8735 47.7532 48.0719 47.7532 48.292C47.7532 48.5149 47.7872 48.7173 47.8551 48.8994C47.9244 49.0801 48.0263 49.2242 48.1609 49.3315C48.2967 49.4375 48.4652 49.4905 48.6663 49.4905ZM52.2964 49.9226C51.9947 49.9226 51.7345 49.856 51.5158 49.7228C51.2984 49.5883 51.1305 49.4008 51.0123 49.1603C50.8955 48.9184 50.837 48.6371 50.837 48.3165C50.837 47.9958 50.8955 47.7132 51.0123 47.4686C51.1305 47.2226 51.295 47.031 51.5056 46.8938C51.7176 46.7552 51.9649 46.6859 52.2475 46.6859C52.4105 46.6859 52.5716 46.7131 52.7305 46.7674C52.8895 46.8218 53.0342 46.9101 53.1647 47.0324C53.2951 47.1533 53.3991 47.3137 53.4765 47.5134C53.554 47.7132 53.5927 47.9591 53.5927 48.2512V48.4551H51.1795V48.0393H53.1035C53.1035 47.8626 53.0682 47.705 52.9976 47.5664C52.9283 47.4278 52.8291 47.3184 52.7 47.2383C52.5722 47.1581 52.4214 47.118 52.2475 47.118C52.0559 47.118 51.8901 47.1656 51.7502 47.2607C51.6116 47.3544 51.5049 47.4767 51.4302 47.6276C51.3554 47.7784 51.3181 47.9401 51.3181 48.1126V48.3898C51.3181 48.6263 51.3588 48.8267 51.4404 48.9911C51.5232 49.1542 51.6381 49.2785 51.7848 49.3641C51.9316 49.4484 52.1021 49.4905 52.2964 49.4905C52.4228 49.4905 52.5369 49.4728 52.6388 49.4375C52.7421 49.4008 52.8311 49.3464 52.9058 49.2744C52.9806 49.2011 53.0383 49.11 53.0791 49.0013L53.5438 49.1318C53.4949 49.2894 53.4127 49.428 53.2972 49.5476C53.1817 49.6658 53.039 49.7582 52.8691 49.8247C52.6993 49.89 52.5084 49.9226 52.2964 49.9226ZM54.3244 49.8574V46.7267H54.7891V47.1995H54.8218C54.8788 47.0446 54.9821 46.9189 55.1316 46.8225C55.281 46.726 55.4495 46.6777 55.637 46.6777C55.6724 46.6777 55.7165 46.6784 55.7695 46.6798C55.8225 46.6811 55.8626 46.6832 55.8898 46.6859V47.1751C55.8735 47.171 55.8361 47.1649 55.7777 47.1567C55.7206 47.1472 55.6601 47.1425 55.5963 47.1425C55.4441 47.1425 55.3082 47.1744 55.1886 47.2383C55.0704 47.3008 54.9767 47.3877 54.9074 47.4991C54.8394 47.6092 54.8054 47.7349 54.8054 47.8762V49.8574H54.3244Z" fill="#233D48"/>
<path fill-rule="evenodd" clip-rule="evenodd" d="M62.22 45.0176C62.3801 44.8575 62.6397 44.8575 62.7998 45.0176L64.2347 46.4525C64.3948 46.6126 64.3948 46.8722 64.2347 47.0323C64.0746 47.1924 63.815 47.1924 63.6549 47.0323L62.5099 45.8873L61.3649 47.0323C61.2048 47.1924 60.9452 47.1924 60.7851 47.0323C60.625 46.8722 60.625 46.6126 60.7851 46.4525L62.22 45.0176Z" fill="#EEF1F2"/>
<path fill-rule="evenodd" clip-rule="evenodd" d="M62.22 49.9021C62.3801 50.0622 62.6397 50.0622 62.7998 49.9021L64.2347 48.4672C64.3948 48.3071 64.3948 48.0475 64.2347 47.8874C64.0746 47.7273 63.815 47.7273 63.6549 47.8874L62.5099 49.0324L61.3649 47.8874C61.2048 47.7273 60.9452 47.7273 60.7851 47.8874C60.625 48.0475 60.625 48.3071 60.7851 48.4672L62.22 49.9021Z" fill="#EEF1F2"/>
<path d="M78.4281 49.8574V45.6831H78.9336V47.5419H81.1593V45.6831H81.6648V49.8574H81.1593V47.9904H78.9336V49.8574H78.4281ZM83.9241 49.9226C83.6225 49.9226 83.3623 49.856 83.1435 49.7228C82.9261 49.5883 82.7583 49.4008 82.6401 49.1603C82.5232 48.9184 82.4648 48.6371 82.4648 48.3165C82.4648 47.9958 82.5232 47.7132 82.6401 47.4686C82.7583 47.2226 82.9227 47.031 83.1333 46.8938C83.3453 46.7552 83.5926 46.6859 83.8752 46.6859C84.0383 46.6859 84.1993 46.7131 84.3583 46.7674C84.5173 46.8218 84.662 46.9101 84.7924 47.0324C84.9229 47.1533 85.0268 47.3137 85.1043 47.5134C85.1817 47.7132 85.2204 47.9591 85.2204 48.2512V48.4551H82.8072V48.0393H84.7313C84.7313 47.8626 84.6959 47.705 84.6253 47.5664C84.556 47.4278 84.4568 47.3184 84.3277 47.2383C84.2 47.1581 84.0491 47.118 83.8752 47.118C83.6836 47.118 83.5178 47.1656 83.3779 47.2607C83.2393 47.3544 83.1326 47.4767 83.0579 47.6276C82.9832 47.7784 82.9458 47.9401 82.9458 48.1126V48.3898C82.9458 48.6263 82.9866 48.8267 83.0681 48.9911C83.151 49.1542 83.2658 49.2785 83.4125 49.3641C83.5593 49.4484 83.7298 49.4905 83.9241 49.4905C84.0505 49.4905 84.1646 49.4728 84.2666 49.4375C84.3698 49.4008 84.4588 49.3464 84.5336 49.2744C84.6083 49.2011 84.666 49.11 84.7068 49.0013L85.1715 49.1318C85.1226 49.2894 85.0404 49.428 84.9249 49.5476C84.8094 49.6658 84.6667 49.7582 84.4969 49.8247C84.327 49.89 84.1361 49.9226 83.9241 49.9226ZM86.8734 49.9307C86.675 49.9307 86.495 49.8934 86.3333 49.8186C86.1716 49.7425 86.0432 49.6332 85.9481 49.4905C85.853 49.3464 85.8054 49.1725 85.8054 48.9687C85.8054 48.7893 85.8407 48.6439 85.9114 48.5325C85.982 48.4197 86.0765 48.3314 86.1947 48.2676C86.3129 48.2037 86.4434 48.1561 86.586 48.1249C86.7301 48.0923 86.8748 48.0664 87.0202 48.0474C87.2104 48.023 87.3646 48.0046 87.4829 47.9924C87.6024 47.9788 87.6894 47.9564 87.7437 47.9251C87.7995 47.8939 87.8273 47.8395 87.8273 47.7621V47.7458C87.8273 47.5447 87.7723 47.3884 87.6622 47.277C87.5535 47.1656 87.3884 47.1098 87.1669 47.1098C86.9373 47.1098 86.7572 47.1601 86.6268 47.2607C86.4964 47.3612 86.4046 47.4686 86.3516 47.5827L85.8951 47.4197C85.9766 47.2294 86.0853 47.0813 86.2212 46.9753C86.3584 46.868 86.5079 46.7932 86.6696 46.7511C86.8327 46.7076 86.993 46.6859 87.1506 46.6859C87.2512 46.6859 87.3667 46.6981 87.4971 46.7226C87.6289 46.7457 87.756 46.7939 87.8783 46.8673C88.0019 46.9407 88.1045 47.0514 88.186 47.1995C88.2676 47.3476 88.3083 47.546 88.3083 47.7947V49.8574H87.8273V49.4334H87.8029C87.7702 49.5014 87.7159 49.574 87.6398 49.6515C87.5637 49.729 87.4625 49.7949 87.3361 49.8492C87.2097 49.9036 87.0555 49.9307 86.8734 49.9307ZM86.9468 49.4986C87.137 49.4986 87.2974 49.4613 87.4278 49.3865C87.5596 49.3118 87.6588 49.2153 87.7254 49.0971C87.7933 48.9789 87.8273 48.8546 87.8273 48.7241V48.2839C87.8069 48.3083 87.7621 48.3307 87.6928 48.3511C87.6248 48.3701 87.546 48.3871 87.4564 48.4021C87.368 48.4157 87.2817 48.4279 87.1975 48.4388C87.1146 48.4483 87.0474 48.4564 86.9957 48.4632C86.8707 48.4795 86.7539 48.506 86.6451 48.5427C86.5378 48.578 86.4508 48.6317 86.3843 48.7037C86.319 48.7744 86.2864 48.8709 86.2864 48.9932C86.2864 49.1603 86.3482 49.2867 86.4719 49.3723C86.5969 49.4565 86.7552 49.4986 86.9468 49.4986ZM90.3685 49.9226C90.1076 49.9226 89.8772 49.8567 89.6775 49.7249C89.4778 49.5917 89.3215 49.4042 89.2087 49.1623C89.0959 48.9191 89.0395 48.6317 89.0395 48.3002C89.0395 47.9713 89.0959 47.686 89.2087 47.4441C89.3215 47.2022 89.4784 47.0154 89.6795 46.8836C89.8806 46.7518 90.113 46.6859 90.3766 46.6859C90.5804 46.6859 90.7414 46.7199 90.8597 46.7878C90.9792 46.8544 91.0703 46.9305 91.1328 47.0161C91.1967 47.1003 91.2462 47.1696 91.2816 47.224H91.3223V45.6831H91.8034V49.8574H91.3386V49.3763H91.2816C91.2462 49.4334 91.196 49.5054 91.1307 49.5924C91.0655 49.678 90.9724 49.7548 90.8515 49.8227C90.7306 49.8893 90.5696 49.9226 90.3685 49.9226ZM90.4337 49.4905C90.6266 49.4905 90.7897 49.4402 90.9228 49.3397C91.056 49.2377 91.1572 49.0971 91.2265 48.9177C91.2958 48.737 91.3305 48.5284 91.3305 48.292C91.3305 48.0583 91.2965 47.8538 91.2286 47.6785C91.1606 47.5019 91.0601 47.3646 90.9269 47.2668C90.7938 47.1676 90.6293 47.118 90.4337 47.118C90.2299 47.118 90.06 47.1703 89.9241 47.2749C89.7896 47.3782 89.6884 47.5188 89.6204 47.6969C89.5538 47.8735 89.5206 48.0719 89.5206 48.292C89.5206 48.5149 89.5545 48.7173 89.6225 48.8994C89.6918 49.0801 89.7937 49.2242 89.9282 49.3315C90.0641 49.4375 90.2326 49.4905 90.4337 49.4905ZM94.0637 49.9226C93.7621 49.9226 93.5019 49.856 93.2831 49.7228C93.0657 49.5883 92.8979 49.4008 92.7797 49.1603C92.6628 48.9184 92.6044 48.6371 92.6044 48.3165C92.6044 47.9958 92.6628 47.7132 92.7797 47.4686C92.8979 47.2226 93.0623 47.031 93.2729 46.8938C93.4849 46.7552 93.7322 46.6859 94.0148 46.6859C94.1779 46.6859 94.3389 46.7131 94.4979 46.7674C94.6569 46.8218 94.8016 46.9101 94.932 47.0324C95.0625 47.1533 95.1664 47.3137 95.2439 47.5134C95.3213 47.7132 95.36 47.9591 95.36 48.2512V48.4551H92.9468V48.0393H94.8709C94.8709 47.8626 94.8355 47.705 94.7649 47.5664C94.6956 47.4278 94.5964 47.3184 94.4673 47.2383C94.3396 47.1581 94.1888 47.118 94.0148 47.118C93.8232 47.118 93.6575 47.1656 93.5175 47.2607C93.3789 47.3544 93.2722 47.4767 93.1975 47.6276C93.1228 47.7784 93.0854 47.9401 93.0854 48.1126V48.3898C93.0854 48.6263 93.1262 48.8267 93.2077 48.9911C93.2906 49.1542 93.4054 49.2785 93.5521 49.3641C93.6989 49.4484 93.8694 49.4905 94.0637 49.4905C94.1901 49.4905 94.3042 49.4728 94.4062 49.4375C94.5094 49.4008 94.5984 49.3464 94.6732 49.2744C94.7479 49.2011 94.8056 49.11 94.8464 49.0013L95.3111 49.1318C95.2622 49.2894 95.18 49.428 95.0645 49.5476C94.949 49.6658 94.8063 49.7582 94.6365 49.8247C94.4666 49.89 94.2757 49.9226 94.0637 49.9226ZM96.0918 49.8574V46.7267H96.5565V47.1995H96.5891C96.6462 47.0446 96.7494 46.9189 96.8989 46.8225C97.0484 46.726 97.2169 46.6777 97.4044 46.6777C97.4397 46.6777 97.4839 46.6784 97.5369 46.6798C97.5899 46.6811 97.6299 46.6832 97.6571 46.6859V47.1751C97.6408 47.171 97.6034 47.1649 97.545 47.1567C97.4879 47.1472 97.4275 47.1425 97.3636 47.1425C97.2114 47.1425 97.0755 47.1744 96.956 47.2383C96.8377 47.3008 96.744 47.3877 96.6747 47.4991C96.6068 47.6092 96.5728 47.7349 96.5728 47.8762V49.8574H96.0918Z" fill="#233D48"/>
<path fill-rule="evenodd" clip-rule="evenodd" d="M103.987 45.0176C104.147 44.8575 104.407 44.8575 104.567 45.0176L106.002 46.4525C106.162 46.6126 106.162 46.8722 106.002 47.0323C105.842 47.1924 105.582 47.1924 105.422 47.0323L104.277 45.8873L103.132 47.0323C102.972 47.1924 102.713 47.1924 102.552 47.0323C102.392 46.8722 102.392 46.6126 102.552 46.4525L103.987 45.0176Z" fill="#EEF1F2"/>
<path fill-rule="evenodd" clip-rule="evenodd" d="M103.987 49.9021C104.147 50.0622 104.407 50.0622 104.567 49.9021L106.002 48.4672C106.162 48.3071 106.162 48.0475 106.002 47.8874C105.842 47.7273 105.582 47.7273 105.422 47.8874L104.277 49.0324L103.132 47.8874C102.972 47.7273 102.713 47.7273 102.552 47.8874C102.392 48.0475 102.392 48.3071 102.552 48.4672L103.987 49.9021Z" fill="#EEF1F2"/>
<path d="M120.195 49.8574V45.6831H120.701V47.5419H122.927V45.6831H123.432V49.8574H122.927V47.9904H120.701V49.8574H120.195ZM125.691 49.9226C125.39 49.9226 125.13 49.856 124.911 49.7228C124.693 49.5883 124.526 49.4008 124.407 49.1603C124.291 48.9184 124.232 48.6371 124.232 48.3165C124.232 47.9958 124.291 47.7132 124.407 47.4686C124.526 47.2226 124.69 47.031 124.901 46.8938C125.113 46.7552 125.36 46.6859 125.643 46.6859C125.806 46.6859 125.967 46.7131 126.126 46.7674C126.285 46.8218 126.429 46.9101 126.56 47.0324C126.69 47.1533 126.794 47.3137 126.872 47.5134C126.949 47.7132 126.988 47.9591 126.988 48.2512V48.4551H124.575V48.0393H126.499C126.499 47.8626 126.463 47.705 126.393 47.5664C126.323 47.4278 126.224 47.3184 126.095 47.2383C125.967 47.1581 125.816 47.118 125.643 47.118C125.451 47.118 125.285 47.1656 125.145 47.2607C125.007 47.3544 124.9 47.4767 124.825 47.6276C124.75 47.7784 124.713 47.9401 124.713 48.1126V48.3898C124.713 48.6263 124.754 48.8267 124.835 48.9911C124.918 49.1542 125.033 49.2785 125.18 49.3641C125.327 49.4484 125.497 49.4905 125.691 49.4905C125.818 49.4905 125.932 49.4728 126.034 49.4375C126.137 49.4008 126.226 49.3464 126.301 49.2744C126.376 49.2011 126.433 49.11 126.474 49.0013L126.939 49.1318C126.89 49.2894 126.808 49.428 126.692 49.5476C126.577 49.6658 126.434 49.7582 126.264 49.8247C126.094 49.89 125.903 49.9226 125.691 49.9226ZM128.641 49.9307C128.442 49.9307 128.262 49.8934 128.101 49.8186C127.939 49.7425 127.811 49.6332 127.715 49.4905C127.62 49.3464 127.573 49.1725 127.573 48.9687C127.573 48.7893 127.608 48.6439 127.679 48.5325C127.749 48.4197 127.844 48.3314 127.962 48.2676C128.08 48.2037 128.211 48.1561 128.353 48.1249C128.497 48.0923 128.642 48.0664 128.788 48.0474C128.978 48.023 129.132 48.0046 129.25 47.9924C129.37 47.9788 129.457 47.9564 129.511 47.9251C129.567 47.8939 129.595 47.8395 129.595 47.7621V47.7458C129.595 47.5447 129.54 47.3884 129.43 47.277C129.321 47.1656 129.156 47.1098 128.934 47.1098C128.705 47.1098 128.525 47.1601 128.394 47.2607C128.264 47.3612 128.172 47.4686 128.119 47.5827L127.662 47.4197C127.744 47.2294 127.853 47.0813 127.989 46.9753C128.126 46.868 128.275 46.7932 128.437 46.7511C128.6 46.7076 128.76 46.6859 128.918 46.6859C129.019 46.6859 129.134 46.6981 129.264 46.7226C129.396 46.7457 129.523 46.7939 129.646 46.8673C129.769 46.9407 129.872 47.0514 129.953 47.1995C130.035 47.3476 130.076 47.546 130.076 47.7947V49.8574H129.595V49.4334H129.57C129.538 49.5014 129.483 49.574 129.407 49.6515C129.331 49.729 129.23 49.7949 129.103 49.8492C128.977 49.9036 128.823 49.9307 128.641 49.9307ZM128.714 49.4986C128.904 49.4986 129.065 49.4613 129.195 49.3865C129.327 49.3118 129.426 49.2153 129.493 49.0971C129.561 48.9789 129.595 48.8546 129.595 48.7241V48.2839C129.574 48.3083 129.529 48.3307 129.46 48.3511C129.392 48.3701 129.313 48.3871 129.224 48.4021C129.135 48.4157 129.049 48.4279 128.965 48.4388C128.882 48.4483 128.815 48.4564 128.763 48.4632C128.638 48.4795 128.521 48.506 128.412 48.5427C128.305 48.578 128.218 48.6317 128.152 48.7037C128.086 48.7744 128.054 48.8709 128.054 48.9932C128.054 49.1603 128.116 49.2867 128.239 49.3723C128.364 49.4565 128.523 49.4986 128.714 49.4986ZM132.136 49.9226C131.875 49.9226 131.645 49.8567 131.445 49.7249C131.245 49.5917 131.089 49.4042 130.976 49.1623C130.863 48.9191 130.807 48.6317 130.807 48.3002C130.807 47.9713 130.863 47.686 130.976 47.4441C131.089 47.2022 131.246 47.0154 131.447 46.8836C131.648 46.7518 131.88 46.6859 132.144 46.6859C132.348 46.6859 132.509 46.7199 132.627 46.7878C132.747 46.8544 132.838 46.9305 132.9 47.0161C132.964 47.1003 133.014 47.1696 133.049 47.224H133.09V45.6831H133.571V49.8574H133.106V49.3763H133.049C133.014 49.4334 132.963 49.5054 132.898 49.5924C132.833 49.678 132.74 49.7548 132.619 49.8227C132.498 49.8893 132.337 49.9226 132.136 49.9226ZM132.201 49.4905C132.394 49.4905 132.557 49.4402 132.69 49.3397C132.823 49.2377 132.925 49.0971 132.994 48.9177C133.063 48.737 133.098 48.5284 133.098 48.292C133.098 48.0583 133.064 47.8538 132.996 47.6785C132.928 47.5019 132.827 47.3646 132.694 47.2668C132.561 47.1676 132.397 47.118 132.201 47.118C131.997 47.118 131.827 47.1703 131.691 47.2749C131.557 47.3782 131.456 47.5188 131.388 47.6969C131.321 47.8735 131.288 48.0719 131.288 48.292C131.288 48.5149 131.322 48.7173 131.39 48.8994C131.459 49.0801 131.561 49.2242 131.696 49.3315C131.831 49.4375 132 49.4905 132.201 49.4905ZM135.831 49.9226C135.529 49.9226 135.269 49.856 135.05 49.7228C134.833 49.5883 134.665 49.4008 134.547 49.1603C134.43 48.9184 134.372 48.6371 134.372 48.3165C134.372 47.9958 134.43 47.7132 134.547 47.4686C134.665 47.2226 134.83 47.031 135.04 46.8938C135.252 46.7552 135.5 46.6859 135.782 46.6859C135.945 46.6859 136.106 46.7131 136.265 46.7674C136.424 46.8218 136.569 46.9101 136.699 47.0324C136.83 47.1533 136.934 47.3137 137.011 47.5134C137.089 47.7132 137.127 47.9591 137.127 48.2512V48.4551H134.714V48.0393H136.638C136.638 47.8626 136.603 47.705 136.532 47.5664C136.463 47.4278 136.364 47.3184 136.235 47.2383C136.107 47.1581 135.956 47.118 135.782 47.118C135.591 47.118 135.425 47.1656 135.285 47.2607C135.146 47.3544 135.04 47.4767 134.965 47.6276C134.89 47.7784 134.853 47.9401 134.853 48.1126V48.3898C134.853 48.6263 134.893 48.8267 134.975 48.9911C135.058 49.1542 135.173 49.2785 135.319 49.3641C135.466 49.4484 135.637 49.4905 135.831 49.4905C135.957 49.4905 136.072 49.4728 136.173 49.4375C136.277 49.4008 136.366 49.3464 136.44 49.2744C136.515 49.2011 136.573 49.11 136.614 49.0013L137.078 49.1318C137.03 49.2894 136.947 49.428 136.832 49.5476C136.716 49.6658 136.574 49.7582 136.404 49.8247C136.234 49.89 136.043 49.9226 135.831 49.9226ZM137.859 49.8574V46.7267H138.324V47.1995H138.356C138.413 47.0446 138.517 46.9189 138.666 46.8225C138.816 46.726 138.984 46.6777 139.172 46.6777C139.207 46.6777 139.251 46.6784 139.304 46.6798C139.357 46.6811 139.397 46.6832 139.424 46.6859V47.1751C139.408 47.171 139.371 47.1649 139.312 47.1567C139.255 47.1472 139.195 47.1425 139.131 47.1425C138.979 47.1425 138.843 47.1744 138.723 47.2383C138.605 47.3008 138.511 47.3877 138.442 47.4991C138.374 47.6092 138.34 47.7349 138.34 47.8762V49.8574H137.859Z" fill="#233D48"/>
<path fill-rule="evenodd" clip-rule="evenodd" d="M145.755 45.0176C145.915 44.8575 146.174 44.8575 146.334 45.0176L147.769 46.4525C147.929 46.6126 147.929 46.8722 147.769 47.0323C147.609 47.1924 147.35 47.1924 147.19 47.0323L146.045 45.8873L144.9 47.0323C144.739 47.1924 144.48 47.1924 144.32 47.0323C144.16 46.8722 144.16 46.6126 144.32 46.4525L145.755 45.0176Z" fill="#EEF1F2"/>
<path fill-rule="evenodd" clip-rule="evenodd" d="M145.755 49.9021C145.915 50.0622 146.174 50.0622 146.334 49.9021L147.769 48.4672C147.929 48.3071 147.929 48.0475 147.769 47.8874C147.609 47.7273 147.35 47.7273 147.19 47.8874L146.045 49.0324L144.9 47.8874C144.739 47.7273 144.48 47.7273 144.32 47.8874C144.16 48.0475 144.16 48.3071 144.32 48.4672L145.755 49.9021Z" fill="#EEF1F2"/>
<path d="M161.963 49.8574V45.6831H162.468V47.5419H164.694V45.6831H165.199V49.8574H164.694V47.9904H162.468V49.8574H161.963ZM167.459 49.9226C167.157 49.9226 166.897 49.856 166.678 49.7228C166.461 49.5883 166.293 49.4008 166.175 49.1603C166.058 48.9184 165.999 48.6371 165.999 48.3165C165.999 47.9958 166.058 47.7132 166.175 47.4686C166.293 47.2226 166.457 47.031 166.668 46.8938C166.88 46.7552 167.127 46.6859 167.41 46.6859C167.573 46.6859 167.734 46.7131 167.893 46.7674C168.052 46.8218 168.197 46.9101 168.327 47.0324C168.458 47.1533 168.561 47.3137 168.639 47.5134C168.716 47.7132 168.755 47.9591 168.755 48.2512V48.4551H166.342V48.0393H168.266C168.266 47.8626 168.231 47.705 168.16 47.5664C168.091 47.4278 167.991 47.3184 167.862 47.2383C167.735 47.1581 167.584 47.118 167.41 47.118C167.218 47.118 167.053 47.1656 166.913 47.2607C166.774 47.3544 166.667 47.4767 166.593 47.6276C166.518 47.7784 166.48 47.9401 166.48 48.1126V48.3898C166.48 48.6263 166.521 48.8267 166.603 48.9911C166.686 49.1542 166.8 49.2785 166.947 49.3641C167.094 49.4484 167.264 49.4905 167.459 49.4905C167.585 49.4905 167.699 49.4728 167.801 49.4375C167.904 49.4008 167.993 49.3464 168.068 49.2744C168.143 49.2011 168.201 49.11 168.241 49.0013L168.706 49.1318C168.657 49.2894 168.575 49.428 168.46 49.5476C168.344 49.6658 168.201 49.7582 168.032 49.8247C167.862 49.89 167.671 49.9226 167.459 49.9226ZM170.408 49.9307C170.21 49.9307 170.03 49.8934 169.868 49.8186C169.706 49.7425 169.578 49.6332 169.483 49.4905C169.388 49.3464 169.34 49.1725 169.34 48.9687C169.34 48.7893 169.375 48.6439 169.446 48.5325C169.517 48.4197 169.611 48.3314 169.729 48.2676C169.848 48.2037 169.978 48.1561 170.121 48.1249C170.265 48.0923 170.409 48.0664 170.555 48.0474C170.745 48.023 170.899 48.0046 171.018 47.9924C171.137 47.9788 171.224 47.9564 171.278 47.9251C171.334 47.8939 171.362 47.8395 171.362 47.7621V47.7458C171.362 47.5447 171.307 47.3884 171.197 47.277C171.088 47.1656 170.923 47.1098 170.702 47.1098C170.472 47.1098 170.292 47.1601 170.161 47.2607C170.031 47.3612 169.939 47.4686 169.886 47.5827L169.43 47.4197C169.511 47.2294 169.62 47.0813 169.756 46.9753C169.893 46.868 170.043 46.7932 170.204 46.7511C170.367 46.7076 170.528 46.6859 170.685 46.6859C170.786 46.6859 170.901 46.6981 171.032 46.7226C171.164 46.7457 171.291 46.7939 171.413 46.8673C171.537 46.9407 171.639 47.0514 171.721 47.1995C171.802 47.3476 171.843 47.546 171.843 47.7947V49.8574H171.362V49.4334H171.338C171.305 49.5014 171.251 49.574 171.174 49.6515C171.098 49.729 170.997 49.7949 170.871 49.8492C170.744 49.9036 170.59 49.9307 170.408 49.9307ZM170.481 49.4986C170.672 49.4986 170.832 49.4613 170.962 49.3865C171.094 49.3118 171.193 49.2153 171.26 49.0971C171.328 48.9789 171.362 48.8546 171.362 48.7241V48.2839C171.342 48.3083 171.297 48.3307 171.227 48.3511C171.16 48.3701 171.081 48.3871 170.991 48.4021C170.903 48.4157 170.816 48.4279 170.732 48.4388C170.649 48.4483 170.582 48.4564 170.53 48.4632C170.405 48.4795 170.289 48.506 170.18 48.5427C170.072 48.578 169.986 48.6317 169.919 48.7037C169.854 48.7744 169.821 48.8709 169.821 48.9932C169.821 49.1603 169.883 49.2867 170.007 49.3723C170.132 49.4565 170.29 49.4986 170.481 49.4986ZM173.903 49.9226C173.642 49.9226 173.412 49.8567 173.212 49.7249C173.012 49.5917 172.856 49.4042 172.743 49.1623C172.631 48.9191 172.574 48.6317 172.574 48.3002C172.574 47.9713 172.631 47.686 172.743 47.4441C172.856 47.2022 173.013 47.0154 173.214 46.8836C173.415 46.7518 173.648 46.6859 173.911 46.6859C174.115 46.6859 174.276 46.7199 174.394 46.7878C174.514 46.8544 174.605 46.9305 174.667 47.0161C174.731 47.1003 174.781 47.1696 174.816 47.224H174.857V45.6831H175.338V49.8574H174.873V49.3763H174.816C174.781 49.4334 174.731 49.5054 174.665 49.5924C174.6 49.678 174.507 49.7548 174.386 49.8227C174.265 49.8893 174.104 49.9226 173.903 49.9226ZM173.968 49.4905C174.161 49.4905 174.324 49.4402 174.458 49.3397C174.591 49.2377 174.692 49.0971 174.761 48.9177C174.831 48.737 174.865 48.5284 174.865 48.292C174.865 48.0583 174.831 47.8538 174.763 47.6785C174.695 47.5019 174.595 47.3646 174.462 47.2668C174.328 47.1676 174.164 47.118 173.968 47.118C173.765 47.118 173.595 47.1703 173.459 47.2749C173.324 47.3782 173.223 47.5188 173.155 47.6969C173.089 47.8735 173.055 48.0719 173.055 48.292C173.055 48.5149 173.089 48.7173 173.157 48.8994C173.226 49.0801 173.328 49.2242 173.463 49.3315C173.599 49.4375 173.767 49.4905 173.968 49.4905ZM177.598 49.9226C177.297 49.9226 177.037 49.856 176.818 49.7228C176.6 49.5883 176.433 49.4008 176.314 49.1603C176.197 48.9184 176.139 48.6371 176.139 48.3165C176.139 47.9958 176.197 47.7132 176.314 47.4686C176.433 47.2226 176.597 47.031 176.808 46.8938C177.02 46.7552 177.267 46.6859 177.549 46.6859C177.713 46.6859 177.874 46.7131 178.033 46.7674C178.192 46.8218 178.336 46.9101 178.467 47.0324C178.597 47.1533 178.701 47.3137 178.779 47.5134C178.856 47.7132 178.895 47.9591 178.895 48.2512V48.4551H176.481V48.0393H178.406C178.406 47.8626 178.37 47.705 178.3 47.5664C178.23 47.4278 178.131 47.3184 178.002 47.2383C177.874 47.1581 177.723 47.118 177.549 47.118C177.358 47.118 177.192 47.1656 177.052 47.2607C176.914 47.3544 176.807 47.4767 176.732 47.6276C176.657 47.7784 176.62 47.9401 176.62 48.1126V48.3898C176.62 48.6263 176.661 48.8267 176.742 48.9911C176.825 49.1542 176.94 49.2785 177.087 49.3641C177.234 49.4484 177.404 49.4905 177.598 49.4905C177.725 49.4905 177.839 49.4728 177.941 49.4375C178.044 49.4008 178.133 49.3464 178.208 49.2744C178.283 49.2011 178.34 49.11 178.381 49.0013L178.846 49.1318C178.797 49.2894 178.715 49.428 178.599 49.5476C178.484 49.6658 178.341 49.7582 178.171 49.8247C178.001 49.89 177.81 49.9226 177.598 49.9226ZM179.626 49.8574V46.7267H180.091V47.1995H180.124C180.181 47.0446 180.284 46.9189 180.434 46.8225C180.583 46.726 180.752 46.6777 180.939 46.6777C180.974 46.6777 181.019 46.6784 181.072 46.6798C181.125 46.6811 181.165 46.6832 181.192 46.6859V47.1751C181.175 47.171 181.138 47.1649 181.08 47.1567C181.023 47.1472 180.962 47.1425 180.898 47.1425C180.746 47.1425 180.61 47.1744 180.491 47.2383C180.372 47.3008 180.279 47.3877 180.209 47.4991C180.141 47.6092 180.107 47.7349 180.107 47.8762V49.8574H179.626Z" fill="#233D48"/>
<path fill-rule="evenodd" clip-rule="evenodd" d="M187.522 45.0176C187.682 44.8575 187.942 44.8575 188.102 45.0176L189.537 46.4525C189.697 46.6126 189.697 46.8722 189.537 47.0323C189.377 47.1924 189.117 47.1924 188.957 47.0323L187.812 45.8873L186.667 47.0323C186.507 47.1924 186.247 47.1924 186.087 47.0323C185.927 46.8722 185.927 46.6126 186.087 46.4525L187.522 45.0176Z" fill="#EEF1F2"/>
<path fill-rule="evenodd" clip-rule="evenodd" d="M187.522 49.9021C187.682 50.0622 187.942 50.0622 188.102 49.9021L189.537 48.4672C189.697 48.3071 189.697 48.0475 189.537 47.8874C189.377 47.7273 189.117 47.7273 188.957 47.8874L187.812 49.0324L186.667 47.8874C186.507 47.7273 186.247 47.7273 186.087 47.8874C185.927 48.0475 185.927 48.3071 186.087 48.4672L187.522 49.9021Z" fill="#EEF1F2"/>
<mask id="path-29-inside-2_3_6506" fill="white">
<path d="M21.3962 57.1967H202.604V80.1551H21.3962V57.1967Z"/>
</mask>
<path d="M21.3962 57.1967H202.604V80.1551H21.3962V57.1967Z" fill="white"/>
<path d="M202.604 79.7452H21.3962V80.5651H202.604V79.7452Z" fill="#DADFE2" mask="url(#path-29-inside-2_3_6506)"/>
<g clip-path="url(#clip3_3_6506)">
<path d="M36.1553 68.3214C36.1553 66.4794 37.6485 64.9861 39.4905 64.9861H70.687C72.529 64.9861 74.0222 66.4794 74.0222 68.3214V69.0304C74.0222 70.8724 72.529 72.3656 70.687 72.3656H39.4905C37.6485 72.3656 36.1553 70.8724 36.1553 69.0304V68.3214Z" fill="black" fill-opacity="0.08"/>
<rect x="36.1553" y="64.9861" width="37.8726" height="7.3795" fill="url(#paint1_linear_3_6506)"/>
</g>
<g clip-path="url(#clip4_3_6506)">
<path d="M77.9226 68.3214C77.9226 66.4794 79.4158 64.9861 81.2578 64.9861H112.454C114.296 64.9861 115.79 66.4794 115.79 68.3214V69.0304C115.79 70.8724 114.296 72.3656 112.454 72.3656H81.2578C79.4158 72.3656 77.9226 70.8724 77.9226 69.0304V68.3214Z" fill="black" fill-opacity="0.08"/>
<rect x="77.9226" y="64.9861" width="37.8726" height="7.3795" fill="url(#paint2_linear_3_6506)"/>
</g>
<g clip-path="url(#clip5_3_6506)">
<path d="M119.698 68.3214C119.698 66.4794 121.191 64.9861 123.033 64.9861H154.218C156.06 64.9861 157.553 66.4794 157.553 68.3214V69.0304C157.553 70.8724 156.06 72.3656 154.218 72.3656H123.033C121.191 72.3656 119.698 70.8724 119.698 69.0304V68.3214Z" fill="black" fill-opacity="0.08"/>
<rect x="119.698" y="64.9861" width="37.8726" height="7.3795" fill="url(#paint3_linear_3_6506)"/>
</g>
<g clip-path="url(#clip6_3_6506)">
<path d="M161.457 68.5263C161.457 66.6844 162.951 65.1911 164.792 65.1911H182.012C183.854 65.1911 185.348 66.6844 185.348 68.5263V69.2354C185.348 71.0774 183.854 72.5706 182.012 72.5706H164.792C162.951 72.5706 161.457 71.0774 161.457 69.2354V68.5263Z" fill="black" fill-opacity="0.08"/>
<rect x="161.457" y="65.1911" width="24.2853" height="7.3795" fill="url(#paint4_linear_3_6506)"/>
</g>
<g clip-path="url(#clip7_3_6506)">
<path d="M189.248 68.3214C189.248 66.4794 190.741 64.9861 192.583 64.9861H195.989C197.831 64.9861 199.324 66.4794 199.324 68.3214V69.0304C199.324 70.8724 197.831 72.3656 195.989 72.3656H192.583C190.741 72.3656 189.248 70.8724 189.248 69.0304V68.3214Z" fill="black" fill-opacity="0.08"/>
<rect x="189.248" y="64.9861" width="10.108" height="7.3795" fill="url(#paint5_linear_3_6506)"/>
</g>
<mask id="path-41-inside-3_3_6506" fill="white">
<path d="M21.3962 80.1551H202.604V103.114H21.3962V80.1551Z"/>
</mask>
<path d="M21.3962 80.1551H202.604V103.114H21.3962V80.1551Z" fill="white"/>
<path d="M202.604 102.704H21.3962V103.524H202.604V102.704Z" fill="#DADFE2" mask="url(#path-41-inside-3_3_6506)"/>
<g clip-path="url(#clip8_3_6506)">
<path d="M36.1553 91.2798C36.1553 89.4378 37.6485 87.9446 39.4905 87.9446H70.687C72.529 87.9446 74.0222 89.4378 74.0222 91.2798V91.9889C74.0222 93.8309 72.529 95.3241 70.687 95.3241H39.4905C37.6485 95.3241 36.1553 93.8309 36.1553 91.9889V91.2798Z" fill="black" fill-opacity="0.08"/>
<rect x="36.1553" y="87.9446" width="37.8726" height="7.3795" fill="url(#paint6_linear_3_6506)"/>
</g>
<g clip-path="url(#clip9_3_6506)">
<path d="M77.9226 91.2798C77.9226 89.4378 79.4158 87.9446 81.2578 87.9446H112.454C114.296 87.9446 115.79 89.4378 115.79 91.2798V91.9889C115.79 93.8309 114.296 95.3241 112.454 95.3241H81.2578C79.4158 95.3241 77.9226 93.8309 77.9226 91.9889V91.2798Z" fill="black" fill-opacity="0.08"/>
<rect x="77.9226" y="87.9446" width="37.8726" height="7.3795" fill="url(#paint7_linear_3_6506)"/>
</g>
<g clip-path="url(#clip10_3_6506)">
<path d="M119.698 91.2798C119.698 89.4378 121.191 87.9446 123.033 87.9446H154.218C156.06 87.9446 157.553 89.4378 157.553 91.2798V91.9889C157.553 93.8309 156.06 95.3241 154.218 95.3241H123.033C121.191 95.3241 119.698 93.8309 119.698 91.9889V91.2798Z" fill="black" fill-opacity="0.08"/>
<rect x="119.698" y="87.9446" width="37.8726" height="7.3795" fill="url(#paint8_linear_3_6506)"/>
</g>
<g clip-path="url(#clip11_3_6506)">
<path d="M161.457 91.4848C161.457 89.6428 162.951 88.1496 164.792 88.1496H182.012C183.854 88.1496 185.348 89.6428 185.348 91.4848V92.1939C185.348 94.0359 183.854 95.5291 182.012 95.5291H164.792C162.951 95.5291 161.457 94.0359 161.457 92.1939V91.4848Z" fill="black" fill-opacity="0.08"/>
<rect x="161.457" y="88.1496" width="24.2853" height="7.3795" fill="url(#paint9_linear_3_6506)"/>
</g>
<g clip-path="url(#clip12_3_6506)">
<path d="M189.248 91.2798C189.248 89.4378 190.741 87.9446 192.583 87.9446H195.989C197.831 87.9446 199.324 89.4378 199.324 91.2798V91.9889C199.324 93.8309 197.831 95.3241 195.989 95.3241H192.583C190.741 95.3241 189.248 93.8309 189.248 91.9889V91.2798Z" fill="black" fill-opacity="0.08"/>
<rect x="189.248" y="87.9446" width="10.108" height="7.3795" fill="url(#paint10_linear_3_6506)"/>
</g>
<mask id="path-53-inside-4_3_6506" fill="white">
<path d="M21.3962 103.114H202.604V126.072H21.3962V103.114Z"/>
</mask>
<path d="M21.3962 103.114H202.604V126.072H21.3962V103.114Z" fill="white"/>
<path d="M202.604 125.662H21.3962V126.482H202.604V125.662Z" fill="#DADFE2" mask="url(#path-53-inside-4_3_6506)"/>
<g clip-path="url(#clip13_3_6506)">
<path d="M36.1553 114.238C36.1553 112.396 37.6485 110.903 39.4905 110.903H70.687C72.529 110.903 74.0222 112.396 74.0222 114.238V114.947C74.0222 116.789 72.529 118.283 70.687 118.283H39.4905C37.6485 118.283 36.1553 116.789 36.1553 114.947V114.238Z" fill="black" fill-opacity="0.08"/>
<rect x="36.1553" y="110.903" width="37.8726" height="7.3795" fill="url(#paint11_linear_3_6506)"/>
</g>
<g clip-path="url(#clip14_3_6506)">
<path d="M77.9226 114.238C77.9226 112.396 79.4158 110.903 81.2578 110.903H112.454C114.296 110.903 115.79 112.396 115.79 114.238V114.947C115.79 116.789 114.296 118.283 112.454 118.283H81.2578C79.4158 118.283 77.9226 116.789 77.9226 114.947V114.238Z" fill="black" fill-opacity="0.08"/>
<rect x="77.9226" y="110.903" width="37.8726" height="7.3795" fill="url(#paint12_linear_3_6506)"/>
</g>
<g clip-path="url(#clip15_3_6506)">
<path d="M119.698 114.238C119.698 112.396 121.191 110.903 123.033 110.903H154.218C156.06 110.903 157.553 112.396 157.553 114.238V114.947C157.553 116.789 156.06 118.283 154.218 118.283H123.033C121.191 118.283 119.698 116.789 119.698 114.947V114.238Z" fill="black" fill-opacity="0.08"/>
<rect x="119.698" y="110.903" width="37.8726" height="7.3795" fill="url(#paint13_linear_3_6506)"/>
</g>
<g clip-path="url(#clip16_3_6506)">
<path d="M161.457 114.443C161.457 112.601 162.951 111.108 164.792 111.108H182.012C183.854 111.108 185.348 112.601 185.348 114.443V115.152C185.348 116.994 183.854 118.488 182.012 118.488H164.792C162.951 118.488 161.457 116.994 161.457 115.152V114.443Z" fill="black" fill-opacity="0.08"/>
<rect x="161.457" y="111.108" width="24.2853" height="7.3795" fill="url(#paint14_linear_3_6506)"/>
</g>
<g clip-path="url(#clip17_3_6506)">
<path d="M189.248 114.238C189.248 112.396 190.741 110.903 192.583 110.903H195.989C197.831 110.903 199.324 112.396 199.324 114.238V114.947C199.324 116.789 197.831 118.283 195.989 118.283H192.583C190.741 118.283 189.248 116.789 189.248 114.947V114.238Z" fill="black" fill-opacity="0.08"/>
<rect x="189.248" y="110.903" width="10.108" height="7.3795" fill="url(#paint15_linear_3_6506)"/>
</g>
</g>
</g>
<defs>
<linearGradient id="paint0_linear_3_6506" x1="14.759" y1="0" x2="14.759" y2="20.4986" gradientUnits="userSpaceOnUse">
<stop stop-color="white" stop-opacity="0"/>
<stop offset="1" stop-color="white"/>
</linearGradient>
<linearGradient id="paint1_linear_3_6506" x1="74.0279" y1="68.6759" x2="36.1553" y2="68.6759" gradientUnits="userSpaceOnUse">
<stop stop-color="white" stop-opacity="0"/>
<stop offset="0.299948" stop-color="white" stop-opacity="0.8"/>
<stop offset="1" stop-color="white" stop-opacity="0"/>
</linearGradient>
<linearGradient id="paint2_linear_3_6506" x1="115.795" y1="68.6759" x2="77.9226" y2="68.6759" gradientUnits="userSpaceOnUse">
<stop stop-color="white" stop-opacity="0"/>
<stop offset="0.299948" stop-color="white" stop-opacity="0.8"/>
<stop offset="1" stop-color="white" stop-opacity="0"/>
</linearGradient>
<linearGradient id="paint3_linear_3_6506" x1="157.57" y1="68.6759" x2="119.698" y2="68.6759" gradientUnits="userSpaceOnUse">
<stop stop-color="white" stop-opacity="0"/>
<stop offset="0.299948" stop-color="white" stop-opacity="0.8"/>
<stop offset="1" stop-color="white" stop-opacity="0"/>
</linearGradient>
<linearGradient id="paint4_linear_3_6506" x1="185.743" y1="68.8809" x2="161.457" y2="68.8809" gradientUnits="userSpaceOnUse">
<stop stop-color="white" stop-opacity="0"/>
<stop offset="0.299948" stop-color="white" stop-opacity="0.8"/>
<stop offset="1" stop-color="white" stop-opacity="0"/>
</linearGradient>
<linearGradient id="paint5_linear_3_6506" x1="199.356" y1="68.6759" x2="189.248" y2="68.6759" gradientUnits="userSpaceOnUse">
<stop stop-color="white" stop-opacity="0"/>
<stop offset="0.299948" stop-color="white" stop-opacity="0.8"/>
<stop offset="1" stop-color="white" stop-opacity="0"/>
</linearGradient>
<linearGradient id="paint6_linear_3_6506" x1="74.0279" y1="91.6344" x2="36.1553" y2="91.6344" gradientUnits="userSpaceOnUse">
<stop stop-color="white" stop-opacity="0"/>
<stop offset="0.299948" stop-color="white" stop-opacity="0.8"/>
<stop offset="1" stop-color="white" stop-opacity="0"/>
</linearGradient>
<linearGradient id="paint7_linear_3_6506" x1="115.795" y1="91.6344" x2="77.9226" y2="91.6344" gradientUnits="userSpaceOnUse">
<stop stop-color="white" stop-opacity="0"/>
<stop offset="0.299948" stop-color="white" stop-opacity="0.8"/>
<stop offset="1" stop-color="white" stop-opacity="0"/>
</linearGradient>
<linearGradient id="paint8_linear_3_6506" x1="157.57" y1="91.6344" x2="119.698" y2="91.6344" gradientUnits="userSpaceOnUse">
<stop stop-color="white" stop-opacity="0"/>
<stop offset="0.299948" stop-color="white" stop-opacity="0.8"/>
<stop offset="1" stop-color="white" stop-opacity="0"/>
</linearGradient>
<linearGradient id="paint9_linear_3_6506" x1="185.743" y1="91.8393" x2="161.457" y2="91.8393" gradientUnits="userSpaceOnUse">
<stop stop-color="white" stop-opacity="0"/>
<stop offset="0.299948" stop-color="white" stop-opacity="0.8"/>
<stop offset="1" stop-color="white" stop-opacity="0"/>
</linearGradient>
<linearGradient id="paint10_linear_3_6506" x1="199.356" y1="91.6344" x2="189.248" y2="91.6344" gradientUnits="userSpaceOnUse">
<stop stop-color="white" stop-opacity="0"/>
<stop offset="0.299948" stop-color="white" stop-opacity="0.8"/>
<stop offset="1" stop-color="white" stop-opacity="0"/>
</linearGradient>
<linearGradient id="paint11_linear_3_6506" x1="74.0279" y1="114.593" x2="36.1553" y2="114.593" gradientUnits="userSpaceOnUse">
<stop stop-color="white" stop-opacity="0"/>
<stop offset="0.299948" stop-color="white" stop-opacity="0.8"/>
<stop offset="1" stop-color="white" stop-opacity="0"/>
</linearGradient>
<linearGradient id="paint12_linear_3_6506" x1="115.795" y1="114.593" x2="77.9226" y2="114.593" gradientUnits="userSpaceOnUse">
<stop stop-color="white" stop-opacity="0"/>
<stop offset="0.299948" stop-color="white" stop-opacity="0.8"/>
<stop offset="1" stop-color="white" stop-opacity="0"/>
</linearGradient>
<linearGradient id="paint13_linear_3_6506" x1="157.57" y1="114.593" x2="119.698" y2="114.593" gradientUnits="userSpaceOnUse">
<stop stop-color="white" stop-opacity="0"/>
<stop offset="0.299948" stop-color="white" stop-opacity="0.8"/>
<stop offset="1" stop-color="white" stop-opacity="0"/>
</linearGradient>
<linearGradient id="paint14_linear_3_6506" x1="185.743" y1="114.798" x2="161.457" y2="114.798" gradientUnits="userSpaceOnUse">
<stop stop-color="white" stop-opacity="0"/>
<stop offset="0.299948" stop-color="white" stop-opacity="0.8"/>
<stop offset="1" stop-color="white" stop-opacity="0"/>
</linearGradient>
<linearGradient id="paint15_linear_3_6506" x1="199.356" y1="114.593" x2="189.248" y2="114.593" gradientUnits="userSpaceOnUse">
<stop stop-color="white" stop-opacity="0"/>
<stop offset="0.299948" stop-color="white" stop-opacity="0.8"/>
<stop offset="1" stop-color="white" stop-opacity="0"/>
</linearGradient>
<clipPath id="clip0_3_6506">
<path d="M0 8C0 3.58172 3.58172 0 8 0H216C220.418 0 224 3.58172 224 8V109C224 113.418 220.418 117 216 117H8C3.58172 117 0 113.418 0 109V8Z" fill="white"/>
</clipPath>
<clipPath id="clip1_3_6506">
<path d="M14.8367 11.3352C14.8367 9.49322 16.3299 8 18.1719 8H205.828C207.67 8 209.164 9.49322 209.164 11.3352V152.665C209.164 154.507 207.67 156 205.828 156H18.1719C16.3299 156 14.8367 154.507 14.8367 152.665V11.3352Z" fill="white"/>
</clipPath>
<clipPath id="clip2_3_6506">
<rect width="181.208" height="16.3989" fill="white" transform="translate(21.3962 14.5596)"/>
</clipPath>
<clipPath id="clip3_3_6506">
<path d="M36.1553 68.3214C36.1553 66.4794 37.6485 64.9861 39.4905 64.9861H70.687C72.529 64.9861 74.0222 66.4794 74.0222 68.3214V69.0304C74.0222 70.8724 72.529 72.3656 70.687 72.3656H39.4905C37.6485 72.3656 36.1553 70.8724 36.1553 69.0304V68.3214Z" fill="white"/>
</clipPath>
<clipPath id="clip4_3_6506">
<path d="M77.9226 68.3214C77.9226 66.4794 79.4158 64.9861 81.2578 64.9861H112.454C114.296 64.9861 115.79 66.4794 115.79 68.3214V69.0304C115.79 70.8724 114.296 72.3656 112.454 72.3656H81.2578C79.4158 72.3656 77.9226 70.8724 77.9226 69.0304V68.3214Z" fill="white"/>
</clipPath>
<clipPath id="clip5_3_6506">
<path d="M119.698 68.3214C119.698 66.4794 121.191 64.9861 123.033 64.9861H154.218C156.06 64.9861 157.553 66.4794 157.553 68.3214V69.0304C157.553 70.8724 156.06 72.3656 154.218 72.3656H123.033C121.191 72.3656 119.698 70.8724 119.698 69.0304V68.3214Z" fill="white"/>
</clipPath>
<clipPath id="clip6_3_6506">
<path d="M161.457 68.5263C161.457 66.6844 162.951 65.1911 164.792 65.1911H182.012C183.854 65.1911 185.348 66.6844 185.348 68.5263V69.2354C185.348 71.0774 183.854 72.5706 182.012 72.5706H164.792C162.951 72.5706 161.457 71.0774 161.457 69.2354V68.5263Z" fill="white"/>
</clipPath>
<clipPath id="clip7_3_6506">
<path d="M189.248 68.3214C189.248 66.4794 190.741 64.9861 192.583 64.9861H195.989C197.831 64.9861 199.324 66.4794 199.324 68.3214V69.0304C199.324 70.8724 197.831 72.3656 195.989 72.3656H192.583C190.741 72.3656 189.248 70.8724 189.248 69.0304V68.3214Z" fill="white"/>
</clipPath>
<clipPath id="clip8_3_6506">
<path d="M36.1553 91.2798C36.1553 89.4378 37.6485 87.9446 39.4905 87.9446H70.687C72.529 87.9446 74.0222 89.4378 74.0222 91.2798V91.9889C74.0222 93.8309 72.529 95.3241 70.687 95.3241H39.4905C37.6485 95.3241 36.1553 93.8309 36.1553 91.9889V91.2798Z" fill="white"/>
</clipPath>
<clipPath id="clip9_3_6506">
<path d="M77.9226 91.2798C77.9226 89.4378 79.4158 87.9446 81.2578 87.9446H112.454C114.296 87.9446 115.79 89.4378 115.79 91.2798V91.9889C115.79 93.8309 114.296 95.3241 112.454 95.3241H81.2578C79.4158 95.3241 77.9226 93.8309 77.9226 91.9889V91.2798Z" fill="white"/>
</clipPath>
<clipPath id="clip10_3_6506">
<path d="M119.698 91.2798C119.698 89.4378 121.191 87.9446 123.033 87.9446H154.218C156.06 87.9446 157.553 89.4378 157.553 91.2798V91.9889C157.553 93.8309 156.06 95.3241 154.218 95.3241H123.033C121.191 95.3241 119.698 93.8309 119.698 91.9889V91.2798Z" fill="white"/>
</clipPath>
<clipPath id="clip11_3_6506">
<path d="M161.457 91.4848C161.457 89.6428 162.951 88.1496 164.792 88.1496H182.012C183.854 88.1496 185.348 89.6428 185.348 91.4848V92.1939C185.348 94.0359 183.854 95.5291 182.012 95.5291H164.792C162.951 95.5291 161.457 94.0359 161.457 92.1939V91.4848Z" fill="white"/>
</clipPath>
<clipPath id="clip12_3_6506">
<path d="M189.248 91.2798C189.248 89.4378 190.741 87.9446 192.583 87.9446H195.989C197.831 87.9446 199.324 89.4378 199.324 91.2798V91.9889C199.324 93.8309 197.831 95.3241 195.989 95.3241H192.583C190.741 95.3241 189.248 93.8309 189.248 91.9889V91.2798Z" fill="white"/>
</clipPath>
<clipPath id="clip13_3_6506">
<path d="M36.1553 114.238C36.1553 112.396 37.6485 110.903 39.4905 110.903H70.687C72.529 110.903 74.0222 112.396 74.0222 114.238V114.947C74.0222 116.789 72.529 118.283 70.687 118.283H39.4905C37.6485 118.283 36.1553 116.789 36.1553 114.947V114.238Z" fill="white"/>
</clipPath>
<clipPath id="clip14_3_6506">
<path d="M77.9226 114.238C77.9226 112.396 79.4158 110.903 81.2578 110.903H112.454C114.296 110.903 115.79 112.396 115.79 114.238V114.947C115.79 116.789 114.296 118.283 112.454 118.283H81.2578C79.4158 118.283 77.9226 116.789 77.9226 114.947V114.238Z" fill="white"/>
</clipPath>
<clipPath id="clip15_3_6506">
<path d="M119.698 114.238C119.698 112.396 121.191 110.903 123.033 110.903H154.218C156.06 110.903 157.553 112.396 157.553 114.238V114.947C157.553 116.789 156.06 118.283 154.218 118.283H123.033C121.191 118.283 119.698 116.789 119.698 114.947V114.238Z" fill="white"/>
</clipPath>
<clipPath id="clip16_3_6506">
<path d="M161.457 114.443C161.457 112.601 162.951 111.108 164.792 111.108H182.012C183.854 111.108 185.348 112.601 185.348 114.443V115.152C185.348 116.994 183.854 118.488 182.012 118.488H164.792C162.951 118.488 161.457 116.994 161.457 115.152V114.443Z" fill="white"/>
</clipPath>
<clipPath id="clip17_3_6506">
<path d="M189.248 114.238C189.248 112.396 190.741 110.903 192.583 110.903H195.989C197.831 110.903 199.324 112.396 199.324 114.238V114.947C199.324 116.789 197.831 118.283 195.989 118.283H192.583C190.741 118.283 189.248 116.789 189.248 114.947V114.238Z" fill="white"/>
</clipPath>
</defs>
</svg>
