<svg width="224" height="117" viewBox="0 0 224 117" fill="none" xmlns="http://www.w3.org/2000/svg">
<g clip-path="url(#clip0_27_6358)">
<path d="M54.5 47C54.5 42.5817 58.0817 39 62.5 39H162.5C166.918 39 170.5 42.5817 170.5 47V69C170.5 73.4183 166.918 77 162.5 77H62.5C58.0817 77 54.5 73.4183 54.5 69V47Z" fill="#F1F0E9"/>
<path d="M72.0913 53.496L72.7393 54.528L67.0913 57.992L72.7393 61.488L72.0193 62.472L65.9393 58.672V57.296L72.0913 53.496ZM81.485 57.44C81.485 56.48 81.3837 55.712 81.181 55.136C80.9783 54.56 80.7117 54.128 80.381 53.84C80.0503 53.552 79.6877 53.36 79.293 53.264C78.9037 53.168 78.5197 53.12 78.141 53.12H76.845V61.888H78.157C78.5517 61.888 78.9437 61.8267 79.333 61.704C79.7277 61.576 80.0877 61.352 80.413 61.032C80.7383 60.7067 80.997 60.256 81.189 59.68C81.3863 59.0987 81.485 58.352 81.485 57.44ZM82.965 57.44C82.965 58.3573 82.8663 59.1413 82.669 59.792C82.477 60.4373 82.213 60.9707 81.877 61.392C81.541 61.8133 81.157 62.1413 80.725 62.376C80.2983 62.6053 79.8477 62.768 79.373 62.864C78.9037 62.9547 78.4423 63 77.989 63H75.461V51.984H77.813C78.4583 51.984 79.085 52.056 79.693 52.2C80.3063 52.344 80.8583 52.6107 81.349 53C81.845 53.384 82.237 53.9333 82.525 54.648C82.8183 55.3627 82.965 56.2933 82.965 57.44ZM91.3588 61.16C91.3588 61.496 91.4148 61.7413 91.5268 61.896C91.6388 62.0507 91.8121 62.1653 92.0468 62.24L91.7188 63.184C91.3561 63.136 91.0388 63.0213 90.7668 62.84C90.4948 62.6533 90.2974 62.3733 90.1748 62C89.8708 62.3893 89.4921 62.6853 89.0388 62.888C88.5854 63.0853 88.0841 63.184 87.5348 63.184C86.6921 63.184 86.0281 62.9467 85.5428 62.472C85.0574 61.9973 84.8148 61.368 84.8148 60.584C84.8148 59.7147 85.1534 59.048 85.8307 58.584C86.5081 58.12 87.4868 57.888 88.7668 57.888H90.0068V57.184C90.0068 56.576 89.8281 56.1467 89.4708 55.896C89.1188 55.64 88.6281 55.512 87.9988 55.512C87.7214 55.512 87.3961 55.5467 87.0228 55.616C86.6494 55.68 86.2441 55.7893 85.8068 55.944L85.4548 54.928C85.9721 54.736 86.4574 54.6 86.9108 54.52C87.3641 54.44 87.7961 54.4 88.2068 54.4C89.2574 54.4 90.0441 54.6453 90.5668 55.136C91.0948 55.6213 91.3588 56.2827 91.3588 57.12V61.16ZM87.8788 62.16C88.2948 62.16 88.6921 62.056 89.0708 61.848C89.4494 61.6347 89.7614 61.3413 90.0068 60.968V58.8H88.7908C87.8628 58.8 87.2068 58.96 86.8228 59.28C86.4441 59.6 86.2548 60.0293 86.2548 60.568C86.2548 61.0907 86.3881 61.488 86.6548 61.76C86.9268 62.0267 87.3348 62.16 87.8788 62.16ZM101.609 62.576C101.321 62.768 100.971 62.9173 100.561 63.024C100.15 63.1307 99.7472 63.184 99.3525 63.184C98.4458 63.184 97.7472 62.9467 97.2565 62.472C96.7658 61.9973 96.5205 61.3867 96.5205 60.64V55.616H94.5845V54.576H96.5205V52.664L97.8645 52.504V54.576H100.777L100.617 55.616H97.8645V60.624C97.8645 61.0933 97.9872 61.4507 98.2325 61.696C98.4832 61.9413 98.8965 62.064 99.4725 62.064C99.7872 62.064 100.078 62.0267 100.345 61.952C100.611 61.8773 100.859 61.7813 101.089 61.664L101.609 62.576ZM110.546 61.16C110.546 61.496 110.602 61.7413 110.714 61.896C110.826 62.0507 111 62.1653 111.234 62.24L110.906 63.184C110.544 63.136 110.226 63.0213 109.954 62.84C109.682 62.6533 109.485 62.3733 109.362 62C109.058 62.3893 108.68 62.6853 108.226 62.888C107.773 63.0853 107.272 63.184 106.722 63.184C105.88 63.184 105.216 62.9467 104.73 62.472C104.245 61.9973 104.002 61.368 104.002 60.584C104.002 59.7147 104.341 59.048 105.018 58.584C105.696 58.12 106.674 57.888 107.954 57.888H109.194V57.184C109.194 56.576 109.016 56.1467 108.658 55.896C108.306 55.64 107.816 55.512 107.186 55.512C106.909 55.512 106.584 55.5467 106.21 55.616C105.837 55.68 105.432 55.7893 104.994 55.944L104.642 54.928C105.16 54.736 105.645 54.6 106.098 54.52C106.552 54.44 106.984 54.4 107.394 54.4C108.445 54.4 109.232 54.6453 109.754 55.136C110.282 55.6213 110.546 56.2827 110.546 57.12V61.16ZM107.066 62.16C107.482 62.16 107.88 62.056 108.258 61.848C108.637 61.6347 108.949 61.3413 109.194 60.968V58.8H107.978C107.05 58.8 106.394 58.96 106.01 59.28C105.632 59.6 105.442 60.0293 105.442 60.568C105.442 61.0907 105.576 61.488 105.842 61.76C106.114 62.0267 106.522 62.16 107.066 62.16ZM119.86 57.44C119.86 56.48 119.759 55.712 119.556 55.136C119.353 54.56 119.087 54.128 118.756 53.84C118.425 53.552 118.063 53.36 117.668 53.264C117.279 53.168 116.895 53.12 116.516 53.12H115.22V61.888H116.532C116.927 61.888 117.319 61.8267 117.708 61.704C118.103 61.576 118.463 61.352 118.788 61.032C119.113 60.7067 119.372 60.256 119.564 59.68C119.761 59.0987 119.86 58.352 119.86 57.44ZM121.34 57.44C121.34 58.3573 121.241 59.1413 121.044 59.792C120.852 60.4373 120.588 60.9707 120.252 61.392C119.916 61.8133 119.532 62.1413 119.1 62.376C118.673 62.6053 118.223 62.768 117.748 62.864C117.279 62.9547 116.817 63 116.364 63H113.836V51.984H116.188C116.833 51.984 117.46 52.056 118.068 52.2C118.681 52.344 119.233 52.6107 119.724 53C120.22 53.384 120.612 53.9333 120.9 54.648C121.193 55.3627 121.34 56.2933 121.34 57.44ZM125.046 54.576V60.544C125.046 61.0987 125.16 61.4987 125.39 61.744C125.619 61.9893 125.976 62.112 126.462 62.112C126.926 62.112 127.363 61.9813 127.774 61.72C128.19 61.4533 128.512 61.1387 128.742 60.776V54.576H130.086V63H128.942L128.83 61.864C128.499 62.2907 128.091 62.6187 127.606 62.848C127.12 63.072 126.63 63.184 126.134 63.184C125.318 63.184 124.707 62.968 124.302 62.536C123.902 62.0987 123.702 61.488 123.702 60.704V54.576H125.046ZM138.848 54.4C139.12 54.4 139.378 54.4587 139.624 54.576C139.874 54.6933 140.08 54.92 140.24 55.256C140.4 55.592 140.48 56.0827 140.48 56.728V63H139.232V56.944C139.232 56.416 139.2 56.0347 139.136 55.8C139.072 55.5653 138.888 55.448 138.584 55.448C138.333 55.448 138.082 55.528 137.832 55.688C137.586 55.8427 137.346 56.0987 137.112 56.456V63H135.856V56.944C135.856 56.416 135.824 56.0347 135.76 55.8C135.696 55.5653 135.512 55.448 135.208 55.448C134.946 55.448 134.693 55.528 134.448 55.688C134.208 55.8427 133.97 56.0987 133.736 56.456V63H132.496V54.576H133.552L133.632 55.552C133.861 55.2267 134.117 54.9547 134.4 54.736C134.688 54.512 135.042 54.4 135.464 54.4C135.784 54.4 136.085 54.4773 136.368 54.632C136.65 54.7813 136.858 55.0747 136.992 55.512C137.221 55.1813 137.48 54.9147 137.768 54.712C138.056 54.504 138.416 54.4 138.848 54.4ZM146.657 54.4C147.404 54.4 147.999 54.5813 148.441 54.944C148.889 55.3067 149.212 55.8187 149.409 56.48C149.607 57.136 149.705 57.904 149.705 58.784C149.705 59.632 149.585 60.3893 149.345 61.056C149.111 61.7173 148.753 62.2373 148.273 62.616C147.793 62.9947 147.188 63.184 146.457 63.184C145.535 63.184 144.793 62.8587 144.233 62.208V66.224L142.889 66.392V54.576H144.033L144.145 55.752C144.455 55.32 144.823 54.9867 145.249 54.752C145.681 54.5173 146.151 54.4 146.657 54.4ZM146.337 55.48C145.873 55.48 145.463 55.6213 145.105 55.904C144.753 56.1813 144.463 56.4907 144.233 56.832V61.008C144.452 61.3333 144.727 61.592 145.057 61.784C145.393 61.9707 145.761 62.064 146.161 62.064C146.86 62.064 147.385 61.7973 147.737 61.264C148.089 60.7307 148.265 59.9013 148.265 58.776C148.265 58.04 148.196 57.4293 148.057 56.944C147.919 56.4533 147.708 56.088 147.425 55.848C147.143 55.6027 146.78 55.48 146.337 55.48ZM152.931 53.496L159.083 57.296V58.672L153.011 62.472L152.283 61.48L157.931 57.992L152.283 54.512L152.931 53.496Z" fill="#233D48"/>
</g>
<defs>
<clipPath id="clip0_27_6358">
<path d="M0 8C0 3.58172 3.58172 0 8 0H216C220.418 0 224 3.58172 224 8V109C224 113.418 220.418 117 216 117H8C3.58172 117 0 113.418 0 109V8Z" fill="white"/>
</clipPath>
</defs>
</svg>
