<svg width="474" height="361" viewBox="0 0 474 361" fill="none" xmlns="http://www.w3.org/2000/svg">
<g clip-path="url(#clip0_1_18786)">
<path d="M7.77131 23H4.47585L9.49716 8.45455H13.4602L18.4744 23H15.179L11.5355 11.7784H11.4219L7.77131 23ZM7.56534 17.2827H15.3494V19.6832H7.56534V17.2827ZM23.1939 8.45455V23H20.1683V8.45455H23.1939ZM28.6431 8.45455V23H25.6175V8.45455H28.6431ZM35.6957 23V12.0909H38.7212V23H35.6957ZM37.2156 10.6847C36.7657 10.6847 36.3799 10.5355 36.0579 10.2372C35.7406 9.93419 35.582 9.57197 35.582 9.15057C35.582 8.7339 35.7406 8.37642 36.0579 8.07812C36.3799 7.77509 36.7657 7.62358 37.2156 7.62358C37.6654 7.62358 38.0489 7.77509 38.3661 8.07812C38.6881 8.37642 38.8491 8.7339 38.8491 9.15057C38.8491 9.57197 38.6881 9.93419 38.3661 10.2372C38.0489 10.5355 37.6654 10.6847 37.2156 10.6847ZM46.9474 12.0909V14.3636H40.3778V12.0909H46.9474ZM41.8693 9.47727H44.8949V19.6477C44.8949 19.9271 44.9375 20.1449 45.0227 20.3011C45.108 20.4527 45.2263 20.5592 45.3778 20.6207C45.5341 20.6823 45.714 20.7131 45.9176 20.7131C46.0597 20.7131 46.2017 20.7012 46.3438 20.6776C46.4858 20.6491 46.5947 20.6278 46.6705 20.6136L47.1463 22.8651C46.9948 22.9124 46.7817 22.9669 46.5071 23.0284C46.2325 23.0947 45.8987 23.1349 45.5057 23.1491C44.7765 23.1776 44.1373 23.0805 43.5881 22.858C43.0436 22.6354 42.6198 22.2898 42.3168 21.821C42.0137 21.3523 41.8646 20.7604 41.8693 20.0455V9.47727ZM53.7727 23.2131C52.6506 23.2131 51.6847 22.9858 50.875 22.5312C50.0701 22.072 49.4498 21.4233 49.0142 20.5852C48.5786 19.7424 48.3608 18.7457 48.3608 17.5952C48.3608 16.473 48.5786 15.4882 49.0142 14.6406C49.4498 13.7931 50.063 13.1326 50.8537 12.6591C51.6491 12.1856 52.5819 11.9489 53.652 11.9489C54.3717 11.9489 55.0417 12.0649 55.6619 12.2969C56.2869 12.5241 56.8314 12.8674 57.2955 13.3267C57.7642 13.786 58.1288 14.3636 58.3892 15.0597C58.6496 15.7509 58.7798 16.5606 58.7798 17.4886V18.3196H49.5682V16.4446H55.9318C55.9318 16.009 55.8371 15.6231 55.6477 15.2869C55.4583 14.9508 55.1955 14.688 54.8594 14.4986C54.5279 14.3045 54.142 14.2074 53.7017 14.2074C53.2424 14.2074 52.8352 14.3139 52.4801 14.527C52.1297 14.7353 51.8551 15.017 51.6562 15.3722C51.4574 15.7225 51.3556 16.1132 51.3509 16.544V18.3267C51.3509 18.8665 51.4503 19.3329 51.6491 19.7259C51.8527 20.1188 52.1392 20.4219 52.5085 20.6349C52.8778 20.848 53.3158 20.9545 53.8224 20.9545C54.1586 20.9545 54.4664 20.9072 54.7457 20.8125C55.0251 20.7178 55.2642 20.5758 55.4631 20.3864C55.6619 20.197 55.8134 19.965 55.9176 19.6903L58.7159 19.875C58.5739 20.5473 58.2827 21.1345 57.8423 21.6364C57.4067 22.1335 56.8433 22.5218 56.152 22.8011C55.4654 23.0758 54.6723 23.2131 53.7727 23.2131ZM60.7543 23V12.0909H63.6378V14.0156H63.7656C63.9929 13.3764 64.3717 12.8722 64.902 12.5028C65.4323 12.1335 66.0668 11.9489 66.8054 11.9489C67.5535 11.9489 68.1903 12.1359 68.7159 12.5099C69.2415 12.8793 69.5919 13.3812 69.767 14.0156H69.8807C70.1032 13.3906 70.5057 12.8911 71.0881 12.517C71.6752 12.1383 72.3688 11.9489 73.169 11.9489C74.187 11.9489 75.0133 12.2732 75.6477 12.9219C76.2869 13.5658 76.6065 14.4796 76.6065 15.6634V23H73.5881V16.2599C73.5881 15.6539 73.4271 15.1993 73.1051 14.8963C72.7831 14.5933 72.3807 14.4418 71.8977 14.4418C71.3485 14.4418 70.92 14.617 70.6122 14.9673C70.3045 15.313 70.1506 15.7699 70.1506 16.3381V23H67.2173V16.196C67.2173 15.661 67.0634 15.2348 66.7557 14.9176C66.4527 14.6004 66.0526 14.4418 65.5554 14.4418C65.2192 14.4418 64.9162 14.527 64.6463 14.6974C64.3812 14.8632 64.1705 15.0975 64.0142 15.4006C63.858 15.6989 63.7798 16.0492 63.7798 16.4517V23H60.7543ZM88.0732 15.2017L85.3033 15.3722C85.2559 15.1354 85.1541 14.9223 84.9979 14.733C84.8416 14.5388 84.6357 14.3849 84.38 14.2713C84.129 14.1529 83.8284 14.0938 83.478 14.0938C83.0092 14.0938 82.6139 14.1932 82.2919 14.392C81.9699 14.5862 81.8089 14.8466 81.8089 15.1733C81.8089 15.4337 81.9131 15.6539 82.1214 15.8338C82.3298 16.0137 82.6873 16.1581 83.1939 16.267L85.1683 16.6648C86.2289 16.8826 87.0196 17.233 87.5405 17.7159C88.0613 18.1989 88.3217 18.8333 88.3217 19.6193C88.3217 20.3343 88.111 20.9616 87.6896 21.5014C87.273 22.0412 86.7 22.4626 85.9709 22.7656C85.2464 23.0639 84.4107 23.2131 83.4638 23.2131C82.0196 23.2131 80.8691 22.9124 80.0121 22.3111C79.1598 21.705 78.6603 20.8812 78.5135 19.8395L81.4893 19.6832C81.5793 20.1236 81.7971 20.4598 82.1428 20.6918C82.4884 20.919 82.9311 21.0327 83.4709 21.0327C84.0012 21.0327 84.4273 20.9309 84.7493 20.7273C85.076 20.5189 85.2417 20.2514 85.2464 19.9247C85.2417 19.6501 85.1257 19.4252 84.8984 19.25C84.6712 19.0701 84.3208 18.9328 83.8473 18.8381L81.9581 18.4616C80.8928 18.2486 80.0997 17.8793 79.5788 17.3537C79.0627 16.8281 78.8047 16.1581 78.8047 15.3438C78.8047 14.643 78.9941 14.0393 79.3729 13.5327C79.7564 13.026 80.2938 12.6354 80.9851 12.3608C81.6811 12.0862 82.4955 11.9489 83.4283 11.9489C84.8061 11.9489 85.8904 12.2401 86.6811 12.8224C87.4766 13.4048 87.9406 14.1979 88.0732 15.2017Z" fill="#032B3A"/>
<path d="M99.4915 17.9091C99.4915 16.6562 99.6539 15.5045 99.9787 14.4538C100.307 13.3999 100.774 12.4304 101.381 11.5455H102.415C102.176 11.8736 101.952 12.2779 101.744 12.7585C101.538 13.2358 101.357 13.7611 101.202 14.3345C101.046 14.9046 100.923 15.4946 100.834 16.1044C100.748 16.7143 100.705 17.3158 100.705 17.9091C100.705 18.6979 100.781 19.4983 100.933 20.3104C101.086 21.1224 101.291 21.8764 101.55 22.5724C101.808 23.2685 102.097 23.8352 102.415 24.2727H101.381C100.774 23.3878 100.307 22.42 99.9787 21.3693C99.6539 20.3153 99.4915 19.1619 99.4915 17.9091ZM107.447 23.1392C106.698 23.1392 106.06 22.9354 105.533 22.5277C105.006 22.1167 104.604 21.5218 104.325 20.7429C104.047 19.9607 103.907 19.0161 103.907 17.9091C103.907 16.8087 104.047 15.8691 104.325 15.0902C104.607 14.308 105.011 13.7114 105.538 13.3004C106.068 12.8861 106.705 12.679 107.447 12.679C108.19 12.679 108.824 12.8861 109.351 13.3004C109.882 13.7114 110.286 14.308 110.564 15.0902C110.846 15.8691 110.987 16.8087 110.987 17.9091C110.987 19.0161 110.848 19.9607 110.569 20.7429C110.291 21.5218 109.888 22.1167 109.361 22.5277C108.834 22.9354 108.196 23.1392 107.447 23.1392ZM107.447 22.0455C108.19 22.0455 108.766 21.6875 109.177 20.9716C109.588 20.2557 109.794 19.2348 109.794 17.9091C109.794 17.0275 109.699 16.2768 109.51 15.657C109.325 15.0372 109.056 14.5649 108.705 14.2401C108.357 13.9152 107.938 13.7528 107.447 13.7528C106.711 13.7528 106.136 14.1158 105.722 14.8416C105.308 15.5642 105.101 16.5866 105.101 17.9091C105.101 18.7907 105.193 19.5398 105.379 20.1562C105.565 20.7727 105.831 21.2417 106.18 21.5632C106.531 21.8847 106.953 22.0455 107.447 22.0455ZM114.291 21.608L114.211 22.1449C114.155 22.5227 114.069 22.9271 113.953 23.358C113.84 23.7888 113.722 24.1948 113.6 24.576C113.477 24.9571 113.376 25.2604 113.296 25.4858H112.401C112.445 25.2737 112.501 24.9936 112.57 24.6456C112.64 24.2976 112.71 23.9081 112.779 23.4773C112.852 23.0497 112.912 22.6122 112.958 22.1648L113.018 21.608H114.291ZM119.41 23.1392C118.661 23.1392 118.023 22.9354 117.496 22.5277C116.969 22.1167 116.566 21.5218 116.288 20.7429C116.01 19.9607 115.87 19.0161 115.87 17.9091C115.87 16.8087 116.01 15.8691 116.288 15.0902C116.57 14.308 116.974 13.7114 117.501 13.3004C118.031 12.8861 118.668 12.679 119.41 12.679C120.153 12.679 120.787 12.8861 121.314 13.3004C121.845 13.7114 122.249 14.308 122.527 15.0902C122.809 15.8691 122.95 16.8087 122.95 17.9091C122.95 19.0161 122.811 19.9607 122.532 20.7429C122.254 21.5218 121.851 22.1167 121.324 22.5277C120.797 22.9354 120.159 23.1392 119.41 23.1392ZM119.41 22.0455C120.153 22.0455 120.729 21.6875 121.14 20.9716C121.551 20.2557 121.757 19.2348 121.757 17.9091C121.757 17.0275 121.662 16.2768 121.473 15.657C121.288 15.0372 121.019 14.5649 120.668 14.2401C120.32 13.9152 119.901 13.7528 119.41 13.7528C118.674 13.7528 118.099 14.1158 117.685 14.8416C117.271 15.5642 117.064 16.5866 117.064 17.9091C117.064 18.7907 117.156 19.5398 117.342 20.1562C117.528 20.7727 117.794 21.2417 118.142 21.5632C118.494 21.8847 118.916 22.0455 119.41 22.0455ZM128.16 23.1392C127.411 23.1392 126.773 22.9354 126.246 22.5277C125.719 22.1167 125.316 21.5218 125.038 20.7429C124.76 19.9607 124.62 19.0161 124.62 17.9091C124.62 16.8087 124.76 15.8691 125.038 15.0902C125.32 14.308 125.724 13.7114 126.251 13.3004C126.781 12.8861 127.418 12.679 128.16 12.679C128.903 12.679 129.537 12.8861 130.064 13.3004C130.595 13.7114 130.999 14.308 131.277 15.0902C131.559 15.8691 131.7 16.8087 131.7 17.9091C131.7 19.0161 131.561 19.9607 131.282 20.7429C131.004 21.5218 130.601 22.1167 130.074 22.5277C129.547 22.9354 128.909 23.1392 128.16 23.1392ZM128.16 22.0455C128.903 22.0455 129.479 21.6875 129.89 20.9716C130.301 20.2557 130.507 19.2348 130.507 17.9091C130.507 17.0275 130.412 16.2768 130.223 15.657C130.038 15.0372 129.769 14.5649 129.418 14.2401C129.07 13.9152 128.651 13.7528 128.16 13.7528C127.424 13.7528 126.849 14.1158 126.435 14.8416C126.021 15.5642 125.814 16.5866 125.814 17.9091C125.814 18.7907 125.906 19.5398 126.092 20.1562C126.278 20.7727 126.544 21.2417 126.892 21.5632C127.244 21.8847 127.666 22.0455 128.16 22.0455ZM136.91 23.1392C136.161 23.1392 135.523 22.9354 134.996 22.5277C134.469 22.1167 134.066 21.5218 133.788 20.7429C133.51 19.9607 133.37 19.0161 133.37 17.9091C133.37 16.8087 133.51 15.8691 133.788 15.0902C134.07 14.308 134.474 13.7114 135.001 13.3004C135.531 12.8861 136.168 12.679 136.91 12.679C137.653 12.679 138.287 12.8861 138.814 13.3004C139.345 13.7114 139.749 14.308 140.027 15.0902C140.309 15.8691 140.45 16.8087 140.45 17.9091C140.45 19.0161 140.311 19.9607 140.032 20.7429C139.754 21.5218 139.351 22.1167 138.824 22.5277C138.297 22.9354 137.659 23.1392 136.91 23.1392ZM136.91 22.0455C137.653 22.0455 138.229 21.6875 138.64 20.9716C139.051 20.2557 139.257 19.2348 139.257 17.9091C139.257 17.0275 139.162 16.2768 138.973 15.657C138.788 15.0372 138.519 14.5649 138.168 14.2401C137.82 13.9152 137.401 13.7528 136.91 13.7528C136.174 13.7528 135.599 14.1158 135.185 14.8416C134.771 15.5642 134.564 16.5866 134.564 17.9091C134.564 18.7907 134.656 19.5398 134.842 20.1562C135.028 20.7727 135.294 21.2417 135.642 21.5632C135.994 21.8847 136.416 22.0455 136.91 22.0455ZM146.297 23V15.3636H147.43V16.517H147.51C147.649 16.1392 147.901 15.8326 148.265 15.5973C148.63 15.362 149.041 15.2443 149.498 15.2443C149.584 15.2443 149.692 15.246 149.821 15.2493C149.951 15.2526 150.048 15.2576 150.115 15.2642V16.4574C150.075 16.4474 149.984 16.4325 149.841 16.4126C149.702 16.3894 149.555 16.3778 149.399 16.3778C149.028 16.3778 148.696 16.4557 148.404 16.6115C148.116 16.764 147.887 16.9761 147.718 17.2479C147.553 17.5163 147.47 17.8229 147.47 18.1676V23H146.297ZM154.475 23.1591C153.739 23.1591 153.104 22.9967 152.571 22.6719C152.04 22.3438 151.631 21.8864 151.343 21.2997C151.058 20.7098 150.915 20.0237 150.915 19.2415C150.915 18.4593 151.058 17.7699 151.343 17.1733C151.631 16.5734 152.032 16.1061 152.546 15.7713C153.063 15.4332 153.666 15.2642 154.355 15.2642C154.753 15.2642 155.146 15.3305 155.534 15.4631C155.922 15.5956 156.275 15.8111 156.593 16.1094C156.911 16.4044 157.164 16.7955 157.353 17.2827C157.542 17.7699 157.637 18.3698 157.637 19.0824V19.5795H151.75V18.5653H156.444C156.444 18.1345 156.357 17.75 156.185 17.4119C156.016 17.0739 155.774 16.8071 155.459 16.6115C155.148 16.416 154.78 16.3182 154.355 16.3182C153.888 16.3182 153.484 16.4342 153.142 16.6662C152.804 16.8949 152.544 17.1932 152.362 17.5611C152.18 17.929 152.088 18.3234 152.088 18.7443V19.4205C152.088 19.9972 152.188 20.486 152.387 20.8871C152.589 21.2848 152.869 21.5881 153.227 21.7969C153.585 22.0024 154.001 22.1051 154.475 22.1051C154.783 22.1051 155.061 22.062 155.31 21.9759C155.562 21.8864 155.779 21.7538 155.961 21.5781C156.144 21.3991 156.284 21.1771 156.384 20.9119L157.517 21.2301C157.398 21.6146 157.198 21.9527 156.916 22.2443C156.634 22.5327 156.286 22.758 155.872 22.9205C155.458 23.0795 154.992 23.1591 154.475 23.1591ZM164.831 17.0739L163.777 17.3722C163.71 17.1965 163.613 17.0258 163.483 16.8601C163.357 16.6911 163.185 16.5518 162.966 16.4425C162.748 16.3331 162.467 16.2784 162.126 16.2784C161.659 16.2784 161.269 16.3861 160.958 16.6016C160.65 16.8137 160.495 17.0838 160.495 17.4119C160.495 17.7036 160.601 17.9339 160.814 18.103C161.026 18.272 161.357 18.4129 161.808 18.5256L162.941 18.804C163.624 18.9697 164.133 19.2232 164.468 19.5646C164.802 19.9027 164.97 20.3385 164.97 20.8722C164.97 21.3097 164.844 21.7008 164.592 22.0455C164.343 22.3902 163.995 22.6619 163.548 22.8608C163.1 23.0597 162.58 23.1591 161.987 23.1591C161.208 23.1591 160.563 22.9901 160.053 22.652C159.542 22.3139 159.219 21.8201 159.083 21.1705L160.197 20.892C160.303 21.303 160.504 21.6113 160.799 21.8168C161.097 22.0223 161.486 22.125 161.967 22.125C162.514 22.125 162.948 22.009 163.27 21.777C163.594 21.5417 163.757 21.2599 163.757 20.9318C163.757 20.6667 163.664 20.4446 163.478 20.2656C163.293 20.0833 163.008 19.9474 162.623 19.858L161.35 19.5597C160.651 19.3939 160.137 19.1371 159.809 18.7891C159.484 18.4377 159.322 17.9986 159.322 17.4716C159.322 17.0407 159.443 16.6596 159.685 16.3281C159.93 15.9967 160.263 15.7365 160.684 15.5476C161.109 15.3587 161.589 15.2642 162.126 15.2642C162.882 15.2642 163.475 15.4299 163.906 15.7614C164.34 16.0928 164.648 16.5303 164.831 17.0739ZM171.548 19.8778V15.3636H172.722V23H171.548V21.7074H171.469C171.29 22.0952 171.012 22.425 170.634 22.6967C170.256 22.9652 169.779 23.0994 169.202 23.0994C168.725 23.0994 168.3 22.995 167.929 22.7862C167.558 22.5741 167.266 22.2559 167.054 21.8317C166.842 21.4041 166.736 20.8655 166.736 20.2159V15.3636H167.909V20.1364C167.909 20.6932 168.065 21.1373 168.377 21.4688C168.691 21.8002 169.093 21.9659 169.58 21.9659C169.871 21.9659 170.168 21.8913 170.47 21.7422C170.775 21.593 171.03 21.3643 171.235 21.0561C171.444 20.7479 171.548 20.3551 171.548 19.8778ZM176.044 12.8182V23H174.871V12.8182H176.044ZM181.514 15.3636V16.358H177.557V15.3636H181.514ZM178.71 13.5341H179.883V20.8125C179.883 21.1439 179.931 21.3925 180.028 21.5582C180.127 21.7206 180.253 21.83 180.405 21.8864C180.561 21.9394 180.725 21.9659 180.898 21.9659C181.027 21.9659 181.133 21.9593 181.216 21.946C181.299 21.9295 181.365 21.9162 181.415 21.9062L181.653 22.9602C181.574 22.9901 181.463 23.0199 181.32 23.0497C181.178 23.0829 180.997 23.0994 180.778 23.0994C180.447 23.0994 180.122 23.0282 179.804 22.8857C179.489 22.7431 179.227 22.526 179.018 22.2344C178.813 21.9427 178.71 21.5748 178.71 21.1307V13.5341ZM188.551 17.0739L187.497 17.3722C187.431 17.1965 187.333 17.0258 187.204 16.8601C187.078 16.6911 186.906 16.5518 186.687 16.4425C186.468 16.3331 186.188 16.2784 185.847 16.2784C185.379 16.2784 184.99 16.3861 184.678 16.6016C184.37 16.8137 184.216 17.0838 184.216 17.4119C184.216 17.7036 184.322 17.9339 184.534 18.103C184.746 18.272 185.078 18.4129 185.529 18.5256L186.662 18.804C187.345 18.9697 187.854 19.2232 188.188 19.5646C188.523 19.9027 188.691 20.3385 188.691 20.8722C188.691 21.3097 188.565 21.7008 188.313 22.0455C188.064 22.3902 187.716 22.6619 187.269 22.8608C186.821 23.0597 186.301 23.1591 185.708 23.1591C184.929 23.1591 184.284 22.9901 183.774 22.652C183.263 22.3139 182.94 21.8201 182.804 21.1705L183.918 20.892C184.024 21.303 184.224 21.6113 184.519 21.8168C184.818 22.0223 185.207 22.125 185.688 22.125C186.235 22.125 186.669 22.009 186.99 21.777C187.315 21.5417 187.477 21.2599 187.477 20.9318C187.477 20.6667 187.385 20.4446 187.199 20.2656C187.013 20.0833 186.728 19.9474 186.344 19.858L185.071 19.5597C184.372 19.3939 183.858 19.1371 183.53 18.7891C183.205 18.4377 183.043 17.9986 183.043 17.4716C183.043 17.0407 183.164 16.6596 183.406 16.3281C183.651 15.9967 183.984 15.7365 184.405 15.5476C184.829 15.3587 185.31 15.2642 185.847 15.2642C186.602 15.2642 187.196 15.4299 187.627 15.7614C188.061 16.0928 188.369 16.5303 188.551 17.0739ZM192.962 18.7045C192.962 19.9574 192.798 21.1108 192.47 22.1648C192.145 23.2154 191.68 24.1832 191.073 25.0682H190.039C190.278 24.7401 190.5 24.3357 190.705 23.8551C190.914 23.3778 191.096 22.8542 191.252 22.2841C191.408 21.7107 191.529 21.1191 191.615 20.5092C191.705 19.8961 191.749 19.2945 191.749 18.7045C191.749 17.9157 191.673 17.1153 191.521 16.3033C191.368 15.4912 191.163 14.7372 190.904 14.0412C190.646 13.3452 190.357 12.7784 190.039 12.3409H191.073C191.68 13.2259 192.145 14.1953 192.47 15.2493C192.798 16.3 192.962 17.4517 192.962 18.7045Z" fill="#627A84"/>
<rect x="4.5" y="52.5" width="89" height="39" rx="19.5" fill="white"/>
<rect x="4.5" y="52.5" width="89" height="39" rx="19.5" stroke="#DADFE2"/>
<path d="M21.1186 77V66.8182H27.4325V68.1406H22.6548V71.2429H26.9801V72.5604H22.6548V77H21.1186ZM29.2024 77V69.3636H30.6889V77H29.2024ZM29.9531 68.1854C29.6946 68.1854 29.4725 68.0992 29.2869 67.9268C29.1046 67.7512 29.0135 67.5424 29.0135 67.3004C29.0135 67.0552 29.1046 66.8464 29.2869 66.674C29.4725 66.4983 29.6946 66.4105 29.9531 66.4105C30.2116 66.4105 30.4321 66.4983 30.6143 66.674C30.8 66.8464 30.8928 67.0552 30.8928 67.3004C30.8928 67.5424 30.8 67.7512 30.6143 67.9268C30.4321 68.0992 30.2116 68.1854 29.9531 68.1854ZM34.1752 66.8182V77H32.6887V66.8182H34.1752ZM39.7397 69.3636V70.5568H35.5685V69.3636H39.7397ZM36.6871 67.5341H38.1737V74.7578C38.1737 75.0462 38.2167 75.2633 38.3029 75.4091C38.3891 75.5516 38.5001 75.6494 38.636 75.7024C38.7752 75.7521 38.926 75.777 39.0884 75.777C39.2077 75.777 39.3121 75.7687 39.4016 75.7521C39.4911 75.7356 39.5607 75.7223 39.6104 75.7124L39.8789 76.9403C39.7927 76.9735 39.6701 77.0066 39.511 77.0398C39.3519 77.0762 39.1531 77.0961 38.9144 77.0994C38.5233 77.1061 38.1587 77.0365 37.8207 76.8906C37.4826 76.7448 37.2092 76.5194 37.0004 76.2145C36.7915 75.9096 36.6871 75.5268 36.6871 75.0661V67.5341ZM44.5932 77.1541C43.8408 77.1541 43.1929 76.9934 42.6493 76.6719C42.1091 76.3471 41.6915 75.8913 41.3965 75.3047C41.1048 74.7147 40.959 74.0237 40.959 73.2315C40.959 72.4493 41.1048 71.7599 41.3965 71.1634C41.6915 70.5668 42.1025 70.1011 42.6294 69.7663C43.1597 69.4316 43.7795 69.2642 44.4888 69.2642C44.9197 69.2642 45.3373 69.3355 45.7417 69.478C46.146 69.6205 46.5089 69.8442 46.8304 70.1491C47.1519 70.4541 47.4055 70.8501 47.5911 71.3374C47.7767 71.8213 47.8695 72.4096 47.8695 73.1023V73.6293H41.7992V72.5156H46.4128C46.4128 72.1245 46.3333 71.7782 46.1742 71.4766C46.0151 71.1716 45.7914 70.9313 45.503 70.7557C45.218 70.58 44.8832 70.4922 44.4988 70.4922C44.0811 70.4922 43.7166 70.5949 43.405 70.8004C43.0968 71.0026 42.8581 71.2678 42.6891 71.5959C42.5234 71.9207 42.4405 72.2737 42.4405 72.6548V73.5249C42.4405 74.0353 42.53 74.4695 42.709 74.8274C42.8913 75.1854 43.1448 75.4588 43.4696 75.6477C43.7944 75.8333 44.1739 75.9261 44.6081 75.9261C44.8899 75.9261 45.1467 75.8864 45.3787 75.8068C45.6107 75.724 45.8113 75.6013 45.9803 75.4389C46.1493 75.2765 46.2786 75.076 46.3681 74.8374L47.775 75.0909C47.6623 75.5052 47.4602 75.8681 47.1685 76.1797C46.8801 76.4879 46.5172 76.7282 46.0797 76.9006C45.6455 77.0696 45.15 77.1541 44.5932 77.1541ZM49.5188 77V69.3636H50.9556V70.5767H51.0352C51.1744 70.1657 51.4196 69.8426 51.771 69.6072C52.1256 69.3686 52.5266 69.2493 52.9741 69.2493C53.0669 69.2493 53.1763 69.2526 53.3022 69.2592C53.4315 69.2659 53.5326 69.2741 53.6055 69.2841V70.706C53.5458 70.6894 53.4397 70.6712 53.2873 70.6513C53.1348 70.6281 52.9824 70.6165 52.8299 70.6165C52.4786 70.6165 52.1654 70.6911 51.8903 70.8402C51.6185 70.986 51.4031 71.1899 51.244 71.4517C51.0849 71.7102 51.0053 72.0052 51.0053 72.3366V77H49.5188Z" fill="#233D48"/>
<rect x="62" y="60" width="24" height="24" rx="12" fill="white"/>
<path d="M73.9999 67.3333C73.6317 67.3333 73.3333 67.6318 73.3333 68V71.3333H69.9999C69.6317 71.3333 69.3333 71.6318 69.3333 72C69.3333 72.3682 69.6317 72.6666 69.9999 72.6666H73.3333V76C73.3333 76.3682 73.6317 76.6666 73.9999 76.6666C74.3681 76.6666 74.6666 76.3682 74.6666 76V72.6666H77.9999C78.3681 72.6666 78.6666 72.3682 78.6666 72C78.6666 71.6318 78.3681 71.3333 77.9999 71.3333H74.6666V68C74.6666 67.6318 74.3681 67.3333 73.9999 67.3333Z" fill="#233D48"/>
<rect x="102" y="52" width="191" height="40" rx="20" fill="#F1F0E9"/>
<path d="M124.538 69.6172C124.491 69.183 124.296 68.8449 123.951 68.603C123.61 68.361 123.165 68.2401 122.619 68.2401C122.234 68.2401 121.904 68.2981 121.629 68.4141C121.354 68.5301 121.144 68.6875 120.998 68.8864C120.852 69.0852 120.777 69.3123 120.774 69.5675C120.774 69.7796 120.822 69.9635 120.918 70.1193C121.018 70.2751 121.152 70.4077 121.321 70.517C121.49 70.6231 121.677 70.7126 121.883 70.7855C122.088 70.8584 122.295 70.9197 122.504 70.9695L123.459 71.2081C123.843 71.2976 124.213 71.4186 124.567 71.571C124.925 71.7235 125.245 71.9157 125.527 72.1477C125.812 72.3797 126.037 72.6598 126.203 72.9879C126.369 73.3161 126.452 73.7005 126.452 74.1413C126.452 74.7379 126.299 75.2633 125.994 75.7173C125.689 76.1681 125.249 76.5211 124.672 76.7763C124.098 77.0282 123.404 77.1541 122.589 77.1541C121.797 77.1541 121.109 77.0315 120.526 76.7862C119.946 76.541 119.491 76.183 119.163 75.7124C118.839 75.2417 118.663 74.6683 118.636 73.9922H120.451C120.478 74.3468 120.587 74.6418 120.779 74.8771C120.971 75.1125 121.222 75.2881 121.53 75.4041C121.841 75.5201 122.189 75.5781 122.574 75.5781C122.975 75.5781 123.326 75.5185 123.628 75.3991C123.933 75.2765 124.171 75.1075 124.344 74.892C124.516 74.6733 124.604 74.4181 124.607 74.1264C124.604 73.8613 124.526 73.6425 124.374 73.4702C124.221 73.2945 124.007 73.1487 123.732 73.0327C123.46 72.9134 123.142 72.8073 122.778 72.7145L121.619 72.4162C120.781 72.2008 120.118 71.8743 119.631 71.4368C119.147 70.996 118.905 70.411 118.905 69.6818C118.905 69.0819 119.067 68.5566 119.392 68.1058C119.72 67.6551 120.166 67.3054 120.729 67.0568C121.293 66.8049 121.931 66.679 122.643 66.679C123.366 66.679 123.999 66.8049 124.543 67.0568C125.089 67.3054 125.519 67.6518 125.83 68.0959C126.142 68.5367 126.303 69.0438 126.312 69.6172H124.538ZM131.397 77.1491C130.632 77.1491 129.97 76.9901 129.414 76.6719C128.86 76.3504 128.434 75.8963 128.136 75.3097C127.838 74.7197 127.688 74.0253 127.688 73.2266C127.688 72.4411 127.838 71.7517 128.136 71.1584C128.437 70.5618 128.858 70.0978 129.399 69.7663C129.939 69.4316 130.574 69.2642 131.303 69.2642C131.773 69.2642 132.218 69.3404 132.635 69.4929C133.056 69.642 133.427 69.8741 133.749 70.1889C134.074 70.5038 134.329 70.9048 134.514 71.392C134.7 71.8759 134.793 72.4527 134.793 73.1222V73.674H128.534V72.4609H133.068C133.064 72.1162 132.99 71.8097 132.844 71.5412C132.698 71.2694 132.494 71.0556 132.232 70.8999C131.974 70.7441 131.672 70.6662 131.328 70.6662C130.96 70.6662 130.637 70.7557 130.358 70.9347C130.08 71.1103 129.863 71.3423 129.707 71.6307C129.554 71.9157 129.477 72.2289 129.473 72.5703V73.6293C129.473 74.0734 129.554 74.4545 129.717 74.7727C129.879 75.0876 130.106 75.3295 130.398 75.4986C130.69 75.6643 131.031 75.7472 131.422 75.7472C131.684 75.7472 131.921 75.7107 132.133 75.6378C132.345 75.5616 132.529 75.4505 132.685 75.3047C132.841 75.1589 132.958 74.9782 133.038 74.7628L134.718 74.9517C134.612 75.3958 134.41 75.7836 134.112 76.1151C133.817 76.4432 133.439 76.6984 132.978 76.8807C132.517 77.0597 131.99 77.1491 131.397 77.1491ZM138.115 66.8182V77H136.315V66.8182H138.115ZM143.346 77.1491C142.581 77.1491 141.92 76.9901 141.363 76.6719C140.809 76.3504 140.383 75.8963 140.085 75.3097C139.787 74.7197 139.638 74.0253 139.638 73.2266C139.638 72.4411 139.787 71.7517 140.085 71.1584C140.387 70.5618 140.808 70.0978 141.348 69.7663C141.888 69.4316 142.523 69.2642 143.252 69.2642C143.723 69.2642 144.167 69.3404 144.584 69.4929C145.005 69.642 145.376 69.8741 145.698 70.1889C146.023 70.5038 146.278 70.9048 146.464 71.392C146.649 71.8759 146.742 72.4527 146.742 73.1222V73.674H140.483V72.4609H145.017C145.014 72.1162 144.939 71.8097 144.793 71.5412C144.647 71.2694 144.443 71.0556 144.182 70.8999C143.923 70.7441 143.622 70.6662 143.277 70.6662C142.909 70.6662 142.586 70.7557 142.307 70.9347C142.029 71.1103 141.812 71.3423 141.656 71.6307C141.504 71.9157 141.426 72.2289 141.422 72.5703V73.6293C141.422 74.0734 141.504 74.4545 141.666 74.7727C141.828 75.0876 142.055 75.3295 142.347 75.4986C142.639 75.6643 142.98 75.7472 143.371 75.7472C143.633 75.7472 143.87 75.7107 144.082 75.6378C144.294 75.5616 144.478 75.4505 144.634 75.3047C144.79 75.1589 144.907 74.9782 144.987 74.7628L146.667 74.9517C146.561 75.3958 146.359 75.7836 146.061 76.1151C145.766 76.4432 145.388 76.6984 144.927 76.8807C144.467 77.0597 143.94 77.1491 143.346 77.1491ZM151.596 77.1491C150.833 77.1491 150.179 76.9818 149.632 76.647C149.088 76.3123 148.669 75.8499 148.374 75.2599C148.082 74.6667 147.936 73.9839 147.936 73.2116C147.936 72.4361 148.086 71.7517 148.384 71.1584C148.682 70.5618 149.103 70.0978 149.647 69.7663C150.194 69.4316 150.84 69.2642 151.586 69.2642C152.205 69.2642 152.754 69.3786 153.231 69.6072C153.712 69.8326 154.095 70.1525 154.38 70.5668C154.665 70.9777 154.827 71.4583 154.867 72.0085H153.147C153.077 71.6406 152.911 71.334 152.65 71.0888C152.391 70.8402 152.045 70.7159 151.61 70.7159C151.243 70.7159 150.919 70.8153 150.641 71.0142C150.363 71.2098 150.145 71.4915 149.99 71.8594C149.837 72.2273 149.761 72.6681 149.761 73.1818C149.761 73.7022 149.837 74.1496 149.99 74.5241C150.142 74.8954 150.356 75.1821 150.631 75.3842C150.909 75.5831 151.236 75.6825 151.61 75.6825C151.876 75.6825 152.113 75.6328 152.321 75.5334C152.533 75.4306 152.711 75.2831 152.853 75.0909C152.996 74.8987 153.094 74.665 153.147 74.3899H154.867C154.824 74.9302 154.665 75.4091 154.39 75.8267C154.114 76.241 153.74 76.5658 153.266 76.8011C152.792 77.0331 152.235 77.1491 151.596 77.1491ZM160.158 69.3636V70.7557H155.768V69.3636H160.158ZM156.852 67.5341H158.651V74.7031C158.651 74.9451 158.688 75.1307 158.761 75.2599C158.837 75.3859 158.936 75.4721 159.059 75.5185C159.182 75.5649 159.318 75.5881 159.467 75.5881C159.579 75.5881 159.682 75.5798 159.775 75.5632C159.871 75.5466 159.944 75.5317 159.994 75.5185L160.297 76.9254C160.201 76.9586 160.063 76.995 159.884 77.0348C159.709 77.0746 159.493 77.0978 159.238 77.1044C158.787 77.1177 158.381 77.0497 158.02 76.9006C157.659 76.7481 157.372 76.5128 157.16 76.1946C156.951 75.8764 156.848 75.4787 156.852 75.0014V67.5341ZM164.962 77.1491C164.196 77.1491 163.535 76.9901 162.978 76.6719C162.424 76.3504 161.999 75.8963 161.7 75.3097C161.402 74.7197 161.253 74.0253 161.253 73.2266C161.253 72.4411 161.402 71.7517 161.7 71.1584C162.002 70.5618 162.423 70.0978 162.963 69.7663C163.503 69.4316 164.138 69.2642 164.867 69.2642C165.338 69.2642 165.782 69.3404 166.2 69.4929C166.621 69.642 166.992 69.8741 167.313 70.1889C167.638 70.5038 167.893 70.9048 168.079 71.392C168.264 71.8759 168.357 72.4527 168.357 73.1222V73.674H162.098V72.4609H166.632C166.629 72.1162 166.554 71.8097 166.408 71.5412C166.263 71.2694 166.059 71.0556 165.797 70.8999C165.538 70.7441 165.237 70.6662 164.892 70.6662C164.524 70.6662 164.201 70.7557 163.923 70.9347C163.644 71.1103 163.427 71.3423 163.271 71.6307C163.119 71.9157 163.041 72.2289 163.038 72.5703V73.6293C163.038 74.0734 163.119 74.4545 163.281 74.7727C163.444 75.0876 163.671 75.3295 163.962 75.4986C164.254 75.6643 164.595 75.7472 164.987 75.7472C165.248 75.7472 165.485 75.7107 165.697 75.6378C165.91 75.5616 166.094 75.4505 166.249 75.3047C166.405 75.1589 166.523 74.9782 166.602 74.7628L168.283 74.9517C168.177 75.3958 167.974 75.7836 167.676 76.1151C167.381 76.4432 167.003 76.6984 166.543 76.8807C166.082 77.0597 165.555 77.1491 164.962 77.1491ZM172.714 77.1342C172.114 77.1342 171.577 76.9801 171.103 76.6719C170.629 76.3636 170.254 75.9162 169.979 75.3295C169.704 74.7429 169.567 74.0303 169.567 73.1918C169.567 72.3433 169.706 71.6274 169.984 71.044C170.266 70.4574 170.645 70.0149 171.123 69.7166C171.6 69.415 172.132 69.2642 172.719 69.2642C173.166 69.2642 173.534 69.3404 173.822 69.4929C174.111 69.642 174.339 69.8227 174.508 70.0348C174.677 70.2436 174.808 70.4408 174.901 70.6264H174.976V66.8182H176.78V77H175.01V75.7969H174.901C174.808 75.9825 174.674 76.1797 174.498 76.3885C174.323 76.594 174.091 76.7696 173.802 76.9155C173.514 77.0613 173.151 77.1342 172.714 77.1342ZM173.216 75.6577C173.597 75.6577 173.922 75.5549 174.19 75.3494C174.459 75.1406 174.662 74.8506 174.802 74.4794C174.941 74.1082 175.01 73.6757 175.01 73.1818C175.01 72.688 174.941 72.2588 174.802 71.8942C174.666 71.5296 174.464 71.2462 174.195 71.044C173.93 70.8419 173.604 70.7408 173.216 70.7408C172.815 70.7408 172.48 70.8452 172.211 71.054C171.943 71.2628 171.741 71.5511 171.605 71.919C171.469 72.2869 171.401 72.7079 171.401 73.1818C171.401 73.6591 171.469 74.085 171.605 74.4595C171.744 74.8307 171.948 75.1241 172.216 75.3395C172.488 75.5516 172.821 75.6577 173.216 75.6577ZM186.039 69.3636V70.7557H181.525V69.3636H186.039ZM182.653 77V68.6428C182.653 68.129 182.759 67.7015 182.971 67.3601C183.187 67.0187 183.475 66.7635 183.836 66.5945C184.198 66.4254 184.599 66.3409 185.039 66.3409C185.351 66.3409 185.628 66.3658 185.87 66.4155C186.112 66.4652 186.291 66.5099 186.407 66.5497L186.049 67.9418C185.972 67.9186 185.876 67.8954 185.76 67.8722C185.644 67.8456 185.515 67.8324 185.373 67.8324C185.038 67.8324 184.801 67.9136 184.662 68.076C184.526 68.2351 184.458 68.4638 184.458 68.7621V77H182.653ZM187.448 77V69.3636H189.248V77H187.448ZM188.353 68.2798C188.068 68.2798 187.823 68.1854 187.617 67.9964C187.412 67.8042 187.309 67.5739 187.309 67.3054C187.309 67.0336 187.412 66.8033 187.617 66.6143C187.823 66.4221 188.068 66.326 188.353 66.326C188.641 66.326 188.887 66.4221 189.089 66.6143C189.294 66.8033 189.397 67.0336 189.397 67.3054C189.397 67.5739 189.294 67.8042 189.089 67.9964C188.887 68.1854 188.641 68.2798 188.353 68.2798ZM192.898 66.8182V77H191.099V66.8182H192.898ZM198.562 69.3636V70.7557H194.172V69.3636H198.562ZM195.256 67.5341H197.056V74.7031C197.056 74.9451 197.092 75.1307 197.165 75.2599C197.241 75.3859 197.341 75.4721 197.463 75.5185C197.586 75.5649 197.722 75.5881 197.871 75.5881C197.984 75.5881 198.087 75.5798 198.179 75.5632C198.275 75.5466 198.348 75.5317 198.398 75.5185L198.701 76.9254C198.605 76.9586 198.468 76.995 198.289 77.0348C198.113 77.0746 197.898 77.0978 197.642 77.1044C197.192 77.1177 196.786 77.0497 196.424 76.9006C196.063 76.7481 195.776 76.5128 195.564 76.1946C195.355 75.8764 195.253 75.4787 195.256 75.0014V67.5341ZM203.366 77.1491C202.6 77.1491 201.939 76.9901 201.382 76.6719C200.829 76.3504 200.403 75.8963 200.105 75.3097C199.806 74.7197 199.657 74.0253 199.657 73.2266C199.657 72.4411 199.806 71.7517 200.105 71.1584C200.406 70.5618 200.827 70.0978 201.367 69.7663C201.908 69.4316 202.542 69.2642 203.271 69.2642C203.742 69.2642 204.186 69.3404 204.604 69.4929C205.025 69.642 205.396 69.8741 205.718 70.1889C206.042 70.5038 206.298 70.9048 206.483 71.392C206.669 71.8759 206.762 72.4527 206.762 73.1222V73.674H200.502V72.4609H205.036C205.033 72.1162 204.959 71.8097 204.813 71.5412C204.667 71.2694 204.463 71.0556 204.201 70.8999C203.943 70.7441 203.641 70.6662 203.296 70.6662C202.928 70.6662 202.605 70.7557 202.327 70.9347C202.048 71.1103 201.831 71.3423 201.676 71.6307C201.523 71.9157 201.445 72.2289 201.442 72.5703V73.6293C201.442 74.0734 201.523 74.4545 201.686 74.7727C201.848 75.0876 202.075 75.3295 202.367 75.4986C202.658 75.6643 203 75.7472 203.391 75.7472C203.653 75.7472 203.89 75.7107 204.102 75.6378C204.314 75.5616 204.498 75.4505 204.654 75.3047C204.809 75.1589 204.927 74.9782 205.007 74.7628L206.687 74.9517C206.581 75.3958 206.379 75.7836 206.08 76.1151C205.785 76.4432 205.408 76.6984 204.947 76.8807C204.486 77.0597 203.959 77.1491 203.366 77.1491ZM208.284 77V69.3636H210.029V70.6364H210.109C210.248 70.1955 210.487 69.8558 210.825 69.6172C211.166 69.3752 211.555 69.2543 211.993 69.2543C212.092 69.2543 212.203 69.2592 212.326 69.2692C212.452 69.2758 212.556 69.2874 212.639 69.304V70.9595C212.563 70.933 212.442 70.9098 212.276 70.8899C212.114 70.8667 211.956 70.8551 211.804 70.8551C211.476 70.8551 211.181 70.9264 210.919 71.0689C210.661 71.2081 210.457 71.402 210.308 71.6506C210.158 71.8991 210.084 72.1858 210.084 72.5107V77H208.284Z" fill="#233D48"/>
<rect x="221" y="62" width="1" height="20" fill="#84979F"/>
<path d="M231.119 77V66.8182H237.433V68.1406H232.655V71.2429H236.98V72.5604H232.655V77H231.119ZM239.202 77V69.3636H240.689V77H239.202ZM239.953 68.1854C239.695 68.1854 239.473 68.0992 239.287 67.9268C239.105 67.7512 239.013 67.5424 239.013 67.3004C239.013 67.0552 239.105 66.8464 239.287 66.674C239.473 66.4983 239.695 66.4105 239.953 66.4105C240.212 66.4105 240.432 66.4983 240.614 66.674C240.8 66.8464 240.893 67.0552 240.893 67.3004C240.893 67.5424 240.8 67.7512 240.614 67.9268C240.432 68.0992 240.212 68.1854 239.953 68.1854ZM244.175 66.8182V77H242.689V66.8182H244.175ZM249.74 69.3636V70.5568H245.569V69.3636H249.74ZM246.687 67.5341H248.174V74.7578C248.174 75.0462 248.217 75.2633 248.303 75.4091C248.389 75.5516 248.5 75.6494 248.636 75.7024C248.775 75.7521 248.926 75.777 249.088 75.777C249.208 75.777 249.312 75.7687 249.402 75.7521C249.491 75.7356 249.561 75.7223 249.61 75.7124L249.879 76.9403C249.793 76.9735 249.67 77.0066 249.511 77.0398C249.352 77.0762 249.153 77.0961 248.914 77.0994C248.523 77.1061 248.159 77.0365 247.821 76.8906C247.483 76.7448 247.209 76.5194 247 76.2145C246.792 75.9096 246.687 75.5268 246.687 75.0661V67.5341ZM254.593 77.1541C253.841 77.1541 253.193 76.9934 252.649 76.6719C252.109 76.3471 251.691 75.8913 251.396 75.3047C251.105 74.7147 250.959 74.0237 250.959 73.2315C250.959 72.4493 251.105 71.7599 251.396 71.1634C251.691 70.5668 252.102 70.1011 252.629 69.7663C253.16 69.4316 253.78 69.2642 254.489 69.2642C254.92 69.2642 255.337 69.3355 255.742 69.478C256.146 69.6205 256.509 69.8442 256.83 70.1491C257.152 70.4541 257.405 70.8501 257.591 71.3374C257.777 71.8213 257.869 72.4096 257.869 73.1023V73.6293H251.799V72.5156H256.413C256.413 72.1245 256.333 71.7782 256.174 71.4766C256.015 71.1716 255.791 70.9313 255.503 70.7557C255.218 70.58 254.883 70.4922 254.499 70.4922C254.081 70.4922 253.717 70.5949 253.405 70.8004C253.097 71.0026 252.858 71.2678 252.689 71.5959C252.523 71.9207 252.441 72.2737 252.441 72.6548V73.5249C252.441 74.0353 252.53 74.4695 252.709 74.8274C252.891 75.1854 253.145 75.4588 253.47 75.6477C253.794 75.8333 254.174 75.9261 254.608 75.9261C254.89 75.9261 255.147 75.8864 255.379 75.8068C255.611 75.724 255.811 75.6013 255.98 75.4389C256.149 75.2765 256.279 75.076 256.368 74.8374L257.775 75.0909C257.662 75.5052 257.46 75.8681 257.169 76.1797C256.88 76.4879 256.517 76.7282 256.08 76.9006C255.646 77.0696 255.15 77.1541 254.593 77.1541ZM259.519 77V69.3636H260.956V70.5767H261.035C261.174 70.1657 261.42 69.8426 261.771 69.6072C262.126 69.3686 262.527 69.2493 262.974 69.2493C263.067 69.2493 263.176 69.2526 263.302 69.2592C263.431 69.2659 263.533 69.2741 263.605 69.2841V70.706C263.546 70.6894 263.44 70.6712 263.287 70.6513C263.135 70.6281 262.982 70.6165 262.83 70.6165C262.479 70.6165 262.165 70.6911 261.89 70.8402C261.618 70.986 261.403 71.1899 261.244 71.4517C261.085 71.7102 261.005 72.0052 261.005 72.3366V77H259.519ZM268.577 77V75.8864L272.022 72.3168C272.39 71.929 272.694 71.5893 272.932 71.2976C273.174 71.0026 273.355 70.7225 273.474 70.4574C273.593 70.1922 273.653 69.9105 273.653 69.6122C273.653 69.2741 273.574 68.9825 273.414 68.7372C273.255 68.4886 273.038 68.2981 272.763 68.1655C272.488 68.0296 272.178 67.9616 271.833 67.9616C271.469 67.9616 271.151 68.0362 270.879 68.1854C270.607 68.3345 270.398 68.545 270.252 68.8168C270.107 69.0885 270.034 69.4067 270.034 69.7713H268.567C268.567 69.1515 268.71 68.6096 268.995 68.1456C269.28 67.6816 269.671 67.322 270.168 67.0668C270.665 66.8082 271.23 66.679 271.863 66.679C272.503 66.679 273.066 66.8066 273.554 67.0618C274.044 67.3137 274.427 67.6584 274.702 68.0959C274.977 68.5301 275.115 69.0206 275.115 69.5675C275.115 69.9453 275.043 70.3149 274.901 70.6761C274.762 71.0374 274.518 71.4401 274.17 71.8842C273.822 72.325 273.338 72.8603 272.718 73.4901L270.695 75.608V75.6825H275.279V77H268.577Z" fill="#233D48"/>
<rect width="72" height="50" transform="translate(398 47)" fill="url(#paint0_linear_1_18786)"/>
<path d="M430 60C430 55.5817 433.582 52 438 52H462C466.418 52 470 55.5817 470 60V84C470 88.4183 466.418 92 462 92H438C433.582 92 430 88.4183 430 84V60Z" fill="white"/>
<path d="M453.906 77.3199C452.551 78.3729 450.849 79 449 79C444.582 79 441 75.4183 441 71C441 66.5817 444.582 63 449 63C453.418 63 457 66.5817 457 71C457 72.8487 456.373 74.551 455.32 75.9056L458.707 79.2929C459.098 79.6834 459.098 80.3166 458.707 80.7071C458.317 81.0976 457.683 81.0976 457.293 80.7071L453.906 77.3199ZM455 71C455 67.6863 452.314 65 449 65C445.686 65 443 67.6863 443 71C443 74.3137 445.686 77 449 77C452.314 77 455 74.3137 455 71Z" fill="#233D48"/>
<mask id="path-15-inside-1_1_18786" fill="white">
<path d="M4 108H470V156H4V108Z"/>
</mask>
<path d="M4 108H470V156H4V108Z" fill="white"/>
<path d="M470 155H4V157H470V155Z" fill="#DADFE2" mask="url(#path-15-inside-1_1_18786)"/>
<rect x="13" y="123" width="18" height="18" rx="1" fill="white" stroke="#DADFE2" stroke-width="2"/>
<path d="M41.233 137V126.818H42.4659V131.352H47.8949V126.818H49.1278V137H47.8949V132.446H42.4659V137H41.233ZM54.6388 137.159C53.9031 137.159 53.2683 136.997 52.7347 136.672C52.2044 136.344 51.7951 135.886 51.5067 135.3C51.2217 134.71 51.0792 134.024 51.0792 133.241C51.0792 132.459 51.2217 131.77 51.5067 131.173C51.7951 130.573 52.1961 130.106 52.7099 129.771C53.2269 129.433 53.8301 129.264 54.5195 129.264C54.9173 129.264 55.31 129.33 55.6978 129.463C56.0856 129.596 56.4386 129.811 56.7567 130.109C57.0749 130.404 57.3285 130.795 57.5174 131.283C57.7063 131.77 57.8008 132.37 57.8008 133.082V133.58H51.9144V132.565H56.6076C56.6076 132.134 56.5214 131.75 56.3491 131.412C56.18 131.074 55.9381 130.807 55.6232 130.612C55.3117 130.416 54.9438 130.318 54.5195 130.318C54.0522 130.318 53.6478 130.434 53.3065 130.666C52.9684 130.895 52.7082 131.193 52.5259 131.561C52.3436 131.929 52.2525 132.323 52.2525 132.744V133.42C52.2525 133.997 52.3519 134.486 52.5508 134.887C52.753 135.285 53.033 135.588 53.391 135.797C53.7489 136.002 54.1649 136.105 54.6388 136.105C54.9471 136.105 55.2255 136.062 55.4741 135.976C55.726 135.886 55.9431 135.754 56.1254 135.578C56.3076 135.399 56.4485 135.177 56.5479 134.912L57.6815 135.23C57.5621 135.615 57.3616 135.953 57.0799 136.244C56.7982 136.533 56.4502 136.758 56.0359 136.92C55.6216 137.08 55.1559 137.159 54.6388 137.159ZM61.8327 137.179C61.3488 137.179 60.9097 137.088 60.5153 136.906C60.1209 136.72 59.8076 136.453 59.5756 136.105C59.3436 135.754 59.2276 135.33 59.2276 134.832C59.2276 134.395 59.3138 134.04 59.4862 133.768C59.6585 133.493 59.8888 133.278 60.1772 133.122C60.4656 132.966 60.7837 132.85 61.1317 132.774C61.4831 132.695 61.8361 132.632 62.1907 132.585C62.6547 132.526 63.0309 132.481 63.3192 132.451C63.6109 132.418 63.823 132.363 63.9556 132.287C64.0915 132.211 64.1594 132.078 64.1594 131.889V131.849C64.1594 131.359 64.0252 130.978 63.7567 130.706C63.4916 130.434 63.0889 130.298 62.5487 130.298C61.9885 130.298 61.5494 130.421 61.2312 130.666C60.913 130.911 60.6893 131.173 60.56 131.452L59.4464 131.054C59.6452 130.59 59.9104 130.229 60.2418 129.97C60.5766 129.708 60.9412 129.526 61.3356 129.423C61.7333 129.317 62.1244 129.264 62.5089 129.264C62.7541 129.264 63.0359 129.294 63.354 129.354C63.6755 129.41 63.9854 129.528 64.2837 129.707C64.5853 129.886 64.8356 130.156 65.0344 130.517C65.2333 130.878 65.3327 131.362 65.3327 131.969V137H64.1594V135.966H64.0998C64.0202 136.132 63.8877 136.309 63.7021 136.498C63.5165 136.687 63.2695 136.848 62.9613 136.98C62.6531 137.113 62.2769 137.179 61.8327 137.179ZM62.0117 136.125C62.4757 136.125 62.8668 136.034 63.185 135.852C63.5065 135.669 63.7485 135.434 63.9109 135.146C64.0766 134.857 64.1594 134.554 64.1594 134.236V133.162C64.1097 133.222 64.0004 133.276 63.8313 133.326C63.6656 133.372 63.4734 133.414 63.2546 133.45C63.0392 133.483 62.8287 133.513 62.6232 133.54C62.421 133.563 62.257 133.583 62.131 133.599C61.8261 133.639 61.5411 133.704 61.2759 133.793C61.0141 133.879 60.802 134.01 60.6396 134.186C60.4805 134.358 60.4009 134.594 60.4009 134.892C60.4009 135.3 60.5517 135.608 60.8533 135.817C61.1583 136.022 61.5444 136.125 62.0117 136.125ZM70.3578 137.159C69.7214 137.159 69.1596 136.998 68.6724 136.677C68.1852 136.352 67.804 135.895 67.5289 135.305C67.2538 134.711 67.1163 134.01 67.1163 133.202C67.1163 132.4 67.2538 131.704 67.5289 131.114C67.804 130.524 68.1868 130.068 68.6774 129.746C69.1679 129.425 69.7347 129.264 70.3777 129.264C70.8748 129.264 71.2676 129.347 71.5559 129.513C71.8476 129.675 72.0697 129.861 72.2221 130.07C72.3779 130.275 72.4989 130.444 72.585 130.577H72.6845V126.818H73.8578V137H72.7243V135.827H72.585C72.4989 135.966 72.3762 136.142 72.2172 136.354C72.0581 136.562 71.831 136.75 71.536 136.915C71.2411 137.078 70.8483 137.159 70.3578 137.159ZM70.5169 136.105C70.9875 136.105 71.3852 135.982 71.71 135.737C72.0349 135.489 72.2818 135.146 72.4508 134.708C72.6199 134.267 72.7044 133.759 72.7044 133.182C72.7044 132.612 72.6215 132.113 72.4558 131.685C72.2901 131.254 72.0448 130.92 71.72 130.681C71.3952 130.439 70.9941 130.318 70.5169 130.318C70.0197 130.318 69.6054 130.446 69.274 130.701C68.9458 130.953 68.6989 131.296 68.5332 131.73C68.3708 132.161 68.2896 132.645 68.2896 133.182C68.2896 133.725 68.3725 134.219 68.5382 134.663C68.7072 135.104 68.9558 135.455 69.2839 135.717C69.6154 135.976 70.0263 136.105 70.5169 136.105ZM79.3713 137.159C78.6355 137.159 78.0008 136.997 77.4672 136.672C76.9368 136.344 76.5275 135.886 76.2392 135.3C75.9541 134.71 75.8116 134.024 75.8116 133.241C75.8116 132.459 75.9541 131.77 76.2392 131.173C76.5275 130.573 76.9286 130.106 77.4423 129.771C77.9593 129.433 78.5626 129.264 79.252 129.264C79.6497 129.264 80.0424 129.33 80.4302 129.463C80.818 129.596 81.171 129.811 81.4892 130.109C81.8074 130.404 82.0609 130.795 82.2498 131.283C82.4387 131.77 82.5332 132.37 82.5332 133.082V133.58H76.6468V132.565H81.34C81.34 132.134 81.2538 131.75 81.0815 131.412C80.9125 131.074 80.6705 130.807 80.3556 130.612C80.0441 130.416 79.6762 130.318 79.252 130.318C78.7846 130.318 78.3803 130.434 78.0389 130.666C77.7008 130.895 77.4406 131.193 77.2583 131.561C77.0761 131.929 76.9849 132.323 76.9849 132.744V133.42C76.9849 133.997 77.0843 134.486 77.2832 134.887C77.4854 135.285 77.7654 135.588 78.1234 135.797C78.4814 136.002 78.8973 136.105 79.3713 136.105C79.6795 136.105 79.9579 136.062 80.2065 135.976C80.4584 135.886 80.6755 135.754 80.8578 135.578C81.0401 135.399 81.1809 135.177 81.2804 134.912L82.4139 135.23C82.2946 135.615 82.094 135.953 81.8123 136.244C81.5306 136.533 81.1826 136.758 80.7683 136.92C80.354 137.08 79.8883 137.159 79.3713 137.159ZM84.318 137V129.364H85.4515V130.517H85.5311C85.6703 130.139 85.9222 129.833 86.2868 129.597C86.6513 129.362 87.0623 129.244 87.5197 129.244C87.6059 129.244 87.7136 129.246 87.8429 129.249C87.9721 129.253 88.0699 129.258 88.1362 129.264V130.457C88.0964 130.447 88.0053 130.433 87.8627 130.413C87.7235 130.389 87.5761 130.378 87.4203 130.378C87.0491 130.378 86.7176 130.456 86.426 130.612C86.1376 130.764 85.9089 130.976 85.7399 131.248C85.5742 131.516 85.4913 131.823 85.4913 132.168V137H84.318Z" fill="#233D48"/>
<path fill-rule="evenodd" clip-rule="evenodd" d="M103.793 126.293C104.183 125.902 104.817 125.902 105.207 126.293L108.707 129.793C109.098 130.183 109.098 130.817 108.707 131.207C108.317 131.598 107.683 131.598 107.293 131.207L104.5 128.414L101.707 131.207C101.317 131.598 100.683 131.598 100.293 131.207C99.9024 130.817 99.9024 130.183 100.293 129.793L103.793 126.293Z" fill="#EEF1F2"/>
<path fill-rule="evenodd" clip-rule="evenodd" d="M103.793 138.207C104.183 138.598 104.817 138.598 105.207 138.207L108.707 134.707C109.098 134.317 109.098 133.683 108.707 133.293C108.317 132.902 107.683 132.902 107.293 133.293L104.5 136.086L101.707 133.293C101.317 132.902 100.683 132.902 100.293 133.293C99.9024 133.683 99.9024 134.317 100.293 134.707L103.793 138.207Z" fill="#EEF1F2"/>
<path d="M149.255 137V126.818H150.488V131.352H155.917V126.818H157.15V137H155.917V132.446H150.488V137H149.255ZM162.661 137.159C161.925 137.159 161.29 136.997 160.757 136.672C160.226 136.344 159.817 135.886 159.529 135.3C159.244 134.71 159.101 134.024 159.101 133.241C159.101 132.459 159.244 131.77 159.529 131.173C159.817 130.573 160.218 130.106 160.732 129.771C161.249 129.433 161.852 129.264 162.542 129.264C162.939 129.264 163.332 129.33 163.72 129.463C164.108 129.596 164.461 129.811 164.779 130.109C165.097 130.404 165.35 130.795 165.539 131.283C165.728 131.77 165.823 132.37 165.823 133.082V133.58H159.936V132.565H164.63C164.63 132.134 164.543 131.75 164.371 131.412C164.202 131.074 163.96 130.807 163.645 130.612C163.334 130.416 162.966 130.318 162.542 130.318C162.074 130.318 161.67 130.434 161.328 130.666C160.99 130.895 160.73 131.193 160.548 131.561C160.366 131.929 160.274 132.323 160.274 132.744V133.42C160.274 133.997 160.374 134.486 160.573 134.887C160.775 135.285 161.055 135.588 161.413 135.797C161.771 136.002 162.187 136.105 162.661 136.105C162.969 136.105 163.247 136.062 163.496 135.976C163.748 135.886 163.965 135.754 164.147 135.578C164.33 135.399 164.47 135.177 164.57 134.912L165.703 135.23C165.584 135.615 165.384 135.953 165.102 136.244C164.82 136.533 164.472 136.758 164.058 136.92C163.644 137.08 163.178 137.159 162.661 137.159ZM169.855 137.179C169.371 137.179 168.932 137.088 168.537 136.906C168.143 136.72 167.83 136.453 167.598 136.105C167.366 135.754 167.25 135.33 167.25 134.832C167.25 134.395 167.336 134.04 167.508 133.768C167.68 133.493 167.911 133.278 168.199 133.122C168.488 132.966 168.806 132.85 169.154 132.774C169.505 132.695 169.858 132.632 170.213 132.585C170.677 132.526 171.053 132.481 171.341 132.451C171.633 132.418 171.845 132.363 171.978 132.287C172.113 132.211 172.181 132.078 172.181 131.889V131.849C172.181 131.359 172.047 130.978 171.779 130.706C171.514 130.434 171.111 130.298 170.571 130.298C170.01 130.298 169.571 130.421 169.253 130.666C168.935 130.911 168.711 131.173 168.582 131.452L167.468 131.054C167.667 130.59 167.932 130.229 168.264 129.97C168.599 129.708 168.963 129.526 169.358 129.423C169.755 129.317 170.146 129.264 170.531 129.264C170.776 129.264 171.058 129.294 171.376 129.354C171.698 129.41 172.007 129.528 172.306 129.707C172.607 129.886 172.858 130.156 173.056 130.517C173.255 130.878 173.355 131.362 173.355 131.969V137H172.181V135.966H172.122C172.042 136.132 171.91 136.309 171.724 136.498C171.538 136.687 171.292 136.848 170.983 136.98C170.675 137.113 170.299 137.179 169.855 137.179ZM170.034 136.125C170.498 136.125 170.889 136.034 171.207 135.852C171.528 135.669 171.77 135.434 171.933 135.146C172.099 134.857 172.181 134.554 172.181 134.236V133.162C172.132 133.222 172.022 133.276 171.853 133.326C171.688 133.372 171.495 133.414 171.277 133.45C171.061 133.483 170.851 133.513 170.645 133.54C170.443 133.563 170.279 133.583 170.153 133.599C169.848 133.639 169.563 133.704 169.298 133.793C169.036 133.879 168.824 134.01 168.662 134.186C168.502 134.358 168.423 134.594 168.423 134.892C168.423 135.3 168.574 135.608 168.875 135.817C169.18 136.022 169.566 136.125 170.034 136.125ZM178.38 137.159C177.743 137.159 177.182 136.998 176.694 136.677C176.207 136.352 175.826 135.895 175.551 135.305C175.276 134.711 175.138 134.01 175.138 133.202C175.138 132.4 175.276 131.704 175.551 131.114C175.826 130.524 176.209 130.068 176.699 129.746C177.19 129.425 177.757 129.264 178.4 129.264C178.897 129.264 179.29 129.347 179.578 129.513C179.87 129.675 180.092 129.861 180.244 130.07C180.4 130.275 180.521 130.444 180.607 130.577H180.706V126.818H181.88V137H180.746V135.827H180.607C180.521 135.966 180.398 136.142 180.239 136.354C180.08 136.562 179.853 136.75 179.558 136.915C179.263 137.078 178.87 137.159 178.38 137.159ZM178.539 136.105C179.009 136.105 179.407 135.982 179.732 135.737C180.057 135.489 180.304 135.146 180.473 134.708C180.642 134.267 180.726 133.759 180.726 133.182C180.726 132.612 180.643 132.113 180.478 131.685C180.312 131.254 180.067 130.92 179.742 130.681C179.417 130.439 179.016 130.318 178.539 130.318C178.042 130.318 177.627 130.446 177.296 130.701C176.968 130.953 176.721 131.296 176.555 131.73C176.393 132.161 176.312 132.645 176.312 133.182C176.312 133.725 176.394 134.219 176.56 134.663C176.729 135.104 176.978 135.455 177.306 135.717C177.637 135.976 178.048 136.105 178.539 136.105ZM187.393 137.159C186.657 137.159 186.023 136.997 185.489 136.672C184.959 136.344 184.549 135.886 184.261 135.3C183.976 134.71 183.834 134.024 183.834 133.241C183.834 132.459 183.976 131.77 184.261 131.173C184.549 130.573 184.951 130.106 185.464 129.771C185.981 129.433 186.585 129.264 187.274 129.264C187.672 129.264 188.064 129.33 188.452 129.463C188.84 129.596 189.193 129.811 189.511 130.109C189.829 130.404 190.083 130.795 190.272 131.283C190.461 131.77 190.555 132.37 190.555 133.082V133.58H184.669V132.565H189.362C189.362 132.134 189.276 131.75 189.103 131.412C188.934 131.074 188.692 130.807 188.378 130.612C188.066 130.416 187.698 130.318 187.274 130.318C186.807 130.318 186.402 130.434 186.061 130.666C185.723 130.895 185.463 131.193 185.28 131.561C185.098 131.929 185.007 132.323 185.007 132.744V133.42C185.007 133.997 185.106 134.486 185.305 134.887C185.507 135.285 185.787 135.588 186.145 135.797C186.503 136.002 186.919 136.105 187.393 136.105C187.701 136.105 187.98 136.062 188.228 135.976C188.48 135.886 188.697 135.754 188.88 135.578C189.062 135.399 189.203 135.177 189.302 134.912L190.436 135.23C190.317 135.615 190.116 135.953 189.834 136.244C189.553 136.533 189.205 136.758 188.79 136.92C188.376 137.08 187.91 137.159 187.393 137.159ZM192.34 137V129.364H193.473V130.517H193.553C193.692 130.139 193.944 129.833 194.309 129.597C194.673 129.362 195.084 129.244 195.542 129.244C195.628 129.244 195.736 129.246 195.865 129.249C195.994 129.253 196.092 129.258 196.158 129.264V130.457C196.118 130.447 196.027 130.433 195.885 130.413C195.746 130.389 195.598 130.378 195.442 130.378C195.071 130.378 194.74 130.456 194.448 130.612C194.16 130.764 193.931 130.976 193.762 131.248C193.596 131.516 193.513 131.823 193.513 132.168V137H192.34Z" fill="#233D48"/>
<path fill-rule="evenodd" clip-rule="evenodd" d="M211.815 126.293C212.205 125.902 212.839 125.902 213.229 126.293L216.729 129.793C217.12 130.183 217.12 130.817 216.729 131.207C216.339 131.598 215.705 131.598 215.315 131.207L212.522 128.414L209.729 131.207C209.339 131.598 208.705 131.598 208.315 131.207C207.924 130.817 207.924 130.183 208.315 129.793L211.815 126.293Z" fill="#EEF1F2"/>
<path fill-rule="evenodd" clip-rule="evenodd" d="M211.815 138.207C212.205 138.598 212.839 138.598 213.229 138.207L216.729 134.707C217.12 134.317 217.12 133.683 216.729 133.293C216.339 132.902 215.705 132.902 215.315 133.293L212.522 136.086L209.729 133.293C209.339 132.902 208.705 132.902 208.315 133.293C207.924 133.683 207.924 134.317 208.315 134.707L211.815 138.207Z" fill="#EEF1F2"/>
<path d="M257.277 137V126.818H258.51V131.352H263.939V126.818H265.172V137H263.939V132.446H258.51V137H257.277ZM270.683 137.159C269.947 137.159 269.312 136.997 268.779 136.672C268.248 136.344 267.839 135.886 267.551 135.3C267.266 134.71 267.123 134.024 267.123 133.241C267.123 132.459 267.266 131.77 267.551 131.173C267.839 130.573 268.24 130.106 268.754 129.771C269.271 129.433 269.874 129.264 270.563 129.264C270.961 129.264 271.354 129.33 271.742 129.463C272.13 129.596 272.483 129.811 272.801 130.109C273.119 130.404 273.372 130.795 273.561 131.283C273.75 131.77 273.845 132.37 273.845 133.082V133.58H267.958V132.565H272.652C272.652 132.134 272.565 131.75 272.393 131.412C272.224 131.074 271.982 130.807 271.667 130.612C271.356 130.416 270.988 130.318 270.563 130.318C270.096 130.318 269.692 130.434 269.35 130.666C269.012 130.895 268.752 131.193 268.57 131.561C268.388 131.929 268.296 132.323 268.296 132.744V133.42C268.296 133.997 268.396 134.486 268.595 134.887C268.797 135.285 269.077 135.588 269.435 135.797C269.793 136.002 270.209 136.105 270.683 136.105C270.991 136.105 271.269 136.062 271.518 135.976C271.77 135.886 271.987 135.754 272.169 135.578C272.352 135.399 272.492 135.177 272.592 134.912L273.725 135.23C273.606 135.615 273.406 135.953 273.124 136.244C272.842 136.533 272.494 136.758 272.08 136.92C271.666 137.08 271.2 137.159 270.683 137.159ZM277.877 137.179C277.393 137.179 276.954 137.088 276.559 136.906C276.165 136.72 275.852 136.453 275.62 136.105C275.388 135.754 275.272 135.33 275.272 134.832C275.272 134.395 275.358 134.04 275.53 133.768C275.702 133.493 275.933 133.278 276.221 133.122C276.509 132.966 276.828 132.85 277.176 132.774C277.527 132.695 277.88 132.632 278.235 132.585C278.699 132.526 279.075 132.481 279.363 132.451C279.655 132.418 279.867 132.363 280 132.287C280.135 132.211 280.203 132.078 280.203 131.889V131.849C280.203 131.359 280.069 130.978 279.801 130.706C279.536 130.434 279.133 130.298 278.593 130.298C278.032 130.298 277.593 130.421 277.275 130.666C276.957 130.911 276.733 131.173 276.604 131.452L275.49 131.054C275.689 130.59 275.954 130.229 276.286 129.97C276.621 129.708 276.985 129.526 277.38 129.423C277.777 129.317 278.168 129.264 278.553 129.264C278.798 129.264 279.08 129.294 279.398 129.354C279.719 129.41 280.029 129.528 280.328 129.707C280.629 129.886 280.88 130.156 281.078 130.517C281.277 130.878 281.377 131.362 281.377 131.969V137H280.203V135.966H280.144C280.064 136.132 279.932 136.309 279.746 136.498C279.56 136.687 279.313 136.848 279.005 136.98C278.697 137.113 278.321 137.179 277.877 137.179ZM278.056 136.125C278.52 136.125 278.911 136.034 279.229 135.852C279.55 135.669 279.792 135.434 279.955 135.146C280.121 134.857 280.203 134.554 280.203 134.236V133.162C280.154 133.222 280.044 133.276 279.875 133.326C279.71 133.372 279.517 133.414 279.299 133.45C279.083 133.483 278.873 133.513 278.667 133.54C278.465 133.563 278.301 133.583 278.175 133.599C277.87 133.639 277.585 133.704 277.32 133.793C277.058 133.879 276.846 134.01 276.684 134.186C276.524 134.358 276.445 134.594 276.445 134.892C276.445 135.3 276.596 135.608 276.897 135.817C277.202 136.022 277.588 136.125 278.056 136.125ZM286.402 137.159C285.765 137.159 285.204 136.998 284.716 136.677C284.229 136.352 283.848 135.895 283.573 135.305C283.298 134.711 283.16 134.01 283.16 133.202C283.16 132.4 283.298 131.704 283.573 131.114C283.848 130.524 284.231 130.068 284.721 129.746C285.212 129.425 285.779 129.264 286.422 129.264C286.919 129.264 287.312 129.347 287.6 129.513C287.892 129.675 288.114 129.861 288.266 130.07C288.422 130.275 288.543 130.444 288.629 130.577H288.728V126.818H289.902V137H288.768V135.827H288.629C288.543 135.966 288.42 136.142 288.261 136.354C288.102 136.562 287.875 136.75 287.58 136.915C287.285 137.078 286.892 137.159 286.402 137.159ZM286.561 136.105C287.031 136.105 287.429 135.982 287.754 135.737C288.079 135.489 288.326 135.146 288.495 134.708C288.664 134.267 288.748 133.759 288.748 133.182C288.748 132.612 288.665 132.113 288.5 131.685C288.334 131.254 288.089 130.92 287.764 130.681C287.439 130.439 287.038 130.318 286.561 130.318C286.064 130.318 285.649 130.446 285.318 130.701C284.99 130.953 284.743 131.296 284.577 131.73C284.415 132.161 284.334 132.645 284.334 133.182C284.334 133.725 284.416 134.219 284.582 134.663C284.751 135.104 285 135.455 285.328 135.717C285.659 135.976 286.07 136.105 286.561 136.105ZM295.415 137.159C294.679 137.159 294.045 136.997 293.511 136.672C292.981 136.344 292.571 135.886 292.283 135.3C291.998 134.71 291.856 134.024 291.856 133.241C291.856 132.459 291.998 131.77 292.283 131.173C292.571 130.573 292.973 130.106 293.486 129.771C294.003 129.433 294.607 129.264 295.296 129.264C295.694 129.264 296.086 129.33 296.474 129.463C296.862 129.596 297.215 129.811 297.533 130.109C297.851 130.404 298.105 130.795 298.294 131.283C298.483 131.77 298.577 132.37 298.577 133.082V133.58H292.691V132.565H297.384C297.384 132.134 297.298 131.75 297.125 131.412C296.956 131.074 296.714 130.807 296.4 130.612C296.088 130.416 295.72 130.318 295.296 130.318C294.829 130.318 294.424 130.434 294.083 130.666C293.745 130.895 293.485 131.193 293.302 131.561C293.12 131.929 293.029 132.323 293.029 132.744V133.42C293.029 133.997 293.128 134.486 293.327 134.887C293.529 135.285 293.809 135.588 294.167 135.797C294.525 136.002 294.941 136.105 295.415 136.105C295.723 136.105 296.002 136.062 296.25 135.976C296.502 135.886 296.719 135.754 296.902 135.578C297.084 135.399 297.225 135.177 297.324 134.912L298.458 135.23C298.339 135.615 298.138 135.953 297.856 136.244C297.575 136.533 297.227 136.758 296.812 136.92C296.398 137.08 295.932 137.159 295.415 137.159ZM300.362 137V129.364H301.495V130.517H301.575C301.714 130.139 301.966 129.833 302.331 129.597C302.695 129.362 303.106 129.244 303.564 129.244C303.65 129.244 303.758 129.246 303.887 129.249C304.016 129.253 304.114 129.258 304.18 129.264V130.457C304.14 130.447 304.049 130.433 303.907 130.413C303.767 130.389 303.62 130.378 303.464 130.378C303.093 130.378 302.762 130.456 302.47 130.612C302.182 130.764 301.953 130.976 301.784 131.248C301.618 131.516 301.535 131.823 301.535 132.168V137H300.362Z" fill="#233D48"/>
<path fill-rule="evenodd" clip-rule="evenodd" d="M319.837 126.293C320.227 125.902 320.861 125.902 321.251 126.293L324.751 129.793C325.142 130.183 325.142 130.817 324.751 131.207C324.361 131.598 323.727 131.598 323.337 131.207L320.544 128.414L317.751 131.207C317.361 131.598 316.727 131.598 316.337 131.207C315.946 130.817 315.946 130.183 316.337 129.793L319.837 126.293Z" fill="#EEF1F2"/>
<path fill-rule="evenodd" clip-rule="evenodd" d="M319.837 138.207C320.227 138.598 320.861 138.598 321.251 138.207L324.751 134.707C325.142 134.317 325.142 133.683 324.751 133.293C324.361 132.902 323.727 132.902 323.337 133.293L320.544 136.086L317.751 133.293C317.361 132.902 316.727 132.902 316.337 133.293C315.946 133.683 315.946 134.317 316.337 134.707L319.837 138.207Z" fill="#EEF1F2"/>
<path d="M365.299 137V126.818H366.532V131.352H371.961V126.818H373.194V137H371.961V132.446H366.532V137H365.299ZM378.705 137.159C377.969 137.159 377.334 136.997 376.8 136.672C376.27 136.344 375.861 135.886 375.572 135.3C375.287 134.71 375.145 134.024 375.145 133.241C375.145 132.459 375.287 131.77 375.572 131.173C375.861 130.573 376.262 130.106 376.776 129.771C377.293 129.433 377.896 129.264 378.585 129.264C378.983 129.264 379.376 129.33 379.763 129.463C380.151 129.596 380.504 129.811 380.822 130.109C381.141 130.404 381.394 130.795 381.583 131.283C381.772 131.77 381.866 132.37 381.866 133.082V133.58H375.98V132.565H380.673C380.673 132.134 380.587 131.75 380.415 131.412C380.246 131.074 380.004 130.807 379.689 130.612C379.377 130.416 379.009 130.318 378.585 130.318C378.118 130.318 377.714 130.434 377.372 130.666C377.034 130.895 376.774 131.193 376.592 131.561C376.409 131.929 376.318 132.323 376.318 132.744V133.42C376.318 133.997 376.418 134.486 376.616 134.887C376.819 135.285 377.099 135.588 377.457 135.797C377.815 136.002 378.231 136.105 378.705 136.105C379.013 136.105 379.291 136.062 379.54 135.976C379.792 135.886 380.009 135.754 380.191 135.578C380.373 135.399 380.514 135.177 380.614 134.912L381.747 135.23C381.628 135.615 381.427 135.953 381.146 136.244C380.864 136.533 380.516 136.758 380.102 136.92C379.687 137.08 379.222 137.159 378.705 137.159ZM385.898 137.179C385.415 137.179 384.975 137.088 384.581 136.906C384.187 136.72 383.873 136.453 383.641 136.105C383.409 135.754 383.293 135.33 383.293 134.832C383.293 134.395 383.379 134.04 383.552 133.768C383.724 133.493 383.955 133.278 384.243 133.122C384.531 132.966 384.849 132.85 385.197 132.774C385.549 132.695 385.902 132.632 386.256 132.585C386.72 132.526 387.097 132.481 387.385 132.451C387.677 132.418 387.889 132.363 388.021 132.287C388.157 132.211 388.225 132.078 388.225 131.889V131.849C388.225 131.359 388.091 130.978 387.822 130.706C387.557 130.434 387.155 130.298 386.614 130.298C386.054 130.298 385.615 130.421 385.297 130.666C384.979 130.911 384.755 131.173 384.626 131.452L383.512 131.054C383.711 130.59 383.976 130.229 384.308 129.97C384.642 129.708 385.007 129.526 385.401 129.423C385.799 129.317 386.19 129.264 386.575 129.264C386.82 129.264 387.102 129.294 387.42 129.354C387.741 129.41 388.051 129.528 388.349 129.707C388.651 129.886 388.901 130.156 389.1 130.517C389.299 130.878 389.398 131.362 389.398 131.969V137H388.225V135.966H388.165C388.086 136.132 387.953 136.309 387.768 136.498C387.582 136.687 387.335 136.848 387.027 136.98C386.719 137.113 386.343 137.179 385.898 137.179ZM386.077 136.125C386.541 136.125 386.933 136.034 387.251 135.852C387.572 135.669 387.814 135.434 387.977 135.146C388.142 134.857 388.225 134.554 388.225 134.236V133.162C388.175 133.222 388.066 133.276 387.897 133.326C387.731 133.372 387.539 133.414 387.32 133.45C387.105 133.483 386.894 133.513 386.689 133.54C386.487 133.563 386.323 133.583 386.197 133.599C385.892 133.639 385.607 133.704 385.342 133.793C385.08 133.879 384.868 134.01 384.705 134.186C384.546 134.358 384.467 134.594 384.467 134.892C384.467 135.3 384.617 135.608 384.919 135.817C385.224 136.022 385.61 136.125 386.077 136.125ZM394.423 137.159C393.787 137.159 393.225 136.998 392.738 136.677C392.251 136.352 391.87 135.895 391.595 135.305C391.32 134.711 391.182 134.01 391.182 133.202C391.182 132.4 391.32 131.704 391.595 131.114C391.87 130.524 392.253 130.068 392.743 129.746C393.234 129.425 393.8 129.264 394.443 129.264C394.94 129.264 395.333 129.347 395.622 129.513C395.913 129.675 396.135 129.861 396.288 130.07C396.444 130.275 396.565 130.444 396.651 130.577H396.75V126.818H397.923V137H396.79V135.827H396.651C396.565 135.966 396.442 136.142 396.283 136.354C396.124 136.562 395.897 136.75 395.602 136.915C395.307 137.078 394.914 137.159 394.423 137.159ZM394.583 136.105C395.053 136.105 395.451 135.982 395.776 135.737C396.101 135.489 396.347 135.146 396.516 134.708C396.686 134.267 396.77 133.759 396.77 133.182C396.77 132.612 396.687 132.113 396.521 131.685C396.356 131.254 396.11 130.92 395.786 130.681C395.461 130.439 395.06 130.318 394.583 130.318C394.085 130.318 393.671 130.446 393.34 130.701C393.012 130.953 392.765 131.296 392.599 131.73C392.436 132.161 392.355 132.645 392.355 133.182C392.355 133.725 392.438 134.219 392.604 134.663C392.773 135.104 393.021 135.455 393.35 135.717C393.681 135.976 394.092 136.105 394.583 136.105ZM403.437 137.159C402.701 137.159 402.066 136.997 401.533 136.672C401.003 136.344 400.593 135.886 400.305 135.3C400.02 134.71 399.877 134.024 399.877 133.241C399.877 132.459 400.02 131.77 400.305 131.173C400.593 130.573 400.994 130.106 401.508 129.771C402.025 129.433 402.628 129.264 403.318 129.264C403.715 129.264 404.108 129.33 404.496 129.463C404.884 129.596 405.237 129.811 405.555 130.109C405.873 130.404 406.127 130.795 406.315 131.283C406.504 131.77 406.599 132.37 406.599 133.082V133.58H400.713V132.565H405.406C405.406 132.134 405.32 131.75 405.147 131.412C404.978 131.074 404.736 130.807 404.421 130.612C404.11 130.416 403.742 130.318 403.318 130.318C402.85 130.318 402.446 130.434 402.105 130.666C401.766 130.895 401.506 131.193 401.324 131.561C401.142 131.929 401.051 132.323 401.051 132.744V133.42C401.051 133.997 401.15 134.486 401.349 134.887C401.551 135.285 401.831 135.588 402.189 135.797C402.547 136.002 402.963 136.105 403.437 136.105C403.745 136.105 404.024 136.062 404.272 135.976C404.524 135.886 404.741 135.754 404.923 135.578C405.106 135.399 405.247 135.177 405.346 134.912L406.48 135.23C406.36 135.615 406.16 135.953 405.878 136.244C405.596 136.533 405.248 136.758 404.834 136.92C404.42 137.08 403.954 137.159 403.437 137.159ZM408.384 137V129.364H409.517V130.517H409.597C409.736 130.139 409.988 129.833 410.352 129.597C410.717 129.362 411.128 129.244 411.585 129.244C411.672 129.244 411.779 129.246 411.909 129.249C412.038 129.253 412.136 129.258 412.202 129.264V130.457C412.162 130.447 412.071 130.433 411.928 130.413C411.789 130.389 411.642 130.378 411.486 130.378C411.115 130.378 410.783 130.456 410.492 130.612C410.203 130.764 409.975 130.976 409.806 131.248C409.64 131.516 409.557 131.823 409.557 132.168V137H408.384Z" fill="#233D48"/>
<path fill-rule="evenodd" clip-rule="evenodd" d="M427.859 126.293C428.249 125.902 428.882 125.902 429.273 126.293L432.773 129.793C433.163 130.183 433.163 130.817 432.773 131.207C432.382 131.598 431.749 131.598 431.359 131.207L428.566 128.414L425.773 131.207C425.382 131.598 424.749 131.598 424.359 131.207C423.968 130.817 423.968 130.183 424.359 129.793L427.859 126.293Z" fill="#EEF1F2"/>
<path fill-rule="evenodd" clip-rule="evenodd" d="M427.859 138.207C428.249 138.598 428.882 138.598 429.273 138.207L432.773 134.707C433.163 134.317 433.163 133.683 432.773 133.293C432.382 132.902 431.749 132.902 431.359 133.293L428.566 136.086L425.773 133.293C425.382 132.902 424.749 132.902 424.359 133.293C423.968 133.683 423.968 134.317 424.359 134.707L427.859 138.207Z" fill="#EEF1F2"/>
<mask id="path-30-inside-2_1_18786" fill="white">
<path d="M4 156H470V212H4V156Z"/>
</mask>
<path d="M4 156H470V212H4V156Z" fill="white"/>
<path d="M470 211H4V213H470V211Z" fill="#DADFE2" mask="url(#path-30-inside-2_1_18786)"/>
<g clip-path="url(#clip1_1_18786)">
<path d="M40 183C40 178.582 43.5817 175 48 175H129.934C134.353 175 137.934 178.582 137.934 183V185C137.934 189.418 134.353 193 129.934 193H48C43.5817 193 40 189.418 40 185V183Z" fill="black" fill-opacity="0.08"/>
<rect x="40" y="175" width="98" height="18" fill="url(#paint1_linear_1_18786)"/>
</g>
<g clip-path="url(#clip2_1_18786)">
<path d="M148.022 183C148.022 178.582 151.604 175 156.022 175H237.956C242.375 175 245.956 178.582 245.956 183V185C245.956 189.418 242.375 193 237.956 193H156.022C151.604 193 148.022 189.418 148.022 185V183Z" fill="black" fill-opacity="0.08"/>
<rect x="148.022" y="175" width="98" height="18" fill="url(#paint2_linear_1_18786)"/>
</g>
<g clip-path="url(#clip3_1_18786)">
<path d="M256.064 183C256.064 178.582 259.646 175 264.064 175H345.968C350.386 175 353.968 178.582 353.968 183V185C353.968 189.418 350.386 193 345.968 193H264.064C259.646 193 256.064 189.418 256.064 185V183Z" fill="black" fill-opacity="0.08"/>
<rect x="256.064" y="175" width="98" height="18" fill="url(#paint3_linear_1_18786)"/>
</g>
<g clip-path="url(#clip4_1_18786)">
<path d="M364.066 183.5C364.066 179.082 367.647 175.5 372.066 175.5H417.853C422.271 175.5 425.853 179.082 425.853 183.5V185.5C425.853 189.918 422.271 193.5 417.853 193.5H372.066C367.647 193.5 364.066 189.918 364.066 185.5V183.5Z" fill="black" fill-opacity="0.08"/>
<rect x="364.066" y="175.5" width="62" height="18" fill="url(#paint4_linear_1_18786)"/>
</g>
<g clip-path="url(#clip5_1_18786)">
<path d="M435.94 183C435.94 178.582 439.522 175 443.94 175H454C458.418 175 462 178.582 462 183V185C462 189.418 458.418 193 454 193H443.94C439.522 193 435.94 189.418 435.94 185V183Z" fill="black" fill-opacity="0.08"/>
<rect x="435.94" y="175" width="26" height="18" fill="url(#paint5_linear_1_18786)"/>
</g>
<mask id="path-42-inside-3_1_18786" fill="white">
<path d="M4 212H470V268H4V212Z"/>
</mask>
<path d="M4 212H470V268H4V212Z" fill="white"/>
<path d="M470 267H4V269H470V267Z" fill="#DADFE2" mask="url(#path-42-inside-3_1_18786)"/>
<g clip-path="url(#clip6_1_18786)">
<path d="M40 239C40 234.582 43.5817 231 48 231H129.934C134.353 231 137.934 234.582 137.934 239V241C137.934 245.418 134.353 249 129.934 249H48C43.5817 249 40 245.418 40 241V239Z" fill="black" fill-opacity="0.08"/>
<rect x="40" y="231" width="98" height="18" fill="url(#paint6_linear_1_18786)"/>
</g>
<g clip-path="url(#clip7_1_18786)">
<path d="M148.022 239C148.022 234.582 151.604 231 156.022 231H237.956C242.375 231 245.956 234.582 245.956 239V241C245.956 245.418 242.375 249 237.956 249H156.022C151.604 249 148.022 245.418 148.022 241V239Z" fill="black" fill-opacity="0.08"/>
<rect x="148.022" y="231" width="98" height="18" fill="url(#paint7_linear_1_18786)"/>
</g>
<g clip-path="url(#clip8_1_18786)">
<path d="M256.064 239C256.064 234.582 259.646 231 264.064 231H345.968C350.386 231 353.968 234.582 353.968 239V241C353.968 245.418 350.386 249 345.968 249H264.064C259.646 249 256.064 245.418 256.064 241V239Z" fill="black" fill-opacity="0.08"/>
<rect x="256.064" y="231" width="98" height="18" fill="url(#paint8_linear_1_18786)"/>
</g>
<g clip-path="url(#clip9_1_18786)">
<path d="M364.066 239.5C364.066 235.082 367.647 231.5 372.066 231.5H417.853C422.271 231.5 425.853 235.082 425.853 239.5V241.5C425.853 245.918 422.271 249.5 417.853 249.5H372.066C367.647 249.5 364.066 245.918 364.066 241.5V239.5Z" fill="black" fill-opacity="0.08"/>
<rect x="364.066" y="231.5" width="62" height="18" fill="url(#paint9_linear_1_18786)"/>
</g>
<g clip-path="url(#clip10_1_18786)">
<path d="M435.94 239C435.94 234.582 439.522 231 443.94 231H454C458.418 231 462 234.582 462 239V241C462 245.418 458.418 249 454 249H443.94C439.522 249 435.94 245.418 435.94 241V239Z" fill="black" fill-opacity="0.08"/>
<rect x="435.94" y="231" width="26" height="18" fill="url(#paint10_linear_1_18786)"/>
</g>
<mask id="path-54-inside-4_1_18786" fill="white">
<path d="M4 268H470V324H4V268Z"/>
</mask>
<path d="M4 268H470V324H4V268Z" fill="white"/>
<path d="M470 323H4V325H470V323Z" fill="#DADFE2" mask="url(#path-54-inside-4_1_18786)"/>
<g clip-path="url(#clip11_1_18786)">
<path d="M40 295C40 290.582 43.5817 287 48 287H129.934C134.353 287 137.934 290.582 137.934 295V297C137.934 301.418 134.353 305 129.934 305H48C43.5817 305 40 301.418 40 297V295Z" fill="black" fill-opacity="0.08"/>
<rect x="40" y="287" width="98" height="18" fill="url(#paint11_linear_1_18786)"/>
</g>
<g clip-path="url(#clip12_1_18786)">
<path d="M148.022 295C148.022 290.582 151.604 287 156.022 287H237.956C242.375 287 245.956 290.582 245.956 295V297C245.956 301.418 242.375 305 237.956 305H156.022C151.604 305 148.022 301.418 148.022 297V295Z" fill="black" fill-opacity="0.08"/>
<rect x="148.022" y="287" width="98" height="18" fill="url(#paint12_linear_1_18786)"/>
</g>
<g clip-path="url(#clip13_1_18786)">
<path d="M256.064 295C256.064 290.582 259.646 287 264.064 287H345.968C350.386 287 353.968 290.582 353.968 295V297C353.968 301.418 350.386 305 345.968 305H264.064C259.646 305 256.064 301.418 256.064 297V295Z" fill="black" fill-opacity="0.08"/>
<rect x="256.064" y="287" width="98" height="18" fill="url(#paint13_linear_1_18786)"/>
</g>
<g clip-path="url(#clip14_1_18786)">
<path d="M364.066 295.5C364.066 291.082 367.647 287.5 372.066 287.5H417.853C422.271 287.5 425.853 291.082 425.853 295.5V297.5C425.853 301.918 422.271 305.5 417.853 305.5H372.066C367.647 305.5 364.066 301.918 364.066 297.5V295.5Z" fill="black" fill-opacity="0.08"/>
<rect x="364.066" y="287.5" width="62" height="18" fill="url(#paint14_linear_1_18786)"/>
</g>
<g clip-path="url(#clip15_1_18786)">
<path d="M435.94 295C435.94 290.582 439.522 287 443.94 287H454C458.418 287 462 290.582 462 295V297C462 301.418 458.418 305 454 305H443.94C439.522 305 435.94 301.418 435.94 297V295Z" fill="black" fill-opacity="0.08"/>
<rect x="435.94" y="287" width="26" height="18" fill="url(#paint15_linear_1_18786)"/>
</g>
<mask id="path-66-inside-5_1_18786" fill="white">
<path d="M4 324H470V380H4V324Z"/>
</mask>
<path d="M4 324H470V380H4V324Z" fill="white"/>
<path d="M470 379H4V381H470V379Z" fill="#DADFE2" mask="url(#path-66-inside-5_1_18786)"/>
<g clip-path="url(#clip16_1_18786)">
<path d="M40 351C40 346.582 43.5817 343 48 343H129.934C134.353 343 137.934 346.582 137.934 351V353C137.934 357.418 134.353 361 129.934 361H48C43.5817 361 40 357.418 40 353V351Z" fill="black" fill-opacity="0.08"/>
<rect x="40" y="343" width="98" height="18" fill="url(#paint16_linear_1_18786)"/>
</g>
<g clip-path="url(#clip17_1_18786)">
<path d="M148.022 351C148.022 346.582 151.604 343 156.022 343H237.956C242.375 343 245.956 346.582 245.956 351V353C245.956 357.418 242.375 361 237.956 361H156.022C151.604 361 148.022 357.418 148.022 353V351Z" fill="black" fill-opacity="0.08"/>
<rect x="148.022" y="343" width="98" height="18" fill="url(#paint17_linear_1_18786)"/>
</g>
<g clip-path="url(#clip18_1_18786)">
<path d="M256.064 351C256.064 346.582 259.646 343 264.064 343H345.968C350.386 343 353.968 346.582 353.968 351V353C353.968 357.418 350.386 361 345.968 361H264.064C259.646 361 256.064 357.418 256.064 353V351Z" fill="black" fill-opacity="0.08"/>
<rect x="256.064" y="343" width="98" height="18" fill="url(#paint18_linear_1_18786)"/>
</g>
<g clip-path="url(#clip19_1_18786)">
<path d="M364.066 351.5C364.066 347.082 367.647 343.5 372.066 343.5H417.853C422.271 343.5 425.853 347.082 425.853 351.5V353.5C425.853 357.918 422.271 361.5 417.853 361.5H372.066C367.647 361.5 364.066 357.918 364.066 353.5V351.5Z" fill="black" fill-opacity="0.08"/>
<rect x="364.066" y="343.5" width="62" height="18" fill="url(#paint19_linear_1_18786)"/>
</g>
<g clip-path="url(#clip20_1_18786)">
<path d="M435.94 351C435.94 346.582 439.522 343 443.94 343H454C458.418 343 462 346.582 462 351V353C462 357.418 458.418 361 454 361H443.94C439.522 361 435.94 357.418 435.94 353V351Z" fill="black" fill-opacity="0.08"/>
<rect x="435.94" y="343" width="26" height="18" fill="url(#paint20_linear_1_18786)"/>
</g>
</g>
<defs>
<linearGradient id="paint0_linear_1_18786" x1="36" y1="0" x2="36" y2="50" gradientUnits="userSpaceOnUse">
<stop stop-color="white" stop-opacity="0"/>
<stop offset="1" stop-color="white"/>
</linearGradient>
<linearGradient id="paint1_linear_1_18786" x1="138" y1="184" x2="40" y2="184" gradientUnits="userSpaceOnUse">
<stop stop-color="white" stop-opacity="0"/>
<stop offset="0.299948" stop-color="white" stop-opacity="0.8"/>
<stop offset="1" stop-color="white" stop-opacity="0"/>
</linearGradient>
<linearGradient id="paint2_linear_1_18786" x1="246.022" y1="184" x2="148.022" y2="184" gradientUnits="userSpaceOnUse">
<stop stop-color="white" stop-opacity="0"/>
<stop offset="0.299948" stop-color="white" stop-opacity="0.8"/>
<stop offset="1" stop-color="white" stop-opacity="0"/>
</linearGradient>
<linearGradient id="paint3_linear_1_18786" x1="354.064" y1="184" x2="256.064" y2="184" gradientUnits="userSpaceOnUse">
<stop stop-color="white" stop-opacity="0"/>
<stop offset="0.299948" stop-color="white" stop-opacity="0.8"/>
<stop offset="1" stop-color="white" stop-opacity="0"/>
</linearGradient>
<linearGradient id="paint4_linear_1_18786" x1="426.066" y1="184.5" x2="364.066" y2="184.5" gradientUnits="userSpaceOnUse">
<stop stop-color="white" stop-opacity="0"/>
<stop offset="0.299948" stop-color="white" stop-opacity="0.8"/>
<stop offset="1" stop-color="white" stop-opacity="0"/>
</linearGradient>
<linearGradient id="paint5_linear_1_18786" x1="461.94" y1="184" x2="435.94" y2="184" gradientUnits="userSpaceOnUse">
<stop stop-color="white" stop-opacity="0"/>
<stop offset="0.299948" stop-color="white" stop-opacity="0.8"/>
<stop offset="1" stop-color="white" stop-opacity="0"/>
</linearGradient>
<linearGradient id="paint6_linear_1_18786" x1="138" y1="240" x2="40" y2="240" gradientUnits="userSpaceOnUse">
<stop stop-color="white" stop-opacity="0"/>
<stop offset="0.299948" stop-color="white" stop-opacity="0.8"/>
<stop offset="1" stop-color="white" stop-opacity="0"/>
</linearGradient>
<linearGradient id="paint7_linear_1_18786" x1="246.022" y1="240" x2="148.022" y2="240" gradientUnits="userSpaceOnUse">
<stop stop-color="white" stop-opacity="0"/>
<stop offset="0.299948" stop-color="white" stop-opacity="0.8"/>
<stop offset="1" stop-color="white" stop-opacity="0"/>
</linearGradient>
<linearGradient id="paint8_linear_1_18786" x1="354.064" y1="240" x2="256.064" y2="240" gradientUnits="userSpaceOnUse">
<stop stop-color="white" stop-opacity="0"/>
<stop offset="0.299948" stop-color="white" stop-opacity="0.8"/>
<stop offset="1" stop-color="white" stop-opacity="0"/>
</linearGradient>
<linearGradient id="paint9_linear_1_18786" x1="426.066" y1="240.5" x2="364.066" y2="240.5" gradientUnits="userSpaceOnUse">
<stop stop-color="white" stop-opacity="0"/>
<stop offset="0.299948" stop-color="white" stop-opacity="0.8"/>
<stop offset="1" stop-color="white" stop-opacity="0"/>
</linearGradient>
<linearGradient id="paint10_linear_1_18786" x1="461.94" y1="240" x2="435.94" y2="240" gradientUnits="userSpaceOnUse">
<stop stop-color="white" stop-opacity="0"/>
<stop offset="0.299948" stop-color="white" stop-opacity="0.8"/>
<stop offset="1" stop-color="white" stop-opacity="0"/>
</linearGradient>
<linearGradient id="paint11_linear_1_18786" x1="138" y1="296" x2="40" y2="296" gradientUnits="userSpaceOnUse">
<stop stop-color="white" stop-opacity="0"/>
<stop offset="0.299948" stop-color="white" stop-opacity="0.8"/>
<stop offset="1" stop-color="white" stop-opacity="0"/>
</linearGradient>
<linearGradient id="paint12_linear_1_18786" x1="246.022" y1="296" x2="148.022" y2="296" gradientUnits="userSpaceOnUse">
<stop stop-color="white" stop-opacity="0"/>
<stop offset="0.299948" stop-color="white" stop-opacity="0.8"/>
<stop offset="1" stop-color="white" stop-opacity="0"/>
</linearGradient>
<linearGradient id="paint13_linear_1_18786" x1="354.064" y1="296" x2="256.064" y2="296" gradientUnits="userSpaceOnUse">
<stop stop-color="white" stop-opacity="0"/>
<stop offset="0.299948" stop-color="white" stop-opacity="0.8"/>
<stop offset="1" stop-color="white" stop-opacity="0"/>
</linearGradient>
<linearGradient id="paint14_linear_1_18786" x1="426.066" y1="296.5" x2="364.066" y2="296.5" gradientUnits="userSpaceOnUse">
<stop stop-color="white" stop-opacity="0"/>
<stop offset="0.299948" stop-color="white" stop-opacity="0.8"/>
<stop offset="1" stop-color="white" stop-opacity="0"/>
</linearGradient>
<linearGradient id="paint15_linear_1_18786" x1="461.94" y1="296" x2="435.94" y2="296" gradientUnits="userSpaceOnUse">
<stop stop-color="white" stop-opacity="0"/>
<stop offset="0.299948" stop-color="white" stop-opacity="0.8"/>
<stop offset="1" stop-color="white" stop-opacity="0"/>
</linearGradient>
<linearGradient id="paint16_linear_1_18786" x1="138" y1="352" x2="40" y2="352" gradientUnits="userSpaceOnUse">
<stop stop-color="white" stop-opacity="0"/>
<stop offset="0.299948" stop-color="white" stop-opacity="0.8"/>
<stop offset="1" stop-color="white" stop-opacity="0"/>
</linearGradient>
<linearGradient id="paint17_linear_1_18786" x1="246.022" y1="352" x2="148.022" y2="352" gradientUnits="userSpaceOnUse">
<stop stop-color="white" stop-opacity="0"/>
<stop offset="0.299948" stop-color="white" stop-opacity="0.8"/>
<stop offset="1" stop-color="white" stop-opacity="0"/>
</linearGradient>
<linearGradient id="paint18_linear_1_18786" x1="354.064" y1="352" x2="256.064" y2="352" gradientUnits="userSpaceOnUse">
<stop stop-color="white" stop-opacity="0"/>
<stop offset="0.299948" stop-color="white" stop-opacity="0.8"/>
<stop offset="1" stop-color="white" stop-opacity="0"/>
</linearGradient>
<linearGradient id="paint19_linear_1_18786" x1="426.066" y1="352.5" x2="364.066" y2="352.5" gradientUnits="userSpaceOnUse">
<stop stop-color="white" stop-opacity="0"/>
<stop offset="0.299948" stop-color="white" stop-opacity="0.8"/>
<stop offset="1" stop-color="white" stop-opacity="0"/>
</linearGradient>
<linearGradient id="paint20_linear_1_18786" x1="461.94" y1="352" x2="435.94" y2="352" gradientUnits="userSpaceOnUse">
<stop stop-color="white" stop-opacity="0"/>
<stop offset="0.299948" stop-color="white" stop-opacity="0.8"/>
<stop offset="1" stop-color="white" stop-opacity="0"/>
</linearGradient>
<clipPath id="clip0_1_18786">
<path d="M0 7.99999C0 3.58172 3.58172 0 8 0H466C470.418 0 474 3.58172 474 8V353C474 357.418 470.418 361 466 361H8.00001C3.58173 361 0 357.418 0 353V7.99999Z" fill="white"/>
</clipPath>
<clipPath id="clip1_1_18786">
<path d="M40 183C40 178.582 43.5817 175 48 175H129.934C134.353 175 137.934 178.582 137.934 183V185C137.934 189.418 134.353 193 129.934 193H48C43.5817 193 40 189.418 40 185V183Z" fill="white"/>
</clipPath>
<clipPath id="clip2_1_18786">
<path d="M148.022 183C148.022 178.582 151.604 175 156.022 175H237.956C242.375 175 245.956 178.582 245.956 183V185C245.956 189.418 242.375 193 237.956 193H156.022C151.604 193 148.022 189.418 148.022 185V183Z" fill="white"/>
</clipPath>
<clipPath id="clip3_1_18786">
<path d="M256.064 183C256.064 178.582 259.646 175 264.064 175H345.968C350.386 175 353.968 178.582 353.968 183V185C353.968 189.418 350.386 193 345.968 193H264.064C259.646 193 256.064 189.418 256.064 185V183Z" fill="white"/>
</clipPath>
<clipPath id="clip4_1_18786">
<path d="M364.066 183.5C364.066 179.082 367.647 175.5 372.066 175.5H417.853C422.271 175.5 425.853 179.082 425.853 183.5V185.5C425.853 189.918 422.271 193.5 417.853 193.5H372.066C367.647 193.5 364.066 189.918 364.066 185.5V183.5Z" fill="white"/>
</clipPath>
<clipPath id="clip5_1_18786">
<path d="M435.94 183C435.94 178.582 439.522 175 443.94 175H454C458.418 175 462 178.582 462 183V185C462 189.418 458.418 193 454 193H443.94C439.522 193 435.94 189.418 435.94 185V183Z" fill="white"/>
</clipPath>
<clipPath id="clip6_1_18786">
<path d="M40 239C40 234.582 43.5817 231 48 231H129.934C134.353 231 137.934 234.582 137.934 239V241C137.934 245.418 134.353 249 129.934 249H48C43.5817 249 40 245.418 40 241V239Z" fill="white"/>
</clipPath>
<clipPath id="clip7_1_18786">
<path d="M148.022 239C148.022 234.582 151.604 231 156.022 231H237.956C242.375 231 245.956 234.582 245.956 239V241C245.956 245.418 242.375 249 237.956 249H156.022C151.604 249 148.022 245.418 148.022 241V239Z" fill="white"/>
</clipPath>
<clipPath id="clip8_1_18786">
<path d="M256.064 239C256.064 234.582 259.646 231 264.064 231H345.968C350.386 231 353.968 234.582 353.968 239V241C353.968 245.418 350.386 249 345.968 249H264.064C259.646 249 256.064 245.418 256.064 241V239Z" fill="white"/>
</clipPath>
<clipPath id="clip9_1_18786">
<path d="M364.066 239.5C364.066 235.082 367.647 231.5 372.066 231.5H417.853C422.271 231.5 425.853 235.082 425.853 239.5V241.5C425.853 245.918 422.271 249.5 417.853 249.5H372.066C367.647 249.5 364.066 245.918 364.066 241.5V239.5Z" fill="white"/>
</clipPath>
<clipPath id="clip10_1_18786">
<path d="M435.94 239C435.94 234.582 439.522 231 443.94 231H454C458.418 231 462 234.582 462 239V241C462 245.418 458.418 249 454 249H443.94C439.522 249 435.94 245.418 435.94 241V239Z" fill="white"/>
</clipPath>
<clipPath id="clip11_1_18786">
<path d="M40 295C40 290.582 43.5817 287 48 287H129.934C134.353 287 137.934 290.582 137.934 295V297C137.934 301.418 134.353 305 129.934 305H48C43.5817 305 40 301.418 40 297V295Z" fill="white"/>
</clipPath>
<clipPath id="clip12_1_18786">
<path d="M148.022 295C148.022 290.582 151.604 287 156.022 287H237.956C242.375 287 245.956 290.582 245.956 295V297C245.956 301.418 242.375 305 237.956 305H156.022C151.604 305 148.022 301.418 148.022 297V295Z" fill="white"/>
</clipPath>
<clipPath id="clip13_1_18786">
<path d="M256.064 295C256.064 290.582 259.646 287 264.064 287H345.968C350.386 287 353.968 290.582 353.968 295V297C353.968 301.418 350.386 305 345.968 305H264.064C259.646 305 256.064 301.418 256.064 297V295Z" fill="white"/>
</clipPath>
<clipPath id="clip14_1_18786">
<path d="M364.066 295.5C364.066 291.082 367.647 287.5 372.066 287.5H417.853C422.271 287.5 425.853 291.082 425.853 295.5V297.5C425.853 301.918 422.271 305.5 417.853 305.5H372.066C367.647 305.5 364.066 301.918 364.066 297.5V295.5Z" fill="white"/>
</clipPath>
<clipPath id="clip15_1_18786">
<path d="M435.94 295C435.94 290.582 439.522 287 443.94 287H454C458.418 287 462 290.582 462 295V297C462 301.418 458.418 305 454 305H443.94C439.522 305 435.94 301.418 435.94 297V295Z" fill="white"/>
</clipPath>
<clipPath id="clip16_1_18786">
<path d="M40 351C40 346.582 43.5817 343 48 343H129.934C134.353 343 137.934 346.582 137.934 351V353C137.934 357.418 134.353 361 129.934 361H48C43.5817 361 40 357.418 40 353V351Z" fill="white"/>
</clipPath>
<clipPath id="clip17_1_18786">
<path d="M148.022 351C148.022 346.582 151.604 343 156.022 343H237.956C242.375 343 245.956 346.582 245.956 351V353C245.956 357.418 242.375 361 237.956 361H156.022C151.604 361 148.022 357.418 148.022 353V351Z" fill="white"/>
</clipPath>
<clipPath id="clip18_1_18786">
<path d="M256.064 351C256.064 346.582 259.646 343 264.064 343H345.968C350.386 343 353.968 346.582 353.968 351V353C353.968 357.418 350.386 361 345.968 361H264.064C259.646 361 256.064 357.418 256.064 353V351Z" fill="white"/>
</clipPath>
<clipPath id="clip19_1_18786">
<path d="M364.066 351.5C364.066 347.082 367.647 343.5 372.066 343.5H417.853C422.271 343.5 425.853 347.082 425.853 351.5V353.5C425.853 357.918 422.271 361.5 417.853 361.5H372.066C367.647 361.5 364.066 357.918 364.066 353.5V351.5Z" fill="white"/>
</clipPath>
<clipPath id="clip20_1_18786">
<path d="M435.94 351C435.94 346.582 439.522 343 443.94 343H454C458.418 343 462 346.582 462 351V353C462 357.418 458.418 361 454 361H443.94C439.522 361 435.94 357.418 435.94 353V351Z" fill="white"/>
</clipPath>
</defs>
</svg>
