<svg width="224" height="117" viewBox="0 0 224 117" fill="none" xmlns="http://www.w3.org/2000/svg">
<g clip-path="url(#clip0_3_6182)">
<g filter="url(#filter0_dd_3_6182)">
<g clip-path="url(#clip1_3_6182)">
<path d="M20 6.22221C20 3.39942 22.2883 1.11108 25.1111 1.11108H196.333C199.156 1.11108 201.444 3.39941 201.444 6.2222V160.194C201.444 163.017 199.156 165.306 196.333 165.306H25.1111C22.2883 165.306 20 163.017 20 160.194V6.22221Z" fill="white"/>
<path d="M20 6.2222C20 3.39941 22.2883 1.11108 25.1111 1.11108H40.4444C43.2672 1.11108 45.5556 3.39941 45.5556 6.2222V21.5555C45.5556 24.3783 43.2672 26.6666 40.4444 26.6666H25.1111C22.2883 26.6666 20 24.3783 20 21.5555V6.2222Z" fill="white"/>
<path d="M20 6.2222C20 3.39941 22.2883 1.11108 25.1111 1.11108H40.4444C43.2672 1.11108 45.5556 3.39941 45.5556 6.2222V21.5555C45.5556 24.3783 43.2672 26.6666 40.4444 26.6666H25.1111C22.2883 26.6666 20 24.3783 20 21.5555V6.2222Z" stroke="#DADFE2"/>
<path d="M34.8278 16.3145C34.9522 16.4393 35.0143 16.6028 35.014 16.7661C35.0137 16.929 34.9515 17.0917 34.8273 17.216C34.7031 17.3402 34.5405 17.4025 34.3778 17.4028C34.2143 17.4031 34.0507 17.3408 33.926 17.216L30.7289 14.0215C30.6041 13.8967 30.5417 13.7331 30.5417 13.5695C30.5417 13.4058 30.6041 13.2422 30.7289 13.1174L33.9233 9.92292C34.048 9.79809 34.2116 9.73583 34.3751 9.73612C34.5378 9.7364 34.7005 9.79867 34.8246 9.92292C34.9488 10.0472 35.011 10.2099 35.0113 10.3728C35.0116 10.5361 34.9495 10.6996 34.8251 10.8244L32.0852 13.5695L34.8278 16.3145Z" fill="#388523"/>
<path d="M86.7334 16.3526L89.0743 11.3028H90.3726V18.4583H88.9619V14.3286L87.0401 18.4583H86.3143L84.413 14.3695V18.4583H83.0023V11.3028H84.3926L86.7334 16.3526ZM94.0866 18.5912C92.6452 18.5912 91.4186 17.3339 91.4186 15.8517C91.4186 14.3695 92.6452 13.1121 94.0866 13.1121C95.5279 13.1121 96.7546 14.3695 96.7546 15.8517C96.7546 17.3339 95.5279 18.5912 94.0866 18.5912ZM94.0866 17.3032C94.8124 17.3032 95.3644 16.7001 95.3644 15.8517C95.3644 15.0032 94.8124 14.4001 94.0866 14.4001C93.3608 14.4001 92.8088 15.0032 92.8088 15.8517C92.8088 16.7001 93.3608 17.3032 94.0866 17.3032ZM99.0744 18.4583H97.6842V13.245H98.7268L98.9517 13.7561H99.0028C99.1255 13.6028 99.6571 13.1121 100.424 13.1121C101.681 13.1121 102.529 14.0117 102.529 15.3815V18.4583H101.139V15.5041C101.139 14.8908 100.7 14.4001 100.107 14.4001C99.5037 14.4001 99.0744 14.8908 99.0744 15.5041V18.4583ZM105.7 18.5912C104.678 18.5912 103.942 17.8859 103.942 16.6899V14.4819H103.134V13.3472H103.492C103.891 13.3472 104.115 13.1223 104.115 12.7339V11.9366H105.332V13.245H106.405V14.4819H105.332V16.5468C105.332 17.0477 105.608 17.2828 106.047 17.2828C106.18 17.2828 106.303 17.2623 106.405 17.2112V18.4788C106.262 18.5299 106.017 18.5912 105.7 18.5912ZM108.809 18.4583H107.418V11.3028H108.809V13.7561H108.86C108.972 13.5926 109.514 13.1121 110.27 13.1121C111.415 13.1121 112.264 14.0117 112.264 15.3815V18.4583H110.874V15.5041C110.874 14.8908 110.434 14.4001 109.841 14.4001C109.238 14.4001 108.809 14.8908 108.809 15.5041V18.4583ZM118.116 14.2366L119.578 11.3028H121.152L118.821 15.7903V18.4583H117.359V15.7903L115.029 11.3028H116.654L118.116 14.2366ZM124.135 14.2366L125.597 11.3028H127.171L124.841 15.7903V18.4583H123.379V15.7903L121.048 11.3028H122.674L124.135 14.2366ZM130.155 14.2366L131.617 11.3028H133.191L130.86 15.7903V18.4583H129.398V15.7903L127.068 11.3028H128.693L130.155 14.2366ZM136.174 14.2366L137.636 11.3028H139.21L136.88 15.7903V18.4583H135.418V15.7903L133.087 11.3028H134.713L136.174 14.2366Z" fill="#032B3A"/>
<path d="M175.889 6.2222C175.889 3.39941 178.177 1.11108 181 1.11108H196.333C199.156 1.11108 201.444 3.39941 201.444 6.2222V21.5555C201.444 24.3783 199.156 26.6666 196.333 26.6666H181C178.177 26.6666 175.889 24.3783 175.889 21.5555V6.2222Z" fill="white"/>
<path d="M175.889 6.2222C175.889 3.39941 178.177 1.11108 181 1.11108H196.333C199.156 1.11108 201.444 3.39941 201.444 6.2222V21.5555C201.444 24.3783 199.156 26.6666 196.333 26.6666H181C178.177 26.6666 175.889 24.3783 175.889 21.5555V6.2222Z" stroke="#DADFE2"/>
<path d="M186.617 16.3145C186.492 16.4393 186.43 16.6028 186.431 16.7661C186.431 16.929 186.493 17.0918 186.617 17.216C186.741 17.3402 186.904 17.4025 187.067 17.4028C187.23 17.4031 187.394 17.3408 187.519 17.216L190.716 14.0215C190.841 13.8967 190.903 13.7331 190.903 13.5694C190.903 13.4058 190.841 13.2422 190.716 13.1174L187.521 9.92292C187.397 9.79809 187.233 9.73583 187.07 9.73612C186.907 9.7364 186.744 9.79867 186.62 9.92292C186.496 10.0472 186.434 10.2099 186.433 10.3728C186.433 10.5361 186.495 10.6996 186.62 10.8244L189.359 13.5694L186.617 16.3145Z" fill="#388523"/>
<path d="M28.0885 37.5126C28.0559 37.2368 27.9234 37.0226 27.6911 36.8701C27.4587 36.7177 27.1738 36.6414 26.8362 36.6414C26.5893 36.6414 26.3733 36.6814 26.1882 36.7612C26.0049 36.8411 25.8615 36.9509 25.7581 37.0906C25.6564 37.2304 25.6056 37.3892 25.6056 37.5671C25.6056 37.7159 25.641 37.8439 25.7118 37.951C25.7844 38.0562 25.8769 38.1443 25.9895 38.2151C26.102 38.284 26.22 38.3412 26.3434 38.3866C26.4668 38.4301 26.5803 38.4655 26.6837 38.4928L27.25 38.6452C27.3952 38.6833 27.5567 38.736 27.7346 38.8031C27.9143 38.8703 28.0858 38.9619 28.2492 39.0781C28.4143 39.1924 28.5505 39.3395 28.6576 39.5192C28.7646 39.6988 28.8182 39.9194 28.8182 40.1807C28.8182 40.482 28.7392 40.7543 28.5813 40.9975C28.4252 41.2407 28.1965 41.434 27.8952 41.5774C27.5958 41.7208 27.2319 41.7925 26.8035 41.7925C26.4042 41.7925 26.0584 41.728 25.7662 41.5992C25.4758 41.4703 25.2471 41.2906 25.0801 41.0601C24.915 40.8296 24.8215 40.5619 24.7997 40.257H25.4967C25.5148 40.4675 25.5856 40.6417 25.709 40.7797C25.8343 40.9158 25.9922 41.0175 26.1828 41.0846C26.3752 41.15 26.5821 41.1826 26.8035 41.1826C27.0612 41.1826 27.2927 41.1409 27.4978 41.0574C27.7029 40.9721 27.8653 40.8541 27.9851 40.7035C28.1049 40.551 28.1648 40.3731 28.1648 40.1698C28.1648 39.9847 28.113 39.8341 28.0096 39.7179C27.9061 39.6017 27.77 39.5074 27.6012 39.4348C27.4324 39.3622 27.25 39.2986 27.054 39.2442L26.3679 39.0482C25.9323 38.9229 25.5874 38.7441 25.3333 38.5118C25.0792 38.2795 24.9522 37.9755 24.9522 37.5998C24.9522 37.2876 25.0366 37.0153 25.2054 36.783C25.376 36.5489 25.6047 36.3674 25.8915 36.2385C26.18 36.1078 26.5022 36.0425 26.858 36.0425C27.2173 36.0425 27.5368 36.1069 27.8163 36.2358C28.0958 36.3628 28.3172 36.5371 28.4806 36.7585C28.6458 36.9799 28.7329 37.2313 28.742 37.5126H28.0885ZM33.5874 36.1187H34.2626V39.8105C34.2626 40.1916 34.1727 40.5319 33.993 40.8314C33.8152 41.1291 33.5638 41.3641 33.2389 41.5366C32.914 41.7072 32.5329 41.7925 32.0954 41.7925C31.658 41.7925 31.2769 41.7072 30.952 41.5366C30.6271 41.3641 30.3748 41.1291 30.1951 40.8314C30.0172 40.5319 29.9283 40.1916 29.9283 39.8105V36.1187H30.6035V39.756C30.6035 40.0283 30.6634 40.2706 30.7832 40.4829C30.903 40.6935 31.0736 40.8595 31.295 40.9812C31.5183 41.1009 31.7851 41.1608 32.0954 41.1608C32.4058 41.1608 32.6726 41.1009 32.8959 40.9812C33.1191 40.8595 33.2897 40.6935 33.4077 40.4829C33.5275 40.2706 33.5874 40.0283 33.5874 39.756V36.1187ZM40.0323 36.1187V41.6945H39.3789L36.3406 37.3166H36.2861V41.6945H35.6109V36.1187H36.2643L39.3136 40.5074H39.368V36.1187H40.0323Z" fill="#233D48"/>
<path d="M50.0214 36.1187H50.8273L52.7221 40.747H52.7875L54.6824 36.1187H55.4882V41.6945H54.8566V37.4582H54.8022L53.0597 41.6945H52.4499L50.7075 37.4582H50.653V41.6945H50.0214V36.1187ZM61.5466 38.9066C61.5466 39.4946 61.4404 40.0029 61.228 40.4312C61.0157 40.8595 60.7244 41.1899 60.3541 41.4222C59.9838 41.6545 59.5609 41.7707 59.0854 41.7707C58.6099 41.7707 58.187 41.6545 57.8167 41.4222C57.4464 41.1899 57.1551 40.8595 56.9428 40.4312C56.7304 40.0029 56.6242 39.4946 56.6242 38.9066C56.6242 38.3185 56.7304 37.8103 56.9428 37.382C57.1551 36.9536 57.4464 36.6233 57.8167 36.391C58.187 36.1586 58.6099 36.0425 59.0854 36.0425C59.5609 36.0425 59.9838 36.1586 60.3541 36.391C60.7244 36.6233 61.0157 36.9536 61.228 37.382C61.4404 37.8103 61.5466 38.3185 61.5466 38.9066ZM60.8932 38.9066C60.8932 38.4238 60.8124 38.0163 60.6509 37.6842C60.4911 37.352 60.2742 37.1006 60.0002 36.93C59.7279 36.7594 59.423 36.6741 59.0854 36.6741C58.7478 36.6741 58.442 36.7594 58.1679 36.93C57.8956 37.1006 57.6788 37.352 57.5172 37.6842C57.3575 38.0163 57.2776 38.4238 57.2776 38.9066C57.2776 39.3894 57.3575 39.7968 57.5172 40.129C57.6788 40.4611 57.8956 40.7125 58.1679 40.8831C58.442 41.0538 58.7478 41.1391 59.0854 41.1391C59.423 41.1391 59.7279 41.0538 60.0002 40.8831C60.2742 40.7125 60.4911 40.4611 60.6509 40.129C60.8124 39.7968 60.8932 39.3894 60.8932 38.9066ZM67.1033 36.1187V41.6945H66.4499L63.4115 37.3166H63.3571V41.6945H62.6819V36.1187H63.3353L66.3845 40.5074H66.439V36.1187H67.1033Z" fill="#233D48"/>
<path d="M77.3698 36.7177V36.1187H81.5516V36.7177H79.7983V41.6945H79.1231V36.7177H77.3698ZM86.2528 36.1187H86.9279V39.8105C86.9279 40.1916 86.8381 40.5319 86.6584 40.8314C86.4805 41.1291 86.2292 41.3641 85.9043 41.5366C85.5794 41.7072 85.1982 41.7925 84.7608 41.7925C84.3234 41.7925 83.9422 41.7072 83.6173 41.5366C83.2925 41.3641 83.0402 41.1291 82.8605 40.8314C82.6826 40.5319 82.5937 40.1916 82.5937 39.8105V36.1187H83.2689V39.756C83.2689 40.0283 83.3288 40.2706 83.4485 40.4829C83.5683 40.6935 83.7389 40.8595 83.9604 40.9812C84.1836 41.1009 84.4504 41.1608 84.7608 41.1608C85.0712 41.1608 85.338 41.1009 85.5612 40.9812C85.7845 40.8595 85.9551 40.6935 86.0731 40.4829C86.1929 40.2706 86.2528 40.0283 86.2528 39.756V36.1187ZM88.2763 41.6945V36.1187H91.6413V36.7177H88.9515V38.6017H91.4671V39.2006H88.9515V41.0955H91.6849V41.6945H88.2763Z" fill="#233D48"/>
<path d="M103.625 41.6945L102.1 36.1187H102.786L103.951 40.6599H104.006L105.193 36.1187H105.955L107.142 40.6599H107.197L108.362 36.1187H109.048L107.523 41.6945H106.826L105.596 37.2513H105.552L104.322 41.6945H103.625ZM109.889 41.6945V36.1187H113.254V36.7177H110.564V38.6017H113.08V39.2006H110.564V41.0955H113.298V41.6945H109.889ZM116.192 41.6945H114.471V36.1187H116.268C116.809 36.1187 117.272 36.2303 117.657 36.4536C118.041 36.675 118.336 36.9935 118.541 37.4092C118.746 37.823 118.849 38.3185 118.849 38.8957C118.849 39.4765 118.746 39.9765 118.539 40.3958C118.332 40.8133 118.03 41.1345 117.635 41.3596C117.239 41.5828 116.758 41.6945 116.192 41.6945ZM115.146 41.0955H116.148C116.609 41.0955 116.991 41.0066 117.294 40.8287C117.598 40.6508 117.824 40.3976 117.972 40.0691C118.121 39.7406 118.196 39.3494 118.196 38.8957C118.196 38.4456 118.122 38.0581 117.975 37.7332C117.828 37.4065 117.608 37.156 117.316 36.9817C117.024 36.8057 116.66 36.7177 116.224 36.7177H115.146V41.0955Z" fill="#233D48"/>
<path d="M128.878 36.7177V36.1187H133.06V36.7177H131.307V41.6945H130.632V36.7177H128.878ZM134.102 41.6945V36.1187H134.777V38.6017H137.75V36.1187H138.426V41.6945H137.75V39.2006H134.777V41.6945H134.102ZM143.437 36.1187H144.112V39.8105C144.112 40.1916 144.022 40.5319 143.842 40.8314C143.664 41.1291 143.413 41.3641 143.088 41.5366C142.763 41.7072 142.382 41.7925 141.945 41.7925C141.507 41.7925 141.126 41.7072 140.801 41.5366C140.476 41.3641 140.224 41.1291 140.044 40.8314C139.866 40.5319 139.777 40.1916 139.777 39.8105V36.1187H140.453V39.756C140.453 40.0283 140.513 40.2706 140.632 40.4829C140.752 40.6935 140.923 40.8595 141.144 40.9812C141.367 41.1009 141.634 41.1608 141.945 41.1608C142.255 41.1608 142.522 41.1009 142.745 40.9812C142.968 40.8595 143.139 40.6935 143.257 40.4829C143.377 40.2706 143.437 40.0283 143.437 39.756V36.1187Z" fill="#233D48"/>
<path d="M157.317 41.6945V36.1187H160.66V36.7177H157.992V38.6017H160.409V39.2006H157.992V41.6945H157.317ZM161.816 41.6945V36.1187H163.7C164.136 36.1187 164.493 36.1931 164.773 36.3419C165.052 36.489 165.259 36.6913 165.394 36.9491C165.528 37.2068 165.595 37.4999 165.595 37.8285C165.595 38.157 165.528 38.4483 165.394 38.7024C165.259 38.9565 165.053 39.1561 164.776 39.3013C164.498 39.4447 164.143 39.5164 163.711 39.5164H162.186V38.9066H163.689C163.987 38.9066 164.227 38.863 164.408 38.7759C164.591 38.6888 164.724 38.5654 164.806 38.4056C164.889 38.2441 164.931 38.0517 164.931 37.8285C164.931 37.6052 164.889 37.4101 164.806 37.2431C164.722 37.0761 164.589 36.9473 164.405 36.8565C164.222 36.7639 163.98 36.7177 163.678 36.7177H162.491V41.6945H161.816ZM164.441 39.1897L165.813 41.6945H165.029L163.678 39.1897H164.441ZM167.395 36.1187V41.6945H166.72V36.1187H167.395Z" fill="#233D48"/>
<path d="M184.942 37.5126C184.909 37.2368 184.776 37.0226 184.544 36.8701C184.312 36.7177 184.027 36.6414 183.689 36.6414C183.442 36.6414 183.226 36.6814 183.041 36.7612C182.858 36.8411 182.715 36.9509 182.611 37.0906C182.509 37.2304 182.459 37.3892 182.459 37.5671C182.459 37.7159 182.494 37.8439 182.565 37.951C182.637 38.0562 182.73 38.1443 182.842 38.2151C182.955 38.284 183.073 38.3412 183.196 38.3866C183.32 38.4301 183.433 38.4655 183.537 38.4928L184.103 38.6452C184.248 38.6833 184.41 38.736 184.588 38.8031C184.767 38.8703 184.939 38.9619 185.102 39.0781C185.267 39.1924 185.403 39.3395 185.511 39.5192C185.618 39.6988 185.671 39.9194 185.671 40.1807C185.671 40.482 185.592 40.7543 185.434 40.9975C185.278 41.2407 185.05 41.434 184.748 41.5774C184.449 41.7208 184.085 41.7925 183.657 41.7925C183.257 41.7925 182.911 41.728 182.619 41.5992C182.329 41.4703 182.1 41.2906 181.933 41.0601C181.768 40.8296 181.674 40.5619 181.653 40.257H182.35C182.368 40.4675 182.439 40.6417 182.562 40.7797C182.687 40.9158 182.845 41.0175 183.036 41.0846C183.228 41.15 183.435 41.1826 183.657 41.1826C183.914 41.1826 184.146 41.1409 184.351 41.0574C184.556 40.9721 184.718 40.8541 184.838 40.7035C184.958 40.551 185.018 40.3731 185.018 40.1698C185.018 39.9847 184.966 39.8341 184.863 39.7179C184.759 39.6017 184.623 39.5074 184.454 39.4348C184.285 39.3622 184.103 39.2986 183.907 39.2442L183.221 39.0482C182.785 38.9229 182.44 38.7441 182.186 38.5118C181.932 38.2795 181.805 37.9755 181.805 37.5998C181.805 37.2876 181.89 37.0153 182.058 36.783C182.229 36.5489 182.458 36.3674 182.744 36.2385C183.033 36.1078 183.355 36.0425 183.711 36.0425C184.07 36.0425 184.39 36.1069 184.669 36.2358C184.949 36.3628 185.17 36.5371 185.334 36.7585C185.499 36.9799 185.586 37.2313 185.595 37.5126H184.942ZM187.01 41.6945H186.302L188.349 36.1187H189.046L191.094 41.6945H190.386L188.72 37.0008H188.676L187.01 41.6945ZM187.271 39.5164H190.125V40.1154H187.271V39.5164ZM191.006 36.7177V36.1187H195.188V36.7177H193.434V41.6945H192.759V36.7177H191.006Z" fill="#233D48"/>
<g clip-path="url(#clip2_3_6182)">
<rect x="20" y="49.6667" width="181.444" height="0.638889" fill="#DADFE2"/>
</g>
<g clip-path="url(#clip3_3_6182)">
<rect width="25.9206" height="23" transform="translate(20 50.3055)" fill="#F1F0E9"/>
<rect x="20.6389" y="50.9445" width="24.6429" height="21.7222" rx="1.27778" fill="#F1F0E9"/>
<path d="M28.1353 65.3056V64.7338L30.2824 62.3834C30.5344 62.1081 30.7419 61.8688 30.905 61.6655C31.068 61.4601 31.1887 61.2674 31.2671 61.0875C31.3476 60.9053 31.3878 60.7148 31.3878 60.5157C31.3878 60.287 31.3327 60.089 31.2226 59.9218C31.1146 59.7545 30.9664 59.6253 30.7779 59.5342C30.5895 59.4432 30.3777 59.3977 30.1427 59.3977C29.8928 59.3977 29.6747 59.4495 29.4884 59.5533C29.3041 59.6549 29.1612 59.7979 29.0596 59.9821C28.96 60.1663 28.9103 60.3823 28.9103 60.6301H28.1607C28.1607 60.2489 28.2485 59.9143 28.4243 59.6264C28.6001 59.3384 28.8393 59.1139 29.1421 58.953C29.4471 58.7921 29.7891 58.7116 30.1681 58.7116C30.5492 58.7116 30.887 58.7921 31.1813 58.953C31.4757 59.1139 31.7065 59.331 31.8738 59.6041C32.041 59.8773 32.1247 60.1812 32.1247 60.5157C32.1247 60.755 32.0813 60.989 31.9945 61.2177C31.9098 61.4443 31.7615 61.6973 31.5498 61.9768C31.3401 62.2542 31.049 62.593 30.6763 62.9932L29.2152 64.556V64.6068H32.239V65.3056H28.1353ZM35.6218 58.7116C35.8886 58.7137 36.1554 58.7645 36.4222 58.864C36.689 58.9636 36.9325 59.1287 37.1528 59.3595C37.373 59.5882 37.5498 59.9006 37.6832 60.2966C37.8166 60.6925 37.8833 61.1891 37.8833 61.7862C37.8833 62.3643 37.8283 62.8778 37.7181 63.3267C37.6101 63.7735 37.4534 64.1505 37.248 64.4575C37.0448 64.7645 36.797 64.9975 36.5048 65.1563C36.2147 65.3151 35.8865 65.3945 35.5201 65.3945C35.1559 65.3945 34.8309 65.3225 34.545 65.1785C34.2613 65.0324 34.0283 64.8302 33.8462 64.5718C33.6662 64.3114 33.5508 64.0096 33.5 63.6666H34.275C34.3449 63.9652 34.4836 64.2119 34.6911 64.4067C34.9008 64.5994 35.1771 64.6957 35.5201 64.6957C36.022 64.6957 36.418 64.4766 36.7081 64.0382C37.0003 63.5999 37.1464 62.9805 37.1464 62.1801H37.0956C36.977 62.358 36.8362 62.5115 36.6731 62.6407C36.5101 62.7698 36.329 62.8694 36.13 62.9392C35.9309 63.0091 35.7192 63.0441 35.4947 63.0441C35.122 63.0441 34.7801 62.9519 34.4688 62.7677C34.1596 62.5814 33.9119 62.3262 33.7255 62.0022C33.5413 61.6761 33.4492 61.3034 33.4492 60.8842C33.4492 60.4861 33.5381 60.1219 33.716 59.7915C33.896 59.4591 34.148 59.1944 34.472 58.9975C34.7981 58.8005 35.1813 58.7052 35.6218 58.7116ZM35.6218 59.4104C35.355 59.4104 35.1146 59.4771 34.9008 59.6105C34.689 59.7418 34.5207 59.9196 34.3957 60.1441C34.2729 60.3664 34.2115 60.6131 34.2115 60.8842C34.2115 61.1552 34.2708 61.4019 34.3894 61.6242C34.5101 61.8445 34.6742 62.0202 34.8817 62.1515C35.0913 62.2807 35.3296 62.3453 35.5964 62.3453C35.7975 62.3453 35.9849 62.3061 36.1586 62.2277C36.3322 62.1473 36.4836 62.0382 36.6128 61.9006C36.7441 61.7608 36.8468 61.6031 36.9209 61.4273C36.995 61.2494 37.0321 61.0642 37.0321 60.8715C37.0321 60.6174 36.9707 60.3791 36.8478 60.1568C36.7271 59.9345 36.5599 59.7545 36.346 59.6168C36.1342 59.4792 35.8928 59.4104 35.6218 59.4104Z" fill="#233D48"/>
</g>
<g clip-path="url(#clip4_3_6182)">
<rect width="25.9206" height="23" transform="translate(45.9207 50.3055)" fill="#F1F0E9"/>
<rect x="46.5596" y="50.9445" width="24.6429" height="21.7222" rx="1.27778" fill="#F1F0E9"/>
<path d="M56.1098 65.3945C55.6905 65.3945 55.3168 65.3225 54.9886 65.1785C54.6625 65.0345 54.4031 64.8344 54.2104 64.5782C54.0198 64.3199 53.916 64.0202 53.8991 63.6793H54.6995C54.7165 63.8889 54.7884 64.07 54.9155 64.2225C55.0426 64.3728 55.2088 64.4893 55.4142 64.5718C55.6196 64.6544 55.8472 64.6957 56.0971 64.6957C56.3766 64.6957 56.6243 64.647 56.8403 64.5496C57.0563 64.4522 57.2257 64.3167 57.3485 64.143C57.4714 63.9694 57.5328 63.7682 57.5328 63.5396C57.5328 63.3003 57.4735 63.0896 57.3549 62.9075C57.2363 62.7232 57.0627 62.5793 56.834 62.4755C56.6053 62.3717 56.3258 62.3199 55.9954 62.3199H55.4745V61.6211H55.9954C56.2538 61.6211 56.4804 61.5745 56.6752 61.4813C56.8721 61.3881 57.0256 61.2569 57.1357 61.0875C57.248 60.9181 57.3041 60.719 57.3041 60.4903C57.3041 60.2701 57.2554 60.0785 57.158 59.9154C57.0606 59.7524 56.9229 59.6253 56.745 59.5342C56.5693 59.4432 56.3618 59.3977 56.1225 59.3977C55.898 59.3977 55.6863 59.439 55.4872 59.5215C55.2903 59.602 55.1294 59.7195 55.0044 59.8741C54.8795 60.0266 54.8117 60.2108 54.8012 60.4268H54.0388C54.0515 60.0859 54.1542 59.7873 54.3469 59.5311C54.5396 59.2727 54.7916 59.0716 55.1029 58.9276C55.4163 58.7836 55.7604 58.7116 56.1352 58.7116C56.5375 58.7116 56.8827 58.7931 57.1707 58.9562C57.4587 59.1171 57.6799 59.3299 57.8345 59.5946C57.9891 59.8593 58.0664 60.1452 58.0664 60.4522C58.0664 60.8185 57.97 61.1309 57.7773 61.3892C57.5868 61.6475 57.3274 61.8265 56.9991 61.926V61.9768C57.4099 62.0446 57.7308 62.2193 57.9616 62.5009C58.1924 62.7804 58.3078 63.1266 58.3078 63.5396C58.3078 63.8932 58.2114 64.2108 58.0187 64.4924C57.8282 64.772 57.5677 64.9922 57.2374 65.1531C56.907 65.314 56.5312 65.3945 56.1098 65.3945ZM61.7287 65.3945C61.2501 65.3945 60.8425 65.2643 60.5058 65.0038C60.1691 64.7413 59.9118 64.3612 59.7339 63.8635C59.5561 63.3638 59.4671 62.7603 59.4671 62.053C59.4671 61.35 59.5561 60.7497 59.7339 60.2521C59.9139 59.7524 60.1723 59.3712 60.509 59.1086C60.8478 58.8439 61.2543 58.7116 61.7287 58.7116C62.203 58.7116 62.6085 58.8439 62.9452 59.1086C63.284 59.3712 63.5423 59.7524 63.7202 60.2521C63.9002 60.7497 63.9902 61.35 63.9902 62.053C63.9902 62.7603 63.9012 63.3638 63.7234 63.8635C63.5455 64.3612 63.2882 64.7413 62.9515 65.0038C62.6148 65.2643 62.2072 65.3945 61.7287 65.3945ZM61.7287 64.6957C62.203 64.6957 62.5714 64.467 62.834 64.0096C63.0966 63.5523 63.2279 62.9001 63.2279 62.053C63.2279 61.4898 63.1675 61.0102 63.0468 60.6142C62.9282 60.2182 62.7567 59.9165 62.5323 59.7089C62.3099 59.5014 62.042 59.3977 61.7287 59.3977C61.2586 59.3977 60.8912 59.6295 60.6265 60.0933C60.3618 60.5549 60.2294 61.2082 60.2294 62.053C60.2294 62.6163 60.2887 63.0949 60.4073 63.4887C60.5259 63.8826 60.6964 64.1822 60.9187 64.3876C61.1432 64.593 61.4131 64.6957 61.7287 64.6957Z" fill="#233D48"/>
</g>
<g clip-path="url(#clip5_3_6182)">
<path d="M85.6832 58.8005V65.3056H84.8955V59.6264H84.8573L83.2692 60.6809V59.8805L84.8955 58.8005H85.6832Z" fill="#233D48"/>
</g>
<g clip-path="url(#clip6_3_6182)">
<path d="M108.688 65.3056V64.7338L110.835 62.3834C111.087 62.1081 111.295 61.8688 111.458 61.6655C111.621 61.4601 111.741 61.2674 111.82 61.0875C111.9 60.9053 111.941 60.7148 111.941 60.5157C111.941 60.287 111.885 60.089 111.775 59.9218C111.667 59.7545 111.519 59.6253 111.331 59.5342C111.142 59.4432 110.93 59.3977 110.695 59.3977C110.446 59.3977 110.227 59.4495 110.041 59.5533C109.857 59.6549 109.714 59.7979 109.612 59.9821C109.513 60.1663 109.463 60.3823 109.463 60.6301H108.713C108.713 60.2489 108.801 59.9143 108.977 59.6264C109.153 59.3384 109.392 59.1139 109.695 58.953C110 58.7921 110.342 58.7116 110.721 58.7116C111.102 58.7116 111.44 58.7921 111.734 58.953C112.028 59.1139 112.259 59.331 112.426 59.6041C112.594 59.8773 112.677 60.1812 112.677 60.5157C112.677 60.755 112.634 60.989 112.547 61.2177C112.462 61.4443 112.314 61.6973 112.103 61.9768C111.893 62.2542 111.602 62.593 111.229 62.9932L109.768 64.556V64.6068H112.792V65.3056H108.688Z" fill="#233D48"/>
</g>
<g clip-path="url(#clip7_3_6182)">
<path d="M136.667 65.3945C136.247 65.3945 135.874 65.3225 135.545 65.1785C135.219 65.0345 134.96 64.8344 134.767 64.5782C134.577 64.3199 134.473 64.0202 134.456 63.6793H135.256C135.273 63.8889 135.345 64.07 135.472 64.2225C135.599 64.3728 135.766 64.4893 135.971 64.5718C136.176 64.6544 136.404 64.6957 136.654 64.6957C136.933 64.6957 137.181 64.647 137.397 64.5496C137.613 64.4522 137.783 64.3167 137.905 64.143C138.028 63.9694 138.09 63.7682 138.09 63.5396C138.09 63.3003 138.03 63.0896 137.912 62.9075C137.793 62.7232 137.62 62.5793 137.391 62.4755C137.162 62.3717 136.883 62.3199 136.552 62.3199H136.031V61.6211H136.552C136.811 61.6211 137.037 61.5745 137.232 61.4813C137.429 61.3881 137.582 61.2569 137.693 61.0875C137.805 60.9181 137.861 60.719 137.861 60.4903C137.861 60.2701 137.812 60.0785 137.715 59.9154C137.617 59.7524 137.48 59.6253 137.302 59.5342C137.126 59.4432 136.919 59.3977 136.679 59.3977C136.455 59.3977 136.243 59.439 136.044 59.5215C135.847 59.602 135.686 59.7195 135.561 59.8741C135.436 60.0266 135.369 60.2108 135.358 60.4268H134.596C134.608 60.0859 134.711 59.7873 134.904 59.5311C135.096 59.2727 135.348 59.0716 135.66 58.9276C135.973 58.7836 136.317 58.7116 136.692 58.7116C137.094 58.7116 137.44 58.7931 137.728 58.9562C138.016 59.1171 138.237 59.3299 138.391 59.5946C138.546 59.8593 138.623 60.1452 138.623 60.4522C138.623 60.8185 138.527 61.1309 138.334 61.3892C138.144 61.6475 137.884 61.8265 137.556 61.926V61.9768C137.967 62.0446 138.288 62.2193 138.518 62.5009C138.749 62.7804 138.865 63.1266 138.865 63.5396C138.865 63.8932 138.768 64.2108 138.576 64.4924C138.385 64.772 138.125 64.9922 137.794 65.1531C137.464 65.314 137.088 65.3945 136.667 65.3945Z" fill="#233D48"/>
</g>
<g clip-path="url(#clip8_3_6182)">
<path d="M160.215 63.9715V63.3236L163.074 58.8005H163.544V59.8042H163.226L161.066 63.2219V63.2727H164.916V63.9715H160.215ZM163.277 65.3056V63.7746V63.4729V58.8005H164.027V65.3056H163.277Z" fill="#233D48"/>
</g>
<g clip-path="url(#clip9_3_6182)">
<path d="M188.469 65.3945C188.097 65.3945 187.761 65.3204 187.463 65.1722C187.164 65.0239 186.925 64.8207 186.745 64.5623C186.565 64.304 186.466 64.0096 186.449 63.6793H187.212C187.241 63.9736 187.375 64.2172 187.612 64.4099C187.851 64.6004 188.137 64.6957 188.469 64.6957C188.736 64.6957 188.973 64.6333 189.181 64.5083C189.391 64.3834 189.555 64.2119 189.673 63.9938C189.794 63.7735 189.854 63.5247 189.854 63.2473C189.854 62.9636 189.792 62.7105 189.667 62.4882C189.544 62.2637 189.375 62.0869 189.159 61.9578C188.943 61.8286 188.696 61.7629 188.419 61.7608C188.22 61.7587 188.015 61.7894 187.806 61.8529C187.596 61.9143 187.423 61.9938 187.288 62.0912L186.551 62.0022L186.945 58.8005H190.324V59.4993H187.605L187.377 61.4178H187.415C187.548 61.3119 187.716 61.224 187.917 61.1542C188.118 61.0843 188.328 61.0493 188.546 61.0493C188.944 61.0493 189.298 61.1446 189.61 61.3352C189.923 61.5237 190.169 61.782 190.347 62.1102C190.527 62.4384 190.617 62.8132 190.617 63.2346C190.617 63.6497 190.523 64.0202 190.337 64.3463C190.153 64.6703 189.899 64.9265 189.575 65.115C189.251 65.3013 188.882 65.3945 188.469 65.3945Z" fill="#233D48"/>
</g>
<g clip-path="url(#clip10_3_6182)">
<path d="M33.0029 88.3945C32.7361 88.3903 32.4693 88.3395 32.2025 88.242C31.9357 88.1446 31.6922 87.9805 31.472 87.7497C31.2517 87.5168 31.0749 87.2023 30.9415 86.8064C30.8081 86.4083 30.7414 85.9085 30.7414 85.3072C30.7414 84.7312 30.7954 84.2209 30.9034 83.7762C31.0114 83.3294 31.1681 82.9535 31.3735 82.6486C31.5789 82.3416 31.8266 82.1086 32.1167 81.9498C32.409 81.791 32.7382 81.7116 33.1046 81.7116C33.4688 81.7116 33.7928 81.7846 34.0765 81.9307C34.3624 82.0747 34.5953 82.2759 34.7753 82.5342C34.9553 82.7926 35.0718 83.0901 35.1247 83.4268H34.3497C34.2777 83.1346 34.1379 82.8921 33.9304 82.6994C33.7229 82.5067 33.4476 82.4104 33.1046 82.4104C32.6006 82.4104 32.2036 82.6295 31.9135 83.0679C31.6255 83.5062 31.4804 84.1213 31.4783 84.9133H31.5291C31.6477 84.7333 31.7885 84.5798 31.9516 84.4527C32.1167 84.3236 32.2989 84.224 32.4979 84.1542C32.6969 84.0843 32.9076 84.0493 33.13 84.0493C33.5027 84.0493 33.8436 84.1425 34.1528 84.3289C34.4619 84.5131 34.7097 84.7682 34.896 85.0943C35.0823 85.4183 35.1755 85.7899 35.1755 86.2092C35.1755 86.6115 35.0855 86.98 34.9055 87.3146C34.7255 87.647 34.4725 87.9117 34.1464 88.1086C33.8224 88.3035 33.4413 88.3987 33.0029 88.3945ZM33.0029 87.6957C33.2697 87.6957 33.509 87.629 33.7208 87.4956C33.9346 87.3622 34.103 87.1833 34.2258 86.9588C34.3507 86.7344 34.4132 86.4845 34.4132 86.2092C34.4132 85.9403 34.3529 85.6957 34.2322 85.4755C34.1136 85.2532 33.9495 85.0763 33.7398 84.9451C33.5323 84.8138 33.2952 84.7481 33.0283 84.7481C32.8272 84.7481 32.6398 84.7884 32.4661 84.8688C32.2925 84.9472 32.14 85.0552 32.0088 85.1928C31.8796 85.3304 31.7779 85.4882 31.7038 85.6661C31.6297 85.8418 31.5927 86.0271 31.5927 86.2219C31.5927 86.4803 31.653 86.7217 31.7737 86.9461C31.8965 87.1706 32.0638 87.3516 32.2756 87.4893C32.4894 87.6269 32.7319 87.6957 33.0029 87.6957Z" fill="#233D48"/>
</g>
<g clip-path="url(#clip11_3_6182)">
<path d="M57.2028 88.3056L60.1123 82.5501V82.4993H56.7581V81.8005H60.9254V82.5374L58.0287 88.3056H57.2028Z" fill="#233D48"/>
</g>
<g clip-path="url(#clip12_3_6182)">
<path d="M84.8029 88.3945C84.3667 88.3945 83.9813 88.3172 83.6468 88.1626C83.3143 88.0059 83.0549 87.791 82.8686 87.5179C82.6822 87.2426 82.5901 86.9292 82.5922 86.5777C82.5901 86.3024 82.6441 86.0483 82.7542 85.8154C82.8644 85.5803 83.0147 85.3844 83.2053 85.2277C83.398 85.0689 83.6129 84.9683 83.8501 84.926V84.8879C83.5388 84.8074 83.291 84.6327 83.1068 84.3638C82.9226 84.0927 82.8315 83.7846 82.8336 83.4395C82.8315 83.1092 82.9152 82.8138 83.0846 82.5533C83.254 82.2928 83.4869 82.0874 83.7834 81.9371C84.0819 81.7868 84.4218 81.7116 84.8029 81.7116C85.1799 81.7116 85.5166 81.7868 85.813 81.9371C86.1095 82.0874 86.3424 82.2928 86.5118 82.5533C86.6833 82.8138 86.7701 83.1092 86.7723 83.4395C86.7701 83.7846 86.6759 84.0927 86.4896 84.3638C86.3053 84.6327 86.0608 84.8074 85.7558 84.8879V84.926C85.9909 84.9683 86.2026 85.0689 86.3911 85.2277C86.5796 85.3844 86.7299 85.5803 86.8421 85.8154C86.9544 86.0483 87.0115 86.3024 87.0137 86.5777C87.0115 86.9292 86.9162 87.2426 86.7278 87.5179C86.5414 87.791 86.282 88.0059 85.9496 88.1626C85.6193 88.3172 85.237 88.3945 84.8029 88.3945ZM84.8029 87.6957C85.0973 87.6957 85.3514 87.6481 85.5653 87.5528C85.7791 87.4575 85.9443 87.323 86.0608 87.1494C86.1772 86.9758 86.2365 86.7725 86.2386 86.5396C86.2365 86.2939 86.173 86.0769 86.0481 85.8884C85.9231 85.7 85.7527 85.5517 85.5367 85.4437C85.3228 85.3357 85.0782 85.2817 84.8029 85.2817C84.5256 85.2817 84.2778 85.3357 84.0597 85.4437C83.8437 85.5517 83.6732 85.7 83.5483 85.8884C83.4255 86.0769 83.3651 86.2939 83.3673 86.5396C83.3651 86.7725 83.4213 86.9758 83.5356 87.1494C83.6521 87.323 83.8183 87.4575 84.0343 87.5528C84.2503 87.6481 84.5065 87.6957 84.8029 87.6957ZM84.8029 84.6084C85.0359 84.6084 85.2423 84.5618 85.4223 84.4686C85.6044 84.3754 85.7474 84.2452 85.8511 84.0779C85.9549 83.9106 86.0078 83.7148 86.0099 83.4903C86.0078 83.2701 85.9559 83.0785 85.8543 82.9154C85.7527 82.7502 85.6118 82.6232 85.4319 82.5342C85.2519 82.4432 85.0422 82.3977 84.8029 82.3977C84.5594 82.3977 84.3466 82.4432 84.1645 82.5342C83.9824 82.6232 83.8416 82.7502 83.7421 82.9154C83.6425 83.0785 83.5938 83.2701 83.596 83.4903C83.5938 83.7148 83.6436 83.9106 83.7452 84.0779C83.849 84.2452 83.9919 84.3754 84.174 84.4686C84.3562 84.5618 84.5658 84.6084 84.8029 84.6084Z" fill="#233D48"/>
</g>
<g clip-path="url(#clip13_3_6182)">
<path d="M110.676 81.7116C110.943 81.7137 111.21 81.7645 111.476 81.864C111.743 81.9636 111.987 82.1287 112.207 82.3595C112.427 82.5882 112.604 82.9006 112.737 83.2966C112.871 83.6925 112.937 84.1891 112.937 84.7862C112.937 85.3643 112.882 85.8778 112.772 86.3267C112.664 86.7735 112.508 87.1505 112.302 87.4575C112.099 87.7645 111.851 87.9975 111.559 88.1563C111.269 88.3151 110.941 88.3945 110.574 88.3945C110.21 88.3945 109.885 88.3225 109.599 88.1785C109.315 88.0324 109.083 87.8302 108.9 87.5718C108.72 87.3114 108.605 87.0096 108.554 86.6666H109.329C109.399 86.9652 109.538 87.2119 109.745 87.4067C109.955 87.5994 110.231 87.6957 110.574 87.6957C111.076 87.6957 111.472 87.4766 111.762 87.0382C112.054 86.5999 112.201 85.9805 112.201 85.1801H112.15C112.031 85.358 111.89 85.5115 111.727 85.6407C111.564 85.7698 111.383 85.8694 111.184 85.9392C110.985 86.0091 110.773 86.0441 110.549 86.0441C110.176 86.0441 109.834 85.9519 109.523 85.7677C109.214 85.5814 108.966 85.3262 108.78 85.0022C108.595 84.6761 108.503 84.3034 108.503 83.8842C108.503 83.4861 108.592 83.1219 108.77 82.7915C108.95 82.4591 109.202 82.1944 109.526 81.9975C109.852 81.8005 110.236 81.7052 110.676 81.7116ZM110.676 82.4104C110.409 82.4104 110.169 82.4771 109.955 82.6105C109.743 82.7418 109.575 82.9196 109.45 83.1441C109.327 83.3664 109.266 83.6131 109.266 83.8842C109.266 84.1552 109.325 84.4019 109.444 84.6242C109.564 84.8445 109.728 85.0202 109.936 85.1515C110.146 85.2807 110.384 85.3453 110.651 85.3453C110.852 85.3453 111.039 85.3061 111.213 85.2277C111.386 85.1473 111.538 85.0382 111.667 84.9006C111.798 84.7608 111.901 84.6031 111.975 84.4273C112.049 84.2494 112.086 84.0642 112.086 83.8715C112.086 83.6174 112.025 83.3791 111.902 83.1568C111.781 82.9345 111.614 82.7545 111.4 82.6168C111.188 82.4792 110.947 82.4104 110.676 82.4104Z" fill="#233D48"/>
</g>
<g clip-path="url(#clip14_3_6182)">
<path d="M134.729 81.8005V88.3056H133.941V82.6264H133.903L132.315 83.6809V82.8805L133.941 81.8005H134.729ZM138.722 88.3945C138.243 88.3945 137.836 88.2643 137.499 88.0038C137.162 87.7413 136.905 87.3612 136.727 86.8635C136.549 86.3638 136.46 85.7603 136.46 85.053C136.46 84.35 136.549 83.7497 136.727 83.2521C136.907 82.7524 137.165 82.3712 137.502 82.1086C137.841 81.8439 138.247 81.7116 138.722 81.7116C139.196 81.7116 139.602 81.8439 139.938 82.1086C140.277 82.3712 140.535 82.7524 140.713 83.2521C140.893 83.7497 140.983 84.35 140.983 85.053C140.983 85.7603 140.894 86.3638 140.716 86.8635C140.539 87.3612 140.281 87.7413 139.945 88.0038C139.608 88.2643 139.2 88.3945 138.722 88.3945ZM138.722 87.6957C139.196 87.6957 139.564 87.467 139.827 87.0096C140.09 86.5523 140.221 85.9001 140.221 85.053C140.221 84.4898 140.161 84.0102 140.04 83.6142C139.921 83.2182 139.75 82.9165 139.525 82.7089C139.303 82.5014 139.035 82.3977 138.722 82.3977C138.252 82.3977 137.884 82.6295 137.62 83.0933C137.355 83.5549 137.222 84.2082 137.222 85.053C137.222 85.6163 137.282 86.0949 137.4 86.4887C137.519 86.8826 137.689 87.1822 137.912 87.3876C138.136 87.593 138.406 87.6957 138.722 87.6957Z" fill="#233D48"/>
</g>
<g clip-path="url(#clip15_3_6182)">
<path d="M161.366 81.8005V88.3056H160.579V82.6264H160.54L158.952 83.6809V82.8805L160.579 81.8005H161.366ZM165.524 81.8005V88.3056H164.736V82.6264H164.698L163.11 83.6809V82.8805L164.736 81.8005H165.524Z" fill="#233D48"/>
</g>
<g clip-path="url(#clip16_3_6182)">
<path d="M186.658 81.8005V88.3056H185.87V82.6264H185.832L184.244 83.6809V82.8805L185.87 81.8005H186.658ZM188.529 88.3056V87.7338L190.676 85.3834C190.928 85.1081 191.135 84.8688 191.298 84.6655C191.461 84.4601 191.582 84.2674 191.66 84.0875C191.741 83.9053 191.781 83.7148 191.781 83.5157C191.781 83.287 191.726 83.089 191.616 82.9218C191.508 82.7545 191.36 82.6253 191.171 82.5342C190.983 82.4432 190.771 82.3977 190.536 82.3977C190.286 82.3977 190.068 82.4495 189.882 82.5533C189.697 82.6549 189.555 82.7979 189.453 82.9821C189.353 83.1663 189.304 83.3823 189.304 83.6301H188.554C188.554 83.2489 188.642 82.9143 188.818 82.6264C188.993 82.3384 189.233 82.1139 189.535 81.953C189.84 81.7921 190.182 81.7116 190.561 81.7116C190.943 81.7116 191.28 81.7921 191.575 81.953C191.869 82.1139 192.1 82.331 192.267 82.6041C192.434 82.8773 192.518 83.1812 192.518 83.5157C192.518 83.755 192.475 83.989 192.388 84.2177C192.303 84.4443 192.155 84.6973 191.943 84.9768C191.733 85.2542 191.442 85.593 191.07 85.9932L189.609 87.556V87.6068H192.632V88.3056H188.529Z" fill="#233D48"/>
</g>
<g clip-path="url(#clip17_3_6182)">
<path d="M30.9943 104.801V111.306H30.2066V105.626H30.1685L28.5803 106.681V105.88L30.2066 104.801H30.9943ZM35.0632 111.395C34.6439 111.395 34.2701 111.323 33.9419 111.179C33.6158 111.035 33.3564 110.834 33.1637 110.578C32.9732 110.32 32.8694 110.02 32.8525 109.679H33.6529C33.6698 109.889 33.7418 110.07 33.8689 110.222C33.9959 110.373 34.1621 110.489 34.3675 110.572C34.5729 110.654 34.8006 110.696 35.0505 110.696C35.33 110.696 35.5777 110.647 35.7937 110.55C36.0097 110.452 36.1791 110.317 36.3019 110.143C36.4247 109.969 36.4861 109.768 36.4861 109.54C36.4861 109.3 36.4268 109.09 36.3083 108.907C36.1897 108.723 36.016 108.579 35.7874 108.475C35.5587 108.372 35.2791 108.32 34.9488 108.32H34.4279V107.621H34.9488C35.2071 107.621 35.4337 107.574 35.6285 107.481C35.8255 107.388 35.979 107.257 36.0891 107.087C36.2013 106.918 36.2574 106.719 36.2574 106.49C36.2574 106.27 36.2087 106.078 36.1113 105.915C36.0139 105.752 35.8763 105.625 35.6984 105.534C35.5227 105.443 35.3151 105.398 35.0759 105.398C34.8514 105.398 34.6397 105.439 34.4406 105.522C34.2437 105.602 34.0827 105.72 33.9578 105.874C33.8329 106.027 33.7651 106.211 33.7545 106.427H32.9922C33.0049 106.086 33.1076 105.787 33.3003 105.531C33.493 105.273 33.745 105.072 34.0563 104.928C34.3697 104.784 34.7138 104.712 35.0886 104.712C35.4909 104.712 35.8361 104.793 36.124 104.956C36.412 105.117 36.6333 105.33 36.7879 105.595C36.9425 105.859 37.0198 106.145 37.0198 106.452C37.0198 106.819 36.9234 107.131 36.7307 107.389C36.5401 107.648 36.2807 107.826 35.9525 107.926V107.977C36.3633 108.045 36.6841 108.219 36.9149 108.501C37.1457 108.78 37.2612 109.127 37.2612 109.54C37.2612 109.893 37.1648 110.211 36.9721 110.492C36.7815 110.772 36.5211 110.992 36.1907 111.153C35.8604 111.314 35.4845 111.395 35.0632 111.395Z" fill="#233D48"/>
</g>
<g clip-path="url(#clip18_3_6182)">
<path d="M56.8931 104.801V111.306H56.1054V105.626H56.0673L54.4792 106.681V105.88L56.1054 104.801H56.8931ZM58.6115 109.972V109.324L61.4702 104.801H61.9403V105.804H61.6226L59.4628 109.222V109.273H63.3124V109.972H58.6115ZM61.6735 111.306V109.775V109.473V104.801H62.4231V111.306H61.6735Z" fill="#233D48"/>
</g>
<g clip-path="url(#clip19_3_6182)">
<path d="M82.9623 104.801V111.306H82.1746V105.626H82.1364L80.5483 106.681V105.88L82.1746 104.801H82.9623ZM86.866 111.395C86.4933 111.395 86.1576 111.32 85.8591 111.172C85.5605 111.024 85.3212 110.821 85.1412 110.562C84.9612 110.304 84.8628 110.01 84.8458 109.679H85.6081C85.6378 109.974 85.7712 110.217 86.0084 110.41C86.2476 110.6 86.5335 110.696 86.866 110.696C87.1328 110.696 87.3699 110.633 87.5774 110.508C87.7871 110.383 87.9512 110.212 88.0698 109.994C88.1905 109.774 88.2508 109.525 88.2508 109.247C88.2508 108.964 88.1883 108.711 88.0634 108.488C87.9406 108.264 87.7712 108.087 87.5552 107.958C87.3392 107.829 87.0925 107.763 86.8151 107.761C86.6161 107.759 86.4117 107.789 86.2021 107.853C85.9925 107.914 85.8199 107.994 85.6844 108.091L84.9475 108.002L85.3413 104.801H88.7209V105.499H86.002L85.7733 107.418H85.8114C85.9448 107.312 86.1121 107.224 86.3133 107.154C86.5144 107.084 86.7241 107.049 86.9422 107.049C87.3403 107.049 87.695 107.145 88.0062 107.335C88.3196 107.524 88.5653 107.782 88.7431 108.11C88.9231 108.438 89.0131 108.813 89.0131 109.235C89.0131 109.65 88.92 110.02 88.7336 110.346C88.5494 110.67 88.2953 110.927 87.9713 111.115C87.6473 111.301 87.2789 111.395 86.866 111.395Z" fill="#233D48"/>
</g>
<g clip-path="url(#clip20_3_6182)">
<path d="M108.813 104.801V111.306H108.025V105.626H107.987L106.399 106.681V105.88L108.025 104.801H108.813ZM112.844 111.395C112.577 111.39 112.31 111.339 112.043 111.242C111.777 111.145 111.533 110.981 111.313 110.75C111.093 110.517 110.916 110.202 110.782 109.806C110.649 109.408 110.582 108.909 110.582 108.307C110.582 107.731 110.636 107.221 110.744 106.776C110.852 106.329 111.009 105.954 111.214 105.649C111.42 105.342 111.667 105.109 111.958 104.95C112.25 104.791 112.579 104.712 112.945 104.712C113.31 104.712 113.634 104.785 113.917 104.931C114.203 105.075 114.436 105.276 114.616 105.534C114.796 105.793 114.913 106.09 114.966 106.427H114.191C114.119 106.135 113.979 105.892 113.771 105.699C113.564 105.507 113.288 105.41 112.945 105.41C112.441 105.41 112.044 105.63 111.754 106.068C111.466 106.506 111.321 107.121 111.319 107.913H111.37C111.489 107.733 111.629 107.58 111.792 107.453C111.958 107.324 112.14 107.224 112.339 107.154C112.538 107.084 112.748 107.049 112.971 107.049C113.344 107.049 113.684 107.143 113.994 107.329C114.303 107.513 114.551 107.768 114.737 108.094C114.923 108.418 115.016 108.79 115.016 109.209C115.016 109.612 114.926 109.98 114.746 110.315C114.566 110.647 114.313 110.912 113.987 111.109C113.663 111.303 113.282 111.399 112.844 111.395ZM112.844 110.696C113.111 110.696 113.35 110.629 113.562 110.496C113.775 110.362 113.944 110.183 114.067 109.959C114.192 109.734 114.254 109.484 114.254 109.209C114.254 108.94 114.194 108.696 114.073 108.475C113.954 108.253 113.79 108.076 113.581 107.945C113.373 107.814 113.136 107.748 112.869 107.748C112.668 107.748 112.481 107.788 112.307 107.869C112.133 107.947 111.981 108.055 111.85 108.193C111.72 108.33 111.619 108.488 111.545 108.666C111.471 108.842 111.434 109.027 111.434 109.222C111.434 109.48 111.494 109.722 111.615 109.946C111.737 110.171 111.905 110.352 112.116 110.489C112.33 110.627 112.573 110.696 112.844 110.696Z" fill="#233D48"/>
</g>
<g clip-path="url(#clip21_3_6182)">
<path d="M124.321 102.056C124.321 99.2328 126.61 96.9445 129.432 96.9445H143.853C146.676 96.9445 148.964 99.2328 148.964 102.056V113.556C148.964 116.378 146.676 118.667 143.853 118.667H129.432C126.61 118.667 124.321 116.378 124.321 113.556V102.056Z" fill="#388523"/>
<path d="M134.969 104.801V111.306H134.182V105.626H134.143L132.555 106.681V105.88L134.182 104.801H134.969ZM137.043 111.306L139.953 105.55V105.499H136.599V104.801H140.766V105.537L137.869 111.306H137.043Z" fill="white"/>
</g>
<g clip-path="url(#clip22_3_6182)">
<path d="M160.689 104.801V111.306H159.902V105.626H159.863L158.275 106.681V105.88L159.902 104.801H160.689ZM164.644 111.395C164.208 111.395 163.822 111.317 163.488 111.163C163.155 111.006 162.896 110.791 162.709 110.518C162.523 110.243 162.431 109.929 162.433 109.578C162.431 109.302 162.485 109.048 162.595 108.815C162.705 108.58 162.856 108.384 163.046 108.228C163.239 108.069 163.454 107.968 163.691 107.926V107.888C163.38 107.807 163.132 107.633 162.948 107.364C162.763 107.093 162.672 106.785 162.674 106.439C162.672 106.109 162.756 105.814 162.925 105.553C163.095 105.293 163.328 105.087 163.624 104.937C163.923 104.787 164.263 104.712 164.644 104.712C165.021 104.712 165.357 104.787 165.654 104.937C165.95 105.087 166.183 105.293 166.353 105.553C166.524 105.814 166.611 106.109 166.613 106.439C166.611 106.785 166.517 107.093 166.33 107.364C166.146 107.633 165.902 107.807 165.597 107.888V107.926C165.832 107.968 166.043 108.069 166.232 108.228C166.42 108.384 166.571 108.58 166.683 108.815C166.795 109.048 166.852 109.302 166.854 109.578C166.852 109.929 166.757 110.243 166.569 110.518C166.382 110.791 166.123 111.006 165.79 111.163C165.46 111.317 165.078 111.395 164.644 111.395ZM164.644 110.696C164.938 110.696 165.192 110.648 165.406 110.553C165.62 110.458 165.785 110.323 165.902 110.149C166.018 109.976 166.077 109.772 166.079 109.54C166.077 109.294 166.014 109.077 165.889 108.888C165.764 108.7 165.594 108.552 165.378 108.444C165.164 108.336 164.919 108.282 164.644 108.282C164.366 108.282 164.119 108.336 163.901 108.444C163.685 108.552 163.514 108.7 163.389 108.888C163.266 109.077 163.206 109.294 163.208 109.54C163.206 109.772 163.262 109.976 163.376 110.149C163.493 110.323 163.659 110.458 163.875 110.553C164.091 110.648 164.347 110.696 164.644 110.696ZM164.644 107.608C164.877 107.608 165.083 107.562 165.263 107.469C165.445 107.375 165.588 107.245 165.692 107.078C165.796 106.911 165.849 106.715 165.851 106.49C165.849 106.27 165.797 106.078 165.695 105.915C165.594 105.75 165.453 105.623 165.273 105.534C165.093 105.443 164.883 105.398 164.644 105.398C164.4 105.398 164.187 105.443 164.005 105.534C163.823 105.623 163.682 105.75 163.583 105.915C163.483 106.078 163.435 106.27 163.437 106.49C163.435 106.715 163.484 106.911 163.586 107.078C163.69 107.245 163.833 107.375 164.015 107.469C164.197 107.562 164.407 107.608 164.644 107.608Z" fill="#233D48"/>
</g>
<g clip-path="url(#clip23_3_6182)">
<path d="M186.575 104.801V111.306H185.787V105.626H185.749L184.161 106.681V105.88L185.787 104.801H186.575ZM190.517 104.712C190.783 104.714 191.05 104.765 191.317 104.864C191.584 104.964 191.827 105.129 192.048 105.36C192.268 105.588 192.445 105.901 192.578 106.297C192.711 106.693 192.778 107.189 192.778 107.786C192.778 108.364 192.723 108.878 192.613 109.327C192.505 109.774 192.348 110.15 192.143 110.458C191.94 110.765 191.692 110.997 191.4 111.156C191.109 111.315 190.781 111.395 190.415 111.395C190.051 111.395 189.726 111.323 189.44 111.179C189.156 111.032 188.923 110.83 188.741 110.572C188.561 110.311 188.446 110.01 188.395 109.667H189.17C189.24 109.965 189.378 110.212 189.586 110.407C189.796 110.599 190.072 110.696 190.415 110.696C190.917 110.696 191.313 110.477 191.603 110.038C191.895 109.6 192.041 108.981 192.041 108.18H191.99C191.872 108.358 191.731 108.511 191.568 108.641C191.405 108.77 191.224 108.869 191.025 108.939C190.826 109.009 190.614 109.044 190.39 109.044C190.017 109.044 189.675 108.952 189.364 108.768C189.054 108.581 188.807 108.326 188.62 108.002C188.436 107.676 188.344 107.303 188.344 106.884C188.344 106.486 188.433 106.122 188.611 105.792C188.791 105.459 189.043 105.194 189.367 104.997C189.693 104.801 190.076 104.705 190.517 104.712ZM190.517 105.41C190.25 105.41 190.009 105.477 189.796 105.61C189.584 105.742 189.415 105.92 189.291 106.144C189.168 106.366 189.106 106.613 189.106 106.884C189.106 107.155 189.166 107.402 189.284 107.624C189.405 107.844 189.569 108.02 189.776 108.152C189.986 108.281 190.224 108.345 190.491 108.345C190.692 108.345 190.88 108.306 191.053 108.228C191.227 108.147 191.378 108.038 191.508 107.901C191.639 107.761 191.742 107.603 191.816 107.427C191.89 107.249 191.927 107.064 191.927 106.871C191.927 106.617 191.865 106.379 191.743 106.157C191.622 105.934 191.455 105.754 191.241 105.617C191.029 105.479 190.788 105.41 190.517 105.41Z" fill="#233D48"/>
</g>
</g>
<path d="M25.1111 1.43053H196.333C198.98 1.43053 201.125 3.57583 201.125 6.2222V160.194C201.125 162.841 198.98 164.986 196.333 164.986H25.1111C22.4648 164.986 20.3194 162.841 20.3194 160.194V6.22221C20.3194 3.57584 22.4647 1.43053 25.1111 1.43053Z" stroke="#DADFE2" stroke-width="0.638889"/>
</g>
</g>
<defs>
<filter id="filter0_dd_3_6182" x="12.3333" y="-4.00003" width="196.778" height="179.528" filterUnits="userSpaceOnUse" color-interpolation-filters="sRGB">
<feFlood flood-opacity="0" result="BackgroundImageFix"/>
<feColorMatrix in="SourceAlpha" type="matrix" values="0 0 0 0 0 0 0 0 0 0 0 0 0 0 0 0 0 0 127 0" result="hardAlpha"/>
<feOffset dy="2.55556"/>
<feGaussianBlur stdDeviation="3.83333"/>
<feColorMatrix type="matrix" values="0 0 0 0 0 0 0 0 0 0 0 0 0 0 0 0 0 0 0.05 0"/>
<feBlend mode="normal" in2="BackgroundImageFix" result="effect1_dropShadow_3_6182"/>
<feColorMatrix in="SourceAlpha" type="matrix" values="0 0 0 0 0 0 0 0 0 0 0 0 0 0 0 0 0 0 127 0" result="hardAlpha"/>
<feOffset dy="0.638889"/>
<feGaussianBlur stdDeviation="1.27778"/>
<feColorMatrix type="matrix" values="0 0 0 0 0 0 0 0 0 0 0 0 0 0 0 0 0 0 0.1 0"/>
<feBlend mode="normal" in2="effect1_dropShadow_3_6182" result="effect2_dropShadow_3_6182"/>
<feBlend mode="normal" in="SourceGraphic" in2="effect2_dropShadow_3_6182" result="shape"/>
</filter>
<clipPath id="clip0_3_6182">
<path d="M0 8C0 3.58172 3.58172 0 8 0H216C220.418 0 224 3.58172 224 8V109C224 113.418 220.418 117 216 117H8C3.58172 117 0 113.418 0 109V8Z" fill="white"/>
</clipPath>
<clipPath id="clip1_3_6182">
<path d="M20 6.22221C20 3.39942 22.2883 1.11108 25.1111 1.11108H196.333C199.156 1.11108 201.444 3.39941 201.444 6.2222V160.194C201.444 163.017 199.156 165.306 196.333 165.306H25.1111C22.2883 165.306 20 163.017 20 160.194V6.22221Z" fill="white"/>
</clipPath>
<clipPath id="clip2_3_6182">
<rect width="181.444" height="0.638889" fill="white" transform="translate(20 49.6667)"/>
</clipPath>
<clipPath id="clip3_3_6182">
<rect width="25.9206" height="23" fill="white" transform="translate(20 50.3055)"/>
</clipPath>
<clipPath id="clip4_3_6182">
<rect width="25.9206" height="23" fill="white" transform="translate(45.9207 50.3055)"/>
</clipPath>
<clipPath id="clip5_3_6182">
<rect width="25.9206" height="23" fill="white" transform="translate(71.8413 50.3055)"/>
</clipPath>
<clipPath id="clip6_3_6182">
<rect width="25.9206" height="23" fill="white" transform="translate(97.762 50.3055)"/>
</clipPath>
<clipPath id="clip7_3_6182">
<rect width="25.9206" height="23" fill="white" transform="translate(123.683 50.3055)"/>
</clipPath>
<clipPath id="clip8_3_6182">
<rect width="25.9206" height="23" fill="white" transform="translate(149.603 50.3055)"/>
</clipPath>
<clipPath id="clip9_3_6182">
<rect width="25.9206" height="23" fill="white" transform="translate(175.524 50.3055)"/>
</clipPath>
<clipPath id="clip10_3_6182">
<rect width="25.9206" height="23" fill="white" transform="translate(20 73.3055)"/>
</clipPath>
<clipPath id="clip11_3_6182">
<rect width="25.9206" height="23" fill="white" transform="translate(45.9207 73.3055)"/>
</clipPath>
<clipPath id="clip12_3_6182">
<rect width="25.9206" height="23" fill="white" transform="translate(71.8413 73.3055)"/>
</clipPath>
<clipPath id="clip13_3_6182">
<rect width="25.9206" height="23" fill="white" transform="translate(97.762 73.3055)"/>
</clipPath>
<clipPath id="clip14_3_6182">
<rect width="25.9206" height="23" fill="white" transform="translate(123.683 73.3055)"/>
</clipPath>
<clipPath id="clip15_3_6182">
<rect width="25.9206" height="23" fill="white" transform="translate(149.603 73.3055)"/>
</clipPath>
<clipPath id="clip16_3_6182">
<rect width="25.9206" height="23" fill="white" transform="translate(175.524 73.3055)"/>
</clipPath>
<clipPath id="clip17_3_6182">
<rect width="25.9206" height="23" fill="white" transform="translate(20 96.3055)"/>
</clipPath>
<clipPath id="clip18_3_6182">
<rect width="25.9206" height="23" fill="white" transform="translate(45.9207 96.3055)"/>
</clipPath>
<clipPath id="clip19_3_6182">
<rect width="25.9206" height="23" fill="white" transform="translate(71.8413 96.3055)"/>
</clipPath>
<clipPath id="clip20_3_6182">
<rect width="25.9206" height="23" fill="white" transform="translate(97.762 96.3055)"/>
</clipPath>
<clipPath id="clip21_3_6182">
<rect width="25.9206" height="23" fill="white" transform="translate(123.683 96.3055)"/>
</clipPath>
<clipPath id="clip22_3_6182">
<rect width="25.9206" height="23" fill="white" transform="translate(149.603 96.3055)"/>
</clipPath>
<clipPath id="clip23_3_6182">
<rect width="25.9206" height="23" fill="white" transform="translate(175.524 96.3055)"/>
</clipPath>
</defs>
</svg>
