<svg width="308" height="317" viewBox="0 0 308 317" fill="none" xmlns="http://www.w3.org/2000/svg">
<g clip-path="url(#clip0_1_40798)">
<path d="M12 8C12 3.58172 15.5817 0 20 0H44C48.4183 0 52 3.58172 52 8V32C52 36.4183 48.4183 40 44 40H20C15.5817 40 12 36.4183 12 32V8Z" fill="white"/>
<path d="M12 8C12 3.58172 15.5817 0 20 0H44C48.4183 0 52 3.58172 52 8V32C52 36.4183 48.4183 40 44 40H20C15.5817 40 12 36.4183 12 32V8Z" stroke="#DADFE2"/>
<path d="M35 12C35 11.4477 35.4477 11 36 11C36.5523 11 37 11.4477 37 12V13H39C40.1046 13 41 13.8954 41 15V27C41 28.1046 40.1046 29 39 29H25C23.8954 29 23 28.1046 23 27V15C23 13.8954 23.8954 13 25 13H27V12C27 11.4477 27.4477 11 28 11C28.5523 11 29 11.4477 29 12V13H35V12ZM25 15V17H39V15H25ZM39 19H25V27H39V19Z" fill="#233D48"/>
</g>
<g filter="url(#filter0_dd_1_40798)">
<g clip-path="url(#clip1_1_40798)">
<path d="M12 52C12 47.5817 15.5817 44 20 44H288C292.418 44 296 47.5817 296 52V293C296 297.418 292.418 301 288 301H20C15.5817 301 12 297.418 12 293V52Z" fill="white"/>
<path d="M12 52C12 47.5817 15.5817 44 20 44H44C48.4183 44 52 47.5817 52 52V76C52 80.4183 48.4183 84 44 84H20C15.5817 84 12 80.4183 12 76V52Z" fill="white"/>
<path d="M12 52C12 47.5817 15.5817 44 20 44H44C48.4183 44 52 47.5817 52 52V76C52 80.4183 48.4183 84 44 84H20C15.5817 84 12 80.4183 12 76V52Z" stroke="#DADFE2"/>
<path d="M35.2086 67.7966C35.4033 67.9919 35.5005 68.2478 35.5 68.5035C35.4996 68.7584 35.4022 69.0132 35.2078 69.2076C35.0135 69.4021 34.7589 69.4995 34.5042 69.5C34.2483 69.5005 33.9923 69.403 33.7971 69.2076L28.7929 64.2076C28.5976 64.0122 28.5 63.7561 28.5 63.5C28.5 63.2439 28.5976 62.9878 28.7929 62.7924L33.7928 57.7924C33.9881 57.597 34.2441 57.4995 34.5 57.5C34.7547 57.5005 35.0093 57.5979 35.2036 57.7924C35.3979 57.9868 35.4953 58.2416 35.4958 58.4965C35.4962 58.7522 35.3991 59.0081 35.2044 59.2034L30.9158 63.5L35.2086 67.7966Z" fill="#388523"/>
<path d="M116.452 68.204L120.116 60.3H122.148V71.5H119.94V65.036L116.932 71.5H115.796L112.82 65.1V71.5H110.612V60.3H112.788L116.452 68.204ZM127.961 71.708C125.705 71.708 123.785 69.74 123.785 67.42C123.785 65.1 125.705 63.132 127.961 63.132C130.217 63.132 132.137 65.1 132.137 67.42C132.137 69.74 130.217 71.708 127.961 71.708ZM127.961 69.692C129.097 69.692 129.961 68.748 129.961 67.42C129.961 66.092 129.097 65.148 127.961 65.148C126.825 65.148 125.961 66.092 125.961 67.42C125.961 68.748 126.825 69.692 127.961 69.692ZM135.768 71.5H133.592V63.34H135.224L135.576 64.14H135.656C135.848 63.9 136.68 63.132 137.88 63.132C139.848 63.132 141.176 64.54 141.176 66.684V71.5H139V66.876C139 65.916 138.312 65.148 137.384 65.148C136.44 65.148 135.768 65.916 135.768 66.876V71.5ZM146.139 71.708C144.539 71.708 143.387 70.604 143.387 68.732V65.276H142.123V63.5H142.683C143.307 63.5 143.659 63.148 143.659 62.54V61.292H145.563V63.34H147.243V65.276H145.563V68.508C145.563 69.292 145.995 69.66 146.683 69.66C146.891 69.66 147.083 69.628 147.243 69.548V71.532C147.019 71.612 146.635 71.708 146.139 71.708ZM151.005 71.5H148.829V60.3H151.005V64.14H151.085C151.261 63.884 152.109 63.132 153.293 63.132C155.085 63.132 156.413 64.54 156.413 66.684V71.5H154.237V66.876C154.237 65.916 153.549 65.148 152.621 65.148C151.677 65.148 151.005 65.916 151.005 66.876V71.5ZM165.572 64.892L167.86 60.3H170.324L166.676 67.324V71.5H164.388V67.324L160.74 60.3H163.284L165.572 64.892ZM174.994 64.892L177.282 60.3H179.746L176.098 67.324V71.5H173.81V67.324L170.162 60.3H172.706L174.994 64.892ZM184.416 64.892L186.704 60.3H189.168L185.52 67.324V71.5H183.232V67.324L179.584 60.3H182.128L184.416 64.892ZM193.838 64.892L196.126 60.3H198.59L194.942 67.324V71.5H192.654V67.324L189.006 60.3H191.55L193.838 64.892Z" fill="#032B3A"/>
<path d="M256 52C256 47.5817 259.582 44 264 44H288C292.418 44 296 47.5817 296 52V76C296 80.4183 292.418 84 288 84H264C259.582 84 256 80.4183 256 76V52Z" fill="white"/>
<path d="M256 52C256 47.5817 259.582 44 264 44H288C292.418 44 296 47.5817 296 52V76C296 80.4183 292.418 84 288 84H264C259.582 84 256 80.4183 256 76V52Z" stroke="#DADFE2"/>
<path d="M272.791 67.7966C272.597 67.9919 272.5 68.2478 272.5 68.5035C272.5 68.7584 272.598 69.0132 272.792 69.2076C272.987 69.4021 273.241 69.4995 273.496 69.5C273.752 69.5005 274.008 69.403 274.203 69.2076L279.207 64.2076C279.402 64.0122 279.5 63.7561 279.5 63.5C279.5 63.2439 279.402 62.9878 279.207 62.7924L274.207 57.7924C274.012 57.597 273.756 57.4996 273.5 57.5C273.245 57.5005 272.991 57.5979 272.796 57.7924C272.602 57.9869 272.505 58.2416 272.504 58.4965C272.504 58.7522 272.601 59.0081 272.796 59.2034L277.084 63.5L272.791 67.7966Z" fill="#388523"/>
<path d="M24.6603 100.455C24.6092 100.023 24.4018 99.6875 24.0382 99.4489C23.6745 99.2102 23.2285 99.0909 22.7001 99.0909C22.3137 99.0909 21.9757 99.1534 21.6859 99.2784C21.399 99.4034 21.1745 99.5753 21.0126 99.794C20.8535 100.013 20.774 100.261 20.774 100.54C20.774 100.773 20.8294 100.973 20.9402 101.141C21.0538 101.305 21.1987 101.443 21.3748 101.554C21.551 101.662 21.7356 101.751 21.9288 101.822C22.122 101.891 22.2995 101.946 22.4615 101.989L23.3478 102.227C23.5751 102.287 23.8279 102.369 24.1064 102.474C24.3876 102.58 24.6561 102.723 24.9118 102.905C25.1703 103.084 25.3833 103.314 25.551 103.595C25.7186 103.876 25.8024 104.222 25.8024 104.631C25.8024 105.102 25.6788 105.528 25.4316 105.909C25.1873 106.29 24.8294 106.592 24.3578 106.817C23.889 107.041 23.3194 107.153 22.649 107.153C22.024 107.153 21.4828 107.053 21.0254 106.851C20.5708 106.649 20.2129 106.368 19.9515 106.007C19.693 105.646 19.5467 105.227 19.5126 104.75H20.6035C20.6319 105.08 20.7427 105.352 20.9359 105.568C21.1319 105.781 21.3791 105.94 21.6774 106.045C21.9785 106.148 22.3024 106.199 22.649 106.199C23.0524 106.199 23.4146 106.134 23.7356 106.003C24.0566 105.869 24.3109 105.685 24.4984 105.449C24.6859 105.21 24.7796 104.932 24.7796 104.614C24.7796 104.324 24.6987 104.088 24.5368 103.906C24.3748 103.724 24.1617 103.577 23.8975 103.463C23.6333 103.349 23.3478 103.25 23.041 103.165L21.9671 102.858C21.2853 102.662 20.7456 102.382 20.3478 102.018C19.9501 101.655 19.7512 101.179 19.7512 100.591C19.7512 100.102 19.8833 99.6761 20.1475 99.3125C20.4146 98.946 20.7725 98.6619 21.2214 98.4602C21.6731 98.2557 22.1774 98.1534 22.7342 98.1534C23.2967 98.1534 23.7967 98.2543 24.2342 98.456C24.6717 98.6548 25.0183 98.9276 25.274 99.2741C25.5325 99.6207 25.6689 100.014 25.6831 100.455H24.6603ZM33.2672 98.2727H34.324V104.051C34.324 104.648 34.1834 105.18 33.9022 105.649C33.6238 106.115 33.2303 106.483 32.7218 106.753C32.2132 107.02 31.6167 107.153 30.932 107.153C30.2473 107.153 29.6507 107.02 29.1422 106.753C28.6337 106.483 28.2388 106.115 27.9576 105.649C27.6792 105.18 27.5399 104.648 27.5399 104.051V98.2727H28.5968V103.966C28.5968 104.392 28.6905 104.771 28.878 105.104C29.0655 105.433 29.3326 105.693 29.6792 105.884C30.0286 106.071 30.4462 106.165 30.932 106.165C31.4178 106.165 31.8354 106.071 32.1848 105.884C32.5343 105.693 32.8013 105.433 32.986 105.104C33.1735 104.771 33.2672 104.392 33.2672 103.966V98.2727ZM43.3549 98.2727V107H42.3322L37.5765 100.148H37.4913V107H36.4345V98.2727H37.4572L42.2299 105.142H42.3152V98.2727H43.3549Z" fill="#233D48"/>
<path d="M58.9898 98.2727H60.2512L63.2171 105.517H63.3194L66.2853 98.2727H67.5467V107H66.558V100.369H66.4728L63.7455 107H62.791L60.0637 100.369H59.9785V107H58.9898V98.2727ZM77.0293 102.636C77.0293 103.557 76.8631 104.352 76.5307 105.023C76.1983 105.693 75.7423 106.21 75.1628 106.574C74.5832 106.938 73.9213 107.119 73.177 107.119C72.4327 107.119 71.7707 106.938 71.1912 106.574C70.6117 106.21 70.1557 105.693 69.8233 105.023C69.4909 104.352 69.3247 103.557 69.3247 102.636C69.3247 101.716 69.4909 100.92 69.8233 100.25C70.1557 99.5795 70.6117 99.0625 71.1912 98.6989C71.7707 98.3352 72.4327 98.1534 73.177 98.1534C73.9213 98.1534 74.5832 98.3352 75.1628 98.6989C75.7423 99.0625 76.1983 99.5795 76.5307 100.25C76.8631 100.92 77.0293 101.716 77.0293 102.636ZM76.0065 102.636C76.0065 101.881 75.8801 101.243 75.6273 100.723C75.3773 100.203 75.0378 99.8097 74.6088 99.5426C74.1827 99.2756 73.7054 99.142 73.177 99.142C72.6486 99.142 72.1699 99.2756 71.7409 99.5426C71.3148 99.8097 70.9753 100.203 70.7224 100.723C70.4724 101.243 70.3474 101.881 70.3474 102.636C70.3474 103.392 70.4724 104.03 70.7224 104.55C70.9753 105.07 71.3148 105.463 71.7409 105.73C72.1699 105.997 72.6486 106.131 73.177 106.131C73.7054 106.131 74.1827 105.997 74.6088 105.73C75.0378 105.463 75.3773 105.07 75.6273 104.55C75.8801 104.03 76.0065 103.392 76.0065 102.636ZM85.7267 98.2727V107H84.704L79.9483 100.148H79.8631V107H78.8063V98.2727H79.829L84.6017 105.142H84.6869V98.2727H85.7267Z" fill="#233D48"/>
<path d="M101.796 99.2102V98.2727H108.342V99.2102H105.597V107H104.541V99.2102H101.796ZM115.7 98.2727H116.757V104.051C116.757 104.648 116.616 105.18 116.335 105.649C116.057 106.115 115.663 106.483 115.155 106.753C114.646 107.02 114.05 107.153 113.365 107.153C112.68 107.153 112.084 107.02 111.575 106.753C111.067 106.483 110.672 106.115 110.39 105.649C110.112 105.18 109.973 104.648 109.973 104.051V98.2727H111.03V103.966C111.03 104.392 111.123 104.771 111.311 105.104C111.498 105.433 111.765 105.693 112.112 105.884C112.461 106.071 112.879 106.165 113.365 106.165C113.851 106.165 114.268 106.071 114.618 105.884C114.967 105.693 115.234 105.433 115.419 105.104C115.606 104.771 115.7 104.392 115.7 103.966V98.2727ZM118.867 107V98.2727H124.134V99.2102H119.924V102.159H123.862V103.097H119.924V106.062H124.203V107H118.867Z" fill="#233D48"/>
<path d="M142.891 107L140.504 98.2727H141.578L143.402 105.381H143.487L145.345 98.2727H146.538L148.396 105.381H148.482L150.306 98.2727H151.379L148.993 107H147.902L145.976 100.045H145.908L143.982 107H142.891ZM152.696 107V98.2727H157.963V99.2102H153.753V102.159H157.69V103.097H153.753V106.062H158.031V107H152.696ZM162.561 107H159.868V98.2727H162.681C163.527 98.2727 164.252 98.4474 164.854 98.7969C165.456 99.1435 165.918 99.642 166.239 100.293C166.56 100.94 166.72 101.716 166.72 102.619C166.72 103.528 166.558 104.311 166.234 104.967C165.911 105.621 165.439 106.124 164.82 106.476C164.2 106.825 163.448 107 162.561 107ZM160.925 106.062H162.493C163.215 106.062 163.813 105.923 164.287 105.645C164.761 105.366 165.115 104.97 165.348 104.456C165.581 103.942 165.698 103.33 165.698 102.619C165.698 101.915 165.583 101.308 165.352 100.8C165.122 100.288 164.779 99.8963 164.321 99.6236C163.864 99.348 163.294 99.2102 162.612 99.2102H160.925V106.062Z" fill="#233D48"/>
<path d="M182.418 99.2102V98.2727H188.964V99.2102H186.22V107H185.163V99.2102H182.418ZM190.595 107V98.2727H191.652V102.159H196.305V98.2727H197.362V107H196.305V103.097H191.652V107H190.595ZM205.205 98.2727H206.262V104.051C206.262 104.648 206.121 105.18 205.84 105.649C205.562 106.115 205.168 106.483 204.66 106.753C204.151 107.02 203.554 107.153 202.87 107.153C202.185 107.153 201.588 107.02 201.08 106.753C200.571 106.483 200.177 106.115 199.895 105.649C199.617 105.18 199.478 104.648 199.478 104.051V98.2727H200.535V103.966C200.535 104.392 200.628 104.771 200.816 105.104C201.003 105.433 201.27 105.693 201.617 105.884C201.966 106.071 202.384 106.165 202.87 106.165C203.356 106.165 203.773 106.071 204.123 105.884C204.472 105.693 204.739 105.433 204.924 105.104C205.111 104.771 205.205 104.392 205.205 103.966V98.2727Z" fill="#233D48"/>
<path d="M226.93 107V98.2727H232.163V99.2102H227.987V102.159H231.771V103.097H227.987V107H226.93ZM233.973 107V98.2727H236.922C237.604 98.2727 238.164 98.3892 238.601 98.6222C239.039 98.8523 239.362 99.169 239.573 99.5724C239.783 99.9759 239.888 100.435 239.888 100.949C239.888 101.463 239.783 101.919 239.573 102.317C239.362 102.714 239.04 103.027 238.605 103.254C238.171 103.479 237.615 103.591 236.939 103.591H234.553V102.636H236.905C237.371 102.636 237.746 102.568 238.03 102.432C238.317 102.295 238.524 102.102 238.652 101.852C238.783 101.599 238.848 101.298 238.848 100.949C238.848 100.599 238.783 100.294 238.652 100.033C238.522 99.7713 238.313 99.5696 238.026 99.4276C237.739 99.2827 237.36 99.2102 236.888 99.2102H235.03V107H233.973ZM238.081 103.08L240.229 107H239.002L236.888 103.08H238.081ZM242.706 98.2727V107H241.649V98.2727H242.706Z" fill="#233D48"/>
<path d="M270.169 100.455C270.118 100.023 269.911 99.6875 269.547 99.4489C269.183 99.2102 268.737 99.0909 268.209 99.0909C267.823 99.0909 267.485 99.1534 267.195 99.2784C266.908 99.4034 266.683 99.5753 266.522 99.794C266.362 100.013 266.283 100.261 266.283 100.54C266.283 100.773 266.338 100.973 266.449 101.141C266.563 101.305 266.708 101.443 266.884 101.554C267.06 101.662 267.245 101.751 267.438 101.822C267.631 101.891 267.808 101.946 267.97 101.989L268.857 102.227C269.084 102.287 269.337 102.369 269.615 102.474C269.897 102.58 270.165 102.723 270.421 102.905C270.679 103.084 270.892 103.314 271.06 103.595C271.228 103.876 271.311 104.222 271.311 104.631C271.311 105.102 271.188 105.528 270.941 105.909C270.696 106.29 270.338 106.592 269.867 106.817C269.398 107.041 268.828 107.153 268.158 107.153C267.533 107.153 266.992 107.053 266.534 106.851C266.08 106.649 265.722 106.368 265.46 106.007C265.202 105.646 265.056 105.227 265.022 104.75H266.112C266.141 105.08 266.252 105.352 266.445 105.568C266.641 105.781 266.888 105.94 267.186 106.045C267.487 106.148 267.811 106.199 268.158 106.199C268.561 106.199 268.924 106.134 269.245 106.003C269.566 105.869 269.82 105.685 270.007 105.449C270.195 105.21 270.289 104.932 270.289 104.614C270.289 104.324 270.208 104.088 270.046 103.906C269.884 103.724 269.671 103.577 269.407 103.463C269.142 103.349 268.857 103.25 268.55 103.165L267.476 102.858C266.794 102.662 266.255 102.382 265.857 102.018C265.459 101.655 265.26 101.179 265.26 100.591C265.26 100.102 265.392 99.6761 265.657 99.3125C265.924 98.946 266.282 98.6619 266.73 98.4602C267.182 98.2557 267.686 98.1534 268.243 98.1534C268.806 98.1534 269.306 98.2543 269.743 98.456C270.181 98.6548 270.527 98.9276 270.783 99.2741C271.041 99.6207 271.178 100.014 271.192 100.455H270.169ZM273.407 107H272.299L275.503 98.2727H276.594L279.799 107H278.691L276.083 99.6534H276.015L273.407 107ZM273.816 103.591H278.282V104.528H273.816V103.591ZM279.661 99.2102V98.2727H286.207V99.2102H283.463V107H282.406V99.2102H279.661Z" fill="#233D48"/>
<g clip-path="url(#clip2_1_40798)">
<rect x="12" y="120" width="284" height="1" fill="#DADFE2"/>
</g>
<rect width="40.5714" height="36" transform="translate(12 121)" fill="#F1F0E9"/>
<rect x="13" y="122" width="38.5714" height="34" rx="2" fill="#F1F0E9"/>
<path d="M24.7332 144V143.105L28.094 139.426C28.4884 138.995 28.8132 138.621 29.0684 138.303C29.3236 137.981 29.5125 137.679 29.6352 137.398C29.7611 137.113 29.8241 136.814 29.8241 136.503C29.8241 136.145 29.7379 135.835 29.5656 135.573C29.3965 135.311 29.1645 135.109 28.8695 134.967C28.5746 134.824 28.2431 134.753 27.8752 134.753C27.4841 134.753 27.1427 134.834 26.8511 134.996C26.5627 135.156 26.339 135.379 26.1799 135.668C26.0241 135.956 25.9462 136.294 25.9462 136.682H24.7729C24.7729 136.085 24.9105 135.562 25.1856 135.111C25.4607 134.66 25.8352 134.309 26.3092 134.057C26.7864 133.805 27.3217 133.679 27.915 133.679C28.5116 133.679 29.0402 133.805 29.5009 134.057C29.9616 134.309 30.3229 134.648 30.5847 135.076C30.8466 135.504 30.9775 135.979 30.9775 136.503C30.9775 136.877 30.9095 137.244 30.7737 137.602C30.6411 137.956 30.4091 138.352 30.0776 138.79C29.7495 139.224 29.2938 139.754 28.7104 140.381L26.4235 142.827V142.906H31.1565V144H24.7332ZM36.4512 133.679C36.8688 133.682 37.2864 133.762 37.7041 133.918C38.1217 134.073 38.5028 134.332 38.8475 134.693C39.1922 135.051 39.469 135.54 39.6778 136.16C39.8866 136.78 39.991 137.557 39.991 138.491C39.991 139.396 39.9048 140.2 39.7325 140.903C39.5634 141.602 39.3182 142.192 38.9967 142.673C38.6785 143.153 38.2907 143.518 37.8333 143.766C37.3792 144.015 36.8655 144.139 36.2921 144.139C35.722 144.139 35.2133 144.027 34.7658 143.801C34.3217 143.572 33.9571 143.256 33.6721 142.852C33.3904 142.444 33.2097 141.972 33.1302 141.435H34.3433C34.4526 141.902 34.6697 142.288 34.9945 142.593C35.3227 142.895 35.7552 143.045 36.2921 143.045C37.0776 143.045 37.6974 142.702 38.1515 142.016C38.6089 141.33 38.8376 140.361 38.8376 139.108H38.758C38.5724 139.386 38.352 139.627 38.0968 139.829C37.8416 140.031 37.5582 140.187 37.2467 140.296C36.9351 140.406 36.6037 140.46 36.2524 140.46C35.669 140.46 35.1337 140.316 34.6465 140.028C34.1626 139.736 33.7748 139.337 33.4832 138.83C33.1948 138.319 33.0506 137.736 33.0506 137.08C33.0506 136.456 33.1899 135.886 33.4683 135.369C33.75 134.849 34.1444 134.435 34.6515 134.126C35.1619 133.818 35.7618 133.669 36.4512 133.679ZM36.4512 134.773C36.0336 134.773 35.6574 134.877 35.3227 135.086C34.9912 135.291 34.7277 135.57 34.5322 135.921C34.3399 136.269 34.2438 136.655 34.2438 137.08C34.2438 137.504 34.3366 137.89 34.5222 138.238C34.7112 138.583 34.968 138.858 35.2928 139.063C35.621 139.265 35.9938 139.366 36.4114 139.366C36.7263 139.366 37.0196 139.305 37.2914 139.183C37.5632 139.057 37.8002 138.886 38.0024 138.67C38.2078 138.452 38.3686 138.205 38.4846 137.93C38.6006 137.651 38.6586 137.361 38.6586 137.06C38.6586 136.662 38.5625 136.289 38.3703 135.941C38.1813 135.593 37.9195 135.311 37.5847 135.096C37.2533 134.88 36.8755 134.773 36.4512 134.773Z" fill="#233D48"/>
<rect width="40.5714" height="36" transform="translate(52.5715 121)" fill="#F1F0E9"/>
<rect x="53.5715" y="122" width="38.5714" height="34" rx="2" fill="#F1F0E9"/>
<path d="M68.5195 144.139C67.8632 144.139 67.2782 144.027 66.7645 143.801C66.2541 143.576 65.8481 143.263 65.5465 142.862C65.2482 142.457 65.0858 141.988 65.0592 141.455H66.3121C66.3386 141.783 66.4513 142.066 66.6501 142.305C66.849 142.54 67.1092 142.722 67.4307 142.852C67.7522 142.981 68.1085 143.045 68.4996 143.045C68.9371 143.045 69.3249 142.969 69.6629 142.817C70.001 142.664 70.2662 142.452 70.4584 142.18C70.6506 141.909 70.7467 141.594 70.7467 141.236C70.7467 140.861 70.6539 140.531 70.4683 140.246C70.2827 139.958 70.0109 139.733 69.653 139.57C69.295 139.408 68.8575 139.327 68.3405 139.327H67.5251V138.233H68.3405C68.7448 138.233 69.0995 138.16 69.4044 138.014C69.7126 137.868 69.9529 137.663 70.1253 137.398C70.301 137.133 70.3888 136.821 70.3888 136.463C70.3888 136.118 70.3126 135.818 70.1601 135.563C70.0076 135.308 69.7922 135.109 69.5138 134.967C69.2387 134.824 68.9139 134.753 68.5394 134.753C68.188 134.753 67.8566 134.817 67.545 134.947C67.2368 135.073 66.9849 135.257 66.7894 135.499C66.5938 135.737 66.4877 136.026 66.4712 136.364H65.278C65.2979 135.83 65.4586 135.363 65.7602 134.962C66.0618 134.557 66.4563 134.242 66.9435 134.017C67.434 133.792 67.9726 133.679 68.5592 133.679C69.189 133.679 69.7292 133.807 70.18 134.062C70.6307 134.314 70.9771 134.647 71.219 135.061C71.461 135.475 71.582 135.923 71.582 136.403C71.582 136.977 71.4312 137.466 71.1295 137.87C70.8313 138.274 70.4252 138.554 69.9115 138.71V138.79C70.5545 138.896 71.0566 139.169 71.4179 139.61C71.7792 140.048 71.9598 140.589 71.9598 141.236C71.9598 141.789 71.809 142.286 71.5074 142.727C71.2091 143.165 70.8014 143.509 70.2844 143.761C69.7673 144.013 69.179 144.139 68.5195 144.139ZM77.3142 144.139C76.5652 144.139 75.9271 143.935 75.4001 143.528C74.8732 143.117 74.4705 142.522 74.192 141.743C73.9136 140.961 73.7744 140.016 73.7744 138.909C73.7744 137.809 73.9136 136.869 74.192 136.09C74.4738 135.308 74.8781 134.711 75.4051 134.3C75.9354 133.886 76.5718 133.679 77.3142 133.679C78.0566 133.679 78.6913 133.886 79.2183 134.3C79.7486 134.711 80.153 135.308 80.4314 136.09C80.7131 136.869 80.854 137.809 80.854 138.909C80.854 140.016 80.7148 140.961 80.4364 141.743C80.158 142.522 79.7553 143.117 79.2283 143.528C78.7013 143.935 78.0633 144.139 77.3142 144.139ZM77.3142 143.045C78.0566 143.045 78.6333 142.687 79.0443 141.972C79.4553 141.256 79.6608 140.235 79.6608 138.909C79.6608 138.027 79.5663 137.277 79.3774 136.657C79.1918 136.037 78.9233 135.565 78.572 135.24C78.224 134.915 77.8047 134.753 77.3142 134.753C76.5784 134.753 76.0034 135.116 75.5891 135.842C75.1748 136.564 74.9676 137.587 74.9676 138.909C74.9676 139.791 75.0604 140.54 75.246 141.156C75.4316 141.773 75.6984 142.242 76.0465 142.563C76.3978 142.885 76.8204 143.045 77.3142 143.045Z" fill="#233D48"/>
<path d="M114.808 133.818V144H113.575V135.111H113.515L111.03 136.761V135.509L113.575 133.818H114.808Z" fill="#233D48"/>
<path d="M150.816 144V143.105L154.176 139.426C154.571 138.995 154.896 138.621 155.151 138.303C155.406 137.981 155.595 137.679 155.718 137.398C155.844 137.113 155.907 136.814 155.907 136.503C155.907 136.145 155.82 135.835 155.648 135.573C155.479 135.311 155.247 135.109 154.952 134.967C154.657 134.824 154.326 134.753 153.958 134.753C153.567 134.753 153.225 134.834 152.934 134.996C152.645 135.156 152.422 135.379 152.262 135.668C152.107 135.956 152.029 136.294 152.029 136.682H150.855C150.855 136.085 150.993 135.562 151.268 135.111C151.543 134.66 151.918 134.309 152.392 134.057C152.869 133.805 153.404 133.679 153.998 133.679C154.594 133.679 155.123 133.805 155.583 134.057C156.044 134.309 156.405 134.648 156.667 135.076C156.929 135.504 157.06 135.979 157.06 136.503C157.06 136.877 156.992 137.244 156.856 137.602C156.724 137.956 156.492 138.352 156.16 138.79C155.832 139.224 155.376 139.754 154.793 140.381L152.506 142.827V142.906H157.239V144H150.816Z" fill="#233D48"/>
<path d="M194.609 144.139C193.952 144.139 193.367 144.027 192.854 143.801C192.343 143.576 191.937 143.263 191.636 142.862C191.337 142.457 191.175 141.988 191.148 141.455H192.401C192.428 141.783 192.54 142.066 192.739 142.305C192.938 142.54 193.198 142.722 193.52 142.852C193.841 142.981 194.198 143.045 194.589 143.045C195.026 143.045 195.414 142.969 195.752 142.817C196.09 142.664 196.355 142.452 196.547 142.18C196.74 141.909 196.836 141.594 196.836 141.236C196.836 140.861 196.743 140.531 196.557 140.246C196.372 139.958 196.1 139.733 195.742 139.57C195.384 139.408 194.947 139.327 194.43 139.327H193.614V138.233H194.43C194.834 138.233 195.189 138.16 195.494 138.014C195.802 137.868 196.042 137.663 196.214 137.398C196.39 137.133 196.478 136.821 196.478 136.463C196.478 136.118 196.402 135.818 196.249 135.563C196.097 135.308 195.881 135.109 195.603 134.967C195.328 134.824 195.003 134.753 194.628 134.753C194.277 134.753 193.946 134.817 193.634 134.947C193.326 135.073 193.074 135.257 192.878 135.499C192.683 135.737 192.577 136.026 192.56 136.364H191.367C191.387 135.83 191.548 135.363 191.849 134.962C192.151 134.557 192.545 134.242 193.033 134.017C193.523 133.792 194.062 133.679 194.648 133.679C195.278 133.679 195.818 133.807 196.269 134.062C196.72 134.314 197.066 134.647 197.308 135.061C197.55 135.475 197.671 135.923 197.671 136.403C197.671 136.977 197.52 137.466 197.219 137.87C196.92 138.274 196.514 138.554 196.001 138.71V138.79C196.644 138.896 197.146 139.169 197.507 139.61C197.868 140.048 198.049 140.589 198.049 141.236C198.049 141.789 197.898 142.286 197.597 142.727C197.298 143.165 196.891 143.509 196.373 143.761C195.856 144.013 195.268 144.139 194.609 144.139Z" fill="#233D48"/>
<path d="M231.467 141.912V140.898L235.941 133.818H236.677V135.389H236.18L232.799 140.739V140.818H238.825V141.912H231.467ZM236.26 144V141.604V141.131V133.818H237.433V144H236.26Z" fill="#233D48"/>
<path d="M275.691 144.139C275.108 144.139 274.582 144.023 274.115 143.791C273.648 143.559 273.273 143.241 272.992 142.837C272.71 142.432 272.556 141.972 272.529 141.455H273.722C273.769 141.915 273.978 142.296 274.349 142.598C274.723 142.896 275.171 143.045 275.691 143.045C276.109 143.045 276.48 142.948 276.805 142.752C277.133 142.557 277.39 142.288 277.575 141.947C277.764 141.602 277.859 141.213 277.859 140.778C277.859 140.334 277.761 139.938 277.565 139.59C277.373 139.239 277.108 138.962 276.77 138.76C276.432 138.558 276.046 138.455 275.612 138.452C275.3 138.448 274.98 138.496 274.652 138.596C274.324 138.692 274.054 138.816 273.842 138.969L272.688 138.83L273.305 133.818H278.595V134.912H274.339L273.981 137.915H274.041C274.249 137.749 274.511 137.612 274.826 137.502C275.141 137.393 275.469 137.338 275.81 137.338C276.434 137.338 276.989 137.487 277.476 137.786C277.966 138.08 278.351 138.485 278.629 138.999C278.911 139.512 279.052 140.099 279.052 140.759C279.052 141.408 278.906 141.988 278.614 142.499C278.326 143.006 277.928 143.407 277.421 143.702C276.914 143.993 276.337 144.139 275.691 144.139Z" fill="#233D48"/>
<path d="M32.3521 180.139C31.9345 180.133 31.5169 180.053 31.0993 179.901C30.6817 179.748 30.3005 179.491 29.9558 179.13C29.6111 178.765 29.3344 178.273 29.1256 177.653C28.9168 177.03 28.8124 176.248 28.8124 175.307C28.8124 174.405 28.8969 173.607 29.0659 172.911C29.235 172.211 29.4802 171.623 29.8017 171.146C30.1232 170.665 30.511 170.3 30.9651 170.052C31.4225 169.803 31.9378 169.679 32.5112 169.679C33.0813 169.679 33.5884 169.793 34.0325 170.022C34.48 170.247 34.8446 170.562 35.1263 170.967C35.408 171.371 35.5903 171.837 35.6732 172.364H34.4601C34.3474 171.906 34.1287 171.527 33.8038 171.225C33.479 170.924 33.0482 170.773 32.5112 170.773C31.7224 170.773 31.101 171.116 30.6469 171.802C30.1961 172.488 29.9691 173.451 29.9658 174.69H30.0453C30.2309 174.409 30.4513 174.168 30.7065 173.969C30.9651 173.767 31.2501 173.612 31.5617 173.502C31.8732 173.393 32.203 173.338 32.551 173.338C33.1343 173.338 33.668 173.484 34.1519 173.776C34.6358 174.064 35.0235 174.463 35.3152 174.974C35.6069 175.481 35.7527 176.062 35.7527 176.719C35.7527 177.348 35.6118 177.925 35.3301 178.449C35.0484 178.969 34.6523 179.384 34.1419 179.692C33.6348 179.997 33.0382 180.146 32.3521 180.139ZM32.3521 179.045C32.7698 179.045 33.1443 178.941 33.4757 178.732C33.8105 178.523 34.074 178.243 34.2662 177.892C34.4618 177.541 34.5595 177.15 34.5595 176.719C34.5595 176.298 34.4651 175.915 34.2761 175.57C34.0905 175.222 33.8337 174.946 33.5055 174.74C33.1807 174.535 32.8095 174.432 32.3919 174.432C32.077 174.432 31.7837 174.495 31.5119 174.621C31.2402 174.743 31.0015 174.912 30.796 175.128C30.5939 175.343 30.4348 175.59 30.3188 175.869C30.2028 176.144 30.1448 176.434 30.1448 176.739C30.1448 177.143 30.2392 177.521 30.4281 177.872C30.6204 178.223 30.8822 178.507 31.2136 178.722C31.5484 178.938 31.9279 179.045 32.3521 179.045Z" fill="#233D48"/>
<path d="M70.2303 180L74.7843 170.991V170.912H69.5343V169.818H76.057V170.972L71.5229 180H70.2303Z" fill="#233D48"/>
<path d="M113.43 180.139C112.748 180.139 112.144 180.018 111.621 179.776C111.1 179.531 110.694 179.195 110.403 178.767C110.111 178.336 109.967 177.846 109.97 177.295C109.967 176.865 110.051 176.467 110.224 176.102C110.396 175.734 110.631 175.428 110.93 175.183C111.231 174.934 111.568 174.777 111.939 174.71V174.651C111.452 174.525 111.064 174.251 110.776 173.83C110.487 173.406 110.345 172.924 110.348 172.384C110.345 171.866 110.476 171.404 110.741 170.996C111.006 170.589 111.37 170.267 111.834 170.032C112.302 169.797 112.834 169.679 113.43 169.679C114.02 169.679 114.547 169.797 115.011 170.032C115.475 170.267 115.84 170.589 116.105 170.996C116.374 171.404 116.509 171.866 116.513 172.384C116.509 172.924 116.362 173.406 116.07 173.83C115.782 174.251 115.399 174.525 114.922 174.651V174.71C115.29 174.777 115.621 174.934 115.916 175.183C116.211 175.428 116.446 175.734 116.622 176.102C116.798 176.467 116.887 176.865 116.891 177.295C116.887 177.846 116.738 178.336 116.443 178.767C116.151 179.195 115.745 179.531 115.225 179.776C114.708 180.018 114.11 180.139 113.43 180.139ZM113.43 179.045C113.891 179.045 114.289 178.971 114.624 178.822C114.958 178.673 115.217 178.462 115.399 178.19C115.581 177.919 115.674 177.6 115.677 177.236C115.674 176.851 115.575 176.512 115.379 176.217C115.184 175.922 114.917 175.69 114.579 175.521C114.244 175.352 113.861 175.267 113.43 175.267C112.996 175.267 112.608 175.352 112.267 175.521C111.929 175.69 111.662 175.922 111.467 176.217C111.274 176.512 111.18 176.851 111.183 177.236C111.18 177.6 111.268 177.919 111.447 178.19C111.629 178.462 111.889 178.673 112.227 178.822C112.565 178.971 112.966 179.045 113.43 179.045ZM113.43 174.213C113.795 174.213 114.118 174.14 114.4 173.994C114.685 173.848 114.909 173.645 115.071 173.383C115.233 173.121 115.316 172.814 115.32 172.463C115.316 172.118 115.235 171.818 115.076 171.563C114.917 171.305 114.696 171.106 114.415 170.967C114.133 170.824 113.805 170.753 113.43 170.753C113.049 170.753 112.716 170.824 112.431 170.967C112.146 171.106 111.926 171.305 111.77 171.563C111.614 171.818 111.538 172.118 111.541 172.463C111.538 172.814 111.616 173.121 111.775 173.383C111.937 173.645 112.161 173.848 112.446 173.994C112.731 174.14 113.059 174.213 113.43 174.213Z" fill="#233D48"/>
<path d="M153.927 169.679C154.345 169.682 154.763 169.762 155.18 169.918C155.598 170.073 155.979 170.332 156.324 170.693C156.668 171.051 156.945 171.54 157.154 172.16C157.363 172.78 157.467 173.557 157.467 174.491C157.467 175.396 157.381 176.2 157.209 176.903C157.04 177.602 156.794 178.192 156.473 178.673C156.155 179.153 155.767 179.518 155.309 179.766C154.855 180.015 154.342 180.139 153.768 180.139C153.198 180.139 152.689 180.027 152.242 179.801C151.798 179.572 151.433 179.256 151.148 178.852C150.866 178.444 150.686 177.972 150.606 177.435H151.819C151.929 177.902 152.146 178.288 152.471 178.593C152.799 178.895 153.231 179.045 153.768 179.045C154.554 179.045 155.174 178.702 155.628 178.016C156.085 177.33 156.314 176.361 156.314 175.108H156.234C156.049 175.386 155.828 175.627 155.573 175.829C155.318 176.031 155.034 176.187 154.723 176.296C154.411 176.406 154.08 176.46 153.728 176.46C153.145 176.46 152.61 176.316 152.123 176.028C151.639 175.736 151.251 175.337 150.959 174.83C150.671 174.319 150.527 173.736 150.527 173.08C150.527 172.456 150.666 171.886 150.944 171.369C151.226 170.849 151.62 170.435 152.128 170.126C152.638 169.818 153.238 169.669 153.927 169.679ZM153.927 170.773C153.51 170.773 153.133 170.877 152.799 171.086C152.467 171.291 152.204 171.57 152.008 171.921C151.816 172.269 151.72 172.655 151.72 173.08C151.72 173.504 151.813 173.89 151.998 174.238C152.187 174.583 152.444 174.858 152.769 175.063C153.097 175.265 153.47 175.366 153.888 175.366C154.202 175.366 154.496 175.305 154.767 175.183C155.039 175.057 155.276 174.886 155.478 174.67C155.684 174.452 155.845 174.205 155.961 173.93C156.077 173.651 156.135 173.361 156.135 173.06C156.135 172.662 156.039 172.289 155.846 171.941C155.657 171.593 155.396 171.311 155.061 171.096C154.729 170.88 154.352 170.773 153.927 170.773Z" fill="#233D48"/>
<path d="M191.576 169.818V180H190.343V171.111H190.283L187.797 172.761V171.509L190.343 169.818H191.576ZM197.825 180.139C197.076 180.139 196.438 179.935 195.911 179.528C195.384 179.117 194.981 178.522 194.703 177.743C194.425 176.961 194.285 176.016 194.285 174.909C194.285 173.809 194.425 172.869 194.703 172.09C194.985 171.308 195.389 170.711 195.916 170.3C196.446 169.886 197.083 169.679 197.825 169.679C198.568 169.679 199.202 169.886 199.729 170.3C200.26 170.711 200.664 171.308 200.942 172.09C201.224 172.869 201.365 173.809 201.365 174.909C201.365 176.016 201.226 176.961 200.947 177.743C200.669 178.522 200.266 179.117 199.739 179.528C199.212 179.935 198.574 180.139 197.825 180.139ZM197.825 179.045C198.568 179.045 199.144 178.687 199.555 177.972C199.966 177.256 200.172 176.235 200.172 174.909C200.172 174.027 200.077 173.277 199.888 172.657C199.703 172.037 199.434 171.565 199.083 171.24C198.735 170.915 198.316 170.753 197.825 170.753C197.089 170.753 196.514 171.116 196.1 171.842C195.686 172.564 195.479 173.587 195.479 174.909C195.479 175.791 195.571 176.54 195.757 177.156C195.943 177.773 196.209 178.242 196.557 178.563C196.909 178.885 197.331 179.045 197.825 179.045Z" fill="#233D48"/>
<path d="M233.269 169.818V180H232.036V171.111H231.976L229.49 172.761V171.509L232.036 169.818H233.269ZM239.776 169.818V180H238.543V171.111H238.484L235.998 172.761V171.509L238.543 169.818H239.776Z" fill="#233D48"/>
<path d="M272.855 169.818V180H271.622V171.111H271.563L269.077 172.761V171.509L271.622 169.818H272.855ZM275.784 180V179.105L279.145 175.426C279.539 174.995 279.864 174.621 280.119 174.303C280.374 173.981 280.563 173.679 280.686 173.398C280.812 173.113 280.875 172.814 280.875 172.503C280.875 172.145 280.788 171.835 280.616 171.573C280.447 171.311 280.215 171.109 279.92 170.967C279.625 170.824 279.294 170.753 278.926 170.753C278.535 170.753 278.193 170.834 277.902 170.996C277.613 171.156 277.39 171.379 277.23 171.668C277.075 171.956 276.997 172.294 276.997 172.682H275.823C275.823 172.085 275.961 171.562 276.236 171.111C276.511 170.66 276.886 170.309 277.36 170.057C277.837 169.805 278.372 169.679 278.966 169.679C279.562 169.679 280.091 169.805 280.551 170.057C281.012 170.309 281.373 170.648 281.635 171.076C281.897 171.504 282.028 171.979 282.028 172.503C282.028 172.877 281.96 173.244 281.824 173.602C281.692 173.956 281.46 174.352 281.128 174.79C280.8 175.224 280.344 175.754 279.761 176.381L277.474 178.827V178.906H282.207V180H275.784Z" fill="#233D48"/>
<path d="M29.2082 205.818V216H27.9753V207.111H27.9156L25.4298 208.761V207.509L27.9753 205.818H29.2082ZM35.5768 216.139C34.9206 216.139 34.3356 216.027 33.8219 215.801C33.3114 215.576 32.9054 215.263 32.6038 214.862C32.3055 214.457 32.1431 213.988 32.1166 213.455H33.3695C33.396 213.783 33.5087 214.066 33.7075 214.305C33.9064 214.54 34.1666 214.722 34.4881 214.852C34.8096 214.981 35.1659 215.045 35.557 215.045C35.9945 215.045 36.3822 214.969 36.7203 214.817C37.0584 214.664 37.3235 214.452 37.5158 214.18C37.708 213.909 37.8041 213.594 37.8041 213.236C37.8041 212.861 37.7113 212.531 37.5257 212.246C37.3401 211.958 37.0683 211.733 36.7104 211.57C36.3524 211.408 35.9149 211.327 35.3979 211.327H34.5825V210.233H35.3979C35.8022 210.233 36.1569 210.16 36.4618 210.014C36.77 209.868 37.0103 209.663 37.1827 209.398C37.3583 209.133 37.4462 208.821 37.4462 208.463C37.4462 208.118 37.3699 207.818 37.2175 207.563C37.065 207.308 36.8496 207.109 36.5712 206.967C36.2961 206.824 35.9713 206.753 35.5967 206.753C35.2454 206.753 34.914 206.817 34.6024 206.947C34.2942 207.073 34.0423 207.257 33.8467 207.499C33.6512 207.737 33.5451 208.026 33.5285 208.364H32.3354C32.3552 207.83 32.516 207.363 32.8176 206.962C33.1192 206.557 33.5136 206.242 34.0008 206.017C34.4914 205.792 35.03 205.679 35.6166 205.679C36.2463 205.679 36.7866 205.807 37.2373 206.062C37.6881 206.314 38.0345 206.647 38.2764 207.061C38.5184 207.475 38.6393 207.923 38.6393 208.403C38.6393 208.977 38.4885 209.466 38.1869 209.87C37.8886 210.274 37.4826 210.554 36.9689 210.71V210.79C37.6119 210.896 38.114 211.169 38.4753 211.61C38.8365 212.048 39.0172 212.589 39.0172 213.236C39.0172 213.789 38.8664 214.286 38.5648 214.727C38.2665 215.165 37.8588 215.509 37.3418 215.761C36.8247 216.013 36.2364 216.139 35.5768 216.139Z" fill="#233D48"/>
<path d="M69.7456 205.818V216H68.5126V207.111H68.453L65.9672 208.761V207.509L68.5126 205.818H69.7456ZM72.4352 213.912V212.898L76.9096 205.818H77.6454V207.389H77.1483L73.7676 212.739V212.818H79.7932V213.912H72.4352ZM77.2278 216V213.604V213.131V205.818H78.4011V216H77.2278Z" fill="#233D48"/>
<path d="M110.549 205.818V216H109.316V207.111H109.257L106.771 208.761V207.509L109.316 205.818H110.549ZM116.659 216.139C116.076 216.139 115.551 216.023 115.083 215.791C114.616 215.559 114.242 215.241 113.96 214.837C113.678 214.432 113.524 213.972 113.497 213.455H114.691C114.737 213.915 114.946 214.296 115.317 214.598C115.692 214.896 116.139 215.045 116.659 215.045C117.077 215.045 117.448 214.948 117.773 214.752C118.101 214.557 118.358 214.288 118.544 213.947C118.733 213.602 118.827 213.213 118.827 212.778C118.827 212.334 118.729 211.938 118.534 211.59C118.341 211.239 118.076 210.962 117.738 210.76C117.4 210.558 117.014 210.455 116.58 210.452C116.268 210.448 115.948 210.496 115.62 210.596C115.292 210.692 115.022 210.816 114.81 210.969L113.657 210.83L114.273 205.818H119.563V206.912H115.307L114.949 209.915H115.009C115.218 209.749 115.479 209.612 115.794 209.502C116.109 209.393 116.437 209.338 116.779 209.338C117.402 209.338 117.957 209.487 118.444 209.786C118.935 210.08 119.319 210.485 119.598 210.999C119.879 211.512 120.02 212.099 120.02 212.759C120.02 213.408 119.874 213.988 119.583 214.499C119.294 215.006 118.897 215.407 118.389 215.702C117.882 215.993 117.306 216.139 116.659 216.139Z" fill="#233D48"/>
<path d="M151.011 205.818V216H149.778V207.111H149.719L147.233 208.761V207.509L149.778 205.818H151.011ZM157.32 216.139C156.903 216.133 156.485 216.053 156.068 215.901C155.65 215.748 155.269 215.491 154.924 215.13C154.579 214.765 154.303 214.273 154.094 213.653C153.885 213.03 153.781 212.248 153.781 211.307C153.781 210.405 153.865 209.607 154.034 208.911C154.203 208.211 154.448 207.623 154.77 207.146C155.091 206.665 155.479 206.3 155.933 206.052C156.391 205.803 156.906 205.679 157.479 205.679C158.05 205.679 158.557 205.793 159.001 206.022C159.448 206.247 159.813 206.562 160.095 206.967C160.376 207.371 160.559 207.837 160.641 208.364H159.428C159.316 207.906 159.097 207.527 158.772 207.225C158.447 206.924 158.016 206.773 157.479 206.773C156.691 206.773 156.069 207.116 155.615 207.802C155.164 208.488 154.937 209.451 154.934 210.69H155.014C155.199 210.409 155.42 210.168 155.675 209.969C155.933 209.767 156.218 209.612 156.53 209.502C156.841 209.393 157.171 209.338 157.519 209.338C158.103 209.338 158.636 209.484 159.12 209.776C159.604 210.064 159.992 210.463 160.283 210.974C160.575 211.481 160.721 212.062 160.721 212.719C160.721 213.348 160.58 213.925 160.298 214.449C160.017 214.969 159.621 215.384 159.11 215.692C158.603 215.997 158.006 216.146 157.32 216.139ZM157.32 215.045C157.738 215.045 158.113 214.941 158.444 214.732C158.779 214.523 159.042 214.243 159.234 213.892C159.43 213.541 159.528 213.15 159.528 212.719C159.528 212.298 159.433 211.915 159.244 211.57C159.059 211.222 158.802 210.946 158.474 210.74C158.149 210.535 157.778 210.432 157.36 210.432C157.045 210.432 156.752 210.495 156.48 210.621C156.208 210.743 155.97 210.912 155.764 211.128C155.562 211.343 155.403 211.59 155.287 211.869C155.171 212.144 155.113 212.434 155.113 212.739C155.113 213.143 155.207 213.521 155.396 213.872C155.589 214.223 155.85 214.507 156.182 214.722C156.517 214.938 156.896 215.045 157.32 215.045Z" fill="#233D48"/>
<path d="M175.286 202C175.286 197.582 178.867 194 183.286 194H205.857C210.275 194 213.857 197.582 213.857 202V220C213.857 224.418 210.275 228 205.857 228H183.286C178.867 228 175.286 224.418 175.286 220V202Z" fill="#388523"/>
<path d="M191.952 205.818V216H190.719V207.111H190.659L188.173 208.761V207.509L190.719 205.818H191.952ZM195.198 216L199.752 206.991V206.912H194.502V205.818H201.025V206.972L196.491 216H195.198Z" fill="white"/>
<path d="M232.209 205.818V216H230.976V207.111H230.916L228.431 208.761V207.509L230.976 205.818H232.209ZM238.399 216.139C237.716 216.139 237.113 216.018 236.589 215.776C236.069 215.531 235.663 215.195 235.371 214.767C235.079 214.336 234.935 213.846 234.938 213.295C234.935 212.865 235.02 212.467 235.192 212.102C235.364 211.734 235.6 211.428 235.898 211.183C236.199 210.934 236.536 210.777 236.907 210.71V210.651C236.42 210.525 236.032 210.251 235.744 209.83C235.455 209.406 235.313 208.924 235.316 208.384C235.313 207.866 235.444 207.404 235.709 206.996C235.974 206.589 236.339 206.267 236.803 206.032C237.27 205.797 237.802 205.679 238.399 205.679C238.989 205.679 239.516 205.797 239.98 206.032C240.444 206.267 240.808 206.589 241.073 206.996C241.342 207.404 241.478 207.866 241.481 208.384C241.478 208.924 241.33 209.406 241.039 209.83C240.75 210.251 240.367 210.525 239.89 210.651V210.71C240.258 210.777 240.589 210.934 240.884 211.183C241.179 211.428 241.415 211.734 241.59 212.102C241.766 212.467 241.856 212.865 241.859 213.295C241.856 213.846 241.706 214.336 241.411 214.767C241.12 215.195 240.714 215.531 240.193 215.776C239.676 216.018 239.078 216.139 238.399 216.139ZM238.399 215.045C238.859 215.045 239.257 214.971 239.592 214.822C239.927 214.673 240.185 214.462 240.367 214.19C240.55 213.919 240.642 213.6 240.646 213.236C240.642 212.851 240.543 212.512 240.347 212.217C240.152 211.922 239.885 211.69 239.547 211.521C239.212 211.352 238.829 211.267 238.399 211.267C237.964 211.267 237.577 211.352 237.235 211.521C236.897 211.69 236.63 211.922 236.435 212.217C236.243 212.512 236.148 212.851 236.151 213.236C236.148 213.6 236.236 213.919 236.415 214.19C236.597 214.462 236.857 214.673 237.195 214.822C237.534 214.971 237.935 215.045 238.399 215.045ZM238.399 210.213C238.763 210.213 239.086 210.14 239.368 209.994C239.653 209.848 239.877 209.645 240.039 209.383C240.202 209.121 240.284 208.814 240.288 208.463C240.284 208.118 240.203 207.818 240.044 207.563C239.885 207.305 239.665 207.106 239.383 206.967C239.101 206.824 238.773 206.753 238.399 206.753C238.017 206.753 237.684 206.824 237.399 206.967C237.114 207.106 236.894 207.305 236.738 207.563C236.582 207.818 236.506 208.118 236.509 208.463C236.506 208.814 236.584 209.121 236.743 209.383C236.905 209.645 237.129 209.848 237.414 209.994C237.699 210.14 238.027 210.213 238.399 210.213Z" fill="#233D48"/>
<path d="M272.726 205.818V216H271.493V207.111H271.433L268.947 208.761V207.509L271.493 205.818H272.726ZM278.895 205.679C279.313 205.682 279.731 205.762 280.148 205.918C280.566 206.073 280.947 206.332 281.292 206.693C281.636 207.051 281.913 207.54 282.122 208.16C282.331 208.78 282.435 209.557 282.435 210.491C282.435 211.396 282.349 212.2 282.177 212.903C282.008 213.602 281.762 214.192 281.441 214.673C281.123 215.153 280.735 215.518 280.277 215.766C279.823 216.015 279.31 216.139 278.736 216.139C278.166 216.139 277.657 216.027 277.21 215.801C276.766 215.572 276.401 215.256 276.116 214.852C275.834 214.444 275.654 213.972 275.574 213.435H276.787C276.897 213.902 277.114 214.288 277.439 214.593C277.767 214.895 278.199 215.045 278.736 215.045C279.522 215.045 280.142 214.702 280.596 214.016C281.053 213.33 281.282 212.361 281.282 211.108H281.202C281.017 211.386 280.796 211.627 280.541 211.829C280.286 212.031 280.002 212.187 279.691 212.296C279.379 212.406 279.048 212.46 278.696 212.46C278.113 212.46 277.578 212.316 277.091 212.028C276.607 211.736 276.219 211.337 275.927 210.83C275.639 210.319 275.495 209.736 275.495 209.08C275.495 208.456 275.634 207.886 275.912 207.369C276.194 206.849 276.588 206.435 277.096 206.126C277.606 205.818 278.206 205.669 278.895 205.679ZM278.895 206.773C278.478 206.773 278.102 206.877 277.767 207.086C277.435 207.291 277.172 207.57 276.976 207.921C276.784 208.269 276.688 208.655 276.688 209.08C276.688 209.504 276.781 209.89 276.966 210.238C277.155 210.583 277.412 210.858 277.737 211.063C278.065 211.265 278.438 211.366 278.856 211.366C279.17 211.366 279.464 211.305 279.736 211.183C280.007 211.057 280.244 210.886 280.446 210.67C280.652 210.452 280.813 210.205 280.929 209.93C281.045 209.651 281.103 209.361 281.103 209.06C281.103 208.662 281.007 208.289 280.814 207.941C280.625 207.593 280.364 207.311 280.029 207.096C279.697 206.88 279.32 206.773 278.895 206.773Z" fill="#233D48"/>
<path d="M24.7263 252V251.105L28.0871 247.426C28.4815 246.995 28.8064 246.621 29.0616 246.303C29.3168 245.981 29.5057 245.679 29.6283 245.398C29.7543 245.113 29.8172 244.814 29.8172 244.503C29.8172 244.145 29.7311 243.835 29.5587 243.573C29.3897 243.311 29.1577 243.109 28.8627 242.967C28.5677 242.824 28.2363 242.753 27.8684 242.753C27.4773 242.753 27.1359 242.834 26.8442 242.996C26.5559 243.156 26.3322 243.379 26.1731 243.668C26.0173 243.956 25.9394 244.294 25.9394 244.682H24.7661C24.7661 244.085 24.9037 243.562 25.1788 243.111C25.4539 242.66 25.8284 242.309 26.3023 242.057C26.7796 241.805 27.3149 241.679 27.9082 241.679C28.5047 241.679 29.0334 241.805 29.4941 242.057C29.9548 242.309 30.3161 242.648 30.5779 243.076C30.8397 243.504 30.9707 243.979 30.9707 244.503C30.9707 244.877 30.9027 245.244 30.7668 245.602C30.6342 245.956 30.4022 246.352 30.0708 246.79C29.7427 247.224 29.2869 247.754 28.7036 248.381L26.4167 250.827V250.906H31.1496V252H24.7263ZM36.5239 252.139C35.7749 252.139 35.1369 251.935 34.6099 251.528C34.0829 251.117 33.6802 250.522 33.4018 249.743C33.1234 248.961 32.9842 248.016 32.9842 246.909C32.9842 245.809 33.1234 244.869 33.4018 244.09C33.6835 243.308 34.0878 242.711 34.6148 242.3C35.1451 241.886 35.7815 241.679 36.5239 241.679C37.2664 241.679 37.9011 241.886 38.428 242.3C38.9583 242.711 39.3627 243.308 39.6411 244.09C39.9228 244.869 40.0637 245.809 40.0637 246.909C40.0637 248.016 39.9245 248.961 39.6461 249.743C39.3677 250.522 38.965 251.117 38.438 251.528C37.911 251.935 37.273 252.139 36.5239 252.139ZM36.5239 251.045C37.2664 251.045 37.8431 250.687 38.254 249.972C38.665 249.256 38.8705 248.235 38.8705 246.909C38.8705 246.027 38.7761 245.277 38.5871 244.657C38.4015 244.037 38.1331 243.565 37.7817 243.24C37.4337 242.915 37.0145 242.753 36.5239 242.753C35.7881 242.753 35.2131 243.116 34.7988 243.842C34.3845 244.564 34.1773 245.587 34.1773 246.909C34.1773 247.791 34.2701 248.54 34.4557 249.156C34.6414 249.773 34.9082 250.242 35.2562 250.563C35.6075 250.885 36.0301 251.045 36.5239 251.045Z" fill="#233D48"/>
<path d="M66.419 252V251.105L69.7798 247.426C70.1742 246.995 70.499 246.621 70.7542 246.303C71.0094 245.981 71.1983 245.679 71.321 245.398C71.4469 245.113 71.5099 244.814 71.5099 244.503C71.5099 244.145 71.4237 243.835 71.2514 243.573C71.0823 243.311 70.8503 243.109 70.5553 242.967C70.2604 242.824 69.9289 242.753 69.561 242.753C69.1699 242.753 68.8285 242.834 68.5369 242.996C68.2485 243.156 68.0248 243.379 67.8657 243.668C67.7099 243.956 67.632 244.294 67.632 244.682H66.4587C66.4587 244.085 66.5963 243.562 66.8714 243.111C67.1465 242.66 67.521 242.309 67.995 242.057C68.4722 241.805 69.0075 241.679 69.6008 241.679C70.1974 241.679 70.726 241.805 71.1867 242.057C71.6474 242.309 72.0087 242.648 72.2705 243.076C72.5324 243.504 72.6633 243.979 72.6633 244.503C72.6633 244.877 72.5953 245.244 72.4595 245.602C72.3269 245.956 72.0949 246.352 71.7634 246.79C71.4353 247.224 70.9796 247.754 70.3962 248.381L68.1093 250.827V250.906H72.8423V252H66.419ZM78.4751 241.818V252H77.2421V243.111H77.1825L74.6967 244.761V243.509L77.2421 241.818H78.4751Z" fill="#233D48"/>
<path d="M106.006 252V251.105L109.367 247.426C109.761 246.995 110.086 246.621 110.341 246.303C110.596 245.981 110.785 245.679 110.908 245.398C111.034 245.113 111.097 244.814 111.097 244.503C111.097 244.145 111.011 243.835 110.838 243.573C110.669 243.311 110.437 243.109 110.142 242.967C109.847 242.824 109.516 242.753 109.148 242.753C108.757 242.753 108.415 242.834 108.124 242.996C107.835 243.156 107.612 243.379 107.453 243.668C107.297 243.956 107.219 244.294 107.219 244.682H106.046C106.046 244.085 106.183 243.562 106.458 243.111C106.733 242.66 107.108 242.309 107.582 242.057C108.059 241.805 108.594 241.679 109.188 241.679C109.784 241.679 110.313 241.805 110.774 242.057C111.234 242.309 111.596 242.648 111.857 243.076C112.119 243.504 112.25 243.979 112.25 244.503C112.25 244.877 112.182 245.244 112.046 245.602C111.914 245.956 111.682 246.352 111.35 246.79C111.022 247.224 110.566 247.754 109.983 248.381L107.696 250.827V250.906H112.429V252H106.006ZM114.482 252V251.105L117.843 247.426C118.238 246.995 118.562 246.621 118.818 246.303C119.073 245.981 119.262 245.679 119.384 245.398C119.51 245.113 119.573 244.814 119.573 244.503C119.573 244.145 119.487 243.835 119.315 243.573C119.146 243.311 118.914 243.109 118.619 242.967C118.324 242.824 117.992 242.753 117.624 242.753C117.233 242.753 116.892 242.834 116.6 242.996C116.312 243.156 116.088 243.379 115.929 243.668C115.773 243.956 115.696 244.294 115.696 244.682H114.522C114.522 244.085 114.66 243.562 114.935 243.111C115.21 242.66 115.584 242.309 116.058 242.057C116.536 241.805 117.071 241.679 117.664 241.679C118.261 241.679 118.789 241.805 119.25 242.057C119.711 242.309 120.072 242.648 120.334 243.076C120.596 243.504 120.727 243.979 120.727 244.503C120.727 244.877 120.659 245.244 120.523 245.602C120.39 245.956 120.158 246.352 119.827 246.79C119.499 247.224 119.043 247.754 118.46 248.381L116.173 250.827V250.906H120.906V252H114.482Z" fill="#233D48"/>
<path d="M146.359 252V251.105L149.719 247.426C150.114 246.995 150.439 246.621 150.694 246.303C150.949 245.981 151.138 245.679 151.261 245.398C151.387 245.113 151.45 244.814 151.45 244.503C151.45 244.145 151.363 243.835 151.191 243.573C151.022 243.311 150.79 243.109 150.495 242.967C150.2 242.824 149.869 242.753 149.501 242.753C149.11 242.753 148.768 242.834 148.477 242.996C148.188 243.156 147.964 243.379 147.805 243.668C147.65 243.956 147.572 244.294 147.572 244.682H146.398C146.398 244.085 146.536 243.562 146.811 243.111C147.086 242.66 147.461 242.309 147.935 242.057C148.412 241.805 148.947 241.679 149.54 241.679C150.137 241.679 150.666 241.805 151.126 242.057C151.587 242.309 151.948 242.648 152.21 243.076C152.472 243.504 152.603 243.979 152.603 244.503C152.603 244.877 152.535 245.244 152.399 245.602C152.267 245.956 152.035 246.352 151.703 246.79C151.375 247.224 150.919 247.754 150.336 248.381L148.049 250.827V250.906H152.782V252H146.359ZM158.276 252.139C157.619 252.139 157.034 252.027 156.521 251.801C156.01 251.576 155.604 251.263 155.303 250.862C155.004 250.457 154.842 249.988 154.815 249.455H156.068C156.095 249.783 156.207 250.066 156.406 250.305C156.605 250.54 156.865 250.722 157.187 250.852C157.508 250.981 157.865 251.045 158.256 251.045C158.693 251.045 159.081 250.969 159.419 250.817C159.757 250.664 160.022 250.452 160.214 250.18C160.407 249.909 160.503 249.594 160.503 249.236C160.503 248.861 160.41 248.531 160.224 248.246C160.039 247.958 159.767 247.733 159.409 247.57C159.051 247.408 158.614 247.327 158.097 247.327H157.281V246.233H158.097C158.501 246.233 158.856 246.16 159.161 246.014C159.469 245.868 159.709 245.663 159.881 245.398C160.057 245.133 160.145 244.821 160.145 244.463C160.145 244.118 160.069 243.818 159.916 243.563C159.764 243.308 159.548 243.109 159.27 242.967C158.995 242.824 158.67 242.753 158.295 242.753C157.944 242.753 157.613 242.817 157.301 242.947C156.993 243.073 156.741 243.257 156.545 243.499C156.35 243.737 156.244 244.026 156.227 244.364H155.034C155.054 243.83 155.215 243.363 155.516 242.962C155.818 242.557 156.212 242.242 156.7 242.017C157.19 241.792 157.729 241.679 158.315 241.679C158.945 241.679 159.485 241.807 159.936 242.062C160.387 242.314 160.733 242.647 160.975 243.061C161.217 243.475 161.338 243.923 161.338 244.403C161.338 244.977 161.187 245.466 160.886 245.87C160.587 246.274 160.181 246.554 159.668 246.71V246.79C160.311 246.896 160.813 247.169 161.174 247.61C161.535 248.048 161.716 248.589 161.716 249.236C161.716 249.789 161.565 250.286 161.263 250.727C160.965 251.165 160.558 251.509 160.04 251.761C159.523 252.013 158.935 252.139 158.276 252.139Z" fill="#233D48"/>
<path d="M187.005 252V251.105L190.366 247.426C190.76 246.995 191.085 246.621 191.34 246.303C191.596 245.981 191.785 245.679 191.907 245.398C192.033 245.113 192.096 244.814 192.096 244.503C192.096 244.145 192.01 243.835 191.838 243.573C191.669 243.311 191.436 243.109 191.142 242.967C190.847 242.824 190.515 242.753 190.147 242.753C189.756 242.753 189.415 242.834 189.123 242.996C188.835 243.156 188.611 243.379 188.452 243.668C188.296 243.956 188.218 244.294 188.218 244.682H187.045C187.045 244.085 187.182 243.562 187.458 243.111C187.733 242.66 188.107 242.309 188.581 242.057C189.058 241.805 189.594 241.679 190.187 241.679C190.784 241.679 191.312 241.805 191.773 242.057C192.234 242.309 192.595 242.648 192.857 243.076C193.119 243.504 193.249 243.979 193.249 244.503C193.249 244.877 193.182 245.244 193.046 245.602C192.913 245.956 192.681 246.352 192.35 246.79C192.021 247.224 191.566 247.754 190.982 248.381L188.695 250.827V250.906H193.428V252H187.005ZM195.024 249.912V248.898L199.499 241.818H200.235V243.389H199.737L196.357 248.739V248.818H202.382V249.912H195.024ZM199.817 252V249.604V249.131V241.818H200.99V252H199.817Z" fill="#233D48"/>
<path d="M227.7 252V251.105L231.061 247.426C231.455 246.995 231.78 246.621 232.035 246.303C232.29 245.981 232.479 245.679 232.602 245.398C232.728 245.113 232.791 244.814 232.791 244.503C232.791 244.145 232.704 243.835 232.532 243.573C232.363 243.311 232.131 243.109 231.836 242.967C231.541 242.824 231.21 242.753 230.842 242.753C230.451 242.753 230.109 242.834 229.818 242.996C229.529 243.156 229.306 243.379 229.146 243.668C228.991 243.956 228.913 244.294 228.913 244.682H227.74C227.74 244.085 227.877 243.562 228.152 243.111C228.427 242.66 228.802 242.309 229.276 242.057C229.753 241.805 230.288 241.679 230.882 241.679C231.478 241.679 232.007 241.805 232.467 242.057C232.928 242.309 233.289 242.648 233.551 243.076C233.813 243.504 233.944 243.979 233.944 244.503C233.944 244.877 233.876 245.244 233.74 245.602C233.608 245.956 233.376 246.352 233.044 246.79C232.716 247.224 232.26 247.754 231.677 248.381L229.39 250.827V250.906H234.123V252H227.7ZM239.358 252.139C238.775 252.139 238.249 252.023 237.782 251.791C237.315 251.559 236.94 251.241 236.659 250.837C236.377 250.432 236.223 249.972 236.196 249.455H237.389C237.436 249.915 237.645 250.296 238.016 250.598C238.39 250.896 238.838 251.045 239.358 251.045C239.776 251.045 240.147 250.948 240.472 250.752C240.8 250.557 241.057 250.288 241.242 249.947C241.431 249.602 241.526 249.213 241.526 248.778C241.526 248.334 241.428 247.938 241.232 247.59C241.04 247.239 240.775 246.962 240.437 246.76C240.099 246.558 239.713 246.455 239.279 246.452C238.967 246.448 238.647 246.496 238.319 246.596C237.991 246.692 237.721 246.816 237.509 246.969L236.355 246.83L236.972 241.818H242.262V242.912H238.006L237.648 245.915H237.708C237.916 245.749 238.178 245.612 238.493 245.502C238.808 245.393 239.136 245.338 239.477 245.338C240.101 245.338 240.656 245.487 241.143 245.786C241.633 246.08 242.018 246.485 242.296 246.999C242.578 247.512 242.719 248.099 242.719 248.759C242.719 249.408 242.573 249.988 242.281 250.499C241.993 251.006 241.595 251.407 241.088 251.702C240.581 251.993 240.004 252.139 239.358 252.139Z" fill="#233D48"/>
<path d="M268.162 252V251.105L271.522 247.426C271.917 246.995 272.242 246.621 272.497 246.303C272.752 245.981 272.941 245.679 273.064 245.398C273.19 245.113 273.253 244.814 273.253 244.503C273.253 244.145 273.166 243.835 272.994 243.573C272.825 243.311 272.593 243.109 272.298 242.967C272.003 242.824 271.672 242.753 271.304 242.753C270.913 242.753 270.571 242.834 270.28 242.996C269.991 243.156 269.767 243.379 269.608 243.668C269.453 243.956 269.375 244.294 269.375 244.682H268.201C268.201 244.085 268.339 243.562 268.614 243.111C268.889 242.66 269.264 242.309 269.738 242.057C270.215 241.805 270.75 241.679 271.343 241.679C271.94 241.679 272.469 241.805 272.929 242.057C273.39 242.309 273.751 242.648 274.013 243.076C274.275 243.504 274.406 243.979 274.406 244.503C274.406 244.877 274.338 245.244 274.202 245.602C274.07 245.956 273.838 246.352 273.506 246.79C273.178 247.224 272.722 247.754 272.139 248.381L269.852 250.827V250.906H274.585V252H268.162ZM280.019 252.139C279.601 252.133 279.184 252.053 278.766 251.901C278.348 251.748 277.967 251.491 277.623 251.13C277.278 250.765 277.001 250.273 276.792 249.653C276.584 249.03 276.479 248.248 276.479 247.307C276.479 246.405 276.564 245.607 276.733 244.911C276.902 244.211 277.147 243.623 277.468 243.146C277.79 242.665 278.178 242.3 278.632 242.052C279.089 241.803 279.605 241.679 280.178 241.679C280.748 241.679 281.255 241.793 281.699 242.022C282.147 242.247 282.511 242.562 282.793 242.967C283.075 243.371 283.257 243.837 283.34 244.364H282.127C282.014 243.906 281.795 243.527 281.471 243.225C281.146 242.924 280.715 242.773 280.178 242.773C279.389 242.773 278.768 243.116 278.314 243.802C277.863 244.488 277.636 245.451 277.633 246.69H277.712C277.898 246.409 278.118 246.168 278.373 245.969C278.632 245.767 278.917 245.612 279.228 245.502C279.54 245.393 279.87 245.338 280.218 245.338C280.801 245.338 281.335 245.484 281.819 245.776C282.303 246.064 282.69 246.463 282.982 246.974C283.274 247.481 283.419 248.062 283.419 248.719C283.419 249.348 283.279 249.925 282.997 250.449C282.715 250.969 282.319 251.384 281.809 251.692C281.302 251.997 280.705 252.146 280.019 252.139ZM280.019 251.045C280.437 251.045 280.811 250.941 281.142 250.732C281.477 250.523 281.741 250.243 281.933 249.892C282.128 249.541 282.226 249.15 282.226 248.719C282.226 248.298 282.132 247.915 281.943 247.57C281.757 247.222 281.5 246.946 281.172 246.74C280.847 246.535 280.476 246.432 280.059 246.432C279.744 246.432 279.45 246.495 279.179 246.621C278.907 246.743 278.668 246.912 278.463 247.128C278.261 247.343 278.102 247.59 277.986 247.869C277.87 248.144 277.812 248.434 277.812 248.739C277.812 249.143 277.906 249.521 278.095 249.872C278.287 250.223 278.549 250.507 278.88 250.722C279.215 250.938 279.595 251.045 280.019 251.045Z" fill="#233D48"/>
<path d="M25.1023 288V287.105L28.4631 283.426C28.8575 282.995 29.1823 282.621 29.4375 282.303C29.6928 281.981 29.8817 281.679 30.0043 281.398C30.1303 281.113 30.1932 280.814 30.1932 280.503C30.1932 280.145 30.1071 279.835 29.9347 279.573C29.7657 279.311 29.5337 279.109 29.2387 278.967C28.9437 278.824 28.6123 278.753 28.2444 278.753C27.8533 278.753 27.5119 278.834 27.2202 278.996C26.9319 279.156 26.7081 279.379 26.5491 279.668C26.3933 279.956 26.3154 280.294 26.3154 280.682H25.1421C25.1421 280.085 25.2796 279.562 25.5547 279.111C25.8298 278.66 26.2044 278.309 26.6783 278.057C27.1556 277.805 27.6909 277.679 28.2841 277.679C28.8807 277.679 29.4094 277.805 29.8701 278.057C30.3308 278.309 30.692 278.648 30.9539 279.076C31.2157 279.504 31.3466 279.979 31.3466 280.503C31.3466 280.877 31.2787 281.244 31.1428 281.602C31.0102 281.956 30.7782 282.352 30.4468 282.79C30.1187 283.224 29.6629 283.754 29.0796 284.381L26.7927 286.827V286.906H31.5256V288H25.1023ZM33.8971 288L38.451 278.991V278.912H33.201V277.818H39.7238V278.972L35.1897 288H33.8971Z" fill="#233D48"/>
<path d="M65.3594 288V287.105L68.7202 283.426C69.1146 282.995 69.4394 282.621 69.6946 282.303C69.9498 281.981 70.1388 281.679 70.2614 281.398C70.3873 281.113 70.4503 280.814 70.4503 280.503C70.4503 280.145 70.3641 279.835 70.1918 279.573C70.0227 279.311 69.7907 279.109 69.4958 278.967C69.2008 278.824 68.8693 278.753 68.5014 278.753C68.1103 278.753 67.769 278.834 67.4773 278.996C67.1889 279.156 66.9652 279.379 66.8061 279.668C66.6504 279.956 66.5725 280.294 66.5725 280.682H65.3992C65.3992 280.085 65.5367 279.562 65.8118 279.111C66.0869 278.66 66.4614 278.309 66.9354 278.057C67.4127 277.805 67.9479 277.679 68.5412 277.679C69.1378 277.679 69.6665 277.805 70.1272 278.057C70.5879 278.309 70.9491 278.648 71.211 279.076C71.4728 279.504 71.6037 279.979 71.6037 280.503C71.6037 280.877 71.5358 281.244 71.3999 281.602C71.2673 281.956 71.0353 282.352 70.7039 282.79C70.3757 283.224 69.92 283.754 69.3367 284.381L67.0497 286.827V286.906H71.7827V288H65.3594ZM77.0973 288.139C76.4146 288.139 75.8113 288.018 75.2877 287.776C74.7673 287.531 74.3613 287.195 74.0696 286.767C73.778 286.336 73.6338 285.846 73.6371 285.295C73.6338 284.865 73.7183 284.467 73.8906 284.102C74.063 283.734 74.2983 283.428 74.5966 283.183C74.8982 282.934 75.2346 282.777 75.6058 282.71V282.651C75.1186 282.525 74.7308 282.251 74.4425 281.83C74.1541 281.406 74.0116 280.924 74.0149 280.384C74.0116 279.866 74.1425 279.404 74.4077 278.996C74.6728 278.589 75.0374 278.267 75.5014 278.032C75.9688 277.797 76.5007 277.679 77.0973 277.679C77.6873 277.679 78.2143 277.797 78.6783 278.032C79.1423 278.267 79.5069 278.589 79.772 278.996C80.0405 279.404 80.1764 279.866 80.1797 280.384C80.1764 280.924 80.0289 281.406 79.7372 281.83C79.4489 282.251 79.0661 282.525 78.5888 282.651V282.71C78.9567 282.777 79.2881 282.934 79.5831 283.183C79.8781 283.428 80.1134 283.734 80.2891 284.102C80.4647 284.467 80.5542 284.865 80.5576 285.295C80.5542 285.846 80.4051 286.336 80.1101 286.767C79.8184 287.195 79.4124 287.531 78.8921 287.776C78.375 288.018 77.7768 288.139 77.0973 288.139ZM77.0973 287.045C77.558 287.045 77.9558 286.971 78.2905 286.822C78.6253 286.673 78.8838 286.462 79.0661 286.19C79.2484 285.919 79.3412 285.6 79.3445 285.236C79.3412 284.851 79.2417 284.512 79.0462 284.217C78.8506 283.922 78.5838 283.69 78.2458 283.521C77.911 283.352 77.5282 283.267 77.0973 283.267C76.6631 283.267 76.2754 283.352 75.934 283.521C75.5959 283.69 75.3291 283.922 75.1335 284.217C74.9413 284.512 74.8468 284.851 74.8502 285.236C74.8468 285.6 74.9347 285.919 75.1137 286.19C75.296 286.462 75.5561 286.673 75.8942 286.822C76.2323 286.971 76.6333 287.045 77.0973 287.045ZM77.0973 282.213C77.4619 282.213 77.7851 282.14 78.0668 281.994C78.3518 281.848 78.5755 281.645 78.7379 281.383C78.9004 281.121 78.9832 280.814 78.9865 280.463C78.9832 280.118 78.902 279.818 78.7429 279.563C78.5838 279.305 78.3634 279.106 78.0817 278.967C77.8 278.824 77.4719 278.753 77.0973 278.753C76.7162 278.753 76.3831 278.824 76.098 278.967C75.813 279.106 75.5926 279.305 75.4368 279.563C75.281 279.818 75.2048 280.118 75.2081 280.463C75.2048 280.814 75.2827 281.121 75.4418 281.383C75.6042 281.645 75.8279 281.848 76.1129 281.994C76.398 282.14 76.7261 282.213 77.0973 282.213Z" fill="#233D48"/>
<path d="M105.876 288V287.105L109.237 283.426C109.631 282.995 109.956 282.621 110.211 282.303C110.466 281.981 110.655 281.679 110.778 281.398C110.904 281.113 110.967 280.814 110.967 280.503C110.967 280.145 110.881 279.835 110.708 279.573C110.539 279.311 110.307 279.109 110.012 278.967C109.717 278.824 109.386 278.753 109.018 278.753C108.627 278.753 108.286 278.834 107.994 278.996C107.706 279.156 107.482 279.379 107.323 279.668C107.167 279.956 107.089 280.294 107.089 280.682H105.916C105.916 280.085 106.053 279.562 106.328 279.111C106.604 278.66 106.978 278.309 107.452 278.057C107.929 277.805 108.465 277.679 109.058 277.679C109.654 277.679 110.183 277.805 110.644 278.057C111.104 278.309 111.466 278.648 111.728 279.076C111.989 279.504 112.12 279.979 112.12 280.503C112.12 280.877 112.052 281.244 111.916 281.602C111.784 281.956 111.552 282.352 111.22 282.79C110.892 283.224 110.437 283.754 109.853 284.381L107.566 286.827V286.906H112.299V288H105.876ZM117.594 277.679C118.012 277.682 118.429 277.762 118.847 277.918C119.264 278.073 119.646 278.332 119.99 278.693C120.335 279.051 120.612 279.54 120.821 280.16C121.029 280.78 121.134 281.557 121.134 282.491C121.134 283.396 121.048 284.2 120.875 284.903C120.706 285.602 120.461 286.192 120.139 286.673C119.821 287.153 119.434 287.518 118.976 287.766C118.522 288.015 118.008 288.139 117.435 288.139C116.865 288.139 116.356 288.027 115.909 287.801C115.465 287.572 115.1 287.256 114.815 286.852C114.533 286.444 114.353 285.972 114.273 285.435H115.486C115.595 285.902 115.813 286.288 116.137 286.593C116.465 286.895 116.898 287.045 117.435 287.045C118.22 287.045 118.84 286.702 119.294 286.016C119.752 285.33 119.98 284.361 119.98 283.108H119.901C119.715 283.386 119.495 283.627 119.24 283.829C118.984 284.031 118.701 284.187 118.389 284.296C118.078 284.406 117.747 284.46 117.395 284.46C116.812 284.46 116.277 284.316 115.789 284.028C115.305 283.736 114.918 283.337 114.626 282.83C114.338 282.319 114.193 281.736 114.193 281.08C114.193 280.456 114.333 279.886 114.611 279.369C114.893 278.849 115.287 278.435 115.794 278.126C116.305 277.818 116.905 277.669 117.594 277.679ZM117.594 278.773C117.176 278.773 116.8 278.877 116.465 279.086C116.134 279.291 115.871 279.57 115.675 279.921C115.483 280.269 115.387 280.655 115.387 281.08C115.387 281.504 115.479 281.89 115.665 282.238C115.854 282.583 116.111 282.858 116.436 283.063C116.764 283.265 117.137 283.366 117.554 283.366C117.869 283.366 118.162 283.305 118.434 283.183C118.706 283.057 118.943 282.886 119.145 282.67C119.351 282.452 119.511 282.205 119.627 281.93C119.743 281.651 119.801 281.361 119.801 281.06C119.801 280.662 119.705 280.289 119.513 279.941C119.324 279.593 119.062 279.311 118.728 279.096C118.396 278.88 118.018 278.773 117.594 278.773Z" fill="#233D48"/>
<path d="M149.662 288.139C149.006 288.139 148.421 288.027 147.907 287.801C147.397 287.576 146.991 287.263 146.689 286.862C146.391 286.457 146.229 285.988 146.202 285.455H147.455C147.481 285.783 147.594 286.066 147.793 286.305C147.992 286.54 148.252 286.722 148.574 286.852C148.895 286.981 149.251 287.045 149.642 287.045C150.08 287.045 150.468 286.969 150.806 286.817C151.144 286.664 151.409 286.452 151.601 286.18C151.793 285.909 151.89 285.594 151.89 285.236C151.89 284.861 151.797 284.531 151.611 284.246C151.426 283.958 151.154 283.733 150.796 283.57C150.438 283.408 150 283.327 149.483 283.327H148.668V282.233H149.483C149.888 282.233 150.242 282.16 150.547 282.014C150.855 281.868 151.096 281.663 151.268 281.398C151.444 281.133 151.532 280.821 151.532 280.463C151.532 280.118 151.455 279.818 151.303 279.563C151.15 279.308 150.935 279.109 150.657 278.967C150.382 278.824 150.057 278.753 149.682 278.753C149.331 278.753 148.999 278.817 148.688 278.947C148.38 279.073 148.128 279.257 147.932 279.499C147.737 279.737 147.631 280.026 147.614 280.364H146.421C146.441 279.83 146.601 279.363 146.903 278.962C147.205 278.557 147.599 278.242 148.086 278.017C148.577 277.792 149.115 277.679 149.702 277.679C150.332 277.679 150.872 277.807 151.323 278.062C151.774 278.314 152.12 278.647 152.362 279.061C152.604 279.475 152.725 279.923 152.725 280.403C152.725 280.977 152.574 281.466 152.272 281.87C151.974 282.274 151.568 282.554 151.054 282.71V282.79C151.697 282.896 152.199 283.169 152.561 283.61C152.922 284.048 153.103 284.589 153.103 285.236C153.103 285.789 152.952 286.286 152.65 286.727C152.352 287.165 151.944 287.509 151.427 287.761C150.91 288.013 150.322 288.139 149.662 288.139ZM158.457 288.139C157.708 288.139 157.07 287.935 156.543 287.528C156.016 287.117 155.613 286.522 155.335 285.743C155.056 284.961 154.917 284.016 154.917 282.909C154.917 281.809 155.056 280.869 155.335 280.09C155.617 279.308 156.021 278.711 156.548 278.3C157.078 277.886 157.715 277.679 158.457 277.679C159.199 277.679 159.834 277.886 160.361 278.3C160.891 278.711 161.296 279.308 161.574 280.09C161.856 280.869 161.997 281.809 161.997 282.909C161.997 284.016 161.858 284.961 161.579 285.743C161.301 286.522 160.898 287.117 160.371 287.528C159.844 287.935 159.206 288.139 158.457 288.139ZM158.457 287.045C159.199 287.045 159.776 286.687 160.187 285.972C160.598 285.256 160.804 284.235 160.804 282.909C160.804 282.027 160.709 281.277 160.52 280.657C160.335 280.037 160.066 279.565 159.715 279.24C159.367 278.915 158.948 278.753 158.457 278.753C157.721 278.753 157.146 279.116 156.732 279.842C156.318 280.564 156.11 281.587 156.11 282.909C156.11 283.791 156.203 284.54 156.389 285.156C156.574 285.773 156.841 286.242 157.189 286.563C157.541 286.885 157.963 287.045 158.457 287.045Z" fill="#233D48"/>
<path d="M191.355 288.139C190.698 288.139 190.113 288.027 189.6 287.801C189.089 287.576 188.683 287.263 188.382 286.862C188.083 286.457 187.921 285.988 187.894 285.455H189.147C189.174 285.783 189.286 286.066 189.485 286.305C189.684 286.54 189.944 286.722 190.266 286.852C190.587 286.981 190.944 287.045 191.335 287.045C191.772 287.045 192.16 286.969 192.498 286.817C192.836 286.664 193.101 286.452 193.294 286.18C193.486 285.909 193.582 285.594 193.582 285.236C193.582 284.861 193.489 284.531 193.304 284.246C193.118 283.958 192.846 283.733 192.488 283.57C192.13 283.408 191.693 283.327 191.176 283.327H190.36V282.233H191.176C191.58 282.233 191.935 282.16 192.24 282.014C192.548 281.868 192.788 281.663 192.96 281.398C193.136 281.133 193.224 280.821 193.224 280.463C193.224 280.118 193.148 279.818 192.995 279.563C192.843 279.308 192.627 279.109 192.349 278.967C192.074 278.824 191.749 278.753 191.375 278.753C191.023 278.753 190.692 278.817 190.38 278.947C190.072 279.073 189.82 279.257 189.625 279.499C189.429 279.737 189.323 280.026 189.306 280.364H188.113C188.133 279.83 188.294 279.363 188.595 278.962C188.897 278.557 189.291 278.242 189.779 278.017C190.269 277.792 190.808 277.679 191.394 277.679C192.024 277.679 192.564 277.807 193.015 278.062C193.466 278.314 193.812 278.647 194.054 279.061C194.296 279.475 194.417 279.923 194.417 280.403C194.417 280.977 194.266 281.466 193.965 281.87C193.666 282.274 193.26 282.554 192.747 282.71V282.79C193.39 282.896 193.892 283.169 194.253 283.61C194.614 284.048 194.795 284.589 194.795 285.236C194.795 285.789 194.644 286.286 194.343 286.727C194.044 287.165 193.637 287.509 193.12 287.761C192.603 288.013 192.014 288.139 191.355 288.139ZM200.408 277.818V288H199.175V279.111H199.115L196.63 280.761V279.509L199.175 277.818H200.408Z" fill="#233D48"/>
<rect width="40.5714" height="36" transform="translate(214.857 265)" fill="#F1F0E9"/>
<rect x="215.857" y="266" width="38.5714" height="34" rx="2" fill="#F1F0E9"/>
<path d="M236.522 277.818V288H235.289V279.111H235.23L232.744 280.761V279.509L235.289 277.818H236.522Z" fill="#233D48"/>
<rect width="40.5714" height="36" transform="translate(255.428 265)" fill="#F1F0E9"/>
<rect x="256.428" y="266" width="38.5714" height="34" rx="2" fill="#F1F0E9"/>
<path d="M272.53 288V287.105L275.891 283.426C276.285 282.995 276.61 282.621 276.865 282.303C277.12 281.981 277.309 281.679 277.432 281.398C277.558 281.113 277.621 280.814 277.621 280.503C277.621 280.145 277.535 279.835 277.362 279.573C277.193 279.311 276.961 279.109 276.666 278.967C276.371 278.824 276.04 278.753 275.672 278.753C275.281 278.753 274.939 278.834 274.648 278.996C274.359 279.156 274.136 279.379 273.977 279.668C273.821 279.956 273.743 280.294 273.743 280.682H272.57C272.57 280.085 272.707 279.562 272.982 279.111C273.257 278.66 273.632 278.309 274.106 278.057C274.583 277.805 275.118 277.679 275.712 277.679C276.308 277.679 276.837 277.805 277.298 278.057C277.758 278.309 278.12 278.648 278.381 279.076C278.643 279.504 278.774 279.979 278.774 280.503C278.774 280.877 278.706 281.244 278.57 281.602C278.438 281.956 278.206 282.352 277.874 282.79C277.546 283.224 277.09 283.754 276.507 284.381L274.22 286.827V286.906H278.953V288H272.53Z" fill="#233D48"/>
</g>
<path d="M12.5 52C12.5 47.8579 15.8579 44.5 20 44.5H288C292.142 44.5 295.5 47.8579 295.5 52V293C295.5 297.142 292.142 300.5 288 300.5H20C15.8579 300.5 12.5 297.142 12.5 293V52Z" stroke="#DADFE2"/>
</g>
<defs>
<filter id="filter0_dd_1_40798" x="0" y="36" width="308" height="281" filterUnits="userSpaceOnUse" color-interpolation-filters="sRGB">
<feFlood flood-opacity="0" result="BackgroundImageFix"/>
<feColorMatrix in="SourceAlpha" type="matrix" values="0 0 0 0 0 0 0 0 0 0 0 0 0 0 0 0 0 0 127 0" result="hardAlpha"/>
<feOffset dy="4"/>
<feGaussianBlur stdDeviation="6"/>
<feColorMatrix type="matrix" values="0 0 0 0 0 0 0 0 0 0 0 0 0 0 0 0 0 0 0.05 0"/>
<feBlend mode="normal" in2="BackgroundImageFix" result="effect1_dropShadow_1_40798"/>
<feColorMatrix in="SourceAlpha" type="matrix" values="0 0 0 0 0 0 0 0 0 0 0 0 0 0 0 0 0 0 127 0" result="hardAlpha"/>
<feOffset dy="1"/>
<feGaussianBlur stdDeviation="2"/>
<feColorMatrix type="matrix" values="0 0 0 0 0 0 0 0 0 0 0 0 0 0 0 0 0 0 0.1 0"/>
<feBlend mode="normal" in2="effect1_dropShadow_1_40798" result="effect2_dropShadow_1_40798"/>
<feBlend mode="normal" in="SourceGraphic" in2="effect2_dropShadow_1_40798" result="shape"/>
</filter>
<clipPath id="clip0_1_40798">
<rect x="12" width="40" height="40" rx="2" fill="white"/>
</clipPath>
<clipPath id="clip1_1_40798">
<path d="M12 52C12 47.5817 15.5817 44 20 44H288C292.418 44 296 47.5817 296 52V293C296 297.418 292.418 301 288 301H20C15.5817 301 12 297.418 12 293V52Z" fill="white"/>
</clipPath>
<clipPath id="clip2_1_40798">
<rect width="284" height="1" fill="white" transform="translate(12 120)"/>
</clipPath>
</defs>
</svg>
