<svg width="274" height="146" viewBox="0 0 274 146" fill="none" xmlns="http://www.w3.org/2000/svg">
<g clip-path="url(#clip0_1_40831)">
<path d="M12.375 22H9.23295V11.8182H12.5142C13.5019 11.8182 14.3471 12.022 15.0497 12.4297C15.7524 12.834 16.291 13.4157 16.6655 14.1747C17.04 14.9304 17.2273 15.8352 17.2273 16.8892C17.2273 17.9498 17.0384 18.8629 16.6605 19.6286C16.2827 20.3909 15.7325 20.9775 15.0099 21.3885C14.2874 21.7962 13.4091 22 12.375 22ZM10.4659 20.9062H12.2955C13.1373 20.9062 13.835 20.7438 14.3885 20.419C14.942 20.0942 15.3546 19.6319 15.6264 19.032C15.8982 18.4321 16.0341 17.7178 16.0341 16.8892C16.0341 16.0672 15.8999 15.3596 15.6314 14.7663C15.3629 14.1697 14.9619 13.7124 14.4283 13.3942C13.8946 13.0727 13.2301 12.9119 12.4347 12.9119H10.4659V20.9062ZM22.3381 22.1591C21.6023 22.1591 20.9676 21.9967 20.4339 21.6719C19.9036 21.3438 19.4943 20.8864 19.206 20.2997C18.9209 19.7098 18.7784 19.0237 18.7784 18.2415C18.7784 17.4593 18.9209 16.7699 19.206 16.1733C19.4943 15.5734 19.8954 15.1061 20.4091 14.7713C20.9261 14.4332 21.5294 14.2642 22.2188 14.2642C22.6165 14.2642 23.0092 14.3305 23.397 14.4631C23.7848 14.5956 24.1378 14.8111 24.456 15.1094C24.7741 15.4044 25.0277 15.7955 25.2166 16.2827C25.4055 16.7699 25.5 17.3698 25.5 18.0824V18.5795H19.6136V17.5653H24.3068C24.3068 17.1345 24.2206 16.75 24.0483 16.4119C23.8793 16.0739 23.6373 15.8071 23.3224 15.6115C23.0109 15.416 22.643 15.3182 22.2188 15.3182C21.7514 15.3182 21.3471 15.4342 21.0057 15.6662C20.6676 15.8949 20.4074 16.1932 20.2251 16.5611C20.0429 16.929 19.9517 17.3234 19.9517 17.7443V18.4205C19.9517 18.9972 20.0511 19.486 20.25 19.8871C20.4522 20.2848 20.7322 20.5881 21.0902 20.7969C21.4482 21.0024 21.8641 21.1051 22.3381 21.1051C22.6463 21.1051 22.9247 21.062 23.1733 20.9759C23.4252 20.8864 23.6423 20.7538 23.8246 20.5781C24.0069 20.3991 24.1477 20.1771 24.2472 19.9119L25.3807 20.2301C25.2614 20.6146 25.0608 20.9527 24.7791 21.2443C24.4974 21.5327 24.1494 21.758 23.7351 21.9205C23.3208 22.0795 22.8551 22.1591 22.3381 22.1591ZM32.6939 16.0739L31.6399 16.3722C31.5736 16.1965 31.4759 16.0258 31.3466 15.8601C31.2206 15.6911 31.0483 15.5518 30.8295 15.4425C30.6108 15.3331 30.3307 15.2784 29.9893 15.2784C29.522 15.2784 29.1326 15.3861 28.821 15.6016C28.5128 15.8137 28.3587 16.0838 28.3587 16.4119C28.3587 16.7036 28.4647 16.9339 28.6768 17.103C28.889 17.272 29.2204 17.4129 29.6712 17.5256L30.8047 17.804C31.4875 17.9697 31.9962 18.2232 32.331 18.5646C32.6657 18.9027 32.8331 19.3385 32.8331 19.8722C32.8331 20.3097 32.7071 20.7008 32.4553 21.0455C32.2067 21.3902 31.8587 21.6619 31.4112 21.8608C30.9638 22.0597 30.4434 22.1591 29.8501 22.1591C29.0713 22.1591 28.4266 21.9901 27.9162 21.652C27.4058 21.3139 27.0826 20.8201 26.9467 20.1705L28.0604 19.892C28.1664 20.303 28.367 20.6113 28.6619 20.8168C28.9602 21.0223 29.3497 21.125 29.8303 21.125C30.3771 21.125 30.8113 21.009 31.1328 20.777C31.4576 20.5417 31.62 20.2599 31.62 19.9318C31.62 19.6667 31.5272 19.4446 31.3416 19.2656C31.156 19.0833 30.871 18.9474 30.4865 18.858L29.2138 18.5597C28.5144 18.3939 28.0007 18.1371 27.6726 17.7891C27.3478 17.4377 27.1854 16.9986 27.1854 16.4716C27.1854 16.0407 27.3063 15.6596 27.5483 15.3281C27.7936 14.9967 28.1267 14.7365 28.5476 14.5476C28.9718 14.3587 29.4524 14.2642 29.9893 14.2642C30.745 14.2642 31.3383 14.4299 31.7692 14.7614C32.2034 15.0928 32.5116 15.5303 32.6939 16.0739ZM37.7015 22.1591C36.9856 22.1591 36.3691 21.9901 35.8521 21.652C35.335 21.3139 34.9373 20.8482 34.6589 20.255C34.3805 19.6617 34.2413 18.9839 34.2413 18.2216C34.2413 17.446 34.3838 16.7616 34.6689 16.1683C34.9572 15.5717 35.3583 15.1061 35.872 14.7713C36.389 14.4332 36.9922 14.2642 37.6816 14.2642C38.2186 14.2642 38.7025 14.3636 39.1333 14.5625C39.5642 14.7614 39.9172 15.0398 40.1923 15.3977C40.4674 15.7557 40.6381 16.1733 40.7044 16.6506H39.5311C39.4416 16.3026 39.2427 15.9943 38.9345 15.7259C38.6296 15.4541 38.2186 15.3182 37.7015 15.3182C37.2441 15.3182 36.8431 15.4375 36.4984 15.6761C36.157 15.9115 35.8902 16.2446 35.698 16.6754C35.5091 17.103 35.4146 17.6051 35.4146 18.1818C35.4146 18.7718 35.5074 19.2855 35.693 19.723C35.8819 20.1605 36.1471 20.5002 36.4885 20.7422C36.8332 20.9841 37.2375 21.1051 37.7015 21.1051C38.0065 21.1051 38.2832 21.0521 38.5318 20.946C38.7804 20.84 38.9908 20.6875 39.1632 20.4886C39.3355 20.2898 39.4582 20.0511 39.5311 19.7727H40.7044C40.6381 20.2235 40.474 20.6295 40.2122 20.9908C39.9537 21.3487 39.6106 21.6338 39.1831 21.8459C38.7588 22.0547 38.265 22.1591 37.7015 22.1591ZM42.4196 22V14.3636H43.5531V15.517H43.6326C43.7718 15.1392 44.0237 14.8326 44.3883 14.5973C44.7529 14.362 45.1639 14.2443 45.6213 14.2443C45.7074 14.2443 45.8152 14.246 45.9444 14.2493C46.0737 14.2526 46.1715 14.2576 46.2377 14.2642V15.4574C46.198 15.4474 46.1068 15.4325 45.9643 15.4126C45.8251 15.3894 45.6776 15.3778 45.5218 15.3778C45.1506 15.3778 44.8192 15.4557 44.5275 15.6115C44.2392 15.764 44.0105 15.9761 43.8414 16.2479C43.6757 16.5163 43.5929 16.8229 43.5929 17.1676V22H42.4196ZM47.6286 22V14.3636H48.8018V22H47.6286ZM48.2251 13.0909C47.9964 13.0909 47.7992 13.013 47.6335 12.8572C47.4711 12.7015 47.3899 12.5142 47.3899 12.2955C47.3899 12.0767 47.4711 11.8894 47.6335 11.7337C47.7992 11.5779 47.9964 11.5 48.2251 11.5C48.4538 11.5 48.6494 11.5779 48.8118 11.7337C48.9775 11.8894 49.0604 12.0767 49.0604 12.2955C49.0604 12.5142 48.9775 12.7015 48.8118 12.8572C48.6494 13.013 48.4538 13.0909 48.2251 13.0909ZM50.9508 24.8636V14.3636H52.0843V15.5767H52.2235C52.3097 15.4441 52.429 15.2751 52.5815 15.0696C52.7373 14.8608 52.9593 14.6752 53.2477 14.5128C53.5394 14.3471 53.9338 14.2642 54.4309 14.2642C55.0739 14.2642 55.6407 14.425 56.1312 14.7464C56.6217 15.0679 57.0046 15.5237 57.2797 16.1136C57.5547 16.7036 57.6923 17.3996 57.6923 18.2017C57.6923 19.0104 57.5547 19.7114 57.2797 20.3047C57.0046 20.8946 56.6234 21.352 56.1362 21.6768C55.649 21.9983 55.0872 22.1591 54.4508 22.1591C53.9603 22.1591 53.5675 22.0779 53.2725 21.9155C52.9776 21.7498 52.7505 21.5625 52.5914 21.3537C52.4324 21.1416 52.3097 20.9659 52.2235 20.8267H52.1241V24.8636H50.9508ZM52.1042 18.1818C52.1042 18.7585 52.1887 19.2673 52.3578 19.7081C52.5268 20.1456 52.7737 20.4886 53.0985 20.7372C53.4234 20.9825 53.8211 21.1051 54.2917 21.1051C54.7823 21.1051 55.1916 20.9759 55.5197 20.7173C55.8511 20.4555 56.0997 20.1042 56.2654 19.6634C56.4345 19.2192 56.519 18.7254 56.519 18.1818C56.519 17.6449 56.4361 17.161 56.2704 16.7301C56.108 16.2959 55.8611 15.9529 55.5297 15.701C55.2015 15.4458 54.7889 15.3182 54.2917 15.3182C53.8145 15.3182 53.4134 15.4392 53.0886 15.6811C52.7638 15.9197 52.5185 16.2545 52.3528 16.6854C52.1871 17.1129 52.1042 17.6117 52.1042 18.1818ZM62.8031 14.3636V15.358H58.8457V14.3636H62.8031ZM59.9991 12.5341H61.1724V19.8125C61.1724 20.1439 61.2205 20.3925 61.3166 20.5582C61.416 20.7206 61.542 20.83 61.6944 20.8864C61.8502 20.9394 62.0143 20.9659 62.1866 20.9659C62.3159 20.9659 62.4219 20.9593 62.5048 20.946C62.5877 20.9295 62.6539 20.9162 62.7037 20.9062L62.9423 21.9602C62.8627 21.9901 62.7517 22.0199 62.6092 22.0497C62.4667 22.0829 62.286 22.0994 62.0673 22.0994C61.7359 22.0994 61.411 22.0282 61.0929 21.8857C60.778 21.7431 60.5162 21.526 60.3074 21.2344C60.1019 20.9427 59.9991 20.5748 59.9991 20.1307V12.5341ZM64.568 22V14.3636H65.7413V22H64.568ZM65.1646 13.0909C64.9359 13.0909 64.7387 13.013 64.573 12.8572C64.4106 12.7015 64.3294 12.5142 64.3294 12.2955C64.3294 12.0767 64.4106 11.8894 64.573 11.7337C64.7387 11.5779 64.9359 11.5 65.1646 11.5C65.3933 11.5 65.5888 11.5779 65.7512 11.7337C65.917 11.8894 65.9998 12.0767 65.9998 12.2955C65.9998 12.5142 65.917 12.7015 65.7512 12.8572C65.5888 13.013 65.3933 13.0909 65.1646 13.0909ZM70.9925 22.1591C70.3031 22.1591 69.6983 21.995 69.1779 21.6669C68.6609 21.3388 68.2565 20.8797 67.9648 20.2898C67.6765 19.6998 67.5323 19.0104 67.5323 18.2216C67.5323 17.4261 67.6765 16.7318 67.9648 16.1385C68.2565 15.5452 68.6609 15.0845 69.1779 14.7564C69.6983 14.4283 70.3031 14.2642 70.9925 14.2642C71.6819 14.2642 72.2852 14.4283 72.8022 14.7564C73.3226 15.0845 73.7269 15.5452 74.0153 16.1385C74.3069 16.7318 74.4528 17.4261 74.4528 18.2216C74.4528 19.0104 74.3069 19.6998 74.0153 20.2898C73.7269 20.8797 73.3226 21.3388 72.8022 21.6669C72.2852 21.995 71.6819 22.1591 70.9925 22.1591ZM70.9925 21.1051C71.5162 21.1051 71.9471 20.9709 72.2852 20.7024C72.6232 20.4339 72.8735 20.081 73.0359 19.6435C73.1983 19.206 73.2795 18.732 73.2795 18.2216C73.2795 17.7112 73.1983 17.2356 73.0359 16.7947C72.8735 16.3539 72.6232 15.9976 72.2852 15.7259C71.9471 15.4541 71.5162 15.3182 70.9925 15.3182C70.4689 15.3182 70.038 15.4541 69.6999 15.7259C69.3619 15.9976 69.1116 16.3539 68.9492 16.7947C68.7868 17.2356 68.7056 17.7112 68.7056 18.2216C68.7056 18.732 68.7868 19.206 68.9492 19.6435C69.1116 20.081 69.3619 20.4339 69.6999 20.7024C70.038 20.9709 70.4689 21.1051 70.9925 21.1051ZM77.4171 17.4062V22H76.2438V14.3636H77.3773V15.5568H77.4767C77.6557 15.169 77.9275 14.8575 78.2921 14.6222C78.6567 14.3835 79.1273 14.2642 79.704 14.2642C80.2211 14.2642 80.6735 14.3703 81.0613 14.5824C81.449 14.7912 81.7507 15.1094 81.9661 15.5369C82.1815 15.9612 82.2892 16.4981 82.2892 17.1477V22H81.1159V17.2273C81.1159 16.6274 80.9602 16.16 80.6486 15.8253C80.3371 15.4872 79.9095 15.3182 79.3659 15.3182C78.9914 15.3182 78.6567 15.3994 78.3617 15.5618C78.07 15.7242 77.8397 15.9612 77.6706 16.2727C77.5016 16.5843 77.4171 16.9621 77.4171 17.4062Z" fill="#032B3A"/>
<path d="M145.375 22H142.233V11.8182H145.514C146.502 11.8182 147.347 12.022 148.05 12.4297C148.752 12.834 149.291 13.4157 149.665 14.1747C150.04 14.9304 150.227 15.8352 150.227 16.8892C150.227 17.9498 150.038 18.8629 149.661 19.6286C149.283 20.3909 148.732 20.9775 148.01 21.3885C147.287 21.7962 146.409 22 145.375 22ZM143.466 20.9062H145.295C146.137 20.9062 146.835 20.7438 147.388 20.419C147.942 20.0942 148.355 19.6319 148.626 19.032C148.898 18.4321 149.034 17.7178 149.034 16.8892C149.034 16.0672 148.9 15.3596 148.631 14.7663C148.363 14.1697 147.962 13.7124 147.428 13.3942C146.895 13.0727 146.23 12.9119 145.435 12.9119H143.466V20.9062ZM154.384 22.179C153.9 22.179 153.46 22.0878 153.066 21.9055C152.672 21.7199 152.358 21.4531 152.126 21.1051C151.894 20.7538 151.778 20.3295 151.778 19.8324C151.778 19.3949 151.865 19.0402 152.037 18.7685C152.209 18.4934 152.44 18.2779 152.728 18.1222C153.016 17.9664 153.335 17.8504 153.683 17.7741C154.034 17.6946 154.387 17.6316 154.741 17.5852C155.205 17.5256 155.582 17.4808 155.87 17.451C156.162 17.4179 156.374 17.3632 156.506 17.2869C156.642 17.2107 156.71 17.0781 156.71 16.8892V16.8494C156.71 16.3589 156.576 15.9777 156.308 15.706C156.042 15.4342 155.64 15.2983 155.099 15.2983C154.539 15.2983 154.1 15.4209 153.782 15.6662C153.464 15.9115 153.24 16.1733 153.111 16.4517L151.997 16.054C152.196 15.59 152.461 15.2287 152.793 14.9702C153.127 14.7083 153.492 14.526 153.886 14.4233C154.284 14.3172 154.675 14.2642 155.06 14.2642C155.305 14.2642 155.587 14.294 155.905 14.3537C156.226 14.41 156.536 14.5277 156.835 14.7067C157.136 14.8857 157.386 15.1558 157.585 15.517C157.784 15.8783 157.884 16.3622 157.884 16.9688V22H156.71V20.9659H156.651C156.571 21.1316 156.438 21.3089 156.253 21.4979C156.067 21.6868 155.82 21.8475 155.512 21.9801C155.204 22.1127 154.828 22.179 154.384 22.179ZM154.562 21.125C155.027 21.125 155.418 21.0339 155.736 20.8516C156.057 20.6693 156.299 20.4339 156.462 20.1456C156.627 19.8572 156.71 19.554 156.71 19.2358V18.1619C156.661 18.2216 156.551 18.2763 156.382 18.326C156.216 18.3724 156.024 18.4138 155.805 18.4503C155.59 18.4834 155.379 18.5133 155.174 18.5398C154.972 18.563 154.808 18.5829 154.682 18.5994C154.377 18.6392 154.092 18.7038 153.827 18.7933C153.565 18.8795 153.353 19.0104 153.19 19.1861C153.031 19.3584 152.952 19.5937 152.952 19.892C152.952 20.2997 153.103 20.608 153.404 20.8168C153.709 21.0223 154.095 21.125 154.562 21.125ZM163.346 14.3636V15.358H159.389V14.3636H163.346ZM160.542 12.5341H161.715V19.8125C161.715 20.1439 161.763 20.3925 161.86 20.5582C161.959 20.7206 162.085 20.83 162.237 20.8864C162.393 20.9394 162.557 20.9659 162.73 20.9659C162.859 20.9659 162.965 20.9593 163.048 20.946C163.131 20.9295 163.197 20.9162 163.247 20.9062L163.485 21.9602C163.406 21.9901 163.295 22.0199 163.152 22.0497C163.01 22.0829 162.829 22.0994 162.61 22.0994C162.279 22.0994 161.954 22.0282 161.636 21.8857C161.321 21.7431 161.059 21.526 160.85 21.2344C160.645 20.9427 160.542 20.5748 160.542 20.1307V12.5341ZM167.358 22.179C166.874 22.179 166.435 22.0878 166.041 21.9055C165.646 21.7199 165.333 21.4531 165.101 21.1051C164.869 20.7538 164.753 20.3295 164.753 19.8324C164.753 19.3949 164.839 19.0402 165.012 18.7685C165.184 18.4934 165.414 18.2779 165.703 18.1222C165.991 17.9664 166.309 17.8504 166.657 17.7741C167.008 17.6946 167.361 17.6316 167.716 17.5852C168.18 17.5256 168.556 17.4808 168.845 17.451C169.136 17.4179 169.348 17.3632 169.481 17.2869C169.617 17.2107 169.685 17.0781 169.685 16.8892V16.8494C169.685 16.3589 169.551 15.9777 169.282 15.706C169.017 15.4342 168.614 15.2983 168.074 15.2983C167.514 15.2983 167.075 15.4209 166.757 15.6662C166.438 15.9115 166.215 16.1733 166.085 16.4517L164.972 16.054C165.171 15.59 165.436 15.2287 165.767 14.9702C166.102 14.7083 166.467 14.526 166.861 14.4233C167.259 14.3172 167.65 14.2642 168.034 14.2642C168.28 14.2642 168.561 14.294 168.879 14.3537C169.201 14.41 169.511 14.5277 169.809 14.7067C170.111 14.8857 170.361 15.1558 170.56 15.517C170.759 15.8783 170.858 16.3622 170.858 16.9688V22H169.685V20.9659H169.625C169.546 21.1316 169.413 21.3089 169.227 21.4979C169.042 21.6868 168.795 21.8475 168.487 21.9801C168.178 22.1127 167.802 22.179 167.358 22.179ZM167.537 21.125C168.001 21.125 168.392 21.0339 168.71 20.8516C169.032 20.6693 169.274 20.4339 169.436 20.1456C169.602 19.8572 169.685 19.554 169.685 19.2358V18.1619C169.635 18.2216 169.526 18.2763 169.357 18.326C169.191 18.3724 168.999 18.4138 168.78 18.4503C168.565 18.4834 168.354 18.5133 168.149 18.5398C167.946 18.563 167.782 18.5829 167.656 18.5994C167.352 18.6392 167.066 18.7038 166.801 18.7933C166.539 18.8795 166.327 19.0104 166.165 19.1861C166.006 19.3584 165.926 19.5937 165.926 19.892C165.926 20.2997 166.077 20.608 166.379 20.8168C166.684 21.0223 167.07 21.125 167.537 21.125Z" fill="#233D48"/>
<rect x="8" y="30" width="258" height="1" fill="#DADFE2"/>
</g>
<g clip-path="url(#clip1_1_40831)">
<path d="M12.375 48H9.23295V37.8182H12.5142C13.5019 37.8182 14.3471 38.022 15.0497 38.4297C15.7524 38.834 16.291 39.4157 16.6655 40.1747C17.04 40.9304 17.2273 41.8352 17.2273 42.8892C17.2273 43.9498 17.0384 44.8629 16.6605 45.6286C16.2827 46.3909 15.7325 46.9775 15.0099 47.3885C14.2874 47.7962 13.4091 48 12.375 48ZM10.4659 46.9062H12.2955C13.1373 46.9062 13.835 46.7438 14.3885 46.419C14.942 46.0942 15.3546 45.6319 15.6264 45.032C15.8982 44.4321 16.0341 43.7178 16.0341 42.8892C16.0341 42.0672 15.8999 41.3596 15.6314 40.7663C15.3629 40.1697 14.9619 39.7124 14.4283 39.3942C13.8946 39.0727 13.2301 38.9119 12.4347 38.9119H10.4659V46.9062ZM22.3381 48.1591C21.6023 48.1591 20.9676 47.9967 20.4339 47.6719C19.9036 47.3438 19.4943 46.8864 19.206 46.2997C18.9209 45.7098 18.7784 45.0237 18.7784 44.2415C18.7784 43.4593 18.9209 42.7699 19.206 42.1733C19.4943 41.5734 19.8954 41.1061 20.4091 40.7713C20.9261 40.4332 21.5294 40.2642 22.2188 40.2642C22.6165 40.2642 23.0092 40.3305 23.397 40.4631C23.7848 40.5956 24.1378 40.8111 24.456 41.1094C24.7741 41.4044 25.0277 41.7955 25.2166 42.2827C25.4055 42.7699 25.5 43.3698 25.5 44.0824V44.5795H19.6136V43.5653H24.3068C24.3068 43.1345 24.2206 42.75 24.0483 42.4119C23.8793 42.0739 23.6373 41.8071 23.3224 41.6115C23.0109 41.416 22.643 41.3182 22.2188 41.3182C21.7514 41.3182 21.3471 41.4342 21.0057 41.6662C20.6676 41.8949 20.4074 42.1932 20.2251 42.5611C20.0429 42.929 19.9517 43.3234 19.9517 43.7443V44.4205C19.9517 44.9972 20.0511 45.486 20.25 45.8871C20.4522 46.2848 20.7322 46.5881 21.0902 46.7969C21.4482 47.0024 21.8641 47.1051 22.3381 47.1051C22.6463 47.1051 22.9247 47.062 23.1733 46.9759C23.4252 46.8864 23.6423 46.7538 23.8246 46.5781C24.0069 46.3991 24.1477 46.1771 24.2472 45.9119L25.3807 46.2301C25.2614 46.6146 25.0608 46.9527 24.7791 47.2443C24.4974 47.5327 24.1494 47.758 23.7351 47.9205C23.3208 48.0795 22.8551 48.1591 22.3381 48.1591ZM32.6939 42.0739L31.6399 42.3722C31.5736 42.1965 31.4759 42.0258 31.3466 41.8601C31.2206 41.6911 31.0483 41.5518 30.8295 41.4425C30.6108 41.3331 30.3307 41.2784 29.9893 41.2784C29.522 41.2784 29.1326 41.3861 28.821 41.6016C28.5128 41.8137 28.3587 42.0838 28.3587 42.4119C28.3587 42.7036 28.4647 42.9339 28.6768 43.103C28.889 43.272 29.2204 43.4129 29.6712 43.5256L30.8047 43.804C31.4875 43.9697 31.9962 44.2232 32.331 44.5646C32.6657 44.9027 32.8331 45.3385 32.8331 45.8722C32.8331 46.3097 32.7071 46.7008 32.4553 47.0455C32.2067 47.3902 31.8587 47.6619 31.4112 47.8608C30.9638 48.0597 30.4434 48.1591 29.8501 48.1591C29.0713 48.1591 28.4266 47.9901 27.9162 47.652C27.4058 47.3139 27.0826 46.8201 26.9467 46.1705L28.0604 45.892C28.1664 46.303 28.367 46.6113 28.6619 46.8168C28.9602 47.0223 29.3497 47.125 29.8303 47.125C30.3771 47.125 30.8113 47.009 31.1328 46.777C31.4576 46.5417 31.62 46.2599 31.62 45.9318C31.62 45.6667 31.5272 45.4446 31.3416 45.2656C31.156 45.0833 30.871 44.9474 30.4865 44.858L29.2138 44.5597C28.5144 44.3939 28.0007 44.1371 27.6726 43.7891C27.3478 43.4377 27.1854 42.9986 27.1854 42.4716C27.1854 42.0407 27.3063 41.6596 27.5483 41.3281C27.7936 40.9967 28.1267 40.7365 28.5476 40.5476C28.9718 40.3587 29.4524 40.2642 29.9893 40.2642C30.745 40.2642 31.3383 40.4299 31.7692 40.7614C32.2034 41.0928 32.5116 41.5303 32.6939 42.0739ZM37.7015 48.1591C36.9856 48.1591 36.3691 47.9901 35.8521 47.652C35.335 47.3139 34.9373 46.8482 34.6589 46.255C34.3805 45.6617 34.2413 44.9839 34.2413 44.2216C34.2413 43.446 34.3838 42.7616 34.6689 42.1683C34.9572 41.5717 35.3583 41.1061 35.872 40.7713C36.389 40.4332 36.9922 40.2642 37.6816 40.2642C38.2186 40.2642 38.7025 40.3636 39.1333 40.5625C39.5642 40.7614 39.9172 41.0398 40.1923 41.3977C40.4674 41.7557 40.6381 42.1733 40.7044 42.6506H39.5311C39.4416 42.3026 39.2427 41.9943 38.9345 41.7259C38.6296 41.4541 38.2186 41.3182 37.7015 41.3182C37.2441 41.3182 36.8431 41.4375 36.4984 41.6761C36.157 41.9115 35.8902 42.2446 35.698 42.6754C35.5091 43.103 35.4146 43.6051 35.4146 44.1818C35.4146 44.7718 35.5074 45.2855 35.693 45.723C35.8819 46.1605 36.1471 46.5002 36.4885 46.7422C36.8332 46.9841 37.2375 47.1051 37.7015 47.1051C38.0065 47.1051 38.2832 47.0521 38.5318 46.946C38.7804 46.84 38.9908 46.6875 39.1632 46.4886C39.3355 46.2898 39.4582 46.0511 39.5311 45.7727H40.7044C40.6381 46.2235 40.474 46.6295 40.2122 46.9908C39.9537 47.3487 39.6106 47.6338 39.1831 47.8459C38.7588 48.0547 38.265 48.1591 37.7015 48.1591ZM42.4196 48V40.3636H43.5531V41.517H43.6326C43.7718 41.1392 44.0237 40.8326 44.3883 40.5973C44.7529 40.362 45.1639 40.2443 45.6213 40.2443C45.7074 40.2443 45.8152 40.246 45.9444 40.2493C46.0737 40.2526 46.1715 40.2576 46.2377 40.2642V41.4574C46.198 41.4474 46.1068 41.4325 45.9643 41.4126C45.8251 41.3894 45.6776 41.3778 45.5218 41.3778C45.1506 41.3778 44.8192 41.4557 44.5275 41.6115C44.2392 41.764 44.0105 41.9761 43.8414 42.2479C43.6757 42.5163 43.5929 42.8229 43.5929 43.1676V48H42.4196ZM47.6286 48V40.3636H48.8018V48H47.6286ZM48.2251 39.0909C47.9964 39.0909 47.7992 39.013 47.6335 38.8572C47.4711 38.7015 47.3899 38.5142 47.3899 38.2955C47.3899 38.0767 47.4711 37.8894 47.6335 37.7337C47.7992 37.5779 47.9964 37.5 48.2251 37.5C48.4538 37.5 48.6494 37.5779 48.8118 37.7337C48.9775 37.8894 49.0604 38.0767 49.0604 38.2955C49.0604 38.5142 48.9775 38.7015 48.8118 38.8572C48.6494 39.013 48.4538 39.0909 48.2251 39.0909ZM50.9508 50.8636V40.3636H52.0843V41.5767H52.2235C52.3097 41.4441 52.429 41.2751 52.5815 41.0696C52.7373 40.8608 52.9593 40.6752 53.2477 40.5128C53.5394 40.3471 53.9338 40.2642 54.4309 40.2642C55.0739 40.2642 55.6407 40.425 56.1312 40.7464C56.6217 41.0679 57.0046 41.5237 57.2797 42.1136C57.5547 42.7036 57.6923 43.3996 57.6923 44.2017C57.6923 45.0104 57.5547 45.7114 57.2797 46.3047C57.0046 46.8946 56.6234 47.352 56.1362 47.6768C55.649 47.9983 55.0872 48.1591 54.4508 48.1591C53.9603 48.1591 53.5675 48.0779 53.2725 47.9155C52.9776 47.7498 52.7505 47.5625 52.5914 47.3537C52.4324 47.1416 52.3097 46.9659 52.2235 46.8267H52.1241V50.8636H50.9508ZM52.1042 44.1818C52.1042 44.7585 52.1887 45.2673 52.3578 45.7081C52.5268 46.1456 52.7737 46.4886 53.0985 46.7372C53.4234 46.9825 53.8211 47.1051 54.2917 47.1051C54.7823 47.1051 55.1916 46.9759 55.5197 46.7173C55.8511 46.4555 56.0997 46.1042 56.2654 45.6634C56.4345 45.2192 56.519 44.7254 56.519 44.1818C56.519 43.6449 56.4361 43.161 56.2704 42.7301C56.108 42.2959 55.8611 41.9529 55.5297 41.701C55.2015 41.4458 54.7889 41.3182 54.2917 41.3182C53.8145 41.3182 53.4134 41.4392 53.0886 41.6811C52.7638 41.9197 52.5185 42.2545 52.3528 42.6854C52.1871 43.1129 52.1042 43.6117 52.1042 44.1818ZM62.8031 40.3636V41.358H58.8457V40.3636H62.8031ZM59.9991 38.5341H61.1724V45.8125C61.1724 46.1439 61.2205 46.3925 61.3166 46.5582C61.416 46.7206 61.542 46.83 61.6944 46.8864C61.8502 46.9394 62.0143 46.9659 62.1866 46.9659C62.3159 46.9659 62.4219 46.9593 62.5048 46.946C62.5877 46.9295 62.6539 46.9162 62.7037 46.9062L62.9423 47.9602C62.8627 47.9901 62.7517 48.0199 62.6092 48.0497C62.4667 48.0829 62.286 48.0994 62.0673 48.0994C61.7359 48.0994 61.411 48.0282 61.0929 47.8857C60.778 47.7431 60.5162 47.526 60.3074 47.2344C60.1019 46.9427 59.9991 46.5748 59.9991 46.1307V38.5341ZM64.568 48V40.3636H65.7413V48H64.568ZM65.1646 39.0909C64.9359 39.0909 64.7387 39.013 64.573 38.8572C64.4106 38.7015 64.3294 38.5142 64.3294 38.2955C64.3294 38.0767 64.4106 37.8894 64.573 37.7337C64.7387 37.5779 64.9359 37.5 65.1646 37.5C65.3933 37.5 65.5888 37.5779 65.7512 37.7337C65.917 37.8894 65.9998 38.0767 65.9998 38.2955C65.9998 38.5142 65.917 38.7015 65.7512 38.8572C65.5888 39.013 65.3933 39.0909 65.1646 39.0909ZM70.9925 48.1591C70.3031 48.1591 69.6983 47.995 69.1779 47.6669C68.6609 47.3388 68.2565 46.8797 67.9648 46.2898C67.6765 45.6998 67.5323 45.0104 67.5323 44.2216C67.5323 43.4261 67.6765 42.7318 67.9648 42.1385C68.2565 41.5452 68.6609 41.0845 69.1779 40.7564C69.6983 40.4283 70.3031 40.2642 70.9925 40.2642C71.6819 40.2642 72.2852 40.4283 72.8022 40.7564C73.3226 41.0845 73.7269 41.5452 74.0153 42.1385C74.3069 42.7318 74.4528 43.4261 74.4528 44.2216C74.4528 45.0104 74.3069 45.6998 74.0153 46.2898C73.7269 46.8797 73.3226 47.3388 72.8022 47.6669C72.2852 47.995 71.6819 48.1591 70.9925 48.1591ZM70.9925 47.1051C71.5162 47.1051 71.9471 46.9709 72.2852 46.7024C72.6232 46.4339 72.8735 46.081 73.0359 45.6435C73.1983 45.206 73.2795 44.732 73.2795 44.2216C73.2795 43.7112 73.1983 43.2356 73.0359 42.7947C72.8735 42.3539 72.6232 41.9976 72.2852 41.7259C71.9471 41.4541 71.5162 41.3182 70.9925 41.3182C70.4689 41.3182 70.038 41.4541 69.6999 41.7259C69.3619 41.9976 69.1116 42.3539 68.9492 42.7947C68.7868 43.2356 68.7056 43.7112 68.7056 44.2216C68.7056 44.732 68.7868 45.206 68.9492 45.6435C69.1116 46.081 69.3619 46.4339 69.6999 46.7024C70.038 46.9709 70.4689 47.1051 70.9925 47.1051ZM77.4171 43.4062V48H76.2438V40.3636H77.3773V41.5568H77.4767C77.6557 41.169 77.9275 40.8575 78.2921 40.6222C78.6567 40.3835 79.1273 40.2642 79.704 40.2642C80.2211 40.2642 80.6735 40.3703 81.0613 40.5824C81.449 40.7912 81.7507 41.1094 81.9661 41.5369C82.1815 41.9612 82.2892 42.4981 82.2892 43.1477V48H81.1159V43.2273C81.1159 42.6274 80.9602 42.16 80.6486 41.8253C80.3371 41.4872 79.9095 41.3182 79.3659 41.3182C78.9914 41.3182 78.6567 41.3994 78.3617 41.5618C78.07 41.7242 77.8397 41.9612 77.6706 42.2727C77.5016 42.5843 77.4171 42.9621 77.4171 43.4062Z" fill="#032B3A"/>
<path d="M145.375 48H142.233V37.8182H145.514C146.502 37.8182 147.347 38.022 148.05 38.4297C148.752 38.834 149.291 39.4157 149.665 40.1747C150.04 40.9304 150.227 41.8352 150.227 42.8892C150.227 43.9498 150.038 44.8629 149.661 45.6286C149.283 46.3909 148.732 46.9775 148.01 47.3885C147.287 47.7962 146.409 48 145.375 48ZM143.466 46.9062H145.295C146.137 46.9062 146.835 46.7438 147.388 46.419C147.942 46.0942 148.355 45.6319 148.626 45.032C148.898 44.4321 149.034 43.7178 149.034 42.8892C149.034 42.0672 148.9 41.3596 148.631 40.7663C148.363 40.1697 147.962 39.7124 147.428 39.3942C146.895 39.0727 146.23 38.9119 145.435 38.9119H143.466V46.9062ZM154.384 48.179C153.9 48.179 153.46 48.0878 153.066 47.9055C152.672 47.7199 152.358 47.4531 152.126 47.1051C151.894 46.7538 151.778 46.3295 151.778 45.8324C151.778 45.3949 151.865 45.0402 152.037 44.7685C152.209 44.4934 152.44 44.2779 152.728 44.1222C153.016 43.9664 153.335 43.8504 153.683 43.7741C154.034 43.6946 154.387 43.6316 154.741 43.5852C155.205 43.5256 155.582 43.4808 155.87 43.451C156.162 43.4179 156.374 43.3632 156.506 43.2869C156.642 43.2107 156.71 43.0781 156.71 42.8892V42.8494C156.71 42.3589 156.576 41.9777 156.308 41.706C156.042 41.4342 155.64 41.2983 155.099 41.2983C154.539 41.2983 154.1 41.4209 153.782 41.6662C153.464 41.9115 153.24 42.1733 153.111 42.4517L151.997 42.054C152.196 41.59 152.461 41.2287 152.793 40.9702C153.127 40.7083 153.492 40.526 153.886 40.4233C154.284 40.3172 154.675 40.2642 155.06 40.2642C155.305 40.2642 155.587 40.294 155.905 40.3537C156.226 40.41 156.536 40.5277 156.835 40.7067C157.136 40.8857 157.386 41.1558 157.585 41.517C157.784 41.8783 157.884 42.3622 157.884 42.9688V48H156.71V46.9659H156.651C156.571 47.1316 156.438 47.3089 156.253 47.4979C156.067 47.6868 155.82 47.8475 155.512 47.9801C155.204 48.1127 154.828 48.179 154.384 48.179ZM154.562 47.125C155.027 47.125 155.418 47.0339 155.736 46.8516C156.057 46.6693 156.299 46.4339 156.462 46.1456C156.627 45.8572 156.71 45.554 156.71 45.2358V44.1619C156.661 44.2216 156.551 44.2763 156.382 44.326C156.216 44.3724 156.024 44.4138 155.805 44.4503C155.59 44.4834 155.379 44.5133 155.174 44.5398C154.972 44.563 154.808 44.5829 154.682 44.5994C154.377 44.6392 154.092 44.7038 153.827 44.7933C153.565 44.8795 153.353 45.0104 153.19 45.1861C153.031 45.3584 152.952 45.5937 152.952 45.892C152.952 46.2997 153.103 46.608 153.404 46.8168C153.709 47.0223 154.095 47.125 154.562 47.125ZM163.346 40.3636V41.358H159.389V40.3636H163.346ZM160.542 38.5341H161.715V45.8125C161.715 46.1439 161.763 46.3925 161.86 46.5582C161.959 46.7206 162.085 46.83 162.237 46.8864C162.393 46.9394 162.557 46.9659 162.73 46.9659C162.859 46.9659 162.965 46.9593 163.048 46.946C163.131 46.9295 163.197 46.9162 163.247 46.9062L163.485 47.9602C163.406 47.9901 163.295 48.0199 163.152 48.0497C163.01 48.0829 162.829 48.0994 162.61 48.0994C162.279 48.0994 161.954 48.0282 161.636 47.8857C161.321 47.7431 161.059 47.526 160.85 47.2344C160.645 46.9427 160.542 46.5748 160.542 46.1307V38.5341ZM167.358 48.179C166.874 48.179 166.435 48.0878 166.041 47.9055C165.646 47.7199 165.333 47.4531 165.101 47.1051C164.869 46.7538 164.753 46.3295 164.753 45.8324C164.753 45.3949 164.839 45.0402 165.012 44.7685C165.184 44.4934 165.414 44.2779 165.703 44.1222C165.991 43.9664 166.309 43.8504 166.657 43.7741C167.008 43.6946 167.361 43.6316 167.716 43.5852C168.18 43.5256 168.556 43.4808 168.845 43.451C169.136 43.4179 169.348 43.3632 169.481 43.2869C169.617 43.2107 169.685 43.0781 169.685 42.8892V42.8494C169.685 42.3589 169.551 41.9777 169.282 41.706C169.017 41.4342 168.614 41.2983 168.074 41.2983C167.514 41.2983 167.075 41.4209 166.757 41.6662C166.438 41.9115 166.215 42.1733 166.085 42.4517L164.972 42.054C165.171 41.59 165.436 41.2287 165.767 40.9702C166.102 40.7083 166.467 40.526 166.861 40.4233C167.259 40.3172 167.65 40.2642 168.034 40.2642C168.28 40.2642 168.561 40.294 168.879 40.3537C169.201 40.41 169.511 40.5277 169.809 40.7067C170.111 40.8857 170.361 41.1558 170.56 41.517C170.759 41.8783 170.858 42.3622 170.858 42.9688V48H169.685V46.9659H169.625C169.546 47.1316 169.413 47.3089 169.227 47.4979C169.042 47.6868 168.795 47.8475 168.487 47.9801C168.178 48.1127 167.802 48.179 167.358 48.179ZM167.537 47.125C168.001 47.125 168.392 47.0339 168.71 46.8516C169.032 46.6693 169.274 46.4339 169.436 46.1456C169.602 45.8572 169.685 45.554 169.685 45.2358V44.1619C169.635 44.2216 169.526 44.2763 169.357 44.326C169.191 44.3724 168.999 44.4138 168.78 44.4503C168.565 44.4834 168.354 44.5133 168.149 44.5398C167.946 44.563 167.782 44.5829 167.656 44.5994C167.352 44.6392 167.066 44.7038 166.801 44.7933C166.539 44.8795 166.327 45.0104 166.165 45.1861C166.006 45.3584 165.926 45.5937 165.926 45.892C165.926 46.2997 166.077 46.608 166.379 46.8168C166.684 47.0223 167.07 47.125 167.537 47.125Z" fill="#233D48"/>
<rect x="8" y="56" width="258" height="1" fill="#DADFE2"/>
</g>
<g clip-path="url(#clip2_1_40831)">
<path d="M12.375 74H9.23295V63.8182H12.5142C13.5019 63.8182 14.3471 64.022 15.0497 64.4297C15.7524 64.834 16.291 65.4157 16.6655 66.1747C17.04 66.9304 17.2273 67.8352 17.2273 68.8892C17.2273 69.9498 17.0384 70.8629 16.6605 71.6286C16.2827 72.3909 15.7325 72.9775 15.0099 73.3885C14.2874 73.7962 13.4091 74 12.375 74ZM10.4659 72.9062H12.2955C13.1373 72.9062 13.835 72.7438 14.3885 72.419C14.942 72.0942 15.3546 71.6319 15.6264 71.032C15.8982 70.4321 16.0341 69.7178 16.0341 68.8892C16.0341 68.0672 15.8999 67.3596 15.6314 66.7663C15.3629 66.1697 14.9619 65.7124 14.4283 65.3942C13.8946 65.0727 13.2301 64.9119 12.4347 64.9119H10.4659V72.9062ZM22.3381 74.1591C21.6023 74.1591 20.9676 73.9967 20.4339 73.6719C19.9036 73.3438 19.4943 72.8864 19.206 72.2997C18.9209 71.7098 18.7784 71.0237 18.7784 70.2415C18.7784 69.4593 18.9209 68.7699 19.206 68.1733C19.4943 67.5734 19.8954 67.1061 20.4091 66.7713C20.9261 66.4332 21.5294 66.2642 22.2188 66.2642C22.6165 66.2642 23.0092 66.3305 23.397 66.4631C23.7848 66.5956 24.1378 66.8111 24.456 67.1094C24.7741 67.4044 25.0277 67.7955 25.2166 68.2827C25.4055 68.7699 25.5 69.3698 25.5 70.0824V70.5795H19.6136V69.5653H24.3068C24.3068 69.1345 24.2206 68.75 24.0483 68.4119C23.8793 68.0739 23.6373 67.8071 23.3224 67.6115C23.0109 67.416 22.643 67.3182 22.2188 67.3182C21.7514 67.3182 21.3471 67.4342 21.0057 67.6662C20.6676 67.8949 20.4074 68.1932 20.2251 68.5611C20.0429 68.929 19.9517 69.3234 19.9517 69.7443V70.4205C19.9517 70.9972 20.0511 71.486 20.25 71.8871C20.4522 72.2848 20.7322 72.5881 21.0902 72.7969C21.4482 73.0024 21.8641 73.1051 22.3381 73.1051C22.6463 73.1051 22.9247 73.062 23.1733 72.9759C23.4252 72.8864 23.6423 72.7538 23.8246 72.5781C24.0069 72.3991 24.1477 72.1771 24.2472 71.9119L25.3807 72.2301C25.2614 72.6146 25.0608 72.9527 24.7791 73.2443C24.4974 73.5327 24.1494 73.758 23.7351 73.9205C23.3208 74.0795 22.8551 74.1591 22.3381 74.1591ZM32.6939 68.0739L31.6399 68.3722C31.5736 68.1965 31.4759 68.0258 31.3466 67.8601C31.2206 67.6911 31.0483 67.5518 30.8295 67.4425C30.6108 67.3331 30.3307 67.2784 29.9893 67.2784C29.522 67.2784 29.1326 67.3861 28.821 67.6016C28.5128 67.8137 28.3587 68.0838 28.3587 68.4119C28.3587 68.7036 28.4647 68.9339 28.6768 69.103C28.889 69.272 29.2204 69.4129 29.6712 69.5256L30.8047 69.804C31.4875 69.9697 31.9962 70.2232 32.331 70.5646C32.6657 70.9027 32.8331 71.3385 32.8331 71.8722C32.8331 72.3097 32.7071 72.7008 32.4553 73.0455C32.2067 73.3902 31.8587 73.6619 31.4112 73.8608C30.9638 74.0597 30.4434 74.1591 29.8501 74.1591C29.0713 74.1591 28.4266 73.9901 27.9162 73.652C27.4058 73.3139 27.0826 72.8201 26.9467 72.1705L28.0604 71.892C28.1664 72.303 28.367 72.6113 28.6619 72.8168C28.9602 73.0223 29.3497 73.125 29.8303 73.125C30.3771 73.125 30.8113 73.009 31.1328 72.777C31.4576 72.5417 31.62 72.2599 31.62 71.9318C31.62 71.6667 31.5272 71.4446 31.3416 71.2656C31.156 71.0833 30.871 70.9474 30.4865 70.858L29.2138 70.5597C28.5144 70.3939 28.0007 70.1371 27.6726 69.7891C27.3478 69.4377 27.1854 68.9986 27.1854 68.4716C27.1854 68.0407 27.3063 67.6596 27.5483 67.3281C27.7936 66.9967 28.1267 66.7365 28.5476 66.5476C28.9718 66.3587 29.4524 66.2642 29.9893 66.2642C30.745 66.2642 31.3383 66.4299 31.7692 66.7614C32.2034 67.0928 32.5116 67.5303 32.6939 68.0739ZM37.7015 74.1591C36.9856 74.1591 36.3691 73.9901 35.8521 73.652C35.335 73.3139 34.9373 72.8482 34.6589 72.255C34.3805 71.6617 34.2413 70.9839 34.2413 70.2216C34.2413 69.446 34.3838 68.7616 34.6689 68.1683C34.9572 67.5717 35.3583 67.1061 35.872 66.7713C36.389 66.4332 36.9922 66.2642 37.6816 66.2642C38.2186 66.2642 38.7025 66.3636 39.1333 66.5625C39.5642 66.7614 39.9172 67.0398 40.1923 67.3977C40.4674 67.7557 40.6381 68.1733 40.7044 68.6506H39.5311C39.4416 68.3026 39.2427 67.9943 38.9345 67.7259C38.6296 67.4541 38.2186 67.3182 37.7015 67.3182C37.2441 67.3182 36.8431 67.4375 36.4984 67.6761C36.157 67.9115 35.8902 68.2446 35.698 68.6754C35.5091 69.103 35.4146 69.6051 35.4146 70.1818C35.4146 70.7718 35.5074 71.2855 35.693 71.723C35.8819 72.1605 36.1471 72.5002 36.4885 72.7422C36.8332 72.9841 37.2375 73.1051 37.7015 73.1051C38.0065 73.1051 38.2832 73.0521 38.5318 72.946C38.7804 72.84 38.9908 72.6875 39.1632 72.4886C39.3355 72.2898 39.4582 72.0511 39.5311 71.7727H40.7044C40.6381 72.2235 40.474 72.6295 40.2122 72.9908C39.9537 73.3487 39.6106 73.6338 39.1831 73.8459C38.7588 74.0547 38.265 74.1591 37.7015 74.1591ZM42.4196 74V66.3636H43.5531V67.517H43.6326C43.7718 67.1392 44.0237 66.8326 44.3883 66.5973C44.7529 66.362 45.1639 66.2443 45.6213 66.2443C45.7074 66.2443 45.8152 66.246 45.9444 66.2493C46.0737 66.2526 46.1715 66.2576 46.2377 66.2642V67.4574C46.198 67.4474 46.1068 67.4325 45.9643 67.4126C45.8251 67.3894 45.6776 67.3778 45.5218 67.3778C45.1506 67.3778 44.8192 67.4557 44.5275 67.6115C44.2392 67.764 44.0105 67.9761 43.8414 68.2479C43.6757 68.5163 43.5929 68.8229 43.5929 69.1676V74H42.4196ZM47.6286 74V66.3636H48.8018V74H47.6286ZM48.2251 65.0909C47.9964 65.0909 47.7992 65.013 47.6335 64.8572C47.4711 64.7015 47.3899 64.5142 47.3899 64.2955C47.3899 64.0767 47.4711 63.8894 47.6335 63.7337C47.7992 63.5779 47.9964 63.5 48.2251 63.5C48.4538 63.5 48.6494 63.5779 48.8118 63.7337C48.9775 63.8894 49.0604 64.0767 49.0604 64.2955C49.0604 64.5142 48.9775 64.7015 48.8118 64.8572C48.6494 65.013 48.4538 65.0909 48.2251 65.0909ZM50.9508 76.8636V66.3636H52.0843V67.5767H52.2235C52.3097 67.4441 52.429 67.2751 52.5815 67.0696C52.7373 66.8608 52.9593 66.6752 53.2477 66.5128C53.5394 66.3471 53.9338 66.2642 54.4309 66.2642C55.0739 66.2642 55.6407 66.425 56.1312 66.7464C56.6217 67.0679 57.0046 67.5237 57.2797 68.1136C57.5547 68.7036 57.6923 69.3996 57.6923 70.2017C57.6923 71.0104 57.5547 71.7114 57.2797 72.3047C57.0046 72.8946 56.6234 73.352 56.1362 73.6768C55.649 73.9983 55.0872 74.1591 54.4508 74.1591C53.9603 74.1591 53.5675 74.0779 53.2725 73.9155C52.9776 73.7498 52.7505 73.5625 52.5914 73.3537C52.4324 73.1416 52.3097 72.9659 52.2235 72.8267H52.1241V76.8636H50.9508ZM52.1042 70.1818C52.1042 70.7585 52.1887 71.2673 52.3578 71.7081C52.5268 72.1456 52.7737 72.4886 53.0985 72.7372C53.4234 72.9825 53.8211 73.1051 54.2917 73.1051C54.7823 73.1051 55.1916 72.9759 55.5197 72.7173C55.8511 72.4555 56.0997 72.1042 56.2654 71.6634C56.4345 71.2192 56.519 70.7254 56.519 70.1818C56.519 69.6449 56.4361 69.161 56.2704 68.7301C56.108 68.2959 55.8611 67.9529 55.5297 67.701C55.2015 67.4458 54.7889 67.3182 54.2917 67.3182C53.8145 67.3182 53.4134 67.4392 53.0886 67.6811C52.7638 67.9197 52.5185 68.2545 52.3528 68.6854C52.1871 69.1129 52.1042 69.6117 52.1042 70.1818ZM62.8031 66.3636V67.358H58.8457V66.3636H62.8031ZM59.9991 64.5341H61.1724V71.8125C61.1724 72.1439 61.2205 72.3925 61.3166 72.5582C61.416 72.7206 61.542 72.83 61.6944 72.8864C61.8502 72.9394 62.0143 72.9659 62.1866 72.9659C62.3159 72.9659 62.4219 72.9593 62.5048 72.946C62.5877 72.9295 62.6539 72.9162 62.7037 72.9062L62.9423 73.9602C62.8627 73.9901 62.7517 74.0199 62.6092 74.0497C62.4667 74.0829 62.286 74.0994 62.0673 74.0994C61.7359 74.0994 61.411 74.0282 61.0929 73.8857C60.778 73.7431 60.5162 73.526 60.3074 73.2344C60.1019 72.9427 59.9991 72.5748 59.9991 72.1307V64.5341ZM64.568 74V66.3636H65.7413V74H64.568ZM65.1646 65.0909C64.9359 65.0909 64.7387 65.013 64.573 64.8572C64.4106 64.7015 64.3294 64.5142 64.3294 64.2955C64.3294 64.0767 64.4106 63.8894 64.573 63.7337C64.7387 63.5779 64.9359 63.5 65.1646 63.5C65.3933 63.5 65.5888 63.5779 65.7512 63.7337C65.917 63.8894 65.9998 64.0767 65.9998 64.2955C65.9998 64.5142 65.917 64.7015 65.7512 64.8572C65.5888 65.013 65.3933 65.0909 65.1646 65.0909ZM70.9925 74.1591C70.3031 74.1591 69.6983 73.995 69.1779 73.6669C68.6609 73.3388 68.2565 72.8797 67.9648 72.2898C67.6765 71.6998 67.5323 71.0104 67.5323 70.2216C67.5323 69.4261 67.6765 68.7318 67.9648 68.1385C68.2565 67.5452 68.6609 67.0845 69.1779 66.7564C69.6983 66.4283 70.3031 66.2642 70.9925 66.2642C71.6819 66.2642 72.2852 66.4283 72.8022 66.7564C73.3226 67.0845 73.7269 67.5452 74.0153 68.1385C74.3069 68.7318 74.4528 69.4261 74.4528 70.2216C74.4528 71.0104 74.3069 71.6998 74.0153 72.2898C73.7269 72.8797 73.3226 73.3388 72.8022 73.6669C72.2852 73.995 71.6819 74.1591 70.9925 74.1591ZM70.9925 73.1051C71.5162 73.1051 71.9471 72.9709 72.2852 72.7024C72.6232 72.4339 72.8735 72.081 73.0359 71.6435C73.1983 71.206 73.2795 70.732 73.2795 70.2216C73.2795 69.7112 73.1983 69.2356 73.0359 68.7947C72.8735 68.3539 72.6232 67.9976 72.2852 67.7259C71.9471 67.4541 71.5162 67.3182 70.9925 67.3182C70.4689 67.3182 70.038 67.4541 69.6999 67.7259C69.3619 67.9976 69.1116 68.3539 68.9492 68.7947C68.7868 69.2356 68.7056 69.7112 68.7056 70.2216C68.7056 70.732 68.7868 71.206 68.9492 71.6435C69.1116 72.081 69.3619 72.4339 69.6999 72.7024C70.038 72.9709 70.4689 73.1051 70.9925 73.1051ZM77.4171 69.4062V74H76.2438V66.3636H77.3773V67.5568H77.4767C77.6557 67.169 77.9275 66.8575 78.2921 66.6222C78.6567 66.3835 79.1273 66.2642 79.704 66.2642C80.2211 66.2642 80.6735 66.3703 81.0613 66.5824C81.449 66.7912 81.7507 67.1094 81.9661 67.5369C82.1815 67.9612 82.2892 68.4981 82.2892 69.1477V74H81.1159V69.2273C81.1159 68.6274 80.9602 68.16 80.6486 67.8253C80.3371 67.4872 79.9095 67.3182 79.3659 67.3182C78.9914 67.3182 78.6567 67.3994 78.3617 67.5618C78.07 67.7242 77.8397 67.9612 77.6706 68.2727C77.5016 68.5843 77.4171 68.9621 77.4171 69.4062Z" fill="#032B3A"/>
<path d="M145.375 74H142.233V63.8182H145.514C146.502 63.8182 147.347 64.022 148.05 64.4297C148.752 64.834 149.291 65.4157 149.665 66.1747C150.04 66.9304 150.227 67.8352 150.227 68.8892C150.227 69.9498 150.038 70.8629 149.661 71.6286C149.283 72.3909 148.732 72.9775 148.01 73.3885C147.287 73.7962 146.409 74 145.375 74ZM143.466 72.9062H145.295C146.137 72.9062 146.835 72.7438 147.388 72.419C147.942 72.0942 148.355 71.6319 148.626 71.032C148.898 70.4321 149.034 69.7178 149.034 68.8892C149.034 68.0672 148.9 67.3596 148.631 66.7663C148.363 66.1697 147.962 65.7124 147.428 65.3942C146.895 65.0727 146.23 64.9119 145.435 64.9119H143.466V72.9062ZM154.384 74.179C153.9 74.179 153.46 74.0878 153.066 73.9055C152.672 73.7199 152.358 73.4531 152.126 73.1051C151.894 72.7538 151.778 72.3295 151.778 71.8324C151.778 71.3949 151.865 71.0402 152.037 70.7685C152.209 70.4934 152.44 70.2779 152.728 70.1222C153.016 69.9664 153.335 69.8504 153.683 69.7741C154.034 69.6946 154.387 69.6316 154.741 69.5852C155.205 69.5256 155.582 69.4808 155.87 69.451C156.162 69.4179 156.374 69.3632 156.506 69.2869C156.642 69.2107 156.71 69.0781 156.71 68.8892V68.8494C156.71 68.3589 156.576 67.9777 156.308 67.706C156.042 67.4342 155.64 67.2983 155.099 67.2983C154.539 67.2983 154.1 67.4209 153.782 67.6662C153.464 67.9115 153.24 68.1733 153.111 68.4517L151.997 68.054C152.196 67.59 152.461 67.2287 152.793 66.9702C153.127 66.7083 153.492 66.526 153.886 66.4233C154.284 66.3172 154.675 66.2642 155.06 66.2642C155.305 66.2642 155.587 66.294 155.905 66.3537C156.226 66.41 156.536 66.5277 156.835 66.7067C157.136 66.8857 157.386 67.1558 157.585 67.517C157.784 67.8783 157.884 68.3622 157.884 68.9688V74H156.71V72.9659H156.651C156.571 73.1316 156.438 73.3089 156.253 73.4979C156.067 73.6868 155.82 73.8475 155.512 73.9801C155.204 74.1127 154.828 74.179 154.384 74.179ZM154.562 73.125C155.027 73.125 155.418 73.0339 155.736 72.8516C156.057 72.6693 156.299 72.4339 156.462 72.1456C156.627 71.8572 156.71 71.554 156.71 71.2358V70.1619C156.661 70.2216 156.551 70.2763 156.382 70.326C156.216 70.3724 156.024 70.4138 155.805 70.4503C155.59 70.4834 155.379 70.5133 155.174 70.5398C154.972 70.563 154.808 70.5829 154.682 70.5994C154.377 70.6392 154.092 70.7038 153.827 70.7933C153.565 70.8795 153.353 71.0104 153.19 71.1861C153.031 71.3584 152.952 71.5937 152.952 71.892C152.952 72.2997 153.103 72.608 153.404 72.8168C153.709 73.0223 154.095 73.125 154.562 73.125ZM163.346 66.3636V67.358H159.389V66.3636H163.346ZM160.542 64.5341H161.715V71.8125C161.715 72.1439 161.763 72.3925 161.86 72.5582C161.959 72.7206 162.085 72.83 162.237 72.8864C162.393 72.9394 162.557 72.9659 162.73 72.9659C162.859 72.9659 162.965 72.9593 163.048 72.946C163.131 72.9295 163.197 72.9162 163.247 72.9062L163.485 73.9602C163.406 73.9901 163.295 74.0199 163.152 74.0497C163.01 74.0829 162.829 74.0994 162.61 74.0994C162.279 74.0994 161.954 74.0282 161.636 73.8857C161.321 73.7431 161.059 73.526 160.85 73.2344C160.645 72.9427 160.542 72.5748 160.542 72.1307V64.5341ZM167.358 74.179C166.874 74.179 166.435 74.0878 166.041 73.9055C165.646 73.7199 165.333 73.4531 165.101 73.1051C164.869 72.7538 164.753 72.3295 164.753 71.8324C164.753 71.3949 164.839 71.0402 165.012 70.7685C165.184 70.4934 165.414 70.2779 165.703 70.1222C165.991 69.9664 166.309 69.8504 166.657 69.7741C167.008 69.6946 167.361 69.6316 167.716 69.5852C168.18 69.5256 168.556 69.4808 168.845 69.451C169.136 69.4179 169.348 69.3632 169.481 69.2869C169.617 69.2107 169.685 69.0781 169.685 68.8892V68.8494C169.685 68.3589 169.551 67.9777 169.282 67.706C169.017 67.4342 168.614 67.2983 168.074 67.2983C167.514 67.2983 167.075 67.4209 166.757 67.6662C166.438 67.9115 166.215 68.1733 166.085 68.4517L164.972 68.054C165.171 67.59 165.436 67.2287 165.767 66.9702C166.102 66.7083 166.467 66.526 166.861 66.4233C167.259 66.3172 167.65 66.2642 168.034 66.2642C168.28 66.2642 168.561 66.294 168.879 66.3537C169.201 66.41 169.511 66.5277 169.809 66.7067C170.111 66.8857 170.361 67.1558 170.56 67.517C170.759 67.8783 170.858 68.3622 170.858 68.9688V74H169.685V72.9659H169.625C169.546 73.1316 169.413 73.3089 169.227 73.4979C169.042 73.6868 168.795 73.8475 168.487 73.9801C168.178 74.1127 167.802 74.179 167.358 74.179ZM167.537 73.125C168.001 73.125 168.392 73.0339 168.71 72.8516C169.032 72.6693 169.274 72.4339 169.436 72.1456C169.602 71.8572 169.685 71.554 169.685 71.2358V70.1619C169.635 70.2216 169.526 70.2763 169.357 70.326C169.191 70.3724 168.999 70.4138 168.78 70.4503C168.565 70.4834 168.354 70.5133 168.149 70.5398C167.946 70.563 167.782 70.5829 167.656 70.5994C167.352 70.6392 167.066 70.7038 166.801 70.7933C166.539 70.8795 166.327 71.0104 166.165 71.1861C166.006 71.3584 165.926 71.5937 165.926 71.892C165.926 72.2997 166.077 72.608 166.379 72.8168C166.684 73.0223 167.07 73.125 167.537 73.125Z" fill="#233D48"/>
<rect x="8" y="82" width="258" height="1" fill="#DADFE2"/>
</g>
<g clip-path="url(#clip3_1_40831)">
<path d="M12.375 100H9.23295V89.8182H12.5142C13.5019 89.8182 14.3471 90.022 15.0497 90.4297C15.7524 90.834 16.291 91.4157 16.6655 92.1747C17.04 92.9304 17.2273 93.8352 17.2273 94.8892C17.2273 95.9498 17.0384 96.8629 16.6605 97.6286C16.2827 98.3909 15.7325 98.9775 15.0099 99.3885C14.2874 99.7962 13.4091 100 12.375 100ZM10.4659 98.9062H12.2955C13.1373 98.9062 13.835 98.7438 14.3885 98.419C14.942 98.0942 15.3546 97.6319 15.6264 97.032C15.8982 96.4321 16.0341 95.7178 16.0341 94.8892C16.0341 94.0672 15.8999 93.3596 15.6314 92.7663C15.3629 92.1697 14.9619 91.7124 14.4283 91.3942C13.8946 91.0727 13.2301 90.9119 12.4347 90.9119H10.4659V98.9062ZM22.3381 100.159C21.6023 100.159 20.9676 99.9967 20.4339 99.6719C19.9036 99.3438 19.4943 98.8864 19.206 98.2997C18.9209 97.7098 18.7784 97.0237 18.7784 96.2415C18.7784 95.4593 18.9209 94.7699 19.206 94.1733C19.4943 93.5734 19.8954 93.1061 20.4091 92.7713C20.9261 92.4332 21.5294 92.2642 22.2188 92.2642C22.6165 92.2642 23.0092 92.3305 23.397 92.4631C23.7848 92.5956 24.1378 92.8111 24.456 93.1094C24.7741 93.4044 25.0277 93.7955 25.2166 94.2827C25.4055 94.7699 25.5 95.3698 25.5 96.0824V96.5795H19.6136V95.5653H24.3068C24.3068 95.1345 24.2206 94.75 24.0483 94.4119C23.8793 94.0739 23.6373 93.8071 23.3224 93.6115C23.0109 93.416 22.643 93.3182 22.2188 93.3182C21.7514 93.3182 21.3471 93.4342 21.0057 93.6662C20.6676 93.8949 20.4074 94.1932 20.2251 94.5611C20.0429 94.929 19.9517 95.3234 19.9517 95.7443V96.4205C19.9517 96.9972 20.0511 97.486 20.25 97.8871C20.4522 98.2848 20.7322 98.5881 21.0902 98.7969C21.4482 99.0024 21.8641 99.1051 22.3381 99.1051C22.6463 99.1051 22.9247 99.062 23.1733 98.9759C23.4252 98.8864 23.6423 98.7538 23.8246 98.5781C24.0069 98.3991 24.1477 98.1771 24.2472 97.9119L25.3807 98.2301C25.2614 98.6146 25.0608 98.9527 24.7791 99.2443C24.4974 99.5327 24.1494 99.758 23.7351 99.9205C23.3208 100.08 22.8551 100.159 22.3381 100.159ZM32.6939 94.0739L31.6399 94.3722C31.5736 94.1965 31.4759 94.0258 31.3466 93.8601C31.2206 93.6911 31.0483 93.5518 30.8295 93.4425C30.6108 93.3331 30.3307 93.2784 29.9893 93.2784C29.522 93.2784 29.1326 93.3861 28.821 93.6016C28.5128 93.8137 28.3587 94.0838 28.3587 94.4119C28.3587 94.7036 28.4647 94.9339 28.6768 95.103C28.889 95.272 29.2204 95.4129 29.6712 95.5256L30.8047 95.804C31.4875 95.9697 31.9962 96.2232 32.331 96.5646C32.6657 96.9027 32.8331 97.3385 32.8331 97.8722C32.8331 98.3097 32.7071 98.7008 32.4553 99.0455C32.2067 99.3902 31.8587 99.6619 31.4112 99.8608C30.9638 100.06 30.4434 100.159 29.8501 100.159C29.0713 100.159 28.4266 99.9901 27.9162 99.652C27.4058 99.3139 27.0826 98.8201 26.9467 98.1705L28.0604 97.892C28.1664 98.303 28.367 98.6113 28.6619 98.8168C28.9602 99.0223 29.3497 99.125 29.8303 99.125C30.3771 99.125 30.8113 99.009 31.1328 98.777C31.4576 98.5417 31.62 98.2599 31.62 97.9318C31.62 97.6667 31.5272 97.4446 31.3416 97.2656C31.156 97.0833 30.871 96.9474 30.4865 96.858L29.2138 96.5597C28.5144 96.3939 28.0007 96.1371 27.6726 95.7891C27.3478 95.4377 27.1854 94.9986 27.1854 94.4716C27.1854 94.0407 27.3063 93.6596 27.5483 93.3281C27.7936 92.9967 28.1267 92.7365 28.5476 92.5476C28.9718 92.3587 29.4524 92.2642 29.9893 92.2642C30.745 92.2642 31.3383 92.4299 31.7692 92.7614C32.2034 93.0928 32.5116 93.5303 32.6939 94.0739ZM37.7015 100.159C36.9856 100.159 36.3691 99.9901 35.8521 99.652C35.335 99.3139 34.9373 98.8482 34.6589 98.255C34.3805 97.6617 34.2413 96.9839 34.2413 96.2216C34.2413 95.446 34.3838 94.7616 34.6689 94.1683C34.9572 93.5717 35.3583 93.1061 35.872 92.7713C36.389 92.4332 36.9922 92.2642 37.6816 92.2642C38.2186 92.2642 38.7025 92.3636 39.1333 92.5625C39.5642 92.7614 39.9172 93.0398 40.1923 93.3977C40.4674 93.7557 40.6381 94.1733 40.7044 94.6506H39.5311C39.4416 94.3026 39.2427 93.9943 38.9345 93.7259C38.6296 93.4541 38.2186 93.3182 37.7015 93.3182C37.2441 93.3182 36.8431 93.4375 36.4984 93.6761C36.157 93.9115 35.8902 94.2446 35.698 94.6754C35.5091 95.103 35.4146 95.6051 35.4146 96.1818C35.4146 96.7718 35.5074 97.2855 35.693 97.723C35.8819 98.1605 36.1471 98.5002 36.4885 98.7422C36.8332 98.9841 37.2375 99.1051 37.7015 99.1051C38.0065 99.1051 38.2832 99.0521 38.5318 98.946C38.7804 98.84 38.9908 98.6875 39.1632 98.4886C39.3355 98.2898 39.4582 98.0511 39.5311 97.7727H40.7044C40.6381 98.2235 40.474 98.6295 40.2122 98.9908C39.9537 99.3487 39.6106 99.6338 39.1831 99.8459C38.7588 100.055 38.265 100.159 37.7015 100.159ZM42.4196 100V92.3636H43.5531V93.517H43.6326C43.7718 93.1392 44.0237 92.8326 44.3883 92.5973C44.7529 92.362 45.1639 92.2443 45.6213 92.2443C45.7074 92.2443 45.8152 92.246 45.9444 92.2493C46.0737 92.2526 46.1715 92.2576 46.2377 92.2642V93.4574C46.198 93.4474 46.1068 93.4325 45.9643 93.4126C45.8251 93.3894 45.6776 93.3778 45.5218 93.3778C45.1506 93.3778 44.8192 93.4557 44.5275 93.6115C44.2392 93.764 44.0105 93.9761 43.8414 94.2479C43.6757 94.5163 43.5929 94.8229 43.5929 95.1676V100H42.4196ZM47.6286 100V92.3636H48.8018V100H47.6286ZM48.2251 91.0909C47.9964 91.0909 47.7992 91.013 47.6335 90.8572C47.4711 90.7015 47.3899 90.5142 47.3899 90.2955C47.3899 90.0767 47.4711 89.8894 47.6335 89.7337C47.7992 89.5779 47.9964 89.5 48.2251 89.5C48.4538 89.5 48.6494 89.5779 48.8118 89.7337C48.9775 89.8894 49.0604 90.0767 49.0604 90.2955C49.0604 90.5142 48.9775 90.7015 48.8118 90.8572C48.6494 91.013 48.4538 91.0909 48.2251 91.0909ZM50.9508 102.864V92.3636H52.0843V93.5767H52.2235C52.3097 93.4441 52.429 93.2751 52.5815 93.0696C52.7373 92.8608 52.9593 92.6752 53.2477 92.5128C53.5394 92.3471 53.9338 92.2642 54.4309 92.2642C55.0739 92.2642 55.6407 92.425 56.1312 92.7464C56.6217 93.0679 57.0046 93.5237 57.2797 94.1136C57.5547 94.7036 57.6923 95.3996 57.6923 96.2017C57.6923 97.0104 57.5547 97.7114 57.2797 98.3047C57.0046 98.8946 56.6234 99.352 56.1362 99.6768C55.649 99.9983 55.0872 100.159 54.4508 100.159C53.9603 100.159 53.5675 100.078 53.2725 99.9155C52.9776 99.7498 52.7505 99.5625 52.5914 99.3537C52.4324 99.1416 52.3097 98.9659 52.2235 98.8267H52.1241V102.864H50.9508ZM52.1042 96.1818C52.1042 96.7585 52.1887 97.2673 52.3578 97.7081C52.5268 98.1456 52.7737 98.4886 53.0985 98.7372C53.4234 98.9825 53.8211 99.1051 54.2917 99.1051C54.7823 99.1051 55.1916 98.9759 55.5197 98.7173C55.8511 98.4555 56.0997 98.1042 56.2654 97.6634C56.4345 97.2192 56.519 96.7254 56.519 96.1818C56.519 95.6449 56.4361 95.161 56.2704 94.7301C56.108 94.2959 55.8611 93.9529 55.5297 93.701C55.2015 93.4458 54.7889 93.3182 54.2917 93.3182C53.8145 93.3182 53.4134 93.4392 53.0886 93.6811C52.7638 93.9197 52.5185 94.2545 52.3528 94.6854C52.1871 95.1129 52.1042 95.6117 52.1042 96.1818ZM62.8031 92.3636V93.358H58.8457V92.3636H62.8031ZM59.9991 90.5341H61.1724V97.8125C61.1724 98.1439 61.2205 98.3925 61.3166 98.5582C61.416 98.7206 61.542 98.83 61.6944 98.8864C61.8502 98.9394 62.0143 98.9659 62.1866 98.9659C62.3159 98.9659 62.4219 98.9593 62.5048 98.946C62.5877 98.9295 62.6539 98.9162 62.7037 98.9062L62.9423 99.9602C62.8627 99.9901 62.7517 100.02 62.6092 100.05C62.4667 100.083 62.286 100.099 62.0673 100.099C61.7359 100.099 61.411 100.028 61.0929 99.8857C60.778 99.7431 60.5162 99.526 60.3074 99.2344C60.1019 98.9427 59.9991 98.5748 59.9991 98.1307V90.5341ZM64.568 100V92.3636H65.7413V100H64.568ZM65.1646 91.0909C64.9359 91.0909 64.7387 91.013 64.573 90.8572C64.4106 90.7015 64.3294 90.5142 64.3294 90.2955C64.3294 90.0767 64.4106 89.8894 64.573 89.7337C64.7387 89.5779 64.9359 89.5 65.1646 89.5C65.3933 89.5 65.5888 89.5779 65.7512 89.7337C65.917 89.8894 65.9998 90.0767 65.9998 90.2955C65.9998 90.5142 65.917 90.7015 65.7512 90.8572C65.5888 91.013 65.3933 91.0909 65.1646 91.0909ZM70.9925 100.159C70.3031 100.159 69.6983 99.995 69.1779 99.6669C68.6609 99.3388 68.2565 98.8797 67.9648 98.2898C67.6765 97.6998 67.5323 97.0104 67.5323 96.2216C67.5323 95.4261 67.6765 94.7318 67.9648 94.1385C68.2565 93.5452 68.6609 93.0845 69.1779 92.7564C69.6983 92.4283 70.3031 92.2642 70.9925 92.2642C71.6819 92.2642 72.2852 92.4283 72.8022 92.7564C73.3226 93.0845 73.7269 93.5452 74.0153 94.1385C74.3069 94.7318 74.4528 95.4261 74.4528 96.2216C74.4528 97.0104 74.3069 97.6998 74.0153 98.2898C73.7269 98.8797 73.3226 99.3388 72.8022 99.6669C72.2852 99.995 71.6819 100.159 70.9925 100.159ZM70.9925 99.1051C71.5162 99.1051 71.9471 98.9709 72.2852 98.7024C72.6232 98.4339 72.8735 98.081 73.0359 97.6435C73.1983 97.206 73.2795 96.732 73.2795 96.2216C73.2795 95.7112 73.1983 95.2356 73.0359 94.7947C72.8735 94.3539 72.6232 93.9976 72.2852 93.7259C71.9471 93.4541 71.5162 93.3182 70.9925 93.3182C70.4689 93.3182 70.038 93.4541 69.6999 93.7259C69.3619 93.9976 69.1116 94.3539 68.9492 94.7947C68.7868 95.2356 68.7056 95.7112 68.7056 96.2216C68.7056 96.732 68.7868 97.206 68.9492 97.6435C69.1116 98.081 69.3619 98.4339 69.6999 98.7024C70.038 98.9709 70.4689 99.1051 70.9925 99.1051ZM77.4171 95.4062V100H76.2438V92.3636H77.3773V93.5568H77.4767C77.6557 93.169 77.9275 92.8575 78.2921 92.6222C78.6567 92.3835 79.1273 92.2642 79.704 92.2642C80.2211 92.2642 80.6735 92.3703 81.0613 92.5824C81.449 92.7912 81.7507 93.1094 81.9661 93.5369C82.1815 93.9612 82.2892 94.4981 82.2892 95.1477V100H81.1159V95.2273C81.1159 94.6274 80.9602 94.16 80.6486 93.8253C80.3371 93.4872 79.9095 93.3182 79.3659 93.3182C78.9914 93.3182 78.6567 93.3994 78.3617 93.5618C78.07 93.7242 77.8397 93.9612 77.6706 94.2727C77.5016 94.5843 77.4171 94.9621 77.4171 95.4062Z" fill="#032B3A"/>
<path d="M145.375 100H142.233V89.8182H145.514C146.502 89.8182 147.347 90.022 148.05 90.4297C148.752 90.834 149.291 91.4157 149.665 92.1747C150.04 92.9304 150.227 93.8352 150.227 94.8892C150.227 95.9498 150.038 96.8629 149.661 97.6286C149.283 98.3909 148.732 98.9775 148.01 99.3885C147.287 99.7962 146.409 100 145.375 100ZM143.466 98.9062H145.295C146.137 98.9062 146.835 98.7438 147.388 98.419C147.942 98.0942 148.355 97.6319 148.626 97.032C148.898 96.4321 149.034 95.7178 149.034 94.8892C149.034 94.0672 148.9 93.3596 148.631 92.7663C148.363 92.1697 147.962 91.7124 147.428 91.3942C146.895 91.0727 146.23 90.9119 145.435 90.9119H143.466V98.9062ZM154.384 100.179C153.9 100.179 153.46 100.088 153.066 99.9055C152.672 99.7199 152.358 99.4531 152.126 99.1051C151.894 98.7538 151.778 98.3295 151.778 97.8324C151.778 97.3949 151.865 97.0402 152.037 96.7685C152.209 96.4934 152.44 96.2779 152.728 96.1222C153.016 95.9664 153.335 95.8504 153.683 95.7741C154.034 95.6946 154.387 95.6316 154.741 95.5852C155.205 95.5256 155.582 95.4808 155.87 95.451C156.162 95.4179 156.374 95.3632 156.506 95.2869C156.642 95.2107 156.71 95.0781 156.71 94.8892V94.8494C156.71 94.3589 156.576 93.9777 156.308 93.706C156.042 93.4342 155.64 93.2983 155.099 93.2983C154.539 93.2983 154.1 93.4209 153.782 93.6662C153.464 93.9115 153.24 94.1733 153.111 94.4517L151.997 94.054C152.196 93.59 152.461 93.2287 152.793 92.9702C153.127 92.7083 153.492 92.526 153.886 92.4233C154.284 92.3172 154.675 92.2642 155.06 92.2642C155.305 92.2642 155.587 92.294 155.905 92.3537C156.226 92.41 156.536 92.5277 156.835 92.7067C157.136 92.8857 157.386 93.1558 157.585 93.517C157.784 93.8783 157.884 94.3622 157.884 94.9688V100H156.71V98.9659H156.651C156.571 99.1316 156.438 99.3089 156.253 99.4979C156.067 99.6868 155.82 99.8475 155.512 99.9801C155.204 100.113 154.828 100.179 154.384 100.179ZM154.562 99.125C155.027 99.125 155.418 99.0339 155.736 98.8516C156.057 98.6693 156.299 98.4339 156.462 98.1456C156.627 97.8572 156.71 97.554 156.71 97.2358V96.1619C156.661 96.2216 156.551 96.2763 156.382 96.326C156.216 96.3724 156.024 96.4138 155.805 96.4503C155.59 96.4834 155.379 96.5133 155.174 96.5398C154.972 96.563 154.808 96.5829 154.682 96.5994C154.377 96.6392 154.092 96.7038 153.827 96.7933C153.565 96.8795 153.353 97.0104 153.19 97.1861C153.031 97.3584 152.952 97.5937 152.952 97.892C152.952 98.2997 153.103 98.608 153.404 98.8168C153.709 99.0223 154.095 99.125 154.562 99.125ZM163.346 92.3636V93.358H159.389V92.3636H163.346ZM160.542 90.5341H161.715V97.8125C161.715 98.1439 161.763 98.3925 161.86 98.5582C161.959 98.7206 162.085 98.83 162.237 98.8864C162.393 98.9394 162.557 98.9659 162.73 98.9659C162.859 98.9659 162.965 98.9593 163.048 98.946C163.131 98.9295 163.197 98.9162 163.247 98.9062L163.485 99.9602C163.406 99.9901 163.295 100.02 163.152 100.05C163.01 100.083 162.829 100.099 162.61 100.099C162.279 100.099 161.954 100.028 161.636 99.8857C161.321 99.7431 161.059 99.526 160.85 99.2344C160.645 98.9427 160.542 98.5748 160.542 98.1307V90.5341ZM167.358 100.179C166.874 100.179 166.435 100.088 166.041 99.9055C165.646 99.7199 165.333 99.4531 165.101 99.1051C164.869 98.7538 164.753 98.3295 164.753 97.8324C164.753 97.3949 164.839 97.0402 165.012 96.7685C165.184 96.4934 165.414 96.2779 165.703 96.1222C165.991 95.9664 166.309 95.8504 166.657 95.7741C167.008 95.6946 167.361 95.6316 167.716 95.5852C168.18 95.5256 168.556 95.4808 168.845 95.451C169.136 95.4179 169.348 95.3632 169.481 95.2869C169.617 95.2107 169.685 95.0781 169.685 94.8892V94.8494C169.685 94.3589 169.551 93.9777 169.282 93.706C169.017 93.4342 168.614 93.2983 168.074 93.2983C167.514 93.2983 167.075 93.4209 166.757 93.6662C166.438 93.9115 166.215 94.1733 166.085 94.4517L164.972 94.054C165.171 93.59 165.436 93.2287 165.767 92.9702C166.102 92.7083 166.467 92.526 166.861 92.4233C167.259 92.3172 167.65 92.2642 168.034 92.2642C168.28 92.2642 168.561 92.294 168.879 92.3537C169.201 92.41 169.511 92.5277 169.809 92.7067C170.111 92.8857 170.361 93.1558 170.56 93.517C170.759 93.8783 170.858 94.3622 170.858 94.9688V100H169.685V98.9659H169.625C169.546 99.1316 169.413 99.3089 169.227 99.4979C169.042 99.6868 168.795 99.8475 168.487 99.9801C168.178 100.113 167.802 100.179 167.358 100.179ZM167.537 99.125C168.001 99.125 168.392 99.0339 168.71 98.8516C169.032 98.6693 169.274 98.4339 169.436 98.1456C169.602 97.8572 169.685 97.554 169.685 97.2358V96.1619C169.635 96.2216 169.526 96.2763 169.357 96.326C169.191 96.3724 168.999 96.4138 168.78 96.4503C168.565 96.4834 168.354 96.5133 168.149 96.5398C167.946 96.563 167.782 96.5829 167.656 96.5994C167.352 96.6392 167.066 96.7038 166.801 96.7933C166.539 96.8795 166.327 97.0104 166.165 97.1861C166.006 97.3584 165.926 97.5937 165.926 97.892C165.926 98.2997 166.077 98.608 166.379 98.8168C166.684 99.0223 167.07 99.125 167.537 99.125Z" fill="#233D48"/>
<rect x="8" y="108" width="258" height="1" fill="#DADFE2"/>
</g>
<g clip-path="url(#clip4_1_40831)">
<path d="M12.375 126H9.23295V115.818H12.5142C13.5019 115.818 14.3471 116.022 15.0497 116.43C15.7524 116.834 16.291 117.416 16.6655 118.175C17.04 118.93 17.2273 119.835 17.2273 120.889C17.2273 121.95 17.0384 122.863 16.6605 123.629C16.2827 124.391 15.7325 124.978 15.0099 125.388C14.2874 125.796 13.4091 126 12.375 126ZM10.4659 124.906H12.2955C13.1373 124.906 13.835 124.744 14.3885 124.419C14.942 124.094 15.3546 123.632 15.6264 123.032C15.8982 122.432 16.0341 121.718 16.0341 120.889C16.0341 120.067 15.8999 119.36 15.6314 118.766C15.3629 118.17 14.9619 117.712 14.4283 117.394C13.8946 117.073 13.2301 116.912 12.4347 116.912H10.4659V124.906ZM22.3381 126.159C21.6023 126.159 20.9676 125.997 20.4339 125.672C19.9036 125.344 19.4943 124.886 19.206 124.3C18.9209 123.71 18.7784 123.024 18.7784 122.241C18.7784 121.459 18.9209 120.77 19.206 120.173C19.4943 119.573 19.8954 119.106 20.4091 118.771C20.9261 118.433 21.5294 118.264 22.2188 118.264C22.6165 118.264 23.0092 118.33 23.397 118.463C23.7848 118.596 24.1378 118.811 24.456 119.109C24.7741 119.404 25.0277 119.795 25.2166 120.283C25.4055 120.77 25.5 121.37 25.5 122.082V122.58H19.6136V121.565H24.3068C24.3068 121.134 24.2206 120.75 24.0483 120.412C23.8793 120.074 23.6373 119.807 23.3224 119.612C23.0109 119.416 22.643 119.318 22.2188 119.318C21.7514 119.318 21.3471 119.434 21.0057 119.666C20.6676 119.895 20.4074 120.193 20.2251 120.561C20.0429 120.929 19.9517 121.323 19.9517 121.744V122.42C19.9517 122.997 20.0511 123.486 20.25 123.887C20.4522 124.285 20.7322 124.588 21.0902 124.797C21.4482 125.002 21.8641 125.105 22.3381 125.105C22.6463 125.105 22.9247 125.062 23.1733 124.976C23.4252 124.886 23.6423 124.754 23.8246 124.578C24.0069 124.399 24.1477 124.177 24.2472 123.912L25.3807 124.23C25.2614 124.615 25.0608 124.953 24.7791 125.244C24.4974 125.533 24.1494 125.758 23.7351 125.92C23.3208 126.08 22.8551 126.159 22.3381 126.159ZM32.6939 120.074L31.6399 120.372C31.5736 120.196 31.4759 120.026 31.3466 119.86C31.2206 119.691 31.0483 119.552 30.8295 119.442C30.6108 119.333 30.3307 119.278 29.9893 119.278C29.522 119.278 29.1326 119.386 28.821 119.602C28.5128 119.814 28.3587 120.084 28.3587 120.412C28.3587 120.704 28.4647 120.934 28.6768 121.103C28.889 121.272 29.2204 121.413 29.6712 121.526L30.8047 121.804C31.4875 121.97 31.9962 122.223 32.331 122.565C32.6657 122.903 32.8331 123.339 32.8331 123.872C32.8331 124.31 32.7071 124.701 32.4553 125.045C32.2067 125.39 31.8587 125.662 31.4112 125.861C30.9638 126.06 30.4434 126.159 29.8501 126.159C29.0713 126.159 28.4266 125.99 27.9162 125.652C27.4058 125.314 27.0826 124.82 26.9467 124.17L28.0604 123.892C28.1664 124.303 28.367 124.611 28.6619 124.817C28.9602 125.022 29.3497 125.125 29.8303 125.125C30.3771 125.125 30.8113 125.009 31.1328 124.777C31.4576 124.542 31.62 124.26 31.62 123.932C31.62 123.667 31.5272 123.445 31.3416 123.266C31.156 123.083 30.871 122.947 30.4865 122.858L29.2138 122.56C28.5144 122.394 28.0007 122.137 27.6726 121.789C27.3478 121.438 27.1854 120.999 27.1854 120.472C27.1854 120.041 27.3063 119.66 27.5483 119.328C27.7936 118.997 28.1267 118.737 28.5476 118.548C28.9718 118.359 29.4524 118.264 29.9893 118.264C30.745 118.264 31.3383 118.43 31.7692 118.761C32.2034 119.093 32.5116 119.53 32.6939 120.074ZM37.7015 126.159C36.9856 126.159 36.3691 125.99 35.8521 125.652C35.335 125.314 34.9373 124.848 34.6589 124.255C34.3805 123.662 34.2413 122.984 34.2413 122.222C34.2413 121.446 34.3838 120.762 34.6689 120.168C34.9572 119.572 35.3583 119.106 35.872 118.771C36.389 118.433 36.9922 118.264 37.6816 118.264C38.2186 118.264 38.7025 118.364 39.1333 118.562C39.5642 118.761 39.9172 119.04 40.1923 119.398C40.4674 119.756 40.6381 120.173 40.7044 120.651H39.5311C39.4416 120.303 39.2427 119.994 38.9345 119.726C38.6296 119.454 38.2186 119.318 37.7015 119.318C37.2441 119.318 36.8431 119.437 36.4984 119.676C36.157 119.911 35.8902 120.245 35.698 120.675C35.5091 121.103 35.4146 121.605 35.4146 122.182C35.4146 122.772 35.5074 123.286 35.693 123.723C35.8819 124.161 36.1471 124.5 36.4885 124.742C36.8332 124.984 37.2375 125.105 37.7015 125.105C38.0065 125.105 38.2832 125.052 38.5318 124.946C38.7804 124.84 38.9908 124.688 39.1632 124.489C39.3355 124.29 39.4582 124.051 39.5311 123.773H40.7044C40.6381 124.223 40.474 124.629 40.2122 124.991C39.9537 125.349 39.6106 125.634 39.1831 125.846C38.7588 126.055 38.265 126.159 37.7015 126.159ZM42.4196 126V118.364H43.5531V119.517H43.6326C43.7718 119.139 44.0237 118.833 44.3883 118.597C44.7529 118.362 45.1639 118.244 45.6213 118.244C45.7074 118.244 45.8152 118.246 45.9444 118.249C46.0737 118.253 46.1715 118.258 46.2377 118.264V119.457C46.198 119.447 46.1068 119.433 45.9643 119.413C45.8251 119.389 45.6776 119.378 45.5218 119.378C45.1506 119.378 44.8192 119.456 44.5275 119.612C44.2392 119.764 44.0105 119.976 43.8414 120.248C43.6757 120.516 43.5929 120.823 43.5929 121.168V126H42.4196ZM47.6286 126V118.364H48.8018V126H47.6286ZM48.2251 117.091C47.9964 117.091 47.7992 117.013 47.6335 116.857C47.4711 116.701 47.3899 116.514 47.3899 116.295C47.3899 116.077 47.4711 115.889 47.6335 115.734C47.7992 115.578 47.9964 115.5 48.2251 115.5C48.4538 115.5 48.6494 115.578 48.8118 115.734C48.9775 115.889 49.0604 116.077 49.0604 116.295C49.0604 116.514 48.9775 116.701 48.8118 116.857C48.6494 117.013 48.4538 117.091 48.2251 117.091ZM50.9508 128.864V118.364H52.0843V119.577H52.2235C52.3097 119.444 52.429 119.275 52.5815 119.07C52.7373 118.861 52.9593 118.675 53.2477 118.513C53.5394 118.347 53.9338 118.264 54.4309 118.264C55.0739 118.264 55.6407 118.425 56.1312 118.746C56.6217 119.068 57.0046 119.524 57.2797 120.114C57.5547 120.704 57.6923 121.4 57.6923 122.202C57.6923 123.01 57.5547 123.711 57.2797 124.305C57.0046 124.895 56.6234 125.352 56.1362 125.677C55.649 125.998 55.0872 126.159 54.4508 126.159C53.9603 126.159 53.5675 126.078 53.2725 125.915C52.9776 125.75 52.7505 125.562 52.5914 125.354C52.4324 125.142 52.3097 124.966 52.2235 124.827H52.1241V128.864H50.9508ZM52.1042 122.182C52.1042 122.759 52.1887 123.267 52.3578 123.708C52.5268 124.146 52.7737 124.489 53.0985 124.737C53.4234 124.982 53.8211 125.105 54.2917 125.105C54.7823 125.105 55.1916 124.976 55.5197 124.717C55.8511 124.455 56.0997 124.104 56.2654 123.663C56.4345 123.219 56.519 122.725 56.519 122.182C56.519 121.645 56.4361 121.161 56.2704 120.73C56.108 120.296 55.8611 119.953 55.5297 119.701C55.2015 119.446 54.7889 119.318 54.2917 119.318C53.8145 119.318 53.4134 119.439 53.0886 119.681C52.7638 119.92 52.5185 120.254 52.3528 120.685C52.1871 121.113 52.1042 121.612 52.1042 122.182ZM62.8031 118.364V119.358H58.8457V118.364H62.8031ZM59.9991 116.534H61.1724V123.812C61.1724 124.144 61.2205 124.393 61.3166 124.558C61.416 124.721 61.542 124.83 61.6944 124.886C61.8502 124.939 62.0143 124.966 62.1866 124.966C62.3159 124.966 62.4219 124.959 62.5048 124.946C62.5877 124.929 62.6539 124.916 62.7037 124.906L62.9423 125.96C62.8627 125.99 62.7517 126.02 62.6092 126.05C62.4667 126.083 62.286 126.099 62.0673 126.099C61.7359 126.099 61.411 126.028 61.0929 125.886C60.778 125.743 60.5162 125.526 60.3074 125.234C60.1019 124.943 59.9991 124.575 59.9991 124.131V116.534ZM64.568 126V118.364H65.7413V126H64.568ZM65.1646 117.091C64.9359 117.091 64.7387 117.013 64.573 116.857C64.4106 116.701 64.3294 116.514 64.3294 116.295C64.3294 116.077 64.4106 115.889 64.573 115.734C64.7387 115.578 64.9359 115.5 65.1646 115.5C65.3933 115.5 65.5888 115.578 65.7512 115.734C65.917 115.889 65.9998 116.077 65.9998 116.295C65.9998 116.514 65.917 116.701 65.7512 116.857C65.5888 117.013 65.3933 117.091 65.1646 117.091ZM70.9925 126.159C70.3031 126.159 69.6983 125.995 69.1779 125.667C68.6609 125.339 68.2565 124.88 67.9648 124.29C67.6765 123.7 67.5323 123.01 67.5323 122.222C67.5323 121.426 67.6765 120.732 67.9648 120.138C68.2565 119.545 68.6609 119.085 69.1779 118.756C69.6983 118.428 70.3031 118.264 70.9925 118.264C71.6819 118.264 72.2852 118.428 72.8022 118.756C73.3226 119.085 73.7269 119.545 74.0153 120.138C74.3069 120.732 74.4528 121.426 74.4528 122.222C74.4528 123.01 74.3069 123.7 74.0153 124.29C73.7269 124.88 73.3226 125.339 72.8022 125.667C72.2852 125.995 71.6819 126.159 70.9925 126.159ZM70.9925 125.105C71.5162 125.105 71.9471 124.971 72.2852 124.702C72.6232 124.434 72.8735 124.081 73.0359 123.643C73.1983 123.206 73.2795 122.732 73.2795 122.222C73.2795 121.711 73.1983 121.236 73.0359 120.795C72.8735 120.354 72.6232 119.998 72.2852 119.726C71.9471 119.454 71.5162 119.318 70.9925 119.318C70.4689 119.318 70.038 119.454 69.6999 119.726C69.3619 119.998 69.1116 120.354 68.9492 120.795C68.7868 121.236 68.7056 121.711 68.7056 122.222C68.7056 122.732 68.7868 123.206 68.9492 123.643C69.1116 124.081 69.3619 124.434 69.6999 124.702C70.038 124.971 70.4689 125.105 70.9925 125.105ZM77.4171 121.406V126H76.2438V118.364H77.3773V119.557H77.4767C77.6557 119.169 77.9275 118.857 78.2921 118.622C78.6567 118.384 79.1273 118.264 79.704 118.264C80.2211 118.264 80.6735 118.37 81.0613 118.582C81.449 118.791 81.7507 119.109 81.9661 119.537C82.1815 119.961 82.2892 120.498 82.2892 121.148V126H81.1159V121.227C81.1159 120.627 80.9602 120.16 80.6486 119.825C80.3371 119.487 79.9095 119.318 79.3659 119.318C78.9914 119.318 78.6567 119.399 78.3617 119.562C78.07 119.724 77.8397 119.961 77.6706 120.273C77.5016 120.584 77.4171 120.962 77.4171 121.406Z" fill="#032B3A"/>
<path d="M145.375 126H142.233V115.818H145.514C146.502 115.818 147.347 116.022 148.05 116.43C148.752 116.834 149.291 117.416 149.665 118.175C150.04 118.93 150.227 119.835 150.227 120.889C150.227 121.95 150.038 122.863 149.661 123.629C149.283 124.391 148.732 124.978 148.01 125.388C147.287 125.796 146.409 126 145.375 126ZM143.466 124.906H145.295C146.137 124.906 146.835 124.744 147.388 124.419C147.942 124.094 148.355 123.632 148.626 123.032C148.898 122.432 149.034 121.718 149.034 120.889C149.034 120.067 148.9 119.36 148.631 118.766C148.363 118.17 147.962 117.712 147.428 117.394C146.895 117.073 146.23 116.912 145.435 116.912H143.466V124.906ZM154.384 126.179C153.9 126.179 153.46 126.088 153.066 125.906C152.672 125.72 152.358 125.453 152.126 125.105C151.894 124.754 151.778 124.33 151.778 123.832C151.778 123.395 151.865 123.04 152.037 122.768C152.209 122.493 152.44 122.278 152.728 122.122C153.016 121.966 153.335 121.85 153.683 121.774C154.034 121.695 154.387 121.632 154.741 121.585C155.205 121.526 155.582 121.481 155.87 121.451C156.162 121.418 156.374 121.363 156.506 121.287C156.642 121.211 156.71 121.078 156.71 120.889V120.849C156.71 120.359 156.576 119.978 156.308 119.706C156.042 119.434 155.64 119.298 155.099 119.298C154.539 119.298 154.1 119.421 153.782 119.666C153.464 119.911 153.24 120.173 153.111 120.452L151.997 120.054C152.196 119.59 152.461 119.229 152.793 118.97C153.127 118.708 153.492 118.526 153.886 118.423C154.284 118.317 154.675 118.264 155.06 118.264C155.305 118.264 155.587 118.294 155.905 118.354C156.226 118.41 156.536 118.528 156.835 118.707C157.136 118.886 157.386 119.156 157.585 119.517C157.784 119.878 157.884 120.362 157.884 120.969V126H156.71V124.966H156.651C156.571 125.132 156.438 125.309 156.253 125.498C156.067 125.687 155.82 125.848 155.512 125.98C155.204 126.113 154.828 126.179 154.384 126.179ZM154.562 125.125C155.027 125.125 155.418 125.034 155.736 124.852C156.057 124.669 156.299 124.434 156.462 124.146C156.627 123.857 156.71 123.554 156.71 123.236V122.162C156.661 122.222 156.551 122.276 156.382 122.326C156.216 122.372 156.024 122.414 155.805 122.45C155.59 122.483 155.379 122.513 155.174 122.54C154.972 122.563 154.808 122.583 154.682 122.599C154.377 122.639 154.092 122.704 153.827 122.793C153.565 122.879 153.353 123.01 153.19 123.186C153.031 123.358 152.952 123.594 152.952 123.892C152.952 124.3 153.103 124.608 153.404 124.817C153.709 125.022 154.095 125.125 154.562 125.125ZM163.346 118.364V119.358H159.389V118.364H163.346ZM160.542 116.534H161.715V123.812C161.715 124.144 161.763 124.393 161.86 124.558C161.959 124.721 162.085 124.83 162.237 124.886C162.393 124.939 162.557 124.966 162.73 124.966C162.859 124.966 162.965 124.959 163.048 124.946C163.131 124.929 163.197 124.916 163.247 124.906L163.485 125.96C163.406 125.99 163.295 126.02 163.152 126.05C163.01 126.083 162.829 126.099 162.61 126.099C162.279 126.099 161.954 126.028 161.636 125.886C161.321 125.743 161.059 125.526 160.85 125.234C160.645 124.943 160.542 124.575 160.542 124.131V116.534ZM167.358 126.179C166.874 126.179 166.435 126.088 166.041 125.906C165.646 125.72 165.333 125.453 165.101 125.105C164.869 124.754 164.753 124.33 164.753 123.832C164.753 123.395 164.839 123.04 165.012 122.768C165.184 122.493 165.414 122.278 165.703 122.122C165.991 121.966 166.309 121.85 166.657 121.774C167.008 121.695 167.361 121.632 167.716 121.585C168.18 121.526 168.556 121.481 168.845 121.451C169.136 121.418 169.348 121.363 169.481 121.287C169.617 121.211 169.685 121.078 169.685 120.889V120.849C169.685 120.359 169.551 119.978 169.282 119.706C169.017 119.434 168.614 119.298 168.074 119.298C167.514 119.298 167.075 119.421 166.757 119.666C166.438 119.911 166.215 120.173 166.085 120.452L164.972 120.054C165.171 119.59 165.436 119.229 165.767 118.97C166.102 118.708 166.467 118.526 166.861 118.423C167.259 118.317 167.65 118.264 168.034 118.264C168.28 118.264 168.561 118.294 168.879 118.354C169.201 118.41 169.511 118.528 169.809 118.707C170.111 118.886 170.361 119.156 170.56 119.517C170.759 119.878 170.858 120.362 170.858 120.969V126H169.685V124.966H169.625C169.546 125.132 169.413 125.309 169.227 125.498C169.042 125.687 168.795 125.848 168.487 125.98C168.178 126.113 167.802 126.179 167.358 126.179ZM167.537 125.125C168.001 125.125 168.392 125.034 168.71 124.852C169.032 124.669 169.274 124.434 169.436 124.146C169.602 123.857 169.685 123.554 169.685 123.236V122.162C169.635 122.222 169.526 122.276 169.357 122.326C169.191 122.372 168.999 122.414 168.78 122.45C168.565 122.483 168.354 122.513 168.149 122.54C167.946 122.563 167.782 122.583 167.656 122.599C167.352 122.639 167.066 122.704 166.801 122.793C166.539 122.879 166.327 123.01 166.165 123.186C166.006 123.358 165.926 123.594 165.926 123.892C165.926 124.3 166.077 124.608 166.379 124.817C166.684 125.022 167.07 125.125 167.537 125.125Z" fill="#233D48"/>
<rect x="8" y="134" width="258" height="1" fill="#DADFE2"/>
</g>
<defs>
<clipPath id="clip0_1_40831">
<rect width="258" height="26" fill="white" transform="translate(8 8)"/>
</clipPath>
<clipPath id="clip1_1_40831">
<rect width="258" height="26" fill="white" transform="translate(8 34)"/>
</clipPath>
<clipPath id="clip2_1_40831">
<rect width="258" height="26" fill="white" transform="translate(8 60)"/>
</clipPath>
<clipPath id="clip3_1_40831">
<rect width="258" height="26" fill="white" transform="translate(8 86)"/>
</clipPath>
<clipPath id="clip4_1_40831">
<rect width="258" height="26" fill="white" transform="translate(8 112)"/>
</clipPath>
</defs>
</svg>
