<svg width="224" height="117" viewBox="0 0 224 117" fill="none" xmlns="http://www.w3.org/2000/svg">
<g clip-path="url(#clip0_3_6172)">
<path d="M21 21.5357C21 17.9261 23.9261 15 27.5357 15H197.464C201.074 15 204 17.9261 204 21.5357V122.828C204 126.437 201.074 129.364 197.464 129.364H27.5357C23.9261 129.364 21 126.437 21 122.828V21.5357Z" fill="white"/>
<g clip-path="url(#clip1_3_6172)">
<path d="M30.8036 32.3377H28.3144V24.2716H30.9138C31.6963 24.2716 32.3658 24.433 32.9225 24.756C33.4791 25.0763 33.9058 25.5371 34.2025 26.1384C34.4992 26.7371 34.6476 27.4539 34.6476 28.2889C34.6476 29.1291 34.4979 29.8525 34.1986 30.459C33.8992 31.0629 33.4634 31.5277 32.891 31.8532C32.3186 32.1762 31.6228 32.3377 30.8036 32.3377ZM29.2912 31.4712H30.7405C31.4075 31.4712 31.9602 31.3425 32.3987 31.0852C32.8372 30.8279 33.164 30.4616 33.3794 29.9864C33.5947 29.5111 33.7023 28.9453 33.7023 28.2889C33.7023 27.6377 33.596 27.0771 33.3833 26.6071C33.1706 26.1345 32.8529 25.7721 32.4302 25.5201C32.0074 25.2654 31.481 25.138 30.8508 25.138H29.2912V31.4712ZM38.6964 32.4637C38.1135 32.4637 37.6107 32.3351 37.1879 32.0777C36.7678 31.8178 36.4435 31.4554 36.2151 30.9907C35.9893 30.5233 35.8764 29.9798 35.8764 29.3601C35.8764 28.7405 35.9893 28.1943 36.2151 27.7217C36.4435 27.2465 36.7612 26.8762 37.1682 26.611C37.5778 26.3432 38.0557 26.2093 38.6019 26.2093C38.9169 26.2093 39.2281 26.2618 39.5353 26.3669C39.8425 26.4719 40.1221 26.6426 40.3742 26.8789C40.6263 27.1126 40.8271 27.4224 40.9768 27.8084C41.1265 28.1943 41.2013 28.6696 41.2013 29.2341V29.628H36.5381V28.8245H40.256C40.256 28.4832 40.1878 28.1786 40.0512 27.9108C39.9173 27.6429 39.7256 27.4316 39.4762 27.2767C39.2294 27.1217 38.9379 27.0443 38.6019 27.0443C38.2316 27.0443 37.9113 27.1362 37.6408 27.32C37.373 27.5012 37.1669 27.7375 37.0225 28.0289C36.8781 28.3204 36.8059 28.6328 36.8059 28.9663V29.5019C36.8059 29.9588 36.8847 30.3461 37.0422 30.6638C37.2024 30.9789 37.4242 31.2191 37.7078 31.3846C37.9914 31.5473 38.3209 31.6287 38.6964 31.6287C38.9406 31.6287 39.1611 31.5946 39.358 31.5263C39.5576 31.4554 39.7296 31.3504 39.874 31.2113C40.0184 31.0695 40.13 30.8935 40.2088 30.6835L41.1068 30.9356C41.0122 31.2401 40.8534 31.508 40.6302 31.739C40.407 31.9675 40.1313 32.146 39.8031 32.2747C39.4749 32.4007 39.106 32.4637 38.6964 32.4637ZM46.9003 27.6429L46.0654 27.8793C46.0129 27.7401 45.9354 27.6049 45.833 27.4736C45.7332 27.3397 45.5967 27.2294 45.4234 27.1428C45.2501 27.0561 45.0282 27.0128 44.7578 27.0128C44.3876 27.0128 44.079 27.0981 43.8322 27.2688C43.588 27.4368 43.4659 27.6508 43.4659 27.9108C43.4659 28.1418 43.55 28.3243 43.718 28.4582C43.886 28.5921 44.1486 28.7037 44.5057 28.793L45.4037 29.0136C45.9446 29.1448 46.3476 29.3457 46.6128 29.6162C46.878 29.884 47.0106 30.2292 47.0106 30.652C47.0106 30.9986 46.9108 31.3084 46.7113 31.5815C46.5144 31.8546 46.2387 32.0699 45.8842 32.2274C45.5297 32.3849 45.1175 32.4637 44.6475 32.4637C44.0305 32.4637 43.5198 32.3298 43.1154 32.062C42.7111 31.7942 42.455 31.4029 42.3474 30.8883L43.2296 30.6677C43.3136 30.9933 43.4725 31.2375 43.7062 31.4003C43.9425 31.5631 44.251 31.6445 44.6317 31.6445C45.065 31.6445 45.4089 31.5526 45.6636 31.3688C45.921 31.1824 46.0496 30.9592 46.0496 30.6992C46.0496 30.4892 45.9761 30.3133 45.8291 30.1715C45.682 30.0271 45.4562 29.9194 45.1516 29.8485L44.1434 29.6122C43.5893 29.4809 43.1824 29.2774 42.9224 29.0017C42.6651 28.7234 42.5364 28.3755 42.5364 27.958C42.5364 27.6167 42.6323 27.3147 42.824 27.0522C43.0183 26.7896 43.2821 26.5835 43.6156 26.4338C43.9517 26.2842 44.3324 26.2093 44.7578 26.2093C45.3564 26.2093 45.8264 26.3406 46.1678 26.6032C46.5117 26.8657 46.7559 27.2123 46.9003 27.6429ZM50.8674 32.4637C50.3003 32.4637 49.8119 32.3298 49.4023 32.062C48.9927 31.7942 48.6776 31.4253 48.457 30.9553C48.2365 30.4853 48.1262 29.9483 48.1262 29.3444C48.1262 28.73 48.2391 28.1878 48.4649 27.7178C48.6934 27.2452 49.0111 26.8762 49.418 26.611C49.8277 26.3432 50.3055 26.2093 50.8517 26.2093C51.277 26.2093 51.6604 26.2881 52.0017 26.4456C52.3431 26.6032 52.6227 26.8237 52.8406 27.1073C53.0586 27.3909 53.1938 27.7217 53.2463 28.0998H52.3168C52.2459 27.8241 52.0884 27.5799 51.8442 27.3672C51.6026 27.1519 51.277 27.0443 50.8674 27.0443C50.5051 27.0443 50.1874 27.1388 49.9143 27.3279C49.6439 27.5143 49.4325 27.7782 49.2802 28.1195C49.1305 28.4582 49.0557 28.856 49.0557 29.3129C49.0557 29.7803 49.1292 30.1872 49.2763 30.5338C49.4259 30.8804 49.636 31.1496 49.9064 31.3412C50.1795 31.5329 50.4998 31.6287 50.8674 31.6287C51.109 31.6287 51.3282 31.5867 51.5252 31.5027C51.7221 31.4187 51.8888 31.2979 52.0254 31.1404C52.1619 30.9828 52.259 30.7938 52.3168 30.5732H53.2463C53.1938 30.9303 53.0638 31.252 52.8564 31.5382C52.6516 31.8217 52.3798 32.0475 52.0411 32.2156C51.705 32.381 51.3138 32.4637 50.8674 32.4637ZM54.6051 32.3377V26.2881H55.5031V27.2018H55.5661C55.6764 26.9025 55.8759 26.6596 56.1648 26.4732C56.4536 26.2868 56.7792 26.1936 57.1415 26.1936C57.2098 26.1936 57.2951 26.1949 57.3975 26.1975C57.4999 26.2001 57.5774 26.2041 57.6299 26.2093V27.1546C57.5984 27.1467 57.5262 27.1349 57.4133 27.1191C57.303 27.1007 57.1861 27.0916 57.0627 27.0916C56.7687 27.0916 56.5061 27.1533 56.275 27.2767C56.0466 27.3974 55.8654 27.5655 55.7315 27.7808C55.6002 27.9935 55.5346 28.2364 55.5346 28.5094V32.3377H54.6051ZM58.7317 32.3377V26.2881H59.6612V32.3377H58.7317ZM59.2043 25.2798C59.0231 25.2798 58.8669 25.2181 58.7356 25.0947C58.607 24.9713 58.5426 24.823 58.5426 24.6497C58.5426 24.4764 58.607 24.328 58.7356 24.2046C58.8669 24.0812 59.0231 24.0195 59.2043 24.0195C59.3855 24.0195 59.5404 24.0812 59.6691 24.2046C59.8003 24.328 59.866 24.4764 59.866 24.6497C59.866 24.823 59.8003 24.9713 59.6691 25.0947C59.5404 25.2181 59.3855 25.2798 59.2043 25.2798ZM61.3636 34.6063V26.2881H62.2616V27.2491H62.3719C62.4401 27.1441 62.5347 27.0102 62.6555 26.8474C62.7789 26.6819 62.9548 26.5349 63.1832 26.4062C63.4143 26.275 63.7267 26.2093 64.1206 26.2093C64.63 26.2093 65.079 26.3367 65.4676 26.5914C65.8562 26.846 66.1594 27.2071 66.3774 27.6745C66.5953 28.1418 66.7043 28.6932 66.7043 29.3286C66.7043 29.9693 66.5953 30.5246 66.3774 30.9946C66.1594 31.462 65.8575 31.8244 65.4715 32.0817C65.0855 32.3364 64.6405 32.4637 64.1363 32.4637C63.7477 32.4637 63.4366 32.3994 63.2029 32.2707C62.9692 32.1394 62.7894 31.9911 62.6633 31.8257C62.5373 31.6576 62.4401 31.5185 62.3719 31.4082H62.2931V34.6063H61.3636ZM62.2774 29.3129C62.2774 29.7698 62.3443 30.1728 62.4782 30.522C62.6121 30.8686 62.8077 31.1404 63.0651 31.3373C63.3224 31.5316 63.6375 31.6287 64.0103 31.6287C64.3989 31.6287 64.7232 31.5263 64.9831 31.3215C65.2457 31.1141 65.4426 30.8358 65.5739 30.4866C65.7078 30.1347 65.7748 29.7435 65.7748 29.3129C65.7748 28.8875 65.7091 28.5042 65.5778 28.1628C65.4492 27.8189 65.2536 27.5471 64.991 27.3476C64.7311 27.1454 64.4042 27.0443 64.0103 27.0443C63.6322 27.0443 63.3145 27.1401 63.0572 27.3318C62.7999 27.5209 62.6056 27.786 62.4743 28.1274C62.343 28.4661 62.2774 28.8613 62.2774 29.3129ZM70.7531 26.2881V27.0758H67.618V26.2881H70.7531ZM68.5317 24.8387H69.4612V30.6047C69.4612 30.8673 69.4993 31.0642 69.5755 31.1955C69.6542 31.3242 69.754 31.4108 69.8748 31.4554C69.9982 31.4975 70.1282 31.5185 70.2647 31.5185C70.3671 31.5185 70.4511 31.5132 70.5168 31.5027C70.5824 31.4896 70.6349 31.4791 70.6743 31.4712L70.8634 32.3062C70.8003 32.3298 70.7124 32.3534 70.5995 32.3771C70.4866 32.4033 70.3435 32.4164 70.1702 32.4164C69.9076 32.4164 69.6503 32.36 69.3982 32.2471C69.1488 32.1342 68.9414 31.9622 68.7759 31.7311C68.6131 31.5001 68.5317 31.2086 68.5317 30.8568V24.8387ZM72.1513 32.3377V26.2881H73.0808V32.3377H72.1513ZM72.6239 25.2798C72.4427 25.2798 72.2865 25.2181 72.1552 25.0947C72.0265 24.9713 71.9622 24.823 71.9622 24.6497C71.9622 24.4764 72.0265 24.328 72.1552 24.2046C72.2865 24.0812 72.4427 24.0195 72.6239 24.0195C72.8051 24.0195 72.96 24.0812 73.0886 24.2046C73.2199 24.328 73.2856 24.4764 73.2856 24.6497C73.2856 24.823 73.2199 24.9713 73.0886 25.0947C72.96 25.2181 72.8051 25.2798 72.6239 25.2798ZM77.2408 32.4637C76.6947 32.4637 76.2155 32.3337 75.8033 32.0738C75.3937 31.8139 75.0733 31.4502 74.8423 30.9828C74.6138 30.5154 74.4996 29.9693 74.4996 29.3444C74.4996 28.7142 74.6138 28.1641 74.8423 27.6941C75.0733 27.2241 75.3937 26.8592 75.8033 26.5992C76.2155 26.3393 76.6947 26.2093 77.2408 26.2093C77.787 26.2093 78.2648 26.3393 78.6745 26.5992C79.0867 26.8592 79.407 27.2241 79.6355 27.6941C79.8665 28.1641 79.982 28.7142 79.982 29.3444C79.982 29.9693 79.8665 30.5154 79.6355 30.9828C79.407 31.4502 79.0867 31.8139 78.6745 32.0738C78.2648 32.3337 77.787 32.4637 77.2408 32.4637ZM77.2408 31.6287C77.6557 31.6287 77.997 31.5224 78.2648 31.3097C78.5327 31.097 78.7309 30.8174 78.8596 30.4708C78.9882 30.1242 79.0526 29.7487 79.0526 29.3444C79.0526 28.94 78.9882 28.5632 78.8596 28.214C78.7309 27.8648 78.5327 27.5826 78.2648 27.3672C77.997 27.1519 77.6557 27.0443 77.2408 27.0443C76.826 27.0443 76.4846 27.1519 76.2168 27.3672C75.949 27.5826 75.7508 27.8648 75.6221 28.214C75.4934 28.5632 75.4291 28.94 75.4291 29.3444C75.4291 29.7487 75.4934 30.1242 75.6221 30.4708C75.7508 30.8174 75.949 31.097 76.2168 31.3097C76.4846 31.5224 76.826 31.6287 77.2408 31.6287ZM82.3304 28.6985V32.3377H81.4009V26.2881H82.2989V27.2333H82.3777C82.5194 26.9261 82.7348 26.6793 83.0236 26.4929C83.3124 26.3038 83.6853 26.2093 84.1421 26.2093C84.5517 26.2093 84.9101 26.2933 85.2173 26.4614C85.5245 26.6268 85.7635 26.8789 85.9342 27.2176C86.1048 27.5537 86.1902 27.979 86.1902 28.4937V32.3377H85.2607V28.5567C85.2607 28.0814 85.1373 27.7112 84.8904 27.446C84.6436 27.1782 84.3049 27.0443 83.8743 27.0443C83.5776 27.0443 83.3124 27.1086 83.0787 27.2373C82.8477 27.3659 82.6652 27.5537 82.5313 27.8005C82.3974 28.0473 82.3304 28.3466 82.3304 28.6985Z" fill="#032B3A"/>
<path d="M119.135 32.3377H116.645V24.2716H119.245C120.027 24.2716 120.697 24.433 121.254 24.756C121.81 25.0763 122.237 25.5371 122.534 26.1384C122.83 26.7371 122.979 27.4539 122.979 28.2889C122.979 29.1291 122.829 29.8525 122.53 30.459C122.23 31.0629 121.794 31.5277 121.222 31.8532C120.65 32.1762 119.954 32.3377 119.135 32.3377ZM117.622 31.4712H119.072C119.739 31.4712 120.291 31.3425 120.73 31.0852C121.168 30.8279 121.495 30.4616 121.71 29.9864C121.926 29.5111 122.033 28.9453 122.033 28.2889C122.033 27.6377 121.927 27.0771 121.714 26.6071C121.502 26.1345 121.184 25.7721 120.761 25.5201C120.338 25.2654 119.812 25.138 119.182 25.138H117.622V31.4712ZM126.271 32.4795C125.888 32.4795 125.54 32.4073 125.228 32.2628C124.915 32.1158 124.667 31.9044 124.483 31.6287C124.299 31.3504 124.207 31.0143 124.207 30.6205C124.207 30.2739 124.276 29.9929 124.412 29.7776C124.549 29.5597 124.731 29.389 124.96 29.2656C125.188 29.1422 125.44 29.0503 125.716 28.9899C125.994 28.9269 126.274 28.877 126.555 28.8403C126.922 28.793 127.22 28.7576 127.449 28.7339C127.68 28.7077 127.848 28.6643 127.953 28.6039C128.061 28.5436 128.114 28.4385 128.114 28.2889V28.2574C128.114 27.8688 128.008 27.5668 127.795 27.3515C127.585 27.1362 127.266 27.0285 126.838 27.0285C126.395 27.0285 126.047 27.1257 125.795 27.32C125.543 27.5143 125.365 27.7217 125.263 27.9423L124.381 27.6272C124.538 27.2596 124.748 26.9734 125.011 26.7686C125.276 26.5612 125.565 26.4167 125.877 26.3354C126.192 26.2513 126.502 26.2093 126.807 26.2093C127.001 26.2093 127.224 26.233 127.476 26.2802C127.731 26.3248 127.977 26.4181 128.213 26.5598C128.452 26.7016 128.65 26.9156 128.808 27.2018C128.965 27.488 129.044 27.8714 129.044 28.3519V32.3377H128.114V31.5185H128.067C128.004 31.6497 127.899 31.7902 127.752 31.9399C127.605 32.0895 127.409 32.2169 127.165 32.3219C126.921 32.427 126.623 32.4795 126.271 32.4795ZM126.413 31.6445C126.781 31.6445 127.09 31.5723 127.343 31.4279C127.597 31.2835 127.789 31.097 127.918 30.8686C128.049 30.6402 128.114 30.3999 128.114 30.1479V29.2971C128.075 29.3444 127.988 29.3877 127.855 29.4271C127.723 29.4639 127.571 29.4967 127.398 29.5256C127.227 29.5518 127.06 29.5755 126.897 29.5965C126.737 29.6148 126.607 29.6306 126.508 29.6437C126.266 29.6752 126.04 29.7264 125.83 29.7973C125.623 29.8656 125.455 29.9693 125.326 30.1085C125.2 30.245 125.137 30.4314 125.137 30.6677C125.137 30.9907 125.256 31.2349 125.495 31.4003C125.737 31.5631 126.043 31.6445 126.413 31.6445ZM133.371 26.2881V27.0758H130.236V26.2881H133.371ZM131.15 24.8387H132.08V30.6047C132.08 30.8673 132.118 31.0642 132.194 31.1955C132.273 31.3242 132.372 31.4108 132.493 31.4554C132.617 31.4975 132.747 31.5185 132.883 31.5185C132.985 31.5185 133.069 31.5132 133.135 31.5027C133.201 31.4896 133.253 31.4791 133.293 31.4712L133.482 32.3062C133.419 32.3298 133.331 32.3534 133.218 32.3771C133.105 32.4033 132.962 32.4164 132.789 32.4164C132.526 32.4164 132.269 32.36 132.017 32.2471C131.767 32.1342 131.56 31.9622 131.394 31.7311C131.231 31.5001 131.15 31.2086 131.15 30.8568V24.8387ZM136.55 32.4795C136.166 32.4795 135.819 32.4073 135.506 32.2628C135.194 32.1158 134.946 31.9044 134.762 31.6287C134.578 31.3504 134.486 31.0143 134.486 30.6205C134.486 30.2739 134.554 29.9929 134.691 29.7776C134.827 29.5597 135.01 29.389 135.238 29.2656C135.467 29.1422 135.719 29.0503 135.994 28.9899C136.273 28.9269 136.552 28.877 136.833 28.8403C137.201 28.793 137.499 28.7576 137.727 28.7339C137.959 28.7077 138.127 28.6643 138.232 28.6039C138.339 28.5436 138.393 28.4385 138.393 28.2889V28.2574C138.393 27.8688 138.287 27.5668 138.074 27.3515C137.864 27.1362 137.545 27.0285 137.117 27.0285C136.673 27.0285 136.325 27.1257 136.073 27.32C135.821 27.5143 135.644 27.7217 135.542 27.9423L134.659 27.6272C134.817 27.2596 135.027 26.9734 135.289 26.7686C135.555 26.5612 135.844 26.4167 136.156 26.3354C136.471 26.2513 136.781 26.2093 137.085 26.2093C137.28 26.2093 137.503 26.233 137.755 26.2802C138.01 26.3248 138.255 26.4181 138.492 26.5598C138.73 26.7016 138.929 26.9156 139.086 27.2018C139.244 27.488 139.323 27.8714 139.323 28.3519V32.3377H138.393V31.5185H138.346C138.283 31.6497 138.178 31.7902 138.031 31.9399C137.884 32.0895 137.688 32.2169 137.444 32.3219C137.2 32.427 136.902 32.4795 136.55 32.4795ZM136.692 31.6445C137.059 31.6445 137.369 31.5723 137.621 31.4279C137.876 31.2835 138.067 31.097 138.196 30.8686C138.327 30.6402 138.393 30.3999 138.393 30.1479V29.2971C138.354 29.3444 138.267 29.3877 138.133 29.4271C138.002 29.4639 137.85 29.4967 137.676 29.5256C137.506 29.5518 137.339 29.5755 137.176 29.5965C137.016 29.6148 136.886 29.6306 136.786 29.6437C136.545 29.6752 136.319 29.7264 136.109 29.7973C135.901 29.8656 135.733 29.9693 135.605 30.1085C135.479 30.245 135.416 30.4314 135.416 30.6677C135.416 30.9907 135.535 31.2349 135.774 31.4003C136.015 31.5631 136.321 31.6445 136.692 31.6445Z" fill="#233D48"/>
<g clip-path="url(#clip2_3_6172)">
<rect x="27.3376" y="38.5065" width="170.429" height="0.792208" fill="#DADFE2"/>
</g>
</g>
<g clip-path="url(#clip3_3_6172)">
<path d="M30.8036 52.6753H28.3144V44.6092H30.9138C31.6963 44.6092 32.3658 44.7707 32.9225 45.0936C33.4791 45.414 33.9058 45.8748 34.2025 46.4761C34.4992 47.0747 34.6476 47.7915 34.6476 48.6265C34.6476 49.4667 34.4979 50.1901 34.1986 50.7966C33.8992 51.4006 33.4634 51.8653 32.891 52.1909C32.3186 52.5138 31.6228 52.6753 30.8036 52.6753ZM29.2912 51.8088H30.7405C31.4075 51.8088 31.9602 51.6802 32.3987 51.4229C32.8372 51.1656 33.164 50.7993 33.3794 50.324C33.5947 49.8488 33.7023 49.2829 33.7023 48.6265C33.7023 47.9753 33.596 47.4148 33.3833 46.9448C33.1706 46.4721 32.8529 46.1098 32.4302 45.8577C32.0074 45.603 31.481 45.4757 30.8508 45.4757H29.2912V51.8088ZM38.6964 52.8014C38.1135 52.8014 37.6107 52.6727 37.1879 52.4154C36.7678 52.1554 36.4435 51.7931 36.2151 51.3283C35.9893 50.861 35.8764 50.3175 35.8764 49.6978C35.8764 49.0781 35.9893 48.532 36.2151 48.0594C36.4435 47.5841 36.7612 47.2139 37.1682 46.9487C37.5778 46.6809 38.0557 46.547 38.6019 46.547C38.9169 46.547 39.2281 46.5995 39.5353 46.7045C39.8425 46.8095 40.1221 46.9802 40.3742 47.2165C40.6263 47.4502 40.8271 47.76 40.9768 48.146C41.1265 48.532 41.2013 49.0072 41.2013 49.5718V49.9656H36.5381V49.1622H40.256C40.256 48.8208 40.1878 48.5162 40.0512 48.2484C39.9173 47.9806 39.7256 47.7692 39.4762 47.6143C39.2294 47.4594 38.9379 47.3819 38.6019 47.3819C38.2316 47.3819 37.9113 47.4738 37.6408 47.6576C37.373 47.8388 37.1669 48.0751 37.0225 48.3666C36.8781 48.658 36.8059 48.9705 36.8059 49.3039V49.8396C36.8059 50.2964 36.8847 50.6837 37.0422 51.0014C37.2024 51.3165 37.4242 51.5568 37.7078 51.7222C37.9914 51.885 38.3209 51.9664 38.6964 51.9664C38.9406 51.9664 39.1611 51.9323 39.358 51.864C39.5576 51.7931 39.7296 51.6881 39.874 51.5489C40.0184 51.4071 40.13 51.2312 40.2088 51.0211L41.1068 51.2732C41.0122 51.5778 40.8534 51.8456 40.6302 52.0767C40.407 52.3051 40.1313 52.4836 39.8031 52.6123C39.4749 52.7383 39.106 52.8014 38.6964 52.8014ZM46.9003 47.9806L46.0654 48.2169C46.0129 48.0777 45.9354 47.9425 45.833 47.8112C45.7332 47.6773 45.5967 47.567 45.4234 47.4804C45.2501 47.3938 45.0282 47.3504 44.7578 47.3504C44.3876 47.3504 44.079 47.4358 43.8322 47.6064C43.588 47.7745 43.4659 47.9885 43.4659 48.2484C43.4659 48.4795 43.55 48.662 43.718 48.7959C43.886 48.9298 44.1486 49.0414 44.5057 49.1306L45.4037 49.3512C45.9446 49.4825 46.3476 49.6834 46.6128 49.9538C46.878 50.2216 47.0106 50.5669 47.0106 50.9896C47.0106 51.3362 46.9108 51.6461 46.7113 51.9191C46.5144 52.1922 46.2387 52.4075 45.8842 52.565C45.5297 52.7226 45.1175 52.8014 44.6475 52.8014C44.0305 52.8014 43.5198 52.6674 43.1154 52.3996C42.7111 52.1318 42.455 51.7406 42.3474 51.2259L43.2296 51.0054C43.3136 51.331 43.4725 51.5752 43.7062 51.738C43.9425 51.9007 44.251 51.9821 44.6317 51.9821C45.065 51.9821 45.4089 51.8902 45.6636 51.7064C45.921 51.52 46.0496 51.2968 46.0496 51.0369C46.0496 50.8268 45.9761 50.6509 45.8291 50.5091C45.682 50.3647 45.4562 50.2571 45.1516 50.1862L44.1434 49.9499C43.5893 49.8186 43.1824 49.6151 42.9224 49.3394C42.6651 49.0611 42.5364 48.7132 42.5364 48.2957C42.5364 47.9543 42.6323 47.6524 42.824 47.3898C43.0183 47.1272 43.2821 46.9211 43.6156 46.7715C43.9517 46.6218 44.3324 46.547 44.7578 46.547C45.3564 46.547 45.8264 46.6783 46.1678 46.9408C46.5117 47.2034 46.7559 47.55 46.9003 47.9806ZM50.8674 52.8014C50.3003 52.8014 49.8119 52.6674 49.4023 52.3996C48.9927 52.1318 48.6776 51.7629 48.457 51.2929C48.2365 50.8229 48.1262 50.2859 48.1262 49.682C48.1262 49.0676 48.2391 48.5254 48.4649 48.0554C48.6934 47.5828 49.0111 47.2139 49.418 46.9487C49.8277 46.6809 50.3055 46.547 50.8517 46.547C51.277 46.547 51.6604 46.6257 52.0017 46.7833C52.3431 46.9408 52.6227 47.1614 52.8406 47.445C53.0586 47.7285 53.1938 48.0594 53.2463 48.4375H52.3168C52.2459 48.1618 52.0884 47.9176 51.8442 47.7049C51.6026 47.4896 51.277 47.3819 50.8674 47.3819C50.5051 47.3819 50.1874 47.4765 49.9143 47.6655C49.6439 47.8519 49.4325 48.1158 49.2802 48.4572C49.1305 48.7959 49.0557 49.1937 49.0557 49.6505C49.0557 50.1179 49.1292 50.5249 49.2763 50.8715C49.4259 51.2181 49.636 51.4872 49.9064 51.6789C50.1795 51.8705 50.4998 51.9664 50.8674 51.9664C51.109 51.9664 51.3282 51.9244 51.5252 51.8404C51.7221 51.7563 51.8888 51.6356 52.0254 51.478C52.1619 51.3205 52.259 51.1314 52.3168 50.9109H53.2463C53.1938 51.268 53.0638 51.5896 52.8564 51.8758C52.6516 52.1594 52.3798 52.3852 52.0411 52.5532C51.705 52.7186 51.3138 52.8014 50.8674 52.8014ZM54.6051 52.6753V46.6257H55.5031V47.5395H55.5661C55.6764 47.2401 55.8759 46.9973 56.1648 46.8108C56.4536 46.6244 56.7792 46.5312 57.1415 46.5312C57.2098 46.5312 57.2951 46.5325 57.3975 46.5352C57.4999 46.5378 57.5774 46.5417 57.6299 46.547V47.4922C57.5984 47.4843 57.5262 47.4725 57.4133 47.4568C57.303 47.4384 57.1861 47.4292 57.0627 47.4292C56.7687 47.4292 56.5061 47.4909 56.275 47.6143C56.0466 47.7351 55.8654 47.9031 55.7315 48.1184C55.6002 48.3311 55.5346 48.574 55.5346 48.8471V52.6753H54.6051ZM58.7317 52.6753V46.6257H59.6612V52.6753H58.7317ZM59.2043 45.6175C59.0231 45.6175 58.8669 45.5558 58.7356 45.4324C58.607 45.309 58.5426 45.1606 58.5426 44.9873C58.5426 44.814 58.607 44.6657 58.7356 44.5423C58.8669 44.4188 59.0231 44.3571 59.2043 44.3571C59.3855 44.3571 59.5404 44.4188 59.6691 44.5423C59.8003 44.6657 59.866 44.814 59.866 44.9873C59.866 45.1606 59.8003 45.309 59.6691 45.4324C59.5404 45.5558 59.3855 45.6175 59.2043 45.6175ZM61.3636 54.9439V46.6257H62.2616V47.5867H62.3719C62.4401 47.4817 62.5347 47.3478 62.6555 47.185C62.7789 47.0196 62.9548 46.8726 63.1832 46.7439C63.4143 46.6126 63.7267 46.547 64.1206 46.547C64.63 46.547 65.079 46.6743 65.4676 46.929C65.8562 47.1837 66.1594 47.5447 66.3774 48.0121C66.5953 48.4795 66.7043 49.0309 66.7043 49.6663C66.7043 50.307 66.5953 50.8623 66.3774 51.3323C66.1594 51.7997 65.8575 52.162 65.4715 52.4193C65.0855 52.674 64.6405 52.8014 64.1363 52.8014C63.7477 52.8014 63.4366 52.737 63.2029 52.6084C62.9692 52.4771 62.7894 52.3287 62.6633 52.1633C62.5373 51.9953 62.4401 51.8561 62.3719 51.7458H62.2931V54.9439H61.3636ZM62.2774 49.6505C62.2774 50.1074 62.3443 50.5104 62.4782 50.8597C62.6121 51.2063 62.8077 51.478 63.0651 51.6749C63.3224 51.8692 63.6375 51.9664 64.0103 51.9664C64.3989 51.9664 64.7232 51.864 64.9831 51.6592C65.2457 51.4518 65.4426 51.1734 65.5739 50.8242C65.7078 50.4724 65.7748 50.0811 65.7748 49.6505C65.7748 49.2252 65.7091 48.8418 65.5778 48.5005C65.4492 48.1565 65.2536 47.8848 64.991 47.6852C64.7311 47.483 64.4042 47.3819 64.0103 47.3819C63.6322 47.3819 63.3145 47.4778 63.0572 47.6694C62.7999 47.8585 62.6056 48.1237 62.4743 48.465C62.343 48.8037 62.2774 49.1989 62.2774 49.6505ZM70.7531 46.6257V47.4134H67.618V46.6257H70.7531ZM68.5317 45.1764H69.4612V50.9424C69.4612 51.2049 69.4993 51.4019 69.5755 51.5331C69.6542 51.6618 69.754 51.7485 69.8748 51.7931C69.9982 51.8351 70.1282 51.8561 70.2647 51.8561C70.3671 51.8561 70.4511 51.8509 70.5168 51.8404C70.5824 51.8272 70.6349 51.8167 70.6743 51.8088L70.8634 52.6438C70.8003 52.6674 70.7124 52.6911 70.5995 52.7147C70.4866 52.741 70.3435 52.7541 70.1702 52.7541C69.9076 52.7541 69.6503 52.6976 69.3982 52.5847C69.1488 52.4718 68.9414 52.2999 68.7759 52.0688C68.6131 51.8377 68.5317 51.5463 68.5317 51.1944V45.1764ZM72.1513 52.6753V46.6257H73.0808V52.6753H72.1513ZM72.6239 45.6175C72.4427 45.6175 72.2865 45.5558 72.1552 45.4324C72.0265 45.309 71.9622 45.1606 71.9622 44.9873C71.9622 44.814 72.0265 44.6657 72.1552 44.5423C72.2865 44.4188 72.4427 44.3571 72.6239 44.3571C72.8051 44.3571 72.96 44.4188 73.0886 44.5423C73.2199 44.6657 73.2856 44.814 73.2856 44.9873C73.2856 45.1606 73.2199 45.309 73.0886 45.4324C72.96 45.5558 72.8051 45.6175 72.6239 45.6175ZM77.2408 52.8014C76.6947 52.8014 76.2155 52.6714 75.8033 52.4114C75.3937 52.1515 75.0733 51.7878 74.8423 51.3205C74.6138 50.8531 74.4996 50.307 74.4996 49.682C74.4996 49.0519 74.6138 48.5018 74.8423 48.0318C75.0733 47.5618 75.3937 47.1968 75.8033 46.9369C76.2155 46.6769 76.6947 46.547 77.2408 46.547C77.787 46.547 78.2648 46.6769 78.6745 46.9369C79.0867 47.1968 79.407 47.5618 79.6355 48.0318C79.8665 48.5018 79.982 49.0519 79.982 49.682C79.982 50.307 79.8665 50.8531 79.6355 51.3205C79.407 51.7878 79.0867 52.1515 78.6745 52.4114C78.2648 52.6714 77.787 52.8014 77.2408 52.8014ZM77.2408 51.9664C77.6557 51.9664 77.997 51.86 78.2648 51.6474C78.5327 51.4347 78.7309 51.155 78.8596 50.8085C78.9882 50.4619 79.0526 50.0864 79.0526 49.682C79.0526 49.2777 78.9882 48.9009 78.8596 48.5517C78.7309 48.2025 78.5327 47.9202 78.2648 47.7049C77.997 47.4896 77.6557 47.3819 77.2408 47.3819C76.826 47.3819 76.4846 47.4896 76.2168 47.7049C75.949 47.9202 75.7508 48.2025 75.6221 48.5517C75.4934 48.9009 75.4291 49.2777 75.4291 49.682C75.4291 50.0864 75.4934 50.4619 75.6221 50.8085C75.7508 51.155 75.949 51.4347 76.2168 51.6474C76.4846 51.86 76.826 51.9664 77.2408 51.9664ZM82.3304 49.0361V52.6753H81.4009V46.6257H82.2989V47.571H82.3777C82.5194 47.2638 82.7348 47.017 83.0236 46.8305C83.3124 46.6415 83.6853 46.547 84.1421 46.547C84.5517 46.547 84.9101 46.631 85.2173 46.799C85.5245 46.9645 85.7635 47.2165 85.9342 47.5552C86.1048 47.8913 86.1902 48.3167 86.1902 48.8313V52.6753H85.2607V48.8943C85.2607 48.4191 85.1373 48.0489 84.8904 47.7837C84.6436 47.5158 84.3049 47.3819 83.8743 47.3819C83.5776 47.3819 83.3124 47.4463 83.0787 47.5749C82.8477 47.7036 82.6652 47.8913 82.5313 48.1381C82.3974 48.3849 82.3304 48.6843 82.3304 49.0361Z" fill="#032B3A"/>
<path d="M119.135 52.6753H116.645V44.6092H119.245C120.027 44.6092 120.697 44.7707 121.254 45.0936C121.81 45.414 122.237 45.8748 122.534 46.4761C122.83 47.0747 122.979 47.7915 122.979 48.6265C122.979 49.4667 122.829 50.1901 122.53 50.7966C122.23 51.4006 121.794 51.8653 121.222 52.1909C120.65 52.5138 119.954 52.6753 119.135 52.6753ZM117.622 51.8088H119.072C119.739 51.8088 120.291 51.6802 120.73 51.4229C121.168 51.1656 121.495 50.7993 121.71 50.324C121.926 49.8488 122.033 49.2829 122.033 48.6265C122.033 47.9753 121.927 47.4148 121.714 46.9448C121.502 46.4721 121.184 46.1098 120.761 45.8577C120.338 45.603 119.812 45.4757 119.182 45.4757H117.622V51.8088ZM126.271 52.8171C125.888 52.8171 125.54 52.7449 125.228 52.6005C124.915 52.4535 124.667 52.2421 124.483 51.9664C124.299 51.6881 124.207 51.352 124.207 50.9581C124.207 50.6115 124.276 50.3306 124.412 50.1153C124.549 49.8973 124.731 49.7267 124.96 49.6033C125.188 49.4799 125.44 49.388 125.716 49.3276C125.994 49.2646 126.274 49.2147 126.555 49.1779C126.922 49.1306 127.22 49.0952 127.449 49.0716C127.68 49.0453 127.848 49.002 127.953 48.9416C128.061 48.8812 128.114 48.7762 128.114 48.6265V48.595C128.114 48.2064 128.008 47.9044 127.795 47.6891C127.585 47.4738 127.266 47.3662 126.838 47.3662C126.395 47.3662 126.047 47.4633 125.795 47.6576C125.543 47.8519 125.365 48.0594 125.263 48.2799L124.381 47.9648C124.538 47.5972 124.748 47.311 125.011 47.1062C125.276 46.8988 125.565 46.7544 125.877 46.673C126.192 46.589 126.502 46.547 126.807 46.547C127.001 46.547 127.224 46.5706 127.476 46.6179C127.731 46.6625 127.977 46.7557 128.213 46.8975C128.452 47.0393 128.65 47.2533 128.808 47.5395C128.965 47.8257 129.044 48.209 129.044 48.6895V52.6753H128.114V51.8561H128.067C128.004 51.9874 127.899 52.1279 127.752 52.2775C127.605 52.4272 127.409 52.5545 127.165 52.6596C126.921 52.7646 126.623 52.8171 126.271 52.8171ZM126.413 51.9821C126.781 51.9821 127.09 51.9099 127.343 51.7655C127.597 51.6211 127.789 51.4347 127.918 51.2063C128.049 50.9778 128.114 50.7376 128.114 50.4855V49.6348C128.075 49.682 127.988 49.7254 127.855 49.7647C127.723 49.8015 127.571 49.8343 127.398 49.8632C127.227 49.8895 127.06 49.9131 126.897 49.9341C126.737 49.9525 126.607 49.9682 126.508 49.9814C126.266 50.0129 126.04 50.0641 125.83 50.135C125.623 50.2032 125.455 50.307 125.326 50.4461C125.2 50.5826 125.137 50.7691 125.137 51.0054C125.137 51.3283 125.256 51.5725 125.495 51.738C125.737 51.9007 126.043 51.9821 126.413 51.9821ZM133.371 46.6257V47.4134H130.236V46.6257H133.371ZM131.15 45.1764H132.08V50.9424C132.08 51.2049 132.118 51.4019 132.194 51.5331C132.273 51.6618 132.372 51.7485 132.493 51.7931C132.617 51.8351 132.747 51.8561 132.883 51.8561C132.985 51.8561 133.069 51.8509 133.135 51.8404C133.201 51.8272 133.253 51.8167 133.293 51.8088L133.482 52.6438C133.419 52.6674 133.331 52.6911 133.218 52.7147C133.105 52.741 132.962 52.7541 132.789 52.7541C132.526 52.7541 132.269 52.6976 132.017 52.5847C131.767 52.4718 131.56 52.2999 131.394 52.0688C131.231 51.8377 131.15 51.5463 131.15 51.1944V45.1764ZM136.55 52.8171C136.166 52.8171 135.819 52.7449 135.506 52.6005C135.194 52.4535 134.946 52.2421 134.762 51.9664C134.578 51.6881 134.486 51.352 134.486 50.9581C134.486 50.6115 134.554 50.3306 134.691 50.1153C134.827 49.8973 135.01 49.7267 135.238 49.6033C135.467 49.4799 135.719 49.388 135.994 49.3276C136.273 49.2646 136.552 49.2147 136.833 49.1779C137.201 49.1306 137.499 49.0952 137.727 49.0716C137.959 49.0453 138.127 49.002 138.232 48.9416C138.339 48.8812 138.393 48.7762 138.393 48.6265V48.595C138.393 48.2064 138.287 47.9044 138.074 47.6891C137.864 47.4738 137.545 47.3662 137.117 47.3662C136.673 47.3662 136.325 47.4633 136.073 47.6576C135.821 47.8519 135.644 48.0594 135.542 48.2799L134.659 47.9648C134.817 47.5972 135.027 47.311 135.289 47.1062C135.555 46.8988 135.844 46.7544 136.156 46.673C136.471 46.589 136.781 46.547 137.085 46.547C137.28 46.547 137.503 46.5706 137.755 46.6179C138.01 46.6625 138.255 46.7557 138.492 46.8975C138.73 47.0393 138.929 47.2533 139.086 47.5395C139.244 47.8257 139.323 48.209 139.323 48.6895V52.6753H138.393V51.8561H138.346C138.283 51.9874 138.178 52.1279 138.031 52.2775C137.884 52.4272 137.688 52.5545 137.444 52.6596C137.2 52.7646 136.902 52.8171 136.55 52.8171ZM136.692 51.9821C137.059 51.9821 137.369 51.9099 137.621 51.7655C137.876 51.6211 138.067 51.4347 138.196 51.2063C138.327 50.9778 138.393 50.7376 138.393 50.4855V49.6348C138.354 49.682 138.267 49.7254 138.133 49.7647C138.002 49.8015 137.85 49.8343 137.676 49.8632C137.506 49.8895 137.339 49.9131 137.176 49.9341C137.016 49.9525 136.886 49.9682 136.786 49.9814C136.545 50.0129 136.319 50.0641 136.109 50.135C135.901 50.2032 135.733 50.307 135.605 50.4461C135.479 50.5826 135.416 50.7691 135.416 51.0054C135.416 51.3283 135.535 51.5725 135.774 51.738C136.015 51.9007 136.321 51.9821 136.692 51.9821Z" fill="#233D48"/>
<g clip-path="url(#clip4_3_6172)">
<rect x="27.3376" y="58.8441" width="170.429" height="0.792208" fill="#DADFE2"/>
</g>
</g>
<g clip-path="url(#clip5_3_6172)">
<path d="M30.8036 73.013H28.3144V64.9469H30.9138C31.6963 64.9469 32.3658 65.1084 32.9225 65.4313C33.4791 65.7517 33.9058 66.2125 34.2025 66.8137C34.4992 67.4124 34.6476 68.1292 34.6476 68.9642C34.6476 69.8044 34.4979 70.5278 34.1986 71.1343C33.8992 71.7382 33.4634 72.203 32.891 72.5286C32.3186 72.8515 31.6228 73.013 30.8036 73.013ZM29.2912 72.1465H30.7405C31.4075 72.1465 31.9602 72.0179 32.3987 71.7605C32.8372 71.5032 33.164 71.1369 33.3794 70.6617C33.5947 70.1864 33.7023 69.6206 33.7023 68.9642C33.7023 68.313 33.596 67.7524 33.3833 67.2824C33.1706 66.8098 32.8529 66.4475 32.4302 66.1954C32.0074 65.9407 31.481 65.8134 30.8508 65.8134H29.2912V72.1465ZM38.6964 73.139C38.1135 73.139 37.6107 73.0104 37.1879 72.7531C36.7678 72.4931 36.4435 72.1308 36.2151 71.666C35.9893 71.1986 35.8764 70.6551 35.8764 70.0355C35.8764 69.4158 35.9893 68.8697 36.2151 68.397C36.4435 67.9218 36.7612 67.5516 37.1682 67.2864C37.5778 67.0186 38.0557 66.8846 38.6019 66.8846C38.9169 66.8846 39.2281 66.9372 39.5353 67.0422C39.8425 67.1472 40.1221 67.3179 40.3742 67.5542C40.6263 67.7879 40.8271 68.0977 40.9768 68.4837C41.1265 68.8697 41.2013 69.3449 41.2013 69.9094V70.3033H36.5381V69.4998H40.256C40.256 69.1585 40.1878 68.8539 40.0512 68.5861C39.9173 68.3183 39.7256 68.1069 39.4762 67.952C39.2294 67.7971 38.9379 67.7196 38.6019 67.7196C38.2316 67.7196 37.9113 67.8115 37.6408 67.9953C37.373 68.1765 37.1669 68.4128 37.0225 68.7042C36.8781 68.9957 36.8059 69.3082 36.8059 69.6416V70.1773C36.8059 70.6341 36.8847 71.0214 37.0422 71.3391C37.2024 71.6542 37.4242 71.8945 37.7078 72.0599C37.9914 72.2227 38.3209 72.3041 38.6964 72.3041C38.9406 72.3041 39.1611 72.2699 39.358 72.2017C39.5576 72.1308 39.7296 72.0257 39.874 71.8866C40.0184 71.7448 40.13 71.5689 40.2088 71.3588L41.1068 71.6109C41.0122 71.9155 40.8534 72.1833 40.6302 72.4143C40.407 72.6428 40.1313 72.8213 39.8031 72.95C39.4749 73.076 39.106 73.139 38.6964 73.139ZM46.9003 68.3183L46.0654 68.5546C46.0129 68.4154 45.9354 68.2802 45.833 68.1489C45.7332 68.015 45.5967 67.9047 45.4234 67.8181C45.2501 67.7314 45.0282 67.6881 44.7578 67.6881C44.3876 67.6881 44.079 67.7734 43.8322 67.9441C43.588 68.1122 43.4659 68.3261 43.4659 68.5861C43.4659 68.8171 43.55 68.9996 43.718 69.1335C43.886 69.2675 44.1486 69.379 44.5057 69.4683L45.4037 69.6889C45.9446 69.8202 46.3476 70.021 46.6128 70.2915C46.878 70.5593 47.0106 70.9046 47.0106 71.3273C47.0106 71.6739 46.9108 71.9837 46.7113 72.2568C46.5144 72.5299 46.2387 72.7452 45.8842 72.9027C45.5297 73.0603 45.1175 73.139 44.6475 73.139C44.0305 73.139 43.5198 73.0051 43.1154 72.7373C42.7111 72.4695 42.455 72.0783 42.3474 71.5636L43.2296 71.3431C43.3136 71.6686 43.4725 71.9128 43.7062 72.0756C43.9425 72.2384 44.251 72.3198 44.6317 72.3198C45.065 72.3198 45.4089 72.2279 45.6636 72.0441C45.921 71.8577 46.0496 71.6345 46.0496 71.3746C46.0496 71.1645 45.9761 70.9886 45.8291 70.8468C45.682 70.7024 45.4562 70.5947 45.1516 70.5238L44.1434 70.2875C43.5893 70.1563 43.1824 69.9528 42.9224 69.6771C42.6651 69.3987 42.5364 69.0508 42.5364 68.6334C42.5364 68.292 42.6323 67.9901 42.824 67.7275C43.0183 67.4649 43.2821 67.2588 43.6156 67.1091C43.9517 66.9595 44.3324 66.8846 44.7578 66.8846C45.3564 66.8846 45.8264 67.0159 46.1678 67.2785C46.5117 67.5411 46.7559 67.8877 46.9003 68.3183ZM50.8674 73.139C50.3003 73.139 49.8119 73.0051 49.4023 72.7373C48.9927 72.4695 48.6776 72.1006 48.457 71.6306C48.2365 71.1606 48.1262 70.6236 48.1262 70.0197C48.1262 69.4053 48.2391 68.8631 48.4649 68.3931C48.6934 67.9205 49.0111 67.5516 49.418 67.2864C49.8277 67.0186 50.3055 66.8846 50.8517 66.8846C51.277 66.8846 51.6604 66.9634 52.0017 67.121C52.3431 67.2785 52.6227 67.4991 52.8406 67.7826C53.0586 68.0662 53.1938 68.397 53.2463 68.7751H52.3168C52.2459 68.4994 52.0884 68.2553 51.8442 68.0426C51.6026 67.8273 51.277 67.7196 50.8674 67.7196C50.5051 67.7196 50.1874 67.8141 49.9143 68.0032C49.6439 68.1896 49.4325 68.4535 49.2802 68.7948C49.1305 69.1335 49.0557 69.5313 49.0557 69.9882C49.0557 70.4556 49.1292 70.8626 49.2763 71.2092C49.4259 71.5557 49.636 71.8249 49.9064 72.0166C50.1795 72.2082 50.4998 72.3041 50.8674 72.3041C51.109 72.3041 51.3282 72.2621 51.5252 72.178C51.7221 72.094 51.8888 71.9732 52.0254 71.8157C52.1619 71.6581 52.259 71.4691 52.3168 71.2485H53.2463C53.1938 71.6056 53.0638 71.9273 52.8564 72.2135C52.6516 72.4971 52.3798 72.7229 52.0411 72.8909C51.705 73.0563 51.3138 73.139 50.8674 73.139ZM54.6051 73.013V66.9634H55.5031V67.8772H55.5661C55.6764 67.5778 55.8759 67.3349 56.1648 67.1485C56.4536 66.9621 56.7792 66.8689 57.1415 66.8689C57.2098 66.8689 57.2951 66.8702 57.3975 66.8728C57.4999 66.8755 57.5774 66.8794 57.6299 66.8846V67.8299C57.5984 67.822 57.5262 67.8102 57.4133 67.7944C57.303 67.7761 57.1861 67.7669 57.0627 67.7669C56.7687 67.7669 56.5061 67.8286 56.275 67.952C56.0466 68.0728 55.8654 68.2408 55.7315 68.4561C55.6002 68.6688 55.5346 68.9117 55.5346 69.1847V73.013H54.6051ZM58.7317 73.013V66.9634H59.6612V73.013H58.7317ZM59.2043 65.9551C59.0231 65.9551 58.8669 65.8934 58.7356 65.77C58.607 65.6466 58.5426 65.4983 58.5426 65.325C58.5426 65.1517 58.607 65.0033 58.7356 64.8799C58.8669 64.7565 59.0231 64.6948 59.2043 64.6948C59.3855 64.6948 59.5404 64.7565 59.6691 64.8799C59.8003 65.0033 59.866 65.1517 59.866 65.325C59.866 65.4983 59.8003 65.6466 59.6691 65.77C59.5404 65.8934 59.3855 65.9551 59.2043 65.9551ZM61.3636 75.2816V66.9634H62.2616V67.9244H62.3719C62.4401 67.8194 62.5347 67.6855 62.6555 67.5227C62.7789 67.3573 62.9548 67.2102 63.1832 67.0816C63.4143 66.9503 63.7267 66.8846 64.1206 66.8846C64.63 66.8846 65.079 67.012 65.4676 67.2667C65.8562 67.5214 66.1594 67.8824 66.3774 68.3498C66.5953 68.8171 66.7043 69.3685 66.7043 70.004C66.7043 70.6446 66.5953 71.2 66.3774 71.67C66.1594 72.1373 65.8575 72.4997 65.4715 72.757C65.0855 73.0117 64.6405 73.139 64.1363 73.139C63.7477 73.139 63.4366 73.0747 63.2029 72.946C62.9692 72.8148 62.7894 72.6664 62.6633 72.501C62.5373 72.3329 62.4401 72.1938 62.3719 72.0835H62.2931V75.2816H61.3636ZM62.2774 69.9882C62.2774 70.4451 62.3443 70.8481 62.4782 71.1973C62.6121 71.5439 62.8077 71.8157 63.0651 72.0126C63.3224 72.2069 63.6375 72.3041 64.0103 72.3041C64.3989 72.3041 64.7232 72.2017 64.9831 71.9969C65.2457 71.7894 65.4426 71.5111 65.5739 71.1619C65.7078 70.81 65.7748 70.4188 65.7748 69.9882C65.7748 69.5628 65.7091 69.1795 65.5778 68.8382C65.4492 68.4942 65.2536 68.2224 64.991 68.0229C64.7311 67.8207 64.4042 67.7196 64.0103 67.7196C63.6322 67.7196 63.3145 67.8154 63.0572 68.0071C62.7999 68.1962 62.6056 68.4614 62.4743 68.8027C62.343 69.1414 62.2774 69.5366 62.2774 69.9882ZM70.7531 66.9634V67.7511H67.618V66.9634H70.7531ZM68.5317 65.514H69.4612V71.28C69.4612 71.5426 69.4993 71.7395 69.5755 71.8708C69.6542 71.9995 69.754 72.0861 69.8748 72.1308C69.9982 72.1728 70.1282 72.1938 70.2647 72.1938C70.3671 72.1938 70.4511 72.1885 70.5168 72.178C70.5824 72.1649 70.6349 72.1544 70.6743 72.1465L70.8634 72.9815C70.8003 73.0051 70.7124 73.0288 70.5995 73.0524C70.4866 73.0786 70.3435 73.0918 70.1702 73.0918C69.9076 73.0918 69.6503 73.0353 69.3982 72.9224C69.1488 72.8095 68.9414 72.6375 68.7759 72.4065C68.6131 72.1754 68.5317 71.884 68.5317 71.5321V65.514ZM72.1513 73.013V66.9634H73.0808V73.013H72.1513ZM72.6239 65.9551C72.4427 65.9551 72.2865 65.8934 72.1552 65.77C72.0265 65.6466 71.9622 65.4983 71.9622 65.325C71.9622 65.1517 72.0265 65.0033 72.1552 64.8799C72.2865 64.7565 72.4427 64.6948 72.6239 64.6948C72.8051 64.6948 72.96 64.7565 73.0886 64.8799C73.2199 65.0033 73.2856 65.1517 73.2856 65.325C73.2856 65.4983 73.2199 65.6466 73.0886 65.77C72.96 65.8934 72.8051 65.9551 72.6239 65.9551ZM77.2408 73.139C76.6947 73.139 76.2155 73.0091 75.8033 72.7491C75.3937 72.4892 75.0733 72.1255 74.8423 71.6581C74.6138 71.1908 74.4996 70.6446 74.4996 70.0197C74.4996 69.3895 74.6138 68.8395 74.8423 68.3695C75.0733 67.8995 75.3937 67.5345 75.8033 67.2746C76.2155 67.0146 76.6947 66.8846 77.2408 66.8846C77.787 66.8846 78.2648 67.0146 78.6745 67.2746C79.0867 67.5345 79.407 67.8995 79.6355 68.3695C79.8665 68.8395 79.982 69.3895 79.982 70.0197C79.982 70.6446 79.8665 71.1908 79.6355 71.6581C79.407 72.1255 79.0867 72.4892 78.6745 72.7491C78.2648 73.0091 77.787 73.139 77.2408 73.139ZM77.2408 72.3041C77.6557 72.3041 77.997 72.1977 78.2648 71.985C78.5327 71.7724 78.7309 71.4927 78.8596 71.1461C78.9882 70.7995 79.0526 70.4241 79.0526 70.0197C79.0526 69.6154 78.9882 69.2386 78.8596 68.8894C78.7309 68.5401 78.5327 68.2579 78.2648 68.0426C77.997 67.8273 77.6557 67.7196 77.2408 67.7196C76.826 67.7196 76.4846 67.8273 76.2168 68.0426C75.949 68.2579 75.7508 68.5401 75.6221 68.8894C75.4934 69.2386 75.4291 69.6154 75.4291 70.0197C75.4291 70.4241 75.4934 70.7995 75.6221 71.1461C75.7508 71.4927 75.949 71.7724 76.2168 71.985C76.4846 72.1977 76.826 72.3041 77.2408 72.3041ZM82.3304 69.3738V73.013H81.4009V66.9634H82.2989V67.9087H82.3777C82.5194 67.6015 82.7348 67.3546 83.0236 67.1682C83.3124 66.9792 83.6853 66.8846 84.1421 66.8846C84.5517 66.8846 84.9101 66.9687 85.2173 67.1367C85.5245 67.3021 85.7635 67.5542 85.9342 67.8929C86.1048 68.229 86.1902 68.6544 86.1902 69.169V73.013H85.2607V69.232C85.2607 68.7568 85.1373 68.3865 84.8904 68.1213C84.6436 67.8535 84.3049 67.7196 83.8743 67.7196C83.5776 67.7196 83.3124 67.7839 83.0787 67.9126C82.8477 68.0413 82.6652 68.229 82.5313 68.4758C82.3974 68.7226 82.3304 69.022 82.3304 69.3738Z" fill="#032B3A"/>
<path d="M119.135 73.013H116.645V64.9469H119.245C120.027 64.9469 120.697 65.1084 121.254 65.4313C121.81 65.7517 122.237 66.2125 122.534 66.8137C122.83 67.4124 122.979 68.1292 122.979 68.9642C122.979 69.8044 122.829 70.5278 122.53 71.1343C122.23 71.7382 121.794 72.203 121.222 72.5286C120.65 72.8515 119.954 73.013 119.135 73.013ZM117.622 72.1465H119.072C119.739 72.1465 120.291 72.0179 120.73 71.7605C121.168 71.5032 121.495 71.1369 121.71 70.6617C121.926 70.1864 122.033 69.6206 122.033 68.9642C122.033 68.313 121.927 67.7524 121.714 67.2824C121.502 66.8098 121.184 66.4475 120.761 66.1954C120.338 65.9407 119.812 65.8134 119.182 65.8134H117.622V72.1465ZM126.271 73.1548C125.888 73.1548 125.54 73.0826 125.228 72.9382C124.915 72.7911 124.667 72.5798 124.483 72.3041C124.299 72.0257 124.207 71.6897 124.207 71.2958C124.207 70.9492 124.276 70.6683 124.412 70.453C124.549 70.235 124.731 70.0644 124.96 69.9409C125.188 69.8175 125.44 69.7256 125.716 69.6652C125.994 69.6022 126.274 69.5523 126.555 69.5156C126.922 69.4683 127.22 69.4329 127.449 69.4092C127.68 69.383 127.848 69.3397 127.953 69.2793C128.061 69.2189 128.114 69.1139 128.114 68.9642V68.9327C128.114 68.5441 128.008 68.2421 127.795 68.0268C127.585 67.8115 127.266 67.7039 126.838 67.7039C126.395 67.7039 126.047 67.801 125.795 67.9953C125.543 68.1896 125.365 68.397 125.263 68.6176L124.381 68.3025C124.538 67.9349 124.748 67.6487 125.011 67.4439C125.276 67.2365 125.565 67.0921 125.877 67.0107C126.192 66.9267 126.502 66.8846 126.807 66.8846C127.001 66.8846 127.224 66.9083 127.476 66.9555C127.731 67.0002 127.977 67.0934 128.213 67.2352C128.452 67.377 128.65 67.591 128.808 67.8772C128.965 68.1634 129.044 68.5467 129.044 69.0272V73.013H128.114V72.1938H128.067C128.004 72.3251 127.899 72.4655 127.752 72.6152C127.605 72.7649 127.409 72.8922 127.165 72.9972C126.921 73.1023 126.623 73.1548 126.271 73.1548ZM126.413 72.3198C126.781 72.3198 127.09 72.2476 127.343 72.1032C127.597 71.9588 127.789 71.7724 127.918 71.5439C128.049 71.3155 128.114 71.0752 128.114 70.8232V69.9725C128.075 70.0197 127.988 70.063 127.855 70.1024C127.723 70.1392 127.571 70.172 127.398 70.2009C127.227 70.2271 127.06 70.2508 126.897 70.2718C126.737 70.2902 126.607 70.3059 126.508 70.319C126.266 70.3506 126.04 70.4018 125.83 70.4726C125.623 70.5409 125.455 70.6446 125.326 70.7838C125.2 70.9203 125.137 71.1068 125.137 71.3431C125.137 71.666 125.256 71.9102 125.495 72.0756C125.737 72.2384 126.043 72.3198 126.413 72.3198ZM133.371 66.9634V67.7511H130.236V66.9634H133.371ZM131.15 65.514H132.08V71.28C132.08 71.5426 132.118 71.7395 132.194 71.8708C132.273 71.9995 132.372 72.0861 132.493 72.1308C132.617 72.1728 132.747 72.1938 132.883 72.1938C132.985 72.1938 133.069 72.1885 133.135 72.178C133.201 72.1649 133.253 72.1544 133.293 72.1465L133.482 72.9815C133.419 73.0051 133.331 73.0288 133.218 73.0524C133.105 73.0786 132.962 73.0918 132.789 73.0918C132.526 73.0918 132.269 73.0353 132.017 72.9224C131.767 72.8095 131.56 72.6375 131.394 72.4065C131.231 72.1754 131.15 71.884 131.15 71.5321V65.514ZM136.55 73.1548C136.166 73.1548 135.819 73.0826 135.506 72.9382C135.194 72.7911 134.946 72.5798 134.762 72.3041C134.578 72.0257 134.486 71.6897 134.486 71.2958C134.486 70.9492 134.554 70.6683 134.691 70.453C134.827 70.235 135.01 70.0644 135.238 69.9409C135.467 69.8175 135.719 69.7256 135.994 69.6652C136.273 69.6022 136.552 69.5523 136.833 69.5156C137.201 69.4683 137.499 69.4329 137.727 69.4092C137.959 69.383 138.127 69.3397 138.232 69.2793C138.339 69.2189 138.393 69.1139 138.393 68.9642V68.9327C138.393 68.5441 138.287 68.2421 138.074 68.0268C137.864 67.8115 137.545 67.7039 137.117 67.7039C136.673 67.7039 136.325 67.801 136.073 67.9953C135.821 68.1896 135.644 68.397 135.542 68.6176L134.659 68.3025C134.817 67.9349 135.027 67.6487 135.289 67.4439C135.555 67.2365 135.844 67.0921 136.156 67.0107C136.471 66.9267 136.781 66.8846 137.085 66.8846C137.28 66.8846 137.503 66.9083 137.755 66.9555C138.01 67.0002 138.255 67.0934 138.492 67.2352C138.73 67.377 138.929 67.591 139.086 67.8772C139.244 68.1634 139.323 68.5467 139.323 69.0272V73.013H138.393V72.1938H138.346C138.283 72.3251 138.178 72.4655 138.031 72.6152C137.884 72.7649 137.688 72.8922 137.444 72.9972C137.2 73.1023 136.902 73.1548 136.55 73.1548ZM136.692 72.3198C137.059 72.3198 137.369 72.2476 137.621 72.1032C137.876 71.9588 138.067 71.7724 138.196 71.5439C138.327 71.3155 138.393 71.0752 138.393 70.8232V69.9725C138.354 70.0197 138.267 70.063 138.133 70.1024C138.002 70.1392 137.85 70.172 137.676 70.2009C137.506 70.2271 137.339 70.2508 137.176 70.2718C137.016 70.2902 136.886 70.3059 136.786 70.319C136.545 70.3506 136.319 70.4018 136.109 70.4726C135.901 70.5409 135.733 70.6446 135.605 70.7838C135.479 70.9203 135.416 71.1068 135.416 71.3431C135.416 71.666 135.535 71.9102 135.774 72.0756C136.015 72.2384 136.321 72.3198 136.692 72.3198Z" fill="#233D48"/>
<g clip-path="url(#clip6_3_6172)">
<rect x="27.3376" y="79.1818" width="170.429" height="0.792208" fill="#DADFE2"/>
</g>
</g>
<g clip-path="url(#clip7_3_6172)">
<path d="M30.8036 93.3506H28.3144V85.2845H30.9138C31.6963 85.2845 32.3658 85.446 32.9225 85.769C33.4791 86.0893 33.9058 86.5501 34.2025 87.1514C34.4992 87.7501 34.6476 88.4669 34.6476 89.3018C34.6476 90.1421 34.4979 90.8654 34.1986 91.472C33.8992 92.0759 33.4634 92.5406 32.891 92.8662C32.3186 93.1892 31.6228 93.3506 30.8036 93.3506ZM29.2912 92.4842H30.7405C31.4075 92.4842 31.9602 92.3555 32.3987 92.0982C32.8372 91.8409 33.164 91.4746 33.3794 90.9993C33.5947 90.5241 33.7023 89.9583 33.7023 89.3018C33.7023 88.6507 33.596 88.0901 33.3833 87.6201C33.1706 87.1475 32.8529 86.7851 32.4302 86.533C32.0074 86.2784 31.481 86.151 30.8508 86.151H29.2912V92.4842ZM38.6964 93.4767C38.1135 93.4767 37.6107 93.348 37.1879 93.0907C36.7678 92.8308 36.4435 92.4684 36.2151 92.0037C35.9893 91.5363 35.8764 90.9928 35.8764 90.3731C35.8764 89.7535 35.9893 89.2073 36.2151 88.7347C36.4435 88.2594 36.7612 87.8892 37.1682 87.624C37.5778 87.3562 38.0557 87.2223 38.6019 87.2223C38.9169 87.2223 39.2281 87.2748 39.5353 87.3798C39.8425 87.4849 40.1221 87.6555 40.3742 87.8918C40.6263 88.1255 40.8271 88.4354 40.9768 88.8213C41.1265 89.2073 41.2013 89.6826 41.2013 90.2471V90.6409H36.5381V89.8375H40.256C40.256 89.4961 40.1878 89.1916 40.0512 88.9237C39.9173 88.6559 39.7256 88.4445 39.4762 88.2896C39.2294 88.1347 38.9379 88.0573 38.6019 88.0573C38.2316 88.0573 37.9113 88.1492 37.6408 88.333C37.373 88.5141 37.1669 88.7504 37.0225 89.0419C36.8781 89.3333 36.8059 89.6458 36.8059 89.9793V90.5149C36.8059 90.9718 36.8847 91.3591 37.0422 91.6768C37.2024 91.9919 37.4242 92.2321 37.7078 92.3975C37.9914 92.5603 38.3209 92.6417 38.6964 92.6417C38.9406 92.6417 39.1611 92.6076 39.358 92.5393C39.5576 92.4684 39.7296 92.3634 39.874 92.2242C40.0184 92.0824 40.13 91.9065 40.2088 91.6965L41.1068 91.9485C41.0122 92.2531 40.8534 92.5209 40.6302 92.752C40.407 92.9804 40.1313 93.159 39.8031 93.2876C39.4749 93.4137 39.106 93.4767 38.6964 93.4767ZM46.9003 88.6559L46.0654 88.8922C46.0129 88.7531 45.9354 88.6178 45.833 88.4866C45.7332 88.3526 45.5967 88.2424 45.4234 88.1557C45.2501 88.0691 45.0282 88.0258 44.7578 88.0258C44.3876 88.0258 44.079 88.1111 43.8322 88.2818C43.588 88.4498 43.4659 88.6638 43.4659 88.9237C43.4659 89.1548 43.55 89.3373 43.718 89.4712C43.886 89.6051 44.1486 89.7167 44.5057 89.806L45.4037 90.0265C45.9446 90.1578 46.3476 90.3587 46.6128 90.6291C46.878 90.8969 47.0106 91.2422 47.0106 91.665C47.0106 92.0115 46.9108 92.3214 46.7113 92.5944C46.5144 92.8675 46.2387 93.0828 45.8842 93.2404C45.5297 93.3979 45.1175 93.4767 44.6475 93.4767C44.0305 93.4767 43.5198 93.3428 43.1154 93.0749C42.7111 92.8071 42.455 92.4159 42.3474 91.9013L43.2296 91.6807C43.3136 92.0063 43.4725 92.2505 43.7062 92.4133C43.9425 92.5761 44.251 92.6575 44.6317 92.6575C45.065 92.6575 45.4089 92.5656 45.6636 92.3818C45.921 92.1953 46.0496 91.9722 46.0496 91.7122C46.0496 91.5022 45.9761 91.3262 45.8291 91.1845C45.682 91.04 45.4562 90.9324 45.1516 90.8615L44.1434 90.6252C43.5893 90.4939 43.1824 90.2904 42.9224 90.0147C42.6651 89.7364 42.5364 89.3885 42.5364 88.971C42.5364 88.6297 42.6323 88.3277 42.824 88.0651C43.0183 87.8026 43.2821 87.5965 43.6156 87.4468C43.9517 87.2971 44.3324 87.2223 44.7578 87.2223C45.3564 87.2223 45.8264 87.3536 46.1678 87.6161C46.5117 87.8787 46.7559 88.2253 46.9003 88.6559ZM50.8674 93.4767C50.3003 93.4767 49.8119 93.3428 49.4023 93.0749C48.9927 92.8071 48.6776 92.4382 48.457 91.9682C48.2365 91.4982 48.1262 90.9613 48.1262 90.3574C48.1262 89.743 48.2391 89.2007 48.4649 88.7307C48.6934 88.2581 49.0111 87.8892 49.418 87.624C49.8277 87.3562 50.3055 87.2223 50.8517 87.2223C51.277 87.2223 51.6604 87.3011 52.0017 87.4586C52.3431 87.6161 52.6227 87.8367 52.8406 88.1203C53.0586 88.4038 53.1938 88.7347 53.2463 89.1128H52.3168C52.2459 88.8371 52.0884 88.5929 51.8442 88.3802C51.6026 88.1649 51.277 88.0573 50.8674 88.0573C50.5051 88.0573 50.1874 88.1518 49.9143 88.3408C49.6439 88.5273 49.4325 88.7911 49.2802 89.1325C49.1305 89.4712 49.0557 89.869 49.0557 90.3259C49.0557 90.7932 49.1292 91.2002 49.2763 91.5468C49.4259 91.8934 49.636 92.1625 49.9064 92.3542C50.1795 92.5459 50.4998 92.6417 50.8674 92.6417C51.109 92.6417 51.3282 92.5997 51.5252 92.5157C51.7221 92.4317 51.8888 92.3109 52.0254 92.1533C52.1619 91.9958 52.259 91.8067 52.3168 91.5862H53.2463C53.1938 91.9433 53.0638 92.2649 52.8564 92.5511C52.6516 92.8347 52.3798 93.0605 52.0411 93.2286C51.705 93.394 51.3138 93.4767 50.8674 93.4767ZM54.6051 93.3506V87.3011H55.5031V88.2148H55.5661C55.6764 87.9155 55.8759 87.6726 56.1648 87.4862C56.4536 87.2997 56.7792 87.2065 57.1415 87.2065C57.2098 87.2065 57.2951 87.2078 57.3975 87.2105C57.4999 87.2131 57.5774 87.217 57.6299 87.2223V88.1675C57.5984 88.1597 57.5262 88.1478 57.4133 88.1321C57.303 88.1137 57.1861 88.1045 57.0627 88.1045C56.7687 88.1045 56.5061 88.1662 56.275 88.2896C56.0466 88.4104 55.8654 88.5785 55.7315 88.7938C55.6002 89.0064 55.5346 89.2493 55.5346 89.5224V93.3506H54.6051ZM58.7317 93.3506V87.3011H59.6612V93.3506H58.7317ZM59.2043 86.2928C59.0231 86.2928 58.8669 86.2311 58.7356 86.1077C58.607 85.9843 58.5426 85.8359 58.5426 85.6626C58.5426 85.4893 58.607 85.341 58.7356 85.2176C58.8669 85.0942 59.0231 85.0325 59.2043 85.0325C59.3855 85.0325 59.5404 85.0942 59.6691 85.2176C59.8003 85.341 59.866 85.4893 59.866 85.6626C59.866 85.8359 59.8003 85.9843 59.6691 86.1077C59.5404 86.2311 59.3855 86.2928 59.2043 86.2928ZM61.3636 95.6192V87.3011H62.2616V88.2621H62.3719C62.4401 88.157 62.5347 88.0231 62.6555 87.8603C62.7789 87.6949 62.9548 87.5479 63.1832 87.4192C63.4143 87.2879 63.7267 87.2223 64.1206 87.2223C64.63 87.2223 65.079 87.3496 65.4676 87.6043C65.8562 87.859 66.1594 88.2201 66.3774 88.6874C66.5953 89.1548 66.7043 89.7062 66.7043 90.3416C66.7043 90.9823 66.5953 91.5376 66.3774 92.0076C66.1594 92.475 65.8575 92.8373 65.4715 93.0946C65.0855 93.3493 64.6405 93.4767 64.1363 93.4767C63.7477 93.4767 63.4366 93.4124 63.2029 93.2837C62.9692 93.1524 62.7894 93.0041 62.6633 92.8386C62.5373 92.6706 62.4401 92.5314 62.3719 92.4212H62.2931V95.6192H61.3636ZM62.2774 90.3259C62.2774 90.7827 62.3443 91.1858 62.4782 91.535C62.6121 91.8816 62.8077 92.1533 63.0651 92.3503C63.3224 92.5446 63.6375 92.6417 64.0103 92.6417C64.3989 92.6417 64.7232 92.5393 64.9831 92.3345C65.2457 92.1271 65.4426 91.8488 65.5739 91.4995C65.7078 91.1477 65.7748 90.7565 65.7748 90.3259C65.7748 89.9005 65.7091 89.5171 65.5778 89.1758C65.4492 88.8318 65.2536 88.5601 64.991 88.3605C64.7311 88.1583 64.4042 88.0573 64.0103 88.0573C63.6322 88.0573 63.3145 88.1531 63.0572 88.3448C62.7999 88.5338 62.6056 88.799 62.4743 89.1404C62.343 89.4791 62.2774 89.8742 62.2774 90.3259ZM70.7531 87.3011V88.0888H67.618V87.3011H70.7531ZM68.5317 85.8517H69.4612V91.6177C69.4612 91.8803 69.4993 92.0772 69.5755 92.2085C69.6542 92.3371 69.754 92.4238 69.8748 92.4684C69.9982 92.5104 70.1282 92.5314 70.2647 92.5314C70.3671 92.5314 70.4511 92.5262 70.5168 92.5157C70.5824 92.5025 70.6349 92.492 70.6743 92.4842L70.8634 93.3191C70.8003 93.3428 70.7124 93.3664 70.5995 93.39C70.4866 93.4163 70.3435 93.4294 70.1702 93.4294C69.9076 93.4294 69.6503 93.373 69.3982 93.2601C69.1488 93.1472 68.9414 92.9752 68.7759 92.7441C68.6131 92.5131 68.5317 92.2216 68.5317 91.8698V85.8517ZM72.1513 93.3506V87.3011H73.0808V93.3506H72.1513ZM72.6239 86.2928C72.4427 86.2928 72.2865 86.2311 72.1552 86.1077C72.0265 85.9843 71.9622 85.8359 71.9622 85.6626C71.9622 85.4893 72.0265 85.341 72.1552 85.2176C72.2865 85.0942 72.4427 85.0325 72.6239 85.0325C72.8051 85.0325 72.96 85.0942 73.0886 85.2176C73.2199 85.341 73.2856 85.4893 73.2856 85.6626C73.2856 85.8359 73.2199 85.9843 73.0886 86.1077C72.96 86.2311 72.8051 86.2928 72.6239 86.2928ZM77.2408 93.4767C76.6947 93.4767 76.2155 93.3467 75.8033 93.0868C75.3937 92.8268 75.0733 92.4632 74.8423 91.9958C74.6138 91.5284 74.4996 90.9823 74.4996 90.3574C74.4996 89.7272 74.6138 89.1771 74.8423 88.7071C75.0733 88.2371 75.3937 87.8721 75.8033 87.6122C76.2155 87.3523 76.6947 87.2223 77.2408 87.2223C77.787 87.2223 78.2648 87.3523 78.6745 87.6122C79.0867 87.8721 79.407 88.2371 79.6355 88.7071C79.8665 89.1771 79.982 89.7272 79.982 90.3574C79.982 90.9823 79.8665 91.5284 79.6355 91.9958C79.407 92.4632 79.0867 92.8268 78.6745 93.0868C78.2648 93.3467 77.787 93.4767 77.2408 93.4767ZM77.2408 92.6417C77.6557 92.6417 77.997 92.5354 78.2648 92.3227C78.5327 92.11 78.7309 91.8304 78.8596 91.4838C78.9882 91.1372 79.0526 90.7617 79.0526 90.3574C79.0526 89.953 78.9882 89.5762 78.8596 89.227C78.7309 88.8778 78.5327 88.5955 78.2648 88.3802C77.997 88.1649 77.6557 88.0573 77.2408 88.0573C76.826 88.0573 76.4846 88.1649 76.2168 88.3802C75.949 88.5955 75.7508 88.8778 75.6221 89.227C75.4934 89.5762 75.4291 89.953 75.4291 90.3574C75.4291 90.7617 75.4934 91.1372 75.6221 91.4838C75.7508 91.8304 75.949 92.11 76.2168 92.3227C76.4846 92.5354 76.826 92.6417 77.2408 92.6417ZM82.3304 89.7114V93.3506H81.4009V87.3011H82.2989V88.2463H82.3777C82.5194 87.9391 82.7348 87.6923 83.0236 87.5059C83.3124 87.3168 83.6853 87.2223 84.1421 87.2223C84.5517 87.2223 84.9101 87.3063 85.2173 87.4744C85.5245 87.6398 85.7635 87.8918 85.9342 88.2306C86.1048 88.5666 86.1902 88.992 86.1902 89.5066V93.3506H85.2607V89.5697C85.2607 89.0944 85.1373 88.7242 84.8904 88.459C84.6436 88.1912 84.3049 88.0573 83.8743 88.0573C83.5776 88.0573 83.3124 88.1216 83.0787 88.2502C82.8477 88.3789 82.6652 88.5666 82.5313 88.8135C82.3974 89.0603 82.3304 89.3596 82.3304 89.7114Z" fill="#032B3A"/>
<path d="M119.135 93.3506H116.645V85.2845H119.245C120.027 85.2845 120.697 85.446 121.254 85.769C121.81 86.0893 122.237 86.5501 122.534 87.1514C122.83 87.7501 122.979 88.4669 122.979 89.3018C122.979 90.1421 122.829 90.8654 122.53 91.472C122.23 92.0759 121.794 92.5406 121.222 92.8662C120.65 93.1892 119.954 93.3506 119.135 93.3506ZM117.622 92.4842H119.072C119.739 92.4842 120.291 92.3555 120.73 92.0982C121.168 91.8409 121.495 91.4746 121.71 90.9993C121.926 90.5241 122.033 89.9583 122.033 89.3018C122.033 88.6507 121.927 88.0901 121.714 87.6201C121.502 87.1475 121.184 86.7851 120.761 86.533C120.338 86.2784 119.812 86.151 119.182 86.151H117.622V92.4842ZM126.271 93.4924C125.888 93.4924 125.54 93.4202 125.228 93.2758C124.915 93.1288 124.667 92.9174 124.483 92.6417C124.299 92.3634 124.207 92.0273 124.207 91.6334C124.207 91.2869 124.276 91.0059 124.412 90.7906C124.549 90.5727 124.731 90.402 124.96 90.2786C125.188 90.1552 125.44 90.0633 125.716 90.0029C125.994 89.9399 126.274 89.89 126.555 89.8532C126.922 89.806 127.22 89.7705 127.449 89.7469C127.68 89.7206 127.848 89.6773 127.953 89.6169C128.061 89.5565 128.114 89.4515 128.114 89.3018V89.2703C128.114 88.8817 128.008 88.5798 127.795 88.3645C127.585 88.1492 127.266 88.0415 126.838 88.0415C126.395 88.0415 126.047 88.1387 125.795 88.333C125.543 88.5273 125.365 88.7347 125.263 88.9552L124.381 88.6402C124.538 88.2726 124.748 87.9864 125.011 87.7816C125.276 87.5741 125.565 87.4297 125.877 87.3483C126.192 87.2643 126.502 87.2223 126.807 87.2223C127.001 87.2223 127.224 87.2459 127.476 87.2932C127.731 87.3378 127.977 87.431 128.213 87.5728C128.452 87.7146 128.65 87.9286 128.808 88.2148C128.965 88.501 129.044 88.8844 129.044 89.3649V93.3506H128.114V92.5314H128.067C128.004 92.6627 127.899 92.8032 127.752 92.9529C127.605 93.1025 127.409 93.2299 127.165 93.3349C126.921 93.4399 126.623 93.4924 126.271 93.4924ZM126.413 92.6575C126.781 92.6575 127.09 92.5853 127.343 92.4408C127.597 92.2964 127.789 92.11 127.918 91.8816C128.049 91.6531 128.114 91.4129 128.114 91.1608V90.3101C128.075 90.3574 127.988 90.4007 127.855 90.4401C127.723 90.4768 127.571 90.5097 127.398 90.5385C127.227 90.5648 127.06 90.5884 126.897 90.6094C126.737 90.6278 126.607 90.6436 126.508 90.6567C126.266 90.6882 126.04 90.7394 125.83 90.8103C125.623 90.8786 125.455 90.9823 125.326 91.1214C125.2 91.258 125.137 91.4444 125.137 91.6807C125.137 92.0037 125.256 92.2479 125.495 92.4133C125.737 92.5761 126.043 92.6575 126.413 92.6575ZM133.371 87.3011V88.0888H130.236V87.3011H133.371ZM131.15 85.8517H132.08V91.6177C132.08 91.8803 132.118 92.0772 132.194 92.2085C132.273 92.3371 132.372 92.4238 132.493 92.4684C132.617 92.5104 132.747 92.5314 132.883 92.5314C132.985 92.5314 133.069 92.5262 133.135 92.5157C133.201 92.5025 133.253 92.492 133.293 92.4842L133.482 93.3191C133.419 93.3428 133.331 93.3664 133.218 93.39C133.105 93.4163 132.962 93.4294 132.789 93.4294C132.526 93.4294 132.269 93.373 132.017 93.2601C131.767 93.1472 131.56 92.9752 131.394 92.7441C131.231 92.5131 131.15 92.2216 131.15 91.8698V85.8517ZM136.55 93.4924C136.166 93.4924 135.819 93.4202 135.506 93.2758C135.194 93.1288 134.946 92.9174 134.762 92.6417C134.578 92.3634 134.486 92.0273 134.486 91.6334C134.486 91.2869 134.554 91.0059 134.691 90.7906C134.827 90.5727 135.01 90.402 135.238 90.2786C135.467 90.1552 135.719 90.0633 135.994 90.0029C136.273 89.9399 136.552 89.89 136.833 89.8532C137.201 89.806 137.499 89.7705 137.727 89.7469C137.959 89.7206 138.127 89.6773 138.232 89.6169C138.339 89.5565 138.393 89.4515 138.393 89.3018V89.2703C138.393 88.8817 138.287 88.5798 138.074 88.3645C137.864 88.1492 137.545 88.0415 137.117 88.0415C136.673 88.0415 136.325 88.1387 136.073 88.333C135.821 88.5273 135.644 88.7347 135.542 88.9552L134.659 88.6402C134.817 88.2726 135.027 87.9864 135.289 87.7816C135.555 87.5741 135.844 87.4297 136.156 87.3483C136.471 87.2643 136.781 87.2223 137.085 87.2223C137.28 87.2223 137.503 87.2459 137.755 87.2932C138.01 87.3378 138.255 87.431 138.492 87.5728C138.73 87.7146 138.929 87.9286 139.086 88.2148C139.244 88.501 139.323 88.8844 139.323 89.3649V93.3506H138.393V92.5314H138.346C138.283 92.6627 138.178 92.8032 138.031 92.9529C137.884 93.1025 137.688 93.2299 137.444 93.3349C137.2 93.4399 136.902 93.4924 136.55 93.4924ZM136.692 92.6575C137.059 92.6575 137.369 92.5853 137.621 92.4408C137.876 92.2964 138.067 92.11 138.196 91.8816C138.327 91.6531 138.393 91.4129 138.393 91.1608V90.3101C138.354 90.3574 138.267 90.4007 138.133 90.4401C138.002 90.4768 137.85 90.5097 137.676 90.5385C137.506 90.5648 137.339 90.5884 137.176 90.6094C137.016 90.6278 136.886 90.6436 136.786 90.6567C136.545 90.6882 136.319 90.7394 136.109 90.8103C135.901 90.8786 135.733 90.9823 135.605 91.1214C135.479 91.258 135.416 91.4444 135.416 91.6807C135.416 92.0037 135.535 92.2479 135.774 92.4133C136.015 92.5761 136.321 92.6575 136.692 92.6575Z" fill="#233D48"/>
<g clip-path="url(#clip8_3_6172)">
<rect x="27.3376" y="99.5195" width="170.429" height="0.792208" fill="#DADFE2"/>
</g>
</g>
<g clip-path="url(#clip9_3_6172)">
<path d="M30.8036 113.688H28.3144V105.622H30.9138C31.6963 105.622 32.3658 105.784 32.9225 106.107C33.4791 106.427 33.9058 106.888 34.2025 107.489C34.4992 108.088 34.6476 108.805 34.6476 109.639C34.6476 110.48 34.4979 111.203 34.1986 111.81C33.8992 112.414 33.4634 112.878 32.891 113.204C32.3186 113.527 31.6228 113.688 30.8036 113.688ZM29.2912 112.822H30.7405C31.4075 112.822 31.9602 112.693 32.3987 112.436C32.8372 112.179 33.164 111.812 33.3794 111.337C33.5947 110.862 33.7023 110.296 33.7023 109.639C33.7023 108.988 33.596 108.428 33.3833 107.958C33.1706 107.485 32.8529 107.123 32.4302 106.871C32.0074 106.616 31.481 106.489 30.8508 106.489H29.2912V112.822ZM38.6964 113.814C38.1135 113.814 37.6107 113.686 37.1879 113.428C36.7678 113.168 36.4435 112.806 36.2151 112.341C35.9893 111.874 35.8764 111.33 35.8764 110.711C35.8764 110.091 35.9893 109.545 36.2151 109.072C36.4435 108.597 36.7612 108.227 37.1682 107.962C37.5778 107.694 38.0557 107.56 38.6019 107.56C38.9169 107.56 39.2281 107.612 39.5353 107.717C39.8425 107.823 40.1221 107.993 40.3742 108.229C40.6263 108.463 40.8271 108.773 40.9768 109.159C41.1265 109.545 41.2013 110.02 41.2013 110.585V110.979H36.5381V110.175H40.256C40.256 109.834 40.1878 109.529 40.0512 109.261C39.9173 108.994 39.7256 108.782 39.4762 108.627C39.2294 108.472 38.9379 108.395 38.6019 108.395C38.2316 108.395 37.9113 108.487 37.6408 108.671C37.373 108.852 37.1669 109.088 37.0225 109.38C36.8781 109.671 36.8059 109.983 36.8059 110.317V110.853C36.8059 111.309 36.8847 111.697 37.0422 112.014C37.2024 112.329 37.4242 112.57 37.7078 112.735C37.9914 112.898 38.3209 112.979 38.6964 112.979C38.9406 112.979 39.1611 112.945 39.358 112.877C39.5576 112.806 39.7296 112.701 39.874 112.562C40.0184 112.42 40.13 112.244 40.2088 112.034L41.1068 112.286C41.0122 112.591 40.8534 112.859 40.6302 113.09C40.407 113.318 40.1313 113.497 39.8031 113.625C39.4749 113.751 39.106 113.814 38.6964 113.814ZM46.9003 108.994L46.0654 109.23C46.0129 109.091 45.9354 108.955 45.833 108.824C45.7332 108.69 45.5967 108.58 45.4234 108.493C45.2501 108.407 45.0282 108.363 44.7578 108.363C44.3876 108.363 44.079 108.449 43.8322 108.619C43.588 108.787 43.4659 109.001 43.4659 109.261C43.4659 109.492 43.55 109.675 43.718 109.809C43.886 109.943 44.1486 110.054 44.5057 110.144L45.4037 110.364C45.9446 110.495 46.3476 110.696 46.6128 110.967C46.878 111.235 47.0106 111.58 47.0106 112.003C47.0106 112.349 46.9108 112.659 46.7113 112.932C46.5144 113.205 46.2387 113.42 45.8842 113.578C45.5297 113.736 45.1175 113.814 44.6475 113.814C44.0305 113.814 43.5198 113.68 43.1154 113.413C42.7111 113.145 42.455 112.754 42.3474 112.239L43.2296 112.018C43.3136 112.344 43.4725 112.588 43.7062 112.751C43.9425 112.914 44.251 112.995 44.6317 112.995C45.065 112.995 45.4089 112.903 45.6636 112.719C45.921 112.533 46.0496 112.31 46.0496 112.05C46.0496 111.84 45.9761 111.664 45.8291 111.522C45.682 111.378 45.4562 111.27 45.1516 111.199L44.1434 110.963C43.5893 110.832 43.1824 110.628 42.9224 110.352C42.6651 110.074 42.5364 109.726 42.5364 109.309C42.5364 108.967 42.6323 108.665 42.824 108.403C43.0183 108.14 43.2821 107.934 43.6156 107.784C43.9517 107.635 44.3324 107.56 44.7578 107.56C45.3564 107.56 45.8264 107.691 46.1678 107.954C46.5117 108.216 46.7559 108.563 46.9003 108.994ZM50.8674 113.814C50.3003 113.814 49.8119 113.68 49.4023 113.413C48.9927 113.145 48.6776 112.776 48.457 112.306C48.2365 111.836 48.1262 111.299 48.1262 110.695C48.1262 110.081 48.2391 109.538 48.4649 109.068C48.6934 108.596 49.0111 108.227 49.418 107.962C49.8277 107.694 50.3055 107.56 50.8517 107.56C51.277 107.56 51.6604 107.639 52.0017 107.796C52.3431 107.954 52.6227 108.174 52.8406 108.458C53.0586 108.741 53.1938 109.072 53.2463 109.45H52.3168C52.2459 109.175 52.0884 108.931 51.8442 108.718C51.6026 108.503 51.277 108.395 50.8674 108.395C50.5051 108.395 50.1874 108.489 49.9143 108.678C49.6439 108.865 49.4325 109.129 49.2802 109.47C49.1305 109.809 49.0557 110.207 49.0557 110.664C49.0557 111.131 49.1292 111.538 49.2763 111.884C49.4259 112.231 49.636 112.5 49.9064 112.692C50.1795 112.884 50.4998 112.979 50.8674 112.979C51.109 112.979 51.3282 112.937 51.5252 112.853C51.7221 112.769 51.8888 112.649 52.0254 112.491C52.1619 112.333 52.259 112.144 52.3168 111.924H53.2463C53.1938 112.281 53.0638 112.603 52.8564 112.889C52.6516 113.172 52.3798 113.398 52.0411 113.566C51.705 113.732 51.3138 113.814 50.8674 113.814ZM54.6051 113.688V107.639H55.5031V108.552H55.5661C55.6764 108.253 55.8759 108.01 56.1648 107.824C56.4536 107.637 56.7792 107.544 57.1415 107.544C57.2098 107.544 57.2951 107.545 57.3975 107.548C57.4999 107.551 57.5774 107.555 57.6299 107.56V108.505C57.5984 108.497 57.5262 108.485 57.4133 108.47C57.303 108.451 57.1861 108.442 57.0627 108.442C56.7687 108.442 56.5061 108.504 56.275 108.627C56.0466 108.748 55.8654 108.916 55.7315 109.131C55.6002 109.344 55.5346 109.587 55.5346 109.86V113.688H54.6051ZM58.7317 113.688V107.639H59.6612V113.688H58.7317ZM59.2043 106.63C59.0231 106.63 58.8669 106.569 58.7356 106.445C58.607 106.322 58.5426 106.174 58.5426 106C58.5426 105.827 58.607 105.679 58.7356 105.555C58.8669 105.432 59.0231 105.37 59.2043 105.37C59.3855 105.37 59.5404 105.432 59.6691 105.555C59.8003 105.679 59.866 105.827 59.866 106C59.866 106.174 59.8003 106.322 59.6691 106.445C59.5404 106.569 59.3855 106.63 59.2043 106.63ZM61.3636 115.957V107.639H62.2616V108.6H62.3719C62.4401 108.495 62.5347 108.361 62.6555 108.198C62.7789 108.033 62.9548 107.886 63.1832 107.757C63.4143 107.626 63.7267 107.56 64.1206 107.56C64.63 107.56 65.079 107.687 65.4676 107.942C65.8562 108.197 66.1594 108.558 66.3774 109.025C66.5953 109.492 66.7043 110.044 66.7043 110.679C66.7043 111.32 66.5953 111.875 66.3774 112.345C66.1594 112.813 65.8575 113.175 65.4715 113.432C65.0855 113.687 64.6405 113.814 64.1363 113.814C63.7477 113.814 63.4366 113.75 63.2029 113.621C62.9692 113.49 62.7894 113.342 62.6633 113.176C62.5373 113.008 62.4401 112.869 62.3719 112.759H62.2931V115.957H61.3636ZM62.2774 110.664C62.2774 111.12 62.3443 111.523 62.4782 111.873C62.6121 112.219 62.8077 112.491 63.0651 112.688C63.3224 112.882 63.6375 112.979 64.0103 112.979C64.3989 112.979 64.7232 112.877 64.9831 112.672C65.2457 112.465 65.4426 112.186 65.5739 111.837C65.7078 111.485 65.7748 111.094 65.7748 110.664C65.7748 110.238 65.7091 109.855 65.5778 109.513C65.4492 109.169 65.2536 108.898 64.991 108.698C64.7311 108.496 64.4042 108.395 64.0103 108.395C63.6322 108.395 63.3145 108.491 63.0572 108.682C62.7999 108.871 62.6056 109.137 62.4743 109.478C62.343 109.817 62.2774 110.212 62.2774 110.664ZM70.7531 107.639V108.426H67.618V107.639H70.7531ZM68.5317 106.189H69.4612V111.955C69.4612 112.218 69.4993 112.415 69.5755 112.546C69.6542 112.675 69.754 112.761 69.8748 112.806C69.9982 112.848 70.1282 112.869 70.2647 112.869C70.3671 112.869 70.4511 112.864 70.5168 112.853C70.5824 112.84 70.6349 112.83 70.6743 112.822L70.8634 113.657C70.8003 113.68 70.7124 113.704 70.5995 113.728C70.4866 113.754 70.3435 113.767 70.1702 113.767C69.9076 113.767 69.6503 113.711 69.3982 113.598C69.1488 113.485 68.9414 113.313 68.7759 113.082C68.6131 112.851 68.5317 112.559 68.5317 112.207V106.189ZM72.1513 113.688V107.639H73.0808V113.688H72.1513ZM72.6239 106.63C72.4427 106.63 72.2865 106.569 72.1552 106.445C72.0265 106.322 71.9622 106.174 71.9622 106C71.9622 105.827 72.0265 105.679 72.1552 105.555C72.2865 105.432 72.4427 105.37 72.6239 105.37C72.8051 105.37 72.96 105.432 73.0886 105.555C73.2199 105.679 73.2856 105.827 73.2856 106C73.2856 106.174 73.2199 106.322 73.0886 106.445C72.96 106.569 72.8051 106.63 72.6239 106.63ZM77.2408 113.814C76.6947 113.814 76.2155 113.684 75.8033 113.424C75.3937 113.164 75.0733 112.801 74.8423 112.333C74.6138 111.866 74.4996 111.32 74.4996 110.695C74.4996 110.065 74.6138 109.515 74.8423 109.045C75.0733 108.575 75.3937 108.21 75.8033 107.95C76.2155 107.69 76.6947 107.56 77.2408 107.56C77.787 107.56 78.2648 107.69 78.6745 107.95C79.0867 108.21 79.407 108.575 79.6355 109.045C79.8665 109.515 79.982 110.065 79.982 110.695C79.982 111.32 79.8665 111.866 79.6355 112.333C79.407 112.801 79.0867 113.164 78.6745 113.424C78.2648 113.684 77.787 113.814 77.2408 113.814ZM77.2408 112.979C77.6557 112.979 77.997 112.873 78.2648 112.66C78.5327 112.448 78.7309 112.168 78.8596 111.821C78.9882 111.475 79.0526 111.099 79.0526 110.695C79.0526 110.291 78.9882 109.914 78.8596 109.565C78.7309 109.215 78.5327 108.933 78.2648 108.718C77.997 108.503 77.6557 108.395 77.2408 108.395C76.826 108.395 76.4846 108.503 76.2168 108.718C75.949 108.933 75.7508 109.215 75.6221 109.565C75.4934 109.914 75.4291 110.291 75.4291 110.695C75.4291 111.099 75.4934 111.475 75.6221 111.821C75.7508 112.168 75.949 112.448 76.2168 112.66C76.4846 112.873 76.826 112.979 77.2408 112.979ZM82.3304 110.049V113.688H81.4009V107.639H82.2989V108.584H82.3777C82.5194 108.277 82.7348 108.03 83.0236 107.844C83.3124 107.654 83.6853 107.56 84.1421 107.56C84.5517 107.56 84.9101 107.644 85.2173 107.812C85.5245 107.977 85.7635 108.229 85.9342 108.568C86.1048 108.904 86.1902 109.33 86.1902 109.844V113.688H85.2607V109.907C85.2607 109.432 85.1373 109.062 84.8904 108.797C84.6436 108.529 84.3049 108.395 83.8743 108.395C83.5776 108.395 83.3124 108.459 83.0787 108.588C82.8477 108.717 82.6652 108.904 82.5313 109.151C82.3974 109.398 82.3304 109.697 82.3304 110.049Z" fill="#032B3A"/>
<path d="M119.135 113.688H116.645V105.622H119.245C120.027 105.622 120.697 105.784 121.254 106.107C121.81 106.427 122.237 106.888 122.534 107.489C122.83 108.088 122.979 108.805 122.979 109.639C122.979 110.48 122.829 111.203 122.53 111.81C122.23 112.414 121.794 112.878 121.222 113.204C120.65 113.527 119.954 113.688 119.135 113.688ZM117.622 112.822H119.072C119.739 112.822 120.291 112.693 120.73 112.436C121.168 112.179 121.495 111.812 121.71 111.337C121.926 110.862 122.033 110.296 122.033 109.639C122.033 108.988 121.927 108.428 121.714 107.958C121.502 107.485 121.184 107.123 120.761 106.871C120.338 106.616 119.812 106.489 119.182 106.489H117.622V112.822ZM126.271 113.83C125.888 113.83 125.54 113.758 125.228 113.613C124.915 113.466 124.667 113.255 124.483 112.979C124.299 112.701 124.207 112.365 124.207 111.971C124.207 111.625 124.276 111.344 124.412 111.128C124.549 110.91 124.731 110.74 124.96 110.616C125.188 110.493 125.44 110.401 125.716 110.341C125.994 110.278 126.274 110.228 126.555 110.191C126.922 110.144 127.22 110.108 127.449 110.085C127.68 110.058 127.848 110.015 127.953 109.955C128.061 109.894 128.114 109.789 128.114 109.639V109.608C128.114 109.219 128.008 108.917 127.795 108.702C127.585 108.487 127.266 108.379 126.838 108.379C126.395 108.379 126.047 108.476 125.795 108.671C125.543 108.865 125.365 109.072 125.263 109.293L124.381 108.978C124.538 108.61 124.748 108.324 125.011 108.119C125.276 107.912 125.565 107.767 125.877 107.686C126.192 107.602 126.502 107.56 126.807 107.56C127.001 107.56 127.224 107.584 127.476 107.631C127.731 107.675 127.977 107.769 128.213 107.91C128.452 108.052 128.65 108.266 128.808 108.552C128.965 108.839 129.044 109.222 129.044 109.702V113.688H128.114V112.869H128.067C128.004 113 127.899 113.141 127.752 113.291C127.605 113.44 127.409 113.568 127.165 113.673C126.921 113.778 126.623 113.83 126.271 113.83ZM126.413 112.995C126.781 112.995 127.09 112.923 127.343 112.778C127.597 112.634 127.789 112.448 127.918 112.219C128.049 111.991 128.114 111.751 128.114 111.498V110.648C128.075 110.695 127.988 110.738 127.855 110.778C127.723 110.814 127.571 110.847 127.398 110.876C127.227 110.902 127.06 110.926 126.897 110.947C126.737 110.965 126.607 110.981 126.508 110.994C126.266 111.026 126.04 111.077 125.83 111.148C125.623 111.216 125.455 111.32 125.326 111.459C125.2 111.596 125.137 111.782 125.137 112.018C125.137 112.341 125.256 112.586 125.495 112.751C125.737 112.914 126.043 112.995 126.413 112.995ZM133.371 107.639V108.426H130.236V107.639H133.371ZM131.15 106.189H132.08V111.955C132.08 112.218 132.118 112.415 132.194 112.546C132.273 112.675 132.372 112.761 132.493 112.806C132.617 112.848 132.747 112.869 132.883 112.869C132.985 112.869 133.069 112.864 133.135 112.853C133.201 112.84 133.253 112.83 133.293 112.822L133.482 113.657C133.419 113.68 133.331 113.704 133.218 113.728C133.105 113.754 132.962 113.767 132.789 113.767C132.526 113.767 132.269 113.711 132.017 113.598C131.767 113.485 131.56 113.313 131.394 113.082C131.231 112.851 131.15 112.559 131.15 112.207V106.189ZM136.55 113.83C136.166 113.83 135.819 113.758 135.506 113.613C135.194 113.466 134.946 113.255 134.762 112.979C134.578 112.701 134.486 112.365 134.486 111.971C134.486 111.625 134.554 111.344 134.691 111.128C134.827 110.91 135.01 110.74 135.238 110.616C135.467 110.493 135.719 110.401 135.994 110.341C136.273 110.278 136.552 110.228 136.833 110.191C137.201 110.144 137.499 110.108 137.727 110.085C137.959 110.058 138.127 110.015 138.232 109.955C138.339 109.894 138.393 109.789 138.393 109.639V109.608C138.393 109.219 138.287 108.917 138.074 108.702C137.864 108.487 137.545 108.379 137.117 108.379C136.673 108.379 136.325 108.476 136.073 108.671C135.821 108.865 135.644 109.072 135.542 109.293L134.659 108.978C134.817 108.61 135.027 108.324 135.289 108.119C135.555 107.912 135.844 107.767 136.156 107.686C136.471 107.602 136.781 107.56 137.085 107.56C137.28 107.56 137.503 107.584 137.755 107.631C138.01 107.675 138.255 107.769 138.492 107.91C138.73 108.052 138.929 108.266 139.086 108.552C139.244 108.839 139.323 109.222 139.323 109.702V113.688H138.393V112.869H138.346C138.283 113 138.178 113.141 138.031 113.291C137.884 113.44 137.688 113.568 137.444 113.673C137.2 113.778 136.902 113.83 136.55 113.83ZM136.692 112.995C137.059 112.995 137.369 112.923 137.621 112.778C137.876 112.634 138.067 112.448 138.196 112.219C138.327 111.991 138.393 111.751 138.393 111.498V110.648C138.354 110.695 138.267 110.738 138.133 110.778C138.002 110.814 137.85 110.847 137.676 110.876C137.506 110.902 137.339 110.926 137.176 110.947C137.016 110.965 136.886 110.981 136.786 110.994C136.545 111.026 136.319 111.077 136.109 111.148C135.901 111.216 135.733 111.32 135.605 111.459C135.479 111.596 135.416 111.782 135.416 112.018C135.416 112.341 135.535 112.586 135.774 112.751C136.015 112.914 136.321 112.995 136.692 112.995Z" fill="#233D48"/>
</g>
</g>
<defs>
<clipPath id="clip0_3_6172">
<path d="M0 8C0 3.58172 3.58172 0 8 0H216C220.418 0 224 3.58172 224 8V109C224 113.418 220.418 117 216 117H8C3.58172 117 0 113.418 0 109V8Z" fill="white"/>
</clipPath>
<clipPath id="clip1_3_6172">
<rect width="170.325" height="20.3377" fill="white" transform="translate(27.3376 21.3377)"/>
</clipPath>
<clipPath id="clip2_3_6172">
<rect width="170.325" height="3.16883" fill="white" transform="translate(27.3376 38.5065)"/>
</clipPath>
<clipPath id="clip3_3_6172">
<rect width="170.325" height="20.3377" fill="white" transform="translate(27.3376 41.6753)"/>
</clipPath>
<clipPath id="clip4_3_6172">
<rect width="170.325" height="3.16883" fill="white" transform="translate(27.3376 58.8441)"/>
</clipPath>
<clipPath id="clip5_3_6172">
<rect width="170.325" height="20.3377" fill="white" transform="translate(27.3376 62.013)"/>
</clipPath>
<clipPath id="clip6_3_6172">
<rect width="170.325" height="3.16883" fill="white" transform="translate(27.3376 79.1818)"/>
</clipPath>
<clipPath id="clip7_3_6172">
<rect width="170.325" height="20.3377" fill="white" transform="translate(27.3376 82.3506)"/>
</clipPath>
<clipPath id="clip8_3_6172">
<rect width="170.325" height="3.16883" fill="white" transform="translate(27.3376 99.5195)"/>
</clipPath>
<clipPath id="clip9_3_6172">
<rect width="170.325" height="20.3377" fill="white" transform="translate(27.3376 102.688)"/>
</clipPath>
</defs>
</svg>
