<svg width="224" height="117" viewBox="0 0 224 117" fill="none" xmlns="http://www.w3.org/2000/svg">
<g clip-path="url(#clip0_37_5176)">
<rect x="134" y="16" width="16" height="11" rx="2" fill="#627A84"/>
<rect x="134" y="31" width="24" height="11" rx="2" fill="#627A84"/>
<rect x="134" y="46" width="32" height="11" rx="2" fill="#627A84"/>
<rect x="134" y="61" width="48" height="11" rx="2" fill="#627A84"/>
<rect x="134" y="76" width="64" height="11" rx="2" fill="#627A84"/>
<rect x="134.5" y="99.5" width="63" height="31" rx="15.5" stroke="#627A84"/>
<rect x="140.5" y="106.5" width="50" height="29" rx="7.5" stroke="#627A84"/>
<rect x="147.5" y="112.5" width="36" height="29" rx="3.5" stroke="#627A84"/>
<path d="M27.5325 36.2599C26.1338 36.2599 25 35.1261 25 33.7274L25 18.5325C25 17.1338 26.1338 16 27.5325 16L43.4675 16C44.8662 16 46 17.1338 46 18.5325L46 33.7274C46 35.1261 44.8662 36.2599 43.4675 36.2599L27.5325 36.2599Z" fill="#388523"/>
<path d="M52.5325 36.2599C51.1338 36.2599 50 35.1261 50 33.7274L50 18.5325C50 17.1338 51.1338 16 52.5325 16L68.4675 16C69.8662 16 71 17.1338 71 18.5325L71 33.7274C71 35.1261 69.8662 36.2599 68.4675 36.2599L52.5325 36.2599Z" fill="#D24232"/>
<path d="M77.5325 36.2599C76.1338 36.2599 75 35.1261 75 33.7274L75 18.5325C75 17.1338 76.1338 16 77.5325 16L93.4675 16C94.8662 16 96 17.1338 96 18.5325L96 33.7274C96 35.1261 94.8662 36.2599 93.4675 36.2599L77.5325 36.2599Z" fill="#627A84"/>
<path d="M102.532 36.2599C101.134 36.2599 100 35.1261 100 33.7274L100 18.5325C100 17.1338 101.134 16 102.532 16L118.468 16C119.866 16 121 17.1338 121 18.5325L121 33.7274C121 35.1261 119.866 36.2599 118.468 36.2599L102.532 36.2599Z" fill="#032B3A"/>
<rect x="25" y="48.2599" width="12.6667" height="39" rx="2" fill="#627A84"/>
<rect x="41.6667" y="48.2599" width="12.6667" height="39" rx="2" fill="#627A84"/>
<rect x="58.3333" y="48.2599" width="12.6667" height="39" rx="2" fill="#627A84"/>
<rect x="75" y="48.2599" width="12.6667" height="39" rx="2" fill="#627A84"/>
<rect x="91.6667" y="48.2599" width="12.6667" height="39" rx="2" fill="#627A84"/>
<rect x="108.333" y="48.2599" width="12.6667" height="39" rx="2" fill="#627A84"/>
<circle cx="102.922" cy="117.338" r="18.0779" transform="rotate(-180 102.922 117.338)" fill="#84979F"/>
<circle opacity="0.8" cx="87.9611" cy="117.338" r="18.0779" transform="rotate(-180 87.9611 117.338)" fill="#84979F"/>
<circle opacity="0.6" cx="73" cy="117.338" r="18.0779" transform="rotate(-180 73 117.338)" fill="#84979F"/>
<circle opacity="0.4" cx="58.039" cy="117.338" r="18.0779" transform="rotate(-180 58.039 117.338)" fill="#84979F"/>
<circle opacity="0.2" cx="43.0778" cy="117.338" r="18.0779" transform="rotate(-180 43.0778 117.338)" fill="#84979F"/>
</g>
<defs>
<clipPath id="clip0_37_5176">
<path d="M0 8C0 3.58172 3.58172 0 8 0H216C220.418 0 224 3.58172 224 8V109C224 113.418 220.418 117 216 117H8C3.58172 117 0 113.418 0 109V8Z" fill="white"/>
</clipPath>
</defs>
</svg>
