<svg width="224" height="117" viewBox="0 0 224 117" fill="none" xmlns="http://www.w3.org/2000/svg">
<path d="M14 39C14 36.7909 15.7909 35 18 35H207C209.209 35 211 36.7909 211 39V77C211 79.2091 209.209 81 207 81H18C15.7909 81 14 79.2091 14 77V39Z" fill="white"/>
<path d="M27.1364 63H23.0114V51.3636H27.1705C28.3409 51.3636 29.3485 51.5966 30.1932 52.0625C31.0379 52.5246 31.6875 53.1894 32.142 54.0568C32.6004 54.9242 32.8295 55.9621 32.8295 57.1705C32.8295 58.3826 32.6004 59.4242 32.142 60.2955C31.6875 61.1667 31.0341 61.8352 30.1818 62.3011C29.3333 62.767 28.3182 63 27.1364 63ZM25.4716 60.892H27.0341C27.7614 60.892 28.3731 60.7633 28.8693 60.5057C29.3693 60.2443 29.7443 59.8409 29.9943 59.2955C30.2481 58.7462 30.375 58.0379 30.375 57.1705C30.375 56.3106 30.2481 55.608 29.9943 55.0625C29.7443 54.517 29.3712 54.1155 28.875 53.858C28.3788 53.6004 27.767 53.4716 27.0398 53.4716H25.4716V60.892ZM34.6065 63V54.2727H37.027V63H34.6065ZM35.8224 53.1477C35.4626 53.1477 35.1539 53.0284 34.8963 52.7898C34.6425 52.5473 34.5156 52.2576 34.5156 51.9205C34.5156 51.5871 34.6425 51.3011 34.8963 51.0625C35.1539 50.8201 35.4626 50.6989 35.8224 50.6989C36.1823 50.6989 36.4891 50.8201 36.7429 51.0625C37.0005 51.3011 37.1293 51.5871 37.1293 51.9205C37.1293 52.2576 37.0005 52.5473 36.7429 52.7898C36.4891 53.0284 36.1823 53.1477 35.8224 53.1477ZM46.2273 56.7614L44.0114 56.8977C43.9735 56.7083 43.892 56.5379 43.767 56.3864C43.642 56.2311 43.4773 56.108 43.2727 56.017C43.072 55.9223 42.8314 55.875 42.5511 55.875C42.1761 55.875 41.8598 55.9545 41.6023 56.1136C41.3447 56.2689 41.2159 56.4773 41.2159 56.7386C41.2159 56.947 41.2992 57.1231 41.4659 57.267C41.6326 57.411 41.9186 57.5265 42.3239 57.6136L43.9034 57.9318C44.7519 58.1061 45.3845 58.3864 45.8011 58.7727C46.2178 59.1591 46.4261 59.6667 46.4261 60.2955C46.4261 60.8674 46.2576 61.3693 45.9205 61.8011C45.5871 62.233 45.1288 62.5701 44.5455 62.8125C43.9659 63.0511 43.2973 63.1705 42.5398 63.1705C41.3845 63.1705 40.464 62.9299 39.7784 62.4489C39.0966 61.964 38.697 61.3049 38.5795 60.4716L40.9602 60.3466C41.0322 60.6989 41.2064 60.9678 41.483 61.1534C41.7595 61.3352 42.1136 61.4261 42.5455 61.4261C42.9697 61.4261 43.3106 61.3447 43.5682 61.1818C43.8295 61.0152 43.9621 60.8011 43.9659 60.5398C43.9621 60.3201 43.8693 60.1402 43.6875 60C43.5057 59.8561 43.2254 59.7462 42.8466 59.6705L41.3352 59.3693C40.483 59.1989 39.8485 58.9034 39.4318 58.483C39.0189 58.0625 38.8125 57.5265 38.8125 56.875C38.8125 56.3144 38.964 55.8314 39.267 55.4261C39.5739 55.0208 40.0038 54.7083 40.5568 54.4886C41.1136 54.2689 41.7652 54.1591 42.5114 54.1591C43.6136 54.1591 44.4811 54.392 45.1136 54.858C45.75 55.3239 46.1212 55.9583 46.2273 56.7614ZM51.8935 63.1705C50.9995 63.1705 50.2306 62.9811 49.5866 62.6023C48.9465 62.2197 48.4541 61.6894 48.1094 61.0114C47.7685 60.3333 47.598 59.553 47.598 58.6705C47.598 57.7765 47.7704 56.9924 48.1151 56.3182C48.4635 55.6402 48.9579 55.1117 49.598 54.733C50.2382 54.3504 50.9995 54.1591 51.8821 54.1591C52.6435 54.1591 53.3101 54.2973 53.8821 54.5739C54.4541 54.8504 54.9067 55.2386 55.2401 55.7386C55.5734 56.2386 55.7571 56.8258 55.7912 57.5H53.5071C53.4427 57.0644 53.2723 56.714 52.9957 56.4489C52.723 56.1799 52.3651 56.0455 51.9219 56.0455C51.5469 56.0455 51.2192 56.1477 50.9389 56.3523C50.6624 56.553 50.4465 56.8466 50.2912 57.233C50.1359 57.6193 50.0582 58.0871 50.0582 58.6364C50.0582 59.1932 50.134 59.6667 50.2855 60.0568C50.4408 60.447 50.6586 60.7443 50.9389 60.9489C51.2192 61.1534 51.5469 61.2557 51.9219 61.2557C52.1984 61.2557 52.4465 61.1989 52.6662 61.0852C52.8897 60.9716 53.0734 60.8068 53.2173 60.5909C53.3651 60.3712 53.4616 60.108 53.5071 59.8011H55.7912C55.7533 60.4678 55.5715 61.0549 55.2457 61.5625C54.9238 62.0663 54.4787 62.4602 53.9105 62.7443C53.3423 63.0284 52.67 63.1705 51.8935 63.1705ZM59.7614 51.3636V63H57.3409V51.3636H59.7614ZM65.6435 63.1705C64.7609 63.1705 63.9976 62.983 63.3537 62.608C62.7135 62.2292 62.2192 61.7027 61.8707 61.0284C61.5223 60.3504 61.348 59.5644 61.348 58.6705C61.348 57.7689 61.5223 56.9811 61.8707 56.3068C62.2192 55.6288 62.7135 55.1023 63.3537 54.7273C63.9976 54.3485 64.7609 54.1591 65.6435 54.1591C66.526 54.1591 67.2874 54.3485 67.9276 54.7273C68.5715 55.1023 69.0677 55.6288 69.4162 56.3068C69.7647 56.9811 69.9389 57.7689 69.9389 58.6705C69.9389 59.5644 69.7647 60.3504 69.4162 61.0284C69.0677 61.7027 68.5715 62.2292 67.9276 62.608C67.2874 62.983 66.526 63.1705 65.6435 63.1705ZM65.6548 61.2955C66.0563 61.2955 66.3916 61.1818 66.6605 60.9545C66.9295 60.7235 67.1321 60.4091 67.2685 60.0114C67.4086 59.6136 67.4787 59.161 67.4787 58.6534C67.4787 58.1458 67.4086 57.6932 67.2685 57.2955C67.1321 56.8977 66.9295 56.5833 66.6605 56.3523C66.3916 56.1212 66.0563 56.0057 65.6548 56.0057C65.2495 56.0057 64.9086 56.1212 64.6321 56.3523C64.3594 56.5833 64.1529 56.8977 64.0128 57.2955C63.8764 57.6932 63.8082 58.1458 63.8082 58.6534C63.8082 59.161 63.8764 59.6136 64.0128 60.0114C64.1529 60.4091 64.3594 60.7235 64.6321 60.9545C64.9086 61.1818 65.2495 61.2955 65.6548 61.2955ZM78.7741 56.7614L76.5582 56.8977C76.5204 56.7083 76.4389 56.5379 76.3139 56.3864C76.1889 56.2311 76.0241 56.108 75.8196 56.017C75.6188 55.9223 75.3783 55.875 75.098 55.875C74.723 55.875 74.4067 55.9545 74.1491 56.1136C73.8916 56.2689 73.7628 56.4773 73.7628 56.7386C73.7628 56.947 73.8461 57.1231 74.0128 57.267C74.1795 57.411 74.4654 57.5265 74.8707 57.6136L76.4503 57.9318C77.2988 58.1061 77.9313 58.3864 78.348 58.7727C78.7647 59.1591 78.973 59.6667 78.973 60.2955C78.973 60.8674 78.8045 61.3693 78.4673 61.8011C78.134 62.233 77.6757 62.5701 77.0923 62.8125C76.5128 63.0511 75.8442 63.1705 75.0866 63.1705C73.9313 63.1705 73.0109 62.9299 72.3253 62.4489C71.6435 61.964 71.2438 61.3049 71.1264 60.4716L73.5071 60.3466C73.5791 60.6989 73.7533 60.9678 74.0298 61.1534C74.3063 61.3352 74.6605 61.4261 75.0923 61.4261C75.5166 61.4261 75.8575 61.3447 76.1151 61.1818C76.3764 61.0152 76.509 60.8011 76.5128 60.5398C76.509 60.3201 76.4162 60.1402 76.2344 60C76.0526 59.8561 75.7723 59.7462 75.3935 59.6705L73.8821 59.3693C73.0298 59.1989 72.3954 58.9034 71.9787 58.483C71.5658 58.0625 71.3594 57.5265 71.3594 56.875C71.3594 56.3144 71.5109 55.8314 71.8139 55.4261C72.1207 55.0208 72.5507 54.7083 73.1037 54.4886C73.6605 54.2689 74.312 54.1591 75.0582 54.1591C76.1605 54.1591 77.0279 54.392 77.6605 54.858C78.2969 55.3239 78.6681 55.9583 78.7741 56.7614ZM86.0938 59.2841V54.2727H88.5142V63H86.1903V61.4148H86.0994C85.9025 61.9261 85.5748 62.3371 85.1165 62.6477C84.6619 62.9583 84.107 63.1136 83.4517 63.1136C82.8684 63.1136 82.3551 62.9811 81.9119 62.7159C81.4688 62.4508 81.1222 62.0739 80.8722 61.5852C80.6259 61.0966 80.5009 60.5114 80.4972 59.8295V54.2727H82.9176V59.3977C82.9214 59.9129 83.0597 60.3201 83.3324 60.6193C83.6051 60.9186 83.9706 61.0682 84.429 61.0682C84.7206 61.0682 84.9934 61.0019 85.2472 60.8693C85.5009 60.733 85.7055 60.5322 85.8608 60.267C86.0199 60.0019 86.0975 59.6742 86.0938 59.2841ZM90.4503 63V54.2727H92.7969V55.7955H92.8878C93.0469 55.2538 93.3139 54.8447 93.6889 54.5682C94.0639 54.2879 94.4957 54.1477 94.9844 54.1477C95.1056 54.1477 95.2363 54.1553 95.3764 54.1705C95.5166 54.1856 95.6397 54.2064 95.7457 54.233V56.3807C95.6321 56.3466 95.4749 56.3163 95.2741 56.2898C95.0734 56.2633 94.8897 56.25 94.723 56.25C94.367 56.25 94.0488 56.3277 93.7685 56.483C93.492 56.6345 93.2723 56.8466 93.1094 57.1193C92.9503 57.392 92.8707 57.7064 92.8707 58.0625V63H90.4503ZM100.568 63.1705C99.6705 63.1705 98.8977 62.9886 98.25 62.625C97.6061 62.2576 97.1098 61.7386 96.7614 61.0682C96.4129 60.3939 96.2386 59.5966 96.2386 58.6761C96.2386 57.7784 96.4129 56.9905 96.7614 56.3125C97.1098 55.6345 97.6004 55.1061 98.233 54.7273C98.8693 54.3485 99.6155 54.1591 100.472 54.1591C101.047 54.1591 101.583 54.2519 102.08 54.4375C102.58 54.6193 103.015 54.8939 103.386 55.2614C103.761 55.6288 104.053 56.0909 104.261 56.6477C104.47 57.2008 104.574 57.8485 104.574 58.5909V59.2557H97.2045V57.7557H102.295C102.295 57.4072 102.22 57.0985 102.068 56.8295C101.917 56.5606 101.706 56.3504 101.438 56.1989C101.172 56.0436 100.864 55.9659 100.511 55.9659C100.144 55.9659 99.8182 56.0511 99.5341 56.2216C99.2538 56.3883 99.0341 56.6136 98.875 56.8977C98.7159 57.178 98.6345 57.4905 98.6307 57.8352V59.2614C98.6307 59.6932 98.7102 60.0663 98.8693 60.3807C99.0322 60.6951 99.2614 60.9375 99.5568 61.108C99.8523 61.2784 100.203 61.3636 100.608 61.3636C100.877 61.3636 101.123 61.3258 101.347 61.25C101.57 61.1742 101.761 61.0606 101.92 60.9091C102.08 60.7576 102.201 60.572 102.284 60.3523L104.523 60.5C104.409 61.0379 104.176 61.5076 103.824 61.9091C103.475 62.3068 103.025 62.6174 102.472 62.8409C101.922 63.0606 101.288 63.1705 100.568 63.1705ZM114.499 54.2727V56.0909H109.243V54.2727H114.499ZM110.436 52.1818H112.857V60.3182C112.857 60.5417 112.891 60.7159 112.959 60.8409C113.027 60.9621 113.122 61.0473 113.243 61.0966C113.368 61.1458 113.512 61.1705 113.675 61.1705C113.788 61.1705 113.902 61.161 114.016 61.142C114.129 61.1193 114.216 61.1023 114.277 61.0909L114.658 62.892C114.536 62.9299 114.366 62.9735 114.146 63.0227C113.927 63.0758 113.66 63.108 113.345 63.1193C112.762 63.142 112.25 63.0644 111.811 62.8864C111.375 62.7083 111.036 62.4318 110.794 62.0568C110.552 61.6818 110.432 61.2083 110.436 60.6364V52.1818ZM116.075 63V54.2727H118.496V63H116.075ZM117.291 53.1477C116.931 53.1477 116.623 53.0284 116.365 52.7898C116.111 52.5473 115.984 52.2576 115.984 51.9205C115.984 51.5871 116.111 51.3011 116.365 51.0625C116.623 50.8201 116.931 50.6989 117.291 50.6989C117.651 50.6989 117.958 50.8201 118.212 51.0625C118.469 51.3011 118.598 51.5871 118.598 51.9205C118.598 52.2576 118.469 52.5473 118.212 52.7898C117.958 53.0284 117.651 53.1477 117.291 53.1477ZM125.077 54.2727V56.0909H119.821V54.2727H125.077ZM121.014 52.1818H123.435V60.3182C123.435 60.5417 123.469 60.7159 123.537 60.8409C123.605 60.9621 123.7 61.0473 123.821 61.0966C123.946 61.1458 124.09 61.1705 124.253 61.1705C124.366 61.1705 124.48 61.161 124.594 61.142C124.707 61.1193 124.795 61.1023 124.855 61.0909L125.236 62.892C125.115 62.9299 124.944 62.9735 124.724 63.0227C124.505 63.0758 124.238 63.108 123.923 63.1193C123.34 63.142 122.829 63.0644 122.389 62.8864C121.954 62.7083 121.615 62.4318 121.372 62.0568C121.13 61.6818 121.01 61.2083 121.014 60.6364V52.1818ZM129.261 51.3636V63H126.841V51.3636H129.261ZM135.178 63.1705C134.28 63.1705 133.507 62.9886 132.859 62.625C132.215 62.2576 131.719 61.7386 131.371 61.0682C131.022 60.3939 130.848 59.5966 130.848 58.6761C130.848 57.7784 131.022 56.9905 131.371 56.3125C131.719 55.6345 132.21 55.1061 132.842 54.7273C133.479 54.3485 134.225 54.1591 135.081 54.1591C135.657 54.1591 136.193 54.2519 136.689 54.4375C137.189 54.6193 137.625 54.8939 137.996 55.2614C138.371 55.6288 138.662 56.0909 138.871 56.6477C139.079 57.2008 139.183 57.8485 139.183 58.5909V59.2557H131.814V57.7557H136.905C136.905 57.4072 136.829 57.0985 136.678 56.8295C136.526 56.5606 136.316 56.3504 136.047 56.1989C135.782 56.0436 135.473 55.9659 135.121 55.9659C134.753 55.9659 134.428 56.0511 134.143 56.2216C133.863 56.3883 133.643 56.6136 133.484 56.8977C133.325 57.178 133.244 57.4905 133.24 57.8352V59.2614C133.24 59.6932 133.32 60.0663 133.479 60.3807C133.642 60.6951 133.871 60.9375 134.166 61.108C134.462 61.2784 134.812 61.3636 135.217 61.3636C135.486 61.3636 135.732 61.3258 135.956 61.25C136.179 61.1742 136.371 61.0606 136.53 60.9091C136.689 60.7576 136.81 60.572 136.893 60.3523L139.132 60.5C139.018 61.0379 138.786 61.5076 138.433 61.9091C138.085 62.3068 137.634 62.6174 137.081 62.8409C136.532 63.0606 135.897 63.1705 135.178 63.1705Z" fill="#032B3A"/>
<path d="M186.703 53.2914C186.508 53.0967 186.252 52.9996 185.996 53C185.742 53.0005 185.487 53.0979 185.292 53.2922C185.098 53.4865 185 53.7411 185 53.9958C185 54.2517 185.097 54.5077 185.292 54.703L190.292 59.7071C190.488 59.9024 190.744 60 191 60C191.256 60 191.512 59.9024 191.708 59.7071L196.708 54.7072C196.903 54.5119 197.001 54.2559 197 54C197 53.7453 196.902 53.4907 196.708 53.2964C196.513 53.1021 196.258 53.0047 196.004 53.0042C195.748 53.0038 195.492 53.1009 195.297 53.2956L191 57.5842L186.703 53.2914Z" fill="#388523"/>
</svg>
