<svg width="274" height="46" viewBox="0 0 274 46" fill="none" xmlns="http://www.w3.org/2000/svg">
<path d="M13.1364 28H9.01136V16.3636H13.1705C14.3409 16.3636 15.3485 16.5966 16.1932 17.0625C17.0379 17.5246 17.6875 18.1894 18.142 19.0568C18.6004 19.9242 18.8295 20.9621 18.8295 22.1705C18.8295 23.3826 18.6004 24.4242 18.142 25.2955C17.6875 26.1667 17.0341 26.8352 16.1818 27.3011C15.3333 27.767 14.3182 28 13.1364 28ZM11.4716 25.892H13.0341C13.7614 25.892 14.3731 25.7633 14.8693 25.5057C15.3693 25.2443 15.7443 24.8409 15.9943 24.2955C16.2481 23.7462 16.375 23.0379 16.375 22.1705C16.375 21.3106 16.2481 20.608 15.9943 20.0625C15.7443 19.517 15.3712 19.1155 14.875 18.858C14.3788 18.6004 13.767 18.4716 13.0398 18.4716H11.4716V25.892ZM20.6065 28V19.2727H23.027V28H20.6065ZM21.8224 18.1477C21.4626 18.1477 21.1539 18.0284 20.8963 17.7898C20.6425 17.5473 20.5156 17.2576 20.5156 16.9205C20.5156 16.5871 20.6425 16.3011 20.8963 16.0625C21.1539 15.8201 21.4626 15.6989 21.8224 15.6989C22.1823 15.6989 22.4891 15.8201 22.7429 16.0625C23.0005 16.3011 23.1293 16.5871 23.1293 16.9205C23.1293 17.2576 23.0005 17.5473 22.7429 17.7898C22.4891 18.0284 22.1823 18.1477 21.8224 18.1477ZM32.2273 21.7614L30.0114 21.8977C29.9735 21.7083 29.892 21.5379 29.767 21.3864C29.642 21.2311 29.4773 21.108 29.2727 21.017C29.072 20.9223 28.8314 20.875 28.5511 20.875C28.1761 20.875 27.8598 20.9545 27.6023 21.1136C27.3447 21.2689 27.2159 21.4773 27.2159 21.7386C27.2159 21.947 27.2992 22.1231 27.4659 22.267C27.6326 22.411 27.9186 22.5265 28.3239 22.6136L29.9034 22.9318C30.7519 23.1061 31.3845 23.3864 31.8011 23.7727C32.2178 24.1591 32.4261 24.6667 32.4261 25.2955C32.4261 25.8674 32.2576 26.3693 31.9205 26.8011C31.5871 27.233 31.1288 27.5701 30.5455 27.8125C29.9659 28.0511 29.2973 28.1705 28.5398 28.1705C27.3845 28.1705 26.464 27.9299 25.7784 27.4489C25.0966 26.964 24.697 26.3049 24.5795 25.4716L26.9602 25.3466C27.0322 25.6989 27.2064 25.9678 27.483 26.1534C27.7595 26.3352 28.1136 26.4261 28.5455 26.4261C28.9697 26.4261 29.3106 26.3447 29.5682 26.1818C29.8295 26.0152 29.9621 25.8011 29.9659 25.5398C29.9621 25.3201 29.8693 25.1402 29.6875 25C29.5057 24.8561 29.2254 24.7462 28.8466 24.6705L27.3352 24.3693C26.483 24.1989 25.8485 23.9034 25.4318 23.483C25.0189 23.0625 24.8125 22.5265 24.8125 21.875C24.8125 21.3144 24.964 20.8314 25.267 20.4261C25.5739 20.0208 26.0038 19.7083 26.5568 19.4886C27.1136 19.2689 27.7652 19.1591 28.5114 19.1591C29.6136 19.1591 30.4811 19.392 31.1136 19.858C31.75 20.3239 32.1212 20.9583 32.2273 21.7614ZM37.8935 28.1705C36.9995 28.1705 36.2306 27.9811 35.5866 27.6023C34.9465 27.2197 34.4541 26.6894 34.1094 26.0114C33.7685 25.3333 33.598 24.553 33.598 23.6705C33.598 22.7765 33.7704 21.9924 34.1151 21.3182C34.4635 20.6402 34.9579 20.1117 35.598 19.733C36.2382 19.3504 36.9995 19.1591 37.8821 19.1591C38.6435 19.1591 39.3101 19.2973 39.8821 19.5739C40.4541 19.8504 40.9067 20.2386 41.2401 20.7386C41.5734 21.2386 41.7571 21.8258 41.7912 22.5H39.5071C39.4427 22.0644 39.2723 21.714 38.9957 21.4489C38.723 21.1799 38.3651 21.0455 37.9219 21.0455C37.5469 21.0455 37.2192 21.1477 36.9389 21.3523C36.6624 21.553 36.4465 21.8466 36.2912 22.233C36.1359 22.6193 36.0582 23.0871 36.0582 23.6364C36.0582 24.1932 36.134 24.6667 36.2855 25.0568C36.4408 25.447 36.6586 25.7443 36.9389 25.9489C37.2192 26.1534 37.5469 26.2557 37.9219 26.2557C38.1984 26.2557 38.4465 26.1989 38.6662 26.0852C38.8897 25.9716 39.0734 25.8068 39.2173 25.5909C39.3651 25.3712 39.4616 25.108 39.5071 24.8011H41.7912C41.7533 25.4678 41.5715 26.0549 41.2457 26.5625C40.9238 27.0663 40.4787 27.4602 39.9105 27.7443C39.3423 28.0284 38.67 28.1705 37.8935 28.1705ZM45.7614 16.3636V28H43.3409V16.3636H45.7614ZM51.6435 28.1705C50.7609 28.1705 49.9976 27.983 49.3537 27.608C48.7135 27.2292 48.2192 26.7027 47.8707 26.0284C47.5223 25.3504 47.348 24.5644 47.348 23.6705C47.348 22.7689 47.5223 21.9811 47.8707 21.3068C48.2192 20.6288 48.7135 20.1023 49.3537 19.7273C49.9976 19.3485 50.7609 19.1591 51.6435 19.1591C52.526 19.1591 53.2874 19.3485 53.9276 19.7273C54.5715 20.1023 55.0677 20.6288 55.4162 21.3068C55.7647 21.9811 55.9389 22.7689 55.9389 23.6705C55.9389 24.5644 55.7647 25.3504 55.4162 26.0284C55.0677 26.7027 54.5715 27.2292 53.9276 27.608C53.2874 27.983 52.526 28.1705 51.6435 28.1705ZM51.6548 26.2955C52.0563 26.2955 52.3916 26.1818 52.6605 25.9545C52.9295 25.7235 53.1321 25.4091 53.2685 25.0114C53.4086 24.6136 53.4787 24.161 53.4787 23.6534C53.4787 23.1458 53.4086 22.6932 53.2685 22.2955C53.1321 21.8977 52.9295 21.5833 52.6605 21.3523C52.3916 21.1212 52.0563 21.0057 51.6548 21.0057C51.2495 21.0057 50.9086 21.1212 50.6321 21.3523C50.3594 21.5833 50.1529 21.8977 50.0128 22.2955C49.8764 22.6932 49.8082 23.1458 49.8082 23.6534C49.8082 24.161 49.8764 24.6136 50.0128 25.0114C50.1529 25.4091 50.3594 25.7235 50.6321 25.9545C50.9086 26.1818 51.2495 26.2955 51.6548 26.2955ZM64.7741 21.7614L62.5582 21.8977C62.5204 21.7083 62.4389 21.5379 62.3139 21.3864C62.1889 21.2311 62.0241 21.108 61.8196 21.017C61.6188 20.9223 61.3783 20.875 61.098 20.875C60.723 20.875 60.4067 20.9545 60.1491 21.1136C59.8916 21.2689 59.7628 21.4773 59.7628 21.7386C59.7628 21.947 59.8461 22.1231 60.0128 22.267C60.1795 22.411 60.4654 22.5265 60.8707 22.6136L62.4503 22.9318C63.2988 23.1061 63.9313 23.3864 64.348 23.7727C64.7647 24.1591 64.973 24.6667 64.973 25.2955C64.973 25.8674 64.8045 26.3693 64.4673 26.8011C64.134 27.233 63.6757 27.5701 63.0923 27.8125C62.5128 28.0511 61.8442 28.1705 61.0866 28.1705C59.9313 28.1705 59.0109 27.9299 58.3253 27.4489C57.6435 26.964 57.2438 26.3049 57.1264 25.4716L59.5071 25.3466C59.5791 25.6989 59.7533 25.9678 60.0298 26.1534C60.3063 26.3352 60.6605 26.4261 61.0923 26.4261C61.5166 26.4261 61.8575 26.3447 62.1151 26.1818C62.3764 26.0152 62.509 25.8011 62.5128 25.5398C62.509 25.3201 62.4162 25.1402 62.2344 25C62.0526 24.8561 61.7723 24.7462 61.3935 24.6705L59.8821 24.3693C59.0298 24.1989 58.3954 23.9034 57.9787 23.483C57.5658 23.0625 57.3594 22.5265 57.3594 21.875C57.3594 21.3144 57.5109 20.8314 57.8139 20.4261C58.1207 20.0208 58.5507 19.7083 59.1037 19.4886C59.6605 19.2689 60.312 19.1591 61.0582 19.1591C62.1605 19.1591 63.0279 19.392 63.6605 19.858C64.2969 20.3239 64.6681 20.9583 64.7741 21.7614ZM72.0938 24.2841V19.2727H74.5142V28H72.1903V26.4148H72.0994C71.9025 26.9261 71.5748 27.3371 71.1165 27.6477C70.6619 27.9583 70.107 28.1136 69.4517 28.1136C68.8684 28.1136 68.3551 27.9811 67.9119 27.7159C67.4688 27.4508 67.1222 27.0739 66.8722 26.5852C66.6259 26.0966 66.5009 25.5114 66.4972 24.8295V19.2727H68.9176V24.3977C68.9214 24.9129 69.0597 25.3201 69.3324 25.6193C69.6051 25.9186 69.9706 26.0682 70.429 26.0682C70.7206 26.0682 70.9934 26.0019 71.2472 25.8693C71.5009 25.733 71.7055 25.5322 71.8608 25.267C72.0199 25.0019 72.0975 24.6742 72.0938 24.2841ZM76.4503 28V19.2727H78.7969V20.7955H78.8878C79.0469 20.2538 79.3139 19.8447 79.6889 19.5682C80.0639 19.2879 80.4957 19.1477 80.9844 19.1477C81.1056 19.1477 81.2363 19.1553 81.3764 19.1705C81.5166 19.1856 81.6397 19.2064 81.7457 19.233V21.3807C81.6321 21.3466 81.4749 21.3163 81.2741 21.2898C81.0734 21.2633 80.8897 21.25 80.723 21.25C80.367 21.25 80.0488 21.3277 79.7685 21.483C79.492 21.6345 79.2723 21.8466 79.1094 22.1193C78.9503 22.392 78.8707 22.7064 78.8707 23.0625V28H76.4503ZM86.5682 28.1705C85.6705 28.1705 84.8977 27.9886 84.25 27.625C83.6061 27.2576 83.1098 26.7386 82.7614 26.0682C82.4129 25.3939 82.2386 24.5966 82.2386 23.6761C82.2386 22.7784 82.4129 21.9905 82.7614 21.3125C83.1098 20.6345 83.6004 20.1061 84.233 19.7273C84.8693 19.3485 85.6155 19.1591 86.4716 19.1591C87.0473 19.1591 87.5833 19.2519 88.0795 19.4375C88.5795 19.6193 89.0152 19.8939 89.3864 20.2614C89.7614 20.6288 90.053 21.0909 90.2614 21.6477C90.4697 22.2008 90.5739 22.8485 90.5739 23.5909V24.2557H83.2045V22.7557H88.2955C88.2955 22.4072 88.2197 22.0985 88.0682 21.8295C87.9167 21.5606 87.7064 21.3504 87.4375 21.1989C87.1723 21.0436 86.8636 20.9659 86.5114 20.9659C86.1439 20.9659 85.8182 21.0511 85.5341 21.2216C85.2538 21.3883 85.0341 21.6136 84.875 21.8977C84.7159 22.178 84.6345 22.4905 84.6307 22.8352V24.2614C84.6307 24.6932 84.7102 25.0663 84.8693 25.3807C85.0322 25.6951 85.2614 25.9375 85.5568 26.108C85.8523 26.2784 86.2027 26.3636 86.608 26.3636C86.8769 26.3636 87.1231 26.3258 87.3466 26.25C87.5701 26.1742 87.7614 26.0606 87.9205 25.9091C88.0795 25.7576 88.2008 25.572 88.2841 25.3523L90.5227 25.5C90.4091 26.0379 90.1761 26.5076 89.8239 26.9091C89.4754 27.3068 89.0246 27.6174 88.4716 27.8409C87.9223 28.0606 87.2879 28.1705 86.5682 28.1705ZM100.499 19.2727V21.0909H95.2429V19.2727H100.499ZM96.4361 17.1818H98.8565V25.3182C98.8565 25.5417 98.8906 25.7159 98.9588 25.8409C99.027 25.9621 99.1217 26.0473 99.2429 26.0966C99.3679 26.1458 99.5118 26.1705 99.6747 26.1705C99.7884 26.1705 99.902 26.161 100.016 26.142C100.129 26.1193 100.216 26.1023 100.277 26.0909L100.658 27.892C100.536 27.9299 100.366 27.9735 100.146 28.0227C99.9266 28.0758 99.6596 28.108 99.3452 28.1193C98.7618 28.142 98.2505 28.0644 97.8111 27.8864C97.3755 27.7083 97.0365 27.4318 96.794 27.0568C96.5516 26.6818 96.4323 26.2083 96.4361 25.6364V17.1818ZM102.075 28V19.2727H104.496V28H102.075ZM103.291 18.1477C102.931 18.1477 102.623 18.0284 102.365 17.7898C102.111 17.5473 101.984 17.2576 101.984 16.9205C101.984 16.5871 102.111 16.3011 102.365 16.0625C102.623 15.8201 102.931 15.6989 103.291 15.6989C103.651 15.6989 103.958 15.8201 104.212 16.0625C104.469 16.3011 104.598 16.5871 104.598 16.9205C104.598 17.2576 104.469 17.5473 104.212 17.7898C103.958 18.0284 103.651 18.1477 103.291 18.1477ZM111.077 19.2727V21.0909H105.821V19.2727H111.077ZM107.014 17.1818H109.435V25.3182C109.435 25.5417 109.469 25.7159 109.537 25.8409C109.605 25.9621 109.7 26.0473 109.821 26.0966C109.946 26.1458 110.09 26.1705 110.253 26.1705C110.366 26.1705 110.48 26.161 110.594 26.142C110.707 26.1193 110.795 26.1023 110.855 26.0909L111.236 27.892C111.115 27.9299 110.944 27.9735 110.724 28.0227C110.505 28.0758 110.238 28.108 109.923 28.1193C109.34 28.142 108.829 28.0644 108.389 27.8864C107.954 27.7083 107.615 27.4318 107.372 27.0568C107.13 26.6818 107.01 26.2083 107.014 25.6364V17.1818ZM115.261 16.3636V28H112.841V16.3636H115.261ZM121.178 28.1705C120.28 28.1705 119.507 27.9886 118.859 27.625C118.215 27.2576 117.719 26.7386 117.371 26.0682C117.022 25.3939 116.848 24.5966 116.848 23.6761C116.848 22.7784 117.022 21.9905 117.371 21.3125C117.719 20.6345 118.21 20.1061 118.842 19.7273C119.479 19.3485 120.225 19.1591 121.081 19.1591C121.657 19.1591 122.193 19.2519 122.689 19.4375C123.189 19.6193 123.625 19.8939 123.996 20.2614C124.371 20.6288 124.662 21.0909 124.871 21.6477C125.079 22.2008 125.183 22.8485 125.183 23.5909V24.2557H117.814V22.7557H122.905C122.905 22.4072 122.829 22.0985 122.678 21.8295C122.526 21.5606 122.316 21.3504 122.047 21.1989C121.782 21.0436 121.473 20.9659 121.121 20.9659C120.753 20.9659 120.428 21.0511 120.143 21.2216C119.863 21.3883 119.643 21.6136 119.484 21.8977C119.325 22.178 119.244 22.4905 119.24 22.8352V24.2614C119.24 24.6932 119.32 25.0663 119.479 25.3807C119.642 25.6951 119.871 25.9375 120.166 26.108C120.462 26.2784 120.812 26.3636 121.217 26.3636C121.486 26.3636 121.732 26.3258 121.956 26.25C122.179 26.1742 122.371 26.0606 122.53 25.9091C122.689 25.7576 122.81 25.572 122.893 25.3523L125.132 25.5C125.018 26.0379 124.786 26.5076 124.433 26.9091C124.085 27.3068 123.634 27.6174 123.081 27.8409C122.532 28.0606 121.897 28.1705 121.178 28.1705Z" fill="#032B3A"/>
<path d="M249.703 18.2914C249.508 18.0967 249.252 17.9996 248.996 18C248.742 18.0005 248.487 18.0979 248.292 18.2922C248.098 18.4865 248 18.7411 248 18.9958C248 19.2517 248.097 19.5077 248.292 19.703L253.292 24.7071C253.488 24.9024 253.744 25 254 25C254.256 25 254.512 24.9024 254.708 24.7071L259.708 19.7072C259.903 19.5119 260.001 19.2559 260 19C260 18.7453 259.902 18.4907 259.708 18.2964C259.513 18.1021 259.258 18.0047 259.004 18.0042C258.748 18.0038 258.492 18.1009 258.297 18.2956L254 22.5842L249.703 18.2914Z" fill="#388523"/>
</svg>
