<svg width="1728" height="53" viewBox="0 0 1728 53" fill="none" preserveAspectRatio="none" xmlns="http://www.w3.org/2000/svg">
<g clip-path="url(#clip0_505_13477)">
<mask id="mask0_505_13477" style="mask-type:luminance" maskUnits="userSpaceOnUse" x="0" y="0" width="1728" height="53">
<path d="M0 0L0 53L1728 53V0L0 0Z" fill="white"/>
</mask>
<g mask="url(#mask0_505_13477)">
<path fill-rule="evenodd" clip-rule="evenodd" d="M2.56044 0.403093C1.61685 0.293928 0.709558 0.189115 1.59557e-06 0.0783691L0 53H1728C1727.57 52.9213 1727.15 52.8422 1726.67 52.7508C1725.66 52.5574 1724.35 52.3086 1721.96 51.8874C1718.18 51.2676 1713.03 50.5284 1710.33 51.3946C1706.98 52.5218 1705.35 51.7114 1703.8 50.9393C1702.97 50.5248 1702.16 50.1218 1701.12 50.0356C1697.39 49.8054 1696.34 48.7141 1695.1 47.4097C1693.63 45.8763 1691.88 44.0482 1685.15 42.9787L1685.03 42.9498C1684.53 42.8335 1684.06 42.7228 1684.06 42.6053C1680.17 35.0255 1661.79 37.1632 1646.9 38.8948C1637.97 39.9335 1630.29 40.8262 1627.76 39.387C1627.16 39.0193 1625.1 39.1919 1621.37 39.5049C1620.02 39.6179 1618.45 39.7492 1616.66 39.8797C1616.66 33.3321 1603.18 35.5471 1594.8 36.924C1593.68 37.1079 1592.65 37.2769 1591.76 37.4081C1590.96 37.5538 1589.5 37.4409 1587.99 37.3244C1586.95 37.2439 1585.88 37.1617 1585 37.1617C1580.94 37.2022 1577.81 37.091 1575.3 37.0016C1569.95 36.8112 1567.38 36.7196 1564.43 38.4012C1561.57 40.0751 1558.89 39.994 1556.45 39.9201C1554.74 39.8687 1553.16 39.8204 1551.71 40.3801C1545.76 42.6128 1543.59 41.7466 1541.42 39.021C1539.96 37.319 1538.41 37.2098 1536.18 37.053C1534.68 36.9477 1532.87 36.821 1530.59 36.1759C1525.09 34.4951 1519.58 36.1883 1516.06 37.2737C1515.42 37.471 1514.84 37.6482 1514.34 37.7815C1496.01 32.2846 1485.18 33.0995 1478.87 33.5746C1476.8 33.7306 1475.22 33.8501 1474.01 33.6968C1472.66 30.9786 1467.23 28.8728 1461.28 28.8728C1461.28 28.8728 1448.56 28.7459 1448.02 28.8728C1443.22 29.4405 1442.5 29.0524 1441.81 28.6818C1441.45 28.4869 1441.1 28.2968 1440.17 28.253C1437.76 28.1906 1437.27 27.7882 1436.74 27.3478C1436.26 26.9447 1435.73 26.5097 1433.66 26.2742C1425.73 25.3073 1421.82 26.1771 1418.71 26.8678C1417.04 27.2388 1415.6 27.5581 1413.9 27.5137C1412.09 27.4718 1410.32 27.5357 1408.56 27.5988C1405.33 27.7155 1402.16 27.8294 1399 27.2673C1397.65 27.0209 1379.24 26.2816 1368.95 26.7745C1367.88 25.9083 1366.53 25.042 1364.36 25.042C1358.95 24.7956 1353.26 24.9225 1347.85 25.6618C1345.72 25.9487 1345.21 25.8116 1344.45 25.6061C1343.56 25.3675 1342.34 25.0366 1337.83 25.169C1335.16 25.2425 1333.83 25.0359 1331.62 24.6936C1330.24 24.48 1328.52 24.2135 1325.92 23.9294C1322.28 23.5431 1320.96 22.7274 1319.85 22.0473C1318.83 21.4126 1317.99 20.8961 1315.64 20.9574C1312.61 21.03 1308.31 20.9094 1303.55 20.7759C1292.16 20.4565 1278.14 20.0632 1272.6 22.07C1269.95 23.0891 1267.52 23.1239 1265.38 23.1546C1263.36 23.1834 1261.6 23.2086 1260.15 24.0489C1259.06 24.6913 1257.42 24.5918 1255.72 24.4879C1254.47 24.4119 1253.18 24.3335 1252.04 24.5417C1249.9 24.8694 1248.85 24.6004 1247.65 24.2892C1246.11 23.8913 1244.3 23.4244 1239.59 24.0489C1238.47 24.2024 1237.41 24.3976 1236.34 24.5914C1234.83 24.8689 1233.32 25.1434 1231.73 25.2884C1229.56 25.5349 1227.95 26.0277 1226.32 26.6475C1223.34 27.6324 1219.04 28.0855 1214.93 28.5183C1209.72 29.0666 1204.82 29.5823 1203.31 31.1056C1199.07 31.0536 1198.57 30.7655 1198.09 30.4874C1197.47 30.1263 1196.88 29.782 1188.16 29.9929C1172.37 30.4182 1167.04 28.4527 1163.15 27.018C1161.37 26.3617 1159.89 25.8165 1157.85 25.6618C1157.64 25.6618 1157.39 25.6994 1157.14 25.7384C1156.72 25.8008 1156.29 25.8669 1155.96 25.7888C1154.05 25.2959 1152.44 25.6618 1150.81 26.0352C1148.4 26.506 1146.92 26.3123 1145.37 26.1104C1143.26 25.8351 1141.03 25.5445 1136.19 26.9014C1134.56 27.4017 1127.26 28.5144 1125.63 27.8946C1124.25 27.2613 1123.27 27.4336 1117.71 28.4072C1116.72 28.5815 1115.58 28.7815 1114.26 29.0072C1112.11 27.4017 1102.62 27.1553 1101.27 29.627C1099.19 29.5446 1097.56 29.3377 1096.15 29.1589C1093.35 28.8031 1091.43 28.5585 1088.54 29.627C1088.1 29.8339 1086.99 29.8505 1085.95 29.8661C1085.11 29.8786 1084.31 29.8905 1083.95 30.0004C1080.69 30.7397 1073.11 30.1199 1072.58 29.8735C1070.91 29.0196 1069.4 29.1112 1066.1 29.3114C1065.1 29.3721 1063.94 29.4427 1062.55 29.5001C1061.41 27.3328 1057.8 28.0963 1054.23 28.8526C1051.88 29.3497 1049.55 29.8436 1047.94 29.5001C1047.4 29.5001 1046.58 29.6196 1046.05 29.7465C1041.07 30.6392 1039.01 29.5569 1037.26 28.6392C1036.35 28.1598 1035.52 27.7253 1034.41 27.6407C1033.94 27.6093 1033.48 27.5629 1033.01 27.5163C1031.58 27.3747 1030.15 27.2327 1028.72 27.5137C1027.47 27.7301 1026.39 27.4475 1025.34 27.1716C1024.58 26.9713 1023.83 26.7745 1023.04 26.7745C1018.72 26.7745 1016.55 26.7745 1014.92 27.3943C1014.92 27.3943 1012.48 27.3943 1011.13 27.5212C1010.2 27.8576 1009.4 28.253 1008.64 28.6269C1008.29 28.8009 1007.95 28.9702 1007.61 29.1267L1007.33 28.9997C1003.38 29.7945 1002.17 30.1354 1001.2 30.0503C999.912 29.937 999.047 29.0697 992.712 27.5137C988 26.343 986.638 26.3062 984.924 26.2598C983.194 26.2131 981.105 26.1566 974.852 24.9151C971.808 24.3196 970.547 24.4685 969.411 24.6027C968.424 24.7193 967.531 24.8248 965.645 24.4222C962.139 23.6858 960.25 24.046 953.809 25.274L953.733 25.2884C951.857 25.6338 949.807 24.7607 947.367 23.7223C944.532 22.5151 941.171 21.0843 936.949 21.0843C934.318 21.1284 933.679 20.8286 933.048 20.5324C931.861 19.9757 930.703 19.432 916.384 21.2112C914.749 21.3972 913.385 21.1249 912.058 20.8602C909.869 20.4233 907.783 20.007 904.749 21.7041C902.791 22.7906 901.409 22.6247 899.787 22.4301C898.265 22.2475 896.532 22.0396 893.913 22.8167C893.513 23.0058 892.959 22.9837 892.366 22.9601C892.162 22.952 891.954 22.9437 891.746 22.9437C890.972 22.8798 889.779 22.7323 888.366 22.5577C884.333 22.0594 878.504 21.3391 875.499 21.7041C865.755 22.8167 856.548 23.9294 855.733 24.0563C854.885 24.166 853.611 24.1781 852.291 24.1906C850.645 24.2062 848.928 24.2224 847.879 24.4297C845.806 24.8723 844.792 24.734 842.418 24.4101C840.146 24.1001 836.628 23.6202 829.742 23.317C824.593 23.0706 819.443 22.8242 814.848 21.958C814.032 21.7974 813.228 21.6258 812.424 21.4541C809.488 20.8271 806.543 20.1983 802.936 20.0986C802.936 20.0986 800.508 19.2324 795.359 18.986C776.899 18.091 772.31 18.318 768.119 18.5252C764.198 18.7192 760.625 18.8959 746.359 18.1197C742.493 17.9091 739.003 17.6415 735.911 17.4043C729.905 16.9437 725.396 16.5979 722.535 17.0071C720.41 17.3582 719.527 17.3341 714.691 17.2021C712.74 17.1488 710.145 17.078 706.566 17.0071C705.764 17.0071 704.151 17.0828 702.001 17.1838C695.453 17.4912 683.924 18.0326 675.164 17.3804C670.243 17.0418 661.327 17.1147 659.31 17.1312C659.102 17.1329 658.968 17.134 658.918 17.134C653.448 16.7024 651.787 16.9915 650.551 17.2069C650.012 17.3007 649.554 17.3804 648.896 17.3804C636.15 17.6354 633.984 18.1222 632.613 18.4304C631.334 18.7179 630.747 18.8499 622.905 18.4931C620.317 18.3622 619.104 18.5811 617.602 18.852C616.277 19.0911 614.726 19.3708 611.808 19.4863C599.896 19.9866 598.821 19.9866 595.301 18.9934C594.944 18.9133 594.393 18.7558 593.698 18.5572C591.219 17.8495 586.917 16.6208 583.112 16.5217C572.276 16.2753 571.2 16.5217 569.848 17.0146C568.474 17.8161 566.83 17.7806 565.208 17.7455C564.578 17.7319 563.952 17.7183 563.346 17.7538C554.568 18.2986 549.156 18.391 544.252 18.4748C534.637 18.6391 526.978 18.7699 499.729 22.2119C494.835 21.0474 492.345 21.3036 486.451 21.9097C484.181 22.1432 481.406 22.4286 477.795 22.7047C468.217 23.3871 468.69 23.6774 468.49 23.828C468.255 24.0053 467.086 23.9888 447.47 24.1908C445.199 24.1908 443.986 24.116 442.918 24.0503C440.929 23.9279 439.447 23.8366 432.576 24.3177C418.054 25.3905 413.299 24.537 409.68 23.8875C408.715 23.7141 407.83 23.5553 406.862 23.4515C406.35 23.4011 405.843 23.3531 405.341 23.3055C402.121 23.0004 399.108 22.7149 396.302 21.9655C395.765 21.719 394.689 21.5921 393.874 21.7191C391.094 22.0383 384.703 21.4511 377.303 20.7711C367.396 19.8608 355.679 18.7842 348.394 19.4937C347.579 19.4937 346.227 19.4937 345.412 19.3668C343.751 18.9863 341.176 18.9801 339.057 18.975C337.725 18.9718 336.574 18.9691 335.945 18.8739C332.247 18.3595 329.413 18.6748 326.812 18.964C325.034 19.1618 323.365 19.3474 321.605 19.2473C321.067 19.2473 305.098 18.2616 303.468 18.1347C299.898 17.7277 297.226 17.7688 294.823 17.8058C292.86 17.8359 291.077 17.8634 289.128 17.6418C282.409 16.8092 281.344 17.0712 280.51 17.2764C279.362 17.5589 278.651 17.7337 264.229 14.7967C263.414 13.3106 261.263 12.8177 257.466 13.4375C255.383 13.7965 253.677 13.4966 251.744 13.1571C249.655 12.7901 247.302 12.3763 243.925 12.6983C243.925 12.6983 237.146 12.0785 233.088 12.2055C230.178 12.338 227.579 12.1141 225.294 11.9171C223.331 11.7479 221.6 11.5987 220.101 11.7127C217.27 11.9468 215.294 11.8187 213.653 11.7127C211.837 11.5952 210.43 11.5042 208.727 11.9591C205.081 12.9364 194.791 12.2834 189.879 11.9713C188.599 11.8902 187.684 11.8321 187.347 11.8321C182.742 11.6711 180.682 10.8223 179.051 10.1503C178.189 9.79555 177.446 9.48942 176.511 9.36048C172.714 8.86766 165.952 8.12091 162.432 8.7407C155.012 9.80386 151.582 9.43207 147.975 9.0409C146.971 8.93213 145.954 8.82178 144.833 8.7407C123.747 7.93383 115.853 7.06289 110.952 6.52221C106.1 5.98667 104.18 5.77507 95.2951 6.26908C94.5334 6.3027 93.751 6.31733 92.9654 6.33197C90.9611 6.36954 88.936 6.40791 87.18 6.7619H86.6423C84.7135 6.58787 83.3334 6.77495 81.9225 6.96638C80.3654 7.17759 78.7708 7.39355 76.3599 7.13527C75.8059 7.13527 74.7304 7.13527 73.9156 7.26223C72.9983 7.34094 72.0935 7.43112 71.1957 7.52051C67.8513 7.85314 64.6062 8.17629 61.189 7.88202C60.813 7.8658 60.4565 7.85077 60.118 7.83653C55.1021 7.62493 54.0639 7.58142 52.7969 6.88886C50.2165 5.7102 48.0454 5.5868 45.5678 5.44679C43.1011 5.30677 40.3307 5.14975 36.5504 3.91691C31.1404 2.05717 11.6512 -0.414452 4.33456 0.451742H2.98205C2.84106 0.435526 2.70035 0.419309 2.56044 0.403093Z" fill="white"/>
</g>
</g>
<defs>
<clipPath id="clip0_505_13477">
<rect width="1728" height="53" fill="white"/>
</clipPath>
</defs>
</svg>
