<svg width="1728" height="134" viewBox="0 0 1728 134" fill="none" preserveAspectRatio="none" xmlns="http://www.w3.org/2000/svg">
<g clip-path="url(#clip0_505_13467)">
<path fill-rule="evenodd" clip-rule="evenodd" d="M2.56044 1.01912C1.61685 0.743119 0.709558 0.47812 1.59557e-06 0.19812L0 134L1728 134C1727.57 133.801 1727.15 133.601 1726.67 133.37C1725.66 132.881 1724.35 132.252 1721.96 131.187C1718.18 129.62 1713.03 127.751 1710.33 129.941C1706.98 132.791 1705.35 130.742 1703.8 128.79C1702.97 127.742 1702.16 126.723 1701.12 126.505C1697.39 125.923 1696.34 123.164 1695.1 119.866C1693.63 115.989 1691.88 111.367 1685.15 108.663L1685.03 108.59C1684.53 108.296 1684.06 108.016 1684.06 107.719C1680.17 88.555 1661.79 93.9598 1646.9 98.3377C1637.97 100.964 1630.29 103.221 1627.76 99.5821C1627.16 98.6526 1625.1 99.089 1621.37 99.8803C1620.02 100.166 1618.45 100.498 1616.66 100.828C1616.66 84.2735 1603.18 89.8737 1594.8 93.3549C1593.68 93.82 1592.65 94.2473 1591.76 94.5789C1590.96 94.9474 1589.5 94.662 1587.99 94.3674C1586.95 94.1638 1585.88 93.9559 1585 93.9559C1580.94 94.0584 1577.81 93.7772 1575.3 93.5511C1569.95 93.0697 1567.38 92.8381 1564.43 97.0899C1561.57 101.322 1558.89 101.117 1556.45 100.93C1554.74 100.8 1553.16 100.678 1551.71 102.093C1545.76 107.738 1543.59 105.548 1541.42 98.6569C1539.96 94.3538 1538.41 94.0775 1536.18 93.6812C1534.68 93.415 1532.87 93.0946 1530.59 91.4637C1525.09 87.2141 1519.58 91.4949 1516.06 94.2392C1515.42 94.738 1514.84 95.186 1514.34 95.5229C1496.01 81.6252 1485.18 83.6854 1478.87 84.8866C1476.8 85.2812 1475.22 85.5832 1474.01 85.1956C1472.66 78.3233 1467.23 72.9992 1461.28 72.9992C1461.28 72.9992 1448.56 72.6782 1448.02 72.9992C1443.22 74.4345 1442.5 73.4533 1441.81 72.5162C1441.45 72.0234 1441.1 71.5428 1440.17 71.4322C1437.76 71.2744 1437.27 70.257 1436.74 69.1434C1436.26 68.1242 1435.73 67.0244 1433.66 66.429C1425.73 63.9845 1421.82 66.1835 1418.71 67.93C1417.04 68.8678 1415.6 69.6752 1413.9 69.563C1412.09 69.457 1410.32 69.6186 1408.56 69.7782C1405.33 70.0731 1402.16 70.3611 1399 68.94C1397.65 68.317 1379.24 66.4479 1368.95 67.6939C1367.88 65.5039 1366.53 63.3138 1364.36 63.3138C1358.95 62.6908 1353.26 63.0117 1347.85 64.8808C1345.72 65.6061 1345.21 65.2596 1344.45 64.7399C1343.56 64.1367 1342.34 63.3001 1337.83 63.6348C1335.16 63.8207 1333.83 63.2982 1331.62 62.4328C1330.24 61.8927 1328.52 61.219 1325.92 60.5007C1322.28 59.5241 1320.96 57.4616 1319.85 55.7422C1318.83 54.1374 1317.99 52.8316 1315.64 52.9865C1312.61 53.1701 1308.31 52.8652 1303.55 52.5278C1292.16 51.7201 1278.14 50.7257 1272.6 55.7996C1269.95 58.3762 1267.52 58.4642 1265.38 58.5417C1263.36 58.6147 1261.6 58.6784 1260.15 60.8028C1259.06 62.4271 1257.42 62.1756 1255.72 61.9128C1254.47 61.7206 1253.18 61.5223 1252.04 62.0488C1249.9 62.8773 1248.85 62.1971 1247.65 61.4105C1246.11 60.4044 1244.3 59.224 1239.59 60.8028C1238.47 61.191 1237.41 61.6846 1236.34 62.1745C1234.83 62.876 1233.32 63.57 1231.73 63.9368C1229.56 64.5599 1227.95 65.8059 1226.32 67.373C1223.34 69.8631 1219.04 71.0087 1214.93 72.1029C1209.72 73.4891 1204.82 74.7929 1203.31 78.6443C1199.07 78.5128 1198.57 77.7845 1198.09 77.0813C1197.47 76.1684 1196.88 75.2979 1188.16 75.8312C1172.37 76.9064 1167.04 71.9371 1163.15 68.3096C1161.37 66.6504 1159.89 65.2719 1157.85 64.8808C1157.64 64.8808 1157.39 64.9759 1157.14 65.0745C1156.72 65.2322 1156.29 65.3993 1155.96 65.2018C1154.05 63.9557 1152.44 64.8808 1150.81 65.8248C1148.4 67.0151 1146.92 66.5255 1145.37 66.0149C1143.26 65.3189 1141.03 64.5842 1136.19 68.0149C1134.56 69.2798 1127.26 72.0929 1125.63 70.5259C1124.25 68.9247 1123.27 69.3605 1117.71 71.8219C1116.72 72.2627 1115.58 72.7684 1114.26 73.339C1112.11 69.2798 1102.62 68.6568 1101.27 74.906C1099.19 74.6977 1097.56 74.1746 1096.15 73.7225C1093.35 72.823 1091.43 72.2045 1088.54 74.906C1088.1 75.429 1086.99 75.471 1085.95 75.5104C1085.11 75.5422 1084.31 75.5722 1083.95 75.85C1080.69 77.7192 1073.11 76.1521 1072.58 75.5291C1070.91 73.3704 1069.4 73.602 1066.1 74.108C1065.1 74.2615 1063.94 74.4401 1062.55 74.5851C1061.41 69.1056 1057.8 71.036 1054.23 72.948C1051.88 74.2048 1049.55 75.4537 1047.94 74.5851C1047.4 74.5851 1046.58 74.8872 1046.05 75.2081C1041.07 77.4651 1039.01 74.7288 1037.26 72.4086C1036.35 71.1964 1035.52 70.0978 1034.41 69.884C1033.94 69.8046 1033.48 69.6872 1033.01 69.5696C1031.58 69.2116 1030.15 68.8525 1028.72 69.563C1027.47 70.11 1026.39 69.3956 1025.34 68.6979C1024.58 68.1915 1023.83 67.6939 1023.04 67.6939C1018.72 67.6939 1016.55 67.6939 1014.92 69.261C1014.92 69.261 1012.48 69.261 1011.13 69.5819C1010.2 70.4323 1009.4 71.4321 1008.64 72.3774C1008.29 72.8173 1007.95 73.2454 1007.61 73.6411L1007.33 73.3201C1003.38 75.3294 1002.17 76.1914 1001.2 75.9761C999.912 75.6897 999.047 73.497 992.712 69.563C988 66.6031 986.638 66.51 984.924 66.3928C983.194 66.2746 981.105 66.1318 974.852 62.9928C971.808 61.4872 970.547 61.8637 969.411 62.2031C968.424 62.4979 967.531 62.7646 965.645 61.7468C962.139 59.8849 960.25 60.7956 953.809 63.9003L953.733 63.9368C951.857 64.8099 949.807 62.6026 947.367 59.9772C944.532 56.9249 941.171 53.3075 936.949 53.3075C934.318 53.4189 933.679 52.6609 933.048 51.9122C931.861 50.5046 930.703 49.1299 916.384 53.6284C914.749 54.0986 913.385 53.4102 912.058 52.7409C909.869 51.6363 907.783 50.5836 904.749 54.8745C902.791 57.6214 901.409 57.2021 899.787 56.7101C898.265 56.2484 896.532 55.7227 893.913 57.6876C893.513 58.1655 892.959 58.1097 892.366 58.05C892.162 58.0295 891.954 58.0086 891.746 58.0086C890.972 57.8469 889.779 57.4742 888.366 57.0327C884.333 55.7727 878.504 53.9517 875.499 54.8745C865.755 57.6876 856.548 60.5007 855.733 60.8216C854.885 61.0988 853.611 61.1294 852.291 61.161C850.645 61.2005 848.928 61.2416 847.879 61.7656C845.806 62.8846 844.792 62.5349 842.418 61.7161C840.146 60.9324 836.628 59.7189 829.742 58.9525C824.593 58.3295 819.443 57.7065 814.848 55.5164C814.032 55.1105 813.228 54.6766 812.424 54.2424C809.488 52.6571 806.543 51.0673 802.936 50.8153C802.936 50.8153 800.508 48.6252 795.359 48.0022C776.899 45.7395 772.31 46.3133 768.119 46.8373C764.198 47.3277 760.625 47.7744 746.359 45.8121C742.493 45.2795 739.003 44.6029 735.911 44.0033C729.905 42.8388 725.396 41.9646 722.535 42.999C720.41 43.8868 719.527 43.8258 714.691 43.492C712.74 43.3573 710.145 43.1782 706.566 42.999C705.764 42.999 704.151 43.1905 702.001 43.4457C695.453 44.2231 683.924 45.5918 675.164 43.943C670.243 43.0869 661.327 43.2712 659.31 43.3129C659.102 43.3172 658.968 43.32 658.918 43.32C653.448 42.2286 651.787 42.9597 650.551 43.5041C650.012 43.7413 649.554 43.943 648.896 43.943C636.15 44.5877 633.984 45.8185 632.613 46.5977C631.334 47.3245 630.747 47.6583 622.905 46.7561C620.317 46.4252 619.104 46.9786 617.602 47.6636C616.277 48.2681 614.726 48.9751 611.808 49.2672C599.896 50.5321 598.821 50.5321 595.301 48.0211C594.944 47.8185 594.393 47.4202 593.698 46.9183C591.219 45.1289 586.917 42.0225 583.112 41.7718C572.276 41.1488 571.2 41.7718 569.848 43.0179C568.474 45.0445 566.83 44.9546 565.208 44.8659C564.578 44.8315 563.952 44.7973 563.346 44.887C554.568 46.2644 549.156 46.4981 544.252 46.7099C534.637 47.1252 526.978 47.456 499.729 56.1583C494.835 53.2142 492.345 53.8618 486.451 55.3944C484.181 55.9847 481.406 56.7062 477.795 57.4044C468.217 59.1297 468.69 59.8636 468.49 60.2443C468.255 60.6926 467.086 60.651 447.47 61.1615C445.199 61.1615 443.986 60.9726 442.918 60.8065C440.929 60.4969 439.447 60.2662 432.576 61.4825C418.054 64.1948 413.299 62.037 409.68 60.3947C408.715 59.9564 407.83 59.5549 406.862 59.2924C406.35 59.1651 405.843 59.0436 405.341 58.9234C402.121 58.1519 399.108 57.43 396.302 55.5353C395.765 54.9122 394.689 54.5913 393.874 54.9123C391.094 55.7195 384.703 54.2348 377.303 52.5156C367.396 50.214 355.679 47.4921 348.394 49.286C347.579 49.286 346.227 49.286 345.412 48.9651C343.751 48.003 341.176 47.9874 339.057 47.9746C337.725 47.9665 336.574 47.9595 335.945 47.719C332.247 46.4183 329.413 47.2154 326.812 47.9467C325.034 48.4468 323.365 48.916 321.605 48.663C321.067 48.663 305.098 46.1709 303.468 45.8499C299.898 44.821 297.226 44.9249 294.823 45.0183C292.86 45.0946 291.077 45.164 289.128 44.6038C282.409 42.4987 281.344 43.1611 280.51 43.6799C279.362 44.3941 278.651 44.8361 264.229 37.4106C263.414 33.6531 261.263 32.4071 257.466 33.9741C255.383 34.8817 253.677 34.1235 251.744 33.2651C249.655 32.3371 247.302 31.2911 243.925 32.1051C243.925 32.1051 237.146 30.5381 233.088 30.8591C230.178 31.1941 227.579 30.6281 225.294 30.1301C223.331 29.7021 221.6 29.3251 220.101 29.6131C217.27 30.2051 215.294 29.8811 213.653 29.6131C211.837 29.3161 210.43 29.0861 208.727 30.2361C205.081 32.7071 194.791 31.0561 189.879 30.2671C188.599 30.0621 187.684 29.9151 187.347 29.9151C182.742 29.5081 180.682 27.3621 179.051 25.6631C178.189 24.7661 177.446 23.9921 176.511 23.6661C172.714 22.4201 165.952 20.5321 162.432 22.0991C155.012 24.7871 151.582 23.8471 147.975 22.8581C146.971 22.5831 145.954 22.3041 144.833 22.0991C123.747 20.0591 115.853 17.8571 110.952 16.4901C106.1 15.1361 104.18 14.6011 95.2951 15.8501C94.5334 15.9351 93.751 15.9721 92.9654 16.0091C90.9611 16.1041 88.936 16.2011 87.18 17.0961L86.6423 17.0961C84.7135 16.6561 83.3334 17.1291 81.9225 17.6131C80.3654 18.1471 78.7708 18.6931 76.3599 18.0401C75.8059 18.0401 74.7304 18.0401 73.9156 18.3611C72.9983 18.5601 72.0935 18.7881 71.1957 19.0141C67.8513 19.8551 64.6062 20.6721 61.189 19.9281C60.813 19.8871 60.4565 19.8491 60.118 19.8131C55.1021 19.2781 54.0639 19.1681 52.7969 17.4171C50.2165 14.4371 48.0454 14.1251 45.5678 13.7711C43.1011 13.4171 40.3307 13.0201 36.5504 9.90312C31.1404 5.20112 11.6512 -1.04788 4.33456 1.14212L2.98205 1.14212C2.84106 1.10112 2.70035 1.06012 2.56044 1.01912Z" fill="white"/>
</g>
<defs>
<clipPath id="clip0_505_13467">
<rect width="134" height="1728" fill="white" transform="translate(0 134) rotate(-90)"/>
</clipPath>
</defs>
</svg>
