<svg width="290" height="232" viewBox="0 0 290 232" fill="none" xmlns="http://www.w3.org/2000/svg">
<g filter="url(#filter0_dd_1_42279)">
<g clip-path="url(#clip0_1_42279)">
<mask id="path-1-inside-1_1_42279" fill="white">
<path d="M8 11.2406C8 8.34631 10.3463 6 13.2406 6H282V221H13.2406C10.3463 221 8 218.654 8 215.759V11.2406Z"/>
</mask>
<g clip-path="url(#clip1_1_42279)">
<path d="M28.6835 33.6809H24.6469V22.2939H28.7169C29.8623 22.2939 30.8482 22.5219 31.6748 22.9778C32.5014 23.43 33.1371 24.0806 33.5819 24.9294C34.0305 25.7782 34.2547 26.7939 34.2547 27.9763C34.2547 29.1625 34.0305 30.1818 33.5819 31.0343C33.1371 31.8869 32.4977 32.5411 31.6637 32.9971C30.8334 33.453 29.84 33.6809 28.6835 33.6809ZM27.0544 31.6182H28.5834C29.2951 31.6182 29.8938 31.4921 30.3793 31.2401C30.8686 30.9843 31.2356 30.5895 31.4802 30.0558C31.7286 29.5183 31.8528 28.8251 31.8528 27.9763C31.8528 27.1349 31.7286 26.4473 31.4802 25.9135C31.2356 25.3798 30.8705 24.9869 30.3849 24.7348C29.8993 24.4827 29.3007 24.3567 28.589 24.3567H27.0544V31.6182ZM35.9936 33.6809V25.1407H38.2899V26.6308H38.3789C38.5346 26.1007 38.7959 25.7004 39.1629 25.4298C39.5298 25.1555 39.9524 25.0184 40.4306 25.0184C40.5492 25.0184 40.677 25.0258 40.8142 25.0406C40.9513 25.0554 41.0718 25.0758 41.1756 25.1018V27.2035C41.0644 27.1701 40.9106 27.1404 40.7141 27.1145C40.5177 27.0886 40.3379 27.0756 40.1748 27.0756C39.8264 27.0756 39.515 27.1516 39.2407 27.3035C38.9701 27.4518 38.7551 27.6594 38.5957 27.9263C38.44 28.1932 38.3622 28.5008 38.3622 28.8492V33.6809H35.9936ZM44.5909 33.8422C44.046 33.8422 43.5604 33.7477 43.1341 33.5586C42.7079 33.3659 42.3706 33.0823 42.1222 32.7079C41.8776 32.3298 41.7552 31.8591 41.7552 31.2957C41.7552 30.8212 41.8423 30.4227 42.0166 30.1003C42.1908 29.7778 42.428 29.5183 42.7282 29.3218C43.0285 29.1254 43.3695 28.9771 43.7513 28.877C44.1368 28.777 44.5408 28.7065 44.9634 28.6658C45.4601 28.6139 45.8604 28.5657 46.1644 28.5212C46.4683 28.473 46.6889 28.4026 46.826 28.3099C46.9632 28.2172 47.0317 28.0801 47.0317 27.8985V27.8651C47.0317 27.513 46.9205 27.2405 46.6981 27.0478C46.4794 26.855 46.1681 26.7587 45.764 26.7587C45.3378 26.7587 44.9986 26.8532 44.7466 27.0422C44.4945 27.2276 44.3277 27.4611 44.2461 27.7428L42.0555 27.5649C42.1667 27.0459 42.3854 26.5974 42.7116 26.2193C43.0378 25.8375 43.4585 25.5447 43.9737 25.3408C44.4926 25.1333 45.0931 25.0295 45.7752 25.0295C46.2496 25.0295 46.7037 25.0851 47.1374 25.1963C47.5748 25.3075 47.9621 25.4798 48.2994 25.7134C48.6405 25.9469 48.9092 26.2471 49.1056 26.6141C49.3021 26.9774 49.4003 27.4129 49.4003 27.9207V33.6809H47.1541V32.4966H47.0873C46.9502 32.7635 46.7667 32.9989 46.5369 33.2028C46.3071 33.4029 46.0309 33.5605 45.7084 33.6754C45.386 33.7866 45.0134 33.8422 44.5909 33.8422ZM45.2692 32.2075C45.6176 32.2075 45.9253 32.1389 46.1922 32.0018C46.4591 31.8609 46.6685 31.6719 46.8205 31.4347C46.9724 31.1974 47.0484 30.9287 47.0484 30.6285V29.7222C46.9743 29.7704 46.8724 29.8148 46.7426 29.8556C46.6166 29.8927 46.4739 29.9279 46.3145 29.9613C46.1551 29.9909 45.9957 30.0187 45.8363 30.0447C45.6769 30.0669 45.5324 30.0873 45.4026 30.1058C45.1246 30.1466 44.8818 30.2115 44.6743 30.3004C44.4667 30.3894 44.3055 30.5098 44.1905 30.6618C44.0756 30.8101 44.0182 30.9954 44.0182 31.2178C44.0182 31.5403 44.1349 31.7868 44.3685 31.9573C44.6057 32.1241 44.9059 32.2075 45.2692 32.2075ZM52.9226 33.6809L50.5985 25.1407H52.9949L54.3182 30.8787H54.396L55.7749 25.1407H58.1268L59.528 30.8453H59.6003L60.9013 25.1407H63.2921L60.9736 33.6809H58.466L56.9982 28.3099H56.8925L55.4247 33.6809H52.9226ZM68.2337 33.8477C67.3552 33.8477 66.599 33.6698 65.9652 33.314C65.335 32.9544 64.8494 32.4466 64.5084 31.7905C64.1674 31.1307 63.9969 30.3505 63.9969 29.4497C63.9969 28.5712 64.1674 27.8002 64.5084 27.1367C64.8494 26.4732 65.3294 25.9562 65.9485 25.5855C66.5712 25.2148 67.3014 25.0295 68.1391 25.0295C68.7026 25.0295 69.2271 25.1203 69.7126 25.3019C70.2019 25.4798 70.6282 25.7486 70.9914 26.1081C71.3584 26.4677 71.6438 26.9199 71.8477 27.4648C72.0516 28.006 72.1535 28.6398 72.1535 29.3663V30.0169H64.9421V28.549H69.9239C69.9239 28.208 69.8498 27.9059 69.7015 27.6427C69.5532 27.3795 69.3475 27.1738 69.0843 27.0255C68.8249 26.8736 68.5228 26.7976 68.1781 26.7976C67.8185 26.7976 67.4997 26.881 67.2217 27.0478C66.9474 27.2109 66.7324 27.4314 66.5768 27.7094C66.4211 27.9837 66.3414 28.2895 66.3377 28.6268V30.0224C66.3377 30.445 66.4155 30.8101 66.5712 31.1177C66.7306 31.4254 66.9548 31.6626 67.244 31.8294C67.5331 31.9962 67.876 32.0796 68.2726 32.0796C68.5358 32.0796 68.7767 32.0426 68.9954 31.9684C69.2141 31.8943 69.4013 31.7831 69.557 31.6348C69.7126 31.4866 69.8312 31.3049 69.9128 31.0899L72.1035 31.2345C71.9923 31.7609 71.7643 32.2205 71.4196 32.6134C71.0786 33.0026 70.6375 33.3066 70.0963 33.5253C69.5588 33.7402 68.9379 33.8477 68.2337 33.8477ZM73.6992 33.6809V25.1407H75.9955V26.6308H76.0845C76.2402 26.1007 76.5015 25.7004 76.8684 25.4298C77.2354 25.1555 77.658 25.0184 78.1361 25.0184C78.2547 25.0184 78.3826 25.0258 78.5198 25.0406C78.6569 25.0554 78.7774 25.0758 78.8812 25.1018V27.2035C78.77 27.1701 78.6162 27.1404 78.4197 27.1145C78.2232 27.0886 78.0435 27.0756 77.8804 27.0756C77.5319 27.0756 77.2206 27.1516 76.9463 27.3035C76.6757 27.4518 76.4607 27.6594 76.3013 27.9263C76.1456 28.1932 76.0678 28.5008 76.0678 28.8492V33.6809H73.6992ZM88.2721 25.1407V26.9199H83.1291V25.1407H88.2721ZM84.2967 23.0946H86.6653V31.0566C86.6653 31.2753 86.6986 31.4458 86.7654 31.5681C86.8321 31.6867 86.9247 31.7701 87.0434 31.8183C87.1657 31.8665 87.3065 31.8906 87.4659 31.8906C87.5771 31.8906 87.6883 31.8813 87.7995 31.8628C87.9107 31.8406 87.996 31.8239 88.0553 31.8128L88.4278 33.5753C88.3092 33.6124 88.1424 33.655 87.9274 33.7032C87.7124 33.7551 87.4511 33.7866 87.1434 33.7977C86.5726 33.8199 86.0722 33.744 85.6422 33.5697C85.2159 33.3955 84.8842 33.1249 84.647 32.758C84.4097 32.391 84.293 31.9277 84.2967 31.368V23.0946ZM89.815 33.6809V25.1407H92.1836V33.6809H89.815ZM91.0049 24.0398C90.6528 24.0398 90.3507 23.923 90.0986 23.6895C89.8503 23.4523 89.7261 23.1687 89.7261 22.8388C89.7261 22.5126 89.8503 22.2328 90.0986 21.9992C90.3507 21.762 90.6528 21.6434 91.0049 21.6434C91.357 21.6434 91.6573 21.762 91.9056 21.9992C92.1577 22.2328 92.2837 22.5126 92.2837 22.8388C92.2837 23.1687 92.1577 23.4523 91.9056 23.6895C91.6573 23.923 91.357 24.0398 91.0049 24.0398ZM98.6236 25.1407V26.9199H93.4805V25.1407H98.6236ZM94.6481 23.0946H97.0167V31.0566C97.0167 31.2753 97.0501 31.4458 97.1168 31.5681C97.1835 31.6867 97.2762 31.7701 97.3948 31.8183C97.5171 31.8665 97.658 31.8906 97.8174 31.8906C97.9286 31.8906 98.0398 31.8813 98.151 31.8628C98.2622 31.8406 98.3474 31.8239 98.4067 31.8128L98.7793 33.5753C98.6606 33.6124 98.4938 33.655 98.2789 33.7032C98.0639 33.7551 97.8025 33.7866 97.4949 33.7977C96.9241 33.8199 96.4236 33.744 95.9937 33.5697C95.5674 33.3955 95.2356 33.1249 94.9984 32.758C94.7612 32.391 94.6444 31.9277 94.6481 31.368V23.0946ZM102.719 22.2939V33.6809H100.35V22.2939H102.719ZM108.508 33.8477C107.629 33.8477 106.873 33.6698 106.239 33.314C105.609 32.9544 105.124 32.4466 104.783 31.7905C104.442 31.1307 104.271 30.3505 104.271 29.4497C104.271 28.5712 104.442 27.8002 104.783 27.1367C105.124 26.4732 105.604 25.9562 106.223 25.5855C106.846 25.2148 107.576 25.0295 108.413 25.0295C108.977 25.0295 109.501 25.1203 109.987 25.3019C110.476 25.4798 110.903 25.7486 111.266 26.1081C111.633 26.4677 111.918 26.9199 112.122 27.4648C112.326 28.006 112.428 28.6398 112.428 29.3663V30.0169H105.216V28.549H110.198C110.198 28.208 110.124 27.9059 109.976 27.6427C109.828 27.3795 109.622 27.1738 109.359 27.0255C109.099 26.8736 108.797 26.7976 108.452 26.7976C108.093 26.7976 107.774 26.881 107.496 27.0478C107.222 27.2109 107.007 27.4314 106.851 27.7094C106.695 27.9837 106.616 28.2895 106.612 28.6268V30.0224C106.612 30.445 106.69 30.8101 106.846 31.1177C107.005 31.4254 107.229 31.6626 107.518 31.8294C107.807 31.9962 108.15 32.0796 108.547 32.0796C108.81 32.0796 109.051 32.0426 109.27 31.9684C109.488 31.8943 109.676 31.7831 109.831 31.6348C109.987 31.4866 110.106 31.3049 110.187 31.0899L112.378 31.2345C112.267 31.7609 112.039 32.2205 111.694 32.6134C111.353 33.0026 110.912 33.3066 110.371 33.5253C109.833 33.7402 109.212 33.8477 108.508 33.8477Z" fill="#032B3A"/>
<path d="M259.819 27.2585L256.366 23.8055C256.243 23.6866 256.078 23.6209 255.907 23.6224C255.736 23.6238 255.572 23.6924 255.451 23.8134C255.33 23.9344 255.262 24.098 255.26 24.269C255.259 24.4401 255.325 24.6049 255.443 24.7279L258.896 28.181L255.443 31.634C255.325 31.7571 255.259 31.9218 255.26 32.0929C255.262 32.264 255.33 32.4276 255.451 32.5485C255.572 32.6695 255.736 32.7381 255.907 32.7396C256.078 32.7411 256.243 32.6753 256.366 32.5565L259.819 29.1034L263.272 32.5565C263.395 32.6753 263.56 32.7411 263.731 32.7396C263.902 32.7381 264.066 32.6695 264.186 32.5485C264.307 32.4276 264.376 32.264 264.378 32.0929C264.379 31.9218 264.313 31.7571 264.194 31.634L260.741 28.181L264.194 24.7279C264.257 24.6677 264.306 24.5958 264.341 24.5162C264.375 24.4366 264.393 24.351 264.394 24.2643C264.394 24.1777 264.378 24.0918 264.345 24.0116C264.312 23.9315 264.264 23.8586 264.203 23.7974C264.141 23.7361 264.068 23.6877 263.988 23.6549C263.908 23.6221 263.822 23.6056 263.736 23.6063C263.649 23.6071 263.563 23.6251 263.484 23.6593C263.404 23.6934 263.332 23.7431 263.272 23.8055L259.819 27.2585Z" fill="#233D48"/>
</g>
<g clip-path="url(#clip2_1_42279)">
<rect width="274" height="181.076" transform="translate(8 39.9238)" fill="white"/>
<g clip-path="url(#clip3_1_42279)">
<path d="M23.6572 52.9715C23.6572 51.5303 24.8256 50.3619 26.2668 50.3619L220.974 50.362C222.416 50.362 223.584 51.5303 223.584 52.9715V52.9715C223.584 54.4127 222.416 55.581 220.974 55.581L26.2668 55.581C24.8256 55.581 23.6572 54.4127 23.6572 52.9715V52.9715Z" fill="black" fill-opacity="0.08"/>
<rect x="23.6572" y="50.3619" width="199.724" height="5.21905" fill="url(#paint0_linear_1_42279)"/>
<rect x="-127.695" y="50.3619" width="199.724" height="5.21905" fill="url(#paint1_linear_1_42279)"/>
</g>
<g clip-path="url(#clip4_1_42279)">
<path d="M23.6572 63.4095C23.6572 61.9683 24.8256 60.8 26.2668 60.8L263.733 60.8C265.175 60.8 266.343 61.9684 266.343 63.4096V63.4096C266.343 64.8508 265.175 66.0191 263.733 66.0191L26.2668 66.0191C24.8256 66.0191 23.6572 64.8507 23.6572 63.4095V63.4095Z" fill="black" fill-opacity="0.08"/>
<rect x="23.6572" y="60.8" width="243" height="5.21905" fill="url(#paint2_linear_1_42279)"/>
<rect x="-127.695" y="60.8" width="243" height="5.21905" fill="url(#paint3_linear_1_42279)"/>
</g>
<g clip-path="url(#clip5_1_42279)">
<path d="M23.6572 73.8477C23.6572 72.4065 24.8256 71.2381 26.2668 71.2381L203.64 71.2381C205.081 71.2381 206.249 72.4065 206.249 73.8477V73.8477C206.249 75.2889 205.081 76.4572 203.64 76.4572L26.2667 76.4572C24.8255 76.4572 23.6572 75.2889 23.6572 73.8477V73.8477Z" fill="black" fill-opacity="0.08"/>
<rect x="23.6572" y="71.2381" width="183.152" height="5.21905" fill="url(#paint4_linear_1_42279)"/>
<rect x="-127.695" y="71.2381" width="183.152" height="5.21905" fill="url(#paint5_linear_1_42279)"/>
</g>
</g>
</g>
<path d="M7.34762 11.2406C7.34762 7.98602 9.98602 5.34762 13.2406 5.34762H282V6.65238H13.2406C10.7066 6.65238 8.65238 8.70662 8.65238 11.2406H7.34762ZM282 221H8H282ZM13.2406 221C9.98602 221 7.34762 218.362 7.34762 215.107V11.2406C7.34762 7.98602 9.98602 5.34762 13.2406 5.34762V6.65238C10.7066 6.65238 8.65238 8.70662 8.65238 11.2406V215.759C8.65238 218.654 10.7066 221 13.2406 221ZM282 6V221V6Z" fill="#DADFE2" mask="url(#path-1-inside-1_1_42279)"/>
</g>
<defs>
<filter id="filter0_dd_1_42279" x="0.171429" y="0.780952" width="289.657" height="230.657" filterUnits="userSpaceOnUse" color-interpolation-filters="sRGB">
<feFlood flood-opacity="0" result="BackgroundImageFix"/>
<feColorMatrix in="SourceAlpha" type="matrix" values="0 0 0 0 0 0 0 0 0 0 0 0 0 0 0 0 0 0 127 0" result="hardAlpha"/>
<feOffset dy="2.60952"/>
<feGaussianBlur stdDeviation="3.91429"/>
<feColorMatrix type="matrix" values="0 0 0 0 0 0 0 0 0 0 0 0 0 0 0 0 0 0 0.05 0"/>
<feBlend mode="normal" in2="BackgroundImageFix" result="effect1_dropShadow_1_42279"/>
<feColorMatrix in="SourceAlpha" type="matrix" values="0 0 0 0 0 0 0 0 0 0 0 0 0 0 0 0 0 0 127 0" result="hardAlpha"/>
<feOffset dy="0.652381"/>
<feGaussianBlur stdDeviation="1.30476"/>
<feColorMatrix type="matrix" values="0 0 0 0 0 0 0 0 0 0 0 0 0 0 0 0 0 0 0.1 0"/>
<feBlend mode="normal" in2="effect1_dropShadow_1_42279" result="effect2_dropShadow_1_42279"/>
<feBlend mode="normal" in="SourceGraphic" in2="effect2_dropShadow_1_42279" result="shape"/>
</filter>
<linearGradient id="paint0_linear_1_42279" x1="223.381" y1="52.9715" x2="23.6572" y2="52.9715" gradientUnits="userSpaceOnUse">
<stop stop-color="white" stop-opacity="0"/>
<stop offset="0.299948" stop-color="white" stop-opacity="0.8"/>
<stop offset="1" stop-color="white" stop-opacity="0"/>
</linearGradient>
<linearGradient id="paint1_linear_1_42279" x1="72.0285" y1="52.9715" x2="-127.695" y2="52.9715" gradientUnits="userSpaceOnUse">
<stop stop-color="white" stop-opacity="0"/>
<stop offset="0.299948" stop-color="white" stop-opacity="0.8"/>
<stop offset="1" stop-color="white" stop-opacity="0"/>
</linearGradient>
<linearGradient id="paint2_linear_1_42279" x1="266.657" y1="63.4095" x2="23.6572" y2="63.4095" gradientUnits="userSpaceOnUse">
<stop stop-color="white" stop-opacity="0"/>
<stop offset="0.299948" stop-color="white" stop-opacity="0.8"/>
<stop offset="1" stop-color="white" stop-opacity="0"/>
</linearGradient>
<linearGradient id="paint3_linear_1_42279" x1="115.305" y1="63.4095" x2="-127.695" y2="63.4095" gradientUnits="userSpaceOnUse">
<stop stop-color="white" stop-opacity="0"/>
<stop offset="0.299948" stop-color="white" stop-opacity="0.8"/>
<stop offset="1" stop-color="white" stop-opacity="0"/>
</linearGradient>
<linearGradient id="paint4_linear_1_42279" x1="206.81" y1="73.8477" x2="23.6572" y2="73.8476" gradientUnits="userSpaceOnUse">
<stop stop-color="white" stop-opacity="0"/>
<stop offset="0.299948" stop-color="white" stop-opacity="0.8"/>
<stop offset="1" stop-color="white" stop-opacity="0"/>
</linearGradient>
<linearGradient id="paint5_linear_1_42279" x1="55.4571" y1="73.8476" x2="-127.695" y2="73.8476" gradientUnits="userSpaceOnUse">
<stop stop-color="white" stop-opacity="0"/>
<stop offset="0.299948" stop-color="white" stop-opacity="0.8"/>
<stop offset="1" stop-color="white" stop-opacity="0"/>
</linearGradient>
<clipPath id="clip0_1_42279">
<path d="M8 11.2406C8 8.34631 10.3463 6 13.2406 6H282V221H13.2406C10.3463 221 8 218.654 8 215.759V11.2406Z" fill="white"/>
</clipPath>
<clipPath id="clip1_1_42279">
<rect width="274" height="33.9238" fill="white" transform="translate(8 6)"/>
</clipPath>
<clipPath id="clip2_1_42279">
<rect width="274" height="181.076" fill="white" transform="translate(8 39.9238)"/>
</clipPath>
<clipPath id="clip3_1_42279">
<path d="M23.6572 52.9715C23.6572 51.5303 24.8256 50.3619 26.2668 50.3619L220.974 50.362C222.416 50.362 223.584 51.5303 223.584 52.9715V52.9715C223.584 54.4127 222.416 55.581 220.974 55.581L26.2668 55.581C24.8256 55.581 23.6572 54.4127 23.6572 52.9715V52.9715Z" fill="white"/>
</clipPath>
<clipPath id="clip4_1_42279">
<path d="M23.6572 63.4095C23.6572 61.9683 24.8256 60.8 26.2668 60.8L263.733 60.8C265.175 60.8 266.343 61.9684 266.343 63.4096V63.4096C266.343 64.8508 265.175 66.0191 263.733 66.0191L26.2668 66.0191C24.8256 66.0191 23.6572 64.8507 23.6572 63.4095V63.4095Z" fill="white"/>
</clipPath>
<clipPath id="clip5_1_42279">
<path d="M23.6572 73.8477C23.6572 72.4065 24.8256 71.2381 26.2668 71.2381L203.64 71.2381C205.081 71.2381 206.249 72.4065 206.249 73.8477V73.8477C206.249 75.2889 205.081 76.4572 203.64 76.4572L26.2667 76.4572C24.8255 76.4572 23.6572 75.2889 23.6572 73.8477V73.8477Z" fill="white"/>
</clipPath>
</defs>
</svg>
