<svg width="224" height="117" viewBox="0 0 224 117" fill="none" xmlns="http://www.w3.org/2000/svg">
<g clip-path="url(#clip0_3_6136)">
<g filter="url(#filter0_dd_3_6136)">
<g clip-path="url(#clip1_3_6136)">
<mask id="path-2-inside-1_3_6136" fill="white">
<path d="M19 10.2406C19 7.34631 21.3463 5 24.2406 5H204V220H24.2406C21.3463 220 19 217.654 19 214.759V10.2406Z"/>
</mask>
<path d="M19 10.2406C19 7.34631 21.3463 5 24.2406 5H204V220H24.2406C21.3463 220 19 217.654 19 214.759V10.2406Z" fill="white"/>
<g clip-path="url(#clip2_3_6136)">
<path d="M39.6835 32.6809H35.6469V21.2939H39.7169C40.8623 21.2939 41.8482 21.5219 42.6748 21.9778C43.5014 22.43 44.1371 23.0806 44.5819 23.9294C45.0305 24.7782 45.2547 25.7939 45.2547 26.9763C45.2547 28.1625 45.0305 29.1818 44.5819 30.0343C44.1371 30.8869 43.4977 31.5411 42.6637 31.9971C41.8334 32.453 40.84 32.6809 39.6835 32.6809ZM38.0544 30.6182H39.5834C40.2951 30.6182 40.8938 30.4921 41.3793 30.2401C41.8686 29.9843 42.2356 29.5895 42.4802 29.0558C42.7286 28.5183 42.8528 27.8251 42.8528 26.9763C42.8528 26.1349 42.7286 25.4473 42.4802 24.9135C42.2356 24.3798 41.8705 23.9869 41.3849 23.7348C40.8993 23.4827 40.3007 23.3567 39.589 23.3567H38.0544V30.6182ZM46.9936 32.6809V24.1407H49.2899V25.6308H49.3789C49.5346 25.1007 49.7959 24.7004 50.1629 24.4298C50.5298 24.1555 50.9524 24.0184 51.4306 24.0184C51.5492 24.0184 51.677 24.0258 51.8142 24.0406C51.9513 24.0554 52.0718 24.0758 52.1756 24.1018V26.2035C52.0644 26.1701 51.9106 26.1404 51.7141 26.1145C51.5177 26.0886 51.3379 26.0756 51.1748 26.0756C50.8264 26.0756 50.515 26.1516 50.2407 26.3035C49.9701 26.4518 49.7551 26.6594 49.5957 26.9263C49.44 27.1932 49.3622 27.5008 49.3622 27.8492V32.6809H46.9936ZM55.5909 32.8422C55.046 32.8422 54.5604 32.7477 54.1341 32.5586C53.7079 32.3659 53.3706 32.0823 53.1222 31.7079C52.8776 31.3298 52.7552 30.8591 52.7552 30.2957C52.7552 29.8212 52.8423 29.4227 53.0166 29.1003C53.1908 28.7778 53.428 28.5183 53.7282 28.3218C54.0285 28.1254 54.3695 27.9771 54.7513 27.877C55.1368 27.777 55.5408 27.7065 55.9634 27.6658C56.4601 27.6139 56.8604 27.5657 57.1644 27.5212C57.4683 27.473 57.6889 27.4026 57.826 27.3099C57.9632 27.2172 58.0317 27.0801 58.0317 26.8985V26.8651C58.0317 26.513 57.9205 26.2405 57.6981 26.0478C57.4794 25.855 57.1681 25.7587 56.764 25.7587C56.3378 25.7587 55.9986 25.8532 55.7466 26.0422C55.4945 26.2276 55.3277 26.4611 55.2461 26.7428L53.0555 26.5649C53.1667 26.0459 53.3854 25.5974 53.7116 25.2193C54.0378 24.8375 54.4585 24.5447 54.9737 24.3408C55.4926 24.1333 56.0931 24.0295 56.7752 24.0295C57.2496 24.0295 57.7037 24.0851 58.1374 24.1963C58.5748 24.3075 58.9621 24.4798 59.2994 24.7134C59.6405 24.9469 59.9092 25.2471 60.1056 25.6141C60.3021 25.9774 60.4003 26.4129 60.4003 26.9207V32.6809H58.1541V31.4966H58.0873C57.9502 31.7635 57.7667 31.9989 57.5369 32.2028C57.3071 32.4029 57.0309 32.5605 56.7084 32.6754C56.386 32.7866 56.0134 32.8422 55.5909 32.8422ZM56.2692 31.2075C56.6176 31.2075 56.9253 31.1389 57.1922 31.0018C57.4591 30.8609 57.6685 30.6719 57.8205 30.4347C57.9724 30.1974 58.0484 29.9287 58.0484 29.6285V28.7222C57.9743 28.7704 57.8724 28.8148 57.7426 28.8556C57.6166 28.8927 57.4739 28.9279 57.3145 28.9613C57.1551 28.9909 56.9957 29.0187 56.8363 29.0447C56.6769 29.0669 56.5324 29.0873 56.4026 29.1058C56.1246 29.1466 55.8818 29.2115 55.6743 29.3004C55.4667 29.3894 55.3055 29.5098 55.1905 29.6618C55.0756 29.8101 55.0182 29.9954 55.0182 30.2178C55.0182 30.5403 55.1349 30.7868 55.3685 30.9573C55.6057 31.1241 55.9059 31.2075 56.2692 31.2075ZM63.9226 32.6809L61.5985 24.1407H63.9949L65.3182 29.8787H65.396L66.7749 24.1407H69.1268L70.528 29.8453H70.6003L71.9013 24.1407H74.2921L71.9736 32.6809H69.466L67.9982 27.3099H67.8925L66.4247 32.6809H63.9226ZM79.2337 32.8477C78.3552 32.8477 77.599 32.6698 76.9652 32.314C76.335 31.9544 75.8494 31.4466 75.5084 30.7905C75.1674 30.1307 74.9969 29.3505 74.9969 28.4497C74.9969 27.5712 75.1674 26.8002 75.5084 26.1367C75.8494 25.4732 76.3294 24.9562 76.9485 24.5855C77.5712 24.2148 78.3014 24.0295 79.1391 24.0295C79.7026 24.0295 80.2271 24.1203 80.7126 24.3019C81.2019 24.4798 81.6282 24.7486 81.9914 25.1081C82.3584 25.4677 82.6438 25.9199 82.8477 26.4648C83.0516 27.006 83.1535 27.6398 83.1535 28.3663V29.0169H75.9421V27.549H80.9239C80.9239 27.208 80.8498 26.9059 80.7015 26.6427C80.5532 26.3795 80.3475 26.1738 80.0843 26.0255C79.8249 25.8736 79.5228 25.7976 79.1781 25.7976C78.8185 25.7976 78.4997 25.881 78.2217 26.0478C77.9474 26.2109 77.7324 26.4314 77.5768 26.7094C77.4211 26.9837 77.3414 27.2895 77.3377 27.6268V29.0224C77.3377 29.445 77.4155 29.8101 77.5712 30.1177C77.7306 30.4254 77.9548 30.6626 78.244 30.8294C78.5331 30.9962 78.876 31.0796 79.2726 31.0796C79.5358 31.0796 79.7767 31.0426 79.9954 30.9684C80.2141 30.8943 80.4013 30.7831 80.557 30.6348C80.7126 30.4866 80.8312 30.3049 80.9128 30.0899L83.1035 30.2345C82.9923 30.7609 82.7643 31.2205 82.4196 31.6134C82.0786 32.0026 81.6375 32.3066 81.0963 32.5253C80.5588 32.7402 79.9379 32.8477 79.2337 32.8477ZM84.6992 32.6809V24.1407H86.9955V25.6308H87.0845C87.2402 25.1007 87.5015 24.7004 87.8684 24.4298C88.2354 24.1555 88.658 24.0184 89.1361 24.0184C89.2547 24.0184 89.3826 24.0258 89.5198 24.0406C89.6569 24.0554 89.7774 24.0758 89.8812 24.1018V26.2035C89.77 26.1701 89.6162 26.1404 89.4197 26.1145C89.2232 26.0886 89.0435 26.0756 88.8804 26.0756C88.5319 26.0756 88.2206 26.1516 87.9463 26.3035C87.6757 26.4518 87.4607 26.6594 87.3013 26.9263C87.1456 27.1932 87.0678 27.5008 87.0678 27.8492V32.6809H84.6992Z" fill="#032B3A"/>
<path d="M181.819 26.2585L178.366 22.8055C178.243 22.6866 178.078 22.6209 177.907 22.6224C177.736 22.6238 177.572 22.6924 177.451 22.8134C177.33 22.9344 177.262 23.098 177.26 23.269C177.259 23.4401 177.325 23.6049 177.443 23.7279L180.896 27.181L177.443 30.634C177.325 30.7571 177.259 30.9218 177.26 31.0929C177.262 31.264 177.33 31.4276 177.451 31.5485C177.572 31.6695 177.736 31.7381 177.907 31.7396C178.078 31.7411 178.243 31.6753 178.366 31.5565L181.819 28.1034L185.272 31.5565C185.395 31.6753 185.56 31.7411 185.731 31.7396C185.902 31.7381 186.066 31.6695 186.186 31.5485C186.307 31.4276 186.376 31.264 186.378 31.0929C186.379 30.9218 186.313 30.7571 186.194 30.634L182.741 27.181L186.194 23.7279C186.257 23.6677 186.306 23.5958 186.341 23.5162C186.375 23.4366 186.393 23.351 186.394 23.2643C186.394 23.1777 186.378 23.0918 186.345 23.0116C186.312 22.9315 186.264 22.8586 186.203 22.7974C186.141 22.7361 186.068 22.6877 185.988 22.6549C185.908 22.6221 185.822 22.6056 185.736 22.6063C185.649 22.6071 185.563 22.6251 185.484 22.6593C185.404 22.6934 185.332 22.7431 185.272 22.8055L181.819 26.2585Z" fill="#233D48"/>
</g>
<g clip-path="url(#clip3_3_6136)">
<rect width="185" height="181.076" transform="translate(19 38.9238)" fill="white"/>
<g clip-path="url(#clip4_3_6136)">
<path d="M34.6572 51.9715C34.6572 50.5303 35.8256 49.3619 37.2668 49.3619L158.655 49.3619C160.097 49.3619 161.265 50.5303 161.265 51.9715V51.9715C161.265 53.4127 160.097 54.581 158.655 54.581L37.2668 54.581C35.8256 54.581 34.6572 53.4127 34.6572 51.9715V51.9715Z" fill="black" fill-opacity="0.08"/>
<rect x="34.6572" y="49.3619" width="126.724" height="5.21905" fill="url(#paint0_linear_3_6136)"/>
</g>
<g clip-path="url(#clip5_3_6136)">
<path d="M34.6572 62.4095C34.6572 60.9683 35.8256 59.8 37.2668 59.8L185.733 59.8C187.175 59.8 188.343 60.9684 188.343 62.4096V62.4096C188.343 63.8508 187.175 65.0191 185.733 65.0191L37.2668 65.0191C35.8256 65.0191 34.6572 63.8507 34.6572 62.4095V62.4095Z" fill="black" fill-opacity="0.08"/>
<rect x="34.6572" y="59.8" width="154" height="5.21905" fill="url(#paint1_linear_3_6136)"/>
<rect x="-116.695" y="59.8" width="154" height="5.21905" fill="url(#paint2_linear_3_6136)"/>
</g>
<g clip-path="url(#clip6_3_6136)">
<path d="M34.6572 72.8477C34.6572 71.4065 35.8256 70.2381 37.2668 70.2381L147.678 70.2381C149.119 70.2381 150.287 71.4065 150.287 72.8477V72.8477C150.287 74.2889 149.119 75.4572 147.678 75.4572L37.2668 75.4572C35.8256 75.4572 34.6572 74.2889 34.6572 72.8477V72.8477Z" fill="black" fill-opacity="0.08"/>
<rect x="34.6572" y="70.2381" width="116.152" height="5.21905" fill="url(#paint3_linear_3_6136)"/>
</g>
</g>
</g>
<path d="M18.3476 10.2406C18.3476 6.98602 20.986 4.34762 24.2406 4.34762H204V5.65238H24.2406C21.7066 5.65238 19.6524 7.70662 19.6524 10.2406H18.3476ZM204 220H19H204ZM24.2406 220C20.986 220 18.3476 217.362 18.3476 214.107V10.2406C18.3476 6.98602 20.986 4.34762 24.2406 4.34762V5.65238C21.7066 5.65238 19.6524 7.70662 19.6524 10.2406V214.759C19.6524 217.654 21.7066 220 24.2406 220ZM204 5V220V5Z" fill="#DADFE2" mask="url(#path-2-inside-1_3_6136)"/>
</g>
</g>
<defs>
<filter id="filter0_dd_3_6136" x="11.1714" y="-0.219048" width="200.657" height="230.657" filterUnits="userSpaceOnUse" color-interpolation-filters="sRGB">
<feFlood flood-opacity="0" result="BackgroundImageFix"/>
<feColorMatrix in="SourceAlpha" type="matrix" values="0 0 0 0 0 0 0 0 0 0 0 0 0 0 0 0 0 0 127 0" result="hardAlpha"/>
<feOffset dy="2.60952"/>
<feGaussianBlur stdDeviation="3.91429"/>
<feColorMatrix type="matrix" values="0 0 0 0 0 0 0 0 0 0 0 0 0 0 0 0 0 0 0.05 0"/>
<feBlend mode="normal" in2="BackgroundImageFix" result="effect1_dropShadow_3_6136"/>
<feColorMatrix in="SourceAlpha" type="matrix" values="0 0 0 0 0 0 0 0 0 0 0 0 0 0 0 0 0 0 127 0" result="hardAlpha"/>
<feOffset dy="0.652381"/>
<feGaussianBlur stdDeviation="1.30476"/>
<feColorMatrix type="matrix" values="0 0 0 0 0 0 0 0 0 0 0 0 0 0 0 0 0 0 0.1 0"/>
<feBlend mode="normal" in2="effect1_dropShadow_3_6136" result="effect2_dropShadow_3_6136"/>
<feBlend mode="normal" in="SourceGraphic" in2="effect2_dropShadow_3_6136" result="shape"/>
</filter>
<linearGradient id="paint0_linear_3_6136" x1="161.381" y1="51.9715" x2="34.6572" y2="51.9715" gradientUnits="userSpaceOnUse">
<stop stop-color="white" stop-opacity="0"/>
<stop offset="0.299948" stop-color="white" stop-opacity="0.8"/>
<stop offset="1" stop-color="white" stop-opacity="0"/>
</linearGradient>
<linearGradient id="paint1_linear_3_6136" x1="188.657" y1="62.4095" x2="34.6572" y2="62.4095" gradientUnits="userSpaceOnUse">
<stop stop-color="white" stop-opacity="0"/>
<stop offset="0.299948" stop-color="white" stop-opacity="0.8"/>
<stop offset="1" stop-color="white" stop-opacity="0"/>
</linearGradient>
<linearGradient id="paint2_linear_3_6136" x1="37.3047" y1="62.4095" x2="-116.695" y2="62.4095" gradientUnits="userSpaceOnUse">
<stop stop-color="white" stop-opacity="0"/>
<stop offset="0.299948" stop-color="white" stop-opacity="0.8"/>
<stop offset="1" stop-color="white" stop-opacity="0"/>
</linearGradient>
<linearGradient id="paint3_linear_3_6136" x1="150.81" y1="72.8477" x2="34.6572" y2="72.8477" gradientUnits="userSpaceOnUse">
<stop stop-color="white" stop-opacity="0"/>
<stop offset="0.299948" stop-color="white" stop-opacity="0.8"/>
<stop offset="1" stop-color="white" stop-opacity="0"/>
</linearGradient>
<clipPath id="clip0_3_6136">
<path d="M0 8C0 3.58172 3.58172 0 8 0H216C220.418 0 224 3.58172 224 8V109C224 113.418 220.418 117 216 117H8C3.58172 117 0 113.418 0 109V8Z" fill="white"/>
</clipPath>
<clipPath id="clip1_3_6136">
<path d="M19 10.2406C19 7.34631 21.3463 5 24.2406 5H204V220H24.2406C21.3463 220 19 217.654 19 214.759V10.2406Z" fill="white"/>
</clipPath>
<clipPath id="clip2_3_6136">
<rect width="185" height="33.9238" fill="white" transform="translate(19 5)"/>
</clipPath>
<clipPath id="clip3_3_6136">
<rect width="185" height="181.076" fill="white" transform="translate(19 38.9238)"/>
</clipPath>
<clipPath id="clip4_3_6136">
<path d="M34.6572 51.9715C34.6572 50.5303 35.8256 49.3619 37.2668 49.3619L158.655 49.3619C160.097 49.3619 161.265 50.5303 161.265 51.9715V51.9715C161.265 53.4127 160.097 54.581 158.655 54.581L37.2668 54.581C35.8256 54.581 34.6572 53.4127 34.6572 51.9715V51.9715Z" fill="white"/>
</clipPath>
<clipPath id="clip5_3_6136">
<path d="M34.6572 62.4095C34.6572 60.9683 35.8256 59.8 37.2668 59.8L185.733 59.8C187.175 59.8 188.343 60.9684 188.343 62.4096V62.4096C188.343 63.8508 187.175 65.0191 185.733 65.0191L37.2668 65.0191C35.8256 65.0191 34.6572 63.8507 34.6572 62.4095V62.4095Z" fill="white"/>
</clipPath>
<clipPath id="clip6_3_6136">
<path d="M34.6572 72.8477C34.6572 71.4065 35.8256 70.2381 37.2668 70.2381L147.678 70.2381C149.119 70.2381 150.287 71.4065 150.287 72.8477V72.8477C150.287 74.2889 149.119 75.4572 147.678 75.4572L37.2668 75.4572C35.8256 75.4572 34.6572 74.2889 34.6572 72.8477V72.8477Z" fill="white"/>
</clipPath>
</defs>
</svg>
