<svg width="224" height="117" viewBox="0 0 224 117" fill="none" xmlns="http://www.w3.org/2000/svg">
<path d="M25 43C25 38.5817 28.5817 35 33 35H192C196.418 35 200 38.5817 200 43V74C200 78.4183 196.418 82 192 82H33C28.5817 82 25 78.4183 25 74V43Z" fill="white"/>
<path d="M57 71C75.5309 69.1813 124.274 65.9076 171 67.3626" stroke="#84EA00" stroke-width="3" stroke-linecap="round"/>
<path d="M58.017 65V47.5455H69.7784V50.5881H61.7074V54.7472H69.1733V57.7898H61.7074V61.9574H69.8125V65H58.017ZM72.6442 65V51.9091H76.1044V54.2188H76.2578C76.5305 53.4517 76.9851 52.8466 77.6214 52.4034C78.2578 51.9602 79.0192 51.7386 79.9055 51.7386C80.8033 51.7386 81.5675 51.9631 82.1982 52.4119C82.8288 52.8551 83.2493 53.4574 83.4595 54.2188H83.5959C83.8629 53.4688 84.3459 52.8693 85.0447 52.4205C85.7493 51.9659 86.5817 51.7386 87.5419 51.7386C88.7635 51.7386 89.755 52.1278 90.5163 52.9062C91.2834 53.679 91.6669 54.7756 91.6669 56.196V65H88.0447V56.9119C88.0447 56.1847 87.8516 55.6392 87.4652 55.2756C87.0788 54.9119 86.5959 54.7301 86.0163 54.7301C85.3572 54.7301 84.843 54.9403 84.4737 55.3608C84.1044 55.7756 83.9197 56.3239 83.9197 57.0057V65H80.3999V56.8352C80.3999 56.1932 80.2152 55.6818 79.8459 55.3011C79.4822 54.9205 79.0021 54.7301 78.4055 54.7301C78.0021 54.7301 77.6385 54.8324 77.3146 55.0369C76.9964 55.2358 76.7436 55.517 76.5561 55.8807C76.3686 56.2386 76.2749 56.6591 76.2749 57.142V65H72.6442ZM94.5348 69.9091V51.9091H98.1143V54.108H98.2763C98.4354 53.7557 98.6655 53.3977 98.9666 53.0341C99.2734 52.6648 99.6712 52.358 100.16 52.1136C100.654 51.8636 101.268 51.7386 102.001 51.7386C102.955 51.7386 103.836 51.9886 104.643 52.4886C105.45 52.983 106.094 53.7301 106.577 54.7301C107.06 55.7244 107.302 56.9716 107.302 58.4716C107.302 59.9318 107.066 61.1648 106.594 62.1705C106.129 63.1705 105.492 63.929 104.685 64.446C103.884 64.9574 102.987 65.2131 101.992 65.2131C101.288 65.2131 100.688 65.0966 100.194 64.8636C99.7053 64.6307 99.3047 64.3381 98.9922 63.9858C98.6797 63.6278 98.4411 63.267 98.2763 62.9034H98.1655V69.9091H94.5348ZM98.0888 58.4545C98.0888 59.233 98.1967 59.9119 98.4126 60.4915C98.6286 61.071 98.9411 61.5227 99.3501 61.8466C99.7592 62.1648 100.256 62.3239 100.842 62.3239C101.433 62.3239 101.933 62.1619 102.342 61.8381C102.751 61.5085 103.06 61.054 103.271 60.4744C103.487 59.8892 103.594 59.2159 103.594 58.4545C103.594 57.6989 103.489 57.0341 103.279 56.4602C103.069 55.8864 102.759 55.4375 102.35 55.1136C101.941 54.7898 101.438 54.6278 100.842 54.6278C100.251 54.6278 99.7507 54.7841 99.3416 55.0966C98.9382 55.4091 98.6286 55.8523 98.4126 56.4261C98.1967 57 98.0888 57.6761 98.0888 58.4545ZM113.353 57.4318V65H109.722V47.5455H113.251V54.2188H113.404C113.7 53.446 114.177 52.8409 114.836 52.4034C115.495 51.9602 116.322 51.7386 117.316 51.7386C118.225 51.7386 119.018 51.9375 119.694 52.3352C120.376 52.7273 120.904 53.2926 121.279 54.0312C121.66 54.7642 121.847 55.642 121.842 56.6648V65H118.211V57.3125C118.217 56.5057 118.012 55.8778 117.597 55.429C117.188 54.9801 116.614 54.7557 115.876 54.7557C115.381 54.7557 114.944 54.8608 114.563 55.071C114.188 55.2812 113.893 55.5881 113.677 55.9915C113.467 56.3892 113.359 56.8693 113.353 57.4318ZM128.432 65.2472C127.597 65.2472 126.852 65.1023 126.199 64.8125C125.545 64.517 125.028 64.0824 124.648 63.5085C124.273 62.929 124.085 62.2074 124.085 61.3438C124.085 60.6165 124.219 60.0057 124.486 59.5114C124.753 59.017 125.116 58.6193 125.577 58.3182C126.037 58.017 126.56 57.7898 127.145 57.6364C127.736 57.483 128.355 57.375 129.003 57.3125C129.764 57.233 130.378 57.1591 130.844 57.0909C131.31 57.017 131.648 56.9091 131.858 56.767C132.068 56.625 132.173 56.4148 132.173 56.1364V56.0852C132.173 55.5455 132.003 55.1278 131.662 54.8324C131.327 54.5369 130.849 54.3892 130.23 54.3892C129.577 54.3892 129.057 54.5341 128.67 54.8239C128.284 55.108 128.028 55.4659 127.903 55.8977L124.545 55.625C124.716 54.8295 125.051 54.142 125.551 53.5625C126.051 52.9773 126.696 52.5284 127.486 52.2159C128.281 51.8977 129.202 51.7386 130.247 51.7386C130.974 51.7386 131.67 51.8239 132.335 51.9943C133.006 52.1648 133.599 52.429 134.116 52.7869C134.639 53.1449 135.051 53.6051 135.352 54.1676C135.653 54.7244 135.804 55.392 135.804 56.1705V65H132.361V63.1847H132.259C132.048 63.5938 131.767 63.9545 131.415 64.267C131.062 64.5739 130.639 64.8153 130.145 64.9915C129.651 65.1619 129.08 65.2472 128.432 65.2472ZM129.472 62.7415C130.006 62.7415 130.477 62.6364 130.886 62.4261C131.295 62.2102 131.616 61.9205 131.849 61.5568C132.082 61.1932 132.199 60.7812 132.199 60.321V58.9318C132.085 59.0057 131.929 59.0739 131.73 59.1364C131.537 59.1932 131.318 59.2472 131.074 59.2983C130.83 59.3437 130.585 59.3864 130.341 59.4261C130.097 59.4602 129.875 59.4915 129.676 59.5199C129.25 59.5824 128.878 59.6818 128.56 59.8182C128.241 59.9545 127.994 60.1392 127.818 60.3722C127.642 60.5994 127.554 60.8835 127.554 61.2244C127.554 61.7188 127.733 62.0966 128.091 62.358C128.455 62.6136 128.915 62.7415 129.472 62.7415ZM149.513 55.642L146.189 55.8466C146.132 55.5625 146.01 55.3068 145.822 55.0795C145.635 54.8466 145.388 54.6619 145.081 54.5256C144.78 54.3835 144.419 54.3125 143.999 54.3125C143.436 54.3125 142.962 54.4318 142.575 54.6705C142.189 54.9034 141.996 55.2159 141.996 55.608C141.996 55.9205 142.121 56.1847 142.371 56.4006C142.621 56.6165 143.05 56.7898 143.658 56.9205L146.027 57.3977C147.3 57.6591 148.249 58.0795 148.874 58.6591C149.499 59.2386 149.811 60 149.811 60.9432C149.811 61.8011 149.558 62.554 149.053 63.2017C148.553 63.8494 147.865 64.3551 146.99 64.7188C146.121 65.0767 145.118 65.2557 143.982 65.2557C142.249 65.2557 140.868 64.8949 139.839 64.1733C138.817 63.446 138.217 62.4574 138.041 61.2074L141.612 61.0199C141.72 61.5483 141.982 61.9517 142.396 62.2301C142.811 62.5028 143.342 62.6392 143.99 62.6392C144.626 62.6392 145.138 62.517 145.524 62.2727C145.916 62.0227 146.115 61.7017 146.121 61.3097C146.115 60.9801 145.976 60.7102 145.703 60.5C145.43 60.2841 145.01 60.1193 144.442 60.0057L142.175 59.554C140.896 59.2983 139.945 58.8551 139.32 58.2244C138.7 57.5937 138.391 56.7898 138.391 55.8125C138.391 54.9716 138.618 54.2472 139.072 53.6392C139.533 53.0312 140.178 52.5625 141.007 52.233C141.842 51.9034 142.82 51.7386 143.939 51.7386C145.592 51.7386 146.893 52.0881 147.842 52.7869C148.797 53.4858 149.354 54.4375 149.513 55.642ZM152.097 65V51.9091H155.728V65H152.097ZM153.921 50.2216C153.381 50.2216 152.918 50.0426 152.532 49.6847C152.151 49.321 151.961 48.8864 151.961 48.3807C151.961 47.8807 152.151 47.4517 152.532 47.0938C152.918 46.7301 153.381 46.5483 153.921 46.5483C154.461 46.5483 154.921 46.7301 155.302 47.0938C155.688 47.4517 155.881 47.8807 155.881 48.3807C155.881 48.8864 155.688 49.321 155.302 49.6847C154.921 50.0426 154.461 50.2216 153.921 50.2216ZM169.528 55.642L166.205 55.8466C166.148 55.5625 166.026 55.3068 165.838 55.0795C165.651 54.8466 165.403 54.6619 165.097 54.5256C164.795 54.3835 164.435 54.3125 164.014 54.3125C163.452 54.3125 162.977 54.4318 162.591 54.6705C162.205 54.9034 162.011 55.2159 162.011 55.608C162.011 55.9205 162.136 56.1847 162.386 56.4006C162.636 56.6165 163.065 56.7898 163.673 56.9205L166.043 57.3977C167.315 57.6591 168.264 58.0795 168.889 58.6591C169.514 59.2386 169.827 60 169.827 60.9432C169.827 61.8011 169.574 62.554 169.068 63.2017C168.568 63.8494 167.881 64.3551 167.006 64.7188C166.136 65.0767 165.134 65.2557 163.997 65.2557C162.264 65.2557 160.884 64.8949 159.855 64.1733C158.832 63.446 158.233 62.4574 158.057 61.2074L161.628 61.0199C161.736 61.5483 161.997 61.9517 162.412 62.2301C162.827 62.5028 163.358 62.6392 164.006 62.6392C164.642 62.6392 165.153 62.517 165.54 62.2727C165.932 62.0227 166.131 61.7017 166.136 61.3097C166.131 60.9801 165.991 60.7102 165.719 60.5C165.446 60.2841 165.026 60.1193 164.457 60.0057L162.19 59.554C160.912 59.2983 159.96 58.8551 159.335 58.2244C158.716 57.5937 158.406 56.7898 158.406 55.8125C158.406 54.9716 158.634 54.2472 159.088 53.6392C159.548 53.0312 160.193 52.5625 161.023 52.233C161.858 51.9034 162.835 51.7386 163.955 51.7386C165.608 51.7386 166.909 52.0881 167.858 52.7869C168.813 53.4858 169.369 54.4375 169.528 55.642Z" fill="#032B3A"/>
</svg>
