<svg width="225" height="97" viewBox="0 0 225 97" fill="none" xmlns="http://www.w3.org/2000/svg">
<path d="M40 64C64.0577 62.1813 127.338 58.9076 188 60.3626" stroke="#84EA00" stroke-width="3" stroke-linecap="round"/>
<path d="M39.017 58V40.5455H42.7074V47.7472H50.1989V40.5455H53.8807V58H50.1989V50.7898H42.7074V58H39.017ZM62.821 58.2557C61.4744 58.2557 60.3153 57.983 59.3438 57.4375C58.3778 56.8864 57.6335 56.108 57.1108 55.1023C56.5881 54.0909 56.3267 52.8949 56.3267 51.5142C56.3267 50.1676 56.5881 48.9858 57.1108 47.9688C57.6335 46.9517 58.3693 46.1591 59.3182 45.5909C60.2727 45.0227 61.392 44.7386 62.6761 44.7386C63.5398 44.7386 64.3438 44.8778 65.0881 45.1562C65.8381 45.429 66.4915 45.8409 67.0483 46.392C67.6108 46.9432 68.0483 47.6364 68.3608 48.4716C68.6733 49.3011 68.8295 50.2727 68.8295 51.3864V52.3835H57.7756V50.1335H65.4119C65.4119 49.6108 65.2983 49.1477 65.071 48.7443C64.8438 48.3409 64.5284 48.0256 64.125 47.7983C63.7273 47.5653 63.2642 47.4489 62.7358 47.4489C62.1847 47.4489 61.696 47.5767 61.2699 47.8324C60.8494 48.0824 60.5199 48.4205 60.2812 48.8466C60.0426 49.267 59.9205 49.7358 59.9148 50.2528V52.392C59.9148 53.0398 60.0341 53.5994 60.2727 54.071C60.517 54.5426 60.8608 54.9062 61.304 55.1619C61.7472 55.4176 62.2727 55.5455 62.8807 55.5455C63.2841 55.5455 63.6534 55.4886 63.9886 55.375C64.3239 55.2614 64.6108 55.0909 64.8494 54.8636C65.0881 54.6364 65.2699 54.358 65.3949 54.0284L68.7528 54.25C68.5824 55.0568 68.233 55.7614 67.7045 56.3636C67.1818 56.9602 66.5057 57.4261 65.6761 57.7614C64.8523 58.0909 63.9006 58.2557 62.821 58.2557ZM74.9318 58.2472C74.0966 58.2472 73.3523 58.1023 72.6989 57.8125C72.0455 57.517 71.5284 57.0824 71.1477 56.5085C70.7727 55.929 70.5852 55.2074 70.5852 54.3438C70.5852 53.6165 70.7188 53.0057 70.9858 52.5114C71.2528 52.017 71.6165 51.6193 72.0767 51.3182C72.5369 51.017 73.0597 50.7898 73.6449 50.6364C74.2358 50.483 74.8551 50.375 75.5028 50.3125C76.2642 50.233 76.8778 50.1591 77.3438 50.0909C77.8097 50.017 78.1477 49.9091 78.358 49.767C78.5682 49.625 78.6733 49.4148 78.6733 49.1364V49.0852C78.6733 48.5455 78.5028 48.1278 78.1619 47.8324C77.8267 47.5369 77.3494 47.3892 76.7301 47.3892C76.0767 47.3892 75.5568 47.5341 75.1705 47.8239C74.7841 48.108 74.5284 48.4659 74.4034 48.8977L71.0455 48.625C71.2159 47.8295 71.5511 47.142 72.0511 46.5625C72.5511 45.9773 73.196 45.5284 73.9858 45.2159C74.7813 44.8977 75.7017 44.7386 76.7472 44.7386C77.4744 44.7386 78.1705 44.8239 78.8352 44.9943C79.5057 45.1648 80.0994 45.429 80.6165 45.7869C81.1392 46.1449 81.5511 46.6051 81.8523 47.1676C82.1534 47.7244 82.304 48.392 82.304 49.1705V58H78.8608V56.1847H78.7585C78.5483 56.5938 78.267 56.9545 77.9148 57.267C77.5625 57.5739 77.1392 57.8153 76.6449 57.9915C76.1506 58.1619 75.5795 58.2472 74.9318 58.2472ZM75.9716 55.7415C76.5057 55.7415 76.9773 55.6364 77.3864 55.4261C77.7955 55.2102 78.1165 54.9205 78.3494 54.5568C78.5824 54.1932 78.6989 53.7812 78.6989 53.321V51.9318C78.5852 52.0057 78.429 52.0739 78.2301 52.1364C78.0369 52.1932 77.8182 52.2472 77.5739 52.2983C77.3295 52.3437 77.0852 52.3864 76.8409 52.4261C76.5966 52.4602 76.375 52.4915 76.1761 52.5199C75.75 52.5824 75.3778 52.6818 75.0597 52.8182C74.7415 52.9545 74.4943 53.1392 74.3182 53.3722C74.142 53.5994 74.054 53.8835 74.054 54.2244C74.054 54.7188 74.233 55.0966 74.5909 55.358C74.9545 55.6136 75.4148 55.7415 75.9716 55.7415ZM89.9446 58.2131C88.9503 58.2131 88.0497 57.9574 87.2429 57.446C86.4418 56.929 85.8054 56.1705 85.3338 55.1705C84.8679 54.1648 84.6349 52.9318 84.6349 51.4716C84.6349 49.9716 84.8764 48.7244 85.3594 47.7301C85.8423 46.7301 86.4844 45.983 87.2855 45.4886C88.0923 44.9886 88.9759 44.7386 89.9361 44.7386C90.669 44.7386 91.2798 44.8636 91.7685 45.1136C92.2628 45.358 92.6605 45.6648 92.9616 46.0341C93.2685 46.3977 93.5014 46.7557 93.6605 47.108H93.7713V40.5455H97.3935V58H93.8139V55.9034H93.6605C93.4901 56.267 93.2486 56.6278 92.9361 56.9858C92.6293 57.3381 92.2287 57.6307 91.7344 57.8636C91.2457 58.0966 90.6491 58.2131 89.9446 58.2131ZM91.0952 55.3239C91.6804 55.3239 92.1747 55.1648 92.5781 54.8466C92.9872 54.5227 93.2997 54.071 93.5156 53.4915C93.7372 52.9119 93.848 52.233 93.848 51.4545C93.848 50.6761 93.7401 50 93.5241 49.4261C93.3082 48.8523 92.9957 48.4091 92.5866 48.0966C92.1776 47.7841 91.6804 47.6278 91.0952 47.6278C90.4986 47.6278 89.9957 47.7898 89.5866 48.1136C89.1776 48.4375 88.8679 48.8864 88.6577 49.4602C88.4474 50.0341 88.3423 50.6989 88.3423 51.4545C88.3423 52.2159 88.4474 52.8892 88.6577 53.4744C88.8736 54.054 89.1832 54.5085 89.5866 54.8381C89.9957 55.1619 90.4986 55.3239 91.0952 55.3239ZM100.379 58V44.9091H104.009V58H100.379ZM102.202 43.2216C101.663 43.2216 101.2 43.0426 100.813 42.6847C100.433 42.321 100.242 41.8864 100.242 41.3807C100.242 40.8807 100.433 40.4517 100.813 40.0938C101.2 39.7301 101.663 39.5483 102.202 39.5483C102.742 39.5483 103.202 39.7301 103.583 40.0938C103.969 40.4517 104.163 40.8807 104.163 41.3807C104.163 41.8864 103.969 42.321 103.583 42.6847C103.202 43.0426 102.742 43.2216 102.202 43.2216ZM110.548 50.4318V58H106.918V44.9091H110.378V47.2188H110.531C110.821 46.4574 111.307 45.8551 111.989 45.4119C112.67 44.9631 113.497 44.7386 114.469 44.7386C115.378 44.7386 116.17 44.9375 116.847 45.3352C117.523 45.733 118.048 46.3011 118.423 47.0398C118.798 47.7727 118.986 48.6477 118.986 49.6648V58H115.355V50.3125C115.361 49.5114 115.156 48.8864 114.741 48.4375C114.327 47.983 113.756 47.7557 113.028 47.7557C112.54 47.7557 112.108 47.8608 111.733 48.071C111.364 48.2812 111.074 48.5881 110.864 48.9915C110.659 49.3892 110.554 49.8693 110.548 50.4318ZM127.745 63.1818C126.569 63.1818 125.56 63.0199 124.719 62.696C123.884 62.3778 123.219 61.9432 122.725 61.392C122.231 60.8409 121.91 60.2216 121.762 59.5341L125.12 59.0824C125.222 59.3438 125.384 59.5881 125.606 59.8153C125.827 60.0426 126.12 60.2244 126.484 60.3608C126.853 60.5028 127.302 60.5739 127.83 60.5739C128.62 60.5739 129.271 60.3807 129.782 59.9943C130.299 59.6136 130.558 58.9744 130.558 58.0767V55.6818H130.404C130.245 56.0455 130.006 56.3892 129.688 56.7131C129.37 57.0369 128.961 57.3011 128.461 57.5057C127.961 57.7102 127.364 57.8125 126.671 57.8125C125.688 57.8125 124.793 57.5852 123.987 57.1307C123.185 56.6705 122.546 55.9687 122.069 55.0256C121.597 54.0767 121.362 52.8778 121.362 51.429C121.362 49.946 121.603 48.7074 122.086 47.7131C122.569 46.7187 123.211 45.9744 124.012 45.4801C124.819 44.9858 125.702 44.7386 126.663 44.7386C127.396 44.7386 128.009 44.8636 128.504 45.1136C128.998 45.358 129.396 45.6648 129.697 46.0341C130.004 46.3977 130.239 46.7557 130.404 47.108H130.54V44.9091H134.146V58.1278C134.146 59.2415 133.873 60.1733 133.327 60.9233C132.782 61.6733 132.026 62.2358 131.06 62.6108C130.1 62.9915 128.995 63.1818 127.745 63.1818ZM127.822 55.0852C128.407 55.0852 128.901 54.9403 129.305 54.6506C129.714 54.3551 130.026 53.9347 130.242 53.3892C130.464 52.8381 130.575 52.179 130.575 51.4119C130.575 50.6449 130.467 49.9801 130.251 49.4176C130.035 48.8494 129.722 48.4091 129.313 48.0966C128.904 47.7841 128.407 47.6278 127.822 47.6278C127.225 47.6278 126.722 47.7898 126.313 48.1136C125.904 48.4318 125.594 48.875 125.384 49.4432C125.174 50.0114 125.069 50.6676 125.069 51.4119C125.069 52.1676 125.174 52.821 125.384 53.3722C125.6 53.9176 125.91 54.3409 126.313 54.642C126.722 54.9375 127.225 55.0852 127.822 55.0852ZM141.993 43.5881V40.5455H156.328V43.5881H150.984V58H147.337V43.5881H141.993ZM159.703 58L156.141 44.9091H159.814L161.842 53.7045H161.962L164.075 44.9091H167.68L169.828 53.6534H169.939L171.933 44.9091H175.598L172.044 58H168.2L165.95 49.767H165.788L163.538 58H159.703ZM183.121 58.2557C181.798 58.2557 180.653 57.9744 179.687 57.4119C178.727 56.8437 177.985 56.054 177.462 55.0426C176.94 54.0256 176.678 52.8466 176.678 51.5057C176.678 50.1534 176.94 48.9716 177.462 47.9602C177.985 46.9432 178.727 46.1534 179.687 45.5909C180.653 45.0227 181.798 44.7386 183.121 44.7386C184.445 44.7386 185.587 45.0227 186.548 45.5909C187.513 46.1534 188.258 46.9432 188.781 47.9602C189.303 48.9716 189.565 50.1534 189.565 51.5057C189.565 52.8466 189.303 54.0256 188.781 55.0426C188.258 56.054 187.513 56.8437 186.548 57.4119C185.587 57.9744 184.445 58.2557 183.121 58.2557ZM183.138 55.4432C183.741 55.4432 184.244 55.2727 184.647 54.9318C185.05 54.5852 185.354 54.1136 185.559 53.517C185.769 52.9205 185.874 52.2415 185.874 51.4801C185.874 50.7188 185.769 50.0398 185.559 49.4432C185.354 48.8466 185.05 48.375 184.647 48.0284C184.244 47.6818 183.741 47.5085 183.138 47.5085C182.531 47.5085 182.019 47.6818 181.604 48.0284C181.195 48.375 180.886 48.8466 180.675 49.4432C180.471 50.0398 180.369 50.7188 180.369 51.4801C180.369 52.2415 180.471 52.9205 180.675 53.517C180.886 54.1136 181.195 54.5852 181.604 54.9318C182.019 55.2727 182.531 55.4432 183.138 55.4432Z" fill="#032B3A"/>
</svg>
