<svg width="224" height="117" viewBox="0 0 224 117" fill="none" xmlns="http://www.w3.org/2000/svg">
<path d="M111.279 30.0166C110.618 30.0166 110.082 30.5524 110.082 31.2133V37.1969C110.082 37.8578 110.618 38.3936 111.279 38.3936C111.94 38.3936 112.476 37.8578 112.476 37.1969V31.2133C112.476 30.5524 111.94 30.0166 111.279 30.0166Z" fill="#627A84"/>
<path d="M110.082 41.9838C110.082 41.3228 110.618 40.7871 111.279 40.7871C111.94 40.7871 112.476 41.3228 112.476 41.9838C112.476 42.6447 111.94 43.1805 111.279 43.1805C110.618 43.1805 110.082 42.6447 110.082 41.9838Z" fill="#627A84"/>
<path d="M123.246 36.0002C123.246 42.6094 117.888 47.9674 111.279 47.9674C104.67 47.9674 99.3118 42.6094 99.3118 36.0002C99.3118 29.3909 104.67 24.033 111.279 24.033C117.888 24.033 123.246 29.3909 123.246 36.0002ZM120.853 36.0002C120.853 30.7127 116.566 26.4264 111.279 26.4264C105.992 26.4264 101.705 30.7127 101.705 36.0002C101.705 41.2876 105.992 45.5739 111.279 45.5739C116.566 45.5739 120.853 41.2876 120.853 36.0002Z" fill="#627A84"/>
<path d="M53 68.672C53 64.7064 56.2147 61.4917 60.1803 61.4917H163.098C167.064 61.4917 170.279 64.7064 170.279 68.672V68.672C170.279 72.6376 167.064 75.8524 163.098 75.8524H60.1803C56.2147 75.8524 53 72.6376 53 68.672V68.672Z" fill="#DADFE2"/>
<path d="M76.9343 90.8116C76.9343 88.4983 78.8096 86.623 81.1228 86.623H142.156C144.469 86.623 146.344 88.4983 146.344 90.8116V90.8116C146.344 93.1248 144.469 95.0001 142.156 95.0001H81.1228C78.8096 95.0001 76.9343 93.1248 76.9343 90.8116V90.8116Z" fill="#A9B7BC"/>
</svg>
