<svg width="224" height="117" viewBox="0 0 224 117" fill="none" xmlns="http://www.w3.org/2000/svg">
<path d="M112.459 18.0274C112.02 18.0274 111.665 18.3831 111.665 18.8219V22.7944C111.665 23.2332 112.02 23.5889 112.459 23.5889C112.898 23.5889 113.254 23.2332 113.254 22.7944V18.8219C113.254 18.3831 112.898 18.0274 112.459 18.0274Z" fill="#032B3A"/>
<path d="M111.665 25.9724C111.665 25.5336 112.02 25.1779 112.459 25.1779C112.898 25.1779 113.254 25.5336 113.254 25.9724C113.254 26.4112 112.898 26.7669 112.459 26.7669C112.02 26.7669 111.665 26.4112 111.665 25.9724Z" fill="#032B3A"/>
<path d="M120.404 21.9999C120.404 26.3878 116.847 29.9449 112.459 29.9449C108.071 29.9449 104.514 26.3878 104.514 21.9999C104.514 17.612 108.071 14.0549 112.459 14.0549C116.847 14.0549 120.404 17.612 120.404 21.9999ZM118.815 21.9999C118.815 18.4896 115.97 15.6439 112.459 15.6439C108.949 15.6439 106.103 18.4896 106.103 21.9999C106.103 25.5103 108.949 28.3559 112.459 28.3559C115.97 28.3559 118.815 25.5103 118.815 21.9999Z" fill="#032B3A"/>
<path d="M79.143 50.6438V41.9763H84.7803V43.2925H80.7131V45.6456H84.4882V46.9618H80.7131V49.3276H84.8141V50.6438H79.143ZM86.3144 50.6438V44.1432H87.7788V45.2478H87.8549C87.9904 44.8753 88.2147 44.5847 88.5278 44.3759C88.841 44.1643 89.2149 44.0585 89.6494 44.0585C90.0895 44.0585 90.4605 44.1657 90.7624 44.3802C91.0672 44.5918 91.2816 44.881 91.4057 45.2478H91.4734C91.6173 44.8866 91.86 44.5988 92.2014 44.3844C92.5456 44.1672 92.9533 44.0585 93.4245 44.0585C94.0226 44.0585 94.5107 44.2476 94.8888 44.6256C95.2669 45.0037 95.4559 45.5553 95.4559 46.2804V50.6438H93.9196V46.5174C93.9196 46.114 93.8124 45.8191 93.598 45.6329C93.3836 45.4439 93.1212 45.3493 92.8108 45.3493C92.4412 45.3493 92.152 45.465 91.9432 45.6964C91.7373 45.9249 91.6343 46.2226 91.6343 46.5894V50.6438H90.1318V46.4539C90.1318 46.1182 90.0303 45.8502 89.8271 45.6498C89.6268 45.4495 89.3644 45.3493 89.0399 45.3493C88.8199 45.3493 88.6195 45.4058 88.439 45.5186C88.2584 45.6287 88.1145 45.7853 88.0073 45.9884C87.9001 46.1887 87.8465 46.4229 87.8465 46.6909V50.6438H86.3144ZM97.0102 53.0815V44.1432H98.5168V45.2181H98.6057C98.6847 45.0601 98.7962 44.8923 98.9401 44.7145C99.084 44.5339 99.2786 44.3802 99.5241 44.2532C99.7696 44.1234 100.083 44.0585 100.464 44.0585C100.966 44.0585 101.419 44.1869 101.822 44.4437C102.228 44.6976 102.55 45.0743 102.787 45.5737C103.027 46.0702 103.147 46.6797 103.147 47.402C103.147 48.1158 103.03 48.7224 102.796 49.2218C102.561 49.7212 102.243 50.1021 101.839 50.3645C101.436 50.6269 100.979 50.7581 100.468 50.7581C100.095 50.7581 99.7865 50.696 99.541 50.5719C99.2956 50.4477 99.0981 50.2982 98.9485 50.1232C98.8018 49.9455 98.6875 49.7776 98.6057 49.6196H98.5422V53.0815H97.0102ZM98.5126 47.3935C98.5126 47.8139 98.5719 48.1821 98.6904 48.4981C98.8117 48.8141 98.9852 49.061 99.2109 49.2387C99.4395 49.4136 99.716 49.5011 100.04 49.5011C100.379 49.5011 100.663 49.4108 100.891 49.2303C101.12 49.0469 101.292 48.7972 101.407 48.4812C101.526 48.1623 101.585 47.7998 101.585 47.3935C101.585 46.99 101.527 46.6317 101.412 46.3185C101.296 46.0053 101.124 45.7599 100.895 45.5821C100.667 45.4044 100.382 45.3155 100.04 45.3155C99.7131 45.3155 99.4352 45.4015 99.2067 45.5737C98.9782 45.7458 98.8046 45.987 98.6861 46.2974C98.5705 46.6077 98.5126 46.9731 98.5126 47.3935ZM107.705 44.1432V45.3282H103.968V44.1432H107.705ZM104.89 42.5857H106.423V48.6885C106.423 48.8945 106.454 49.0525 106.516 49.1625C106.581 49.2698 106.665 49.3431 106.77 49.3826C106.874 49.4221 106.99 49.4419 107.117 49.4419C107.213 49.4419 107.3 49.4348 107.379 49.4207C107.461 49.4066 107.523 49.3939 107.565 49.3826L107.823 50.5803C107.742 50.6085 107.624 50.6396 107.472 50.6734C107.323 50.7073 107.139 50.727 106.922 50.7327C106.538 50.744 106.193 50.6861 105.885 50.5592C105.578 50.4294 105.333 50.229 105.153 49.9582C104.975 49.6873 104.888 49.3488 104.89 48.9425V42.5857ZM109.938 53.0815C109.73 53.0815 109.536 53.0646 109.359 53.0307C109.184 52.9997 109.044 52.963 108.94 52.9207L109.295 51.7272C109.518 51.7921 109.717 51.8232 109.892 51.8203C110.067 51.8175 110.221 51.7625 110.353 51.6553C110.489 51.5509 110.603 51.376 110.696 51.1305L110.827 50.7792L108.47 44.1432H110.095L111.593 49.0525H111.661L113.163 44.1432H114.793L112.19 51.431C112.069 51.7752 111.908 52.07 111.707 52.3155C111.507 52.5638 111.262 52.7528 110.971 52.8826C110.683 53.0152 110.339 53.0815 109.938 53.0815ZM120.631 44.359C120.592 43.9894 120.425 43.7016 120.132 43.4957C119.841 43.2897 119.463 43.1867 118.997 43.1867C118.67 43.1867 118.389 43.2361 118.155 43.3348C117.921 43.4336 117.742 43.5676 117.618 43.7369C117.494 43.9062 117.43 44.0994 117.427 44.3167C117.427 44.4973 117.468 44.6539 117.55 44.7865C117.635 44.9191 117.749 45.0319 117.893 45.125C118.037 45.2153 118.196 45.2915 118.371 45.3536C118.546 45.4157 118.722 45.4678 118.9 45.5102L119.713 45.7133C120.04 45.7895 120.355 45.8925 120.656 46.0223C120.961 46.152 121.233 46.3157 121.473 46.5132C121.716 46.7107 121.908 46.9491 122.049 47.2284C122.19 47.5078 122.26 47.835 122.26 48.2103C122.26 48.7182 122.131 49.1654 121.871 49.5519C121.611 49.9356 121.236 50.2361 120.745 50.4534C120.257 50.6678 119.666 50.775 118.972 50.775C118.298 50.775 117.712 50.6706 117.216 50.4618C116.722 50.253 116.335 49.9483 116.056 49.5477C115.78 49.147 115.63 48.6589 115.607 48.0833H117.152C117.175 48.3852 117.268 48.6363 117.431 48.8367C117.595 49.037 117.808 49.1865 118.071 49.2853C118.336 49.384 118.632 49.4334 118.959 49.4334C119.301 49.4334 119.6 49.3826 119.857 49.281C120.116 49.1766 120.319 49.0328 120.466 48.8494C120.613 48.6631 120.687 48.4459 120.69 48.1976C120.687 47.9719 120.621 47.7857 120.491 47.639C120.362 47.4894 120.18 47.3653 119.945 47.2665C119.714 47.1649 119.443 47.0747 119.133 46.9957L118.147 46.7417C117.433 46.5583 116.869 46.2804 116.454 45.908C116.042 45.5327 115.836 45.0348 115.836 44.414C115.836 43.9034 115.974 43.4562 116.251 43.0724C116.53 42.6887 116.91 42.3911 117.389 42.1794C117.869 41.965 118.412 41.8578 119.019 41.8578C119.634 41.8578 120.173 41.965 120.635 42.1794C121.101 42.3911 121.466 42.6859 121.731 43.064C121.997 43.4392 122.133 43.8709 122.142 44.359H120.631ZM126.839 44.1432V45.3282H123.102V44.1432H126.839ZM124.024 42.5857H125.556V48.6885C125.556 48.8945 125.587 49.0525 125.649 49.1625C125.714 49.2698 125.799 49.3431 125.903 49.3826C126.008 49.4221 126.123 49.4419 126.25 49.4419C126.346 49.4419 126.434 49.4348 126.513 49.4207C126.595 49.4066 126.657 49.3939 126.699 49.3826L126.957 50.5803C126.875 50.6085 126.758 50.6396 126.606 50.6734C126.456 50.7073 126.273 50.727 126.056 50.7327C125.672 50.744 125.326 50.6861 125.019 50.5592C124.711 50.4294 124.467 50.229 124.287 49.9582C124.109 49.6873 124.021 49.3488 124.024 48.9425V42.5857ZM129.99 50.775C129.579 50.775 129.208 50.7016 128.877 50.5549C128.55 50.4054 128.291 50.1853 128.099 49.8947C127.91 49.6041 127.815 49.2458 127.815 48.8197C127.815 48.4529 127.883 48.1496 128.018 47.9098C128.154 47.67 128.339 47.4781 128.573 47.3342C128.807 47.1903 129.071 47.0817 129.364 47.0084C129.66 46.9322 129.966 46.8772 130.282 46.8433C130.663 46.8038 130.972 46.7685 131.209 46.7375C131.446 46.7036 131.618 46.6529 131.726 46.5851C131.836 46.5146 131.891 46.406 131.891 46.2593V46.2339C131.891 45.915 131.796 45.6682 131.607 45.4932C131.418 45.3183 131.146 45.2308 130.79 45.2308C130.415 45.2308 130.117 45.3127 129.897 45.4763C129.68 45.64 129.533 45.8332 129.457 46.0561L128.027 45.853C128.14 45.458 128.326 45.1279 128.585 44.8626C128.845 44.5946 129.162 44.3943 129.538 44.2617C129.913 44.1262 130.328 44.0585 130.782 44.0585C131.095 44.0585 131.407 44.0952 131.717 44.1686C132.028 44.2419 132.311 44.3632 132.568 44.5325C132.825 44.699 133.031 44.9261 133.186 45.2139C133.344 45.5017 133.423 45.8614 133.423 46.2931V50.6438H131.95V49.7508H131.899C131.806 49.9314 131.675 50.1007 131.506 50.2587C131.339 50.4139 131.129 50.5394 130.875 50.6353C130.624 50.7284 130.329 50.775 129.99 50.775ZM130.388 49.6492C130.696 49.6492 130.962 49.5886 131.188 49.4673C131.414 49.3431 131.587 49.1795 131.709 48.9763C131.833 48.7732 131.895 48.5517 131.895 48.3119V47.5458C131.847 47.5853 131.765 47.622 131.649 47.6559C131.537 47.6897 131.41 47.7194 131.269 47.7448C131.128 47.7702 130.988 47.7927 130.85 47.8125C130.711 47.8322 130.591 47.8492 130.49 47.8633C130.261 47.8943 130.057 47.9451 129.876 48.0156C129.696 48.0862 129.553 48.1849 129.449 48.3119C129.344 48.436 129.292 48.5968 129.292 48.7943C129.292 49.0765 129.395 49.2895 129.601 49.4334C129.807 49.5773 130.069 49.6492 130.388 49.6492ZM138.209 44.1432V45.3282H134.472V44.1432H138.209ZM135.395 42.5857H136.927V48.6885C136.927 48.8945 136.958 49.0525 137.02 49.1625C137.085 49.2698 137.17 49.3431 137.274 49.3826C137.378 49.4221 137.494 49.4419 137.621 49.4419C137.717 49.4419 137.804 49.4348 137.883 49.4207C137.965 49.4066 138.027 49.3939 138.07 49.3826L138.328 50.5803C138.246 50.6085 138.129 50.6396 137.977 50.6734C137.827 50.7073 137.644 50.727 137.426 50.7327C137.043 50.744 136.697 50.6861 136.39 50.5592C136.082 50.4294 135.838 50.229 135.657 49.9582C135.48 49.6873 135.392 49.3488 135.395 48.9425V42.5857ZM142.299 50.7708C141.647 50.7708 141.084 50.6353 140.61 50.3645C140.139 50.0908 139.776 49.7043 139.522 49.2049C139.268 48.7026 139.141 48.1115 139.141 47.4316C139.141 46.7629 139.268 46.176 139.522 45.671C139.779 45.1631 140.137 44.7681 140.597 44.486C141.057 44.201 141.598 44.0585 142.218 44.0585C142.619 44.0585 142.997 44.1234 143.353 44.2532C143.711 44.3802 144.027 44.5777 144.301 44.8457C144.577 45.1138 144.794 45.4552 144.952 45.8699C145.11 46.2818 145.189 46.7728 145.189 47.3427V47.8125H139.861V46.7798H143.721C143.718 46.4864 143.654 46.2254 143.53 45.9969C143.406 45.7655 143.233 45.5835 143.01 45.4509C142.79 45.3183 142.533 45.252 142.239 45.252C141.926 45.252 141.651 45.3282 141.414 45.4805C141.177 45.6301 140.992 45.8276 140.86 46.073C140.73 46.3157 140.664 46.5823 140.661 46.8729V47.7744C140.661 48.1525 140.73 48.4769 140.868 48.7478C141.006 49.0158 141.2 49.2218 141.448 49.3657C141.696 49.5068 141.987 49.5773 142.32 49.5773C142.543 49.5773 142.744 49.5463 142.925 49.4842C143.106 49.4193 143.262 49.3248 143.395 49.2006C143.527 49.0765 143.628 48.9227 143.695 48.7393L145.126 48.9001C145.036 49.2782 144.863 49.6083 144.609 49.8905C144.358 50.1698 144.037 50.387 143.645 50.5422C143.252 50.6946 142.804 50.7708 142.299 50.7708Z" fill="#032B3A"/>
<path d="M70 63.7808C70 62.4 71.1193 61.2808 72.5 61.2808H151.5C152.881 61.2808 154 62.4 154 63.7808V63.7808C154 65.1615 152.881 66.2808 151.5 66.2808H72.5C71.1193 66.2808 70 65.1615 70 63.7808V63.7808Z" fill="#DADFE2"/>
<path d="M78 71.7808C78 70.4 79.1193 69.2808 80.5 69.2808H143.5C144.881 69.2808 146 70.4 146 71.7808V71.7808C146 73.1615 144.881 74.2808 143.5 74.2808H80.5C79.1193 74.2808 78 73.1615 78 71.7808V71.7808Z" fill="#DADFE2"/>
<path d="M79 88.5547C79 85.9219 81.1343 83.7876 83.7671 83.7876H140.973C143.605 83.7876 145.74 85.9219 145.74 88.5547V94.5136C145.74 97.1464 143.605 99.2807 140.973 99.2807H83.7671C81.1343 99.2807 79 97.1464 79 94.5136V88.5547Z" fill="#388523"/>
</svg>
