<svg width="224" height="117" viewBox="0 0 224 117" fill="none" xmlns="http://www.w3.org/2000/svg">
<rect x="22" y="24.1394" width="179" height="68.7213" rx="10" fill="#FAECEA"/>
<path d="M56.0002 52.156C55.3392 52.156 54.8035 52.6918 54.8035 53.3527V59.3363C54.8035 59.9972 55.3392 60.533 56.0002 60.533C56.6611 60.533 57.1969 59.9972 57.1969 59.3363V53.3527C57.1969 52.6918 56.6611 52.156 56.0002 52.156Z" fill="#D24232"/>
<path d="M54.8035 64.1232C54.8035 63.4622 55.3392 62.9265 56.0002 62.9265C56.6611 62.9265 57.1969 63.4622 57.1969 64.1232C57.1969 64.7841 56.6611 65.3199 56.0002 65.3199C55.3392 65.3199 54.8035 64.7841 54.8035 64.1232Z" fill="#D24232"/>
<path d="M67.9674 58.1396C67.9674 64.7488 62.6094 70.1068 56.0002 70.1068C49.3909 70.1068 44.033 64.7488 44.033 58.1396C44.033 51.5303 49.3909 46.1724 56.0002 46.1724C62.6094 46.1724 67.9674 51.5303 67.9674 58.1396ZM65.5739 58.1396C65.5739 52.8521 61.2876 48.5658 56.0002 48.5658C50.7127 48.5658 46.4264 52.8521 46.4264 58.1396C46.4264 63.4271 50.7127 67.7133 56.0002 67.7133C61.2876 67.7133 65.5739 63.4271 65.5739 58.1396Z" fill="#D24232"/>
<path d="M81.4917 51.3197C81.4917 47.3541 84.7064 44.1394 88.672 44.1394H173.82C177.785 44.1394 181 47.3541 181 51.3197V51.3197C181 55.2853 177.785 58.5001 173.82 58.5001H88.672C84.7064 58.5001 81.4917 55.2853 81.4917 51.3197V51.3197Z" fill="#D24232"/>
<path d="M81.4917 67.6885C81.4917 65.3753 83.367 63.5 85.6802 63.5H146.713C149.026 63.5 150.902 65.3753 150.902 67.6885V67.6885C150.902 70.0018 149.026 71.877 146.713 71.877H85.6802C83.367 71.877 81.4917 70.0018 81.4917 67.6885V67.6885Z" fill="#7A0C00"/>
</svg>
