<svg width="224" height="117" viewBox="0 0 224 117" fill="none" xmlns="http://www.w3.org/2000/svg">
<g clip-path="url(#clip0_1346_70105)">
<path d="M35 47C35 42.5817 38.5817 39 43 39H182C186.418 39 190 42.5817 190 47V69C190 73.4183 186.418 77 182 77H43C38.5817 77 35 73.4183 35 69V47Z" fill="#F1F0E9"/>
<path d="M52.9038 53.496L53.5518 54.528L47.9038 57.992L53.5518 61.488L52.8318 62.472L46.7518 58.672V57.296L52.9038 53.496ZM58.3375 53.12V56.832H62.4175V57.976H58.3375V61.888H63.3455V63H56.9455V51.984H63.2015L63.0415 53.12H58.3375ZM73.1153 59.952C73.1153 60.5813 72.9579 61.1413 72.6433 61.632C72.3286 62.1173 71.8726 62.4987 71.2753 62.776C70.6779 63.048 69.9499 63.184 69.0913 63.184C68.2859 63.184 67.5553 63.0613 66.8993 62.816C66.2486 62.5707 65.6913 62.224 65.2273 61.776L66.0513 60.848C66.4353 61.2053 66.8753 61.4907 67.3713 61.704C67.8673 61.912 68.4486 62.016 69.1153 62.016C69.5633 62.016 69.9819 61.944 70.3713 61.8C70.7606 61.6507 71.0753 61.4267 71.3153 61.128C71.5553 60.824 71.6753 60.44 71.6753 59.976C71.6753 59.6187 71.6059 59.3147 71.4673 59.064C71.3286 58.8133 71.0833 58.592 70.7313 58.4C70.3793 58.2027 69.8886 58.0107 69.2593 57.824C68.5339 57.6107 67.9046 57.3707 67.3713 57.104C66.8433 56.832 66.4326 56.4987 66.1393 56.104C65.8513 55.7093 65.7072 55.2213 65.7072 54.64C65.7072 54.0907 65.8593 53.6027 66.1633 53.176C66.4673 52.7493 66.8859 52.416 67.4193 52.176C67.9579 51.9307 68.5766 51.808 69.2753 51.808C70.0379 51.808 70.6993 51.9173 71.2593 52.136C71.8246 52.3493 72.3366 52.6587 72.7952 53.064L71.9793 53.968C71.5846 53.616 71.1606 53.3627 70.7073 53.208C70.2539 53.048 69.7926 52.968 69.3233 52.968C68.9233 52.968 68.5553 53.0293 68.2193 53.152C67.8886 53.2693 67.6219 53.448 67.4193 53.688C67.2219 53.9227 67.1233 54.224 67.1233 54.592C67.1233 54.9067 67.2086 55.1787 67.3793 55.408C67.5499 55.6373 67.8379 55.848 68.2433 56.04C68.6486 56.2267 69.2006 56.424 69.8993 56.632C70.4699 56.7973 70.9979 57.0053 71.4833 57.256C71.9739 57.5013 72.3686 57.8373 72.6673 58.264C72.9659 58.6853 73.1153 59.248 73.1153 59.952ZM76.293 63V51.984H77.685V61.76H82.709L82.549 63H76.293ZM89.5908 54.576V61.936H91.9668V63H85.6468V61.936H88.2468V55.64H85.7268V54.576H89.5908ZM88.5188 50.632C88.8174 50.632 89.0548 50.7227 89.2308 50.904C89.4121 51.0853 89.5028 51.3067 89.5028 51.568C89.5028 51.84 89.4121 52.0693 89.2308 52.256C89.0548 52.4373 88.8174 52.528 88.5188 52.528C88.2361 52.528 88.0041 52.4373 87.8228 52.256C87.6414 52.0693 87.5508 51.84 87.5508 51.568C87.5508 51.3067 87.6414 51.0853 87.8228 50.904C88.0041 50.7227 88.2361 50.632 88.5188 50.632ZM94.9205 63V54.576H96.0645L96.1685 55.744C96.5098 55.312 96.9365 54.9813 97.4485 54.752C97.9658 54.5173 98.4672 54.4 98.9525 54.4C99.7792 54.4 100.379 54.6187 100.753 55.056C101.131 55.4933 101.321 56.1013 101.321 56.88V63H99.9765V57.872C99.9765 57.296 99.9445 56.832 99.8805 56.48C99.8165 56.1227 99.6832 55.864 99.4805 55.704C99.2778 55.5387 98.9632 55.456 98.5365 55.456C98.2058 55.456 97.8938 55.528 97.6005 55.672C97.3125 55.816 97.0538 55.9973 96.8245 56.216C96.6005 56.4293 96.4138 56.6453 96.2645 56.864V63H94.9205ZM111.202 62.576C110.914 62.768 110.565 62.9173 110.154 63.024C109.744 63.1307 109.341 63.184 108.946 63.184C108.04 63.184 107.341 62.9467 106.85 62.472C106.36 61.9973 106.114 61.3867 106.114 60.64V55.616H104.178V54.576H106.114V52.664L107.458 52.504V54.576H110.37L110.21 55.616H107.458V60.624C107.458 61.0933 107.581 61.4507 107.826 61.696C108.077 61.9413 108.49 62.064 109.066 62.064C109.381 62.064 109.672 62.0267 109.938 61.952C110.205 61.8773 110.453 61.7813 110.682 61.664L111.202 62.576ZM118.228 51.808C118.948 51.808 119.551 51.8987 120.036 52.08C120.521 52.2613 120.983 52.528 121.42 52.88L120.644 53.784C120.297 53.4907 119.929 53.2827 119.54 53.16C119.156 53.032 118.753 52.968 118.332 52.968C117.729 52.968 117.172 53.112 116.66 53.4C116.148 53.6827 115.735 54.1547 115.42 54.816C115.111 55.472 114.956 56.3627 114.956 57.488C114.956 58.5813 115.103 59.4587 115.396 60.12C115.695 60.7813 116.097 61.2587 116.604 61.552C117.111 61.8453 117.676 61.992 118.3 61.992C118.919 61.992 119.425 61.8987 119.82 61.712C120.22 61.5253 120.567 61.312 120.86 61.072L121.58 61.984C121.244 62.3093 120.807 62.592 120.268 62.832C119.729 63.0667 119.068 63.184 118.284 63.184C117.393 63.184 116.585 62.9653 115.86 62.528C115.14 62.0907 114.569 61.4507 114.148 60.608C113.727 59.76 113.516 58.72 113.516 57.488C113.516 56.2507 113.729 55.2107 114.156 54.368C114.588 53.5253 115.161 52.888 115.876 52.456C116.596 52.024 117.38 51.808 118.228 51.808ZM126.91 54.4C127.704 54.4 128.368 54.5813 128.902 54.944C129.44 55.3013 129.843 55.808 130.11 56.464C130.382 57.12 130.518 57.8933 130.518 58.784C130.518 59.6427 130.379 60.4027 130.102 61.064C129.824 61.7253 129.416 62.2453 128.878 62.624C128.344 62.9973 127.683 63.184 126.894 63.184C126.104 63.184 125.44 63.0027 124.902 62.64C124.363 62.2773 123.955 61.768 123.678 61.112C123.406 60.4507 123.27 59.68 123.27 58.8C123.27 57.9307 123.408 57.1653 123.686 56.504C123.963 55.8427 124.371 55.328 124.91 54.96C125.454 54.5867 126.12 54.4 126.91 54.4ZM126.91 55.496C126.184 55.496 125.635 55.7653 125.262 56.304C124.894 56.8373 124.71 57.6693 124.71 58.8C124.71 59.9093 124.891 60.7333 125.254 61.272C125.622 61.8107 126.168 62.08 126.894 62.08C127.619 62.08 128.163 61.8107 128.526 61.272C128.894 60.7333 129.078 59.904 129.078 58.784C129.078 57.664 128.896 56.8373 128.534 56.304C128.171 55.7653 127.63 55.496 126.91 55.496ZM133.296 63V54.576H134.44L134.544 55.744C134.885 55.312 135.312 54.9813 135.824 54.752C136.341 54.5173 136.842 54.4 137.328 54.4C138.154 54.4 138.754 54.6187 139.128 55.056C139.506 55.4933 139.696 56.1013 139.696 56.88V63H138.352V57.872C138.352 57.296 138.32 56.832 138.256 56.48C138.192 56.1227 138.058 55.864 137.856 55.704C137.653 55.5387 137.338 55.456 136.912 55.456C136.581 55.456 136.269 55.528 135.976 55.672C135.688 55.816 135.429 55.9973 135.2 56.216C134.976 56.4293 134.789 56.6453 134.64 56.864V63H133.296ZM147.865 51.016C148.319 51.016 148.729 51.056 149.097 51.136C149.465 51.216 149.815 51.328 150.145 51.472L149.713 52.472C149.441 52.3547 149.153 52.2667 148.849 52.208C148.545 52.1493 148.231 52.12 147.905 52.12C147.319 52.12 146.876 52.2347 146.577 52.464C146.284 52.6933 146.137 53.0453 146.137 53.52V55.232H148.993L148.849 56.288H146.137V63H144.793V56.288H142.785V55.232H144.793V53.552C144.793 53.0293 144.927 52.5787 145.193 52.2C145.465 51.8213 145.833 51.5307 146.297 51.328C146.761 51.12 147.284 51.016 147.865 51.016ZM156.747 55.232V61.936H159.123V63H152.803V61.936H155.403V56.288H152.883V55.232H156.747ZM155.675 51.216C155.974 51.216 156.211 51.3067 156.387 51.488C156.568 51.6693 156.659 51.8907 156.659 52.152C156.659 52.424 156.568 52.6533 156.387 52.84C156.211 53.0213 155.974 53.112 155.675 53.112C155.392 53.112 155.16 53.0213 154.979 52.84C154.798 52.6533 154.707 52.424 154.707 52.152C154.707 51.8907 154.798 51.6693 154.979 51.488C155.16 51.3067 155.392 51.216 155.675 51.216ZM168.925 53.68L169.341 54.944C168.983 55.056 168.602 55.1253 168.197 55.152C167.791 55.1787 167.351 55.192 166.877 55.192C167.362 55.416 167.727 55.7067 167.973 56.064C168.218 56.416 168.341 56.832 168.341 57.312C168.341 57.8667 168.215 58.36 167.965 58.792C167.714 59.224 167.351 59.5627 166.877 59.808C166.407 60.0533 165.839 60.176 165.173 60.176C164.89 60.176 164.653 60.1627 164.461 60.136C164.274 60.1093 164.093 60.0693 163.917 60.016C163.789 60.1013 163.682 60.2187 163.597 60.368C163.517 60.5173 163.477 60.672 163.477 60.832C163.477 61.0347 163.557 61.2027 163.717 61.336C163.877 61.4693 164.173 61.536 164.605 61.536H166.125C166.69 61.536 167.197 61.6373 167.645 61.84C168.098 62.0427 168.453 62.3147 168.709 62.656C168.97 62.9973 169.101 63.3867 169.101 63.824C169.101 64.6507 168.749 65.2853 168.045 65.728C167.346 66.1707 166.357 66.392 165.077 66.392C164.181 66.392 163.474 66.2987 162.957 66.112C162.439 65.9307 162.069 65.6507 161.845 65.272C161.626 64.8987 161.517 64.4267 161.517 63.856H162.733C162.733 64.1813 162.797 64.4507 162.925 64.664C163.053 64.8773 163.285 65.0347 163.621 65.136C163.957 65.2427 164.439 65.296 165.069 65.296C165.687 65.296 166.191 65.2427 166.581 65.136C166.975 65.0347 167.266 64.88 167.453 64.672C167.645 64.4693 167.741 64.216 167.741 63.912C167.741 63.512 167.559 63.2107 167.197 63.008C166.834 62.8053 166.381 62.704 165.837 62.704H164.333C163.607 62.704 163.071 62.544 162.725 62.224C162.383 61.904 162.213 61.536 162.213 61.12C162.213 60.848 162.29 60.584 162.445 60.328C162.605 60.072 162.837 59.8453 163.141 59.648C162.655 59.392 162.298 59.0747 162.069 58.696C161.839 58.3173 161.725 57.8587 161.725 57.32C161.725 56.7493 161.866 56.2453 162.149 55.808C162.431 55.3653 162.826 55.0187 163.333 54.768C163.839 54.5173 164.423 54.392 165.085 54.392C165.794 54.3867 166.37 54.3573 166.813 54.304C167.255 54.2453 167.634 54.1627 167.949 54.056C168.269 53.9493 168.594 53.824 168.925 53.68ZM165.085 55.376C164.407 55.376 163.906 55.56 163.581 55.928C163.261 56.2907 163.101 56.7547 163.101 57.32C163.101 57.8907 163.266 58.36 163.597 58.728C163.927 59.096 164.434 59.28 165.117 59.28C165.714 59.28 166.167 59.1067 166.477 58.76C166.791 58.4133 166.949 57.9307 166.949 57.312C166.949 56.6773 166.791 56.1973 166.477 55.872C166.167 55.5413 165.703 55.376 165.085 55.376ZM172.118 53.496L178.271 57.296V58.672L172.199 62.472L171.471 61.48L177.119 57.992L171.471 54.512L172.118 53.496Z" fill="#233D48"/>
</g>
<defs>
<clipPath id="clip0_1346_70105">
<path d="M0 8C0 3.58172 3.58172 0 8 0H216C220.418 0 224 3.58172 224 8V109C224 113.418 220.418 117 216 117H8C3.58172 117 0 113.418 0 109V8Z" fill="white"/>
</clipPath>
</defs>
</svg>
