<svg width="274" height="84" viewBox="0 0 274 84" fill="none" xmlns="http://www.w3.org/2000/svg">
<path d="M17.0114 31V19.3636H24.7159V21.392H19.4716V24.1648H24.2045V26.1932H19.4716V31H17.0114ZM29.6619 31.1705C28.7642 31.1705 27.9915 30.9886 27.3438 30.625C26.6998 30.2576 26.2036 29.7386 25.8551 29.0682C25.5066 28.3939 25.3324 27.5966 25.3324 26.6761C25.3324 25.7784 25.5066 24.9905 25.8551 24.3125C26.2036 23.6345 26.6941 23.1061 27.3267 22.7273C27.9631 22.3485 28.7093 22.1591 29.5653 22.1591C30.1411 22.1591 30.6771 22.2519 31.1733 22.4375C31.6733 22.6193 32.1089 22.8939 32.4801 23.2614C32.8551 23.6288 33.1468 24.0909 33.3551 24.6477C33.5634 25.2008 33.6676 25.8485 33.6676 26.5909V27.2557H26.2983V25.7557H31.3892C31.3892 25.4072 31.3134 25.0985 31.1619 24.8295C31.0104 24.5606 30.8002 24.3504 30.5312 24.1989C30.2661 24.0436 29.9574 23.9659 29.6051 23.9659C29.2377 23.9659 28.9119 24.0511 28.6278 24.2216C28.3475 24.3883 28.1278 24.6136 27.9688 24.8977C27.8097 25.178 27.7282 25.4905 27.7244 25.8352V27.2614C27.7244 27.6932 27.804 28.0663 27.9631 28.3807C28.1259 28.6951 28.3551 28.9375 28.6506 29.108C28.946 29.2784 29.2964 29.3636 29.7017 29.3636C29.9706 29.3636 30.2169 29.3258 30.4403 29.25C30.6638 29.1742 30.8551 29.0606 31.0142 28.9091C31.1733 28.7576 31.2945 28.572 31.3778 28.3523L33.6165 28.5C33.5028 29.0379 33.2699 29.5076 32.9176 29.9091C32.5691 30.3068 32.1184 30.6174 31.5653 30.8409C31.0161 31.0606 30.3816 31.1705 29.6619 31.1705ZM37.7358 31.1648C37.179 31.1648 36.6828 31.0682 36.2472 30.875C35.8116 30.678 35.4669 30.3883 35.2131 30.0057C34.9631 29.6193 34.8381 29.1383 34.8381 28.5625C34.8381 28.0777 34.9271 27.6705 35.1051 27.3409C35.2831 27.0114 35.5256 26.7462 35.8324 26.5455C36.1392 26.3447 36.4877 26.1932 36.8778 26.0909C37.2718 25.9886 37.6847 25.9167 38.1165 25.875C38.6241 25.822 39.0331 25.7727 39.3438 25.7273C39.6544 25.678 39.8797 25.6061 40.0199 25.5114C40.16 25.4167 40.2301 25.2765 40.2301 25.0909V25.0568C40.2301 24.697 40.1165 24.4186 39.8892 24.2216C39.6657 24.0246 39.3475 23.9261 38.9347 23.9261C38.4991 23.9261 38.1525 24.0227 37.8949 24.2159C37.6373 24.4053 37.4669 24.6439 37.3835 24.9318L35.1449 24.75C35.2585 24.2197 35.482 23.7614 35.8153 23.375C36.1487 22.9848 36.5786 22.6856 37.1051 22.4773C37.6354 22.2652 38.2491 22.1591 38.946 22.1591C39.4309 22.1591 39.8949 22.2159 40.3381 22.3295C40.785 22.4432 41.1809 22.6193 41.5256 22.858C41.8741 23.0966 42.1487 23.4034 42.3494 23.7784C42.5502 24.1496 42.6506 24.5947 42.6506 25.1136V31H40.3551V29.7898H40.2869C40.1468 30.0625 39.9593 30.303 39.7244 30.5114C39.4896 30.7159 39.2074 30.8769 38.8778 30.9943C38.5483 31.108 38.1676 31.1648 37.7358 31.1648ZM38.429 29.4943C38.785 29.4943 39.0994 29.4242 39.3722 29.2841C39.6449 29.1402 39.8589 28.947 40.0142 28.7045C40.1695 28.4621 40.2472 28.1875 40.2472 27.8807V26.9545C40.1714 27.0038 40.0672 27.0492 39.9347 27.0909C39.8059 27.1288 39.66 27.1648 39.4972 27.1989C39.3343 27.2292 39.1714 27.2576 39.0085 27.2841C38.8456 27.3068 38.6979 27.3277 38.5653 27.3466C38.2813 27.3883 38.0331 27.4545 37.821 27.5455C37.6089 27.6364 37.4441 27.7595 37.3267 27.9148C37.2093 28.0663 37.1506 28.2557 37.1506 28.483C37.1506 28.8125 37.2699 29.0644 37.5085 29.2386C37.7509 29.4091 38.0578 29.4943 38.429 29.4943ZM49.1705 22.2727V24.0909H43.9148V22.2727H49.1705ZM45.108 20.1818H47.5284V28.3182C47.5284 28.5417 47.5625 28.7159 47.6307 28.8409C47.6989 28.9621 47.7936 29.0473 47.9148 29.0966C48.0398 29.1458 48.1837 29.1705 48.3466 29.1705C48.4602 29.1705 48.5739 29.161 48.6875 29.142C48.8011 29.1193 48.8883 29.1023 48.9489 29.0909L49.3295 30.892C49.2083 30.9299 49.0379 30.9735 48.8182 31.0227C48.5985 31.0758 48.3314 31.108 48.017 31.1193C47.4337 31.142 46.9223 31.0644 46.483 30.8864C46.0473 30.7083 45.7083 30.4318 45.4659 30.0568C45.2235 29.6818 45.1042 29.2083 45.108 28.6364V20.1818ZM56.3438 27.2841V22.2727H58.7642V31H56.4403V29.4148H56.3494C56.1525 29.9261 55.8248 30.3371 55.3665 30.6477C54.9119 30.9583 54.357 31.1136 53.7017 31.1136C53.1184 31.1136 52.6051 30.9811 52.1619 30.7159C51.7188 30.4508 51.3722 30.0739 51.1222 29.5852C50.8759 29.0966 50.7509 28.5114 50.7472 27.8295V22.2727H53.1676V27.3977C53.1714 27.9129 53.3097 28.3201 53.5824 28.6193C53.8551 28.9186 54.2206 29.0682 54.679 29.0682C54.9706 29.0682 55.2434 29.0019 55.4972 28.8693C55.7509 28.733 55.9555 28.5322 56.1108 28.267C56.2699 28.0019 56.3475 27.6742 56.3438 27.2841ZM60.7003 31V22.2727H63.0469V23.7955H63.1378C63.2969 23.2538 63.5639 22.8447 63.9389 22.5682C64.3139 22.2879 64.7457 22.1477 65.2344 22.1477C65.3556 22.1477 65.4863 22.1553 65.6264 22.1705C65.7666 22.1856 65.8897 22.2064 65.9957 22.233V24.3807C65.8821 24.3466 65.7249 24.3163 65.5241 24.2898C65.3234 24.2633 65.1397 24.25 64.973 24.25C64.617 24.25 64.2988 24.3277 64.0185 24.483C63.742 24.6345 63.5223 24.8466 63.3594 25.1193C63.2003 25.392 63.1207 25.7064 63.1207 26.0625V31H60.7003ZM70.8182 31.1705C69.9205 31.1705 69.1477 30.9886 68.5 30.625C67.8561 30.2576 67.3598 29.7386 67.0114 29.0682C66.6629 28.3939 66.4886 27.5966 66.4886 26.6761C66.4886 25.7784 66.6629 24.9905 67.0114 24.3125C67.3598 23.6345 67.8504 23.1061 68.483 22.7273C69.1193 22.3485 69.8655 22.1591 70.7216 22.1591C71.2973 22.1591 71.8333 22.2519 72.3295 22.4375C72.8295 22.6193 73.2652 22.8939 73.6364 23.2614C74.0114 23.6288 74.303 24.0909 74.5114 24.6477C74.7197 25.2008 74.8239 25.8485 74.8239 26.5909V27.2557H67.4545V25.7557H72.5455C72.5455 25.4072 72.4697 25.0985 72.3182 24.8295C72.1667 24.5606 71.9564 24.3504 71.6875 24.1989C71.4223 24.0436 71.1136 23.9659 70.7614 23.9659C70.3939 23.9659 70.0682 24.0511 69.7841 24.2216C69.5038 24.3883 69.2841 24.6136 69.125 24.8977C68.9659 25.178 68.8845 25.4905 68.8807 25.8352V27.2614C68.8807 27.6932 68.9602 28.0663 69.1193 28.3807C69.2822 28.6951 69.5114 28.9375 69.8068 29.108C70.1023 29.2784 70.4527 29.3636 70.858 29.3636C71.1269 29.3636 71.3731 29.3258 71.5966 29.25C71.8201 29.1742 72.0114 29.0606 72.1705 28.9091C72.3295 28.7576 72.4508 28.572 72.5341 28.3523L74.7727 28.5C74.6591 29.0379 74.4261 29.5076 74.0739 29.9091C73.7254 30.3068 73.2746 30.6174 72.7216 30.8409C72.1723 31.0606 71.5379 31.1705 70.8182 31.1705ZM87.3679 24.7614L85.152 24.8977C85.1141 24.7083 85.0327 24.5379 84.9077 24.3864C84.7827 24.2311 84.6179 24.108 84.4134 24.017C84.2126 23.9223 83.9721 23.875 83.6918 23.875C83.3168 23.875 83.0005 23.9545 82.7429 24.1136C82.4853 24.2689 82.3565 24.4773 82.3565 24.7386C82.3565 24.947 82.4399 25.1231 82.6065 25.267C82.7732 25.411 83.0592 25.5265 83.4645 25.6136L85.044 25.9318C85.8925 26.1061 86.5251 26.3864 86.9418 26.7727C87.3584 27.1591 87.5668 27.6667 87.5668 28.2955C87.5668 28.8674 87.3982 29.3693 87.0611 29.8011C86.7277 30.233 86.2694 30.5701 85.6861 30.8125C85.1065 31.0511 84.438 31.1705 83.6804 31.1705C82.5251 31.1705 81.6046 30.9299 80.919 30.4489C80.2372 29.964 79.8376 29.3049 79.7202 28.4716L82.1009 28.3466C82.1728 28.6989 82.3471 28.9678 82.6236 29.1534C82.9001 29.3352 83.2543 29.4261 83.6861 29.4261C84.1103 29.4261 84.4512 29.3447 84.7088 29.1818C84.9702 29.0152 85.1027 28.8011 85.1065 28.5398C85.1027 28.3201 85.0099 28.1402 84.8281 28C84.6463 27.8561 84.366 27.7462 83.9872 27.6705L82.4759 27.3693C81.6236 27.1989 80.9891 26.9034 80.5724 26.483C80.1596 26.0625 79.9531 25.5265 79.9531 24.875C79.9531 24.3144 80.1046 23.8314 80.4077 23.4261C80.7145 23.0208 81.1444 22.7083 81.6974 22.4886C82.2543 22.2689 82.9058 22.1591 83.652 22.1591C84.7543 22.1591 85.6217 22.392 86.2543 22.858C86.8906 23.3239 87.2618 23.9583 87.3679 24.7614ZM90.8125 31L88.4375 22.2727H90.8864L92.2386 28.1364H92.3182L93.7273 22.2727H96.1307L97.5625 28.1023H97.6364L98.9659 22.2727H101.409L99.0398 31H96.4773L94.9773 25.5114H94.8693L93.3693 31H90.8125ZM102.7 31V22.2727H105.121V31H102.7ZM103.916 21.1477C103.556 21.1477 103.248 21.0284 102.99 20.7898C102.736 20.5473 102.609 20.2576 102.609 19.9205C102.609 19.5871 102.736 19.3011 102.99 19.0625C103.248 18.8201 103.556 18.6989 103.916 18.6989C104.276 18.6989 104.583 18.8201 104.837 19.0625C105.094 19.3011 105.223 19.5871 105.223 19.9205C105.223 20.2576 105.094 20.5473 104.837 20.7898C104.583 21.0284 104.276 21.1477 103.916 21.1477ZM111.702 22.2727V24.0909H106.446V22.2727H111.702ZM107.639 20.1818H110.06V28.3182C110.06 28.5417 110.094 28.7159 110.162 28.8409C110.23 28.9621 110.325 29.0473 110.446 29.0966C110.571 29.1458 110.715 29.1705 110.878 29.1705C110.991 29.1705 111.105 29.161 111.219 29.142C111.332 29.1193 111.42 29.1023 111.48 29.0909L111.861 30.892C111.74 30.9299 111.569 30.9735 111.349 31.0227C111.13 31.0758 110.863 31.108 110.548 31.1193C109.965 31.142 109.454 31.0644 109.014 30.8864C108.579 30.7083 108.24 30.4318 107.997 30.0568C107.755 29.6818 107.635 29.2083 107.639 28.6364V20.1818ZM117.128 31.1705C116.234 31.1705 115.465 30.9811 114.821 30.6023C114.181 30.2197 113.688 29.6894 113.344 29.0114C113.003 28.3333 112.832 27.553 112.832 26.6705C112.832 25.7765 113.005 24.9924 113.349 24.3182C113.698 23.6402 114.192 23.1117 114.832 22.733C115.473 22.3504 116.234 22.1591 117.116 22.1591C117.878 22.1591 118.545 22.2973 119.116 22.5739C119.688 22.8504 120.141 23.2386 120.474 23.7386C120.808 24.2386 120.991 24.8258 121.026 25.5H118.741C118.677 25.0644 118.507 24.714 118.23 24.4489C117.957 24.1799 117.599 24.0455 117.156 24.0455C116.781 24.0455 116.454 24.1477 116.173 24.3523C115.897 24.553 115.681 24.8466 115.526 25.233C115.37 25.6193 115.293 26.0871 115.293 26.6364C115.293 27.1932 115.368 27.6667 115.52 28.0568C115.675 28.447 115.893 28.7443 116.173 28.9489C116.454 29.1534 116.781 29.2557 117.156 29.2557C117.433 29.2557 117.681 29.1989 117.901 29.0852C118.124 28.9716 118.308 28.8068 118.452 28.5909C118.599 28.3712 118.696 28.108 118.741 27.8011H121.026C120.988 28.4678 120.806 29.0549 120.48 29.5625C120.158 30.0663 119.713 30.4602 119.145 30.7443C118.577 31.0284 117.904 31.1705 117.128 31.1705ZM124.996 25.9545V31H122.575V19.3636H124.928V23.8125H125.03C125.227 23.2973 125.545 22.8939 125.984 22.6023C126.424 22.3068 126.975 22.1591 127.638 22.1591C128.244 22.1591 128.772 22.2917 129.223 22.5568C129.678 22.8182 130.03 23.1951 130.28 23.6875C130.534 24.1761 130.659 24.7614 130.655 25.4432V31H128.234V25.875C128.238 25.3371 128.102 24.9186 127.825 24.6193C127.553 24.3201 127.17 24.1705 126.678 24.1705C126.348 24.1705 126.056 24.2405 125.803 24.3807C125.553 24.5208 125.356 24.7254 125.212 24.9943C125.071 25.2595 125 25.5795 124.996 25.9545Z" fill="#032B3A"/>
<path d="M20.375 64H17.233V53.8182H20.5142C21.5019 53.8182 22.3471 54.022 23.0497 54.4297C23.7524 54.834 24.291 55.4157 24.6655 56.1747C25.04 56.9304 25.2273 57.8352 25.2273 58.8892C25.2273 59.9498 25.0384 60.8629 24.6605 61.6286C24.2827 62.3909 23.7325 62.9775 23.0099 63.3885C22.2874 63.7962 21.4091 64 20.375 64ZM18.4659 62.9062H20.2955C21.1373 62.9062 21.835 62.7438 22.3885 62.419C22.942 62.0942 23.3546 61.6319 23.6264 61.032C23.8982 60.4321 24.0341 59.7178 24.0341 58.8892C24.0341 58.0672 23.8999 57.3596 23.6314 56.7663C23.3629 56.1697 22.9619 55.7124 22.4283 55.3942C21.8946 55.0727 21.2301 54.9119 20.4347 54.9119H18.4659V62.9062ZM30.3381 64.1591C29.6023 64.1591 28.9676 63.9967 28.4339 63.6719C27.9036 63.3438 27.4943 62.8864 27.206 62.2997C26.9209 61.7098 26.7784 61.0237 26.7784 60.2415C26.7784 59.4593 26.9209 58.7699 27.206 58.1733C27.4943 57.5734 27.8954 57.1061 28.4091 56.7713C28.9261 56.4332 29.5294 56.2642 30.2188 56.2642C30.6165 56.2642 31.0092 56.3305 31.397 56.4631C31.7848 56.5956 32.1378 56.8111 32.456 57.1094C32.7741 57.4044 33.0277 57.7955 33.2166 58.2827C33.4055 58.7699 33.5 59.3698 33.5 60.0824V60.5795H27.6136V59.5653H32.3068C32.3068 59.1345 32.2206 58.75 32.0483 58.4119C31.8793 58.0739 31.6373 57.8071 31.3224 57.6115C31.0109 57.416 30.643 57.3182 30.2188 57.3182C29.7514 57.3182 29.3471 57.4342 29.0057 57.6662C28.6676 57.8949 28.4074 58.1932 28.2251 58.5611C28.0429 58.929 27.9517 59.3234 27.9517 59.7443V60.4205C27.9517 60.9972 28.0511 61.486 28.25 61.8871C28.4522 62.2848 28.7322 62.5881 29.0902 62.7969C29.4482 63.0024 29.8641 63.1051 30.3381 63.1051C30.6463 63.1051 30.9247 63.062 31.1733 62.9759C31.4252 62.8864 31.6423 62.7538 31.8246 62.5781C32.0069 62.3991 32.1477 62.1771 32.2472 61.9119L33.3807 62.2301C33.2614 62.6146 33.0608 62.9527 32.7791 63.2443C32.4974 63.5327 32.1494 63.758 31.7351 63.9205C31.3208 64.0795 30.8551 64.1591 30.3381 64.1591ZM40.6939 58.0739L39.6399 58.3722C39.5736 58.1965 39.4759 58.0258 39.3466 57.8601C39.2206 57.6911 39.0483 57.5518 38.8295 57.4425C38.6108 57.3331 38.3307 57.2784 37.9893 57.2784C37.522 57.2784 37.1326 57.3861 36.821 57.6016C36.5128 57.8137 36.3587 58.0838 36.3587 58.4119C36.3587 58.7036 36.4647 58.9339 36.6768 59.103C36.889 59.272 37.2204 59.4129 37.6712 59.5256L38.8047 59.804C39.4875 59.9697 39.9962 60.2232 40.331 60.5646C40.6657 60.9027 40.8331 61.3385 40.8331 61.8722C40.8331 62.3097 40.7071 62.7008 40.4553 63.0455C40.2067 63.3902 39.8587 63.6619 39.4112 63.8608C38.9638 64.0597 38.4434 64.1591 37.8501 64.1591C37.0713 64.1591 36.4266 63.9901 35.9162 63.652C35.4058 63.3139 35.0826 62.8201 34.9467 62.1705L36.0604 61.892C36.1664 62.303 36.367 62.6113 36.6619 62.8168C36.9602 63.0223 37.3497 63.125 37.8303 63.125C38.3771 63.125 38.8113 63.009 39.1328 62.777C39.4576 62.5417 39.62 62.2599 39.62 61.9318C39.62 61.6667 39.5272 61.4446 39.3416 61.2656C39.156 61.0833 38.871 60.9474 38.4865 60.858L37.2138 60.5597C36.5144 60.3939 36.0007 60.1371 35.6726 59.7891C35.3478 59.4377 35.1854 58.9986 35.1854 58.4716C35.1854 58.0407 35.3063 57.6596 35.5483 57.3281C35.7936 56.9967 36.1267 56.7365 36.5476 56.5476C36.9718 56.3587 37.4524 56.2642 37.9893 56.2642C38.745 56.2642 39.3383 56.4299 39.7692 56.7614C40.2034 57.0928 40.5116 57.5303 40.6939 58.0739ZM45.7015 64.1591C44.9856 64.1591 44.3691 63.9901 43.8521 63.652C43.335 63.3139 42.9373 62.8482 42.6589 62.255C42.3805 61.6617 42.2413 60.9839 42.2413 60.2216C42.2413 59.446 42.3838 58.7616 42.6689 58.1683C42.9572 57.5717 43.3583 57.1061 43.872 56.7713C44.389 56.4332 44.9922 56.2642 45.6816 56.2642C46.2186 56.2642 46.7025 56.3636 47.1333 56.5625C47.5642 56.7614 47.9172 57.0398 48.1923 57.3977C48.4674 57.7557 48.6381 58.1733 48.7044 58.6506H47.5311C47.4416 58.3026 47.2427 57.9943 46.9345 57.7259C46.6296 57.4541 46.2186 57.3182 45.7015 57.3182C45.2441 57.3182 44.8431 57.4375 44.4984 57.6761C44.157 57.9115 43.8902 58.2446 43.698 58.6754C43.5091 59.103 43.4146 59.6051 43.4146 60.1818C43.4146 60.7718 43.5074 61.2855 43.693 61.723C43.8819 62.1605 44.1471 62.5002 44.4885 62.7422C44.8332 62.9841 45.2375 63.1051 45.7015 63.1051C46.0065 63.1051 46.2832 63.0521 46.5318 62.946C46.7804 62.84 46.9908 62.6875 47.1632 62.4886C47.3355 62.2898 47.4582 62.0511 47.5311 61.7727H48.7044C48.6381 62.2235 48.474 62.6295 48.2122 62.9908C47.9537 63.3487 47.6106 63.6338 47.1831 63.8459C46.7588 64.0547 46.265 64.1591 45.7015 64.1591ZM50.4196 64V56.3636H51.5531V57.517H51.6326C51.7718 57.1392 52.0237 56.8326 52.3883 56.5973C52.7529 56.362 53.1639 56.2443 53.6213 56.2443C53.7074 56.2443 53.8152 56.246 53.9444 56.2493C54.0737 56.2526 54.1715 56.2576 54.2377 56.2642V57.4574C54.198 57.4474 54.1068 57.4325 53.9643 57.4126C53.8251 57.3894 53.6776 57.3778 53.5218 57.3778C53.1506 57.3778 52.8192 57.4557 52.5275 57.6115C52.2392 57.764 52.0105 57.9761 51.8414 58.2479C51.6757 58.5163 51.5929 58.8229 51.5929 59.1676V64H50.4196ZM55.6286 64V56.3636H56.8018V64H55.6286ZM56.2251 55.0909C55.9964 55.0909 55.7992 55.013 55.6335 54.8572C55.4711 54.7015 55.3899 54.5142 55.3899 54.2955C55.3899 54.0767 55.4711 53.8894 55.6335 53.7337C55.7992 53.5779 55.9964 53.5 56.2251 53.5C56.4538 53.5 56.6494 53.5779 56.8118 53.7337C56.9775 53.8894 57.0604 54.0767 57.0604 54.2955C57.0604 54.5142 56.9775 54.7015 56.8118 54.8572C56.6494 55.013 56.4538 55.0909 56.2251 55.0909ZM58.9508 66.8636V56.3636H60.0843V57.5767H60.2235C60.3097 57.4441 60.429 57.2751 60.5815 57.0696C60.7373 56.8608 60.9593 56.6752 61.2477 56.5128C61.5394 56.3471 61.9338 56.2642 62.4309 56.2642C63.0739 56.2642 63.6407 56.425 64.1312 56.7464C64.6217 57.0679 65.0046 57.5237 65.2797 58.1136C65.5547 58.7036 65.6923 59.3996 65.6923 60.2017C65.6923 61.0104 65.5547 61.7114 65.2797 62.3047C65.0046 62.8946 64.6234 63.352 64.1362 63.6768C63.649 63.9983 63.0872 64.1591 62.4508 64.1591C61.9603 64.1591 61.5675 64.0779 61.2725 63.9155C60.9776 63.7498 60.7505 63.5625 60.5914 63.3537C60.4324 63.1416 60.3097 62.9659 60.2235 62.8267H60.1241V66.8636H58.9508ZM60.1042 60.1818C60.1042 60.7585 60.1887 61.2673 60.3578 61.7081C60.5268 62.1456 60.7737 62.4886 61.0985 62.7372C61.4234 62.9825 61.8211 63.1051 62.2917 63.1051C62.7823 63.1051 63.1916 62.9759 63.5197 62.7173C63.8511 62.4555 64.0997 62.1042 64.2654 61.6634C64.4345 61.2192 64.519 60.7254 64.519 60.1818C64.519 59.6449 64.4361 59.161 64.2704 58.7301C64.108 58.2959 63.8611 57.9529 63.5297 57.701C63.2015 57.4458 62.7889 57.3182 62.2917 57.3182C61.8145 57.3182 61.4134 57.4392 61.0886 57.6811C60.7638 57.9197 60.5185 58.2545 60.3528 58.6854C60.1871 59.1129 60.1042 59.6117 60.1042 60.1818ZM70.8031 56.3636V57.358H66.8457V56.3636H70.8031ZM67.9991 54.5341H69.1724V61.8125C69.1724 62.1439 69.2205 62.3925 69.3166 62.5582C69.416 62.7206 69.542 62.83 69.6944 62.8864C69.8502 62.9394 70.0143 62.9659 70.1866 62.9659C70.3159 62.9659 70.4219 62.9593 70.5048 62.946C70.5877 62.9295 70.6539 62.9162 70.7037 62.9062L70.9423 63.9602C70.8627 63.9901 70.7517 64.0199 70.6092 64.0497C70.4667 64.0829 70.286 64.0994 70.0673 64.0994C69.7359 64.0994 69.411 64.0282 69.0929 63.8857C68.778 63.7431 68.5162 63.526 68.3074 63.2344C68.1019 62.9427 67.9991 62.5748 67.9991 62.1307V54.5341ZM72.568 64V56.3636H73.7413V64H72.568ZM73.1646 55.0909C72.9359 55.0909 72.7387 55.013 72.573 54.8572C72.4106 54.7015 72.3294 54.5142 72.3294 54.2955C72.3294 54.0767 72.4106 53.8894 72.573 53.7337C72.7387 53.5779 72.9359 53.5 73.1646 53.5C73.3933 53.5 73.5888 53.5779 73.7512 53.7337C73.917 53.8894 73.9998 54.0767 73.9998 54.2955C73.9998 54.5142 73.917 54.7015 73.7512 54.8572C73.5888 55.013 73.3933 55.0909 73.1646 55.0909ZM78.9925 64.1591C78.3031 64.1591 77.6983 63.995 77.1779 63.6669C76.6609 63.3388 76.2565 62.8797 75.9648 62.2898C75.6765 61.6998 75.5323 61.0104 75.5323 60.2216C75.5323 59.4261 75.6765 58.7318 75.9648 58.1385C76.2565 57.5452 76.6609 57.0845 77.1779 56.7564C77.6983 56.4283 78.3031 56.2642 78.9925 56.2642C79.6819 56.2642 80.2852 56.4283 80.8022 56.7564C81.3226 57.0845 81.7269 57.5452 82.0153 58.1385C82.3069 58.7318 82.4528 59.4261 82.4528 60.2216C82.4528 61.0104 82.3069 61.6998 82.0153 62.2898C81.7269 62.8797 81.3226 63.3388 80.8022 63.6669C80.2852 63.995 79.6819 64.1591 78.9925 64.1591ZM78.9925 63.1051C79.5162 63.1051 79.9471 62.9709 80.2852 62.7024C80.6232 62.4339 80.8735 62.081 81.0359 61.6435C81.1983 61.206 81.2795 60.732 81.2795 60.2216C81.2795 59.7112 81.1983 59.2356 81.0359 58.7947C80.8735 58.3539 80.6232 57.9976 80.2852 57.7259C79.9471 57.4541 79.5162 57.3182 78.9925 57.3182C78.4689 57.3182 78.038 57.4541 77.6999 57.7259C77.3619 57.9976 77.1116 58.3539 76.9492 58.7947C76.7868 59.2356 76.7056 59.7112 76.7056 60.2216C76.7056 60.732 76.7868 61.206 76.9492 61.6435C77.1116 62.081 77.3619 62.4339 77.6999 62.7024C78.038 62.9709 78.4689 63.1051 78.9925 63.1051ZM85.4171 59.4062V64H84.2438V56.3636H85.3773V57.5568H85.4767C85.6557 57.169 85.9275 56.8575 86.2921 56.6222C86.6567 56.3835 87.1273 56.2642 87.704 56.2642C88.2211 56.2642 88.6735 56.3703 89.0613 56.5824C89.449 56.7912 89.7507 57.1094 89.9661 57.5369C90.1815 57.9612 90.2892 58.4981 90.2892 59.1477V64H89.1159V59.2273C89.1159 58.6274 88.9602 58.16 88.6486 57.8253C88.3371 57.4872 87.9095 57.3182 87.3659 57.3182C86.9914 57.3182 86.6567 57.3994 86.3617 57.5618C86.07 57.7242 85.8397 57.9612 85.6706 58.2727C85.5016 58.5843 85.4171 58.9621 85.4171 59.4062ZM99.473 64.1591C98.7836 64.1591 98.1787 63.995 97.6584 63.6669C97.1413 63.3388 96.737 62.8797 96.4453 62.2898C96.157 61.6998 96.0128 61.0104 96.0128 60.2216C96.0128 59.4261 96.157 58.7318 96.4453 58.1385C96.737 57.5452 97.1413 57.0845 97.6584 56.7564C98.1787 56.4283 98.7836 56.2642 99.473 56.2642C100.162 56.2642 100.766 56.4283 101.283 56.7564C101.803 57.0845 102.207 57.5452 102.496 58.1385C102.787 58.7318 102.933 59.4261 102.933 60.2216C102.933 61.0104 102.787 61.6998 102.496 62.2898C102.207 62.8797 101.803 63.3388 101.283 63.6669C100.766 63.995 100.162 64.1591 99.473 64.1591ZM99.473 63.1051C99.9967 63.1051 100.428 62.9709 100.766 62.7024C101.104 62.4339 101.354 62.081 101.516 61.6435C101.679 61.206 101.76 60.732 101.76 60.2216C101.76 59.7112 101.679 59.2356 101.516 58.7947C101.354 58.3539 101.104 57.9976 100.766 57.7259C100.428 57.4541 99.9967 57.3182 99.473 57.3182C98.9493 57.3182 98.5185 57.4541 98.1804 57.7259C97.8423 57.9976 97.5921 58.3539 97.4297 58.7947C97.2673 59.2356 97.1861 59.7112 97.1861 60.2216C97.1861 60.732 97.2673 61.206 97.4297 61.6435C97.5921 62.081 97.8423 62.4339 98.1804 62.7024C98.5185 62.9709 98.9493 63.1051 99.473 63.1051ZM108.125 56.3636V57.358H104.008V56.3636H108.125ZM105.241 64V55.3097C105.241 54.8722 105.344 54.5076 105.55 54.2159C105.755 53.9242 106.022 53.7055 106.35 53.5597C106.678 53.4138 107.024 53.3409 107.389 53.3409C107.677 53.3409 107.913 53.3641 108.095 53.4105C108.277 53.4569 108.413 53.5 108.503 53.5398L108.165 54.554C108.105 54.5341 108.022 54.5092 107.916 54.4794C107.813 54.4496 107.677 54.4347 107.508 54.4347C107.121 54.4347 106.84 54.5324 106.668 54.728C106.499 54.9235 106.415 55.2102 106.415 55.5881V64H105.241ZM117.028 56.3636V57.358H113.07V56.3636H117.028ZM114.224 54.5341H115.397V61.8125C115.397 62.1439 115.445 62.3925 115.541 62.5582C115.641 62.7206 115.767 62.83 115.919 62.8864C116.075 62.9394 116.239 62.9659 116.411 62.9659C116.54 62.9659 116.647 62.9593 116.729 62.946C116.812 62.9295 116.879 62.9162 116.928 62.9062L117.167 63.9602C117.087 63.9901 116.976 64.0199 116.834 64.0497C116.691 64.0829 116.511 64.0994 116.292 64.0994C115.96 64.0994 115.636 64.0282 115.317 63.8857C115.003 63.7431 114.741 63.526 114.532 63.2344C114.326 62.9427 114.224 62.5748 114.224 62.1307V54.5341ZM120.13 59.4062V64H118.957V53.8182H120.13V57.5568H120.229C120.408 57.1624 120.677 56.8492 121.035 56.6172C121.396 56.3819 121.877 56.2642 122.477 56.2642C122.997 56.2642 123.453 56.3686 123.844 56.5774C124.235 56.7829 124.538 57.0994 124.754 57.527C124.972 57.9512 125.082 58.4915 125.082 59.1477V64H123.908V59.2273C123.908 58.6207 123.751 58.1518 123.436 57.8203C123.125 57.4856 122.692 57.3182 122.138 57.3182C121.754 57.3182 121.409 57.3994 121.104 57.5618C120.803 57.7242 120.564 57.9612 120.388 58.2727C120.216 58.5843 120.13 58.9621 120.13 59.4062ZM130.43 64.1591C129.694 64.1591 129.059 63.9967 128.526 63.6719C127.995 63.3438 127.586 62.8864 127.298 62.2997C127.013 61.7098 126.87 61.0237 126.87 60.2415C126.87 59.4593 127.013 58.7699 127.298 58.1733C127.586 57.5734 127.987 57.1061 128.501 56.7713C129.018 56.4332 129.621 56.2642 130.311 56.2642C130.708 56.2642 131.101 56.3305 131.489 56.4631C131.877 56.5956 132.23 56.8111 132.548 57.1094C132.866 57.4044 133.119 57.7955 133.308 58.2827C133.497 58.7699 133.592 59.3698 133.592 60.0824V60.5795H127.705V59.5653H132.399C132.399 59.1345 132.312 58.75 132.14 58.4119C131.971 58.0739 131.729 57.8071 131.414 57.6115C131.103 57.416 130.735 57.3182 130.311 57.3182C129.843 57.3182 129.439 57.4342 129.097 57.6662C128.759 57.8949 128.499 58.1932 128.317 58.5611C128.135 58.929 128.044 59.3234 128.044 59.7443V60.4205C128.044 60.9972 128.143 61.486 128.342 61.8871C128.544 62.2848 128.824 62.5881 129.182 62.7969C129.54 63.0024 129.956 63.1051 130.43 63.1051C130.738 63.1051 131.017 63.062 131.265 62.9759C131.517 62.8864 131.734 62.7538 131.916 62.5781C132.099 62.3991 132.24 62.1771 132.339 61.9119L133.472 62.2301C133.353 62.6146 133.153 62.9527 132.871 63.2443C132.589 63.5327 132.241 63.758 131.827 63.9205C131.413 64.0795 130.947 64.1591 130.43 64.1591ZM142.715 56.3636V57.358H138.598V56.3636H142.715ZM139.831 64V55.3097C139.831 54.8722 139.934 54.5076 140.139 54.2159C140.345 53.9242 140.612 53.7055 140.94 53.5597C141.268 53.4138 141.614 53.3409 141.979 53.3409C142.267 53.3409 142.503 53.3641 142.685 53.4105C142.867 53.4569 143.003 53.5 143.093 53.5398L142.754 54.554C142.695 54.5341 142.612 54.5092 142.506 54.4794C142.403 54.4496 142.267 54.4347 142.098 54.4347C141.71 54.4347 141.43 54.5324 141.258 54.728C141.089 54.9235 141.004 55.2102 141.004 55.5881V64H139.831ZM147.246 64.1591C146.51 64.1591 145.876 63.9967 145.342 63.6719C144.812 63.3438 144.403 62.8864 144.114 62.2997C143.829 61.7098 143.687 61.0237 143.687 60.2415C143.687 59.4593 143.829 58.7699 144.114 58.1733C144.403 57.5734 144.804 57.1061 145.317 56.7713C145.834 56.4332 146.438 56.2642 147.127 56.2642C147.525 56.2642 147.917 56.3305 148.305 56.4631C148.693 56.5956 149.046 56.8111 149.364 57.1094C149.682 57.4044 149.936 57.7955 150.125 58.2827C150.314 58.7699 150.408 59.3698 150.408 60.0824V60.5795H144.522V59.5653H149.215C149.215 59.1345 149.129 58.75 148.956 58.4119C148.787 58.0739 148.546 57.8071 148.231 57.6115C147.919 57.416 147.551 57.3182 147.127 57.3182C146.66 57.3182 146.255 57.4342 145.914 57.6662C145.576 57.8949 145.316 58.1932 145.133 58.5611C144.951 58.929 144.86 59.3234 144.86 59.7443V60.4205C144.86 60.9972 144.959 61.486 145.158 61.8871C145.36 62.2848 145.64 62.5881 145.998 62.7969C146.356 63.0024 146.772 63.1051 147.246 63.1051C147.555 63.1051 147.833 63.062 148.081 62.9759C148.333 62.8864 148.55 62.7538 148.733 62.5781C148.915 62.3991 149.056 62.1771 149.155 61.9119L150.289 62.2301C150.17 62.6146 149.969 62.9527 149.687 63.2443C149.406 63.5327 149.058 63.758 148.643 63.9205C148.229 64.0795 147.763 64.1591 147.246 64.1591ZM154.44 64.179C153.956 64.179 153.517 64.0878 153.123 63.9055C152.728 63.7199 152.415 63.4531 152.183 63.1051C151.951 62.7538 151.835 62.3295 151.835 61.8324C151.835 61.3949 151.921 61.0402 152.094 60.7685C152.266 60.4934 152.496 60.2779 152.785 60.1222C153.073 59.9664 153.391 59.8504 153.739 59.7741C154.09 59.6946 154.443 59.6316 154.798 59.5852C155.262 59.5256 155.638 59.4808 155.927 59.451C156.218 59.4179 156.43 59.3632 156.563 59.2869C156.699 59.2107 156.767 59.0781 156.767 58.8892V58.8494C156.767 58.3589 156.633 57.9777 156.364 57.706C156.099 57.4342 155.696 57.2983 155.156 57.2983C154.596 57.2983 154.157 57.4209 153.839 57.6662C153.52 57.9115 153.297 58.1733 153.167 58.4517L152.054 58.054C152.253 57.59 152.518 57.2287 152.849 56.9702C153.184 56.7083 153.549 56.526 153.943 56.4233C154.341 56.3172 154.732 56.2642 155.116 56.2642C155.362 56.2642 155.643 56.294 155.961 56.3537C156.283 56.41 156.593 56.5277 156.891 56.7067C157.193 56.8857 157.443 57.1558 157.642 57.517C157.841 57.8783 157.94 58.3622 157.94 58.9688V64H156.767V62.9659H156.707C156.628 63.1316 156.495 63.3089 156.309 63.4979C156.124 63.6868 155.877 63.8475 155.569 63.9801C155.26 64.1127 154.884 64.179 154.44 64.179ZM154.619 63.125C155.083 63.125 155.474 63.0339 155.792 62.8516C156.114 62.6693 156.356 62.4339 156.518 62.1456C156.684 61.8572 156.767 61.554 156.767 61.2358V60.1619C156.717 60.2216 156.608 60.2763 156.439 60.326C156.273 60.3724 156.081 60.4138 155.862 60.4503C155.647 60.4834 155.436 60.5133 155.231 60.5398C155.028 60.563 154.864 60.5829 154.738 60.5994C154.434 60.6392 154.148 60.7038 153.883 60.7933C153.622 60.8795 153.409 61.0104 153.247 61.1861C153.088 61.3584 153.008 61.5937 153.008 61.892C153.008 62.2997 153.159 62.608 153.461 62.8168C153.766 63.0223 154.152 63.125 154.619 63.125ZM163.403 56.3636V57.358H159.445V56.3636H163.403ZM160.599 54.5341H161.772V61.8125C161.772 62.1439 161.82 62.3925 161.916 62.5582C162.016 62.7206 162.142 62.83 162.294 62.8864C162.45 62.9394 162.614 62.9659 162.786 62.9659C162.915 62.9659 163.022 62.9593 163.104 62.946C163.187 62.9295 163.254 62.9162 163.303 62.9062L163.542 63.9602C163.462 63.9901 163.351 64.0199 163.209 64.0497C163.066 64.0829 162.886 64.0994 162.667 64.0994C162.335 64.0994 162.011 64.0282 161.692 63.8857C161.378 63.7431 161.116 63.526 160.907 63.2344C160.701 62.9427 160.599 62.5748 160.599 62.1307V54.5341ZM169.98 60.8778V56.3636H171.153V64H169.98V62.7074H169.901C169.722 63.0952 169.443 63.425 169.065 63.6967C168.688 63.9652 168.21 64.0994 167.634 64.0994C167.156 64.0994 166.732 63.995 166.361 63.7862C165.99 63.5741 165.698 63.2559 165.486 62.8317C165.274 62.4041 165.168 61.8655 165.168 61.2159V56.3636H166.341V61.1364C166.341 61.6932 166.497 62.1373 166.808 62.4688C167.123 62.8002 167.524 62.9659 168.011 62.9659C168.303 62.9659 168.6 62.8913 168.901 62.7422C169.206 62.593 169.461 62.3643 169.667 62.0561C169.876 61.7479 169.98 61.3551 169.98 60.8778ZM173.302 64V56.3636H174.436V57.517H174.515C174.655 57.1392 174.907 56.8326 175.271 56.5973C175.636 56.362 176.047 56.2443 176.504 56.2443C176.59 56.2443 176.698 56.246 176.827 56.2493C176.956 56.2526 177.054 56.2576 177.121 56.2642V57.4574C177.081 57.4474 176.99 57.4325 176.847 57.4126C176.708 57.3894 176.56 57.3778 176.405 57.3778C176.033 57.3778 175.702 57.4557 175.41 57.6115C175.122 57.764 174.893 57.9761 174.724 58.2479C174.559 58.5163 174.476 58.8229 174.476 59.1676V64H173.302ZM181.481 64.1591C180.745 64.1591 180.11 63.9967 179.577 63.6719C179.046 63.3438 178.637 62.8864 178.349 62.2997C178.064 61.7098 177.921 61.0237 177.921 60.2415C177.921 59.4593 178.064 58.7699 178.349 58.1733C178.637 57.5734 179.038 57.1061 179.552 56.7713C180.069 56.4332 180.672 56.2642 181.361 56.2642C181.759 56.2642 182.152 56.3305 182.54 56.4631C182.927 56.5956 183.28 56.8111 183.599 57.1094C183.917 57.4044 184.17 57.7955 184.359 58.2827C184.548 58.7699 184.643 59.3698 184.643 60.0824V60.5795H178.756V59.5653H183.449C183.449 59.1345 183.363 58.75 183.191 58.4119C183.022 58.0739 182.78 57.8071 182.465 57.6115C182.153 57.416 181.786 57.3182 181.361 57.3182C180.894 57.3182 180.49 57.4342 180.148 57.6662C179.81 57.8949 179.55 58.1932 179.368 58.5611C179.185 58.929 179.094 59.3234 179.094 59.7443V60.4205C179.094 60.9972 179.194 61.486 179.393 61.8871C179.595 62.2848 179.875 62.5881 180.233 62.7969C180.591 63.0024 181.007 63.1051 181.481 63.1051C181.789 63.1051 182.067 63.062 182.316 62.9759C182.568 62.8864 182.785 62.7538 182.967 62.5781C183.149 62.3991 183.29 62.1771 183.39 61.9119L184.523 62.2301C184.404 62.6146 184.203 62.9527 183.922 63.2443C183.64 63.5327 183.292 63.758 182.878 63.9205C182.463 64.0795 181.998 64.1591 181.481 64.1591Z" fill="#233D48"/>
<path d="M211 28C211 21.9249 215.925 17 222 17H246C252.075 17 257 21.9249 257 28C257 34.0751 252.075 39 246 39H222C215.925 39 211 34.0751 211 28Z" fill="#388523"/>
<path d="M211 28C211 21.9249 215.925 17 222 17H246C252.075 17 257 21.9249 257 28C257 34.0751 252.075 39 246 39H222C215.925 39 211 34.0751 211 28Z" stroke="#388523" stroke-width="2"/>
<circle cx="246" cy="28" r="8" fill="white"/>
</svg>
