<svg width="224" height="117" viewBox="0 0 224 117" fill="none" xmlns="http://www.w3.org/2000/svg">
<path d="M9 33.4615C9 29.8929 11.8929 27 15.4615 27H208.038C211.607 27 214.5 29.8929 214.5 33.4615V82.5385C214.5 86.1071 211.607 89 208.038 89H15.4615C11.8929 89 9 86.1071 9 82.5385V33.4615Z" fill="white"/>
<path d="M21.7585 50V41.2727H27.5369V42.794H23.6037V44.8736H27.1534V46.3949H23.6037V50H21.7585ZM31.2464 50.1278C30.5732 50.1278 29.9936 49.9915 29.5078 49.7188C29.0249 49.4432 28.6527 49.054 28.3913 48.5511C28.13 48.0455 27.9993 47.4474 27.9993 46.7571C27.9993 46.0838 28.13 45.4929 28.3913 44.9844C28.6527 44.4759 29.0206 44.0795 29.495 43.7955C29.9723 43.5114 30.532 43.3693 31.174 43.3693C31.6058 43.3693 32.0078 43.4389 32.38 43.5781C32.755 43.7145 33.0817 43.9205 33.3601 44.196C33.6413 44.4716 33.8601 44.8182 34.0163 45.2358C34.1726 45.6506 34.2507 46.1364 34.2507 46.6932V47.1918H28.7237V46.0668H32.5419C32.5419 45.8054 32.4851 45.5739 32.3714 45.3722C32.2578 45.1705 32.1001 45.0128 31.8984 44.8991C31.6996 44.7827 31.468 44.7244 31.2038 44.7244C30.9283 44.7244 30.6839 44.7884 30.4709 44.9162C30.2607 45.0412 30.0959 45.2102 29.9766 45.4233C29.8572 45.6335 29.7962 45.8679 29.7933 46.1264V47.196C29.7933 47.5199 29.853 47.7997 29.9723 48.0355C30.0945 48.2713 30.2663 48.4531 30.4879 48.581C30.7095 48.7088 30.9723 48.7727 31.2763 48.7727C31.478 48.7727 31.6626 48.7443 31.8303 48.6875C31.9979 48.6307 32.1413 48.5455 32.2607 48.4318C32.38 48.3182 32.4709 48.179 32.5334 48.0142L34.2124 48.125C34.1271 48.5284 33.9524 48.8807 33.6882 49.1818C33.4268 49.4801 33.0888 49.7131 32.674 49.8807C32.2621 50.0455 31.7862 50.1278 31.2464 50.1278ZM37.3018 50.1236C36.8842 50.1236 36.5121 50.0511 36.1854 49.9062C35.8587 49.7585 35.6001 49.5412 35.4098 49.2543C35.2223 48.9645 35.1286 48.6037 35.1286 48.1719C35.1286 47.8082 35.1953 47.5028 35.3288 47.2557C35.4624 47.0085 35.6442 46.8097 35.8743 46.6591C36.1044 46.5085 36.3658 46.3949 36.6584 46.3182C36.9538 46.2415 37.2635 46.1875 37.5874 46.1562C37.968 46.1165 38.2749 46.0795 38.5078 46.0455C38.7408 46.0085 38.9098 45.9545 39.0149 45.8835C39.12 45.8125 39.1726 45.7074 39.1726 45.5682V45.5426C39.1726 45.2727 39.0874 45.0639 38.9169 44.9162C38.7493 44.7685 38.5107 44.6946 38.201 44.6946C37.8743 44.6946 37.6143 44.767 37.4212 44.9119C37.228 45.054 37.1001 45.233 37.0376 45.4489L35.3587 45.3125C35.4439 44.9148 35.6115 44.571 35.8615 44.2812C36.1115 43.9886 36.4339 43.7642 36.8288 43.608C37.2266 43.4489 37.6868 43.3693 38.2095 43.3693C38.5732 43.3693 38.9212 43.4119 39.2536 43.4972C39.5888 43.5824 39.8857 43.7145 40.1442 43.8935C40.4055 44.0724 40.6115 44.3026 40.7621 44.5838C40.9126 44.8622 40.9879 45.196 40.9879 45.5852V50H39.2663V49.0923H39.2152C39.1101 49.2969 38.9695 49.4773 38.7933 49.6335C38.6172 49.7869 38.4055 49.9077 38.1584 49.9957C37.9112 50.081 37.6257 50.1236 37.3018 50.1236ZM37.8217 48.8707C38.0888 48.8707 38.3246 48.8182 38.5291 48.7131C38.7337 48.6051 38.8942 48.4602 39.0107 48.2784C39.1271 48.0966 39.1854 47.8906 39.1854 47.6605V46.9659C39.1286 47.0028 39.0504 47.0369 38.951 47.0682C38.8544 47.0966 38.745 47.1236 38.6229 47.1491C38.5007 47.1719 38.3786 47.1932 38.2564 47.2131C38.1342 47.2301 38.0234 47.2457 37.924 47.2599C37.7109 47.2912 37.5249 47.3409 37.3658 47.4091C37.2067 47.4773 37.0831 47.5696 36.995 47.6861C36.907 47.7997 36.8629 47.9418 36.8629 48.1122C36.8629 48.3594 36.9524 48.5483 37.1314 48.679C37.3132 48.8068 37.5433 48.8707 37.8217 48.8707ZM45.8778 43.4545V44.8182H41.9361V43.4545H45.8778ZM42.831 41.8864H44.6463V47.9886C44.6463 48.1562 44.6719 48.2869 44.723 48.3807C44.7741 48.4716 44.8452 48.5355 44.9361 48.5724C45.0298 48.6094 45.1378 48.6278 45.2599 48.6278C45.3452 48.6278 45.4304 48.6207 45.5156 48.6065C45.6009 48.5895 45.6662 48.5767 45.7116 48.5682L45.9972 49.919C45.9063 49.9474 45.7784 49.9801 45.6136 50.017C45.4489 50.0568 45.2486 50.081 45.0128 50.0895C44.5753 50.1065 44.1918 50.0483 43.8622 49.9148C43.5355 49.7812 43.2813 49.5739 43.0994 49.2926C42.9176 49.0114 42.8281 48.6562 42.831 48.2273V41.8864ZM51.2578 47.2131V43.4545H53.0732V50H51.3303V48.8111H51.2621C51.1143 49.1946 50.8686 49.5028 50.5249 49.7358C50.1839 49.9687 49.7678 50.0852 49.2763 50.0852C48.8388 50.0852 48.4538 49.9858 48.1214 49.7869C47.7891 49.5881 47.5291 49.3054 47.3416 48.9389C47.157 48.5724 47.0632 48.1335 47.0604 47.6222V43.4545H48.8757V47.2983C48.8786 47.6847 48.9822 47.9901 49.1868 48.2145C49.3913 48.4389 49.6655 48.5511 50.0092 48.5511C50.228 48.5511 50.4325 48.5014 50.6229 48.402C50.8132 48.2997 50.9666 48.1491 51.0831 47.9503C51.2024 47.7514 51.2607 47.5057 51.2578 47.2131ZM54.5252 50V43.4545H56.2852V44.5966H56.3533C56.4727 44.1903 56.6729 43.8835 56.9542 43.6761C57.2354 43.4659 57.5593 43.3608 57.9258 43.3608C58.0167 43.3608 58.1147 43.3665 58.2198 43.3778C58.3249 43.3892 58.4173 43.4048 58.4968 43.4247V45.0355C58.4116 45.0099 58.2937 44.9872 58.1431 44.9673C57.9925 44.9474 57.8548 44.9375 57.7298 44.9375C57.4627 44.9375 57.2241 44.9957 57.0138 45.1122C56.8065 45.2259 56.6417 45.3849 56.5195 45.5895C56.4002 45.794 56.3406 46.0298 56.3406 46.2969V50H54.5252ZM62.1136 50.1278C61.4403 50.1278 60.8608 49.9915 60.375 49.7188C59.892 49.4432 59.5199 49.054 59.2585 48.5511C58.9972 48.0455 58.8665 47.4474 58.8665 46.7571C58.8665 46.0838 58.9972 45.4929 59.2585 44.9844C59.5199 44.4759 59.8878 44.0795 60.3622 43.7955C60.8395 43.5114 61.3991 43.3693 62.0412 43.3693C62.473 43.3693 62.875 43.4389 63.2472 43.5781C63.6222 43.7145 63.9489 43.9205 64.2273 44.196C64.5085 44.4716 64.7273 44.8182 64.8835 45.2358C65.0398 45.6506 65.1179 46.1364 65.1179 46.6932V47.1918H59.5909V46.0668H63.4091C63.4091 45.8054 63.3523 45.5739 63.2386 45.3722C63.125 45.1705 62.9673 45.0128 62.7656 44.8991C62.5668 44.7827 62.3352 44.7244 62.071 44.7244C61.7955 44.7244 61.5511 44.7884 61.3381 44.9162C61.1278 45.0412 60.9631 45.2102 60.8438 45.4233C60.7244 45.6335 60.6634 45.8679 60.6605 46.1264V47.196C60.6605 47.5199 60.7202 47.7997 60.8395 48.0355C60.9616 48.2713 61.1335 48.4531 61.3551 48.581C61.5767 48.7088 61.8395 48.7727 62.1435 48.7727C62.3452 48.7727 62.5298 48.7443 62.6974 48.6875C62.8651 48.6307 63.0085 48.5455 63.1278 48.4318C63.2472 48.3182 63.3381 48.179 63.4006 48.0142L65.0795 48.125C64.9943 48.5284 64.8196 48.8807 64.5554 49.1818C64.294 49.4801 63.956 49.7131 63.5412 49.8807C63.1293 50.0455 62.6534 50.1278 62.1136 50.1278ZM74.5259 45.321L72.864 45.4233C72.8356 45.2812 72.7745 45.1534 72.6808 45.0398C72.587 44.9233 72.4634 44.831 72.31 44.7628C72.1594 44.6918 71.979 44.6562 71.7688 44.6562C71.4876 44.6562 71.2504 44.7159 71.0572 44.8352C70.864 44.9517 70.7674 45.108 70.7674 45.304C70.7674 45.4602 70.8299 45.5923 70.9549 45.7003C71.0799 45.8082 71.2944 45.8949 71.5984 45.9602L72.783 46.1989C73.4194 46.3295 73.8938 46.5398 74.2063 46.8295C74.5188 47.1193 74.6751 47.5 74.6751 47.9716C74.6751 48.4006 74.5487 48.777 74.2958 49.1009C74.0458 49.4247 73.7021 49.6776 73.2646 49.8594C72.8299 50.0384 72.3285 50.1278 71.7603 50.1278C70.8938 50.1278 70.2035 49.9474 69.6893 49.5866C69.1779 49.223 68.8782 48.7287 68.7901 48.1037L70.5756 48.0099C70.6296 48.2741 70.7603 48.4759 70.9677 48.6151C71.1751 48.7514 71.4407 48.8196 71.7646 48.8196C72.0827 48.8196 72.3384 48.7585 72.5316 48.6364C72.7276 48.5114 72.8271 48.3509 72.8299 48.1548C72.8271 47.9901 72.7575 47.8551 72.6211 47.75C72.4847 47.642 72.2745 47.5597 71.9904 47.5028L70.8569 47.277C70.2177 47.1491 69.7418 46.9276 69.4293 46.6122C69.1197 46.2969 68.9648 45.8949 68.9648 45.4062C68.9648 44.9858 69.0785 44.6236 69.3058 44.3196C69.5359 44.0156 69.8583 43.7812 70.2731 43.6165C70.6907 43.4517 71.1793 43.3693 71.739 43.3693C72.5657 43.3693 73.2163 43.544 73.6907 43.8935C74.168 44.2429 74.4464 44.7187 74.5259 45.321ZM77.1094 50L75.3281 43.4545H77.1648L78.179 47.8523H78.2386L79.2955 43.4545H81.098L82.1719 47.8267H82.2273L83.2244 43.4545H85.0568L83.2798 50H81.358L80.233 45.8835H80.152L79.027 50H77.1094ZM86.0252 50V43.4545H87.8406V50H86.0252ZM86.9371 42.6108C86.6673 42.6108 86.4357 42.5213 86.2425 42.3423C86.0522 42.1605 85.957 41.9432 85.957 41.6903C85.957 41.4403 86.0522 41.2259 86.2425 41.0469C86.4357 40.8651 86.6673 40.7741 86.9371 40.7741C87.207 40.7741 87.4371 40.8651 87.6275 41.0469C87.8207 41.2259 87.9173 41.4403 87.9173 41.6903C87.9173 41.9432 87.8207 42.1605 87.6275 42.3423C87.4371 42.5213 87.207 42.6108 86.9371 42.6108ZM92.7763 43.4545V44.8182H88.8345V43.4545H92.7763ZM89.7294 41.8864H91.5447V47.9886C91.5447 48.1562 91.5703 48.2869 91.6214 48.3807C91.6726 48.4716 91.7436 48.5355 91.8345 48.5724C91.9283 48.6094 92.0362 48.6278 92.1584 48.6278C92.2436 48.6278 92.3288 48.6207 92.4141 48.6065C92.4993 48.5895 92.5646 48.5767 92.6101 48.5682L92.8956 49.919C92.8047 49.9474 92.6768 49.9801 92.5121 50.017C92.3473 50.0568 92.147 50.081 91.9112 50.0895C91.4737 50.1065 91.0902 50.0483 90.7607 49.9148C90.4339 49.7812 90.1797 49.5739 89.9979 49.2926C89.8161 49.0114 89.7266 48.6562 89.7294 48.2273V41.8864ZM96.8459 50.1278C96.1754 50.1278 95.5987 49.9858 95.1158 49.7017C94.6357 49.4148 94.2663 49.017 94.0078 48.5085C93.7521 48 93.6243 47.4148 93.6243 46.7528C93.6243 46.0824 93.7536 45.4943 94.0121 44.9886C94.2734 44.4801 94.6442 44.0838 95.1243 43.7997C95.6044 43.5128 96.1754 43.3693 96.8374 43.3693C97.4084 43.3693 97.9084 43.473 98.3374 43.6804C98.7663 43.8878 99.1058 44.179 99.3558 44.554C99.6058 44.929 99.7436 45.3693 99.7692 45.875H98.0561C98.0078 45.5483 97.88 45.2855 97.6726 45.0866C97.468 44.8849 97.1996 44.7841 96.8672 44.7841C96.5859 44.7841 96.3402 44.8608 96.13 45.0142C95.9226 45.1648 95.7607 45.3849 95.6442 45.6747C95.5277 45.9645 95.4695 46.3153 95.4695 46.7273C95.4695 47.1449 95.5263 47.5 95.6399 47.7926C95.7564 48.0852 95.9197 48.3082 96.13 48.4616C96.3402 48.6151 96.5859 48.6918 96.8672 48.6918C97.0746 48.6918 97.2607 48.6491 97.4254 48.5639C97.593 48.4787 97.7308 48.3551 97.8388 48.1932C97.9496 48.0284 98.022 47.831 98.0561 47.6009H99.7692C99.7408 48.1009 99.6044 48.5412 99.3601 48.9219C99.1186 49.2997 98.7848 49.5952 98.3587 49.8082C97.9325 50.0213 97.4283 50.1278 96.8459 50.1278ZM102.747 46.2159V50H100.931V41.2727H102.696V44.6094H102.772C102.92 44.223 103.159 43.9205 103.488 43.7017C103.818 43.4801 104.231 43.3693 104.728 43.3693C105.183 43.3693 105.579 43.4688 105.917 43.6676C106.258 43.8636 106.522 44.1463 106.71 44.5156C106.9 44.8821 106.994 45.321 106.991 45.8324V50H105.176V46.1562C105.179 45.7528 105.076 45.4389 104.869 45.2145C104.664 44.9901 104.377 44.8778 104.008 44.8778C103.761 44.8778 103.542 44.9304 103.352 45.0355C103.164 45.1406 103.017 45.294 102.909 45.4957C102.804 45.6946 102.75 45.9347 102.747 46.2159Z" fill="#032B3A"/>
<path d="M24.2812 74H21.9247V66.3636H24.3857C25.1264 66.3636 25.7603 66.5165 26.2873 66.8223C26.8143 67.1255 27.2182 67.5618 27.4991 68.131C27.78 68.6978 27.9205 69.3764 27.9205 70.1669C27.9205 70.9624 27.7788 71.6472 27.4954 72.2214C27.212 72.7931 26.7994 73.2331 26.2575 73.5414C25.7156 73.8471 25.0568 74 24.2812 74ZM22.8494 73.1797H24.2216C24.853 73.1797 25.3762 73.0579 25.7914 72.8143C26.2065 72.5707 26.516 72.2239 26.7198 71.774C26.9237 71.324 27.0256 70.7884 27.0256 70.1669C27.0256 69.5504 26.9249 69.0197 26.7235 68.5748C26.5222 68.1273 26.2214 67.7843 25.8212 67.5456C25.421 67.3045 24.9226 67.1839 24.326 67.1839H22.8494V73.1797ZM31.7536 74.1193C31.2017 74.1193 30.7257 73.9975 30.3255 73.7539C29.9277 73.5078 29.6207 73.1648 29.4045 72.7248C29.1907 72.2823 29.0838 71.7678 29.0838 71.1811C29.0838 70.5945 29.1907 70.0774 29.4045 69.63C29.6207 69.18 29.9215 68.8295 30.3068 68.5785C30.6946 68.3249 31.147 68.1982 31.6641 68.1982C31.9624 68.1982 32.2569 68.2479 32.5478 68.3473C32.8386 68.4467 33.1033 68.6083 33.342 68.832C33.5806 69.0533 33.7708 69.3466 33.9125 69.712C34.0542 70.0774 34.125 70.5273 34.125 71.0618V71.4347H29.7102V70.674H33.2301C33.2301 70.3509 33.1655 70.0625 33.0362 69.8089C32.9094 69.5554 32.728 69.3553 32.4918 69.2086C32.2582 69.062 31.9822 68.9886 31.6641 68.9886C31.3136 68.9886 31.0103 69.0756 30.7543 69.2496C30.5007 69.4212 30.3056 69.6449 30.1689 69.9208C30.0321 70.1967 29.9638 70.4925 29.9638 70.8082V71.3153C29.9638 71.7479 30.0384 72.1145 30.1875 72.4153C30.3391 72.7136 30.5492 72.9411 30.8176 73.0977C31.0861 73.2518 31.3981 73.3288 31.7536 73.3288C31.9847 73.3288 32.1935 73.2965 32.38 73.2319C32.5689 73.1648 32.7317 73.0653 32.8684 72.9336C33.0051 72.7994 33.1108 72.6328 33.1854 72.4339L34.0355 72.6726C33.946 72.9609 33.7956 73.2145 33.5843 73.4332C33.373 73.6495 33.112 73.8185 32.8013 73.9403C32.4906 74.0597 32.1413 74.1193 31.7536 74.1193ZM39.5204 69.5554L38.7299 69.7791C38.6802 69.6474 38.6069 69.5194 38.5099 69.3951C38.4155 69.2683 38.2862 69.1639 38.1222 69.0819C37.9581 68.9998 37.748 68.9588 37.492 68.9588C37.1415 68.9588 36.8494 69.0396 36.6158 69.2012C36.3846 69.3603 36.269 69.5629 36.269 69.8089C36.269 70.0277 36.3485 70.2005 36.5076 70.3272C36.6667 70.454 36.9153 70.5597 37.2534 70.6442L38.1035 70.853C38.6156 70.9773 38.9972 71.1674 39.2482 71.4235C39.4993 71.677 39.6248 72.0039 39.6248 72.4041C39.6248 72.7322 39.5304 73.0256 39.3414 73.2841C39.155 73.5426 38.894 73.7464 38.5584 73.8956C38.2228 74.0447 37.8326 74.1193 37.3876 74.1193C36.8034 74.1193 36.32 73.9925 35.9371 73.739C35.5543 73.4854 35.312 73.1151 35.21 72.6278L36.0453 72.419C36.1248 72.7273 36.2752 72.9585 36.4964 73.1126C36.7202 73.2667 37.0123 73.3438 37.3727 73.3438C37.7828 73.3438 38.1085 73.2567 38.3496 73.0827C38.5932 72.9062 38.715 72.695 38.715 72.4489C38.715 72.25 38.6454 72.0835 38.5062 71.9492C38.367 71.8125 38.1532 71.7106 37.8649 71.6435L36.9103 71.4197C36.3858 71.2955 36.0005 71.1028 35.7544 70.8418C35.5108 70.5783 35.389 70.2489 35.389 69.8537C35.389 69.5305 35.4798 69.2447 35.6612 68.9961C35.8452 68.7475 36.095 68.5524 36.4107 68.4107C36.7289 68.269 37.0893 68.1982 37.492 68.1982C38.0588 68.1982 38.5037 68.3224 38.8269 68.571C39.1525 68.8196 39.3837 69.1477 39.5204 69.5554ZM43.2761 74.1193C42.7392 74.1193 42.2769 73.9925 41.8891 73.739C41.5013 73.4854 41.203 73.1362 40.9942 72.6912C40.7854 72.2463 40.681 71.7379 40.681 71.1662C40.681 70.5845 40.7879 70.0712 41.0016 69.6262C41.2179 69.1788 41.5187 68.8295 41.904 68.5785C42.2918 68.3249 42.7442 68.1982 43.2612 68.1982C43.6639 68.1982 44.0269 68.2727 44.35 68.4219C44.6732 68.571 44.9379 68.7798 45.1442 69.0483C45.3505 69.3168 45.4786 69.63 45.5283 69.9879H44.6483C44.5812 69.7269 44.432 69.4957 44.2009 69.2944C43.9722 69.0906 43.6639 68.9886 43.2761 68.9886C42.9331 68.9886 42.6323 69.0781 42.3738 69.2571C42.1178 69.4336 41.9177 69.6834 41.7735 70.0066C41.6318 70.3272 41.5609 70.7038 41.5609 71.1364C41.5609 71.5788 41.6305 71.9641 41.7698 72.2923C41.9114 72.6204 42.1103 72.8752 42.3663 73.0566C42.6249 73.2381 42.9281 73.3288 43.2761 73.3288C43.5048 73.3288 43.7124 73.2891 43.8988 73.2095C44.0853 73.13 44.2431 73.0156 44.3724 72.8665C44.5016 72.7173 44.5936 72.5384 44.6483 72.3295H45.5283C45.4786 72.6676 45.3555 72.9721 45.1591 73.2431C44.9652 73.5115 44.708 73.7253 44.3873 73.8844C44.0691 74.041 43.6987 74.1193 43.2761 74.1193ZM46.8147 74V68.2727H47.6648V69.1378H47.7245C47.8289 68.8544 48.0178 68.6245 48.2912 68.448C48.5647 68.2715 48.8729 68.1832 49.216 68.1832C49.2806 68.1832 49.3614 68.1845 49.4583 68.187C49.5553 68.1895 49.6286 68.1932 49.6783 68.1982V69.093C49.6485 69.0856 49.5801 69.0744 49.4732 69.0595C49.3688 69.0421 49.2582 69.0334 49.1414 69.0334C48.863 69.0334 48.6144 69.0918 48.3956 69.2086C48.1794 69.323 48.0079 69.4821 47.8811 69.6859C47.7568 69.8873 47.6946 70.1172 47.6946 70.3757V74H46.8147ZM50.7214 74V68.2727H51.6014V74H50.7214ZM51.1689 67.3182C50.9973 67.3182 50.8494 67.2598 50.7251 67.1429C50.6033 67.0261 50.5424 66.8857 50.5424 66.7216C50.5424 66.5575 50.6033 66.4171 50.7251 66.3002C50.8494 66.1834 50.9973 66.125 51.1689 66.125C51.3404 66.125 51.487 66.1834 51.6088 66.3002C51.7331 66.4171 51.7953 66.5575 51.7953 66.7216C51.7953 66.8857 51.7331 67.0261 51.6088 67.1429C51.487 67.2598 51.3404 67.3182 51.1689 67.3182ZM53.2131 76.1477V68.2727H54.0633V69.1825H54.1677C54.2323 69.0831 54.3218 68.9563 54.4361 68.8022C54.553 68.6456 54.7195 68.5064 54.9358 68.3846C55.1545 68.2603 55.4503 68.1982 55.8232 68.1982C56.3054 68.1982 56.7305 68.3187 57.0984 68.5598C57.4663 68.801 57.7534 69.1428 57.9597 69.5852C58.1661 70.0277 58.2692 70.5497 58.2692 71.1513C58.2692 71.7578 58.1661 72.2836 57.9597 72.7285C57.7534 73.171 57.4676 73.514 57.1021 73.7576C56.7367 73.9988 56.3154 74.1193 55.8381 74.1193C55.4702 74.1193 55.1756 74.0584 54.9544 73.9366C54.7332 73.8123 54.5629 73.6719 54.4436 73.5153C54.3243 73.3562 54.2323 73.2244 54.1677 73.12H54.0931V76.1477H53.2131ZM54.0782 71.1364C54.0782 71.5689 54.1416 71.9505 54.2683 72.2811C54.3951 72.6092 54.5803 72.8665 54.8239 73.0529C55.0675 73.2369 55.3658 73.3288 55.7188 73.3288C56.0867 73.3288 56.3937 73.2319 56.6398 73.038C56.8884 72.8416 57.0748 72.5781 57.1991 72.2475C57.3259 71.9144 57.3892 71.544 57.3892 71.1364C57.3892 70.7337 57.3271 70.3707 57.2028 70.0476C57.081 69.7219 56.8958 69.4647 56.6472 69.2757C56.4011 69.0843 56.0917 68.9886 55.7188 68.9886C55.3608 68.9886 55.0601 69.0794 54.8165 69.2608C54.5728 69.4398 54.3889 69.6909 54.2646 70.014C54.1403 70.3347 54.0782 70.7088 54.0782 71.1364ZM62.1023 68.2727V69.0185H59.1343V68.2727H62.1023ZM59.9993 66.9006H60.8793V72.3594C60.8793 72.608 60.9153 72.7944 60.9874 72.9187C61.062 73.0405 61.1565 73.1225 61.2708 73.1648C61.3877 73.2045 61.5107 73.2244 61.64 73.2244C61.7369 73.2244 61.8165 73.2195 61.8786 73.2095C61.9407 73.1971 61.9905 73.1871 62.0277 73.1797L62.2067 73.9702C62.1471 73.9925 62.0638 74.0149 61.9569 74.0373C61.85 74.0621 61.7145 74.0746 61.5505 74.0746C61.3019 74.0746 61.0583 74.0211 60.8196 73.9142C60.5835 73.8074 60.3871 73.6445 60.2305 73.4258C60.0764 73.207 59.9993 72.9311 59.9993 72.598V66.9006ZM63.426 74V68.2727H64.306V74H63.426ZM63.8734 67.3182C63.7019 67.3182 63.554 67.2598 63.4297 67.1429C63.3079 67.0261 63.247 66.8857 63.247 66.7216C63.247 66.5575 63.3079 66.4171 63.4297 66.3002C63.554 66.1834 63.7019 66.125 63.8734 66.125C64.045 66.125 64.1916 66.1834 64.3134 66.3002C64.4377 66.4171 64.4999 66.5575 64.4999 66.7216C64.4999 66.8857 64.4377 67.0261 64.3134 67.1429C64.1916 67.2598 64.045 67.3182 63.8734 67.3182ZM68.2444 74.1193C67.7274 74.1193 67.2737 73.9963 66.8834 73.7502C66.4956 73.5041 66.1924 73.1598 65.9736 72.7173C65.7574 72.2749 65.6492 71.7578 65.6492 71.1662C65.6492 70.5696 65.7574 70.0488 65.9736 69.6039C66.1924 69.1589 66.4956 68.8134 66.8834 68.5673C67.2737 68.3212 67.7274 68.1982 68.2444 68.1982C68.7615 68.1982 69.2139 68.3212 69.6017 68.5673C69.9919 68.8134 70.2952 69.1589 70.5115 69.6039C70.7302 70.0488 70.8396 70.5696 70.8396 71.1662C70.8396 71.7578 70.7302 72.2749 70.5115 72.7173C70.2952 73.1598 69.9919 73.5041 69.6017 73.7502C69.2139 73.9963 68.7615 74.1193 68.2444 74.1193ZM68.2444 73.3288C68.6372 73.3288 68.9603 73.2282 69.2139 73.0268C69.4674 72.8255 69.6551 72.5607 69.7769 72.2326C69.8987 71.9045 69.9596 71.549 69.9596 71.1662C69.9596 70.7834 69.8987 70.4267 69.7769 70.0961C69.6551 69.7654 69.4674 69.4982 69.2139 69.2944C68.9603 69.0906 68.6372 68.9886 68.2444 68.9886C67.8517 68.9886 67.5285 69.0906 67.2749 69.2944C67.0214 69.4982 66.8337 69.7654 66.7119 70.0961C66.5901 70.4267 66.5292 70.7834 66.5292 71.1662C66.5292 71.549 66.5901 71.9045 66.7119 72.2326C66.8337 72.5607 67.0214 72.8255 67.2749 73.0268C67.5285 73.2282 67.8517 73.3288 68.2444 73.3288ZM73.0628 70.5547V74H72.1828V68.2727H73.033V69.1676H73.1076C73.2418 68.8768 73.4456 68.6431 73.7191 68.4666C73.9925 68.2876 74.3455 68.1982 74.778 68.1982C75.1658 68.1982 75.5051 68.2777 75.7959 68.4368C76.0868 68.5934 76.313 68.832 76.4746 69.1527C76.6361 69.4709 76.7169 69.8736 76.7169 70.3608V74H75.837V70.4205C75.837 69.9705 75.7201 69.62 75.4865 69.369C75.2528 69.1154 74.9321 68.9886 74.5245 68.9886C74.2436 68.9886 73.9925 69.0495 73.7713 69.1713C73.5525 69.2931 73.3797 69.4709 73.253 69.7045C73.1262 69.9382 73.0628 70.2216 73.0628 70.5547ZM83.6048 74.1193C83.0877 74.1193 82.6341 73.9963 82.2438 73.7502C81.856 73.5041 81.5527 73.1598 81.334 72.7173C81.1177 72.2749 81.0096 71.7578 81.0096 71.1662C81.0096 70.5696 81.1177 70.0488 81.334 69.6039C81.5527 69.1589 81.856 68.8134 82.2438 68.5673C82.6341 68.3212 83.0877 68.1982 83.6048 68.1982C84.1218 68.1982 84.5742 68.3212 84.962 68.5673C85.3523 68.8134 85.6555 69.1589 85.8718 69.6039C86.0906 70.0488 86.1999 70.5696 86.1999 71.1662C86.1999 71.7578 86.0906 72.2749 85.8718 72.7173C85.6555 73.1598 85.3523 73.5041 84.962 73.7502C84.5742 73.9963 84.1218 74.1193 83.6048 74.1193ZM83.6048 73.3288C83.9975 73.3288 84.3207 73.2282 84.5742 73.0268C84.8278 72.8255 85.0154 72.5607 85.1373 72.2326C85.2591 71.9045 85.32 71.549 85.32 71.1662C85.32 70.7834 85.2591 70.4267 85.1373 70.0961C85.0154 69.7654 84.8278 69.4982 84.5742 69.2944C84.3207 69.0906 83.9975 68.9886 83.6048 68.9886C83.212 68.9886 82.8888 69.0906 82.6353 69.2944C82.3817 69.4982 82.1941 69.7654 82.0723 70.0961C81.9505 70.4267 81.8896 70.7834 81.8896 71.1662C81.8896 71.549 81.9505 71.9045 82.0723 72.2326C82.1941 72.5607 82.3817 72.8255 82.6353 73.0268C82.8888 73.2282 83.212 73.3288 83.6048 73.3288ZM90.0936 68.2727V69.0185H87.0063V68.2727H90.0936ZM87.931 74V67.4822C87.931 67.1541 88.008 66.8807 88.1622 66.6619C88.3163 66.4432 88.5164 66.2791 88.7625 66.1697C89.0086 66.0604 89.2683 66.0057 89.5418 66.0057C89.758 66.0057 89.9345 66.0231 90.0712 66.0579C90.208 66.0927 90.3099 66.125 90.377 66.1548L90.1234 66.9155C90.0787 66.9006 90.0166 66.8819 89.937 66.8596C89.86 66.8372 89.758 66.826 89.6313 66.826C89.3404 66.826 89.1304 66.8993 89.0011 67.046C88.8743 67.1926 88.8109 67.4077 88.8109 67.6911V74H87.931ZM96.7708 68.2727V69.0185H93.8027V68.2727H96.7708ZM94.6678 66.9006H95.5478V72.3594C95.5478 72.608 95.5838 72.7944 95.6559 72.9187C95.7305 73.0405 95.8249 73.1225 95.9393 73.1648C96.0561 73.2045 96.1792 73.2244 96.3084 73.2244C96.4054 73.2244 96.4849 73.2195 96.5471 73.2095C96.6092 73.1971 96.6589 73.1871 96.6962 73.1797L96.8752 73.9702C96.8155 73.9925 96.7322 74.0149 96.6254 74.0373C96.5185 74.0621 96.383 74.0746 96.2189 74.0746C95.9703 74.0746 95.7267 74.0211 95.4881 73.9142C95.252 73.8074 95.0556 73.6445 94.899 73.4258C94.7449 73.207 94.6678 72.9311 94.6678 72.598V66.9006ZM99.0975 70.5547V74H98.2175V66.3636H99.0975V69.1676H99.1721C99.3063 68.8718 99.5076 68.6369 99.7761 68.4629C100.047 68.2864 100.407 68.1982 100.857 68.1982C101.248 68.1982 101.589 68.2765 101.883 68.4331C102.176 68.5872 102.404 68.8246 102.565 69.1452C102.729 69.4634 102.811 69.8686 102.811 70.3608V74H101.931V70.4205C101.931 69.9656 101.813 69.6138 101.577 69.3652C101.343 69.1142 101.019 68.9886 100.604 68.9886C100.316 68.9886 100.057 69.0495 99.8283 69.1713C99.6021 69.2931 99.4231 69.4709 99.2914 69.7045C99.1621 69.9382 99.0975 70.2216 99.0975 70.5547ZM106.822 74.1193C106.271 74.1193 105.795 73.9975 105.394 73.7539C104.997 73.5078 104.69 73.1648 104.473 72.7248C104.26 72.2823 104.153 71.7678 104.153 71.1811C104.153 70.5945 104.26 70.0774 104.473 69.63C104.69 69.18 104.99 68.8295 105.376 68.5785C105.763 68.3249 106.216 68.1982 106.733 68.1982C107.031 68.1982 107.326 68.2479 107.617 68.3473C107.907 68.4467 108.172 68.6083 108.411 68.832C108.649 69.0533 108.84 69.3466 108.981 69.712C109.123 70.0774 109.194 70.5273 109.194 71.0618V71.4347H104.779V70.674H108.299C108.299 70.3509 108.234 70.0625 108.105 69.8089C107.978 69.5554 107.797 69.3553 107.561 69.2086C107.327 69.062 107.051 68.9886 106.733 68.9886C106.382 68.9886 106.079 69.0756 105.823 69.2496C105.57 69.4212 105.374 69.6449 105.238 69.9208C105.101 70.1967 105.033 70.4925 105.033 70.8082V71.3153C105.033 71.7479 105.107 72.1145 105.256 72.4153C105.408 72.7136 105.618 72.9411 105.886 73.0977C106.155 73.2518 106.467 73.3288 106.822 73.3288C107.054 73.3288 107.262 73.2965 107.449 73.2319C107.638 73.1648 107.801 73.0653 107.937 72.9336C108.074 72.7994 108.18 72.6328 108.254 72.4339L109.104 72.6726C109.015 72.9609 108.864 73.2145 108.653 73.4332C108.442 73.6495 108.181 73.8185 107.87 73.9403C107.559 74.0597 107.21 74.1193 106.822 74.1193ZM116.036 68.2727V69.0185H112.949V68.2727H116.036ZM113.873 74V67.4822C113.873 67.1541 113.95 66.8807 114.105 66.6619C114.259 66.4432 114.459 66.2791 114.705 66.1697C114.951 66.0604 115.211 66.0057 115.484 66.0057C115.7 66.0057 115.877 66.0231 116.014 66.0579C116.15 66.0927 116.252 66.125 116.319 66.1548L116.066 66.9155C116.021 66.9006 115.959 66.8819 115.879 66.8596C115.802 66.8372 115.7 66.826 115.574 66.826C115.283 66.826 115.073 66.8993 114.943 67.046C114.817 67.1926 114.753 67.4077 114.753 67.6911V74H113.873ZM119.435 74.1193C118.883 74.1193 118.407 73.9975 118.007 73.7539C117.609 73.5078 117.302 73.1648 117.086 72.7248C116.872 72.2823 116.765 71.7678 116.765 71.1811C116.765 70.5945 116.872 70.0774 117.086 69.63C117.302 69.18 117.603 68.8295 117.988 68.5785C118.376 68.3249 118.828 68.1982 119.345 68.1982C119.644 68.1982 119.938 68.2479 120.229 68.3473C120.52 68.4467 120.784 68.6083 121.023 68.832C121.262 69.0533 121.452 69.3466 121.594 69.712C121.735 70.0774 121.806 70.5273 121.806 71.0618V71.4347H117.391V70.674H120.911C120.911 70.3509 120.847 70.0625 120.717 69.8089C120.591 69.5554 120.409 69.3553 120.173 69.2086C119.939 69.062 119.663 68.9886 119.345 68.9886C118.995 68.9886 118.691 69.0756 118.435 69.2496C118.182 69.4212 117.987 69.6449 117.85 69.9208C117.713 70.1967 117.645 70.4925 117.645 70.8082V71.3153C117.645 71.7479 117.72 72.1145 117.869 72.4153C118.02 72.7136 118.23 72.9411 118.499 73.0977C118.767 73.2518 119.079 73.3288 119.435 73.3288C119.666 73.3288 119.875 73.2965 120.061 73.2319C120.25 73.1648 120.413 73.0653 120.55 72.9336C120.686 72.7994 120.792 72.6328 120.867 72.4339L121.717 72.6726C121.627 72.9609 121.477 73.2145 121.265 73.4332C121.054 73.6495 120.793 73.8185 120.482 73.9403C120.172 74.0597 119.822 74.1193 119.435 74.1193ZM124.83 74.1342C124.467 74.1342 124.138 74.0659 123.842 73.9292C123.546 73.79 123.311 73.5898 123.137 73.3288C122.963 73.0653 122.876 72.7472 122.876 72.3743C122.876 72.0462 122.941 71.7802 123.07 71.5763C123.199 71.37 123.372 71.2085 123.588 71.0916C123.805 70.9748 124.043 70.8878 124.304 70.8306C124.568 70.771 124.833 70.7237 125.099 70.6889C125.447 70.6442 125.729 70.6106 125.945 70.5882C126.164 70.5634 126.323 70.5224 126.422 70.4652C126.524 70.408 126.575 70.3086 126.575 70.1669V70.1371C126.575 69.7692 126.474 69.4833 126.273 69.2795C126.074 69.0756 125.772 68.9737 125.367 68.9737C124.947 68.9737 124.618 69.0657 124.379 69.2496C124.14 69.4336 123.973 69.63 123.876 69.8388L123.04 69.5405C123.189 69.1925 123.388 68.9215 123.637 68.7276C123.888 68.5312 124.161 68.3945 124.457 68.3175C124.756 68.2379 125.049 68.1982 125.337 68.1982C125.521 68.1982 125.732 68.2205 125.971 68.2653C126.212 68.3075 126.445 68.3958 126.668 68.53C126.895 68.6642 127.082 68.8668 127.231 69.1378C127.381 69.4087 127.455 69.7717 127.455 70.2266V74H126.575V73.2244H126.53C126.471 73.3487 126.371 73.4817 126.232 73.6234C126.093 73.7651 125.908 73.8857 125.677 73.9851C125.445 74.0845 125.163 74.1342 124.83 74.1342ZM124.964 73.3438C125.312 73.3438 125.606 73.2754 125.844 73.1387C126.085 73.002 126.267 72.8255 126.389 72.6092C126.513 72.3929 126.575 72.1655 126.575 71.9268V71.1214C126.538 71.1662 126.456 71.2072 126.329 71.2445C126.205 71.2793 126.061 71.3104 125.897 71.3377C125.735 71.3626 125.577 71.3849 125.423 71.4048C125.271 71.4222 125.148 71.4371 125.054 71.4496C124.825 71.4794 124.611 71.5279 124.413 71.595C124.216 71.6596 124.057 71.7578 123.935 71.8896C123.816 72.0188 123.756 72.1953 123.756 72.419C123.756 72.7248 123.869 72.956 124.096 73.1126C124.324 73.2667 124.614 73.3438 124.964 73.3438ZM131.552 68.2727V69.0185H128.584V68.2727H131.552ZM129.449 66.9006H130.329V72.3594C130.329 72.608 130.365 72.7944 130.437 72.9187C130.512 73.0405 130.606 73.1225 130.721 73.1648C130.837 73.2045 130.96 73.2244 131.09 73.2244C131.187 73.2244 131.266 73.2195 131.328 73.2095C131.39 73.1971 131.44 73.1871 131.477 73.1797L131.656 73.9702C131.597 73.9925 131.513 74.0149 131.407 74.0373C131.3 74.0621 131.164 74.0746 131 74.0746C130.752 74.0746 130.508 74.0211 130.269 73.9142C130.033 73.8074 129.837 73.6445 129.68 73.4258C129.526 73.207 129.449 72.9311 129.449 72.598V66.9006ZM136.485 71.6584V68.2727H137.365V74H136.485V73.0305H136.425C136.291 73.3214 136.082 73.5687 135.799 73.7725C135.516 73.9739 135.158 74.0746 134.725 74.0746C134.367 74.0746 134.049 73.9963 133.771 73.8397C133.492 73.6806 133.273 73.4419 133.114 73.1238C132.955 72.8031 132.876 72.3991 132.876 71.9119V68.2727H133.756V71.8523C133.756 72.2699 133.873 72.603 134.106 72.8516C134.342 73.1001 134.643 73.2244 135.009 73.2244C135.227 73.2244 135.45 73.1685 135.676 73.0566C135.905 72.9448 136.096 72.7733 136.25 72.5421C136.407 72.3109 136.485 72.0163 136.485 71.6584ZM138.977 74V68.2727H139.827V69.1378H139.887C139.991 68.8544 140.18 68.6245 140.453 68.448C140.727 68.2715 141.035 68.1832 141.378 68.1832C141.443 68.1832 141.523 68.1845 141.62 68.187C141.717 68.1895 141.791 68.1932 141.84 68.1982V69.093C141.811 69.0856 141.742 69.0744 141.635 69.0595C141.531 69.0421 141.42 69.0334 141.303 69.0334C141.025 69.0334 140.777 69.0918 140.558 69.2086C140.341 69.323 140.17 69.4821 140.043 69.6859C139.919 69.8873 139.857 70.1172 139.857 70.3757V74H138.977ZM145.11 74.1193C144.559 74.1193 144.083 73.9975 143.682 73.7539C143.285 73.5078 142.978 73.1648 142.761 72.7248C142.548 72.2823 142.441 71.7678 142.441 71.1811C142.441 70.5945 142.548 70.0774 142.761 69.63C142.978 69.18 143.278 68.8295 143.664 68.5785C144.052 68.3249 144.504 68.1982 145.021 68.1982C145.319 68.1982 145.614 68.2479 145.905 68.3473C146.196 68.4467 146.46 68.6083 146.699 68.832C146.938 69.0533 147.128 69.3466 147.269 69.712C147.411 70.0774 147.482 70.5273 147.482 71.0618V71.4347H143.067V70.674H146.587C146.587 70.3509 146.522 70.0625 146.393 69.8089C146.266 69.5554 146.085 69.3553 145.849 69.2086C145.615 69.062 145.339 68.9886 145.021 68.9886C144.67 68.9886 144.367 69.0756 144.111 69.2496C143.858 69.4212 143.663 69.6449 143.526 69.9208C143.389 70.1967 143.321 70.4925 143.321 70.8082V71.3153C143.321 71.7479 143.395 72.1145 143.544 72.4153C143.696 72.7136 143.906 72.9411 144.175 73.0977C144.443 73.2518 144.755 73.3288 145.11 73.3288C145.342 73.3288 145.55 73.2965 145.737 73.2319C145.926 73.1648 146.089 73.0653 146.225 72.9336C146.362 72.7994 146.468 72.6328 146.542 72.4339L147.392 72.6726C147.303 72.9609 147.153 73.2145 146.941 73.4332C146.73 73.6495 146.469 73.8185 146.158 73.9403C145.848 74.0597 145.498 74.1193 145.11 74.1193Z" fill="#233D48"/>
<path d="M175.5 39.75H193.5C198.056 39.75 201.75 43.4437 201.75 48C201.75 52.5563 198.056 56.25 193.5 56.25H175.5C170.944 56.25 167.25 52.5563 167.25 48C167.25 43.4437 170.944 39.75 175.5 39.75Z" fill="#388523"/>
<path d="M175.5 39.75H193.5C198.056 39.75 201.75 43.4437 201.75 48C201.75 52.5563 198.056 56.25 193.5 56.25H175.5C170.944 56.25 167.25 52.5563 167.25 48C167.25 43.4437 170.944 39.75 175.5 39.75Z" stroke="#388523" stroke-width="1.5"/>
<circle cx="193.5" cy="48" r="6" fill="white"/>
</svg>
