<svg width="224" height="117" viewBox="0 0 224 117" fill="none" xmlns="http://www.w3.org/2000/svg">
<g clip-path="url(#clip0_2417_19501)">
<path d="M42 47.8897C42 42.9205 45.9998 38.8921 50.9337 38.8921H72.1612C77.0954 38.8921 81.0952 42.9205 81.0952 47.8897V69.2688C81.0952 74.2381 77.0954 78.2666 72.1612 78.2666H50.9337C45.9998 78.2666 42 74.2381 42 69.2688V47.8897Z" fill="black"/>
<path d="M52.3848 67.8078C52.3848 65.2595 54.436 63.1936 56.9663 63.1936H61.5475V67.8078C61.5475 70.3562 59.4965 72.4221 56.9663 72.4221C54.436 72.4221 52.3848 70.3562 52.3848 67.8078Z" fill="#24CB71"/>
<path d="M61.5474 44.7368V53.965H66.1289C68.6591 53.965 70.7104 51.8994 70.7104 49.351C70.7104 46.8027 68.6591 44.7368 66.1289 44.7368H61.5474Z" fill="#FF7237"/>
<path d="M66.0907 63.1935C68.621 63.1935 70.6722 61.1276 70.6722 58.5793C70.6722 56.0309 68.621 53.9651 66.0907 53.9651C63.5605 53.9651 61.5093 56.0309 61.5093 58.5793C61.5093 61.1276 63.5605 63.1935 66.0907 63.1935Z" fill="#00B6FF"/>
<path d="M52.3848 49.351C52.3848 51.8994 54.436 53.9653 56.9663 53.9653H61.5475V44.7368H56.9663C54.436 44.7368 52.3848 46.8027 52.3848 49.351Z" fill="#FF3737"/>
<path d="M52.3848 58.5793C52.3848 61.1277 54.436 63.1936 56.9663 63.1936H61.5475V53.9653H56.9663C54.436 53.9653 52.3848 56.031 52.3848 58.5793Z" fill="#874FFF"/>
<path d="M173.335 72.156C172.13 72.156 171.048 71.9214 170.09 71.4523C169.156 70.9833 168.406 70.3536 167.84 69.5636C167.3 68.7489 167.029 67.8106 167.029 66.7489C167.029 65.3664 167.472 64.243 168.357 63.3788C169.242 62.5147 170.508 61.9223 172.155 61.6013L176.469 60.7123C177.329 60.5396 177.919 60.2679 178.239 59.8976C178.558 59.5273 178.718 58.9842 178.718 58.2682L179.161 62.6011L172.966 63.9344C172.13 64.1071 171.479 64.4158 171.012 64.8601C170.569 65.3047 170.348 65.9218 170.348 66.7119C170.348 67.5268 170.655 68.1809 171.27 68.6749C171.909 69.1686 172.769 69.4155 173.851 69.4155C174.736 69.4155 175.547 69.2179 176.284 68.8229C177.047 68.4279 177.636 67.8846 178.055 67.1935C178.497 66.4775 178.718 65.6627 178.718 64.7491V58.2682C178.718 57.3792 178.399 56.6881 177.759 56.1941C177.145 55.6758 176.297 55.4164 175.215 55.4164C173.839 55.4164 172.782 55.7621 172.044 56.4535C171.307 57.1448 170.876 58.1199 170.754 59.3792L167.509 58.9348C167.632 57.6262 168.025 56.5028 168.689 55.5647C169.352 54.6017 170.237 53.861 171.343 53.3426C172.45 52.824 173.765 52.5649 175.289 52.5649C177.452 52.5649 179.112 53.1203 180.267 54.2314C181.422 55.3424 182 56.7744 182 58.5273V71.6004H178.792V69.1932C178.472 70.008 177.821 70.7116 176.838 71.3043C175.879 71.872 174.711 72.156 173.335 72.156Z" fill="black"/>
<path d="M140.884 71.6004V53.1203H144.092V55.1944C144.338 54.4784 144.879 53.861 145.715 53.3426C146.55 52.824 147.521 52.5649 148.628 52.5649C149.709 52.5649 150.705 52.7994 151.614 53.2684C152.524 53.7377 153.114 54.4413 153.384 55.3794C153.704 54.5154 154.294 53.8364 155.154 53.3426C156.039 52.824 157.023 52.5649 158.104 52.5649C159.972 52.5649 161.398 53.108 162.381 54.1944C163.365 55.2807 163.856 56.8608 163.856 58.9348V71.6004H160.575V59.3792C160.575 58.1446 160.304 57.2188 159.763 56.6015C159.247 55.9597 158.485 55.6387 157.477 55.6387C156.371 55.6387 155.511 56.0338 154.896 56.8238C154.306 57.5892 154.011 58.7125 154.011 60.1939V71.6004H150.729V59.3792C150.729 58.1446 150.459 57.2188 149.918 56.6015C149.402 55.9597 148.64 55.6387 147.632 55.6387C146.526 55.6387 145.665 56.0338 145.051 56.8238C144.461 57.5892 144.166 58.7125 144.166 60.1939V71.6004H140.884Z" fill="black"/>
<path d="M128.336 78.2666C126.05 78.2666 124.194 77.7359 122.768 76.6742C121.342 75.6125 120.433 74.1311 120.04 72.23L123.248 71.5264C123.518 72.7361 124.096 73.6744 124.981 74.3411C125.866 75.0324 126.984 75.3781 128.336 75.3781C129.958 75.3781 131.175 74.9582 131.987 74.1188C132.822 73.3041 133.24 72.082 133.24 70.4523V67.5268C132.872 68.4402 132.183 69.1809 131.175 69.7487C130.192 70.3166 129.086 70.6006 127.857 70.6006C126.234 70.6006 124.809 70.2303 123.58 69.4896C122.35 68.7242 121.392 67.6625 120.703 66.3045C120.015 64.9467 119.671 63.3788 119.671 61.6013C119.671 59.7989 120.015 58.2188 120.703 56.8608C121.392 55.5028 122.338 54.4537 123.543 53.713C124.772 52.9476 126.21 52.5649 127.857 52.5649C129.086 52.5649 130.204 52.8487 131.212 53.4167C132.245 53.9597 132.945 54.6387 133.314 55.4535V53.1203H136.522V70.4523C136.522 72.082 136.202 73.4768 135.563 74.6374C134.924 75.8224 133.99 76.7235 132.761 77.3408C131.556 77.9579 130.081 78.2666 128.336 78.2666ZM128.262 67.6748C129.836 67.6748 131.089 67.1192 132.023 66.0082C132.982 64.8971 133.462 63.4283 133.462 61.6013C133.462 59.7496 132.982 58.2682 132.023 57.1571C131.065 56.0461 129.811 55.4905 128.262 55.4905C126.689 55.4905 125.423 56.0461 124.464 57.1571C123.53 58.2682 123.063 59.7496 123.063 61.6013C123.063 63.4283 123.543 64.8971 124.501 66.0082C125.46 67.1192 126.714 67.6748 128.262 67.6748Z" fill="black"/>
<path d="M113.048 71.5789V53.1204H116.33V71.6005L113.048 71.5789ZM113.011 50.7503V45.4915H116.367V50.7503H113.011Z" fill="black"/>
<path d="M94.1997 71.6005V45.4915H97.6658V71.6005H94.1997ZM94.9004 60.5644V57.4163H109.023V60.5644H94.9004ZM94.9004 48.6763V45.4915H110.387V48.6763H94.9004Z" fill="black"/>
</g>
<defs>
<clipPath id="clip0_2417_19501">
<path d="M0 8C0 3.58172 3.58172 0 8 0H216C220.418 0 224 3.58172 224 8V109C224 113.418 220.418 117 216 117H8C3.58172 117 0 113.418 0 109V8Z" fill="white"/>
</clipPath>
</defs>
</svg>
