<svg width="224" height="117" viewBox="0 0 224 117" fill="none" xmlns="http://www.w3.org/2000/svg">
<path d="M10 35C10 32.7909 11.7909 31 14 31H210C212.209 31 214 32.7909 214 35V81C214 83.2091 212.209 85 210 85H14C11.7909 85 10 83.2091 10 81V35Z" fill="white"/>
<path d="M18 58C18 49.1634 25.1634 42 34 42V42C42.8366 42 50 49.1634 50 58V58C50 66.8366 42.8366 74 34 74V74C25.1634 74 18 66.8366 18 58V58Z" fill="#DADFE2"/>
<g clip-path="url(#clip0_33_6241)">
<path d="M58 46C58 43.7909 59.7909 42 62 42H185C187.209 42 189 43.7909 189 46V50C189 52.2091 187.209 54 185 54H62C59.7909 54 58 52.2091 58 50V46Z" fill="#DADFE2"/>
<path d="M58 66C58 63.7909 59.7909 62 62 62H185C187.209 62 189 63.7909 189 66V70C189 72.2091 187.209 74 185 74H62C59.7909 74 58 72.2091 58 70V66Z" fill="#DADFE2"/>
</g>
<path d="M197 46C197 43.7909 198.791 42 201 42H202C204.209 42 206 43.7909 206 46V70C206 72.2091 204.209 74 202 74H201C198.791 74 197 72.2091 197 70V46Z" fill="#DADFE2"/>
<defs>
<clipPath id="clip0_33_6241">
<path d="M58 46C58 43.7909 59.7909 42 62 42H185C187.209 42 189 43.7909 189 46V70C189 72.2091 187.209 74 185 74H62C59.7909 74 58 72.2091 58 70V46Z" fill="white"/>
</clipPath>
</defs>
</svg>
