<svg width="224" height="117" viewBox="0 0 224 117" fill="none" xmlns="http://www.w3.org/2000/svg">
<path d="M52 7.5H171C172.933 7.5 174.5 9.067 174.5 11V23C174.5 24.933 172.933 26.5 171 26.5H52C50.067 26.5 48.5 24.933 48.5 23V11C48.5 9.067 50.067 7.5 52 7.5Z" fill="white" stroke="#DADFE2"/>
<path d="M52 35.5H171C172.933 35.5 174.5 37.067 174.5 39V51C174.5 52.933 172.933 54.5 171 54.5H52C50.067 54.5 48.5 52.933 48.5 51V39C48.5 37.067 50.067 35.5 52 35.5Z" fill="white" stroke="#DADFE2"/>
<path d="M52 63.5H171C172.933 63.5 174.5 65.067 174.5 67V79C174.5 80.933 172.933 82.5 171 82.5H52C50.067 82.5 48.5 80.933 48.5 79V67C48.5 65.067 50.067 63.5 52 63.5Z" fill="white" stroke="#DADFE2"/>
<path d="M48 95C48 92.7909 49.7909 91 52 91H171C173.209 91 175 92.7909 175 95V107C175 109.209 173.209 111 171 111H52C49.7909 111 48 109.209 48 107V95Z" fill="#388523"/>
</svg>
