<svg width="224" height="117" viewBox="0 0 224 117" fill="none" xmlns="http://www.w3.org/2000/svg">
<path d="M60.0459 65.3636V85H56.4887V68.8249H56.3736L51.7809 71.7589V68.4989L56.6613 65.3636H60.0459ZM72.2898 85.3739C70.711 85.3739 69.3559 84.9744 68.2245 84.1754C67.0995 83.37 66.2334 82.2099 65.6261 80.695C65.0253 79.1737 64.7248 77.3423 64.7248 75.201C64.7312 73.0597 65.0348 71.2379 65.6357 69.7358C66.2429 68.2273 67.1091 67.0767 68.2341 66.2841C69.3655 65.4915 70.7174 65.0952 72.2898 65.0952C73.8623 65.0952 75.2142 65.4915 76.3456 66.2841C77.477 67.0767 78.3431 68.2273 78.9439 69.7358C79.5512 71.2443 79.8548 73.0661 79.8548 75.201C79.8548 77.3487 79.5512 79.1832 78.9439 80.7045C78.3431 82.2195 77.477 83.3764 76.3456 84.1754C75.2206 84.9744 73.8687 85.3739 72.2898 85.3739ZM72.2898 82.3729C73.5171 82.3729 74.4855 81.7688 75.195 80.5607C75.9109 79.3462 76.2689 77.5597 76.2689 75.201C76.2689 73.6413 76.1059 72.331 75.7799 71.2699C75.4539 70.2088 74.9937 69.4098 74.3992 68.8729C73.8047 68.3295 73.1016 68.0579 72.2898 68.0579C71.0689 68.0579 70.1037 68.6651 69.3942 69.8796C68.6847 71.0877 68.3267 72.8615 68.3204 75.201C68.314 76.767 68.4706 78.0838 68.7902 79.1513C69.1162 80.2187 69.5764 81.0241 70.1709 81.5675C70.7653 82.1044 71.4716 82.3729 72.2898 82.3729ZM85.2169 82.6413C84.6353 82.6413 84.1367 82.4368 83.7212 82.0277C83.3057 81.6122 83.1012 81.1136 83.1076 80.532C83.1012 79.9567 83.3057 79.4645 83.7212 79.0554C84.1367 78.6463 84.6353 78.4418 85.2169 78.4418C85.7794 78.4418 86.2684 78.6463 86.6839 79.0554C87.1058 79.4645 87.3199 79.9567 87.3263 80.532C87.3199 80.9219 87.2176 81.2766 87.0195 81.5962C86.8277 81.9158 86.572 82.1715 86.2524 82.3633C85.9392 82.5487 85.5941 82.6413 85.2169 82.6413ZM85.2169 72.9094C84.6353 72.9094 84.1367 72.7049 83.7212 72.2958C83.3057 71.8803 83.1012 71.3817 83.1076 70.8001C83.1012 70.2248 83.3057 69.7326 83.7212 69.3235C84.1367 68.908 84.6353 68.7003 85.2169 68.7003C85.7794 68.7003 86.2684 68.908 86.6839 69.3235C87.1058 69.7326 87.3199 70.2248 87.3263 70.8001C87.3199 71.1836 87.2176 71.5352 87.0195 71.8548C86.8277 72.1744 86.572 72.43 86.2524 72.6218C85.9392 72.8136 85.5941 72.9094 85.2169 72.9094ZM98.1297 85.3739C96.5508 85.3739 95.1957 84.9744 94.0643 84.1754C92.9393 83.37 92.0732 82.2099 91.466 80.695C90.8651 79.1737 90.5647 77.3423 90.5647 75.201C90.5711 73.0597 90.8747 71.2379 91.4755 69.7358C92.0828 68.2273 92.9489 67.0767 94.0739 66.2841C95.2053 65.4915 96.5572 65.0952 98.1297 65.0952C99.7021 65.0952 101.054 65.4915 102.185 66.2841C103.317 67.0767 104.183 68.2273 104.784 69.7358C105.391 71.2443 105.695 73.0661 105.695 75.201C105.695 77.3487 105.391 79.1832 104.784 80.7045C104.183 82.2195 103.317 83.3764 102.185 84.1754C101.06 84.9744 99.7085 85.3739 98.1297 85.3739ZM98.1297 82.3729C99.3569 82.3729 100.325 81.7688 101.035 80.5607C101.751 79.3462 102.109 77.5597 102.109 75.201C102.109 73.6413 101.946 72.331 101.62 71.2699C101.294 70.2088 100.833 69.4098 100.239 68.8729C99.6446 68.3295 98.9415 68.0579 98.1297 68.0579C96.9088 68.0579 95.9436 68.6651 95.2341 69.8796C94.5245 71.0877 94.1666 72.8615 94.1602 75.201C94.1538 76.767 94.3104 78.0838 94.63 79.1513C94.956 80.2187 95.4162 81.0241 96.0107 81.5675C96.6052 82.1044 97.3115 82.3729 98.1297 82.3729ZM116.138 85.3739C114.56 85.3739 113.205 84.9744 112.073 84.1754C110.948 83.37 110.082 82.2099 109.475 80.695C108.874 79.1737 108.573 77.3423 108.573 75.201C108.58 73.0597 108.883 71.2379 109.484 69.7358C110.092 68.2273 110.958 67.0767 112.083 66.2841C113.214 65.4915 114.566 65.0952 116.138 65.0952C117.711 65.0952 119.063 65.4915 120.194 66.2841C121.326 67.0767 122.192 68.2273 122.793 69.7358C123.4 71.2443 123.703 73.0661 123.703 75.201C123.703 77.3487 123.4 79.1832 122.793 80.7045C122.192 82.2195 121.326 83.3764 120.194 84.1754C119.069 84.9744 117.717 85.3739 116.138 85.3739ZM116.138 82.3729C117.366 82.3729 118.334 81.7688 119.044 80.5607C119.76 79.3462 120.117 77.5597 120.117 75.201C120.117 73.6413 119.955 72.331 119.629 71.2699C119.303 70.2088 118.842 69.4098 118.248 68.8729C117.653 68.3295 116.95 68.0579 116.138 68.0579C114.918 68.0579 113.952 68.6651 113.243 69.8796C112.533 71.0877 112.175 72.8615 112.169 75.201C112.163 76.767 112.319 78.0838 112.639 79.1513C112.965 80.2187 113.425 81.0241 114.019 81.5675C114.614 82.1044 115.32 82.3729 116.138 82.3729ZM133.778 85V65.3636H141.142C142.65 65.3636 143.916 65.6449 144.939 66.2074C145.968 66.7699 146.744 67.5433 147.269 68.5277C147.799 69.5057 148.064 70.6179 148.064 71.8643C148.064 73.1236 147.799 74.2422 147.269 75.2202C146.738 76.1982 145.955 76.9684 144.919 77.5309C143.884 78.087 142.609 78.3651 141.094 78.3651H136.213V75.4407H140.614C141.496 75.4407 142.219 75.2873 142.781 74.9805C143.344 74.6737 143.759 74.2518 144.028 73.7148C144.303 73.1779 144.44 72.5611 144.44 71.8643C144.44 71.1676 144.303 70.554 144.028 70.0234C143.759 69.4929 143.341 69.0806 142.772 68.7866C142.209 68.4862 141.484 68.3359 140.595 68.3359H137.335V85H133.778ZM151.154 65.3636H155.507L161.337 79.5923H161.567L167.396 65.3636H171.749V85H168.336V71.5096H168.154L162.727 84.9425H160.176L154.75 71.4808H154.567V85H151.154V65.3636Z" fill="#032B3A"/>
<path d="M29.4984 77.8828C29.5142 77.8166 29.53 77.7504 29.5457 77.6843C29.5029 77.5314 29.4669 77.3831 29.4489 77.2416C29.3925 76.8674 29.3813 76.5708 29.4308 76.3814C29.3092 76.2878 29.1537 75.7927 29.0997 75.1926C29.0659 74.896 29.0388 74.5834 29.0186 74.2982C29.0028 74.0107 29.0276 73.7391 29.0321 73.5406C29.0343 73.3718 29.0388 73.1733 29.0433 72.9519C29.0478 72.8424 29.0433 72.7261 29.0546 72.6051C29.0681 72.4842 29.0816 72.3564 29.0952 72.2264C29.1199 71.9662 29.147 71.6901 29.174 71.4027C29.1808 71.3319 29.1853 71.2589 29.192 71.1859C29.2055 71.1129 29.2168 71.0399 29.2303 70.9668C29.2551 70.8185 29.2776 70.6702 29.3024 70.5196C29.325 70.369 29.3452 70.2184 29.3678 70.0656C29.388 69.9127 29.4038 69.7598 29.4421 69.6092C29.5052 69.308 29.5615 69.0046 29.6043 68.7034C29.6358 68.3999 29.7169 68.1147 29.7552 67.8272C29.8003 67.542 29.8228 67.259 29.8386 66.9875C29.8386 66.9898 29.8386 66.9943 29.8341 66.9966C29.9535 66.6863 30.0864 66.392 30.2058 66.1022C30.3342 65.7645 30.5009 65.4701 30.6519 65.1872C30.8051 64.9066 30.9335 64.6282 31.0754 64.3932C31.2196 64.1582 31.3503 63.9437 31.4674 63.7543C31.5823 63.5626 31.6792 63.3915 31.7558 63.2477C31.8414 63.1131 31.9045 63.0036 31.9428 62.9192C32.0194 62.7526 31.9968 62.6978 31.8459 62.7846C32.8619 61.4862 34.0537 60.4001 35.2928 59.4327L34.5628 59.2958C35.0179 58.99 35.4122 58.7299 35.7614 58.5131C36.1173 58.3146 36.4237 58.1504 36.6963 58.0134C37.2392 57.7282 37.656 57.5936 38.0368 57.4704C38.796 57.2263 39.4403 57.1441 40.819 56.7904C42.0739 56.0192 43.9302 55.2685 45.701 54.7095C46.5886 54.4403 47.4514 54.1984 48.2107 54.0295C48.9699 53.8447 49.6232 53.7238 50.0918 53.6508C50.3892 53.5504 50.8488 53.4089 51.6215 53.2538C51.1033 53.45 50.5874 53.6668 50.0738 53.8812C53.0566 53.0689 52.7614 53.4614 54.7372 53.0096C54.3384 53.1534 54.2844 53.1876 55.3725 52.8681C55.1405 52.9206 54.9377 52.964 54.7372 53.0096C54.9332 52.9389 55.2035 52.859 55.5099 52.7792L55.404 52.8613C55.7285 52.786 56.0821 52.7039 56.5012 52.5966C56.3908 52.5601 55.947 52.6605 55.5077 52.7792L55.8343 52.5282C58.139 51.4694 59.5921 52.1289 62.1378 51.5196C61.8878 51.5379 61.4665 51.5653 61.2029 51.6109C61.9193 51.4284 62.7709 51.061 63.5301 50.7986C64.2916 50.5385 64.9584 50.3696 65.2896 50.559C65.6185 50.4518 66.1457 50.4837 66.6616 50.5339L66.7922 50.5066C66.7539 50.5157 66.7134 50.5248 66.6773 50.5317C66.9995 50.5636 67.3149 50.6047 67.565 50.6275C67.8601 50.4723 68.1642 50.3103 68.5202 50.1392C71.1403 49.8471 73.6229 49.0599 76.0537 48.4005C78.4801 47.7411 80.8501 47.1866 83.121 47.3851L83.6143 46.9379C86.6805 46.9607 89.9021 46.5706 92.9885 46.3173C96.0726 46.0663 99.0149 45.934 101.423 46.4519C105.08 45.7104 106.294 46.0344 107.416 46.347C107.977 46.5021 108.517 46.6778 109.34 46.7371C109.75 46.7668 110.23 46.7691 110.818 46.7326C111.406 46.6983 112.102 46.6299 112.944 46.5044L112.712 46.6869C123.733 46.8969 135.056 47.7981 146.093 49.3566C147.474 49.5505 148.848 49.749 150.218 49.9681C150.903 50.0753 151.588 50.1825 152.27 50.2921C152.527 50.3354 152.782 50.3788 153.038 50.4221C153.363 50.4176 153.728 50.4039 154.151 50.3856C153.735 50.2054 153.32 50.016 152.901 49.8471C154.199 49.9475 156.767 50.4883 156.954 50.3035C156.936 50.4472 156.294 50.3149 155.483 50.2213C155.832 50.7028 157.31 50.9948 158.614 51.3508C159.4 51.5561 160.126 51.7524 160.513 51.9669C161.187 52.1311 161.858 52.3023 162.525 52.4802C163.649 52.7769 164.76 53.0963 165.862 53.4249C165.785 53.3838 165.697 53.3405 165.598 53.2948C165.028 53.053 164.136 52.7632 163.681 52.5715C165.015 52.7632 165.474 53.1123 166.035 53.4751C168.029 54.0752 169.984 54.7232 171.897 55.4123C173.019 55.3301 170.068 54.4973 171.532 54.5726C174.679 55.3142 172.422 55.6541 176.337 56.5531C176.155 56.69 174.965 56.3797 173.708 56.0808C175.083 56.5988 176.437 57.135 177.764 57.6894L177.815 57.4248C178.309 57.6005 178.795 57.7876 179.284 57.9701C179.778 58.1549 180.248 58.326 180.773 58.536C181.798 58.9375 182.819 59.3734 183.828 59.8548C185.849 60.8108 187.841 61.9266 189.76 63.3322C190.717 64.0349 191.657 64.8153 192.556 65.7074C193.452 66.5996 194.309 67.6104 195.059 68.7878C195.437 69.3719 195.775 70.0131 196.082 70.6793C196.372 71.3639 196.636 72.0735 196.814 72.831C197.003 73.5885 197.118 74.3803 197.156 75.1766C197.226 75.0374 197.294 74.896 197.352 74.7545C197.42 74.6062 197.487 74.4579 197.553 74.3073L197.652 74.0791L197.731 73.8441C197.834 73.5269 197.933 73.2006 198.023 72.8515C198.179 72.1579 198.258 71.3775 198.163 70.4945C198.073 70.6839 197.978 70.8687 197.879 71.049C197.891 70.4945 197.859 69.81 197.719 69.0958C197.584 68.3816 197.343 67.6355 196.989 66.9692C196.633 66.303 196.169 65.6915 195.667 65.1781C195.169 64.6624 194.642 64.2426 194.209 63.9049C194.047 63.9574 194.313 64.1308 194.615 64.4114C193.793 63.8501 193.252 63.5444 192.91 63.3253C192.569 63.104 192.409 62.9831 192.276 62.8713C192.144 62.7594 192.02 62.6727 191.727 62.5381C191.434 62.4058 190.965 62.2324 190.114 61.9905C189.852 61.7486 189.582 61.5113 189.309 61.2718C190.181 61.5068 191.45 61.8833 192.664 62.4765C193.883 63.0538 195.029 63.8957 195.638 64.7856C195.327 64.3498 195.343 64.2266 195.566 64.2791C195.676 64.3065 195.834 64.3772 196.025 64.4753C196.21 64.578 196.419 64.7149 196.636 64.8632C197.057 65.169 197.494 65.5386 197.791 65.7805C198.093 66.0178 198.307 66.0953 198.28 65.7599C198.298 65.9379 198.298 66.1227 198.301 66.3007C199.245 67.5807 199.81 69.3149 199.952 71.1357C199.988 71.592 200.004 72.0552 199.999 72.523C199.999 72.9907 199.947 73.4562 199.907 73.9308C199.882 74.1658 199.871 74.4077 199.833 74.645C199.792 74.8823 199.751 75.1196 199.709 75.3569C199.666 75.5942 199.628 75.836 199.576 76.0756C199.515 76.3129 199.454 76.5502 199.393 76.7875C198.898 78.6928 198.096 80.5706 197.068 82.3321C196.043 84.0959 194.797 85.7456 193.425 87.2607C191.355 88.8145 189.713 90.1813 187.915 91.4796C187.462 91.7968 187 92.1071 186.529 92.4197C186.05 92.7095 185.563 93.0129 185.047 93.2913C184.011 93.8389 182.887 94.3614 181.6 94.7562C181.059 94.5394 180.818 94.5964 180.165 94.8908C179.841 95.0414 179.413 95.2536 178.789 95.4954C178.167 95.7487 177.349 96.0317 176.252 96.3237C178.579 95.694 176.72 96.8599 175.267 97.3893C174.808 97.403 174.312 97.4646 173.799 97.5444C173.283 97.6152 172.751 97.7133 172.215 97.8023C171.802 98.0441 170.234 98.6602 168.486 99.1302C166.74 99.6071 164.825 99.954 163.76 99.8399C161.101 100.513 164.431 100.011 165.053 100.073C164.537 100.372 163.969 100.383 163.429 100.365C162.888 100.344 162.372 100.301 161.944 100.508C161.944 100.508 162 100.591 162.289 100.591C158.15 101.191 155.708 101.718 151.405 102.35C150.957 101.576 147.131 102.521 145.185 102.427C145.834 102.63 142.786 102.957 141.574 103.226L139.21 102.838C136.881 102.512 136.054 103.445 133.071 103.397L133.776 103.196C133.231 103.176 132.468 103.224 131.598 103.301C130.728 103.372 129.748 103.482 128.773 103.614C126.82 103.872 124.878 104.239 123.821 104.495C113.769 104.198 106.046 104.495 98.143 104.78C97.1563 104.814 96.165 104.848 95.1692 104.885C94.6714 104.901 94.1712 104.919 93.6666 104.935C93.1642 104.942 92.6596 104.949 92.1504 104.956C90.1183 104.981 88.0367 105.006 85.8717 104.999C83.7067 104.946 81.4583 104.873 79.0883 104.759C78.7932 104.743 78.4936 104.73 78.194 104.714C77.8943 104.691 77.5924 104.666 77.2883 104.643C76.68 104.59 76.065 104.538 75.441 104.485C74.1929 104.374 72.911 104.25 71.5886 104.114C70.2346 103.753 72.6339 103.787 71.5886 103.335C71.4624 103.32 71.3408 103.304 71.2259 103.288C71.3678 103.24 71.0501 103.189 71.343 103.098C72.341 103.258 73.508 103.518 74.8012 103.584C73.8842 103.402 73.3098 103.148 72.6474 102.945C72.3162 102.843 71.9626 102.754 71.5323 102.69C71.102 102.628 70.5951 102.592 69.9598 102.571C70.1467 102.669 70.4689 102.749 71.129 102.852C69.0406 102.69 68.9685 102.373 67.387 102.359C65.4608 102.274 65.9519 102.144 65.6748 102.375C64.6791 102.309 63.6788 102.272 62.683 102.183L59.6935 101.909C58.9793 101.624 58.2088 101.417 57.4429 101.268C56.6769 101.115 55.9087 101.042 55.2058 100.944C53.7978 100.775 52.6173 100.748 52.1329 100.691C52.6826 101.328 56.0191 101.615 57.4068 102.309L56.3029 102.345C55.9335 102.359 55.5662 102.37 55.1968 102.366L55.1382 101.916L52.0698 101.469L52.2253 101.583C51.8941 101.35 51.5517 101.118 50.7451 101.12C50.6122 101.152 50.3284 101.207 50.5581 101.284C49.8643 101.077 49.1794 100.878 48.481 100.659C49.078 101.008 48.5937 100.951 47.9696 100.851C47.3478 100.757 46.5999 100.641 46.7058 100.928C44.8539 100.543 43.3445 100.102 42.0311 99.6003C41.7022 99.4862 41.3868 99.347 41.0781 99.2192C40.7717 99.0869 40.4743 98.9637 40.1837 98.8313C39.8954 98.6899 39.6115 98.553 39.3321 98.4161C39.1925 98.3476 39.055 98.2792 38.9176 98.2107C38.7802 98.1354 38.645 98.0624 38.5099 97.9871C38.2395 97.8388 37.9692 97.6928 37.7011 97.5444C37.433 97.3824 37.1626 97.2227 36.8901 97.0584C36.6175 96.9033 36.3426 96.723 36.0633 96.5405C35.7839 96.3557 35.4955 96.1868 35.2049 95.9701C34.0402 95.16 32.72 94.1812 31.2985 92.5703C31.5553 92.8099 31.6184 92.7619 31.5508 92.5292C31.517 92.4128 31.4494 92.2508 31.3593 92.0546C31.2759 91.8492 31.1723 91.6074 31.0506 91.3427C30.9245 91.0826 30.8118 90.7768 30.6834 90.4642C30.5483 90.1562 30.4379 89.8162 30.3185 89.4808C30.0797 88.8077 29.8882 88.1118 29.7169 87.5071C29.593 87.1626 29.5277 86.8819 29.4511 86.6674C29.379 86.453 29.325 86.3069 29.2821 86.2362C29.2033 86.0924 29.1199 86.2316 29.1132 86.7131C29.0118 85.5973 29.0456 84.5203 29.156 83.4981C28.8203 81.5586 29.0704 79.715 29.4894 77.885L29.4984 77.8828ZM49.6818 53.8607C48.0777 54.3878 46.8297 54.8008 45.6266 55.1955C45.0274 55.41 44.4416 55.6222 43.8356 55.8618C43.2341 56.1242 42.6056 56.3866 41.9365 56.7448C42.3284 56.4254 42.3532 56.2405 42.4569 56.0808C41.3507 56.5782 40.3031 57.224 40.0801 57.7123C40.8799 57.6392 42.9345 56.6125 44.703 55.8253C45.5816 55.4191 46.3881 55.0814 46.886 54.8784C47.3861 54.673 47.5799 54.616 47.2554 54.819C48.9271 54.438 49.4813 54.2668 49.6457 54.1573C49.8102 54.0432 49.5804 53.9816 49.6818 53.863L49.6818 53.8607ZM47.7443 58.666C48.4472 58.2781 48.8077 58.1002 48.9947 57.9633C49.1816 57.8263 49.1952 57.7305 49.2222 57.5434C49.1501 57.4841 49.0803 57.4339 49.0037 57.3905L48.1386 57.4521C48.2445 57.4088 48.3841 57.3472 48.5306 57.2787C48.1296 57.2856 47.492 57.4704 46.28 57.9838C46.3205 58.1412 46.6832 58.0956 46.8432 58.1207C47.0054 58.1481 46.9468 58.212 46.1763 58.6364C46.9648 58.1777 46.1425 58.2348 45.1558 58.5497C44.8584 58.7071 44.5205 58.9033 44.1668 59.0836C43.8176 59.2684 43.4549 59.4441 43.1462 59.6335C42.5244 60.0008 42.0581 60.3089 42.1167 60.4663C42.7002 60.2975 43.1012 59.9986 43.4549 59.7841C44.0339 59.6198 41.3439 61.055 43.0764 60.569C42.3465 60.8474 41.6571 61.1759 40.9542 61.4931C40.436 61.9403 40.6839 61.9243 41.0038 61.8536C41.3259 61.7806 41.745 61.6779 41.5467 61.8696C39.8323 62.6385 38.5504 63.1998 37.3496 63.8296C36.1556 64.4616 35.045 65.1918 34.0312 66.449C34.2632 66.4239 34.8692 66.8232 34.68 66.7274C34.1416 67.688 33.5018 68.6052 33.0129 69.7256C34.0289 68.5916 35.1666 67.421 36.5634 65.9949L35.874 66.0315C36.1669 65.696 36.4282 65.4245 36.667 65.2032C36.9081 64.991 37.1266 64.8244 37.3271 64.6921C37.7259 64.4206 38.0705 64.3019 38.4152 64.1627C39.1114 63.898 39.8255 63.6128 41.2538 62.3967C41.3845 62.5997 41.0083 63.0949 40.614 63.6242C40.213 64.1422 39.8052 64.7172 39.8052 65.0047C39.8976 64.7742 40.1567 64.4388 40.4924 64.0874C40.8326 63.7474 41.2403 63.3687 41.6301 63.0743C42.405 62.4674 43.0741 62.1137 42.7903 62.5153C43.5698 62.0498 44.0947 61.735 44.4484 61.525C44.7976 61.3083 44.9711 61.1919 45.0522 61.1189C45.2121 60.9729 45.0003 61.0048 45.1017 60.8747C45.7573 60.5872 46.4196 60.3226 47.0797 60.0624C49.2853 58.8372 47.4965 59.0996 46.53 59.3209C47.9336 58.8874 49.2718 58.1846 50.646 57.4476C49.666 57.8172 48.6545 58.2165 47.7421 58.666L47.7443 58.666ZM111.523 51.9691C111.536 51.9189 111.541 51.8665 111.53 51.8163C111.381 51.8185 111.232 51.8208 111.081 51.8254C111.201 51.8756 111.345 51.9258 111.523 51.9691ZM115.573 51.3234C115.918 51.3782 116.288 51.4626 116.648 51.547L116.882 51.2664C116.7 51.2413 116.517 51.2162 116.335 51.1911C116.044 51.2299 115.792 51.2755 115.573 51.3234ZM124.139 51.5037C125.515 51.3074 126.414 51.7181 127.746 51.8938C127.162 52.0148 126.768 52.2521 126.353 52.3867C126.725 52.551 127.097 52.713 127.468 52.8818C129.962 52.8818 130.267 52.389 128.771 51.9965C129.469 52.0878 130.073 52.2315 130.593 52.1768C131.111 51.2481 127.581 52.2338 126.795 51.3371L128.545 51.5698C128.64 51.5059 128.656 51.4443 128.613 51.3873C128.246 51.3668 127.863 51.3417 127.473 51.3188C126.385 51.2618 125.238 51.2093 124.209 51.2367C123.371 51.2595 122.602 51.3303 122.01 51.4877C122.379 51.5105 122.749 51.5356 123.118 51.5607C123.422 51.547 123.758 51.5288 124.141 51.5059L124.139 51.5037ZM109.394 51.871L109.804 52.0171C109.689 51.9669 109.556 51.9167 109.412 51.871L109.394 51.871ZM106.183 51.9418C105.677 51.9395 105.197 51.9212 104.737 51.8733C104.884 51.8117 105.131 51.6816 105.514 51.5402C105.318 51.5402 105.12 51.5425 104.913 51.547C104.129 51.5721 103.266 51.6246 102.336 51.7387C103.086 52.0673 104.167 52.049 105.165 52.0307C105.613 52.0262 106.042 52.0239 106.42 52.049C106.294 52.0171 106.206 51.9828 106.183 51.9418ZM106.292 51.3029C106.659 51.2116 107.096 51.1272 107.621 51.0656C106.636 51.1317 105.699 51.1751 104.793 51.2116C105.181 51.3097 105.704 51.3211 106.292 51.3006L106.292 51.3029ZM106.492 50.2442C106.783 50.3788 107.141 50.5088 107.634 50.6275C108.988 50.5339 109.405 50.3788 109.504 50.1917C108.141 50.0685 107.19 50.1209 106.492 50.2442ZM189.454 77.5565C189.424 77.6181 189.395 77.682 189.366 77.7481C189.336 77.8075 189.309 77.8987 189.278 77.9352C189.219 78.0311 189.165 78.1338 189.118 78.241C188.965 78.46 188.839 78.6905 188.661 78.8844C188.58 78.8411 188.548 78.7612 188.548 78.6631C188.548 78.565 188.591 78.4441 188.609 78.3209C188.622 78.2592 188.643 78.1954 188.663 78.1315C188.683 78.0676 188.721 78.0014 188.721 77.9444C188.73 77.885 188.744 77.828 188.758 77.7732C188.771 77.7139 188.789 77.682 188.805 77.5907C188.834 77.4355 188.877 77.2895 188.884 77.1709C188.888 77.0522 188.886 76.9564 188.866 76.8971C188.825 76.7738 188.699 76.7921 188.458 77.0066C188.496 76.9085 188.532 76.8263 188.566 76.7556C188.595 76.6849 188.613 76.6278 188.636 76.5799C188.679 76.4841 188.721 76.427 188.742 76.3996C188.794 76.3449 188.839 76.3996 188.881 76.4772C188.947 76.6347 189.03 76.9107 189.267 76.4247C189.303 75.9182 189.246 75.4618 189.116 75.0078C189.267 75.35 189.357 75.706 189.4 76.0962C189.557 75.4915 189.695 75.0443 189.672 74.4944C189.645 73.9513 189.431 73.2988 188.629 72.4751C188.366 71.6924 187.949 70.8687 187.428 70.0633C187.133 70.1774 186.752 69.8625 186.252 69.4289C186.009 69.2076 185.723 68.968 185.428 68.7262C185.121 68.4957 184.806 68.263 184.47 68.0896C184.671 68.3611 184.856 68.6395 185.036 68.9156C184.25 68.3474 183.644 68.0097 183.107 67.7473C182.567 67.4895 182.087 67.3115 181.481 67.1176C181.866 67.6036 182.274 67.7884 182.605 67.9435C182.941 68.0941 183.206 68.2105 183.283 68.5391C182.652 68.2151 181.994 67.9162 181.33 67.6309C181.492 67.348 180.348 66.4741 181.85 67.024C181.075 66.2779 180.46 65.6709 179.417 65.0001C179.156 64.8335 178.87 64.6601 178.541 64.489C178.376 64.4046 178.203 64.3156 178.023 64.222C177.831 64.133 177.631 64.0395 177.421 63.9414C176.998 63.7497 176.527 63.5466 176 63.3322C175.47 63.1222 174.887 62.9009 174.236 62.6613C172.965 62.4948 173.557 62.837 174.317 63.2523C175.076 63.6676 176.002 64.1467 175.421 64.222C172.704 63.3116 171.174 62.4081 169.919 61.5707C168.662 60.7447 167.68 59.9917 166.062 59.5331C163.983 59.0151 163.03 58.6888 162.077 58.3169C161.122 57.9564 160.166 57.5525 158.053 57.0414C158.684 57.3837 157.92 57.3061 156.898 57.1806C155.873 57.0551 154.582 56.8931 154.158 56.9935L155.749 57.7214C154.683 57.3928 153.615 57.2833 153.516 57.4681C153.261 57.2377 152.088 56.9159 150.605 56.5965C149.711 56.4117 148.717 56.2063 147.762 56.0101C146.807 55.8161 145.89 55.6382 145.153 55.4602L145.739 55.1065C145.162 54.9787 144.529 54.8396 143.865 54.6935C143.2 54.5543 142.506 54.4106 141.806 54.276C140.407 53.9976 138.978 53.7786 137.732 53.6736C135.896 53.3633 135.196 53.1648 134.608 52.9138C134.02 52.6696 133.54 52.389 132.136 52.0034C130.517 52.2315 130.645 52.7153 131.12 53.2469C131.625 53.1876 132.294 53.2355 133.042 53.3017C133.79 53.3724 134.615 53.4705 135.435 53.4979C140.062 54.4357 143.54 55.8641 148.188 56.3889C149.105 57.0802 148.334 56.9159 147.044 56.5919C145.75 56.2816 143.939 55.7819 142.788 55.8161C142.846 55.8892 143.006 55.9325 143.175 55.9667C142.975 55.9416 142.797 55.9211 142.608 55.9188C144.25 56.277 146.92 56.8749 147.282 57.475C145.91 57.208 145.449 56.8703 144.89 56.5874C144.333 56.3044 143.68 56.0763 141.927 56.0626C141.299 55.8983 140.691 55.8093 140.107 55.7659C139.524 55.7272 138.965 55.7363 138.438 55.7591C137.381 55.807 136.451 55.9097 135.673 55.8595C134.02 55.2685 134.04 54.3923 129.818 54.1185L131.598 54.9057C129.226 54.657 128.687 54.4015 128.192 54.1368C127.734 53.8995 127.311 53.6416 125.504 53.4796C124.781 53.5298 124.031 53.5116 123.828 53.3427L125.362 53.2127C125.116 53.0324 124.824 52.8316 126.538 52.9594C125.824 52.7426 124.661 52.5533 123.375 52.4164C122.089 52.2977 120.676 52.2201 119.469 52.2384C118.847 52.1129 119.349 52.0285 119.246 51.8208C121.519 51.6063 122.936 52.2293 124.661 52.1836C124.603 52.1562 124.544 52.1289 124.481 52.0946L124.803 51.9737C123.841 52.1836 122.341 51.8573 121.21 51.8163C121.327 51.7318 121.462 51.6657 121.625 51.6041C121.717 51.6041 121.816 51.6018 121.922 51.5995C121.857 51.5904 121.791 51.579 121.733 51.5676C121.697 51.579 121.658 51.5904 121.625 51.6041C119.892 51.6269 120.027 51.5402 117.637 51.7752C117.779 51.8026 117.91 51.8254 118.024 51.8391C117.403 51.9121 116.783 51.9851 116.164 52.0695C116.479 51.8231 115.582 51.7045 114.708 51.5881C114.465 51.6976 114.348 51.7934 114.312 51.8505C113.474 51.8026 112.696 51.798 111.921 51.8071C112.183 51.9737 112.663 52.1426 113.165 52.2977L113.589 52.2612C113.291 52.5031 113.55 52.5875 111.928 52.6765C111.57 52.567 111.455 52.4506 111.435 52.3319C110.73 52.43 110.405 52.2977 110.036 52.1243C109.245 51.9189 108.04 51.9395 106.821 51.944L107.918 52.2429C107.67 52.2201 107.402 52.195 107.154 52.1677C107.283 52.2087 107.396 52.2566 107.483 52.3228C106.06 52.3776 105.136 52.2909 104.219 52.2247C103.525 52.3068 102.786 52.3844 102.151 52.4734C102.236 52.4825 102.322 52.4894 102.408 52.4985C103.203 52.5852 103.922 52.6833 103.822 52.8864C103.149 52.9617 102.478 53.0256 101.806 53.11C106.76 53.0735 100.955 53.9565 104.811 54.0706C103.906 54.2212 103.271 54.0912 102.538 53.9816C101.806 53.8744 100.977 53.8037 99.693 54.0478C100.342 53.7603 102.128 53.2401 100.495 53.0028C100.5 53.0142 100.502 53.0233 100.511 53.0347C100.423 53.0142 100.333 52.9936 100.243 52.9731C100.159 52.964 100.069 52.9548 99.9723 52.948C99.0397 53.0393 98.1115 53.1534 97.181 53.2538C97.3387 53.2925 97.4874 53.3359 97.6158 53.3907C97.4018 53.3907 97.1856 53.3907 96.9648 53.3907C96.9603 53.6873 99.8912 53.8972 98.3097 54.203L96.8454 54.1482L95.381 54.114C95.4689 53.9086 96.8634 53.7284 95.969 53.5002C95.1692 53.6462 94.4911 53.5139 93.7815 53.3199C92.2721 53.2606 90.9339 53.1693 90.2242 53.053L91.1884 52.8225C91.5354 52.8636 91.8981 52.8932 92.2676 52.9161C91.9161 52.8385 91.5399 52.7769 91.1254 52.7495C90.3301 52.8271 89.6182 52.9001 89.037 52.9959C88.681 53.0575 88.3769 53.1237 88.1313 53.2013C88.4152 53.2218 88.69 53.2446 88.9514 53.2766C86.7075 53.4477 84.4659 53.6371 82.2311 53.8584C80.0999 53.8447 77.8448 53.9406 75.5491 54.1026C76.8941 54.187 74.7471 54.8532 73.4922 55.3895C76.3511 54.8943 76.4863 55.5401 76.3624 55.9667C74.6344 56.2223 73.3796 55.8275 74.2086 55.4419C71.3881 56.3021 72.1248 55.4282 69.7052 56.4368C68.9189 56.7448 69.1622 56.8475 69.5317 56.9159C69.9034 56.9867 70.4081 57.0346 70.1558 57.2148C68.6306 57.605 68.3805 57.4841 68.0944 57.37C67.8083 57.2582 67.4951 57.1783 65.8596 57.7077C66.0623 57.7374 66.371 57.6803 66.1412 57.8651C64.402 58.5017 62.4262 58.8212 61.9531 58.6569C61.1443 59.3574 59.8377 59.7932 58.8126 60.156C57.7853 60.5142 57.0419 60.7903 57.3663 61.0915C56.3187 61.4543 55.8321 61.6117 55.6631 61.6231C55.4964 61.6346 55.6519 61.5068 55.9087 61.3311C56.4223 60.9797 57.364 60.4732 56.9044 60.5074C56.4471 60.5964 55.9154 60.7584 55.368 60.9774C54.816 61.1873 54.2461 61.452 53.7076 61.7258C52.6308 62.2666 51.6891 62.8576 51.2543 63.1542C51.4998 63.0333 51.7454 62.9283 51.9887 62.8256C52.2365 62.7298 52.4821 62.6362 52.7254 62.5427C53.2098 62.351 53.6851 62.1571 54.1424 61.8833L53.5229 62.7777C51.1439 64.1376 50.2698 64.2996 49.3799 64.4388C48.9428 64.5187 48.499 64.5848 47.911 64.8518C47.3208 65.1142 46.5616 65.5523 45.5365 66.3943C46.1358 66.0725 46.5052 65.9128 46.7328 65.8375C46.9603 65.7622 47.0482 65.7713 47.1023 65.8078C47.2104 65.8809 47.1766 66.0451 47.848 65.8649C47.465 66.0132 46.4354 66.6749 45.7528 67.1061C45.0724 67.5397 44.703 67.7199 45.5973 66.8369C44.0023 67.9846 43.0133 68.9133 42.0829 69.8511C40.6636 70.8071 39.3029 72.021 38.422 72.5526C37.6087 73.5977 37.0838 74.6062 36.7797 75.4664C36.471 76.3266 36.3832 77.0317 36.3696 77.5291L36.3313 77.6227C36.3201 77.6523 36.3066 77.6843 36.2908 77.7345L36.2052 78.0037L36.043 78.5376C35.9393 78.8913 35.8425 79.2404 35.7546 79.5849C35.6938 79.8291 35.6352 80.0709 35.5811 80.3128C36.1714 81.0567 36.8608 81.732 37.62 82.3481C39.1519 83.5825 40.9407 84.5751 42.8624 85.3851C44.7886 86.1928 46.8454 86.8317 49.0262 87.3314C49.6908 87.8015 50.3734 88.2624 51.0695 88.7096C51.8738 88.7598 52.6803 88.794 53.4869 88.8168C58.1818 89.693 62.3856 90.3501 66.5579 90.9799C70.7325 91.5983 74.88 92.1641 79.5051 92.6159C82.391 92.8692 81.2736 92.2166 82.6456 92.1002C85.8176 92.2668 87.7889 92.568 89.7263 92.9103C91.657 93.2525 93.581 93.6153 96.6336 93.9576C96.4308 93.8845 96.1943 93.7819 95.9938 93.6723C95.791 93.5628 95.6176 93.4442 95.5567 93.3415C95.4306 93.1361 95.773 92.997 97.0571 93.0837C97.5212 93.3369 97.8096 93.702 99.4542 93.6974L98.6409 93.4031C99.3979 93.2959 100.13 93.3506 101.063 93.4236C101.993 93.4967 103.124 93.6313 104.674 93.6336C110.133 93.9393 115.332 94.5577 119.861 95.354C124.715 95.2057 119.347 94.5554 120.271 94.3797C116.858 94.6695 117.896 94.2496 117.157 93.9941C118.058 94.099 119.056 94.1903 119.944 94.1766C120.832 94.1561 121.609 94.042 122.068 93.7682C122.697 93.7682 123.238 93.7636 123.735 93.7636C124.233 93.7568 124.688 93.7522 125.144 93.7613C126.051 93.7727 126.959 93.8412 128.207 93.9644C126.953 93.8412 125.887 94.1492 127.07 94.3591C128.095 94.2359 129.917 94.1401 131.445 94.0169C132.97 93.8686 134.198 93.6723 134.031 93.3483C139.972 93.0312 146.248 92.4014 152.588 91.4636C153.381 91.345 154.174 91.2286 154.969 91.11C155.762 90.9799 156.557 90.8476 157.35 90.7175C158.139 90.5829 158.957 90.4574 159.711 90.3159C160.482 90.1722 161.257 90.017 162.032 89.8504C165.134 89.1865 168.229 88.3924 171.239 87.5025C173.368 87.2242 169.734 88.0912 170.917 87.9908C171.69 87.879 172.217 87.7627 172.611 87.6417C173.008 87.5254 173.269 87.409 173.512 87.2903C173.999 87.0599 174.405 86.8431 175.626 86.6127L174.551 86.5944C176.272 85.9852 178.081 85.4832 179.863 84.9538C181.643 84.4245 183.407 83.8723 184.979 83.1627C184.637 83.1262 185.196 82.6949 185.518 82.4303C185.829 82.1542 185.93 82.0629 184.666 82.6653C185.392 82.2797 185.95 81.4263 186.345 80.6254C186.565 80.2329 186.71 79.8451 186.906 79.5507C186.994 79.4001 187.072 79.2678 187.171 79.1628C187.264 79.0579 187.39 78.9803 187.494 78.9301C187.53 79.302 187.509 79.6853 187.5 80.0846C187.476 80.4817 187.419 80.881 187.361 81.2962C187.404 81.3168 187.539 81.2415 187.717 81.1205C187.807 81.0589 187.906 80.9882 188.012 80.9106C188.115 80.833 188.21 80.7441 188.309 80.6596C188.719 80.3265 189.021 79.9888 188.994 80.1052C189.174 79.8177 189.298 79.5096 189.436 79.2176C189.501 79.0715 189.532 78.9232 189.584 78.7863C189.607 78.7179 189.634 78.6494 189.654 78.5833C189.665 78.5194 189.677 78.4555 189.688 78.3916C189.701 78.33 189.715 78.2707 189.726 78.2113L189.749 78.1269L189.767 78.0219C189.792 77.8805 189.821 77.7459 189.85 77.6204C189.882 77.3694 189.945 77.1549 189.976 76.9792C189.805 76.7624 189.659 77.0773 189.442 77.561L189.454 77.5565ZM168.817 93.9211C168.79 93.8868 168.705 93.8663 168.531 93.864C168.617 93.8868 168.714 93.9051 168.817 93.9211ZM106.44 100.972C106.479 100.981 106.521 100.99 106.573 100.997C106.528 100.988 106.485 100.981 106.44 100.972ZM71.1786 97.5536L71.0141 97.4509C71.7643 97.4532 72.5032 97.4691 73.2354 97.4965L72.1833 97.3551C72.7803 97.3459 73.3751 97.3665 73.9541 97.3893C73.7738 97.4372 73.5463 97.476 73.2489 97.4965C74.078 97.5285 74.898 97.5741 75.7136 97.6357C77.2523 97.7498 78.7729 97.9323 80.3071 98.0624C83.371 98.3545 86.4619 98.772 89.7782 98.9363C89.2442 98.8313 89.1136 98.5712 88.7013 98.4663C88.8252 98.4663 88.9559 98.464 89.0843 98.4617C86.8494 98.0145 84.3938 97.5764 82.382 97.1702L79.8566 97.2296C83.193 97.4532 79.7529 97.8867 83.8892 98.1149C80.422 98.1537 77.2365 97.5376 73.9518 97.3893C74.6074 97.2204 74.47 96.9147 73.1656 96.6934C71.1448 96.6226 70.924 97.0584 68.6193 96.8508L70.8632 97.3733C69.2974 97.5513 68.0223 96.9603 66.6098 96.7322C66.434 96.8462 65.9001 96.8713 65.3031 96.8759C65.3369 96.8805 65.3707 96.8827 65.4022 96.8873C67.3284 97.1086 69.1983 97.3459 71.1763 97.5513L71.1786 97.5536ZM60.7929 96.7253C60.7749 96.6272 60.6127 96.4949 60.1801 96.3648C59.9706 96.3214 59.7633 96.2781 59.5561 96.237C58.4792 96.0225 57.3663 95.8149 55.7262 95.3198C59.2722 95.6141 54.9287 94.6626 55.3838 94.4276C56.6701 94.747 57.961 95.0368 59.2519 95.3106C57.8664 95.1327 57.2852 95.0551 57.1815 95.0642C57.0802 95.0733 57.4586 95.1692 57.9948 95.2969C59.0672 95.5639 60.7726 95.9564 60.5158 96.237C63.1516 96.3648 57.1297 94.6193 61.4462 95.4202C58.8825 94.8657 57.3302 94.5303 55.7622 94.1903C54.1988 93.8252 52.6173 93.4373 50.0828 92.4744C53.194 93.4191 49.5872 91.9223 51.3196 92.171C49.3439 91.6393 49.0893 91.5983 49.1524 91.7374C49.2177 91.8721 49.6119 92.1573 48.9428 92.1778C47.8637 91.8561 47.1045 91.6964 46.3813 91.4865C45.6604 91.2742 44.9733 91.0004 44.0812 90.4049C43.2071 90.1106 42.7925 89.9896 42.6303 89.9828C42.4681 89.9759 42.5605 90.0832 42.7069 90.2155C42.9975 90.4802 43.5067 90.8384 42.583 90.592C42.7227 90.7129 42.9818 90.8567 43.3265 91.0141C43.6712 91.1761 44.1014 91.345 44.5836 91.5184C45.5478 91.8675 46.7125 92.228 47.8006 92.5497C49.9769 93.2092 51.858 93.7568 51.2047 94.3226C53.0656 94.8109 55.2508 95.8491 57.9746 96.3123C57.3573 96.2507 56.6634 96.1868 55.9267 96.107C56.1723 96.1572 56.4133 96.2119 56.6611 96.2598C57.9858 96.4629 59.3465 96.6295 60.7929 96.7253ZM36.4237 88.2395C36.4598 88.2966 36.4913 88.3536 36.5318 88.4107L36.6558 88.575C36.7414 88.6845 36.8135 88.7986 36.9036 88.9081C37.0951 89.1203 37.2618 89.3507 37.4803 89.5607C37.5862 89.6679 37.6831 89.7797 37.7934 89.887L38.1381 90.2064L38.3094 90.3707L38.4986 90.5258C38.6248 90.6331 38.7487 90.738 38.8748 90.8453L38.5414 90.6422C38.9537 90.9411 39.2758 91.1282 39.4741 91.2743C39.6723 91.4203 39.7737 91.5047 39.8007 91.5526C39.8526 91.653 39.5935 91.6279 39.3569 91.5823C39.1159 91.5435 38.8703 91.507 38.9289 91.6302C38.9582 91.6918 39.0641 91.7968 39.2826 91.9611C39.5101 92.1185 39.8616 92.3307 40.382 92.6022C40.3166 92.3809 40.4563 92.3238 40.7222 92.3626C40.9925 92.3991 41.3687 92.5543 41.8396 92.7026C42.0694 92.7848 42.3149 92.8715 42.565 92.9582C42.8218 93.0357 43.0854 93.1156 43.3422 93.1932C43.8491 93.3529 44.3628 93.4487 44.757 93.4875C46.1899 93.8549 47.5393 94.1994 48.8572 94.512C48.9744 94.5417 49.0915 94.5691 49.2087 94.5987L49.265 93.8572C48.1634 93.5377 47.5393 93.1955 46.9919 92.8897C46.4444 92.5748 45.9758 92.3033 45.1806 92.0569C45.9443 92.5611 44.32 92.3809 42.5808 91.5937C43.1215 91.6895 43.8131 91.9953 43.6689 91.7899C42.0581 91.1259 41.202 90.5623 40.2964 89.9394C39.3952 89.3028 38.4242 88.6343 36.6918 87.3771C38.2125 88.2806 39.1812 88.664 40.1252 89.0176C41.0736 89.3508 42.004 89.6405 43.5067 90.0718C42.9457 89.2389 41.5197 89.1659 39.9089 88.2327C40.1184 88.4289 40.4541 88.6252 39.9224 88.4677C39.6521 88.2761 39.3817 88.0798 39.1181 87.8745C38.8523 87.6737 38.5887 87.4706 38.3341 87.2538C37.8678 87.0074 37.5276 86.8157 37.2708 86.6903C37.014 86.567 36.845 86.4963 36.7369 86.4735C36.5183 86.4256 36.5318 86.5602 36.5679 86.7131C36.6039 86.8659 36.6603 87.0325 36.5138 87.0439C36.4417 87.0485 36.3178 87.0143 36.1128 86.9161C35.9867 86.8568 35.8267 86.7701 35.6352 86.6515C35.8335 87.2105 36.0948 87.733 36.426 88.2373L36.4237 88.2395Z" fill="#84EA02"/>
<path d="M61.3863 17.2727V34H58.3561V20.2212H58.2581L54.3458 22.7205V19.9435L58.5032 17.2727H61.3863ZM71.8164 34.3185C70.4714 34.3185 69.3171 33.9782 68.3533 33.2976C67.395 32.6115 66.6572 31.6232 66.1399 30.3327C65.628 29.0368 65.3721 27.4768 65.3721 25.6527C65.3776 23.8286 65.6362 22.2768 66.148 20.9972C66.6653 19.7121 67.4031 18.732 68.3615 18.0568C69.3252 17.3816 70.4769 17.044 71.8164 17.044C73.1559 17.044 74.3075 17.3816 75.2713 18.0568C76.235 18.732 76.9728 19.7121 77.4847 20.9972C78.002 22.2822 78.2606 23.834 78.2606 25.6527C78.2606 27.4822 78.002 29.045 77.4847 30.3409C76.9728 31.6314 76.235 32.617 75.2713 33.2976C74.3129 33.9782 73.1613 34.3185 71.8164 34.3185ZM71.8164 31.7621C72.8618 31.7621 73.6867 31.2475 74.2911 30.2184C74.901 29.1838 75.2059 27.6619 75.2059 25.6527C75.2059 24.3241 75.0671 23.2079 74.7894 22.304C74.5117 21.4001 74.1196 20.7195 73.6132 20.2621C73.1068 19.7992 72.5079 19.5678 71.8164 19.5678C70.7764 19.5678 69.9541 20.0851 69.3497 21.1197C68.7453 22.1488 68.4404 23.6598 68.435 25.6527C68.4295 26.9867 68.5629 28.1084 68.8352 29.0178C69.1129 29.9271 69.5049 30.6132 70.0113 31.076C70.5177 31.5334 71.1194 31.7621 71.8164 31.7621ZM82.8283 31.9908C82.3328 31.9908 81.9081 31.8165 81.5542 31.468C81.2003 31.1141 81.026 30.6894 81.0315 30.1939C81.026 29.7038 81.2003 29.2846 81.5542 28.9361C81.9081 28.5876 82.3328 28.4134 82.8283 28.4134C83.3075 28.4134 83.7241 28.5876 84.078 28.9361C84.4374 29.2846 84.6198 29.7038 84.6252 30.1939C84.6198 30.526 84.5327 30.8282 84.3639 31.1005C84.2005 31.3728 83.9827 31.5906 83.7104 31.7539C83.4436 31.9118 83.1496 31.9908 82.8283 31.9908ZM82.8283 23.7006C82.3328 23.7006 81.9081 23.5264 81.5542 23.1779C81.2003 22.824 81.026 22.3993 81.0315 21.9038C81.026 21.4137 81.2003 20.9944 81.5542 20.646C81.9081 20.292 82.3328 20.1151 82.8283 20.1151C83.3075 20.1151 83.7241 20.292 84.078 20.646C84.4374 20.9944 84.6198 21.4137 84.6252 21.9038C84.6198 22.2305 84.5327 22.5299 84.3639 22.8022C84.2005 23.0745 83.9827 23.2923 83.7104 23.4556C83.4436 23.619 83.1496 23.7006 82.8283 23.7006ZM93.8281 34.3185C92.4831 34.3185 91.3288 33.9782 90.365 33.2976C89.4067 32.6115 88.6689 31.6232 88.1516 30.3327C87.6398 29.0368 87.3838 27.4768 87.3838 25.6527C87.3893 23.8286 87.6479 22.2768 88.1598 20.9972C88.677 19.7121 89.4148 18.732 90.3732 18.0568C91.337 17.3816 92.4886 17.044 93.8281 17.044C95.1676 17.044 96.3192 17.3816 97.283 18.0568C98.2468 18.732 98.9846 19.7121 99.4964 20.9972C100.014 22.2822 100.272 23.834 100.272 25.6527C100.272 27.4822 100.014 29.045 99.4964 30.3409C98.9846 31.6314 98.2468 32.617 97.283 33.2976C96.3246 33.9782 95.173 34.3185 93.8281 34.3185ZM93.8281 31.7621C94.8735 31.7621 95.6985 31.2475 96.3029 30.2184C96.9127 29.1838 97.2176 27.6619 97.2176 25.6527C97.2176 24.3241 97.0788 23.2079 96.8011 22.304C96.5234 21.4001 96.1313 20.7195 95.625 20.2621C95.1186 19.7992 94.5196 19.5678 93.8281 19.5678C92.7881 19.5678 91.9659 20.0851 91.3615 21.1197C90.7571 22.1488 90.4521 23.6598 90.4467 25.6527C90.4412 26.9867 90.5746 28.1084 90.8469 29.0178C91.1246 29.9271 91.5166 30.6132 92.023 31.076C92.5294 31.5334 93.1311 31.7621 93.8281 31.7621ZM109.169 34.3185C107.824 34.3185 106.67 33.9782 105.706 33.2976C104.747 32.6115 104.01 31.6232 103.492 30.3327C102.981 29.0368 102.725 27.4768 102.725 25.6527C102.73 23.8286 102.989 22.2768 103.501 20.9972C104.018 19.7121 104.756 18.732 105.714 18.0568C106.678 17.3816 107.829 17.044 109.169 17.044C110.508 17.044 111.66 17.3816 112.624 18.0568C113.588 18.732 114.325 19.7121 114.837 20.9972C115.355 22.2822 115.613 23.834 115.613 25.6527C115.613 27.4822 115.355 29.045 114.837 30.3409C114.325 31.6314 113.588 32.617 112.624 33.2976C111.665 33.9782 110.514 34.3185 109.169 34.3185ZM109.169 31.7621C110.214 31.7621 111.039 31.2475 111.644 30.2184C112.254 29.1838 112.558 27.6619 112.558 25.6527C112.558 24.3241 112.42 23.2079 112.142 22.304C111.864 21.4001 111.472 20.7195 110.966 20.2621C110.459 19.7992 109.86 19.5678 109.169 19.5678C108.129 19.5678 107.307 20.0851 106.702 21.1197C106.098 22.1488 105.793 23.6598 105.788 25.6527C105.782 26.9867 105.915 28.1084 106.188 29.0178C106.465 29.9271 106.857 30.6132 107.364 31.076C107.87 31.5334 108.472 31.7621 109.169 31.7621ZM124.065 38.7045V21.4545H126.972V23.5291H127.144C127.296 23.2242 127.511 22.9002 127.789 22.5572C128.067 22.2087 128.442 21.9119 128.916 21.6669C129.39 21.4164 129.994 21.2912 130.729 21.2912C131.699 21.2912 132.573 21.5389 133.351 22.0344C134.135 22.5245 134.756 23.2514 135.213 24.2152C135.676 25.1735 135.908 26.3497 135.908 27.7436C135.908 29.1212 135.682 30.2919 135.23 31.2557C134.778 32.2195 134.162 32.9545 133.384 33.4609C132.605 33.9673 131.723 34.2205 130.738 34.2205C130.019 34.2205 129.423 34.1007 128.949 33.8612C128.475 33.6216 128.094 33.333 127.805 32.9954C127.522 32.6523 127.302 32.3284 127.144 32.0234H127.021V38.7045H124.065ZM126.964 27.7273C126.964 28.5386 127.078 29.2492 127.307 29.859C127.541 30.4689 127.876 30.9453 128.312 31.2884C128.753 31.6259 129.286 31.7947 129.913 31.7947C130.566 31.7947 131.113 31.6205 131.554 31.272C131.995 30.9181 132.327 30.4362 132.551 29.8263C132.779 29.2111 132.894 28.5114 132.894 27.7273C132.894 26.9486 132.782 26.2571 132.559 25.6527C132.336 25.0483 132.004 24.5746 131.562 24.2315C131.121 23.8885 130.571 23.717 129.913 23.717C129.281 23.717 128.745 23.883 128.304 24.2152C127.863 24.5473 127.528 25.0129 127.299 25.6119C127.076 26.2108 126.964 26.916 126.964 27.7273ZM140.261 34.1797C139.765 34.1797 139.341 34.0054 138.987 33.657C138.633 33.3085 138.459 32.8838 138.464 32.3828C138.459 31.8928 138.633 31.4735 138.987 31.125C139.341 30.7765 139.765 30.6023 140.261 30.6023C140.74 30.6023 141.157 30.7765 141.511 31.125C141.87 31.4735 142.052 31.8928 142.058 32.3828C142.052 32.715 141.965 33.0172 141.796 33.2894C141.633 33.5617 141.415 33.7795 141.143 33.9428C140.876 34.1007 140.582 34.1797 140.261 34.1797ZM145.11 34V21.4545H147.936V23.5863H148.083C148.345 22.8675 148.778 22.3067 149.382 21.9038C149.987 21.4954 150.708 21.2912 151.547 21.2912C152.396 21.2912 153.112 21.4981 153.695 21.9119C154.283 22.3203 154.697 22.8784 154.936 23.5863H155.067C155.345 22.8893 155.813 22.3339 156.472 21.9201C157.136 21.5008 157.923 21.2912 158.832 21.2912C159.986 21.2912 160.928 21.656 161.658 22.3857C162.388 23.1153 162.753 24.1798 162.753 25.5792V34H159.788V26.0366C159.788 25.2579 159.581 24.6889 159.167 24.3295C158.753 23.9647 158.247 23.7823 157.648 23.7823C156.934 23.7823 156.376 24.0056 155.973 24.4521C155.576 24.8931 155.377 25.4676 155.377 26.1754V34H152.478V25.9141C152.478 25.2661 152.282 24.7488 151.89 24.3622C151.503 23.9756 150.997 23.7823 150.37 23.7823C149.946 23.7823 149.559 23.8912 149.211 24.109C148.862 24.3214 148.584 24.6236 148.378 25.0156C148.171 25.4022 148.067 25.8542 148.067 26.3714V34H145.11ZM167.573 34.1797C167.078 34.1797 166.653 34.0054 166.299 33.657C165.945 33.3085 165.771 32.8838 165.777 32.3828C165.771 31.8928 165.945 31.4735 166.299 31.125C166.653 30.7765 167.078 30.6023 167.573 30.6023C168.053 30.6023 168.469 30.7765 168.823 31.125C169.182 31.4735 169.365 31.8928 169.37 32.3828C169.365 32.715 169.278 33.0172 169.109 33.2894C168.946 33.5617 168.728 33.7795 168.456 33.9428C168.189 34.1007 167.895 34.1797 167.573 34.1797Z" fill="#032B3A"/>
<path d="M98.6204 24.1266C98.6102 24.3172 97.7554 24.0156 97.7469 24.2062C97.6944 24.3578 97.3745 24.3734 97.1781 24.4062C97.2662 24.5125 97.3525 24.6187 97.4405 24.7265C97.5573 24.6469 97.6741 24.5672 97.7909 24.4859V25.0453C97.4625 24.8578 97.0698 24.5906 96.7414 24.6453C97.3931 24.3406 96.2928 23.8453 96.3047 24.4859C96.2776 24.0531 95.1773 24.0594 95.1688 24.4062C95.7681 24.3344 96.0033 24.7656 96.6551 24.6453C96.5433 25.1906 96.8464 25.4843 97.4422 25.4453C97.1561 25.5375 97.2018 25.8328 97.2679 26.0843C96.6754 26.1015 96.5044 25.5609 96 25.564C95.5886 25.5968 95.5565 25.9359 95.1688 25.764C95.1976 25.6578 95.2264 25.5515 95.2568 25.4437C94.6271 26.1124 93.4134 25.2781 94.3834 24.7234C94.1498 24.564 93.9178 24.4031 93.6842 24.2437V24.4828C93.2864 24.2281 92.9614 24.6469 92.5907 24.3234C92.264 24.2625 90.4002 24.7312 90.187 24.6437C89.9347 25.1265 90.2022 25.4812 90.7117 25.6828C90.0312 25.8187 90.0583 25.0937 89.5759 25.1234C89.7502 24.8844 89.9263 24.6437 90.1006 24.4031C88.9648 24.6453 87.6884 24.514 86.7777 24.9625C86.8065 24.8828 86.8352 24.8031 86.8657 24.7234C86.4425 24.5234 86.2851 24.9922 86.5153 25.2828C86.3274 25.2359 86.2902 25.45 86.2529 25.6031C85.6994 25.464 86.0278 24.9297 86.2529 24.564C86.1361 24.6437 86.0193 24.7234 85.9025 24.8031V24.564C84.7007 24.3859 85.911 26.1578 84.853 26.1624V25.6828C84.7074 25.7093 84.5618 25.7359 84.4163 25.7625C84.3587 25.5437 84.8022 25.5671 85.0291 25.5234C84.9156 25.1531 84.6092 25.0062 84.2419 25.2031V24.8828C83.9829 25.0265 83.773 24.7187 83.5428 24.9625C83.5716 24.8828 83.6003 24.8031 83.6308 24.7234C82.4899 24.6047 82.8081 27.328 81.5318 24.7234C81.332 24.9547 81.0612 25.089 80.7446 25.0437V25.2031C80.6871 25.15 80.6278 25.0968 80.5703 25.0437C80.4822 25.15 80.3959 25.2562 80.3079 25.364C80.4247 25.3109 80.5415 25.2578 80.6583 25.2047C80.6871 25.3375 80.7158 25.4718 80.7463 25.6046C80.6295 25.5781 80.5127 25.5515 80.3959 25.525C80.3671 25.6312 80.3384 25.7375 80.3079 25.8453C79.9507 25.5078 79.7256 25.0781 80.2199 24.8062C79.4513 24.6906 79.2381 25.4093 78.5592 25.2062C78.588 25.1531 78.6168 25.1 78.6473 25.0468C78.109 25.2468 77.6045 24.8328 77.249 25.0468C77.3371 25.1531 77.4234 25.2593 77.5114 25.3672C77.1729 25.2656 76.4348 25.2 76.3756 24.9672C76.1436 25.1562 75.8796 25.3343 75.5884 25.2875C75.6172 25.1812 75.646 25.075 75.6764 24.9672C75.6341 25.1547 75.4107 25.0953 75.2397 25.0468C75.2956 25.5218 75.7221 26.0265 76.2012 25.9265V26.1671H76.5516C76.4941 26.2468 76.4348 26.3265 76.3773 26.4062C76.2384 26.1874 75.7949 26.2999 75.5038 26.3265C75.5326 26.1671 75.5613 26.0062 75.5918 25.8468C75.3582 25.8734 75.1263 25.8999 74.8927 25.9265V25.7671H74.6303C74.8622 26.1515 73.9397 26.3327 73.8432 25.9265C74.0497 25.8531 74.2477 25.7375 74.1936 25.5265C73.745 25.5296 73.5402 25.0656 72.9697 25.2859C73.0171 25.4906 73.3539 25.4406 73.5825 25.4453C73.249 25.8171 72.9968 25.7312 72.621 25.6453C72.3332 25.7125 72.235 25.0797 71.9219 25.2062C71.9794 25.2593 72.0387 25.3125 72.0962 25.3656H71.8338V25.525C71.5528 25.5265 71.1533 25.5703 71.1347 25.2843C70.7911 25.4703 70.5609 25.3422 70.3036 25.2047C69.8076 25.4656 68.8038 25.65 68.3365 25.8437C68.2688 26.0531 68.7411 26.0937 68.9493 26.164H68.5126C68.6006 26.2703 68.687 26.3765 68.775 26.4843C68.3552 26.5906 67.8507 26.5015 67.3767 26.4046C67.5223 26.3249 67.6679 26.2453 67.8135 26.1656C67.5528 25.4781 66.7673 25.8062 66.3272 25.4453C66.1766 25.7062 66.3966 25.864 66.6776 25.9249C66.6201 26.0046 66.5608 26.0843 66.5033 26.1656C66.1529 25.664 64.2282 25.125 64.1435 25.9249C63.981 25.7187 63.7203 25.6562 63.4444 25.6859C63.4055 25.864 63.5155 25.9812 63.7068 26.0062C63.5291 26.2249 63.5646 26.4859 63.7068 26.7265C63.6188 26.753 63.5324 26.7796 63.4444 26.8062C63.59 26.8593 63.7356 26.9124 63.8812 26.9655V26.5656H64.1435C63.7677 27.2733 64.4855 27.5312 64.4059 28.1639H64.6683C64.4008 27.7718 64.7766 27.5155 64.7563 27.0452H64.582C64.8917 25.889 65.0661 27.5108 64.8443 28.0046C65.3471 27.9265 65.2303 26.5906 65.8058 26.7249C65.8025 26.9905 65.8719 27.4343 65.5435 27.4452C65.601 27.578 65.6603 27.7108 65.7178 27.8452C65.7754 27.6858 65.8346 27.5249 65.8922 27.3655C66.2392 27.5343 66.5913 27.4733 66.8537 27.2062C66.8757 27.5421 66.1596 27.9858 66.8537 28.0061V27.8468C67.331 28.0827 67.9811 27.9655 67.7271 27.3671C67.7187 27.9265 69.877 28.1186 69.4758 27.4468C70.1563 27.239 70.4576 28.028 70.9621 27.6062C70.7657 27.4874 70.5592 27.339 70.6116 27.1265C70.9604 27.1421 71.2447 27.3546 71.4851 27.6062C71.5731 27.5265 71.6595 27.4468 71.7475 27.3655C71.5731 28.0952 73.0323 27.864 73.1457 27.3655C73.706 27.7608 74.0023 27.0077 74.632 27.5249C74.6794 27.2062 74.1394 27.1124 74.2816 26.7249C74.6117 26.8999 75.1754 27.0952 75.0687 27.4452H74.7183C74.913 27.978 76.1809 27.5296 75.4174 27.1249C75.6257 26.9515 76.2334 26.9718 76.2046 27.2843C76.3214 27.2312 76.4382 27.178 76.555 27.1249C76.5838 27.2046 76.6125 27.2843 76.643 27.364C76.7598 27.2312 76.8766 27.0968 76.9934 26.964C77.051 27.0968 77.1102 27.2312 77.1678 27.364C77.4319 27.2483 77.6722 27.0765 77.6045 26.8046C78.0091 26.9265 78.1851 27.4249 79.0028 27.4437V26.7234C79.3058 26.853 79.3532 27.1077 79.1771 27.3624C79.3735 27.2546 79.5918 27.1827 79.7899 27.2827C79.7611 27.3624 79.7323 27.4421 79.7019 27.5218C81.2237 27.5155 79.5038 26.0999 80.3147 26.0828C80.1826 26.4484 80.8614 26.7265 80.489 27.2015C80.8343 27.2718 80.7277 26.8937 81.1441 27.0421C81.4387 27.1234 81.4928 27.053 81.5368 26.8827C82.0007 27.2327 82.7235 26.4609 82.6727 26.0828H82.9351C82.7607 26.4031 82.5847 26.7218 82.4103 27.0421C82.5847 27.0155 82.7607 26.989 82.9351 26.9624V27.2015C83.1365 27.2515 83.2042 26.9718 83.2855 26.8015V26.9609C83.6867 26.7765 84.1183 27.3874 84.4213 26.8812C84.4806 27.4358 85.3642 27.2249 85.2085 26.7218C85.4116 26.7749 85.6164 26.828 85.8196 26.8812C85.6046 26.5859 85.7519 26.2671 85.9939 26.0015C85.8297 26.6046 86.473 26.8968 87.0435 27.1202C87.1738 26.9827 87.0164 26.8734 86.8691 26.7999C87.0892 26.539 87.0011 25.8171 86.6067 25.6C87.2195 25.3375 87.6579 26.2359 88.2673 26.0796V25.7593C88.5263 25.6968 88.589 25.9468 88.6177 26.1593H88.181C87.9 26.864 89.0223 27.4671 89.4929 26.9593C89.1611 26.9327 88.5382 26.6202 89.1002 26.439C89.4489 26.5999 89.9347 26.8187 90.5424 26.7187C90.5052 27.5468 91.3617 26.714 91.6783 26.3984C91.5615 26.3718 91.4447 26.3452 91.3279 26.3187C91.592 26.8655 90.5221 26.6796 90.4967 26.2781C90.4307 25.9671 90.9216 25.8468 90.8031 25.5187H90.9775C90.9199 25.3593 90.8607 25.1984 90.8031 25.039C91.0655 25.0125 91.3279 24.9859 91.5903 24.9593V25.2C91.7612 25.2312 91.9508 25.0703 92.115 24.9593C92.1675 25.1859 92.567 25.0593 92.8142 25.039C92.8599 25.2984 92.8226 25.8515 93.1646 25.7593C93.1036 26.3921 92.1929 26.3031 92.2894 26.7984C92.4688 27.0515 93.2915 26.6265 93.5573 26.839C94.2462 27.0874 94.0617 26.3531 93.8637 25.9999C94.0668 26.0796 94.2716 26.1593 94.4765 26.239C94.341 25.9718 94.4612 25.6125 94.8269 25.6796C94.7693 25.839 94.7101 25.9999 94.6525 26.1593C95.3432 25.8953 95.4075 26.9718 96.0507 26.8796C95.9932 26.5093 95.8967 25.964 96.4012 25.9999C96.3436 26.239 96.2844 26.4796 96.2268 26.7202C96.9581 26.4484 97.3914 26.8265 97.9754 26.8796V26.6406C97.1477 26.6999 97.5844 26.1484 98.1498 26.0812C98.1193 26.2812 98.182 26.4609 98.4122 26.4812C98.4968 26.1312 98.4883 25.2531 98.7626 25.2015C98.8421 25.4437 98.9285 25.7406 99.1993 25.7609C99.2789 25.5046 99.3466 25.1375 99.6361 25.1218C99.4329 25.0422 99.2281 24.9625 99.025 24.8828C99.3449 24.7781 99.829 24.6625 99.7241 24.3234C99.8138 24.5797 100.052 24.7281 100.335 24.8031C100.293 24.889 100.256 24.9718 100.117 24.9234C99.5599 24.9094 99.9526 25.6703 99.548 25.8421C99.7393 25.8671 99.8493 25.9843 99.8104 26.1624C100.289 25.9796 100.481 25.664 100.554 25.2828C100.457 24.9343 100.887 25.0922 101.122 25.1234C101.006 25.2297 100.889 25.3359 100.772 25.4437C100.889 25.55 101.006 25.6562 101.122 25.764C101.4 25.3672 102.003 25.389 101.996 25.9234C102.025 25.7906 102.053 25.6562 102.084 25.5234C102.201 25.55 102.317 25.5765 102.434 25.6031C102.377 25.7625 102.317 25.9234 102.26 26.0828C102.377 26.0562 102.493 26.0296 102.61 26.0031V26.2421C102.419 26.2062 102.289 26.3046 102.26 26.4827C102.086 26.4296 101.909 26.3765 101.735 26.3234C101.793 26.2171 101.852 26.1109 101.909 26.0031C101.676 25.9765 101.444 25.9499 101.21 25.9234C101.248 26.0765 101.285 26.289 101.473 26.2437C101.444 26.4031 101.415 26.564 101.385 26.7234C101.657 26.6952 102.424 26.7984 102.521 26.4843C102.607 26.1015 103.26 26.1921 103.57 26.3249C103.292 25.9828 104.66 25.2531 104.444 24.8859C104.606 25.4906 105.651 24.95 106.192 24.8062C106.251 25.1593 105.456 25.525 105.842 25.9249C105.93 24.9984 107.538 24.0266 105.491 24.3266C105.278 24.4969 105.21 24.2375 105.317 24.0875C105.143 24.0609 104.967 24.0344 104.792 24.0078V24.1672C104.354 24.1594 104.31 25.1312 103.656 24.9672C103.773 24.8344 103.89 24.7 104.007 24.5672C103.575 23.4766 102.405 24.5969 101.471 24.0875C101.515 24.3437 101.419 24.5625 101.121 24.5672C101.149 24.6469 101.178 24.7265 101.209 24.8062H100.946C101.004 24.6203 101.063 24.4328 101.121 24.2469C100.741 24.3531 100.362 24.4594 99.9848 24.5672C100.014 24.4609 100.042 24.3547 100.073 24.2469C99.8815 24.2828 99.7512 24.1844 99.7224 24.0062C99.5734 24.2766 98.7744 23.9266 98.6288 24.1266H98.6204ZM107.406 24.1656C107.511 24.3406 107.443 24.6531 107.406 24.8859C107.26 24.8594 107.115 24.8328 106.969 24.8062C107.128 24.4812 107.132 24.1422 106.707 24.0859C107.24 24.6937 106.236 25.025 106.27 25.6046H106.532C106.571 25.789 106.449 25.9234 106.27 26.0046C106.592 26.0109 106.81 26.1953 106.881 26.4843C107.033 26.3031 107.247 26.2109 107.494 26.2437V25.8437C107.377 25.8968 107.26 25.9499 107.144 26.0031C107.22 25.739 106.868 25.714 106.619 25.6828C106.8 25.5781 106.775 25.3828 106.707 25.2031H107.057C106.851 25.8078 107.799 25.8562 107.582 25.2828C107.67 25.2562 107.756 25.2297 107.844 25.2031V25.7625H107.67C107.523 26.9187 108.291 26.3546 108.764 25.9624C109.041 26.1578 108.911 26.3656 109.551 26.2031C110.084 25.8546 111.36 27.1218 111.167 26.2437C112.62 26.8734 113.385 26.6062 114.795 26.4827C115.474 26.3749 115.367 26.5093 115.67 26.6437C115.883 26.5906 115.939 26.3046 116.239 26.3234C116.208 26.2437 116.181 26.164 116.151 26.0828C116.584 25.9578 116.493 26.5421 116.85 26.5624C116.721 26.1703 117.417 26.1546 117.287 25.7625H117.723C117.578 25.9484 117.432 26.1359 117.287 26.3218C117.964 26.1624 117.876 26.8249 118.599 26.5624C119.103 26.3999 119.232 26.5187 119.386 26.8015C119.447 26.489 119.98 26.6827 120.129 26.5624C120.257 26.3921 120.611 26.5031 120.61 26.7218C120.919 26.5437 121.263 26.6218 121.571 26.8015C121.6 26.7484 121.63 26.6952 121.657 26.6421C121.571 26.6156 121.483 26.589 121.395 26.5624C121.541 26.5359 121.686 26.5093 121.832 26.4827V26.803C122.463 26.4796 123.56 27.1046 124.105 26.5624C124.076 26.6156 124.048 26.6687 124.019 26.7218C125.635 26.6124 127.266 27.0468 128.74 27.3608C128.762 27.1484 128.962 27.0937 129.177 27.1218V27.4421C129.407 27.4155 129.683 27.3624 129.613 27.1218C129.889 27.4343 130.423 27.2437 130.837 27.1218C130.809 27.2015 130.778 27.2812 130.751 27.3608C131.037 27.4358 131.211 27.0327 131.362 26.8015C131.401 26.9655 131.567 26.9452 131.711 26.8812C131.741 26.9874 131.768 27.0952 131.799 27.2015C131.973 27.1218 132.149 27.0421 132.324 26.9624V27.2827H132.848C132.76 27.3624 132.674 27.4421 132.586 27.5218C133.495 27.1015 133.999 27.8421 134.859 27.4421C134.763 27.7421 135.293 27.7233 135.559 27.7624C135.474 26.9874 136.495 27.7561 136.782 27.403C137.041 27.0593 137.277 27.2202 137.394 27.5233C137.189 27.5765 136.987 27.6296 136.782 27.6827C136.984 28.1046 137.717 28.1046 137.918 27.6827C137.774 27.7468 137.609 27.7655 137.57 27.603C137.822 27.5921 138.216 27.6593 138.269 27.4437C138.448 27.8327 139.328 27.414 139.318 27.9233C139.127 27.8874 138.995 27.9858 138.969 28.1624C139.43 28.0343 139.509 27.5077 140.193 27.6827C140.136 27.8686 140.077 28.0561 140.019 28.2421C140.419 28.3014 140.772 28.1093 141.069 27.8421C141.157 28.0015 141.243 28.1624 141.331 28.3218C141.588 28.0936 142.487 28.128 142.992 28.0827V28.403C143.444 28.3952 144.006 28.3296 143.865 27.8436C144.537 27.7421 145.052 28.4077 145.614 28.403C145.71 28.1593 145.079 28.2468 145.177 28.003C145.736 27.8452 145.714 28.5171 146.226 28.403V28.1624C146.48 28.2311 146.926 28.2874 146.838 28.5624C147.459 28.7608 147.934 28.028 148.41 28.003C148.295 28.1905 148.177 28.3764 148.061 28.5624C148.207 28.4827 148.353 28.403 148.498 28.3218C148.52 28.6061 148.967 28.6983 149.197 28.5218C149.438 28.3233 149.944 28.7952 150.203 28.6421C150.428 28.5483 150.648 28.6405 150.858 28.7217C150.77 28.3139 151.567 28.1561 151.689 28.5218C151.853 28.9764 152.385 28.5671 152.607 28.3218C152.635 28.428 152.666 28.5343 152.693 28.6421C152.781 28.5889 152.867 28.5358 152.955 28.4827C153.036 28.603 153.116 28.7358 153.304 28.6827C153.58 28.6124 153.478 28.8577 153.785 28.7233C153.988 28.5874 154.541 28.8499 154.704 28.7233C155.342 28.7436 156.368 29.2655 156.977 28.803C157.119 29.2499 157.622 29.1217 158.027 28.9624C157.939 29.0155 157.851 29.0686 157.764 29.1217C159.94 29.3936 163.574 29.4873 165.544 30.1608C165.654 30.0608 165.788 29.8998 165.937 30.0014C166.052 30.1373 166.467 29.8748 166.548 30.0014C166.655 30.128 167.926 29.9592 168.079 30.0811C168.4 30.2358 168.434 29.7952 168.603 29.7608C168.722 29.7639 169.03 29.917 169.216 30.0014C169.048 30.0358 168.817 30.0686 168.866 30.2405C169.113 30.1686 169.38 30.1608 169.478 30.3998C169.666 30.1733 170.318 30.4639 170.528 29.9998C170.487 30.3826 170.929 30.7467 171.227 30.3998C171.159 30.6733 171.401 30.8436 171.664 30.9592C171.723 30.278 172.228 31.0342 172.625 30.7998C172.625 31.1217 172.949 31.1154 173.238 31.0389V31.1982H173.501C173.472 31.092 173.443 30.9857 173.412 30.8779H173.587V30.6389C173.761 30.7639 173.883 30.9357 173.761 31.1186C174.218 31.2123 174.3 30.7936 174.723 30.7186C174.751 30.8514 174.78 30.9857 174.809 31.1186C175.239 30.9076 175.21 31.4639 175.64 31.4795C176.18 31.7435 176.539 31.8592 176.82 31.1998C177.04 31.417 177.331 31.4295 177.607 31.2795C177.628 31.5467 177.959 31.5295 178.22 31.5185V31.8388C178.382 31.7607 178.552 31.7748 178.657 31.9185C178.606 31.7451 178.841 31.7123 179.007 31.6795V31.9185C179.557 31.7795 179.567 32.2263 180.057 32.1982C180.392 32.1545 180.509 32.2326 180.668 32.3982C180.813 32.2638 180.959 32.1326 181.104 31.9982V32.3982C181.746 32.256 182.416 32.806 182.416 32.2388C182.733 32.542 183.239 32.6466 183.728 32.7185C183.7 32.7732 183.671 32.8248 183.64 32.8779C184.101 32.8201 184.46 32.5716 185.04 32.7982C184.719 33.0857 185.157 33.3576 185.477 33.1982C185.419 33.1435 185.36 33.0919 185.303 33.0388C185.391 33.0123 185.477 32.9857 185.565 32.9591V33.1185C187.097 33.4435 188.607 34.0372 190.286 33.9982C190.278 33.795 190.267 33.595 190.504 33.4779C190.852 33.3216 190.499 32.8951 190.897 32.7591C191.552 31.3373 188.9 30.8311 187.925 30.6811C186.963 30.2108 185.765 30.317 184.776 30.042C184.133 29.6186 182.855 29.5092 182.152 29.2827C182.183 29.3624 182.21 29.442 182.24 29.5233C182.112 29.3233 181.843 29.4358 181.628 29.5233V29.1233C180.529 29.3561 180.295 28.6452 178.961 28.6842C176.989 28.4671 175.261 27.9577 173.409 27.9249V27.7655C172.747 27.9046 172.268 27.4405 171.748 27.6858V27.3655C170.963 27.6983 170.504 27.1093 169.825 27.1265C169.883 27.2062 169.942 27.2874 170 27.3655C169.556 27.3218 169.108 26.7546 168.688 27.2062C168.395 26.7718 167.435 27.3452 167.027 27.1265C167.183 27.0312 167.2 26.8765 167.114 26.7265C166.941 26.853 166.836 26.878 166.589 26.6468C166.049 26.3406 165.546 26.4562 164.84 26.4062C164.898 26.4859 164.957 26.5656 165.015 26.6468C164.691 26.5546 164.375 26.5968 164.227 26.8859C164.197 26.6312 164.263 26.3937 164.49 26.2468C164.344 26.3109 164.18 26.3312 164.139 26.1671C164.06 26.4624 163.752 26.5202 163.44 26.4874C163.39 26.314 163.625 26.2812 163.789 26.2468C163.493 26.0437 163.01 26.5265 162.784 26.2062C162.662 26.0109 162.562 25.9968 162.391 26.0062V26.4859C161.394 26.2687 162.558 25.6015 160.993 26.2859C160.497 26.3749 160.586 25.8687 160.249 25.7265C160.014 25.5812 159.428 25.6062 159.07 25.6062V26.4062C159.012 26.139 158.953 25.8734 158.895 25.6062C158.46 26.1265 157.617 24.9843 157.671 25.8468C158.073 25.775 158.367 25.9953 158.546 26.3265C158.25 26.3187 157.668 26.3921 157.629 26.0859C157.6 25.9265 157.483 25.8593 157.279 25.8859C156.881 25.9687 156.95 25.7171 156.623 25.7656C156.798 26.1421 155.84 26.2999 155.836 25.9249C156.06 25.9015 156.158 25.7265 156.185 25.525C156.099 25.5781 156.011 25.6312 155.923 25.6843C155.808 25.2937 155.459 25.1593 155.049 25.2843C155.195 25.364 155.34 25.4437 155.486 25.525C155.369 25.5781 155.252 25.6312 155.136 25.6843C155.166 25.7375 155.193 25.7906 155.224 25.8437C154.968 25.8921 154.8 25.7609 154.787 25.5234C154.67 25.5765 154.555 25.6296 154.436 25.6828C154.403 24.9453 153.717 25.2015 153.213 25.2031C152.948 25.1125 152.828 25.2203 152.688 25.3625C152.469 25.1062 151.923 24.7359 151.726 25.1218C151.638 25.0422 151.55 24.9625 151.464 24.8828C151.188 25.8921 150.763 24.3969 150.24 25.1218C150.157 25.289 150.039 25.289 149.89 25.2812V24.9609C149.37 25.1343 149.412 24.7703 148.796 24.7609C148.117 24.4719 147.405 25.7125 147.354 24.8015C147.066 24.7609 146.821 24.8562 146.743 25.1218H147.005V25.2812C146.799 25.2843 145.869 25.2375 145.781 25.0015C145.541 24.7812 145.407 24.5859 144.95 24.5609C144.539 24.4859 143.376 25.4765 144.033 24.5609C143.42 24.4656 143.333 24.7515 142.765 24.8406C142.358 24.9656 141.732 24.3953 141.409 24.4406C141.111 24.5234 140.992 25.0687 140.666 24.6406C140.525 24.3812 139.757 24.8203 139.616 24.5609C139.489 24.3906 139.318 24.3953 139.135 24.4016V24.5609C138.902 24.5078 138.67 24.4547 138.436 24.4016C138.475 24.5797 138.367 24.6969 138.174 24.7219C138.233 24.6156 138.291 24.5094 138.348 24.4016H137.823C137.825 24.589 137.856 24.8422 137.649 24.8812C137.592 24.6953 137.532 24.5078 137.475 24.3219C137.25 24.3453 137.153 24.5203 137.124 24.7219C136.816 24.4375 136.337 24.6594 136.075 24.5219C135.989 24.3344 135.653 24.5531 135.594 24.3625C135.553 24.2266 135.408 24.2406 135.288 24.2422C135.374 24.3219 135.462 24.4016 135.55 24.4812C135.171 24.4016 134.793 24.3219 134.413 24.2422C134.384 24.375 134.355 24.5094 134.326 24.6422C133.957 24.2469 132.486 24.7 132.315 24.2422C131.504 24.3062 130.269 24.3828 129.429 24.2422V24.4016C129.202 24.4062 128.865 24.3562 128.818 24.5609C128.716 23.9688 127 24.0281 126.807 24.4812C126.885 24.0031 125.322 23.9578 125.234 24.2422C125.011 24.0969 124.759 24.0953 124.535 24.2422C124.505 23.9859 122.021 24.1922 121.999 24.0016V24.2422C121.883 24.2156 121.766 24.1891 121.649 24.1625C121.737 24.375 121.825 24.589 121.911 24.8015C121.766 24.775 121.62 24.7484 121.475 24.7219C121.837 24.2187 120.432 23.8453 120.687 24.4812C120.483 24.2922 120.247 24.0281 119.988 24.0812V24.4016C119.731 24.0297 119.095 24.075 118.588 24.0812C118.704 24.1609 118.822 24.2406 118.937 24.3203C118.614 24.3219 118.519 24.6015 118.5 24.8797C118.412 24.8 118.324 24.7203 118.238 24.639C118.267 24.8531 118.296 25.0656 118.324 25.2781C118.062 25.1453 117.8 25.0109 117.537 24.8781C117.928 25.3875 117.248 25.6578 117.187 24.9578C117.043 25.0109 116.894 25.064 116.75 25.1172C116.865 24.9578 116.984 24.7969 117.099 24.6375C116.852 24.5656 116.696 24.3984 116.75 24.1578H116.488C116.814 24.7094 115.489 24.7203 115.701 24.2375C115.447 24.4141 115.125 24.3531 114.827 24.2375C115.232 24.9562 113.415 24.7906 114.653 24.3969C114.395 23.7219 113.778 24.2391 113.297 24.1578C112.674 23.8813 112.379 24.5859 111.941 24.6781C111.768 24.6328 111.726 24.6953 111.678 24.7984C111.552 24.6047 111.695 24.4047 111.853 24.2391C111.648 24.3125 111.448 24.4297 111.504 24.639C110.832 24.7797 110.668 24.3094 110.104 24.1594C110.047 24.3453 109.987 24.5328 109.93 24.7187C110.048 24.6922 110.162 24.6656 110.28 24.639C110.334 24.8359 109.96 24.9328 109.755 25.039C110.013 25.0672 110.267 25.1406 110.367 25.3593C110.008 25.3375 109.647 25.3703 109.405 25.5984C109.244 25.4343 109.551 25.0937 109.667 24.8781C109.581 24.8515 109.493 24.825 109.405 24.7984C109.37 24.9515 109.329 25.1656 109.143 25.1187C108.982 24.6703 109.916 24.8484 109.755 24.3984H109.493V24.2391C109.193 24.3109 108.879 24.3219 108.706 24.0797V24.4797C108.147 24.5344 107.638 24.4172 107.308 24C107.337 24.0531 107.365 24.1062 107.394 24.1594L107.406 24.1656ZM108.019 24.0469C107.846 24.0828 107.834 24.1406 107.844 24.2469C108.071 24.2422 108.41 24.2922 108.455 24.0875C108.313 24.0391 108.19 24.0031 108.019 24.0469ZM97.0901 24.1656C97.1189 24.1922 97.1477 24.2187 97.1781 24.2453C97.1206 24.1922 97.0613 24.1391 97.0038 24.0859C97.0326 24.1125 97.0613 24.1391 97.0918 24.1656H97.0901ZM117.854 24.1266C117.898 24.1391 117.942 24.1531 117.986 24.1672C117.898 24.1406 117.811 24.1141 117.723 24.0875C117.767 24.1 117.811 24.1141 117.854 24.1281V24.1266ZM94.7287 24.3266C94.7575 24.3531 94.7862 24.3797 94.8167 24.4062C94.7592 24.3531 94.6999 24.3 94.6424 24.2469L94.7304 24.3266H94.7287ZM111.078 24.2859C111.106 24.2984 111.135 24.3125 111.164 24.3266C111.106 24.3 111.047 24.2734 110.99 24.2469C111.018 24.2594 111.047 24.2734 111.076 24.2875L111.078 24.2859ZM98.314 24.3266C98.4596 24.4328 98.6051 24.539 98.7507 24.6469H98.5764C98.6407 24.9359 98.3648 25.2093 98.1396 25.4468C98.0313 25.0625 98.1058 24.6797 98.314 24.3281V24.3266ZM122.357 24.3266C122.445 24.3797 122.531 24.4328 122.619 24.4859H122.357V24.3266ZM105.133 24.4062C105.053 24.5765 104.985 24.8547 104.782 24.8062C104.836 24.6484 104.897 24.4437 104.694 24.4062H105.133ZM108.806 24.4062C108.892 24.4859 108.98 24.5656 109.068 24.6453H108.718C108.748 24.5656 108.775 24.4859 108.806 24.4062ZM117.898 24.5265V24.6469C118.059 24.6844 118.126 24.5437 118.16 24.4078H117.898V24.5281V24.5265ZM115.624 24.4859C115.948 24.825 116.544 24.8828 116.586 25.525C116.701 25.4453 116.819 25.3656 116.935 25.2843C116.963 25.4171 116.994 25.5515 117.023 25.6843C116.831 25.5031 116.562 25.575 116.323 25.6843C116.632 24.9109 114.954 25.1922 115.624 24.4844V24.4859ZM95.3415 24.8453C95.4261 25.189 95.8476 25.4687 96.1286 25.2047C96.1557 25.3812 96.286 25.4796 96.479 25.4437C96.4502 25.2312 96.4215 25.0172 96.391 24.8047C96.0643 24.9515 95.4515 25.0172 95.5175 24.5656H95.2551C95.2839 24.6594 95.3127 24.7515 95.3432 24.8453H95.3415ZM142.683 24.6453C142.736 24.7453 142.888 24.675 142.99 24.6453C142.873 24.6187 142.756 24.5922 142.639 24.5656C142.655 24.5922 142.668 24.6187 142.683 24.6453ZM92.9377 24.6859C93.2052 24.7265 93.2593 24.7469 93.2441 24.8859C93.0037 24.8844 92.7024 24.9078 92.545 24.8062C92.6042 24.6672 92.6652 24.6547 92.9377 24.6859ZM94.6864 24.8062C94.7439 24.9781 94.5966 25.0515 94.468 25.1265C94.6864 25.2734 94.9724 25.4093 95.0791 25.1265H94.8167C94.8861 24.9156 94.92 24.664 94.6424 24.6469C94.6576 24.7 94.6711 24.7531 94.6864 24.8062ZM113.177 24.6453C113.265 24.6984 113.353 24.7515 113.439 24.8047C113.295 24.8578 113.146 24.9109 113.002 24.964C113.06 24.8578 113.119 24.7515 113.177 24.6437V24.6453ZM131.448 24.6453C131.508 24.6984 131.565 24.7515 131.623 24.8047C131.564 24.7515 131.508 24.6984 131.448 24.6453ZM135.034 24.6453C135.063 24.6984 135.093 24.7515 135.12 24.8047C135.091 24.7515 135.061 24.6984 135.034 24.6453ZM82.5779 24.8062C82.6067 24.8328 82.6355 24.8594 82.6659 24.8859C82.6084 24.8328 82.5491 24.7797 82.4916 24.7265C82.5204 24.7531 82.5491 24.7797 82.5796 24.8062H82.5779ZM88.3469 24.7265C88.5517 24.7797 88.7549 24.8328 88.958 24.8859C88.7701 25.0484 88.8463 25.2359 89.046 25.3656C88.7972 25.6375 88.1556 25.6796 88.2589 25.2062H88.4332C88.4045 25.0468 88.3757 24.8859 88.3452 24.7265H88.3469ZM102.074 24.7265C102.307 24.7797 102.539 24.8328 102.773 24.8859C102.627 25.4031 101.815 25.264 102.074 24.7265ZM81.9211 24.8859C81.9059 24.9125 81.8923 24.939 81.8771 24.9656C81.9651 24.9922 82.0515 25.0187 82.1395 25.0453C82.0819 24.9656 82.0227 24.8859 81.9651 24.8047C81.9499 24.8312 81.9363 24.8578 81.9211 24.8844V24.8859ZM85.0257 25.0062C85.0544 25.0734 85.0832 25.139 85.1137 25.2062C85.2 25.0172 85.1865 24.825 84.9393 24.8062C84.9681 24.8734 84.9969 24.939 85.0274 25.0062H85.0257ZM108.543 24.8062C108.572 24.8594 108.603 24.9125 108.63 24.9656C108.601 24.9125 108.571 24.8594 108.543 24.8062ZM114.575 24.8062C114.634 24.8594 114.69 24.9125 114.749 24.9656C114.69 24.9125 114.632 24.8594 114.575 24.8062ZM121.395 24.8062C121.536 25.0062 121.348 25.1375 121.133 25.2062C121.312 25.125 121.434 24.9906 121.395 24.8062ZM134.509 24.8062C134.567 24.8594 134.626 24.9125 134.683 24.9656H134.421C134.45 24.9125 134.48 24.8594 134.509 24.8062ZM112.477 24.8859H112.74V25.0453C112.652 24.9922 112.566 24.939 112.477 24.8859ZM103.123 25.0062C103.238 25.064 103.149 25.3062 103.123 25.4453C102.957 25.3047 102.78 24.9484 103.123 25.0062ZM74.4458 25.0859C73.9549 25.2562 74.6337 25.3468 74.8825 25.3656C74.9401 25.1109 74.698 25.014 74.4458 25.0859ZM103.472 25.0453C103.719 25.1218 103.887 25.2859 103.909 25.525C103.792 25.5515 103.675 25.5781 103.558 25.6046C103.529 25.4187 103.501 25.2312 103.47 25.0453H103.472ZM108.892 25.0453C109.18 25.2672 109.148 25.6703 108.718 25.6046C108.748 25.6843 108.775 25.764 108.806 25.8453C108.621 25.7718 108.315 25.7125 108.369 25.525C108.281 25.5515 108.195 25.5781 108.107 25.6046C108.284 25.4406 108.515 25.4781 108.718 25.6046C108.777 25.4187 108.835 25.2312 108.892 25.0453ZM111.778 25.0453H112.127V25.2047C112.012 25.1515 111.893 25.0984 111.778 25.0453ZM103.909 25.125C103.937 25.1781 103.966 25.2312 103.997 25.2843C103.968 25.2312 103.939 25.1781 103.909 25.125ZM149.196 25.125C149.255 25.1781 149.312 25.2312 149.37 25.2843C149.224 25.3375 149.079 25.3906 148.933 25.4437C149.021 25.3375 149.109 25.2297 149.196 25.1234V25.125ZM88.523 25.2453C88.5517 25.2578 88.5805 25.2718 88.611 25.2859C88.5534 25.2593 88.4942 25.2328 88.4366 25.2062C88.4654 25.2187 88.4942 25.2328 88.5246 25.2468L88.523 25.2453ZM93.4185 25.2062C93.5725 25.2593 93.5624 25.7187 93.8552 25.6062C93.6842 26.0859 92.7871 25.2312 93.4185 25.2062ZM120.608 25.2062C120.637 25.3125 120.667 25.4187 120.694 25.5265C120.354 25.4406 120.406 25.9265 120.083 25.9265V25.4468C120.32 25.4656 120.588 25.4484 120.608 25.2078V25.2062ZM83.9761 25.2859C83.9186 25.3656 83.8593 25.4453 83.8018 25.5265C83.8593 25.4468 83.9186 25.3672 83.9761 25.2859ZM118.334 25.2859H118.859C118.974 26.1515 118.262 26.2015 118.334 25.2859ZM122.619 25.2859H122.705V25.5265C122.822 25.5 122.939 25.4734 123.056 25.4468C122.979 25.639 122.934 26.0703 122.705 26.0062V25.6859C122.514 25.65 122.384 25.75 122.357 25.9249C122.299 25.8984 122.24 25.8718 122.182 25.8453C122.287 25.689 122.495 25.289 122.619 25.2859ZM123.843 25.2859C123.9 25.3656 123.96 25.4453 124.017 25.5265H123.843V25.2859ZM149.546 25.2859C149.651 25.4296 149.819 25.4437 149.983 25.3656V25.525H149.37C149.427 25.4453 149.487 25.3656 149.544 25.2843L149.546 25.2859ZM151.381 25.2859C151.439 25.3656 151.498 25.4453 151.555 25.5265C151.212 25.6734 150.978 25.4609 151.381 25.2859ZM76.3705 25.3656C76.5448 25.3921 76.7209 25.4187 76.8952 25.4453C76.6803 25.514 76.4941 25.6453 76.6329 25.8453H76.3705V25.3656ZM118.072 25.3656C118.233 25.5921 117.954 25.7 117.722 25.7656V25.4453C117.839 25.4718 117.955 25.4984 118.072 25.525V25.3656ZM78.6422 25.4453C78.6997 25.4984 78.759 25.5515 78.8166 25.6046C78.7285 25.6578 78.6422 25.7109 78.5542 25.764C78.5829 25.6578 78.6117 25.5515 78.6422 25.4437V25.4453ZM105.265 25.5656C105.305 25.7015 105.449 25.6875 105.571 25.6859C105.454 25.6062 105.337 25.5265 105.221 25.4453C105.236 25.4859 105.249 25.525 105.265 25.5656ZM118.553 25.525C118.539 25.5515 118.524 25.5781 118.511 25.6046H118.685C118.656 25.5515 118.627 25.4984 118.599 25.4453C118.583 25.4718 118.57 25.4984 118.555 25.525H118.553ZM120.957 25.4453H121.045C121.119 25.7015 120.767 25.775 120.52 25.8453C120.643 25.7093 120.835 25.4515 120.957 25.4453ZM91.1891 25.7656C91.1451 25.8453 91.1011 25.9249 91.0587 26.0062C91.7105 26.1406 91.6681 25.1734 91.1891 25.7656ZM68.3704 25.6859C68.3856 25.7125 68.3992 25.739 68.4144 25.7656C68.3856 25.7125 68.3569 25.6593 68.3264 25.6062C68.3416 25.6328 68.3552 25.6593 68.3704 25.6859ZM79.0806 25.6046H79.343V25.8453C79.255 25.7656 79.1686 25.6859 79.0806 25.6046ZM91.9322 25.6859C91.961 25.7125 91.9898 25.739 92.0202 25.7656C91.9627 25.7125 91.9034 25.6593 91.8459 25.6062C91.8747 25.6328 91.9034 25.6593 91.9339 25.6859H91.9322ZM102.817 25.6046H102.947V26.0046C102.802 25.9515 102.656 25.8984 102.51 25.8453C102.587 25.739 102.67 25.5984 102.817 25.6046ZM104.085 25.8046C104.027 25.8718 103.968 25.9374 103.91 26.0046C104.223 26.1781 104.709 26.5984 104.96 26.3249C104.96 26.6327 105.275 26.6749 105.573 26.6452C106.494 25.339 104.838 26.2359 104.261 25.6062C104.203 25.6734 104.144 25.739 104.086 25.8062L104.085 25.8046ZM110.204 25.6046C110.233 25.7109 110.263 25.8171 110.292 25.9249C110.174 25.8984 110.06 25.8718 109.942 25.8453C110.03 25.7656 110.118 25.6859 110.204 25.6046ZM123.58 25.6046C123.811 25.6875 123.85 25.8828 123.755 26.0843C123.696 25.9249 123.638 25.764 123.58 25.6046ZM81.8771 25.6859C81.9346 25.739 81.9939 25.7921 82.0515 25.8453H81.7891C81.8179 25.7921 81.8466 25.739 81.8771 25.6859ZM86.1615 25.6859C86.5509 25.7578 86.4882 26.1656 86.4239 26.4859C86.3427 26.2952 86.2919 25.9546 86.0735 26.0062C86.1023 25.8999 86.1311 25.7921 86.1615 25.6859ZM98.7067 25.7656C98.722 25.7921 98.7355 25.8187 98.7507 25.8453C98.7219 25.7921 98.6932 25.739 98.6627 25.6859C98.6779 25.7125 98.6915 25.739 98.7067 25.7656ZM110.991 25.6859C111.02 25.7656 111.049 25.8453 111.078 25.9249C110.99 25.9515 110.902 25.9781 110.815 26.0046C110.785 25.9249 110.758 25.8453 110.727 25.764C110.815 25.7375 110.902 25.7109 110.99 25.6843L110.991 25.6859ZM73.3099 25.7656C73.8753 25.8281 73.5842 26.3343 73.8347 26.6452C73.4792 26.7031 73.3387 26.964 73.398 27.2843H73.1356C73.1644 27.0718 73.1931 26.8577 73.2236 26.6452H72.7869C72.7141 26.4156 73.3353 26.3968 73.574 26.3249C73.3286 26.2374 73.2862 26.0015 73.3116 25.7656H73.3099ZM107.844 25.7656C107.932 25.8453 108.019 25.9249 108.107 26.0062C108.019 25.9265 107.932 25.8468 107.844 25.7656ZM113.964 25.7656C113.994 25.8453 114.021 25.9249 114.052 26.0062C114.021 25.9265 113.994 25.8468 113.964 25.7656ZM155.403 25.7656C155.76 25.8328 155.835 26.2234 155.403 26.1656V25.7656ZM61.6382 26.0453C61.5942 26.1124 61.5502 26.1781 61.5079 26.2453C61.4029 26.1015 61.2353 26.0874 61.0711 26.1656C61.0525 25.8796 60.653 25.9234 60.372 25.9249C60.543 26.3218 59.8236 26.5515 60.0216 26.8843C60.196 26.8046 60.372 26.7249 60.5464 26.6452C60.5752 26.7515 60.6039 26.8577 60.6344 26.9655C60.4262 26.914 60.4126 27.1937 60.372 27.3655C60.201 26.8702 59.3631 27.0655 59.7592 27.5249C59.6712 27.5515 59.5849 27.578 59.4969 27.6046C59.4393 27.3374 59.3801 27.0718 59.3225 26.8046H59.5849C59.5426 26.5656 59.0517 26.4718 59.0601 26.0843C58.9721 26.1109 58.8858 26.1374 58.7977 26.164C58.9924 26.5531 59.0872 26.9624 58.9721 27.364C58.7977 27.3108 58.6217 27.2577 58.4473 27.2046C59.2379 26.5359 57.8379 26.5265 57.5298 26.3656C57.3453 26.0453 57.1371 26.414 57.1371 26.6452C57.6636 26.6156 58.8333 26.6124 58.0986 27.2046C57.711 26.6124 57.3978 27.4515 56.9628 27.1249C56.934 27.2577 56.9052 27.3921 56.8747 27.5249C56.8172 27.4983 56.7579 27.4718 56.7004 27.4452C56.6124 27.6046 56.526 27.7655 56.438 27.9249C56.5548 27.8983 56.6716 27.8718 56.7884 27.8452V28.0858C57.2522 27.9436 57.2861 28.7874 57.7499 28.6452C57.6619 28.378 57.5755 28.1124 57.4875 27.8452C57.6788 27.8702 57.7888 27.9874 57.7499 28.1655C57.7228 27.7186 59.5595 27.7796 59.6729 28.0061C59.4715 28.1186 59.529 28.3608 59.5849 28.5655C59.8168 28.3264 60.1486 28.353 60.4584 28.4858C60.3957 28.0921 60.9459 28.0843 60.8951 27.7655C60.7495 27.7921 60.6039 27.8186 60.4584 27.8452V27.6062H60.8951V27.3655C61.0119 27.3921 61.1287 27.4187 61.2455 27.4452V27.2858C61.4808 27.4233 61.7347 27.2093 61.9446 27.0452C61.9734 27.1515 62.0022 27.2577 62.0326 27.3655C61.8667 27.3999 61.6331 27.4327 61.6822 27.6062C61.9429 27.5577 62.1274 27.6968 62.207 27.9265C62.3001 27.8327 62.3813 27.7593 62.5574 27.8061C63.2227 27.9155 62.4491 27.1687 62.8198 26.9671C62.7318 26.914 62.6454 26.8609 62.5574 26.8077C62.703 26.7281 62.8486 26.6484 62.9941 26.5671C62.769 26.5156 62.5066 26.4624 62.3813 26.6468C62.4101 26.5406 62.4389 26.4343 62.4694 26.3265C62.2358 26.3796 62.0039 26.4327 61.7703 26.4859C61.7415 26.3796 61.7127 26.2718 61.6822 26.1656H61.9446V26.0062C62.0902 26.0328 62.2358 26.0593 62.3813 26.0859C62.4558 25.8312 61.7161 25.8109 61.6382 26.0453ZM78.6422 25.8453C78.8944 25.864 78.9621 26.1031 78.9926 26.3249H78.5559C78.5846 26.1656 78.6134 26.0046 78.6439 25.8453H78.6422ZM80.7412 25.8453C81.2474 25.8968 81.4268 26.4999 81.8771 26.3249V26.6452C81.3811 26.6562 81.2457 26.2249 80.7412 26.3249V25.8453ZM100.85 25.9249C100.879 25.9515 100.907 25.9781 100.938 26.0046C100.88 25.9515 100.821 25.8984 100.763 25.8453C100.792 25.8718 100.821 25.8984 100.851 25.9249H100.85ZM104.433 25.8453C104.462 25.9515 104.491 26.0578 104.521 26.1656C104.493 26.0593 104.464 25.9531 104.433 25.8453ZM89.7468 25.9249H89.9212V26.1656H89.7468V25.9249ZM119.821 25.9249C119.792 26.1015 119.663 26.1999 119.47 26.1656C119.509 26.0578 119.54 25.9187 119.689 25.9249H119.821ZM63.1245 26.0843C63.1397 26.1109 63.1533 26.1374 63.1685 26.164C63.1397 26.1109 63.1109 26.0578 63.0805 26.0046C63.0957 26.0312 63.1092 26.0578 63.1245 26.0843ZM79.0806 26.0046C79.2262 26.0578 79.3718 26.1109 79.5174 26.164C79.3125 26.2421 79.1009 26.2328 79.0806 26.0046ZM99.4075 26.1656C99.3923 26.2187 99.3788 26.2718 99.3635 26.3249C99.2755 26.2984 99.1892 26.2718 99.1011 26.2453V26.7249C99.565 26.6937 99.8967 26.4109 100.413 26.7249C100.274 26.2952 99.6513 26.4546 99.4515 26.0046C99.4363 26.0578 99.4228 26.1109 99.4075 26.164V26.1656ZM58.0986 26.4046C58.2442 26.3781 58.3898 26.3515 58.5354 26.3249C58.3898 26.2453 58.2442 26.1656 58.0986 26.0843V26.4046ZM92.0626 26.1656C92.0473 26.1921 92.0338 26.2187 92.0185 26.2453H92.1929C92.1641 26.1921 92.1353 26.139 92.1049 26.0859C92.0896 26.1124 92.0761 26.139 92.0609 26.1656H92.0626ZM116.586 26.0843C116.615 26.1374 116.645 26.1906 116.672 26.2437C116.643 26.1906 116.613 26.1374 116.586 26.0843ZM118.771 26.0843C118.8 26.164 118.829 26.2437 118.858 26.3249H118.683C118.712 26.2453 118.742 26.1656 118.771 26.0843ZM59.8456 26.2453C59.8743 26.2718 59.9031 26.2984 59.9336 26.3249C59.876 26.2718 59.8168 26.2187 59.7592 26.1656C59.788 26.1921 59.8168 26.2187 59.8473 26.2453H59.8456ZM70.7742 26.1656C70.8029 26.2187 70.8317 26.2718 70.8622 26.3249C70.8334 26.2718 70.8046 26.2187 70.7742 26.1656ZM77.0696 26.1656C77.1272 26.1921 77.1864 26.2187 77.244 26.2453C77.2152 26.2984 77.1864 26.3515 77.1559 26.4046C77.1272 26.3249 77.0984 26.2453 77.0679 26.1656H77.0696ZM87.4734 26.2453C87.4446 26.2718 87.4159 26.2984 87.3854 26.3249C87.5022 26.3781 87.619 26.4312 87.7358 26.4843C87.7646 26.3781 87.7934 26.2718 87.8238 26.164C87.7003 26.1624 87.5615 26.1546 87.4734 26.2437V26.2453ZM90.0955 26.1656C90.1531 26.2187 90.2123 26.2718 90.2699 26.3249H90.0075C90.0363 26.2718 90.0651 26.2187 90.0955 26.1656ZM61.1575 26.2453C61.3962 26.3702 61.1998 26.6187 61.0694 26.8046C61.0136 26.5984 60.956 26.3577 61.1575 26.2453ZM66.4034 26.2453C66.5811 26.2812 66.5608 26.4312 66.4914 26.5656C66.4626 26.4593 66.4339 26.3531 66.4034 26.2453ZM96.7397 26.2453H97.0021C97.041 26.4234 96.931 26.5406 96.7397 26.5656V26.2453ZM100.98 26.4452C100.936 26.5124 100.892 26.5781 100.85 26.6452C101.009 26.539 101.265 26.4031 101.112 26.2453C101.068 26.3124 101.024 26.3781 100.98 26.4452ZM54.5133 26.4843C54.4558 26.5374 54.3965 26.5906 54.339 26.6437C54.7198 26.6531 54.9839 27.1015 55.4748 26.964V27.1234C55.5324 26.9905 55.5916 26.8562 55.6492 26.7234C55.8726 26.7655 55.8184 27.0749 55.8235 27.2827C56.1147 27.1765 56.4058 27.0702 56.697 26.9624C56.3483 26.5234 55.0008 26.1812 54.5116 26.4827L54.5133 26.4843ZM56.4803 26.4452C56.4651 26.4859 56.4515 26.5249 56.4363 26.5656H56.6107C56.5819 26.4859 56.5531 26.4062 56.5226 26.3265C56.5074 26.3671 56.4939 26.4062 56.4786 26.4468L56.4803 26.4452ZM71.5613 26.3249C71.822 26.4577 72.1385 26.6156 72.3484 26.4046C72.406 26.4843 72.4652 26.564 72.5228 26.6452H72.3484V26.8843C72.0133 26.8687 71.4479 26.7312 71.2989 26.964C71.3869 26.7515 71.4733 26.5374 71.5613 26.3249ZM94.5103 26.4843C94.5255 26.5374 94.5391 26.5906 94.5543 26.6437C94.7659 26.6202 94.9606 26.5343 94.9047 26.3234H94.468C94.4832 26.3765 94.4968 26.4296 94.512 26.4827L94.5103 26.4843ZM87.9542 26.4843C87.9389 26.5109 87.9254 26.5374 87.9102 26.564C87.9389 26.5109 87.9677 26.4577 87.9982 26.4046C87.983 26.4312 87.9694 26.4577 87.9542 26.4843ZM95.6038 26.4046C95.6614 26.4312 95.7207 26.4577 95.7782 26.4843C95.6902 26.5109 95.6039 26.5374 95.5158 26.564C95.5446 26.5109 95.5734 26.4577 95.6038 26.4046ZM50.6673 26.7249C50.256 27.0921 49.8954 26.7202 49.6178 27.164C49.4553 27.428 49.3673 27.439 49.181 27.364C49.2386 27.2843 49.2979 27.2046 49.3554 27.1249C49.2386 27.0984 49.1218 27.0718 49.005 27.0452C49.0592 27.4015 48.6174 27.5108 48.7426 27.9249C48.597 27.8186 48.4515 27.7124 48.3059 27.6046C48.2771 27.7374 48.2483 27.8718 48.2179 28.0046H48.5683C48.5107 28.0843 48.4515 28.1639 48.3939 28.2452C48.7054 28.4077 48.7579 28.064 49.093 28.3655C49.4079 28.6436 49.6601 28.4608 49.6178 28.1655C49.4722 28.1921 49.3266 28.2186 49.181 28.2452C49.176 27.8733 49.6026 27.3577 49.9682 27.7249C50.0511 28.0936 49.4688 28.8499 49.6178 29.2045C49.4147 29.1514 49.2098 29.0983 49.0067 29.0452C49.4214 28.7608 49.3842 28.4921 48.8323 28.5655C48.9034 28.7952 48.9254 29.0374 48.7443 29.2045C49.2758 29.267 49.8649 29.4014 50.581 29.2842C49.6279 28.2764 52.3364 29.1389 52.1553 28.1655C52.5107 28.0952 52.8188 28.6827 53.2048 28.5655C53.1523 28.8186 52.465 28.6452 52.1553 28.6452C52.184 28.8311 52.2128 29.0186 52.2433 29.2045C52.6428 29.0264 53.11 28.8233 53.4672 29.0452C53.6669 28.6749 54.6623 28.1499 54.7791 28.8858C54.691 28.9124 54.6047 28.9389 54.5167 28.9655C54.84 29.1717 55.5933 28.3718 55.4782 28.0858H55.1278C55.1566 27.9796 55.1853 27.8718 55.2158 27.7655C54.8874 27.7124 54.4574 28.4811 54.3423 27.9249C54.3728 27.6608 54.8062 27.5999 54.7791 27.2858C54.2069 27.539 53.9225 26.5577 53.6432 27.4452C53.8599 27.4718 54.0546 27.5593 54.08 27.7655C53.9632 27.7921 53.8464 27.8186 53.7296 27.8452C53.7329 27.5093 53.3487 27.5046 53.0304 27.5249C53.1032 27.2718 52.7511 27.1546 52.5057 27.0452V27.5249C52.3008 27.4468 52.0892 27.4577 52.0689 27.6843C52.0554 27.4468 51.8861 27.3171 51.6322 27.364C51.6627 27.1593 51.7812 26.8484 51.5442 26.8046C51.6017 26.778 51.661 26.7515 51.7185 26.7249C51.3664 26.5921 51.0245 26.4562 50.669 26.7249H50.6673ZM76.4568 26.4843H76.5448C76.5838 26.6624 76.4737 26.7796 76.2825 26.8046C76.3163 26.6921 76.3434 26.4859 76.4568 26.4843ZM77.244 26.4843C77.2727 26.5374 77.3015 26.5906 77.332 26.6437C77.3032 26.5906 77.2744 26.5374 77.244 26.4843ZM77.5944 26.4843C77.6519 26.5374 77.7112 26.5906 77.7687 26.6437H77.5063C77.5351 26.5906 77.5639 26.5374 77.5944 26.4843ZM80.8293 26.4843C80.858 26.5374 80.8868 26.5906 80.9173 26.6437C80.8885 26.5906 80.8597 26.5374 80.8293 26.4843ZM88.6093 26.4843C88.6381 26.5374 88.6668 26.5906 88.6973 26.6437C88.6685 26.5906 88.6398 26.5374 88.6093 26.4843ZM103.997 26.5656C104.005 26.6749 104.288 26.6937 104.433 26.7249C104.344 26.5593 104.196 26.4484 103.997 26.4859V26.5656ZM108.411 26.5656C108.425 26.5921 108.44 26.6187 108.455 26.6452C108.427 26.5921 108.398 26.539 108.369 26.4859C108.384 26.5124 108.398 26.539 108.413 26.5656H108.411ZM108.806 26.6452H109.068V26.4859H108.806V26.6452ZM162.398 26.4843H162.572C162.543 26.564 162.513 26.6437 162.486 26.7234C162.457 26.6437 162.426 26.564 162.398 26.4843ZM52.3279 26.8046H52.1536C52.1823 26.9109 52.2111 27.0171 52.2416 27.1249C52.4261 27.0515 52.7325 26.9905 52.6783 26.8046C52.8239 26.8312 52.9695 26.8577 53.1151 26.8843C52.8832 26.6952 52.6191 26.5171 52.3279 26.564V26.8046ZM53.5078 26.7249C53.4587 26.8843 53.5281 26.9218 53.6381 26.9655C53.7228 26.8155 53.7075 26.6609 53.5501 26.5656C53.5349 26.6187 53.5213 26.6718 53.5061 26.7249H53.5078ZM70.6878 26.5656C70.7454 26.6187 70.8046 26.6718 70.8622 26.7249C70.8029 26.6718 70.7454 26.6187 70.6878 26.5656ZM75.0586 26.6452C75.1161 26.6984 75.1754 26.7515 75.2329 26.8046C75.1449 26.8312 75.0586 26.8577 74.9706 26.8843C74.9993 26.8046 75.0281 26.7249 75.0586 26.6452ZM87.211 26.8843C87.294 27.1734 87.7832 27.1718 88.0845 27.2046C88.0625 26.9093 87.4565 26.7827 87.123 26.6452C87.1518 26.7249 87.1806 26.8046 87.211 26.8843ZM91.7562 26.764V26.8843C91.9034 26.853 92.0592 26.7937 92.0185 26.6452H91.7562V26.7655V26.764ZM103.342 26.6843C103.386 26.6968 103.43 26.7109 103.472 26.7249C103.384 26.6984 103.298 26.6718 103.21 26.6452C103.254 26.6577 103.298 26.6718 103.34 26.6859L103.342 26.6843ZM118.859 26.6843C118.888 26.6968 118.917 26.7109 118.946 26.7249C118.888 26.6984 118.829 26.6718 118.771 26.6452C118.8 26.6577 118.829 26.6718 118.858 26.6859L118.859 26.6843ZM51.8032 27.0437C51.964 27.0812 52.03 26.939 52.0655 26.8046C51.9775 26.778 51.8912 26.7515 51.8032 26.7249V27.0437ZM165.196 26.8046C165.362 26.839 165.595 26.8718 165.544 27.0437H165.196V26.8046ZM71.6493 26.964C71.7661 27.0437 71.8829 27.1234 71.9997 27.203C71.8254 27.2562 71.6493 27.3093 71.475 27.3624C71.5325 27.2296 71.5918 27.0952 71.6493 26.9624V26.964ZM47.9572 27.2046C47.9284 27.2577 47.8996 27.3108 47.8691 27.364C48.1281 27.3749 48.4616 27.3905 48.4819 27.1249C48.3177 27.203 48.1501 27.189 48.0452 27.0452C48.0164 27.0984 47.9876 27.1515 47.9572 27.2046ZM63.1685 27.3249C63.1397 27.4187 63.1109 27.5108 63.0805 27.6046H63.3428C63.3141 27.7108 63.2853 27.8171 63.2548 27.9249C63.5883 27.9546 63.5341 27.1327 63.2548 27.0452C63.226 27.139 63.1973 27.2312 63.1668 27.3249H63.1685ZM86.5119 27.164C86.5407 27.178 86.5695 27.1905 86.6 27.2046C86.5424 27.178 86.4831 27.1515 86.4256 27.1249C86.4544 27.1374 86.4832 27.1515 86.5136 27.1655L86.5119 27.164ZM45.3334 27.364C45.1455 27.5593 44.6732 27.4733 44.3719 27.4437C44.4006 27.5765 44.4294 27.7093 44.4599 27.8436C44.1501 27.8936 44.0113 27.4999 43.6727 27.6843C43.7015 27.7905 43.7303 27.8968 43.7608 28.0046C43.2005 27.7655 42.9652 28.7858 42.6249 28.8046C42.6537 28.4046 42.6825 28.0046 42.7129 27.6046C42.3236 27.6421 42.4285 28.1827 41.8818 27.964C41.2301 27.789 40.6782 28.2983 40.0028 28.1639C39.9825 28.3202 40.0688 28.3202 40.3955 28.3639C41.3723 28.453 40.1298 28.9061 40.3515 29.3639C40.3651 29.1264 40.5343 28.9967 40.7882 29.0436C40.7645 29.3233 40.8018 29.6077 41.0506 29.7639C40.817 29.7373 40.5851 29.7108 40.3515 29.6842C40.5326 29.7889 40.5072 29.9842 40.4395 30.1639C40.9643 30.3248 41.2487 29.6467 41.5754 30.4029C41.3773 30.0795 41.7904 29.628 42.0121 29.4436C42.1628 29.3124 42.7265 29.542 42.7112 29.2045C42.889 29.3452 43.1954 29.5014 43.148 29.6842H42.8856C42.9922 30.2264 43.5712 30.1967 44.0215 30.0045C43.9639 29.8452 43.9047 29.6842 43.8471 29.5248C44.1129 29.4889 44.5411 29.4889 44.4599 29.2045H45.159C45.0507 29.4983 45.6651 29.6139 45.8581 29.6045C45.6973 29.5686 45.6651 29.4295 45.6838 29.2842C45.8818 29.2374 46.0037 29.517 46.1205 29.6842C46.3118 29.3858 46.8349 29.3795 47.17 29.5248C47.1412 29.3655 47.1125 29.2045 47.082 29.0452C47.3173 29.2983 47.6068 29.5045 47.9555 29.4452V28.9655H48.3922C48.421 28.3639 47.7066 28.4108 47.3427 28.0061C47.6017 27.9952 47.9352 27.9796 47.9555 28.2468C48.013 28.1936 48.0723 28.1405 48.1298 28.0874C47.9115 27.8499 47.6254 27.6249 47.3427 27.8468V27.4468C47.3241 27.6827 47.1599 27.8311 46.906 27.8468C46.9635 27.6874 47.0228 27.5265 47.0803 27.3671C46.8484 27.3187 46.6859 27.5062 46.5555 27.6874C46.4371 27.278 45.6584 27.0874 45.3317 27.3671L45.3334 27.364ZM62.8621 27.2843C62.8469 27.3108 62.8333 27.3374 62.8181 27.364H62.9924C62.9637 27.3108 62.9349 27.2577 62.9044 27.2046C62.8892 27.2312 62.8756 27.2577 62.8604 27.2843H62.8621ZM143.513 27.364H143.599C143.371 27.5468 143.543 27.8765 143.163 28.003C142.983 27.889 143.377 27.3702 143.513 27.364ZM47.6068 27.4843C47.6355 27.4968 47.6643 27.5108 47.6948 27.5249C47.6372 27.4983 47.578 27.4718 47.5204 27.4452C47.5492 27.4593 47.578 27.4718 47.6085 27.4858L47.6068 27.4843ZM60.1079 27.6046C60.1367 27.6577 60.1655 27.7108 60.196 27.764C60.1672 27.7108 60.1384 27.6577 60.1079 27.6046ZM55.8252 27.8436H56.0876C55.9996 27.7905 55.9132 27.7374 55.8252 27.6843V27.8436ZM63.6933 27.8843C63.6916 28.0733 63.7423 28.1171 63.8676 28.1639V27.6843H63.6933V27.8843ZM61.1575 27.8843C61.1287 27.9249 61.0999 27.964 61.0694 28.0046C61.3657 28.1655 61.7618 28.4514 62.0309 28.4046V28.2452C62.1477 28.2718 62.2645 28.2983 62.3813 28.3249C62.3526 28.2186 62.3238 28.1124 62.2933 28.0046C61.8904 28.3843 61.5299 27.439 61.1575 27.8843ZM46.0325 27.8436H46.2949V28.003C46.2068 27.9499 46.1205 27.8968 46.0325 27.8436ZM65.4419 27.8843C65.4707 27.8983 65.4994 27.9108 65.5299 27.9249C65.4724 27.8983 65.4131 27.8718 65.3556 27.8452C65.3843 27.8593 65.4131 27.8718 65.4436 27.8858L65.4419 27.8843ZM43.7591 28.0046C43.8166 28.0577 43.8759 28.1108 43.9334 28.1639C43.8742 28.1108 43.8166 28.0577 43.7591 28.0046ZM47.126 28.0843C47.1988 28.1108 47.2716 28.1374 47.3444 28.1639H46.8196C46.8704 28.0452 46.9178 28.0046 47.126 28.0843ZM51.4528 28.0046C51.5408 28.0311 51.6271 28.0577 51.7151 28.0843C51.6864 28.1374 51.6576 28.1905 51.6271 28.2436C51.5679 28.1639 51.5103 28.0843 51.4528 28.003V28.0046ZM55.6932 28.0843C55.6779 28.1108 55.6644 28.1374 55.6492 28.1639C55.7947 28.1905 55.9403 28.2171 56.0859 28.2436V28.003C55.9539 28.0046 55.744 27.9827 55.6932 28.0827V28.0843ZM58.3593 28.1233C58.1105 28.2343 58.0834 28.3155 58.0969 28.4827C58.4152 28.2421 58.7977 28.0186 59.1464 28.2436V28.003C58.8756 27.9983 58.6183 27.9952 58.3593 28.1233ZM60.196 28.0046H60.4584V28.1639H60.196V28.0046ZM63.9996 28.1639C63.9844 28.1905 63.9709 28.2171 63.9556 28.2436H64.218C64.1605 28.1905 64.1012 28.1374 64.0437 28.0843C64.0284 28.1108 64.0149 28.1374 63.9996 28.1639ZM50.4049 28.1639C50.4337 28.2436 50.4625 28.3233 50.493 28.4046C50.4642 28.3249 50.4354 28.2452 50.4049 28.1639ZM56.4363 28.3233H56.1739V28.6436C56.4956 28.7186 56.6276 28.4343 56.6987 28.1639H56.4363V28.3233ZM62.5997 28.2843C62.5845 28.3249 62.5709 28.3639 62.5557 28.4046C62.6437 28.378 62.7301 28.3514 62.8181 28.3249C62.7588 28.2718 62.7013 28.2186 62.6437 28.1655C62.6285 28.2061 62.615 28.2452 62.5997 28.2858V28.2843ZM144.388 28.2843C144.446 28.3249 144.505 28.3639 144.562 28.4046C144.535 28.228 144.403 28.1296 144.214 28.1639C144.271 28.2046 144.331 28.2436 144.388 28.2843ZM150.682 28.1639C150.741 28.2436 150.799 28.3233 150.856 28.4046C150.741 28.4311 150.623 28.4577 150.507 28.4843C150.565 28.378 150.624 28.2718 150.682 28.1639ZM53.5518 28.2436C53.6669 28.2452 53.6923 28.4499 53.7262 28.5639C53.5806 28.5905 53.435 28.6171 53.2894 28.6436C53.3538 28.5077 53.4333 28.2499 53.5518 28.2436ZM55.6492 28.3639V28.4843H55.8235C55.766 28.4046 55.7067 28.3249 55.6492 28.2452V28.3655V28.3639ZM46.5572 28.3233C46.9398 28.3639 46.9855 28.953 46.5572 28.8827V28.3233ZM59.2785 28.5233C59.3225 28.5374 59.3665 28.5499 59.4088 28.5639C59.3208 28.5374 59.2345 28.5108 59.1464 28.4843C59.1905 28.4983 59.2345 28.5108 59.2768 28.5249L59.2785 28.5233ZM42.0121 28.5639C42.0409 28.6171 42.0697 28.6702 42.1002 28.7233C42.0714 28.6702 42.0426 28.6171 42.0121 28.5639ZM40.0011 28.803C40.0891 28.7764 40.1755 28.7499 40.2635 28.7233C40.1755 28.6967 40.0891 28.6702 40.0011 28.6436V28.803ZM45.7701 28.803C45.8243 28.9608 45.8852 29.1655 45.6821 29.203C45.7109 29.0702 45.7396 28.9358 45.7701 28.803ZM42.9736 28.8842C43.2123 28.9592 43.4713 29.0561 43.4984 29.2842C43.1801 29.3436 42.9753 29.1827 42.9736 28.8842ZM45.2453 28.8842C45.3029 28.9108 45.3621 28.9374 45.4197 28.9639C45.3909 29.0171 45.3621 29.0702 45.3317 29.1233C45.2741 29.0967 45.2149 29.0702 45.1573 29.0436C45.1861 28.9905 45.2149 28.9374 45.2453 28.8842ZM40.9626 29.0436C40.9914 29.0967 41.0202 29.1499 41.0506 29.203C41.0218 29.1499 40.9931 29.0967 40.9626 29.0436ZM41.8361 29.2827C41.8649 29.3624 41.8936 29.442 41.9241 29.5233H41.7497C41.7785 29.4436 41.8073 29.3639 41.8378 29.2827H41.8361ZM42.1865 30.203C42.2153 30.2436 42.244 30.2826 42.2745 30.3233V30.0826H42.1002C42.1289 30.1233 42.1577 30.1623 42.1882 30.203H42.1865ZM175.948 31.042H176.035V31.2811H175.686C175.754 31.1889 175.842 31.0373 175.948 31.042ZM190.462 32.481C190.52 32.5357 190.579 32.5873 190.637 32.6404C190.55 32.6935 190.462 32.7482 190.374 32.7998C190.403 32.6935 190.433 32.5873 190.462 32.4795V32.481Z" fill="#D24232"/>
</svg>
