<svg width="224" height="117" viewBox="0 0 224 117" fill="none" xmlns="http://www.w3.org/2000/svg">
<g clip-path="url(#clip0_27_6376)">
<path d="M11 47C11 42.5817 14.5817 39 19 39H206C210.418 39 214 42.5817 214 47V69C214 73.4183 210.418 77 206 77H19C14.5817 77 11 73.4183 11 69V47Z" fill="#F1F0E9"/>
<path d="M28.9194 53.496L29.5674 54.528L23.9194 57.992L29.5674 61.488L28.8474 62.472L22.7674 58.672V57.296L28.9194 53.496ZM33.9051 51.056V55.728C34.2358 55.2853 34.6411 54.9547 35.1211 54.736C35.6065 54.512 36.0971 54.4 36.5931 54.4C37.4145 54.4 38.0145 54.6187 38.3931 55.056C38.7718 55.4933 38.9611 56.1013 38.9611 56.88V63H37.6171V56.912C37.6171 56.4053 37.4998 56.0373 37.2651 55.808C37.0305 55.5733 36.6625 55.456 36.1611 55.456C35.8411 55.456 35.5371 55.528 35.2491 55.672C34.9611 55.816 34.7025 55.9947 34.4731 56.208C34.2438 56.4213 34.0545 56.64 33.9051 56.864V63H32.5611V51.2L33.9051 51.056ZM43.2109 59.264C43.2375 59.9147 43.3629 60.448 43.5869 60.864C43.8109 61.2747 44.1069 61.5787 44.4749 61.776C44.8429 61.968 45.2429 62.064 45.6749 62.064C46.1069 62.064 46.4962 62 46.8429 61.872C47.1949 61.744 47.5549 61.5547 47.9229 61.304L48.5549 62.192C48.1602 62.5013 47.7095 62.744 47.2029 62.92C46.7015 63.096 46.1869 63.184 45.6589 63.184C44.8429 63.184 44.1469 63 43.5709 62.632C42.9949 62.264 42.5549 61.752 42.2509 61.096C41.9522 60.4347 41.8029 59.6693 41.8029 58.8C41.8029 57.9467 41.9549 57.1893 42.2589 56.528C42.5629 55.8667 42.9895 55.3467 43.5389 54.968C44.0882 54.5893 44.7362 54.4 45.4829 54.4C46.1922 54.4 46.8029 54.568 47.3149 54.904C47.8269 55.2347 48.2189 55.7093 48.4909 56.328C48.7682 56.9413 48.9069 57.6747 48.9069 58.528C48.9069 58.672 48.9042 58.808 48.8989 58.936C48.8935 59.0587 48.8855 59.168 48.8749 59.264H43.2109ZM45.4989 55.504C44.8749 55.504 44.3522 55.7253 43.9309 56.168C43.5149 56.6107 43.2775 57.296 43.2189 58.224H47.6109C47.5949 57.3227 47.3975 56.6453 47.0189 56.192C46.6402 55.7333 46.1335 55.504 45.4989 55.504ZM55.0286 51.184V60.92C55.0286 61.336 55.1566 61.632 55.4126 61.808C55.674 61.9787 56.01 62.064 56.4206 62.064C56.6766 62.064 56.9193 62.0373 57.1486 61.984C57.378 61.9307 57.6073 61.8587 57.8366 61.768L58.1966 62.752C57.9673 62.864 57.682 62.9627 57.3406 63.048C57.0046 63.1387 56.6233 63.184 56.1966 63.184C55.45 63.184 54.8446 62.9787 54.3806 62.568C53.9166 62.152 53.6846 61.5787 53.6846 60.848V52.248H51.1006V51.184H55.0286ZM64.6224 51.184V60.92C64.6224 61.336 64.7504 61.632 65.0064 61.808C65.2677 61.9787 65.6037 62.064 66.0144 62.064C66.2704 62.064 66.513 62.0373 66.7424 61.984C66.9717 61.9307 67.201 61.8587 67.4304 61.768L67.7904 62.752C67.561 62.864 67.2757 62.9627 66.9344 63.048C66.5984 63.1387 66.217 63.184 65.7904 63.184C65.0437 63.184 64.4384 62.9787 63.9744 62.568C63.5104 62.152 63.2784 61.5787 63.2784 60.848V52.248H60.6944V51.184H64.6224ZM74.1441 54.4C74.9388 54.4 75.6028 54.5813 76.1361 54.944C76.6748 55.3013 77.0775 55.808 77.3441 56.464C77.6161 57.12 77.7521 57.8933 77.7521 58.784C77.7521 59.6427 77.6135 60.4027 77.3361 61.064C77.0588 61.7253 76.6508 62.2453 76.1121 62.624C75.5788 62.9973 74.9175 63.184 74.1281 63.184C73.3388 63.184 72.6748 63.0027 72.1361 62.64C71.5975 62.2773 71.1895 61.768 70.9121 61.112C70.6401 60.4507 70.5041 59.68 70.5041 58.8C70.5041 57.9307 70.6428 57.1653 70.9201 56.504C71.1975 55.8427 71.6055 55.328 72.1441 54.96C72.6881 54.5867 73.3548 54.4 74.1441 54.4ZM74.1441 55.496C73.4188 55.496 72.8695 55.7653 72.4961 56.304C72.1281 56.8373 71.9441 57.6693 71.9441 58.8C71.9441 59.9093 72.1255 60.7333 72.4881 61.272C72.8561 61.8107 73.4028 62.08 74.1281 62.08C74.8535 62.08 75.3975 61.8107 75.7601 61.272C76.1281 60.7333 76.3121 59.904 76.3121 58.784C76.3121 57.664 76.1308 56.8373 75.7681 56.304C75.4055 55.7653 74.8641 55.496 74.1441 55.496ZM83.4579 51.808C84.2845 51.808 84.9805 51.9333 85.5459 52.184C86.1165 52.4293 86.5805 52.768 86.9379 53.2C87.3005 53.632 87.5779 54.1333 87.7699 54.704C87.9672 55.2693 88.1032 55.872 88.1779 56.512C88.2525 57.1467 88.2899 57.792 88.2899 58.448C88.2899 59.792 88.2259 60.9093 88.0979 61.8C87.9752 62.6853 87.7459 63.3467 87.4099 63.784C87.0739 64.2267 86.5832 64.448 85.9379 64.448C85.6072 64.448 85.3219 64.368 85.0819 64.208C84.8419 64.048 84.6445 63.8453 84.4899 63.6C84.3352 63.36 84.2232 63.112 84.1539 62.856C84.0845 62.5947 84.0525 62.368 84.0579 62.176H83.9939C83.8979 62.4213 83.7592 62.664 83.5779 62.904C83.4019 63.1387 83.1699 63.3333 82.8819 63.488C82.5939 63.648 82.2365 63.728 81.8099 63.728C81.2285 63.728 80.7592 63.5707 80.4019 63.256C80.0499 62.9413 79.7939 62.5067 79.6339 61.952C79.4739 61.3973 79.3939 60.768 79.3939 60.064C79.3939 58.672 79.6712 57.6373 80.2259 56.96C80.7805 56.2773 81.5485 55.936 82.5299 55.936C82.9032 55.936 83.2605 55.976 83.6019 56.056C83.9432 56.136 84.3379 56.296 84.7859 56.536V61.264C84.7859 61.84 84.8365 62.28 84.9379 62.584C85.0392 62.8827 85.1752 63.088 85.3459 63.2C85.5165 63.312 85.7059 63.368 85.9139 63.368C86.1645 63.368 86.3592 63.2427 86.4979 62.992C86.6365 62.7413 86.7352 62.392 86.7939 61.944C86.8525 61.496 86.8872 60.976 86.8979 60.384C86.9085 59.7867 86.9139 59.1467 86.9139 58.464C86.9139 57.7013 86.8712 56.9893 86.7859 56.328C86.7005 55.6613 86.5379 55.0773 86.2979 54.576C86.0579 54.0747 85.7112 53.6827 85.2579 53.4C84.8045 53.1173 84.2099 52.976 83.4739 52.976C82.9565 52.976 82.3912 53.072 81.7779 53.264C81.1699 53.4507 80.5245 53.8453 79.8419 54.448L79.0739 53.552C79.7885 52.928 80.5192 52.4827 81.2659 52.216C82.0179 51.944 82.7485 51.808 83.4579 51.808ZM82.5939 56.928C81.8632 56.928 81.3645 57.192 81.0979 57.72C80.8312 58.248 80.6979 59.0293 80.6979 60.064C80.6979 60.5867 80.7352 61.048 80.8099 61.448C80.8899 61.8427 81.0232 62.1547 81.2099 62.384C81.3965 62.608 81.6499 62.72 81.9699 62.72C82.3432 62.72 82.6365 62.6347 82.8499 62.464C83.0685 62.2933 83.2339 62.0987 83.3459 61.88C83.4632 61.656 83.5539 61.4667 83.6179 61.312V57.168C83.4525 57.0827 83.2872 57.0213 83.1219 56.984C82.9619 56.9467 82.7859 56.928 82.5939 56.928ZM91.1796 59.264C91.2063 59.9147 91.3316 60.448 91.5556 60.864C91.7796 61.2747 92.0756 61.5787 92.4436 61.776C92.8116 61.968 93.2116 62.064 93.6436 62.064C94.0756 62.064 94.465 62 94.8116 61.872C95.1636 61.744 95.5236 61.5547 95.8916 61.304L96.5236 62.192C96.129 62.5013 95.6783 62.744 95.1716 62.92C94.6703 63.096 94.1556 63.184 93.6276 63.184C92.8116 63.184 92.1156 63 91.5396 62.632C90.9636 62.264 90.5236 61.752 90.2196 61.096C89.921 60.4347 89.7716 59.6693 89.7716 58.8C89.7716 57.9467 89.9236 57.1893 90.2276 56.528C90.5316 55.8667 90.9583 55.3467 91.5076 54.968C92.057 54.5893 92.705 54.4 93.4516 54.4C94.161 54.4 94.7716 54.568 95.2836 54.904C95.7956 55.2347 96.1876 55.7093 96.4596 56.328C96.737 56.9413 96.8756 57.6747 96.8756 58.528C96.8756 58.672 96.873 58.808 96.8676 58.936C96.8623 59.0587 96.8543 59.168 96.8436 59.264H91.1796ZM93.4676 55.504C92.8436 55.504 92.321 55.7253 91.8996 56.168C91.4836 56.6107 91.2463 57.296 91.1876 58.224H95.5796C95.5636 57.3227 95.3663 56.6453 94.9876 56.192C94.609 55.7333 94.1023 55.504 93.4676 55.504ZM100.533 63H98.9974L102.109 58.552L99.3814 54.576H100.973L102.925 57.712L104.901 54.576H106.437L103.717 58.496L106.821 63H105.173L102.869 59.384L100.533 63ZM115.343 61.16C115.343 61.496 115.399 61.7413 115.511 61.896C115.623 62.0507 115.796 62.1653 116.031 62.24L115.703 63.184C115.34 63.136 115.023 63.0213 114.751 62.84C114.479 62.6533 114.282 62.3733 114.159 62C113.855 62.3893 113.476 62.6853 113.023 62.888C112.57 63.0853 112.068 63.184 111.519 63.184C110.676 63.184 110.012 62.9467 109.527 62.472C109.042 61.9973 108.799 61.368 108.799 60.584C108.799 59.7147 109.138 59.048 109.815 58.584C110.492 58.12 111.471 57.888 112.751 57.888H113.991V57.184C113.991 56.576 113.812 56.1467 113.455 55.896C113.103 55.64 112.612 55.512 111.983 55.512C111.706 55.512 111.38 55.5467 111.007 55.616C110.634 55.68 110.228 55.7893 109.791 55.944L109.439 54.928C109.956 54.736 110.442 54.6 110.895 54.52C111.348 54.44 111.78 54.4 112.191 54.4C113.242 54.4 114.028 54.6453 114.551 55.136C115.079 55.6213 115.343 56.2827 115.343 57.12V61.16ZM111.863 62.16C112.279 62.16 112.676 62.056 113.055 61.848C113.434 61.6347 113.746 61.3413 113.991 60.968V58.8H112.775C111.847 58.8 111.191 58.96 110.807 59.28C110.428 59.6 110.239 60.0293 110.239 60.568C110.239 61.0907 110.372 61.488 110.639 61.76C110.911 62.0267 111.319 62.16 111.863 62.16ZM124.457 54.4C124.729 54.4 124.988 54.4587 125.233 54.576C125.484 54.6933 125.689 54.92 125.849 55.256C126.009 55.592 126.089 56.0827 126.089 56.728V63H124.841V56.944C124.841 56.416 124.809 56.0347 124.745 55.8C124.681 55.5653 124.497 55.448 124.193 55.448C123.942 55.448 123.692 55.528 123.441 55.688C123.196 55.8427 122.956 56.0987 122.721 56.456V63H121.465V56.944C121.465 56.416 121.433 56.0347 121.369 55.8C121.305 55.5653 121.121 55.448 120.817 55.448C120.556 55.448 120.302 55.528 120.057 55.688C119.817 55.8427 119.58 56.0987 119.345 56.456V63H118.105V54.576H119.161L119.241 55.552C119.47 55.2267 119.726 54.9547 120.009 54.736C120.297 54.512 120.652 54.4 121.073 54.4C121.393 54.4 121.694 54.4773 121.977 54.632C122.26 54.7813 122.468 55.0747 122.601 55.512C122.83 55.1813 123.089 54.9147 123.377 54.712C123.665 54.504 124.025 54.4 124.457 54.4ZM132.267 54.4C133.013 54.4 133.608 54.5813 134.051 54.944C134.499 55.3067 134.821 55.8187 135.019 56.48C135.216 57.136 135.315 57.904 135.315 58.784C135.315 59.632 135.195 60.3893 134.955 61.056C134.72 61.7173 134.363 62.2373 133.883 62.616C133.403 62.9947 132.797 63.184 132.067 63.184C131.144 63.184 130.403 62.8587 129.843 62.208V66.224L128.499 66.392V54.576H129.643L129.755 55.752C130.064 55.32 130.432 54.9867 130.859 54.752C131.291 54.5173 131.76 54.4 132.267 54.4ZM131.947 55.48C131.483 55.48 131.072 55.6213 130.715 55.904C130.363 56.1813 130.072 56.4907 129.843 56.832V61.008C130.061 61.3333 130.336 61.592 130.667 61.784C131.003 61.9707 131.371 62.064 131.771 62.064C132.469 62.064 132.995 61.7973 133.347 61.264C133.699 60.7307 133.875 59.9013 133.875 58.776C133.875 58.04 133.805 57.4293 133.667 56.944C133.528 56.4533 133.317 56.088 133.035 55.848C132.752 55.6027 132.389 55.48 131.947 55.48ZM141.372 51.184V60.92C141.372 61.336 141.5 61.632 141.756 61.808C142.018 61.9787 142.354 62.064 142.764 62.064C143.02 62.064 143.263 62.0373 143.492 61.984C143.722 61.9307 143.951 61.8587 144.18 61.768L144.54 62.752C144.311 62.864 144.026 62.9627 143.684 63.048C143.348 63.1387 142.967 63.184 142.54 63.184C141.794 63.184 141.188 62.9787 140.724 62.568C140.26 62.152 140.028 61.5787 140.028 60.848V52.248H137.444V51.184H141.372ZM148.742 59.264C148.769 59.9147 148.894 60.448 149.118 60.864C149.342 61.2747 149.638 61.5787 150.006 61.776C150.374 61.968 150.774 62.064 151.206 62.064C151.638 62.064 152.027 62 152.374 61.872C152.726 61.744 153.086 61.5547 153.454 61.304L154.086 62.192C153.691 62.5013 153.241 62.744 152.734 62.92C152.233 63.096 151.718 63.184 151.19 63.184C150.374 63.184 149.678 63 149.102 62.632C148.526 62.264 148.086 61.752 147.782 61.096C147.483 60.4347 147.334 59.6693 147.334 58.8C147.334 57.9467 147.486 57.1893 147.79 56.528C148.094 55.8667 148.521 55.3467 149.07 54.968C149.619 54.5893 150.267 54.4 151.014 54.4C151.723 54.4 152.334 54.568 152.846 54.904C153.358 55.2347 153.75 55.7093 154.022 56.328C154.299 56.9413 154.438 57.6747 154.438 58.528C154.438 58.672 154.435 58.808 154.43 58.936C154.425 59.0587 154.417 59.168 154.406 59.264H148.742ZM151.03 55.504C150.406 55.504 149.883 55.7253 149.462 56.168C149.046 56.6107 148.809 57.296 148.75 58.224H153.142C153.126 57.3227 152.929 56.6453 152.55 56.192C152.171 55.7333 151.665 55.504 151.03 55.504ZM159.056 61.768C159.056 61.5067 159.117 61.272 159.24 61.064C159.363 60.8507 159.528 60.6827 159.736 60.56C159.949 60.432 160.189 60.368 160.456 60.368C160.728 60.368 160.971 60.432 161.184 60.56C161.397 60.6827 161.565 60.8507 161.688 61.064C161.811 61.272 161.872 61.5067 161.872 61.768C161.872 62.0293 161.811 62.2693 161.688 62.488C161.565 62.7013 161.397 62.872 161.184 63C160.971 63.1227 160.728 63.184 160.456 63.184C160.189 63.184 159.949 63.1227 159.736 63C159.528 62.872 159.363 62.7013 159.24 62.488C159.117 62.2693 159.056 62.0293 159.056 61.768ZM170.682 62.024C171.103 62.024 171.495 61.9547 171.858 61.816C172.226 61.6773 172.564 61.5013 172.874 61.288L173.53 62.168C173.162 62.4827 172.719 62.7307 172.202 62.912C171.684 63.0933 171.178 63.184 170.682 63.184C169.844 63.184 169.13 63.0053 168.538 62.648C167.951 62.2853 167.503 61.7787 167.194 61.128C166.884 60.472 166.73 59.704 166.73 58.824C166.73 57.9813 166.884 57.2267 167.194 56.56C167.508 55.888 167.959 55.36 168.546 54.976C169.138 54.592 169.855 54.4 170.698 54.4C171.236 54.4 171.74 54.4827 172.21 54.648C172.684 54.808 173.119 55.0507 173.514 55.376L172.858 56.272C172.5 56.0213 172.14 55.8347 171.778 55.712C171.42 55.584 171.055 55.52 170.682 55.52C169.956 55.52 169.359 55.792 168.89 56.336C168.42 56.88 168.186 57.7093 168.186 58.824C168.186 59.5707 168.292 60.1813 168.506 60.656C168.724 61.1253 169.02 61.472 169.394 61.696C169.772 61.9147 170.202 62.024 170.682 62.024ZM179.675 54.4C180.47 54.4 181.134 54.5813 181.667 54.944C182.206 55.3013 182.609 55.808 182.875 56.464C183.147 57.12 183.283 57.8933 183.283 58.784C183.283 59.6427 183.145 60.4027 182.867 61.064C182.59 61.7253 182.182 62.2453 181.643 62.624C181.11 62.9973 180.449 63.184 179.659 63.184C178.87 63.184 178.206 63.0027 177.667 62.64C177.129 62.2773 176.721 61.768 176.443 61.112C176.171 60.4507 176.035 59.68 176.035 58.8C176.035 57.9307 176.174 57.1653 176.451 56.504C176.729 55.8427 177.137 55.328 177.675 54.96C178.219 54.5867 178.886 54.4 179.675 54.4ZM179.675 55.496C178.95 55.496 178.401 55.7653 178.027 56.304C177.659 56.8373 177.475 57.6693 177.475 58.8C177.475 59.9093 177.657 60.7333 178.019 61.272C178.387 61.8107 178.934 62.08 179.659 62.08C180.385 62.08 180.929 61.8107 181.291 61.272C181.659 60.7333 181.843 59.904 181.843 58.784C181.843 57.664 181.662 56.8373 181.299 56.304C180.937 55.7653 180.395 55.496 179.675 55.496ZM191.613 54.4C191.885 54.4 192.144 54.4587 192.389 54.576C192.64 54.6933 192.845 54.92 193.005 55.256C193.165 55.592 193.245 56.0827 193.245 56.728V63H191.997V56.944C191.997 56.416 191.965 56.0347 191.901 55.8C191.837 55.5653 191.653 55.448 191.349 55.448C191.098 55.448 190.848 55.528 190.597 55.688C190.352 55.8427 190.112 56.0987 189.877 56.456V63H188.621V56.944C188.621 56.416 188.589 56.0347 188.525 55.8C188.461 55.5653 188.277 55.448 187.973 55.448C187.712 55.448 187.458 55.528 187.213 55.688C186.973 55.8427 186.736 56.0987 186.501 56.456V63H185.261V54.576H186.317L186.397 55.552C186.626 55.2267 186.882 54.9547 187.165 54.736C187.453 54.512 187.808 54.4 188.229 54.4C188.549 54.4 188.85 54.4773 189.133 54.632C189.416 54.7813 189.624 55.0747 189.757 55.512C189.986 55.1813 190.245 54.9147 190.533 54.712C190.821 54.504 191.181 54.4 191.613 54.4ZM196.103 53.496L202.255 57.296V58.672L196.183 62.472L195.455 61.48L201.103 57.992L195.455 54.512L196.103 53.496Z" fill="#233D48"/>
</g>
<defs>
<clipPath id="clip0_27_6376">
<path d="M0 8C0 3.58172 3.58172 0 8 0H216C220.418 0 224 3.58172 224 8V109C224 113.418 220.418 117 216 117H8C3.58172 117 0 113.418 0 109V8Z" fill="white"/>
</clipPath>
</defs>
</svg>
