<svg width="224" height="117" viewBox="0 0 224 117" fill="none" xmlns="http://www.w3.org/2000/svg">
<g clip-path="url(#clip0_27_6370)">
<path d="M40 47C40 42.5817 43.5817 39 48 39H177C181.418 39 185 42.5817 185 47V69C185 73.4183 181.418 77 177 77H48C43.5817 77 40 73.4183 40 69V47Z" fill="#F1F0E9"/>
<path d="M57.7006 53.496L58.3486 54.528L52.7006 57.992L58.3486 61.488L57.6286 62.472L51.5486 58.672V57.296L57.7006 53.496ZM64.0464 51.808C64.7397 51.808 65.3317 51.9413 65.8224 52.208C66.3184 52.4747 66.6997 52.84 66.9664 53.304C67.233 53.768 67.3664 54.2933 67.3664 54.88C67.3664 55.3867 67.2784 55.8827 67.1024 56.368C66.9264 56.848 66.6437 57.3547 66.2544 57.888C65.8704 58.416 65.3637 59.0027 64.7344 59.648C64.1104 60.2933 63.3424 61.0293 62.4304 61.856H67.6224L67.4544 63H60.9024V61.904C61.7344 61.1093 62.441 60.4133 63.0224 59.816C63.609 59.2187 64.0917 58.696 64.4704 58.248C64.8544 57.7947 65.153 57.384 65.3664 57.016C65.585 56.648 65.737 56.2987 65.8224 55.968C65.9077 55.632 65.9504 55.2853 65.9504 54.928C65.9504 54.3093 65.7744 53.8213 65.4224 53.464C65.0757 53.1067 64.5957 52.928 63.9824 52.928C63.4384 52.928 62.993 53.0213 62.6464 53.208C62.2997 53.3947 61.953 53.6933 61.6064 54.104L60.6784 53.384C61.1157 52.8507 61.601 52.456 62.1344 52.2C62.6677 51.9387 63.305 51.808 64.0464 51.808ZM86.7699 63H84.8659L83.7779 56.816L82.5939 63H80.7379L79.2019 54.576H80.5779L81.6499 62.168L82.9939 55.648H84.5859L85.8579 62.168L86.9299 54.576H88.2419L86.7699 63ZM91.1796 59.264C91.2063 59.9147 91.3316 60.448 91.5556 60.864C91.7796 61.2747 92.0756 61.5787 92.4436 61.776C92.8116 61.968 93.2116 62.064 93.6436 62.064C94.0756 62.064 94.465 62 94.8116 61.872C95.1636 61.744 95.5236 61.5547 95.8916 61.304L96.5236 62.192C96.129 62.5013 95.6783 62.744 95.1716 62.92C94.6703 63.096 94.1556 63.184 93.6276 63.184C92.8116 63.184 92.1156 63 91.5396 62.632C90.9636 62.264 90.5236 61.752 90.2196 61.096C89.921 60.4347 89.7716 59.6693 89.7716 58.8C89.7716 57.9467 89.9236 57.1893 90.2276 56.528C90.5316 55.8667 90.9583 55.3467 91.5076 54.968C92.057 54.5893 92.705 54.4 93.4516 54.4C94.161 54.4 94.7716 54.568 95.2836 54.904C95.7956 55.2347 96.1876 55.7093 96.4596 56.328C96.737 56.9413 96.8756 57.6747 96.8756 58.528C96.8756 58.672 96.873 58.808 96.8676 58.936C96.8623 59.0587 96.8543 59.168 96.8436 59.264H91.1796ZM93.4676 55.504C92.8436 55.504 92.321 55.7253 91.8996 56.168C91.4836 56.6107 91.2463 57.296 91.1876 58.224H95.5796C95.5636 57.3227 95.3663 56.6453 94.9876 56.192C94.609 55.7333 94.1023 55.504 93.4676 55.504ZM100.773 59.264C100.8 59.9147 100.925 60.448 101.149 60.864C101.373 61.2747 101.669 61.5787 102.037 61.776C102.405 61.968 102.805 62.064 103.237 62.064C103.669 62.064 104.059 62 104.405 61.872C104.757 61.744 105.117 61.5547 105.485 61.304L106.117 62.192C105.723 62.5013 105.272 62.744 104.765 62.92C104.264 63.096 103.749 63.184 103.221 63.184C102.405 63.184 101.709 63 101.133 62.632C100.557 62.264 100.117 61.752 99.8134 61.096C99.5147 60.4347 99.3654 59.6693 99.3654 58.8C99.3654 57.9467 99.5174 57.1893 99.8214 56.528C100.125 55.8667 100.552 55.3467 101.101 54.968C101.651 54.5893 102.299 54.4 103.045 54.4C103.755 54.4 104.365 54.568 104.877 54.904C105.389 55.2347 105.781 55.7093 106.053 56.328C106.331 56.9413 106.469 57.6747 106.469 58.528C106.469 58.672 106.467 58.808 106.461 58.936C106.456 59.0587 106.448 59.168 106.437 59.264H100.773ZM103.061 55.504C102.437 55.504 101.915 55.7253 101.493 56.168C101.077 56.6107 100.84 57.296 100.781 58.224H105.173C105.157 57.3227 104.96 56.6453 104.581 56.192C104.203 55.7333 103.696 55.504 103.061 55.504ZM116.367 54.576L112.575 58.368L116.807 63H115.039L110.895 58.4L114.623 54.576H116.367ZM110.743 51.016V63H109.399V51.184L110.743 51.016ZM121.769 62.072C122.414 62.072 122.924 61.952 123.297 61.712C123.676 61.4667 123.865 61.1413 123.865 60.736C123.865 60.48 123.817 60.2587 123.721 60.072C123.63 59.8853 123.441 59.7173 123.153 59.568C122.865 59.4187 122.422 59.2693 121.825 59.12C121.244 58.976 120.737 58.8107 120.305 58.624C119.878 58.432 119.545 58.184 119.305 57.88C119.07 57.576 118.953 57.1813 118.953 56.696C118.953 56.2213 119.086 55.8133 119.353 55.472C119.625 55.1253 120.001 54.8613 120.481 54.68C120.961 54.4933 121.518 54.4 122.153 54.4C122.83 54.4 123.42 54.4907 123.921 54.672C124.428 54.848 124.857 55.0667 125.209 55.328L124.617 56.24C124.297 56.0213 123.945 55.8427 123.561 55.704C123.177 55.56 122.713 55.488 122.169 55.488C121.508 55.488 121.038 55.592 120.761 55.8C120.484 56.0027 120.345 56.2667 120.345 56.592C120.345 56.8373 120.412 57.0427 120.545 57.208C120.684 57.368 120.916 57.5147 121.241 57.648C121.566 57.776 122.014 57.9173 122.585 58.072C123.134 58.216 123.612 58.3893 124.017 58.592C124.428 58.7947 124.748 59.0613 124.977 59.392C125.206 59.7227 125.321 60.1493 125.321 60.672C125.321 61.2693 125.15 61.7547 124.809 62.128C124.468 62.496 124.025 62.7653 123.481 62.936C122.942 63.1013 122.372 63.184 121.769 63.184C121.006 63.184 120.356 63.0747 119.817 62.856C119.284 62.632 118.836 62.3627 118.473 62.048L119.241 61.16C119.572 61.432 119.95 61.6533 120.377 61.824C120.809 61.9893 121.273 62.072 121.769 62.072ZM144.124 61.16C144.124 61.496 144.18 61.7413 144.292 61.896C144.404 62.0507 144.578 62.1653 144.812 62.24L144.484 63.184C144.122 63.136 143.804 63.0213 143.532 62.84C143.26 62.6533 143.063 62.3733 142.94 62C142.636 62.3893 142.258 62.6853 141.804 62.888C141.351 63.0853 140.85 63.184 140.3 63.184C139.458 63.184 138.794 62.9467 138.308 62.472C137.823 61.9973 137.58 61.368 137.58 60.584C137.58 59.7147 137.919 59.048 138.596 58.584C139.274 58.12 140.252 57.888 141.532 57.888H142.772V57.184C142.772 56.576 142.594 56.1467 142.236 55.896C141.884 55.64 141.394 55.512 140.764 55.512C140.487 55.512 140.162 55.5467 139.788 55.616C139.415 55.68 139.01 55.7893 138.572 55.944L138.22 54.928C138.738 54.736 139.223 54.6 139.676 54.52C140.13 54.44 140.562 54.4 140.972 54.4C142.023 54.4 142.81 54.6453 143.332 55.136C143.86 55.6213 144.124 56.2827 144.124 57.12V61.16ZM140.644 62.16C141.06 62.16 141.458 62.056 141.836 61.848C142.215 61.6347 142.527 61.3413 142.772 60.968V58.8H141.556C140.628 58.8 139.972 58.96 139.588 59.28C139.21 59.6 139.02 60.0293 139.02 60.568C139.02 61.0907 139.154 61.488 139.42 61.76C139.692 62.0267 140.1 62.16 140.644 62.16ZM154.534 53.68L154.95 54.944C154.593 55.056 154.211 55.1253 153.806 55.152C153.401 55.1787 152.961 55.192 152.486 55.192C152.971 55.416 153.337 55.7067 153.582 56.064C153.827 56.416 153.95 56.832 153.95 57.312C153.95 57.8667 153.825 58.36 153.574 58.792C153.323 59.224 152.961 59.5627 152.486 59.808C152.017 60.0533 151.449 60.176 150.782 60.176C150.499 60.176 150.262 60.1627 150.07 60.136C149.883 60.1093 149.702 60.0693 149.526 60.016C149.398 60.1013 149.291 60.2187 149.206 60.368C149.126 60.5173 149.086 60.672 149.086 60.832C149.086 61.0347 149.166 61.2027 149.326 61.336C149.486 61.4693 149.782 61.536 150.214 61.536H151.734C152.299 61.536 152.806 61.6373 153.254 61.84C153.707 62.0427 154.062 62.3147 154.318 62.656C154.579 62.9973 154.71 63.3867 154.71 63.824C154.71 64.6507 154.358 65.2853 153.654 65.728C152.955 66.1707 151.966 66.392 150.686 66.392C149.79 66.392 149.083 66.2987 148.566 66.112C148.049 65.9307 147.678 65.6507 147.454 65.272C147.235 64.8987 147.126 64.4267 147.126 63.856H148.342C148.342 64.1813 148.406 64.4507 148.534 64.664C148.662 64.8773 148.894 65.0347 149.23 65.136C149.566 65.2427 150.049 65.296 150.678 65.296C151.297 65.296 151.801 65.2427 152.19 65.136C152.585 65.0347 152.875 64.88 153.062 64.672C153.254 64.4693 153.35 64.216 153.35 63.912C153.35 63.512 153.169 63.2107 152.806 63.008C152.443 62.8053 151.99 62.704 151.446 62.704H149.942C149.217 62.704 148.681 62.544 148.334 62.224C147.993 61.904 147.822 61.536 147.822 61.12C147.822 60.848 147.899 60.584 148.054 60.328C148.214 60.072 148.446 59.8453 148.75 59.648C148.265 59.392 147.907 59.0747 147.678 58.696C147.449 58.3173 147.334 57.8587 147.334 57.32C147.334 56.7493 147.475 56.2453 147.758 55.808C148.041 55.3653 148.435 55.0187 148.942 54.768C149.449 54.5173 150.033 54.392 150.694 54.392C151.403 54.3867 151.979 54.3573 152.422 54.304C152.865 54.2453 153.243 54.1627 153.558 54.056C153.878 53.9493 154.203 53.824 154.534 53.68ZM150.694 55.376C150.017 55.376 149.515 55.56 149.19 55.928C148.87 56.2907 148.71 56.7547 148.71 57.32C148.71 57.8907 148.875 58.36 149.206 58.728C149.537 59.096 150.043 59.28 150.726 59.28C151.323 59.28 151.777 59.1067 152.086 58.76C152.401 58.4133 152.558 57.9307 152.558 57.312C152.558 56.6773 152.401 56.1973 152.086 55.872C151.777 55.5413 151.313 55.376 150.694 55.376ZM160.488 54.4C161.283 54.4 161.947 54.5813 162.48 54.944C163.019 55.3013 163.421 55.808 163.688 56.464C163.96 57.12 164.096 57.8933 164.096 58.784C164.096 59.6427 163.957 60.4027 163.68 61.064C163.403 61.7253 162.995 62.2453 162.456 62.624C161.923 62.9973 161.261 63.184 160.472 63.184C159.683 63.184 159.019 63.0027 158.48 62.64C157.941 62.2773 157.533 61.768 157.256 61.112C156.984 60.4507 156.848 59.68 156.848 58.8C156.848 57.9307 156.987 57.1653 157.264 56.504C157.541 55.8427 157.949 55.328 158.488 54.96C159.032 54.5867 159.699 54.4 160.488 54.4ZM160.488 55.496C159.763 55.496 159.213 55.7653 158.84 56.304C158.472 56.8373 158.288 57.6693 158.288 58.8C158.288 59.9093 158.469 60.7333 158.832 61.272C159.2 61.8107 159.747 62.08 160.472 62.08C161.197 62.08 161.741 61.8107 162.104 61.272C162.472 60.7333 162.656 59.904 162.656 58.784C162.656 57.664 162.475 56.8373 162.112 56.304C161.749 55.7653 161.208 55.496 160.488 55.496ZM167.322 53.496L173.474 57.296V58.672L167.402 62.472L166.674 61.48L172.322 57.992L166.674 54.512L167.322 53.496Z" fill="#233D48"/>
</g>
<defs>
<clipPath id="clip0_27_6370">
<path d="M0 8C0 3.58172 3.58172 0 8 0H216C220.418 0 224 3.58172 224 8V109C224 113.418 220.418 117 216 117H8C3.58172 117 0 113.418 0 109V8Z" fill="white"/>
</clipPath>
</defs>
</svg>
