<svg width="224" height="117" viewBox="0 0 224 117" fill="none" xmlns="http://www.w3.org/2000/svg">
<g clip-path="url(#clip0_27_6213)">
<path d="M44.5 47C44.5 42.5817 48.0817 39 52.5 39H172.5C176.918 39 180.5 42.5817 180.5 47V69C180.5 73.4183 176.918 77 172.5 77H52.5C48.0817 77 44.5 73.4183 44.5 69V47Z" fill="#F1F0E9"/>
<path d="M62.4975 53.496L63.1455 54.528L57.4975 57.992L63.1455 61.488L62.4255 62.472L56.3455 58.672V57.296L62.4975 53.496ZM73.0193 51.984L73.6433 63H72.3073L71.9633 57.248C71.9473 56.8587 71.9313 56.464 71.9153 56.064C71.8993 55.664 71.8886 55.28 71.8833 54.912C71.8779 54.544 71.8753 54.216 71.8753 53.928C71.8753 53.64 71.8753 53.416 71.8753 53.256L70.0193 61.024H68.6273L66.6353 53.256C66.6406 53.4107 66.6459 53.64 66.6513 53.944C66.6566 54.2427 66.6593 54.5813 66.6593 54.96C66.6646 55.3387 66.6619 55.728 66.6513 56.128C66.6459 56.5227 66.6353 56.8907 66.6193 57.232L66.3233 63H65.0193L65.6433 51.984H67.5793L69.3633 59.528L71.0673 51.984H73.0193ZM82.613 51.984L83.237 63H81.901L81.557 57.248C81.541 56.8587 81.525 56.464 81.509 56.064C81.493 55.664 81.4823 55.28 81.477 54.912C81.4717 54.544 81.469 54.216 81.469 53.928C81.469 53.64 81.469 53.416 81.469 53.256L79.613 61.024H78.221L76.229 53.256C76.2343 53.4107 76.2397 53.64 76.245 53.944C76.2503 54.2427 76.253 54.5813 76.253 54.96C76.2583 55.3387 76.2557 55.728 76.245 56.128C76.2397 56.5227 76.229 56.8907 76.213 57.232L75.917 63H74.613L75.237 51.984H77.173L78.957 59.528L80.661 51.984H82.613ZM85.6468 64.648L84.5588 64.168L91.4068 50.048L92.4788 50.576L85.6468 64.648ZM100.673 57.44C100.673 56.48 100.571 55.712 100.369 55.136C100.166 54.56 99.8992 54.128 99.5685 53.84C99.2378 53.552 98.8752 53.36 98.4805 53.264C98.0912 53.168 97.7072 53.12 97.3285 53.12H96.0325V61.888H97.3445C97.7392 61.888 98.1312 61.8267 98.5205 61.704C98.9152 61.576 99.2752 61.352 99.6005 61.032C99.9258 60.7067 100.185 60.256 100.377 59.68C100.574 59.0987 100.673 58.352 100.673 57.44ZM102.153 57.44C102.153 58.3573 102.054 59.1413 101.857 59.792C101.665 60.4373 101.401 60.9707 101.065 61.392C100.729 61.8133 100.345 62.1413 99.9125 62.376C99.4858 62.6053 99.0352 62.768 98.5605 62.864C98.0912 62.9547 97.6298 63 97.1765 63H94.6485V51.984H97.0005C97.6458 51.984 98.2725 52.056 98.8805 52.2C99.4938 52.344 100.046 52.6107 100.537 53C101.033 53.384 101.425 53.9333 101.713 54.648C102.006 55.3627 102.153 56.2933 102.153 57.44ZM110.266 57.44C110.266 56.48 110.165 55.712 109.962 55.136C109.76 54.56 109.493 54.128 109.162 53.84C108.832 53.552 108.469 53.36 108.074 53.264C107.685 53.168 107.301 53.12 106.922 53.12H105.626V61.888H106.938C107.333 61.888 107.725 61.8267 108.114 61.704C108.509 61.576 108.869 61.352 109.194 61.032C109.52 60.7067 109.778 60.256 109.97 59.68C110.168 59.0987 110.266 58.352 110.266 57.44ZM111.746 57.44C111.746 58.3573 111.648 59.1413 111.45 59.792C111.258 60.4373 110.994 60.9707 110.658 61.392C110.322 61.8133 109.938 62.1413 109.506 62.376C109.08 62.6053 108.629 62.768 108.154 62.864C107.685 62.9547 107.224 63 106.77 63H104.242V51.984H106.594C107.24 51.984 107.866 52.056 108.474 52.2C109.088 52.344 109.64 52.6107 110.13 53C110.626 53.384 111.018 53.9333 111.306 54.648C111.6 55.3627 111.746 56.2933 111.746 57.44ZM114.428 64.648L113.34 64.168L120.188 50.048L121.26 50.576L114.428 64.648ZM127.598 58.752V63H126.19V58.768L122.47 51.984H124.006L126.926 57.504L129.878 51.984H131.318L127.598 58.752ZM137.192 58.752V63H135.784V58.768L132.064 51.984H133.6L136.52 57.504L139.472 51.984H140.911L137.192 58.752ZM146.785 58.752V63H145.377V58.768L141.657 51.984H143.193L146.113 57.504L149.065 51.984H150.505L146.785 58.752ZM156.379 58.752V63H154.971V58.768L151.251 51.984H152.787L155.707 57.504L158.659 51.984H160.099L156.379 58.752ZM162.525 53.496L168.677 57.296V58.672L162.605 62.472L161.877 61.48L167.525 57.992L161.877 54.512L162.525 53.496Z" fill="#233D48"/>
</g>
<defs>
<clipPath id="clip0_27_6213">
<path d="M0 8C0 3.58172 3.58172 0 8 0H216C220.418 0 224 3.58172 224 8V109C224 113.418 220.418 117 216 117H8C3.58172 117 0 113.418 0 109V8Z" fill="white"/>
</clipPath>
</defs>
</svg>
