<svg width="224" height="117" viewBox="0 0 224 117" fill="none" xmlns="http://www.w3.org/2000/svg">
<path d="M32 18C32 15.7909 33.7909 14 36 14H188C190.209 14 192 15.7909 192 18V100C192 102.209 190.209 104 188 104H36C33.7909 104 32 102.209 32 100V18Z" fill="#DADFE2"/>
<path d="M108.25 49.25C108.25 52.0114 106.011 54.25 103.25 54.25C100.489 54.25 98.25 52.0114 98.25 49.25C98.25 46.4886 100.489 44.25 103.25 44.25C106.011 44.25 108.25 46.4886 108.25 49.25Z" fill="#A9B7BC"/>
<path d="M127 63.7975L120.46 55.9498C120.223 55.6648 119.871 55.5 119.5 55.5C119.129 55.5 118.777 55.6648 118.54 55.9498L109.5 66.7975L106.71 63.4498C106.473 63.1648 106.121 63 105.75 63C105.379 63 105.027 63.1648 104.79 63.4498L96.8312 73H127V63.7975Z" fill="#A9B7BC"/>
<path d="M89.5 40.5C89.5 37.7386 91.7386 35.5 94.5 35.5H129.5C132.261 35.5 134.5 37.7386 134.5 40.5V75.5C134.5 78.2615 132.261 80.5 129.5 80.5H94.5C91.7386 80.5 89.5 78.2615 89.5 75.5V40.5ZM94.5 40.5V75.5H129.5V40.5H94.5Z" fill="#A9B7BC"/>
<path d="M36.8567 17.521C36.5921 17.6001 36.4418 17.8787 36.521 18.1433L37.8107 22.4545C37.8898 22.7191 38.1684 22.8694 38.433 22.7903C38.6975 22.7111 38.8479 22.4325 38.7687 22.1679L37.6223 18.3357L41.4545 17.1893C41.7191 17.1102 41.8694 16.8316 41.7903 16.567C41.7111 16.3025 41.4325 16.1521 41.1679 16.2313L36.8567 17.521ZM189.143 100.479C189.408 100.4 189.558 100.121 189.479 99.8567L188.189 95.5455C188.11 95.2809 187.832 95.1306 187.567 95.2097C187.302 95.2889 187.152 95.5675 187.231 95.8321L188.378 99.6643L184.545 100.811C184.281 100.89 184.131 101.168 184.21 101.433C184.289 101.698 184.568 101.848 184.832 101.769L189.143 100.479ZM40.2172 20.3037C40.4602 20.4348 40.7635 20.3441 40.8946 20.101C41.0257 19.858 40.935 19.5547 40.6919 19.4236L40.2172 20.3037ZM47.601 23.1509C47.358 23.0197 47.0547 23.1105 46.9236 23.3535C46.7925 23.5965 46.8832 23.8998 47.1262 24.031L47.601 23.1509ZM54.0353 27.7582C54.2784 27.8893 54.5817 27.7986 54.7128 27.5556C54.8439 27.3125 54.7532 27.0092 54.5101 26.8781L54.0353 27.7582ZM61.4192 30.6054C61.1762 30.4743 60.8729 30.565 60.7418 30.8081C60.6107 31.0511 60.7014 31.3544 60.9444 31.4855L61.4192 30.6054ZM67.8535 35.2128C68.0965 35.3439 68.3998 35.2532 68.531 35.0101C68.6621 34.7671 68.5713 34.4638 68.3283 34.3327L67.8535 35.2128ZM75.2374 38.0599C74.9944 37.9288 74.6911 38.0196 74.5599 38.2626C74.4288 38.5056 74.5196 38.8089 74.7626 38.94L75.2374 38.0599ZM81.6717 42.6673C81.9147 42.7984 82.218 42.7077 82.3491 42.4647C82.4803 42.2216 82.3895 41.9183 82.1465 41.7872L81.6717 42.6673ZM89.0556 45.5145C88.8125 45.3834 88.5092 45.4741 88.3781 45.7171C88.247 45.9602 88.3378 46.2635 88.5808 46.3946L89.0556 45.5145ZM95.4899 50.1219C95.7329 50.253 96.0362 50.1622 96.1673 49.9192C96.2984 49.6762 96.2077 49.3729 95.9647 49.2418L95.4899 50.1219ZM102.874 52.969C102.631 52.8379 102.327 52.9287 102.196 53.1717C102.065 53.4147 102.156 53.718 102.399 53.8491L102.874 52.969ZM109.308 57.5764C109.551 57.7075 109.854 57.6168 109.985 57.3738C110.117 57.1307 110.026 56.8274 109.783 56.6963L109.308 57.5764ZM116.692 60.4236C116.449 60.2925 116.146 60.3832 116.014 60.6262C115.883 60.8693 115.974 61.1726 116.217 61.3037L116.692 60.4236ZM123.126 65.031C123.369 65.1621 123.673 65.0713 123.804 64.8283C123.935 64.5853 123.844 64.282 123.601 64.1509L123.126 65.031ZM130.51 67.8781C130.267 67.747 129.964 67.8378 129.833 68.0808C129.702 68.3238 129.792 68.6271 130.035 68.7582L130.51 67.8781ZM136.944 72.4855C137.187 72.6166 137.491 72.5259 137.622 72.2828C137.753 72.0398 137.662 71.7365 137.419 71.6054L136.944 72.4855ZM144.328 75.3327C144.085 75.2016 143.782 75.2923 143.651 75.5353C143.52 75.7784 143.61 76.0817 143.854 76.2128L144.328 75.3327ZM150.763 79.94C151.006 80.0712 151.309 79.9804 151.44 79.7374C151.571 79.4944 151.48 79.1911 151.237 79.0599L150.763 79.94ZM158.146 82.7872C157.903 82.6561 157.6 82.7468 157.469 82.9899C157.338 83.2329 157.429 83.5362 157.672 83.6673L158.146 82.7872ZM164.581 87.3946C164.824 87.5257 165.127 87.435 165.258 87.1919C165.389 86.9489 165.299 86.6456 165.056 86.5145L164.581 87.3946ZM171.965 90.2418C171.722 90.1107 171.418 90.2014 171.287 90.4444C171.156 90.6875 171.247 90.9908 171.49 91.1219L171.965 90.2418ZM178.399 94.8491C178.642 94.9803 178.945 94.8895 179.076 94.6465C179.208 94.4035 179.117 94.1002 178.874 93.969L178.399 94.8491ZM185.783 97.6963C185.54 97.5652 185.237 97.6559 185.105 97.899C184.974 98.142 185.065 98.4453 185.308 98.5764L185.783 97.6963ZM37 18L36.7626 18.44L40.2172 20.3037L40.4545 19.8636L40.6919 19.4236L37.2374 17.56L37 18ZM47.3636 23.5909L47.1262 24.031L54.0353 27.7582L54.2727 27.3182L54.5101 26.8781L47.601 23.1509L47.3636 23.5909ZM61.1818 31.0455L60.9444 31.4855L67.8535 35.2128L68.0909 34.7727L68.3283 34.3327L61.4192 30.6054L61.1818 31.0455ZM75 38.5L74.7626 38.94L81.6717 42.6673L81.9091 42.2273L82.1465 41.7872L75.2374 38.0599L75 38.5ZM88.8182 45.9545L88.5808 46.3946L95.4899 50.1219L95.7273 49.6818L95.9647 49.2418L89.0556 45.5145L88.8182 45.9545ZM102.636 53.4091L102.399 53.8491L109.308 57.5764L109.545 57.1364L109.783 56.6963L102.874 52.969L102.636 53.4091ZM116.455 60.8636L116.217 61.3037L123.126 65.031L123.364 64.5909L123.601 64.1509L116.692 60.4236L116.455 60.8636ZM130.273 68.3182L130.035 68.7582L136.944 72.4855L137.182 72.0455L137.419 71.6054L130.51 67.8781L130.273 68.3182ZM144.091 75.7727L143.854 76.2128L150.763 79.94L151 79.5L151.237 79.0599L144.328 75.3327L144.091 75.7727ZM157.909 83.2273L157.672 83.6673L164.581 87.3946L164.818 86.9545L165.056 86.5145L158.146 82.7872L157.909 83.2273ZM171.727 90.6818L171.49 91.1219L178.399 94.8491L178.636 94.4091L178.874 93.969L171.965 90.2418L171.727 90.6818ZM185.545 98.1364L185.308 98.5764L188.763 100.44L189 100L189.237 99.5599L185.783 97.6963L185.545 98.1364Z" fill="#5D757E"/>
</svg>
