<svg width="274" height="40" viewBox="0 0 274 40" fill="none" xmlns="http://www.w3.org/2000/svg">
<g clip-path="url(#clip0_1_45515)">
<path d="M0 4C0 1.79086 1.79086 0 4 0H221.724C223.933 0 225.724 1.79086 225.724 4V4C225.724 6.20914 223.933 8 221.724 8H4C1.79086 8 0 6.20914 0 4V4Z" fill="black" fill-opacity="0.08"/>
<rect width="226" height="8" fill="url(#paint0_linear_1_45515)"/>
</g>
<g clip-path="url(#clip1_1_45515)">
<path d="M0 20C0 17.7909 1.79086 16 4 16H270C272.209 16 274 17.7909 274 20V20C274 22.2091 272.209 24 270 24H4C1.79086 24 0 22.2091 0 20V20Z" fill="black" fill-opacity="0.08"/>
<rect y="16" width="274" height="8" fill="url(#paint1_linear_1_45515)"/>
<rect x="-232" y="16" width="274" height="8" fill="url(#paint2_linear_1_45515)"/>
</g>
<g clip-path="url(#clip2_1_45515)">
<path d="M0 36C0 33.7909 1.79086 32 4 32H202.152C204.362 32 206.152 33.7909 206.152 36V36C206.152 38.2091 204.362 40 202.152 40H4C1.79086 40 0 38.2091 0 36V36Z" fill="black" fill-opacity="0.08"/>
<rect y="32" width="206" height="8" fill="url(#paint3_linear_1_45515)"/>
</g>
<defs>
<linearGradient id="paint0_linear_1_45515" x1="226" y1="4" x2="-7.25945e-08" y2="4" gradientUnits="userSpaceOnUse">
<stop stop-color="white" stop-opacity="0"/>
<stop offset="0.299948" stop-color="white" stop-opacity="0.8"/>
<stop offset="1" stop-color="white" stop-opacity="0"/>
</linearGradient>
<linearGradient id="paint1_linear_1_45515" x1="274" y1="20" x2="-8.80127e-08" y2="20" gradientUnits="userSpaceOnUse">
<stop stop-color="white" stop-opacity="0"/>
<stop offset="0.299948" stop-color="white" stop-opacity="0.8"/>
<stop offset="1" stop-color="white" stop-opacity="0"/>
</linearGradient>
<linearGradient id="paint2_linear_1_45515" x1="42" y1="20" x2="-232" y2="20" gradientUnits="userSpaceOnUse">
<stop stop-color="white" stop-opacity="0"/>
<stop offset="0.299948" stop-color="white" stop-opacity="0.8"/>
<stop offset="1" stop-color="white" stop-opacity="0"/>
</linearGradient>
<linearGradient id="paint3_linear_1_45515" x1="206" y1="36" x2="-6.61702e-08" y2="36" gradientUnits="userSpaceOnUse">
<stop stop-color="white" stop-opacity="0"/>
<stop offset="0.299948" stop-color="white" stop-opacity="0.8"/>
<stop offset="1" stop-color="white" stop-opacity="0"/>
</linearGradient>
<clipPath id="clip0_1_45515">
<path d="M0 4C0 1.79086 1.79086 0 4 0H221.724C223.933 0 225.724 1.79086 225.724 4V4C225.724 6.20914 223.933 8 221.724 8H4C1.79086 8 0 6.20914 0 4V4Z" fill="white"/>
</clipPath>
<clipPath id="clip1_1_45515">
<path d="M0 20C0 17.7909 1.79086 16 4 16H270C272.209 16 274 17.7909 274 20V20C274 22.2091 272.209 24 270 24H4C1.79086 24 0 22.2091 0 20V20Z" fill="white"/>
</clipPath>
<clipPath id="clip2_1_45515">
<path d="M0 36C0 33.7909 1.79086 32 4 32H202.152C204.362 32 206.152 33.7909 206.152 36V36C206.152 38.2091 204.362 40 202.152 40H4C1.79086 40 0 38.2091 0 36V36Z" fill="white"/>
</clipPath>
</defs>
</svg>
