<svg width="224" height="117" viewBox="0 0 224 117" fill="none" xmlns="http://www.w3.org/2000/svg">
<g clip-path="url(#clip0_3_6069)">
<path d="M21 42C21 39.7909 22.7909 38 25 38H167.757C169.966 38 171.757 39.7909 171.757 42V42C171.757 44.2091 169.966 46 167.757 46H25C22.7909 46 21 44.2091 21 42V42Z" fill="black" fill-opacity="0.08"/>
<rect x="21" y="38" width="151" height="8" fill="url(#paint0_linear_3_6069)"/>
</g>
<g clip-path="url(#clip1_3_6069)">
<path d="M21 58C21 55.7909 22.7909 54 25 54H200C202.209 54 204 55.7909 204 58V58C204 60.2091 202.209 62 200 62H25C22.7909 62 21 60.2091 21 58V58Z" fill="black" fill-opacity="0.08"/>
<rect x="21" y="54" width="183" height="8" fill="url(#paint1_linear_3_6069)"/>
</g>
<g clip-path="url(#clip2_3_6069)">
<path d="M21 74C21 71.7909 22.7909 70 25 70H154.686C156.895 70 158.686 71.7909 158.686 74V74C158.686 76.2091 156.895 78 154.686 78H25C22.7909 78 21 76.2091 21 74V74Z" fill="black" fill-opacity="0.08"/>
<rect x="21" y="70" width="138" height="8" fill="url(#paint2_linear_3_6069)"/>
</g>
<defs>
<linearGradient id="paint0_linear_3_6069" x1="172" y1="42" x2="21" y2="42" gradientUnits="userSpaceOnUse">
<stop stop-color="white" stop-opacity="0"/>
<stop offset="0.299948" stop-color="white" stop-opacity="0.8"/>
<stop offset="1" stop-color="white" stop-opacity="0"/>
</linearGradient>
<linearGradient id="paint1_linear_3_6069" x1="204" y1="58" x2="21" y2="58" gradientUnits="userSpaceOnUse">
<stop stop-color="white" stop-opacity="0"/>
<stop offset="0.299948" stop-color="white" stop-opacity="0.8"/>
<stop offset="1" stop-color="white" stop-opacity="0"/>
</linearGradient>
<linearGradient id="paint2_linear_3_6069" x1="159" y1="74" x2="21" y2="74" gradientUnits="userSpaceOnUse">
<stop stop-color="white" stop-opacity="0"/>
<stop offset="0.299948" stop-color="white" stop-opacity="0.8"/>
<stop offset="1" stop-color="white" stop-opacity="0"/>
</linearGradient>
<clipPath id="clip0_3_6069">
<path d="M21 42C21 39.7909 22.7909 38 25 38H167.757C169.966 38 171.757 39.7909 171.757 42V42C171.757 44.2091 169.966 46 167.757 46H25C22.7909 46 21 44.2091 21 42V42Z" fill="white"/>
</clipPath>
<clipPath id="clip1_3_6069">
<path d="M21 58C21 55.7909 22.7909 54 25 54H200C202.209 54 204 55.7909 204 58V58C204 60.2091 202.209 62 200 62H25C22.7909 62 21 60.2091 21 58V58Z" fill="white"/>
</clipPath>
<clipPath id="clip2_3_6069">
<path d="M21 74C21 71.7909 22.7909 70 25 70H154.686C156.895 70 158.686 71.7909 158.686 74V74C158.686 76.2091 156.895 78 154.686 78H25C22.7909 78 21 76.2091 21 74V74Z" fill="white"/>
</clipPath>
</defs>
</svg>
