<svg width="224" height="117" viewBox="0 0 224 117" fill="none" xmlns="http://www.w3.org/2000/svg">
<path d="M10 15C10 12.7909 11.7909 11 14 11H210C212.209 11 214 12.7909 214 15V101C214 103.209 212.209 105 210 105H14C11.7909 105 10 103.209 10 101V15Z" fill="white"/>
<path d="M18 23C18 20.7909 19.7909 19 22 19H27.4545C29.6637 19 31.4545 20.7909 31.4545 23V93C31.4545 95.2091 29.6637 97 27.4545 97H22C19.7909 97 18 95.2091 18 93V23Z" fill="#DADFE2"/>
<path d="M35.4546 23C35.4546 20.7909 37.2455 19 39.4546 19H44.9091C47.1183 19 48.9091 20.7909 48.9091 23V93C48.9091 95.2091 47.1183 97 44.9091 97H39.4546C37.2454 97 35.4546 95.2091 35.4546 93V23Z" fill="#DADFE2"/>
<path d="M52.9092 23C52.9092 20.7909 54.7 19 56.9092 19H62.3637C64.5729 19 66.3637 20.7909 66.3637 23V93C66.3637 95.2091 64.5729 97 62.3637 97H56.9092C54.7 97 52.9092 95.2091 52.9092 93V23Z" fill="#DADFE2"/>
<path d="M70.3638 23C70.3638 20.7909 72.1546 19 74.3638 19H79.8183C82.0275 19 83.8183 20.7909 83.8183 23V93C83.8183 95.2091 82.0275 97 79.8183 97H74.3638C72.1546 97 70.3638 95.2091 70.3638 93V23Z" fill="#DADFE2"/>
<path d="M87.8184 23C87.8184 20.7909 89.6092 19 91.8184 19H97.2729C99.482 19 101.273 20.7909 101.273 23V93C101.273 95.2091 99.482 97 97.2729 97H91.8184C89.6092 97 87.8184 95.2091 87.8184 93V23Z" fill="#DADFE2"/>
<path d="M105.273 23C105.273 20.7909 107.064 19 109.273 19H114.727C116.937 19 118.727 20.7909 118.727 23V93C118.727 95.2091 116.937 97 114.727 97H109.273C107.064 97 105.273 95.2091 105.273 93V23Z" fill="#DADFE2"/>
<path d="M122.727 23C122.727 20.7909 124.518 19 126.727 19H132.182C134.391 19 136.182 20.7909 136.182 23V93C136.182 95.2091 134.391 97 132.182 97H126.727C124.518 97 122.727 95.2091 122.727 93V23Z" fill="#DADFE2"/>
<path d="M140.182 23C140.182 20.7909 141.973 19 144.182 19H149.636C151.845 19 153.636 20.7909 153.636 23V93C153.636 95.2091 151.845 97 149.636 97H144.182C141.972 97 140.182 95.2091 140.182 93V23Z" fill="#DADFE2"/>
<path d="M157.636 23C157.636 20.7909 159.427 19 161.636 19H167.091C169.3 19 171.091 20.7909 171.091 23V93C171.091 95.2091 169.3 97 167.091 97H161.636C159.427 97 157.636 95.2091 157.636 93V23Z" fill="#DADFE2"/>
<path d="M175.091 23C175.091 20.7909 176.882 19 179.091 19H184.545C186.755 19 188.545 20.7909 188.545 23V93C188.545 95.2091 186.755 97 184.545 97H179.091C176.882 97 175.091 95.2091 175.091 93V23Z" fill="#DADFE2"/>
<path d="M192.545 23C192.545 20.7909 194.336 19 196.545 19H202C204.209 19 206 20.7909 206 23V93C206 95.2091 204.209 97 202 97H196.545C194.336 97 192.545 95.2091 192.545 93V23Z" fill="#DADFE2"/>
</svg>
