<svg width="224" height="117" viewBox="0 0 224 117" fill="none" xmlns="http://www.w3.org/2000/svg">
<path d="M56.82 51.196V41.8H62.94V67H56.82V57.028H47.46V67H41.34V41.8H47.46V51.196H56.82ZM85.2769 57.496C85.2769 58.504 85.1689 59.224 85.0609 59.584H71.9569C72.4969 61.6 74.0089 62.716 75.9529 62.716C77.7529 62.716 78.6889 61.816 79.0489 61.42L84.7369 61.672C83.7289 64.264 80.7049 67.504 76.0249 67.504C70.6609 67.504 66.4129 63.148 66.4129 57.82C66.4129 52.564 70.7329 48.136 75.9889 48.136C81.3169 48.136 85.2769 52.312 85.2769 57.496ZM75.9169 52.852C74.0089 52.852 72.4609 54.04 71.9209 56.056H79.8769C79.4449 54.184 77.9329 52.852 75.9169 52.852ZM95.9306 67.504C91.5026 67.504 87.5066 63.436 87.5066 57.82C87.5066 52.204 91.5026 48.136 95.9306 48.136C98.6306 48.136 100.539 49.576 101.259 50.44H101.439L102.267 48.64H106.479V67H102.267L101.439 65.2H101.259C100.539 66.064 98.6306 67.504 95.9306 67.504ZM96.9746 62.356C99.0266 62.356 100.791 60.484 100.791 57.82C100.791 55.156 99.0266 53.284 96.9746 53.284C94.9226 53.284 93.1946 55.156 93.1946 57.82C93.1946 60.484 94.9226 62.356 96.9746 62.356ZM117.974 67.504C113.546 67.504 109.55 63.436 109.55 57.82C109.55 52.204 113.546 48.136 117.974 48.136C120.53 48.136 122.222 49.468 122.654 50.116H122.834V41.8H128.522V67H124.31L123.482 65.2H123.302C122.582 66.064 120.674 67.504 117.974 67.504ZM119.018 62.356C121.07 62.356 122.834 60.484 122.834 57.82C122.834 55.156 121.07 53.284 119.018 53.284C116.966 53.284 115.238 55.156 115.238 57.82C115.238 60.484 116.966 62.356 119.018 62.356ZM135.44 46.552C133.64 46.552 132.272 45.184 132.272 43.492C132.272 41.764 133.64 40.432 135.44 40.432C137.204 40.432 138.572 41.764 138.572 43.492C138.572 45.184 137.204 46.552 135.44 46.552ZM138.284 67H132.596V48.64H138.284V67ZM147.847 67H142.159V48.64H146.371L147.199 50.44H147.379C147.883 49.792 149.719 48.136 152.527 48.136C156.883 48.136 159.871 51.268 159.871 56.056V67H154.183V56.776C154.183 54.868 152.851 53.392 151.015 53.392C149.179 53.392 147.847 54.868 147.847 56.776V67ZM172.389 73.84C165.693 73.84 163.821 69.196 163.533 67.792L169.365 67.504C169.653 68.188 170.625 69.016 172.353 69.016C174.441 69.016 175.773 67.792 175.773 65.704V64.264H175.593C175.053 64.912 173.577 66.136 171.129 66.136C166.593 66.136 162.741 62.176 162.741 57.1C162.741 52.096 166.593 48.136 171.021 48.136C173.649 48.136 175.413 49.504 176.241 50.44H176.421L177.285 48.64H181.461V65.416C181.461 70.492 178.005 73.84 172.389 73.84ZM172.101 61.348C174.081 61.348 175.773 59.584 175.773 57.172C175.773 54.724 174.081 52.996 172.101 52.996C170.085 52.996 168.429 54.724 168.429 57.172C168.429 59.584 170.085 61.348 172.101 61.348Z" fill="#032B3A"/>
</svg>
