<svg width="224" height="117" viewBox="0 0 224 117" fill="none" xmlns="http://www.w3.org/2000/svg">
<g clip-path="url(#clip0_1346_32900)">
<path fill-rule="evenodd" clip-rule="evenodd" d="M191.866 -34.8987C193.175 -34.2512 193.712 -32.6649 193.064 -31.3557L159.649 36.2048C157.255 41.0454 153.756 44.1296 149.8 45.5748C145.965 46.9757 141.899 46.7633 138.331 45.3989C137.56 45.2266 136.757 44.8575 136.049 44.457C135.153 43.95 134.158 43.2484 133.166 42.3575C131.186 40.5777 129.126 37.9534 127.963 34.4638C127.501 33.0782 128.25 31.5804 129.635 31.1185C131.021 30.6567 132.519 31.4055 132.98 32.7912C133.801 35.252 135.266 37.1334 136.702 38.4236C137.419 39.0678 138.104 39.5423 138.654 39.8536C139.083 40.0962 139.338 40.1885 139.418 40.2174C139.454 40.2303 139.454 40.2305 139.42 40.2258C139.635 40.2549 139.846 40.3104 140.048 40.3911C142.595 41.4094 145.409 41.5474 147.985 40.6066C150.527 39.6778 153.048 37.6205 154.908 33.8598L188.323 -33.7007C188.971 -35.0099 190.557 -35.5463 191.866 -34.8987Z" fill="#032B3A"/>
<path fill-rule="evenodd" clip-rule="evenodd" d="M151.096 62.6117C152.824 60.9058 153.302 59.5166 153.302 58.492C153.302 57.4673 152.824 56.0781 151.096 54.3722C149.351 52.6501 146.591 50.8882 142.812 49.3105C135.272 46.1632 124.538 44.1082 112.444 44.1082C100.35 44.1082 89.6165 46.1632 82.077 49.3105C78.2973 50.8882 75.5376 52.6501 73.7927 54.3722C72.0642 56.0781 71.5861 57.4673 71.5861 58.492C71.5861 59.5166 72.0642 60.9058 73.7927 62.6117C75.5376 64.3338 78.2973 66.0957 82.077 67.6735C89.6165 70.8207 100.35 72.8757 112.444 72.8757C124.538 72.8757 135.272 70.8207 142.812 67.6735C146.591 66.0957 149.351 64.3338 151.096 62.6117ZM112.444 77.4618C137.542 77.4618 157.888 68.9687 157.888 58.492C157.888 48.0152 137.542 39.5221 112.444 39.5221C87.3461 39.5221 67 48.0152 67 58.492C67 68.9687 87.3461 77.4618 112.444 77.4618Z" fill="#627A84"/>
<path fill-rule="evenodd" clip-rule="evenodd" d="M128.202 94.0251C130.544 94.6691 131.986 94.3885 132.873 93.8762C133.761 93.3638 134.725 92.2552 135.338 89.9053C135.957 87.5332 136.103 84.2622 135.579 80.2001C134.535 72.097 130.948 61.7738 124.901 51.3001C118.854 40.8264 111.707 32.5582 105.212 27.6024C101.956 25.118 99.0502 23.609 96.6863 22.9589C94.3447 22.3149 92.9026 22.5955 92.0152 23.1078C91.1278 23.6202 90.1638 24.7288 89.5507 27.0786C88.9318 29.4508 88.7858 32.7218 89.3092 36.7839C90.3534 44.887 93.9406 55.2102 99.9876 65.6839C106.035 76.1576 113.181 84.4258 119.677 89.3816C122.933 91.866 125.838 93.375 128.202 94.0251ZM96.0159 67.9769C108.565 89.7126 126.093 103.086 135.166 97.8479C144.24 92.6095 141.422 70.7427 128.873 49.0071C116.324 27.2714 98.7953 13.8977 89.7222 19.1361C80.649 24.3745 83.4668 46.2413 96.0159 67.9769Z" fill="#627A84"/>
<path fill-rule="evenodd" clip-rule="evenodd" d="M96.6864 94.0251C94.3448 94.6691 92.9027 94.3885 92.0153 93.8762C91.1279 93.3638 90.1639 92.2552 89.5508 89.9053C88.9319 87.5332 88.7859 84.2622 89.3093 80.2001C90.3535 72.097 93.9407 61.7738 99.9877 51.3001C106.035 40.8264 113.181 32.5582 119.677 27.6024C122.933 25.118 125.839 23.609 128.202 22.9589C130.544 22.3149 131.986 22.5955 132.873 23.1078C133.761 23.6202 134.725 24.7288 135.338 27.0786C135.957 29.4508 136.103 32.7218 135.579 36.7839C134.535 44.887 130.948 55.2102 124.901 65.6839C118.854 76.1576 111.708 84.4258 105.212 89.3816C101.956 91.866 99.0503 93.375 96.6864 94.0251ZM128.873 67.9769C116.324 89.7126 98.7954 103.086 89.7223 97.8479C80.6491 92.6095 83.4669 70.7427 96.016 49.0071C108.565 27.2714 126.093 13.8977 135.167 19.1361C144.24 24.3745 141.422 46.2413 128.873 67.9769Z" fill="#627A84"/>
<path d="M121.199 58.6497C121.199 63.37 117.373 67.1966 112.653 67.1966C107.932 67.1966 104.106 63.37 104.106 58.6497C104.106 53.9294 107.932 50.1029 112.653 50.1029C117.373 50.1029 121.199 53.9294 121.199 58.6497Z" fill="#627A84"/>
<path fill-rule="evenodd" clip-rule="evenodd" d="M140.034 1.55133C141.418 1.08345 142.919 1.82582 143.387 3.20945L146.682 12.9527C147.149 14.3364 146.407 15.8373 145.023 16.3052C143.64 16.7731 142.139 16.0307 141.671 14.6471L140.422 10.9521L134.166 23.6008C131.662 28.6622 132.436 33.0322 134.617 36.1304C135.458 37.3248 135.171 38.9745 133.977 39.8153C132.783 40.6561 131.133 40.3696 130.292 39.1752C126.973 34.4605 126.079 28.0193 129.424 21.2559L135.68 8.60715L131.985 9.85661C130.602 10.3245 129.101 9.58212 128.633 8.19849C128.165 6.81485 128.908 5.31391 130.291 4.84603L140.034 1.55133Z" fill="#032B3A"/>
</g>
<defs>
<clipPath id="clip0_1346_32900">
<path d="M0 8C0 3.58172 3.58172 0 8 0H216C220.418 0 224 3.58172 224 8V109C224 113.418 220.418 117 216 117H8C3.58172 117 0 113.418 0 109V8Z" fill="white"/>
</clipPath>
</defs>
</svg>
