<svg width="224" height="117" viewBox="0 0 224 117" fill="none" xmlns="http://www.w3.org/2000/svg">
<path d="M10 13C10 8.58172 13.5817 5 18 5H207C211.418 5 215 8.58172 215 13V104C215 108.418 211.418 112 207 112H18C13.5817 112 10 108.418 10 104V13Z" fill="white"/>
<path d="M39.5408 21.6886C38.6155 21.0408 37.3838 21.0408 36.4585 21.6886L23.7915 30.5555C23.1836 30.981 23.0357 31.8188 23.4613 32.4269C23.8869 33.0348 24.7247 33.1826 25.3327 32.7571L28.5933 30.4747V41.0625C28.5933 43.289 30.3982 45.0938 32.6246 45.0938H43.3746C45.601 45.0938 47.4059 43.289 47.4059 41.0625V30.4746L50.6665 32.7571C51.2746 33.1826 52.1124 33.0348 52.5379 32.4269C52.9635 31.8188 52.8157 30.981 52.2077 30.5555L39.5408 21.6886ZM44.7184 28.5934V41.0625C44.7184 41.8047 44.1167 42.4063 43.3746 42.4063H32.6246C31.8825 42.4063 31.2808 41.8047 31.2808 41.0625V28.5934L37.9996 23.8903L44.7184 28.5934Z" fill="#233D48"/>
<path d="M89.3433 23.5938C89.3433 22.8516 89.9449 22.25 90.687 22.25H97.4058C98.1479 22.25 98.7495 22.8516 98.7495 23.5938V30.3125C98.7495 31.0547 98.1479 31.6562 97.4058 31.6562C96.6636 31.6562 96.062 31.0547 96.062 30.3125V26.8378L83.5745 39.3274C83.3323 39.5697 83.0206 39.7002 82.7035 39.7188C82.3337 39.7404 81.9567 39.61 81.6742 39.3274C81.4067 39.06 81.2756 38.7078 81.2808 38.3573C81.2857 38.0201 81.4169 37.6844 81.6742 37.4271L94.1617 24.9375H90.687C89.9449 24.9375 89.3433 24.3359 89.3433 23.5938Z" fill="#233D48"/>
<path d="M75.9058 23.5938C75.9058 22.1095 77.109 20.9062 78.5933 20.9062H86.6558V23.5938H78.5933V42.4062H97.4058V34.3438H100.093V42.4062C100.093 43.8906 98.8901 45.0938 97.4058 45.0938H78.5933C77.109 45.0938 75.9058 43.8906 75.9058 42.4062V23.5938Z" fill="#233D48"/>
<path d="M132.625 22.25C132.625 20.7657 133.828 19.5625 135.312 19.5625H142.031C142.743 19.5625 143.427 19.8456 143.931 20.3497L149.306 25.7247C149.81 26.2287 150.093 26.9122 150.093 27.625V38.375C150.093 39.8593 148.89 41.0625 147.406 41.0625V27.625L142.031 22.25H132.625ZM129.937 24.9375C128.453 24.9375 127.25 26.1407 127.25 27.625V43.75C127.25 45.2343 128.453 46.4375 129.937 46.4375H142.031C143.515 46.4375 144.718 45.2343 144.718 43.75V30.9844C144.718 30.2716 144.435 29.588 143.931 29.084L140.572 25.7247C140.068 25.2206 139.384 24.9375 138.671 24.9375H129.937ZM129.937 43.75V27.625H138.671L142.031 30.9844V43.75H129.937Z" fill="#233D48"/>
<path d="M193.375 30.3125C193.375 33.281 190.968 35.6875 188 35.6875C185.031 35.6875 182.625 33.281 182.625 30.3125C182.625 27.344 185.031 24.9375 188 24.9375C190.968 24.9375 193.375 27.344 193.375 30.3125ZM190.687 30.3125C190.687 28.8282 189.484 27.625 188 27.625C186.515 27.625 185.312 28.8282 185.312 30.3125C185.312 31.7968 186.515 33 188 33C189.484 33 190.687 31.7968 190.687 30.3125Z" fill="#233D48"/>
<path d="M201.437 33C201.437 40.4213 195.421 46.4375 188 46.4375C180.578 46.4375 174.562 40.4213 174.562 33C174.562 25.5787 180.578 19.5625 188 19.5625C195.421 19.5625 201.437 25.5787 201.437 33ZM188 43.75C189.974 43.75 191.824 43.2177 193.414 42.2888C190.622 39.7834 188.274 39.4847 186.461 39.9161C184.937 40.2787 183.587 41.1998 182.495 42.236C184.105 43.1975 185.988 43.75 188 43.75ZM185.838 37.3017C188.803 36.5963 192.131 37.3767 195.575 40.6274C197.535 38.68 198.75 35.9818 198.75 33C198.75 27.0629 193.937 22.25 188 22.25C182.062 22.25 177.25 27.0629 177.25 33C177.25 35.9494 178.437 38.6214 180.361 40.5637C181.729 39.1991 183.581 37.839 185.838 37.3017Z" fill="#233D48"/>
<path d="M31.8374 84.3438L35.312 87.8184C35.8367 88.3433 35.8367 89.194 35.312 89.7188C34.7873 90.2436 33.9364 90.2436 33.4117 89.7188L27.6431 83.9503C27.1183 83.4255 27.1183 82.5747 27.6431 82.0499L33.4117 76.2813C33.9364 75.7566 34.7873 75.7566 35.312 76.2813C35.8367 76.8061 35.8367 77.6569 35.312 78.1817L31.8374 81.6563H47.4058C48.1479 81.6563 48.7495 82.258 48.7495 83C48.7495 83.7422 48.1479 84.3438 47.4058 84.3438H31.8374Z" fill="#233D48"/>
<path d="M84.8413 71.4228C85.2982 70.838 86.1426 70.7343 86.7274 71.1912L90.1611 73.8738C90.7459 74.3307 90.8495 75.1752 90.3926 75.76L87.7101 79.1936C87.2531 79.7784 86.4086 79.8821 85.8238 79.4252C85.239 78.9683 85.1353 78.1238 85.5922 77.539L86.1109 76.7355C84.3987 77.2379 82.8891 78.4172 82.0151 80.1325C80.5786 82.9518 81.3228 86.3087 83.6231 88.2809L81.7183 90.1858C78.6187 87.4084 77.6417 82.796 79.6205 78.9124C80.9459 76.3112 83.3154 74.5905 85.9585 74.0008L85.0728 73.309C84.488 72.8521 84.3844 72.0076 84.8413 71.4228Z" fill="#233D48"/>
<path d="M89.7343 89.3129L90.3926 88.4704C90.8495 87.8856 90.7459 87.0411 90.1611 86.5842C89.5763 86.1273 88.7317 86.231 88.2748 86.8158L85.5922 90.2494C85.1353 90.8342 85.239 91.6787 85.8238 92.1356L89.2574 94.8183C89.8422 95.2752 90.6867 95.1714 91.1436 94.5866C91.6005 94.0018 91.4969 93.1574 90.912 92.7004L90.0262 92.0084C92.6693 91.4187 95.039 89.6981 96.3645 87.0967C98.3583 83.1834 97.3511 78.5302 94.1953 75.76L92.2888 77.6664C94.6462 79.6298 95.4214 83.0277 93.9698 85.8766C93.0722 87.6385 91.5039 88.8347 89.7343 89.3129Z" fill="#233D48"/>
<path d="M124.562 76.2812C124.562 74.797 125.765 73.5938 127.25 73.5938H148.75C150.234 73.5938 151.437 74.797 151.437 76.2812V92.4062C151.437 93.8906 150.234 95.0938 148.75 95.0938H127.25C125.765 95.0938 124.562 93.8906 124.562 92.4062V76.2812ZM146.958 76.2812H129.041L138 85.6875L146.958 76.2812ZM127.25 78.3203V92.4062H148.75V78.3203L139.955 87.6456C138.894 88.7705 137.105 88.7705 136.044 87.6456L127.25 78.3203Z" fill="#233D48"/>
<path d="M192.031 72.25C192.031 71.5079 192.632 70.9062 193.375 70.9062C194.117 70.9062 194.718 71.5079 194.718 72.25V73.5938H197.406C198.89 73.5938 200.093 74.797 200.093 76.2812V92.4062C200.093 93.8906 198.89 95.0938 197.406 95.0938H178.593C177.109 95.0938 175.906 93.8906 175.906 92.4062V76.2812C175.906 74.797 177.109 73.5938 178.593 73.5938H181.281V72.25C181.281 71.5079 181.882 70.9062 182.625 70.9062C183.367 70.9062 183.968 71.5079 183.968 72.25V73.5938H192.031V72.25ZM178.593 76.2812V78.9688H197.406V76.2812H178.593ZM197.406 81.6562H178.593V92.4062H197.406V81.6562Z" fill="#233D48"/>
</svg>
