<svg width="224" height="117" viewBox="0 0 224 117" fill="none" xmlns="http://www.w3.org/2000/svg">
<g clip-path="url(#clip0_2314_46176)">
<path d="M42.9999 49.8019C42.2742 49.8019 41.6859 50.3902 41.6859 51.1159V57.686H35.1158C34.3901 57.686 33.8018 58.2743 33.8018 59C33.8018 59.7257 34.3901 60.314 35.1158 60.314H41.6859V66.8841C41.6859 67.6098 42.2742 68.1981 42.9999 68.1981C43.7256 68.1981 44.3139 67.6098 44.3139 66.8841V60.314H50.884C51.6097 60.314 52.198 59.7257 52.198 59C52.198 58.2743 51.6097 57.686 50.884 57.686H44.3139V51.1159C44.3139 50.3902 43.7256 49.8019 42.9999 49.8019Z" fill="#233D48"/>
<path d="M101.561 59C101.561 57.5486 102.737 56.372 104.189 56.372C105.64 56.372 106.817 57.5486 106.817 59C106.817 60.4515 105.64 61.6281 104.189 61.6281C102.737 61.6281 101.561 60.4515 101.561 59ZM109.445 59C109.445 57.5486 110.621 56.372 112.073 56.372C113.524 56.372 114.701 57.5486 114.701 59C114.701 60.4515 113.524 61.6281 112.073 61.6281C110.621 61.6281 109.445 60.4515 109.445 59ZM119.957 56.372C118.506 56.372 117.329 57.5486 117.329 59C117.329 60.4515 118.506 61.6281 119.957 61.6281C121.409 61.6281 122.585 60.4515 122.585 59C122.585 57.5486 121.409 56.372 119.957 56.372Z" fill="#233D48"/>
<path d="M170.488 45.8598C169.036 45.8598 167.86 47.0364 167.86 48.4879V68.9679C167.86 70.1386 169.275 70.7249 170.103 69.897L173.116 66.8841H191.512C192.964 66.8841 194.14 65.7076 194.14 64.2561V48.4879C194.14 47.0364 192.964 45.8598 191.512 45.8598H170.488ZM191.512 48.4879V64.2561H171.802L170.488 65.5701V48.4879H191.512ZM173.116 52.4299C173.116 51.7042 173.704 51.1159 174.43 51.1159H187.57C188.296 51.1159 188.884 51.7042 188.884 52.4299C188.884 53.1556 188.296 53.7439 187.57 53.7439H174.43C173.704 53.7439 173.116 53.1556 173.116 52.4299ZM174.43 55.058C173.704 55.058 173.116 55.6463 173.116 56.372C173.116 57.0977 173.704 57.686 174.43 57.686H187.57C188.296 57.686 188.884 57.0977 188.884 56.372C188.884 55.6463 188.296 55.058 187.57 55.058H174.43ZM174.43 59C173.704 59 173.116 59.5883 173.116 60.314C173.116 61.0398 173.704 61.6281 174.43 61.6281H182.314C183.04 61.6281 183.628 61.0398 183.628 60.314C183.628 59.5883 183.04 59 182.314 59H174.43Z" fill="#233D48"/>
</g>
<defs>
<clipPath id="clip0_2314_46176">
<path d="M0 8C0 3.58172 3.58172 0 8 0H216C220.418 0 224 3.58172 224 8V109C224 113.418 220.418 117 216 117H8C3.58172 117 0 113.418 0 109V8Z" fill="white"/>
</clipPath>
</defs>
</svg>
