<svg width="224" height="117" viewBox="0 0 224 117" fill="none" xmlns="http://www.w3.org/2000/svg">
<rect x="69" y="46" width="85" height="24" rx="12" fill="#EEF1F2"/>
<path d="M81.5804 53.2727V62H80.5236V53.2727H81.5804ZM84.5687 58.0625V62H83.563V55.4545H84.5346V56.4773H84.6199C84.7733 56.1449 85.0062 55.8778 85.3187 55.6761C85.6312 55.4716 86.0346 55.3693 86.5289 55.3693C86.9721 55.3693 87.3599 55.4602 87.6923 55.642C88.0247 55.821 88.2832 56.0938 88.4679 56.4602C88.6525 56.8239 88.7449 57.2841 88.7449 57.8409V62H87.7392V57.9091C87.7392 57.3949 87.6056 56.9943 87.3386 56.7074C87.0716 56.4176 86.7051 56.2727 86.2392 56.2727C85.9181 56.2727 85.6312 56.3423 85.3784 56.4815C85.1284 56.6207 84.9309 56.8239 84.786 57.0909C84.6412 57.358 84.5687 57.6818 84.5687 58.0625ZM91.5882 53.2727V62H90.5826V53.2727H91.5882ZM93.4302 62V55.4545H94.4359V62H93.4302ZM93.9416 54.3636C93.7456 54.3636 93.5765 54.2969 93.4345 54.1634C93.2953 54.0298 93.2257 53.8693 93.2257 53.6818C93.2257 53.4943 93.2953 53.3338 93.4345 53.2003C93.5765 53.0668 93.7456 53 93.9416 53C94.1376 53 94.3052 53.0668 94.4444 53.2003C94.5865 53.3338 94.6575 53.4943 94.6575 53.6818C94.6575 53.8693 94.5865 54.0298 94.4444 54.1634C94.3052 54.2969 94.1376 54.3636 93.9416 54.3636ZM97.2836 58.0625V62H96.2779V55.4545H97.2495V56.4773H97.3347C97.4881 56.1449 97.7211 55.8778 98.0336 55.6761C98.3461 55.4716 98.7495 55.3693 99.2438 55.3693C99.687 55.3693 100.075 55.4602 100.407 55.642C100.74 55.821 100.998 56.0938 101.183 56.4602C101.367 56.8239 101.46 57.2841 101.46 57.8409V62H100.454V57.9091C100.454 57.3949 100.32 56.9943 100.053 56.7074C99.7864 56.4176 99.4199 56.2727 98.954 56.2727C98.633 56.2727 98.3461 56.3423 98.0932 56.4815C97.8432 56.6207 97.6458 56.8239 97.5009 57.0909C97.356 57.358 97.2836 57.6818 97.2836 58.0625ZM106.042 62.1364C105.411 62.1364 104.867 61.9972 104.41 61.7188C103.955 61.4375 103.604 61.0455 103.357 60.5426C103.113 60.0369 102.991 59.4489 102.991 58.7784C102.991 58.108 103.113 57.517 103.357 57.0057C103.604 56.4915 103.948 56.0909 104.388 55.804C104.831 55.5142 105.349 55.3693 105.939 55.3693C106.28 55.3693 106.617 55.4261 106.949 55.5398C107.282 55.6534 107.584 55.8381 107.857 56.0938C108.13 56.3466 108.347 56.6818 108.509 57.0994C108.671 57.517 108.752 58.0312 108.752 58.642V59.0682H103.706V58.1989H107.729C107.729 57.8295 107.655 57.5 107.508 57.2102C107.363 56.9205 107.155 56.6918 106.885 56.5241C106.618 56.3565 106.303 56.2727 105.939 56.2727C105.539 56.2727 105.192 56.3722 104.9 56.571C104.61 56.767 104.387 57.0227 104.231 57.3381C104.074 57.6534 103.996 57.9915 103.996 58.3523V58.9318C103.996 59.4261 104.081 59.8452 104.252 60.1889C104.425 60.5298 104.665 60.7898 104.972 60.9688C105.279 61.1449 105.635 61.233 106.042 61.233C106.306 61.233 106.545 61.196 106.758 61.1222C106.974 61.0455 107.16 60.9318 107.316 60.7812C107.472 60.6278 107.593 60.4375 107.678 60.2102L108.65 60.483C108.547 60.8125 108.376 61.1023 108.134 61.3523C107.893 61.5994 107.594 61.7926 107.239 61.9318C106.884 62.0682 106.485 62.1364 106.042 62.1364ZM113.793 62V53.2727H114.85V61.0625H118.907V62H113.793ZM122.333 62.1534C121.918 62.1534 121.542 62.0753 121.204 61.919C120.866 61.7599 120.597 61.5312 120.398 61.233C120.199 60.9318 120.1 60.5682 120.1 60.142C120.1 59.767 120.174 59.4631 120.322 59.2301C120.469 58.9943 120.667 58.8097 120.914 58.6761C121.161 58.5426 121.434 58.4432 121.732 58.3778C122.033 58.3097 122.336 58.2557 122.64 58.2159C123.037 58.1648 123.36 58.1264 123.607 58.1009C123.857 58.0724 124.039 58.0256 124.153 57.9602C124.269 57.8949 124.327 57.7812 124.327 57.6193V57.5852C124.327 57.1648 124.212 56.8381 123.982 56.6051C123.755 56.3722 123.41 56.2557 122.947 56.2557C122.466 56.2557 122.09 56.3608 121.817 56.571C121.545 56.7812 121.353 57.0057 121.242 57.2443L120.287 56.9034C120.458 56.5057 120.685 56.196 120.969 55.9744C121.256 55.75 121.569 55.5937 121.907 55.5057C122.248 55.4148 122.583 55.3693 122.912 55.3693C123.123 55.3693 123.364 55.3949 123.637 55.446C123.912 55.4943 124.178 55.5952 124.434 55.7486C124.692 55.902 124.907 56.1335 125.077 56.4432C125.248 56.7528 125.333 57.1676 125.333 57.6875V62H124.327V61.1136H124.276C124.208 61.2557 124.094 61.4077 123.935 61.5696C123.776 61.7315 123.564 61.8693 123.3 61.983C123.036 62.0966 122.714 62.1534 122.333 62.1534ZM122.486 61.25C122.884 61.25 123.219 61.1719 123.492 61.0156C123.768 60.8594 123.975 60.6577 124.114 60.4105C124.256 60.1634 124.327 59.9034 124.327 59.6307V58.7102C124.285 58.7614 124.191 58.8082 124.046 58.8509C123.904 58.8906 123.739 58.9261 123.552 58.9574C123.367 58.9858 123.187 59.0114 123.01 59.0341C122.837 59.054 122.697 59.071 122.589 59.0852C122.327 59.1193 122.083 59.1747 121.856 59.2514C121.631 59.3253 121.449 59.4375 121.31 59.5881C121.174 59.7358 121.106 59.9375 121.106 60.1932C121.106 60.5426 121.235 60.8068 121.493 60.9858C121.755 61.1619 122.086 61.25 122.486 61.25ZM127.305 62V53.2727H128.311V56.4943H128.396C128.47 56.3807 128.572 56.2358 128.703 56.0597C128.836 55.8807 129.026 55.7216 129.274 55.5824C129.524 55.4403 129.862 55.3693 130.288 55.3693C130.839 55.3693 131.325 55.5071 131.745 55.7827C132.166 56.0582 132.494 56.4489 132.73 56.9545C132.965 57.4602 133.083 58.0568 133.083 58.7443C133.083 59.4375 132.965 60.0384 132.73 60.5469C132.494 61.0526 132.167 61.4446 131.749 61.723C131.332 61.9986 130.85 62.1364 130.305 62.1364C129.884 62.1364 129.548 62.0668 129.295 61.9276C129.042 61.7855 128.847 61.625 128.711 61.446C128.575 61.2642 128.47 61.1136 128.396 60.9943H128.276V62H127.305ZM128.294 58.7273C128.294 59.2216 128.366 59.6577 128.511 60.0355C128.656 60.4105 128.867 60.7045 129.146 60.9176C129.424 61.1278 129.765 61.233 130.169 61.233C130.589 61.233 130.94 61.1222 131.221 60.9006C131.505 60.6761 131.718 60.375 131.86 59.9972C132.005 59.6165 132.078 59.1932 132.078 58.7273C132.078 58.267 132.007 57.8523 131.865 57.483C131.725 57.1108 131.514 56.8168 131.23 56.6009C130.948 56.3821 130.595 56.2727 130.169 56.2727C129.759 56.2727 129.416 56.3764 129.137 56.5838C128.859 56.7884 128.649 57.0753 128.507 57.4446C128.365 57.8111 128.294 58.2386 128.294 58.7273ZM137.366 62.1364C136.735 62.1364 136.191 61.9972 135.734 61.7188C135.279 61.4375 134.928 61.0455 134.681 60.5426C134.437 60.0369 134.315 59.4489 134.315 58.7784C134.315 58.108 134.437 57.517 134.681 57.0057C134.928 56.4915 135.272 56.0909 135.713 55.804C136.156 55.5142 136.673 55.3693 137.264 55.3693C137.605 55.3693 137.941 55.4261 138.274 55.5398C138.606 55.6534 138.909 55.8381 139.181 56.0938C139.454 56.3466 139.671 56.6818 139.833 57.0994C139.995 57.517 140.076 58.0312 140.076 58.642V59.0682H135.031V58.1989H139.053C139.053 57.8295 138.98 57.5 138.832 57.2102C138.687 56.9205 138.48 56.6918 138.21 56.5241C137.943 56.3565 137.627 56.2727 137.264 56.2727C136.863 56.2727 136.517 56.3722 136.224 56.571C135.934 56.767 135.711 57.0227 135.555 57.3381C135.399 57.6534 135.32 57.9915 135.32 58.3523V58.9318C135.32 59.4261 135.406 59.8452 135.576 60.1889C135.749 60.5298 135.99 60.7898 136.296 60.9688C136.603 61.1449 136.96 61.233 137.366 61.233C137.63 61.233 137.869 61.196 138.082 61.1222C138.298 61.0455 138.484 60.9318 138.64 60.7812C138.796 60.6278 138.917 60.4375 139.002 60.2102L139.974 60.483C139.872 60.8125 139.7 61.1023 139.458 61.3523C139.217 61.5994 138.919 61.7926 138.563 61.9318C138.208 62.0682 137.809 62.1364 137.366 62.1364ZM142.612 53.2727V62H141.606V53.2727H142.612Z" fill="#032B3A"/>
</svg>
