<svg width="224" height="117" viewBox="0 0 224 117" fill="none" xmlns="http://www.w3.org/2000/svg">
<g clip-path="url(#clip0_2314_47621)">
<path d="M19 30H205C209.142 30 212.5 33.3579 212.5 37.5V78.5C212.5 82.6421 209.142 86 205 86H19C14.8579 86 11.5 82.6421 11.5 78.5V37.5C11.5 33.3579 14.8579 30 19 30Z" stroke="#DADFE2"/>
<path d="M36.5753 43.6293H35.0241C34.9645 43.2978 34.8535 43.0062 34.6911 42.7543C34.5286 42.5024 34.3298 42.2886 34.0945 42.1129C33.8591 41.9373 33.5956 41.8047 33.304 41.7152C33.0156 41.6257 32.709 41.581 32.3842 41.581C31.7976 41.581 31.2723 41.7285 30.8082 42.0234C30.3475 42.3184 29.983 42.7509 29.7145 43.321C29.4493 43.8911 29.3168 44.5871 29.3168 45.4091C29.3168 46.2377 29.4493 46.937 29.7145 47.5071C29.983 48.0772 30.3492 48.508 30.8132 48.7997C31.2772 49.0914 31.7992 49.2372 32.3793 49.2372C32.7008 49.2372 33.0057 49.1941 33.294 49.108C33.5857 49.0185 33.8492 48.8875 34.0845 48.7152C34.3198 48.5429 34.5187 48.3324 34.6811 48.0838C34.8468 47.8319 34.9612 47.5436 35.0241 47.2188L36.5753 47.2237C36.4924 47.7242 36.3317 48.1849 36.093 48.6058C35.8577 49.0234 35.5545 49.3847 35.1832 49.6896C34.8153 49.9912 34.3944 50.2249 33.9205 50.3906C33.4465 50.5563 32.9295 50.6392 32.3693 50.6392C31.4877 50.6392 30.7022 50.4304 30.0128 50.0128C29.3234 49.5919 28.7798 48.9903 28.3821 48.2081C27.9877 47.4259 27.7905 46.4929 27.7905 45.4091C27.7905 44.322 27.9893 43.389 28.3871 42.6101C28.7848 41.8279 29.3284 41.228 30.0178 40.8104C30.7071 40.3894 31.491 40.179 32.3693 40.179C32.9096 40.179 33.4134 40.2569 33.8807 40.4126C34.3513 40.5651 34.7739 40.7905 35.1484 41.0888C35.523 41.3838 35.8329 41.745 36.0781 42.1726C36.3234 42.5968 36.4891 43.0824 36.5753 43.6293ZM43.1316 47.3331V42.8636H44.623V50.5H43.1614V49.1776H43.0819C42.9062 49.5852 42.6245 49.925 42.2367 50.1967C41.8522 50.4652 41.3733 50.5994 40.7999 50.5994C40.3094 50.5994 39.8752 50.4917 39.4973 50.2763C39.1228 50.0575 38.8278 49.7344 38.6124 49.3068C38.4003 48.8793 38.2942 48.3506 38.2942 47.7209V42.8636H39.7807V47.5419C39.7807 48.0623 39.9249 48.4766 40.2132 48.7848C40.5016 49.093 40.8761 49.2472 41.3368 49.2472C41.6152 49.2472 41.892 49.1776 42.1671 49.0384C42.4455 48.8991 42.6758 48.6887 42.8581 48.407C43.0437 48.1252 43.1349 47.7673 43.1316 47.3331ZM46.6204 50.5V42.8636H48.0572V44.0767H48.1367C48.2759 43.6657 48.5212 43.3426 48.8725 43.1072C49.2272 42.8686 49.6282 42.7493 50.0756 42.7493C50.1684 42.7493 50.2778 42.7526 50.4038 42.7592C50.533 42.7659 50.6341 42.7741 50.707 42.7841V44.206C50.6474 44.1894 50.5413 44.1712 50.3888 44.1513C50.2364 44.1281 50.0839 44.1165 49.9315 44.1165C49.5801 44.1165 49.2669 44.1911 48.9918 44.3402C48.7201 44.486 48.5046 44.6899 48.3455 44.9517C48.1864 45.2102 48.1069 45.5052 48.1069 45.8366V50.5H46.6204ZM51.9934 50.5V42.8636H53.4302V44.0767H53.5098C53.649 43.6657 53.8942 43.3426 54.2456 43.1072C54.6002 42.8686 55.0012 42.7493 55.4487 42.7493C55.5415 42.7493 55.6509 42.7526 55.7768 42.7592C55.9061 42.7659 56.0072 42.7741 56.0801 42.7841V44.206C56.0204 44.1894 55.9144 44.1712 55.7619 44.1513C55.6094 44.1281 55.457 44.1165 55.3045 44.1165C54.9532 44.1165 54.64 44.1911 54.3649 44.3402C54.0931 44.486 53.8777 44.6899 53.7186 44.9517C53.5595 45.2102 53.4799 45.5052 53.4799 45.8366V50.5H51.9934ZM60.3842 50.6541C59.6319 50.6541 58.9839 50.4934 58.4403 50.1719C57.9001 49.8471 57.4825 49.3913 57.1875 48.8047C56.8958 48.2147 56.75 47.5237 56.75 46.7315C56.75 45.9493 56.8958 45.2599 57.1875 44.6634C57.4825 44.0668 57.8935 43.6011 58.4205 43.2663C58.9508 42.9316 59.5705 42.7642 60.2798 42.7642C60.7107 42.7642 61.1283 42.8355 61.5327 42.978C61.937 43.1205 62.3 43.3442 62.6214 43.6491C62.9429 43.9541 63.1965 44.3501 63.3821 44.8374C63.5677 45.3213 63.6605 45.9096 63.6605 46.6023V47.1293H57.5902V46.0156H62.2038C62.2038 45.6245 62.1243 45.2782 61.9652 44.9766C61.8061 44.6716 61.5824 44.4313 61.294 44.2557C61.009 44.08 60.6742 43.9922 60.2898 43.9922C59.8722 43.9922 59.5076 44.0949 59.196 44.3004C58.8878 44.5026 58.6491 44.7678 58.4801 45.0959C58.3144 45.4207 58.2315 45.7737 58.2315 46.1548V47.0249C58.2315 47.5353 58.321 47.9695 58.5 48.3274C58.6823 48.6854 58.9358 48.9588 59.2607 49.1477C59.5855 49.3333 59.965 49.4261 60.3991 49.4261C60.6809 49.4261 60.9377 49.3864 61.1697 49.3068C61.4018 49.224 61.6023 49.1013 61.7713 48.9389C61.9403 48.7765 62.0696 48.576 62.1591 48.3374L63.5661 48.5909C63.4534 49.0052 63.2512 49.3681 62.9595 49.6797C62.6712 49.9879 62.3082 50.2282 61.8707 50.4006C61.4366 50.5696 60.9411 50.6541 60.3842 50.6541ZM66.7963 45.9659V50.5H65.3098V42.8636H66.7367V44.1065H66.8311C67.0068 43.7022 67.2819 43.3774 67.6564 43.1321C68.0343 42.8868 68.5099 42.7642 69.0833 42.7642C69.6036 42.7642 70.0594 42.8736 70.4505 43.0923C70.8416 43.3078 71.1448 43.6293 71.3603 44.0568C71.5757 44.4844 71.6834 45.013 71.6834 45.6428V50.5H70.1969V45.8217C70.1969 45.2682 70.0527 44.8357 69.7644 44.5241C69.476 44.2093 69.08 44.0518 68.5762 44.0518C68.2315 44.0518 67.9249 44.1264 67.6564 44.2756C67.3913 44.4247 67.1808 44.6435 67.025 44.9318C66.8726 45.2169 66.7963 45.5616 66.7963 45.9659ZM76.8936 50.6541C76.1545 50.6541 75.5182 50.4867 74.9846 50.152C74.4542 49.8139 74.0466 49.3482 73.7615 48.755C73.4765 48.1617 73.334 47.4822 73.334 46.7166C73.334 45.9411 73.4798 45.2566 73.7715 44.6634C74.0632 44.0668 74.4741 43.6011 75.0044 43.2663C75.5347 42.9316 76.1595 42.7642 76.8787 42.7642C77.4587 42.7642 77.9758 42.8719 78.4299 43.0874C78.8839 43.2995 79.2502 43.5978 79.5286 43.9822C79.8103 44.3667 79.9777 44.8158 80.0307 45.3295H78.584C78.5044 44.9716 78.3221 44.6634 78.0371 44.4048C77.7554 44.1463 77.3775 44.017 76.9036 44.017C76.4893 44.017 76.1264 44.1264 75.8148 44.3452C75.5066 44.5606 75.2663 44.8688 75.0939 45.2699C74.9216 45.6676 74.8354 46.1383 74.8354 46.6818C74.8354 47.2386 74.9199 47.7192 75.089 48.1236C75.258 48.5279 75.4966 48.8411 75.8049 49.0632C76.1164 49.2853 76.4827 49.3963 76.9036 49.3963C77.1853 49.3963 77.4405 49.3449 77.6692 49.2422C77.9012 49.1361 78.0951 48.9853 78.2509 48.7898C78.41 48.5942 78.521 48.3589 78.584 48.0838H80.0307C79.9777 48.5777 79.8169 49.0185 79.5485 49.4062C79.28 49.794 78.9204 50.099 78.4696 50.321C78.0222 50.5431 77.4969 50.6541 76.8936 50.6541ZM82.56 53.3636C82.3379 53.3636 82.1358 53.3454 81.9535 53.3089C81.7712 53.2758 81.6353 53.2393 81.5458 53.1996L81.9038 51.9815C82.1755 52.0545 82.4175 52.0859 82.6296 52.076C82.8417 52.0661 83.029 51.9865 83.1914 51.8374C83.3571 51.6882 83.503 51.4446 83.6289 51.1065L83.8129 50.5994L81.0188 42.8636H82.6097L84.5437 48.7898H84.6232L86.5572 42.8636H88.1531L85.006 51.5192C84.8602 51.9169 84.6746 52.2533 84.4492 52.5284C84.2238 52.8068 83.9554 53.0156 83.6438 53.1548C83.3323 53.294 82.971 53.3636 82.56 53.3636Z" fill="#233D48"/>
<path d="M31.6364 75.9545V61.4091H32.5682V75.9545H31.6364ZM34.7727 65.7727C34.7045 65.197 34.428 64.75 33.9432 64.4318C33.4583 64.1136 32.8636 63.9545 32.1591 63.9545C31.6439 63.9545 31.1932 64.0379 30.8068 64.2045C30.4242 64.3712 30.125 64.6004 29.9091 64.892C29.697 65.1837 29.5909 65.5152 29.5909 65.8864C29.5909 66.197 29.6648 66.464 29.8125 66.6875C29.964 66.9072 30.1572 67.0909 30.392 67.2386C30.6269 67.3826 30.8731 67.5019 31.1307 67.5966C31.3883 67.6875 31.625 67.7614 31.8409 67.8182L33.0227 68.1364C33.3258 68.2159 33.6629 68.3258 34.0341 68.4659C34.4091 68.6061 34.767 68.7973 35.108 69.0398C35.4527 69.2784 35.7367 69.5852 35.9602 69.9602C36.1837 70.3352 36.2955 70.7955 36.2955 71.3409C36.2955 71.9697 36.1307 72.5379 35.8011 73.0455C35.4754 73.553 34.9981 73.9564 34.3693 74.2557C33.7443 74.5549 32.9848 74.7045 32.0909 74.7045C31.2576 74.7045 30.536 74.5701 29.9261 74.3011C29.3201 74.0322 28.8428 73.6572 28.4943 73.1761C28.1496 72.6951 27.9545 72.1364 27.9091 71.5H29.3636C29.4015 71.9394 29.5492 72.303 29.8068 72.5909C30.0682 72.875 30.3977 73.0871 30.7955 73.2273C31.197 73.3636 31.6288 73.4318 32.0909 73.4318C32.6288 73.4318 33.1117 73.3447 33.5398 73.1705C33.9678 72.9924 34.3068 72.7462 34.5568 72.4318C34.8068 72.1136 34.9318 71.7424 34.9318 71.3182C34.9318 70.9318 34.8239 70.6174 34.608 70.375C34.392 70.1326 34.108 69.9356 33.7557 69.7841C33.4034 69.6326 33.0227 69.5 32.6136 69.3864L31.1818 68.9773C30.2727 68.7159 29.553 68.3428 29.0227 67.858C28.4924 67.3731 28.2273 66.7386 28.2273 65.9545C28.2273 65.303 28.4034 64.7348 28.7557 64.25C29.1117 63.7614 29.589 63.3826 30.1875 63.1136C30.7898 62.8409 31.4621 62.7045 32.2045 62.7045C32.9545 62.7045 33.6212 62.839 34.2045 63.108C34.7879 63.3731 35.25 63.7367 35.5909 64.1989C35.9356 64.661 36.1174 65.1856 36.1364 65.7727H34.7727Z" fill="#233D48"/>
<path d="M45 74.6591C44.1439 74.6591 43.4148 74.4261 42.8125 73.9602C42.2102 73.4905 41.75 72.8106 41.4318 71.9205C41.1136 71.0265 40.9545 69.947 40.9545 68.6818C40.9545 67.4242 41.1136 66.3504 41.4318 65.4602C41.7538 64.5663 42.2159 63.8845 42.8182 63.4148C43.4242 62.9413 44.1515 62.7045 45 62.7045C45.8485 62.7045 46.5739 62.9413 47.1761 63.4148C47.7822 63.8845 48.2443 64.5663 48.5625 65.4602C48.8845 66.3504 49.0455 67.4242 49.0455 68.6818C49.0455 69.947 48.8864 71.0265 48.5682 71.9205C48.25 72.8106 47.7898 73.4905 47.1875 73.9602C46.5852 74.4261 45.8561 74.6591 45 74.6591ZM45 73.4091C45.8485 73.4091 46.5076 73 46.9773 72.1818C47.447 71.3636 47.6818 70.197 47.6818 68.6818C47.6818 67.6742 47.5739 66.8163 47.358 66.108C47.1458 65.3996 46.839 64.8598 46.4375 64.4886C46.0398 64.1174 45.5606 63.9318 45 63.9318C44.1591 63.9318 43.5019 64.3466 43.0284 65.1761C42.5549 66.0019 42.3182 67.1705 42.3182 68.6818C42.3182 69.6894 42.4242 70.5455 42.6364 71.25C42.8485 71.9545 43.1534 72.4905 43.5511 72.858C43.9527 73.2254 44.4356 73.4091 45 73.4091ZM51.7983 74.5909C51.518 74.5909 51.2775 74.4905 51.0767 74.2898C50.8759 74.089 50.7756 73.8485 50.7756 73.5682C50.7756 73.2879 50.8759 73.0473 51.0767 72.8466C51.2775 72.6458 51.518 72.5455 51.7983 72.5455C52.0786 72.5455 52.3191 72.6458 52.5199 72.8466C52.7206 73.0473 52.821 73.2879 52.821 73.5682C52.821 73.7538 52.7737 73.9242 52.679 74.0795C52.5881 74.2348 52.465 74.3598 52.3097 74.4545C52.1581 74.5455 51.9877 74.5909 51.7983 74.5909ZM58.5938 74.6591C57.7377 74.6591 57.0085 74.4261 56.4062 73.9602C55.804 73.4905 55.3438 72.8106 55.0256 71.9205C54.7074 71.0265 54.5483 69.947 54.5483 68.6818C54.5483 67.4242 54.7074 66.3504 55.0256 65.4602C55.3475 64.5663 55.8097 63.8845 56.4119 63.4148C57.018 62.9413 57.7453 62.7045 58.5938 62.7045C59.4422 62.7045 60.1676 62.9413 60.7699 63.4148C61.3759 63.8845 61.8381 64.5663 62.1562 65.4602C62.4782 66.3504 62.6392 67.4242 62.6392 68.6818C62.6392 69.947 62.4801 71.0265 62.1619 71.9205C61.8438 72.8106 61.3835 73.4905 60.7812 73.9602C60.179 74.4261 59.4498 74.6591 58.5938 74.6591ZM58.5938 73.4091C59.4422 73.4091 60.1013 73 60.571 72.1818C61.0407 71.3636 61.2756 70.197 61.2756 68.6818C61.2756 67.6742 61.1676 66.8163 60.9517 66.108C60.7396 65.3996 60.4328 64.8598 60.0312 64.4886C59.6335 64.1174 59.1544 63.9318 58.5938 63.9318C57.7528 63.9318 57.0956 64.3466 56.6222 65.1761C56.1487 66.0019 55.9119 67.1705 55.9119 68.6818C55.9119 69.6894 56.018 70.5455 56.2301 71.25C56.4422 71.9545 56.7472 72.4905 57.1449 72.858C57.5464 73.2254 58.0294 73.4091 58.5938 73.4091ZM68.5938 74.6591C67.7377 74.6591 67.0085 74.4261 66.4062 73.9602C65.804 73.4905 65.3438 72.8106 65.0256 71.9205C64.7074 71.0265 64.5483 69.947 64.5483 68.6818C64.5483 67.4242 64.7074 66.3504 65.0256 65.4602C65.3475 64.5663 65.8097 63.8845 66.4119 63.4148C67.018 62.9413 67.7453 62.7045 68.5938 62.7045C69.4422 62.7045 70.1676 62.9413 70.7699 63.4148C71.3759 63.8845 71.8381 64.5663 72.1562 65.4602C72.4782 66.3504 72.6392 67.4242 72.6392 68.6818C72.6392 69.947 72.4801 71.0265 72.1619 71.9205C71.8438 72.8106 71.3835 73.4905 70.7812 73.9602C70.179 74.4261 69.4498 74.6591 68.5938 74.6591ZM68.5938 73.4091C69.4422 73.4091 70.1013 73 70.571 72.1818C71.0407 71.3636 71.2756 70.197 71.2756 68.6818C71.2756 67.6742 71.1676 66.8163 70.9517 66.108C70.7396 65.3996 70.4328 64.8598 70.0312 64.4886C69.6335 64.1174 69.1544 63.9318 68.5938 63.9318C67.7528 63.9318 67.0956 64.3466 66.6222 65.1761C66.1487 66.0019 65.9119 67.1705 65.9119 68.6818C65.9119 69.6894 66.018 70.5455 66.2301 71.25C66.4422 71.9545 66.7472 72.4905 67.1449 72.858C67.5464 73.2254 68.0294 73.4091 68.5938 73.4091Z" fill="#032B3A"/>
<circle cx="185" cy="58" r="12" fill="#F1F0E9"/>
<path d="M184.992 57.0656L181.463 53.537C181.338 53.4156 181.169 53.3484 180.994 53.3499C180.82 53.3514 180.652 53.4215 180.529 53.5451C180.405 53.6687 180.335 53.8359 180.334 54.0107C180.332 54.1855 180.399 54.3539 180.521 54.4796L184.049 58.0082L180.521 61.5367C180.399 61.6625 180.332 61.8309 180.334 62.0057C180.335 62.1804 180.405 62.3476 180.529 62.4712C180.652 62.5948 180.82 62.665 180.994 62.6665C181.169 62.668 181.338 62.6008 181.463 62.4794L184.992 58.9508L188.52 62.4794C188.646 62.6008 188.814 62.668 188.989 62.6665C189.164 62.665 189.331 62.5948 189.455 62.4712C189.578 62.3476 189.649 62.1804 189.65 62.0057C189.652 61.8309 189.584 61.6625 189.463 61.5367L185.934 58.0082L189.463 54.4796C189.527 54.4182 189.577 54.3446 189.612 54.2633C189.647 54.1819 189.666 54.0944 189.666 54.0059C189.667 53.9174 189.65 53.8296 189.617 53.7477C189.583 53.6658 189.534 53.5913 189.471 53.5287C189.409 53.4662 189.334 53.4167 189.252 53.3831C189.17 53.3496 189.083 53.3328 188.994 53.3335C188.906 53.3343 188.818 53.3527 188.737 53.3876C188.655 53.4226 188.582 53.4733 188.52 53.537L184.992 57.0656Z" fill="#233D48"/>
</g>
<defs>
<clipPath id="clip0_2314_47621">
<rect width="202" height="57" fill="white" transform="translate(11 29.5)"/>
</clipPath>
</defs>
</svg>
