<svg width="224" height="117" viewBox="0 0 224 117" fill="none" xmlns="http://www.w3.org/2000/svg">
<path d="M19 33.5H205C209.142 33.5 212.5 36.8579 212.5 41V75C212.5 79.1421 209.142 82.5 205 82.5H19C14.8579 82.5 11.5 79.1421 11.5 75V41C11.5 36.8579 14.8579 33.5 19 33.5Z" fill="white"/>
<path d="M19 33.5H205C209.142 33.5 212.5 36.8579 212.5 41V75C212.5 79.1421 209.142 82.5 205 82.5H19C14.8579 82.5 11.5 79.1421 11.5 75V41C11.5 36.8579 14.8579 33.5 19 33.5Z" stroke="#DADFE2" stroke-linecap="round"/>
<path d="M28.0568 50V41.2727H31.0057C31.6903 41.2727 32.25 41.3963 32.6847 41.6435C33.1222 41.8878 33.446 42.2188 33.6562 42.6364C33.8665 43.054 33.9716 43.5199 33.9716 44.0341C33.9716 44.5483 33.8665 45.0156 33.6562 45.4361C33.4489 45.8565 33.1278 46.1918 32.6932 46.4418C32.2585 46.6889 31.7017 46.8125 31.0227 46.8125H28.9091V45.875H30.9886C31.4574 45.875 31.8338 45.794 32.1179 45.6321C32.402 45.4702 32.608 45.2514 32.7358 44.9759C32.8665 44.6974 32.9318 44.3835 32.9318 44.0341C32.9318 43.6847 32.8665 43.3722 32.7358 43.0966C32.608 42.821 32.4006 42.6051 32.1136 42.4489C31.8267 42.2898 31.446 42.2102 30.9716 42.2102H29.1136V50H28.0568ZM36.5433 41.2727V50H35.5376V41.2727H36.5433ZM40.3114 50.1534C39.8967 50.1534 39.5202 50.0753 39.1822 49.919C38.8441 49.7599 38.5756 49.5312 38.3768 49.233C38.1779 48.9318 38.0785 48.5682 38.0785 48.142C38.0785 47.767 38.1523 47.4631 38.3001 47.2301C38.4478 46.9943 38.6452 46.8097 38.8924 46.6761C39.1396 46.5426 39.4123 46.4432 39.7106 46.3778C40.0117 46.3097 40.3143 46.2557 40.6183 46.2159C41.016 46.1648 41.3384 46.1264 41.5856 46.1009C41.8356 46.0724 42.0174 46.0256 42.131 45.9602C42.2475 45.8949 42.3058 45.7812 42.3058 45.6193V45.5852C42.3058 45.1648 42.1907 44.8381 41.9606 44.6051C41.7333 44.3722 41.3881 44.2557 40.9251 44.2557C40.445 44.2557 40.0685 44.3608 39.7958 44.571C39.5231 44.7812 39.3313 45.0057 39.2205 45.2443L38.266 44.9034C38.4364 44.5057 38.6637 44.196 38.9478 43.9744C39.2347 43.75 39.5472 43.5937 39.8853 43.5057C40.2262 43.4148 40.5614 43.3693 40.891 43.3693C41.1012 43.3693 41.3427 43.3949 41.6154 43.446C41.891 43.4943 42.1566 43.5952 42.4123 43.7486C42.6708 43.902 42.8853 44.1335 43.0558 44.4432C43.2262 44.7528 43.3114 45.1676 43.3114 45.6875V50H42.3058V49.1136H42.2546C42.1864 49.2557 42.0728 49.4077 41.9137 49.5696C41.7546 49.7315 41.543 49.8693 41.2788 49.983C41.0146 50.0966 40.6921 50.1534 40.3114 50.1534ZM40.4648 49.25C40.8626 49.25 41.1978 49.1719 41.4705 49.0156C41.7461 48.8594 41.9535 48.6577 42.0927 48.4105C42.2347 48.1634 42.3058 47.9034 42.3058 47.6307V46.7102C42.2631 46.7614 42.1694 46.8082 42.0245 46.8509C41.8825 46.8906 41.7177 46.9261 41.5302 46.9574C41.3455 46.9858 41.1651 47.0114 40.989 47.0341C40.8157 47.054 40.6751 47.071 40.5671 47.0852C40.3058 47.1193 40.0614 47.1747 39.8342 47.2514C39.6097 47.3253 39.4279 47.4375 39.2887 47.5881C39.1523 47.7358 39.0842 47.9375 39.0842 48.1932C39.0842 48.5426 39.2134 48.8068 39.4719 48.9858C39.7333 49.1619 40.0643 49.25 40.4648 49.25ZM47.8061 50.1364C47.1925 50.1364 46.6641 49.9915 46.2209 49.7017C45.7777 49.4119 45.4368 49.0128 45.1982 48.5043C44.9595 47.9957 44.8402 47.4148 44.8402 46.7614C44.8402 46.0966 44.9624 45.5099 45.2067 45.0014C45.4538 44.4901 45.7976 44.0909 46.2379 43.804C46.6811 43.5142 47.1982 43.3693 47.7891 43.3693C48.2493 43.3693 48.6641 43.4545 49.0334 43.625C49.4027 43.7955 49.7053 44.0341 49.9411 44.3409C50.1768 44.6477 50.3232 45.0057 50.38 45.4148H49.3743C49.2976 45.1165 49.1271 44.8523 48.8629 44.6222C48.6016 44.3892 48.2493 44.2727 47.8061 44.2727C47.4141 44.2727 47.0703 44.375 46.7749 44.5795C46.4822 44.7812 46.2536 45.0668 46.0888 45.4361C45.9268 45.8026 45.8459 46.233 45.8459 46.7273C45.8459 47.233 45.9254 47.6733 46.0845 48.0483C46.2464 48.4233 46.4737 48.7145 46.7663 48.9219C47.0618 49.1293 47.4084 49.233 47.8061 49.233C48.0675 49.233 48.3047 49.1875 48.5178 49.0966C48.7308 49.0057 48.9112 48.875 49.0589 48.7045C49.2067 48.5341 49.3118 48.3295 49.3743 48.0909H50.38C50.3232 48.4773 50.1825 48.8253 49.9581 49.1349C49.7365 49.4418 49.4425 49.6861 49.076 49.8679C48.7124 50.0469 48.2891 50.1364 47.8061 50.1364ZM54.5945 50.1364C53.9638 50.1364 53.4197 49.9972 52.9624 49.7188C52.5078 49.4375 52.157 49.0455 51.9098 48.5426C51.6655 48.0369 51.5433 47.4489 51.5433 46.7784C51.5433 46.108 51.6655 45.517 51.9098 45.0057C52.157 44.4915 52.5007 44.0909 52.9411 43.804C53.3842 43.5142 53.9013 43.3693 54.4922 43.3693C54.8331 43.3693 55.1697 43.4261 55.5021 43.5398C55.8345 43.6534 56.1371 43.8381 56.4098 44.0938C56.6825 44.3466 56.8999 44.6818 57.0618 45.0994C57.2237 45.517 57.3047 46.0312 57.3047 46.642V47.0682H52.2592V46.1989H56.282C56.282 45.8295 56.2081 45.5 56.0604 45.2102C55.9155 44.9205 55.7081 44.6918 55.4382 44.5241C55.1712 44.3565 54.8558 44.2727 54.4922 44.2727C54.0916 44.2727 53.745 44.3722 53.4524 44.571C53.1626 44.767 52.9396 45.0227 52.7834 45.3381C52.6271 45.6534 52.549 45.9915 52.549 46.3523V46.9318C52.549 47.4261 52.6342 47.8452 52.8047 48.1889C52.978 48.5298 53.218 48.7898 53.5249 48.9688C53.8317 49.1449 54.1882 49.233 54.5945 49.233C54.8587 49.233 55.0973 49.196 55.3104 49.1222C55.5263 49.0455 55.7124 48.9318 55.8686 48.7812C56.0249 48.6278 56.1456 48.4375 56.2308 48.2102L57.2024 48.483C57.1001 48.8125 56.9283 49.1023 56.6868 49.3523C56.4453 49.5994 56.147 49.7926 55.7919 49.9318C55.4368 50.0682 55.0376 50.1364 54.5945 50.1364ZM59.8402 46.0625V50H58.8345V41.2727H59.8402V44.4773H59.9254C60.0788 44.1392 60.3089 43.8707 60.6158 43.6719C60.9254 43.4702 61.3374 43.3693 61.8516 43.3693C62.2976 43.3693 62.6882 43.4588 63.0234 43.6378C63.3587 43.8139 63.6186 44.0852 63.8033 44.4517C63.9908 44.8153 64.0845 45.2784 64.0845 45.8409V50H63.0788V45.9091C63.0788 45.3892 62.9439 44.9872 62.674 44.7031C62.407 44.4162 62.0362 44.2727 61.5618 44.2727C61.2322 44.2727 60.9368 44.3423 60.6754 44.4815C60.4169 44.6207 60.2124 44.8239 60.0618 45.0909C59.9141 45.358 59.8402 45.6818 59.8402 46.0625ZM68.5835 50.1364C67.9925 50.1364 67.4741 49.9957 67.0281 49.7145C66.5849 49.4332 66.2383 49.0398 65.9883 48.5341C65.7411 48.0284 65.6175 47.4375 65.6175 46.7614C65.6175 46.0795 65.7411 45.4844 65.9883 44.9759C66.2383 44.4673 66.5849 44.0724 67.0281 43.7912C67.4741 43.5099 67.9925 43.3693 68.5835 43.3693C69.1744 43.3693 69.6914 43.5099 70.1346 43.7912C70.5806 44.0724 70.9272 44.4673 71.1744 44.9759C71.4244 45.4844 71.5494 46.0795 71.5494 46.7614C71.5494 47.4375 71.4244 48.0284 71.1744 48.5341C70.9272 49.0398 70.5806 49.4332 70.1346 49.7145C69.6914 49.9957 69.1744 50.1364 68.5835 50.1364ZM68.5835 49.233C69.0323 49.233 69.4016 49.1179 69.6914 48.8878C69.9812 48.6577 70.1957 48.3551 70.3349 47.9801C70.4741 47.6051 70.5437 47.1989 70.5437 46.7614C70.5437 46.3239 70.4741 45.9162 70.3349 45.5384C70.1957 45.1605 69.9812 44.8551 69.6914 44.6222C69.4016 44.3892 69.0323 44.2727 68.5835 44.2727C68.1346 44.2727 67.7653 44.3892 67.4755 44.6222C67.1857 44.8551 66.9712 45.1605 66.832 45.5384C66.6928 45.9162 66.6232 46.3239 66.6232 46.7614C66.6232 47.1989 66.6928 47.6051 66.832 47.9801C66.9712 48.3551 67.1857 48.6577 67.4755 48.8878C67.7653 49.1179 68.1346 49.233 68.5835 49.233ZM74.0902 41.2727V50H73.0845V41.2727H74.0902ZM78.4038 50.1364C77.8583 50.1364 77.3768 49.9986 76.9592 49.723C76.5415 49.4446 76.2148 49.0526 75.979 48.5469C75.7433 48.0384 75.6254 47.4375 75.6254 46.7443C75.6254 46.0568 75.7433 45.4602 75.979 44.9545C76.2148 44.4489 76.543 44.0582 76.9634 43.7827C77.3839 43.5071 77.8697 43.3693 78.4208 43.3693C78.8469 43.3693 79.1836 43.4403 79.4308 43.5824C79.6808 43.7216 79.8711 43.8807 80.0018 44.0597C80.1353 44.2358 80.239 44.3807 80.3129 44.4943H80.3981V41.2727H81.4038V50H80.4322V48.9943H80.3129C80.239 49.1136 80.1339 49.2642 79.9975 49.446C79.8612 49.625 79.6665 49.7855 79.4137 49.9276C79.1609 50.0668 78.8242 50.1364 78.4038 50.1364ZM78.5401 49.233C78.9435 49.233 79.2844 49.1278 79.5629 48.9176C79.8413 48.7045 80.0529 48.4105 80.1978 48.0355C80.3427 47.6577 80.4151 47.2216 80.4151 46.7273C80.4151 46.2386 80.3441 45.8111 80.2021 45.4446C80.06 45.0753 79.8498 44.7884 79.5714 44.5838C79.293 44.3764 78.9492 44.2727 78.5401 44.2727C78.114 44.2727 77.7589 44.3821 77.4748 44.6009C77.1935 44.8168 76.9819 45.1108 76.8398 45.483C76.7006 45.8523 76.631 46.267 76.631 46.7273C76.631 47.1932 76.7021 47.6165 76.8441 47.9972C76.989 48.375 77.2021 48.6761 77.4833 48.9006C77.7674 49.1222 78.1197 49.233 78.5401 49.233ZM86.1296 50.1364C85.4989 50.1364 84.9549 49.9972 84.4975 49.7188C84.043 49.4375 83.6921 49.0455 83.445 48.5426C83.2006 48.0369 83.0785 47.4489 83.0785 46.7784C83.0785 46.108 83.2006 45.517 83.445 45.0057C83.6921 44.4915 84.0359 44.0909 84.4762 43.804C84.9194 43.5142 85.4364 43.3693 86.0273 43.3693C86.3683 43.3693 86.7049 43.4261 87.0373 43.5398C87.3697 43.6534 87.6722 43.8381 87.945 44.0938C88.2177 44.3466 88.435 44.6818 88.5969 45.0994C88.7589 45.517 88.8398 46.0312 88.8398 46.642V47.0682H83.7944V46.1989H87.8171C87.8171 45.8295 87.7433 45.5 87.5955 45.2102C87.4506 44.9205 87.2433 44.6918 86.9734 44.5241C86.7063 44.3565 86.391 44.2727 86.0273 44.2727C85.6268 44.2727 85.2802 44.3722 84.9876 44.571C84.6978 44.767 84.4748 45.0227 84.3185 45.3381C84.1623 45.6534 84.0842 45.9915 84.0842 46.3523V46.9318C84.0842 47.4261 84.1694 47.8452 84.3398 48.1889C84.5131 48.5298 84.7532 48.7898 85.06 48.9688C85.3668 49.1449 85.7234 49.233 86.1296 49.233C86.3938 49.233 86.6325 49.196 86.8455 49.1222C87.0614 49.0455 87.2475 48.9318 87.4038 48.7812C87.56 48.6278 87.6808 48.4375 87.766 48.2102L88.7376 48.483C88.6353 48.8125 88.4634 49.1023 88.2219 49.3523C87.9805 49.5994 87.6822 49.7926 87.3271 49.9318C86.9719 50.0682 86.5728 50.1364 86.1296 50.1364ZM90.3697 50V43.4545H91.3413V44.4432H91.4094C91.5288 44.1193 91.7447 43.8565 92.0572 43.6548C92.3697 43.4531 92.7219 43.3523 93.114 43.3523C93.1879 43.3523 93.2802 43.3537 93.391 43.3565C93.5018 43.3594 93.5856 43.3636 93.6424 43.3693V44.392C93.6083 44.3835 93.5302 44.3707 93.408 44.3537C93.2887 44.3338 93.1623 44.3239 93.0288 44.3239C92.7106 44.3239 92.4265 44.3906 92.1765 44.5241C91.9293 44.6548 91.7333 44.8366 91.5884 45.0696C91.4464 45.2997 91.3754 45.5625 91.3754 45.858V50H90.3697Z" fill="#627A84"/>
<path d="M28.6506 58.8182L31.6733 67.3892H31.7926L34.8153 58.8182H36.108L32.3693 69H31.0966L27.358 58.8182H28.6506ZM39.071 69.179C38.5871 69.179 38.148 69.0878 37.7536 68.9055C37.3591 68.7199 37.0459 68.4531 36.8139 68.1051C36.5819 67.7538 36.4659 67.3295 36.4659 66.8324C36.4659 66.3949 36.5521 66.0402 36.7244 65.7685C36.8968 65.4934 37.1271 65.2779 37.4155 65.1222C37.7038 64.9664 38.022 64.8504 38.37 64.7741C38.7214 64.6946 39.0743 64.6316 39.429 64.5852C39.893 64.5256 40.2692 64.4808 40.5575 64.451C40.8492 64.4179 41.0613 64.3632 41.1939 64.2869C41.3298 64.2107 41.3977 64.0781 41.3977 63.8892V63.8494C41.3977 63.3589 41.2635 62.9777 40.995 62.706C40.7299 62.4342 40.3272 62.2983 39.7869 62.2983C39.2268 62.2983 38.7876 62.4209 38.4695 62.6662C38.1513 62.9115 37.9276 63.1733 37.7983 63.4517L36.6847 63.054C36.8835 62.59 37.1487 62.2287 37.4801 61.9702C37.8149 61.7083 38.1795 61.526 38.5739 61.4233C38.9716 61.3172 39.3627 61.2642 39.7472 61.2642C39.9924 61.2642 40.2741 61.294 40.5923 61.3537C40.9138 61.41 41.2237 61.5277 41.522 61.7067C41.8236 61.8857 42.0739 62.1558 42.2727 62.517C42.4716 62.8783 42.571 63.3622 42.571 63.9688V69H41.3977V67.9659H41.3381C41.2585 68.1316 41.1259 68.3089 40.9403 68.4979C40.7547 68.6868 40.5078 68.8475 40.1996 68.9801C39.8913 69.1127 39.5152 69.179 39.071 69.179ZM39.25 68.125C39.714 68.125 40.1051 68.0339 40.4233 67.8516C40.7448 67.6693 40.9867 67.4339 41.1491 67.1456C41.3149 66.8572 41.3977 66.554 41.3977 66.2358V65.1619C41.348 65.2216 41.2386 65.2763 41.0696 65.326C40.9039 65.3724 40.7116 65.4138 40.4929 65.4503C40.2775 65.4834 40.067 65.5133 39.8615 65.5398C39.6593 65.563 39.4953 65.5829 39.3693 65.5994C39.0644 65.6392 38.7794 65.7038 38.5142 65.7933C38.2524 65.8795 38.0402 66.0104 37.8778 66.1861C37.7188 66.3584 37.6392 66.5937 37.6392 66.892C37.6392 67.2997 37.79 67.608 38.0916 67.8168C38.3965 68.0223 38.7827 68.125 39.25 68.125ZM45.8858 58.8182V69H44.7125V58.8182H45.8858ZM52.8473 65.8778V61.3636H54.0206V69H52.8473V67.7074H52.7678C52.5888 68.0952 52.3104 68.425 51.9325 68.6967C51.5547 68.9652 51.0774 69.0994 50.5007 69.0994C50.0234 69.0994 49.5992 68.995 49.228 68.7862C48.8568 68.5741 48.5651 68.2559 48.353 67.8317C48.1409 67.4041 48.0348 66.8655 48.0348 66.2159V61.3636H49.2081V66.1364C49.2081 66.6932 49.3639 67.1373 49.6754 67.4688C49.9903 67.8002 50.3913 67.9659 50.8786 67.9659C51.1702 67.9659 51.4669 67.8913 51.7685 67.7422C52.0734 67.593 52.3286 67.3643 52.5341 67.0561C52.7429 66.7479 52.8473 66.3551 52.8473 65.8778ZM59.3713 69.1591C58.6355 69.1591 58.0008 68.9967 57.4672 68.6719C56.9368 68.3438 56.5275 67.8864 56.2392 67.2997C55.9541 66.7098 55.8116 66.0237 55.8116 65.2415C55.8116 64.4593 55.9541 63.7699 56.2392 63.1733C56.5275 62.5734 56.9286 62.1061 57.4423 61.7713C57.9593 61.4332 58.5626 61.2642 59.252 61.2642C59.6497 61.2642 60.0424 61.3305 60.4302 61.4631C60.818 61.5956 61.171 61.8111 61.4892 62.1094C61.8074 62.4044 62.0609 62.7955 62.2498 63.2827C62.4387 63.7699 62.5332 64.3698 62.5332 65.0824V65.5795H56.6468V64.5653H61.34C61.34 64.1345 61.2538 63.75 61.0815 63.4119C60.9125 63.0739 60.6705 62.8071 60.3556 62.6115C60.0441 62.416 59.6762 62.3182 59.252 62.3182C58.7846 62.3182 58.3803 62.4342 58.0389 62.6662C57.7008 62.8949 57.4406 63.1932 57.2583 63.5611C57.0761 63.929 56.9849 64.3234 56.9849 64.7443V65.4205C56.9849 65.9972 57.0843 66.486 57.2832 66.8871C57.4854 67.2848 57.7654 67.5881 58.1234 67.7969C58.4814 68.0024 58.8973 68.1051 59.3713 68.1051C59.6795 68.1051 59.9579 68.062 60.2065 67.9759C60.4584 67.8864 60.6755 67.7538 60.8578 67.5781C61.0401 67.3991 61.1809 67.1771 61.2804 66.9119L62.4139 67.2301C62.2946 67.6146 62.094 67.9527 61.8123 68.2443C61.5306 68.5327 61.1826 68.758 60.7683 68.9205C60.354 69.0795 59.8883 69.1591 59.3713 69.1591Z" fill="#233D48"/>
</svg>
