<svg width="224" height="117" viewBox="0 0 224 117" fill="none" xmlns="http://www.w3.org/2000/svg">
<path d="M19 33.5H205C209.142 33.5 212.5 36.8579 212.5 41V75C212.5 79.1421 209.142 82.5 205 82.5H19C14.8579 82.5 11.5 79.1421 11.5 75V41C11.5 36.8579 14.8579 33.5 19 33.5Z" fill="white"/>
<path d="M19 33.5H205C209.142 33.5 212.5 36.8579 212.5 41V75C212.5 79.1421 209.142 82.5 205 82.5H19C14.8579 82.5 11.5 79.1421 11.5 75V41C11.5 36.8579 14.8579 33.5 19 33.5Z" stroke="#DADFE2" stroke-linecap="round"/>
<path d="M34.9773 41.2727V50H33.9545L29.1989 43.1477H29.1136V50H28.0568V41.2727H29.0795L33.8523 48.142H33.9375V41.2727H34.9773ZM41.0806 47.3239V43.4545H42.0863V50H41.0806V48.892H41.0124C40.859 49.2244 40.6204 49.5071 40.2965 49.7401C39.9727 49.9702 39.5636 50.0852 39.0692 50.0852C38.6602 50.0852 38.2965 49.9957 37.9783 49.8168C37.6602 49.6349 37.4102 49.3622 37.2283 48.9986C37.0465 48.6321 36.9556 48.1705 36.9556 47.6136V43.4545H37.9613V47.5455C37.9613 48.0227 38.0948 48.4034 38.3619 48.6875C38.6317 48.9716 38.9755 49.1136 39.3931 49.1136C39.6431 49.1136 39.8974 49.0497 40.1559 48.9219C40.4173 48.794 40.636 48.598 40.8121 48.3338C40.9911 48.0696 41.0806 47.733 41.0806 47.3239ZM43.9283 50V43.4545H44.8999V44.4773H44.9851C45.1214 44.1278 45.3416 43.8565 45.6456 43.6634C45.9496 43.4673 46.3146 43.3693 46.7408 43.3693C47.1726 43.3693 47.532 43.4673 47.8189 43.6634C48.1087 43.8565 48.3345 44.1278 48.4964 44.4773H48.5646C48.7322 44.1392 48.9837 43.8707 49.3189 43.6719C49.6541 43.4702 50.0561 43.3693 50.5249 43.3693C51.1101 43.3693 51.5888 43.5526 51.9609 43.919C52.3331 44.2827 52.5192 44.8494 52.5192 45.6193V50H51.5135V45.6193C51.5135 45.1364 51.3814 44.7912 51.1172 44.5838C50.853 44.3764 50.5419 44.2727 50.1839 44.2727C49.7237 44.2727 49.3672 44.4119 49.1143 44.6903C48.8615 44.9659 48.7351 45.3153 48.7351 45.7386V50H47.7124V45.517C47.7124 45.1449 47.5916 44.8452 47.3501 44.6179C47.1087 44.3878 46.7976 44.2727 46.4169 44.2727C46.1555 44.2727 45.9112 44.3423 45.6839 44.4815C45.4595 44.6207 45.2777 44.8139 45.1385 45.0611C45.0021 45.3054 44.9339 45.5881 44.9339 45.9091V50H43.9283ZM54.4943 50V41.2727H55.5V44.4943H55.5852C55.6591 44.3807 55.7614 44.2358 55.892 44.0597C56.0256 43.8807 56.2159 43.7216 56.4631 43.5824C56.7131 43.4403 57.0511 43.3693 57.4773 43.3693C58.0284 43.3693 58.5142 43.5071 58.9347 43.7827C59.3551 44.0582 59.6832 44.4489 59.919 44.9545C60.1548 45.4602 60.2727 46.0568 60.2727 46.7443C60.2727 47.4375 60.1548 48.0384 59.919 48.5469C59.6832 49.0526 59.3565 49.4446 58.9389 49.723C58.5213 49.9986 58.0398 50.1364 57.4943 50.1364C57.0739 50.1364 56.7372 50.0668 56.4844 49.9276C56.2315 49.7855 56.0369 49.625 55.9006 49.446C55.7642 49.2642 55.6591 49.1136 55.5852 48.9943H55.4659V50H54.4943ZM55.483 46.7273C55.483 47.2216 55.5554 47.6577 55.7003 48.0355C55.8452 48.4105 56.0568 48.7045 56.3352 48.9176C56.6136 49.1278 56.9545 49.233 57.358 49.233C57.7784 49.233 58.1293 49.1222 58.4105 48.9006C58.6946 48.6761 58.9077 48.375 59.0497 47.9972C59.1946 47.6165 59.267 47.1932 59.267 46.7273C59.267 46.267 59.196 45.8523 59.054 45.483C58.9148 45.1108 58.7031 44.8168 58.419 44.6009C58.1378 44.3821 57.7841 44.2727 57.358 44.2727C56.9489 44.2727 56.6051 44.3764 56.3267 44.5838C56.0483 44.7884 55.8381 45.0753 55.696 45.4446C55.554 45.8111 55.483 46.2386 55.483 46.7273ZM64.5554 50.1364C63.9247 50.1364 63.3807 49.9972 62.9233 49.7188C62.4688 49.4375 62.1179 49.0455 61.8707 48.5426C61.6264 48.0369 61.5043 47.4489 61.5043 46.7784C61.5043 46.108 61.6264 45.517 61.8707 45.0057C62.1179 44.4915 62.4616 44.0909 62.902 43.804C63.3452 43.5142 63.8622 43.3693 64.4531 43.3693C64.794 43.3693 65.1307 43.4261 65.4631 43.5398C65.7955 43.6534 66.098 43.8381 66.3707 44.0938C66.6435 44.3466 66.8608 44.6818 67.0227 45.0994C67.1847 45.517 67.2656 46.0312 67.2656 46.642V47.0682H62.2202V46.1989H66.2429C66.2429 45.8295 66.169 45.5 66.0213 45.2102C65.8764 44.9205 65.669 44.6918 65.3991 44.5241C65.1321 44.3565 64.8168 44.2727 64.4531 44.2727C64.0526 44.2727 63.706 44.3722 63.4134 44.571C63.1236 44.767 62.9006 45.0227 62.7443 45.3381C62.5881 45.6534 62.5099 45.9915 62.5099 46.3523V46.9318C62.5099 47.4261 62.5952 47.8452 62.7656 48.1889C62.9389 48.5298 63.179 48.7898 63.4858 48.9688C63.7926 49.1449 64.1491 49.233 64.5554 49.233C64.8196 49.233 65.0582 49.196 65.2713 49.1222C65.4872 49.0455 65.6733 48.9318 65.8295 48.7812C65.9858 48.6278 66.1065 48.4375 66.1918 48.2102L67.1634 48.483C67.0611 48.8125 66.8892 49.1023 66.6477 49.3523C66.4063 49.5994 66.108 49.7926 65.7528 49.9318C65.3977 50.0682 64.9986 50.1364 64.5554 50.1364ZM68.7955 50V43.4545H69.767V44.4432H69.8352C69.9545 44.1193 70.1705 43.8565 70.483 43.6548C70.7955 43.4531 71.1477 43.3523 71.5398 43.3523C71.6136 43.3523 71.706 43.3537 71.8168 43.3565C71.9276 43.3594 72.0114 43.3636 72.0682 43.3693V44.392C72.0341 44.3835 71.956 44.3707 71.8338 44.3537C71.7145 44.3338 71.5881 44.3239 71.4545 44.3239C71.1364 44.3239 70.8523 44.3906 70.6023 44.5241C70.3551 44.6548 70.1591 44.8366 70.0142 45.0696C69.8722 45.2997 69.8011 45.5625 69.8011 45.858V50H68.7955Z" fill="#627A84"/>
<path d="M31.6335 58.8182V69H30.4006V60.1108H30.3409L27.8551 61.7614V60.5085L30.4006 58.8182H31.6335ZM34.5618 69V68.1051L37.9226 64.4261C38.317 63.9953 38.6418 63.6207 38.897 63.3026C39.1522 62.9811 39.3411 62.6795 39.4638 62.3977C39.5897 62.1127 39.6527 61.8144 39.6527 61.5028C39.6527 61.1449 39.5665 60.835 39.3942 60.5732C39.2251 60.3113 38.9931 60.1091 38.6982 59.9666C38.4032 59.8241 38.0717 59.7528 37.7038 59.7528C37.3127 59.7528 36.9714 59.834 36.6797 59.9964C36.3913 60.1555 36.1676 60.3793 36.0085 60.6676C35.8527 60.956 35.7749 61.294 35.7749 61.6818H34.6016C34.6016 61.0852 34.7391 60.5616 35.0142 60.1108C35.2893 59.66 35.6638 59.3087 36.1378 59.0568C36.6151 58.8049 37.1503 58.679 37.7436 58.679C38.3402 58.679 38.8688 58.8049 39.3295 59.0568C39.7902 59.3087 40.1515 59.6484 40.4134 60.076C40.6752 60.5036 40.8061 60.9792 40.8061 61.5028C40.8061 61.8774 40.7382 62.2436 40.6023 62.6016C40.4697 62.9562 40.2377 63.3523 39.9062 63.7898C39.5781 64.224 39.1224 64.7543 38.5391 65.3807L36.2521 67.8267V67.9062H40.9851V69H34.5618ZM46.4787 69.1392C45.8224 69.1392 45.2375 69.0265 44.7237 68.8011C44.2133 68.5758 43.8073 68.2625 43.5057 67.8615C43.2074 67.4571 43.045 66.9882 43.0185 66.4545H44.2713C44.2978 66.7827 44.4105 67.0661 44.6094 67.3047C44.8082 67.54 45.0684 67.7223 45.3899 67.8516C45.7114 67.9808 46.0677 68.0455 46.4588 68.0455C46.8963 68.0455 47.2841 67.9692 47.6222 67.8168C47.9602 67.6643 48.2254 67.4522 48.4176 67.1804C48.6098 66.9086 48.706 66.5938 48.706 66.2358C48.706 65.8613 48.6132 65.5315 48.4276 65.2464C48.242 64.9581 47.9702 64.7327 47.6122 64.5703C47.2543 64.4079 46.8168 64.3267 46.2997 64.3267H45.4844V63.233H46.2997C46.7041 63.233 47.0587 63.16 47.3636 63.0142C47.6719 62.8684 47.9122 62.6629 48.0845 62.3977C48.2602 62.1326 48.348 61.821 48.348 61.4631C48.348 61.1184 48.2718 60.8184 48.1193 60.5632C47.9669 60.308 47.7514 60.1091 47.473 59.9666C47.1979 59.8241 46.8731 59.7528 46.4986 59.7528C46.1473 59.7528 45.8158 59.8175 45.5043 59.9467C45.196 60.0727 44.9441 60.2566 44.7486 60.4986C44.553 60.7372 44.447 61.0256 44.4304 61.3636H43.2372C43.2571 60.83 43.4179 60.3627 43.7195 59.9616C44.0211 59.5573 44.4155 59.2424 44.9027 59.017C45.3932 58.7917 45.9318 58.679 46.5185 58.679C47.1482 58.679 47.6884 58.8066 48.1392 59.0618C48.59 59.3137 48.9363 59.6468 49.1783 60.0611C49.4202 60.4754 49.5412 60.9228 49.5412 61.4034C49.5412 61.9768 49.3904 62.4657 49.0888 62.87C48.7905 63.2744 48.3845 63.5545 47.8707 63.7102V63.7898C48.5137 63.8958 49.0159 64.1693 49.3771 64.6101C49.7384 65.0476 49.919 65.5895 49.919 66.2358C49.919 66.7893 49.7682 67.2865 49.4666 67.7273C49.1683 68.1648 48.7607 68.5095 48.2436 68.7614C47.7266 69.0133 47.1383 69.1392 46.4787 69.1392Z" fill="#233D48"/>
<rect x="189" y="48" width="14" height="20" fill="#EFEFEF"/>
<path d="M196 52L199.464 55.75H192.536L196 52Z" fill="#464646"/>
<path d="M196 64L199.464 60.25H192.536L196 64Z" fill="#464646"/>
</svg>
