<svg width="224" height="117" viewBox="0 0 224 117" fill="none" xmlns="http://www.w3.org/2000/svg">
<path d="M19 33.5H205C209.142 33.5 212.5 36.8579 212.5 41V75C212.5 79.1421 209.142 82.5 205 82.5H19C14.8579 82.5 11.5 79.1421 11.5 75V41C11.5 36.8579 14.8579 33.5 19 33.5Z" fill="white"/>
<path d="M19 33.5H205C209.142 33.5 212.5 36.8579 212.5 41V75C212.5 79.1421 209.142 82.5 205 82.5H19C14.8579 82.5 11.5 79.1421 11.5 75V41C11.5 36.8579 14.8579 33.5 19 33.5Z" stroke="#DADFE2" stroke-linecap="round"/>
<path d="M28.0568 50V41.2727H33.3239V42.2102H29.1136V45.1591H33.0511V46.0966H29.1136V49.0625H33.392V50H28.0568ZM35.0923 50V43.4545H36.0639V44.4773H36.1491C36.2855 44.1278 36.5057 43.8565 36.8097 43.6634C37.1136 43.4673 37.4787 43.3693 37.9048 43.3693C38.3366 43.3693 38.696 43.4673 38.983 43.6634C39.2727 43.8565 39.4986 44.1278 39.6605 44.4773H39.7287C39.8963 44.1392 40.1477 43.8707 40.483 43.6719C40.8182 43.4702 41.2202 43.3693 41.6889 43.3693C42.2741 43.3693 42.7528 43.5526 43.125 43.919C43.4972 44.2827 43.6832 44.8494 43.6832 45.6193V50H42.6776V45.6193C42.6776 45.1364 42.5455 44.7912 42.2812 44.5838C42.017 44.3764 41.706 44.2727 41.348 44.2727C40.8878 44.2727 40.5313 44.4119 40.2784 44.6903C40.0256 44.9659 39.8991 45.3153 39.8991 45.7386V50H38.8764V45.517C38.8764 45.1449 38.7557 44.8452 38.5142 44.6179C38.2727 44.3878 37.9616 44.2727 37.581 44.2727C37.3196 44.2727 37.0753 44.3423 36.848 44.4815C36.6236 44.6207 36.4418 44.8139 36.3026 45.0611C36.1662 45.3054 36.098 45.5881 36.098 45.9091V50H35.0923ZM47.4482 50.1534C47.0334 50.1534 46.657 50.0753 46.3189 49.919C45.9808 49.7599 45.7124 49.5312 45.5135 49.233C45.3146 48.9318 45.2152 48.5682 45.2152 48.142C45.2152 47.767 45.2891 47.4631 45.4368 47.2301C45.5845 46.9943 45.782 46.8097 46.0291 46.6761C46.2763 46.5426 46.549 46.4432 46.8473 46.3778C47.1484 46.3097 47.451 46.2557 47.755 46.2159C48.1527 46.1648 48.4751 46.1264 48.7223 46.1009C48.9723 46.0724 49.1541 46.0256 49.2678 45.9602C49.3842 45.8949 49.4425 45.7812 49.4425 45.6193V45.5852C49.4425 45.1648 49.3274 44.8381 49.0973 44.6051C48.87 44.3722 48.5249 44.2557 48.0618 44.2557C47.5817 44.2557 47.2053 44.3608 46.9325 44.571C46.6598 44.7812 46.468 45.0057 46.3572 45.2443L45.4027 44.9034C45.5732 44.5057 45.8004 44.196 46.0845 43.9744C46.3714 43.75 46.6839 43.5937 47.022 43.5057C47.3629 43.4148 47.6982 43.3693 48.0277 43.3693C48.2379 43.3693 48.4794 43.3949 48.7521 43.446C49.0277 43.4943 49.2933 43.5952 49.549 43.7486C49.8075 43.902 50.022 44.1335 50.1925 44.4432C50.3629 44.7528 50.4482 45.1676 50.4482 45.6875V50H49.4425V49.1136H49.3913C49.3232 49.2557 49.2095 49.4077 49.0504 49.5696C48.8913 49.7315 48.6797 49.8693 48.4155 49.983C48.1513 50.0966 47.8288 50.1534 47.4482 50.1534ZM47.6016 49.25C47.9993 49.25 48.3345 49.1719 48.6072 49.0156C48.8828 48.8594 49.0902 48.6577 49.2294 48.4105C49.3714 48.1634 49.4425 47.9034 49.4425 47.6307V46.7102C49.3999 46.7614 49.3061 46.8082 49.1612 46.8509C49.0192 46.8906 48.8544 46.9261 48.6669 46.9574C48.4822 46.9858 48.3018 47.0114 48.1257 47.0341C47.9524 47.054 47.8118 47.071 47.7038 47.0852C47.4425 47.1193 47.1982 47.1747 46.9709 47.2514C46.7464 47.3253 46.5646 47.4375 46.4254 47.5881C46.2891 47.7358 46.2209 47.9375 46.2209 48.1932C46.2209 48.5426 46.3501 48.8068 46.6087 48.9858C46.87 49.1619 47.201 49.25 47.6016 49.25ZM52.2837 50V43.4545H53.2894V50H52.2837ZM52.7951 42.3636C52.5991 42.3636 52.43 42.2969 52.288 42.1634C52.1488 42.0298 52.0792 41.8693 52.0792 41.6818C52.0792 41.4943 52.1488 41.3338 52.288 41.2003C52.43 41.0668 52.5991 41 52.7951 41C52.9911 41 53.1587 41.0668 53.2979 41.2003C53.44 41.3338 53.511 41.4943 53.511 41.6818C53.511 41.8693 53.44 42.0298 53.2979 42.1634C53.1587 42.2969 52.9911 42.3636 52.7951 42.3636ZM56.1371 41.2727V50H55.1314V41.2727H56.1371Z" fill="#627A84"/>
<path d="M29.2472 64.4062V69H28.0739V58.8182H29.2472V62.5568H29.3466C29.5256 62.1624 29.794 61.8492 30.152 61.6172C30.5133 61.3819 30.9938 61.2642 31.5938 61.2642C32.1141 61.2642 32.5698 61.3686 32.9609 61.5774C33.352 61.7829 33.6553 62.0994 33.8707 62.527C34.0895 62.9512 34.1989 63.4915 34.1989 64.1477V69H33.0256V64.2273C33.0256 63.6207 32.8681 63.1518 32.5533 62.8203C32.2417 62.4856 31.8092 62.3182 31.2557 62.3182C30.8712 62.3182 30.5265 62.3994 30.2216 62.5618C29.92 62.7242 29.6813 62.9612 29.5057 63.2727C29.3333 63.5843 29.2472 63.9621 29.2472 64.4062ZM39.5471 69.1591C38.8113 69.1591 38.1766 68.9967 37.6429 68.6719C37.1126 68.3438 36.7033 67.8864 36.415 67.2997C36.1299 66.7098 35.9874 66.0237 35.9874 65.2415C35.9874 64.4593 36.1299 63.7699 36.415 63.1733C36.7033 62.5734 37.1043 62.1061 37.6181 61.7713C38.1351 61.4332 38.7383 61.2642 39.4277 61.2642C39.8255 61.2642 40.2182 61.3305 40.606 61.4631C40.9938 61.5956 41.3468 61.8111 41.665 62.1094C41.9831 62.4044 42.2367 62.7955 42.4256 63.2827C42.6145 63.7699 42.709 64.3698 42.709 65.0824V65.5795H36.8226V64.5653H41.5158C41.5158 64.1345 41.4296 63.75 41.2573 63.4119C41.0882 63.0739 40.8463 62.8071 40.5314 62.6115C40.2199 62.416 39.852 62.3182 39.4277 62.3182C38.9604 62.3182 38.556 62.4342 38.2147 62.6662C37.8766 62.8949 37.6164 63.1932 37.4341 63.5611C37.2518 63.929 37.1607 64.3234 37.1607 64.7443V65.4205C37.1607 65.9972 37.2601 66.486 37.459 66.8871C37.6612 67.2848 37.9412 67.5881 38.2992 67.7969C38.6571 68.0024 39.0731 68.1051 39.5471 68.1051C39.8553 68.1051 40.1337 68.062 40.3823 67.9759C40.6342 67.8864 40.8513 67.7538 41.0336 67.5781C41.2159 67.3991 41.3567 67.1771 41.4561 66.9119L42.5897 67.2301C42.4703 67.6146 42.2698 67.9527 41.9881 68.2443C41.7064 68.5327 41.3584 68.758 40.9441 68.9205C40.5298 69.0795 40.0641 69.1591 39.5471 69.1591ZM45.6671 58.8182V69H44.4938V58.8182H45.6671ZM48.9893 58.8182V69H47.8161V58.8182H48.9893ZM54.2406 69.1591C53.5512 69.1591 52.9463 68.995 52.426 68.6669C51.9089 68.3388 51.5046 67.8797 51.2129 67.2898C50.9245 66.6998 50.7804 66.0104 50.7804 65.2216C50.7804 64.4261 50.9245 63.7318 51.2129 63.1385C51.5046 62.5452 51.9089 62.0845 52.426 61.7564C52.9463 61.4283 53.5512 61.2642 54.2406 61.2642C54.93 61.2642 55.5332 61.4283 56.0502 61.7564C56.5706 62.0845 56.975 62.5452 57.2633 63.1385C57.555 63.7318 57.7008 64.4261 57.7008 65.2216C57.7008 66.0104 57.555 66.6998 57.2633 67.2898C56.975 67.8797 56.5706 68.3388 56.0502 68.6669C55.5332 68.995 54.93 69.1591 54.2406 69.1591ZM54.2406 68.1051C54.7643 68.1051 55.1951 67.9709 55.5332 67.7024C55.8713 67.4339 56.1215 67.081 56.2839 66.6435C56.4463 66.206 56.5275 65.732 56.5275 65.2216C56.5275 64.7112 56.4463 64.2356 56.2839 63.7947C56.1215 63.3539 55.8713 62.9976 55.5332 62.7259C55.1951 62.4541 54.7643 62.3182 54.2406 62.3182C53.7169 62.3182 53.286 62.4541 52.948 62.7259C52.6099 62.9976 52.3597 63.3539 52.1973 63.7947C52.0349 64.2356 51.9537 64.7112 51.9537 65.2216C51.9537 65.732 52.0349 66.206 52.1973 66.6435C52.3597 67.081 52.6099 67.4339 52.948 67.7024C53.286 67.9709 53.7169 68.1051 54.2406 68.1051ZM65.3583 71.6847C64.3441 71.6847 63.4476 71.5455 62.6687 71.267C61.8898 70.992 61.2352 70.5859 60.7049 70.049C60.1746 69.5121 59.7736 68.8542 59.5018 68.0753C59.23 67.2964 59.0941 66.4048 59.0941 65.4006C59.0941 64.4295 59.2317 63.5611 59.5067 62.7955C59.7852 62.0298 60.1879 61.3802 60.7148 60.8466C61.2451 60.3097 61.8881 59.9003 62.6438 59.6186C63.4028 59.3369 64.2612 59.196 65.2191 59.196C66.1504 59.196 66.9658 59.3485 67.6651 59.6534C68.3678 59.955 68.9544 60.3643 69.4251 60.8814C69.899 61.3951 70.2537 61.9735 70.489 62.6165C70.7276 63.2595 70.8469 63.9223 70.8469 64.6051C70.8469 65.0857 70.8237 65.5729 70.7773 66.0668C70.7309 66.5606 70.6332 67.0147 70.484 67.429C70.3349 67.84 70.1045 68.1714 69.793 68.4233C69.4847 68.6752 69.0671 68.8011 68.5401 68.8011C68.3081 68.8011 68.0529 68.7647 67.7745 68.6918C67.4961 68.6188 67.2492 68.4979 67.0337 68.3288C66.8183 68.1598 66.6907 67.9328 66.6509 67.6477H66.5913C66.5117 67.84 66.3891 68.0223 66.2234 68.1946C66.061 68.367 65.8472 68.5045 65.582 68.6072C65.3202 68.71 65.0004 68.7547 64.6225 68.7415C64.1916 68.7249 63.8121 68.6288 63.484 68.4531C63.1559 68.2741 62.8808 68.0322 62.6587 67.7273C62.44 67.419 62.2743 67.0627 62.1616 66.6584C62.0522 66.2507 61.9975 65.8116 61.9975 65.3409C61.9975 64.8935 62.0638 64.4841 62.1964 64.1129C62.329 63.7417 62.5129 63.4169 62.7482 63.1385C62.9869 62.8601 63.2653 62.638 63.5835 62.4723C63.9049 62.3033 64.2513 62.1989 64.6225 62.1591C64.954 62.1259 65.2556 62.1409 65.5273 62.2038C65.7991 62.2635 66.0228 62.3546 66.1985 62.4773C66.3742 62.5966 66.4852 62.7292 66.5316 62.875H66.5913V62.3182H67.6452V66.8125C67.6452 67.0909 67.7231 67.3362 67.8789 67.5483C68.0347 67.7604 68.2617 67.8665 68.56 67.8665C68.8981 67.8665 69.1566 67.7505 69.3356 67.5185C69.5179 67.2865 69.6422 66.9285 69.7085 66.4446C69.7781 65.9607 69.8129 65.3409 69.8129 64.5852C69.8129 64.1411 69.7515 63.7036 69.6289 63.2727C69.5096 62.8385 69.3273 62.4325 69.082 62.0547C68.8401 61.6768 68.5335 61.3437 68.1623 61.0554C67.7911 60.767 67.3552 60.5417 66.8548 60.3793C66.3576 60.2135 65.7925 60.1307 65.1594 60.1307C64.3806 60.1307 63.6829 60.2517 63.0664 60.4936C62.4532 60.7322 61.9312 61.0819 61.5004 61.5426C61.0728 62 60.7463 62.5568 60.521 63.2131C60.2989 63.866 60.1879 64.6084 60.1879 65.4403C60.1879 66.2855 60.2989 67.0362 60.521 67.6925C60.7463 68.3487 61.0778 68.9022 61.5153 69.353C61.9561 69.8037 62.5013 70.1451 63.1509 70.3771C63.8005 70.6125 64.5496 70.7301 65.3981 70.7301C65.7627 70.7301 66.1223 70.6953 66.4769 70.6257C66.8316 70.5561 67.1448 70.4799 67.4165 70.397C67.6883 70.3142 67.8839 70.2528 68.0032 70.2131L68.2816 71.1278C68.0761 71.214 67.8076 71.3002 67.4762 71.3864C67.1481 71.4725 66.7968 71.5438 66.4222 71.6001C66.051 71.6565 65.6964 71.6847 65.3583 71.6847ZM64.7816 67.7273C65.2257 67.7273 65.5853 67.6378 65.8604 67.4588C66.1355 67.2798 66.3361 67.0097 66.462 66.6484C66.5879 66.2872 66.6509 65.8314 66.6509 65.2812C66.6509 64.7244 66.5813 64.2902 66.4421 63.9787C66.3029 63.6671 66.0974 63.4484 65.8256 63.3224C65.5539 63.1965 65.2191 63.1335 64.8214 63.1335C64.4435 63.1335 64.1204 63.233 63.8519 63.4318C63.5868 63.6274 63.3829 63.8892 63.2404 64.2173C63.1012 64.5421 63.0316 64.8968 63.0316 65.2812C63.0316 65.7055 63.088 66.1049 63.2006 66.4794C63.3133 66.8506 63.4973 67.1522 63.7525 67.3842C64.0077 67.6129 64.3507 67.7273 64.7816 67.7273ZM75.8049 69.1591C75.0691 69.1591 74.4344 68.9967 73.9007 68.6719C73.3704 68.3438 72.9611 67.8864 72.6728 67.2997C72.3877 66.7098 72.2452 66.0237 72.2452 65.2415C72.2452 64.4593 72.3877 63.7699 72.6728 63.1733C72.9611 62.5734 73.3622 62.1061 73.8759 61.7713C74.3929 61.4332 74.9962 61.2642 75.6855 61.2642C76.0833 61.2642 76.476 61.3305 76.8638 61.4631C77.2516 61.5956 77.6046 61.8111 77.9228 62.1094C78.2409 62.4044 78.4945 62.7955 78.6834 63.2827C78.8723 63.7699 78.9668 64.3698 78.9668 65.0824V65.5795H73.0804V64.5653H77.7736C77.7736 64.1345 77.6874 63.75 77.5151 63.4119C77.3461 63.0739 77.1041 62.8071 76.7892 62.6115C76.4777 62.416 76.1098 62.3182 75.6855 62.3182C75.2182 62.3182 74.8139 62.4342 74.4725 62.6662C74.1344 62.8949 73.8742 63.1932 73.6919 63.5611C73.5096 63.929 73.4185 64.3234 73.4185 64.7443V65.4205C73.4185 65.9972 73.5179 66.486 73.7168 66.8871C73.919 67.2848 74.199 67.5881 74.557 67.7969C74.915 68.0024 75.3309 68.1051 75.8049 68.1051C76.1131 68.1051 76.3915 68.062 76.6401 67.9759C76.892 67.8864 77.1091 67.7538 77.2914 67.5781C77.4737 67.3991 77.6145 67.1771 77.714 66.9119L78.8475 67.2301C78.7282 67.6146 78.5276 67.9527 78.2459 68.2443C77.9642 68.5327 77.6162 68.758 77.2019 68.9205C76.7876 69.0795 76.3219 69.1591 75.8049 69.1591ZM81.4215 61.3636L83.2511 64.4858L85.0806 61.3636H86.4329L83.967 65.1818L86.4329 69H85.0806L83.2511 66.0369L81.4215 69H80.0692L82.4954 65.1818L80.0692 61.3636H81.4215ZM90.3542 69.179C89.8703 69.179 89.4312 69.0878 89.0368 68.9055C88.6423 68.7199 88.3291 68.4531 88.0971 68.1051C87.8651 67.7538 87.7491 67.3295 87.7491 66.8324C87.7491 66.3949 87.8353 66.0402 88.0076 65.7685C88.18 65.4934 88.4103 65.2779 88.6987 65.1222C88.987 64.9664 89.3052 64.8504 89.6532 64.7741C90.0046 64.6946 90.3575 64.6316 90.7122 64.5852C91.1762 64.5256 91.5524 64.4808 91.8407 64.451C92.1324 64.4179 92.3445 64.3632 92.4771 64.2869C92.613 64.2107 92.6809 64.0781 92.6809 63.8892V63.8494C92.6809 63.3589 92.5467 62.9777 92.2782 62.706C92.0131 62.4342 91.6104 62.2983 91.0701 62.2983C90.51 62.2983 90.0708 62.4209 89.7527 62.6662C89.4345 62.9115 89.2108 63.1733 89.0815 63.4517L87.9679 63.054C88.1667 62.59 88.4319 62.2287 88.7633 61.9702C89.0981 61.7083 89.4627 61.526 89.8571 61.4233C90.2548 61.3172 90.6459 61.2642 91.0304 61.2642C91.2756 61.2642 91.5574 61.294 91.8755 61.3537C92.197 61.41 92.5069 61.5277 92.8052 61.7067C93.1068 61.8857 93.3571 62.1558 93.5559 62.517C93.7548 62.8783 93.8542 63.3622 93.8542 63.9688V69H92.6809V67.9659H92.6213C92.5417 68.1316 92.4092 68.3089 92.2235 68.4979C92.0379 68.6868 91.791 68.8475 91.4828 68.9801C91.1745 69.1127 90.7984 69.179 90.3542 69.179ZM90.5332 68.125C90.9972 68.125 91.3883 68.0339 91.7065 67.8516C92.028 67.6693 92.2699 67.4339 92.4324 67.1456C92.5981 66.8572 92.6809 66.554 92.6809 66.2358V65.1619C92.6312 65.2216 92.5218 65.2763 92.3528 65.326C92.1871 65.3724 91.9949 65.4138 91.7761 65.4503C91.5607 65.4834 91.3502 65.5133 91.1447 65.5398C90.9425 65.563 90.7785 65.5829 90.6525 65.5994C90.3476 65.6392 90.0626 65.7038 89.7974 65.7933C89.5356 65.8795 89.3234 66.0104 89.161 66.1861C89.002 66.3584 88.9224 66.5937 88.9224 66.892C88.9224 67.2997 89.0732 67.608 89.3748 67.8168C89.6797 68.0223 90.0659 68.125 90.5332 68.125ZM95.9957 69V61.3636H97.1293V62.5568H97.2287C97.3878 62.1491 97.6446 61.8326 97.9993 61.6072C98.3539 61.3786 98.7798 61.2642 99.277 61.2642C99.7808 61.2642 100.2 61.3786 100.535 61.6072C100.873 61.8326 101.136 62.1491 101.325 62.5568H101.405C101.6 62.1624 101.894 61.8492 102.285 61.6172C102.676 61.3819 103.145 61.2642 103.692 61.2642C104.375 61.2642 104.933 61.478 105.367 61.9055C105.801 62.3298 106.018 62.991 106.018 63.8892V69H104.845V63.8892C104.845 63.3258 104.691 62.9231 104.383 62.6811C104.075 62.4392 103.712 62.3182 103.294 62.3182C102.757 62.3182 102.341 62.4806 102.046 62.8054C101.751 63.1269 101.604 63.5346 101.604 64.0284V69H100.411V63.7699C100.411 63.3357 100.27 62.986 99.9879 62.7209C99.7062 62.4524 99.3433 62.3182 98.8991 62.3182C98.5942 62.3182 98.3092 62.3994 98.044 62.5618C97.7822 62.7242 97.5701 62.9496 97.4077 63.2379C97.2486 63.523 97.169 63.8527 97.169 64.2273V69H95.9957ZM108.164 71.8636V61.3636H109.297V62.5767H109.436C109.523 62.4441 109.642 62.2751 109.794 62.0696C109.95 61.8608 110.172 61.6752 110.461 61.5128C110.752 61.3471 111.147 61.2642 111.644 61.2642C112.287 61.2642 112.854 61.425 113.344 61.7464C113.835 62.0679 114.217 62.5237 114.493 63.1136C114.768 63.7036 114.905 64.3996 114.905 65.2017C114.905 66.0104 114.768 66.7114 114.493 67.3047C114.217 67.8946 113.836 68.352 113.349 68.6768C112.862 68.9983 112.3 69.1591 111.664 69.1591C111.173 69.1591 110.78 69.0779 110.485 68.9155C110.19 68.7498 109.963 68.5625 109.804 68.3537C109.645 68.1416 109.523 67.9659 109.436 67.8267H109.337V71.8636H108.164ZM109.317 65.1818C109.317 65.7585 109.402 66.2673 109.571 66.7081C109.74 67.1456 109.987 67.4886 110.311 67.7372C110.636 67.9825 111.034 68.1051 111.505 68.1051C111.995 68.1051 112.404 67.9759 112.733 67.7173C113.064 67.4555 113.313 67.1042 113.478 66.6634C113.647 66.2192 113.732 65.7254 113.732 65.1818C113.732 64.6449 113.649 64.161 113.483 63.7301C113.321 63.2959 113.074 62.9529 112.743 62.701C112.414 62.4458 112.002 62.3182 111.505 62.3182C111.027 62.3182 110.626 62.4392 110.301 62.6811C109.977 62.9197 109.731 63.2545 109.566 63.6854C109.4 64.1129 109.317 64.6117 109.317 65.1818ZM117.868 58.8182V69H116.695V58.8182H117.868ZM123.219 69.1591C122.483 69.1591 121.848 68.9967 121.315 68.6719C120.785 68.3438 120.375 67.8864 120.087 67.2997C119.802 66.7098 119.659 66.0237 119.659 65.2415C119.659 64.4593 119.802 63.7699 120.087 63.1733C120.375 62.5734 120.776 62.1061 121.29 61.7713C121.807 61.4332 122.41 61.2642 123.1 61.2642C123.497 61.2642 123.89 61.3305 124.278 61.4631C124.666 61.5956 125.019 61.8111 125.337 62.1094C125.655 62.4044 125.909 62.7955 126.097 63.2827C126.286 63.7699 126.381 64.3698 126.381 65.0824V65.5795H120.494V64.5653H125.188C125.188 64.1345 125.102 63.75 124.929 63.4119C124.76 63.0739 124.518 62.8071 124.203 62.6115C123.892 62.416 123.524 62.3182 123.1 62.3182C122.632 62.3182 122.228 62.4342 121.887 62.6662C121.548 62.8949 121.288 63.1932 121.106 63.5611C120.924 63.929 120.833 64.3234 120.833 64.7443V65.4205C120.833 65.9972 120.932 66.486 121.131 66.8871C121.333 67.2848 121.613 67.5881 121.971 67.7969C122.329 68.0024 122.745 68.1051 123.219 68.1051C123.527 68.1051 123.806 68.062 124.054 67.9759C124.306 67.8864 124.523 67.7538 124.705 67.5781C124.888 67.3991 125.029 67.1771 125.128 66.9119L126.262 67.2301C126.142 67.6146 125.942 67.9527 125.66 68.2443C125.378 68.5327 125.03 68.758 124.616 68.9205C124.202 69.0795 123.736 69.1591 123.219 69.1591ZM129.021 69.0795C128.776 69.0795 128.565 68.9917 128.389 68.8161C128.214 68.6404 128.126 68.4299 128.126 68.1847C128.126 67.9394 128.214 67.7289 128.389 67.5533C128.565 67.3776 128.776 67.2898 129.021 67.2898C129.266 67.2898 129.477 67.3776 129.652 67.5533C129.828 67.7289 129.916 67.9394 129.916 68.1847C129.916 68.3471 129.874 68.4962 129.791 68.6321C129.712 68.768 129.604 68.8774 129.468 68.9602C129.336 69.0398 129.186 69.0795 129.021 69.0795ZM135.123 69.1591C134.407 69.1591 133.791 68.9901 133.274 68.652C132.757 68.3139 132.359 67.8482 132.081 67.255C131.802 66.6617 131.663 65.9839 131.663 65.2216C131.663 64.446 131.806 63.7616 132.091 63.1683C132.379 62.5717 132.78 62.1061 133.294 61.7713C133.811 61.4332 134.414 61.2642 135.104 61.2642C135.64 61.2642 136.124 61.3636 136.555 61.5625C136.986 61.7614 137.339 62.0398 137.614 62.3977C137.889 62.7557 138.06 63.1733 138.126 63.6506H136.953C136.863 63.3026 136.665 62.9943 136.356 62.7259C136.051 62.4541 135.64 62.3182 135.123 62.3182C134.666 62.3182 134.265 62.4375 133.92 62.6761C133.579 62.9115 133.312 63.2446 133.12 63.6754C132.931 64.103 132.836 64.6051 132.836 65.1818C132.836 65.7718 132.929 66.2855 133.115 66.723C133.304 67.1605 133.569 67.5002 133.91 67.7422C134.255 67.9841 134.659 68.1051 135.123 68.1051C135.428 68.1051 135.705 68.0521 135.954 67.946C136.202 67.84 136.413 67.6875 136.585 67.4886C136.757 67.2898 136.88 67.0511 136.953 66.7727H138.126C138.06 67.2235 137.896 67.6295 137.634 67.9908C137.376 68.3487 137.032 68.6338 136.605 68.8459C136.181 69.0547 135.687 69.1591 135.123 69.1591ZM142.944 69.1591C142.254 69.1591 141.649 68.995 141.129 68.6669C140.612 68.3388 140.208 67.8797 139.916 67.2898C139.628 66.6998 139.483 66.0104 139.483 65.2216C139.483 64.4261 139.628 63.7318 139.916 63.1385C140.208 62.5452 140.612 62.0845 141.129 61.7564C141.649 61.4283 142.254 61.2642 142.944 61.2642C143.633 61.2642 144.236 61.4283 144.753 61.7564C145.274 62.0845 145.678 62.5452 145.966 63.1385C146.258 63.7318 146.404 64.4261 146.404 65.2216C146.404 66.0104 146.258 66.6998 145.966 67.2898C145.678 67.8797 145.274 68.3388 144.753 68.6669C144.236 68.995 143.633 69.1591 142.944 69.1591ZM142.944 68.1051C143.467 68.1051 143.898 67.9709 144.236 67.7024C144.574 67.4339 144.825 67.081 144.987 66.6435C145.149 66.206 145.231 65.732 145.231 65.2216C145.231 64.7112 145.149 64.2356 144.987 63.7947C144.825 63.3539 144.574 62.9976 144.236 62.7259C143.898 62.4541 143.467 62.3182 142.944 62.3182C142.42 62.3182 141.989 62.4541 141.651 62.7259C141.313 62.9976 141.063 63.3539 140.9 63.7947C140.738 64.2356 140.657 64.7112 140.657 65.2216C140.657 65.732 140.738 66.206 140.9 66.6435C141.063 67.081 141.313 67.4339 141.651 67.7024C141.989 67.9709 142.42 68.1051 142.944 68.1051ZM148.195 69V61.3636H149.328V62.5568H149.428C149.587 62.1491 149.844 61.8326 150.199 61.6072C150.553 61.3786 150.979 61.2642 151.476 61.2642C151.98 61.2642 152.399 61.3786 152.734 61.6072C153.072 61.8326 153.336 62.1491 153.525 62.5568H153.604C153.8 62.1624 154.093 61.8492 154.484 61.6172C154.875 61.3819 155.344 61.2642 155.891 61.2642C156.574 61.2642 157.132 61.478 157.566 61.9055C158.001 62.3298 158.218 62.991 158.218 63.8892V69H157.044V63.8892C157.044 63.3258 156.89 62.9231 156.582 62.6811C156.274 62.4392 155.911 62.3182 155.493 62.3182C154.956 62.3182 154.54 62.4806 154.245 62.8054C153.95 63.1269 153.803 63.5346 153.803 64.0284V69H152.61V63.7699C152.61 63.3357 152.469 62.986 152.187 62.7209C151.905 62.4524 151.542 62.3182 151.098 62.3182C150.793 62.3182 150.508 62.3994 150.243 62.5618C149.981 62.7242 149.769 62.9496 149.607 63.2379C149.448 63.523 149.368 63.8527 149.368 64.2273V69H148.195Z" fill="#233D48"/>
</svg>
