<svg width="224" height="117" viewBox="0 0 224 117" fill="none" xmlns="http://www.w3.org/2000/svg">
<path d="M49.0005 54.6667C48.6323 54.6667 48.3338 54.9652 48.3338 55.3334V58.6666C48.3338 59.0348 48.6323 59.3333 49.0005 59.3333C49.3687 59.3333 49.6671 59.0348 49.6671 58.6666V55.3334C49.6671 54.9652 49.3687 54.6667 49.0005 54.6667Z" fill="#D24232"/>
<path d="M48.3338 61.3332C48.3338 60.9651 48.6323 60.6666 49.0005 60.6666C49.3687 60.6666 49.6671 60.9651 49.6671 61.3332C49.6671 61.7014 49.3687 61.9999 49.0005 61.9999C48.6323 61.9999 48.3338 61.7014 48.3338 61.3332Z" fill="#D24232"/>
<path d="M55.667 58C55.667 61.6818 52.6823 64.6665 49.0005 64.6665C45.3187 64.6665 42.334 61.6818 42.334 58C42.334 54.3182 45.3187 51.3335 49.0005 51.3335C52.6823 51.3335 55.667 54.3182 55.667 58ZM54.3337 58C54.3337 55.0545 51.9459 52.6668 49.0005 52.6668C46.055 52.6668 43.6673 55.0545 43.6673 58C43.6673 60.9455 46.055 63.3332 49.0005 63.3332C51.9459 63.3332 54.3337 60.9455 54.3337 58Z" fill="#D24232"/>
<path d="M63.1136 53.7727V62.5H62.0568V53.7727H63.1136ZM65.9826 53.7727V54.5398C65.9826 54.7727 65.94 55.0213 65.8548 55.2855C65.7724 55.5469 65.6502 55.8011 65.4883 56.0483C65.3292 56.2926 65.136 56.5057 64.9087 56.6875L64.3633 56.2443C64.5423 55.9886 64.6971 55.723 64.8278 55.4474C64.9613 55.169 65.0281 54.8722 65.0281 54.5568V53.7727H65.9826ZM67.0533 62.5V55.9545H68.0249V56.9773H68.1101C68.2464 56.6278 68.4666 56.3565 68.7706 56.1634C69.0746 55.9673 69.4396 55.8693 69.8658 55.8693C70.2976 55.8693 70.657 55.9673 70.9439 56.1634C71.2337 56.3565 71.4595 56.6278 71.6214 56.9773H71.6896C71.8572 56.6392 72.1087 56.3707 72.4439 56.1719C72.7791 55.9702 73.1811 55.8693 73.6499 55.8693C74.2351 55.8693 74.7138 56.0526 75.0859 56.419C75.4581 56.7827 75.6442 57.3494 75.6442 58.1193V62.5H74.6385V58.1193C74.6385 57.6364 74.5064 57.2912 74.2422 57.0838C73.978 56.8764 73.6669 56.7727 73.3089 56.7727C72.8487 56.7727 72.4922 56.9119 72.2393 57.1903C71.9865 57.4659 71.8601 57.8153 71.8601 58.2386V62.5H70.8374V58.017C70.8374 57.6449 70.7166 57.3452 70.4751 57.1179C70.2337 56.8878 69.9226 56.7727 69.5419 56.7727C69.2805 56.7727 69.0362 56.8423 68.8089 56.9815C68.5845 57.1207 68.4027 57.3139 68.2635 57.5611C68.1271 57.8054 68.0589 58.0881 68.0589 58.4091V62.5H67.0533ZM82.7841 62.6534C82.3693 62.6534 81.9929 62.5753 81.6548 62.419C81.3168 62.2599 81.0483 62.0312 80.8494 61.733C80.6506 61.4318 80.5511 61.0682 80.5511 60.642C80.5511 60.267 80.625 59.9631 80.7727 59.7301C80.9205 59.4943 81.1179 59.3097 81.3651 59.1761C81.6122 59.0426 81.8849 58.9432 82.1832 58.8778C82.4844 58.8097 82.7869 58.7557 83.0909 58.7159C83.4886 58.6648 83.8111 58.6264 84.0582 58.6009C84.3082 58.5724 84.4901 58.5256 84.6037 58.4602C84.7202 58.3949 84.7784 58.2812 84.7784 58.1193V58.0852C84.7784 57.6648 84.6634 57.3381 84.4332 57.1051C84.206 56.8722 83.8608 56.7557 83.3977 56.7557C82.9176 56.7557 82.5412 56.8608 82.2685 57.071C81.9957 57.2812 81.804 57.5057 81.6932 57.7443L80.7386 57.4034C80.9091 57.0057 81.1364 56.696 81.4205 56.4744C81.7074 56.25 82.0199 56.0937 82.358 56.0057C82.6989 55.9148 83.0341 55.8693 83.3636 55.8693C83.5739 55.8693 83.8153 55.8949 84.0881 55.946C84.3636 55.9943 84.6293 56.0952 84.8849 56.2486C85.1435 56.402 85.358 56.6335 85.5284 56.9432C85.6989 57.2528 85.7841 57.6676 85.7841 58.1875V62.5H84.7784V61.6136H84.7273C84.6591 61.7557 84.5455 61.9077 84.3864 62.0696C84.2273 62.2315 84.0156 62.3693 83.7514 62.483C83.4872 62.5966 83.1648 62.6534 82.7841 62.6534ZM82.9375 61.75C83.3352 61.75 83.6705 61.6719 83.9432 61.5156C84.2188 61.3594 84.4261 61.1577 84.5653 60.9105C84.7074 60.6634 84.7784 60.4034 84.7784 60.1307V59.2102C84.7358 59.2614 84.642 59.3082 84.4972 59.3509C84.3551 59.3906 84.1903 59.4261 84.0028 59.4574C83.8182 59.4858 83.6378 59.5114 83.4616 59.5341C83.2884 59.554 83.1477 59.571 83.0398 59.5852C82.7784 59.6193 82.5341 59.6747 82.3068 59.7514C82.0824 59.8253 81.9006 59.9375 81.7614 60.0881C81.625 60.2358 81.5568 60.4375 81.5568 60.6932C81.5568 61.0426 81.6861 61.3068 81.9446 61.4858C82.206 61.6619 82.5369 61.75 82.9375 61.75ZM88.6254 58.5625V62.5H87.6197V55.9545H88.5913V56.9773H88.6765C88.8299 56.6449 89.0629 56.3778 89.3754 56.1761C89.6879 55.9716 90.0913 55.8693 90.5856 55.8693C91.0288 55.8693 91.4165 55.9602 91.7489 56.142C92.0813 56.321 92.3398 56.5938 92.5245 56.9602C92.7092 57.3239 92.8015 57.7841 92.8015 58.3409V62.5H91.7958V58.4091C91.7958 57.8949 91.6623 57.4943 91.3952 57.2074C91.1282 56.9176 90.7617 56.7727 90.2958 56.7727C89.9748 56.7727 89.6879 56.8423 89.435 56.9815C89.185 57.1207 88.9876 57.3239 88.8427 57.5909C88.6978 57.858 88.6254 58.1818 88.6254 58.5625ZM100.759 62.6364C100.128 62.6364 99.5838 62.4972 99.1264 62.2188C98.6719 61.9375 98.321 61.5455 98.0739 61.0426C97.8295 60.5369 97.7074 59.9489 97.7074 59.2784C97.7074 58.608 97.8295 58.017 98.0739 57.5057C98.321 56.9915 98.6648 56.5909 99.1051 56.304C99.5483 56.0142 100.065 55.8693 100.656 55.8693C100.997 55.8693 101.334 55.9261 101.666 56.0398C101.999 56.1534 102.301 56.3381 102.574 56.5938C102.847 56.8466 103.064 57.1818 103.226 57.5994C103.388 58.017 103.469 58.5312 103.469 59.142V59.5682H98.4233V58.6989H102.446C102.446 58.3295 102.372 58 102.224 57.7102C102.08 57.4205 101.872 57.1918 101.602 57.0241C101.335 56.8565 101.02 56.7727 100.656 56.7727C100.256 56.7727 99.9091 56.8722 99.6165 57.071C99.3267 57.267 99.1037 57.5227 98.9474 57.8381C98.7912 58.1534 98.7131 58.4915 98.7131 58.8523V59.4318C98.7131 59.9261 98.7983 60.3452 98.9688 60.6889C99.142 61.0298 99.3821 61.2898 99.6889 61.4688C99.9957 61.6449 100.352 61.733 100.759 61.733C101.023 61.733 101.261 61.696 101.474 61.6222C101.69 61.5455 101.876 61.4318 102.033 61.2812C102.189 61.1278 102.31 60.9375 102.395 60.7102L103.366 60.983C103.264 61.3125 103.092 61.6023 102.851 61.8523C102.609 62.0994 102.311 62.2926 101.956 62.4318C101.601 62.5682 101.202 62.6364 100.759 62.6364ZM104.999 62.5V55.9545H105.97V56.9432H106.038C106.158 56.6193 106.374 56.3565 106.686 56.1548C106.999 55.9531 107.351 55.8523 107.743 55.8523C107.817 55.8523 107.909 55.8537 108.02 55.8565C108.131 55.8594 108.214 55.8636 108.271 55.8693V56.892C108.237 56.8835 108.159 56.8707 108.037 56.8537C107.918 56.8338 107.791 56.8239 107.658 56.8239C107.339 56.8239 107.055 56.8906 106.805 57.0241C106.558 57.1548 106.362 57.3366 106.217 57.5696C106.075 57.7997 106.004 58.0625 106.004 58.358V62.5H104.999ZM109.463 62.5V55.9545H110.435V56.9432H110.503C110.623 56.6193 110.838 56.3565 111.151 56.1548C111.463 55.9531 111.816 55.8523 112.208 55.8523C112.282 55.8523 112.374 55.8537 112.485 55.8565C112.596 55.8594 112.679 55.8636 112.736 55.8693V56.892C112.702 56.8835 112.624 56.8707 112.502 56.8537C112.382 56.8338 112.256 56.8239 112.123 56.8239C111.804 56.8239 111.52 56.8906 111.27 57.0241C111.023 57.1548 110.827 57.3366 110.682 57.5696C110.54 57.7997 110.469 58.0625 110.469 58.358V62.5H109.463ZM116.388 62.6364C115.797 62.6364 115.279 62.4957 114.833 62.2145C114.39 61.9332 114.043 61.5398 113.793 61.0341C113.546 60.5284 113.422 59.9375 113.422 59.2614C113.422 58.5795 113.546 57.9844 113.793 57.4759C114.043 56.9673 114.39 56.5724 114.833 56.2912C115.279 56.0099 115.797 55.8693 116.388 55.8693C116.979 55.8693 117.496 56.0099 117.939 56.2912C118.385 56.5724 118.732 56.9673 118.979 57.4759C119.229 57.9844 119.354 58.5795 119.354 59.2614C119.354 59.9375 119.229 60.5284 118.979 61.0341C118.732 61.5398 118.385 61.9332 117.939 62.2145C117.496 62.4957 116.979 62.6364 116.388 62.6364ZM116.388 61.733C116.837 61.733 117.206 61.6179 117.496 61.3878C117.786 61.1577 118 60.8551 118.14 60.4801C118.279 60.1051 118.348 59.6989 118.348 59.2614C118.348 58.8239 118.279 58.4162 118.14 58.0384C118 57.6605 117.786 57.3551 117.496 57.1222C117.206 56.8892 116.837 56.7727 116.388 56.7727C115.939 56.7727 115.57 56.8892 115.28 57.1222C114.99 57.3551 114.776 57.6605 114.637 58.0384C114.498 58.4162 114.428 58.8239 114.428 59.2614C114.428 59.6989 114.498 60.1051 114.637 60.4801C114.776 60.8551 114.99 61.1577 115.28 61.3878C115.57 61.6179 115.939 61.733 116.388 61.733ZM120.889 62.5V55.9545H121.861V56.9432H121.929C122.048 56.6193 122.264 56.3565 122.577 56.1548C122.889 55.9531 123.241 55.8523 123.634 55.8523C123.707 55.8523 123.8 55.8537 123.911 55.8565C124.021 55.8594 124.105 55.8636 124.162 55.8693V56.892C124.128 56.8835 124.05 56.8707 123.928 56.8537C123.808 56.8338 123.682 56.8239 123.548 56.8239C123.23 56.8239 122.946 56.8906 122.696 57.0241C122.449 57.1548 122.253 57.3366 122.108 57.5696C121.966 57.7997 121.895 58.0625 121.895 58.358V62.5H120.889ZM128.729 62.5V55.9545H129.701V56.9773H129.786C129.922 56.6278 130.142 56.3565 130.446 56.1634C130.75 55.9673 131.115 55.8693 131.542 55.8693C131.973 55.8693 132.333 55.9673 132.62 56.1634C132.909 56.3565 133.135 56.6278 133.297 56.9773H133.365C133.533 56.6392 133.784 56.3707 134.12 56.1719C134.455 55.9702 134.857 55.8693 135.326 55.8693C135.911 55.8693 136.39 56.0526 136.762 56.419C137.134 56.7827 137.32 57.3494 137.32 58.1193V62.5H136.314V58.1193C136.314 57.6364 136.182 57.2912 135.918 57.0838C135.654 56.8764 135.343 56.7727 134.985 56.7727C134.525 56.7727 134.168 56.9119 133.915 57.1903C133.662 57.4659 133.536 57.8153 133.536 58.2386V62.5H132.513V58.017C132.513 57.6449 132.392 57.3452 132.151 57.1179C131.909 56.8878 131.598 56.7727 131.218 56.7727C130.956 56.7727 130.712 56.8423 130.485 56.9815C130.26 57.1207 130.078 57.3139 129.939 57.5611C129.803 57.8054 129.735 58.0881 129.735 58.4091V62.5H128.729ZM141.903 62.6364C141.272 62.6364 140.728 62.4972 140.271 62.2188C139.816 61.9375 139.466 61.5455 139.218 61.0426C138.974 60.5369 138.852 59.9489 138.852 59.2784C138.852 58.608 138.974 58.017 139.218 57.5057C139.466 56.9915 139.809 56.5909 140.25 56.304C140.693 56.0142 141.21 55.8693 141.801 55.8693C142.142 55.8693 142.478 55.9261 142.811 56.0398C143.143 56.1534 143.446 56.3381 143.718 56.5938C143.991 56.8466 144.208 57.1818 144.37 57.5994C144.532 58.017 144.613 58.5312 144.613 59.142V59.5682H139.568V58.6989H143.591C143.591 58.3295 143.517 58 143.369 57.7102C143.224 57.4205 143.017 57.1918 142.747 57.0241C142.48 56.8565 142.164 56.7727 141.801 56.7727C141.4 56.7727 141.054 56.8722 140.761 57.071C140.471 57.267 140.248 57.5227 140.092 57.8381C139.936 58.1534 139.858 58.4915 139.858 58.8523V59.4318C139.858 59.9261 139.943 60.3452 140.113 60.6889C140.287 61.0298 140.527 61.2898 140.833 61.4688C141.14 61.6449 141.497 61.733 141.903 61.733C142.167 61.733 142.406 61.696 142.619 61.6222C142.835 61.5455 143.021 61.4318 143.177 61.2812C143.333 61.1278 143.454 60.9375 143.539 60.7102L144.511 60.983C144.409 61.3125 144.237 61.6023 143.995 61.8523C143.754 62.0994 143.456 62.2926 143.1 62.4318C142.745 62.5682 142.346 62.6364 141.903 62.6364ZM150.779 57.4205L149.876 57.6761C149.819 57.5256 149.735 57.3793 149.625 57.2372C149.517 57.0923 149.369 56.973 149.181 56.8793C148.994 56.7855 148.754 56.7386 148.461 56.7386C148.061 56.7386 147.727 56.831 147.46 57.0156C147.196 57.1974 147.064 57.429 147.064 57.7102C147.064 57.9602 147.154 58.1577 147.336 58.3026C147.518 58.4474 147.802 58.5682 148.189 58.6648L149.16 58.9034C149.745 59.0455 150.181 59.2628 150.468 59.5554C150.755 59.8452 150.899 60.2187 150.899 60.6761C150.899 61.0511 150.791 61.3864 150.575 61.6818C150.362 61.9773 150.064 62.2102 149.68 62.3807C149.297 62.5511 148.85 62.6364 148.342 62.6364C147.674 62.6364 147.122 62.4915 146.684 62.2017C146.247 61.9119 145.97 61.4886 145.853 60.9318L146.808 60.6932C146.899 61.0455 147.071 61.3097 147.324 61.4858C147.579 61.6619 147.913 61.75 148.325 61.75C148.794 61.75 149.166 61.6506 149.441 61.4517C149.72 61.25 149.859 61.0085 149.859 60.7273C149.859 60.5 149.779 60.3097 149.62 60.1562C149.461 60 149.217 59.8835 148.887 59.8068L147.797 59.5511C147.197 59.4091 146.757 59.1889 146.475 58.8906C146.197 58.5895 146.058 58.2131 146.058 57.7614C146.058 57.392 146.162 57.0653 146.369 56.7812C146.579 56.4972 146.865 56.2741 147.225 56.1122C147.589 55.9503 148.001 55.8693 148.461 55.8693C149.109 55.8693 149.618 56.0114 149.987 56.2955C150.359 56.5795 150.623 56.9545 150.779 57.4205ZM157.049 57.4205L156.146 57.6761C156.089 57.5256 156.005 57.3793 155.894 57.2372C155.786 57.0923 155.638 56.973 155.451 56.8793C155.263 56.7855 155.023 56.7386 154.731 56.7386C154.33 56.7386 153.996 56.831 153.729 57.0156C153.465 57.1974 153.333 57.429 153.333 57.7102C153.333 57.9602 153.424 58.1577 153.606 58.3026C153.788 58.4474 154.072 58.5682 154.458 58.6648L155.43 58.9034C156.015 59.0455 156.451 59.2628 156.738 59.5554C157.025 59.8452 157.168 60.2187 157.168 60.6761C157.168 61.0511 157.06 61.3864 156.844 61.6818C156.631 61.9773 156.333 62.2102 155.95 62.3807C155.566 62.5511 155.12 62.6364 154.612 62.6364C153.944 62.6364 153.391 62.4915 152.954 62.2017C152.516 61.9119 152.239 61.4886 152.123 60.9318L153.077 60.6932C153.168 61.0455 153.34 61.3097 153.593 61.4858C153.849 61.6619 154.183 61.75 154.594 61.75C155.063 61.75 155.435 61.6506 155.711 61.4517C155.989 61.25 156.129 61.0085 156.129 60.7273C156.129 60.5 156.049 60.3097 155.89 60.1562C155.731 60 155.487 59.8835 155.157 59.8068L154.066 59.5511C153.467 59.4091 153.026 59.1889 152.745 58.8906C152.467 58.5895 152.327 58.2131 152.327 57.7614C152.327 57.392 152.431 57.0653 152.638 56.7812C152.849 56.4972 153.134 56.2741 153.495 56.1122C153.859 55.9503 154.271 55.8693 154.731 55.8693C155.379 55.8693 155.887 56.0114 156.256 56.2955C156.629 56.5795 156.893 56.9545 157.049 57.4205ZM160.608 62.6534C160.194 62.6534 159.817 62.5753 159.479 62.419C159.141 62.2599 158.873 62.0312 158.674 61.733C158.475 61.4318 158.375 61.0682 158.375 60.642C158.375 60.267 158.449 59.9631 158.597 59.7301C158.745 59.4943 158.942 59.3097 159.189 59.1761C159.436 59.0426 159.709 58.9432 160.007 58.8778C160.309 58.8097 160.611 58.7557 160.915 58.7159C161.313 58.6648 161.635 58.6264 161.882 58.6009C162.132 58.5724 162.314 58.5256 162.428 58.4602C162.544 58.3949 162.603 58.2812 162.603 58.1193V58.0852C162.603 57.6648 162.488 57.3381 162.257 57.1051C162.03 56.8722 161.685 56.7557 161.222 56.7557C160.742 56.7557 160.365 56.8608 160.093 57.071C159.82 57.2812 159.628 57.5057 159.517 57.7443L158.563 57.4034C158.733 57.0057 158.961 56.696 159.245 56.4744C159.532 56.25 159.844 56.0937 160.182 56.0057C160.523 55.9148 160.858 55.8693 161.188 55.8693C161.398 55.8693 161.64 55.8949 161.912 55.946C162.188 55.9943 162.453 56.0952 162.709 56.2486C162.968 56.402 163.182 56.6335 163.353 56.9432C163.523 57.2528 163.608 57.6676 163.608 58.1875V62.5H162.603V61.6136H162.551C162.483 61.7557 162.37 61.9077 162.211 62.0696C162.051 62.2315 161.84 62.3693 161.576 62.483C161.311 62.5966 160.989 62.6534 160.608 62.6534ZM160.762 61.75C161.159 61.75 161.495 61.6719 161.767 61.5156C162.043 61.3594 162.25 61.1577 162.39 60.9105C162.532 60.6634 162.603 60.4034 162.603 60.1307V59.2102C162.56 59.2614 162.466 59.3082 162.321 59.3509C162.179 59.3906 162.015 59.4261 161.827 59.4574C161.642 59.4858 161.462 59.5114 161.286 59.5341C161.113 59.554 160.972 59.571 160.864 59.5852C160.603 59.6193 160.358 59.6747 160.131 59.7514C159.907 59.8253 159.725 59.9375 159.586 60.0881C159.449 60.2358 159.381 60.4375 159.381 60.6932C159.381 61.0426 159.51 61.3068 159.769 61.4858C160.03 61.6619 160.361 61.75 160.762 61.75ZM168.086 65.0909C167.6 65.0909 167.183 65.0284 166.833 64.9034C166.484 64.7812 166.192 64.6193 165.96 64.4176C165.729 64.2188 165.546 64.0057 165.41 63.7784L166.211 63.2159C166.302 63.3352 166.417 63.4716 166.556 63.625C166.695 63.7812 166.886 63.9162 167.127 64.0298C167.371 64.1463 167.691 64.2045 168.086 64.2045C168.614 64.2045 169.05 64.0767 169.394 63.821C169.738 63.5653 169.91 63.1648 169.91 62.6193V61.2898H169.825C169.751 61.4091 169.646 61.5568 169.509 61.733C169.376 61.9062 169.183 62.0611 168.93 62.1974C168.68 62.331 168.342 62.3977 167.915 62.3977C167.387 62.3977 166.913 62.2727 166.492 62.0227C166.075 61.7727 165.744 61.4091 165.499 60.9318C165.258 60.4545 165.137 59.875 165.137 59.1932C165.137 58.5227 165.255 57.9389 165.491 57.4418C165.727 56.9418 166.055 56.5554 166.475 56.2827C166.896 56.0071 167.381 55.8693 167.933 55.8693C168.359 55.8693 168.697 55.9403 168.947 56.0824C169.2 56.2216 169.393 56.3807 169.526 56.5597C169.663 56.7358 169.768 56.8807 169.842 56.9943H169.944V55.9545H170.915V62.6875C170.915 63.25 170.788 63.7074 170.532 64.0597C170.279 64.4148 169.938 64.6747 169.509 64.8395C169.083 65.0071 168.609 65.0909 168.086 65.0909ZM168.052 61.4943C168.455 61.4943 168.796 61.402 169.075 61.2173C169.353 61.0327 169.565 60.767 169.71 60.4205C169.854 60.0739 169.927 59.6591 169.927 59.1761C169.927 58.7045 169.856 58.2884 169.714 57.9276C169.572 57.5668 169.362 57.2841 169.083 57.0795C168.805 56.875 168.461 56.7727 168.052 56.7727C167.626 56.7727 167.271 56.8807 166.987 57.0966C166.705 57.3125 166.494 57.6023 166.352 57.9659C166.212 58.3295 166.143 58.733 166.143 59.1761C166.143 59.6307 166.214 60.0327 166.356 60.3821C166.501 60.7287 166.714 61.0014 166.995 61.2003C167.279 61.3963 167.631 61.4943 168.052 61.4943ZM175.501 62.6364C174.87 62.6364 174.326 62.4972 173.869 62.2188C173.414 61.9375 173.063 61.5455 172.816 61.0426C172.572 60.5369 172.45 59.9489 172.45 59.2784C172.45 58.608 172.572 58.017 172.816 57.5057C173.063 56.9915 173.407 56.5909 173.847 56.304C174.29 56.0142 174.808 55.8693 175.398 55.8693C175.739 55.8693 176.076 55.9261 176.408 56.0398C176.741 56.1534 177.043 56.3381 177.316 56.5938C177.589 56.8466 177.806 57.1818 177.968 57.5994C178.13 58.017 178.211 58.5312 178.211 59.142V59.5682H173.165V58.6989H177.188C177.188 58.3295 177.114 58 176.967 57.7102C176.822 57.4205 176.614 57.1918 176.344 57.0241C176.077 56.8565 175.762 56.7727 175.398 56.7727C174.998 56.7727 174.651 56.8722 174.359 57.071C174.069 57.267 173.846 57.5227 173.69 57.8381C173.533 58.1534 173.455 58.4915 173.455 58.8523V59.4318C173.455 59.9261 173.54 60.3452 173.711 60.6889C173.884 61.0298 174.124 61.2898 174.431 61.4688C174.738 61.6449 175.094 61.733 175.501 61.733C175.765 61.733 176.004 61.696 176.217 61.6222C176.433 61.5455 176.619 61.4318 176.775 61.2812C176.931 61.1278 177.052 60.9375 177.137 60.7102L178.109 60.983C178.006 61.3125 177.835 61.6023 177.593 61.8523C177.352 62.0994 177.053 62.2926 176.698 62.4318C176.343 62.5682 175.944 62.6364 175.501 62.6364Z" fill="#D24232"/>
</svg>
