<svg width="274" height="50" viewBox="0 0 274 50" fill="none" xmlns="http://www.w3.org/2000/svg">
<path d="M8 0.5H137V49.5H8C3.85787 49.5 0.5 46.1421 0.5 42V8C0.5 3.85787 3.85786 0.5 8 0.5Z" fill="white"/>
<path d="M8 0.5H137V49.5H8C3.85787 49.5 0.5 46.1421 0.5 42V8C0.5 3.85787 3.85786 0.5 8 0.5Z" stroke="#DADFE2" stroke-linecap="round"/>
<path d="M21.8295 10.4545C21.7784 10.0227 21.571 9.6875 21.2074 9.44886C20.8438 9.21023 20.3977 9.09091 19.8693 9.09091C19.483 9.09091 19.1449 9.15341 18.8551 9.27841C18.5682 9.40341 18.3438 9.57528 18.1818 9.79403C18.0227 10.0128 17.9432 10.2614 17.9432 10.5398C17.9432 10.7727 17.9986 10.973 18.1094 11.1406C18.223 11.3054 18.3679 11.4432 18.544 11.554C18.7202 11.6619 18.9048 11.7514 19.098 11.8224C19.2912 11.8906 19.4688 11.946 19.6307 11.9886L20.517 12.2273C20.7443 12.2869 20.9972 12.3693 21.2756 12.4744C21.5568 12.5795 21.8253 12.723 22.081 12.9048C22.3395 13.0838 22.5526 13.3139 22.7202 13.5952C22.8878 13.8764 22.9716 14.2216 22.9716 14.6307C22.9716 15.1023 22.848 15.5284 22.6009 15.9091C22.3565 16.2898 21.9986 16.5923 21.527 16.8168C21.0582 17.0412 20.4886 17.1534 19.8182 17.1534C19.1932 17.1534 18.652 17.0526 18.1946 16.8509C17.7401 16.6491 17.3821 16.3679 17.1207 16.0071C16.8622 15.6463 16.7159 15.2273 16.6818 14.75H17.7727C17.8011 15.0795 17.9119 15.3523 18.1051 15.5682C18.3011 15.7812 18.5483 15.9403 18.8466 16.0455C19.1477 16.1477 19.4716 16.1989 19.8182 16.1989C20.2216 16.1989 20.5838 16.1335 20.9048 16.0028C21.2259 15.8693 21.4801 15.6847 21.6676 15.4489C21.8551 15.2102 21.9489 14.9318 21.9489 14.6136C21.9489 14.3239 21.8679 14.0881 21.706 13.9062C21.544 13.7244 21.331 13.5767 21.0668 13.4631C20.8026 13.3494 20.517 13.25 20.2102 13.1648L19.1364 12.858C18.4545 12.6619 17.9148 12.3821 17.517 12.0185C17.1193 11.6548 16.9205 11.179 16.9205 10.5909C16.9205 10.1023 17.0526 9.67614 17.3168 9.3125C17.5838 8.94602 17.9418 8.66193 18.3906 8.46023C18.8423 8.25568 19.3466 8.15341 19.9034 8.15341C20.4659 8.15341 20.9659 8.25426 21.4034 8.45597C21.8409 8.65483 22.1875 8.92756 22.4432 9.27415C22.7017 9.62074 22.8381 10.0142 22.8523 10.4545H21.8295ZM27.4194 10.4545V11.3068H24.0273V10.4545H27.4194ZM25.016 8.88636H26.0217V15.125C26.0217 15.4091 26.0629 15.6222 26.1452 15.7642C26.2305 15.9034 26.3384 15.9972 26.4691 16.0455C26.6026 16.0909 26.7433 16.1136 26.891 16.1136C27.0018 16.1136 27.0927 16.108 27.1637 16.0966C27.2347 16.0824 27.2915 16.071 27.3342 16.0625L27.5387 16.9659C27.4705 16.9915 27.3754 17.017 27.2532 17.0426C27.131 17.071 26.9762 17.0852 26.7887 17.0852C26.5046 17.0852 26.2262 17.0241 25.9535 16.902C25.6836 16.7798 25.4592 16.5938 25.2802 16.3438C25.104 16.0938 25.016 15.7784 25.016 15.3977V8.88636ZM30.8583 17.1534C30.4435 17.1534 30.0671 17.0753 29.729 16.919C29.391 16.7599 29.1225 16.5312 28.9237 16.233C28.7248 15.9318 28.6254 15.5682 28.6254 15.142C28.6254 14.767 28.6992 14.4631 28.8469 14.2301C28.9947 13.9943 29.1921 13.8097 29.4393 13.6761C29.6864 13.5426 29.9592 13.4432 30.2575 13.3778C30.5586 13.3097 30.8612 13.2557 31.1651 13.2159C31.5629 13.1648 31.8853 13.1264 32.1325 13.1009C32.3825 13.0724 32.5643 13.0256 32.6779 12.9602C32.7944 12.8949 32.8526 12.7812 32.8526 12.6193V12.5852C32.8526 12.1648 32.7376 11.8381 32.5075 11.6051C32.2802 11.3722 31.935 11.2557 31.4719 11.2557C30.9918 11.2557 30.6154 11.3608 30.3427 11.571C30.07 11.7812 29.8782 12.0057 29.7674 12.2443L28.8129 11.9034C28.9833 11.5057 29.2106 11.196 29.4947 10.9744C29.7816 10.75 30.0941 10.5937 30.4322 10.5057C30.7731 10.4148 31.1083 10.3693 31.4379 10.3693C31.6481 10.3693 31.8896 10.3949 32.1623 10.446C32.4379 10.4943 32.7035 10.5952 32.9592 10.7486C33.2177 10.902 33.4322 11.1335 33.6026 11.4432C33.7731 11.7528 33.8583 12.1676 33.8583 12.6875V17H32.8526V16.1136H32.8015C32.7333 16.2557 32.6197 16.4077 32.4606 16.5696C32.3015 16.7315 32.0898 16.8693 31.8256 16.983C31.5614 17.0966 31.239 17.1534 30.8583 17.1534ZM31.0117 16.25C31.4094 16.25 31.7447 16.1719 32.0174 16.0156C32.293 15.8594 32.5004 15.6577 32.6396 15.4105C32.7816 15.1634 32.8526 14.9034 32.8526 14.6307V13.7102C32.81 13.7614 32.7163 13.8082 32.5714 13.8509C32.4293 13.8906 32.2646 13.9261 32.0771 13.9574C31.8924 13.9858 31.712 14.0114 31.5359 14.0341C31.3626 14.054 31.2219 14.071 31.114 14.0852C30.8526 14.1193 30.6083 14.1747 30.381 14.2514C30.1566 14.3253 29.9748 14.4375 29.8356 14.5881C29.6992 14.7358 29.631 14.9375 29.631 15.1932C29.631 15.5426 29.7603 15.8068 30.0188 15.9858C30.2802 16.1619 30.6112 16.25 31.0117 16.25ZM35.6939 17V10.4545H36.6655V11.4432H36.7337C36.853 11.1193 37.0689 10.8565 37.3814 10.6548C37.6939 10.4531 38.0462 10.3523 38.4382 10.3523C38.5121 10.3523 38.6044 10.3537 38.7152 10.3565C38.826 10.3594 38.9098 10.3636 38.9666 10.3693V11.392C38.9325 11.3835 38.8544 11.3707 38.7322 11.3537C38.6129 11.3338 38.4865 11.3239 38.353 11.3239C38.0348 11.3239 37.7507 11.3906 37.5007 11.5241C37.2536 11.6548 37.0575 11.8366 36.9126 12.0696C36.7706 12.2997 36.6996 12.5625 36.6996 12.858V17H35.6939ZM43.4155 10.4545V11.3068H40.0234V10.4545H43.4155ZM41.0121 8.88636H42.0178V15.125C42.0178 15.4091 42.0589 15.6222 42.1413 15.7642C42.2266 15.9034 42.3345 15.9972 42.4652 16.0455C42.5987 16.0909 42.7393 16.1136 42.8871 16.1136C42.9979 16.1136 43.0888 16.108 43.1598 16.0966C43.2308 16.0824 43.2876 16.071 43.3303 16.0625L43.5348 16.9659C43.4666 16.9915 43.3714 17.017 43.2493 17.0426C43.1271 17.071 42.9723 17.0852 42.7848 17.0852C42.5007 17.0852 42.2223 17.0241 41.9496 16.902C41.6797 16.7798 41.4553 16.5938 41.2763 16.3438C41.1001 16.0938 41.0121 15.7784 41.0121 15.3977V8.88636ZM51.1499 10.4545V11.3068H47.7578V10.4545H51.1499ZM48.7464 8.88636H49.7521V15.125C49.7521 15.4091 49.7933 15.6222 49.8757 15.7642C49.9609 15.9034 50.0689 15.9972 50.1996 16.0455C50.3331 16.0909 50.4737 16.1136 50.6214 16.1136C50.7322 16.1136 50.8232 16.108 50.8942 16.0966C50.9652 16.0824 51.022 16.071 51.0646 16.0625L51.2692 16.9659C51.201 16.9915 51.1058 17.017 50.9837 17.0426C50.8615 17.071 50.7067 17.0852 50.5192 17.0852C50.2351 17.0852 49.9567 17.0241 49.6839 16.902C49.4141 16.7798 49.1896 16.5938 49.0107 16.3438C48.8345 16.0938 48.7464 15.7784 48.7464 15.3977V8.88636ZM52.6626 17V10.4545H53.6683V17H52.6626ZM53.174 9.36364C52.978 9.36364 52.8089 9.29688 52.6669 9.16335C52.5277 9.02983 52.4581 8.86932 52.4581 8.68182C52.4581 8.49432 52.5277 8.33381 52.6669 8.20028C52.8089 8.06676 52.978 8 53.174 8C53.37 8 53.5376 8.06676 53.6768 8.20028C53.8189 8.33381 53.8899 8.49432 53.8899 8.68182C53.8899 8.86932 53.8189 9.02983 53.6768 9.16335C53.5376 9.29688 53.37 9.36364 53.174 9.36364ZM55.5103 17V10.4545H56.4819V11.4773H56.5671C56.7035 11.1278 56.9237 10.8565 57.2276 10.6634C57.5316 10.4673 57.8967 10.3693 58.3228 10.3693C58.7546 10.3693 59.114 10.4673 59.4009 10.6634C59.6907 10.8565 59.9165 11.1278 60.0785 11.4773H60.1467C60.3143 11.1392 60.5657 10.8707 60.9009 10.6719C61.2362 10.4702 61.6381 10.3693 62.1069 10.3693C62.6921 10.3693 63.1708 10.5526 63.543 10.919C63.9151 11.2827 64.1012 11.8494 64.1012 12.6193V17H63.0955V12.6193C63.0955 12.1364 62.9634 11.7912 62.6992 11.5838C62.435 11.3764 62.1239 11.2727 61.766 11.2727C61.3058 11.2727 60.9492 11.4119 60.6964 11.6903C60.4435 11.9659 60.3171 12.3153 60.3171 12.7386V17H59.2944V12.517C59.2944 12.1449 59.1737 11.8452 58.9322 11.6179C58.6907 11.3878 58.3796 11.2727 57.9989 11.2727C57.7376 11.2727 57.4933 11.3423 57.266 11.4815C57.0415 11.6207 56.8597 11.8139 56.7205 12.0611C56.5842 12.3054 56.516 12.5881 56.516 12.9091V17H55.5103ZM68.6843 17.1364C68.0536 17.1364 67.5096 16.9972 67.0522 16.7188C66.5977 16.4375 66.2468 16.0455 65.9996 15.5426C65.7553 15.0369 65.6332 14.4489 65.6332 13.7784C65.6332 13.108 65.7553 12.517 65.9996 12.0057C66.2468 11.4915 66.5906 11.0909 67.0309 10.804C67.4741 10.5142 67.9911 10.3693 68.582 10.3693C68.9229 10.3693 69.2596 10.4261 69.592 10.5398C69.9244 10.6534 70.2269 10.8381 70.4996 11.0938C70.7724 11.3466 70.9897 11.6818 71.1516 12.0994C71.3136 12.517 71.3945 13.0312 71.3945 13.642V14.0682H66.3491V13.1989H70.3718C70.3718 12.8295 70.2979 12.5 70.1502 12.2102C70.0053 11.9205 69.7979 11.6918 69.5281 11.5241C69.261 11.3565 68.9457 11.2727 68.582 11.2727C68.1815 11.2727 67.8349 11.3722 67.5423 11.571C67.2525 11.767 67.0295 12.0227 66.8732 12.3381C66.717 12.6534 66.6388 12.9915 66.6388 13.3523V13.9318C66.6388 14.4261 66.7241 14.8452 66.8945 15.1889C67.0678 15.5298 67.3079 15.7898 67.6147 15.9688C67.9215 16.1449 68.2781 16.233 68.6843 16.233C68.9485 16.233 69.1871 16.196 69.4002 16.1222C69.6161 16.0455 69.8022 15.9318 69.9585 15.7812C70.1147 15.6278 70.2354 15.4375 70.3207 15.2102L71.2923 15.483C71.19 15.8125 71.0181 16.1023 70.7766 16.3523C70.5352 16.5994 70.2369 16.7926 69.8817 16.9318C69.5266 17.0682 69.1275 17.1364 68.6843 17.1364Z" fill="#627A84"/>
<path d="M20.6335 25.8182V36H19.4006V27.1108H19.3409L16.8551 28.7614V27.5085L19.4006 25.8182H20.6335ZM23.5618 36V35.1051L26.9226 31.4261C27.317 30.9953 27.6418 30.6207 27.897 30.3026C28.1522 29.9811 28.3411 29.6795 28.4638 29.3977C28.5897 29.1127 28.6527 28.8144 28.6527 28.5028C28.6527 28.1449 28.5665 27.835 28.3942 27.5732C28.2251 27.3113 27.9931 27.1091 27.6982 26.9666C27.4032 26.8241 27.0717 26.7528 26.7038 26.7528C26.3127 26.7528 25.9714 26.834 25.6797 26.9964C25.3913 27.1555 25.1676 27.3793 25.0085 27.6676C24.8527 27.956 24.7749 28.294 24.7749 28.6818H23.6016C23.6016 28.0852 23.7391 27.5616 24.0142 27.1108C24.2893 26.66 24.6638 26.3087 25.1378 26.0568C25.6151 25.8049 26.1503 25.679 26.7436 25.679C27.3402 25.679 27.8688 25.8049 28.3295 26.0568C28.7902 26.3087 29.1515 26.6484 29.4134 27.076C29.6752 27.5036 29.8061 27.9792 29.8061 28.5028C29.8061 28.8774 29.7382 29.2436 29.6023 29.6016C29.4697 29.9562 29.2377 30.3523 28.9062 30.7898C28.5781 31.224 28.1224 31.7543 27.5391 32.3807L25.2521 34.8267V34.9062H29.9851V36H23.5618ZM32.9134 34.6974C32.6681 34.6974 32.4576 34.6096 32.282 34.4339C32.1063 34.2583 32.0185 34.0478 32.0185 33.8026C32.0185 33.5573 32.1063 33.3468 32.282 33.1712C32.4576 32.9955 32.6681 32.9077 32.9134 32.9077C33.1586 32.9077 33.3691 32.9955 33.5447 33.1712C33.7204 33.3468 33.8082 33.5573 33.8082 33.8026C33.8082 33.965 33.7668 34.1141 33.6839 34.25C33.6044 34.3859 33.4967 34.4953 33.3608 34.5781C33.2282 34.6577 33.0791 34.6974 32.9134 34.6974ZM32.9134 29.5469C32.6681 29.5469 32.4576 29.459 32.282 29.2834C32.1063 29.1077 32.0185 28.8973 32.0185 28.652C32.0185 28.4067 32.1063 28.1963 32.282 28.0206C32.4576 27.8449 32.6681 27.7571 32.9134 27.7571C33.1586 27.7571 33.3691 27.8449 33.5447 28.0206C33.7204 28.1963 33.8082 28.4067 33.8082 28.652C33.8082 28.8144 33.7668 28.9635 33.6839 29.0994C33.6044 29.2353 33.4967 29.3447 33.3608 29.4276C33.2282 29.5071 33.0791 29.5469 32.9134 29.5469ZM39.2148 36.1392C38.4658 36.1392 37.8278 35.9354 37.3008 35.5277C36.7738 35.1167 36.3711 34.5218 36.0927 33.7429C35.8143 32.9607 35.6751 32.0161 35.6751 30.9091C35.6751 29.8087 35.8143 28.8691 36.0927 28.0902C36.3744 27.308 36.7788 26.7114 37.3058 26.3004C37.8361 25.8861 38.4724 25.679 39.2148 25.679C39.9573 25.679 40.592 25.8861 41.119 26.3004C41.6493 26.7114 42.0536 27.308 42.332 28.0902C42.6138 28.8691 42.7546 29.8087 42.7546 30.9091C42.7546 32.0161 42.6154 32.9607 42.337 33.7429C42.0586 34.5218 41.6559 35.1167 41.1289 35.5277C40.6019 35.9354 39.9639 36.1392 39.2148 36.1392ZM39.2148 35.0455C39.9573 35.0455 40.534 34.6875 40.945 33.9716C41.3559 33.2557 41.5614 32.2348 41.5614 30.9091C41.5614 30.0275 41.467 29.2768 41.2781 28.657C41.0924 28.0372 40.824 27.5649 40.4727 27.2401C40.1246 26.9152 39.7054 26.7528 39.2148 26.7528C38.479 26.7528 37.904 27.1158 37.4897 27.8416C37.0754 28.5642 36.8683 29.5866 36.8683 30.9091C36.8683 31.7907 36.9611 32.5398 37.1467 33.1562C37.3323 33.7727 37.5991 34.2417 37.9471 34.5632C38.2984 34.8847 38.721 35.0455 39.2148 35.0455ZM47.9648 36.1392C47.2158 36.1392 46.5778 35.9354 46.0508 35.5277C45.5238 35.1167 45.1211 34.5218 44.8427 33.7429C44.5643 32.9607 44.4251 32.0161 44.4251 30.9091C44.4251 29.8087 44.5643 28.8691 44.8427 28.0902C45.1244 27.308 45.5288 26.7114 46.0558 26.3004C46.5861 25.8861 47.2224 25.679 47.9648 25.679C48.7073 25.679 49.342 25.8861 49.869 26.3004C50.3993 26.7114 50.8036 27.308 51.082 28.0902C51.3638 28.8691 51.5046 29.8087 51.5046 30.9091C51.5046 32.0161 51.3654 32.9607 51.087 33.7429C50.8086 34.5218 50.4059 35.1167 49.8789 35.5277C49.3519 35.9354 48.7139 36.1392 47.9648 36.1392ZM47.9648 35.0455C48.7073 35.0455 49.284 34.6875 49.695 33.9716C50.1059 33.2557 50.3114 32.2348 50.3114 30.9091C50.3114 30.0275 50.217 29.2768 50.0281 28.657C49.8424 28.0372 49.574 27.5649 49.2227 27.2401C48.8746 26.9152 48.4554 26.7528 47.9648 26.7528C47.229 26.7528 46.654 27.1158 46.2397 27.8416C45.8254 28.5642 45.6183 29.5866 45.6183 30.9091C45.6183 31.7907 45.7111 32.5398 45.8967 33.1562C46.0823 33.7727 46.3491 34.2417 46.6971 34.5632C47.0484 34.8847 47.471 35.0455 47.9648 35.0455ZM57.5103 36V25.8182H60.9506C61.7494 25.8182 62.4023 25.9624 62.9094 26.2507C63.4199 26.5357 63.7977 26.9219 64.043 27.4091C64.2882 27.8963 64.4109 28.4399 64.4109 29.0398C64.4109 29.6397 64.2882 30.1849 64.043 30.6754C63.801 31.166 63.4265 31.5571 62.9194 31.8487C62.4123 32.1371 61.7627 32.2812 60.9705 32.2812H58.5046V31.1875H60.9308C61.4776 31.1875 61.9168 31.093 62.2482 30.9041C62.5797 30.7152 62.82 30.46 62.9691 30.1385C63.1216 29.8137 63.1978 29.4474 63.1978 29.0398C63.1978 28.6321 63.1216 28.2675 62.9691 27.946C62.82 27.6245 62.578 27.3726 62.2433 27.1903C61.9085 27.0047 61.4644 26.9119 60.9109 26.9119H58.7433V36H57.5103ZM66.397 25.8182H67.8686L71.3288 34.2699H71.4482L74.9084 25.8182H76.38V36H75.2266V28.2642H75.1271L71.9453 36H70.8317L67.6499 28.2642H67.5504V36H66.397V25.8182Z" fill="#233D48"/>
<path d="M111.5 21.4999C111.132 21.4999 110.833 21.7984 110.833 22.1666V25.9148L113.029 27.989C113.152 28.1116 113.31 28.1765 113.471 28.1836C113.651 28.1917 113.834 28.1268 113.972 27.989C114.106 27.8543 114.171 27.6764 114.167 27.4999C114.162 27.3353 114.097 27.1719 113.972 27.0462L112.167 25.3625V22.1666C112.167 21.7984 111.868 21.4999 111.5 21.4999Z" fill="#032B3A"/>
<path d="M118.167 25.4999C118.167 29.1818 115.182 32.1666 111.5 32.1666C107.818 32.1666 104.833 29.1818 104.833 25.4999C104.833 21.818 107.818 18.8333 111.5 18.8333C115.182 18.8333 118.167 21.818 118.167 25.4999ZM116.833 25.4999C116.833 22.5544 114.446 20.1666 111.5 20.1666C108.555 20.1666 106.167 22.5544 106.167 25.4999C106.167 28.4455 108.555 30.8333 111.5 30.8333C114.446 30.8333 116.833 28.4455 116.833 25.4999Z" fill="#032B3A"/>
<path d="M137 0.5H266C270.142 0.5 273.5 3.85786 273.5 8V42C273.5 46.1421 270.142 49.5 266 49.5H137V0.5Z" fill="white"/>
<path d="M137 0.5H266C270.142 0.5 273.5 3.85786 273.5 8V42C273.5 46.1421 270.142 49.5 266 49.5H137V0.5Z" stroke="#DADFE2" stroke-linecap="round"/>
<path d="M153.557 17V8.27273H158.824V9.21023H154.614V12.1591H158.551V13.0966H154.614V16.0625H158.892V17H153.557ZM161.598 13.0625V17H160.592V10.4545H161.564V11.4773H161.649C161.803 11.1449 162.036 10.8778 162.348 10.6761C162.661 10.4716 163.064 10.3693 163.558 10.3693C164.001 10.3693 164.389 10.4602 164.722 10.642C165.054 10.821 165.313 11.0938 165.497 11.4602C165.682 11.8239 165.774 12.2841 165.774 12.8409V17H164.768V12.9091C164.768 12.3949 164.635 11.9943 164.368 11.7074C164.101 11.4176 163.734 11.2727 163.268 11.2727C162.947 11.2727 162.661 11.3423 162.408 11.4815C162.158 11.6207 161.96 11.8239 161.815 12.0909C161.67 12.358 161.598 12.6818 161.598 13.0625ZM170.083 17.1364C169.538 17.1364 169.056 16.9986 168.639 16.723C168.221 16.4446 167.895 16.0526 167.659 15.5469C167.423 15.0384 167.305 14.4375 167.305 13.7443C167.305 13.0568 167.423 12.4602 167.659 11.9545C167.895 11.4489 168.223 11.0582 168.643 10.7827C169.064 10.5071 169.549 10.3693 170.1 10.3693C170.527 10.3693 170.863 10.4403 171.11 10.5824C171.36 10.7216 171.551 10.8807 171.681 11.0597C171.815 11.2358 171.919 11.3807 171.993 11.4943H172.078V8.27273H173.083V17H172.112V15.9943H171.993C171.919 16.1136 171.814 16.2642 171.677 16.446C171.541 16.625 171.346 16.7855 171.093 16.9276C170.841 17.0668 170.504 17.1364 170.083 17.1364ZM170.22 16.233C170.623 16.233 170.964 16.1278 171.243 15.9176C171.521 15.7045 171.733 15.4105 171.877 15.0355C172.022 14.6577 172.095 14.2216 172.095 13.7273C172.095 13.2386 172.024 12.8111 171.882 12.4446C171.74 12.0753 171.529 11.7884 171.251 11.5838C170.973 11.3764 170.629 11.2727 170.22 11.2727C169.794 11.2727 169.439 11.3821 169.154 11.6009C168.873 11.8168 168.662 12.1108 168.52 12.483C168.38 12.8523 168.311 13.267 168.311 13.7273C168.311 14.1932 168.382 14.6165 168.524 14.9972C168.669 15.375 168.882 15.6761 169.163 15.9006C169.447 16.1222 169.799 16.233 170.22 16.233ZM181.287 10.4545V11.3068H177.895V10.4545H181.287ZM178.883 8.88636H179.889V15.125C179.889 15.4091 179.93 15.6222 180.012 15.7642C180.098 15.9034 180.206 15.9972 180.336 16.0455C180.47 16.0909 180.61 16.1136 180.758 16.1136C180.869 16.1136 180.96 16.108 181.031 16.0966C181.102 16.0824 181.159 16.071 181.201 16.0625L181.406 16.9659C181.338 16.9915 181.243 17.017 181.12 17.0426C180.998 17.071 180.843 17.0852 180.656 17.0852C180.372 17.0852 180.093 17.0241 179.821 16.902C179.551 16.7798 179.326 16.5938 179.147 16.3438C178.971 16.0938 178.883 15.7784 178.883 15.3977V8.88636ZM182.799 17V10.4545H183.805V17H182.799ZM183.311 9.36364C183.115 9.36364 182.946 9.29688 182.804 9.16335C182.664 9.02983 182.595 8.86932 182.595 8.68182C182.595 8.49432 182.664 8.33381 182.804 8.20028C182.946 8.06676 183.115 8 183.311 8C183.507 8 183.674 8.06676 183.814 8.20028C183.956 8.33381 184.027 8.49432 184.027 8.68182C184.027 8.86932 183.956 9.02983 183.814 9.16335C183.674 9.29688 183.507 9.36364 183.311 9.36364ZM185.647 17V10.4545H186.619V11.4773H186.704C186.84 11.1278 187.06 10.8565 187.364 10.6634C187.668 10.4673 188.033 10.3693 188.46 10.3693C188.891 10.3693 189.251 10.4673 189.538 10.6634C189.827 10.8565 190.053 11.1278 190.215 11.4773H190.283C190.451 11.1392 190.702 10.8707 191.038 10.6719C191.373 10.4702 191.775 10.3693 192.244 10.3693C192.829 10.3693 193.308 10.5526 193.68 10.919C194.052 11.2827 194.238 11.8494 194.238 12.6193V17H193.232V12.6193C193.232 12.1364 193.1 11.7912 192.836 11.5838C192.572 11.3764 192.261 11.2727 191.903 11.2727C191.442 11.2727 191.086 11.4119 190.833 11.6903C190.58 11.9659 190.454 12.3153 190.454 12.7386V17H189.431V12.517C189.431 12.1449 189.31 11.8452 189.069 11.6179C188.827 11.3878 188.516 11.2727 188.136 11.2727C187.874 11.2727 187.63 11.3423 187.403 11.4815C187.178 11.6207 186.996 11.8139 186.857 12.0611C186.721 12.3054 186.653 12.5881 186.653 12.9091V17H185.647ZM198.821 17.1364C198.19 17.1364 197.646 16.9972 197.189 16.7188C196.734 16.4375 196.384 16.0455 196.136 15.5426C195.892 15.0369 195.77 14.4489 195.77 13.7784C195.77 13.108 195.892 12.517 196.136 12.0057C196.384 11.4915 196.727 11.0909 197.168 10.804C197.611 10.5142 198.128 10.3693 198.719 10.3693C199.06 10.3693 199.396 10.4261 199.729 10.5398C200.061 10.6534 200.364 10.8381 200.636 11.0938C200.909 11.3466 201.126 11.6818 201.288 12.0994C201.45 12.517 201.531 13.0312 201.531 13.642V14.0682H196.486V13.1989H200.509C200.509 12.8295 200.435 12.5 200.287 12.2102C200.142 11.9205 199.935 11.6918 199.665 11.5241C199.398 11.3565 199.082 11.2727 198.719 11.2727C198.318 11.2727 197.972 11.3722 197.679 11.571C197.389 11.767 197.166 12.0227 197.01 12.3381C196.854 12.6534 196.776 12.9915 196.776 13.3523V13.9318C196.776 14.4261 196.861 14.8452 197.031 15.1889C197.205 15.5298 197.445 15.7898 197.751 15.9688C198.058 16.1449 198.415 16.233 198.821 16.233C199.085 16.233 199.324 16.196 199.537 16.1222C199.753 16.0455 199.939 15.9318 200.095 15.7812C200.251 15.6278 200.372 15.4375 200.457 15.2102L201.429 15.483C201.327 15.8125 201.155 16.1023 200.913 16.3523C200.672 16.5994 200.374 16.7926 200.018 16.9318C199.663 17.0682 199.264 17.1364 198.821 17.1364Z" fill="#627A84"/>
<path d="M156.736 36.1392C156.152 36.1392 155.627 36.0232 155.16 35.7912C154.692 35.5592 154.318 35.241 154.036 34.8366C153.754 34.4323 153.6 33.9716 153.574 33.4545H154.767C154.813 33.9152 155.022 34.2964 155.393 34.598C155.768 34.8963 156.215 35.0455 156.736 35.0455C157.153 35.0455 157.525 34.9477 157.849 34.7521C158.178 34.5566 158.434 34.2881 158.62 33.9467C158.809 33.602 158.903 33.2126 158.903 32.7784C158.903 32.3343 158.806 31.9382 158.61 31.5902C158.418 31.2389 158.153 30.9621 157.815 30.7599C157.477 30.5578 157.09 30.455 156.656 30.4517C156.345 30.4484 156.025 30.4964 155.697 30.5959C155.369 30.692 155.098 30.8163 154.886 30.9688L153.733 30.8295L154.349 25.8182H159.639V26.9119H155.384L155.026 29.9148H155.085C155.294 29.7491 155.556 29.6115 155.871 29.5021C156.186 29.3928 156.514 29.3381 156.855 29.3381C157.478 29.3381 158.033 29.4872 158.521 29.7855C159.011 30.0805 159.396 30.4848 159.674 30.9986C159.956 31.5123 160.097 32.099 160.097 32.7585C160.097 33.4081 159.951 33.9882 159.659 34.4986C159.371 35.0057 158.973 35.4067 158.466 35.7017C157.959 35.9934 157.382 36.1392 156.736 36.1392ZM162.947 34.6974C162.701 34.6974 162.491 34.6096 162.315 34.4339C162.14 34.2583 162.052 34.0478 162.052 33.8026C162.052 33.5573 162.14 33.3468 162.315 33.1712C162.491 32.9955 162.701 32.9077 162.947 32.9077C163.192 32.9077 163.402 32.9955 163.578 33.1712C163.754 33.3468 163.841 33.5573 163.841 33.8026C163.841 33.965 163.8 34.1141 163.717 34.25C163.638 34.3859 163.53 34.4953 163.394 34.5781C163.261 34.6577 163.112 34.6974 162.947 34.6974ZM162.947 29.5469C162.701 29.5469 162.491 29.459 162.315 29.2834C162.14 29.1077 162.052 28.8973 162.052 28.652C162.052 28.4067 162.14 28.1963 162.315 28.0206C162.491 27.8449 162.701 27.7571 162.947 27.7571C163.192 27.7571 163.402 27.8449 163.578 28.0206C163.754 28.1963 163.841 28.4067 163.841 28.652C163.841 28.8144 163.8 28.9635 163.717 29.0994C163.638 29.2353 163.53 29.3447 163.394 29.4276C163.261 29.5071 163.112 29.5469 162.947 29.5469ZM169.248 36.1392C168.499 36.1392 167.861 35.9354 167.334 35.5277C166.807 35.1167 166.404 34.5218 166.126 33.7429C165.847 32.9607 165.708 32.0161 165.708 30.9091C165.708 29.8087 165.847 28.8691 166.126 28.0902C166.408 27.308 166.812 26.7114 167.339 26.3004C167.869 25.8861 168.506 25.679 169.248 25.679C169.99 25.679 170.625 25.8861 171.152 26.3004C171.682 26.7114 172.087 27.308 172.365 28.0902C172.647 28.8691 172.788 29.8087 172.788 30.9091C172.788 32.0161 172.649 32.9607 172.37 33.7429C172.092 34.5218 171.689 35.1167 171.162 35.5277C170.635 35.9354 169.997 36.1392 169.248 36.1392ZM169.248 35.0455C169.99 35.0455 170.567 34.6875 170.978 33.9716C171.389 33.2557 171.595 32.2348 171.595 30.9091C171.595 30.0275 171.5 29.2768 171.311 28.657C171.126 28.0372 170.857 27.5649 170.506 27.2401C170.158 26.9152 169.739 26.7528 169.248 26.7528C168.512 26.7528 167.937 27.1158 167.523 27.8416C167.109 28.5642 166.901 29.5866 166.901 30.9091C166.901 31.7907 166.994 32.5398 167.18 33.1562C167.365 33.7727 167.632 34.2417 167.98 34.5632C168.332 34.8847 168.754 35.0455 169.248 35.0455ZM177.998 36.1392C177.249 36.1392 176.611 35.9354 176.084 35.5277C175.557 35.1167 175.154 34.5218 174.876 33.7429C174.597 32.9607 174.458 32.0161 174.458 30.9091C174.458 29.8087 174.597 28.8691 174.876 28.0902C175.158 27.308 175.562 26.7114 176.089 26.3004C176.619 25.8861 177.256 25.679 177.998 25.679C178.74 25.679 179.375 25.8861 179.902 26.3004C180.432 26.7114 180.837 27.308 181.115 28.0902C181.397 28.8691 181.538 29.8087 181.538 30.9091C181.538 32.0161 181.399 32.9607 181.12 33.7429C180.842 34.5218 180.439 35.1167 179.912 35.5277C179.385 35.9354 178.747 36.1392 177.998 36.1392ZM177.998 35.0455C178.74 35.0455 179.317 34.6875 179.728 33.9716C180.139 33.2557 180.345 32.2348 180.345 30.9091C180.345 30.0275 180.25 29.2768 180.061 28.657C179.876 28.0372 179.607 27.5649 179.256 27.2401C178.908 26.9152 178.489 26.7528 177.998 26.7528C177.262 26.7528 176.687 27.1158 176.273 27.8416C175.859 28.5642 175.651 29.5866 175.651 30.9091C175.651 31.7907 175.744 32.5398 175.93 33.1562C176.115 33.7727 176.382 34.2417 176.73 34.5632C177.082 34.8847 177.504 35.0455 177.998 35.0455ZM187.544 36V25.8182H190.984C191.783 25.8182 192.436 25.9624 192.943 26.2507C193.453 26.5357 193.831 26.9219 194.076 27.4091C194.321 27.8963 194.444 28.4399 194.444 29.0398C194.444 29.6397 194.321 30.1849 194.076 30.6754C193.834 31.166 193.46 31.5571 192.953 31.8487C192.445 32.1371 191.796 32.2812 191.004 32.2812H188.538V31.1875H190.964C191.511 31.1875 191.95 31.093 192.281 30.9041C192.613 30.7152 192.853 30.46 193.002 30.1385C193.155 29.8137 193.231 29.4474 193.231 29.0398C193.231 28.6321 193.155 28.2675 193.002 27.946C192.853 27.6245 192.611 27.3726 192.276 27.1903C191.942 27.0047 191.498 26.9119 190.944 26.9119H188.776V36H187.544ZM196.43 25.8182H197.902L201.362 34.2699H201.481L204.942 25.8182H206.413V36H205.26V28.2642H205.16L201.979 36H200.865L197.683 28.2642H197.584V36H196.43V25.8182Z" fill="#233D48"/>
<path d="M248 21.4999C247.632 21.4999 247.333 21.7984 247.333 22.1666V25.9148L249.529 27.989C249.652 28.1116 249.81 28.1765 249.971 28.1836C250.151 28.1917 250.334 28.1268 250.472 27.989C250.606 27.8543 250.671 27.6764 250.667 27.4999C250.662 27.3353 250.597 27.1719 250.472 27.0462L248.667 25.3625V22.1666C248.667 21.7984 248.368 21.4999 248 21.4999Z" fill="#032B3A"/>
<path d="M254.667 25.4999C254.667 29.1818 251.682 32.1666 248 32.1666C244.318 32.1666 241.333 29.1818 241.333 25.4999C241.333 21.818 244.318 18.8333 248 18.8333C251.682 18.8333 254.667 21.818 254.667 25.4999ZM253.333 25.4999C253.333 22.5544 250.946 20.1666 248 20.1666C245.055 20.1666 242.667 22.5544 242.667 25.4999C242.667 28.4455 245.055 30.8333 248 30.8333C250.946 30.8333 253.333 28.4455 253.333 25.4999Z" fill="#032B3A"/>
</svg>
