<svg width="224" height="117" viewBox="0 0 224 117" fill="none" xmlns="http://www.w3.org/2000/svg">
<path d="M11.5 41C11.5 36.8579 14.8579 33.5 19 33.5H205C209.142 33.5 212.5 36.8579 212.5 41V75C212.5 79.1421 209.142 82.5 205 82.5H19C14.8579 82.5 11.5 79.1421 11.5 75V41Z" fill="white"/>
<path d="M11.5 41C11.5 36.8579 14.8579 33.5 19 33.5H205C209.142 33.5 212.5 36.8579 212.5 41V75C212.5 79.1421 209.142 82.5 205 82.5H19C14.8579 82.5 11.5 79.1421 11.5 75V41Z" stroke="#DADFE2" stroke-linecap="round"/>
<path d="M28.0568 50V41.2727H31.0057C31.6903 41.2727 32.25 41.3963 32.6847 41.6435C33.1222 41.8878 33.446 42.2188 33.6562 42.6364C33.8665 43.054 33.9716 43.5199 33.9716 44.0341C33.9716 44.5483 33.8665 45.0156 33.6562 45.4361C33.4489 45.8565 33.1278 46.1918 32.6932 46.4418C32.2585 46.6889 31.7017 46.8125 31.0227 46.8125H28.9091V45.875H30.9886C31.4574 45.875 31.8338 45.794 32.1179 45.6321C32.402 45.4702 32.608 45.2514 32.7358 44.9759C32.8665 44.6974 32.9318 44.3835 32.9318 44.0341C32.9318 43.6847 32.8665 43.3722 32.7358 43.0966C32.608 42.821 32.4006 42.6051 32.1136 42.4489C31.8267 42.2898 31.446 42.2102 30.9716 42.2102H29.1136V50H28.0568ZM36.5433 46.0625V50H35.5376V41.2727H36.5433V44.4773H36.6286C36.782 44.1392 37.0121 43.8707 37.3189 43.6719C37.6286 43.4702 38.0405 43.3693 38.5547 43.3693C39.0007 43.3693 39.3913 43.4588 39.7266 43.6378C40.0618 43.8139 40.3217 44.0852 40.5064 44.4517C40.6939 44.8153 40.7876 45.2784 40.7876 45.8409V50H39.782V45.9091C39.782 45.3892 39.647 44.9872 39.3771 44.7031C39.1101 44.4162 38.7393 44.2727 38.2649 44.2727C37.9354 44.2727 37.6399 44.3423 37.3786 44.4815C37.12 44.6207 36.9155 44.8239 36.7649 45.0909C36.6172 45.358 36.5433 45.6818 36.5433 46.0625ZM45.2866 50.1364C44.6957 50.1364 44.1772 49.9957 43.7312 49.7145C43.288 49.4332 42.9414 49.0398 42.6914 48.5341C42.4442 48.0284 42.3207 47.4375 42.3207 46.7614C42.3207 46.0795 42.4442 45.4844 42.6914 44.9759C42.9414 44.4673 43.288 44.0724 43.7312 43.7912C44.1772 43.5099 44.6957 43.3693 45.2866 43.3693C45.8775 43.3693 46.3945 43.5099 46.8377 43.7912C47.2837 44.0724 47.6303 44.4673 47.8775 44.9759C48.1275 45.4844 48.2525 46.0795 48.2525 46.7614C48.2525 47.4375 48.1275 48.0284 47.8775 48.5341C47.6303 49.0398 47.2837 49.4332 46.8377 49.7145C46.3945 49.9957 45.8775 50.1364 45.2866 50.1364ZM45.2866 49.233C45.7354 49.233 46.1048 49.1179 46.3945 48.8878C46.6843 48.6577 46.8988 48.3551 47.038 47.9801C47.1772 47.6051 47.2468 47.1989 47.2468 46.7614C47.2468 46.3239 47.1772 45.9162 47.038 45.5384C46.8988 45.1605 46.6843 44.8551 46.3945 44.6222C46.1048 44.3892 45.7354 44.2727 45.2866 44.2727C44.8377 44.2727 44.4684 44.3892 44.1786 44.6222C43.8888 44.8551 43.6744 45.1605 43.5352 45.5384C43.396 45.9162 43.3263 46.3239 43.3263 46.7614C43.3263 47.1989 43.396 47.6051 43.5352 47.9801C43.6744 48.3551 43.8888 48.6577 44.1786 48.8878C44.4684 49.1179 44.8377 49.233 45.2866 49.233ZM50.7933 46.0625V50H49.7876V43.4545H50.7592V44.4773H50.8445C50.9979 44.1449 51.2308 43.8778 51.5433 43.6761C51.8558 43.4716 52.2592 43.3693 52.7536 43.3693C53.1967 43.3693 53.5845 43.4602 53.9169 43.642C54.2493 43.821 54.5078 44.0938 54.6925 44.4602C54.8771 44.8239 54.9695 45.2841 54.9695 45.8409V50H53.9638V45.9091C53.9638 45.3949 53.8303 44.9943 53.5632 44.7074C53.2962 44.4176 52.9297 44.2727 52.4638 44.2727C52.1428 44.2727 51.8558 44.3423 51.603 44.4815C51.353 44.6207 51.1555 44.8239 51.0107 45.0909C50.8658 45.358 50.7933 45.6818 50.7933 46.0625ZM59.5515 50.1364C58.9208 50.1364 58.3768 49.9972 57.9194 49.7188C57.4648 49.4375 57.114 49.0455 56.8668 48.5426C56.6225 48.0369 56.5004 47.4489 56.5004 46.7784C56.5004 46.108 56.6225 45.517 56.8668 45.0057C57.114 44.4915 57.4577 44.0909 57.8981 43.804C58.3413 43.5142 58.8583 43.3693 59.4492 43.3693C59.7901 43.3693 60.1268 43.4261 60.4592 43.5398C60.7915 43.6534 61.0941 43.8381 61.3668 44.0938C61.6396 44.3466 61.8569 44.6818 62.0188 45.0994C62.1808 45.517 62.2617 46.0312 62.2617 46.642V47.0682H57.2163V46.1989H61.239C61.239 45.8295 61.1651 45.5 61.0174 45.2102C60.8725 44.9205 60.6651 44.6918 60.3952 44.5241C60.1282 44.3565 59.8129 44.2727 59.4492 44.2727C59.0487 44.2727 58.7021 44.3722 58.4094 44.571C58.1197 44.767 57.8967 45.0227 57.7404 45.3381C57.5842 45.6534 57.506 45.9915 57.506 46.3523V46.9318C57.506 47.4261 57.5913 47.8452 57.7617 48.1889C57.935 48.5298 58.1751 48.7898 58.4819 48.9688C58.7887 49.1449 59.1452 49.233 59.5515 49.233C59.8157 49.233 60.0543 49.196 60.2674 49.1222C60.4833 49.0455 60.6694 48.9318 60.8256 48.7812C60.9819 48.6278 61.1026 48.4375 61.1879 48.2102L62.1594 48.483C62.0572 48.8125 61.8853 49.1023 61.6438 49.3523C61.4023 49.5994 61.104 49.7926 60.7489 49.9318C60.3938 50.0682 59.9947 50.1364 59.5515 50.1364Z" fill="#627A84"/>
<path d="M28.4915 63.9091C28.4915 62.6562 28.6539 61.5045 28.9787 60.4538C29.3068 59.3999 29.7741 58.4304 30.3807 57.5455H31.4148C31.1761 57.8736 30.9524 58.2779 30.7436 58.7585C30.5381 59.2358 30.3575 59.7611 30.2017 60.3345C30.0459 60.9046 29.9233 61.4946 29.8338 62.1044C29.7476 62.7143 29.7045 63.3158 29.7045 63.9091C29.7045 64.6979 29.7808 65.4983 29.9332 66.3104C30.0857 67.1224 30.2912 67.8764 30.5497 68.5724C30.8082 69.2685 31.0966 69.8352 31.4148 70.2727H30.3807C29.7741 69.3878 29.3068 68.42 28.9787 67.3693C28.6539 66.3153 28.4915 65.1619 28.4915 63.9091ZM36.3081 69.1392C35.7247 69.1392 35.1994 69.0232 34.7321 68.7912C34.2647 68.5592 33.8902 68.241 33.6085 67.8366C33.3268 67.4323 33.1726 66.9716 33.1461 66.4545H34.3393C34.3857 66.9152 34.5945 67.2964 34.9657 67.598C35.3403 67.8963 35.7877 68.0455 36.3081 68.0455C36.7257 68.0455 37.0969 67.9477 37.4217 67.7521C37.7498 67.5566 38.0067 67.2881 38.1923 66.9467C38.3812 66.602 38.4757 66.2126 38.4757 65.7784C38.4757 65.3343 38.3779 64.9382 38.1824 64.5902C37.9901 64.2389 37.725 63.9621 37.3869 63.7599C37.0488 63.5578 36.6627 63.455 36.2285 63.4517C35.917 63.4484 35.5971 63.4964 35.269 63.5959C34.9409 63.692 34.6708 63.8163 34.4586 63.9688L33.3052 63.8295L33.9217 58.8182H39.2115V59.9119H34.9558L34.5978 62.9148H34.6575C34.8663 62.7491 35.1281 62.6115 35.443 62.5021C35.7579 62.3928 36.086 62.3381 36.4274 62.3381C37.0505 62.3381 37.6056 62.4872 38.0929 62.7855C38.5834 63.0805 38.9679 63.4848 39.2463 63.9986C39.528 64.5123 39.6689 65.099 39.6689 65.7585C39.6689 66.4081 39.523 66.9882 39.2314 67.4986C38.943 68.0057 38.5453 68.4067 38.0382 68.7017C37.5311 68.9934 36.9544 69.1392 36.3081 69.1392ZM44.8256 69.1392C44.2423 69.1392 43.717 69.0232 43.2496 68.7912C42.7823 68.5592 42.4078 68.241 42.1261 67.8366C41.8443 67.4323 41.6902 66.9716 41.6637 66.4545H42.8569C42.9033 66.9152 43.1121 67.2964 43.4833 67.598C43.8578 67.8963 44.3053 68.0455 44.8256 68.0455C45.2433 68.0455 45.6145 67.9477 45.9393 67.7521C46.2674 67.5566 46.5243 67.2881 46.7099 66.9467C46.8988 66.602 46.9933 66.2126 46.9933 65.7784C46.9933 65.3343 46.8955 64.9382 46.6999 64.5902C46.5077 64.2389 46.2425 63.9621 45.9045 63.7599C45.5664 63.5578 45.1803 63.455 44.7461 63.4517C44.4345 63.4484 44.1147 63.4964 43.7866 63.5959C43.4585 63.692 43.1883 63.8163 42.9762 63.9688L41.8228 63.8295L42.4393 58.8182H47.729V59.9119H43.4734L43.1154 62.9148H43.1751C43.3839 62.7491 43.6457 62.6115 43.9606 62.5021C44.2754 62.3928 44.6036 62.3381 44.945 62.3381C45.5681 62.3381 46.1232 62.4872 46.6104 62.7855C47.101 63.0805 47.4854 63.4848 47.7638 63.9986C48.0456 64.5123 48.1864 65.099 48.1864 65.7585C48.1864 66.4081 48.0406 66.9882 47.7489 67.4986C47.4606 68.0057 47.0629 68.4067 46.5558 68.7017C46.0487 68.9934 45.4719 69.1392 44.8256 69.1392ZM53.3432 69.1392C52.7599 69.1392 52.2346 69.0232 51.7672 68.7912C51.2999 68.5592 50.9254 68.241 50.6436 67.8366C50.3619 67.4323 50.2078 66.9716 50.1813 66.4545H51.3745C51.4209 66.9152 51.6297 67.2964 52.0009 67.598C52.3754 67.8963 52.8229 68.0455 53.3432 68.0455C53.7608 68.0455 54.132 67.9477 54.4569 67.7521C54.785 67.5566 55.0418 67.2881 55.2275 66.9467C55.4164 66.602 55.5108 66.2126 55.5108 65.7784C55.5108 65.3343 55.4131 64.9382 55.2175 64.5902C55.0253 64.2389 54.7601 63.9621 54.4221 63.7599C54.084 63.5578 53.6979 63.455 53.2637 63.4517C52.9521 63.4484 52.6323 63.4964 52.3042 63.5959C51.976 63.692 51.7059 63.8163 51.4938 63.9688L50.3404 63.8295L50.9569 58.8182H56.2466V59.9119H51.9909L51.633 62.9148H51.6926C51.9015 62.7491 52.1633 62.6115 52.4782 62.5021C52.793 62.3928 53.1212 62.3381 53.4625 62.3381C54.0856 62.3381 54.6408 62.4872 55.128 62.7855C55.6185 63.0805 56.003 63.4848 56.2814 63.9986C56.5632 64.5123 56.704 65.099 56.704 65.7585C56.704 66.4081 56.5582 66.9882 56.2665 67.4986C55.9782 68.0057 55.5804 68.4067 55.0733 68.7017C54.5662 68.9934 53.9895 69.1392 53.3432 69.1392ZM61.2045 63.9091C61.2045 65.1619 61.0405 66.3153 60.7124 67.3693C60.3875 68.42 59.9219 69.3878 59.3153 70.2727H58.2812C58.5199 69.9446 58.742 69.5402 58.9474 69.0597C59.1563 68.5824 59.3385 68.0587 59.4943 67.4886C59.6501 66.9152 59.7711 66.3236 59.8572 65.7138C59.9467 65.1006 59.9915 64.4991 59.9915 63.9091C59.9915 63.1203 59.9152 62.3198 59.7628 61.5078C59.6103 60.6958 59.4048 59.9418 59.1463 59.2457C58.8878 58.5497 58.5994 57.983 58.2812 57.5455H59.3153C59.9219 58.4304 60.3875 59.3999 60.7124 60.4538C61.0405 61.5045 61.2045 62.6562 61.2045 63.9091ZM70.8706 69.1392C70.2872 69.1392 69.7619 69.0232 69.2946 68.7912C68.8272 68.5592 68.4527 68.241 68.171 67.8366C67.8893 67.4323 67.7351 66.9716 67.7086 66.4545H68.9018C68.9482 66.9152 69.157 67.2964 69.5282 67.598C69.9028 67.8963 70.3502 68.0455 70.8706 68.0455C71.2882 68.0455 71.6594 67.9477 71.9842 67.7521C72.3123 67.5566 72.5692 67.2881 72.7548 66.9467C72.9437 66.602 73.0382 66.2126 73.0382 65.7784C73.0382 65.3343 72.9404 64.9382 72.7449 64.5902C72.5526 64.2389 72.2875 63.9621 71.9494 63.7599C71.6113 63.5578 71.2252 63.455 70.791 63.4517C70.4795 63.4484 70.1596 63.4964 69.8315 63.5959C69.5034 63.692 69.2333 63.8163 69.0211 63.9688L67.8677 63.8295L68.4842 58.8182H73.774V59.9119H69.5183L69.1603 62.9148H69.22C69.4288 62.7491 69.6906 62.6115 70.0055 62.5021C70.3204 62.3928 70.6485 62.3381 70.9899 62.3381C71.613 62.3381 72.1681 62.4872 72.6554 62.7855C73.1459 63.0805 73.5304 63.4848 73.8088 63.9986C74.0905 64.5123 74.2314 65.099 74.2314 65.7585C74.2314 66.4081 74.0855 66.9882 73.7939 67.4986C73.5055 68.0057 73.1078 68.4067 72.6007 68.7017C72.0936 68.9934 71.5169 69.1392 70.8706 69.1392ZM79.3881 69.1392C78.8048 69.1392 78.2795 69.0232 77.8121 68.7912C77.3448 68.5592 76.9703 68.241 76.6886 67.8366C76.4068 67.4323 76.2527 66.9716 76.2262 66.4545H77.4194C77.4658 66.9152 77.6746 67.2964 78.0458 67.598C78.4203 67.8963 78.8678 68.0455 79.3881 68.0455C79.8058 68.0455 80.177 67.9477 80.5018 67.7521C80.8299 67.5566 81.0868 67.2881 81.2724 66.9467C81.4613 66.602 81.5558 66.2126 81.5558 65.7784C81.5558 65.3343 81.458 64.9382 81.2624 64.5902C81.0702 64.2389 80.805 63.9621 80.467 63.7599C80.1289 63.5578 79.7428 63.455 79.3086 63.4517C78.997 63.4484 78.6772 63.4964 78.3491 63.5959C78.021 63.692 77.7508 63.8163 77.5387 63.9688L76.3853 63.8295L77.0018 58.8182H82.2915V59.9119H78.0359L77.6779 62.9148H77.7376C77.9464 62.7491 78.2082 62.6115 78.5231 62.5021C78.8379 62.3928 79.1661 62.3381 79.5075 62.3381C80.1306 62.3381 80.6857 62.4872 81.1729 62.7855C81.6635 63.0805 82.0479 63.4848 82.3263 63.9986C82.6081 64.5123 82.7489 65.099 82.7489 65.7585C82.7489 66.4081 82.6031 66.9882 82.3114 67.4986C82.0231 68.0057 81.6254 68.4067 81.1183 68.7017C80.6112 68.9934 80.0344 69.1392 79.3881 69.1392ZM87.9057 69.1392C87.3224 69.1392 86.7971 69.0232 86.3297 68.7912C85.8624 68.5592 85.4879 68.241 85.2061 67.8366C84.9244 67.4323 84.7703 66.9716 84.7438 66.4545H85.937C85.9834 66.9152 86.1922 67.2964 86.5634 67.598C86.9379 67.8963 87.3854 68.0455 87.9057 68.0455C88.3233 68.0455 88.6945 67.9477 89.0194 67.7521C89.3475 67.5566 89.6043 67.2881 89.79 66.9467C89.9789 66.602 90.0733 66.2126 90.0733 65.7784C90.0733 65.3343 89.9756 64.9382 89.78 64.5902C89.5878 64.2389 89.3226 63.9621 88.9846 63.7599C88.6465 63.5578 88.2604 63.455 87.8262 63.4517C87.5146 63.4484 87.1948 63.4964 86.8667 63.5959C86.5385 63.692 86.2684 63.8163 86.0563 63.9688L84.9029 63.8295L85.5194 58.8182H90.8091V59.9119H86.5534L86.1955 62.9148H86.2551C86.464 62.7491 86.7258 62.6115 87.0407 62.5021C87.3555 62.3928 87.6837 62.3381 88.025 62.3381C88.6481 62.3381 89.2033 62.4872 89.6905 62.7855C90.181 63.0805 90.5655 63.4848 90.8439 63.9986C91.1257 64.5123 91.2665 65.099 91.2665 65.7585C91.2665 66.4081 91.1207 66.9882 90.829 67.4986C90.5407 68.0057 90.1429 68.4067 89.6358 68.7017C89.1287 68.9934 88.552 69.1392 87.9057 69.1392ZM97.6364 63.3622V64.456H93.1818V63.3622H97.6364ZM102.863 69.1392C102.279 69.1392 101.754 69.0232 101.287 68.7912C100.819 68.5592 100.445 68.241 100.163 67.8366C99.8815 67.4323 99.7273 66.9716 99.7008 66.4545H100.894C100.94 66.9152 101.149 67.2964 101.52 67.598C101.895 67.8963 102.342 68.0455 102.863 68.0455C103.28 68.0455 103.652 67.9477 103.976 67.7521C104.305 67.5566 104.561 67.2881 104.747 66.9467C104.936 66.602 105.03 66.2126 105.03 65.7784C105.03 65.3343 104.933 64.9382 104.737 64.5902C104.545 64.2389 104.28 63.9621 103.942 63.7599C103.604 63.5578 103.217 63.455 102.783 63.4517C102.472 63.4484 102.152 63.4964 101.824 63.5959C101.496 63.692 101.225 63.8163 101.013 63.9688L99.8599 63.8295L100.476 58.8182H105.766V59.9119H101.51L101.153 62.9148H101.212C101.421 62.7491 101.683 62.6115 101.998 62.5021C102.313 62.3928 102.641 62.3381 102.982 62.3381C103.605 62.3381 104.16 62.4872 104.648 62.7855C105.138 63.0805 105.523 63.4848 105.801 63.9986C106.083 64.5123 106.224 65.099 106.224 65.7585C106.224 66.4081 106.078 66.9882 105.786 67.4986C105.498 68.0057 105.1 68.4067 104.593 68.7017C104.086 68.9934 103.509 69.1392 102.863 69.1392ZM111.38 69.1392C110.797 69.1392 110.272 69.0232 109.804 68.7912C109.337 68.5592 108.962 68.241 108.681 67.8366C108.399 67.4323 108.245 66.9716 108.218 66.4545H109.412C109.458 66.9152 109.667 67.2964 110.038 67.598C110.413 67.8963 110.86 68.0455 111.38 68.0455C111.798 68.0455 112.169 67.9477 112.494 67.7521C112.822 67.5566 113.079 67.2881 113.265 66.9467C113.453 66.602 113.548 66.2126 113.548 65.7784C113.548 65.3343 113.45 64.9382 113.255 64.5902C113.062 64.2389 112.797 63.9621 112.459 63.7599C112.121 63.5578 111.735 63.455 111.301 63.4517C110.989 63.4484 110.669 63.4964 110.341 63.5959C110.013 63.692 109.743 63.8163 109.531 63.9688L108.377 63.8295L108.994 58.8182H114.284V59.9119H110.028L109.67 62.9148H109.73C109.939 62.7491 110.2 62.6115 110.515 62.5021C110.83 62.3928 111.158 62.3381 111.5 62.3381C112.123 62.3381 112.678 62.4872 113.165 62.7855C113.656 63.0805 114.04 63.4848 114.319 63.9986C114.6 64.5123 114.741 65.099 114.741 65.7585C114.741 66.4081 114.595 66.9882 114.304 67.4986C114.015 68.0057 113.618 68.4067 113.11 68.7017C112.603 68.9934 112.027 69.1392 111.38 69.1392ZM119.898 69.1392C119.315 69.1392 118.789 69.0232 118.322 68.7912C117.855 68.5592 117.48 68.241 117.198 67.8366C116.917 67.4323 116.762 66.9716 116.736 66.4545H117.929C117.976 66.9152 118.184 67.2964 118.556 67.598C118.93 67.8963 119.378 68.0455 119.898 68.0455C120.316 68.0455 120.687 67.9477 121.012 67.7521C121.34 67.5566 121.597 67.2881 121.782 66.9467C121.971 66.602 122.066 66.2126 122.066 65.7784C122.066 65.3343 121.968 64.9382 121.772 64.5902C121.58 64.2389 121.315 63.9621 120.977 63.7599C120.639 63.5578 120.253 63.455 119.818 63.4517C119.507 63.4484 119.187 63.4964 118.859 63.5959C118.531 63.692 118.261 63.8163 118.048 63.9688L116.895 63.8295L117.512 58.8182H122.801V59.9119H118.546L118.188 62.9148H118.247C118.456 62.7491 118.718 62.6115 119.033 62.5021C119.348 62.3928 119.676 62.3381 120.017 62.3381C120.64 62.3381 121.195 62.4872 121.683 62.7855C122.173 63.0805 122.558 63.4848 122.836 63.9986C123.118 64.5123 123.259 65.099 123.259 65.7585C123.259 66.4081 123.113 66.9882 122.821 67.4986C122.533 68.0057 122.135 68.4067 121.628 68.7017C121.121 68.9934 120.544 69.1392 119.898 69.1392ZM128.415 69.1392C127.832 69.1392 127.307 69.0232 126.839 68.7912C126.372 68.5592 125.998 68.241 125.716 67.8366C125.434 67.4323 125.28 66.9716 125.254 66.4545H126.447C126.493 66.9152 126.702 67.2964 127.073 67.598C127.448 67.8963 127.895 68.0455 128.415 68.0455C128.833 68.0455 129.204 67.9477 129.529 67.7521C129.857 67.5566 130.114 67.2881 130.3 66.9467C130.489 66.602 130.583 66.2126 130.583 65.7784C130.583 65.3343 130.485 64.9382 130.29 64.5902C130.098 64.2389 129.832 63.9621 129.494 63.7599C129.156 63.5578 128.77 63.455 128.336 63.4517C128.024 63.4484 127.705 63.4964 127.376 63.5959C127.048 63.692 126.778 63.8163 126.566 63.9688L125.413 63.8295L126.029 58.8182H131.319V59.9119H127.063L126.705 62.9148H126.765C126.974 62.7491 127.236 62.6115 127.55 62.5021C127.865 62.3928 128.193 62.3381 128.535 62.3381C129.158 62.3381 129.713 62.4872 130.2 62.7855C130.691 63.0805 131.075 63.4848 131.354 63.9986C131.635 64.5123 131.776 65.099 131.776 65.7585C131.776 66.4081 131.63 66.9882 131.339 67.4986C131.05 68.0057 130.653 68.4067 130.146 68.7017C129.638 68.9934 129.062 69.1392 128.415 69.1392Z" fill="#233D48"/>
</svg>
