<svg width="274" height="50" viewBox="0 0 274 50" fill="none" xmlns="http://www.w3.org/2000/svg">
<path d="M8 0.5H266C270.142 0.5 273.5 3.85786 273.5 8V42C273.5 46.1421 270.142 49.5 266 49.5H8C3.85787 49.5 0.5 46.1421 0.5 42V8C0.5 3.85787 3.85786 0.5 8 0.5Z" fill="white"/>
<path d="M8 0.5H266C270.142 0.5 273.5 3.85786 273.5 8V42C273.5 46.1421 270.142 49.5 266 49.5H8C3.85787 49.5 0.5 46.1421 0.5 42V8C0.5 3.85787 3.85786 0.5 8 0.5Z" stroke="#DADFE2" stroke-linecap="round"/>
<path d="M17.233 29.5V19.3182H20.6733C21.4721 19.3182 22.125 19.4624 22.6321 19.7507C23.1425 20.0357 23.5204 20.4219 23.7656 20.9091C24.0109 21.3963 24.1335 21.9399 24.1335 22.5398C24.1335 23.1397 24.0109 23.6849 23.7656 24.1754C23.5237 24.666 23.1491 25.0571 22.642 25.3487C22.1349 25.6371 21.4853 25.7812 20.6932 25.7812H18.2273V24.6875H20.6534C21.2003 24.6875 21.6394 24.593 21.9709 24.4041C22.3023 24.2152 22.5426 23.96 22.6918 23.6385C22.8442 23.3137 22.9205 22.9474 22.9205 22.5398C22.9205 22.1321 22.8442 21.7675 22.6918 21.446C22.5426 21.1245 22.3007 20.8726 21.9659 20.6903C21.6312 20.5047 21.187 20.4119 20.6335 20.4119H18.4659V29.5H17.233ZM28.2077 29.679C27.7238 29.679 27.2847 29.5878 26.8903 29.4055C26.4959 29.2199 26.1826 28.9531 25.9506 28.6051C25.7186 28.2538 25.6026 27.8295 25.6026 27.3324C25.6026 26.8949 25.6888 26.5402 25.8612 26.2685C26.0335 25.9934 26.2638 25.7779 26.5522 25.6222C26.8406 25.4664 27.1587 25.3504 27.5067 25.2741C27.8581 25.1946 28.2111 25.1316 28.5657 25.0852C29.0297 25.0256 29.4059 24.9808 29.6942 24.951C29.9859 24.9179 30.198 24.8632 30.3306 24.7869C30.4665 24.7107 30.5344 24.5781 30.5344 24.3892V24.3494C30.5344 23.8589 30.4002 23.4777 30.1317 23.206C29.8666 22.9342 29.4639 22.7983 28.9237 22.7983C28.3635 22.7983 27.9244 22.9209 27.6062 23.1662C27.288 23.4115 27.0643 23.6733 26.935 23.9517L25.8214 23.554C26.0202 23.09 26.2854 22.7287 26.6168 22.4702C26.9516 22.2083 27.3162 22.026 27.7106 21.9233C28.1083 21.8172 28.4994 21.7642 28.8839 21.7642C29.1291 21.7642 29.4109 21.794 29.729 21.8537C30.0505 21.91 30.3604 22.0277 30.6587 22.2067C30.9603 22.3857 31.2106 22.6558 31.4094 23.017C31.6083 23.3783 31.7077 23.8622 31.7077 24.4688V29.5H30.5344V28.4659H30.4748C30.3952 28.6316 30.2627 28.8089 30.0771 28.9979C29.8915 29.1868 29.6445 29.3475 29.3363 29.4801C29.0281 29.6127 28.6519 29.679 28.2077 29.679ZM28.3867 28.625C28.8507 28.625 29.2418 28.5339 29.56 28.3516C29.8815 28.1693 30.1235 27.9339 30.2859 27.6456C30.4516 27.3572 30.5344 27.054 30.5344 26.7358V25.6619C30.4847 25.7216 30.3754 25.7763 30.2063 25.826C30.0406 25.8724 29.8484 25.9138 29.6296 25.9503C29.4142 25.9834 29.2037 26.0133 28.9982 26.0398C28.796 26.063 28.632 26.0829 28.506 26.0994C28.2011 26.1392 27.9161 26.2038 27.6509 26.2933C27.3891 26.3795 27.177 26.5104 27.0146 26.6861C26.8555 26.8584 26.7759 27.0937 26.7759 27.392C26.7759 27.7997 26.9267 28.108 27.2283 28.3168C27.5333 28.5223 27.9194 28.625 28.3867 28.625ZM39.2583 23.5739L38.2044 23.8722C38.1381 23.6965 38.0403 23.5258 37.911 23.3601C37.7851 23.1911 37.6127 23.0518 37.394 22.9425C37.1752 22.8331 36.8952 22.7784 36.5538 22.7784C36.0865 22.7784 35.697 22.8861 35.3855 23.1016C35.0772 23.3137 34.9231 23.5838 34.9231 23.9119C34.9231 24.2036 35.0292 24.4339 35.2413 24.603C35.4534 24.772 35.7849 24.9129 36.2356 25.0256L37.3691 25.304C38.0519 25.4697 38.5607 25.7232 38.8954 26.0646C39.2302 26.4027 39.3975 26.8385 39.3975 27.3722C39.3975 27.8097 39.2716 28.2008 39.0197 28.5455C38.7711 28.8902 38.4231 29.1619 37.9757 29.3608C37.5282 29.5597 37.0079 29.6591 36.4146 29.6591C35.6357 29.6591 34.9911 29.4901 34.4806 29.152C33.9702 28.8139 33.6471 28.3201 33.5112 27.6705L34.6248 27.392C34.7309 27.803 34.9314 28.1113 35.2264 28.3168C35.5247 28.5223 35.9141 28.625 36.3947 28.625C36.9416 28.625 37.3758 28.509 37.6973 28.277C38.0221 28.0417 38.1845 27.7599 38.1845 27.4318C38.1845 27.1667 38.0917 26.9446 37.9061 26.7656C37.7205 26.5833 37.4354 26.4474 37.051 26.358L35.7782 26.0597C35.0789 25.8939 34.5652 25.6371 34.237 25.2891C33.9122 24.9377 33.7498 24.4986 33.7498 23.9716C33.7498 23.5407 33.8708 23.1596 34.1127 22.8281C34.358 22.4967 34.6911 22.2365 35.112 22.0476C35.5363 21.8587 36.0169 21.7642 36.5538 21.7642C37.3095 21.7642 37.9028 21.9299 38.3336 22.2614C38.7678 22.5928 39.0761 23.0303 39.2583 23.5739ZM46.5728 23.5739L45.5188 23.8722C45.4525 23.6965 45.3548 23.5258 45.2255 23.3601C45.0996 23.1911 44.9272 23.0518 44.7085 22.9425C44.4897 22.8331 44.2096 22.7784 43.8683 22.7784C43.4009 22.7784 43.0115 22.8861 42.6999 23.1016C42.3917 23.3137 42.2376 23.5838 42.2376 23.9119C42.2376 24.2036 42.3436 24.4339 42.5558 24.603C42.7679 24.772 43.0993 24.9129 43.5501 25.0256L44.6836 25.304C45.3664 25.4697 45.8751 25.7232 46.2099 26.0646C46.5446 26.4027 46.712 26.8385 46.712 27.3722C46.712 27.8097 46.5861 28.2008 46.3342 28.5455C46.0856 28.8902 45.7376 29.1619 45.2901 29.3608C44.8427 29.5597 44.3223 29.6591 43.729 29.6591C42.9502 29.6591 42.3055 29.4901 41.7951 29.152C41.2847 28.8139 40.9615 28.3201 40.8256 27.6705L41.9393 27.392C42.0453 27.803 42.2459 28.1113 42.5408 28.3168C42.8391 28.5223 43.2286 28.625 43.7092 28.625C44.256 28.625 44.6902 28.509 45.0117 28.277C45.3365 28.0417 45.4989 27.7599 45.4989 27.4318C45.4989 27.1667 45.4061 26.9446 45.2205 26.7656C45.0349 26.5833 44.7499 26.4474 44.3654 26.358L43.0927 26.0597C42.3933 25.8939 41.8796 25.6371 41.5515 25.2891C41.2267 24.9377 41.0643 24.4986 41.0643 23.9716C41.0643 23.5407 41.1853 23.1596 41.4272 22.8281C41.6725 22.4967 42.0056 22.2365 42.4265 22.0476C42.8507 21.8587 43.3313 21.7642 43.8683 21.7642C44.6239 21.7642 45.2172 21.9299 45.6481 22.2614C46.0823 22.5928 46.3905 23.0303 46.5728 23.5739ZM50.2083 29.5L47.8816 21.8636H49.1145L50.7651 27.7102H50.8446L52.4753 21.8636H53.7282L55.339 27.6903H55.4185L57.0691 21.8636H58.302L55.9753 29.5H54.8219L53.1515 23.6335H53.0321L51.3617 29.5H50.2083ZM62.6957 29.6591C62.0063 29.6591 61.4014 29.495 60.881 29.1669C60.364 28.8388 59.9596 28.3797 59.668 27.7898C59.3796 27.1998 59.2354 26.5104 59.2354 25.7216C59.2354 24.9261 59.3796 24.2318 59.668 23.6385C59.9596 23.0452 60.364 22.5845 60.881 22.2564C61.4014 21.9283 62.0063 21.7642 62.6957 21.7642C63.3851 21.7642 63.9883 21.9283 64.5053 22.2564C65.0257 22.5845 65.43 23.0452 65.7184 23.6385C66.0101 24.2318 66.1559 24.9261 66.1559 25.7216C66.1559 26.5104 66.0101 27.1998 65.7184 27.7898C65.43 28.3797 65.0257 28.8388 64.5053 29.1669C63.9883 29.495 63.3851 29.6591 62.6957 29.6591ZM62.6957 28.6051C63.2193 28.6051 63.6502 28.4709 63.9883 28.2024C64.3263 27.9339 64.5766 27.581 64.739 27.1435C64.9014 26.706 64.9826 26.232 64.9826 25.7216C64.9826 25.2112 64.9014 24.7356 64.739 24.2947C64.5766 23.8539 64.3263 23.4976 63.9883 23.2259C63.6502 22.9541 63.2193 22.8182 62.6957 22.8182C62.172 22.8182 61.7411 22.9541 61.4031 23.2259C61.065 23.4976 60.8147 23.8539 60.6523 24.2947C60.4899 24.7356 60.4087 25.2112 60.4087 25.7216C60.4087 26.232 60.4899 26.706 60.6523 27.1435C60.8147 27.581 61.065 27.9339 61.4031 28.2024C61.7411 28.4709 62.172 28.6051 62.6957 28.6051ZM67.9469 29.5V21.8636H69.0804V23.017H69.16C69.2992 22.6392 69.5511 22.3326 69.9157 22.0973C70.2802 21.862 70.6912 21.7443 71.1486 21.7443C71.2348 21.7443 71.3425 21.746 71.4718 21.7493C71.601 21.7526 71.6988 21.7576 71.7651 21.7642V22.9574C71.7253 22.9474 71.6342 22.9325 71.4917 22.9126C71.3525 22.8894 71.205 22.8778 71.0492 22.8778C70.678 22.8778 70.3465 22.9557 70.0549 23.1115C69.7665 23.264 69.5378 23.4761 69.3688 23.7479C69.2031 24.0163 69.1202 24.3229 69.1202 24.6676V29.5H67.9469ZM75.807 29.6591C75.1706 29.6591 74.6088 29.4983 74.1216 29.1768C73.6344 28.852 73.2533 28.3946 72.9782 27.8047C72.7031 27.2114 72.5655 26.5104 72.5655 25.7017C72.5655 24.8996 72.7031 24.2036 72.9782 23.6136C73.2533 23.0237 73.6361 22.5679 74.1266 22.2464C74.6171 21.925 75.1839 21.7642 75.8269 21.7642C76.324 21.7642 76.7168 21.8471 77.0051 22.0128C77.2968 22.1752 77.5189 22.3608 77.6713 22.5696C77.8271 22.7751 77.9481 22.9441 78.0343 23.0767H78.1337V19.3182H79.307V29.5H78.1735V28.3267H78.0343C77.9481 28.4659 77.8255 28.6416 77.6664 28.8537C77.5073 29.0625 77.2802 29.2498 76.9853 29.4155C76.6903 29.5779 76.2975 29.6591 75.807 29.6591ZM75.9661 28.6051C76.4367 28.6051 76.8345 28.4825 77.1593 28.2372C77.4841 27.9886 77.731 27.6456 77.9 27.2081C78.0691 26.7673 78.1536 26.2585 78.1536 25.6818C78.1536 25.1117 78.0707 24.6129 77.905 24.1854C77.7393 23.7545 77.494 23.4197 77.1692 23.1811C76.8444 22.9392 76.4434 22.8182 75.9661 22.8182C75.4689 22.8182 75.0546 22.9458 74.7232 23.201C74.3951 23.4529 74.1481 23.7959 73.9824 24.2301C73.82 24.661 73.7388 25.1449 73.7388 25.6818C73.7388 26.2254 73.8217 26.7192 73.9874 27.1634C74.1564 27.6042 74.405 27.9555 74.7331 28.2173C75.0646 28.4759 75.4756 28.6051 75.9661 28.6051Z" fill="#627A84"/>
<path d="M242.695 19.7851L240.703 17.7889C240.531 17.6165 240.311 17.5202 240.086 17.5C240.058 17.4974 240.029 17.4961 240 17.496C239.743 17.495 239.485 17.5927 239.289 17.7889C239.072 18.006 238.976 18.298 239 18.5818C239.019 18.8084 239.116 19.0297 239.289 19.2031L241.243 21.161C239.81 22.6751 238.614 24.2544 238.137 25.0229C238.046 25.1706 238 25.3353 238 25.5C238 25.6647 238.046 25.8294 238.137 25.9771C239.205 27.7002 243.298 33.5 248 33.5C249.484 33.5 250.893 32.9224 252.159 32.0775L254.31 34.2073C254.457 34.3543 254.639 34.446 254.829 34.4823C254.885 34.4931 254.943 34.499 255 34.5C255.262 34.5044 255.525 34.4069 255.724 34.2073C255.967 33.9648 256.059 33.6289 256 33.3155C255.964 33.1241 255.872 32.9411 255.724 32.793L253.743 30.8331L242.695 19.7851ZM248 31.5C243.582 31.5 240 25.5 240 25.5C240 25.5 240.944 23.9184 242.461 22.3793L244.233 24.1515C244.082 24.5728 244 25.0268 244 25.5C244 27.7092 245.791 29.5 248 29.5C248.473 29.5 248.927 29.4178 249.349 29.267L250.813 30.7314C249.938 31.1988 248.99 31.5 248 31.5ZM246.057 25.9752C246.233 26.6981 246.802 27.267 247.525 27.4432L246.057 25.9752Z" fill="#233D48"/>
<path d="M247.299 21.5612L251.939 26.201C251.979 25.9734 252 25.7391 252 25.5C252 23.2909 250.209 21.5 248 21.5C247.761 21.5 247.527 21.521 247.299 21.5612Z" fill="#233D48"/>
<path d="M253.939 28.2008C255.22 26.8069 256 25.5 256 25.5C256 25.5 252.418 19.5 248 19.5C247.215 19.5 246.456 19.6895 245.739 20.0012L244.344 18.6061C245.476 17.9367 246.71 17.5 248 17.5C252.703 17.5 256.795 23.2998 257.863 25.0229C257.954 25.1706 258 25.3353 258 25.5C258 25.6647 257.954 25.8294 257.863 25.9771C257.431 26.6736 256.382 28.036 255.15 29.4122L253.939 28.2008Z" fill="#233D48"/>
</svg>
