<svg width="224" height="117" viewBox="0 0 224 117" fill="none" xmlns="http://www.w3.org/2000/svg">
<path d="M19 33.5H205C209.142 33.5 212.5 36.8579 212.5 41V75C212.5 79.1421 209.142 82.5 205 82.5H19C14.8579 82.5 11.5 79.1421 11.5 75V41C11.5 36.8579 14.8579 33.5 19 33.5Z" fill="white"/>
<path d="M19 33.5H205C209.142 33.5 212.5 36.8579 212.5 41V75C212.5 79.1421 209.142 82.5 205 82.5H19C14.8579 82.5 11.5 79.1421 11.5 75V41C11.5 36.8579 14.8579 33.5 19 33.5Z" stroke="#DADFE2" stroke-linecap="round"/>
<path d="M27.5795 42.2102V41.2727H34.125V42.2102H31.3807V50H30.3239V42.2102H27.5795ZM35.6197 50V43.4545H36.6254V50H35.6197ZM36.131 42.3636C35.935 42.3636 35.766 42.2969 35.6239 42.1634C35.4847 42.0298 35.4151 41.8693 35.4151 41.6818C35.4151 41.4943 35.4847 41.3338 35.6239 41.2003C35.766 41.0668 35.935 41 36.131 41C36.3271 41 36.4947 41.0668 36.6339 41.2003C36.7759 41.3338 36.8469 41.4943 36.8469 41.6818C36.8469 41.8693 36.7759 42.0298 36.6339 42.1634C36.4947 42.2969 36.3271 42.3636 36.131 42.3636ZM38.4673 50V43.4545H39.4389V44.4773H39.5241C39.6605 44.1278 39.8807 43.8565 40.1847 43.6634C40.4886 43.4673 40.8537 43.3693 41.2798 43.3693C41.7116 43.3693 42.071 43.4673 42.358 43.6634C42.6477 43.8565 42.8736 44.1278 43.0355 44.4773H43.1037C43.2713 44.1392 43.5227 43.8707 43.858 43.6719C44.1932 43.4702 44.5952 43.3693 45.0639 43.3693C45.6491 43.3693 46.1278 43.5526 46.5 43.919C46.8722 44.2827 47.0582 44.8494 47.0582 45.6193V50H46.0526V45.6193C46.0526 45.1364 45.9205 44.7912 45.6562 44.5838C45.392 44.3764 45.081 44.2727 44.723 44.2727C44.2628 44.2727 43.9063 44.4119 43.6534 44.6903C43.4006 44.9659 43.2741 45.3153 43.2741 45.7386V50H42.2514V45.517C42.2514 45.1449 42.1307 44.8452 41.8892 44.6179C41.6477 44.3878 41.3366 44.2727 40.956 44.2727C40.6946 44.2727 40.4503 44.3423 40.223 44.4815C39.9986 44.6207 39.8168 44.8139 39.6776 45.0611C39.5412 45.3054 39.473 45.5881 39.473 45.9091V50H38.4673ZM51.6413 50.1364C51.0107 50.1364 50.4666 49.9972 50.0092 49.7188C49.5547 49.4375 49.2038 49.0455 48.9567 48.5426C48.7124 48.0369 48.5902 47.4489 48.5902 46.7784C48.5902 46.108 48.7124 45.517 48.9567 45.0057C49.2038 44.4915 49.5476 44.0909 49.9879 43.804C50.4311 43.5142 50.9482 43.3693 51.5391 43.3693C51.88 43.3693 52.2166 43.4261 52.549 43.5398C52.8814 43.6534 53.1839 43.8381 53.4567 44.0938C53.7294 44.3466 53.9467 44.6818 54.1087 45.0994C54.2706 45.517 54.3516 46.0312 54.3516 46.642V47.0682H49.3061V46.1989H53.3288C53.3288 45.8295 53.255 45.5 53.1072 45.2102C52.9624 44.9205 52.755 44.6918 52.4851 44.5241C52.218 44.3565 51.9027 44.2727 51.5391 44.2727C51.1385 44.2727 50.7919 44.3722 50.4993 44.571C50.2095 44.767 49.9865 45.0227 49.8303 45.3381C49.674 45.6534 49.5959 45.9915 49.5959 46.3523V46.9318C49.5959 47.4261 49.6811 47.8452 49.8516 48.1889C50.0249 48.5298 50.2649 48.7898 50.5717 48.9688C50.8786 49.1449 51.2351 49.233 51.6413 49.233C51.9055 49.233 52.1442 49.196 52.3572 49.1222C52.5732 49.0455 52.7592 48.9318 52.9155 48.7812C53.0717 48.6278 53.1925 48.4375 53.2777 48.2102L54.2493 48.483C54.147 48.8125 53.9751 49.1023 53.7337 49.3523C53.4922 49.5994 53.1939 49.7926 52.8388 49.9318C52.4837 50.0682 52.0845 50.1364 51.6413 50.1364Z" fill="#627A84"/>
<path d="M31.6335 58.8182V69H30.4006V60.1108H30.3409L27.8551 61.7614V60.5085L30.4006 58.8182H31.6335ZM34.5618 69V68.1051L37.9226 64.4261C38.317 63.9953 38.6418 63.6207 38.897 63.3026C39.1522 62.9811 39.3411 62.6795 39.4638 62.3977C39.5897 62.1127 39.6527 61.8144 39.6527 61.5028C39.6527 61.1449 39.5665 60.835 39.3942 60.5732C39.2251 60.3113 38.9931 60.1091 38.6982 59.9666C38.4032 59.8241 38.0717 59.7528 37.7038 59.7528C37.3127 59.7528 36.9714 59.834 36.6797 59.9964C36.3913 60.1555 36.1676 60.3793 36.0085 60.6676C35.8527 60.956 35.7749 61.294 35.7749 61.6818H34.6016C34.6016 61.0852 34.7391 60.5616 35.0142 60.1108C35.2893 59.66 35.6638 59.3087 36.1378 59.0568C36.6151 58.8049 37.1503 58.679 37.7436 58.679C38.3402 58.679 38.8688 58.8049 39.3295 59.0568C39.7902 59.3087 40.1515 59.6484 40.4134 60.076C40.6752 60.5036 40.8061 60.9792 40.8061 61.5028C40.8061 61.8774 40.7382 62.2436 40.6023 62.6016C40.4697 62.9562 40.2377 63.3523 39.9062 63.7898C39.5781 64.224 39.1224 64.7543 38.5391 65.3807L36.2521 67.8267V67.9062H40.9851V69H34.5618ZM43.9134 67.6974C43.6681 67.6974 43.4576 67.6096 43.282 67.4339C43.1063 67.2583 43.0185 67.0478 43.0185 66.8026C43.0185 66.5573 43.1063 66.3468 43.282 66.1712C43.4576 65.9955 43.6681 65.9077 43.9134 65.9077C44.1586 65.9077 44.3691 65.9955 44.5447 66.1712C44.7204 66.3468 44.8082 66.5573 44.8082 66.8026C44.8082 66.965 44.7668 67.1141 44.6839 67.25C44.6044 67.3859 44.4967 67.4953 44.3608 67.5781C44.2282 67.6577 44.0791 67.6974 43.9134 67.6974ZM43.9134 62.5469C43.6681 62.5469 43.4576 62.459 43.282 62.2834C43.1063 62.1077 43.0185 61.8973 43.0185 61.652C43.0185 61.4067 43.1063 61.1963 43.282 61.0206C43.4576 60.8449 43.6681 60.7571 43.9134 60.7571C44.1586 60.7571 44.3691 60.8449 44.5447 61.0206C44.7204 61.1963 44.8082 61.4067 44.8082 61.652C44.8082 61.8144 44.7668 61.9635 44.6839 62.0994C44.6044 62.2353 44.4967 62.3447 44.3608 62.4276C44.2282 62.5071 44.0791 62.5469 43.9134 62.5469ZM50.2148 69.1392C49.4658 69.1392 48.8278 68.9354 48.3008 68.5277C47.7738 68.1167 47.3711 67.5218 47.0927 66.7429C46.8143 65.9607 46.6751 65.0161 46.6751 63.9091C46.6751 62.8087 46.8143 61.8691 47.0927 61.0902C47.3744 60.308 47.7788 59.7114 48.3058 59.3004C48.8361 58.8861 49.4724 58.679 50.2148 58.679C50.9573 58.679 51.592 58.8861 52.119 59.3004C52.6493 59.7114 53.0536 60.308 53.332 61.0902C53.6138 61.8691 53.7546 62.8087 53.7546 63.9091C53.7546 65.0161 53.6154 65.9607 53.337 66.7429C53.0586 67.5218 52.6559 68.1167 52.1289 68.5277C51.6019 68.9354 50.9639 69.1392 50.2148 69.1392ZM50.2148 68.0455C50.9573 68.0455 51.534 67.6875 51.945 66.9716C52.3559 66.2557 52.5614 65.2348 52.5614 63.9091C52.5614 63.0275 52.467 62.2768 52.2781 61.657C52.0924 61.0372 51.824 60.5649 51.4727 60.2401C51.1246 59.9152 50.7054 59.7528 50.2148 59.7528C49.479 59.7528 48.904 60.1158 48.4897 60.8416C48.0754 61.5642 47.8683 62.5866 47.8683 63.9091C47.8683 64.7907 47.9611 65.5398 48.1467 66.1562C48.3323 66.7727 48.5991 67.2417 48.9471 67.5632C49.2984 67.8847 49.721 68.0455 50.2148 68.0455ZM58.9648 69.1392C58.2158 69.1392 57.5778 68.9354 57.0508 68.5277C56.5238 68.1167 56.1211 67.5218 55.8427 66.7429C55.5643 65.9607 55.4251 65.0161 55.4251 63.9091C55.4251 62.8087 55.5643 61.8691 55.8427 61.0902C56.1244 60.308 56.5288 59.7114 57.0558 59.3004C57.5861 58.8861 58.2224 58.679 58.9648 58.679C59.7073 58.679 60.342 58.8861 60.869 59.3004C61.3993 59.7114 61.8036 60.308 62.082 61.0902C62.3638 61.8691 62.5046 62.8087 62.5046 63.9091C62.5046 65.0161 62.3654 65.9607 62.087 66.7429C61.8086 67.5218 61.4059 68.1167 60.8789 68.5277C60.3519 68.9354 59.7139 69.1392 58.9648 69.1392ZM58.9648 68.0455C59.7073 68.0455 60.284 67.6875 60.695 66.9716C61.1059 66.2557 61.3114 65.2348 61.3114 63.9091C61.3114 63.0275 61.217 62.2768 61.0281 61.657C60.8424 61.0372 60.574 60.5649 60.2227 60.2401C59.8746 59.9152 59.4554 59.7528 58.9648 59.7528C58.229 59.7528 57.654 60.1158 57.2397 60.8416C56.8254 61.5642 56.6183 62.5866 56.6183 63.9091C56.6183 64.7907 56.7111 65.5398 56.8967 66.1562C57.0823 66.7727 57.3491 67.2417 57.6971 67.5632C58.0484 67.8847 58.471 68.0455 58.9648 68.0455ZM68.5103 69V58.8182H71.9506C72.7494 58.8182 73.4023 58.9624 73.9094 59.2507C74.4199 59.5357 74.7977 59.9219 75.043 60.4091C75.2882 60.8963 75.4109 61.4399 75.4109 62.0398C75.4109 62.6397 75.2882 63.1849 75.043 63.6754C74.801 64.166 74.4265 64.5571 73.9194 64.8487C73.4123 65.1371 72.7627 65.2812 71.9705 65.2812H69.5046V64.1875H71.9308C72.4776 64.1875 72.9168 64.093 73.2482 63.9041C73.5797 63.7152 73.82 63.46 73.9691 63.1385C74.1216 62.8137 74.1978 62.4474 74.1978 62.0398C74.1978 61.6321 74.1216 61.2675 73.9691 60.946C73.82 60.6245 73.578 60.3726 73.2433 60.1903C72.9085 60.0047 72.4644 59.9119 71.9109 59.9119H69.7433V69H68.5103ZM77.397 58.8182H78.8686L82.3288 67.2699H82.4482L85.9084 58.8182H87.38V69H86.2266V61.2642H86.1271L82.9453 69H81.8317L78.6499 61.2642H78.5504V69H77.397V58.8182Z" fill="#233D48"/>
<path d="M187 54.4999C186.631 54.4999 186.333 54.7984 186.333 55.1666V58.9148L188.528 60.989C188.651 61.1116 188.81 61.1765 188.97 61.1836C189.15 61.1917 189.334 61.1268 189.471 60.989C189.606 60.8543 189.671 60.6764 189.666 60.4999C189.662 60.3353 189.597 60.1719 189.471 60.0462L187.666 58.3625V55.1666C187.666 54.7984 187.368 54.4999 187 54.4999Z" fill="#032B3A"/>
<path d="M193.666 58.4999C193.666 62.1818 190.682 65.1666 187 65.1666C183.318 65.1666 180.333 62.1818 180.333 58.4999C180.333 54.818 183.318 51.8333 187 51.8333C190.682 51.8333 193.666 54.818 193.666 58.4999ZM192.333 58.4999C192.333 55.5544 189.945 53.1666 187 53.1666C184.054 53.1666 181.666 55.5544 181.666 58.4999C181.666 61.4455 184.054 63.8333 187 63.8333C189.945 63.8333 192.333 61.4455 192.333 58.4999Z" fill="#032B3A"/>
</svg>
