<svg width="224" height="117" viewBox="0 0 224 117" fill="none" xmlns="http://www.w3.org/2000/svg">
<path d="M19 33.5H205C209.142 33.5 212.5 36.8579 212.5 41V75C212.5 79.1421 209.142 82.5 205 82.5H19C14.8579 82.5 11.5 79.1421 11.5 75V41C11.5 36.8579 14.8579 33.5 19 33.5Z" fill="white"/>
<path d="M19 33.5H205C209.142 33.5 212.5 36.8579 212.5 41V75C212.5 79.1421 209.142 82.5 205 82.5H19C14.8579 82.5 11.5 79.1421 11.5 75V41C11.5 36.8579 14.8579 33.5 19 33.5Z" stroke="#DADFE2" stroke-linecap="round"/>
<path d="M28.233 62.5V52.3182H31.6733C32.4721 52.3182 33.125 52.4624 33.6321 52.7507C34.1425 53.0357 34.5204 53.4219 34.7656 53.9091C35.0109 54.3963 35.1335 54.9399 35.1335 55.5398C35.1335 56.1397 35.0109 56.6849 34.7656 57.1754C34.5237 57.666 34.1491 58.0571 33.642 58.3487C33.1349 58.6371 32.4853 58.7812 31.6932 58.7812H29.2273V57.6875H31.6534C32.2003 57.6875 32.6394 57.593 32.9709 57.4041C33.3023 57.2152 33.5426 56.96 33.6918 56.6385C33.8442 56.3137 33.9205 55.9474 33.9205 55.5398C33.9205 55.1321 33.8442 54.7675 33.6918 54.446C33.5426 54.1245 33.3007 53.8726 32.9659 53.6903C32.6312 53.5047 32.187 53.4119 31.6335 53.4119H29.4659V62.5H28.233ZM39.2077 62.679C38.7238 62.679 38.2847 62.5878 37.8903 62.4055C37.4959 62.2199 37.1826 61.9531 36.9506 61.6051C36.7186 61.2538 36.6026 60.8295 36.6026 60.3324C36.6026 59.8949 36.6888 59.5402 36.8612 59.2685C37.0335 58.9934 37.2638 58.7779 37.5522 58.6222C37.8406 58.4664 38.1587 58.3504 38.5067 58.2741C38.8581 58.1946 39.2111 58.1316 39.5657 58.0852C40.0297 58.0256 40.4059 57.9808 40.6942 57.951C40.9859 57.9179 41.198 57.8632 41.3306 57.7869C41.4665 57.7107 41.5344 57.5781 41.5344 57.3892V57.3494C41.5344 56.8589 41.4002 56.4777 41.1317 56.206C40.8666 55.9342 40.4639 55.7983 39.9237 55.7983C39.3635 55.7983 38.9244 55.9209 38.6062 56.1662C38.288 56.4115 38.0643 56.6733 37.935 56.9517L36.8214 56.554C37.0202 56.09 37.2854 55.7287 37.6168 55.4702C37.9516 55.2083 38.3162 55.026 38.7106 54.9233C39.1083 54.8172 39.4994 54.7642 39.8839 54.7642C40.1291 54.7642 40.4109 54.794 40.729 54.8537C41.0505 54.91 41.3604 55.0277 41.6587 55.2067C41.9603 55.3857 42.2106 55.6558 42.4094 56.017C42.6083 56.3783 42.7077 56.8622 42.7077 57.4688V62.5H41.5344V61.4659H41.4748C41.3952 61.6316 41.2627 61.8089 41.0771 61.9979C40.8915 62.1868 40.6445 62.3475 40.3363 62.4801C40.0281 62.6127 39.6519 62.679 39.2077 62.679ZM39.3867 61.625C39.8507 61.625 40.2418 61.5339 40.56 61.3516C40.8815 61.1693 41.1235 60.9339 41.2859 60.6456C41.4516 60.3572 41.5344 60.054 41.5344 59.7358V58.6619C41.4847 58.7216 41.3754 58.7763 41.2063 58.826C41.0406 58.8724 40.8484 58.9138 40.6296 58.9503C40.4142 58.9834 40.2037 59.0133 39.9982 59.0398C39.796 59.063 39.632 59.0829 39.506 59.0994C39.2011 59.1392 38.9161 59.2038 38.6509 59.2933C38.3891 59.3795 38.177 59.5104 38.0146 59.6861C37.8555 59.8584 37.7759 60.0937 37.7759 60.392C37.7759 60.7997 37.9267 61.108 38.2283 61.3168C38.5333 61.5223 38.9194 61.625 39.3867 61.625ZM50.2583 56.5739L49.2044 56.8722C49.1381 56.6965 49.0403 56.5258 48.911 56.3601C48.7851 56.1911 48.6127 56.0518 48.394 55.9425C48.1752 55.8331 47.8952 55.7784 47.5538 55.7784C47.0865 55.7784 46.697 55.8861 46.3855 56.1016C46.0772 56.3137 45.9231 56.5838 45.9231 56.9119C45.9231 57.2036 46.0292 57.4339 46.2413 57.603C46.4534 57.772 46.7849 57.9129 47.2356 58.0256L48.3691 58.304C49.0519 58.4697 49.5607 58.7232 49.8954 59.0646C50.2302 59.4027 50.3975 59.8385 50.3975 60.3722C50.3975 60.8097 50.2716 61.2008 50.0197 61.5455C49.7711 61.8902 49.4231 62.1619 48.9757 62.3608C48.5282 62.5597 48.0079 62.6591 47.4146 62.6591C46.6357 62.6591 45.9911 62.4901 45.4806 62.152C44.9702 61.8139 44.6471 61.3201 44.5112 60.6705L45.6248 60.392C45.7309 60.803 45.9314 61.1113 46.2264 61.3168C46.5247 61.5223 46.9141 61.625 47.3947 61.625C47.9416 61.625 48.3758 61.509 48.6973 61.277C49.0221 61.0417 49.1845 60.7599 49.1845 60.4318C49.1845 60.1667 49.0917 59.9446 48.9061 59.7656C48.7205 59.5833 48.4354 59.4474 48.051 59.358L46.7782 59.0597C46.0789 58.8939 45.5652 58.6371 45.237 58.2891C44.9122 57.9377 44.7498 57.4986 44.7498 56.9716C44.7498 56.5407 44.8708 56.1596 45.1127 55.8281C45.358 55.4967 45.6911 55.2365 46.112 55.0476C46.5363 54.8587 47.0169 54.7642 47.5538 54.7642C48.3095 54.7642 48.9028 54.9299 49.3336 55.2614C49.7678 55.5928 50.0761 56.0303 50.2583 56.5739ZM57.5728 56.5739L56.5188 56.8722C56.4525 56.6965 56.3548 56.5258 56.2255 56.3601C56.0996 56.1911 55.9272 56.0518 55.7085 55.9425C55.4897 55.8331 55.2096 55.7784 54.8683 55.7784C54.4009 55.7784 54.0115 55.8861 53.6999 56.1016C53.3917 56.3137 53.2376 56.5838 53.2376 56.9119C53.2376 57.2036 53.3436 57.4339 53.5558 57.603C53.7679 57.772 54.0993 57.9129 54.5501 58.0256L55.6836 58.304C56.3664 58.4697 56.8751 58.7232 57.2099 59.0646C57.5446 59.4027 57.712 59.8385 57.712 60.3722C57.712 60.8097 57.5861 61.2008 57.3342 61.5455C57.0856 61.8902 56.7376 62.1619 56.2901 62.3608C55.8427 62.5597 55.3223 62.6591 54.729 62.6591C53.9502 62.6591 53.3055 62.4901 52.7951 62.152C52.2847 61.8139 51.9615 61.3201 51.8256 60.6705L52.9393 60.392C53.0453 60.803 53.2459 61.1113 53.5408 61.3168C53.8391 61.5223 54.2286 61.625 54.7092 61.625C55.256 61.625 55.6902 61.509 56.0117 61.277C56.3365 61.0417 56.4989 60.7599 56.4989 60.4318C56.4989 60.1667 56.4061 59.9446 56.2205 59.7656C56.0349 59.5833 55.7499 59.4474 55.3654 59.358L54.0927 59.0597C53.3933 58.8939 52.8796 58.6371 52.5515 58.2891C52.2267 57.9377 52.0643 57.4986 52.0643 56.9716C52.0643 56.5407 52.1853 56.1596 52.4272 55.8281C52.6725 55.4967 53.0056 55.2365 53.4265 55.0476C53.8507 54.8587 54.3313 54.7642 54.8683 54.7642C55.6239 54.7642 56.2172 54.9299 56.6481 55.2614C57.0823 55.5928 57.3905 56.0303 57.5728 56.5739ZM61.2083 62.5L58.8816 54.8636H60.1145L61.7651 60.7102H61.8446L63.4753 54.8636H64.7282L66.339 60.6903H66.4185L68.0691 54.8636H69.302L66.9753 62.5H65.8219L64.1515 56.6335H64.0321L62.3617 62.5H61.2083ZM73.6957 62.6591C73.0063 62.6591 72.4014 62.495 71.881 62.1669C71.364 61.8388 70.9596 61.3797 70.668 60.7898C70.3796 60.1998 70.2354 59.5104 70.2354 58.7216C70.2354 57.9261 70.3796 57.2318 70.668 56.6385C70.9596 56.0452 71.364 55.5845 71.881 55.2564C72.4014 54.9283 73.0063 54.7642 73.6957 54.7642C74.3851 54.7642 74.9883 54.9283 75.5053 55.2564C76.0257 55.5845 76.43 56.0452 76.7184 56.6385C77.0101 57.2318 77.1559 57.9261 77.1559 58.7216C77.1559 59.5104 77.0101 60.1998 76.7184 60.7898C76.43 61.3797 76.0257 61.8388 75.5053 62.1669C74.9883 62.495 74.3851 62.6591 73.6957 62.6591ZM73.6957 61.6051C74.2193 61.6051 74.6502 61.4709 74.9883 61.2024C75.3263 60.9339 75.5766 60.581 75.739 60.1435C75.9014 59.706 75.9826 59.232 75.9826 58.7216C75.9826 58.2112 75.9014 57.7356 75.739 57.2947C75.5766 56.8539 75.3263 56.4976 74.9883 56.2259C74.6502 55.9541 74.2193 55.8182 73.6957 55.8182C73.172 55.8182 72.7411 55.9541 72.4031 56.2259C72.065 56.4976 71.8147 56.8539 71.6523 57.2947C71.4899 57.7356 71.4087 58.2112 71.4087 58.7216C71.4087 59.232 71.4899 59.706 71.6523 60.1435C71.8147 60.581 72.065 60.9339 72.4031 61.2024C72.7411 61.4709 73.172 61.6051 73.6957 61.6051ZM78.9469 62.5V54.8636H80.0804V56.017H80.16C80.2992 55.6392 80.5511 55.3326 80.9157 55.0973C81.2802 54.862 81.6912 54.7443 82.1486 54.7443C82.2348 54.7443 82.3425 54.746 82.4718 54.7493C82.601 54.7526 82.6988 54.7576 82.7651 54.7642V55.9574C82.7253 55.9474 82.6342 55.9325 82.4917 55.9126C82.3525 55.8894 82.205 55.8778 82.0492 55.8778C81.678 55.8778 81.3465 55.9557 81.0549 56.1115C80.7665 56.264 80.5378 56.4761 80.3688 56.7479C80.2031 57.0163 80.1202 57.3229 80.1202 57.6676V62.5H78.9469ZM86.807 62.6591C86.1706 62.6591 85.6088 62.4983 85.1216 62.1768C84.6344 61.852 84.2533 61.3946 83.9782 60.8047C83.7031 60.2114 83.5655 59.5104 83.5655 58.7017C83.5655 57.8996 83.7031 57.2036 83.9782 56.6136C84.2533 56.0237 84.6361 55.5679 85.1266 55.2464C85.6171 54.925 86.1839 54.7642 86.8269 54.7642C87.324 54.7642 87.7168 54.8471 88.0051 55.0128C88.2968 55.1752 88.5189 55.3608 88.6713 55.5696C88.8271 55.7751 88.9481 55.9441 89.0343 56.0767H89.1337V52.3182H90.307V62.5H89.1735V61.3267H89.0343C88.9481 61.4659 88.8255 61.6416 88.6664 61.8537C88.5073 62.0625 88.2802 62.2498 87.9853 62.4155C87.6903 62.5779 87.2975 62.6591 86.807 62.6591ZM86.9661 61.6051C87.4367 61.6051 87.8345 61.4825 88.1593 61.2372C88.4841 60.9886 88.731 60.6456 88.9 60.2081C89.0691 59.7673 89.1536 59.2585 89.1536 58.6818C89.1536 58.1117 89.0707 57.6129 88.905 57.1854C88.7393 56.7545 88.494 56.4197 88.1692 56.1811C87.8444 55.9392 87.4434 55.8182 86.9661 55.8182C86.4689 55.8182 86.0546 55.9458 85.7232 56.201C85.3951 56.4529 85.1481 56.7959 84.9824 57.2301C84.82 57.661 84.7388 58.1449 84.7388 58.6818C84.7388 59.2254 84.8217 59.7192 84.9874 60.1634C85.1564 60.6042 85.405 60.9555 85.7331 61.2173C86.0646 61.4759 86.4756 61.6051 86.9661 61.6051Z" fill="#627A84"/>
<path d="M181.695 52.7851L179.703 50.7889C179.531 50.6165 179.311 50.5202 179.086 50.5C179.058 50.4974 179.029 50.4961 179 50.496C178.743 50.495 178.485 50.5927 178.289 50.7889C178.072 51.006 177.976 51.298 178 51.5818C178.019 51.8084 178.116 52.0297 178.289 52.2031L180.243 54.161C178.81 55.6751 177.614 57.2544 177.137 58.0229C177.046 58.1706 177 58.3353 177 58.5C177 58.6647 177.046 58.8294 177.137 58.9771C178.205 60.7002 182.298 66.5 187 66.5C188.484 66.5 189.893 65.9224 191.159 65.0775L193.31 67.2073C193.457 67.3543 193.639 67.446 193.829 67.4823C193.885 67.4931 193.943 67.499 194 67.5C194.262 67.5044 194.525 67.4069 194.724 67.2073C194.967 66.9648 195.059 66.6289 195 66.3155C194.964 66.1241 194.872 65.9411 194.724 65.793L192.743 63.8331L181.695 52.7851ZM187 64.5C182.582 64.5 179 58.5 179 58.5C179 58.5 179.944 56.9184 181.461 55.3793L183.233 57.1515C183.082 57.5728 183 58.0268 183 58.5C183 60.7092 184.791 62.5 187 62.5C187.473 62.5 187.927 62.4178 188.349 62.267L189.813 63.7314C188.938 64.1988 187.99 64.5 187 64.5ZM185.057 58.9752C185.233 59.6981 185.802 60.267 186.525 60.4432L185.057 58.9752Z" fill="#233D48"/>
<path d="M186.299 54.5612L190.939 59.201C190.979 58.9734 191 58.7391 191 58.5C191 56.2909 189.209 54.5 187 54.5C186.761 54.5 186.527 54.521 186.299 54.5612Z" fill="#233D48"/>
<path d="M192.939 61.2008C194.22 59.8069 195 58.5 195 58.5C195 58.5 191.418 52.5 187 52.5C186.215 52.5 185.456 52.6895 184.739 53.0012L183.344 51.6061C184.476 50.9367 185.71 50.5 187 50.5C191.703 50.5 195.795 56.2998 196.863 58.0229C196.954 58.1706 197 58.3353 197 58.5C197 58.6647 196.954 58.8294 196.863 58.9771C196.431 59.6736 195.382 61.036 194.15 62.4122L192.939 61.2008Z" fill="#233D48"/>
</svg>
