<svg width="274" height="84" viewBox="0 0 274 84" fill="none" xmlns="http://www.w3.org/2000/svg">
<path d="M1.34748 80.4449C0.772839 79.5866 0.359908 78.6108 0.152273 77.5613L0.642767 77.4643C0.549158 76.9911 0.5 76.5015 0.5 76V74.1111H0V70.3333H0.5V66.5556H0V62.7778H0.5V59H0V55.2222H0.5V51.4445H0V47.6667H0.5V43.8889H0V40.1111H0.5V36.3333H0V32.5556H0.5V28.7778H0V25H0.5V21.2222H0V17.4444H0.5V13.6667H0V9.88889H0.5V8C0.5 7.49847 0.549158 7.00892 0.642766 6.53574L0.152272 6.4387C0.359906 5.38915 0.772837 4.41341 1.34748 3.55508L1.76296 3.83324C2.31067 3.01513 3.01513 2.31067 3.83323 1.76296L3.55507 1.34748C4.41341 0.772837 5.38915 0.359906 6.4387 0.152272L6.53574 0.642766C7.00892 0.549158 7.49847 0.5 8 0.5H10.0156V0H14.0469V0.5H18.0781V0H22.1094V0.5H26.1406V0H30.1719V0.5H34.2031V0H38.2344V0.5H42.2656V0H46.2969V0.5H50.3281V0H54.3594V0.5H58.3906V0H62.4219V0.5H66.4531V0H70.4844V0.5H74.5156V0H78.5469V0.5H82.5781V0H86.6094V0.5H90.6406V0H94.6719V0.5H98.7031V0H102.734V0.5H106.766V0H110.797V0.5H114.828V0H118.859V0.5H122.891V0H126.922V0.5H130.953V0H134.984V0.5H139.016V0H143.047V0.5H147.078V0H151.109V0.5H155.141V0H159.172V0.5H163.203V0H167.234V0.5H171.266V0H175.297V0.5H179.328V0H183.359V0.5H187.391V0H191.422V0.5H195.453V0H199.484V0.5H203.516V0H207.547V0.5H211.578V0H215.609V0.5H219.641V0H223.672V0.5H227.703V0H231.734V0.5H235.766V0H239.797V0.5H243.828V0H247.859V0.5H251.891V0H255.922V0.5H259.953V0H263.984V0.5H266C266.502 0.5 266.991 0.549158 267.464 0.642767L267.561 0.152272C268.611 0.359907 269.587 0.772839 270.445 1.34748L270.167 1.76296C270.985 2.31067 271.689 3.01513 272.237 3.83323L272.653 3.55507C273.227 4.4134 273.64 5.38914 273.848 6.4387L273.357 6.53574C273.451 7.00892 273.5 7.49847 273.5 8V9.88888H274V13.6667H273.5V17.4444H274V21.2222H273.5V25H274V28.7778H273.5V32.5555H274V36.3333H273.5V40.1111H274V43.8889H273.5V47.6667H274V51.4444H273.5V55.2222H274V59H273.5V62.7778H274V66.5556H273.5V70.3333H274V74.1111H273.5V76C273.5 76.5015 273.451 76.9911 273.357 77.4643L273.848 77.5613C273.64 78.6109 273.227 79.5866 272.653 80.4449L272.237 80.1668C271.689 80.9849 270.985 81.6893 270.167 82.237L270.445 82.6525C269.587 83.2272 268.611 83.6401 267.561 83.8477L267.464 83.3572C266.991 83.4508 266.502 83.5 266 83.5H263.984V84H259.953V83.5H255.922V84H251.891V83.5H247.859V84H243.828V83.5H239.797V84H235.766V83.5H231.734V84H227.703V83.5H223.672V84H219.641V83.5H215.609V84H211.578V83.5H207.547V84H203.516V83.5H199.484V84H195.453V83.5H191.422V84H187.391V83.5H183.359V84H179.328V83.5H175.297V84H171.266V83.5H167.234V84H163.203V83.5H159.172V84H155.141V83.5H151.109V84H147.078V83.5H143.047V84H139.016V83.5H134.984V84H130.953V83.5H126.922V84H122.891V83.5H118.859V84H114.828V83.5H110.797V84H106.766V83.5H102.734V84H98.7031V83.5H94.6719V84H90.6406V83.5H86.6094V84H82.5781V83.5H78.5469V84H74.5156V83.5H70.4844V84H66.4531V83.5H62.4219V84H58.3906V83.5H54.3594V84H50.3281V83.5H46.2969V84H42.2656V83.5H38.2344V84H34.2031V83.5H30.1719V84H26.1406V83.5H22.1094V84H18.0781V83.5H14.0469V84H10.0156V83.5H8C7.49847 83.5 7.00892 83.4508 6.53574 83.3572L6.43871 83.8477C5.38915 83.6401 4.41341 83.2272 3.55508 82.6525L3.83324 82.237C3.01514 81.6893 2.31067 80.9849 1.76296 80.1668L1.34748 80.4449Z" stroke="#DADFE2" stroke-dasharray="4 4"/>
<path d="M85.5 22C85.5 17.8579 88.8579 14.5 93 14.5H179C183.142 14.5 186.5 17.8579 186.5 22V38C186.5 42.1421 183.142 45.5 179 45.5H93C88.8579 45.5 85.5 42.1421 85.5 38V22Z" fill="white"/>
<path d="M85.5 22C85.5 17.8579 88.8579 14.5 93 14.5H179C183.142 14.5 186.5 17.8579 186.5 22V38C186.5 42.1421 183.142 45.5 179 45.5H93C88.8579 45.5 85.5 42.1421 85.5 38V22Z" stroke="#DADFE2"/>
<path d="M103.689 27.6172C103.643 27.183 103.447 26.8449 103.102 26.603C102.761 26.361 102.317 26.2401 101.77 26.2401C101.386 26.2401 101.056 26.2981 100.781 26.4141C100.506 26.5301 100.295 26.6875 100.149 26.8864C100.003 27.0852 99.9288 27.3123 99.9255 27.5675C99.9255 27.7796 99.9736 27.9635 100.07 28.1193C100.169 28.2751 100.303 28.4077 100.472 28.517C100.641 28.6231 100.829 28.7126 101.034 28.7855C101.24 28.8584 101.447 28.9197 101.656 28.9695L102.61 29.2081C102.995 29.2976 103.364 29.4186 103.719 29.571C104.077 29.7235 104.397 29.9157 104.678 30.1477C104.963 30.3797 105.189 30.6598 105.354 30.9879C105.52 31.3161 105.603 31.7005 105.603 32.1413C105.603 32.7379 105.451 33.2633 105.146 33.7173C104.841 34.1681 104.4 34.5211 103.823 34.7763C103.25 35.0282 102.555 35.1541 101.74 35.1541C100.948 35.1541 100.26 35.0315 99.6769 34.7862C99.0969 34.541 98.6428 34.183 98.3147 33.7124C97.9899 33.2417 97.8142 32.6683 97.7877 31.9922H99.6024C99.6289 32.3468 99.7383 32.6418 99.9305 32.8771C100.123 33.1125 100.373 33.2881 100.681 33.4041C100.993 33.5201 101.341 33.5781 101.725 33.5781C102.126 33.5781 102.478 33.5185 102.779 33.3991C103.084 33.2765 103.323 33.1075 103.495 32.892C103.667 32.6733 103.755 32.4181 103.759 32.1264C103.755 31.8613 103.677 31.6425 103.525 31.4702C103.372 31.2945 103.159 31.1487 102.884 31.0327C102.612 30.9134 102.294 30.8073 101.929 30.7145L100.771 30.4162C99.9321 30.2008 99.2693 29.8743 98.782 29.4368C98.2981 28.996 98.0562 28.411 98.0562 27.6818C98.0562 27.0819 98.2186 26.5566 98.5434 26.1058C98.8715 25.6551 99.3173 25.3054 99.8808 25.0568C100.444 24.8049 101.082 24.679 101.795 24.679C102.517 24.679 103.15 24.8049 103.694 25.0568C104.241 25.3054 104.67 25.6518 104.982 26.0959C105.293 26.5367 105.454 27.0438 105.464 27.6172H103.689ZM110.549 35.1491C109.783 35.1491 109.122 34.9901 108.565 34.6719C108.011 34.3504 107.585 33.8963 107.287 33.3097C106.989 32.7197 106.84 32.0253 106.84 31.2266C106.84 30.4411 106.989 29.7517 107.287 29.1584C107.589 28.5618 108.01 28.0978 108.55 27.7663C109.09 27.4316 109.725 27.2642 110.454 27.2642C110.925 27.2642 111.369 27.3404 111.786 27.4929C112.207 27.642 112.579 27.8741 112.9 28.1889C113.225 28.5038 113.48 28.9048 113.666 29.392C113.851 29.8759 113.944 30.4527 113.944 31.1222V31.674H107.685V30.4609H112.219C112.216 30.1162 112.141 29.8097 111.995 29.5412C111.849 29.2694 111.646 29.0556 111.384 28.8999C111.125 28.7441 110.824 28.6662 110.479 28.6662C110.111 28.6662 109.788 28.7557 109.509 28.9347C109.231 29.1103 109.014 29.3423 108.858 29.6307C108.706 29.9157 108.628 30.2289 108.625 30.5703V31.6293C108.625 32.0734 108.706 32.4545 108.868 32.7727C109.031 33.0876 109.258 33.3295 109.549 33.4986C109.841 33.6643 110.182 33.7472 110.573 33.7472C110.835 33.7472 111.072 33.7107 111.284 33.6378C111.496 33.5616 111.68 33.4505 111.836 33.3047C111.992 33.1589 112.11 32.9782 112.189 32.7628L113.87 32.9517C113.764 33.3958 113.561 33.7836 113.263 34.1151C112.968 34.4432 112.59 34.6984 112.13 34.8807C111.669 35.0597 111.142 35.1491 110.549 35.1491ZM117.266 24.8182V35H115.467V24.8182H117.266ZM122.498 35.1491C121.732 35.1491 121.071 34.9901 120.514 34.6719C119.961 34.3504 119.535 33.8963 119.236 33.3097C118.938 32.7197 118.789 32.0253 118.789 31.2266C118.789 30.4411 118.938 29.7517 119.236 29.1584C119.538 28.5618 119.959 28.0978 120.499 27.7663C121.039 27.4316 121.674 27.2642 122.403 27.2642C122.874 27.2642 123.318 27.3404 123.736 27.4929C124.157 27.642 124.528 27.8741 124.849 28.1889C125.174 28.5038 125.429 28.9048 125.615 29.392C125.801 29.8759 125.893 30.4527 125.893 31.1222V31.674H119.634V30.4609H124.168C124.165 30.1162 124.09 29.8097 123.945 29.5412C123.799 29.2694 123.595 29.0556 123.333 28.8999C123.074 28.7441 122.773 28.6662 122.428 28.6662C122.06 28.6662 121.737 28.7557 121.459 28.9347C121.18 29.1103 120.963 29.3423 120.807 29.6307C120.655 29.9157 120.577 30.2289 120.574 30.5703V31.6293C120.574 32.0734 120.655 32.4545 120.817 32.7727C120.98 33.0876 121.207 33.3295 121.498 33.4986C121.79 33.6643 122.132 33.7472 122.523 33.7472C122.784 33.7472 123.021 33.7107 123.234 33.6378C123.446 33.5616 123.63 33.4505 123.785 33.3047C123.941 33.1589 124.059 32.9782 124.138 32.7628L125.819 32.9517C125.713 33.3958 125.511 33.7836 125.212 34.1151C124.917 34.4432 124.539 34.6984 124.079 34.8807C123.618 35.0597 123.091 35.1491 122.498 35.1491ZM130.747 35.1491C129.985 35.1491 129.33 34.9818 128.783 34.647C128.24 34.3123 127.82 33.8499 127.525 33.2599C127.234 32.6667 127.088 31.9839 127.088 31.2116C127.088 30.4361 127.237 29.7517 127.535 29.1584C127.834 28.5618 128.254 28.0978 128.798 27.7663C129.345 27.4316 129.991 27.2642 130.737 27.2642C131.357 27.2642 131.905 27.3786 132.383 27.6072C132.863 27.8326 133.246 28.1525 133.531 28.5668C133.816 28.9777 133.978 29.4583 134.018 30.0085H132.298C132.228 29.6406 132.063 29.334 131.801 29.0888C131.542 28.8402 131.196 28.7159 130.762 28.7159C130.394 28.7159 130.071 28.8153 129.792 29.0142C129.514 29.2098 129.297 29.4915 129.141 29.8594C128.989 30.2273 128.912 30.6681 128.912 31.1818C128.912 31.7022 128.989 32.1496 129.141 32.5241C129.294 32.8954 129.507 33.1821 129.782 33.3842C130.061 33.5831 130.387 33.6825 130.762 33.6825C131.027 33.6825 131.264 33.6328 131.473 33.5334C131.685 33.4306 131.862 33.2831 132.005 33.0909C132.147 32.8987 132.245 32.665 132.298 32.3899H134.018C133.975 32.9302 133.816 33.4091 133.541 33.8267C133.266 34.241 132.891 34.5658 132.417 34.8011C131.943 35.0331 131.387 35.1491 130.747 35.1491ZM139.309 27.3636V28.7557H134.919V27.3636H139.309ZM136.003 25.5341H137.803V32.7031C137.803 32.9451 137.839 33.1307 137.912 33.2599C137.988 33.3859 138.088 33.4721 138.21 33.5185C138.333 33.5649 138.469 33.5881 138.618 33.5881C138.731 33.5881 138.834 33.5798 138.926 33.5632C139.023 33.5466 139.095 33.5317 139.145 33.5185L139.448 34.9254C139.352 34.9586 139.215 34.995 139.036 35.0348C138.86 35.0746 138.645 35.0978 138.389 35.1044C137.939 35.1177 137.533 35.0497 137.171 34.9006C136.81 34.7481 136.523 34.5128 136.311 34.1946C136.103 33.8764 136 33.4787 136.003 33.0014V25.5341ZM144.367 35V24.8182H150.889V26.3643H146.211V29.1286H150.442V30.6747H146.211V35H144.367ZM152.49 35V27.3636H154.29V35H152.49ZM153.395 26.2798C153.11 26.2798 152.865 26.1854 152.659 25.9964C152.454 25.8042 152.351 25.5739 152.351 25.3054C152.351 25.0336 152.454 24.8033 152.659 24.6143C152.865 24.4221 153.11 24.326 153.395 24.326C153.683 24.326 153.929 24.4221 154.131 24.6143C154.336 24.8033 154.439 25.0336 154.439 25.3054C154.439 25.5739 154.336 25.8042 154.131 25.9964C153.929 26.1854 153.683 26.2798 153.395 26.2798ZM157.94 24.8182V35H156.141V24.8182H157.94ZM163.172 35.1491C162.406 35.1491 161.745 34.9901 161.188 34.6719C160.634 34.3504 160.209 33.8963 159.91 33.3097C159.612 32.7197 159.463 32.0253 159.463 31.2266C159.463 30.4411 159.612 29.7517 159.91 29.1584C160.212 28.5618 160.633 28.0978 161.173 27.7663C161.713 27.4316 162.348 27.2642 163.077 27.2642C163.548 27.2642 163.992 27.3404 164.41 27.4929C164.83 27.642 165.202 27.8741 165.523 28.1889C165.848 28.5038 166.103 28.9048 166.289 29.392C166.474 29.8759 166.567 30.4527 166.567 31.1222V31.674H160.308V30.4609H164.842C164.839 30.1162 164.764 29.8097 164.618 29.5412C164.473 29.2694 164.269 29.0556 164.007 28.8999C163.748 28.7441 163.447 28.6662 163.102 28.6662C162.734 28.6662 162.411 28.7557 162.133 28.9347C161.854 29.1103 161.637 29.3423 161.481 29.6307C161.329 29.9157 161.251 30.2289 161.248 30.5703V31.6293C161.248 32.0734 161.329 32.4545 161.491 32.7727C161.654 33.0876 161.881 33.3295 162.172 33.4986C162.464 33.6643 162.805 33.7472 163.196 33.7472C163.458 33.7472 163.695 33.7107 163.907 33.6378C164.12 33.5616 164.303 33.4505 164.459 33.3047C164.615 33.1589 164.733 32.9782 164.812 32.7628L166.493 32.9517C166.387 33.3958 166.184 33.7836 165.886 34.1151C165.591 34.4432 165.213 34.6984 164.753 34.8807C164.292 35.0597 163.765 35.1491 163.172 35.1491ZM174.125 29.3821L172.485 29.5611C172.438 29.3954 172.357 29.2396 172.241 29.0938C172.128 28.9479 171.976 28.8303 171.784 28.7408C171.591 28.6513 171.356 28.6065 171.078 28.6065C170.703 28.6065 170.388 28.6877 170.133 28.8501C169.881 29.0125 169.757 29.223 169.76 29.4815C169.757 29.7036 169.838 29.8842 170.004 30.0234C170.173 30.1626 170.451 30.277 170.839 30.3665L172.142 30.6449C172.864 30.8007 173.401 31.0476 173.752 31.3857C174.107 31.7237 174.286 32.1662 174.289 32.7131C174.286 33.1937 174.145 33.6179 173.867 33.9858C173.592 34.3504 173.209 34.6354 172.718 34.8409C172.228 35.0464 171.664 35.1491 171.028 35.1491C170.093 35.1491 169.341 34.9536 168.771 34.5625C168.201 34.1681 167.861 33.6196 167.752 32.9169L169.507 32.7479C169.586 33.0926 169.755 33.3527 170.014 33.5284C170.272 33.7041 170.609 33.7919 171.023 33.7919C171.451 33.7919 171.794 33.7041 172.052 33.5284C172.314 33.3527 172.445 33.1357 172.445 32.8771C172.445 32.6584 172.36 32.4777 172.191 32.3352C172.026 32.1927 171.767 32.0833 171.416 32.0071L170.113 31.7337C169.381 31.5812 168.839 31.3243 168.487 30.9631C168.136 30.5985 167.962 30.1378 167.965 29.581C167.962 29.1103 168.09 28.7027 168.348 28.358C168.61 28.0099 168.973 27.7415 169.437 27.5526C169.904 27.3603 170.443 27.2642 171.053 27.2642C171.948 27.2642 172.652 27.4548 173.166 27.8359C173.683 28.2171 174.003 28.7325 174.125 29.3821Z" fill="#388523"/>
<path d="M63.0561 65.6364C62.4652 65.6364 61.9467 65.4957 61.5007 65.2145C61.0575 64.9332 60.7109 64.5398 60.4609 64.0341C60.2138 63.5284 60.0902 62.9375 60.0902 62.2614C60.0902 61.5795 60.2138 60.9844 60.4609 60.4759C60.7109 59.9673 61.0575 59.5724 61.5007 59.2912C61.9467 59.0099 62.4652 58.8693 63.0561 58.8693C63.647 58.8693 64.1641 59.0099 64.6072 59.2912C65.0533 59.5724 65.3999 59.9673 65.647 60.4759C65.897 60.9844 66.022 61.5795 66.022 62.2614C66.022 62.9375 65.897 63.5284 65.647 64.0341C65.3999 64.5398 65.0533 64.9332 64.6072 65.2145C64.1641 65.4957 63.647 65.6364 63.0561 65.6364ZM63.0561 64.733C63.505 64.733 63.8743 64.6179 64.1641 64.3878C64.4538 64.1577 64.6683 63.8551 64.8075 63.4801C64.9467 63.1051 65.0163 62.6989 65.0163 62.2614C65.0163 61.8239 64.9467 61.4162 64.8075 61.0384C64.6683 60.6605 64.4538 60.3551 64.1641 60.1222C63.8743 59.8892 63.505 59.7727 63.0561 59.7727C62.6072 59.7727 62.2379 59.8892 61.9482 60.1222C61.6584 60.3551 61.4439 60.6605 61.3047 61.0384C61.1655 61.4162 61.0959 61.8239 61.0959 62.2614C61.0959 62.6989 61.1655 63.1051 61.3047 63.4801C61.4439 63.8551 61.6584 64.1577 61.9482 64.3878C62.2379 64.6179 62.6072 64.733 63.0561 64.733ZM67.5572 65.5V58.9545H68.5288V59.9432H68.5969C68.7163 59.6193 68.9322 59.3565 69.2447 59.1548C69.5572 58.9531 69.9094 58.8523 70.3015 58.8523C70.3754 58.8523 70.4677 58.8537 70.5785 58.8565C70.6893 58.8594 70.7731 58.8636 70.8299 58.8693V59.892C70.7958 59.8835 70.7177 59.8707 70.5955 59.8537C70.4762 59.8338 70.3498 59.8239 70.2163 59.8239C69.8981 59.8239 69.614 59.8906 69.364 60.0241C69.1168 60.1548 68.9208 60.3366 68.7759 60.5696C68.6339 60.7997 68.5629 61.0625 68.5629 61.358V65.5H67.5572ZM77.8686 65.6364C77.3232 65.6364 76.8416 65.4986 76.424 65.223C76.0064 64.9446 75.6797 64.5526 75.4439 64.0469C75.2081 63.5384 75.0902 62.9375 75.0902 62.2443C75.0902 61.5568 75.2081 60.9602 75.4439 60.4545C75.6797 59.9489 76.0078 59.5582 76.4283 59.2827C76.8487 59.0071 77.3345 58.8693 77.8857 58.8693C78.3118 58.8693 78.6484 58.9403 78.8956 59.0824C79.1456 59.2216 79.3359 59.3807 79.4666 59.5597C79.6001 59.7358 79.7038 59.8807 79.7777 59.9943H79.8629V56.7727H80.8686V65.5H79.897V64.4943H79.7777C79.7038 64.6136 79.5987 64.7642 79.4624 64.946C79.326 65.125 79.1314 65.2855 78.8786 65.4276C78.6257 65.5668 78.2891 65.6364 77.8686 65.6364ZM78.005 64.733C78.4084 64.733 78.7493 64.6278 79.0277 64.4176C79.3061 64.2045 79.5178 63.9105 79.6626 63.5355C79.8075 63.1577 79.88 62.7216 79.88 62.2273C79.88 61.7386 79.8089 61.3111 79.6669 60.9446C79.5249 60.5753 79.3146 60.2884 79.0362 60.0838C78.7578 59.8764 78.4141 59.7727 78.005 59.7727C77.5788 59.7727 77.2237 59.8821 76.9396 60.1009C76.6584 60.3168 76.4467 60.6108 76.3047 60.983C76.1655 61.3523 76.0959 61.767 76.0959 62.2273C76.0959 62.6932 76.1669 63.1165 76.3089 63.4972C76.4538 63.875 76.6669 64.1761 76.9482 64.4006C77.2322 64.6222 77.5845 64.733 78.005 64.733ZM82.8501 65.5V58.9545H83.8217V59.9432H83.8899C84.0092 59.6193 84.2251 59.3565 84.5376 59.1548C84.8501 58.9531 85.2024 58.8523 85.5945 58.8523C85.6683 58.8523 85.7607 58.8537 85.8714 58.8565C85.9822 58.8594 86.0661 58.8636 86.1229 58.8693V59.892C86.0888 59.8835 86.0107 59.8707 85.8885 59.8537C85.7692 59.8338 85.6428 59.8239 85.5092 59.8239C85.1911 59.8239 84.907 59.8906 84.657 60.0241C84.4098 60.1548 84.2138 60.3366 84.0689 60.5696C83.9268 60.7997 83.8558 61.0625 83.8558 61.358V65.5H82.8501ZM89.2411 65.6534C88.8263 65.6534 88.4499 65.5753 88.1119 65.419C87.7738 65.2599 87.5053 65.0312 87.3065 64.733C87.1076 64.4318 87.0082 64.0682 87.0082 63.642C87.0082 63.267 87.082 62.9631 87.2298 62.7301C87.3775 62.4943 87.5749 62.3097 87.8221 62.1761C88.0692 62.0426 88.342 61.9432 88.6403 61.8778C88.9414 61.8097 89.244 61.7557 89.5479 61.7159C89.9457 61.6648 90.2681 61.6264 90.5153 61.6009C90.7653 61.5724 90.9471 61.5256 91.0607 61.4602C91.1772 61.3949 91.2354 61.2812 91.2354 61.1193V61.0852C91.2354 60.6648 91.1204 60.3381 90.8903 60.1051C90.663 59.8722 90.3178 59.7557 89.8548 59.7557C89.3746 59.7557 88.9982 59.8608 88.7255 60.071C88.4528 60.2812 88.261 60.5057 88.1502 60.7443L87.1957 60.4034C87.3661 60.0057 87.5934 59.696 87.8775 59.4744C88.1644 59.25 88.4769 59.0937 88.815 59.0057C89.1559 58.9148 89.4911 58.8693 89.8207 58.8693C90.0309 58.8693 90.2724 58.8949 90.5451 58.946C90.8207 58.9943 91.0863 59.0952 91.342 59.2486C91.6005 59.402 91.815 59.6335 91.9854 59.9432C92.1559 60.2528 92.2411 60.6676 92.2411 61.1875V65.5H91.2354V64.6136H91.1843C91.1161 64.7557 91.0025 64.9077 90.8434 65.0696C90.6843 65.2315 90.4727 65.3693 90.2085 65.483C89.9442 65.5966 89.6218 65.6534 89.2411 65.6534ZM89.3945 64.75C89.7923 64.75 90.1275 64.6719 90.4002 64.5156C90.6758 64.3594 90.8832 64.1577 91.0224 63.9105C91.1644 63.6634 91.2354 63.4034 91.2354 63.1307V62.2102C91.1928 62.2614 91.0991 62.3082 90.9542 62.3509C90.8121 62.3906 90.6474 62.4261 90.4599 62.4574C90.2752 62.4858 90.0948 62.5114 89.9187 62.5341C89.7454 62.554 89.6048 62.571 89.4968 62.5852C89.2354 62.6193 88.9911 62.6747 88.7638 62.7514C88.5394 62.8253 88.3576 62.9375 88.2184 63.0881C88.082 63.2358 88.0138 63.4375 88.0138 63.6932C88.0138 64.0426 88.1431 64.3068 88.4016 64.4858C88.663 64.6619 88.994 64.75 89.3945 64.75ZM96.7188 68.0909C96.233 68.0909 95.8153 68.0284 95.4659 67.9034C95.1165 67.7812 94.8253 67.6193 94.5923 67.4176C94.3622 67.2188 94.179 67.0057 94.0426 66.7784L94.8438 66.2159C94.9347 66.3352 95.0497 66.4716 95.1889 66.625C95.3281 66.7812 95.5185 66.9162 95.7599 67.0298C96.0043 67.1463 96.3239 67.2045 96.7188 67.2045C97.2472 67.2045 97.6832 67.0767 98.027 66.821C98.3707 66.5653 98.5426 66.1648 98.5426 65.6193V64.2898H98.4574C98.3835 64.4091 98.2784 64.5568 98.142 64.733C98.0085 64.9062 97.8153 65.0611 97.5625 65.1974C97.3125 65.331 96.9744 65.3977 96.5483 65.3977C96.0199 65.3977 95.5455 65.2727 95.125 65.0227C94.7074 64.7727 94.3764 64.4091 94.1321 63.9318C93.8906 63.4545 93.7699 62.875 93.7699 62.1932C93.7699 61.5227 93.8878 60.9389 94.1236 60.4418C94.3594 59.9418 94.6875 59.5554 95.108 59.2827C95.5284 59.0071 96.0142 58.8693 96.5653 58.8693C96.9915 58.8693 97.3295 58.9403 97.5795 59.0824C97.8324 59.2216 98.0256 59.3807 98.1591 59.5597C98.2955 59.7358 98.4006 59.8807 98.4744 59.9943H98.5767V58.9545H99.5483V65.6875C99.5483 66.25 99.4205 66.7074 99.1648 67.0597C98.9119 67.4148 98.571 67.6747 98.142 67.8395C97.7159 68.0071 97.2415 68.0909 96.7188 68.0909ZM96.6847 64.4943C97.0881 64.4943 97.429 64.402 97.7074 64.2173C97.9858 64.0327 98.1974 63.767 98.3423 63.4205C98.4872 63.0739 98.5597 62.6591 98.5597 62.1761C98.5597 61.7045 98.4886 61.2884 98.3466 60.9276C98.2045 60.5668 97.9943 60.2841 97.7159 60.0795C97.4375 59.875 97.0938 59.7727 96.6847 59.7727C96.2585 59.7727 95.9034 59.8807 95.6193 60.0966C95.3381 60.3125 95.1264 60.6023 94.9844 60.9659C94.8452 61.3295 94.7756 61.733 94.7756 62.1761C94.7756 62.6307 94.8466 63.0327 94.9886 63.3821C95.1335 63.7287 95.3466 64.0014 95.6278 64.2003C95.9119 64.3963 96.2642 64.4943 96.6847 64.4943ZM107.679 58.9545V59.8068H104.151V58.9545H107.679ZM105.207 65.5V58.0511C105.207 57.6761 105.295 57.3636 105.472 57.1136C105.648 56.8636 105.876 56.6761 106.158 56.5511C106.439 56.4261 106.736 56.3636 107.048 56.3636C107.295 56.3636 107.497 56.3835 107.653 56.4233C107.81 56.4631 107.926 56.5 108.003 56.5341L107.713 57.4034C107.662 57.3864 107.591 57.3651 107.5 57.3395C107.412 57.3139 107.295 57.3011 107.151 57.3011C106.818 57.3011 106.578 57.3849 106.43 57.5526C106.286 57.7202 106.213 57.9659 106.213 58.2898V65.5H105.207ZM109.088 65.5V58.9545H110.094V65.5H109.088ZM109.6 57.8636C109.404 57.8636 109.235 57.7969 109.093 57.6634C108.953 57.5298 108.884 57.3693 108.884 57.1818C108.884 56.9943 108.953 56.8338 109.093 56.7003C109.235 56.5668 109.404 56.5 109.6 56.5C109.796 56.5 109.963 56.5668 110.103 56.7003C110.245 56.8338 110.316 56.9943 110.316 57.1818C110.316 57.3693 110.245 57.5298 110.103 57.6634C109.963 57.7969 109.796 57.8636 109.6 57.8636ZM112.942 56.7727V65.5H111.936V56.7727H112.942ZM117.528 65.6364C116.897 65.6364 116.353 65.4972 115.896 65.2188C115.441 64.9375 115.091 64.5455 114.843 64.0426C114.599 63.5369 114.477 62.9489 114.477 62.2784C114.477 61.608 114.599 61.017 114.843 60.5057C115.091 59.9915 115.434 59.5909 115.875 59.304C116.318 59.0142 116.835 58.8693 117.426 58.8693C117.767 58.8693 118.103 58.9261 118.436 59.0398C118.768 59.1534 119.071 59.3381 119.343 59.5938C119.616 59.8466 119.833 60.1818 119.995 60.5994C120.157 61.017 120.238 61.5312 120.238 62.142V62.5682H115.193V61.6989H119.216C119.216 61.3295 119.142 61 118.994 60.7102C118.849 60.4205 118.642 60.1918 118.372 60.0241C118.105 59.8565 117.789 59.7727 117.426 59.7727C117.025 59.7727 116.679 59.8722 116.386 60.071C116.096 60.267 115.873 60.5227 115.717 60.8381C115.561 61.1534 115.483 61.4915 115.483 61.8523V62.4318C115.483 62.9261 115.568 63.3452 115.738 63.6889C115.912 64.0298 116.152 64.2898 116.458 64.4688C116.765 64.6449 117.122 64.733 117.528 64.733C117.792 64.733 118.031 64.696 118.244 64.6222C118.46 64.5455 118.646 64.4318 118.802 64.2812C118.958 64.1278 119.079 63.9375 119.164 63.7102L120.136 63.983C120.034 64.3125 119.862 64.6023 119.62 64.8523C119.379 65.0994 119.081 65.2926 118.725 65.4318C118.37 65.5682 117.971 65.6364 117.528 65.6364ZM126.404 60.4205L125.501 60.6761C125.444 60.5256 125.36 60.3793 125.25 60.2372C125.142 60.0923 124.994 59.973 124.806 59.8793C124.619 59.7855 124.379 59.7386 124.086 59.7386C123.686 59.7386 123.352 59.831 123.085 60.0156C122.821 60.1974 122.689 60.429 122.689 60.7102C122.689 60.9602 122.779 61.1577 122.961 61.3026C123.143 61.4474 123.427 61.5682 123.814 61.6648L124.785 61.9034C125.37 62.0455 125.806 62.2628 126.093 62.5554C126.38 62.8452 126.524 63.2187 126.524 63.6761C126.524 64.0511 126.416 64.3864 126.2 64.6818C125.987 64.9773 125.689 65.2102 125.305 65.3807C124.922 65.5511 124.475 65.6364 123.967 65.6364C123.299 65.6364 122.747 65.4915 122.309 65.2017C121.872 64.9119 121.595 64.4886 121.478 63.9318L122.433 63.6932C122.524 64.0455 122.696 64.3097 122.949 64.4858C123.204 64.6619 123.538 64.75 123.95 64.75C124.419 64.75 124.791 64.6506 125.066 64.4517C125.345 64.25 125.484 64.0085 125.484 63.7273C125.484 63.5 125.404 63.3097 125.245 63.1562C125.086 63 124.842 62.8835 124.512 62.8068L123.422 62.5511C122.822 62.4091 122.382 62.1889 122.1 61.8906C121.822 61.5895 121.683 61.2131 121.683 60.7614C121.683 60.392 121.787 60.0653 121.994 59.7812C122.204 59.4972 122.49 59.2741 122.85 59.1122C123.214 58.9503 123.626 58.8693 124.086 58.8693C124.734 58.8693 125.243 59.0114 125.612 59.2955C125.984 59.5795 126.248 59.9545 126.404 60.4205ZM132.418 61.5625V65.5H131.413V56.7727H132.418V59.9773H132.504C132.657 59.6392 132.887 59.3707 133.194 59.1719C133.504 58.9702 133.915 58.8693 134.43 58.8693C134.876 58.8693 135.266 58.9588 135.602 59.1378C135.937 59.3139 136.197 59.5852 136.381 59.9517C136.569 60.3153 136.663 60.7784 136.663 61.3409V65.5H135.657V61.4091C135.657 60.8892 135.522 60.4872 135.252 60.2031C134.985 59.9162 134.614 59.7727 134.14 59.7727C133.81 59.7727 133.515 59.8423 133.254 59.9815C132.995 60.1207 132.79 60.3239 132.64 60.5909C132.492 60.858 132.418 61.1818 132.418 61.5625ZM141.247 65.6364C140.616 65.6364 140.072 65.4972 139.615 65.2188C139.16 64.9375 138.809 64.5455 138.562 64.0426C138.318 63.5369 138.196 62.9489 138.196 62.2784C138.196 61.608 138.318 61.017 138.562 60.5057C138.809 59.9915 139.153 59.5909 139.593 59.304C140.037 59.0142 140.554 58.8693 141.145 58.8693C141.485 58.8693 141.822 58.9261 142.154 59.0398C142.487 59.1534 142.789 59.3381 143.062 59.5938C143.335 59.8466 143.552 60.1818 143.714 60.5994C143.876 61.017 143.957 61.5312 143.957 62.142V62.5682H138.912V61.6989H142.934C142.934 61.3295 142.86 61 142.713 60.7102C142.568 60.4205 142.36 60.1918 142.091 60.0241C141.824 59.8565 141.508 59.7727 141.145 59.7727C140.744 59.7727 140.397 59.8722 140.105 60.071C139.815 60.267 139.592 60.5227 139.436 60.8381C139.279 61.1534 139.201 61.4915 139.201 61.8523V62.4318C139.201 62.9261 139.287 63.3452 139.457 63.6889C139.63 64.0298 139.87 64.2898 140.177 64.4688C140.484 64.6449 140.841 64.733 141.247 64.733C141.511 64.733 141.75 64.696 141.963 64.6222C142.179 64.5455 142.365 64.4318 142.521 64.2812C142.677 64.1278 142.798 63.9375 142.883 63.7102L143.855 63.983C143.752 64.3125 143.581 64.6023 143.339 64.8523C143.098 65.0994 142.799 65.2926 142.444 65.4318C142.089 65.5682 141.69 65.6364 141.247 65.6364ZM145.487 65.5V58.9545H146.458V59.9432H146.527C146.646 59.6193 146.862 59.3565 147.174 59.1548C147.487 58.9531 147.839 58.8523 148.231 58.8523C148.305 58.8523 148.397 58.8537 148.508 58.8565C148.619 58.8594 148.703 58.8636 148.76 58.8693V59.892C148.725 59.8835 148.647 59.8707 148.525 59.8537C148.406 59.8338 148.279 59.8239 148.146 59.8239C147.828 59.8239 147.544 59.8906 147.294 60.0241C147.047 60.1548 146.85 60.3366 146.706 60.5696C146.564 60.7997 146.493 61.0625 146.493 61.358V65.5H145.487ZM152.497 65.6364C151.866 65.6364 151.322 65.4972 150.865 65.2188C150.41 64.9375 150.059 64.5455 149.812 64.0426C149.568 63.5369 149.446 62.9489 149.446 62.2784C149.446 61.608 149.568 61.017 149.812 60.5057C150.059 59.9915 150.403 59.5909 150.843 59.304C151.287 59.0142 151.804 58.8693 152.395 58.8693C152.735 58.8693 153.072 58.9261 153.404 59.0398C153.737 59.1534 154.039 59.3381 154.312 59.5938C154.585 59.8466 154.802 60.1818 154.964 60.5994C155.126 61.017 155.207 61.5312 155.207 62.142V62.5682H150.162V61.6989H154.184C154.184 61.3295 154.11 61 153.963 60.7102C153.818 60.4205 153.61 60.1918 153.341 60.0241C153.074 59.8565 152.758 59.7727 152.395 59.7727C151.994 59.7727 151.647 59.8722 151.355 60.071C151.065 60.267 150.842 60.5227 150.686 60.8381C150.529 61.1534 150.451 61.4915 150.451 61.8523V62.4318C150.451 62.9261 150.537 63.3452 150.707 63.6889C150.88 64.0298 151.12 64.2898 151.427 64.4688C151.734 64.6449 152.091 64.733 152.497 64.733C152.761 64.733 153 64.696 153.213 64.6222C153.429 64.5455 153.615 64.4318 153.771 64.2812C153.927 64.1278 154.048 63.9375 154.133 63.7102L155.105 63.983C155.002 64.3125 154.831 64.6023 154.589 64.8523C154.348 65.0994 154.049 65.2926 153.694 65.4318C153.339 65.5682 152.94 65.6364 152.497 65.6364ZM162.958 58.9545V59.8068H159.566V58.9545H162.958ZM160.555 57.3864H161.561V63.625C161.561 63.9091 161.602 64.1222 161.684 64.2642C161.77 64.4034 161.877 64.4972 162.008 64.5455C162.142 64.5909 162.282 64.6136 162.43 64.6136C162.541 64.6136 162.632 64.608 162.703 64.5966C162.774 64.5824 162.831 64.571 162.873 64.5625L163.078 65.4659C163.01 65.4915 162.914 65.517 162.792 65.5426C162.67 65.571 162.515 65.5852 162.328 65.5852C162.044 65.5852 161.765 65.5241 161.493 65.402C161.223 65.2798 160.998 65.0938 160.819 64.8438C160.643 64.5938 160.555 64.2784 160.555 63.8977V57.3864ZM167.06 65.6364C166.469 65.6364 165.951 65.4957 165.505 65.2145C165.061 64.9332 164.715 64.5398 164.465 64.0341C164.218 63.5284 164.094 62.9375 164.094 62.2614C164.094 61.5795 164.218 60.9844 164.465 60.4759C164.715 59.9673 165.061 59.5724 165.505 59.2912C165.951 59.0099 166.469 58.8693 167.06 58.8693C167.651 58.8693 168.168 59.0099 168.611 59.2912C169.057 59.5724 169.404 59.9673 169.651 60.4759C169.901 60.9844 170.026 61.5795 170.026 62.2614C170.026 62.9375 169.901 63.5284 169.651 64.0341C169.404 64.5398 169.057 64.9332 168.611 65.2145C168.168 65.4957 167.651 65.6364 167.06 65.6364ZM167.06 64.733C167.509 64.733 167.878 64.6179 168.168 64.3878C168.458 64.1577 168.672 63.8551 168.811 63.4801C168.951 63.1051 169.02 62.6989 169.02 62.2614C169.02 61.8239 168.951 61.4162 168.811 61.0384C168.672 60.6605 168.458 60.3551 168.168 60.1222C167.878 59.8892 167.509 59.7727 167.06 59.7727C166.611 59.7727 166.242 59.8892 165.952 60.1222C165.662 60.3551 165.448 60.6605 165.309 61.0384C165.169 61.4162 165.1 61.8239 165.1 62.2614C165.1 62.6989 165.169 63.1051 165.309 63.4801C165.448 63.8551 165.662 64.1577 165.952 64.3878C166.242 64.6179 166.611 64.733 167.06 64.733ZM179.061 62.8239V58.9545H180.067V65.5H179.061V64.392H178.993C178.839 64.7244 178.601 65.0071 178.277 65.2401C177.953 65.4702 177.544 65.5852 177.05 65.5852C176.641 65.5852 176.277 65.4957 175.959 65.3168C175.641 65.1349 175.391 64.8622 175.209 64.4986C175.027 64.1321 174.936 63.6705 174.936 63.1136V58.9545H175.942V63.0455C175.942 63.5227 176.075 63.9034 176.342 64.1875C176.612 64.4716 176.956 64.6136 177.374 64.6136C177.624 64.6136 177.878 64.5497 178.136 64.4219C178.398 64.294 178.616 64.098 178.793 63.8338C178.972 63.5696 179.061 63.233 179.061 62.8239ZM181.909 67.9545V58.9545H182.88V59.9943H183C183.074 59.8807 183.176 59.7358 183.306 59.5597C183.44 59.3807 183.63 59.2216 183.877 59.0824C184.127 58.9403 184.466 58.8693 184.892 58.8693C185.443 58.8693 185.929 59.0071 186.349 59.2827C186.77 59.5582 187.098 59.9489 187.333 60.4545C187.569 60.9602 187.687 61.5568 187.687 62.2443C187.687 62.9375 187.569 63.5384 187.333 64.0469C187.098 64.5526 186.771 64.9446 186.353 65.223C185.936 65.4986 185.454 65.6364 184.909 65.6364C184.488 65.6364 184.152 65.5668 183.899 65.4276C183.646 65.2855 183.451 65.125 183.315 64.946C183.179 64.7642 183.074 64.6136 183 64.4943H182.914V67.9545H181.909ZM182.897 62.2273C182.897 62.7216 182.97 63.1577 183.115 63.5355C183.26 63.9105 183.471 64.2045 183.75 64.4176C184.028 64.6278 184.369 64.733 184.772 64.733C185.193 64.733 185.544 64.6222 185.825 64.4006C186.109 64.1761 186.322 63.875 186.464 63.4972C186.609 63.1165 186.681 62.6932 186.681 62.2273C186.681 61.767 186.61 61.3523 186.468 60.983C186.329 60.6108 186.118 60.3168 185.833 60.1009C185.552 59.8821 185.199 59.7727 184.772 59.7727C184.363 59.7727 184.02 59.8764 183.741 60.0838C183.463 60.2884 183.252 60.5753 183.11 60.9446C182.968 61.3111 182.897 61.7386 182.897 62.2273ZM190.227 56.7727V65.5H189.221V56.7727H190.227ZM194.728 65.6364C194.137 65.6364 193.619 65.4957 193.173 65.2145C192.729 64.9332 192.383 64.5398 192.133 64.0341C191.886 63.5284 191.762 62.9375 191.762 62.2614C191.762 61.5795 191.886 60.9844 192.133 60.4759C192.383 59.9673 192.729 59.5724 193.173 59.2912C193.619 59.0099 194.137 58.8693 194.728 58.8693C195.319 58.8693 195.836 59.0099 196.279 59.2912C196.725 59.5724 197.072 59.9673 197.319 60.4759C197.569 60.9844 197.694 61.5795 197.694 62.2614C197.694 62.9375 197.569 63.5284 197.319 64.0341C197.072 64.5398 196.725 64.9332 196.279 65.2145C195.836 65.4957 195.319 65.6364 194.728 65.6364ZM194.728 64.733C195.177 64.733 195.546 64.6179 195.836 64.3878C196.126 64.1577 196.34 63.8551 196.479 63.4801C196.619 63.1051 196.688 62.6989 196.688 62.2614C196.688 61.8239 196.619 61.4162 196.479 61.0384C196.34 60.6605 196.126 60.3551 195.836 60.1222C195.546 59.8892 195.177 59.7727 194.728 59.7727C194.279 59.7727 193.91 59.8892 193.62 60.1222C193.33 60.3551 193.116 60.6605 192.977 61.0384C192.837 61.4162 192.768 61.8239 192.768 62.2614C192.768 62.6989 192.837 63.1051 192.977 63.4801C193.116 63.8551 193.33 64.1577 193.62 64.3878C193.91 64.6179 194.279 64.733 194.728 64.733ZM201.155 65.6534C200.74 65.6534 200.364 65.5753 200.026 65.419C199.688 65.2599 199.419 65.0312 199.221 64.733C199.022 64.4318 198.922 64.0682 198.922 63.642C198.922 63.267 198.996 62.9631 199.144 62.7301C199.292 62.4943 199.489 62.3097 199.736 62.1761C199.983 62.0426 200.256 61.9432 200.554 61.8778C200.855 61.8097 201.158 61.7557 201.462 61.7159C201.86 61.6648 202.182 61.6264 202.429 61.6009C202.679 61.5724 202.861 61.5256 202.975 61.4602C203.091 61.3949 203.15 61.2812 203.15 61.1193V61.0852C203.15 60.6648 203.034 60.3381 202.804 60.1051C202.577 59.8722 202.232 59.7557 201.769 59.7557C201.289 59.7557 200.912 59.8608 200.64 60.071C200.367 60.2812 200.175 60.5057 200.064 60.7443L199.11 60.4034C199.28 60.0057 199.507 59.696 199.792 59.4744C200.078 59.25 200.391 59.0937 200.729 59.0057C201.07 58.9148 201.405 58.8693 201.735 58.8693C201.945 58.8693 202.186 58.8949 202.459 58.946C202.735 58.9943 203 59.0952 203.256 59.2486C203.515 59.402 203.729 59.6335 203.9 59.9432C204.07 60.2528 204.155 60.6676 204.155 61.1875V65.5H203.15V64.6136H203.098C203.03 64.7557 202.917 64.9077 202.757 65.0696C202.598 65.2315 202.387 65.3693 202.123 65.483C201.858 65.5966 201.536 65.6534 201.155 65.6534ZM201.309 64.75C201.706 64.75 202.042 64.6719 202.314 64.5156C202.59 64.3594 202.797 64.1577 202.936 63.9105C203.078 63.6634 203.15 63.4034 203.15 63.1307V62.2102C203.107 62.2614 203.013 62.3082 202.868 62.3509C202.726 62.3906 202.561 62.4261 202.374 62.4574C202.189 62.4858 202.009 62.5114 201.833 62.5341C201.659 62.554 201.519 62.571 201.411 62.5852C201.15 62.6193 200.905 62.6747 200.678 62.7514C200.453 62.8253 200.272 62.9375 200.132 63.0881C199.996 63.2358 199.928 63.4375 199.928 63.6932C199.928 64.0426 200.057 64.3068 200.316 64.4858C200.577 64.6619 200.908 64.75 201.309 64.75ZM208.462 65.6364C207.917 65.6364 207.435 65.4986 207.018 65.223C206.6 64.9446 206.273 64.5526 206.038 64.0469C205.802 63.5384 205.684 62.9375 205.684 62.2443C205.684 61.5568 205.802 60.9602 206.038 60.4545C206.273 59.9489 206.602 59.5582 207.022 59.2827C207.442 59.0071 207.928 58.8693 208.479 58.8693C208.906 58.8693 209.242 58.9403 209.489 59.0824C209.739 59.2216 209.93 59.3807 210.06 59.5597C210.194 59.7358 210.298 59.8807 210.371 59.9943H210.457V56.7727H211.462V65.5H210.491V64.4943H210.371C210.298 64.6136 210.192 64.7642 210.056 64.946C209.92 65.125 209.725 65.2855 209.472 65.4276C209.219 65.5668 208.883 65.6364 208.462 65.6364ZM208.599 64.733C209.002 64.733 209.343 64.6278 209.621 64.4176C209.9 64.2045 210.112 63.9105 210.256 63.5355C210.401 63.1577 210.474 62.7216 210.474 62.2273C210.474 61.7386 210.403 61.3111 210.261 60.9446C210.119 60.5753 209.908 60.2884 209.63 60.0838C209.352 59.8764 209.008 59.7727 208.599 59.7727C208.173 59.7727 207.817 59.8821 207.533 60.1009C207.252 60.3168 207.04 60.6108 206.898 60.983C206.759 61.3523 206.69 61.767 206.69 62.2273C206.69 62.6932 206.761 63.1165 206.903 63.4972C207.048 63.875 207.261 64.1761 207.542 64.4006C207.826 64.6222 208.178 64.733 208.599 64.733Z" fill="#627A84"/>
</svg>
