<svg width="274" height="50" viewBox="0 0 274 50" fill="none" xmlns="http://www.w3.org/2000/svg">
<path d="M8 0.5H266C270.142 0.5 273.5 3.85786 273.5 8V42C273.5 46.1421 270.142 49.5 266 49.5H8C3.85787 49.5 0.5 46.1421 0.5 42V8C0.5 3.85787 3.85786 0.5 8 0.5Z" fill="white"/>
<path d="M8 0.5H266C270.142 0.5 273.5 3.85786 273.5 8V42C273.5 46.1421 270.142 49.5 266 49.5H8C3.85787 49.5 0.5 46.1421 0.5 42V8C0.5 3.85787 3.85786 0.5 8 0.5Z" stroke="#DADFE2" stroke-linecap="round"/>
<path d="M17.0568 17V8.27273H20.0057C20.6903 8.27273 21.25 8.39631 21.6847 8.64347C22.1222 8.88778 22.446 9.21875 22.6562 9.63636C22.8665 10.054 22.9716 10.5199 22.9716 11.0341C22.9716 11.5483 22.8665 12.0156 22.6562 12.4361C22.4489 12.8565 22.1278 13.1918 21.6932 13.4418C21.2585 13.6889 20.7017 13.8125 20.0227 13.8125H17.9091V12.875H19.9886C20.4574 12.875 20.8338 12.794 21.1179 12.6321C21.402 12.4702 21.608 12.2514 21.7358 11.9759C21.8665 11.6974 21.9318 11.3835 21.9318 11.0341C21.9318 10.6847 21.8665 10.3722 21.7358 10.0966C21.608 9.82102 21.4006 9.60511 21.1136 9.44886C20.8267 9.28977 20.446 9.21023 19.9716 9.21023H18.1136V17H17.0568ZM25.5433 8.27273V17H24.5376V8.27273H25.5433ZM29.3114 17.1534C28.8967 17.1534 28.5202 17.0753 28.1822 16.919C27.8441 16.7599 27.5756 16.5312 27.3768 16.233C27.1779 15.9318 27.0785 15.5682 27.0785 15.142C27.0785 14.767 27.1523 14.4631 27.3001 14.2301C27.4478 13.9943 27.6452 13.8097 27.8924 13.6761C28.1396 13.5426 28.4123 13.4432 28.7106 13.3778C29.0117 13.3097 29.3143 13.2557 29.6183 13.2159C30.016 13.1648 30.3384 13.1264 30.5856 13.1009C30.8356 13.0724 31.0174 13.0256 31.131 12.9602C31.2475 12.8949 31.3058 12.7812 31.3058 12.6193V12.5852C31.3058 12.1648 31.1907 11.8381 30.9606 11.6051C30.7333 11.3722 30.3881 11.2557 29.9251 11.2557C29.445 11.2557 29.0685 11.3608 28.7958 11.571C28.5231 11.7812 28.3313 12.0057 28.2205 12.2443L27.266 11.9034C27.4364 11.5057 27.6637 11.196 27.9478 10.9744C28.2347 10.75 28.5472 10.5937 28.8853 10.5057C29.2262 10.4148 29.5614 10.3693 29.891 10.3693C30.1012 10.3693 30.3427 10.3949 30.6154 10.446C30.891 10.4943 31.1566 10.5952 31.4123 10.7486C31.6708 10.902 31.8853 11.1335 32.0558 11.4432C32.2262 11.7528 32.3114 12.1676 32.3114 12.6875V17H31.3058V16.1136H31.2546C31.1864 16.2557 31.0728 16.4077 30.9137 16.5696C30.7546 16.7315 30.543 16.8693 30.2788 16.983C30.0146 17.0966 29.6921 17.1534 29.3114 17.1534ZM29.4648 16.25C29.8626 16.25 30.1978 16.1719 30.4705 16.0156C30.7461 15.8594 30.9535 15.6577 31.0927 15.4105C31.2347 15.1634 31.3058 14.9034 31.3058 14.6307V13.7102C31.2631 13.7614 31.1694 13.8082 31.0245 13.8509C30.8825 13.8906 30.7177 13.9261 30.5302 13.9574C30.3455 13.9858 30.1651 14.0114 29.989 14.0341C29.8157 14.054 29.6751 14.071 29.5671 14.0852C29.3058 14.1193 29.0614 14.1747 28.8342 14.2514C28.6097 14.3253 28.4279 14.4375 28.2887 14.5881C28.1523 14.7358 28.0842 14.9375 28.0842 15.1932C28.0842 15.5426 28.2134 15.8068 28.4719 15.9858C28.7333 16.1619 29.0643 16.25 29.4648 16.25ZM36.8061 17.1364C36.1925 17.1364 35.6641 16.9915 35.2209 16.7017C34.7777 16.4119 34.4368 16.0128 34.1982 15.5043C33.9595 14.9957 33.8402 14.4148 33.8402 13.7614C33.8402 13.0966 33.9624 12.5099 34.2067 12.0014C34.4538 11.4901 34.7976 11.0909 35.2379 10.804C35.6811 10.5142 36.1982 10.3693 36.7891 10.3693C37.2493 10.3693 37.6641 10.4545 38.0334 10.625C38.4027 10.7955 38.7053 11.0341 38.9411 11.3409C39.1768 11.6477 39.3232 12.0057 39.38 12.4148H38.3743C38.2976 12.1165 38.1271 11.8523 37.8629 11.6222C37.6016 11.3892 37.2493 11.2727 36.8061 11.2727C36.4141 11.2727 36.0703 11.375 35.7749 11.5795C35.4822 11.7812 35.2536 12.0668 35.0888 12.4361C34.9268 12.8026 34.8459 13.233 34.8459 13.7273C34.8459 14.233 34.9254 14.6733 35.0845 15.0483C35.2464 15.4233 35.4737 15.7145 35.7663 15.9219C36.0618 16.1293 36.4084 16.233 36.8061 16.233C37.0675 16.233 37.3047 16.1875 37.5178 16.0966C37.7308 16.0057 37.9112 15.875 38.0589 15.7045C38.2067 15.5341 38.3118 15.3295 38.3743 15.0909H39.38C39.3232 15.4773 39.1825 15.8253 38.9581 16.1349C38.7365 16.4418 38.4425 16.6861 38.076 16.8679C37.7124 17.0469 37.2891 17.1364 36.8061 17.1364ZM43.5945 17.1364C42.9638 17.1364 42.4197 16.9972 41.9624 16.7188C41.5078 16.4375 41.157 16.0455 40.9098 15.5426C40.6655 15.0369 40.5433 14.4489 40.5433 13.7784C40.5433 13.108 40.6655 12.517 40.9098 12.0057C41.157 11.4915 41.5007 11.0909 41.9411 10.804C42.3842 10.5142 42.9013 10.3693 43.4922 10.3693C43.8331 10.3693 44.1697 10.4261 44.5021 10.5398C44.8345 10.6534 45.1371 10.8381 45.4098 11.0938C45.6825 11.3466 45.8999 11.6818 46.0618 12.0994C46.2237 12.517 46.3047 13.0312 46.3047 13.642V14.0682H41.2592V13.1989H45.282C45.282 12.8295 45.2081 12.5 45.0604 12.2102C44.9155 11.9205 44.7081 11.6918 44.4382 11.5241C44.1712 11.3565 43.8558 11.2727 43.4922 11.2727C43.0916 11.2727 42.745 11.3722 42.4524 11.571C42.1626 11.767 41.9396 12.0227 41.7834 12.3381C41.6271 12.6534 41.549 12.9915 41.549 13.3523V13.9318C41.549 14.4261 41.6342 14.8452 41.8047 15.1889C41.978 15.5298 42.218 15.7898 42.5249 15.9688C42.8317 16.1449 43.1882 16.233 43.5945 16.233C43.8587 16.233 44.0973 16.196 44.3104 16.1222C44.5263 16.0455 44.7124 15.9318 44.8686 15.7812C45.0249 15.6278 45.1456 15.4375 45.2308 15.2102L46.2024 15.483C46.1001 15.8125 45.9283 16.1023 45.6868 16.3523C45.4453 16.5994 45.147 16.7926 44.7919 16.9318C44.4368 17.0682 44.0376 17.1364 43.5945 17.1364ZM48.8402 13.0625V17H47.8345V8.27273H48.8402V11.4773H48.9254C49.0788 11.1392 49.3089 10.8707 49.6158 10.6719C49.9254 10.4702 50.3374 10.3693 50.8516 10.3693C51.2976 10.3693 51.6882 10.4588 52.0234 10.6378C52.3587 10.8139 52.6186 11.0852 52.8033 11.4517C52.9908 11.8153 53.0845 12.2784 53.0845 12.8409V17H52.0788V12.9091C52.0788 12.3892 51.9439 11.9872 51.674 11.7031C51.407 11.4162 51.0362 11.2727 50.5618 11.2727C50.2322 11.2727 49.9368 11.3423 49.6754 11.4815C49.4169 11.6207 49.2124 11.8239 49.0618 12.0909C48.9141 12.358 48.8402 12.6818 48.8402 13.0625ZM57.5835 17.1364C56.9925 17.1364 56.4741 16.9957 56.0281 16.7145C55.5849 16.4332 55.2383 16.0398 54.9883 15.5341C54.7411 15.0284 54.6175 14.4375 54.6175 13.7614C54.6175 13.0795 54.7411 12.4844 54.9883 11.9759C55.2383 11.4673 55.5849 11.0724 56.0281 10.7912C56.4741 10.5099 56.9925 10.3693 57.5835 10.3693C58.1744 10.3693 58.6914 10.5099 59.1346 10.7912C59.5806 11.0724 59.9272 11.4673 60.1744 11.9759C60.4244 12.4844 60.5494 13.0795 60.5494 13.7614C60.5494 14.4375 60.4244 15.0284 60.1744 15.5341C59.9272 16.0398 59.5806 16.4332 59.1346 16.7145C58.6914 16.9957 58.1744 17.1364 57.5835 17.1364ZM57.5835 16.233C58.0323 16.233 58.4016 16.1179 58.6914 15.8878C58.9812 15.6577 59.1957 15.3551 59.3349 14.9801C59.4741 14.6051 59.5437 14.1989 59.5437 13.7614C59.5437 13.3239 59.4741 12.9162 59.3349 12.5384C59.1957 12.1605 58.9812 11.8551 58.6914 11.6222C58.4016 11.3892 58.0323 11.2727 57.5835 11.2727C57.1346 11.2727 56.7653 11.3892 56.4755 11.6222C56.1857 11.8551 55.9712 12.1605 55.832 12.5384C55.6928 12.9162 55.6232 13.3239 55.6232 13.7614C55.6232 14.1989 55.6928 14.6051 55.832 14.9801C55.9712 15.3551 56.1857 15.6577 56.4755 15.8878C56.7653 16.1179 57.1346 16.233 57.5835 16.233ZM63.0902 8.27273V17H62.0845V8.27273H63.0902ZM67.4038 17.1364C66.8583 17.1364 66.3768 16.9986 65.9592 16.723C65.5415 16.4446 65.2148 16.0526 64.979 15.5469C64.7433 15.0384 64.6254 14.4375 64.6254 13.7443C64.6254 13.0568 64.7433 12.4602 64.979 11.9545C65.2148 11.4489 65.543 11.0582 65.9634 10.7827C66.3839 10.5071 66.8697 10.3693 67.4208 10.3693C67.8469 10.3693 68.1836 10.4403 68.4308 10.5824C68.6808 10.7216 68.8711 10.8807 69.0018 11.0597C69.1353 11.2358 69.239 11.3807 69.3129 11.4943H69.3981V8.27273H70.4038V17H69.4322V15.9943H69.3129C69.239 16.1136 69.1339 16.2642 68.9975 16.446C68.8612 16.625 68.6665 16.7855 68.4137 16.9276C68.1609 17.0668 67.8242 17.1364 67.4038 17.1364ZM67.5401 16.233C67.9435 16.233 68.2844 16.1278 68.5629 15.9176C68.8413 15.7045 69.0529 15.4105 69.1978 15.0355C69.3427 14.6577 69.4151 14.2216 69.4151 13.7273C69.4151 13.2386 69.3441 12.8111 69.2021 12.4446C69.06 12.0753 68.8498 11.7884 68.5714 11.5838C68.293 11.3764 67.9492 11.2727 67.5401 11.2727C67.114 11.2727 66.7589 11.3821 66.4748 11.6009C66.1935 11.8168 65.9819 12.1108 65.8398 12.483C65.7006 12.8523 65.631 13.267 65.631 13.7273C65.631 14.1932 65.7021 14.6165 65.8441 14.9972C65.989 15.375 66.2021 15.6761 66.4833 15.9006C66.7674 16.1222 67.1197 16.233 67.5401 16.233ZM75.1296 17.1364C74.4989 17.1364 73.9549 16.9972 73.4975 16.7188C73.043 16.4375 72.6921 16.0455 72.445 15.5426C72.2006 15.0369 72.0785 14.4489 72.0785 13.7784C72.0785 13.108 72.2006 12.517 72.445 12.0057C72.6921 11.4915 73.0359 11.0909 73.4762 10.804C73.9194 10.5142 74.4364 10.3693 75.0273 10.3693C75.3683 10.3693 75.7049 10.4261 76.0373 10.5398C76.3697 10.6534 76.6722 10.8381 76.945 11.0938C77.2177 11.3466 77.435 11.6818 77.5969 12.0994C77.7589 12.517 77.8398 13.0312 77.8398 13.642V14.0682H72.7944V13.1989H76.8171C76.8171 12.8295 76.7433 12.5 76.5955 12.2102C76.4506 11.9205 76.2433 11.6918 75.9734 11.5241C75.7063 11.3565 75.391 11.2727 75.0273 11.2727C74.6268 11.2727 74.2802 11.3722 73.9876 11.571C73.6978 11.767 73.4748 12.0227 73.3185 12.3381C73.1623 12.6534 73.0842 12.9915 73.0842 13.3523V13.9318C73.0842 14.4261 73.1694 14.8452 73.3398 15.1889C73.5131 15.5298 73.7532 15.7898 74.06 15.9688C74.3668 16.1449 74.7234 16.233 75.1296 16.233C75.3938 16.233 75.6325 16.196 75.8455 16.1222C76.0614 16.0455 76.2475 15.9318 76.4038 15.7812C76.56 15.6278 76.6808 15.4375 76.766 15.2102L77.7376 15.483C77.6353 15.8125 77.4634 16.1023 77.2219 16.3523C76.9805 16.5994 76.6822 16.7926 76.3271 16.9318C75.9719 17.0682 75.5728 17.1364 75.1296 17.1364ZM79.3697 17V10.4545H80.3413V11.4432H80.4094C80.5288 11.1193 80.7447 10.8565 81.0572 10.6548C81.3697 10.4531 81.7219 10.3523 82.114 10.3523C82.1879 10.3523 82.2802 10.3537 82.391 10.3565C82.5018 10.3594 82.5856 10.3636 82.6424 10.3693V11.392C82.6083 11.3835 82.5302 11.3707 82.408 11.3537C82.2887 11.3338 82.1623 11.3239 82.0288 11.3239C81.7106 11.3239 81.4265 11.3906 81.1765 11.5241C80.9293 11.6548 80.7333 11.8366 80.5884 12.0696C80.4464 12.2997 80.3754 12.5625 80.3754 12.858V17H79.3697Z" fill="#627A84"/>
<path d="M17.6506 25.8182L20.6733 34.3892H20.7926L23.8153 25.8182H25.108L21.3693 36H20.0966L16.358 25.8182H17.6506ZM28.071 36.179C27.5871 36.179 27.148 36.0878 26.7536 35.9055C26.3591 35.7199 26.0459 35.4531 25.8139 35.1051C25.5819 34.7538 25.4659 34.3295 25.4659 33.8324C25.4659 33.3949 25.5521 33.0402 25.7244 32.7685C25.8968 32.4934 26.1271 32.2779 26.4155 32.1222C26.7038 31.9664 27.022 31.8504 27.37 31.7741C27.7214 31.6946 28.0743 31.6316 28.429 31.5852C28.893 31.5256 29.2692 31.4808 29.5575 31.451C29.8492 31.4179 30.0613 31.3632 30.1939 31.2869C30.3298 31.2107 30.3977 31.0781 30.3977 30.8892V30.8494C30.3977 30.3589 30.2635 29.9777 29.995 29.706C29.7299 29.4342 29.3272 29.2983 28.7869 29.2983C28.2268 29.2983 27.7876 29.4209 27.4695 29.6662C27.1513 29.9115 26.9276 30.1733 26.7983 30.4517L25.6847 30.054C25.8835 29.59 26.1487 29.2287 26.4801 28.9702C26.8149 28.7083 27.1795 28.526 27.5739 28.4233C27.9716 28.3172 28.3627 28.2642 28.7472 28.2642C28.9924 28.2642 29.2741 28.294 29.5923 28.3537C29.9138 28.41 30.2237 28.5277 30.522 28.7067C30.8236 28.8857 31.0739 29.1558 31.2727 29.517C31.4716 29.8783 31.571 30.3622 31.571 30.9688V36H30.3977V34.9659H30.3381C30.2585 35.1316 30.1259 35.3089 29.9403 35.4979C29.7547 35.6868 29.5078 35.8475 29.1996 35.9801C28.8913 36.1127 28.5152 36.179 28.071 36.179ZM28.25 35.125C28.714 35.125 29.1051 35.0339 29.4233 34.8516C29.7448 34.6693 29.9867 34.4339 30.1491 34.1456C30.3149 33.8572 30.3977 33.554 30.3977 33.2358V32.1619C30.348 32.2216 30.2386 32.2763 30.0696 32.326C29.9039 32.3724 29.7116 32.4138 29.4929 32.4503C29.2775 32.4834 29.067 32.5133 28.8615 32.5398C28.6593 32.563 28.4953 32.5829 28.3693 32.5994C28.0644 32.6392 27.7794 32.7038 27.5142 32.7933C27.2524 32.8795 27.0402 33.0104 26.8778 33.1861C26.7188 33.3584 26.6392 33.5937 26.6392 33.892C26.6392 34.2997 26.79 34.608 27.0916 34.8168C27.3965 35.0223 27.7827 35.125 28.25 35.125ZM34.8858 25.8182V36H33.7125V25.8182H34.8858ZM41.8473 32.8778V28.3636H43.0206V36H41.8473V34.7074H41.7678C41.5888 35.0952 41.3104 35.425 40.9325 35.6967C40.5547 35.9652 40.0774 36.0994 39.5007 36.0994C39.0234 36.0994 38.5992 35.995 38.228 35.7862C37.8568 35.5741 37.5651 35.2559 37.353 34.8317C37.1409 34.4041 37.0348 33.8655 37.0348 33.2159V28.3636H38.2081V33.1364C38.2081 33.6932 38.3639 34.1373 38.6754 34.4688C38.9903 34.8002 39.3913 34.9659 39.8786 34.9659C40.1702 34.9659 40.4669 34.8913 40.7685 34.7422C41.0734 34.593 41.3286 34.3643 41.5341 34.0561C41.7429 33.7479 41.8473 33.3551 41.8473 32.8778ZM48.3713 36.1591C47.6355 36.1591 47.0008 35.9967 46.4672 35.6719C45.9368 35.3438 45.5275 34.8864 45.2392 34.2997C44.9541 33.7098 44.8116 33.0237 44.8116 32.2415C44.8116 31.4593 44.9541 30.7699 45.2392 30.1733C45.5275 29.5734 45.9286 29.1061 46.4423 28.7713C46.9593 28.4332 47.5626 28.2642 48.252 28.2642C48.6497 28.2642 49.0424 28.3305 49.4302 28.4631C49.818 28.5956 50.171 28.8111 50.4892 29.1094C50.8074 29.4044 51.0609 29.7955 51.2498 30.2827C51.4387 30.7699 51.5332 31.3698 51.5332 32.0824V32.5795H45.6468V31.5653H50.34C50.34 31.1345 50.2538 30.75 50.0815 30.4119C49.9125 30.0739 49.6705 29.8071 49.3556 29.6115C49.0441 29.416 48.6762 29.3182 48.252 29.3182C47.7846 29.3182 47.3803 29.4342 47.0389 29.6662C46.7008 29.8949 46.4406 30.1932 46.2583 30.5611C46.0761 30.929 45.9849 31.3234 45.9849 31.7443V32.4205C45.9849 32.9972 46.0843 33.486 46.2832 33.8871C46.4854 34.2848 46.7654 34.5881 47.1234 34.7969C47.4814 35.0024 47.8973 35.1051 48.3713 35.1051C48.6795 35.1051 48.9579 35.062 49.2065 34.9759C49.4584 34.8864 49.6755 34.7538 49.8578 34.5781C50.0401 34.3991 50.1809 34.1771 50.2804 33.9119L51.4139 34.2301C51.2946 34.6146 51.094 34.9527 50.8123 35.2443C50.5306 35.5327 50.1826 35.758 49.7683 35.9205C49.354 36.0795 48.8883 36.1591 48.3713 36.1591Z" fill="#233D48"/>
</svg>
