<svg width="224" height="117" viewBox="0 0 224 117" fill="none" xmlns="http://www.w3.org/2000/svg">
<path d="M9.34748 96.4449C8.77284 95.5866 8.35991 94.6108 8.15227 93.5613L8.64277 93.4643C8.54916 92.9911 8.5 92.5015 8.5 92V90.1111H8V86.3333H8.5V82.5556H8V78.7778H8.5V75H8V71.2222H8.5V67.4445H8V63.6667H8.5V59.8889H8V56.1111H8.5V52.3333H8V48.5556H8.5V44.7778H8V41H8.5V37.2222H8V33.4444H8.5V29.6667H8V25.8889H8.5V24C8.5 23.4985 8.54916 23.0089 8.64277 22.5357L8.15227 22.4387C8.35991 21.3891 8.77284 20.4134 9.34748 19.5551L9.76296 19.8332C10.3107 19.0151 11.0151 18.3107 11.8332 17.763L11.5551 17.3475C12.4134 16.7728 13.3891 16.3599 14.4387 16.1523L14.5357 16.6428C15.0089 16.5492 15.4985 16.5 16 16.5H18V16H22V16.5H26V16H30V16.5H34V16H38V16.5H42V16H46V16.5H50V16H54V16.5H58V16H62V16.5H66V16H70V16.5H74V16H78V16.5H82V16H86V16.5H90V16H94V16.5H98V16H102V16.5H106V16H110V16.5H114V16H118V16.5H122V16H126V16.5H130V16H134V16.5H138V16H142V16.5H146V16H150V16.5H154V16H158V16.5H162V16H166V16.5H170V16H174V16.5H178V16H182V16.5H186V16H190V16.5H194V16H198V16.5H202V16H206V16.5H208C208.502 16.5 208.991 16.5492 209.464 16.6428L209.561 16.1523C210.611 16.3599 211.587 16.7728 212.445 17.3475L212.167 17.763C212.985 18.3107 213.689 19.0151 214.237 19.8332L214.653 19.5551C215.227 20.4134 215.64 21.3891 215.848 22.4387L215.357 22.5357C215.451 23.0089 215.5 23.4985 215.5 24V25.8889H216V29.6667H215.5V33.4444H216V37.2222H215.5V41H216V44.7778H215.5V48.5555H216V52.3333H215.5V56.1111H216V59.8889H215.5V63.6667H216V67.4444H215.5V71.2222H216V75H215.5V78.7778H216V82.5556H215.5V86.3333H216V90.1111H215.5V92C215.5 92.5015 215.451 92.9911 215.357 93.4643L215.848 93.5613C215.64 94.6108 215.227 95.5866 214.653 96.4449L214.237 96.1668C213.689 96.9849 212.985 97.6893 212.167 98.237L212.445 98.6525C211.587 99.2272 210.611 99.6401 209.561 99.8477L209.464 99.3572C208.991 99.4508 208.502 99.5 208 99.5H206V100H202V99.5H198V100H194V99.5H190V100H186V99.5H182V100H178V99.5H174V100H170V99.5H166V100H162V99.5H158V100H154V99.5H150V100H146V99.5H142V100H138V99.5H134V100H130V99.5H126V100H122V99.5H118V100H114V99.5H110V100H106V99.5H102V100H98V99.5H94V100H90V99.5H86V100H82V99.5H78V100H74V99.5H70V100H66V99.5H62V100H58V99.5H54V100H50V99.5H46V100H42V99.5H38V100H34V99.5H30V100H26V99.5H22V100H18V99.5H16C15.4985 99.5 15.0089 99.4508 14.5357 99.3572L14.4387 99.8477C13.3892 99.6401 12.4134 99.2272 11.5551 98.6525L11.8332 98.237C11.0151 97.6893 10.3107 96.9849 9.76296 96.1668L9.34748 96.4449Z" fill="white"/>
<path d="M9.34748 96.4449C8.77284 95.5866 8.35991 94.6108 8.15227 93.5613L8.64277 93.4643C8.54916 92.9911 8.5 92.5015 8.5 92V90.1111H8V86.3333H8.5V82.5556H8V78.7778H8.5V75H8V71.2222H8.5V67.4445H8V63.6667H8.5V59.8889H8V56.1111H8.5V52.3333H8V48.5556H8.5V44.7778H8V41H8.5V37.2222H8V33.4444H8.5V29.6667H8V25.8889H8.5V24C8.5 23.4985 8.54916 23.0089 8.64277 22.5357L8.15227 22.4387C8.35991 21.3891 8.77284 20.4134 9.34748 19.5551L9.76296 19.8332C10.3107 19.0151 11.0151 18.3107 11.8332 17.763L11.5551 17.3475C12.4134 16.7728 13.3891 16.3599 14.4387 16.1523L14.5357 16.6428C15.0089 16.5492 15.4985 16.5 16 16.5H18V16H22V16.5H26V16H30V16.5H34V16H38V16.5H42V16H46V16.5H50V16H54V16.5H58V16H62V16.5H66V16H70V16.5H74V16H78V16.5H82V16H86V16.5H90V16H94V16.5H98V16H102V16.5H106V16H110V16.5H114V16H118V16.5H122V16H126V16.5H130V16H134V16.5H138V16H142V16.5H146V16H150V16.5H154V16H158V16.5H162V16H166V16.5H170V16H174V16.5H178V16H182V16.5H186V16H190V16.5H194V16H198V16.5H202V16H206V16.5H208C208.502 16.5 208.991 16.5492 209.464 16.6428L209.561 16.1523C210.611 16.3599 211.587 16.7728 212.445 17.3475L212.167 17.763C212.985 18.3107 213.689 19.0151 214.237 19.8332L214.653 19.5551C215.227 20.4134 215.64 21.3891 215.848 22.4387L215.357 22.5357C215.451 23.0089 215.5 23.4985 215.5 24V25.8889H216V29.6667H215.5V33.4444H216V37.2222H215.5V41H216V44.7778H215.5V48.5555H216V52.3333H215.5V56.1111H216V59.8889H215.5V63.6667H216V67.4444H215.5V71.2222H216V75H215.5V78.7778H216V82.5556H215.5V86.3333H216V90.1111H215.5V92C215.5 92.5015 215.451 92.9911 215.357 93.4643L215.848 93.5613C215.64 94.6108 215.227 95.5866 214.653 96.4449L214.237 96.1668C213.689 96.9849 212.985 97.6893 212.167 98.237L212.445 98.6525C211.587 99.2272 210.611 99.6401 209.561 99.8477L209.464 99.3572C208.991 99.4508 208.502 99.5 208 99.5H206V100H202V99.5H198V100H194V99.5H190V100H186V99.5H182V100H178V99.5H174V100H170V99.5H166V100H162V99.5H158V100H154V99.5H150V100H146V99.5H142V100H138V99.5H134V100H130V99.5H126V100H122V99.5H118V100H114V99.5H110V100H106V99.5H102V100H98V99.5H94V100H90V99.5H86V100H82V99.5H78V100H74V99.5H70V100H66V99.5H62V100H58V99.5H54V100H50V99.5H46V100H42V99.5H38V100H34V99.5H30V100H26V99.5H22V100H18V99.5H16C15.4985 99.5 15.0089 99.4508 14.5357 99.3572L14.4387 99.8477C13.3892 99.6401 12.4134 99.2272 11.5551 98.6525L11.8332 98.237C11.0151 97.6893 10.3107 96.9849 9.76296 96.1668L9.34748 96.4449Z" stroke="#DADFE2" stroke-dasharray="4 4"/>
<path d="M60.5 38C60.5 33.8579 63.8579 30.5 68 30.5H154C158.142 30.5 161.5 33.8579 161.5 38V54C161.5 58.1421 158.142 61.5 154 61.5H68C63.8579 61.5 60.5 58.1421 60.5 54V38Z" fill="white"/>
<path d="M60.5 38C60.5 33.8579 63.8579 30.5 68 30.5H154C158.142 30.5 161.5 33.8579 161.5 38V54C161.5 58.1421 158.142 61.5 154 61.5H68C63.8579 61.5 60.5 58.1421 60.5 54V38Z" stroke="#DADFE2"/>
<path d="M78.689 43.6172C78.6426 43.183 78.4471 42.8449 78.1024 42.603C77.761 42.361 77.3169 42.2401 76.77 42.2401C76.3855 42.2401 76.0557 42.2981 75.7806 42.4141C75.5055 42.5301 75.2951 42.6875 75.1492 42.8864C75.0034 43.0852 74.9288 43.3123 74.9255 43.5675C74.9255 43.7796 74.9736 43.9635 75.0697 44.1193C75.1691 44.2751 75.3034 44.4077 75.4724 44.517C75.6414 44.6231 75.8287 44.7126 76.0342 44.7855C76.2397 44.8584 76.4468 44.9197 76.6556 44.9695L77.6102 45.2081C77.9946 45.2976 78.3642 45.4186 78.7188 45.571C79.0768 45.7235 79.3966 45.9157 79.6784 46.1477C79.9634 46.3797 80.1888 46.6598 80.3545 46.9879C80.5202 47.3161 80.6031 47.7005 80.6031 48.1413C80.6031 48.7379 80.4506 49.2633 80.1457 49.7173C79.8408 50.1681 79.3999 50.5211 78.8232 50.7763C78.2499 51.0282 77.5555 51.1541 76.7401 51.1541C75.948 51.1541 75.2603 51.0315 74.6769 50.7862C74.0969 50.541 73.6428 50.183 73.3147 49.7124C72.9899 49.2417 72.8142 48.6683 72.7877 47.9922H74.6024C74.6289 48.3468 74.7383 48.6418 74.9305 48.8771C75.1227 49.1125 75.373 49.2881 75.6812 49.4041C75.9927 49.5201 76.3408 49.5781 76.7252 49.5781C77.1263 49.5781 77.4776 49.5185 77.7792 49.3991C78.0841 49.2765 78.3228 49.1075 78.4951 48.892C78.6675 48.6733 78.7553 48.4181 78.7586 48.1264C78.7553 47.8613 78.6774 47.6425 78.5249 47.4702C78.3725 47.2945 78.1587 47.1487 77.8836 47.0327C77.6118 46.9134 77.2936 46.8073 76.9291 46.7145L75.7707 46.4162C74.9321 46.2008 74.2693 45.8743 73.782 45.4368C73.2981 44.996 73.0562 44.411 73.0562 43.6818C73.0562 43.0819 73.2186 42.5566 73.5434 42.1058C73.8715 41.6551 74.3173 41.3054 74.8808 41.0568C75.4442 40.8049 76.0822 40.679 76.7948 40.679C77.5174 40.679 78.1504 40.8049 78.694 41.0568C79.2409 41.3054 79.6701 41.6518 79.9816 42.0959C80.2932 42.5367 80.4539 43.0438 80.4639 43.6172H78.689ZM85.5486 51.1491C84.7829 51.1491 84.1217 50.9901 83.5649 50.6719C83.0114 50.3504 82.5855 49.8963 82.2872 49.3097C81.9889 48.7197 81.8398 48.0253 81.8398 47.2266C81.8398 46.4411 81.9889 45.7517 82.2872 45.1584C82.5888 44.5618 83.0097 44.0978 83.55 43.7663C84.0902 43.4316 84.7249 43.2642 85.4541 43.2642C85.9247 43.2642 86.3689 43.3404 86.7865 43.4929C87.2074 43.642 87.5786 43.8741 87.9001 44.1889C88.2249 44.5038 88.4801 44.9048 88.6657 45.392C88.8514 45.8759 88.9442 46.4527 88.9442 47.1222V47.674H82.6849V46.4609H87.219C87.2157 46.1162 87.1411 45.8097 86.9953 45.5412C86.8495 45.2694 86.6456 45.0556 86.3838 44.8999C86.1253 44.7441 85.8237 44.6662 85.479 44.6662C85.1111 44.6662 84.7879 44.7557 84.5095 44.9347C84.2311 45.1103 84.014 45.3423 83.8582 45.6307C83.7058 45.9157 83.6279 46.2289 83.6246 46.5703V47.6293C83.6246 48.0734 83.7058 48.4545 83.8682 48.7727C84.0306 49.0876 84.2576 49.3295 84.5493 49.4986C84.8409 49.6643 85.1823 49.7472 85.5734 49.7472C85.8353 49.7472 86.0722 49.7107 86.2844 49.6378C86.4965 49.5616 86.6804 49.4505 86.8362 49.3047C86.992 49.1589 87.1096 48.9782 87.1892 48.7628L88.8696 48.9517C88.7635 49.3958 88.5613 49.7836 88.2631 50.1151C87.9681 50.4432 87.5902 50.6984 87.1295 50.8807C86.6688 51.0597 86.1418 51.1491 85.5486 51.1491ZM92.2664 40.8182V51H90.4667V40.8182H92.2664ZM97.4978 51.1491C96.7322 51.1491 96.0709 50.9901 95.5141 50.6719C94.9606 50.3504 94.5347 49.8963 94.2364 49.3097C93.9381 48.7197 93.789 48.0253 93.789 47.2266C93.789 46.4411 93.9381 45.7517 94.2364 45.1584C94.538 44.5618 94.959 44.0978 95.4992 43.7663C96.0394 43.4316 96.6742 43.2642 97.4033 43.2642C97.874 43.2642 98.3181 43.3404 98.7357 43.4929C99.1566 43.642 99.5278 43.8741 99.8493 44.1889C100.174 44.5038 100.429 44.9048 100.615 45.392C100.801 45.8759 100.893 46.4527 100.893 47.1222V47.674H94.6341V46.4609H99.1682C99.1649 46.1162 99.0903 45.8097 98.9445 45.5412C98.7987 45.2694 98.5948 45.0556 98.333 44.8999C98.0745 44.7441 97.7729 44.6662 97.4282 44.6662C97.0603 44.6662 96.7371 44.7557 96.4587 44.9347C96.1803 45.1103 95.9632 45.3423 95.8074 45.6307C95.655 45.9157 95.5771 46.2289 95.5738 46.5703V47.6293C95.5738 48.0734 95.655 48.4545 95.8174 48.7727C95.9798 49.0876 96.2068 49.3295 96.4985 49.4986C96.7902 49.6643 97.1315 49.7472 97.5226 49.7472C97.7845 49.7472 98.0215 49.7107 98.2336 49.6378C98.4457 49.5616 98.6296 49.4505 98.7854 49.3047C98.9412 49.1589 99.0589 48.9782 99.1384 48.7628L100.819 48.9517C100.713 49.3958 100.511 49.7836 100.212 50.1151C99.9173 50.4432 99.5394 50.6984 99.0787 50.8807C98.618 51.0597 98.0911 51.1491 97.4978 51.1491ZM105.747 51.1491C104.985 51.1491 104.33 50.9818 103.783 50.647C103.24 50.3123 102.82 49.8499 102.525 49.2599C102.234 48.6667 102.088 47.9839 102.088 47.2116C102.088 46.4361 102.237 45.7517 102.535 45.1584C102.834 44.5618 103.254 44.0978 103.798 43.7663C104.345 43.4316 104.991 43.2642 105.737 43.2642C106.357 43.2642 106.905 43.3786 107.383 43.6072C107.863 43.8326 108.246 44.1525 108.531 44.5668C108.816 44.9777 108.978 45.4583 109.018 46.0085H107.298C107.228 45.6406 107.063 45.334 106.801 45.0888C106.542 44.8402 106.196 44.7159 105.762 44.7159C105.394 44.7159 105.071 44.8153 104.792 45.0142C104.514 45.2098 104.297 45.4915 104.141 45.8594C103.989 46.2273 103.912 46.6681 103.912 47.1818C103.912 47.7022 103.989 48.1496 104.141 48.5241C104.294 48.8954 104.507 49.1821 104.782 49.3842C105.061 49.5831 105.387 49.6825 105.762 49.6825C106.027 49.6825 106.264 49.6328 106.473 49.5334C106.685 49.4306 106.862 49.2831 107.005 49.0909C107.147 48.8987 107.245 48.665 107.298 48.3899H109.018C108.975 48.9302 108.816 49.4091 108.541 49.8267C108.266 50.241 107.891 50.5658 107.417 50.8011C106.943 51.0331 106.387 51.1491 105.747 51.1491ZM114.309 43.3636V44.7557H109.919V43.3636H114.309ZM111.003 41.5341H112.803V48.7031C112.803 48.9451 112.839 49.1307 112.912 49.2599C112.988 49.3859 113.088 49.4721 113.21 49.5185C113.333 49.5649 113.469 49.5881 113.618 49.5881C113.731 49.5881 113.834 49.5798 113.926 49.5632C114.023 49.5466 114.095 49.5317 114.145 49.5185L114.448 50.9254C114.352 50.9586 114.215 50.995 114.036 51.0348C113.86 51.0746 113.645 51.0978 113.389 51.1044C112.939 51.1177 112.533 51.0497 112.171 50.9006C111.81 50.7481 111.523 50.5128 111.311 50.1946C111.103 49.8764 111 49.4787 111.003 49.0014V41.5341ZM119.367 51V40.8182H125.889V42.3643H121.211V45.1286H125.442V46.6747H121.211V51H119.367ZM127.49 51V43.3636H129.29V51H127.49ZM128.395 42.2798C128.11 42.2798 127.865 42.1854 127.659 41.9964C127.454 41.8042 127.351 41.5739 127.351 41.3054C127.351 41.0336 127.454 40.8033 127.659 40.6143C127.865 40.4221 128.11 40.326 128.395 40.326C128.683 40.326 128.929 40.4221 129.131 40.6143C129.336 40.8033 129.439 41.0336 129.439 41.3054C129.439 41.5739 129.336 41.8042 129.131 41.9964C128.929 42.1854 128.683 42.2798 128.395 42.2798ZM132.94 40.8182V51H131.141V40.8182H132.94ZM138.172 51.1491C137.406 51.1491 136.745 50.9901 136.188 50.6719C135.634 50.3504 135.209 49.8963 134.91 49.3097C134.612 48.7197 134.463 48.0253 134.463 47.2266C134.463 46.4411 134.612 45.7517 134.91 45.1584C135.212 44.5618 135.633 44.0978 136.173 43.7663C136.713 43.4316 137.348 43.2642 138.077 43.2642C138.548 43.2642 138.992 43.3404 139.41 43.4929C139.83 43.642 140.202 43.8741 140.523 44.1889C140.848 44.5038 141.103 44.9048 141.289 45.392C141.474 45.8759 141.567 46.4527 141.567 47.1222V47.674H135.308V46.4609H139.842C139.839 46.1162 139.764 45.8097 139.618 45.5412C139.473 45.2694 139.269 45.0556 139.007 44.8999C138.748 44.7441 138.447 44.6662 138.102 44.6662C137.734 44.6662 137.411 44.7557 137.133 44.9347C136.854 45.1103 136.637 45.3423 136.481 45.6307C136.329 45.9157 136.251 46.2289 136.248 46.5703V47.6293C136.248 48.0734 136.329 48.4545 136.491 48.7727C136.654 49.0876 136.881 49.3295 137.172 49.4986C137.464 49.6643 137.805 49.7472 138.196 49.7472C138.458 49.7472 138.695 49.7107 138.907 49.6378C139.12 49.5616 139.303 49.4505 139.459 49.3047C139.615 49.1589 139.733 48.9782 139.812 48.7628L141.493 48.9517C141.387 49.3958 141.184 49.7836 140.886 50.1151C140.591 50.4432 140.213 50.6984 139.753 50.8807C139.292 51.0597 138.765 51.1491 138.172 51.1491ZM149.125 45.3821L147.485 45.5611C147.438 45.3954 147.357 45.2396 147.241 45.0938C147.128 44.9479 146.976 44.8303 146.784 44.7408C146.591 44.6513 146.356 44.6065 146.078 44.6065C145.703 44.6065 145.388 44.6877 145.133 44.8501C144.881 45.0125 144.757 45.223 144.76 45.4815C144.757 45.7036 144.838 45.8842 145.004 46.0234C145.173 46.1626 145.451 46.277 145.839 46.3665L147.142 46.6449C147.864 46.8007 148.401 47.0476 148.752 47.3857C149.107 47.7237 149.286 48.1662 149.289 48.7131C149.286 49.1937 149.145 49.6179 148.867 49.9858C148.592 50.3504 148.209 50.6354 147.718 50.8409C147.228 51.0464 146.664 51.1491 146.028 51.1491C145.093 51.1491 144.341 50.9536 143.771 50.5625C143.201 50.1681 142.861 49.6196 142.752 48.9169L144.507 48.7479C144.586 49.0926 144.755 49.3527 145.014 49.5284C145.272 49.7041 145.609 49.7919 146.023 49.7919C146.451 49.7919 146.794 49.7041 147.052 49.5284C147.314 49.3527 147.445 49.1357 147.445 48.8771C147.445 48.6584 147.36 48.4777 147.191 48.3352C147.026 48.1927 146.767 48.0833 146.416 48.0071L145.113 47.7337C144.381 47.5812 143.839 47.3243 143.487 46.9631C143.136 46.5985 142.962 46.1378 142.965 45.581C142.962 45.1103 143.09 44.7027 143.348 44.358C143.61 44.0099 143.973 43.7415 144.437 43.5526C144.904 43.3603 145.443 43.2642 146.053 43.2642C146.948 43.2642 147.652 43.4548 148.166 43.8359C148.683 44.2171 149.003 44.7325 149.125 45.3821Z" fill="#388523"/>
<path d="M38.0561 81.6364C37.4652 81.6364 36.9467 81.4957 36.5007 81.2145C36.0575 80.9332 35.7109 80.5398 35.4609 80.0341C35.2138 79.5284 35.0902 78.9375 35.0902 78.2614C35.0902 77.5795 35.2138 76.9844 35.4609 76.4759C35.7109 75.9673 36.0575 75.5724 36.5007 75.2912C36.9467 75.0099 37.4652 74.8693 38.0561 74.8693C38.647 74.8693 39.1641 75.0099 39.6072 75.2912C40.0533 75.5724 40.3999 75.9673 40.647 76.4759C40.897 76.9844 41.022 77.5795 41.022 78.2614C41.022 78.9375 40.897 79.5284 40.647 80.0341C40.3999 80.5398 40.0533 80.9332 39.6072 81.2145C39.1641 81.4957 38.647 81.6364 38.0561 81.6364ZM38.0561 80.733C38.505 80.733 38.8743 80.6179 39.1641 80.3878C39.4538 80.1577 39.6683 79.8551 39.8075 79.4801C39.9467 79.1051 40.0163 78.6989 40.0163 78.2614C40.0163 77.8239 39.9467 77.4162 39.8075 77.0384C39.6683 76.6605 39.4538 76.3551 39.1641 76.1222C38.8743 75.8892 38.505 75.7727 38.0561 75.7727C37.6072 75.7727 37.2379 75.8892 36.9482 76.1222C36.6584 76.3551 36.4439 76.6605 36.3047 77.0384C36.1655 77.4162 36.0959 77.8239 36.0959 78.2614C36.0959 78.6989 36.1655 79.1051 36.3047 79.4801C36.4439 79.8551 36.6584 80.1577 36.9482 80.3878C37.2379 80.6179 37.6072 80.733 38.0561 80.733ZM42.5572 81.5V74.9545H43.5288V75.9432H43.5969C43.7163 75.6193 43.9322 75.3565 44.2447 75.1548C44.5572 74.9531 44.9094 74.8523 45.3015 74.8523C45.3754 74.8523 45.4677 74.8537 45.5785 74.8565C45.6893 74.8594 45.7731 74.8636 45.8299 74.8693V75.892C45.7958 75.8835 45.7177 75.8707 45.5955 75.8537C45.4762 75.8338 45.3498 75.8239 45.2163 75.8239C44.8981 75.8239 44.614 75.8906 44.364 76.0241C44.1168 76.1548 43.9208 76.3366 43.7759 76.5696C43.6339 76.7997 43.5629 77.0625 43.5629 77.358V81.5H42.5572ZM52.8686 81.6364C52.3232 81.6364 51.8416 81.4986 51.424 81.223C51.0064 80.9446 50.6797 80.5526 50.4439 80.0469C50.2081 79.5384 50.0902 78.9375 50.0902 78.2443C50.0902 77.5568 50.2081 76.9602 50.4439 76.4545C50.6797 75.9489 51.0078 75.5582 51.4283 75.2827C51.8487 75.0071 52.3345 74.8693 52.8857 74.8693C53.3118 74.8693 53.6484 74.9403 53.8956 75.0824C54.1456 75.2216 54.3359 75.3807 54.4666 75.5597C54.6001 75.7358 54.7038 75.8807 54.7777 75.9943H54.8629V72.7727H55.8686V81.5H54.897V80.4943H54.7777C54.7038 80.6136 54.5987 80.7642 54.4624 80.946C54.326 81.125 54.1314 81.2855 53.8786 81.4276C53.6257 81.5668 53.2891 81.6364 52.8686 81.6364ZM53.005 80.733C53.4084 80.733 53.7493 80.6278 54.0277 80.4176C54.3061 80.2045 54.5178 79.9105 54.6626 79.5355C54.8075 79.1577 54.88 78.7216 54.88 78.2273C54.88 77.7386 54.8089 77.3111 54.6669 76.9446C54.5249 76.5753 54.3146 76.2884 54.0362 76.0838C53.7578 75.8764 53.4141 75.7727 53.005 75.7727C52.5788 75.7727 52.2237 75.8821 51.9396 76.1009C51.6584 76.3168 51.4467 76.6108 51.3047 76.983C51.1655 77.3523 51.0959 77.767 51.0959 78.2273C51.0959 78.6932 51.1669 79.1165 51.3089 79.4972C51.4538 79.875 51.6669 80.1761 51.9482 80.4006C52.2322 80.6222 52.5845 80.733 53.005 80.733ZM57.8501 81.5V74.9545H58.8217V75.9432H58.8899C59.0092 75.6193 59.2251 75.3565 59.5376 75.1548C59.8501 74.9531 60.2024 74.8523 60.5945 74.8523C60.6683 74.8523 60.7607 74.8537 60.8714 74.8565C60.9822 74.8594 61.0661 74.8636 61.1229 74.8693V75.892C61.0888 75.8835 61.0107 75.8707 60.8885 75.8537C60.7692 75.8338 60.6428 75.8239 60.5092 75.8239C60.1911 75.8239 59.907 75.8906 59.657 76.0241C59.4098 76.1548 59.2138 76.3366 59.0689 76.5696C58.9268 76.7997 58.8558 77.0625 58.8558 77.358V81.5H57.8501ZM64.2411 81.6534C63.8263 81.6534 63.4499 81.5753 63.1119 81.419C62.7738 81.2599 62.5053 81.0312 62.3065 80.733C62.1076 80.4318 62.0082 80.0682 62.0082 79.642C62.0082 79.267 62.082 78.9631 62.2298 78.7301C62.3775 78.4943 62.5749 78.3097 62.8221 78.1761C63.0692 78.0426 63.342 77.9432 63.6403 77.8778C63.9414 77.8097 64.244 77.7557 64.5479 77.7159C64.9457 77.6648 65.2681 77.6264 65.5153 77.6009C65.7653 77.5724 65.9471 77.5256 66.0607 77.4602C66.1772 77.3949 66.2354 77.2812 66.2354 77.1193V77.0852C66.2354 76.6648 66.1204 76.3381 65.8903 76.1051C65.663 75.8722 65.3178 75.7557 64.8548 75.7557C64.3746 75.7557 63.9982 75.8608 63.7255 76.071C63.4528 76.2812 63.261 76.5057 63.1502 76.7443L62.1957 76.4034C62.3661 76.0057 62.5934 75.696 62.8775 75.4744C63.1644 75.25 63.4769 75.0937 63.815 75.0057C64.1559 74.9148 64.4911 74.8693 64.8207 74.8693C65.0309 74.8693 65.2724 74.8949 65.5451 74.946C65.8207 74.9943 66.0863 75.0952 66.342 75.2486C66.6005 75.402 66.815 75.6335 66.9854 75.9432C67.1559 76.2528 67.2411 76.6676 67.2411 77.1875V81.5H66.2354V80.6136H66.1843C66.1161 80.7557 66.0025 80.9077 65.8434 81.0696C65.6843 81.2315 65.4727 81.3693 65.2085 81.483C64.9442 81.5966 64.6218 81.6534 64.2411 81.6534ZM64.3945 80.75C64.7923 80.75 65.1275 80.6719 65.4002 80.5156C65.6758 80.3594 65.8832 80.1577 66.0224 79.9105C66.1644 79.6634 66.2354 79.4034 66.2354 79.1307V78.2102C66.1928 78.2614 66.0991 78.3082 65.9542 78.3509C65.8121 78.3906 65.6474 78.4261 65.4599 78.4574C65.2752 78.4858 65.0948 78.5114 64.9187 78.5341C64.7454 78.554 64.6048 78.571 64.4968 78.5852C64.2354 78.6193 63.9911 78.6747 63.7638 78.7514C63.5394 78.8253 63.3576 78.9375 63.2184 79.0881C63.082 79.2358 63.0138 79.4375 63.0138 79.6932C63.0138 80.0426 63.1431 80.3068 63.4016 80.4858C63.663 80.6619 63.994 80.75 64.3945 80.75ZM71.7188 84.0909C71.233 84.0909 70.8153 84.0284 70.4659 83.9034C70.1165 83.7812 69.8253 83.6193 69.5923 83.4176C69.3622 83.2188 69.179 83.0057 69.0426 82.7784L69.8438 82.2159C69.9347 82.3352 70.0497 82.4716 70.1889 82.625C70.3281 82.7812 70.5185 82.9162 70.7599 83.0298C71.0043 83.1463 71.3239 83.2045 71.7188 83.2045C72.2472 83.2045 72.6832 83.0767 73.027 82.821C73.3707 82.5653 73.5426 82.1648 73.5426 81.6193V80.2898H73.4574C73.3835 80.4091 73.2784 80.5568 73.142 80.733C73.0085 80.9062 72.8153 81.0611 72.5625 81.1974C72.3125 81.331 71.9744 81.3977 71.5483 81.3977C71.0199 81.3977 70.5455 81.2727 70.125 81.0227C69.7074 80.7727 69.3764 80.4091 69.1321 79.9318C68.8906 79.4545 68.7699 78.875 68.7699 78.1932C68.7699 77.5227 68.8878 76.9389 69.1236 76.4418C69.3594 75.9418 69.6875 75.5554 70.108 75.2827C70.5284 75.0071 71.0142 74.8693 71.5653 74.8693C71.9915 74.8693 72.3295 74.9403 72.5795 75.0824C72.8324 75.2216 73.0256 75.3807 73.1591 75.5597C73.2955 75.7358 73.4006 75.8807 73.4744 75.9943H73.5767V74.9545H74.5483V81.6875C74.5483 82.25 74.4205 82.7074 74.1648 83.0597C73.9119 83.4148 73.571 83.6747 73.142 83.8395C72.7159 84.0071 72.2415 84.0909 71.7188 84.0909ZM71.6847 80.4943C72.0881 80.4943 72.429 80.402 72.7074 80.2173C72.9858 80.0327 73.1974 79.767 73.3423 79.4205C73.4872 79.0739 73.5597 78.6591 73.5597 78.1761C73.5597 77.7045 73.4886 77.2884 73.3466 76.9276C73.2045 76.5668 72.9943 76.2841 72.7159 76.0795C72.4375 75.875 72.0938 75.7727 71.6847 75.7727C71.2585 75.7727 70.9034 75.8807 70.6193 76.0966C70.3381 76.3125 70.1264 76.6023 69.9844 76.9659C69.8452 77.3295 69.7756 77.733 69.7756 78.1761C69.7756 78.6307 69.8466 79.0327 69.9886 79.3821C70.1335 79.7287 70.3466 80.0014 70.6278 80.2003C70.9119 80.3963 71.2642 80.4943 71.6847 80.4943ZM82.679 74.9545V75.8068H79.1506V74.9545H82.679ZM80.2074 81.5V74.0511C80.2074 73.6761 80.2955 73.3636 80.4716 73.1136C80.6477 72.8636 80.8764 72.6761 81.1577 72.5511C81.4389 72.4261 81.7358 72.3636 82.0483 72.3636C82.2955 72.3636 82.4972 72.3835 82.6534 72.4233C82.8097 72.4631 82.9261 72.5 83.0028 72.5341L82.7131 73.4034C82.6619 73.3864 82.5909 73.3651 82.5 73.3395C82.4119 73.3139 82.2955 73.3011 82.1506 73.3011C81.8182 73.3011 81.5781 73.3849 81.4304 73.5526C81.2855 73.7202 81.2131 73.9659 81.2131 74.2898V81.5H80.2074ZM84.0884 81.5V74.9545H85.0941V81.5H84.0884ZM84.5998 73.8636C84.4038 73.8636 84.2347 73.7969 84.0927 73.6634C83.9535 73.5298 83.8839 73.3693 83.8839 73.1818C83.8839 72.9943 83.9535 72.8338 84.0927 72.7003C84.2347 72.5668 84.4038 72.5 84.5998 72.5C84.7958 72.5 84.9634 72.5668 85.1026 72.7003C85.2447 72.8338 85.3157 72.9943 85.3157 73.1818C85.3157 73.3693 85.2447 73.5298 85.1026 73.6634C84.9634 73.7969 84.7958 73.8636 84.5998 73.8636ZM87.9418 72.7727V81.5H86.9361V72.7727H87.9418ZM92.5281 81.6364C91.8974 81.6364 91.3533 81.4972 90.896 81.2188C90.4414 80.9375 90.0906 80.5455 89.8434 80.0426C89.5991 79.5369 89.4769 78.9489 89.4769 78.2784C89.4769 77.608 89.5991 77.017 89.8434 76.5057C90.0906 75.9915 90.4343 75.5909 90.8746 75.304C91.3178 75.0142 91.8349 74.8693 92.4258 74.8693C92.7667 74.8693 93.1033 74.9261 93.4357 75.0398C93.7681 75.1534 94.0707 75.3381 94.3434 75.5938C94.6161 75.8466 94.8335 76.1818 94.9954 76.5994C95.1573 77.017 95.2383 77.5312 95.2383 78.142V78.5682H90.1928V77.6989H94.2156C94.2156 77.3295 94.1417 77 93.994 76.7102C93.8491 76.4205 93.6417 76.1918 93.3718 76.0241C93.1048 75.8565 92.7894 75.7727 92.4258 75.7727C92.0252 75.7727 91.6786 75.8722 91.386 76.071C91.0962 76.267 90.8732 76.5227 90.717 76.8381C90.5607 77.1534 90.4826 77.4915 90.4826 77.8523V78.4318C90.4826 78.9261 90.5678 79.3452 90.7383 79.6889C90.9116 80.0298 91.1516 80.2898 91.4585 80.4688C91.7653 80.6449 92.1218 80.733 92.5281 80.733C92.7923 80.733 93.0309 80.696 93.244 80.6222C93.4599 80.5455 93.646 80.4318 93.8022 80.2812C93.9585 80.1278 94.0792 79.9375 94.1644 79.7102L95.136 79.983C95.0337 80.3125 94.8619 80.6023 94.6204 80.8523C94.3789 81.0994 94.0806 81.2926 93.7255 81.4318C93.3704 81.5682 92.9712 81.6364 92.5281 81.6364ZM101.404 76.4205L100.501 76.6761C100.444 76.5256 100.36 76.3793 100.25 76.2372C100.142 76.0923 99.994 75.973 99.8065 75.8793C99.619 75.7855 99.3789 75.7386 99.0863 75.7386C98.6857 75.7386 98.3519 75.831 98.0849 76.0156C97.8207 76.1974 97.6886 76.429 97.6886 76.7102C97.6886 76.9602 97.7795 77.1577 97.9613 77.3026C98.1431 77.4474 98.4272 77.5682 98.8136 77.6648L99.7852 77.9034C100.37 78.0455 100.806 78.2628 101.093 78.5554C101.38 78.8452 101.524 79.2187 101.524 79.6761C101.524 80.0511 101.416 80.3864 101.2 80.6818C100.987 80.9773 100.689 81.2102 100.305 81.3807C99.9215 81.5511 99.4755 81.6364 98.967 81.6364C98.2994 81.6364 97.7468 81.4915 97.3093 81.2017C96.8718 80.9119 96.5948 80.4886 96.4783 79.9318L97.4329 79.6932C97.5238 80.0455 97.6957 80.3097 97.9485 80.4858C98.2042 80.6619 98.538 80.75 98.9499 80.75C99.4187 80.75 99.7908 80.6506 100.066 80.4517C100.345 80.25 100.484 80.0085 100.484 79.7273C100.484 79.5 100.404 79.3097 100.245 79.1562C100.086 79 99.842 78.8835 99.5124 78.8068L98.4215 78.5511C97.8221 78.4091 97.3817 78.1889 97.1005 77.8906C96.8221 77.5895 96.6829 77.2131 96.6829 76.7614C96.6829 76.392 96.7866 76.0653 96.994 75.7812C97.2042 75.4972 97.4897 75.2741 97.8505 75.1122C98.2141 74.9503 98.6261 74.8693 99.0863 74.8693C99.734 74.8693 100.243 75.0114 100.612 75.2955C100.984 75.5795 101.248 75.9545 101.404 76.4205ZM107.418 77.5625V81.5H106.413V72.7727H107.418V75.9773H107.504C107.657 75.6392 107.887 75.3707 108.194 75.1719C108.504 74.9702 108.915 74.8693 109.43 74.8693C109.876 74.8693 110.266 74.9588 110.602 75.1378C110.937 75.3139 111.197 75.5852 111.381 75.9517C111.569 76.3153 111.663 76.7784 111.663 77.3409V81.5H110.657V77.4091C110.657 76.8892 110.522 76.4872 110.252 76.2031C109.985 75.9162 109.614 75.7727 109.14 75.7727C108.81 75.7727 108.515 75.8423 108.254 75.9815C107.995 76.1207 107.79 76.3239 107.64 76.5909C107.492 76.858 107.418 77.1818 107.418 77.5625ZM116.247 81.6364C115.616 81.6364 115.072 81.4972 114.615 81.2188C114.16 80.9375 113.809 80.5455 113.562 80.0426C113.318 79.5369 113.196 78.9489 113.196 78.2784C113.196 77.608 113.318 77.017 113.562 76.5057C113.809 75.9915 114.153 75.5909 114.593 75.304C115.037 75.0142 115.554 74.8693 116.145 74.8693C116.485 74.8693 116.822 74.9261 117.154 75.0398C117.487 75.1534 117.789 75.3381 118.062 75.5938C118.335 75.8466 118.552 76.1818 118.714 76.5994C118.876 77.017 118.957 77.5312 118.957 78.142V78.5682H113.912V77.6989H117.934C117.934 77.3295 117.86 77 117.713 76.7102C117.568 76.4205 117.36 76.1918 117.091 76.0241C116.824 75.8565 116.508 75.7727 116.145 75.7727C115.744 75.7727 115.397 75.8722 115.105 76.071C114.815 76.267 114.592 76.5227 114.436 76.8381C114.279 77.1534 114.201 77.4915 114.201 77.8523V78.4318C114.201 78.9261 114.287 79.3452 114.457 79.6889C114.63 80.0298 114.87 80.2898 115.177 80.4688C115.484 80.6449 115.841 80.733 116.247 80.733C116.511 80.733 116.75 80.696 116.963 80.6222C117.179 80.5455 117.365 80.4318 117.521 80.2812C117.677 80.1278 117.798 79.9375 117.883 79.7102L118.855 79.983C118.752 80.3125 118.581 80.6023 118.339 80.8523C118.098 81.0994 117.799 81.2926 117.444 81.4318C117.089 81.5682 116.69 81.6364 116.247 81.6364ZM120.487 81.5V74.9545H121.458V75.9432H121.527C121.646 75.6193 121.862 75.3565 122.174 75.1548C122.487 74.9531 122.839 74.8523 123.231 74.8523C123.305 74.8523 123.397 74.8537 123.508 74.8565C123.619 74.8594 123.703 74.8636 123.76 74.8693V75.892C123.725 75.8835 123.647 75.8707 123.525 75.8537C123.406 75.8338 123.279 75.8239 123.146 75.8239C122.828 75.8239 122.544 75.8906 122.294 76.0241C122.047 76.1548 121.85 76.3366 121.706 76.5696C121.564 76.7997 121.493 77.0625 121.493 77.358V81.5H120.487ZM127.497 81.6364C126.866 81.6364 126.322 81.4972 125.865 81.2188C125.41 80.9375 125.059 80.5455 124.812 80.0426C124.568 79.5369 124.446 78.9489 124.446 78.2784C124.446 77.608 124.568 77.017 124.812 76.5057C125.059 75.9915 125.403 75.5909 125.843 75.304C126.287 75.0142 126.804 74.8693 127.395 74.8693C127.735 74.8693 128.072 74.9261 128.404 75.0398C128.737 75.1534 129.039 75.3381 129.312 75.5938C129.585 75.8466 129.802 76.1818 129.964 76.5994C130.126 77.017 130.207 77.5312 130.207 78.142V78.5682H125.162V77.6989H129.184C129.184 77.3295 129.11 77 128.963 76.7102C128.818 76.4205 128.61 76.1918 128.341 76.0241C128.074 75.8565 127.758 75.7727 127.395 75.7727C126.994 75.7727 126.647 75.8722 126.355 76.071C126.065 76.267 125.842 76.5227 125.686 76.8381C125.529 77.1534 125.451 77.4915 125.451 77.8523V78.4318C125.451 78.9261 125.537 79.3452 125.707 79.6889C125.88 80.0298 126.12 80.2898 126.427 80.4688C126.734 80.6449 127.091 80.733 127.497 80.733C127.761 80.733 128 80.696 128.213 80.6222C128.429 80.5455 128.615 80.4318 128.771 80.2812C128.927 80.1278 129.048 79.9375 129.133 79.7102L130.105 79.983C130.002 80.3125 129.831 80.6023 129.589 80.8523C129.348 81.0994 129.049 81.2926 128.694 81.4318C128.339 81.5682 127.94 81.6364 127.497 81.6364ZM137.958 74.9545V75.8068H134.566V74.9545H137.958ZM135.555 73.3864H136.561V79.625C136.561 79.9091 136.602 80.1222 136.684 80.2642C136.77 80.4034 136.877 80.4972 137.008 80.5455C137.142 80.5909 137.282 80.6136 137.43 80.6136C137.541 80.6136 137.632 80.608 137.703 80.5966C137.774 80.5824 137.831 80.571 137.873 80.5625L138.078 81.4659C138.01 81.4915 137.914 81.517 137.792 81.5426C137.67 81.571 137.515 81.5852 137.328 81.5852C137.044 81.5852 136.765 81.5241 136.493 81.402C136.223 81.2798 135.998 81.0938 135.819 80.8438C135.643 80.5938 135.555 80.2784 135.555 79.8977V73.3864ZM142.06 81.6364C141.469 81.6364 140.951 81.4957 140.505 81.2145C140.061 80.9332 139.715 80.5398 139.465 80.0341C139.218 79.5284 139.094 78.9375 139.094 78.2614C139.094 77.5795 139.218 76.9844 139.465 76.4759C139.715 75.9673 140.061 75.5724 140.505 75.2912C140.951 75.0099 141.469 74.8693 142.06 74.8693C142.651 74.8693 143.168 75.0099 143.611 75.2912C144.057 75.5724 144.404 75.9673 144.651 76.4759C144.901 76.9844 145.026 77.5795 145.026 78.2614C145.026 78.9375 144.901 79.5284 144.651 80.0341C144.404 80.5398 144.057 80.9332 143.611 81.2145C143.168 81.4957 142.651 81.6364 142.06 81.6364ZM142.06 80.733C142.509 80.733 142.878 80.6179 143.168 80.3878C143.458 80.1577 143.672 79.8551 143.811 79.4801C143.951 79.1051 144.02 78.6989 144.02 78.2614C144.02 77.8239 143.951 77.4162 143.811 77.0384C143.672 76.6605 143.458 76.3551 143.168 76.1222C142.878 75.8892 142.509 75.7727 142.06 75.7727C141.611 75.7727 141.242 75.8892 140.952 76.1222C140.662 76.3551 140.448 76.6605 140.309 77.0384C140.169 77.4162 140.1 77.8239 140.1 78.2614C140.1 78.6989 140.169 79.1051 140.309 79.4801C140.448 79.8551 140.662 80.1577 140.952 80.3878C141.242 80.6179 141.611 80.733 142.06 80.733ZM154.061 78.8239V74.9545H155.067V81.5H154.061V80.392H153.993C153.839 80.7244 153.601 81.0071 153.277 81.2401C152.953 81.4702 152.544 81.5852 152.05 81.5852C151.641 81.5852 151.277 81.4957 150.959 81.3168C150.641 81.1349 150.391 80.8622 150.209 80.4986C150.027 80.1321 149.936 79.6705 149.936 79.1136V74.9545H150.942V79.0455C150.942 79.5227 151.075 79.9034 151.342 80.1875C151.612 80.4716 151.956 80.6136 152.374 80.6136C152.624 80.6136 152.878 80.5497 153.136 80.4219C153.398 80.294 153.616 80.098 153.793 79.8338C153.972 79.5696 154.061 79.233 154.061 78.8239ZM156.909 83.9545V74.9545H157.88V75.9943H158C158.074 75.8807 158.176 75.7358 158.306 75.5597C158.44 75.3807 158.63 75.2216 158.877 75.0824C159.127 74.9403 159.466 74.8693 159.892 74.8693C160.443 74.8693 160.929 75.0071 161.349 75.2827C161.77 75.5582 162.098 75.9489 162.333 76.4545C162.569 76.9602 162.687 77.5568 162.687 78.2443C162.687 78.9375 162.569 79.5384 162.333 80.0469C162.098 80.5526 161.771 80.9446 161.353 81.223C160.936 81.4986 160.454 81.6364 159.909 81.6364C159.488 81.6364 159.152 81.5668 158.899 81.4276C158.646 81.2855 158.451 81.125 158.315 80.946C158.179 80.7642 158.074 80.6136 158 80.4943H157.914V83.9545H156.909ZM157.897 78.2273C157.897 78.7216 157.97 79.1577 158.115 79.5355C158.26 79.9105 158.471 80.2045 158.75 80.4176C159.028 80.6278 159.369 80.733 159.772 80.733C160.193 80.733 160.544 80.6222 160.825 80.4006C161.109 80.1761 161.322 79.875 161.464 79.4972C161.609 79.1165 161.681 78.6932 161.681 78.2273C161.681 77.767 161.61 77.3523 161.468 76.983C161.329 76.6108 161.118 76.3168 160.833 76.1009C160.552 75.8821 160.199 75.7727 159.772 75.7727C159.363 75.7727 159.02 75.8764 158.741 76.0838C158.463 76.2884 158.252 76.5753 158.11 76.9446C157.968 77.3111 157.897 77.7386 157.897 78.2273ZM165.227 72.7727V81.5H164.221V72.7727H165.227ZM169.728 81.6364C169.137 81.6364 168.619 81.4957 168.173 81.2145C167.729 80.9332 167.383 80.5398 167.133 80.0341C166.886 79.5284 166.762 78.9375 166.762 78.2614C166.762 77.5795 166.886 76.9844 167.133 76.4759C167.383 75.9673 167.729 75.5724 168.173 75.2912C168.619 75.0099 169.137 74.8693 169.728 74.8693C170.319 74.8693 170.836 75.0099 171.279 75.2912C171.725 75.5724 172.072 75.9673 172.319 76.4759C172.569 76.9844 172.694 77.5795 172.694 78.2614C172.694 78.9375 172.569 79.5284 172.319 80.0341C172.072 80.5398 171.725 80.9332 171.279 81.2145C170.836 81.4957 170.319 81.6364 169.728 81.6364ZM169.728 80.733C170.177 80.733 170.546 80.6179 170.836 80.3878C171.126 80.1577 171.34 79.8551 171.479 79.4801C171.619 79.1051 171.688 78.6989 171.688 78.2614C171.688 77.8239 171.619 77.4162 171.479 77.0384C171.34 76.6605 171.126 76.3551 170.836 76.1222C170.546 75.8892 170.177 75.7727 169.728 75.7727C169.279 75.7727 168.91 75.8892 168.62 76.1222C168.33 76.3551 168.116 76.6605 167.977 77.0384C167.837 77.4162 167.768 77.8239 167.768 78.2614C167.768 78.6989 167.837 79.1051 167.977 79.4801C168.116 79.8551 168.33 80.1577 168.62 80.3878C168.91 80.6179 169.279 80.733 169.728 80.733ZM176.155 81.6534C175.74 81.6534 175.364 81.5753 175.026 81.419C174.688 81.2599 174.419 81.0312 174.221 80.733C174.022 80.4318 173.922 80.0682 173.922 79.642C173.922 79.267 173.996 78.9631 174.144 78.7301C174.292 78.4943 174.489 78.3097 174.736 78.1761C174.983 78.0426 175.256 77.9432 175.554 77.8778C175.855 77.8097 176.158 77.7557 176.462 77.7159C176.86 77.6648 177.182 77.6264 177.429 77.6009C177.679 77.5724 177.861 77.5256 177.975 77.4602C178.091 77.3949 178.15 77.2812 178.15 77.1193V77.0852C178.15 76.6648 178.034 76.3381 177.804 76.1051C177.577 75.8722 177.232 75.7557 176.769 75.7557C176.289 75.7557 175.912 75.8608 175.64 76.071C175.367 76.2812 175.175 76.5057 175.064 76.7443L174.11 76.4034C174.28 76.0057 174.507 75.696 174.792 75.4744C175.078 75.25 175.391 75.0937 175.729 75.0057C176.07 74.9148 176.405 74.8693 176.735 74.8693C176.945 74.8693 177.186 74.8949 177.459 74.946C177.735 74.9943 178 75.0952 178.256 75.2486C178.515 75.402 178.729 75.6335 178.9 75.9432C179.07 76.2528 179.155 76.6676 179.155 77.1875V81.5H178.15V80.6136H178.098C178.03 80.7557 177.917 80.9077 177.757 81.0696C177.598 81.2315 177.387 81.3693 177.123 81.483C176.858 81.5966 176.536 81.6534 176.155 81.6534ZM176.309 80.75C176.706 80.75 177.042 80.6719 177.314 80.5156C177.59 80.3594 177.797 80.1577 177.936 79.9105C178.078 79.6634 178.15 79.4034 178.15 79.1307V78.2102C178.107 78.2614 178.013 78.3082 177.868 78.3509C177.726 78.3906 177.561 78.4261 177.374 78.4574C177.189 78.4858 177.009 78.5114 176.833 78.5341C176.659 78.554 176.519 78.571 176.411 78.5852C176.15 78.6193 175.905 78.6747 175.678 78.7514C175.453 78.8253 175.272 78.9375 175.132 79.0881C174.996 79.2358 174.928 79.4375 174.928 79.6932C174.928 80.0426 175.057 80.3068 175.316 80.4858C175.577 80.6619 175.908 80.75 176.309 80.75ZM183.462 81.6364C182.917 81.6364 182.435 81.4986 182.018 81.223C181.6 80.9446 181.273 80.5526 181.038 80.0469C180.802 79.5384 180.684 78.9375 180.684 78.2443C180.684 77.5568 180.802 76.9602 181.038 76.4545C181.273 75.9489 181.602 75.5582 182.022 75.2827C182.442 75.0071 182.928 74.8693 183.479 74.8693C183.906 74.8693 184.242 74.9403 184.489 75.0824C184.739 75.2216 184.93 75.3807 185.06 75.5597C185.194 75.7358 185.298 75.8807 185.371 75.9943H185.457V72.7727H186.462V81.5H185.491V80.4943H185.371C185.298 80.6136 185.192 80.7642 185.056 80.946C184.92 81.125 184.725 81.2855 184.472 81.4276C184.219 81.5668 183.883 81.6364 183.462 81.6364ZM183.599 80.733C184.002 80.733 184.343 80.6278 184.621 80.4176C184.9 80.2045 185.112 79.9105 185.256 79.5355C185.401 79.1577 185.474 78.7216 185.474 78.2273C185.474 77.7386 185.403 77.3111 185.261 76.9446C185.119 76.5753 184.908 76.2884 184.63 76.0838C184.352 75.8764 184.008 75.7727 183.599 75.7727C183.173 75.7727 182.817 75.8821 182.533 76.1009C182.252 76.3168 182.04 76.6108 181.898 76.983C181.759 77.3523 181.69 77.767 181.69 78.2273C181.69 78.6932 181.761 79.1165 181.903 79.4972C182.048 79.875 182.261 80.1761 182.542 80.4006C182.826 80.6222 183.178 80.733 183.599 80.733Z" fill="#627A84"/>
</svg>
