<svg width="224" height="117" viewBox="0 0 224 117" fill="none" xmlns="http://www.w3.org/2000/svg">
<path fill-rule="evenodd" clip-rule="evenodd" d="M40.878 82.7561C54.0655 82.7561 64.7561 72.0656 64.7561 58.8781C64.7561 45.6906 54.0655 35 40.878 35C27.6906 35 17 45.6906 17 58.8781C17 72.0656 27.6906 82.7561 40.878 82.7561Z" fill="#627A84"/>
<path d="M30.5171 64.7732H28.8024L33.7619 51.2665H35.4503L40.4098 64.7732H38.6951L34.6589 53.4033H34.5533L30.5171 64.7732ZM31.1503 59.4971H38.0619V60.9481H31.1503V59.4971ZM43.0676 64.7732H41.3529L46.3124 51.2665H48.0008L52.9603 64.7732H51.2455L47.2093 53.4033H47.1038L43.0676 64.7732ZM43.7007 59.4971H50.6124V60.9481H43.7007V59.4971Z" fill="white"/>
<path d="M75.3687 48.5973H144.675C147.422 48.5973 149.65 50.8245 149.65 53.5719V64.1843C149.65 66.9317 147.422 69.1589 144.675 69.1589H75.3687C72.6213 69.1589 70.3941 66.9317 70.3941 64.1843V53.5719C70.3941 50.8245 72.6213 48.5973 75.3687 48.5973Z" fill="white"/>
<path d="M75.3687 48.5973H144.675C147.422 48.5973 149.65 50.8245 149.65 53.5719V64.1843C149.65 66.9317 147.422 69.1589 144.675 69.1589H75.3687C72.6213 69.1589 70.3941 66.9317 70.3941 64.1843V53.5719C70.3941 50.8245 72.6213 48.5973 75.3687 48.5973Z" stroke="#DADFE2" stroke-width="0.663279"/>
<path d="M84.6481 57.4033H83.4149C83.3797 57.2011 83.3148 57.0219 83.2203 56.8658C83.1258 56.7075 83.0082 56.5734 82.8675 56.4635C82.7268 56.3536 82.5663 56.2711 82.386 56.2162C82.2079 56.159 82.0156 56.1304 81.8089 56.1304C81.4418 56.1304 81.1165 56.2228 80.8329 56.4074C80.5493 56.5899 80.3272 56.8581 80.1668 57.212C80.0063 57.5638 79.926 57.9936 79.926 58.5014C79.926 59.018 80.0063 59.4533 80.1668 59.8072C80.3294 60.159 80.5515 60.425 80.8329 60.6052C81.1165 60.7833 81.4407 60.8723 81.8056 60.8723C82.0079 60.8723 82.197 60.8459 82.3728 60.7932C82.5509 60.7382 82.7103 60.658 82.851 60.5525C82.9939 60.4469 83.1137 60.3172 83.2104 60.1634C83.3093 60.0095 83.3775 59.8336 83.4149 59.6357L84.6481 59.6423C84.602 59.9633 84.5019 60.2645 84.3481 60.5459C84.1964 60.8273 83.9974 61.0757 83.7512 61.2911C83.505 61.5044 83.217 61.6714 82.8872 61.7923C82.5575 61.9111 82.1915 61.9704 81.7892 61.9704C81.1956 61.9704 80.6658 61.833 80.1997 61.5582C79.7337 61.2834 79.3666 60.8866 79.0984 60.3678C78.8302 59.849 78.6961 59.2269 78.6961 58.5014C78.6961 57.7737 78.8313 57.1516 79.1017 56.635C79.3721 56.1162 79.7403 55.7194 80.2063 55.4446C80.6724 55.1698 81.2 55.0324 81.7892 55.0324C82.1651 55.0324 82.5146 55.0851 82.8378 55.1906C83.1609 55.2962 83.4489 55.4512 83.7017 55.6556C83.9546 55.8579 84.1623 56.1063 84.325 56.4008C84.4899 56.6932 84.5976 57.0274 84.6481 57.4033ZM86.9094 58.9103V61.8781H85.7157V55.1247H86.8831V57.6737H86.9424C87.0611 57.3879 87.2447 57.1626 87.4931 56.9977C87.7437 56.8306 88.0625 56.7471 88.4494 56.7471C88.8011 56.7471 89.1078 56.8207 89.3694 56.968C89.631 57.1153 89.8333 57.3308 89.9762 57.6143C90.1212 57.8979 90.1938 58.2442 90.1938 58.6531V61.8781H89.0001V58.8377C89.0001 58.497 88.9121 58.2321 88.7363 58.043C88.5626 57.8518 88.3186 57.7561 88.0042 57.7561C87.7932 57.7561 87.6041 57.8023 87.437 57.8946C87.2722 57.9848 87.1425 58.1156 87.0479 58.287C86.9556 58.4585 86.9094 58.6663 86.9094 58.9103ZM92.8681 61.9803C92.5471 61.9803 92.2581 61.9231 92.0009 61.8088C91.7458 61.6923 91.5436 61.5208 91.3941 61.2944C91.2468 61.068 91.1732 60.7888 91.1732 60.4568C91.1732 60.171 91.2259 59.9347 91.3314 59.7479C91.437 59.561 91.581 59.4115 91.7634 59.2994C91.9459 59.1873 92.1514 59.1026 92.3801 59.0455C92.6109 58.9861 92.8494 58.9433 93.0956 58.9169C93.3924 58.8861 93.6331 58.8586 93.8178 58.8344C94.0025 58.8081 94.1366 58.7685 94.2201 58.7157C94.3058 58.6608 94.3487 58.5761 94.3487 58.4618V58.442C94.3487 58.1936 94.2751 58.0013 94.1278 57.865C93.9805 57.7287 93.7683 57.6605 93.4913 57.6605C93.199 57.6605 92.967 57.7243 92.7956 57.8518C92.6263 57.9793 92.512 58.1299 92.4526 58.3035L91.338 58.1453C91.426 57.8375 91.5711 57.5803 91.7733 57.3736C91.9756 57.1648 92.2229 57.0087 92.5153 56.9054C92.8077 56.7999 93.1308 56.7471 93.4847 56.7471C93.7288 56.7471 93.9717 56.7757 94.2135 56.8328C94.4553 56.89 94.6763 56.9845 94.8763 57.1164C95.0764 57.2461 95.2368 57.4231 95.3578 57.6473C95.4809 57.8716 95.5424 58.1518 95.5424 58.4882V61.8781H94.3949V61.1823H94.3553C94.2828 61.323 94.1805 61.4549 94.0486 61.578C93.9189 61.6989 93.7551 61.7967 93.5573 61.8715C93.3616 61.944 93.1319 61.9803 92.8681 61.9803ZM93.1781 61.1032C93.4177 61.1032 93.6254 61.0559 93.8013 60.9614C93.9772 60.8646 94.1124 60.7371 94.2069 60.5788C94.3036 60.4206 94.352 60.248 94.352 60.0611V59.4643C94.3146 59.4951 94.2509 59.5236 94.1607 59.55C94.0728 59.5764 93.9739 59.5995 93.864 59.6193C93.754 59.639 93.6452 59.6566 93.5375 59.672C93.4298 59.6874 93.3364 59.7006 93.2572 59.7116C93.0792 59.7358 92.9198 59.7753 92.7791 59.8303C92.6384 59.8853 92.5274 59.9622 92.446 60.0611C92.3647 60.1579 92.324 60.2832 92.324 60.4371C92.324 60.6569 92.4043 60.8229 92.5647 60.935C92.7252 61.0471 92.9297 61.1032 93.1781 61.1032ZM97.9364 58.9103V61.8781H96.7427V56.813H97.8837V57.6737H97.943C98.0596 57.3901 98.2453 57.1648 98.5003 56.9977C98.7575 56.8306 99.0752 56.7471 99.4533 56.7471C99.8029 56.7471 100.107 56.8218 100.367 56.9713C100.628 57.1208 100.831 57.3374 100.973 57.6209C101.119 57.9045 101.19 58.2486 101.188 58.6531V61.8781H99.9941V58.8377C99.9941 58.4992 99.9062 58.2343 99.7303 58.043C99.5566 57.8518 99.3159 57.7561 99.0081 57.7561C98.7993 57.7561 98.6135 57.8023 98.4509 57.8946C98.2904 57.9848 98.164 58.1156 98.0716 58.287C97.9815 58.4585 97.9364 58.6663 97.9364 58.9103ZM104.604 63.883C104.175 63.883 103.807 63.8247 103.499 63.7082C103.192 63.5939 102.944 63.44 102.757 63.2466C102.571 63.0531 102.441 62.8388 102.368 62.6035L103.443 62.343C103.492 62.442 103.562 62.5398 103.654 62.6365C103.747 62.7354 103.871 62.8168 104.027 62.8805C104.185 62.9465 104.384 62.9795 104.624 62.9795C104.962 62.9795 105.243 62.897 105.465 62.7321C105.687 62.5695 105.798 62.3013 105.798 61.9275V60.968H105.738C105.677 61.0911 105.587 61.2175 105.468 61.3472C105.352 61.4769 105.197 61.5857 105.003 61.6736C104.812 61.7616 104.571 61.8055 104.281 61.8055C103.892 61.8055 103.539 61.7143 103.222 61.5318C102.908 61.3472 102.657 61.0724 102.471 60.7075C102.286 60.3403 102.194 59.8809 102.194 59.3291C102.194 58.7729 102.286 58.3035 102.471 57.921C102.657 57.5363 102.909 57.245 103.226 57.0472C103.542 56.8471 103.895 56.7471 104.284 56.7471C104.581 56.7471 104.825 56.7977 105.016 56.8988C105.21 56.9977 105.364 57.1175 105.478 57.2582C105.592 57.3967 105.679 57.5275 105.738 57.6506H105.804V56.813H106.982V61.9605C106.982 62.3936 106.878 62.7519 106.672 63.0355C106.465 63.3191 106.183 63.5313 105.824 63.672C105.466 63.8126 105.059 63.883 104.604 63.883ZM104.614 60.869C104.867 60.869 105.082 60.8075 105.26 60.6844C105.438 60.5613 105.574 60.3843 105.666 60.1535C105.758 59.9226 105.804 59.6456 105.804 59.3225C105.804 59.0037 105.758 58.7245 105.666 58.4849C105.576 58.2453 105.442 58.0595 105.264 57.9276C105.088 57.7935 104.871 57.7265 104.614 57.7265C104.348 57.7265 104.126 57.7957 103.948 57.9342C103.77 58.0727 103.636 58.2629 103.546 58.5047C103.455 58.7443 103.41 59.0169 103.41 59.3225C103.41 59.6324 103.455 59.9039 103.546 60.137C103.638 60.3678 103.773 60.5481 103.951 60.6778C104.131 60.8053 104.352 60.869 104.614 60.869ZM110.447 61.977C109.94 61.977 109.501 61.8715 109.132 61.6604C108.765 61.4472 108.482 61.146 108.284 60.7569C108.086 60.3656 107.987 59.905 107.987 59.3752C107.987 58.8542 108.086 58.397 108.284 58.0035C108.484 57.6078 108.763 57.3 109.122 57.0801C109.48 56.8581 109.901 56.7471 110.385 56.7471C110.697 56.7471 110.991 56.7977 111.268 56.8988C111.548 56.9977 111.794 57.1516 112.007 57.3604C112.223 57.5693 112.392 57.8353 112.515 58.1584C112.638 58.4794 112.7 58.8619 112.7 59.306V59.672H108.548V58.8674H111.555C111.553 58.6388 111.504 58.4354 111.407 58.2574C111.31 58.0771 111.175 57.9353 111.001 57.832C110.83 57.7287 110.63 57.677 110.401 57.677C110.157 57.677 109.943 57.7364 109.758 57.8551C109.574 57.9716 109.43 58.1255 109.326 58.3167C109.225 58.5058 109.173 58.7135 109.171 58.94V59.6423C109.171 59.9369 109.225 60.1897 109.333 60.4008C109.441 60.6096 109.591 60.7701 109.785 60.8822C109.978 60.9921 110.204 61.0471 110.464 61.0471C110.638 61.0471 110.795 61.0229 110.935 60.9746C111.076 60.924 111.198 60.8503 111.301 60.7536C111.405 60.6569 111.483 60.5371 111.536 60.3942L112.65 60.5195C112.58 60.8141 112.446 61.0713 112.248 61.2911C112.052 61.5088 111.802 61.678 111.496 61.7989C111.19 61.9177 110.841 61.977 110.447 61.977ZM116.066 61.8781V55.1247H118.598C119.117 55.1247 119.552 55.2214 119.904 55.4149C120.258 55.6083 120.525 55.8743 120.705 56.2129C120.888 56.5492 120.979 56.9318 120.979 57.3604C120.979 57.7935 120.888 58.1782 120.705 58.5146C120.523 58.8509 120.253 59.1158 119.897 59.3093C119.541 59.5005 119.103 59.5962 118.582 59.5962H116.903V58.5904H118.417C118.72 58.5904 118.969 58.5377 119.162 58.4321C119.355 58.3266 119.498 58.1815 119.591 57.9969C119.685 57.8122 119.732 57.6001 119.732 57.3604C119.732 57.1208 119.685 56.9098 119.591 56.7273C119.498 56.5448 119.354 56.403 119.159 56.3019C118.965 56.1986 118.716 56.1469 118.41 56.1469H117.289V61.8781H116.066ZM123.183 58.9103V61.8781H121.989V55.1247H123.156V57.6737H123.215C123.334 57.3879 123.518 57.1626 123.766 56.9977C124.017 56.8306 124.336 56.7471 124.722 56.7471C125.074 56.7471 125.381 56.8207 125.642 56.968C125.904 57.1153 126.106 57.3308 126.249 57.6143C126.394 57.8979 126.467 58.2442 126.467 58.6531V61.8781H125.273V58.8377C125.273 58.497 125.185 58.2321 125.009 58.043C124.836 57.8518 124.592 57.7561 124.277 57.7561C124.066 57.7561 123.877 57.8023 123.71 57.8946C123.545 57.9848 123.416 58.1156 123.321 58.287C123.229 58.4585 123.183 58.6663 123.183 58.9103ZM129.893 61.977C129.398 61.977 128.97 61.8682 128.607 61.6506C128.244 61.4329 127.963 61.1284 127.763 60.7371C127.565 60.3458 127.466 59.8886 127.466 59.3653C127.466 58.8421 127.565 58.3838 127.763 57.9903C127.963 57.5968 128.244 57.2912 128.607 57.0735C128.97 56.8559 129.398 56.7471 129.893 56.7471C130.388 56.7471 130.816 56.8559 131.179 57.0735C131.542 57.2912 131.822 57.5968 132.02 57.9903C132.22 58.3838 132.32 58.8421 132.32 59.3653C132.32 59.8886 132.22 60.3458 132.02 60.7371C131.822 61.1284 131.542 61.4329 131.179 61.6506C130.816 61.8682 130.388 61.977 129.893 61.977ZM129.9 61.0207C130.168 61.0207 130.392 60.9471 130.572 60.7998C130.753 60.6503 130.887 60.4502 130.975 60.1996C131.065 59.949 131.11 59.6698 131.11 59.3621C131.11 59.0521 131.065 58.7718 130.975 58.5212C130.887 58.2684 130.753 58.0672 130.572 57.9177C130.392 57.7682 130.168 57.6935 129.9 57.6935C129.625 57.6935 129.396 57.7682 129.214 57.9177C129.033 58.0672 128.898 58.2684 128.808 58.5212C128.72 58.7718 128.676 59.0521 128.676 59.3621C128.676 59.6698 128.72 59.949 128.808 60.1996C128.898 60.4502 129.033 60.6503 129.214 60.7998C129.396 60.9471 129.625 61.0207 129.9 61.0207ZM135.862 56.813V57.7364H132.951V56.813H135.862ZM133.67 55.5995H134.863V60.3546C134.863 60.5151 134.887 60.6382 134.936 60.7239C134.986 60.8075 135.052 60.8646 135.134 60.8954C135.215 60.9262 135.305 60.9416 135.404 60.9416C135.479 60.9416 135.547 60.9361 135.609 60.9251C135.672 60.9141 135.721 60.9042 135.754 60.8954L135.955 61.8286C135.891 61.8506 135.8 61.8748 135.681 61.9012C135.565 61.9275 135.422 61.9429 135.252 61.9473C134.953 61.9561 134.684 61.9111 134.444 61.8121C134.205 61.711 134.015 61.5549 133.874 61.3439C133.735 61.1328 133.667 60.869 133.67 60.5525V55.5995ZM139.016 61.977C138.521 61.977 138.092 61.8682 137.73 61.6506C137.367 61.4329 137.086 61.1284 136.885 60.7371C136.688 60.3458 136.589 59.8886 136.589 59.3653C136.589 58.8421 136.688 58.3838 136.885 57.9903C137.086 57.5968 137.367 57.2912 137.73 57.0735C138.092 56.8559 138.521 56.7471 139.016 56.7471C139.51 56.7471 139.939 56.8559 140.302 57.0735C140.664 57.2912 140.945 57.5968 141.143 57.9903C141.343 58.3838 141.443 58.8421 141.443 59.3653C141.443 59.8886 141.343 60.3458 141.143 60.7371C140.945 61.1284 140.664 61.4329 140.302 61.6506C139.939 61.8682 139.51 61.977 139.016 61.977ZM139.022 61.0207C139.29 61.0207 139.515 60.9471 139.695 60.7998C139.875 60.6503 140.009 60.4502 140.097 60.1996C140.187 59.949 140.232 59.6698 140.232 59.3621C140.232 59.0521 140.187 58.7718 140.097 58.5212C140.009 58.2684 139.875 58.0672 139.695 57.9177C139.515 57.7682 139.29 57.6935 139.022 57.6935C138.747 57.6935 138.519 57.7682 138.336 57.9177C138.156 58.0672 138.021 58.2684 137.931 58.5212C137.843 58.7718 137.799 59.0521 137.799 59.3621C137.799 59.6698 137.843 59.949 137.931 60.1996C138.021 60.4502 138.156 60.6503 138.336 60.7998C138.519 60.9471 138.747 61.0207 139.022 61.0207Z" fill="#388523"/>
<path d="M160.593 48.5973H201.9C204.647 48.5973 206.874 50.8245 206.874 53.5719V64.1843C206.874 66.9317 204.647 69.1589 201.9 69.1589H160.593C157.846 69.1589 155.619 66.9317 155.619 64.1843V53.5719C155.619 50.8245 157.846 48.5973 160.593 48.5973Z" fill="white"/>
<path d="M160.593 48.5973H201.9C204.647 48.5973 206.874 50.8245 206.874 53.5719V64.1843C206.874 66.9317 204.647 69.1589 201.9 69.1589H160.593C157.846 69.1589 155.619 66.9317 155.619 64.1843V53.5719C155.619 50.8245 157.846 48.5973 160.593 48.5973Z" stroke="#DADFE2" stroke-width="0.663279"/>
<path d="M163.93 61.8781V55.1247H166.463C166.982 55.1247 167.417 55.2148 167.769 55.3951C168.123 55.5754 168.39 55.8282 168.57 56.1535C168.752 56.4767 168.844 56.8537 168.844 57.2846C168.844 57.7177 168.751 58.0936 168.567 58.4124C168.384 58.7289 168.115 58.974 167.759 59.1477C167.403 59.3192 166.965 59.4049 166.446 59.4049H164.643V58.3893H166.281C166.585 58.3893 166.833 58.3475 167.027 58.264C167.22 58.1782 167.363 58.054 167.455 57.8913C167.55 57.7265 167.597 57.5242 167.597 57.2846C167.597 57.045 167.55 56.8405 167.455 56.6712C167.361 56.4998 167.217 56.3701 167.023 56.2821C166.83 56.192 166.58 56.1469 166.275 56.1469H165.154V61.8781H163.93ZM167.419 58.818L169.091 61.8781H167.726L166.084 58.818H167.419ZM172.087 61.977C171.579 61.977 171.14 61.8715 170.771 61.6604C170.404 61.4472 170.121 61.146 169.924 60.7569C169.726 60.3656 169.627 59.905 169.627 59.3752C169.627 58.8542 169.726 58.397 169.924 58.0035C170.124 57.6078 170.403 57.3 170.761 57.0801C171.12 56.8581 171.541 56.7471 172.024 56.7471C172.336 56.7471 172.631 56.7977 172.908 56.8988C173.187 56.9977 173.433 57.1516 173.647 57.3604C173.862 57.5693 174.031 57.8353 174.154 58.1584C174.277 58.4794 174.339 58.8619 174.339 59.306V59.672H170.187V58.8674H173.195C173.193 58.6388 173.143 58.4354 173.046 58.2574C172.95 58.0771 172.814 57.9353 172.641 57.832C172.469 57.7287 172.269 57.677 172.041 57.677C171.797 57.677 171.582 57.7364 171.398 57.8551C171.213 57.9716 171.069 58.1255 170.966 58.3167C170.865 58.5058 170.813 58.7135 170.811 58.94V59.6423C170.811 59.9369 170.865 60.1897 170.972 60.4008C171.08 60.6096 171.231 60.7701 171.424 60.8822C171.617 60.9921 171.844 61.0471 172.103 61.0471C172.277 61.0471 172.434 61.0229 172.575 60.9746C172.716 60.924 172.838 60.8503 172.941 60.7536C173.044 60.6569 173.122 60.5371 173.175 60.3942L174.29 60.5195C174.219 60.8141 174.085 61.0713 173.887 61.2911C173.692 61.5088 173.441 61.678 173.135 61.7989C172.83 61.9177 172.48 61.977 172.087 61.977ZM175.349 61.8781V56.813H176.49V57.6737H176.549C176.655 57.3835 176.83 57.1571 177.074 56.9944C177.318 56.8295 177.609 56.7471 177.947 56.7471C178.29 56.7471 178.579 56.8306 178.815 56.9977C179.052 57.1626 179.219 57.3879 179.316 57.6737H179.369C179.481 57.3923 179.67 57.1681 179.936 57.001C180.204 56.8317 180.522 56.7471 180.889 56.7471C181.355 56.7471 181.735 56.8944 182.03 57.189C182.324 57.4835 182.472 57.9133 182.472 58.4783V61.8781H181.275V58.663C181.275 58.3486 181.191 58.1189 181.024 57.9738C180.857 57.8265 180.652 57.7528 180.411 57.7528C180.123 57.7528 179.897 57.843 179.735 58.0232C179.574 58.2013 179.494 58.4332 179.494 58.719V61.8781H178.323V58.6135C178.323 58.3519 178.244 58.1431 178.086 57.987C177.93 57.8309 177.725 57.7528 177.473 57.7528C177.301 57.7528 177.145 57.7968 177.004 57.8847C176.864 57.9705 176.751 58.0925 176.668 58.2508C176.584 58.4069 176.543 58.5893 176.543 58.7982V61.8781H175.349ZM185.892 61.977C185.397 61.977 184.969 61.8682 184.606 61.6506C184.243 61.4329 183.962 61.1284 183.762 60.7371C183.564 60.3458 183.465 59.8886 183.465 59.3653C183.465 58.8421 183.564 58.3838 183.762 57.9903C183.962 57.5968 184.243 57.2912 184.606 57.0735C184.969 56.8559 185.397 56.7471 185.892 56.7471C186.387 56.7471 186.815 56.8559 187.178 57.0735C187.541 57.2912 187.821 57.5968 188.019 57.9903C188.219 58.3838 188.319 58.8421 188.319 59.3653C188.319 59.8886 188.219 60.3458 188.019 60.7371C187.821 61.1284 187.541 61.4329 187.178 61.6506C186.815 61.8682 186.387 61.977 185.892 61.977ZM185.899 61.0207C186.167 61.0207 186.391 60.9471 186.571 60.7998C186.752 60.6503 186.886 60.4502 186.974 60.1996C187.064 59.949 187.109 59.6698 187.109 59.3621C187.109 59.0521 187.064 58.7718 186.974 58.5212C186.886 58.2684 186.752 58.0672 186.571 57.9177C186.391 57.7682 186.167 57.6935 185.899 57.6935C185.624 57.6935 185.395 57.7682 185.213 57.9177C185.032 58.0672 184.897 58.2684 184.807 58.5212C184.719 58.7718 184.675 59.0521 184.675 59.3621C184.675 59.6698 184.719 59.949 184.807 60.1996C184.897 60.4502 185.032 60.6503 185.213 60.7998C185.395 60.9471 185.624 61.0207 185.899 61.0207ZM193.684 56.813L191.88 61.8781H190.561L188.758 56.813H190.03L191.194 60.5755H191.247L192.415 56.813H193.684ZM196.58 61.977C196.072 61.977 195.634 61.8715 195.264 61.6604C194.897 61.4472 194.615 61.146 194.417 60.7569C194.219 60.3656 194.12 59.905 194.12 59.3752C194.12 58.8542 194.219 58.397 194.417 58.0035C194.617 57.6078 194.896 57.3 195.255 57.0801C195.613 56.8581 196.034 56.7471 196.518 56.7471C196.83 56.7471 197.124 56.7977 197.401 56.8988C197.68 56.9977 197.927 57.1516 198.14 57.3604C198.355 57.5693 198.525 57.8353 198.648 58.1584C198.771 58.4794 198.832 58.8619 198.832 59.306V59.672H194.681V58.8674H197.688C197.686 58.6388 197.637 58.4354 197.54 58.2574C197.443 58.0771 197.308 57.9353 197.134 57.832C196.963 57.7287 196.763 57.677 196.534 57.677C196.29 57.677 196.076 57.7364 195.891 57.8551C195.706 57.9716 195.562 58.1255 195.459 58.3167C195.358 58.5058 195.306 58.7135 195.304 58.94V59.6423C195.304 59.9369 195.358 60.1897 195.466 60.4008C195.573 60.6096 195.724 60.7701 195.917 60.8822C196.111 60.9921 196.337 61.0471 196.597 61.0471C196.77 61.0471 196.928 61.0229 197.068 60.9746C197.209 60.924 197.331 60.8503 197.434 60.7536C197.538 60.6569 197.616 60.5371 197.668 60.3942L198.783 60.5195C198.713 60.8141 198.579 61.0713 198.381 61.2911C198.185 61.5088 197.934 61.678 197.629 61.7989C197.323 61.9177 196.974 61.977 196.58 61.977Z" fill="#D24232"/>
</svg>
