<svg width="224" height="117" viewBox="0 0 224 117" fill="none" xmlns="http://www.w3.org/2000/svg">
<path d="M19 11.5H205C209.142 11.5 212.5 14.8579 212.5 19V58.5H11.5V19C11.5 14.8579 14.8579 11.5 19 11.5Z" fill="white"/>
<path d="M19 11.5H205C209.142 11.5 212.5 14.8579 212.5 19V58.5H11.5V19C11.5 14.8579 14.8579 11.5 19 11.5Z" stroke="#DADFE2" stroke-linecap="round"/>
<path d="M28.233 39.5V29.3182H31.6733C32.4721 29.3182 33.125 29.4624 33.6321 29.7507C34.1425 30.0357 34.5204 30.4219 34.7656 30.9091C35.0109 31.3963 35.1335 31.9399 35.1335 32.5398C35.1335 33.1397 35.0109 33.6849 34.7656 34.1754C34.5237 34.666 34.1491 35.0571 33.642 35.3487C33.1349 35.6371 32.4853 35.7812 31.6932 35.7812H29.2273V34.6875H31.6534C32.2003 34.6875 32.6394 34.593 32.9709 34.4041C33.3023 34.2152 33.5426 33.96 33.6918 33.6385C33.8442 33.3137 33.9205 32.9474 33.9205 32.5398C33.9205 32.1321 33.8442 31.7675 33.6918 31.446C33.5426 31.1245 33.3007 30.8726 32.9659 30.6903C32.6312 30.5047 32.187 30.4119 31.6335 30.4119H29.4659V39.5H28.233ZM38.1339 29.3182V39.5H36.9606V29.3182H38.1339ZM42.53 39.679C42.0461 39.679 41.6069 39.5878 41.2125 39.4055C40.8181 39.2199 40.5049 38.9531 40.2729 38.6051C40.0409 38.2538 39.9249 37.8295 39.9249 37.3324C39.9249 36.8949 40.0111 36.5402 40.1834 36.2685C40.3558 35.9934 40.5861 35.7779 40.8745 35.6222C41.1628 35.4664 41.481 35.3504 41.829 35.2741C42.1803 35.1946 42.5333 35.1316 42.888 35.0852C43.352 35.0256 43.7282 34.9808 44.0165 34.951C44.3082 34.9179 44.5203 34.8632 44.6529 34.7869C44.7888 34.7107 44.8567 34.5781 44.8567 34.3892V34.3494C44.8567 33.8589 44.7225 33.4777 44.454 33.206C44.1889 32.9342 43.7862 32.7983 43.2459 32.7983C42.6858 32.7983 42.2466 32.9209 41.9284 33.1662C41.6103 33.4115 41.3865 33.6733 41.2573 33.9517L40.1436 33.554C40.3425 33.09 40.6077 32.7287 40.9391 32.4702C41.2739 32.2083 41.6384 32.026 42.0328 31.9233C42.4306 31.8172 42.8217 31.7642 43.2061 31.7642C43.4514 31.7642 43.7331 31.794 44.0513 31.8537C44.3728 31.91 44.6827 32.0277 44.981 32.2067C45.2826 32.3857 45.5328 32.6558 45.7317 33.017C45.9306 33.3783 46.03 33.8622 46.03 34.4688V39.5H44.8567V38.4659H44.7971C44.7175 38.6316 44.5849 38.8089 44.3993 38.9979C44.2137 39.1868 43.9668 39.3475 43.6586 39.4801C43.3503 39.6127 42.9741 39.679 42.53 39.679ZM42.709 38.625C43.173 38.625 43.5641 38.5339 43.8823 38.3516C44.2038 38.1693 44.4457 37.9339 44.6081 37.6456C44.7739 37.3572 44.8567 37.054 44.8567 36.7358V35.6619C44.807 35.7216 44.6976 35.7763 44.5286 35.826C44.3629 35.8724 44.1706 35.9138 43.9519 35.9503C43.7364 35.9834 43.526 36.0133 43.3205 36.0398C43.1183 36.063 42.9542 36.0829 42.8283 36.0994C42.5234 36.1392 42.2383 36.2038 41.9732 36.2933C41.7114 36.3795 41.4992 36.5104 41.3368 36.6861C41.1777 36.8584 41.0982 37.0937 41.0982 37.392C41.0982 37.7997 41.249 38.108 41.5506 38.3168C41.8555 38.5223 42.2417 38.625 42.709 38.625ZM51.2738 39.6591C50.5579 39.6591 49.9414 39.4901 49.4244 39.152C48.9073 38.8139 48.5096 38.3482 48.2312 37.755C47.9528 37.1617 47.8136 36.4839 47.8136 35.7216C47.8136 34.946 47.9561 34.2616 48.2411 33.6683C48.5295 33.0717 48.9305 32.6061 49.4442 32.2713C49.9613 31.9332 50.5645 31.7642 51.2539 31.7642C51.7908 31.7642 52.2747 31.8636 52.7056 32.0625C53.1365 32.2614 53.4895 32.5398 53.7646 32.8977C54.0397 33.2557 54.2103 33.6733 54.2766 34.1506H53.1033C53.0138 33.8026 52.815 33.4943 52.5067 33.2259C52.2018 32.9541 51.7908 32.8182 51.2738 32.8182C50.8164 32.8182 50.4154 32.9375 50.0707 33.1761C49.7293 33.4115 49.4625 33.7446 49.2702 34.1754C49.0813 34.603 48.9869 35.1051 48.9869 35.6818C48.9869 36.2718 49.0797 36.7855 49.2653 37.223C49.4542 37.6605 49.7193 38.0002 50.0607 38.2422C50.4054 38.4841 50.8098 38.6051 51.2738 38.6051C51.5787 38.6051 51.8555 38.5521 52.104 38.446C52.3526 38.34 52.5631 38.1875 52.7354 37.9886C52.9078 37.7898 53.0304 37.5511 53.1033 37.2727H54.2766C54.2103 37.7235 54.0463 38.1295 53.7844 38.4908C53.5259 38.8487 53.1829 39.1338 52.7553 39.3459C52.3311 39.5547 51.8372 39.6591 51.2738 39.6591ZM59.1935 39.6591C58.4577 39.6591 57.823 39.4967 57.2894 39.1719C56.7591 38.8438 56.3498 38.3864 56.0614 37.7997C55.7764 37.2098 55.6339 36.5237 55.6339 35.7415C55.6339 34.9593 55.7764 34.2699 56.0614 33.6733C56.3498 33.0734 56.7508 32.6061 57.2646 32.2713C57.7816 31.9332 58.3848 31.7642 59.0742 31.7642C59.4719 31.7642 59.8647 31.8305 60.2525 31.9631C60.6403 32.0956 60.9933 32.3111 61.3114 32.6094C61.6296 32.9044 61.8832 33.2955 62.0721 33.7827C62.261 34.2699 62.3555 34.8698 62.3555 35.5824V36.0795H56.4691V35.0653H61.1623C61.1623 34.6345 61.0761 34.25 60.9038 33.9119C60.7347 33.5739 60.4928 33.3071 60.1779 33.1115C59.8664 32.916 59.4985 32.8182 59.0742 32.8182C58.6069 32.8182 58.2025 32.9342 57.8612 33.1662C57.5231 33.3949 57.2629 33.6932 57.0806 34.0611C56.8983 34.429 56.8072 34.8234 56.8072 35.2443V35.9205C56.8072 36.4972 56.9066 36.986 57.1055 37.3871C57.3076 37.7848 57.5877 38.0881 57.9457 38.2969C58.3036 38.5024 58.7196 38.6051 59.1935 38.6051C59.5018 38.6051 59.7802 38.562 60.0288 38.4759C60.2807 38.3864 60.4978 38.2538 60.68 38.0781C60.8623 37.8991 61.0032 37.6771 61.1026 37.4119L62.2362 37.7301C62.1168 38.1146 61.9163 38.4527 61.6346 38.7443C61.3529 39.0327 61.0049 39.258 60.5906 39.4205C60.1763 39.5795 59.7106 39.6591 59.1935 39.6591ZM65.3136 34.9062V39.5H64.1403V29.3182H65.3136V33.0568H65.413C65.592 32.6624 65.8604 32.3492 66.2184 32.1172C66.5797 31.8819 67.0603 31.7642 67.6602 31.7642C68.1805 31.7642 68.6362 31.8686 69.0273 32.0774C69.4184 32.2829 69.7217 32.5994 69.9371 33.027C70.1559 33.4512 70.2653 33.9915 70.2653 34.6477V39.5H69.092V34.7273C69.092 34.1207 68.9345 33.6518 68.6197 33.3203C68.3081 32.9856 67.8756 32.8182 67.3221 32.8182C66.9376 32.8182 66.5929 32.8994 66.288 33.0618C65.9864 33.2242 65.7478 33.4612 65.5721 33.7727C65.3997 34.0843 65.3136 34.4621 65.3136 34.9062ZM75.514 39.6591C74.8246 39.6591 74.2198 39.495 73.6994 39.1669C73.1824 38.8388 72.778 38.3797 72.4863 37.7898C72.198 37.1998 72.0538 36.5104 72.0538 35.7216C72.0538 34.9261 72.198 34.2318 72.4863 33.6385C72.778 33.0452 73.1824 32.5845 73.6994 32.2564C74.2198 31.9283 74.8246 31.7642 75.514 31.7642C76.2034 31.7642 76.8066 31.9283 77.3237 32.2564C77.844 32.5845 78.2484 33.0452 78.5368 33.6385C78.8284 34.2318 78.9743 34.9261 78.9743 35.7216C78.9743 36.5104 78.8284 37.1998 78.5368 37.7898C78.2484 38.3797 77.844 38.8388 77.3237 39.1669C76.8066 39.495 76.2034 39.6591 75.514 39.6591ZM75.514 38.6051C76.0377 38.6051 76.4686 38.4709 76.8066 38.2024C77.1447 37.9339 77.3949 37.581 77.5574 37.1435C77.7198 36.706 77.801 36.232 77.801 35.7216C77.801 35.2112 77.7198 34.7356 77.5574 34.2947C77.3949 33.8539 77.1447 33.4976 76.8066 33.2259C76.4686 32.9541 76.0377 32.8182 75.514 32.8182C74.9904 32.8182 74.5595 32.9541 74.2214 33.2259C73.8833 33.4976 73.6331 33.8539 73.4707 34.2947C73.3083 34.7356 73.2271 35.2112 73.2271 35.7216C73.2271 36.232 73.3083 36.706 73.4707 37.1435C73.6331 37.581 73.8833 37.9339 74.2214 38.2024C74.5595 38.4709 74.9904 38.6051 75.514 38.6051ZM81.9386 29.3182V39.5H80.7653V29.3182H81.9386ZM86.9711 39.6591C86.3347 39.6591 85.7729 39.4983 85.2857 39.1768C84.7985 38.852 84.4173 38.3946 84.1422 37.8047C83.8671 37.2114 83.7296 36.5104 83.7296 35.7017C83.7296 34.8996 83.8671 34.2036 84.1422 33.6136C84.4173 33.0237 84.8001 32.5679 85.2907 32.2464C85.7812 31.925 86.348 31.7642 86.9909 31.7642C87.4881 31.7642 87.8809 31.8471 88.1692 32.0128C88.4609 32.1752 88.6829 32.3608 88.8354 32.5696C88.9912 32.7751 89.1122 32.9441 89.1983 33.0767H89.2978V29.3182H90.4711V39.5H89.3375V38.3267H89.1983C89.1122 38.4659 88.9895 38.6416 88.8304 38.8537C88.6713 39.0625 88.4443 39.2498 88.1493 39.4155C87.8543 39.5779 87.4616 39.6591 86.9711 39.6591ZM87.1301 38.6051C87.6008 38.6051 87.9985 38.4825 88.3233 38.2372C88.6481 37.9886 88.8951 37.6456 89.0641 37.2081C89.2331 36.7673 89.3176 36.2585 89.3176 35.6818C89.3176 35.1117 89.2348 34.6129 89.0691 34.1854C88.9034 33.7545 88.6581 33.4197 88.3333 33.1811C88.0085 32.9392 87.6074 32.8182 87.1301 32.8182C86.633 32.8182 86.2187 32.9458 85.8873 33.201C85.5591 33.4529 85.3122 33.7959 85.1465 34.2301C84.9841 34.661 84.9029 35.1449 84.9029 35.6818C84.9029 36.2254 84.9857 36.7192 85.1515 37.1634C85.3205 37.6042 85.5691 37.9555 85.8972 38.2173C86.2286 38.4759 86.6396 38.6051 87.1301 38.6051ZM95.9846 39.6591C95.2488 39.6591 94.6141 39.4967 94.0804 39.1719C93.5501 38.8438 93.1408 38.3864 92.8525 37.7997C92.5674 37.2098 92.4249 36.5237 92.4249 35.7415C92.4249 34.9593 92.5674 34.2699 92.8525 33.6733C93.1408 33.0734 93.5418 32.6061 94.0556 32.2713C94.5726 31.9332 95.1758 31.7642 95.8652 31.7642C96.263 31.7642 96.6557 31.8305 97.0435 31.9631C97.4313 32.0956 97.7843 32.3111 98.1025 32.6094C98.4206 32.9044 98.6742 33.2955 98.8631 33.7827C99.052 34.2699 99.1465 34.8698 99.1465 35.5824V36.0795H93.2601V35.0653H97.9533C97.9533 34.6345 97.8671 34.25 97.6948 33.9119C97.5257 33.5739 97.2838 33.3071 96.9689 33.1115C96.6574 32.916 96.2895 32.8182 95.8652 32.8182C95.3979 32.8182 94.9935 32.9342 94.6522 33.1662C94.3141 33.3949 94.0539 33.6932 93.8716 34.0611C93.6893 34.429 93.5982 34.8234 93.5982 35.2443V35.9205C93.5982 36.4972 93.6976 36.986 93.8965 37.3871C94.0987 37.7848 94.3787 38.0881 94.7367 38.2969C95.0946 38.5024 95.5106 38.6051 95.9846 38.6051C96.2928 38.6051 96.5712 38.562 96.8198 38.4759C97.0717 38.3864 97.2888 38.2538 97.4711 38.0781C97.6534 37.8991 97.7942 37.6771 97.8936 37.4119L99.0272 37.7301C98.9078 38.1146 98.7073 38.4527 98.4256 38.7443C98.1439 39.0327 97.7959 39.258 97.3816 39.4205C96.9673 39.5795 96.5016 39.6591 95.9846 39.6591ZM100.931 39.5V31.8636H102.065V33.017H102.144C102.284 32.6392 102.535 32.3326 102.9 32.0973C103.265 31.862 103.676 31.7443 104.133 31.7443C104.219 31.7443 104.327 31.746 104.456 31.7493C104.585 31.7526 104.683 31.7576 104.749 31.7642V32.9574C104.71 32.9474 104.619 32.9325 104.476 32.9126C104.337 32.8894 104.189 32.8778 104.034 32.8778C103.662 32.8778 103.331 32.9557 103.039 33.1115C102.751 33.264 102.522 33.4761 102.353 33.7479C102.187 34.0163 102.105 34.3229 102.105 34.6676V39.5H100.931Z" fill="#627A84"/>
<path d="M11.5 58.5H212.5V98C212.5 102.142 209.142 105.5 205 105.5H19C14.8579 105.5 11.5 102.142 11.5 98V58.5Z" fill="white"/>
<path d="M11.5 58.5H212.5V98C212.5 102.142 209.142 105.5 205 105.5H19C14.8579 105.5 11.5 102.142 11.5 98V58.5Z" stroke="#DADFE2" stroke-linecap="round"/>
<path d="M28.233 86.5V76.3182H31.6733C32.4721 76.3182 33.125 76.4624 33.6321 76.7507C34.1425 77.0357 34.5204 77.4219 34.7656 77.9091C35.0109 78.3963 35.1335 78.9399 35.1335 79.5398C35.1335 80.1397 35.0109 80.6849 34.7656 81.1754C34.5237 81.666 34.1491 82.0571 33.642 82.3487C33.1349 82.6371 32.4853 82.7812 31.6932 82.7812H29.2273V81.6875H31.6534C32.2003 81.6875 32.6394 81.593 32.9709 81.4041C33.3023 81.2152 33.5426 80.96 33.6918 80.6385C33.8442 80.3137 33.9205 79.9474 33.9205 79.5398C33.9205 79.1321 33.8442 78.7675 33.6918 78.446C33.5426 78.1245 33.3007 77.8726 32.9659 77.6903C32.6312 77.5047 32.187 77.4119 31.6335 77.4119H29.4659V86.5H28.233ZM38.1339 76.3182V86.5H36.9606V76.3182H38.1339ZM42.53 86.679C42.0461 86.679 41.6069 86.5878 41.2125 86.4055C40.8181 86.2199 40.5049 85.9531 40.2729 85.6051C40.0409 85.2538 39.9249 84.8295 39.9249 84.3324C39.9249 83.8949 40.0111 83.5402 40.1834 83.2685C40.3558 82.9934 40.5861 82.7779 40.8745 82.6222C41.1628 82.4664 41.481 82.3504 41.829 82.2741C42.1803 82.1946 42.5333 82.1316 42.888 82.0852C43.352 82.0256 43.7282 81.9808 44.0165 81.951C44.3082 81.9179 44.5203 81.8632 44.6529 81.7869C44.7888 81.7107 44.8567 81.5781 44.8567 81.3892V81.3494C44.8567 80.8589 44.7225 80.4777 44.454 80.206C44.1889 79.9342 43.7862 79.7983 43.2459 79.7983C42.6858 79.7983 42.2466 79.9209 41.9284 80.1662C41.6103 80.4115 41.3865 80.6733 41.2573 80.9517L40.1436 80.554C40.3425 80.09 40.6077 79.7287 40.9391 79.4702C41.2739 79.2083 41.6384 79.026 42.0328 78.9233C42.4306 78.8172 42.8217 78.7642 43.2061 78.7642C43.4514 78.7642 43.7331 78.794 44.0513 78.8537C44.3728 78.91 44.6827 79.0277 44.981 79.2067C45.2826 79.3857 45.5328 79.6558 45.7317 80.017C45.9306 80.3783 46.03 80.8622 46.03 81.4688V86.5H44.8567V85.4659H44.7971C44.7175 85.6316 44.5849 85.8089 44.3993 85.9979C44.2137 86.1868 43.9668 86.3475 43.6586 86.4801C43.3503 86.6127 42.9741 86.679 42.53 86.679ZM42.709 85.625C43.173 85.625 43.5641 85.5339 43.8823 85.3516C44.2038 85.1693 44.4457 84.9339 44.6081 84.6456C44.7739 84.3572 44.8567 84.054 44.8567 83.7358V82.6619C44.807 82.7216 44.6976 82.7763 44.5286 82.826C44.3629 82.8724 44.1706 82.9138 43.9519 82.9503C43.7364 82.9834 43.526 83.0133 43.3205 83.0398C43.1183 83.063 42.9542 83.0829 42.8283 83.0994C42.5234 83.1392 42.2383 83.2038 41.9732 83.2933C41.7114 83.3795 41.4992 83.5104 41.3368 83.6861C41.1777 83.8584 41.0982 84.0937 41.0982 84.392C41.0982 84.7997 41.249 85.108 41.5506 85.3168C41.8555 85.5223 42.2417 85.625 42.709 85.625ZM51.2738 86.6591C50.5579 86.6591 49.9414 86.4901 49.4244 86.152C48.9073 85.8139 48.5096 85.3482 48.2312 84.755C47.9528 84.1617 47.8136 83.4839 47.8136 82.7216C47.8136 81.946 47.9561 81.2616 48.2411 80.6683C48.5295 80.0717 48.9305 79.6061 49.4442 79.2713C49.9613 78.9332 50.5645 78.7642 51.2539 78.7642C51.7908 78.7642 52.2747 78.8636 52.7056 79.0625C53.1365 79.2614 53.4895 79.5398 53.7646 79.8977C54.0397 80.2557 54.2103 80.6733 54.2766 81.1506H53.1033C53.0138 80.8026 52.815 80.4943 52.5067 80.2259C52.2018 79.9541 51.7908 79.8182 51.2738 79.8182C50.8164 79.8182 50.4154 79.9375 50.0707 80.1761C49.7293 80.4115 49.4625 80.7446 49.2702 81.1754C49.0813 81.603 48.9869 82.1051 48.9869 82.6818C48.9869 83.2718 49.0797 83.7855 49.2653 84.223C49.4542 84.6605 49.7193 85.0002 50.0607 85.2422C50.4054 85.4841 50.8098 85.6051 51.2738 85.6051C51.5787 85.6051 51.8555 85.5521 52.104 85.446C52.3526 85.34 52.5631 85.1875 52.7354 84.9886C52.9078 84.7898 53.0304 84.5511 53.1033 84.2727H54.2766C54.2103 84.7235 54.0463 85.1295 53.7844 85.4908C53.5259 85.8487 53.1829 86.1338 52.7553 86.3459C52.3311 86.5547 51.8372 86.6591 51.2738 86.6591ZM59.1935 86.6591C58.4577 86.6591 57.823 86.4967 57.2894 86.1719C56.7591 85.8438 56.3498 85.3864 56.0614 84.7997C55.7764 84.2098 55.6339 83.5237 55.6339 82.7415C55.6339 81.9593 55.7764 81.2699 56.0614 80.6733C56.3498 80.0734 56.7508 79.6061 57.2646 79.2713C57.7816 78.9332 58.3848 78.7642 59.0742 78.7642C59.4719 78.7642 59.8647 78.8305 60.2525 78.9631C60.6403 79.0956 60.9933 79.3111 61.3114 79.6094C61.6296 79.9044 61.8832 80.2955 62.0721 80.7827C62.261 81.2699 62.3555 81.8698 62.3555 82.5824V83.0795H56.4691V82.0653H61.1623C61.1623 81.6345 61.0761 81.25 60.9038 80.9119C60.7347 80.5739 60.4928 80.3071 60.1779 80.1115C59.8664 79.916 59.4985 79.8182 59.0742 79.8182C58.6069 79.8182 58.2025 79.9342 57.8612 80.1662C57.5231 80.3949 57.2629 80.6932 57.0806 81.0611C56.8983 81.429 56.8072 81.8234 56.8072 82.2443V82.9205C56.8072 83.4972 56.9066 83.986 57.1055 84.3871C57.3076 84.7848 57.5877 85.0881 57.9457 85.2969C58.3036 85.5024 58.7196 85.6051 59.1935 85.6051C59.5018 85.6051 59.7802 85.562 60.0288 85.4759C60.2807 85.3864 60.4978 85.2538 60.68 85.0781C60.8623 84.8991 61.0032 84.6771 61.1026 84.4119L62.2362 84.7301C62.1168 85.1146 61.9163 85.4527 61.6346 85.7443C61.3529 86.0327 61.0049 86.258 60.5906 86.4205C60.1763 86.5795 59.7106 86.6591 59.1935 86.6591ZM65.3136 81.9062V86.5H64.1403V76.3182H65.3136V80.0568H65.413C65.592 79.6624 65.8604 79.3492 66.2184 79.1172C66.5797 78.8819 67.0603 78.7642 67.6602 78.7642C68.1805 78.7642 68.6362 78.8686 69.0273 79.0774C69.4184 79.2829 69.7217 79.5994 69.9371 80.027C70.1559 80.4512 70.2653 80.9915 70.2653 81.6477V86.5H69.092V81.7273C69.092 81.1207 68.9345 80.6518 68.6197 80.3203C68.3081 79.9856 67.8756 79.8182 67.3221 79.8182C66.9376 79.8182 66.5929 79.8994 66.288 80.0618C65.9864 80.2242 65.7478 80.4612 65.5721 80.7727C65.3997 81.0843 65.3136 81.4621 65.3136 81.9062ZM75.514 86.6591C74.8246 86.6591 74.2198 86.495 73.6994 86.1669C73.1824 85.8388 72.778 85.3797 72.4863 84.7898C72.198 84.1998 72.0538 83.5104 72.0538 82.7216C72.0538 81.9261 72.198 81.2318 72.4863 80.6385C72.778 80.0452 73.1824 79.5845 73.6994 79.2564C74.2198 78.9283 74.8246 78.7642 75.514 78.7642C76.2034 78.7642 76.8066 78.9283 77.3237 79.2564C77.844 79.5845 78.2484 80.0452 78.5368 80.6385C78.8284 81.2318 78.9743 81.9261 78.9743 82.7216C78.9743 83.5104 78.8284 84.1998 78.5368 84.7898C78.2484 85.3797 77.844 85.8388 77.3237 86.1669C76.8066 86.495 76.2034 86.6591 75.514 86.6591ZM75.514 85.6051C76.0377 85.6051 76.4686 85.4709 76.8066 85.2024C77.1447 84.9339 77.3949 84.581 77.5574 84.1435C77.7198 83.706 77.801 83.232 77.801 82.7216C77.801 82.2112 77.7198 81.7356 77.5574 81.2947C77.3949 80.8539 77.1447 80.4976 76.8066 80.2259C76.4686 79.9541 76.0377 79.8182 75.514 79.8182C74.9904 79.8182 74.5595 79.9541 74.2214 80.2259C73.8833 80.4976 73.6331 80.8539 73.4707 81.2947C73.3083 81.7356 73.2271 82.2112 73.2271 82.7216C73.2271 83.232 73.3083 83.706 73.4707 84.1435C73.6331 84.581 73.8833 84.9339 74.2214 85.2024C74.5595 85.4709 74.9904 85.6051 75.514 85.6051ZM81.9386 76.3182V86.5H80.7653V76.3182H81.9386ZM86.9711 86.6591C86.3347 86.6591 85.7729 86.4983 85.2857 86.1768C84.7985 85.852 84.4173 85.3946 84.1422 84.8047C83.8671 84.2114 83.7296 83.5104 83.7296 82.7017C83.7296 81.8996 83.8671 81.2036 84.1422 80.6136C84.4173 80.0237 84.8001 79.5679 85.2907 79.2464C85.7812 78.925 86.348 78.7642 86.9909 78.7642C87.4881 78.7642 87.8809 78.8471 88.1692 79.0128C88.4609 79.1752 88.6829 79.3608 88.8354 79.5696C88.9912 79.7751 89.1122 79.9441 89.1983 80.0767H89.2978V76.3182H90.4711V86.5H89.3375V85.3267H89.1983C89.1122 85.4659 88.9895 85.6416 88.8304 85.8537C88.6713 86.0625 88.4443 86.2498 88.1493 86.4155C87.8543 86.5779 87.4616 86.6591 86.9711 86.6591ZM87.1301 85.6051C87.6008 85.6051 87.9985 85.4825 88.3233 85.2372C88.6481 84.9886 88.8951 84.6456 89.0641 84.2081C89.2331 83.7673 89.3176 83.2585 89.3176 82.6818C89.3176 82.1117 89.2348 81.6129 89.0691 81.1854C88.9034 80.7545 88.6581 80.4197 88.3333 80.1811C88.0085 79.9392 87.6074 79.8182 87.1301 79.8182C86.633 79.8182 86.2187 79.9458 85.8873 80.201C85.5591 80.4529 85.3122 80.7959 85.1465 81.2301C84.9841 81.661 84.9029 82.1449 84.9029 82.6818C84.9029 83.2254 84.9857 83.7192 85.1515 84.1634C85.3205 84.6042 85.5691 84.9555 85.8972 85.2173C86.2286 85.4759 86.6396 85.6051 87.1301 85.6051ZM95.9846 86.6591C95.2488 86.6591 94.6141 86.4967 94.0804 86.1719C93.5501 85.8438 93.1408 85.3864 92.8525 84.7997C92.5674 84.2098 92.4249 83.5237 92.4249 82.7415C92.4249 81.9593 92.5674 81.2699 92.8525 80.6733C93.1408 80.0734 93.5418 79.6061 94.0556 79.2713C94.5726 78.9332 95.1758 78.7642 95.8652 78.7642C96.263 78.7642 96.6557 78.8305 97.0435 78.9631C97.4313 79.0956 97.7843 79.3111 98.1025 79.6094C98.4206 79.9044 98.6742 80.2955 98.8631 80.7827C99.052 81.2699 99.1465 81.8698 99.1465 82.5824V83.0795H93.2601V82.0653H97.9533C97.9533 81.6345 97.8671 81.25 97.6948 80.9119C97.5257 80.5739 97.2838 80.3071 96.9689 80.1115C96.6574 79.916 96.2895 79.8182 95.8652 79.8182C95.3979 79.8182 94.9935 79.9342 94.6522 80.1662C94.3141 80.3949 94.0539 80.6932 93.8716 81.0611C93.6893 81.429 93.5982 81.8234 93.5982 82.2443V82.9205C93.5982 83.4972 93.6976 83.986 93.8965 84.3871C94.0987 84.7848 94.3787 85.0881 94.7367 85.2969C95.0946 85.5024 95.5106 85.6051 95.9846 85.6051C96.2928 85.6051 96.5712 85.562 96.8198 85.4759C97.0717 85.3864 97.2888 85.2538 97.4711 85.0781C97.6534 84.8991 97.7942 84.6771 97.8936 84.4119L99.0272 84.7301C98.9078 85.1146 98.7073 85.4527 98.4256 85.7443C98.1439 86.0327 97.7959 86.258 97.3816 86.4205C96.9673 86.5795 96.5016 86.6591 95.9846 86.6591ZM100.931 86.5V78.8636H102.065V80.017H102.144C102.284 79.6392 102.535 79.3326 102.9 79.0973C103.265 78.862 103.676 78.7443 104.133 78.7443C104.219 78.7443 104.327 78.746 104.456 78.7493C104.585 78.7526 104.683 78.7576 104.749 78.7642V79.9574C104.71 79.9474 104.619 79.9325 104.476 79.9126C104.337 79.8894 104.189 79.8778 104.034 79.8778C103.662 79.8778 103.331 79.9557 103.039 80.1115C102.751 80.264 102.522 80.4761 102.353 80.7479C102.187 81.0163 102.105 81.3229 102.105 81.6676V86.5H100.931Z" fill="#627A84"/>
</svg>
