<svg width="224" height="117" viewBox="0 0 224 117" fill="none" xmlns="http://www.w3.org/2000/svg">
<path d="M19 33.5H205C209.142 33.5 212.5 36.8579 212.5 41V75C212.5 79.1421 209.142 82.5 205 82.5H19C14.8579 82.5 11.5 79.1421 11.5 75V41C11.5 36.8579 14.8579 33.5 19 33.5Z" fill="white"/>
<path d="M19 33.5H205C209.142 33.5 212.5 36.8579 212.5 41V75C212.5 79.1421 209.142 82.5 205 82.5H19C14.8579 82.5 11.5 79.1421 11.5 75V41C11.5 36.8579 14.8579 33.5 19 33.5Z" stroke="#DADFE2" stroke-linecap="round"/>
<path d="M27 45.5556C27 44.1442 28.1442 43 29.5556 43H90.4444C91.8558 43 93 44.1442 93 45.5556V47.4444C93 48.8558 91.8558 50 90.4444 50H29.5556C28.1442 50 27 48.8558 27 47.4444V45.5556Z" fill="#DADFE2"/>
<path d="M27 60.5556C27 59.1442 28.1442 58 29.5556 58H108.444C109.856 58 111 59.1442 111 60.5556V70.4444C111 71.8558 109.856 73 108.444 73H29.5556C28.1442 73 27 71.8558 27 70.4444V60.5556Z" fill="#233D48"/>
</svg>
