<svg width="224" height="117" viewBox="0 0 224 117" fill="none" xmlns="http://www.w3.org/2000/svg">
<path d="M31 50C31 45.5817 34.5817 42 39 42H185C189.418 42 193 45.5817 193 50V66C193 70.4183 189.418 74 185 74H39C34.5817 74 31 70.4183 31 66V50Z" fill="white"/>
<path d="M47.0005 54.6667C46.6323 54.6667 46.3338 54.9652 46.3338 55.3334V58.6666C46.3338 59.0348 46.6323 59.3333 47.0005 59.3333C47.3687 59.3333 47.6671 59.0348 47.6671 58.6666V55.3334C47.6671 54.9652 47.3687 54.6667 47.0005 54.6667Z" fill="#D24232"/>
<path d="M46.3338 61.3332C46.3338 60.9651 46.6323 60.6666 47.0005 60.6666C47.3687 60.6666 47.6671 60.9651 47.6671 61.3332C47.6671 61.7014 47.3687 61.9999 47.0005 61.9999C46.6323 61.9999 46.3338 61.7014 46.3338 61.3332Z" fill="#D24232"/>
<path d="M53.667 58C53.667 61.6818 50.6823 64.6665 47.0005 64.6665C43.3187 64.6665 40.334 61.6818 40.334 58C40.334 54.3182 43.3187 51.3335 47.0005 51.3335C50.6823 51.3335 53.667 54.3182 53.667 58ZM52.3337 58C52.3337 55.0545 49.9459 52.6668 47.0005 52.6668C44.055 52.6668 41.6673 55.0545 41.6673 58C41.6673 60.9455 44.055 63.3332 47.0005 63.3332C49.9459 63.3332 52.3337 60.9455 52.3337 58Z" fill="#D24232"/>
<path d="M61.1136 53.7727V62.5H60.0568V53.7727H61.1136ZM63.9826 53.7727V54.5398C63.9826 54.7727 63.94 55.0213 63.8548 55.2855C63.7724 55.5469 63.6502 55.8011 63.4883 56.0483C63.3292 56.2926 63.136 56.5057 62.9087 56.6875L62.3633 56.2443C62.5423 55.9886 62.6971 55.723 62.8278 55.4474C62.9613 55.169 63.0281 54.8722 63.0281 54.5568V53.7727H63.9826ZM65.0533 62.5V55.9545H66.0249V56.9773H66.1101C66.2464 56.6278 66.4666 56.3565 66.7706 56.1634C67.0746 55.9673 67.4396 55.8693 67.8658 55.8693C68.2976 55.8693 68.657 55.9673 68.9439 56.1634C69.2337 56.3565 69.4595 56.6278 69.6214 56.9773H69.6896C69.8572 56.6392 70.1087 56.3707 70.4439 56.1719C70.7791 55.9702 71.1811 55.8693 71.6499 55.8693C72.2351 55.8693 72.7138 56.0526 73.0859 56.419C73.4581 56.7827 73.6442 57.3494 73.6442 58.1193V62.5H72.6385V58.1193C72.6385 57.6364 72.5064 57.2912 72.2422 57.0838C71.978 56.8764 71.6669 56.7727 71.3089 56.7727C70.8487 56.7727 70.4922 56.9119 70.2393 57.1903C69.9865 57.4659 69.8601 57.8153 69.8601 58.2386V62.5H68.8374V58.017C68.8374 57.6449 68.7166 57.3452 68.4751 57.1179C68.2337 56.8878 67.9226 56.7727 67.5419 56.7727C67.2805 56.7727 67.0362 56.8423 66.8089 56.9815C66.5845 57.1207 66.4027 57.3139 66.2635 57.5611C66.1271 57.8054 66.0589 58.0881 66.0589 58.4091V62.5H65.0533ZM80.7841 62.6534C80.3693 62.6534 79.9929 62.5753 79.6548 62.419C79.3168 62.2599 79.0483 62.0312 78.8494 61.733C78.6506 61.4318 78.5511 61.0682 78.5511 60.642C78.5511 60.267 78.625 59.9631 78.7727 59.7301C78.9205 59.4943 79.1179 59.3097 79.3651 59.1761C79.6122 59.0426 79.8849 58.9432 80.1832 58.8778C80.4844 58.8097 80.7869 58.7557 81.0909 58.7159C81.4886 58.6648 81.8111 58.6264 82.0582 58.6009C82.3082 58.5724 82.4901 58.5256 82.6037 58.4602C82.7202 58.3949 82.7784 58.2812 82.7784 58.1193V58.0852C82.7784 57.6648 82.6634 57.3381 82.4332 57.1051C82.206 56.8722 81.8608 56.7557 81.3977 56.7557C80.9176 56.7557 80.5412 56.8608 80.2685 57.071C79.9957 57.2812 79.804 57.5057 79.6932 57.7443L78.7386 57.4034C78.9091 57.0057 79.1364 56.696 79.4205 56.4744C79.7074 56.25 80.0199 56.0937 80.358 56.0057C80.6989 55.9148 81.0341 55.8693 81.3636 55.8693C81.5739 55.8693 81.8153 55.8949 82.0881 55.946C82.3636 55.9943 82.6293 56.0952 82.8849 56.2486C83.1435 56.402 83.358 56.6335 83.5284 56.9432C83.6989 57.2528 83.7841 57.6676 83.7841 58.1875V62.5H82.7784V61.6136H82.7273C82.6591 61.7557 82.5455 61.9077 82.3864 62.0696C82.2273 62.2315 82.0156 62.3693 81.7514 62.483C81.4872 62.5966 81.1648 62.6534 80.7841 62.6534ZM80.9375 61.75C81.3352 61.75 81.6705 61.6719 81.9432 61.5156C82.2188 61.3594 82.4261 61.1577 82.5653 60.9105C82.7074 60.6634 82.7784 60.4034 82.7784 60.1307V59.2102C82.7358 59.2614 82.642 59.3082 82.4972 59.3509C82.3551 59.3906 82.1903 59.4261 82.0028 59.4574C81.8182 59.4858 81.6378 59.5114 81.4616 59.5341C81.2884 59.554 81.1477 59.571 81.0398 59.5852C80.7784 59.6193 80.5341 59.6747 80.3068 59.7514C80.0824 59.8253 79.9006 59.9375 79.7614 60.0881C79.625 60.2358 79.5568 60.4375 79.5568 60.6932C79.5568 61.0426 79.6861 61.3068 79.9446 61.4858C80.206 61.6619 80.5369 61.75 80.9375 61.75ZM86.6254 58.5625V62.5H85.6197V55.9545H86.5913V56.9773H86.6765C86.8299 56.6449 87.0629 56.3778 87.3754 56.1761C87.6879 55.9716 88.0913 55.8693 88.5856 55.8693C89.0288 55.8693 89.4165 55.9602 89.7489 56.142C90.0813 56.321 90.3398 56.5938 90.5245 56.9602C90.7092 57.3239 90.8015 57.7841 90.8015 58.3409V62.5H89.7958V58.4091C89.7958 57.8949 89.6623 57.4943 89.3952 57.2074C89.1282 56.9176 88.7617 56.7727 88.2958 56.7727C87.9748 56.7727 87.6879 56.8423 87.435 56.9815C87.185 57.1207 86.9876 57.3239 86.8427 57.5909C86.6978 57.858 86.6254 58.1818 86.6254 58.5625ZM98.7585 62.6364C98.1278 62.6364 97.5838 62.4972 97.1264 62.2188C96.6719 61.9375 96.321 61.5455 96.0739 61.0426C95.8295 60.5369 95.7074 59.9489 95.7074 59.2784C95.7074 58.608 95.8295 58.017 96.0739 57.5057C96.321 56.9915 96.6648 56.5909 97.1051 56.304C97.5483 56.0142 98.0653 55.8693 98.6562 55.8693C98.9972 55.8693 99.3338 55.9261 99.6662 56.0398C99.9986 56.1534 100.301 56.3381 100.574 56.5938C100.847 56.8466 101.064 57.1818 101.226 57.5994C101.388 58.017 101.469 58.5312 101.469 59.142V59.5682H96.4233V58.6989H100.446C100.446 58.3295 100.372 58 100.224 57.7102C100.08 57.4205 99.8722 57.1918 99.6023 57.0241C99.3352 56.8565 99.0199 56.7727 98.6562 56.7727C98.2557 56.7727 97.9091 56.8722 97.6165 57.071C97.3267 57.267 97.1037 57.5227 96.9474 57.8381C96.7912 58.1534 96.7131 58.4915 96.7131 58.8523V59.4318C96.7131 59.9261 96.7983 60.3452 96.9688 60.6889C97.142 61.0298 97.3821 61.2898 97.6889 61.4688C97.9957 61.6449 98.3523 61.733 98.7585 61.733C99.0227 61.733 99.2614 61.696 99.4744 61.6222C99.6903 61.5455 99.8764 61.4318 100.033 61.2812C100.189 61.1278 100.31 60.9375 100.395 60.7102L101.366 60.983C101.264 61.3125 101.092 61.6023 100.851 61.8523C100.609 62.0994 100.311 62.2926 99.956 62.4318C99.6009 62.5682 99.2017 62.6364 98.7585 62.6364ZM102.999 62.5V55.9545H103.97V56.9432H104.038C104.158 56.6193 104.374 56.3565 104.686 56.1548C104.999 55.9531 105.351 55.8523 105.743 55.8523C105.817 55.8523 105.909 55.8537 106.02 55.8565C106.131 55.8594 106.214 55.8636 106.271 55.8693V56.892C106.237 56.8835 106.159 56.8707 106.037 56.8537C105.918 56.8338 105.791 56.8239 105.658 56.8239C105.339 56.8239 105.055 56.8906 104.805 57.0241C104.558 57.1548 104.362 57.3366 104.217 57.5696C104.075 57.7997 104.004 58.0625 104.004 58.358V62.5H102.999ZM107.463 62.5V55.9545H108.435V56.9432H108.503C108.623 56.6193 108.838 56.3565 109.151 56.1548C109.463 55.9531 109.816 55.8523 110.208 55.8523C110.282 55.8523 110.374 55.8537 110.485 55.8565C110.596 55.8594 110.679 55.8636 110.736 55.8693V56.892C110.702 56.8835 110.624 56.8707 110.502 56.8537C110.382 56.8338 110.256 56.8239 110.123 56.8239C109.804 56.8239 109.52 56.8906 109.27 57.0241C109.023 57.1548 108.827 57.3366 108.682 57.5696C108.54 57.7997 108.469 58.0625 108.469 58.358V62.5H107.463ZM114.388 62.6364C113.797 62.6364 113.279 62.4957 112.833 62.2145C112.39 61.9332 112.043 61.5398 111.793 61.0341C111.546 60.5284 111.422 59.9375 111.422 59.2614C111.422 58.5795 111.546 57.9844 111.793 57.4759C112.043 56.9673 112.39 56.5724 112.833 56.2912C113.279 56.0099 113.797 55.8693 114.388 55.8693C114.979 55.8693 115.496 56.0099 115.939 56.2912C116.385 56.5724 116.732 56.9673 116.979 57.4759C117.229 57.9844 117.354 58.5795 117.354 59.2614C117.354 59.9375 117.229 60.5284 116.979 61.0341C116.732 61.5398 116.385 61.9332 115.939 62.2145C115.496 62.4957 114.979 62.6364 114.388 62.6364ZM114.388 61.733C114.837 61.733 115.206 61.6179 115.496 61.3878C115.786 61.1577 116 60.8551 116.14 60.4801C116.279 60.1051 116.348 59.6989 116.348 59.2614C116.348 58.8239 116.279 58.4162 116.14 58.0384C116 57.6605 115.786 57.3551 115.496 57.1222C115.206 56.8892 114.837 56.7727 114.388 56.7727C113.939 56.7727 113.57 56.8892 113.28 57.1222C112.99 57.3551 112.776 57.6605 112.637 58.0384C112.498 58.4162 112.428 58.8239 112.428 59.2614C112.428 59.6989 112.498 60.1051 112.637 60.4801C112.776 60.8551 112.99 61.1577 113.28 61.3878C113.57 61.6179 113.939 61.733 114.388 61.733ZM118.889 62.5V55.9545H119.861V56.9432H119.929C120.048 56.6193 120.264 56.3565 120.577 56.1548C120.889 55.9531 121.241 55.8523 121.634 55.8523C121.707 55.8523 121.8 55.8537 121.911 55.8565C122.021 55.8594 122.105 55.8636 122.162 55.8693V56.892C122.128 56.8835 122.05 56.8707 121.928 56.8537C121.808 56.8338 121.682 56.8239 121.548 56.8239C121.23 56.8239 120.946 56.8906 120.696 57.0241C120.449 57.1548 120.253 57.3366 120.108 57.5696C119.966 57.7997 119.895 58.0625 119.895 58.358V62.5H118.889ZM126.729 62.5V55.9545H127.701V56.9773H127.786C127.922 56.6278 128.142 56.3565 128.446 56.1634C128.75 55.9673 129.115 55.8693 129.542 55.8693C129.973 55.8693 130.333 55.9673 130.62 56.1634C130.909 56.3565 131.135 56.6278 131.297 56.9773H131.365C131.533 56.6392 131.784 56.3707 132.12 56.1719C132.455 55.9702 132.857 55.8693 133.326 55.8693C133.911 55.8693 134.39 56.0526 134.762 56.419C135.134 56.7827 135.32 57.3494 135.32 58.1193V62.5H134.314V58.1193C134.314 57.6364 134.182 57.2912 133.918 57.0838C133.654 56.8764 133.343 56.7727 132.985 56.7727C132.525 56.7727 132.168 56.9119 131.915 57.1903C131.662 57.4659 131.536 57.8153 131.536 58.2386V62.5H130.513V58.017C130.513 57.6449 130.392 57.3452 130.151 57.1179C129.909 56.8878 129.598 56.7727 129.218 56.7727C128.956 56.7727 128.712 56.8423 128.485 56.9815C128.26 57.1207 128.078 57.3139 127.939 57.5611C127.803 57.8054 127.735 58.0881 127.735 58.4091V62.5H126.729ZM139.903 62.6364C139.272 62.6364 138.728 62.4972 138.271 62.2188C137.816 61.9375 137.466 61.5455 137.218 61.0426C136.974 60.5369 136.852 59.9489 136.852 59.2784C136.852 58.608 136.974 58.017 137.218 57.5057C137.466 56.9915 137.809 56.5909 138.25 56.304C138.693 56.0142 139.21 55.8693 139.801 55.8693C140.142 55.8693 140.478 55.9261 140.811 56.0398C141.143 56.1534 141.446 56.3381 141.718 56.5938C141.991 56.8466 142.208 57.1818 142.37 57.5994C142.532 58.017 142.613 58.5312 142.613 59.142V59.5682H137.568V58.6989H141.591C141.591 58.3295 141.517 58 141.369 57.7102C141.224 57.4205 141.017 57.1918 140.747 57.0241C140.48 56.8565 140.164 56.7727 139.801 56.7727C139.4 56.7727 139.054 56.8722 138.761 57.071C138.471 57.267 138.248 57.5227 138.092 57.8381C137.936 58.1534 137.858 58.4915 137.858 58.8523V59.4318C137.858 59.9261 137.943 60.3452 138.113 60.6889C138.287 61.0298 138.527 61.2898 138.833 61.4688C139.14 61.6449 139.497 61.733 139.903 61.733C140.167 61.733 140.406 61.696 140.619 61.6222C140.835 61.5455 141.021 61.4318 141.177 61.2812C141.333 61.1278 141.454 60.9375 141.539 60.7102L142.511 60.983C142.409 61.3125 142.237 61.6023 141.995 61.8523C141.754 62.0994 141.456 62.2926 141.1 62.4318C140.745 62.5682 140.346 62.6364 139.903 62.6364ZM148.779 57.4205L147.876 57.6761C147.819 57.5256 147.735 57.3793 147.625 57.2372C147.517 57.0923 147.369 56.973 147.181 56.8793C146.994 56.7855 146.754 56.7386 146.461 56.7386C146.061 56.7386 145.727 56.831 145.46 57.0156C145.196 57.1974 145.064 57.429 145.064 57.7102C145.064 57.9602 145.154 58.1577 145.336 58.3026C145.518 58.4474 145.802 58.5682 146.189 58.6648L147.16 58.9034C147.745 59.0455 148.181 59.2628 148.468 59.5554C148.755 59.8452 148.899 60.2187 148.899 60.6761C148.899 61.0511 148.791 61.3864 148.575 61.6818C148.362 61.9773 148.064 62.2102 147.68 62.3807C147.297 62.5511 146.85 62.6364 146.342 62.6364C145.674 62.6364 145.122 62.4915 144.684 62.2017C144.247 61.9119 143.97 61.4886 143.853 60.9318L144.808 60.6932C144.899 61.0455 145.071 61.3097 145.324 61.4858C145.579 61.6619 145.913 61.75 146.325 61.75C146.794 61.75 147.166 61.6506 147.441 61.4517C147.72 61.25 147.859 61.0085 147.859 60.7273C147.859 60.5 147.779 60.3097 147.62 60.1562C147.461 60 147.217 59.8835 146.887 59.8068L145.797 59.5511C145.197 59.4091 144.757 59.1889 144.475 58.8906C144.197 58.5895 144.058 58.2131 144.058 57.7614C144.058 57.392 144.162 57.0653 144.369 56.7812C144.579 56.4972 144.865 56.2741 145.225 56.1122C145.589 55.9503 146.001 55.8693 146.461 55.8693C147.109 55.8693 147.618 56.0114 147.987 56.2955C148.359 56.5795 148.623 56.9545 148.779 57.4205ZM155.049 57.4205L154.146 57.6761C154.089 57.5256 154.005 57.3793 153.894 57.2372C153.786 57.0923 153.638 56.973 153.451 56.8793C153.263 56.7855 153.023 56.7386 152.731 56.7386C152.33 56.7386 151.996 56.831 151.729 57.0156C151.465 57.1974 151.333 57.429 151.333 57.7102C151.333 57.9602 151.424 58.1577 151.606 58.3026C151.788 58.4474 152.072 58.5682 152.458 58.6648L153.43 58.9034C154.015 59.0455 154.451 59.2628 154.738 59.5554C155.025 59.8452 155.168 60.2187 155.168 60.6761C155.168 61.0511 155.06 61.3864 154.844 61.6818C154.631 61.9773 154.333 62.2102 153.95 62.3807C153.566 62.5511 153.12 62.6364 152.612 62.6364C151.944 62.6364 151.391 62.4915 150.954 62.2017C150.516 61.9119 150.239 61.4886 150.123 60.9318L151.077 60.6932C151.168 61.0455 151.34 61.3097 151.593 61.4858C151.849 61.6619 152.183 61.75 152.594 61.75C153.063 61.75 153.435 61.6506 153.711 61.4517C153.989 61.25 154.129 61.0085 154.129 60.7273C154.129 60.5 154.049 60.3097 153.89 60.1562C153.731 60 153.487 59.8835 153.157 59.8068L152.066 59.5511C151.467 59.4091 151.026 59.1889 150.745 58.8906C150.467 58.5895 150.327 58.2131 150.327 57.7614C150.327 57.392 150.431 57.0653 150.638 56.7812C150.849 56.4972 151.134 56.2741 151.495 56.1122C151.859 55.9503 152.271 55.8693 152.731 55.8693C153.379 55.8693 153.887 56.0114 154.256 56.2955C154.629 56.5795 154.893 56.9545 155.049 57.4205ZM158.608 62.6534C158.194 62.6534 157.817 62.5753 157.479 62.419C157.141 62.2599 156.873 62.0312 156.674 61.733C156.475 61.4318 156.375 61.0682 156.375 60.642C156.375 60.267 156.449 59.9631 156.597 59.7301C156.745 59.4943 156.942 59.3097 157.189 59.1761C157.436 59.0426 157.709 58.9432 158.007 58.8778C158.309 58.8097 158.611 58.7557 158.915 58.7159C159.313 58.6648 159.635 58.6264 159.882 58.6009C160.132 58.5724 160.314 58.5256 160.428 58.4602C160.544 58.3949 160.603 58.2812 160.603 58.1193V58.0852C160.603 57.6648 160.488 57.3381 160.257 57.1051C160.03 56.8722 159.685 56.7557 159.222 56.7557C158.742 56.7557 158.365 56.8608 158.093 57.071C157.82 57.2812 157.628 57.5057 157.517 57.7443L156.563 57.4034C156.733 57.0057 156.961 56.696 157.245 56.4744C157.532 56.25 157.844 56.0937 158.182 56.0057C158.523 55.9148 158.858 55.8693 159.188 55.8693C159.398 55.8693 159.64 55.8949 159.912 55.946C160.188 55.9943 160.453 56.0952 160.709 56.2486C160.968 56.402 161.182 56.6335 161.353 56.9432C161.523 57.2528 161.608 57.6676 161.608 58.1875V62.5H160.603V61.6136H160.551C160.483 61.7557 160.37 61.9077 160.211 62.0696C160.051 62.2315 159.84 62.3693 159.576 62.483C159.311 62.5966 158.989 62.6534 158.608 62.6534ZM158.762 61.75C159.159 61.75 159.495 61.6719 159.767 61.5156C160.043 61.3594 160.25 61.1577 160.39 60.9105C160.532 60.6634 160.603 60.4034 160.603 60.1307V59.2102C160.56 59.2614 160.466 59.3082 160.321 59.3509C160.179 59.3906 160.015 59.4261 159.827 59.4574C159.642 59.4858 159.462 59.5114 159.286 59.5341C159.113 59.554 158.972 59.571 158.864 59.5852C158.603 59.6193 158.358 59.6747 158.131 59.7514C157.907 59.8253 157.725 59.9375 157.586 60.0881C157.449 60.2358 157.381 60.4375 157.381 60.6932C157.381 61.0426 157.51 61.3068 157.769 61.4858C158.03 61.6619 158.361 61.75 158.762 61.75ZM166.086 65.0909C165.6 65.0909 165.183 65.0284 164.833 64.9034C164.484 64.7812 164.192 64.6193 163.96 64.4176C163.729 64.2188 163.546 64.0057 163.41 63.7784L164.211 63.2159C164.302 63.3352 164.417 63.4716 164.556 63.625C164.695 63.7812 164.886 63.9162 165.127 64.0298C165.371 64.1463 165.691 64.2045 166.086 64.2045C166.614 64.2045 167.05 64.0767 167.394 63.821C167.738 63.5653 167.91 63.1648 167.91 62.6193V61.2898H167.825C167.751 61.4091 167.646 61.5568 167.509 61.733C167.376 61.9062 167.183 62.0611 166.93 62.1974C166.68 62.331 166.342 62.3977 165.915 62.3977C165.387 62.3977 164.913 62.2727 164.492 62.0227C164.075 61.7727 163.744 61.4091 163.499 60.9318C163.258 60.4545 163.137 59.875 163.137 59.1932C163.137 58.5227 163.255 57.9389 163.491 57.4418C163.727 56.9418 164.055 56.5554 164.475 56.2827C164.896 56.0071 165.381 55.8693 165.933 55.8693C166.359 55.8693 166.697 55.9403 166.947 56.0824C167.2 56.2216 167.393 56.3807 167.526 56.5597C167.663 56.7358 167.768 56.8807 167.842 56.9943H167.944V55.9545H168.915V62.6875C168.915 63.25 168.788 63.7074 168.532 64.0597C168.279 64.4148 167.938 64.6747 167.509 64.8395C167.083 65.0071 166.609 65.0909 166.086 65.0909ZM166.052 61.4943C166.455 61.4943 166.796 61.402 167.075 61.2173C167.353 61.0327 167.565 60.767 167.71 60.4205C167.854 60.0739 167.927 59.6591 167.927 59.1761C167.927 58.7045 167.856 58.2884 167.714 57.9276C167.572 57.5668 167.362 57.2841 167.083 57.0795C166.805 56.875 166.461 56.7727 166.052 56.7727C165.626 56.7727 165.271 56.8807 164.987 57.0966C164.705 57.3125 164.494 57.6023 164.352 57.9659C164.212 58.3295 164.143 58.733 164.143 59.1761C164.143 59.6307 164.214 60.0327 164.356 60.3821C164.501 60.7287 164.714 61.0014 164.995 61.2003C165.279 61.3963 165.631 61.4943 166.052 61.4943ZM173.501 62.6364C172.87 62.6364 172.326 62.4972 171.869 62.2188C171.414 61.9375 171.063 61.5455 170.816 61.0426C170.572 60.5369 170.45 59.9489 170.45 59.2784C170.45 58.608 170.572 58.017 170.816 57.5057C171.063 56.9915 171.407 56.5909 171.847 56.304C172.29 56.0142 172.808 55.8693 173.398 55.8693C173.739 55.8693 174.076 55.9261 174.408 56.0398C174.741 56.1534 175.043 56.3381 175.316 56.5938C175.589 56.8466 175.806 57.1818 175.968 57.5994C176.13 58.017 176.211 58.5312 176.211 59.142V59.5682H171.165V58.6989H175.188C175.188 58.3295 175.114 58 174.967 57.7102C174.822 57.4205 174.614 57.1918 174.344 57.0241C174.077 56.8565 173.762 56.7727 173.398 56.7727C172.998 56.7727 172.651 56.8722 172.359 57.071C172.069 57.267 171.846 57.5227 171.69 57.8381C171.533 58.1534 171.455 58.4915 171.455 58.8523V59.4318C171.455 59.9261 171.54 60.3452 171.711 60.6889C171.884 61.0298 172.124 61.2898 172.431 61.4688C172.738 61.6449 173.094 61.733 173.501 61.733C173.765 61.733 174.004 61.696 174.217 61.6222C174.433 61.5455 174.619 61.4318 174.775 61.2812C174.931 61.1278 175.052 60.9375 175.137 60.7102L176.109 60.983C176.006 61.3125 175.835 61.6023 175.593 61.8523C175.352 62.0994 175.053 62.2926 174.698 62.4318C174.343 62.5682 173.944 62.6364 173.501 62.6364Z" fill="#D24232"/>
</svg>
