<svg width="224" height="117" viewBox="0 0 224 117" fill="none" xmlns="http://www.w3.org/2000/svg">
<g clip-path="url(#clip0_2314_46594)">
<path d="M19 30H205C209.142 30 212.5 33.3579 212.5 37.5V78.5C212.5 82.6421 209.142 86 205 86H19C14.8579 86 11.5 82.6421 11.5 78.5V37.5C11.5 33.3579 14.8579 30 19 30Z" stroke="#DADFE2"/>
<path d="M42.9056 63.3199C41.551 64.3729 39.8487 65 38 65C33.5817 65 30 61.4183 30 57C30 52.5817 33.5817 49 38 49C42.4183 49 46 52.5817 46 57C46 58.8487 45.3729 60.551 44.3199 61.9056L47.7071 65.2929C48.0976 65.6834 48.0976 66.3166 47.7071 66.7071C47.3166 67.0976 46.6834 67.0976 46.2929 66.7071L42.9056 63.3199ZM44 57C44 53.6863 41.3137 51 38 51C34.6863 51 32 53.6863 32 57C32 60.3137 34.6863 63 38 63C41.3137 63 44 60.3137 44 57Z" fill="#233D48"/>
<path d="M65.6719 42.9929C65.6188 42.5223 65.4001 42.1577 65.0156 41.8991C64.6312 41.6373 64.1473 41.5064 63.5639 41.5064C63.1463 41.5064 62.785 41.5727 62.4801 41.7053C62.1752 41.8345 61.9382 42.0135 61.7692 42.2422C61.6035 42.4676 61.5206 42.7244 61.5206 43.0128C61.5206 43.2547 61.5769 43.4635 61.6896 43.6392C61.8056 43.8149 61.9564 43.9624 62.142 44.0817C62.331 44.1977 62.5331 44.2955 62.7486 44.375C62.964 44.4512 63.1712 44.5142 63.37 44.5639L64.3643 44.8224C64.6892 44.902 65.0223 45.0097 65.3636 45.1456C65.705 45.2815 66.0215 45.4605 66.3132 45.6825C66.6049 45.9046 66.8402 46.1797 67.0192 46.5078C67.2015 46.8359 67.2926 47.2287 67.2926 47.6861C67.2926 48.2628 67.1435 48.7749 66.8452 49.2223C66.5502 49.6697 66.121 50.0227 65.5575 50.2812C64.9974 50.5398 64.3196 50.669 63.5241 50.669C62.7618 50.669 62.1023 50.5481 61.5455 50.3061C60.9886 50.0642 60.5528 49.7211 60.2379 49.277C59.9231 48.8295 59.7491 48.2992 59.7159 47.6861H61.2571C61.2869 48.054 61.4063 48.3606 61.6151 48.6058C61.8272 48.8478 62.0973 49.0284 62.4254 49.1477C62.7569 49.2637 63.1198 49.3217 63.5142 49.3217C63.9484 49.3217 64.3345 49.2538 64.6726 49.1179C65.014 48.9787 65.2824 48.7865 65.478 48.5412C65.6735 48.2926 65.7713 48.0026 65.7713 47.6712C65.7713 47.3696 65.6851 47.1226 65.5128 46.9304C65.3438 46.7382 65.1134 46.5791 64.8217 46.4531C64.5334 46.3272 64.2069 46.2161 63.8423 46.12L62.6392 45.7919C61.8239 45.5698 61.1776 45.2434 60.7003 44.8125C60.2263 44.3816 59.9893 43.8116 59.9893 43.1023C59.9893 42.5156 60.1484 42.0036 60.4666 41.5661C60.7848 41.1286 61.2157 40.7888 61.7592 40.5469C62.3028 40.3016 62.916 40.179 63.5987 40.179C64.2881 40.179 64.8963 40.3 65.4233 40.5419C65.9536 40.7839 66.3712 41.117 66.6761 41.5412C66.9811 41.9621 67.1402 42.446 67.1534 42.9929H65.6719ZM72.3002 50.6541C71.5479 50.6541 70.8999 50.4934 70.3564 50.1719C69.8161 49.8471 69.3985 49.3913 69.1035 48.8047C68.8118 48.2147 68.666 47.5237 68.666 46.7315C68.666 45.9493 68.8118 45.2599 69.1035 44.6634C69.3985 44.0668 69.8095 43.6011 70.3365 43.2663C70.8668 42.9316 71.4866 42.7642 72.1958 42.7642C72.6267 42.7642 73.0443 42.8355 73.4487 42.978C73.853 43.1205 74.216 43.3442 74.5375 43.6491C74.859 43.9541 75.1125 44.3501 75.2981 44.8374C75.4837 45.3213 75.5765 45.9096 75.5765 46.6023V47.1293H69.5062V46.0156H74.1199C74.1199 45.6245 74.0403 45.2782 73.8812 44.9766C73.7221 44.6716 73.4984 44.4313 73.21 44.2557C72.925 44.08 72.5903 43.9922 72.2058 43.9922C71.7882 43.9922 71.4236 44.0949 71.112 44.3004C70.8038 44.5026 70.5652 44.7678 70.3961 45.0959C70.2304 45.4207 70.1475 45.7737 70.1475 46.1548V47.0249C70.1475 47.5353 70.237 47.9695 70.416 48.3274C70.5983 48.6854 70.8519 48.9588 71.1767 49.1477C71.5015 49.3333 71.881 49.4261 72.3152 49.4261C72.5969 49.4261 72.8538 49.3864 73.0858 49.3068C73.3178 49.224 73.5183 49.1013 73.6873 48.9389C73.8564 48.7765 73.9856 48.576 74.0751 48.3374L75.4821 48.5909C75.3694 49.0052 75.1672 49.3681 74.8755 49.6797C74.5872 49.9879 74.2243 50.2282 73.7868 50.4006C73.3526 50.5696 72.8571 50.6541 72.3002 50.6541ZM79.4482 50.669C78.9643 50.669 78.5268 50.5795 78.1357 50.4006C77.7446 50.2183 77.4347 49.9548 77.206 49.6101C76.9806 49.2654 76.8679 48.8428 76.8679 48.3423C76.8679 47.9115 76.9508 47.5568 77.1165 47.2784C77.2822 47 77.5059 46.7796 77.7876 46.6172C78.0694 46.4548 78.3842 46.3321 78.7322 46.2493C79.0803 46.1664 79.4349 46.1035 79.7962 46.0604C80.2536 46.0073 80.6248 45.9643 80.9098 45.9311C81.1948 45.8946 81.402 45.8366 81.5312 45.7571C81.6605 45.6776 81.7251 45.5483 81.7251 45.3693V45.3345C81.7251 44.9003 81.6025 44.5639 81.3572 44.3253C81.1153 44.0866 80.754 43.9673 80.2734 43.9673C79.773 43.9673 79.3786 44.0784 79.0902 44.3004C78.8052 44.5192 78.608 44.7628 78.4986 45.0312L77.1016 44.7131C77.2673 44.2491 77.5092 43.8745 77.8274 43.5895C78.1489 43.3011 78.5185 43.0923 78.9361 42.9631C79.3537 42.8305 79.7929 42.7642 80.2536 42.7642C80.5585 42.7642 80.8816 42.8007 81.223 42.8736C81.5677 42.9432 81.8892 43.0724 82.1875 43.2614C82.4891 43.4503 82.736 43.7204 82.9283 44.0717C83.1205 44.4197 83.2166 44.8722 83.2166 45.429V50.5H81.7649V49.456H81.7053C81.6091 49.6482 81.465 49.8371 81.2727 50.0227C81.0805 50.2083 80.8336 50.3625 80.532 50.4851C80.2304 50.6077 79.8691 50.669 79.4482 50.669ZM79.7713 49.4759C80.1823 49.4759 80.5336 49.3946 80.8253 49.2322C81.1203 49.0698 81.344 48.8577 81.4964 48.5959C81.6522 48.3307 81.7301 48.0473 81.7301 47.7457V46.7614C81.6771 46.8144 81.5743 46.8641 81.4219 46.9105C81.2727 46.9536 81.102 46.9917 80.9098 47.0249C80.7176 47.0547 80.5303 47.0829 80.348 47.1094C80.1657 47.1326 80.0133 47.1525 79.8906 47.169C79.6023 47.2055 79.3388 47.2668 79.1001 47.353C78.8648 47.4392 78.6759 47.5634 78.5334 47.7259C78.3942 47.8849 78.3246 48.0971 78.3246 48.3622C78.3246 48.7301 78.4605 49.0085 78.7322 49.1974C79.004 49.383 79.3504 49.4759 79.7713 49.4759ZM85.1966 50.5V42.8636H86.6333V44.0767H86.7129C86.8521 43.6657 87.0974 43.3426 87.4487 43.1072C87.8033 42.8686 88.2044 42.7493 88.6518 42.7493C88.7446 42.7493 88.854 42.7526 88.9799 42.7592C89.1092 42.7659 89.2103 42.7741 89.2832 42.7841V44.206C89.2235 44.1894 89.1175 44.1712 88.965 44.1513C88.8126 44.1281 88.6601 44.1165 88.5076 44.1165C88.1563 44.1165 87.8431 44.1911 87.568 44.3402C87.2962 44.486 87.0808 44.6899 86.9217 44.9517C86.7626 45.2102 86.6831 45.5052 86.6831 45.8366V50.5H85.1966ZM93.5128 50.6541C92.7737 50.6541 92.1373 50.4867 91.6037 50.152C91.0734 49.8139 90.6657 49.3482 90.3807 48.755C90.0956 48.1617 89.9531 47.4822 89.9531 46.7166C89.9531 45.9411 90.099 45.2566 90.3906 44.6634C90.6823 44.0668 91.0933 43.6011 91.6236 43.2663C92.1539 42.9316 92.7786 42.7642 93.4979 42.7642C94.0779 42.7642 94.5949 42.8719 95.049 43.0874C95.5031 43.2995 95.8693 43.5978 96.1477 43.9822C96.4295 44.3667 96.5968 44.8158 96.6499 45.3295H95.2031C95.1236 44.9716 94.9413 44.6634 94.6562 44.4048C94.3745 44.1463 93.9967 44.017 93.5227 44.017C93.1084 44.017 92.7455 44.1264 92.4339 44.3452C92.1257 44.5606 91.8854 44.8688 91.7131 45.2699C91.5407 45.6676 91.4545 46.1383 91.4545 46.6818C91.4545 47.2386 91.5391 47.7192 91.7081 48.1236C91.8771 48.5279 92.1158 48.8411 92.424 49.0632C92.7356 49.2853 93.1018 49.3963 93.5227 49.3963C93.8045 49.3963 94.0597 49.3449 94.2884 49.2422C94.5204 49.1361 94.7143 48.9853 94.87 48.7898C95.0291 48.5942 95.1402 48.3589 95.2031 48.0838H96.6499C96.5968 48.5777 96.4361 49.0185 96.1676 49.4062C95.8991 49.794 95.5395 50.099 95.0888 50.321C94.6413 50.5431 94.116 50.6541 93.5128 50.6541ZM99.726 45.9659V50.5H98.2395V40.3182H99.7061V44.1065H99.8006C99.9796 43.6955 100.253 43.3691 100.621 43.1271C100.989 42.8852 101.469 42.7642 102.063 42.7642C102.586 42.7642 103.044 42.8719 103.435 43.0874C103.829 43.3028 104.134 43.6243 104.35 44.0518C104.568 44.4761 104.678 45.0064 104.678 45.6428V50.5H103.191V45.8217C103.191 45.2616 103.047 44.8274 102.759 44.5192C102.47 44.2076 102.069 44.0518 101.556 44.0518C101.204 44.0518 100.889 44.1264 100.611 44.2756C100.336 44.4247 100.119 44.6435 99.9597 44.9318C99.8039 45.2169 99.726 45.5616 99.726 45.9659Z" fill="#233D48"/>
<path d="M60.8864 62.8636L64.3409 72.6591H64.4773L67.9318 62.8636H69.4091L65.1364 74.5H63.6818L59.4091 62.8636H60.8864ZM72.7955 74.7045C72.2424 74.7045 71.7405 74.6004 71.2898 74.392C70.839 74.1799 70.4811 73.875 70.2159 73.4773C69.9508 73.0758 69.8182 72.5909 69.8182 72.0227C69.8182 71.5227 69.9167 71.1174 70.1136 70.8068C70.3106 70.4924 70.5739 70.2462 70.9034 70.0682C71.233 69.8902 71.5966 69.7576 71.9943 69.6705C72.3958 69.5795 72.7992 69.5076 73.2045 69.4545C73.7348 69.3864 74.1648 69.3352 74.4943 69.3011C74.8277 69.2633 75.0701 69.2008 75.2216 69.1136C75.3769 69.0265 75.4545 68.875 75.4545 68.6591V68.6136C75.4545 68.053 75.3011 67.6174 74.9943 67.3068C74.6913 66.9962 74.2311 66.8409 73.6136 66.8409C72.9735 66.8409 72.4716 66.9811 72.108 67.2614C71.7443 67.5417 71.4886 67.8409 71.3409 68.1591L70.0682 67.7045C70.2955 67.1742 70.5985 66.7614 70.9773 66.4659C71.3598 66.1667 71.7765 65.9583 72.2273 65.8409C72.6818 65.7197 73.1288 65.6591 73.5682 65.6591C73.8485 65.6591 74.1705 65.6932 74.5341 65.7614C74.9015 65.8258 75.2557 65.9602 75.5966 66.1648C75.9413 66.3693 76.2273 66.678 76.4545 67.0909C76.6818 67.5038 76.7955 68.0568 76.7955 68.75V74.5H75.4545V73.3182H75.3864C75.2955 73.5076 75.1439 73.7102 74.9318 73.9261C74.7197 74.142 74.4375 74.3258 74.0852 74.4773C73.733 74.6288 73.303 74.7045 72.7955 74.7045ZM73 73.5C73.5303 73.5 73.9773 73.3958 74.3409 73.1875C74.7083 72.9792 74.9848 72.7102 75.1705 72.3807C75.3598 72.0511 75.4545 71.7045 75.4545 71.3409V70.1136C75.3977 70.1818 75.2727 70.2443 75.0795 70.3011C74.8902 70.3542 74.6705 70.4015 74.4205 70.4432C74.1742 70.4811 73.9337 70.5152 73.6989 70.5455C73.4678 70.572 73.2803 70.5947 73.1364 70.6136C72.7879 70.6591 72.4621 70.733 72.1591 70.8352C71.8598 70.9337 71.6174 71.0833 71.4318 71.2841C71.25 71.4811 71.1591 71.75 71.1591 72.0909C71.1591 72.5568 71.3314 72.9091 71.6761 73.1477C72.0246 73.3826 72.4659 73.5 73 73.5ZM80.5838 62.8636V74.5H79.2429V62.8636H80.5838ZM88.5398 70.9318V65.7727H89.8807V74.5H88.5398V73.0227H88.4489C88.2443 73.4659 87.9261 73.8428 87.4943 74.1534C87.0625 74.4602 86.517 74.6136 85.858 74.6136C85.3125 74.6136 84.8277 74.4943 84.4034 74.2557C83.9792 74.0133 83.6458 73.6496 83.4034 73.1648C83.161 72.6761 83.0398 72.0606 83.0398 71.3182V65.7727H84.3807V71.2273C84.3807 71.8636 84.5587 72.3712 84.9148 72.75C85.2746 73.1288 85.733 73.3182 86.2898 73.3182C86.6231 73.3182 86.9621 73.233 87.3068 73.0625C87.6553 72.892 87.947 72.6307 88.1818 72.2784C88.4205 71.9261 88.5398 71.4773 88.5398 70.9318ZM95.9957 74.6818C95.1548 74.6818 94.4295 74.4962 93.8196 74.125C93.2135 73.75 92.7457 73.2273 92.4162 72.5568C92.0904 71.8826 91.9276 71.0985 91.9276 70.2045C91.9276 69.3106 92.0904 68.5227 92.4162 67.8409C92.7457 67.1553 93.2041 66.6212 93.7912 66.2386C94.3821 65.8523 95.0715 65.6591 95.8594 65.6591C96.3139 65.6591 96.7628 65.7348 97.206 65.8864C97.6491 66.0379 98.0526 66.2841 98.4162 66.625C98.7798 66.9621 99.0696 67.4091 99.2855 67.9659C99.5014 68.5227 99.6094 69.2083 99.6094 70.0227V70.5909H92.8821V69.4318H98.2457C98.2457 68.9394 98.1473 68.5 97.9503 68.1136C97.7571 67.7273 97.4806 67.4223 97.1207 67.1989C96.7647 66.9754 96.3442 66.8636 95.8594 66.8636C95.3253 66.8636 94.8632 66.9962 94.473 67.2614C94.0866 67.5227 93.7893 67.8636 93.581 68.2841C93.3726 68.7045 93.2685 69.1553 93.2685 69.6364V70.4091C93.2685 71.0682 93.3821 71.6269 93.6094 72.0852C93.8404 72.5398 94.1605 72.8864 94.5696 73.125C94.9787 73.3598 95.4541 73.4773 95.9957 73.4773C96.348 73.4773 96.6662 73.428 96.9503 73.3295C97.2382 73.2273 97.4863 73.0758 97.6946 72.875C97.9029 72.6705 98.0639 72.4167 98.1776 72.1136L99.473 72.4773C99.3366 72.9167 99.1075 73.303 98.7855 73.6364C98.4635 73.9659 98.0658 74.2235 97.5923 74.4091C97.1188 74.5909 96.5866 74.6818 95.9957 74.6818Z" fill="#032B3A"/>
<rect x="173" y="46" width="24" height="24" rx="12" fill="#F1F0E9"/>
<path d="M184.992 57.0656L181.463 53.537C181.338 53.4156 181.169 53.3484 180.994 53.3499C180.82 53.3514 180.652 53.4215 180.529 53.5451C180.405 53.6687 180.335 53.8359 180.334 54.0107C180.332 54.1855 180.399 54.3539 180.521 54.4796L184.049 58.0082L180.521 61.5367C180.399 61.6625 180.332 61.8309 180.334 62.0057C180.335 62.1804 180.405 62.3476 180.529 62.4712C180.652 62.5948 180.82 62.665 180.994 62.6665C181.169 62.668 181.338 62.6008 181.463 62.4794L184.992 58.9508L188.52 62.4794C188.646 62.6008 188.814 62.668 188.989 62.6665C189.164 62.665 189.331 62.5948 189.455 62.4712C189.578 62.3476 189.649 62.1804 189.65 62.0057C189.652 61.8309 189.584 61.6625 189.463 61.5367L185.934 58.0082L189.463 54.4796C189.527 54.4182 189.577 54.3446 189.612 54.2633C189.647 54.1819 189.666 54.0944 189.666 54.0059C189.667 53.9174 189.65 53.8296 189.617 53.7477C189.583 53.6658 189.534 53.5913 189.471 53.5287C189.409 53.4662 189.334 53.4167 189.252 53.3831C189.17 53.3496 189.083 53.3328 188.994 53.3335C188.906 53.3343 188.818 53.3527 188.737 53.3876C188.655 53.4226 188.582 53.4733 188.52 53.537L184.992 57.0656Z" fill="#233D48"/>
</g>
<defs>
<clipPath id="clip0_2314_46594">
<rect width="202" height="57" fill="white" transform="translate(11 29.5)"/>
</clipPath>
</defs>
</svg>
