<svg width="275" height="69" viewBox="0 0 275 69" fill="none" xmlns="http://www.w3.org/2000/svg">
<path fill-rule="evenodd" clip-rule="evenodd" d="M34.6868 68.9895C53.7159 68.9895 69.1421 53.5634 69.1421 34.5342C69.1421 15.505 53.7159 0.0788574 34.6868 0.0788574C15.6576 0.0788574 0.231445 15.505 0.231445 34.5342C0.231445 53.5634 15.6576 68.9895 34.6868 68.9895Z" fill="#627A84"/>
<path d="M19.7363 44.0673H17.262L24.4184 24.5774H26.8547L34.0111 44.0673H31.5368L25.7127 27.6607H25.5604L19.7363 44.0673ZM20.6499 36.454H30.6232V38.5477H20.6499V36.454ZM37.8463 44.0673H35.372L42.5284 24.5774H44.9647L52.1211 44.0673H49.6468L43.8227 27.6607H43.6704L37.8463 44.0673ZM38.7599 36.454H48.7332V38.5477H38.7599V36.454Z" fill="white"/>
<path d="M84.4556 19.6992H184.112C188.077 19.6992 191.291 22.913 191.291 26.8774V42.1909C191.291 46.1553 188.077 49.3691 184.112 49.3691H84.4556C80.4912 49.3691 77.2774 46.1553 77.2774 42.1909V26.8774C77.2774 22.913 80.4912 19.6992 84.4556 19.6992Z" fill="white"/>
<path d="M84.4556 19.6992H184.112C188.077 19.6992 191.291 22.913 191.291 26.8774V42.1909C191.291 46.1553 188.077 49.3691 184.112 49.3691H84.4556C80.4912 49.3691 77.2774 46.1553 77.2774 42.1909V26.8774C77.2774 22.913 80.4912 19.6992 84.4556 19.6992Z" stroke="#DADFE2" stroke-width="0.957093"/>
<path d="M97.6705 33.0772H95.8909C95.8401 32.7854 95.7465 32.5268 95.6101 32.3016C95.4737 32.0732 95.304 31.8797 95.101 31.7211C94.898 31.5625 94.6664 31.4435 94.4063 31.3642C94.1493 31.2817 93.8718 31.2405 93.5736 31.2405C93.0438 31.2405 92.5743 31.3737 92.1651 31.6402C91.7559 31.9035 91.4355 32.2905 91.204 32.8012C90.9724 33.3088 90.8566 33.9289 90.8566 34.6617C90.8566 35.4072 90.9724 36.0353 91.204 36.546C91.4387 37.0535 91.7591 37.4374 92.1651 37.6975C92.5743 37.9544 93.0422 38.0829 93.5688 38.0829C93.8607 38.0829 94.1335 38.0448 94.3872 37.9687C94.6442 37.8894 94.8742 37.7736 95.0772 37.6214C95.2834 37.4691 95.4563 37.2819 95.5958 37.0599C95.7386 36.8378 95.8369 36.584 95.8909 36.2986L97.6705 36.3081C97.6038 36.7712 97.4595 37.2058 97.2375 37.6118C97.0186 38.0179 96.7315 38.3763 96.3762 38.6872C96.0209 38.9949 95.6054 39.236 95.1295 39.4105C94.6537 39.5818 94.1255 39.6674 93.545 39.6674C92.6885 39.6674 91.924 39.4691 91.2515 39.0726C90.579 38.6761 90.0493 38.1035 89.6623 37.3549C89.2753 36.6063 89.0818 35.7085 89.0818 34.6617C89.0818 33.6117 89.2769 32.714 89.667 31.9685C90.0572 31.2199 90.5886 30.6473 91.2611 30.2508C91.9336 29.8543 92.6949 29.656 93.545 29.656C94.0875 29.656 94.5919 29.7321 95.0582 29.8844C95.5245 30.0367 95.94 30.2603 96.3048 30.5553C96.6696 30.8472 96.9694 31.2056 97.2041 31.6307C97.4421 32.0526 97.5975 32.5348 97.6705 33.0772ZM100.933 35.2517V39.5342H99.2109V29.7892H100.895V33.4674H100.981C101.152 33.055 101.417 32.7298 101.776 32.4919C102.137 32.2508 102.597 32.1303 103.156 32.1303C103.663 32.1303 104.106 32.2366 104.483 32.4491C104.861 32.6616 105.152 32.9725 105.359 33.3817C105.568 33.7909 105.673 34.2906 105.673 34.8806V39.5342H103.95V35.1471C103.95 34.6554 103.823 34.2731 103.57 34.0003C103.319 33.7243 102.967 33.5863 102.513 33.5863C102.209 33.5863 101.936 33.653 101.695 33.7862C101.457 33.9162 101.27 34.105 101.133 34.3524C101 34.5998 100.933 34.8996 100.933 35.2517ZM109.532 39.6817C109.069 39.6817 108.651 39.5992 108.28 39.4343C107.912 39.2661 107.62 39.0187 107.405 38.692C107.192 38.3652 107.086 37.9624 107.086 37.4834C107.086 37.071 107.162 36.73 107.314 36.4603C107.467 36.1907 107.674 35.975 107.938 35.8132C108.201 35.6514 108.498 35.5293 108.827 35.4468C109.16 35.3612 109.505 35.2993 109.86 35.2612C110.288 35.2168 110.636 35.1772 110.902 35.1423C111.168 35.1042 111.362 35.0471 111.483 34.971C111.606 34.8917 111.668 34.7696 111.668 34.6046V34.5761C111.668 34.2176 111.562 33.94 111.349 33.7434C111.137 33.5467 110.831 33.4483 110.431 33.4483C110.009 33.4483 109.674 33.5403 109.427 33.7243C109.183 33.9083 109.018 34.1256 108.932 34.3762L107.324 34.1478C107.451 33.7037 107.66 33.3326 107.952 33.0344C108.244 32.733 108.601 32.5078 109.023 32.3587C109.444 32.2064 109.911 32.1303 110.421 32.1303C110.774 32.1303 111.124 32.1715 111.473 32.254C111.822 32.3365 112.141 32.4729 112.429 32.6632C112.718 32.8504 112.95 33.1058 113.124 33.4293C113.302 33.7529 113.391 34.1573 113.391 34.6427V39.5342H111.735V38.5302H111.678C111.573 38.7332 111.425 38.9235 111.235 39.1012C111.048 39.2756 110.812 39.4168 110.526 39.5247C110.244 39.6293 109.912 39.6817 109.532 39.6817ZM109.979 38.416C110.325 38.416 110.624 38.3478 110.878 38.2114C111.132 38.0718 111.327 37.8878 111.464 37.6594C111.603 37.431 111.673 37.182 111.673 36.9124V36.0511C111.619 36.0955 111.527 36.1368 111.397 36.1748C111.27 36.2129 111.127 36.2462 110.969 36.2748C110.81 36.3033 110.653 36.3287 110.498 36.3509C110.342 36.3731 110.207 36.3921 110.093 36.408C109.836 36.4429 109.606 36.5 109.403 36.5793C109.2 36.6586 109.04 36.7696 108.923 36.9124C108.805 37.0519 108.747 37.2328 108.747 37.4548C108.747 37.772 108.862 38.0115 109.094 38.1733C109.325 38.3351 109.62 38.416 109.979 38.416ZM116.845 35.2517V39.5342H115.123V32.2255H116.769V33.4674H116.855C117.023 33.0582 117.291 32.733 117.659 32.4919C118.03 32.2508 118.488 32.1303 119.034 32.1303C119.538 32.1303 119.978 32.2382 120.352 32.4539C120.729 32.6696 121.021 32.982 121.227 33.3912C121.437 33.8005 121.54 34.2969 121.537 34.8806V39.5342H119.814V35.1471C119.814 34.6585 119.687 34.2763 119.434 34.0003C119.183 33.7243 118.836 33.5863 118.392 33.5863C118.09 33.5863 117.822 33.653 117.587 33.7862C117.356 33.9162 117.173 34.105 117.04 34.3524C116.91 34.5998 116.845 34.8996 116.845 35.2517ZM126.466 42.4272C125.848 42.4272 125.316 42.3431 124.872 42.175C124.428 42.0101 124.071 41.788 123.802 41.5089C123.532 41.2297 123.345 40.9204 123.24 40.581L124.791 40.2051C124.861 40.3478 124.963 40.489 125.096 40.6286C125.229 40.7713 125.408 40.8887 125.634 40.9807C125.862 41.0759 126.149 41.1234 126.495 41.1234C126.983 41.1234 127.388 41.0045 127.708 40.7666C128.029 40.5318 128.189 40.1448 128.189 39.6056V38.2209H128.103C128.014 38.3985 127.884 38.5809 127.713 38.7681C127.545 38.9553 127.321 39.1123 127.042 39.2392C126.766 39.3661 126.419 39.4295 126 39.4295C125.439 39.4295 124.929 39.2979 124.473 39.0346C124.019 38.7681 123.657 38.3716 123.388 37.845C123.121 37.3152 122.988 36.6523 122.988 35.856C122.988 35.0535 123.121 34.3762 123.388 33.8243C123.657 33.2691 124.021 32.8488 124.477 32.5633C124.934 32.2746 125.443 32.1303 126.005 32.1303C126.433 32.1303 126.785 32.2033 127.061 32.3492C127.34 32.4919 127.562 32.6648 127.727 32.8678C127.892 33.0677 128.018 33.2564 128.103 33.4341H128.198V32.2255H129.897V39.6531C129.897 40.2781 129.748 40.7951 129.45 41.2043C129.152 41.6135 128.744 41.9197 128.227 42.1227C127.71 42.3257 127.123 42.4272 126.466 42.4272ZM126.481 38.0781C126.845 38.0781 127.156 37.9893 127.413 37.8117C127.67 37.634 127.865 37.3787 127.999 37.0456C128.132 36.7125 128.198 36.3128 128.198 35.8465C128.198 35.3866 128.132 34.9837 127.999 34.6379C127.868 34.2921 127.675 34.0241 127.418 33.8338C127.164 33.6403 126.852 33.5435 126.481 33.5435C126.097 33.5435 125.776 33.6434 125.519 33.8433C125.262 34.0431 125.069 34.3175 124.939 34.6665C124.809 35.0122 124.744 35.4056 124.744 35.8465C124.744 36.2938 124.809 36.6856 124.939 37.0218C125.072 37.3549 125.267 37.615 125.524 37.8022C125.784 37.9862 126.103 38.0781 126.481 38.0781ZM134.898 39.6769C134.165 39.6769 133.532 39.5247 132.999 39.2201C132.47 38.9124 132.062 38.4778 131.777 37.9164C131.491 37.3517 131.348 36.6871 131.348 35.9226C131.348 35.1708 131.491 34.511 131.777 33.9432C132.065 33.3722 132.468 32.9281 132.985 32.6109C133.502 32.2905 134.11 32.1303 134.808 32.1303C135.258 32.1303 135.683 32.2033 136.083 32.3492C136.486 32.4919 136.841 32.714 137.149 33.0153C137.46 33.3167 137.704 33.7005 137.881 34.1668C138.059 34.63 138.148 35.1819 138.148 35.8227V36.3509H132.157V35.1899H136.497C136.494 34.86 136.422 34.5665 136.283 34.3096C136.143 34.0495 135.948 33.8449 135.697 33.6958C135.45 33.5467 135.161 33.4721 134.831 33.4721C134.479 33.4721 134.17 33.5578 133.904 33.7291C133.637 33.8972 133.429 34.1193 133.28 34.3952C133.134 34.6681 133.06 34.9678 133.057 35.2946V36.3081C133.057 36.7331 133.134 37.0979 133.29 37.4025C133.445 37.7038 133.662 37.9354 133.942 38.0972C134.221 38.2558 134.547 38.3351 134.922 38.3351C135.172 38.3351 135.399 38.3002 135.602 38.2304C135.805 38.1575 135.981 38.0512 136.13 37.9116C136.279 37.772 136.392 37.5991 136.468 37.393L138.077 37.5738C137.975 37.9988 137.782 38.37 137.496 38.6872C137.214 39.0013 136.852 39.2455 136.411 39.42C135.97 39.5913 135.466 39.6769 134.898 39.6769ZM143.005 39.5342V29.7892H146.659C147.408 29.7892 148.036 29.9288 148.544 30.208C149.054 30.4871 149.44 30.8709 149.7 31.3595C149.963 31.8448 150.095 32.3968 150.095 33.0153C150.095 33.6403 149.963 34.1954 149.7 34.6807C149.437 35.1661 149.048 35.5483 148.534 35.8275C148.02 36.1035 147.387 36.2415 146.635 36.2415H144.214V34.7902H146.398C146.835 34.7902 147.194 34.714 147.473 34.5618C147.752 34.4095 147.958 34.2002 148.092 33.9337C148.228 33.6672 148.296 33.3611 148.296 33.0153C148.296 32.6696 148.228 32.365 148.092 32.1018C147.958 31.8385 147.75 31.6339 147.468 31.4879C147.189 31.3388 146.829 31.2643 146.388 31.2643H144.77V39.5342H143.005ZM153.274 35.2517V39.5342H151.552V29.7892H153.236V33.4674H153.322C153.493 33.055 153.758 32.7298 154.117 32.4919C154.478 32.2508 154.938 32.1303 155.497 32.1303C156.004 32.1303 156.447 32.2366 156.824 32.4491C157.202 32.6616 157.493 32.9725 157.7 33.3817C157.909 33.7909 158.014 34.2906 158.014 34.8806V39.5342H156.291V35.1471C156.291 34.6554 156.164 34.2731 155.911 34.0003C155.66 33.7243 155.308 33.5863 154.854 33.5863C154.55 33.5863 154.277 33.653 154.036 33.7862C153.798 33.9162 153.611 34.105 153.474 34.3524C153.341 34.5998 153.274 34.8996 153.274 35.2517ZM162.958 39.6769C162.244 39.6769 161.625 39.5199 161.102 39.2059C160.578 38.8918 160.172 38.4525 159.884 37.8878C159.598 37.3232 159.455 36.6634 159.455 35.9084C159.455 35.1534 159.598 34.492 159.884 33.9242C160.172 33.3564 160.578 32.9154 161.102 32.6014C161.625 32.2873 162.244 32.1303 162.958 32.1303C163.671 32.1303 164.29 32.2873 164.813 32.6014C165.337 32.9154 165.741 33.3564 166.027 33.9242C166.315 34.492 166.46 35.1534 166.46 35.9084C166.46 36.6634 166.315 37.3232 166.027 37.8878C165.741 38.4525 165.337 38.8918 164.813 39.2059C164.29 39.5199 163.671 39.6769 162.958 39.6769ZM162.967 38.297C163.354 38.297 163.678 38.1908 163.938 37.9782C164.198 37.7625 164.391 37.4738 164.518 37.1122C164.648 36.7506 164.713 36.3477 164.713 35.9036C164.713 35.4563 164.648 35.0519 164.518 34.6903C164.391 34.3255 164.198 34.0352 163.938 33.8195C163.678 33.6038 163.354 33.4959 162.967 33.4959C162.571 33.4959 162.241 33.6038 161.977 33.8195C161.717 34.0352 161.522 34.3255 161.392 34.6903C161.265 35.0519 161.202 35.4563 161.202 35.9036C161.202 36.3477 161.265 36.7506 161.392 37.1122C161.522 37.4738 161.717 37.7625 161.977 37.9782C162.241 38.1908 162.571 38.297 162.967 38.297ZM171.571 32.2255V33.5578H167.37V32.2255H171.571ZM168.407 30.4744H170.129V37.3359C170.129 37.5674 170.164 37.7451 170.234 37.8688C170.307 37.9893 170.402 38.0718 170.52 38.1162C170.637 38.1606 170.767 38.1828 170.91 38.1828C171.018 38.1828 171.116 38.1749 171.205 38.159C171.297 38.1432 171.367 38.1289 171.414 38.1162L171.704 39.4628C171.612 39.4945 171.481 39.5294 171.31 39.5675C171.141 39.6056 170.935 39.6278 170.691 39.6341C170.26 39.6468 169.871 39.5818 169.525 39.439C169.179 39.2931 168.905 39.0679 168.702 38.7633C168.502 38.4588 168.404 38.0781 168.407 37.6214V30.4744ZM176.121 39.6769C175.408 39.6769 174.789 39.5199 174.266 39.2059C173.742 38.8918 173.336 38.4525 173.047 37.8878C172.762 37.3232 172.619 36.6634 172.619 35.9084C172.619 35.1534 172.762 34.492 173.047 33.9242C173.336 33.3564 173.742 32.9154 174.266 32.6014C174.789 32.2873 175.408 32.1303 176.121 32.1303C176.835 32.1303 177.454 32.2873 177.977 32.6014C178.5 32.9154 178.905 33.3564 179.19 33.9242C179.479 34.492 179.623 35.1534 179.623 35.9084C179.623 36.6634 179.479 37.3232 179.19 37.8878C178.905 38.4525 178.5 38.8918 177.977 39.2059C177.454 39.5199 176.835 39.6769 176.121 39.6769ZM176.131 38.297C176.518 38.297 176.841 38.1908 177.102 37.9782C177.362 37.7625 177.555 37.4738 177.682 37.1122C177.812 36.7506 177.877 36.3477 177.877 35.9036C177.877 35.4563 177.812 35.0519 177.682 34.6903C177.555 34.3255 177.362 34.0352 177.102 33.8195C176.841 33.6038 176.518 33.4959 176.131 33.4959C175.734 33.4959 175.404 33.6038 175.141 33.8195C174.881 34.0352 174.686 34.3255 174.556 34.6903C174.429 35.0519 174.365 35.4563 174.365 35.9036C174.365 36.3477 174.429 36.7506 174.556 37.1122C174.686 37.4738 174.881 37.7625 175.141 37.9782C175.404 38.1908 175.734 38.297 176.131 38.297Z" fill="#388523"/>
<path d="M207.083 19.6992H266.739C270.704 19.6992 273.917 22.913 273.917 26.8774V42.1909C273.917 46.1553 270.704 49.3691 266.739 49.3691H207.083C203.118 49.3691 199.904 46.1553 199.904 42.1909V26.8774C199.904 22.913 203.118 19.6992 207.083 19.6992Z" fill="white"/>
<path d="M207.083 19.6992H266.739C270.704 19.6992 273.917 22.913 273.917 26.8774V42.1909C273.917 46.1553 270.704 49.3691 266.739 49.3691H207.083C203.118 49.3691 199.904 46.1553 199.904 42.1909V26.8774C199.904 22.913 203.118 19.6992 207.083 19.6992Z" stroke="#DADFE2" stroke-width="0.957093"/>
<path d="M211.924 39.5342V29.7892H215.579C216.327 29.7892 216.955 29.9193 217.463 30.1794C217.974 30.4395 218.359 30.8043 218.619 31.2738C218.882 31.7401 219.014 32.2842 219.014 32.9059C219.014 33.5308 218.881 34.0733 218.614 34.5332C218.351 34.99 217.962 35.3437 217.449 35.5943C216.935 35.8418 216.303 35.9655 215.555 35.9655H212.952V34.4999H215.317C215.755 34.4999 216.113 34.4397 216.392 34.3191C216.671 34.1954 216.878 34.0162 217.011 33.7814C217.147 33.5435 217.215 33.2517 217.215 32.9059C217.215 32.5601 217.147 32.2651 217.011 32.0209C216.874 31.7734 216.667 31.5863 216.388 31.4594C216.108 31.3293 215.748 31.2643 215.307 31.2643H213.69V39.5342H211.924ZM216.959 35.1185L219.371 39.5342H217.401L215.031 35.1185H216.959ZM223.694 39.6769C222.961 39.6769 222.328 39.5247 221.795 39.2201C221.266 38.9124 220.858 38.4778 220.572 37.9164C220.287 37.3517 220.144 36.6871 220.144 35.9226C220.144 35.1708 220.287 34.511 220.572 33.9432C220.861 33.3722 221.264 32.9281 221.781 32.6109C222.298 32.2905 222.906 32.1303 223.603 32.1303C224.054 32.1303 224.479 32.2033 224.879 32.3492C225.282 32.4919 225.637 32.714 225.945 33.0153C226.255 33.3167 226.5 33.7005 226.677 34.1668C226.855 34.63 226.944 35.1819 226.944 35.8227V36.3509H220.953V35.1899H225.293C225.289 34.86 225.218 34.5665 225.078 34.3096C224.939 34.0495 224.744 33.8449 224.493 33.6958C224.246 33.5467 223.957 33.4721 223.627 33.4721C223.275 33.4721 222.966 33.5578 222.699 33.7291C222.433 33.8972 222.225 34.1193 222.076 34.3952C221.93 34.6681 221.856 34.9678 221.852 35.2946V36.3081C221.852 36.7331 221.93 37.0979 222.086 37.4025C222.241 37.7038 222.458 37.9354 222.737 38.0972C223.017 38.2558 223.343 38.3351 223.718 38.3351C223.968 38.3351 224.195 38.3002 224.398 38.2304C224.601 38.1575 224.777 38.0512 224.926 37.9116C225.075 37.772 225.188 37.5991 225.264 37.393L226.872 37.5738C226.771 37.9988 226.577 38.37 226.292 38.6872C226.01 39.0013 225.648 39.2455 225.207 39.42C224.766 39.5913 224.262 39.6769 223.694 39.6769ZM228.401 39.5342V32.2255H230.047V33.4674H230.133C230.285 33.0487 230.537 32.7219 230.89 32.4872C231.242 32.2493 231.662 32.1303 232.15 32.1303C232.645 32.1303 233.062 32.2508 233.402 32.4919C233.745 32.7298 233.986 33.055 234.125 33.4674H234.201C234.363 33.0613 234.636 32.7378 235.02 32.4967C235.407 32.2524 235.865 32.1303 236.395 32.1303C237.067 32.1303 237.616 32.3428 238.041 32.7679C238.466 33.193 238.679 33.8131 238.679 34.6284V39.5342H236.952V34.8949C236.952 34.4412 236.831 34.1097 236.59 33.9004C236.349 33.6878 236.054 33.5816 235.705 33.5816C235.289 33.5816 234.964 33.7116 234.729 33.9718C234.498 34.2287 234.382 34.5634 234.382 34.9758V39.5342H232.693V34.8235C232.693 34.446 232.579 34.1446 232.35 33.9194C232.125 33.6942 231.83 33.5816 231.465 33.5816C231.218 33.5816 230.993 33.645 230.79 33.7719C230.587 33.8956 230.425 34.0717 230.304 34.3001C230.184 34.5253 230.123 34.7886 230.123 35.09V39.5342H228.401ZM243.614 39.6769C242.901 39.6769 242.282 39.5199 241.759 39.2059C241.235 38.8918 240.829 38.4525 240.541 37.8878C240.255 37.3232 240.112 36.6634 240.112 35.9084C240.112 35.1534 240.255 34.492 240.541 33.9242C240.829 33.3564 241.235 32.9154 241.759 32.6014C242.282 32.2873 242.901 32.1303 243.614 32.1303C244.328 32.1303 244.947 32.2873 245.47 32.6014C245.993 32.9154 246.398 33.3564 246.683 33.9242C246.972 34.492 247.116 35.1534 247.116 35.9084C247.116 36.6634 246.972 37.3232 246.683 37.8878C246.398 38.4525 245.993 38.8918 245.47 39.2059C244.947 39.5199 244.328 39.6769 243.614 39.6769ZM243.624 38.297C244.011 38.297 244.334 38.1908 244.595 37.9782C244.855 37.7625 245.048 37.4738 245.175 37.1122C245.305 36.7506 245.37 36.3477 245.37 35.9036C245.37 35.4563 245.305 35.0519 245.175 34.6903C245.048 34.3255 244.855 34.0352 244.595 33.8195C244.334 33.6038 244.011 33.4959 243.624 33.4959C243.227 33.4959 242.897 33.6038 242.634 33.8195C242.374 34.0352 242.179 34.3255 242.049 34.6903C241.922 35.0519 241.859 35.4563 241.859 35.9036C241.859 36.3477 241.922 36.7506 242.049 37.1122C242.179 37.4738 242.374 37.7625 242.634 37.9782C242.897 38.1908 243.227 38.297 243.624 38.297ZM254.858 32.2255L252.255 39.5342H250.352L247.749 32.2255H249.586L251.266 37.6547H251.342L253.026 32.2255H254.858ZM259.037 39.6769C258.304 39.6769 257.671 39.5247 257.139 39.2201C256.609 38.9124 256.201 38.4778 255.916 37.9164C255.63 37.3517 255.487 36.6871 255.487 35.9226C255.487 35.1708 255.63 34.511 255.916 33.9432C256.204 33.3722 256.607 32.9281 257.124 32.6109C257.641 32.2905 258.249 32.1303 258.947 32.1303C259.397 32.1303 259.822 32.2033 260.222 32.3492C260.625 32.4919 260.98 32.714 261.288 33.0153C261.599 33.3167 261.843 33.7005 262.021 34.1668C262.198 34.63 262.287 35.1819 262.287 35.8227V36.3509H256.296V35.1899H260.636C260.633 34.86 260.561 34.5665 260.422 34.3096C260.282 34.0495 260.087 33.8449 259.836 33.6958C259.589 33.5467 259.3 33.4721 258.97 33.4721C258.618 33.4721 258.309 33.5578 258.043 33.7291C257.776 33.8972 257.568 34.1193 257.419 34.3952C257.273 34.6681 257.199 34.9678 257.196 35.2946V36.3081C257.196 36.7331 257.273 37.0979 257.429 37.4025C257.584 37.7038 257.802 37.9354 258.081 38.0972C258.36 38.2558 258.687 38.3351 259.061 38.3351C259.311 38.3351 259.538 38.3002 259.741 38.2304C259.944 38.1575 260.12 38.0512 260.269 37.9116C260.419 37.772 260.531 37.5991 260.607 37.393L262.216 37.5738C262.114 37.9988 261.921 38.37 261.635 38.6872C261.353 39.0013 260.991 39.2455 260.55 39.42C260.109 39.5913 259.605 39.6769 259.037 39.6769Z" fill="#D24232"/>
</svg>
