<svg width="274" height="50" viewBox="0 0 274 50" fill="none" xmlns="http://www.w3.org/2000/svg">
<path d="M8 0.5H266C270.142 0.5 273.5 3.85786 273.5 8V42C273.5 46.1421 270.142 49.5 266 49.5H8C3.85787 49.5 0.5 46.1421 0.5 42V8C0.5 3.85787 3.85786 0.5 8 0.5Z" fill="white"/>
<path d="M8 0.5H266C270.142 0.5 273.5 3.85786 273.5 8V42C273.5 46.1421 270.142 49.5 266 49.5H8C3.85787 49.5 0.5 46.1421 0.5 42V8C0.5 3.85787 3.85786 0.5 8 0.5Z" stroke="#DADFE2" stroke-linecap="round"/>
<path d="M19.75 17H17.0568V8.27273H19.8693C20.7159 8.27273 21.4403 8.44744 22.0426 8.79688C22.6449 9.14347 23.1065 9.64205 23.4276 10.2926C23.7486 10.9403 23.9091 11.7159 23.9091 12.6193C23.9091 13.5284 23.7472 14.3111 23.4233 14.9673C23.0994 15.6207 22.6278 16.1236 22.0085 16.4759C21.3892 16.8253 20.6364 17 19.75 17ZM18.1136 16.0625H19.6818C20.4034 16.0625 21.0014 15.9233 21.4759 15.6449C21.9503 15.3665 22.304 14.9702 22.5369 14.456C22.7699 13.9418 22.8864 13.3295 22.8864 12.6193C22.8864 11.9148 22.7713 11.3082 22.5412 10.7997C22.3111 10.2884 21.9673 9.89631 21.5099 9.62358C21.0526 9.34801 20.483 9.21023 19.8011 9.21023H18.1136V16.0625ZM27.4716 17.1534C27.0568 17.1534 26.6804 17.0753 26.3423 16.919C26.0043 16.7599 25.7358 16.5312 25.5369 16.233C25.3381 15.9318 25.2386 15.5682 25.2386 15.142C25.2386 14.767 25.3125 14.4631 25.4602 14.2301C25.608 13.9943 25.8054 13.8097 26.0526 13.6761C26.2997 13.5426 26.5724 13.4432 26.8707 13.3778C27.1719 13.3097 27.4744 13.2557 27.7784 13.2159C28.1761 13.1648 28.4986 13.1264 28.7457 13.1009C28.9957 13.0724 29.1776 13.0256 29.2912 12.9602C29.4077 12.8949 29.4659 12.7812 29.4659 12.6193V12.5852C29.4659 12.1648 29.3509 11.8381 29.1207 11.6051C28.8935 11.3722 28.5483 11.2557 28.0852 11.2557C27.6051 11.2557 27.2287 11.3608 26.956 11.571C26.6832 11.7812 26.4915 12.0057 26.3807 12.2443L25.4261 11.9034C25.5966 11.5057 25.8239 11.196 26.108 10.9744C26.3949 10.75 26.7074 10.5937 27.0455 10.5057C27.3864 10.4148 27.7216 10.3693 28.0511 10.3693C28.2614 10.3693 28.5028 10.3949 28.7756 10.446C29.0511 10.4943 29.3168 10.5952 29.5724 10.7486C29.831 10.902 30.0455 11.1335 30.2159 11.4432C30.3864 11.7528 30.4716 12.1676 30.4716 12.6875V17H29.4659V16.1136H29.4148C29.3466 16.2557 29.233 16.4077 29.0739 16.5696C28.9148 16.7315 28.7031 16.8693 28.4389 16.983C28.1747 17.0966 27.8523 17.1534 27.4716 17.1534ZM27.625 16.25C28.0227 16.25 28.358 16.1719 28.6307 16.0156C28.9063 15.8594 29.1136 15.6577 29.2528 15.4105C29.3949 15.1634 29.4659 14.9034 29.4659 14.6307V13.7102C29.4233 13.7614 29.3295 13.8082 29.1847 13.8509C29.0426 13.8906 28.8778 13.9261 28.6903 13.9574C28.5057 13.9858 28.3253 14.0114 28.1491 14.0341C27.9759 14.054 27.8352 14.071 27.7273 14.0852C27.4659 14.1193 27.2216 14.1747 26.9943 14.2514C26.7699 14.3253 26.5881 14.4375 26.4489 14.5881C26.3125 14.7358 26.2443 14.9375 26.2443 15.1932C26.2443 15.5426 26.3736 15.8068 26.6321 15.9858C26.8935 16.1619 27.2244 16.25 27.625 16.25ZM35.1538 10.4545V11.3068H31.7617V10.4545H35.1538ZM32.7504 8.88636H33.756V15.125C33.756 15.4091 33.7972 15.6222 33.8796 15.7642C33.9648 15.9034 34.0728 15.9972 34.2035 16.0455C34.337 16.0909 34.4776 16.1136 34.6254 16.1136C34.7362 16.1136 34.8271 16.108 34.8981 16.0966C34.9691 16.0824 35.0259 16.071 35.0685 16.0625L35.2731 16.9659C35.2049 16.9915 35.1097 17.017 34.9876 17.0426C34.8654 17.071 34.7106 17.0852 34.5231 17.0852C34.239 17.0852 33.9606 17.0241 33.6879 16.902C33.418 16.7798 33.1935 16.5938 33.0146 16.3438C32.8384 16.0938 32.7504 15.7784 32.7504 15.3977V8.88636ZM39.3406 17.1364C38.7099 17.1364 38.1658 16.9972 37.7085 16.7188C37.2539 16.4375 36.9031 16.0455 36.6559 15.5426C36.4116 15.0369 36.2894 14.4489 36.2894 13.7784C36.2894 13.108 36.4116 12.517 36.6559 12.0057C36.9031 11.4915 37.2468 11.0909 37.6871 10.804C38.1303 10.5142 38.6474 10.3693 39.2383 10.3693C39.5792 10.3693 39.9158 10.4261 40.2482 10.5398C40.5806 10.6534 40.8832 10.8381 41.1559 11.0938C41.4286 11.3466 41.646 11.6818 41.8079 12.0994C41.9698 12.517 42.0508 13.0312 42.0508 13.642V14.0682H37.0053V13.1989H41.0281C41.0281 12.8295 40.9542 12.5 40.8065 12.2102C40.6616 11.9205 40.4542 11.6918 40.1843 11.5241C39.9173 11.3565 39.6019 11.2727 39.2383 11.2727C38.8377 11.2727 38.4911 11.3722 38.1985 11.571C37.9087 11.767 37.6857 12.0227 37.5295 12.3381C37.3732 12.6534 37.2951 12.9915 37.2951 13.3523V13.9318C37.2951 14.4261 37.3803 14.8452 37.5508 15.1889C37.7241 15.5298 37.9641 15.7898 38.271 15.9688C38.5778 16.1449 38.9343 16.233 39.3406 16.233C39.6048 16.233 39.8434 16.196 40.0565 16.1222C40.2724 16.0455 40.4585 15.9318 40.6147 15.7812C40.771 15.6278 40.8917 15.4375 40.9769 15.2102L41.9485 15.483C41.8462 15.8125 41.6744 16.1023 41.4329 16.3523C41.1914 16.5994 40.8931 16.7926 40.538 16.9318C40.1829 17.0682 39.7837 17.1364 39.3406 17.1364Z" fill="#627A84"/>
<path d="M17.054 36V35.1051L20.4148 31.4261C20.8092 30.9953 21.134 30.6207 21.3892 30.3026C21.6444 29.9811 21.8333 29.6795 21.956 29.3977C22.0819 29.1127 22.1449 28.8144 22.1449 28.5028C22.1449 28.1449 22.0587 27.835 21.8864 27.5732C21.7173 27.3113 21.4853 27.1091 21.1903 26.9666C20.8954 26.8241 20.5639 26.7528 20.196 26.7528C19.8049 26.7528 19.4635 26.834 19.1719 26.9964C18.8835 27.1555 18.6598 27.3793 18.5007 27.6676C18.3449 27.956 18.267 28.294 18.267 28.6818H17.0938C17.0938 28.0852 17.2313 27.5616 17.5064 27.1108C17.7815 26.66 18.156 26.3087 18.63 26.0568C19.1072 25.8049 19.6425 25.679 20.2358 25.679C20.8324 25.679 21.361 25.8049 21.8217 26.0568C22.2824 26.3087 22.6437 26.6484 22.9055 27.076C23.1674 27.5036 23.2983 27.9792 23.2983 28.5028C23.2983 28.8774 23.2304 29.2436 23.0945 29.6016C22.9619 29.9562 22.7299 30.3523 22.3984 30.7898C22.0703 31.224 21.6146 31.7543 21.0312 32.3807L18.7443 34.8267V34.9062H23.4773V36H17.054ZM28.8516 36.1392C28.1025 36.1392 27.4645 35.9354 26.9375 35.5277C26.4105 35.1167 26.0078 34.5218 25.7294 33.7429C25.451 32.9607 25.3118 32.0161 25.3118 30.9091C25.3118 29.8087 25.451 28.8691 25.7294 28.0902C26.0111 27.308 26.4155 26.7114 26.9425 26.3004C27.4728 25.8861 28.1091 25.679 28.8516 25.679C29.594 25.679 30.2287 25.8861 30.7557 26.3004C31.286 26.7114 31.6903 27.308 31.9688 28.0902C32.2505 28.8691 32.3913 29.8087 32.3913 30.9091C32.3913 32.0161 32.2521 32.9607 31.9737 33.7429C31.6953 34.5218 31.2926 35.1167 30.7656 35.5277C30.2386 35.9354 29.6006 36.1392 28.8516 36.1392ZM28.8516 35.0455C29.594 35.0455 30.1707 34.6875 30.5817 33.9716C30.9927 33.2557 31.1982 32.2348 31.1982 30.9091C31.1982 30.0275 31.1037 29.2768 30.9148 28.657C30.7292 28.0372 30.4607 27.5649 30.1094 27.2401C29.7614 26.9152 29.3421 26.7528 28.8516 26.7528C28.1158 26.7528 27.5407 27.1158 27.1264 27.8416C26.7121 28.5642 26.505 29.5866 26.505 30.9091C26.505 31.7907 26.5978 32.5398 26.7834 33.1562C26.969 33.7727 27.2358 34.2417 27.5838 34.5632C27.9351 34.8847 28.3577 35.0455 28.8516 35.0455ZM34.2805 36V35.1051L37.6413 31.4261C38.0357 30.9953 38.3606 30.6207 38.6158 30.3026C38.871 29.9811 39.0599 29.6795 39.1825 29.3977C39.3085 29.1127 39.3714 28.8144 39.3714 28.5028C39.3714 28.1449 39.2853 27.835 39.1129 27.5732C38.9439 27.3113 38.7119 27.1091 38.4169 26.9666C38.1219 26.8241 37.7905 26.7528 37.4226 26.7528C37.0315 26.7528 36.6901 26.834 36.3984 26.9964C36.1101 27.1555 35.8864 27.3793 35.7273 27.6676C35.5715 27.956 35.4936 28.294 35.4936 28.6818H34.3203C34.3203 28.0852 34.4579 27.5616 34.733 27.1108C35.008 26.66 35.3826 26.3087 35.8565 26.0568C36.3338 25.8049 36.8691 25.679 37.4624 25.679C38.0589 25.679 38.5876 25.8049 39.0483 26.0568C39.509 26.3087 39.8703 26.6484 40.1321 27.076C40.3939 27.5036 40.5249 27.9792 40.5249 28.5028C40.5249 28.8774 40.4569 29.2436 40.321 29.6016C40.1884 29.9562 39.9564 30.3523 39.625 30.7898C39.2969 31.224 38.8411 31.7543 38.2578 32.3807L35.9709 34.8267V34.9062H40.7038V36H34.2805ZM46.1974 36.1392C45.5412 36.1392 44.9562 36.0265 44.4425 35.8011C43.9321 35.5758 43.526 35.2625 43.2244 34.8615C42.9261 34.4571 42.7637 33.9882 42.7372 33.4545H43.9901C44.0166 33.7827 44.1293 34.0661 44.3281 34.3047C44.527 34.54 44.7872 34.7223 45.1087 34.8516C45.4302 34.9808 45.7865 35.0455 46.1776 35.0455C46.6151 35.0455 47.0028 34.9692 47.3409 34.8168C47.679 34.6643 47.9441 34.4522 48.1364 34.1804C48.3286 33.9086 48.4247 33.5938 48.4247 33.2358C48.4247 32.8613 48.3319 32.5315 48.1463 32.2464C47.9607 31.9581 47.6889 31.7327 47.331 31.5703C46.973 31.4079 46.5355 31.3267 46.0185 31.3267H45.2031V30.233H46.0185C46.4228 30.233 46.7775 30.16 47.0824 30.0142C47.3906 29.8684 47.6309 29.6629 47.8033 29.3977C47.9789 29.1326 48.0668 28.821 48.0668 28.4631C48.0668 28.1184 47.9905 27.8184 47.8381 27.5632C47.6856 27.308 47.4702 27.1091 47.1918 26.9666C46.9167 26.8241 46.5919 26.7528 46.2173 26.7528C45.866 26.7528 45.5346 26.8175 45.223 26.9467C44.9148 27.0727 44.6629 27.2566 44.4673 27.4986C44.2718 27.7372 44.1657 28.0256 44.1491 28.3636H42.956C42.9759 27.83 43.1366 27.3627 43.4382 26.9616C43.7398 26.5573 44.1342 26.2424 44.6214 26.017C45.112 25.7917 45.6506 25.679 46.2372 25.679C46.867 25.679 47.4072 25.8066 47.858 26.0618C48.3087 26.3137 48.6551 26.6468 48.897 27.0611C49.139 27.4754 49.2599 27.9228 49.2599 28.4034C49.2599 28.9768 49.1091 29.4657 48.8075 29.87C48.5092 30.2744 48.1032 30.5545 47.5895 30.7102V30.7898C48.2325 30.8958 48.7346 31.1693 49.0959 31.6101C49.4571 32.0476 49.6378 32.5895 49.6378 33.2358C49.6378 33.7893 49.487 34.2865 49.1854 34.7273C48.8871 35.1648 48.4794 35.5095 47.9624 35.7614C47.4453 36.0133 46.857 36.1392 46.1974 36.1392ZM56.0661 30.3622V31.456H51.6115V30.3622H56.0661ZM61.4316 36.1392C60.6826 36.1392 60.0446 35.9354 59.5176 35.5277C58.9906 35.1167 58.5879 34.5218 58.3095 33.7429C58.0311 32.9607 57.8919 32.0161 57.8919 30.9091C57.8919 29.8087 58.0311 28.8691 58.3095 28.0902C58.5912 27.308 58.9956 26.7114 59.5225 26.3004C60.0529 25.8861 60.6892 25.679 61.4316 25.679C62.1741 25.679 62.8088 25.8861 63.3358 26.3004C63.8661 26.7114 64.2704 27.308 64.5488 28.0902C64.8306 28.8691 64.9714 29.8087 64.9714 30.9091C64.9714 32.0161 64.8322 32.9607 64.5538 33.7429C64.2754 34.5218 63.8727 35.1167 63.3457 35.5277C62.8187 35.9354 62.1807 36.1392 61.4316 36.1392ZM61.4316 35.0455C62.1741 35.0455 62.7508 34.6875 63.1618 33.9716C63.5727 33.2557 63.7782 32.2348 63.7782 30.9091C63.7782 30.0275 63.6838 29.2768 63.4949 28.657C63.3092 28.0372 63.0408 27.5649 62.6895 27.2401C62.3414 26.9152 61.9222 26.7528 61.4316 26.7528C60.6958 26.7528 60.1208 27.1158 59.7065 27.8416C59.2922 28.5642 59.085 29.5866 59.085 30.9091C59.085 31.7907 59.1779 32.5398 59.3635 33.1562C59.5491 33.7727 59.8159 34.2417 60.1639 34.5632C60.5152 34.8847 60.9378 35.0455 61.4316 35.0455ZM70.301 36.1392C69.6447 36.1392 69.0597 36.0265 68.546 35.8011C68.0356 35.5758 67.6296 35.2625 67.3279 34.8615C67.0297 34.4571 66.8672 33.9882 66.8407 33.4545H68.0936C68.1201 33.7827 68.2328 34.0661 68.4316 34.3047C68.6305 34.54 68.8907 34.7223 69.2122 34.8516C69.5337 34.9808 69.89 35.0455 70.2811 35.0455C70.7186 35.0455 71.1064 34.9692 71.4444 34.8168C71.7825 34.6643 72.0476 34.4522 72.2399 34.1804C72.4321 33.9086 72.5282 33.5938 72.5282 33.2358C72.5282 32.8613 72.4354 32.5315 72.2498 32.2464C72.0642 31.9581 71.7924 31.7327 71.4345 31.5703C71.0765 31.4079 70.639 31.3267 70.122 31.3267H69.3066V30.233H70.122C70.5263 30.233 70.881 30.16 71.1859 30.0142C71.4941 29.8684 71.7344 29.6629 71.9068 29.3977C72.0824 29.1326 72.1703 28.821 72.1703 28.4631C72.1703 28.1184 72.094 27.8184 71.9416 27.5632C71.7891 27.308 71.5737 27.1091 71.2953 26.9666C71.0202 26.8241 70.6954 26.7528 70.3208 26.7528C69.9695 26.7528 69.6381 26.8175 69.3265 26.9467C69.0183 27.0727 68.7664 27.2566 68.5708 27.4986C68.3753 27.7372 68.2692 28.0256 68.2527 28.3636H67.0595C67.0794 27.83 67.2401 27.3627 67.5417 26.9616C67.8433 26.5573 68.2377 26.2424 68.725 26.017C69.2155 25.7917 69.7541 25.679 70.3407 25.679C70.9705 25.679 71.5107 25.8066 71.9615 26.0618C72.4122 26.3137 72.7586 26.6468 73.0005 27.0611C73.2425 27.4754 73.3635 27.9228 73.3635 28.4034C73.3635 28.9768 73.2127 29.4657 72.911 29.87C72.6127 30.2744 72.2067 30.5545 71.693 30.7102V30.7898C72.336 30.8958 72.8381 31.1693 73.1994 31.6101C73.5607 32.0476 73.7413 32.5895 73.7413 33.2358C73.7413 33.7893 73.5905 34.2865 73.2889 34.7273C72.9906 35.1648 72.5829 35.5095 72.0659 35.7614C71.5488 36.0133 70.9605 36.1392 70.301 36.1392ZM80.1696 30.3622V31.456H75.715V30.3622H80.1696ZM85.7937 25.8182V36H84.5607V27.1108H84.5011L82.0153 28.7614V27.5085L84.5607 25.8182H85.7937ZM88.4833 33.9119V32.8977L92.9577 25.8182H93.6935V27.3892H93.1964L89.8157 32.7386V32.8182H95.8413V33.9119H88.4833ZM93.2759 36V33.6037V33.1314V25.8182H94.4492V36H93.2759Z" fill="#233D48"/>
<path d="M251 17.5C251 16.9477 251.448 16.5 252 16.5C252.552 16.5 253 16.9477 253 17.5V18.5H255C256.105 18.5 257 19.3954 257 20.5V32.5C257 33.6046 256.105 34.5 255 34.5H241C239.895 34.5 239 33.6046 239 32.5V20.5C239 19.3954 239.895 18.5 241 18.5H243V17.5C243 16.9477 243.448 16.5 244 16.5C244.552 16.5 245 16.9477 245 17.5V18.5H251V17.5ZM241 20.5V22.5H255V20.5H241ZM255 24.5H241V32.5H255V24.5Z" fill="#233D48"/>
</svg>
