<svg width="224" height="117" viewBox="0 0 224 117" fill="none" xmlns="http://www.w3.org/2000/svg">
<path d="M19 33.5H205C209.142 33.5 212.5 36.8579 212.5 41V75C212.5 79.1421 209.142 82.5 205 82.5H19C14.8579 82.5 11.5 79.1421 11.5 75V41C11.5 36.8579 14.8579 33.5 19 33.5Z" fill="white"/>
<path d="M19 33.5H205C209.142 33.5 212.5 36.8579 212.5 41V75C212.5 79.1421 209.142 82.5 205 82.5H19C14.8579 82.5 11.5 79.1421 11.5 75V41C11.5 36.8579 14.8579 33.5 19 33.5Z" stroke="#DADFE2" stroke-linecap="round"/>
<path d="M30.75 50H28.0568V41.2727H30.8693C31.7159 41.2727 32.4403 41.4474 33.0426 41.7969C33.6449 42.1435 34.1065 42.642 34.4276 43.2926C34.7486 43.9403 34.9091 44.7159 34.9091 45.6193C34.9091 46.5284 34.7472 47.3111 34.4233 47.9673C34.0994 48.6207 33.6278 49.1236 33.0085 49.4759C32.3892 49.8253 31.6364 50 30.75 50ZM29.1136 49.0625H30.6818C31.4034 49.0625 32.0014 48.9233 32.4759 48.6449C32.9503 48.3665 33.304 47.9702 33.5369 47.456C33.7699 46.9418 33.8864 46.3295 33.8864 45.6193C33.8864 44.9148 33.7713 44.3082 33.5412 43.7997C33.3111 43.2884 32.9673 42.8963 32.5099 42.6236C32.0526 42.348 31.483 42.2102 30.8011 42.2102H29.1136V49.0625ZM38.4716 50.1534C38.0568 50.1534 37.6804 50.0753 37.3423 49.919C37.0043 49.7599 36.7358 49.5312 36.5369 49.233C36.3381 48.9318 36.2386 48.5682 36.2386 48.142C36.2386 47.767 36.3125 47.4631 36.4602 47.2301C36.608 46.9943 36.8054 46.8097 37.0526 46.6761C37.2997 46.5426 37.5724 46.4432 37.8707 46.3778C38.1719 46.3097 38.4744 46.2557 38.7784 46.2159C39.1761 46.1648 39.4986 46.1264 39.7457 46.1009C39.9957 46.0724 40.1776 46.0256 40.2912 45.9602C40.4077 45.8949 40.4659 45.7812 40.4659 45.6193V45.5852C40.4659 45.1648 40.3509 44.8381 40.1207 44.6051C39.8935 44.3722 39.5483 44.2557 39.0852 44.2557C38.6051 44.2557 38.2287 44.3608 37.956 44.571C37.6832 44.7812 37.4915 45.0057 37.3807 45.2443L36.4261 44.9034C36.5966 44.5057 36.8239 44.196 37.108 43.9744C37.3949 43.75 37.7074 43.5937 38.0455 43.5057C38.3864 43.4148 38.7216 43.3693 39.0511 43.3693C39.2614 43.3693 39.5028 43.3949 39.7756 43.446C40.0511 43.4943 40.3168 43.5952 40.5724 43.7486C40.831 43.902 41.0455 44.1335 41.2159 44.4432C41.3864 44.7528 41.4716 45.1676 41.4716 45.6875V50H40.4659V49.1136H40.4148C40.3466 49.2557 40.233 49.4077 40.0739 49.5696C39.9148 49.7315 39.7031 49.8693 39.4389 49.983C39.1747 50.0966 38.8523 50.1534 38.4716 50.1534ZM38.625 49.25C39.0227 49.25 39.358 49.1719 39.6307 49.0156C39.9063 48.8594 40.1136 48.6577 40.2528 48.4105C40.3949 48.1634 40.4659 47.9034 40.4659 47.6307V46.7102C40.4233 46.7614 40.3295 46.8082 40.1847 46.8509C40.0426 46.8906 39.8778 46.9261 39.6903 46.9574C39.5057 46.9858 39.3253 47.0114 39.1491 47.0341C38.9759 47.054 38.8352 47.071 38.7273 47.0852C38.4659 47.1193 38.2216 47.1747 37.9943 47.2514C37.7699 47.3253 37.5881 47.4375 37.4489 47.5881C37.3125 47.7358 37.2443 47.9375 37.2443 48.1932C37.2443 48.5426 37.3736 48.8068 37.6321 48.9858C37.8935 49.1619 38.2244 49.25 38.625 49.25ZM46.1538 43.4545V44.3068H42.7617V43.4545H46.1538ZM43.7504 41.8864H44.756V48.125C44.756 48.4091 44.7972 48.6222 44.8796 48.7642C44.9648 48.9034 45.0728 48.9972 45.2035 49.0455C45.337 49.0909 45.4776 49.1136 45.6254 49.1136C45.7362 49.1136 45.8271 49.108 45.8981 49.0966C45.9691 49.0824 46.0259 49.071 46.0685 49.0625L46.2731 49.9659C46.2049 49.9915 46.1097 50.017 45.9876 50.0426C45.8654 50.071 45.7106 50.0852 45.5231 50.0852C45.239 50.0852 44.9606 50.0241 44.6879 49.902C44.418 49.7798 44.1935 49.5938 44.0146 49.3438C43.8384 49.0938 43.7504 48.7784 43.7504 48.3977V41.8864ZM50.3406 50.1364C49.7099 50.1364 49.1658 49.9972 48.7085 49.7188C48.2539 49.4375 47.9031 49.0455 47.6559 48.5426C47.4116 48.0369 47.2894 47.4489 47.2894 46.7784C47.2894 46.108 47.4116 45.517 47.6559 45.0057C47.9031 44.4915 48.2468 44.0909 48.6871 43.804C49.1303 43.5142 49.6474 43.3693 50.2383 43.3693C50.5792 43.3693 50.9158 43.4261 51.2482 43.5398C51.5806 43.6534 51.8832 43.8381 52.1559 44.0938C52.4286 44.3466 52.646 44.6818 52.8079 45.0994C52.9698 45.517 53.0508 46.0312 53.0508 46.642V47.0682H48.0053V46.1989H52.0281C52.0281 45.8295 51.9542 45.5 51.8065 45.2102C51.6616 44.9205 51.4542 44.6918 51.1843 44.5241C50.9173 44.3565 50.6019 44.2727 50.2383 44.2727C49.8377 44.2727 49.4911 44.3722 49.1985 44.571C48.9087 44.767 48.6857 45.0227 48.5295 45.3381C48.3732 45.6534 48.2951 45.9915 48.2951 46.3523V46.9318C48.2951 47.4261 48.3803 47.8452 48.5508 48.1889C48.7241 48.5298 48.9641 48.7898 49.271 48.9688C49.5778 49.1449 49.9343 49.233 50.3406 49.233C50.6048 49.233 50.8434 49.196 51.0565 49.1222C51.2724 49.0455 51.4585 48.9318 51.6147 48.7812C51.771 48.6278 51.8917 48.4375 51.9769 48.2102L52.9485 48.483C52.8462 48.8125 52.6744 49.1023 52.4329 49.3523C52.1914 49.5994 51.8931 49.7926 51.538 49.9318C51.1829 50.0682 50.7837 50.1364 50.3406 50.1364Z" fill="#627A84"/>
<path d="M28.054 69V68.1051L31.4148 64.4261C31.8092 63.9953 32.134 63.6207 32.3892 63.3026C32.6444 62.9811 32.8333 62.6795 32.956 62.3977C33.0819 62.1127 33.1449 61.8144 33.1449 61.5028C33.1449 61.1449 33.0587 60.835 32.8864 60.5732C32.7173 60.3113 32.4853 60.1091 32.1903 59.9666C31.8954 59.8241 31.5639 59.7528 31.196 59.7528C30.8049 59.7528 30.4635 59.834 30.1719 59.9964C29.8835 60.1555 29.6598 60.3793 29.5007 60.6676C29.3449 60.956 29.267 61.294 29.267 61.6818H28.0938C28.0938 61.0852 28.2313 60.5616 28.5064 60.1108C28.7815 59.66 29.156 59.3087 29.63 59.0568C30.1072 58.8049 30.6425 58.679 31.2358 58.679C31.8324 58.679 32.361 58.8049 32.8217 59.0568C33.2824 59.3087 33.6437 59.6484 33.9055 60.076C34.1674 60.5036 34.2983 60.9792 34.2983 61.5028C34.2983 61.8774 34.2304 62.2436 34.0945 62.6016C33.9619 62.9562 33.7299 63.3523 33.3984 63.7898C33.0703 64.224 32.6146 64.7543 32.0312 65.3807L29.7443 67.8267V67.9062H34.4773V69H28.054ZM39.8516 69.1392C39.1025 69.1392 38.4645 68.9354 37.9375 68.5277C37.4105 68.1167 37.0078 67.5218 36.7294 66.7429C36.451 65.9607 36.3118 65.0161 36.3118 63.9091C36.3118 62.8087 36.451 61.8691 36.7294 61.0902C37.0111 60.308 37.4155 59.7114 37.9425 59.3004C38.4728 58.8861 39.1091 58.679 39.8516 58.679C40.594 58.679 41.2287 58.8861 41.7557 59.3004C42.286 59.7114 42.6903 60.308 42.9688 61.0902C43.2505 61.8691 43.3913 62.8087 43.3913 63.9091C43.3913 65.0161 43.2521 65.9607 42.9737 66.7429C42.6953 67.5218 42.2926 68.1167 41.7656 68.5277C41.2386 68.9354 40.6006 69.1392 39.8516 69.1392ZM39.8516 68.0455C40.594 68.0455 41.1707 67.6875 41.5817 66.9716C41.9927 66.2557 42.1982 65.2348 42.1982 63.9091C42.1982 63.0275 42.1037 62.2768 41.9148 61.657C41.7292 61.0372 41.4607 60.5649 41.1094 60.2401C40.7614 59.9152 40.3421 59.7528 39.8516 59.7528C39.1158 59.7528 38.5407 60.1158 38.1264 60.8416C37.7121 61.5642 37.505 62.5866 37.505 63.9091C37.505 64.7907 37.5978 65.5398 37.7834 66.1562C37.969 66.7727 38.2358 67.2417 38.5838 67.5632C38.9351 67.8847 39.3577 68.0455 39.8516 68.0455ZM45.2805 69V68.1051L48.6413 64.4261C49.0357 63.9953 49.3606 63.6207 49.6158 63.3026C49.871 62.9811 50.0599 62.6795 50.1825 62.3977C50.3085 62.1127 50.3714 61.8144 50.3714 61.5028C50.3714 61.1449 50.2853 60.835 50.1129 60.5732C49.9439 60.3113 49.7119 60.1091 49.4169 59.9666C49.1219 59.8241 48.7905 59.7528 48.4226 59.7528C48.0315 59.7528 47.6901 59.834 47.3984 59.9964C47.1101 60.1555 46.8864 60.3793 46.7273 60.6676C46.5715 60.956 46.4936 61.294 46.4936 61.6818H45.3203C45.3203 61.0852 45.4579 60.5616 45.733 60.1108C46.008 59.66 46.3826 59.3087 46.8565 59.0568C47.3338 58.8049 47.8691 58.679 48.4624 58.679C49.0589 58.679 49.5876 58.8049 50.0483 59.0568C50.509 59.3087 50.8703 59.6484 51.1321 60.076C51.3939 60.5036 51.5249 60.9792 51.5249 61.5028C51.5249 61.8774 51.4569 62.2436 51.321 62.6016C51.1884 62.9562 50.9564 63.3523 50.625 63.7898C50.2969 64.224 49.8411 64.7543 49.2578 65.3807L46.9709 67.8267V67.9062H51.7038V69H45.2805ZM57.1974 69.1392C56.5412 69.1392 55.9562 69.0265 55.4425 68.8011C54.9321 68.5758 54.526 68.2625 54.2244 67.8615C53.9261 67.4571 53.7637 66.9882 53.7372 66.4545H54.9901C55.0166 66.7827 55.1293 67.0661 55.3281 67.3047C55.527 67.54 55.7872 67.7223 56.1087 67.8516C56.4302 67.9808 56.7865 68.0455 57.1776 68.0455C57.6151 68.0455 58.0028 67.9692 58.3409 67.8168C58.679 67.6643 58.9441 67.4522 59.1364 67.1804C59.3286 66.9086 59.4247 66.5938 59.4247 66.2358C59.4247 65.8613 59.3319 65.5315 59.1463 65.2464C58.9607 64.9581 58.6889 64.7327 58.331 64.5703C57.973 64.4079 57.5355 64.3267 57.0185 64.3267H56.2031V63.233H57.0185C57.4228 63.233 57.7775 63.16 58.0824 63.0142C58.3906 62.8684 58.6309 62.6629 58.8033 62.3977C58.9789 62.1326 59.0668 61.821 59.0668 61.4631C59.0668 61.1184 58.9905 60.8184 58.8381 60.5632C58.6856 60.308 58.4702 60.1091 58.1918 59.9666C57.9167 59.8241 57.5919 59.7528 57.2173 59.7528C56.866 59.7528 56.5346 59.8175 56.223 59.9467C55.9148 60.0727 55.6629 60.2566 55.4673 60.4986C55.2718 60.7372 55.1657 61.0256 55.1491 61.3636H53.956C53.9759 60.83 54.1366 60.3627 54.4382 59.9616C54.7398 59.5573 55.1342 59.2424 55.6214 59.017C56.112 58.7917 56.6506 58.679 57.2372 58.679C57.867 58.679 58.4072 58.8066 58.858 59.0618C59.3087 59.3137 59.6551 59.6468 59.897 60.0611C60.139 60.4754 60.2599 60.9228 60.2599 61.4034C60.2599 61.9768 60.1091 62.4657 59.8075 62.87C59.5092 63.2744 59.1032 63.5545 58.5895 63.7102V63.7898C59.2325 63.8958 59.7346 64.1693 60.0959 64.6101C60.4571 65.0476 60.6378 65.5895 60.6378 66.2358C60.6378 66.7893 60.487 67.2865 60.1854 67.7273C59.8871 68.1648 59.4794 68.5095 58.9624 68.7614C58.4453 69.0133 57.857 69.1392 57.1974 69.1392ZM67.0661 63.3622V64.456H62.6115V63.3622H67.0661ZM72.4316 69.1392C71.6826 69.1392 71.0446 68.9354 70.5176 68.5277C69.9906 68.1167 69.5879 67.5218 69.3095 66.7429C69.0311 65.9607 68.8919 65.0161 68.8919 63.9091C68.8919 62.8087 69.0311 61.8691 69.3095 61.0902C69.5912 60.308 69.9956 59.7114 70.5225 59.3004C71.0529 58.8861 71.6892 58.679 72.4316 58.679C73.1741 58.679 73.8088 58.8861 74.3358 59.3004C74.8661 59.7114 75.2704 60.308 75.5488 61.0902C75.8306 61.8691 75.9714 62.8087 75.9714 63.9091C75.9714 65.0161 75.8322 65.9607 75.5538 66.7429C75.2754 67.5218 74.8727 68.1167 74.3457 68.5277C73.8187 68.9354 73.1807 69.1392 72.4316 69.1392ZM72.4316 68.0455C73.1741 68.0455 73.7508 67.6875 74.1618 66.9716C74.5727 66.2557 74.7782 65.2348 74.7782 63.9091C74.7782 63.0275 74.6838 62.2768 74.4949 61.657C74.3092 61.0372 74.0408 60.5649 73.6895 60.2401C73.3414 59.9152 72.9222 59.7528 72.4316 59.7528C71.6958 59.7528 71.1208 60.1158 70.7065 60.8416C70.2922 61.5642 70.085 62.5866 70.085 63.9091C70.085 64.7907 70.1779 65.5398 70.3635 66.1562C70.5491 66.7727 70.8159 67.2417 71.1639 67.5632C71.5152 67.8847 71.9378 68.0455 72.4316 68.0455ZM81.301 69.1392C80.6447 69.1392 80.0597 69.0265 79.546 68.8011C79.0356 68.5758 78.6296 68.2625 78.3279 67.8615C78.0297 67.4571 77.8672 66.9882 77.8407 66.4545H79.0936C79.1201 66.7827 79.2328 67.0661 79.4316 67.3047C79.6305 67.54 79.8907 67.7223 80.2122 67.8516C80.5337 67.9808 80.89 68.0455 81.2811 68.0455C81.7186 68.0455 82.1064 67.9692 82.4444 67.8168C82.7825 67.6643 83.0476 67.4522 83.2399 67.1804C83.4321 66.9086 83.5282 66.5938 83.5282 66.2358C83.5282 65.8613 83.4354 65.5315 83.2498 65.2464C83.0642 64.9581 82.7924 64.7327 82.4345 64.5703C82.0765 64.4079 81.639 64.3267 81.122 64.3267H80.3066V63.233H81.122C81.5263 63.233 81.881 63.16 82.1859 63.0142C82.4941 62.8684 82.7344 62.6629 82.9068 62.3977C83.0824 62.1326 83.1703 61.821 83.1703 61.4631C83.1703 61.1184 83.094 60.8184 82.9416 60.5632C82.7891 60.308 82.5737 60.1091 82.2953 59.9666C82.0202 59.8241 81.6954 59.7528 81.3208 59.7528C80.9695 59.7528 80.6381 59.8175 80.3265 59.9467C80.0183 60.0727 79.7664 60.2566 79.5708 60.4986C79.3753 60.7372 79.2692 61.0256 79.2527 61.3636H78.0595C78.0794 60.83 78.2401 60.3627 78.5417 59.9616C78.8433 59.5573 79.2377 59.2424 79.725 59.017C80.2155 58.7917 80.7541 58.679 81.3407 58.679C81.9705 58.679 82.5107 58.8066 82.9615 59.0618C83.4122 59.3137 83.7586 59.6468 84.0005 60.0611C84.2425 60.4754 84.3635 60.9228 84.3635 61.4034C84.3635 61.9768 84.2127 62.4657 83.911 62.87C83.6127 63.2744 83.2067 63.5545 82.693 63.7102V63.7898C83.336 63.8958 83.8381 64.1693 84.1994 64.6101C84.5607 65.0476 84.7413 65.5895 84.7413 66.2358C84.7413 66.7893 84.5905 67.2865 84.2889 67.7273C83.9906 68.1648 83.5829 68.5095 83.0659 68.7614C82.5488 69.0133 81.9605 69.1392 81.301 69.1392ZM91.1696 63.3622V64.456H86.715V63.3622H91.1696ZM96.7937 58.8182V69H95.5607V60.1108H95.5011L93.0153 61.7614V60.5085L95.5607 58.8182H96.7937ZM99.4833 66.9119V65.8977L103.958 58.8182H104.694V60.3892H104.196L100.816 65.7386V65.8182H106.841V66.9119H99.4833ZM104.276 69V66.6037V66.1314V58.8182H105.449V69H104.276Z" fill="#233D48"/>
<path d="M190 50.5C190 49.9477 190.448 49.5 191 49.5C191.552 49.5 192 49.9477 192 50.5V51.5H194C195.105 51.5 196 52.3954 196 53.5V65.5C196 66.6046 195.105 67.5 194 67.5H180C178.895 67.5 178 66.6046 178 65.5V53.5C178 52.3954 178.895 51.5 180 51.5H182V50.5C182 49.9477 182.448 49.5 183 49.5C183.552 49.5 184 49.9477 184 50.5V51.5H190V50.5ZM180 53.5V55.5H194V53.5H180ZM194 57.5H180V65.5H194V57.5Z" fill="#233D48"/>
</svg>
