<svg width="224" height="117" viewBox="0 0 224 117" fill="none" xmlns="http://www.w3.org/2000/svg">
<g clip-path="url(#clip0_2571_35398)">
<path d="M8 35C8 30.5817 11.5817 27 16 27H64C68.4183 27 72 30.5817 72 35V83C72 87.4183 68.4183 91 64 91H16C11.5817 91 8 87.4183 8 83V35Z" fill="#F1F0E9"/>
<path d="M80 35C80 30.5817 83.5817 27 88 27H136C140.418 27 144 30.5817 144 35V83C144 87.4183 140.418 91 136 91H88C83.5817 91 80 87.4183 80 83V35Z" fill="#DFDDD2"/>
<g filter="url(#filter0_dd_2571_35398)">
<path d="M152 35C152 30.5817 155.582 27 160 27H208C212.418 27 216 30.5817 216 35V83C216 87.4183 212.418 91 208 91H160C155.582 91 152 87.4183 152 83V35Z" fill="#DFDDD2"/>
</g>
<path d="M101.454 89.5455L101 92L102.909 93.9091L108.727 105.545L120.363 106L121.818 102.645L123.272 98.2728L123.727 88.5455L121.818 86.6364L118.909 85.1819L114.545 83.7273L111.636 83.2728L110.182 76.4546H107.272L106.818 92L103.909 89.091L101.454 89.5455Z" fill="white"/>
<path d="M105.818 76.4545H107.273V92.4545H105.818V91H104.364V89.5455H105.818V76.4545ZM123.273 88.0909V98.2727H124.727V88.0909H123.273ZM100 88.0909V92.4545H101.455V89.5455H104.364V88.0909H100ZM104.364 96.8182V93.9091H102.909V96.8182H104.364ZM105.818 99.7273V96.8182H104.364V99.7273H105.818ZM107.273 102.636V107H121.818V102.645H120.364V105.545H108.727V102.636H107.273V99.7273H105.818V102.636H107.273ZM121.818 102.636H123.273V98.2727H121.818V102.636ZM102.909 93.9091V92.4545H101.455V93.9091H102.909ZM121.818 86.6364V88.0909H123.273V86.6364H121.818ZM118.909 85.1818V91H120.364V86.6364H121.818V85.1818H118.909ZM114.545 83.7273V89.5455H116V85.1818H118.909V83.7273H114.545ZM111.636 82.2727V76.4545H110.182V89.5455H111.636V83.7273H114.545V82.2727H111.636ZM107.273 75V76.4545H110.182V75H107.273Z" fill="black"/>
</g>
<defs>
<filter id="filter0_dd_2571_35398" x="148" y="23" width="72" height="72" filterUnits="userSpaceOnUse" color-interpolation-filters="sRGB">
<feFlood flood-opacity="0" result="BackgroundImageFix"/>
<feColorMatrix in="SourceAlpha" type="matrix" values="0 0 0 0 0 0 0 0 0 0 0 0 0 0 0 0 0 0 127 0" result="hardAlpha"/>
<feMorphology radius="4" operator="dilate" in="SourceAlpha" result="effect1_dropShadow_2571_35398"/>
<feOffset/>
<feColorMatrix type="matrix" values="0 0 0 0 0.5184 0 0 0 0 0.59064 0 0 0 0 0.6216 0 0 0 1 0"/>
<feBlend mode="normal" in2="BackgroundImageFix" result="effect1_dropShadow_2571_35398"/>
<feColorMatrix in="SourceAlpha" type="matrix" values="0 0 0 0 0 0 0 0 0 0 0 0 0 0 0 0 0 0 127 0" result="hardAlpha"/>
<feMorphology radius="2" operator="dilate" in="SourceAlpha" result="effect2_dropShadow_2571_35398"/>
<feOffset/>
<feColorMatrix type="matrix" values="0 0 0 0 1 0 0 0 0 1 0 0 0 0 1 0 0 0 1 0"/>
<feBlend mode="normal" in2="effect1_dropShadow_2571_35398" result="effect2_dropShadow_2571_35398"/>
<feBlend mode="normal" in="SourceGraphic" in2="effect2_dropShadow_2571_35398" result="shape"/>
</filter>
<clipPath id="clip0_2571_35398">
<path d="M0 8C0 3.58172 3.58172 0 8 0H216C220.418 0 224 3.58172 224 8V109C224 113.418 220.418 117 216 117H8C3.58172 117 0 113.418 0 109V8Z" fill="white"/>
</clipPath>
</defs>
</svg>
