<svg width="224" height="117" viewBox="0 0 224 117" fill="none" xmlns="http://www.w3.org/2000/svg">
<path d="M60 31.5313C60 27.3719 63.3719 24 67.5313 24H157.469C161.628 24 165 27.3719 165 31.5313V84.4687C165 88.6281 161.628 92 157.469 92H67.5314C63.3719 92 60 88.6281 60 84.4687V31.5313Z" fill="white"/>
<path d="M90.2063 67.5V49.2799H92.4127V65.5428H100.882V67.5H90.2063ZM104.014 67.5V53.8349H106.113V67.5H104.014ZM105.081 51.5574C104.672 51.5574 104.319 51.418 104.023 51.1393C103.732 50.8605 103.587 50.5254 103.587 50.134C103.587 49.7425 103.732 49.4074 104.023 49.1287C104.319 48.8499 104.672 48.7105 105.081 48.7105C105.491 48.7105 105.841 48.8499 106.131 49.1287C106.428 49.4074 106.576 49.7425 106.576 50.134C106.576 50.5254 106.428 50.8605 106.131 51.1393C105.841 51.418 105.491 51.5574 105.081 51.5574ZM112.058 59.2796V67.5H109.959V53.8349H111.987V55.9701H112.165C112.485 55.2762 112.972 54.7187 113.624 54.2975C114.277 53.8705 115.119 53.657 116.151 53.657C117.076 53.657 117.886 53.8468 118.58 54.2264C119.274 54.6 119.813 55.1694 120.199 55.9345C120.584 56.6937 120.777 57.6545 120.777 58.817V67.5H118.677V58.9593C118.677 57.8858 118.399 57.0495 117.841 56.4505C117.284 55.8455 116.519 55.5431 115.546 55.5431C114.876 55.5431 114.277 55.6884 113.749 55.979C113.227 56.2696 112.815 56.6937 112.512 57.2512C112.21 57.8087 112.058 58.4848 112.058 59.2796ZM126.571 62.5179L126.535 59.9202H126.962L132.941 53.8349H135.539L129.169 60.276H128.991L126.571 62.5179ZM124.614 67.5V49.2799H126.713V67.5H124.614ZM133.297 67.5L127.959 60.7386L129.453 59.2796L135.966 67.5H133.297Z" fill="#388523"/>
<path d="M88 72.4821H136.322V74.1902H88V72.4821Z" fill="#388523"/>
</svg>
