<svg width="274" height="216" viewBox="0 0 274 216" fill="none" xmlns="http://www.w3.org/2000/svg">
<g clip-path="url(#clip0_2_5124)">
<path fill-rule="evenodd" clip-rule="evenodd" d="M22 18C20.8954 18 20 18.8954 20 20V36C20 37.1046 20.8954 38 22 38H34C35.1046 38 36 37.1046 36 36V23.4142C36 22.8838 35.7893 22.3751 35.4142 22L32 18.5858C31.6249 18.2107 31.1162 18 30.5858 18H22ZM22 36V20H30.5858L34 23.4142V36H22ZM29.2932 25.707C28.6262 25.04 28.0032 25 27.9772 25C27.4492 25 27.0002 25.45 27.0002 26C27.0002 26.646 27.1282 26.752 28.2432 27.03C29.2742 27.288 31.0002 27.72 31.0002 30C30.998 30.6181 30.8045 31.2204 30.4465 31.7242C30.0884 32.228 29.5832 32.6087 29.0002 32.814V32.998C29.0002 33.2632 28.8948 33.5176 28.7073 33.7051C28.5198 33.8926 28.2654 33.998 28.0002 33.998C27.735 33.998 27.4806 33.8926 27.2931 33.7051C27.1056 33.5176 27.0002 33.2632 27.0002 32.998V32.798C26.3558 32.569 25.772 32.1963 25.2932 31.708C25.1056 31.5205 25.0001 31.2661 25 31.0009C24.9999 30.7356 25.1052 30.4811 25.2927 30.2935C25.4802 30.1059 25.7346 30.0004 25.9998 30.0003C26.2651 30.0002 26.5196 30.1055 26.7072 30.293C27.3742 30.96 27.9982 31 28.0242 31C28.5522 31 29.0002 30.552 29.0002 30C29.0002 29.354 28.8732 29.25 27.7582 28.97C26.7272 28.713 25.0002 28.28 25.0002 26C25.0022 25.3816 25.1955 24.779 25.5536 24.2748C25.9116 23.7706 26.417 23.3896 27.0002 23.184V23C27.0002 22.7348 27.1056 22.4804 27.2931 22.2929C27.4806 22.1054 27.735 22 28.0002 22C28.2654 22 28.5198 22.1054 28.7073 22.2929C28.8948 22.4804 29.0002 22.7348 29.0002 23V23.2C29.6451 23.4294 30.229 23.8032 30.7072 24.293C30.8894 24.4816 30.9902 24.7342 30.9879 24.9964C30.9856 25.2586 30.8804 25.5094 30.695 25.6948C30.5096 25.8802 30.2588 25.9854 29.9966 25.9877C29.7344 25.99 29.4818 25.8892 29.2932 25.707Z" fill="#225C8C"/>
<path d="M59.0376 19.8182V30H56.8849V19.8182H59.0376ZM62.8869 25.5852V30H60.769V22.3636H62.7875V23.7109H62.877C63.046 23.2668 63.3294 22.9155 63.7271 22.657C64.1248 22.3951 64.6071 22.2642 65.1738 22.2642C65.7041 22.2642 66.1665 22.3802 66.5609 22.6122C66.9553 22.8442 67.2619 23.1757 67.4806 23.6065C67.6994 24.0341 67.8088 24.5445 67.8088 25.1378V30H65.6909V25.5156C65.6942 25.0483 65.5749 24.6837 65.3329 24.4219C65.091 24.1567 64.7579 24.0241 64.3336 24.0241C64.0486 24.0241 63.7967 24.0855 63.5779 24.2081C63.3625 24.3307 63.1935 24.5097 63.0708 24.745C62.9515 24.977 62.8902 25.2571 62.8869 25.5852ZM76.3239 22.3636L73.6541 30H71.2678L68.598 22.3636H70.8352L72.4212 27.8274H72.5007L74.0817 22.3636H76.3239ZM80.6119 30.1491C79.8396 30.1491 79.1718 29.9851 78.6083 29.657C78.0482 29.3255 77.6156 28.8648 77.3107 28.2749C77.0058 27.6816 76.8533 26.9938 76.8533 26.2116C76.8533 25.4228 77.0058 24.7334 77.3107 24.1435C77.6156 23.5502 78.0482 23.0895 78.6083 22.7614C79.1718 22.4299 79.8396 22.2642 80.6119 22.2642C81.3841 22.2642 82.0503 22.4299 82.6104 22.7614C83.1739 23.0895 83.6081 23.5502 83.913 24.1435C84.2179 24.7334 84.3704 25.4228 84.3704 26.2116C84.3704 26.9938 84.2179 27.6816 83.913 28.2749C83.6081 28.8648 83.1739 29.3255 82.6104 29.657C82.0503 29.9851 81.3841 30.1491 80.6119 30.1491ZM80.6218 28.5085C80.9731 28.5085 81.2665 28.4091 81.5018 28.2102C81.7371 28.008 81.9144 27.733 82.0337 27.3849C82.1564 27.0369 82.2177 26.6409 82.2177 26.1967C82.2177 25.7526 82.1564 25.3565 82.0337 25.0085C81.9144 24.6605 81.7371 24.3854 81.5018 24.1832C81.2665 23.9811 80.9731 23.88 80.6218 23.88C80.2672 23.88 79.9689 23.9811 79.7269 24.1832C79.4883 24.3854 79.3076 24.6605 79.185 25.0085C79.0657 25.3565 79.006 25.7526 79.006 26.1967C79.006 26.6409 79.0657 27.0369 79.185 27.3849C79.3076 27.733 79.4883 28.008 79.7269 28.2102C79.9689 28.4091 80.2672 28.5085 80.6218 28.5085ZM85.7475 30V22.3636H87.8654V30H85.7475ZM86.8114 21.3793C86.4966 21.3793 86.2264 21.2749 86.0011 21.0661C85.779 20.8539 85.668 20.6004 85.668 20.3054C85.668 20.0137 85.779 19.7635 86.0011 19.5547C86.2264 19.3426 86.4966 19.2365 86.8114 19.2365C87.1263 19.2365 87.3948 19.3426 87.6168 19.5547C87.8422 19.7635 87.9549 20.0137 87.9549 20.3054C87.9549 20.6004 87.8422 20.8539 87.6168 21.0661C87.3948 21.2749 87.1263 21.3793 86.8114 21.3793ZM93.0123 30.1491C92.2301 30.1491 91.5572 29.9834 90.9938 29.652C90.4337 29.3172 90.0028 28.8532 89.7012 28.2599C89.4029 27.6667 89.2537 26.9839 89.2537 26.2116C89.2537 25.4295 89.4045 24.7434 89.7061 24.1534C90.0111 23.5601 90.4436 23.0978 91.0037 22.7663C91.5639 22.4316 92.2301 22.2642 93.0023 22.2642C93.6685 22.2642 94.2518 22.3852 94.7523 22.6271C95.2528 22.8691 95.6489 23.2088 95.9405 23.6463C96.2322 24.0838 96.3929 24.5975 96.4228 25.1875H94.4242C94.3678 24.8063 94.2187 24.4998 93.9767 24.2678C93.7381 24.0324 93.4249 23.9148 93.0371 23.9148C92.709 23.9148 92.4223 24.0043 92.177 24.1832C91.9351 24.3589 91.7462 24.6158 91.6103 24.9538C91.4744 25.2919 91.4064 25.7012 91.4064 26.1818C91.4064 26.669 91.4727 27.0833 91.6053 27.4247C91.7412 27.7661 91.9318 28.0263 92.177 28.2053C92.4223 28.3842 92.709 28.4737 93.0371 28.4737C93.2791 28.4737 93.4962 28.424 93.6884 28.3246C93.8839 28.2251 94.0447 28.081 94.1706 27.892C94.2999 27.6998 94.3844 27.4695 94.4242 27.201H96.4228C96.3896 27.7843 96.2305 28.2981 95.9455 28.7422C95.6638 29.183 95.2743 29.5277 94.7772 29.7763C94.28 30.0249 93.6917 30.1491 93.0123 30.1491ZM101.259 30.1491C100.473 30.1491 99.7972 29.9901 99.2305 29.6719C98.667 29.3504 98.2328 28.8963 97.9279 28.3097C97.623 27.7197 97.4705 27.022 97.4705 26.2166C97.4705 25.4311 97.623 24.7417 97.9279 24.1484C98.2328 23.5552 98.6621 23.0928 99.2156 22.7614C99.7724 22.4299 100.425 22.2642 101.174 22.2642C101.678 22.2642 102.147 22.3454 102.581 22.5078C103.019 22.6669 103.4 22.9072 103.725 23.2287C104.053 23.5502 104.308 23.9545 104.49 24.4418C104.673 24.9257 104.764 25.4924 104.764 26.142V26.7237H98.3157V25.4112H102.77C102.77 25.1063 102.704 24.8362 102.571 24.6009C102.439 24.3655 102.255 24.1816 102.02 24.049C101.788 23.9131 101.517 23.8452 101.209 23.8452C100.888 23.8452 100.603 23.9197 100.354 24.0689C100.109 24.2147 99.9165 24.4119 99.7773 24.6605C99.6381 24.9058 99.5669 25.1792 99.5636 25.4808V26.7287C99.5636 27.1065 99.6332 27.433 99.7724 27.7081C99.9149 27.9832 100.115 28.1953 100.374 28.3445C100.632 28.4936 100.939 28.5682 101.294 28.5682C101.529 28.5682 101.744 28.535 101.94 28.4688C102.136 28.4025 102.303 28.303 102.442 28.1705C102.581 28.0379 102.687 27.8755 102.76 27.6832L104.719 27.8125C104.62 28.2831 104.416 28.6941 104.108 29.0455C103.803 29.3935 103.408 29.6652 102.924 29.8608C102.444 30.053 101.889 30.1491 101.259 30.1491ZM112.836 30.1491C112.054 30.1491 111.381 29.9834 110.818 29.652C110.258 29.3172 109.827 28.8532 109.525 28.2599C109.227 27.6667 109.078 26.9839 109.078 26.2116C109.078 25.4295 109.229 24.7434 109.53 24.1534C109.835 23.5601 110.268 23.0978 110.828 22.7663C111.388 22.4316 112.054 22.2642 112.827 22.2642C113.493 22.2642 114.076 22.3852 114.577 22.6271C115.077 22.8691 115.473 23.2088 115.765 23.6463C116.056 24.0838 116.217 24.5975 116.247 25.1875H114.248C114.192 24.8063 114.043 24.4998 113.801 24.2678C113.562 24.0324 113.249 23.9148 112.861 23.9148C112.533 23.9148 112.247 24.0043 112.001 24.1832C111.759 24.3589 111.57 24.6158 111.434 24.9538C111.299 25.2919 111.231 25.7012 111.231 26.1818C111.231 26.669 111.297 27.0833 111.43 27.4247C111.565 27.7661 111.756 28.0263 112.001 28.2053C112.247 28.3842 112.533 28.4737 112.861 28.4737C113.103 28.4737 113.32 28.424 113.513 28.3246C113.708 28.2251 113.869 28.081 113.995 27.892C114.124 27.6998 114.209 27.4695 114.248 27.201H116.247C116.214 27.7843 116.055 28.2981 115.77 28.7422C115.488 29.183 115.099 29.5277 114.601 29.7763C114.104 30.0249 113.516 30.1491 112.836 30.1491ZM117.603 30V22.3636H119.656V23.696H119.736C119.875 23.2221 120.109 22.8641 120.437 22.6222C120.765 22.3769 121.143 22.2543 121.57 22.2543C121.676 22.2543 121.791 22.2609 121.913 22.2741C122.036 22.2874 122.144 22.3056 122.237 22.3288V24.2081C122.137 24.1783 122 24.1518 121.824 24.1286C121.648 24.1054 121.487 24.0938 121.342 24.0938C121.03 24.0938 120.752 24.1617 120.506 24.2976C120.264 24.4302 120.072 24.6158 119.93 24.8544C119.79 25.093 119.721 25.3681 119.721 25.6797V30H117.603ZM126.456 30.1491C125.671 30.1491 124.994 29.9901 124.428 29.6719C123.864 29.3504 123.43 28.8963 123.125 28.3097C122.82 27.7197 122.668 27.022 122.668 26.2166C122.668 25.4311 122.82 24.7417 123.125 24.1484C123.43 23.5552 123.859 23.0928 124.413 22.7614C124.97 22.4299 125.623 22.2642 126.372 22.2642C126.875 22.2642 127.344 22.3454 127.779 22.5078C128.216 22.6669 128.597 22.9072 128.922 23.2287C129.25 23.5502 129.505 23.9545 129.688 24.4418C129.87 24.9257 129.961 25.4924 129.961 26.142V26.7237H123.513V25.4112H127.968C127.968 25.1063 127.901 24.8362 127.769 24.6009C127.636 24.3655 127.452 24.1816 127.217 24.049C126.985 23.9131 126.715 23.8452 126.406 23.8452C126.085 23.8452 125.8 23.9197 125.551 24.0689C125.306 24.2147 125.114 24.4119 124.975 24.6605C124.835 24.9058 124.764 25.1792 124.761 25.4808V26.7287C124.761 27.1065 124.83 27.433 124.97 27.7081C125.112 27.9832 125.313 28.1953 125.571 28.3445C125.83 28.4936 126.136 28.5682 126.491 28.5682C126.726 28.5682 126.942 28.535 127.137 28.4688C127.333 28.4025 127.5 28.303 127.639 28.1705C127.779 28.0379 127.885 27.8755 127.958 27.6832L129.916 27.8125C129.817 28.2831 129.613 28.6941 129.305 29.0455C129 29.3935 128.606 29.6652 128.122 29.8608C127.641 30.053 127.086 30.1491 126.456 30.1491ZM133.521 30.1442C133.034 30.1442 132.599 30.0597 132.218 29.8906C131.837 29.7183 131.535 29.4647 131.313 29.13C131.095 28.7919 130.985 28.371 130.985 27.8672C130.985 27.4429 131.063 27.0866 131.219 26.7983C131.375 26.5099 131.587 26.2779 131.855 26.1023C132.124 25.9266 132.429 25.794 132.77 25.7045C133.115 25.6151 133.476 25.5521 133.854 25.5156C134.298 25.4692 134.656 25.4261 134.928 25.3864C135.2 25.3433 135.397 25.2803 135.519 25.1974C135.642 25.1146 135.703 24.992 135.703 24.8295V24.7997C135.703 24.4848 135.604 24.2412 135.405 24.0689C135.209 23.8965 134.931 23.8104 134.57 23.8104C134.189 23.8104 133.885 23.8949 133.66 24.0639C133.435 24.2296 133.285 24.4384 133.213 24.6903L131.254 24.5312C131.353 24.0672 131.549 23.6662 131.84 23.3281C132.132 22.9867 132.508 22.7249 132.969 22.5426C133.433 22.357 133.97 22.2642 134.58 22.2642C135.004 22.2642 135.41 22.3139 135.798 22.4134C136.189 22.5128 136.535 22.6669 136.837 22.8757C137.142 23.0845 137.382 23.353 137.558 23.6811C137.733 24.0059 137.821 24.3954 137.821 24.8494V30H135.813V28.9411H135.753C135.63 29.1797 135.466 29.3902 135.261 29.5724C135.055 29.7514 134.808 29.8923 134.52 29.995C134.232 30.0945 133.899 30.1442 133.521 30.1442ZM134.127 28.6825C134.439 28.6825 134.714 28.6212 134.953 28.4986C135.191 28.3726 135.378 28.2036 135.514 27.9915C135.65 27.7794 135.718 27.5391 135.718 27.2706V26.4602C135.652 26.5033 135.561 26.5431 135.445 26.5795C135.332 26.6127 135.204 26.6442 135.062 26.674C134.919 26.7005 134.777 26.7254 134.634 26.7486C134.492 26.7685 134.363 26.7867 134.247 26.8033C133.998 26.8397 133.781 26.8977 133.595 26.9773C133.41 27.0568 133.266 27.1645 133.163 27.3004C133.06 27.433 133.009 27.5987 133.009 27.7976C133.009 28.0859 133.113 28.3063 133.322 28.4588C133.534 28.608 133.802 28.6825 134.127 28.6825ZM143.526 22.3636V23.9545H138.927V22.3636H143.526ZM139.971 20.5341H142.089V27.6534C142.089 27.849 142.119 28.0014 142.179 28.1108C142.238 28.2169 142.321 28.2914 142.427 28.3345C142.537 28.3776 142.663 28.3991 142.805 28.3991C142.905 28.3991 143.004 28.3909 143.104 28.3743C143.203 28.3544 143.279 28.3395 143.332 28.3295L143.665 29.9055C143.559 29.9387 143.41 29.9768 143.218 30.0199C143.026 30.0663 142.792 30.0945 142.517 30.1044C142.006 30.1243 141.559 30.0563 141.175 29.9006C140.793 29.7448 140.497 29.5028 140.285 29.1747C140.073 28.8466 139.968 28.4323 139.971 27.9318V20.5341ZM148.304 30.1491C147.518 30.1491 146.842 29.9901 146.275 29.6719C145.712 29.3504 145.278 28.8963 144.973 28.3097C144.668 27.7197 144.515 27.022 144.515 26.2166C144.515 25.4311 144.668 24.7417 144.973 24.1484C145.278 23.5552 145.707 23.0928 146.26 22.7614C146.817 22.4299 147.47 22.2642 148.219 22.2642C148.723 22.2642 149.192 22.3454 149.626 22.5078C150.064 22.6669 150.445 22.9072 150.77 23.2287C151.098 23.5502 151.353 23.9545 151.535 24.4418C151.718 24.9257 151.809 25.4924 151.809 26.142V26.7237H145.361V25.4112H149.815C149.815 25.1063 149.749 24.8362 149.616 24.6009C149.484 24.3655 149.3 24.1816 149.064 24.049C148.832 23.9131 148.562 23.8452 148.254 23.8452C147.933 23.8452 147.648 23.9197 147.399 24.0689C147.154 24.2147 146.961 24.4119 146.822 24.6605C146.683 24.9058 146.612 25.1792 146.608 25.4808V26.7287C146.608 27.1065 146.678 27.433 146.817 27.7081C146.96 27.9832 147.16 28.1953 147.419 28.3445C147.677 28.4936 147.984 28.5682 148.339 28.5682C148.574 28.5682 148.789 28.535 148.985 28.4688C149.18 28.4025 149.348 28.303 149.487 28.1705C149.626 28.0379 149.732 27.8755 149.805 27.6832L151.764 27.8125C151.665 28.2831 151.461 28.6941 151.153 29.0455C150.848 29.3935 150.453 29.6652 149.969 29.8608C149.489 30.053 148.934 30.1491 148.304 30.1491ZM156.005 30.1243C155.425 30.1243 154.899 29.9751 154.429 29.6768C153.961 29.3752 153.59 28.9328 153.315 28.3494C153.043 27.7628 152.907 27.0436 152.907 26.1918C152.907 25.3168 153.048 24.5893 153.33 24.0092C153.612 23.4259 153.986 22.9901 154.454 22.7017C154.924 22.41 155.44 22.2642 156 22.2642C156.427 22.2642 156.784 22.3371 157.069 22.483C157.357 22.6255 157.589 22.8045 157.765 23.0199C157.944 23.232 158.08 23.4408 158.172 23.6463H158.237V19.8182H160.35V30H158.262V28.777H158.172C158.073 28.9891 157.932 29.1996 157.75 29.4084C157.571 29.6139 157.337 29.7846 157.049 29.9205C156.764 30.0563 156.416 30.1243 156.005 30.1243ZM156.676 28.4389C157.017 28.4389 157.306 28.3461 157.541 28.1605C157.78 27.9716 157.962 27.7081 158.088 27.37C158.217 27.032 158.282 26.6359 158.282 26.1818C158.282 25.7277 158.219 25.3333 158.093 24.9986C157.967 24.6638 157.785 24.4053 157.546 24.223C157.307 24.0407 157.017 23.9496 156.676 23.9496C156.328 23.9496 156.035 24.044 155.796 24.233C155.557 24.4219 155.377 24.6837 155.254 25.0185C155.131 25.3532 155.07 25.741 155.07 26.1818C155.07 26.6259 155.131 27.0187 155.254 27.3601C155.38 27.6982 155.561 27.9633 155.796 28.1555C156.035 28.3445 156.328 28.4389 156.676 28.4389Z" fill="#032B3A"/>
<path d="M58.4659 39.8182V50H57.233V39.8182H58.4659ZM61.9522 45.4062V50H60.7789V42.3636H61.9125V43.5568H62.0119C62.1909 43.169 62.4627 42.8575 62.8272 42.6222C63.1918 42.3835 63.6625 42.2642 64.2392 42.2642C64.7562 42.2642 65.2086 42.3703 65.5964 42.5824C65.9842 42.7912 66.2858 43.1094 66.5012 43.5369C66.7167 43.9612 66.8244 44.4981 66.8244 45.1477V50H65.6511V45.2273C65.6511 44.6274 65.4953 44.16 65.1838 43.8253C64.8722 43.4872 64.4447 43.3182 63.9011 43.3182C63.5266 43.3182 63.1918 43.3994 62.8968 43.5618C62.6052 43.7242 62.3748 43.9612 62.2058 44.2727C62.0368 44.5843 61.9522 44.9621 61.9522 45.4062ZM74.9393 42.3636L72.1154 50H70.9222L68.0984 42.3636H69.3711L71.479 48.4489H71.5586L73.6665 42.3636H74.9393ZM79.3168 50.1591C78.6274 50.1591 78.0225 49.995 77.5021 49.6669C76.9851 49.3388 76.5807 48.8797 76.2891 48.2898C76.0007 47.6998 75.8565 47.0104 75.8565 46.2216C75.8565 45.4261 76.0007 44.7318 76.2891 44.1385C76.5807 43.5452 76.9851 43.0845 77.5021 42.7564C78.0225 42.4283 78.6274 42.2642 79.3168 42.2642C80.0062 42.2642 80.6094 42.4283 81.1264 42.7564C81.6468 43.0845 82.0511 43.5452 82.3395 44.1385C82.6312 44.7318 82.777 45.4261 82.777 46.2216C82.777 47.0104 82.6312 47.6998 82.3395 48.2898C82.0511 48.8797 81.6468 49.3388 81.1264 49.6669C80.6094 49.995 80.0062 50.1591 79.3168 50.1591ZM79.3168 49.1051C79.8404 49.1051 80.2713 48.9709 80.6094 48.7024C80.9474 48.4339 81.1977 48.081 81.3601 47.6435C81.5225 47.206 81.6037 46.732 81.6037 46.2216C81.6037 45.7112 81.5225 45.2356 81.3601 44.7947C81.1977 44.3539 80.9474 43.9976 80.6094 43.7259C80.2713 43.4541 79.8404 43.3182 79.3168 43.3182C78.7931 43.3182 78.3622 43.4541 78.0241 43.7259C77.6861 43.9976 77.4358 44.3539 77.2734 44.7947C77.111 45.2356 77.0298 45.7112 77.0298 46.2216C77.0298 46.732 77.111 47.206 77.2734 47.6435C77.4358 48.081 77.6861 48.4339 78.0241 48.7024C78.3622 48.9709 78.7931 49.1051 79.3168 49.1051ZM84.568 50V42.3636H85.7413V50H84.568ZM85.1646 41.0909C84.9359 41.0909 84.7387 41.013 84.573 40.8572C84.4106 40.7015 84.3294 40.5142 84.3294 40.2955C84.3294 40.0767 84.4106 39.8894 84.573 39.7337C84.7387 39.5779 84.9359 39.5 85.1646 39.5C85.3933 39.5 85.5888 39.5779 85.7512 39.7337C85.917 39.8894 85.9998 40.0767 85.9998 40.2955C85.9998 40.5142 85.917 40.7015 85.7512 40.8572C85.5888 41.013 85.3933 41.0909 85.1646 41.0909ZM90.9925 50.1591C90.2766 50.1591 89.6602 49.9901 89.1431 49.652C88.6261 49.3139 88.2283 48.8482 87.9499 48.255C87.6715 47.6617 87.5323 46.9839 87.5323 46.2216C87.5323 45.446 87.6748 44.7616 87.9599 44.1683C88.2482 43.5717 88.6493 43.1061 89.163 42.7713C89.68 42.4332 90.2833 42.2642 90.9727 42.2642C91.5096 42.2642 91.9935 42.3636 92.4244 42.5625C92.8552 42.7614 93.2082 43.0398 93.4833 43.3977C93.7584 43.7557 93.9291 44.1733 93.9954 44.6506H92.8221C92.7326 44.3026 92.5337 43.9943 92.2255 43.7259C91.9206 43.4541 91.5096 43.3182 90.9925 43.3182C90.5352 43.3182 90.1341 43.4375 89.7894 43.6761C89.448 43.9115 89.1812 44.2446 88.989 44.6754C88.8001 45.103 88.7056 45.6051 88.7056 46.1818C88.7056 46.7718 88.7984 47.2855 88.984 47.723C89.1729 48.1605 89.4381 48.5002 89.7795 48.7422C90.1242 48.9841 90.5285 49.1051 90.9925 49.1051C91.2975 49.1051 91.5742 49.0521 91.8228 48.946C92.0714 48.84 92.2818 48.6875 92.4542 48.4886C92.6265 48.2898 92.7492 48.0511 92.8221 47.7727H93.9954C93.9291 48.2235 93.765 48.6295 93.5032 48.9908C93.2447 49.3487 92.9016 49.6338 92.4741 49.8459C92.0498 50.0547 91.556 50.1591 90.9925 50.1591ZM98.9123 50.1591C98.1765 50.1591 97.5418 49.9967 97.0082 49.6719C96.4779 49.3438 96.0685 48.8864 95.7802 48.2997C95.4951 47.7098 95.3526 47.0237 95.3526 46.2415C95.3526 45.4593 95.4951 44.7699 95.7802 44.1733C96.0685 43.5734 96.4696 43.1061 96.9833 42.7713C97.5004 42.4332 98.1036 42.2642 98.793 42.2642C99.1907 42.2642 99.5835 42.3305 99.9712 42.4631C100.359 42.5956 100.712 42.8111 101.03 43.1094C101.348 43.4044 101.602 43.7955 101.791 44.2827C101.98 44.7699 102.074 45.3698 102.074 46.0824V46.5795H96.1879V45.5653H100.881C100.881 45.1345 100.795 44.75 100.623 44.4119C100.453 44.0739 100.212 43.8071 99.8967 43.6115C99.5851 43.416 99.2172 43.3182 98.793 43.3182C98.3256 43.3182 97.9213 43.4342 97.5799 43.6662C97.2418 43.8949 96.9817 44.1932 96.7994 44.5611C96.6171 44.929 96.5259 45.3234 96.5259 45.7443V46.4205C96.5259 46.9972 96.6254 47.486 96.8242 47.8871C97.0264 48.2848 97.3065 48.5881 97.6644 48.7969C98.0224 49.0024 98.4383 49.1051 98.9123 49.1051C99.2205 49.1051 99.4989 49.062 99.7475 48.9759C99.9994 48.8864 100.217 48.7538 100.399 48.5781C100.581 48.3991 100.722 48.1771 100.821 47.9119L101.955 48.2301C101.836 48.6146 101.635 48.9527 101.353 49.2443C101.072 49.5327 100.724 49.758 100.309 49.9205C99.895 50.0795 99.4293 50.1591 98.9123 50.1591ZM111.595 50L113.265 39.8182H114.26L112.589 50H111.595ZM106.961 47.1761L107.12 46.1818H114.717L114.558 47.1761H106.961ZM108.015 50L109.686 39.8182H110.68L109.01 50H108.015ZM107.558 43.6364L107.717 42.642H115.314L115.154 43.6364H107.558ZM120.049 50.1392C119.393 50.1392 118.808 50.0265 118.294 49.8011C117.784 49.5758 117.378 49.2625 117.076 48.8615C116.778 48.4571 116.615 47.9882 116.589 47.4545H117.842C117.868 47.7827 117.981 48.0661 118.18 48.3047C118.379 48.54 118.639 48.7223 118.96 48.8516C119.282 48.9808 119.638 49.0455 120.029 49.0455C120.467 49.0455 120.854 48.9692 121.192 48.8168C121.531 48.6643 121.796 48.4522 121.988 48.1804C122.18 47.9086 122.276 47.5938 122.276 47.2358C122.276 46.8613 122.183 46.5315 121.998 46.2464C121.812 45.9581 121.54 45.7327 121.183 45.5703C120.825 45.4079 120.387 45.3267 119.87 45.3267H119.055V44.233H119.87C120.274 44.233 120.629 44.16 120.934 44.0142C121.242 43.8684 121.482 43.6629 121.655 43.3977C121.83 43.1326 121.918 42.821 121.918 42.4631C121.918 42.1184 121.842 41.8184 121.69 41.5632C121.537 41.308 121.322 41.1091 121.043 40.9666C120.768 40.8241 120.443 40.7528 120.069 40.7528C119.718 40.7528 119.386 40.8175 119.075 40.9467C118.766 41.0727 118.514 41.2566 118.319 41.4986C118.123 41.7372 118.017 42.0256 118.001 42.3636H116.808C116.827 41.83 116.988 41.3627 117.29 40.9616C117.591 40.5573 117.986 40.2424 118.473 40.017C118.964 39.7917 119.502 39.679 120.089 39.679C120.719 39.679 121.259 39.8066 121.71 40.0618C122.16 40.3137 122.507 40.6468 122.749 41.0611C122.991 41.4754 123.112 41.9228 123.112 42.4034C123.112 42.9768 122.961 43.4657 122.659 43.87C122.361 44.2744 121.955 44.5545 121.441 44.7102V44.7898C122.084 44.8958 122.586 45.1693 122.947 45.6101C123.309 46.0476 123.489 46.5895 123.489 47.2358C123.489 47.7893 123.339 48.2865 123.037 48.7273C122.739 49.1648 122.331 49.5095 121.814 49.7614C121.297 50.0133 120.709 50.1392 120.049 50.1392ZM128.764 39.679C129.182 39.6823 129.599 39.7618 130.017 39.9176C130.435 40.0734 130.816 40.3319 131.161 40.6932C131.505 41.0511 131.782 41.54 131.991 42.1598C132.2 42.7796 132.304 43.5568 132.304 44.4915C132.304 45.3963 132.218 46.2 132.045 46.9027C131.876 47.602 131.631 48.192 131.31 48.6726C130.991 49.1532 130.604 49.5178 130.146 49.7663C129.692 50.0149 129.179 50.1392 128.605 50.1392C128.035 50.1392 127.526 50.0265 127.079 49.8011C126.635 49.5724 126.27 49.2559 125.985 48.8516C125.703 48.4439 125.523 47.9716 125.443 47.4347H126.656C126.766 47.902 126.983 48.2881 127.308 48.593C127.636 48.8946 128.068 49.0455 128.605 49.0455C129.391 49.0455 130.01 48.7024 130.464 48.0163C130.922 47.3303 131.151 46.3608 131.151 45.108H131.071C130.885 45.3864 130.665 45.6267 130.41 45.8288C130.155 46.031 129.871 46.1868 129.56 46.2962C129.248 46.4055 128.917 46.4602 128.565 46.4602C127.982 46.4602 127.447 46.3161 126.96 46.0277C126.476 45.736 126.088 45.3366 125.796 44.8295C125.508 44.3191 125.364 43.7358 125.364 43.0795C125.364 42.4564 125.503 41.8864 125.781 41.3693C126.063 40.849 126.457 40.4347 126.964 40.1264C127.475 39.8182 128.075 39.669 128.764 39.679ZM128.764 40.7727C128.347 40.7727 127.97 40.8771 127.636 41.0859C127.304 41.2914 127.041 41.5698 126.845 41.9212C126.653 42.2692 126.557 42.6553 126.557 43.0795C126.557 43.5038 126.65 43.8899 126.835 44.2379C127.024 44.5826 127.281 44.8577 127.606 45.0632C127.934 45.2654 128.307 45.3665 128.724 45.3665C129.039 45.3665 129.333 45.3052 129.604 45.1825C129.876 45.0566 130.113 44.8859 130.315 44.6705C130.521 44.4517 130.682 44.2048 130.798 43.9297C130.914 43.6513 130.972 43.3613 130.972 43.0597C130.972 42.6619 130.875 42.2891 130.683 41.9411C130.494 41.593 130.232 41.3113 129.898 41.0959C129.566 40.8804 129.188 40.7727 128.764 40.7727Z" fill="#233D48"/>
<line x1="4.37114e-08" y1="71.5" x2="274" y2="71.5" stroke="#DADFE2"/>
<path fill-rule="evenodd" clip-rule="evenodd" d="M22 90C20.8954 90 20 90.8954 20 92V108C20 109.105 20.8954 110 22 110H34C35.1046 110 36 109.105 36 108V95.4142C36 94.8838 35.7893 94.3751 35.4142 94L32 90.5858C31.6249 90.2107 31.1162 90 30.5858 90H22ZM22 108V92H30.5858L34 95.4142V108H22ZM29.2932 97.707C28.6262 97.04 28.0032 97 27.9772 97C27.4492 97 27.0002 97.45 27.0002 98C27.0002 98.646 27.1282 98.752 28.2432 99.03C29.2742 99.288 31.0002 99.72 31.0002 102C30.998 102.618 30.8045 103.22 30.4465 103.724C30.0884 104.228 29.5832 104.609 29.0002 104.814V104.998C29.0002 105.263 28.8948 105.518 28.7073 105.705C28.5198 105.893 28.2654 105.998 28.0002 105.998C27.735 105.998 27.4806 105.893 27.2931 105.705C27.1056 105.518 27.0002 105.263 27.0002 104.998V104.798C26.3558 104.569 25.772 104.196 25.2932 103.708C25.1056 103.52 25.0001 103.266 25 103.001C24.9999 102.736 25.1052 102.481 25.2927 102.293C25.4802 102.106 25.7346 102 25.9998 102C26.2651 102 26.5196 102.105 26.7072 102.293C27.3742 102.96 27.9982 103 28.0242 103C28.5522 103 29.0002 102.552 29.0002 102C29.0002 101.354 28.8732 101.25 27.7582 100.97C26.7272 100.713 25.0002 100.28 25.0002 98C25.0022 97.3816 25.1955 96.779 25.5536 96.2748C25.9116 95.7706 26.417 95.3896 27.0002 95.184V95C27.0002 94.7348 27.1056 94.4804 27.2931 94.2929C27.4806 94.1054 27.735 94 28.0002 94C28.2654 94 28.5198 94.1054 28.7073 94.2929C28.8948 94.4804 29.0002 94.7348 29.0002 95V95.2C29.6451 95.4294 30.229 95.8032 30.7072 96.293C30.8894 96.4816 30.9902 96.7342 30.9879 96.9964C30.9856 97.2586 30.8804 97.5094 30.695 97.6948C30.5096 97.8802 30.2588 97.9854 29.9966 97.9877C29.7344 97.99 29.4818 97.8892 29.2932 97.707Z" fill="#225C8C"/>
<path d="M59.0376 91.8182V102H56.8849V91.8182H59.0376ZM62.8869 97.5852V102H60.769V94.3636H62.7875V95.7109H62.877C63.046 95.2668 63.3294 94.9155 63.7271 94.657C64.1248 94.3951 64.6071 94.2642 65.1738 94.2642C65.7041 94.2642 66.1665 94.3802 66.5609 94.6122C66.9553 94.8442 67.2619 95.1757 67.4806 95.6065C67.6994 96.0341 67.8088 96.5445 67.8088 97.1378V102H65.6909V97.5156C65.6942 97.0483 65.5749 96.6837 65.3329 96.4219C65.091 96.1567 64.7579 96.0241 64.3336 96.0241C64.0486 96.0241 63.7967 96.0855 63.5779 96.2081C63.3625 96.3307 63.1935 96.5097 63.0708 96.745C62.9515 96.977 62.8902 97.2571 62.8869 97.5852ZM76.3239 94.3636L73.6541 102H71.2678L68.598 94.3636H70.8352L72.4212 99.8274H72.5007L74.0817 94.3636H76.3239ZM80.6119 102.149C79.8396 102.149 79.1718 101.985 78.6083 101.657C78.0482 101.326 77.6156 100.865 77.3107 100.275C77.0058 99.6816 76.8533 98.9938 76.8533 98.2116C76.8533 97.4228 77.0058 96.7334 77.3107 96.1435C77.6156 95.5502 78.0482 95.0895 78.6083 94.7614C79.1718 94.4299 79.8396 94.2642 80.6119 94.2642C81.3841 94.2642 82.0503 94.4299 82.6104 94.7614C83.1739 95.0895 83.6081 95.5502 83.913 96.1435C84.2179 96.7334 84.3704 97.4228 84.3704 98.2116C84.3704 98.9938 84.2179 99.6816 83.913 100.275C83.6081 100.865 83.1739 101.326 82.6104 101.657C82.0503 101.985 81.3841 102.149 80.6119 102.149ZM80.6218 100.509C80.9731 100.509 81.2665 100.409 81.5018 100.21C81.7371 100.008 81.9144 99.733 82.0337 99.3849C82.1564 99.0369 82.2177 98.6409 82.2177 98.1967C82.2177 97.7526 82.1564 97.3565 82.0337 97.0085C81.9144 96.6605 81.7371 96.3854 81.5018 96.1832C81.2665 95.9811 80.9731 95.88 80.6218 95.88C80.2672 95.88 79.9689 95.9811 79.7269 96.1832C79.4883 96.3854 79.3076 96.6605 79.185 97.0085C79.0657 97.3565 79.006 97.7526 79.006 98.1967C79.006 98.6409 79.0657 99.0369 79.185 99.3849C79.3076 99.733 79.4883 100.008 79.7269 100.21C79.9689 100.409 80.2672 100.509 80.6218 100.509ZM85.7475 102V94.3636H87.8654V102H85.7475ZM86.8114 93.3793C86.4966 93.3793 86.2264 93.2749 86.0011 93.0661C85.779 92.8539 85.668 92.6004 85.668 92.3054C85.668 92.0137 85.779 91.7635 86.0011 91.5547C86.2264 91.3426 86.4966 91.2365 86.8114 91.2365C87.1263 91.2365 87.3948 91.3426 87.6168 91.5547C87.8422 91.7635 87.9549 92.0137 87.9549 92.3054C87.9549 92.6004 87.8422 92.8539 87.6168 93.0661C87.3948 93.2749 87.1263 93.3793 86.8114 93.3793ZM93.0123 102.149C92.2301 102.149 91.5572 101.983 90.9938 101.652C90.4337 101.317 90.0028 100.853 89.7012 100.26C89.4029 99.6667 89.2537 98.9839 89.2537 98.2116C89.2537 97.4295 89.4045 96.7434 89.7061 96.1534C90.0111 95.5601 90.4436 95.0978 91.0037 94.7663C91.5639 94.4316 92.2301 94.2642 93.0023 94.2642C93.6685 94.2642 94.2518 94.3852 94.7523 94.6271C95.2528 94.8691 95.6489 95.2088 95.9405 95.6463C96.2322 96.0838 96.3929 96.5975 96.4228 97.1875H94.4242C94.3678 96.8063 94.2187 96.4998 93.9767 96.2678C93.7381 96.0324 93.4249 95.9148 93.0371 95.9148C92.709 95.9148 92.4223 96.0043 92.177 96.1832C91.9351 96.3589 91.7462 96.6158 91.6103 96.9538C91.4744 97.2919 91.4064 97.7012 91.4064 98.1818C91.4064 98.669 91.4727 99.0833 91.6053 99.4247C91.7412 99.7661 91.9318 100.026 92.177 100.205C92.4223 100.384 92.709 100.474 93.0371 100.474C93.2791 100.474 93.4962 100.424 93.6884 100.325C93.8839 100.225 94.0447 100.081 94.1706 99.892C94.2999 99.6998 94.3844 99.4695 94.4242 99.201H96.4228C96.3896 99.7843 96.2305 100.298 95.9455 100.742C95.6638 101.183 95.2743 101.528 94.7772 101.776C94.28 102.025 93.6917 102.149 93.0123 102.149ZM101.259 102.149C100.473 102.149 99.7972 101.99 99.2305 101.672C98.667 101.35 98.2328 100.896 97.9279 100.31C97.623 99.7197 97.4705 99.022 97.4705 98.2166C97.4705 97.4311 97.623 96.7417 97.9279 96.1484C98.2328 95.5552 98.6621 95.0928 99.2156 94.7614C99.7724 94.4299 100.425 94.2642 101.174 94.2642C101.678 94.2642 102.147 94.3454 102.581 94.5078C103.019 94.6669 103.4 94.9072 103.725 95.2287C104.053 95.5502 104.308 95.9545 104.49 96.4418C104.673 96.9257 104.764 97.4924 104.764 98.142V98.7237H98.3157V97.4112H102.77C102.77 97.1063 102.704 96.8362 102.571 96.6009C102.439 96.3655 102.255 96.1816 102.02 96.049C101.788 95.9131 101.517 95.8452 101.209 95.8452C100.888 95.8452 100.603 95.9197 100.354 96.0689C100.109 96.2147 99.9165 96.4119 99.7773 96.6605C99.6381 96.9058 99.5669 97.1792 99.5636 97.4808V98.7287C99.5636 99.1065 99.6332 99.433 99.7724 99.7081C99.9149 99.9832 100.115 100.195 100.374 100.344C100.632 100.494 100.939 100.568 101.294 100.568C101.529 100.568 101.744 100.535 101.94 100.469C102.136 100.402 102.303 100.303 102.442 100.17C102.581 100.038 102.687 99.8755 102.76 99.6832L104.719 99.8125C104.62 100.283 104.416 100.694 104.108 101.045C103.803 101.393 103.408 101.665 102.924 101.861C102.444 102.053 101.889 102.149 101.259 102.149ZM112.836 102.149C112.054 102.149 111.381 101.983 110.818 101.652C110.258 101.317 109.827 100.853 109.525 100.26C109.227 99.6667 109.078 98.9839 109.078 98.2116C109.078 97.4295 109.229 96.7434 109.53 96.1534C109.835 95.5601 110.268 95.0978 110.828 94.7663C111.388 94.4316 112.054 94.2642 112.827 94.2642C113.493 94.2642 114.076 94.3852 114.577 94.6271C115.077 94.8691 115.473 95.2088 115.765 95.6463C116.056 96.0838 116.217 96.5975 116.247 97.1875H114.248C114.192 96.8063 114.043 96.4998 113.801 96.2678C113.562 96.0324 113.249 95.9148 112.861 95.9148C112.533 95.9148 112.247 96.0043 112.001 96.1832C111.759 96.3589 111.57 96.6158 111.434 96.9538C111.299 97.2919 111.231 97.7012 111.231 98.1818C111.231 98.669 111.297 99.0833 111.43 99.4247C111.565 99.7661 111.756 100.026 112.001 100.205C112.247 100.384 112.533 100.474 112.861 100.474C113.103 100.474 113.32 100.424 113.513 100.325C113.708 100.225 113.869 100.081 113.995 99.892C114.124 99.6998 114.209 99.4695 114.248 99.201H116.247C116.214 99.7843 116.055 100.298 115.77 100.742C115.488 101.183 115.099 101.528 114.601 101.776C114.104 102.025 113.516 102.149 112.836 102.149ZM117.603 102V94.3636H119.656V95.696H119.736C119.875 95.2221 120.109 94.8641 120.437 94.6222C120.765 94.3769 121.143 94.2543 121.57 94.2543C121.676 94.2543 121.791 94.2609 121.913 94.2741C122.036 94.2874 122.144 94.3056 122.237 94.3288V96.2081C122.137 96.1783 122 96.1518 121.824 96.1286C121.648 96.1054 121.487 96.0938 121.342 96.0938C121.03 96.0938 120.752 96.1617 120.506 96.2976C120.264 96.4302 120.072 96.6158 119.93 96.8544C119.79 97.093 119.721 97.3681 119.721 97.6797V102H117.603ZM126.456 102.149C125.671 102.149 124.994 101.99 124.428 101.672C123.864 101.35 123.43 100.896 123.125 100.31C122.82 99.7197 122.668 99.022 122.668 98.2166C122.668 97.4311 122.82 96.7417 123.125 96.1484C123.43 95.5552 123.859 95.0928 124.413 94.7614C124.97 94.4299 125.623 94.2642 126.372 94.2642C126.875 94.2642 127.344 94.3454 127.779 94.5078C128.216 94.6669 128.597 94.9072 128.922 95.2287C129.25 95.5502 129.505 95.9545 129.688 96.4418C129.87 96.9257 129.961 97.4924 129.961 98.142V98.7237H123.513V97.4112H127.968C127.968 97.1063 127.901 96.8362 127.769 96.6009C127.636 96.3655 127.452 96.1816 127.217 96.049C126.985 95.9131 126.715 95.8452 126.406 95.8452C126.085 95.8452 125.8 95.9197 125.551 96.0689C125.306 96.2147 125.114 96.4119 124.975 96.6605C124.835 96.9058 124.764 97.1792 124.761 97.4808V98.7287C124.761 99.1065 124.83 99.433 124.97 99.7081C125.112 99.9832 125.313 100.195 125.571 100.344C125.83 100.494 126.136 100.568 126.491 100.568C126.726 100.568 126.942 100.535 127.137 100.469C127.333 100.402 127.5 100.303 127.639 100.17C127.779 100.038 127.885 99.8755 127.958 99.6832L129.916 99.8125C129.817 100.283 129.613 100.694 129.305 101.045C129 101.393 128.606 101.665 128.122 101.861C127.641 102.053 127.086 102.149 126.456 102.149ZM133.521 102.144C133.034 102.144 132.599 102.06 132.218 101.891C131.837 101.718 131.535 101.465 131.313 101.13C131.095 100.792 130.985 100.371 130.985 99.8672C130.985 99.4429 131.063 99.0866 131.219 98.7983C131.375 98.5099 131.587 98.2779 131.855 98.1023C132.124 97.9266 132.429 97.794 132.77 97.7045C133.115 97.6151 133.476 97.5521 133.854 97.5156C134.298 97.4692 134.656 97.4261 134.928 97.3864C135.2 97.3433 135.397 97.2803 135.519 97.1974C135.642 97.1146 135.703 96.992 135.703 96.8295V96.7997C135.703 96.4848 135.604 96.2412 135.405 96.0689C135.209 95.8965 134.931 95.8104 134.57 95.8104C134.189 95.8104 133.885 95.8949 133.66 96.0639C133.435 96.2296 133.285 96.4384 133.213 96.6903L131.254 96.5312C131.353 96.0672 131.549 95.6662 131.84 95.3281C132.132 94.9867 132.508 94.7249 132.969 94.5426C133.433 94.357 133.97 94.2642 134.58 94.2642C135.004 94.2642 135.41 94.3139 135.798 94.4134C136.189 94.5128 136.535 94.6669 136.837 94.8757C137.142 95.0845 137.382 95.353 137.558 95.6811C137.733 96.0059 137.821 96.3954 137.821 96.8494V102H135.813V100.941H135.753C135.63 101.18 135.466 101.39 135.261 101.572C135.055 101.751 134.808 101.892 134.52 101.995C134.232 102.094 133.899 102.144 133.521 102.144ZM134.127 100.683C134.439 100.683 134.714 100.621 134.953 100.499C135.191 100.373 135.378 100.204 135.514 99.9915C135.65 99.7794 135.718 99.5391 135.718 99.2706V98.4602C135.652 98.5033 135.561 98.5431 135.445 98.5795C135.332 98.6127 135.204 98.6442 135.062 98.674C134.919 98.7005 134.777 98.7254 134.634 98.7486C134.492 98.7685 134.363 98.7867 134.247 98.8033C133.998 98.8397 133.781 98.8977 133.595 98.9773C133.41 99.0568 133.266 99.1645 133.163 99.3004C133.06 99.433 133.009 99.5987 133.009 99.7976C133.009 100.086 133.113 100.306 133.322 100.459C133.534 100.608 133.802 100.683 134.127 100.683ZM143.526 94.3636V95.9545H138.927V94.3636H143.526ZM139.971 92.5341H142.089V99.6534C142.089 99.849 142.119 100.001 142.179 100.111C142.238 100.217 142.321 100.291 142.427 100.335C142.537 100.378 142.663 100.399 142.805 100.399C142.905 100.399 143.004 100.391 143.104 100.374C143.203 100.354 143.279 100.339 143.332 100.33L143.665 101.906C143.559 101.939 143.41 101.977 143.218 102.02C143.026 102.066 142.792 102.094 142.517 102.104C142.006 102.124 141.559 102.056 141.175 101.901C140.793 101.745 140.497 101.503 140.285 101.175C140.073 100.847 139.968 100.432 139.971 99.9318V92.5341ZM148.304 102.149C147.518 102.149 146.842 101.99 146.275 101.672C145.712 101.35 145.278 100.896 144.973 100.31C144.668 99.7197 144.515 99.022 144.515 98.2166C144.515 97.4311 144.668 96.7417 144.973 96.1484C145.278 95.5552 145.707 95.0928 146.26 94.7614C146.817 94.4299 147.47 94.2642 148.219 94.2642C148.723 94.2642 149.192 94.3454 149.626 94.5078C150.064 94.6669 150.445 94.9072 150.77 95.2287C151.098 95.5502 151.353 95.9545 151.535 96.4418C151.718 96.9257 151.809 97.4924 151.809 98.142V98.7237H145.361V97.4112H149.815C149.815 97.1063 149.749 96.8362 149.616 96.6009C149.484 96.3655 149.3 96.1816 149.064 96.049C148.832 95.9131 148.562 95.8452 148.254 95.8452C147.933 95.8452 147.648 95.9197 147.399 96.0689C147.154 96.2147 146.961 96.4119 146.822 96.6605C146.683 96.9058 146.612 97.1792 146.608 97.4808V98.7287C146.608 99.1065 146.678 99.433 146.817 99.7081C146.96 99.9832 147.16 100.195 147.419 100.344C147.677 100.494 147.984 100.568 148.339 100.568C148.574 100.568 148.789 100.535 148.985 100.469C149.18 100.402 149.348 100.303 149.487 100.17C149.626 100.038 149.732 99.8755 149.805 99.6832L151.764 99.8125C151.665 100.283 151.461 100.694 151.153 101.045C150.848 101.393 150.453 101.665 149.969 101.861C149.489 102.053 148.934 102.149 148.304 102.149ZM156.005 102.124C155.425 102.124 154.899 101.975 154.429 101.677C153.961 101.375 153.59 100.933 153.315 100.349C153.043 99.7628 152.907 99.0436 152.907 98.1918C152.907 97.3168 153.048 96.5893 153.33 96.0092C153.612 95.4259 153.986 94.9901 154.454 94.7017C154.924 94.41 155.44 94.2642 156 94.2642C156.427 94.2642 156.784 94.3371 157.069 94.483C157.357 94.6255 157.589 94.8045 157.765 95.0199C157.944 95.232 158.08 95.4408 158.172 95.6463H158.237V91.8182H160.35V102H158.262V100.777H158.172C158.073 100.989 157.932 101.2 157.75 101.408C157.571 101.614 157.337 101.785 157.049 101.92C156.764 102.056 156.416 102.124 156.005 102.124ZM156.676 100.439C157.017 100.439 157.306 100.346 157.541 100.161C157.78 99.9716 157.962 99.7081 158.088 99.37C158.217 99.032 158.282 98.6359 158.282 98.1818C158.282 97.7277 158.219 97.3333 158.093 96.9986C157.967 96.6638 157.785 96.4053 157.546 96.223C157.307 96.0407 157.017 95.9496 156.676 95.9496C156.328 95.9496 156.035 96.044 155.796 96.233C155.557 96.4219 155.377 96.6837 155.254 97.0185C155.131 97.3532 155.07 97.741 155.07 98.1818C155.07 98.6259 155.131 99.0187 155.254 99.3601C155.38 99.6982 155.561 99.9633 155.796 100.156C156.035 100.344 156.328 100.439 156.676 100.439Z" fill="#032B3A"/>
<path d="M58.4659 111.818V122H57.233V111.818H58.4659ZM61.9522 117.406V122H60.7789V114.364H61.9125V115.557H62.0119C62.1909 115.169 62.4627 114.857 62.8272 114.622C63.1918 114.384 63.6625 114.264 64.2392 114.264C64.7562 114.264 65.2086 114.37 65.5964 114.582C65.9842 114.791 66.2858 115.109 66.5012 115.537C66.7167 115.961 66.8244 116.498 66.8244 117.148V122H65.6511V117.227C65.6511 116.627 65.4953 116.16 65.1838 115.825C64.8722 115.487 64.4447 115.318 63.9011 115.318C63.5266 115.318 63.1918 115.399 62.8968 115.562C62.6052 115.724 62.3748 115.961 62.2058 116.273C62.0368 116.584 61.9522 116.962 61.9522 117.406ZM74.9393 114.364L72.1154 122H70.9222L68.0984 114.364H69.3711L71.479 120.449H71.5586L73.6665 114.364H74.9393ZM79.3168 122.159C78.6274 122.159 78.0225 121.995 77.5021 121.667C76.9851 121.339 76.5807 120.88 76.2891 120.29C76.0007 119.7 75.8565 119.01 75.8565 118.222C75.8565 117.426 76.0007 116.732 76.2891 116.138C76.5807 115.545 76.9851 115.085 77.5021 114.756C78.0225 114.428 78.6274 114.264 79.3168 114.264C80.0062 114.264 80.6094 114.428 81.1264 114.756C81.6468 115.085 82.0511 115.545 82.3395 116.138C82.6312 116.732 82.777 117.426 82.777 118.222C82.777 119.01 82.6312 119.7 82.3395 120.29C82.0511 120.88 81.6468 121.339 81.1264 121.667C80.6094 121.995 80.0062 122.159 79.3168 122.159ZM79.3168 121.105C79.8404 121.105 80.2713 120.971 80.6094 120.702C80.9474 120.434 81.1977 120.081 81.3601 119.643C81.5225 119.206 81.6037 118.732 81.6037 118.222C81.6037 117.711 81.5225 117.236 81.3601 116.795C81.1977 116.354 80.9474 115.998 80.6094 115.726C80.2713 115.454 79.8404 115.318 79.3168 115.318C78.7931 115.318 78.3622 115.454 78.0241 115.726C77.6861 115.998 77.4358 116.354 77.2734 116.795C77.111 117.236 77.0298 117.711 77.0298 118.222C77.0298 118.732 77.111 119.206 77.2734 119.643C77.4358 120.081 77.6861 120.434 78.0241 120.702C78.3622 120.971 78.7931 121.105 79.3168 121.105ZM84.568 122V114.364H85.7413V122H84.568ZM85.1646 113.091C84.9359 113.091 84.7387 113.013 84.573 112.857C84.4106 112.701 84.3294 112.514 84.3294 112.295C84.3294 112.077 84.4106 111.889 84.573 111.734C84.7387 111.578 84.9359 111.5 85.1646 111.5C85.3933 111.5 85.5888 111.578 85.7512 111.734C85.917 111.889 85.9998 112.077 85.9998 112.295C85.9998 112.514 85.917 112.701 85.7512 112.857C85.5888 113.013 85.3933 113.091 85.1646 113.091ZM90.9925 122.159C90.2766 122.159 89.6602 121.99 89.1431 121.652C88.6261 121.314 88.2283 120.848 87.9499 120.255C87.6715 119.662 87.5323 118.984 87.5323 118.222C87.5323 117.446 87.6748 116.762 87.9599 116.168C88.2482 115.572 88.6493 115.106 89.163 114.771C89.68 114.433 90.2833 114.264 90.9727 114.264C91.5096 114.264 91.9935 114.364 92.4244 114.562C92.8552 114.761 93.2082 115.04 93.4833 115.398C93.7584 115.756 93.9291 116.173 93.9954 116.651H92.8221C92.7326 116.303 92.5337 115.994 92.2255 115.726C91.9206 115.454 91.5096 115.318 90.9925 115.318C90.5352 115.318 90.1341 115.437 89.7894 115.676C89.448 115.911 89.1812 116.245 88.989 116.675C88.8001 117.103 88.7056 117.605 88.7056 118.182C88.7056 118.772 88.7984 119.286 88.984 119.723C89.1729 120.161 89.4381 120.5 89.7795 120.742C90.1242 120.984 90.5285 121.105 90.9925 121.105C91.2975 121.105 91.5742 121.052 91.8228 120.946C92.0714 120.84 92.2818 120.688 92.4542 120.489C92.6265 120.29 92.7492 120.051 92.8221 119.773H93.9954C93.9291 120.223 93.765 120.629 93.5032 120.991C93.2447 121.349 92.9016 121.634 92.4741 121.846C92.0498 122.055 91.556 122.159 90.9925 122.159ZM98.9123 122.159C98.1765 122.159 97.5418 121.997 97.0082 121.672C96.4779 121.344 96.0685 120.886 95.7802 120.3C95.4951 119.71 95.3526 119.024 95.3526 118.241C95.3526 117.459 95.4951 116.77 95.7802 116.173C96.0685 115.573 96.4696 115.106 96.9833 114.771C97.5004 114.433 98.1036 114.264 98.793 114.264C99.1907 114.264 99.5835 114.33 99.9712 114.463C100.359 114.596 100.712 114.811 101.03 115.109C101.348 115.404 101.602 115.795 101.791 116.283C101.98 116.77 102.074 117.37 102.074 118.082V118.58H96.1879V117.565H100.881C100.881 117.134 100.795 116.75 100.623 116.412C100.453 116.074 100.212 115.807 99.8967 115.612C99.5851 115.416 99.2172 115.318 98.793 115.318C98.3256 115.318 97.9213 115.434 97.5799 115.666C97.2418 115.895 96.9817 116.193 96.7994 116.561C96.6171 116.929 96.5259 117.323 96.5259 117.744V118.42C96.5259 118.997 96.6254 119.486 96.8242 119.887C97.0264 120.285 97.3065 120.588 97.6644 120.797C98.0224 121.002 98.4383 121.105 98.9123 121.105C99.2205 121.105 99.4989 121.062 99.7475 120.976C99.9994 120.886 100.217 120.754 100.399 120.578C100.581 120.399 100.722 120.177 100.821 119.912L101.955 120.23C101.836 120.615 101.635 120.953 101.353 121.244C101.072 121.533 100.724 121.758 100.309 121.92C99.895 122.08 99.4293 122.159 98.9123 122.159ZM111.595 122L113.265 111.818H114.26L112.589 122H111.595ZM106.961 119.176L107.12 118.182H114.717L114.558 119.176H106.961ZM108.015 122L109.686 111.818H110.68L109.01 122H108.015ZM107.558 115.636L107.717 114.642H115.314L115.154 115.636H107.558ZM116.37 119.912V118.898L120.844 111.818H121.58V113.389H121.083L117.702 118.739V118.818H123.728V119.912H116.37ZM121.163 122V119.604V119.131V111.818H122.336V122H121.163ZM128.912 122.139C128.163 122.139 127.525 121.935 126.998 121.528C126.471 121.117 126.068 120.522 125.79 119.743C125.512 118.961 125.372 118.016 125.372 116.909C125.372 115.809 125.512 114.869 125.79 114.09C126.072 113.308 126.476 112.711 127.003 112.3C127.533 111.886 128.17 111.679 128.912 111.679C129.655 111.679 130.289 111.886 130.816 112.3C131.347 112.711 131.751 113.308 132.029 114.09C132.311 114.869 132.452 115.809 132.452 116.909C132.452 118.016 132.313 118.961 132.034 119.743C131.756 120.522 131.353 121.117 130.826 121.528C130.299 121.935 129.661 122.139 128.912 122.139ZM128.912 121.045C129.655 121.045 130.231 120.687 130.642 119.972C131.053 119.256 131.259 118.235 131.259 116.909C131.259 116.027 131.164 115.277 130.975 114.657C130.79 114.037 130.521 113.565 130.17 113.24C129.822 112.915 129.403 112.753 128.912 112.753C128.176 112.753 127.601 113.116 127.187 113.842C126.773 114.564 126.566 115.587 126.566 116.909C126.566 117.791 126.658 118.54 126.844 119.156C127.03 119.773 127.296 120.242 127.644 120.563C127.996 120.885 128.418 121.045 128.912 121.045Z" fill="#233D48"/>
<line x1="4.37114e-08" y1="143.5" x2="274" y2="143.5" stroke="#DADFE2"/>
<path fill-rule="evenodd" clip-rule="evenodd" d="M22 162C20.8954 162 20 162.895 20 164V180C20 181.105 20.8954 182 22 182H34C35.1046 182 36 181.105 36 180V167.414C36 166.884 35.7893 166.375 35.4142 166L32 162.586C31.6249 162.211 31.1162 162 30.5858 162H22ZM22 180V164H30.5858L34 167.414V180H22ZM29.2932 169.707C28.6262 169.04 28.0032 169 27.9772 169C27.4492 169 27.0002 169.45 27.0002 170C27.0002 170.646 27.1282 170.752 28.2432 171.03C29.2742 171.288 31.0002 171.72 31.0002 174C30.998 174.618 30.8045 175.22 30.4465 175.724C30.0884 176.228 29.5832 176.609 29.0002 176.814V176.998C29.0002 177.263 28.8948 177.518 28.7073 177.705C28.5198 177.893 28.2654 177.998 28.0002 177.998C27.735 177.998 27.4806 177.893 27.2931 177.705C27.1056 177.518 27.0002 177.263 27.0002 176.998V176.798C26.3558 176.569 25.772 176.196 25.2932 175.708C25.1056 175.52 25.0001 175.266 25 175.001C24.9999 174.736 25.1052 174.481 25.2927 174.293C25.4802 174.106 25.7346 174 25.9998 174C26.2651 174 26.5196 174.105 26.7072 174.293C27.3742 174.96 27.9982 175 28.0242 175C28.5522 175 29.0002 174.552 29.0002 174C29.0002 173.354 28.8732 173.25 27.7582 172.97C26.7272 172.713 25.0002 172.28 25.0002 170C25.0022 169.382 25.1955 168.779 25.5536 168.275C25.9116 167.771 26.417 167.39 27.0002 167.184V167C27.0002 166.735 27.1056 166.48 27.2931 166.293C27.4806 166.105 27.735 166 28.0002 166C28.2654 166 28.5198 166.105 28.7073 166.293C28.8948 166.48 29.0002 166.735 29.0002 167V167.2C29.6451 167.429 30.229 167.803 30.7072 168.293C30.8894 168.482 30.9902 168.734 30.9879 168.996C30.9856 169.259 30.8804 169.509 30.695 169.695C30.5096 169.88 30.2588 169.985 29.9966 169.988C29.7344 169.99 29.4818 169.889 29.2932 169.707Z" fill="#225C8C"/>
<path d="M59.0376 163.818V174H56.8849V163.818H59.0376ZM62.8869 169.585V174H60.769V166.364H62.7875V167.711H62.877C63.046 167.267 63.3294 166.915 63.7271 166.657C64.1248 166.395 64.6071 166.264 65.1738 166.264C65.7041 166.264 66.1665 166.38 66.5609 166.612C66.9553 166.844 67.2619 167.176 67.4806 167.607C67.6994 168.034 67.8088 168.545 67.8088 169.138V174H65.6909V169.516C65.6942 169.048 65.5749 168.684 65.3329 168.422C65.091 168.157 64.7579 168.024 64.3336 168.024C64.0486 168.024 63.7967 168.085 63.5779 168.208C63.3625 168.331 63.1935 168.51 63.0708 168.745C62.9515 168.977 62.8902 169.257 62.8869 169.585ZM76.3239 166.364L73.6541 174H71.2678L68.598 166.364H70.8352L72.4212 171.827H72.5007L74.0817 166.364H76.3239ZM80.6119 174.149C79.8396 174.149 79.1718 173.985 78.6083 173.657C78.0482 173.326 77.6156 172.865 77.3107 172.275C77.0058 171.682 76.8533 170.994 76.8533 170.212C76.8533 169.423 77.0058 168.733 77.3107 168.143C77.6156 167.55 78.0482 167.089 78.6083 166.761C79.1718 166.43 79.8396 166.264 80.6119 166.264C81.3841 166.264 82.0503 166.43 82.6104 166.761C83.1739 167.089 83.6081 167.55 83.913 168.143C84.2179 168.733 84.3704 169.423 84.3704 170.212C84.3704 170.994 84.2179 171.682 83.913 172.275C83.6081 172.865 83.1739 173.326 82.6104 173.657C82.0503 173.985 81.3841 174.149 80.6119 174.149ZM80.6218 172.509C80.9731 172.509 81.2665 172.409 81.5018 172.21C81.7371 172.008 81.9144 171.733 82.0337 171.385C82.1564 171.037 82.2177 170.641 82.2177 170.197C82.2177 169.753 82.1564 169.357 82.0337 169.009C81.9144 168.661 81.7371 168.385 81.5018 168.183C81.2665 167.981 80.9731 167.88 80.6218 167.88C80.2672 167.88 79.9689 167.981 79.7269 168.183C79.4883 168.385 79.3076 168.661 79.185 169.009C79.0657 169.357 79.006 169.753 79.006 170.197C79.006 170.641 79.0657 171.037 79.185 171.385C79.3076 171.733 79.4883 172.008 79.7269 172.21C79.9689 172.409 80.2672 172.509 80.6218 172.509ZM85.7475 174V166.364H87.8654V174H85.7475ZM86.8114 165.379C86.4966 165.379 86.2264 165.275 86.0011 165.066C85.779 164.854 85.668 164.6 85.668 164.305C85.668 164.014 85.779 163.763 86.0011 163.555C86.2264 163.343 86.4966 163.237 86.8114 163.237C87.1263 163.237 87.3948 163.343 87.6168 163.555C87.8422 163.763 87.9549 164.014 87.9549 164.305C87.9549 164.6 87.8422 164.854 87.6168 165.066C87.3948 165.275 87.1263 165.379 86.8114 165.379ZM93.0123 174.149C92.2301 174.149 91.5572 173.983 90.9938 173.652C90.4337 173.317 90.0028 172.853 89.7012 172.26C89.4029 171.667 89.2537 170.984 89.2537 170.212C89.2537 169.429 89.4045 168.743 89.7061 168.153C90.0111 167.56 90.4436 167.098 91.0037 166.766C91.5639 166.432 92.2301 166.264 93.0023 166.264C93.6685 166.264 94.2518 166.385 94.7523 166.627C95.2528 166.869 95.6489 167.209 95.9405 167.646C96.2322 168.084 96.3929 168.598 96.4228 169.188H94.4242C94.3678 168.806 94.2187 168.5 93.9767 168.268C93.7381 168.032 93.4249 167.915 93.0371 167.915C92.709 167.915 92.4223 168.004 92.177 168.183C91.9351 168.359 91.7462 168.616 91.6103 168.954C91.4744 169.292 91.4064 169.701 91.4064 170.182C91.4064 170.669 91.4727 171.083 91.6053 171.425C91.7412 171.766 91.9318 172.026 92.177 172.205C92.4223 172.384 92.709 172.474 93.0371 172.474C93.2791 172.474 93.4962 172.424 93.6884 172.325C93.8839 172.225 94.0447 172.081 94.1706 171.892C94.2999 171.7 94.3844 171.469 94.4242 171.201H96.4228C96.3896 171.784 96.2305 172.298 95.9455 172.742C95.6638 173.183 95.2743 173.528 94.7772 173.776C94.28 174.025 93.6917 174.149 93.0123 174.149ZM101.259 174.149C100.473 174.149 99.7972 173.99 99.2305 173.672C98.667 173.35 98.2328 172.896 97.9279 172.31C97.623 171.72 97.4705 171.022 97.4705 170.217C97.4705 169.431 97.623 168.742 97.9279 168.148C98.2328 167.555 98.6621 167.093 99.2156 166.761C99.7724 166.43 100.425 166.264 101.174 166.264C101.678 166.264 102.147 166.345 102.581 166.508C103.019 166.667 103.4 166.907 103.725 167.229C104.053 167.55 104.308 167.955 104.49 168.442C104.673 168.926 104.764 169.492 104.764 170.142V170.724H98.3157V169.411H102.77C102.77 169.106 102.704 168.836 102.571 168.601C102.439 168.366 102.255 168.182 102.02 168.049C101.788 167.913 101.517 167.845 101.209 167.845C100.888 167.845 100.603 167.92 100.354 168.069C100.109 168.215 99.9165 168.412 99.7773 168.661C99.6381 168.906 99.5669 169.179 99.5636 169.481V170.729C99.5636 171.107 99.6332 171.433 99.7724 171.708C99.9149 171.983 100.115 172.195 100.374 172.344C100.632 172.494 100.939 172.568 101.294 172.568C101.529 172.568 101.744 172.535 101.94 172.469C102.136 172.402 102.303 172.303 102.442 172.17C102.581 172.038 102.687 171.875 102.76 171.683L104.719 171.812C104.62 172.283 104.416 172.694 104.108 173.045C103.803 173.393 103.408 173.665 102.924 173.861C102.444 174.053 101.889 174.149 101.259 174.149ZM112.836 174.149C112.054 174.149 111.381 173.983 110.818 173.652C110.258 173.317 109.827 172.853 109.525 172.26C109.227 171.667 109.078 170.984 109.078 170.212C109.078 169.429 109.229 168.743 109.53 168.153C109.835 167.56 110.268 167.098 110.828 166.766C111.388 166.432 112.054 166.264 112.827 166.264C113.493 166.264 114.076 166.385 114.577 166.627C115.077 166.869 115.473 167.209 115.765 167.646C116.056 168.084 116.217 168.598 116.247 169.188H114.248C114.192 168.806 114.043 168.5 113.801 168.268C113.562 168.032 113.249 167.915 112.861 167.915C112.533 167.915 112.247 168.004 112.001 168.183C111.759 168.359 111.57 168.616 111.434 168.954C111.299 169.292 111.231 169.701 111.231 170.182C111.231 170.669 111.297 171.083 111.43 171.425C111.565 171.766 111.756 172.026 112.001 172.205C112.247 172.384 112.533 172.474 112.861 172.474C113.103 172.474 113.32 172.424 113.513 172.325C113.708 172.225 113.869 172.081 113.995 171.892C114.124 171.7 114.209 171.469 114.248 171.201H116.247C116.214 171.784 116.055 172.298 115.77 172.742C115.488 173.183 115.099 173.528 114.601 173.776C114.104 174.025 113.516 174.149 112.836 174.149ZM117.603 174V166.364H119.656V167.696H119.736C119.875 167.222 120.109 166.864 120.437 166.622C120.765 166.377 121.143 166.254 121.57 166.254C121.676 166.254 121.791 166.261 121.913 166.274C122.036 166.287 122.144 166.306 122.237 166.329V168.208C122.137 168.178 122 168.152 121.824 168.129C121.648 168.105 121.487 168.094 121.342 168.094C121.03 168.094 120.752 168.162 120.506 168.298C120.264 168.43 120.072 168.616 119.93 168.854C119.79 169.093 119.721 169.368 119.721 169.68V174H117.603ZM126.456 174.149C125.671 174.149 124.994 173.99 124.428 173.672C123.864 173.35 123.43 172.896 123.125 172.31C122.82 171.72 122.668 171.022 122.668 170.217C122.668 169.431 122.82 168.742 123.125 168.148C123.43 167.555 123.859 167.093 124.413 166.761C124.97 166.43 125.623 166.264 126.372 166.264C126.875 166.264 127.344 166.345 127.779 166.508C128.216 166.667 128.597 166.907 128.922 167.229C129.25 167.55 129.505 167.955 129.688 168.442C129.87 168.926 129.961 169.492 129.961 170.142V170.724H123.513V169.411H127.968C127.968 169.106 127.901 168.836 127.769 168.601C127.636 168.366 127.452 168.182 127.217 168.049C126.985 167.913 126.715 167.845 126.406 167.845C126.085 167.845 125.8 167.92 125.551 168.069C125.306 168.215 125.114 168.412 124.975 168.661C124.835 168.906 124.764 169.179 124.761 169.481V170.729C124.761 171.107 124.83 171.433 124.97 171.708C125.112 171.983 125.313 172.195 125.571 172.344C125.83 172.494 126.136 172.568 126.491 172.568C126.726 172.568 126.942 172.535 127.137 172.469C127.333 172.402 127.5 172.303 127.639 172.17C127.779 172.038 127.885 171.875 127.958 171.683L129.916 171.812C129.817 172.283 129.613 172.694 129.305 173.045C129 173.393 128.606 173.665 128.122 173.861C127.641 174.053 127.086 174.149 126.456 174.149ZM133.521 174.144C133.034 174.144 132.599 174.06 132.218 173.891C131.837 173.718 131.535 173.465 131.313 173.13C131.095 172.792 130.985 172.371 130.985 171.867C130.985 171.443 131.063 171.087 131.219 170.798C131.375 170.51 131.587 170.278 131.855 170.102C132.124 169.927 132.429 169.794 132.77 169.705C133.115 169.615 133.476 169.552 133.854 169.516C134.298 169.469 134.656 169.426 134.928 169.386C135.2 169.343 135.397 169.28 135.519 169.197C135.642 169.115 135.703 168.992 135.703 168.83V168.8C135.703 168.485 135.604 168.241 135.405 168.069C135.209 167.897 134.931 167.81 134.57 167.81C134.189 167.81 133.885 167.895 133.66 168.064C133.435 168.23 133.285 168.438 133.213 168.69L131.254 168.531C131.353 168.067 131.549 167.666 131.84 167.328C132.132 166.987 132.508 166.725 132.969 166.543C133.433 166.357 133.97 166.264 134.58 166.264C135.004 166.264 135.41 166.314 135.798 166.413C136.189 166.513 136.535 166.667 136.837 166.876C137.142 167.085 137.382 167.353 137.558 167.681C137.733 168.006 137.821 168.395 137.821 168.849V174H135.813V172.941H135.753C135.63 173.18 135.466 173.39 135.261 173.572C135.055 173.751 134.808 173.892 134.52 173.995C134.232 174.094 133.899 174.144 133.521 174.144ZM134.127 172.683C134.439 172.683 134.714 172.621 134.953 172.499C135.191 172.373 135.378 172.204 135.514 171.991C135.65 171.779 135.718 171.539 135.718 171.271V170.46C135.652 170.503 135.561 170.543 135.445 170.58C135.332 170.613 135.204 170.644 135.062 170.674C134.919 170.701 134.777 170.725 134.634 170.749C134.492 170.768 134.363 170.787 134.247 170.803C133.998 170.84 133.781 170.898 133.595 170.977C133.41 171.057 133.266 171.165 133.163 171.3C133.06 171.433 133.009 171.599 133.009 171.798C133.009 172.086 133.113 172.306 133.322 172.459C133.534 172.608 133.802 172.683 134.127 172.683ZM143.526 166.364V167.955H138.927V166.364H143.526ZM139.971 164.534H142.089V171.653C142.089 171.849 142.119 172.001 142.179 172.111C142.238 172.217 142.321 172.291 142.427 172.335C142.537 172.378 142.663 172.399 142.805 172.399C142.905 172.399 143.004 172.391 143.104 172.374C143.203 172.354 143.279 172.339 143.332 172.33L143.665 173.906C143.559 173.939 143.41 173.977 143.218 174.02C143.026 174.066 142.792 174.094 142.517 174.104C142.006 174.124 141.559 174.056 141.175 173.901C140.793 173.745 140.497 173.503 140.285 173.175C140.073 172.847 139.968 172.432 139.971 171.932V164.534ZM148.304 174.149C147.518 174.149 146.842 173.99 146.275 173.672C145.712 173.35 145.278 172.896 144.973 172.31C144.668 171.72 144.515 171.022 144.515 170.217C144.515 169.431 144.668 168.742 144.973 168.148C145.278 167.555 145.707 167.093 146.26 166.761C146.817 166.43 147.47 166.264 148.219 166.264C148.723 166.264 149.192 166.345 149.626 166.508C150.064 166.667 150.445 166.907 150.77 167.229C151.098 167.55 151.353 167.955 151.535 168.442C151.718 168.926 151.809 169.492 151.809 170.142V170.724H145.361V169.411H149.815C149.815 169.106 149.749 168.836 149.616 168.601C149.484 168.366 149.3 168.182 149.064 168.049C148.832 167.913 148.562 167.845 148.254 167.845C147.933 167.845 147.648 167.92 147.399 168.069C147.154 168.215 146.961 168.412 146.822 168.661C146.683 168.906 146.612 169.179 146.608 169.481V170.729C146.608 171.107 146.678 171.433 146.817 171.708C146.96 171.983 147.16 172.195 147.419 172.344C147.677 172.494 147.984 172.568 148.339 172.568C148.574 172.568 148.789 172.535 148.985 172.469C149.18 172.402 149.348 172.303 149.487 172.17C149.626 172.038 149.732 171.875 149.805 171.683L151.764 171.812C151.665 172.283 151.461 172.694 151.153 173.045C150.848 173.393 150.453 173.665 149.969 173.861C149.489 174.053 148.934 174.149 148.304 174.149ZM156.005 174.124C155.425 174.124 154.899 173.975 154.429 173.677C153.961 173.375 153.59 172.933 153.315 172.349C153.043 171.763 152.907 171.044 152.907 170.192C152.907 169.317 153.048 168.589 153.33 168.009C153.612 167.426 153.986 166.99 154.454 166.702C154.924 166.41 155.44 166.264 156 166.264C156.427 166.264 156.784 166.337 157.069 166.483C157.357 166.625 157.589 166.804 157.765 167.02C157.944 167.232 158.08 167.441 158.172 167.646H158.237V163.818H160.35V174H158.262V172.777H158.172C158.073 172.989 157.932 173.2 157.75 173.408C157.571 173.614 157.337 173.785 157.049 173.92C156.764 174.056 156.416 174.124 156.005 174.124ZM156.676 172.439C157.017 172.439 157.306 172.346 157.541 172.161C157.78 171.972 157.962 171.708 158.088 171.37C158.217 171.032 158.282 170.636 158.282 170.182C158.282 169.728 158.219 169.333 158.093 168.999C157.967 168.664 157.785 168.405 157.546 168.223C157.307 168.041 157.017 167.95 156.676 167.95C156.328 167.95 156.035 168.044 155.796 168.233C155.557 168.422 155.377 168.684 155.254 169.018C155.131 169.353 155.07 169.741 155.07 170.182C155.07 170.626 155.131 171.019 155.254 171.36C155.38 171.698 155.561 171.963 155.796 172.156C156.035 172.344 156.328 172.439 156.676 172.439Z" fill="#032B3A"/>
<path d="M58.4659 183.818V194H57.233V183.818H58.4659ZM61.9522 189.406V194H60.7789V186.364H61.9125V187.557H62.0119C62.1909 187.169 62.4627 186.857 62.8272 186.622C63.1918 186.384 63.6625 186.264 64.2392 186.264C64.7562 186.264 65.2086 186.37 65.5964 186.582C65.9842 186.791 66.2858 187.109 66.5012 187.537C66.7167 187.961 66.8244 188.498 66.8244 189.148V194H65.6511V189.227C65.6511 188.627 65.4953 188.16 65.1838 187.825C64.8722 187.487 64.4447 187.318 63.9011 187.318C63.5266 187.318 63.1918 187.399 62.8968 187.562C62.6052 187.724 62.3748 187.961 62.2058 188.273C62.0368 188.584 61.9522 188.962 61.9522 189.406ZM74.9393 186.364L72.1154 194H70.9222L68.0984 186.364H69.3711L71.479 192.449H71.5586L73.6665 186.364H74.9393ZM79.3168 194.159C78.6274 194.159 78.0225 193.995 77.5021 193.667C76.9851 193.339 76.5807 192.88 76.2891 192.29C76.0007 191.7 75.8565 191.01 75.8565 190.222C75.8565 189.426 76.0007 188.732 76.2891 188.138C76.5807 187.545 76.9851 187.085 77.5021 186.756C78.0225 186.428 78.6274 186.264 79.3168 186.264C80.0062 186.264 80.6094 186.428 81.1264 186.756C81.6468 187.085 82.0511 187.545 82.3395 188.138C82.6312 188.732 82.777 189.426 82.777 190.222C82.777 191.01 82.6312 191.7 82.3395 192.29C82.0511 192.88 81.6468 193.339 81.1264 193.667C80.6094 193.995 80.0062 194.159 79.3168 194.159ZM79.3168 193.105C79.8404 193.105 80.2713 192.971 80.6094 192.702C80.9474 192.434 81.1977 192.081 81.3601 191.643C81.5225 191.206 81.6037 190.732 81.6037 190.222C81.6037 189.711 81.5225 189.236 81.3601 188.795C81.1977 188.354 80.9474 187.998 80.6094 187.726C80.2713 187.454 79.8404 187.318 79.3168 187.318C78.7931 187.318 78.3622 187.454 78.0241 187.726C77.6861 187.998 77.4358 188.354 77.2734 188.795C77.111 189.236 77.0298 189.711 77.0298 190.222C77.0298 190.732 77.111 191.206 77.2734 191.643C77.4358 192.081 77.6861 192.434 78.0241 192.702C78.3622 192.971 78.7931 193.105 79.3168 193.105ZM84.568 194V186.364H85.7413V194H84.568ZM85.1646 185.091C84.9359 185.091 84.7387 185.013 84.573 184.857C84.4106 184.701 84.3294 184.514 84.3294 184.295C84.3294 184.077 84.4106 183.889 84.573 183.734C84.7387 183.578 84.9359 183.5 85.1646 183.5C85.3933 183.5 85.5888 183.578 85.7512 183.734C85.917 183.889 85.9998 184.077 85.9998 184.295C85.9998 184.514 85.917 184.701 85.7512 184.857C85.5888 185.013 85.3933 185.091 85.1646 185.091ZM90.9925 194.159C90.2766 194.159 89.6602 193.99 89.1431 193.652C88.6261 193.314 88.2283 192.848 87.9499 192.255C87.6715 191.662 87.5323 190.984 87.5323 190.222C87.5323 189.446 87.6748 188.762 87.9599 188.168C88.2482 187.572 88.6493 187.106 89.163 186.771C89.68 186.433 90.2833 186.264 90.9727 186.264C91.5096 186.264 91.9935 186.364 92.4244 186.562C92.8552 186.761 93.2082 187.04 93.4833 187.398C93.7584 187.756 93.9291 188.173 93.9954 188.651H92.8221C92.7326 188.303 92.5337 187.994 92.2255 187.726C91.9206 187.454 91.5096 187.318 90.9925 187.318C90.5352 187.318 90.1341 187.437 89.7894 187.676C89.448 187.911 89.1812 188.245 88.989 188.675C88.8001 189.103 88.7056 189.605 88.7056 190.182C88.7056 190.772 88.7984 191.286 88.984 191.723C89.1729 192.161 89.4381 192.5 89.7795 192.742C90.1242 192.984 90.5285 193.105 90.9925 193.105C91.2975 193.105 91.5742 193.052 91.8228 192.946C92.0714 192.84 92.2818 192.688 92.4542 192.489C92.6265 192.29 92.7492 192.051 92.8221 191.773H93.9954C93.9291 192.223 93.765 192.629 93.5032 192.991C93.2447 193.349 92.9016 193.634 92.4741 193.846C92.0498 194.055 91.556 194.159 90.9925 194.159ZM98.9123 194.159C98.1765 194.159 97.5418 193.997 97.0082 193.672C96.4779 193.344 96.0685 192.886 95.7802 192.3C95.4951 191.71 95.3526 191.024 95.3526 190.241C95.3526 189.459 95.4951 188.77 95.7802 188.173C96.0685 187.573 96.4696 187.106 96.9833 186.771C97.5004 186.433 98.1036 186.264 98.793 186.264C99.1907 186.264 99.5835 186.33 99.9712 186.463C100.359 186.596 100.712 186.811 101.03 187.109C101.348 187.404 101.602 187.795 101.791 188.283C101.98 188.77 102.074 189.37 102.074 190.082V190.58H96.1879V189.565H100.881C100.881 189.134 100.795 188.75 100.623 188.412C100.453 188.074 100.212 187.807 99.8967 187.612C99.5851 187.416 99.2172 187.318 98.793 187.318C98.3256 187.318 97.9213 187.434 97.5799 187.666C97.2418 187.895 96.9817 188.193 96.7994 188.561C96.6171 188.929 96.5259 189.323 96.5259 189.744V190.42C96.5259 190.997 96.6254 191.486 96.8242 191.887C97.0264 192.285 97.3065 192.588 97.6644 192.797C98.0224 193.002 98.4383 193.105 98.9123 193.105C99.2205 193.105 99.4989 193.062 99.7475 192.976C99.9994 192.886 100.217 192.754 100.399 192.578C100.581 192.399 100.722 192.177 100.821 191.912L101.955 192.23C101.836 192.615 101.635 192.953 101.353 193.244C101.072 193.533 100.724 193.758 100.309 193.92C99.895 194.08 99.4293 194.159 98.9123 194.159ZM111.595 194L113.265 183.818H114.26L112.589 194H111.595ZM106.961 191.176L107.12 190.182H114.717L114.558 191.176H106.961ZM108.015 194L109.686 183.818H110.68L109.01 194H108.015ZM107.558 187.636L107.717 186.642H115.314L115.154 187.636H107.558ZM116.37 191.912V190.898L120.844 183.818H121.58V185.389H121.083L117.702 190.739V190.818H123.728V191.912H116.37ZM121.163 194V191.604V191.131V183.818H122.336V194H121.163ZM129.034 183.818V194H127.801V185.111H127.741L125.256 186.761V185.509L127.801 183.818H129.034Z" fill="#233D48"/>
<line x1="4.37114e-08" y1="215.5" x2="274" y2="215.5" stroke="#DADFE2"/>
</g>
<defs>
<clipPath id="clip0_2_5124">
<path d="M0 8C0 3.58172 3.58172 0 8 0H266C270.418 0 274 3.58172 274 8V208C274 212.418 270.418 216 266 216H8C3.58173 216 0 212.418 0 208V8Z" fill="white"/>
</clipPath>
</defs>
</svg>
