<svg width="224" height="117" viewBox="0 0 224 117" fill="none" xmlns="http://www.w3.org/2000/svg">
<g clip-path="url(#clip0_2_12032)">
<g clip-path="url(#clip1_2_12032)">
<path d="M28 15.2087C28 12.8843 29.8843 11 32.2087 11H192.791C195.116 11 197 12.8843 197 15.2087V120.426C197 122.75 195.116 124.635 192.791 124.635H32.2087C29.8843 124.635 28 122.75 28 120.426V15.2087Z" fill="white"/>
<path fill-rule="evenodd" clip-rule="evenodd" d="M39.5746 20.4696C38.9935 20.4696 38.5225 20.9407 38.5225 21.5218V29.9392C38.5225 30.5203 38.9935 30.9913 39.5746 30.9913H45.8877C46.4688 30.9913 46.9399 30.5203 46.9399 29.9392V23.318C46.9399 23.0389 46.829 22.7713 46.6317 22.574L44.8355 20.7778C44.6382 20.5805 44.3706 20.4696 44.0915 20.4696H39.5746ZM39.5746 29.9392V21.5218H44.0915L45.8877 23.318V29.9392H39.5746ZM43.4115 24.5242C43.0606 24.1733 42.7328 24.1522 42.7192 24.1522C42.4414 24.1522 42.2052 24.389 42.2052 24.6783C42.2052 25.0182 42.2725 25.0739 42.8591 25.2202C43.4015 25.3559 44.3095 25.5832 44.3095 26.7826C44.3083 27.1078 44.2066 27.4247 44.0182 27.6897C43.8298 27.9548 43.5641 28.155 43.2573 28.2631V28.3599C43.2573 28.4994 43.2019 28.6332 43.1033 28.7319C43.0046 28.8305 42.8708 28.8859 42.7313 28.8859C42.5917 28.8859 42.4579 28.8305 42.3593 28.7319C42.2606 28.6332 42.2052 28.4994 42.2052 28.3599V28.2546C41.8662 28.1342 41.5591 27.9381 41.3071 27.6812C41.2084 27.5826 41.1529 27.4487 41.1529 27.3092C41.1528 27.1696 41.2082 27.0358 41.3069 26.9371C41.4055 26.8383 41.5393 26.7829 41.6789 26.7828C41.8185 26.7828 41.9523 26.8381 42.051 26.9368C42.4019 27.2877 42.7302 27.3087 42.7439 27.3087C43.0217 27.3087 43.2573 27.073 43.2573 26.7826C43.2573 26.4428 43.1905 26.3881 42.604 26.2408C42.0616 26.1056 41.153 25.8778 41.153 24.6783C41.154 24.353 41.2557 24.0359 41.4441 23.7707C41.6325 23.5054 41.8983 23.305 42.2052 23.1968V23.1C42.2052 22.9605 42.2606 22.8267 42.3593 22.728C42.4579 22.6294 42.5917 22.574 42.7313 22.574C42.8708 22.574 43.0046 22.6294 43.1033 22.728C43.2019 22.8267 43.2573 22.9605 43.2573 23.1V23.2053C43.5966 23.3259 43.9038 23.5226 44.1554 23.7803C44.2512 23.8795 44.3042 24.0124 44.303 24.1503C44.3018 24.2883 44.2465 24.4202 44.149 24.5177C44.0514 24.6153 43.9195 24.6706 43.7815 24.6718C43.6436 24.673 43.5107 24.62 43.4115 24.5242Z" fill="#225C8C"/>
<path d="M59.059 21.0609V26.4174H57.9265V21.0609H59.059ZM61.084 24.0949V26.4174H59.9698V22.4H61.0317V23.1088H61.0788C61.1677 22.8752 61.3168 22.6903 61.5261 22.5543C61.7353 22.4166 61.989 22.3477 62.2872 22.3477C62.5662 22.3477 62.8094 22.4087 63.0169 22.5308C63.2244 22.6529 63.3857 22.8272 63.5008 23.0539C63.6158 23.2788 63.6734 23.5474 63.6734 23.8595V26.4174H62.5592V24.0582C62.5609 23.8124 62.4982 23.6206 62.3709 23.4828C62.2436 23.3433 62.0683 23.2736 61.8452 23.2736C61.6952 23.2736 61.5627 23.3059 61.4476 23.3704C61.3343 23.4349 61.2453 23.529 61.1808 23.6528C61.118 23.7749 61.0858 23.9222 61.084 24.0949ZM68.1531 22.4L66.7485 26.4174H65.4931L64.0886 22.4H65.2656L66.0999 25.2745H66.1417L66.9735 22.4H68.1531ZM70.4089 26.4959C70.0026 26.4959 69.6513 26.4096 69.3549 26.237C69.0602 26.0626 68.8326 25.8202 68.6722 25.5098C68.5118 25.1977 68.4316 24.8359 68.4316 24.4244C68.4316 24.0094 68.5118 23.6467 68.6722 23.3364C68.8326 23.0243 69.0602 22.7819 69.3549 22.6093C69.6513 22.4349 70.0026 22.3477 70.4089 22.3477C70.8152 22.3477 71.1657 22.4349 71.4603 22.6093C71.7568 22.7819 71.9852 23.0243 72.1456 23.3364C72.306 23.6467 72.3862 24.0094 72.3862 24.4244C72.3862 24.8359 72.306 25.1977 72.1456 25.5098C71.9852 25.8202 71.7568 26.0626 71.4603 26.237C71.1657 26.4096 70.8152 26.4959 70.4089 26.4959ZM70.4141 25.6328C70.599 25.6328 70.7533 25.5805 70.8771 25.4758C71.0009 25.3695 71.0942 25.2248 71.1569 25.0417C71.2215 24.8586 71.2537 24.6502 71.2537 24.4166C71.2537 24.1829 71.2215 23.9746 71.1569 23.7915C71.0942 23.6084 71.0009 23.4637 70.8771 23.3573C70.7533 23.2509 70.599 23.1978 70.4141 23.1978C70.2276 23.1978 70.0706 23.2509 69.9434 23.3573C69.8178 23.4637 69.7228 23.6084 69.6583 23.7915C69.5955 23.9746 69.5641 24.1829 69.5641 24.4166C69.5641 24.6502 69.5955 24.8586 69.6583 25.0417C69.7228 25.2248 69.8178 25.3695 69.9434 25.4758C70.0706 25.5805 70.2276 25.6328 70.4141 25.6328ZM73.1107 26.4174V22.4H74.2249V26.4174H73.1107ZM73.6704 21.8822C73.5048 21.8822 73.3627 21.8272 73.2441 21.7174C73.1273 21.6058 73.0689 21.4724 73.0689 21.3172C73.0689 21.1638 73.1273 21.0321 73.2441 20.9223C73.3627 20.8107 73.5048 20.7549 73.6704 20.7549C73.8361 20.7549 73.9773 20.8107 74.0941 20.9223C74.2127 21.0321 74.272 21.1638 74.272 21.3172C74.272 21.4724 74.2127 21.6058 74.0941 21.7174C73.9773 21.8272 73.8361 21.8822 73.6704 21.8822ZM76.9326 26.4959C76.5211 26.4959 76.1671 26.4087 75.8707 26.2343C75.576 26.0582 75.3494 25.8141 75.1907 25.502C75.0338 25.1899 74.9553 24.8307 74.9553 24.4244C74.9553 24.0129 75.0346 23.652 75.1933 23.3416C75.3537 23.0295 75.5813 22.7862 75.8759 22.6119C76.1706 22.4358 76.5211 22.3477 76.9274 22.3477C77.2778 22.3477 77.5847 22.4114 77.848 22.5386C78.1113 22.6659 78.3197 22.8447 78.4731 23.0748C78.6266 23.305 78.7111 23.5753 78.7268 23.8856H77.6754C77.6458 23.6851 77.5673 23.5238 77.44 23.4018C77.3145 23.278 77.1497 23.2161 76.9457 23.2161C76.7731 23.2161 76.6222 23.2631 76.4932 23.3573C76.3659 23.4497 76.2665 23.5848 76.195 23.7627C76.1235 23.9406 76.0878 24.1559 76.0878 24.4087C76.0878 24.665 76.1227 24.883 76.1924 25.0626C76.2639 25.2422 76.3642 25.3791 76.4932 25.4732C76.6222 25.5674 76.7731 25.6145 76.9457 25.6145C77.073 25.6145 77.1872 25.5883 77.2883 25.536C77.3912 25.4837 77.4757 25.4078 77.542 25.3085C77.61 25.2073 77.6545 25.0861 77.6754 24.9449H78.7268C78.7094 25.2518 78.6257 25.5221 78.4757 25.7557C78.3275 25.9876 78.1226 26.1689 77.8611 26.2997C77.5995 26.4305 77.2901 26.4959 76.9326 26.4959ZM81.271 26.4959C80.8578 26.4959 80.5021 26.4122 80.2039 26.2448C79.9075 26.0757 79.6791 25.8368 79.5187 25.5282C79.3582 25.2178 79.278 24.8507 79.278 24.427C79.278 24.0138 79.3582 23.6511 79.5187 23.339C79.6791 23.0269 79.9049 22.7836 80.1961 22.6093C80.489 22.4349 80.8325 22.3477 81.2266 22.3477C81.4916 22.3477 81.7383 22.3904 81.9668 22.4759C82.1969 22.5596 82.3974 22.686 82.5683 22.8551C82.7409 23.0243 82.8752 23.237 82.9711 23.4933C83.067 23.7479 83.115 24.046 83.115 24.3878V24.6938H79.7227V24.0033H82.0662C82.0662 23.8429 82.0313 23.7008 81.9615 23.577C81.8918 23.4532 81.795 23.3564 81.6712 23.2867C81.5492 23.2152 81.407 23.1794 81.2449 23.1794C81.0758 23.1794 80.9258 23.2187 80.795 23.2971C80.666 23.3739 80.5649 23.4776 80.4916 23.6084C80.4184 23.7374 80.3809 23.8813 80.3792 24.0399V24.6964C80.3792 24.8952 80.4158 25.067 80.489 25.2117C80.564 25.3564 80.6695 25.468 80.8055 25.5465C80.9415 25.6249 81.1028 25.6642 81.2894 25.6642C81.4132 25.6642 81.5265 25.6467 81.6294 25.6118C81.7322 25.577 81.8203 25.5247 81.8935 25.4549C81.9668 25.3852 82.0226 25.2997 82.0609 25.1986L83.0914 25.2666C83.0391 25.5142 82.9319 25.7304 82.7697 25.9152C82.6093 26.0983 82.4018 26.2413 82.1472 26.3442C81.8944 26.4453 81.6023 26.4959 81.271 26.4959ZM87.3619 26.4959C86.9504 26.4959 86.5964 26.4087 86.3 26.2343C86.0053 26.0582 85.7786 25.8141 85.6199 25.502C85.463 25.1899 85.3846 24.8307 85.3846 24.4244C85.3846 24.0129 85.4639 23.652 85.6226 23.3416C85.783 23.0295 86.0105 22.7862 86.3052 22.6119C86.5999 22.4358 86.9504 22.3477 87.3566 22.3477C87.7071 22.3477 88.014 22.4114 88.2773 22.5386C88.5406 22.6659 88.7489 22.8447 88.9024 23.0748C89.0558 23.305 89.1404 23.5753 89.1561 23.8856H88.1047C88.075 23.6851 87.9966 23.5238 87.8693 23.4018C87.7437 23.278 87.5789 23.2161 87.3749 23.2161C87.2023 23.2161 87.0515 23.2631 86.9225 23.3573C86.7952 23.4497 86.6958 23.5848 86.6243 23.7627C86.5528 23.9406 86.5171 24.1559 86.5171 24.4087C86.5171 24.665 86.5519 24.883 86.6217 25.0626C86.6932 25.2422 86.7934 25.3791 86.9225 25.4732C87.0515 25.5674 87.2023 25.6145 87.3749 25.6145C87.5022 25.6145 87.6164 25.5883 87.7176 25.536C87.8204 25.4837 87.905 25.4078 87.9713 25.3085C88.0393 25.2073 88.0837 25.0861 88.1047 24.9449H89.1561C89.1387 25.2518 89.055 25.5221 88.905 25.7557C88.7568 25.9876 88.5519 26.1689 88.2904 26.2997C88.0288 26.4305 87.7193 26.4959 87.3619 26.4959ZM89.8695 26.4174V22.4H90.9497V23.101H90.9915C91.0647 22.8516 91.1877 22.6633 91.3603 22.536C91.5329 22.407 91.7317 22.3425 91.9566 22.3425C92.0124 22.3425 92.0726 22.346 92.1371 22.3529C92.2016 22.3599 92.2583 22.3695 92.3071 22.3817V23.3704C92.2548 23.3547 92.1824 23.3407 92.09 23.3285C91.9976 23.3163 91.913 23.3102 91.8363 23.3102C91.6724 23.3102 91.5259 23.346 91.3969 23.4175C91.2696 23.4872 91.1685 23.5848 91.0935 23.7104C91.0203 23.8359 90.9837 23.9807 90.9837 24.1446V26.4174H89.8695ZM94.527 26.4959C94.1137 26.4959 93.758 26.4122 93.4599 26.2448C93.1635 26.0757 92.935 25.8368 92.7746 25.5282C92.6142 25.2178 92.534 24.8507 92.534 24.427C92.534 24.0138 92.6142 23.6511 92.7746 23.339C92.935 23.0269 93.1608 22.7836 93.452 22.6093C93.745 22.4349 94.0885 22.3477 94.4825 22.3477C94.7476 22.3477 94.9943 22.3904 95.2227 22.4759C95.4529 22.5596 95.6534 22.686 95.8243 22.8551C95.9969 23.0243 96.1312 23.237 96.2271 23.4933C96.323 23.7479 96.3709 24.046 96.3709 24.3878V24.6938H92.9786V24.0033H95.3221C95.3221 23.8429 95.2872 23.7008 95.2175 23.577C95.1477 23.4532 95.051 23.3564 94.9272 23.2867C94.8051 23.2152 94.663 23.1794 94.5008 23.1794C94.3317 23.1794 94.1817 23.2187 94.051 23.2971C93.9219 23.3739 93.8208 23.4776 93.7476 23.6084C93.6743 23.7374 93.6369 23.8813 93.6351 24.0399V24.6964C93.6351 24.8952 93.6717 25.067 93.745 25.2117C93.8199 25.3564 93.9254 25.468 94.0614 25.5465C94.1974 25.6249 94.3587 25.6642 94.5453 25.6642C94.6691 25.6642 94.7824 25.6467 94.8853 25.6118C94.9882 25.577 95.0762 25.5247 95.1495 25.4549C95.2227 25.3852 95.2785 25.2997 95.3169 25.1986L96.3474 25.2666C96.2951 25.5142 96.1878 25.7304 96.0257 25.9152C95.8653 26.0983 95.6578 26.2413 95.4032 26.3442C95.1504 26.4453 94.8583 26.4959 94.527 26.4959ZM98.2436 26.4933C97.9873 26.4933 97.7589 26.4488 97.5583 26.3599C97.3578 26.2692 97.1992 26.1358 97.0823 25.9597C96.9672 25.7819 96.9097 25.5604 96.9097 25.2954C96.9097 25.0722 96.9507 24.8847 97.0326 24.733C97.1146 24.5813 97.2262 24.4593 97.3674 24.3669C97.5087 24.2745 97.6691 24.2047 97.8487 24.1576C98.03 24.1106 98.2201 24.0774 98.4188 24.0582C98.6525 24.0338 98.8408 24.0112 98.9838 23.9902C99.1268 23.9676 99.2305 23.9344 99.295 23.8909C99.3595 23.8473 99.3918 23.7828 99.3918 23.6973V23.6816C99.3918 23.516 99.3395 23.3878 99.2349 23.2971C99.132 23.2065 98.9855 23.1611 98.7955 23.1611C98.5949 23.1611 98.4354 23.2056 98.3168 23.2945C98.1983 23.3817 98.1198 23.4916 98.0814 23.6241L97.0509 23.5404C97.1032 23.2963 97.2061 23.0853 97.3596 22.9074C97.513 22.7278 97.7109 22.5901 97.9533 22.4942C98.1974 22.3965 98.4799 22.3477 98.8007 22.3477C99.0239 22.3477 99.2375 22.3739 99.4415 22.4262C99.6472 22.4785 99.8295 22.5596 99.9881 22.6694C100.149 22.7793 100.275 22.9205 100.367 23.0931C100.46 23.264 100.506 23.4689 100.506 23.7078V26.4174H99.4493V25.8603H99.418C99.3534 25.9859 99.2671 26.0966 99.159 26.1925C99.0509 26.2866 98.921 26.3608 98.7693 26.4148C98.6176 26.4671 98.4424 26.4933 98.2436 26.4933ZM98.5627 25.7243C98.7266 25.7243 98.8713 25.6921 98.9969 25.6275C99.1224 25.5613 99.2209 25.4724 99.2924 25.3608C99.3639 25.2492 99.3996 25.1228 99.3996 24.9815V24.5552C99.3648 24.5779 99.3168 24.5988 99.2558 24.618C99.1965 24.6354 99.1294 24.652 99.0544 24.6677C98.9794 24.6816 98.9044 24.6947 98.8295 24.7069C98.7545 24.7174 98.6865 24.7269 98.6255 24.7357C98.4947 24.7548 98.3805 24.7854 98.2828 24.8272C98.1852 24.869 98.1093 24.9257 98.0553 24.9972C98.0012 25.067 97.9742 25.1541 97.9742 25.2588C97.9742 25.4105 98.0291 25.5264 98.139 25.6066C98.2506 25.6851 98.3918 25.7243 98.5627 25.7243ZM103.507 22.4V23.237H101.088V22.4H103.507ZM101.637 21.4375H102.751V25.1829C102.751 25.2858 102.767 25.366 102.798 25.4235C102.83 25.4793 102.873 25.5186 102.929 25.5412C102.987 25.5639 103.053 25.5752 103.128 25.5752C103.18 25.5752 103.233 25.5709 103.285 25.5622C103.337 25.5517 103.377 25.5438 103.405 25.5386L103.581 26.3677C103.525 26.3852 103.446 26.4052 103.345 26.4279C103.244 26.4523 103.121 26.4671 102.976 26.4723C102.708 26.4828 102.472 26.4471 102.27 26.3651C102.07 26.2832 101.914 26.1559 101.802 25.9832C101.69 25.8106 101.635 25.5927 101.637 25.3294V21.4375ZM106.021 26.4959C105.608 26.4959 105.252 26.4122 104.954 26.2448C104.657 26.0757 104.429 25.8368 104.268 25.5282C104.108 25.2178 104.028 24.8507 104.028 24.427C104.028 24.0138 104.108 23.6511 104.268 23.339C104.429 23.0269 104.655 22.7836 104.946 22.6093C105.239 22.4349 105.582 22.3477 105.976 22.3477C106.241 22.3477 106.488 22.3904 106.716 22.4759C106.947 22.5596 107.147 22.686 107.318 22.8551C107.491 23.0243 107.625 23.237 107.721 23.4933C107.817 23.7479 107.865 24.046 107.865 24.3878V24.6938H104.472V24.0033H106.816C106.816 23.8429 106.781 23.7008 106.711 23.577C106.642 23.4532 106.545 23.3564 106.421 23.2867C106.299 23.2152 106.157 23.1794 105.995 23.1794C105.825 23.1794 105.676 23.2187 105.545 23.2971C105.416 23.3739 105.315 23.4776 105.241 23.6084C105.168 23.7374 105.131 23.8813 105.129 24.0399V24.6964C105.129 24.8952 105.165 25.067 105.239 25.2117C105.314 25.3564 105.419 25.468 105.555 25.5465C105.691 25.6249 105.852 25.6642 106.039 25.6642C106.163 25.6642 106.276 25.6467 106.379 25.6118C106.482 25.577 106.57 25.5247 106.643 25.4549C106.716 25.3852 106.772 25.2997 106.811 25.1986L107.841 25.2666C107.789 25.5142 107.682 25.7304 107.519 25.9152C107.359 26.0983 107.152 26.2413 106.897 26.3442C106.644 26.4453 106.352 26.4959 106.021 26.4959ZM110.072 26.4828C109.767 26.4828 109.491 26.4043 109.243 26.2474C108.997 26.0887 108.802 25.856 108.657 25.5491C108.514 25.2404 108.443 24.8621 108.443 24.414C108.443 23.9536 108.517 23.5709 108.665 23.2658C108.813 22.9589 109.01 22.7296 109.256 22.5779C109.504 22.4244 109.775 22.3477 110.07 22.3477C110.294 22.3477 110.482 22.3861 110.632 22.4628C110.784 22.5378 110.906 22.6319 110.998 22.7453C111.092 22.8569 111.164 22.9667 111.213 23.0748H111.247V21.0609H112.358V26.4174H111.26V25.774H111.213C111.16 25.8856 111.086 25.9963 110.99 26.1062C110.896 26.2143 110.773 26.3041 110.621 26.3756C110.471 26.4471 110.288 26.4828 110.072 26.4828ZM110.425 25.5962C110.605 25.5962 110.757 25.5473 110.88 25.4497C111.006 25.3503 111.102 25.2117 111.168 25.0338C111.236 24.856 111.27 24.6476 111.27 24.4087C111.27 24.1698 111.237 23.9623 111.171 23.7862C111.104 23.6101 111.008 23.4741 110.883 23.3782C110.757 23.2823 110.605 23.2344 110.425 23.2344C110.242 23.2344 110.088 23.2841 109.962 23.3835C109.837 23.4828 109.742 23.6206 109.677 23.7967C109.613 23.9728 109.58 24.1768 109.58 24.4087C109.58 24.6424 109.613 24.849 109.677 25.0286C109.743 25.2064 109.839 25.3459 109.962 25.4471C110.088 25.5465 110.242 25.5962 110.425 25.5962Z" fill="#032B3A"/>
<path d="M58.7582 31.5826V36.9391H58.1096V31.5826H58.7582ZM60.5923 34.5224V36.9391H59.9751V32.9218H60.5714V33.5495H60.6237C60.7179 33.3455 60.8609 33.1816 61.0527 33.0578C61.2445 32.9322 61.4921 32.8694 61.7955 32.8694C62.0675 32.8694 62.3055 32.9252 62.5095 33.0368C62.7135 33.1467 62.8722 33.3141 62.9855 33.539C63.0988 33.7622 63.1555 34.0447 63.1555 34.3864V36.9391H62.5383V34.4283C62.5383 34.1127 62.4563 33.8668 62.2924 33.6907C62.1285 33.5129 61.9036 33.4239 61.6176 33.4239C61.4206 33.4239 61.2445 33.4667 61.0893 33.5521C60.9358 33.6375 60.8146 33.7622 60.7257 33.9261C60.6368 34.09 60.5923 34.2888 60.5923 34.5224ZM67.4246 32.9218L65.939 36.9391H65.3113L63.8257 32.9218H64.4953L65.6043 36.1231H65.6461L66.7551 32.9218H67.4246ZM69.7276 37.0228C69.3649 37.0228 69.0467 36.9365 68.7729 36.7639C68.5009 36.5913 68.2882 36.3498 68.1347 36.0394C67.9831 35.729 67.9072 35.3664 67.9072 34.9514C67.9072 34.5329 67.9831 34.1676 68.1347 33.8555C68.2882 33.5434 68.5009 33.301 68.7729 33.1284C69.0467 32.9558 69.3649 32.8694 69.7276 32.8694C70.0903 32.8694 70.4076 32.9558 70.6796 33.1284C70.9534 33.301 71.1661 33.5434 71.3178 33.8555C71.4712 34.1676 71.548 34.5329 71.548 34.9514C71.548 35.3664 71.4712 35.729 71.3178 36.0394C71.1661 36.3498 70.9534 36.5913 70.6796 36.7639C70.4076 36.9365 70.0903 37.0228 69.7276 37.0228ZM69.7276 36.4684C70.0031 36.4684 70.2298 36.3977 70.4076 36.2565C70.5855 36.1153 70.7171 35.9296 70.8025 35.6994C70.888 35.4692 70.9307 35.2199 70.9307 34.9514C70.9307 34.6829 70.888 34.4326 70.8025 34.2007C70.7171 33.9688 70.5855 33.7814 70.4076 33.6384C70.2298 33.4954 70.0031 33.4239 69.7276 33.4239C69.4521 33.4239 69.2254 33.4954 69.0476 33.6384C68.8697 33.7814 68.7381 33.9688 68.6526 34.2007C68.5672 34.4326 68.5245 34.6829 68.5245 34.9514C68.5245 35.2199 68.5672 35.4692 68.6526 35.6994C68.7381 35.9296 68.8697 36.1153 69.0476 36.2565C69.2254 36.3977 69.4521 36.4684 69.7276 36.4684ZM72.4902 36.9391V32.9218H73.1074V36.9391H72.4902ZM72.8041 32.2522C72.6837 32.2522 72.58 32.2112 72.4928 32.1293C72.4074 32.0473 72.3646 31.9488 72.3646 31.8337C72.3646 31.7186 72.4074 31.6201 72.4928 31.5382C72.58 31.4562 72.6837 31.4152 72.8041 31.4152C72.9244 31.4152 73.0272 31.4562 73.1127 31.5382C73.1999 31.6201 73.2435 31.7186 73.2435 31.8337C73.2435 31.9488 73.1999 32.0473 73.1127 32.1293C73.0272 32.2112 72.9244 32.2522 72.8041 32.2522ZM75.8701 37.0228C75.4934 37.0228 75.1691 36.9339 74.8971 36.7561C74.6251 36.5782 74.4158 36.3332 74.2694 36.0211C74.1229 35.709 74.0497 35.3524 74.0497 34.9514C74.0497 34.5434 74.1247 34.1833 74.2746 33.8712C74.4263 33.5573 74.6373 33.3123 74.9076 33.1362C75.1796 32.9584 75.4969 32.8694 75.8596 32.8694C76.1421 32.8694 76.3966 32.9218 76.6233 33.0264C76.85 33.131 77.0357 33.2775 77.1804 33.4658C77.3251 33.6541 77.4149 33.8738 77.4498 34.1249H76.8326C76.7855 33.9418 76.6809 33.7796 76.5187 33.6384C76.3583 33.4954 76.1421 33.4239 75.8701 33.4239C75.6294 33.4239 75.4184 33.4867 75.2371 33.6122C75.0575 33.736 74.9171 33.9113 74.816 34.138C74.7166 34.3629 74.6669 34.6271 74.6669 34.9305C74.6669 35.2408 74.7158 35.5111 74.8134 35.7413C74.9128 35.9714 75.0523 36.1501 75.2319 36.2774C75.4132 36.4047 75.6259 36.4684 75.8701 36.4684C76.0305 36.4684 76.1761 36.4405 76.3068 36.3847C76.4376 36.3289 76.5483 36.2487 76.639 36.144C76.7297 36.0394 76.7942 35.9139 76.8326 35.7674H77.4498C77.4149 36.0045 77.3286 36.2181 77.1909 36.4082C77.0549 36.5965 76.8744 36.7465 76.6495 36.8581C76.4263 36.9679 76.1665 37.0228 75.8701 37.0228ZM80.0365 37.0228C79.6494 37.0228 79.3155 36.9374 79.0348 36.7665C78.7558 36.5939 78.5405 36.3533 78.3888 36.0447C78.2388 35.7343 78.1638 35.3733 78.1638 34.9618C78.1638 34.5503 78.2388 34.1877 78.3888 33.8738C78.5405 33.5582 78.7515 33.3123 79.0217 33.1362C79.2937 32.9584 79.6111 32.8694 79.9738 32.8694C80.183 32.8694 80.3896 32.9043 80.5936 32.9741C80.7976 33.0438 80.9833 33.1572 81.1507 33.3141C81.3181 33.4693 81.4515 33.675 81.5509 33.9313C81.6503 34.1877 81.7 34.5033 81.7 34.8781V35.1397H78.6032V34.6061H81.0723C81.0723 34.3795 81.0269 34.1772 80.9363 33.9993C80.8473 33.8215 80.72 33.6811 80.5544 33.5782C80.3905 33.4754 80.1969 33.4239 79.9738 33.4239C79.7279 33.4239 79.5152 33.485 79.3356 33.607C79.1577 33.7273 79.0208 33.8843 78.9249 34.0778C78.829 34.2713 78.7811 34.4788 78.7811 34.7003V35.056C78.7811 35.3594 78.8334 35.6166 78.938 35.8276C79.0444 36.0368 79.1917 36.1963 79.38 36.3062C79.5684 36.4143 79.7872 36.4684 80.0365 36.4684C80.1987 36.4684 80.3452 36.4457 80.4759 36.4004C80.6085 36.3533 80.7227 36.2835 80.8186 36.1911C80.9145 36.097 80.9886 35.9801 81.0409 35.8406L81.6372 36.008C81.5744 36.2103 81.4689 36.3882 81.3207 36.5416C81.1725 36.6933 80.9894 36.8119 80.7715 36.8973C80.5535 36.981 80.3085 37.0228 80.0365 37.0228ZM86.7086 36.9391L87.5874 31.5826H88.1105L87.2317 36.9391H86.7086ZM84.271 35.4536L84.3547 34.9305H88.3512L88.2675 35.4536H84.271ZM84.8255 36.9391L85.7043 31.5826H86.2274L85.3486 36.9391H84.8255ZM84.5849 33.5913L84.6686 33.0682H88.665L88.5813 33.5913H84.5849ZM91.1563 37.0124C90.811 37.0124 90.5033 36.9531 90.233 36.8345C89.9645 36.716 89.7509 36.5512 89.5922 36.3402C89.4353 36.1275 89.3499 35.8807 89.3359 35.6H89.995C90.009 35.7726 90.0682 35.9217 90.1729 36.0473C90.2775 36.1711 90.4144 36.267 90.5835 36.335C90.7526 36.403 90.9401 36.437 91.1458 36.437C91.376 36.437 91.58 36.3969 91.7578 36.3167C91.9357 36.2365 92.0752 36.1249 92.1763 35.9819C92.2775 35.8389 92.328 35.6733 92.328 35.4849C92.328 35.2879 92.2792 35.1144 92.1816 34.9645C92.0839 34.8128 91.9409 34.6942 91.7526 34.6087C91.5643 34.5233 91.3341 34.4806 91.0621 34.4806H90.6332V33.9052H91.0621C91.2749 33.9052 91.4614 33.8668 91.6218 33.7901C91.784 33.7134 91.9104 33.6053 92.0011 33.4658C92.0935 33.3263 92.1397 33.1624 92.1397 32.9741C92.1397 32.7927 92.0996 32.6349 92.0194 32.5007C91.9392 32.3664 91.8258 32.2618 91.6794 32.1868C91.5347 32.1118 91.3638 32.0743 91.1667 32.0743C90.9819 32.0743 90.8076 32.1083 90.6436 32.1763C90.4815 32.2426 90.349 32.3394 90.2461 32.4667C90.1432 32.5922 90.0874 32.7439 90.0787 32.9218H89.451C89.4614 32.641 89.546 32.3952 89.7047 32.1842C89.8634 31.9715 90.0709 31.8058 90.3272 31.6872C90.5852 31.5687 90.8686 31.5094 91.1772 31.5094C91.5085 31.5094 91.7927 31.5765 92.0299 31.7108C92.267 31.8433 92.4492 32.0185 92.5765 32.2365C92.7038 32.4545 92.7674 32.6899 92.7674 32.9427C92.7674 33.2443 92.6881 33.5015 92.5294 33.7142C92.3725 33.927 92.1589 34.0743 91.8886 34.1563V34.1981C92.2269 34.2539 92.4911 34.3978 92.6811 34.6297C92.8712 34.8598 92.9662 35.1449 92.9662 35.4849C92.9662 35.7761 92.8869 36.0377 92.7282 36.2696C92.5713 36.4997 92.3568 36.6811 92.0848 36.8136C91.8128 36.9461 91.5033 37.0124 91.1563 37.0124ZM95.7412 31.5094C95.9609 31.5111 96.1806 31.553 96.4003 31.6349C96.62 31.7169 96.8206 31.8529 97.0019 32.043C97.1832 32.2313 97.3288 32.4885 97.4387 32.8145C97.5485 33.1406 97.6035 33.5495 97.6035 34.0412C97.6035 34.5172 97.5581 34.94 97.4675 35.3097C97.3785 35.6776 97.2495 35.988 97.0804 36.2408C96.913 36.4936 96.709 36.6854 96.4683 36.8162C96.2295 36.947 95.9592 37.0124 95.6575 37.0124C95.3576 37.0124 95.09 36.9531 94.8546 36.8345C94.6209 36.7142 94.4291 36.5477 94.2792 36.335C94.131 36.1205 94.0359 35.872 93.9941 35.5896H94.6323C94.6898 35.8354 94.804 36.0385 94.9749 36.199C95.1475 36.3576 95.3751 36.437 95.6575 36.437C96.0708 36.437 96.3969 36.2565 96.6357 35.8956C96.8764 35.5346 96.9967 35.0246 96.9967 34.3655H96.9548C96.8572 34.512 96.7412 34.6384 96.607 34.7448C96.4727 34.8511 96.3236 34.9331 96.1597 34.9906C95.9958 35.0481 95.8214 35.0769 95.6366 35.0769C95.3297 35.0769 95.0481 35.0011 94.7918 34.8494C94.5372 34.6959 94.3332 34.4858 94.1798 34.219C94.0281 33.9505 93.9522 33.6436 93.9522 33.2984C93.9522 32.9706 94.0255 32.6707 94.1719 32.3987C94.3202 32.1249 94.5276 31.9069 94.7944 31.7448C95.063 31.5826 95.3786 31.5042 95.7412 31.5094ZM95.7412 32.0848C95.5215 32.0848 95.3236 32.1397 95.1475 32.2496C94.9732 32.3577 94.8345 32.5042 94.7317 32.689C94.6305 32.8721 94.58 33.0752 94.58 33.2984C94.58 33.5216 94.6288 33.7247 94.7264 33.9078C94.8258 34.0891 94.9609 34.2339 95.1318 34.342C95.3044 34.4483 95.5006 34.5015 95.7203 34.5015C95.886 34.5015 96.0403 34.4693 96.1833 34.4047C96.3262 34.3385 96.4509 34.2487 96.5573 34.1353C96.6654 34.0203 96.7499 33.8904 96.811 33.7456C96.872 33.5992 96.9025 33.4466 96.9025 33.2879C96.9025 33.0787 96.8519 32.8825 96.7508 32.6994C96.6514 32.5164 96.5137 32.3681 96.3376 32.2548C96.1632 32.1415 95.9644 32.0848 95.7412 32.0848Z" fill="#233D48"/>
<path d="M159.306 27.087V20.3913H159.735V27.087H159.306ZM160.444 22.6014C160.423 22.3904 160.333 22.2265 160.174 22.1097C160.015 21.9929 159.8 21.9345 159.528 21.9345C159.343 21.9345 159.187 21.9606 159.06 22.0129C158.933 22.0635 158.835 22.1341 158.767 22.2248C158.701 22.3155 158.668 22.4183 158.668 22.5334C158.664 22.6293 158.684 22.713 158.728 22.7845C158.773 22.856 158.835 22.9179 158.913 22.9702C158.992 23.0208 159.083 23.0652 159.185 23.1036C159.288 23.1402 159.398 23.1716 159.515 23.1978L159.996 23.3128C160.23 23.3651 160.444 23.4349 160.64 23.5221C160.835 23.6093 161.004 23.7165 161.147 23.8438C161.29 23.9711 161.401 24.121 161.479 24.2936C161.559 24.4663 161.6 24.6642 161.602 24.8874C161.6 25.2152 161.517 25.4994 161.351 25.74C161.187 25.9789 160.95 26.1646 160.64 26.2971C160.331 26.4279 159.959 26.4933 159.523 26.4933C159.09 26.4933 158.714 26.427 158.393 26.2945C158.074 26.162 157.825 25.9658 157.645 25.706C157.467 25.4445 157.374 25.121 157.365 24.7357H158.461C158.473 24.9153 158.525 25.0652 158.615 25.1855C158.708 25.3041 158.831 25.3939 158.984 25.4549C159.139 25.5142 159.315 25.5438 159.51 25.5438C159.702 25.5438 159.868 25.5159 160.009 25.4602C160.152 25.4044 160.263 25.3268 160.342 25.2274C160.42 25.128 160.459 25.0138 160.459 24.8847C160.459 24.7644 160.423 24.6633 160.352 24.5813C160.282 24.4994 160.179 24.4296 160.043 24.3721C159.909 24.3146 159.744 24.2623 159.549 24.2152L158.966 24.0687C158.514 23.9589 158.158 23.7871 157.896 23.5535C157.634 23.3198 157.505 23.0051 157.506 22.6093C157.505 22.2849 157.591 22.0016 157.765 21.7592C157.941 21.5169 158.183 21.3277 158.49 21.1917C158.797 21.0557 159.145 20.9877 159.536 20.9877C159.934 20.9877 160.28 21.0557 160.577 21.1917C160.875 21.3277 161.107 21.5169 161.273 21.7592C161.438 22.0016 161.524 22.2823 161.529 22.6014H160.444ZM162.333 26.4174V25.6014L164.239 23.8359C164.401 23.679 164.537 23.5378 164.647 23.4122C164.759 23.2867 164.843 23.1638 164.901 23.0434C164.959 22.9214 164.987 22.7897 164.987 22.6485C164.987 22.4916 164.952 22.3564 164.88 22.2431C164.809 22.128 164.711 22.04 164.587 21.9789C164.463 21.9162 164.323 21.8848 164.166 21.8848C164.002 21.8848 163.859 21.9179 163.737 21.9842C163.615 22.0504 163.521 22.1455 163.455 22.2693C163.388 22.3931 163.355 22.5404 163.355 22.7113H162.28C162.28 22.3608 162.36 22.0565 162.518 21.7985C162.677 21.5404 162.899 21.3408 163.185 21.1995C163.471 21.0583 163.801 20.9877 164.174 20.9877C164.557 20.9877 164.891 21.0557 165.176 21.1917C165.462 21.3259 165.684 21.5125 165.843 21.7514C166.001 21.9903 166.081 22.264 166.081 22.5727C166.081 22.7749 166.04 22.9746 165.96 23.1716C165.882 23.3686 165.741 23.5875 165.539 23.8281C165.337 24.067 165.052 24.3538 164.684 24.6886L163.902 25.4549V25.4915H166.151V26.4174H162.333ZM169.072 26.5351C168.622 26.5334 168.235 26.4227 167.911 26.2029C167.588 25.9832 167.34 25.665 167.165 25.2483C166.993 24.8316 166.907 24.3303 166.909 23.7444C166.909 23.1603 166.995 22.6624 167.168 22.2509C167.342 21.8394 167.591 21.5265 167.913 21.312C168.238 21.0958 168.624 20.9877 169.072 20.9877C169.52 20.9877 169.905 21.0958 170.228 21.312C170.552 21.5282 170.802 21.8421 170.976 22.2536C171.15 22.6633 171.237 23.1603 171.235 23.7444C171.235 24.332 171.148 24.8342 170.973 25.2509C170.801 25.6676 170.553 25.9859 170.231 26.2056C169.908 26.4253 169.522 26.5351 169.072 26.5351ZM169.072 25.5962C169.379 25.5962 169.624 25.4418 169.807 25.1332C169.99 24.8246 170.081 24.3616 170.079 23.7444C170.079 23.3381 170.037 22.9998 169.953 22.7296C169.871 22.4593 169.755 22.2562 169.603 22.1202C169.453 21.9842 169.276 21.9162 169.072 21.9162C168.767 21.9162 168.523 22.0687 168.34 22.3739C168.157 22.679 168.064 23.1359 168.062 23.7444C168.062 24.1559 168.103 24.4994 168.185 24.7749C168.269 25.0486 168.387 25.2544 168.538 25.3921C168.69 25.5282 168.868 25.5962 169.072 25.5962ZM174.143 26.5351C173.693 26.5334 173.306 26.4227 172.982 26.2029C172.659 25.9832 172.41 25.665 172.236 25.2483C172.063 24.8316 171.978 24.3303 171.98 23.7444C171.98 23.1603 172.066 22.6624 172.239 22.2509C172.413 21.8394 172.662 21.5265 172.984 21.312C173.308 21.0958 173.695 20.9877 174.143 20.9877C174.591 20.9877 174.976 21.0958 175.299 21.312C175.623 21.5282 175.873 21.8421 176.047 22.2536C176.221 22.6633 176.308 23.1603 176.306 23.7444C176.306 24.332 176.219 24.8342 176.044 25.2509C175.872 25.6676 175.624 25.9859 175.301 26.2056C174.979 26.4253 174.593 26.5351 174.143 26.5351ZM174.143 25.5962C174.45 25.5962 174.695 25.4418 174.878 25.1332C175.061 24.8246 175.152 24.3616 175.15 23.7444C175.15 23.3381 175.108 22.9998 175.024 22.7296C174.942 22.4593 174.825 22.2562 174.674 22.1202C174.524 21.9842 174.347 21.9162 174.143 21.9162C173.838 21.9162 173.594 22.0687 173.41 22.3739C173.227 22.679 173.135 23.1359 173.133 23.7444C173.133 24.1559 173.174 24.4994 173.256 24.7749C173.34 25.0486 173.458 25.2544 173.609 25.3921C173.761 25.5282 173.939 25.5962 174.143 25.5962ZM177.559 26.4854C177.387 26.4854 177.238 26.4244 177.115 26.3023C176.993 26.1785 176.932 26.0303 176.932 25.8577C176.932 25.6868 176.993 25.5404 177.115 25.4183C177.238 25.2962 177.387 25.2352 177.559 25.2352C177.727 25.2352 177.873 25.2962 177.999 25.4183C178.124 25.5404 178.187 25.6868 178.187 25.8577C178.187 25.9728 178.157 26.0783 178.098 26.1742C178.041 26.2683 177.965 26.3442 177.871 26.4017C177.776 26.4575 177.673 26.4854 177.559 26.4854ZM180.976 26.5351C180.526 26.5334 180.139 26.4227 179.814 26.2029C179.492 25.9832 179.243 25.665 179.069 25.2483C178.896 24.8316 178.811 24.3303 178.813 23.7444C178.813 23.1603 178.899 22.6624 179.072 22.2509C179.246 21.8394 179.495 21.5265 179.817 21.312C180.141 21.0958 180.528 20.9877 180.976 20.9877C181.424 20.9877 181.809 21.0958 182.132 21.312C182.456 21.5282 182.705 21.8421 182.88 22.2536C183.054 22.6633 183.141 23.1603 183.139 23.7444C183.139 24.332 183.052 24.8342 182.877 25.2509C182.705 25.6676 182.457 25.9859 182.134 26.2056C181.812 26.4253 181.426 26.5351 180.976 26.5351ZM180.976 25.5962C181.283 25.5962 181.528 25.4418 181.711 25.1332C181.894 24.8246 181.984 24.3616 181.983 23.7444C181.983 23.3381 181.941 22.9998 181.857 22.7296C181.775 22.4593 181.658 22.2562 181.507 22.1202C181.357 21.9842 181.18 21.9162 180.976 21.9162C180.671 21.9162 180.427 22.0687 180.243 22.3739C180.06 22.679 179.968 23.1359 179.966 23.7444C179.966 24.1559 180.007 24.4994 180.089 24.7749C180.173 25.0486 180.291 25.2544 180.442 25.3921C180.594 25.5282 180.772 25.5962 180.976 25.5962ZM186.047 26.5351C185.597 26.5334 185.21 26.4227 184.885 26.2029C184.563 25.9832 184.314 25.665 184.14 25.2483C183.967 24.8316 183.882 24.3303 183.884 23.7444C183.884 23.1603 183.97 22.6624 184.142 22.2509C184.317 21.8394 184.565 21.5265 184.888 21.312C185.212 21.0958 185.598 20.9877 186.047 20.9877C186.495 20.9877 186.88 21.0958 187.203 21.312C187.527 21.5282 187.776 21.8421 187.951 22.2536C188.125 22.6633 188.211 23.1603 188.21 23.7444C188.21 24.332 188.122 24.8342 187.948 25.2509C187.775 25.6676 187.528 25.9859 187.205 26.2056C186.883 26.4253 186.496 26.5351 186.047 26.5351ZM186.047 25.5962C186.353 25.5962 186.598 25.4418 186.782 25.1332C186.965 24.8246 187.055 24.3616 187.054 23.7444C187.054 23.3381 187.012 22.9998 186.928 22.7296C186.846 22.4593 186.729 22.2562 186.577 22.1202C186.428 21.9842 186.251 21.9162 186.047 21.9162C185.741 21.9162 185.497 22.0687 185.314 22.3739C185.131 22.679 185.039 23.1359 185.037 23.7444C185.037 24.1559 185.078 24.4994 185.16 24.7749C185.244 25.0486 185.361 25.2544 185.513 25.3921C185.665 25.5282 185.843 25.5962 186.047 25.5962Z" fill="#233D48"/>
<line x1="28" y1="48.6152" x2="197" y2="48.6152" stroke="#DADFE2" stroke-width="0.526087"/>
<path fill-rule="evenodd" clip-rule="evenodd" d="M39.5746 58.3478C38.9935 58.3478 38.5225 58.8189 38.5225 59.4V67.8174C38.5225 68.3985 38.9935 68.8696 39.5746 68.8696H45.8877C46.4688 68.8696 46.9399 68.3985 46.9399 67.8174V61.1962C46.9399 60.9171 46.829 60.6495 46.6317 60.4522L44.8355 58.656C44.6382 58.4587 44.3706 58.3478 44.0915 58.3478H39.5746ZM39.5746 67.8174V59.4H44.0915L45.8877 61.1962V67.8174H39.5746ZM43.4115 62.4024C43.0606 62.0515 42.7328 62.0304 42.7192 62.0304C42.4414 62.0304 42.2052 62.2672 42.2052 62.5565C42.2052 62.8964 42.2725 62.9522 42.8591 63.0984C43.4015 63.2341 44.3095 63.4614 44.3095 64.6609C44.3083 64.9861 44.2066 65.3029 44.0182 65.5679C43.8298 65.833 43.5641 66.0333 43.2573 66.1413V66.2381C43.2573 66.3776 43.2019 66.5114 43.1033 66.6101C43.0046 66.7088 42.8708 66.7642 42.7313 66.7642C42.5917 66.7642 42.4579 66.7088 42.3593 66.6101C42.2606 66.5114 42.2052 66.3776 42.2052 66.2381V66.1329C41.8662 66.0124 41.5591 65.8163 41.3071 65.5594C41.2084 65.4608 41.1529 65.327 41.1529 65.1874C41.1528 65.0479 41.2082 64.914 41.3069 64.8153C41.4055 64.7166 41.5393 64.6611 41.6789 64.661C41.8185 64.661 41.9523 64.7164 42.051 64.815C42.4019 65.1659 42.7302 65.187 42.7439 65.187C43.0217 65.187 43.2573 64.9513 43.2573 64.6609C43.2573 64.321 43.1905 64.2663 42.604 64.119C42.0616 63.9838 41.153 63.756 41.153 62.5565C41.154 62.2312 41.2557 61.9142 41.4441 61.6489C41.6325 61.3837 41.8983 61.1832 42.2052 61.0751V60.9783C42.2052 60.8387 42.2606 60.7049 42.3593 60.6063C42.4579 60.5076 42.5917 60.4522 42.7313 60.4522C42.8708 60.4522 43.0046 60.5076 43.1033 60.6063C43.2019 60.7049 43.2573 60.8387 43.2573 60.9783V61.0835C43.5966 61.2042 43.9038 61.4008 44.1554 61.6585C44.2512 61.7577 44.3042 61.8906 44.303 62.0286C44.3018 62.1665 44.2465 62.2984 44.149 62.396C44.0514 62.4935 43.9195 62.5489 43.7815 62.5501C43.6436 62.5512 43.5107 62.4982 43.4115 62.4024Z" fill="#225C8C"/>
<path d="M59.059 58.9391V64.2957H57.9265V58.9391H59.059ZM61.084 61.9731V64.2957H59.9698V60.2783H61.0317V60.9871H61.0788C61.1677 60.7534 61.3168 60.5686 61.5261 60.4326C61.7353 60.2948 61.989 60.226 62.2872 60.226C62.5662 60.226 62.8094 60.287 63.0169 60.409C63.2244 60.5311 63.3857 60.7055 63.5008 60.9321C63.6158 61.1571 63.6734 61.4256 63.6734 61.7377V64.2957H62.5592V61.9365C62.5609 61.6906 62.4982 61.4988 62.3709 61.3611C62.2436 61.2216 62.0683 61.1518 61.8452 61.1518C61.6952 61.1518 61.5627 61.1841 61.4476 61.2486C61.3343 61.3131 61.2453 61.4073 61.1808 61.5311C61.118 61.6531 61.0858 61.8005 61.084 61.9731ZM68.1531 60.2783L66.7485 64.2957H65.4931L64.0886 60.2783H65.2656L66.0999 63.1527H66.1417L66.9735 60.2783H68.1531ZM70.4089 64.3741C70.0026 64.3741 69.6513 64.2878 69.3549 64.1152C69.0602 63.9408 68.8326 63.6985 68.6722 63.3881C68.5118 63.076 68.4316 62.7142 68.4316 62.3027C68.4316 61.8877 68.5118 61.525 68.6722 61.2146C68.8326 60.9025 69.0602 60.6601 69.3549 60.4875C69.6513 60.3131 70.0026 60.226 70.4089 60.226C70.8152 60.226 71.1657 60.3131 71.4603 60.4875C71.7568 60.6601 71.9852 60.9025 72.1456 61.2146C72.306 61.525 72.3862 61.8877 72.3862 62.3027C72.3862 62.7142 72.306 63.076 72.1456 63.3881C71.9852 63.6985 71.7568 63.9408 71.4603 64.1152C71.1657 64.2878 70.8152 64.3741 70.4089 64.3741ZM70.4141 63.511C70.599 63.511 70.7533 63.4587 70.8771 63.3541C71.0009 63.2477 71.0942 63.103 71.1569 62.9199C71.2215 62.7368 71.2537 62.5285 71.2537 62.2948C71.2537 62.0612 71.2215 61.8528 71.1569 61.6697C71.0942 61.4866 71.0009 61.3419 70.8771 61.2355C70.7533 61.1292 70.599 61.076 70.4141 61.076C70.2276 61.076 70.0706 61.1292 69.9434 61.2355C69.8178 61.3419 69.7228 61.4866 69.6583 61.6697C69.5955 61.8528 69.5641 62.0612 69.5641 62.2948C69.5641 62.5285 69.5955 62.7368 69.6583 62.9199C69.7228 63.103 69.8178 63.2477 69.9434 63.3541C70.0706 63.4587 70.2276 63.511 70.4141 63.511ZM73.1107 64.2957V60.2783H74.2249V64.2957H73.1107ZM73.6704 59.7604C73.5048 59.7604 73.3627 59.7055 73.2441 59.5956C73.1273 59.484 73.0689 59.3506 73.0689 59.1955C73.0689 59.042 73.1273 58.9104 73.2441 58.8005C73.3627 58.6889 73.5048 58.6331 73.6704 58.6331C73.8361 58.6331 73.9773 58.6889 74.0941 58.8005C74.2127 58.9104 74.272 59.042 74.272 59.1955C74.272 59.3506 74.2127 59.484 74.0941 59.5956C73.9773 59.7055 73.8361 59.7604 73.6704 59.7604ZM76.9326 64.3741C76.5211 64.3741 76.1671 64.2869 75.8707 64.1126C75.576 63.9365 75.3494 63.6923 75.1907 63.3802C75.0338 63.0681 74.9553 62.7089 74.9553 62.3027C74.9553 61.8911 75.0346 61.5302 75.1933 61.2198C75.3537 60.9077 75.5813 60.6645 75.8759 60.4901C76.1706 60.314 76.5211 60.226 76.9274 60.226C77.2778 60.226 77.5847 60.2896 77.848 60.4169C78.1113 60.5442 78.3197 60.7229 78.4731 60.9531C78.6266 61.1832 78.7111 61.4535 78.7268 61.7639H77.6754C77.6458 61.5633 77.5673 61.4021 77.44 61.28C77.3145 61.1562 77.1497 61.0943 76.9457 61.0943C76.7731 61.0943 76.6222 61.1414 76.4932 61.2355C76.3659 61.3279 76.2665 61.4631 76.195 61.6409C76.1235 61.8188 76.0878 62.0341 76.0878 62.287C76.0878 62.5433 76.1227 62.7612 76.1924 62.9408C76.2639 63.1204 76.3642 63.2573 76.4932 63.3515C76.6222 63.4456 76.7731 63.4927 76.9457 63.4927C77.073 63.4927 77.1872 63.4665 77.2883 63.4142C77.3912 63.3619 77.4757 63.2861 77.542 63.1867C77.61 63.0856 77.6545 62.9644 77.6754 62.8231H78.7268C78.7094 63.13 78.6257 63.4003 78.4757 63.6339C78.3275 63.8658 78.1226 64.0472 77.8611 64.178C77.5995 64.3087 77.2901 64.3741 76.9326 64.3741ZM81.271 64.3741C80.8578 64.3741 80.5021 64.2904 80.2039 64.123C79.9075 63.9539 79.6791 63.715 79.5187 63.4064C79.3582 63.096 79.278 62.729 79.278 62.3053C79.278 61.892 79.3582 61.5293 79.5187 61.2172C79.6791 60.9051 79.9049 60.6619 80.1961 60.4875C80.489 60.3131 80.8325 60.226 81.2266 60.226C81.4916 60.226 81.7383 60.2687 81.9668 60.3541C82.1969 60.4378 82.3974 60.5642 82.5683 60.7334C82.7409 60.9025 82.8752 61.1152 82.9711 61.3715C83.067 61.6261 83.115 61.9243 83.115 62.266V62.572H79.7227V61.8816H82.0662C82.0662 61.7211 82.0313 61.579 81.9615 61.4552C81.8918 61.3314 81.795 61.2347 81.6712 61.1649C81.5492 61.0934 81.407 61.0577 81.2449 61.0577C81.0758 61.0577 80.9258 61.0969 80.795 61.1754C80.666 61.2521 80.5649 61.3558 80.4916 61.4866C80.4184 61.6156 80.3809 61.7595 80.3792 61.9182V62.5747C80.3792 62.7734 80.4158 62.9452 80.489 63.0899C80.564 63.2346 80.6695 63.3462 80.8055 63.4247C80.9415 63.5032 81.1028 63.5424 81.2894 63.5424C81.4132 63.5424 81.5265 63.525 81.6294 63.4901C81.7322 63.4552 81.8203 63.4029 81.8935 63.3332C81.9668 63.2634 82.0226 63.178 82.0609 63.0768L83.0914 63.1448C83.0391 63.3924 82.9319 63.6087 82.7697 63.7935C82.6093 63.9766 82.4018 64.1195 82.1472 64.2224C81.8944 64.3236 81.6023 64.3741 81.271 64.3741ZM87.3619 64.3741C86.9504 64.3741 86.5964 64.2869 86.3 64.1126C86.0053 63.9365 85.7786 63.6923 85.6199 63.3802C85.463 63.0681 85.3846 62.7089 85.3846 62.3027C85.3846 61.8911 85.4639 61.5302 85.6226 61.2198C85.783 60.9077 86.0105 60.6645 86.3052 60.4901C86.5999 60.314 86.9504 60.226 87.3566 60.226C87.7071 60.226 88.014 60.2896 88.2773 60.4169C88.5406 60.5442 88.7489 60.7229 88.9024 60.9531C89.0558 61.1832 89.1404 61.4535 89.1561 61.7639H88.1047C88.075 61.5633 87.9966 61.4021 87.8693 61.28C87.7437 61.1562 87.5789 61.0943 87.3749 61.0943C87.2023 61.0943 87.0515 61.1414 86.9225 61.2355C86.7952 61.3279 86.6958 61.4631 86.6243 61.6409C86.5528 61.8188 86.5171 62.0341 86.5171 62.287C86.5171 62.5433 86.5519 62.7612 86.6217 62.9408C86.6932 63.1204 86.7934 63.2573 86.9225 63.3515C87.0515 63.4456 87.2023 63.4927 87.3749 63.4927C87.5022 63.4927 87.6164 63.4665 87.7176 63.4142C87.8204 63.3619 87.905 63.2861 87.9713 63.1867C88.0393 63.0856 88.0837 62.9644 88.1047 62.8231H89.1561C89.1387 63.13 89.055 63.4003 88.905 63.6339C88.7568 63.8658 88.5519 64.0472 88.2904 64.178C88.0288 64.3087 87.7193 64.3741 87.3619 64.3741ZM89.8695 64.2957V60.2783H90.9497V60.9792H90.9915C91.0647 60.7299 91.1877 60.5416 91.3603 60.4143C91.5329 60.2852 91.7317 60.2207 91.9566 60.2207C92.0124 60.2207 92.0726 60.2242 92.1371 60.2312C92.2016 60.2382 92.2583 60.2477 92.3071 60.26V61.2486C92.2548 61.2329 92.1824 61.219 92.09 61.2068C91.9976 61.1946 91.913 61.1885 91.8363 61.1885C91.6724 61.1885 91.5259 61.2242 91.3969 61.2957C91.2696 61.3654 91.1685 61.4631 91.0935 61.5886C91.0203 61.7142 90.9837 61.8589 90.9837 62.0228V64.2957H89.8695ZM94.527 64.3741C94.1137 64.3741 93.758 64.2904 93.4599 64.123C93.1635 63.9539 92.935 63.715 92.7746 63.4064C92.6142 63.096 92.534 62.729 92.534 62.3053C92.534 61.892 92.6142 61.5293 92.7746 61.2172C92.935 60.9051 93.1608 60.6619 93.452 60.4875C93.745 60.3131 94.0885 60.226 94.4825 60.226C94.7476 60.226 94.9943 60.2687 95.2227 60.3541C95.4529 60.4378 95.6534 60.5642 95.8243 60.7334C95.9969 60.9025 96.1312 61.1152 96.2271 61.3715C96.323 61.6261 96.3709 61.9243 96.3709 62.266V62.572H92.9786V61.8816H95.3221C95.3221 61.7211 95.2872 61.579 95.2175 61.4552C95.1477 61.3314 95.051 61.2347 94.9272 61.1649C94.8051 61.0934 94.663 61.0577 94.5008 61.0577C94.3317 61.0577 94.1817 61.0969 94.051 61.1754C93.9219 61.2521 93.8208 61.3558 93.7476 61.4866C93.6743 61.6156 93.6369 61.7595 93.6351 61.9182V62.5747C93.6351 62.7734 93.6717 62.9452 93.745 63.0899C93.8199 63.2346 93.9254 63.3462 94.0614 63.4247C94.1974 63.5032 94.3587 63.5424 94.5453 63.5424C94.6691 63.5424 94.7824 63.525 94.8853 63.4901C94.9882 63.4552 95.0762 63.4029 95.1495 63.3332C95.2227 63.2634 95.2785 63.178 95.3169 63.0768L96.3474 63.1448C96.2951 63.3924 96.1878 63.6087 96.0257 63.7935C95.8653 63.9766 95.6578 64.1195 95.4032 64.2224C95.1504 64.3236 94.8583 64.3741 94.527 64.3741ZM98.2436 64.3715C97.9873 64.3715 97.7589 64.327 97.5583 64.2381C97.3578 64.1474 97.1992 64.0141 97.0823 63.8379C96.9672 63.6601 96.9097 63.4386 96.9097 63.1736C96.9097 62.9504 96.9507 62.763 97.0326 62.6113C97.1146 62.4596 97.2262 62.3375 97.3674 62.2451C97.5087 62.1527 97.6691 62.083 97.8487 62.0359C98.03 61.9888 98.2201 61.9557 98.4188 61.9365C98.6525 61.9121 98.8408 61.8894 98.9838 61.8685C99.1268 61.8458 99.2305 61.8127 99.295 61.7691C99.3595 61.7255 99.3918 61.661 99.3918 61.5755V61.5599C99.3918 61.3942 99.3395 61.266 99.2349 61.1754C99.132 61.0847 98.9855 61.0394 98.7955 61.0394C98.5949 61.0394 98.4354 61.0838 98.3168 61.1728C98.1983 61.2599 98.1198 61.3698 98.0814 61.5023L97.0509 61.4186C97.1032 61.1745 97.2061 60.9635 97.3596 60.7857C97.513 60.6061 97.7109 60.4683 97.9533 60.3724C98.1974 60.2748 98.4799 60.226 98.8007 60.226C99.0239 60.226 99.2375 60.2521 99.4415 60.3044C99.6472 60.3567 99.8295 60.4378 99.9881 60.5477C100.149 60.6575 100.275 60.7987 100.367 60.9714C100.46 61.1422 100.506 61.3471 100.506 61.586V64.2957H99.4493V63.7386H99.418C99.3534 63.8641 99.2671 63.9748 99.159 64.0707C99.0509 64.1649 98.921 64.239 98.7693 64.293C98.6176 64.3453 98.4424 64.3715 98.2436 64.3715ZM98.5627 63.6025C98.7266 63.6025 98.8713 63.5703 98.9969 63.5058C99.1224 63.4395 99.2209 63.3506 99.2924 63.239C99.3639 63.1274 99.3996 63.001 99.3996 62.8598V62.4334C99.3648 62.4561 99.3168 62.477 99.2558 62.4962C99.1965 62.5136 99.1294 62.5302 99.0544 62.5459C98.9794 62.5598 98.9044 62.5729 98.8295 62.5851C98.7545 62.5956 98.6865 62.6052 98.6255 62.6139C98.4947 62.6331 98.3805 62.6636 98.2828 62.7054C98.1852 62.7473 98.1093 62.804 98.0553 62.8754C98.0012 62.9452 97.9742 63.0324 97.9742 63.137C97.9742 63.2887 98.0291 63.4046 98.139 63.4849C98.2506 63.5633 98.3918 63.6025 98.5627 63.6025ZM103.507 60.2783V61.1152H101.088V60.2783H103.507ZM101.637 59.3158H102.751V63.0611C102.751 63.164 102.767 63.2442 102.798 63.3018C102.83 63.3576 102.873 63.3968 102.929 63.4195C102.987 63.4421 103.053 63.4535 103.128 63.4535C103.18 63.4535 103.233 63.4491 103.285 63.4404C103.337 63.4299 103.377 63.4221 103.405 63.4168L103.581 64.246C103.525 64.2634 103.446 64.2834 103.345 64.3061C103.244 64.3305 103.121 64.3453 102.976 64.3506C102.708 64.361 102.472 64.3253 102.27 64.2433C102.07 64.1614 101.914 64.0341 101.802 63.8615C101.69 63.6889 101.635 63.4709 101.637 63.2076V59.3158ZM106.021 64.3741C105.608 64.3741 105.252 64.2904 104.954 64.123C104.657 63.9539 104.429 63.715 104.268 63.4064C104.108 63.096 104.028 62.729 104.028 62.3053C104.028 61.892 104.108 61.5293 104.268 61.2172C104.429 60.9051 104.655 60.6619 104.946 60.4875C105.239 60.3131 105.582 60.226 105.976 60.226C106.241 60.226 106.488 60.2687 106.716 60.3541C106.947 60.4378 107.147 60.5642 107.318 60.7334C107.491 60.9025 107.625 61.1152 107.721 61.3715C107.817 61.6261 107.865 61.9243 107.865 62.266V62.572H104.472V61.8816H106.816C106.816 61.7211 106.781 61.579 106.711 61.4552C106.642 61.3314 106.545 61.2347 106.421 61.1649C106.299 61.0934 106.157 61.0577 105.995 61.0577C105.825 61.0577 105.676 61.0969 105.545 61.1754C105.416 61.2521 105.315 61.3558 105.241 61.4866C105.168 61.6156 105.131 61.7595 105.129 61.9182V62.5747C105.129 62.7734 105.165 62.9452 105.239 63.0899C105.314 63.2346 105.419 63.3462 105.555 63.4247C105.691 63.5032 105.852 63.5424 106.039 63.5424C106.163 63.5424 106.276 63.525 106.379 63.4901C106.482 63.4552 106.57 63.4029 106.643 63.3332C106.716 63.2634 106.772 63.178 106.811 63.0768L107.841 63.1448C107.789 63.3924 107.682 63.6087 107.519 63.7935C107.359 63.9766 107.152 64.1195 106.897 64.2224C106.644 64.3236 106.352 64.3741 106.021 64.3741ZM110.072 64.361C109.767 64.361 109.491 64.2826 109.243 64.1256C108.997 63.967 108.802 63.7342 108.657 63.4273C108.514 63.1187 108.443 62.7403 108.443 62.2922C108.443 61.8319 108.517 61.4491 108.665 61.144C108.813 60.8371 109.01 60.6078 109.256 60.4561C109.504 60.3027 109.775 60.226 110.07 60.226C110.294 60.226 110.482 60.2643 110.632 60.341C110.784 60.416 110.906 60.5102 110.998 60.6235C111.092 60.7351 111.164 60.845 111.213 60.9531H111.247V58.9391H112.358V64.2957H111.26V63.6522H111.213C111.16 63.7638 111.086 63.8746 110.99 63.9844C110.896 64.0925 110.773 64.1823 110.621 64.2538C110.471 64.3253 110.288 64.361 110.072 64.361ZM110.425 63.4744C110.605 63.4744 110.757 63.4256 110.88 63.3279C111.006 63.2285 111.102 63.0899 111.168 62.9121C111.236 62.7342 111.27 62.5258 111.27 62.287C111.27 62.0481 111.237 61.8406 111.171 61.6645C111.104 61.4884 111.008 61.3524 110.883 61.2565C110.757 61.1606 110.605 61.1126 110.425 61.1126C110.242 61.1126 110.088 61.1623 109.962 61.2617C109.837 61.3611 109.742 61.4988 109.677 61.6749C109.613 61.851 109.58 62.0551 109.58 62.287C109.58 62.5206 109.613 62.7272 109.677 62.9068C109.743 63.0847 109.839 63.2242 109.962 63.3253C110.088 63.4247 110.242 63.4744 110.425 63.4744Z" fill="#032B3A"/>
<path d="M58.7582 69.4609V74.8174H58.1096V69.4609H58.7582ZM60.5923 72.4007V74.8174H59.9751V70.8H60.5714V71.4277H60.6237C60.7179 71.2237 60.8609 71.0598 61.0527 70.936C61.2445 70.8105 61.4921 70.7477 61.7955 70.7477C62.0675 70.7477 62.3055 70.8035 62.5095 70.9151C62.7135 71.0249 62.8722 71.1923 62.9855 71.4172C63.0988 71.6404 63.1555 71.9229 63.1555 72.2647V74.8174H62.5383V72.3065C62.5383 71.9909 62.4563 71.7451 62.2924 71.5689C62.1285 71.3911 61.9036 71.3022 61.6176 71.3022C61.4206 71.3022 61.2445 71.3449 61.0893 71.4303C60.9358 71.5158 60.8146 71.6404 60.7257 71.8043C60.6368 71.9682 60.5923 72.167 60.5923 72.4007ZM67.4246 70.8L65.939 74.8174H65.3113L63.8257 70.8H64.4953L65.6043 74.0014H65.6461L66.7551 70.8H67.4246ZM69.7276 74.9011C69.3649 74.9011 69.0467 74.8148 68.7729 74.6421C68.5009 74.4695 68.2882 74.228 68.1347 73.9177C67.9831 73.6073 67.9072 73.2446 67.9072 72.8296C67.9072 72.4111 67.9831 72.0458 68.1347 71.7337C68.2882 71.4216 68.5009 71.1792 68.7729 71.0066C69.0467 70.834 69.3649 70.7477 69.7276 70.7477C70.0903 70.7477 70.4076 70.834 70.6796 71.0066C70.9534 71.1792 71.1661 71.4216 71.3178 71.7337C71.4712 72.0458 71.548 72.4111 71.548 72.8296C71.548 73.2446 71.4712 73.6073 71.3178 73.9177C71.1661 74.228 70.9534 74.4695 70.6796 74.6421C70.4076 74.8148 70.0903 74.9011 69.7276 74.9011ZM69.7276 74.3466C70.0031 74.3466 70.2298 74.276 70.4076 74.1347C70.5855 73.9935 70.7171 73.8078 70.8025 73.5776C70.888 73.3475 70.9307 73.0981 70.9307 72.8296C70.9307 72.5611 70.888 72.3109 70.8025 72.079C70.7171 71.8471 70.5855 71.6596 70.4076 71.5166C70.2298 71.3737 70.0031 71.3022 69.7276 71.3022C69.4521 71.3022 69.2254 71.3737 69.0476 71.5166C68.8697 71.6596 68.7381 71.8471 68.6526 72.079C68.5672 72.3109 68.5245 72.5611 68.5245 72.8296C68.5245 73.0981 68.5672 73.3475 68.6526 73.5776C68.7381 73.8078 68.8697 73.9935 69.0476 74.1347C69.2254 74.276 69.4521 74.3466 69.7276 74.3466ZM72.4902 74.8174V70.8H73.1074V74.8174H72.4902ZM72.8041 70.1304C72.6837 70.1304 72.58 70.0895 72.4928 70.0075C72.4074 69.9255 72.3646 69.827 72.3646 69.7119C72.3646 69.5969 72.4074 69.4983 72.4928 69.4164C72.58 69.3344 72.6837 69.2935 72.8041 69.2935C72.9244 69.2935 73.0272 69.3344 73.1127 69.4164C73.1999 69.4983 73.2435 69.5969 73.2435 69.7119C73.2435 69.827 73.1999 69.9255 73.1127 70.0075C73.0272 70.0895 72.9244 70.1304 72.8041 70.1304ZM75.8701 74.9011C75.4934 74.9011 75.1691 74.8122 74.8971 74.6343C74.6251 74.4564 74.4158 74.2115 74.2694 73.8993C74.1229 73.5872 74.0497 73.2307 74.0497 72.8296C74.0497 72.4216 74.1247 72.0615 74.2746 71.7494C74.4263 71.4356 74.6373 71.1906 74.9076 71.0145C75.1796 70.8366 75.4969 70.7477 75.8596 70.7477C76.1421 70.7477 76.3966 70.8 76.6233 70.9046C76.85 71.0092 77.0357 71.1557 77.1804 71.344C77.3251 71.5323 77.4149 71.752 77.4498 72.0031H76.8326C76.7855 71.82 76.6809 71.6579 76.5187 71.5166C76.3583 71.3737 76.1421 71.3022 75.8701 71.3022C75.6294 71.3022 75.4184 71.3649 75.2371 71.4905C75.0575 71.6143 74.9171 71.7895 74.816 72.0162C74.7166 72.2411 74.6669 72.5053 74.6669 72.8087C74.6669 73.1191 74.7158 73.3893 74.8134 73.6195C74.9128 73.8497 75.0523 74.0284 75.2319 74.1557C75.4132 74.283 75.6259 74.3466 75.8701 74.3466C76.0305 74.3466 76.1761 74.3187 76.3068 74.2629C76.4376 74.2071 76.5483 74.1269 76.639 74.0223C76.7297 73.9177 76.7942 73.7921 76.8326 73.6456H77.4498C77.4149 73.8828 77.3286 74.0964 77.1909 74.2864C77.0549 74.4748 76.8744 74.6247 76.6495 74.7363C76.4263 74.8462 76.1665 74.9011 75.8701 74.9011ZM80.0365 74.9011C79.6494 74.9011 79.3155 74.8156 79.0348 74.6448C78.7558 74.4721 78.5405 74.2315 78.3888 73.9229C78.2388 73.6125 78.1638 73.2516 78.1638 72.8401C78.1638 72.4286 78.2388 72.0659 78.3888 71.752C78.5405 71.4364 78.7515 71.1906 79.0217 71.0145C79.2937 70.8366 79.6111 70.7477 79.9738 70.7477C80.183 70.7477 80.3896 70.7826 80.5936 70.8523C80.7976 70.922 80.9833 71.0354 81.1507 71.1923C81.3181 71.3475 81.4515 71.5533 81.5509 71.8096C81.6503 72.0659 81.7 72.3815 81.7 72.7564V73.0179H78.6032V72.4844H81.0723C81.0723 72.2577 81.0269 72.0554 80.9363 71.8776C80.8473 71.6997 80.72 71.5594 80.5544 71.4565C80.3905 71.3536 80.1969 71.3022 79.9738 71.3022C79.7279 71.3022 79.5152 71.3632 79.3356 71.4852C79.1577 71.6056 79.0208 71.7625 78.9249 71.956C78.829 72.1496 78.7811 72.3571 78.7811 72.5785V72.9342C78.7811 73.2376 78.8334 73.4948 78.938 73.7058C79.0444 73.915 79.1917 74.0746 79.38 74.1844C79.5684 74.2925 79.7872 74.3466 80.0365 74.3466C80.1987 74.3466 80.3452 74.3239 80.4759 74.2786C80.6085 74.2315 80.7227 74.1618 80.8186 74.0694C80.9145 73.9752 80.9886 73.8584 81.0409 73.7189L81.6372 73.8863C81.5744 74.0885 81.4689 74.2664 81.3207 74.4198C81.1725 74.5715 80.9894 74.6901 80.7715 74.7755C80.5535 74.8592 80.3085 74.9011 80.0365 74.9011ZM86.7086 74.8174L87.5874 69.4609H88.1105L87.2317 74.8174H86.7086ZM84.271 73.3318L84.3547 72.8087H88.3512L88.2675 73.3318H84.271ZM84.8255 74.8174L85.7043 69.4609H86.2274L85.3486 74.8174H84.8255ZM84.5849 71.4696L84.6686 70.9465H88.665L88.5813 71.4696H84.5849ZM89.2208 73.7189V73.1853L91.5748 69.4609H91.9619V70.2874H91.7003L89.9218 73.1016V73.1435H93.0917V73.7189H89.2208ZM91.7422 74.8174V73.5567V73.3082V69.4609H92.3594V74.8174H91.7422ZM95.819 74.8906C95.425 74.8906 95.0893 74.7834 94.8121 74.5689C94.5348 74.3527 94.323 74.0397 94.1765 73.63C94.0301 73.2184 93.9568 72.7215 93.9568 72.1391C93.9568 71.5602 94.0301 71.0659 94.1765 70.6561C94.3247 70.2446 94.5375 69.9308 94.8147 69.7146C95.0937 69.4966 95.4285 69.3876 95.819 69.3876C96.2096 69.3876 96.5435 69.4966 96.8208 69.7146C97.0998 69.9308 97.3125 70.2446 97.459 70.6561C97.6072 71.0659 97.6813 71.5602 97.6813 72.1391C97.6813 72.7215 97.608 73.2184 97.4616 73.63C97.3151 74.0397 97.1033 74.3527 96.826 74.5689C96.5488 74.7834 96.2131 74.8906 95.819 74.8906ZM95.819 74.3152C96.2096 74.3152 96.513 74.1269 96.7292 73.7503C96.9455 73.3736 97.0536 72.8366 97.0536 72.1391C97.0536 71.6753 97.0039 71.2804 96.9045 70.9543C96.8068 70.6282 96.6656 70.3798 96.4808 70.2089C96.2977 70.038 96.0771 69.9526 95.819 69.9526C95.432 69.9526 95.1294 70.1435 94.9115 70.5254C94.6935 70.9055 94.5845 71.4434 94.5845 72.1391C94.5845 72.6029 94.6334 72.997 94.731 73.3213C94.8286 73.6456 94.969 73.8924 95.1521 74.0615C95.3369 74.2306 95.5592 74.3152 95.819 74.3152Z" fill="#233D48"/>
<path d="M159.306 64.9652V58.2696H159.735V64.9652H159.306ZM160.444 60.4797C160.423 60.2687 160.333 60.1048 160.174 59.9879C160.015 59.8711 159.8 59.8127 159.528 59.8127C159.343 59.8127 159.187 59.8389 159.06 59.8912C158.933 59.9417 158.835 60.0124 158.767 60.103C158.701 60.1937 158.668 60.2966 158.668 60.4117C158.664 60.5076 158.684 60.5912 158.728 60.6627C158.773 60.7342 158.835 60.7961 158.913 60.8484C158.992 60.899 159.083 60.9435 159.185 60.9818C159.288 61.0184 159.398 61.0498 159.515 61.076L159.996 61.1911C160.23 61.2434 160.444 61.3131 160.64 61.4003C160.835 61.4875 161.004 61.5947 161.147 61.722C161.29 61.8493 161.401 61.9993 161.479 62.1719C161.559 62.3445 161.6 62.5424 161.602 62.7656C161.6 63.0934 161.517 63.3776 161.351 63.6182C161.187 63.8571 160.95 64.0428 160.64 64.1753C160.331 64.3061 159.959 64.3715 159.523 64.3715C159.09 64.3715 158.714 64.3052 158.393 64.1727C158.074 64.0402 157.825 63.844 157.645 63.5842C157.467 63.3227 157.374 62.9992 157.365 62.6139H158.461C158.473 62.7935 158.525 62.9434 158.615 63.0638C158.708 63.1823 158.831 63.2721 158.984 63.3332C159.139 63.3924 159.315 63.4221 159.51 63.4221C159.702 63.4221 159.868 63.3942 160.009 63.3384C160.152 63.2826 160.263 63.205 160.342 63.1056C160.42 63.0062 160.459 62.892 160.459 62.763C160.459 62.6427 160.423 62.5415 160.352 62.4596C160.282 62.3776 160.179 62.3079 160.043 62.2503C159.909 62.1928 159.744 62.1405 159.549 62.0934L158.966 61.9469C158.514 61.8371 158.158 61.6653 157.896 61.4317C157.634 61.198 157.505 60.8833 157.506 60.4875C157.505 60.1632 157.591 59.8798 157.765 59.6375C157.941 59.3951 158.183 59.2059 158.49 59.0699C158.797 58.9339 159.145 58.8659 159.536 58.8659C159.934 58.8659 160.28 58.9339 160.577 59.0699C160.875 59.2059 161.107 59.3951 161.273 59.6375C161.438 59.8798 161.524 60.1606 161.529 60.4797H160.444ZM162.333 64.2957V63.4796L164.239 61.7142C164.401 61.5572 164.537 61.416 164.647 61.2905C164.759 61.1649 164.843 61.042 164.901 60.9217C164.959 60.7996 164.987 60.668 164.987 60.5267C164.987 60.3698 164.952 60.2347 164.88 60.1213C164.809 60.0063 164.711 59.9182 164.587 59.8572C164.463 59.7944 164.323 59.763 164.166 59.763C164.002 59.763 163.859 59.7961 163.737 59.8624C163.615 59.9287 163.521 60.0237 163.455 60.1475C163.388 60.2713 163.355 60.4186 163.355 60.5895H162.28C162.28 60.239 162.36 59.9348 162.518 59.6767C162.677 59.4186 162.899 59.219 163.185 59.0778C163.471 58.9365 163.801 58.8659 164.174 58.8659C164.557 58.8659 164.891 58.9339 165.176 59.0699C165.462 59.2042 165.684 59.3907 165.843 59.6296C166.001 59.8685 166.081 60.1423 166.081 60.4509C166.081 60.6531 166.04 60.8528 165.96 61.0498C165.882 61.2469 165.741 61.4657 165.539 61.7063C165.337 61.9452 165.052 62.232 164.684 62.5668L163.902 63.3332V63.3698H166.151V64.2957H162.333ZM169.072 64.4134C168.622 64.4116 168.235 64.3009 167.911 64.0812C167.588 63.8615 167.34 63.5433 167.165 63.1265C166.993 62.7098 166.907 62.2085 166.909 61.6226C166.909 61.0385 166.995 60.5407 167.168 60.1292C167.342 59.7177 167.591 59.4047 167.913 59.1902C168.238 58.974 168.624 58.8659 169.072 58.8659C169.52 58.8659 169.905 58.974 170.228 59.1902C170.552 59.4064 170.802 59.7203 170.976 60.1318C171.15 60.5416 171.237 61.0385 171.235 61.6226C171.235 62.2102 171.148 62.7124 170.973 63.1291C170.801 63.5459 170.553 63.8641 170.231 64.0838C169.908 64.3035 169.522 64.4134 169.072 64.4134ZM169.072 63.4744C169.379 63.4744 169.624 63.3201 169.807 63.0114C169.99 62.7028 170.081 62.2399 170.079 61.6226C170.079 61.2164 170.037 60.8781 169.953 60.6078C169.871 60.3375 169.755 60.1344 169.603 59.9984C169.453 59.8624 169.276 59.7944 169.072 59.7944C168.767 59.7944 168.523 59.947 168.34 60.2521C168.157 60.5572 168.064 61.0141 168.062 61.6226C168.062 62.0341 168.103 62.3776 168.185 62.6531C168.269 62.9269 168.387 63.1326 168.538 63.2704C168.69 63.4064 168.868 63.4744 169.072 63.4744ZM174.143 64.4134C173.693 64.4116 173.306 64.3009 172.982 64.0812C172.659 63.8615 172.41 63.5433 172.236 63.1265C172.063 62.7098 171.978 62.2085 171.98 61.6226C171.98 61.0385 172.066 60.5407 172.239 60.1292C172.413 59.7177 172.662 59.4047 172.984 59.1902C173.308 58.974 173.695 58.8659 174.143 58.8659C174.591 58.8659 174.976 58.974 175.299 59.1902C175.623 59.4064 175.873 59.7203 176.047 60.1318C176.221 60.5416 176.308 61.0385 176.306 61.6226C176.306 62.2102 176.219 62.7124 176.044 63.1291C175.872 63.5459 175.624 63.8641 175.301 64.0838C174.979 64.3035 174.593 64.4134 174.143 64.4134ZM174.143 63.4744C174.45 63.4744 174.695 63.3201 174.878 63.0114C175.061 62.7028 175.152 62.2399 175.15 61.6226C175.15 61.2164 175.108 60.8781 175.024 60.6078C174.942 60.3375 174.825 60.1344 174.674 59.9984C174.524 59.8624 174.347 59.7944 174.143 59.7944C173.838 59.7944 173.594 59.947 173.41 60.2521C173.227 60.5572 173.135 61.0141 173.133 61.6226C173.133 62.0341 173.174 62.3776 173.256 62.6531C173.34 62.9269 173.458 63.1326 173.609 63.2704C173.761 63.4064 173.939 63.4744 174.143 63.4744ZM177.559 64.3637C177.387 64.3637 177.238 64.3026 177.115 64.1806C176.993 64.0568 176.932 63.9086 176.932 63.7359C176.932 63.5651 176.993 63.4186 177.115 63.2965C177.238 63.1745 177.387 63.1135 177.559 63.1135C177.727 63.1135 177.873 63.1745 177.999 63.2965C178.124 63.4186 178.187 63.5651 178.187 63.7359C178.187 63.851 178.157 63.9565 178.098 64.0524C178.041 64.1466 177.965 64.2224 177.871 64.28C177.776 64.3358 177.673 64.3637 177.559 64.3637ZM180.976 64.4134C180.526 64.4116 180.139 64.3009 179.814 64.0812C179.492 63.8615 179.243 63.5433 179.069 63.1265C178.896 62.7098 178.811 62.2085 178.813 61.6226C178.813 61.0385 178.899 60.5407 179.072 60.1292C179.246 59.7177 179.495 59.4047 179.817 59.1902C180.141 58.974 180.528 58.8659 180.976 58.8659C181.424 58.8659 181.809 58.974 182.132 59.1902C182.456 59.4064 182.705 59.7203 182.88 60.1318C183.054 60.5416 183.141 61.0385 183.139 61.6226C183.139 62.2102 183.052 62.7124 182.877 63.1291C182.705 63.5459 182.457 63.8641 182.134 64.0838C181.812 64.3035 181.426 64.4134 180.976 64.4134ZM180.976 63.4744C181.283 63.4744 181.528 63.3201 181.711 63.0114C181.894 62.7028 181.984 62.2399 181.983 61.6226C181.983 61.2164 181.941 60.8781 181.857 60.6078C181.775 60.3375 181.658 60.1344 181.507 59.9984C181.357 59.8624 181.18 59.7944 180.976 59.7944C180.671 59.7944 180.427 59.947 180.243 60.2521C180.06 60.5572 179.968 61.0141 179.966 61.6226C179.966 62.0341 180.007 62.3776 180.089 62.6531C180.173 62.9269 180.291 63.1326 180.442 63.2704C180.594 63.4064 180.772 63.4744 180.976 63.4744ZM186.047 64.4134C185.597 64.4116 185.21 64.3009 184.885 64.0812C184.563 63.8615 184.314 63.5433 184.14 63.1265C183.967 62.7098 183.882 62.2085 183.884 61.6226C183.884 61.0385 183.97 60.5407 184.142 60.1292C184.317 59.7177 184.565 59.4047 184.888 59.1902C185.212 58.974 185.598 58.8659 186.047 58.8659C186.495 58.8659 186.88 58.974 187.203 59.1902C187.527 59.4064 187.776 59.7203 187.951 60.1318C188.125 60.5416 188.211 61.0385 188.21 61.6226C188.21 62.2102 188.122 62.7124 187.948 63.1291C187.775 63.5459 187.528 63.8641 187.205 64.0838C186.883 64.3035 186.496 64.4134 186.047 64.4134ZM186.047 63.4744C186.353 63.4744 186.598 63.3201 186.782 63.0114C186.965 62.7028 187.055 62.2399 187.054 61.6226C187.054 61.2164 187.012 60.8781 186.928 60.6078C186.846 60.3375 186.729 60.1344 186.577 59.9984C186.428 59.8624 186.251 59.7944 186.047 59.7944C185.741 59.7944 185.497 59.947 185.314 60.2521C185.131 60.5572 185.039 61.0141 185.037 61.6226C185.037 62.0341 185.078 62.3776 185.16 62.6531C185.244 62.9269 185.361 63.1326 185.513 63.2704C185.665 63.4064 185.843 63.4744 186.047 63.4744Z" fill="#233D48"/>
<line x1="28" y1="86.4934" x2="197" y2="86.4934" stroke="#DADFE2" stroke-width="0.526087"/>
<path fill-rule="evenodd" clip-rule="evenodd" d="M39.5746 96.2261C38.9935 96.2261 38.5225 96.6972 38.5225 97.2783V105.696C38.5225 106.277 38.9935 106.748 39.5746 106.748H45.8877C46.4688 106.748 46.9399 106.277 46.9399 105.696V99.0745C46.9399 98.7954 46.829 98.5278 46.6317 98.3305L44.8355 96.5343C44.6382 96.337 44.3706 96.2261 44.0915 96.2261H39.5746ZM39.5746 105.696V97.2783H44.0915L45.8877 99.0745V105.696H39.5746ZM43.4115 100.281C43.0606 99.9298 42.7328 99.9087 42.7192 99.9087C42.4414 99.9087 42.2052 100.145 42.2052 100.435C42.2052 100.775 42.2725 100.83 42.8591 100.977C43.4015 101.112 44.3095 101.34 44.3095 102.539C44.3083 102.864 44.2066 103.181 44.0182 103.446C43.8298 103.711 43.5641 103.912 43.2573 104.02V104.116C43.2573 104.256 43.2019 104.39 43.1033 104.488C43.0046 104.587 42.8708 104.642 42.7313 104.642C42.5917 104.642 42.4579 104.587 42.3593 104.488C42.2606 104.39 42.2052 104.256 42.2052 104.116V104.011C41.8662 103.891 41.5591 103.695 41.3071 103.438C41.2084 103.339 41.1529 103.205 41.1529 103.066C41.1528 102.926 41.2082 102.792 41.3069 102.694C41.4055 102.595 41.5393 102.539 41.6789 102.539C41.8185 102.539 41.9523 102.595 42.051 102.693C42.4019 103.044 42.7302 103.065 42.7439 103.065C43.0217 103.065 43.2573 102.83 43.2573 102.539C43.2573 102.199 43.1905 102.145 42.604 101.997C42.0616 101.862 41.153 101.634 41.153 100.435C41.154 100.109 41.2557 99.7925 41.4441 99.5272C41.6325 99.262 41.8983 99.0615 42.2052 98.9534V98.8566C42.2052 98.717 42.2606 98.5832 42.3593 98.4846C42.4579 98.3859 42.5917 98.3305 42.7313 98.3305C42.8708 98.3305 43.0046 98.3859 43.1033 98.4846C43.2019 98.5832 43.2573 98.717 43.2573 98.8566V98.9618C43.5966 99.0825 43.9038 99.2791 44.1554 99.5368C44.2512 99.636 44.3042 99.7689 44.303 99.9069C44.3018 100.045 44.2465 100.177 44.149 100.274C44.0514 100.372 43.9195 100.427 43.7815 100.428C43.6436 100.43 43.5107 100.377 43.4115 100.281Z" fill="#225C8C"/>
<path d="M59.059 96.8174V102.174H57.9265V96.8174H59.059ZM61.084 99.8514V102.174H59.9698V98.1566H61.0317V98.8654H61.0788C61.1677 98.6317 61.3168 98.4469 61.5261 98.3109C61.7353 98.1731 61.989 98.1042 62.2872 98.1042C62.5662 98.1042 62.8094 98.1653 63.0169 98.2873C63.2244 98.4094 63.3857 98.5838 63.5008 98.8104C63.6158 99.0354 63.6734 99.3039 63.6734 99.616V102.174H62.5592V99.8148C62.5609 99.5689 62.4982 99.3771 62.3709 99.2394C62.2436 99.0999 62.0683 99.0301 61.8452 99.0301C61.6952 99.0301 61.5627 99.0624 61.4476 99.1269C61.3343 99.1914 61.2453 99.2856 61.1808 99.4094C61.118 99.5314 61.0858 99.6788 61.084 99.8514ZM68.1531 98.1566L66.7485 102.174H65.4931L64.0886 98.1566H65.2656L66.0999 101.031H66.1417L66.9735 98.1566H68.1531ZM70.4089 102.252C70.0026 102.252 69.6513 102.166 69.3549 101.993C69.0602 101.819 68.8326 101.577 68.6722 101.266C68.5118 100.954 68.4316 100.592 68.4316 100.181C68.4316 99.766 68.5118 99.4033 68.6722 99.0929C68.8326 98.7808 69.0602 98.5384 69.3549 98.3658C69.6513 98.1914 70.0026 98.1042 70.4089 98.1042C70.8152 98.1042 71.1657 98.1914 71.4603 98.3658C71.7568 98.5384 71.9852 98.7808 72.1456 99.0929C72.306 99.4033 72.3862 99.766 72.3862 100.181C72.3862 100.592 72.306 100.954 72.1456 101.266C71.9852 101.577 71.7568 101.819 71.4603 101.993C71.1657 102.166 70.8152 102.252 70.4089 102.252ZM70.4141 101.389C70.599 101.389 70.7533 101.337 70.8771 101.232C71.0009 101.126 71.0942 100.981 71.1569 100.798C71.2215 100.615 71.2537 100.407 71.2537 100.173C71.2537 99.9395 71.2215 99.7311 71.1569 99.548C71.0942 99.3649 71.0009 99.2202 70.8771 99.1138C70.7533 99.0075 70.599 98.9543 70.4141 98.9543C70.2276 98.9543 70.0706 99.0075 69.9434 99.1138C69.8178 99.2202 69.7228 99.3649 69.6583 99.548C69.5955 99.7311 69.5641 99.9395 69.5641 100.173C69.5641 100.407 69.5955 100.615 69.6583 100.798C69.7228 100.981 69.8178 101.126 69.9434 101.232C70.0706 101.337 70.2276 101.389 70.4141 101.389ZM73.1107 102.174V98.1566H74.2249V102.174H73.1107ZM73.6704 97.6387C73.5048 97.6387 73.3627 97.5838 73.2441 97.4739C73.1273 97.3623 73.0689 97.2289 73.0689 97.0737C73.0689 96.9203 73.1273 96.7887 73.2441 96.6788C73.3627 96.5672 73.5048 96.5114 73.6704 96.5114C73.8361 96.5114 73.9773 96.5672 74.0941 96.6788C74.2127 96.7887 74.272 96.9203 74.272 97.0737C74.272 97.2289 74.2127 97.3623 74.0941 97.4739C73.9773 97.5838 73.8361 97.6387 73.6704 97.6387ZM76.9326 102.252C76.5211 102.252 76.1671 102.165 75.8707 101.991C75.576 101.815 75.3494 101.571 75.1907 101.259C75.0338 100.946 74.9553 100.587 74.9553 100.181C74.9553 99.7694 75.0346 99.4085 75.1933 99.0981C75.3537 98.786 75.5813 98.5428 75.8759 98.3684C76.1706 98.1923 76.5211 98.1042 76.9274 98.1042C77.2778 98.1042 77.5847 98.1679 77.848 98.2952C78.1113 98.4225 78.3197 98.6012 78.4731 98.8314C78.6266 99.0615 78.7111 99.3318 78.7268 99.6422H77.6754C77.6458 99.4416 77.5673 99.2803 77.44 99.1583C77.3145 99.0345 77.1497 98.9726 76.9457 98.9726C76.7731 98.9726 76.6222 99.0197 76.4932 99.1138C76.3659 99.2062 76.2665 99.3414 76.195 99.5192C76.1235 99.6971 76.0878 99.9124 76.0878 100.165C76.0878 100.422 76.1227 100.64 76.1924 100.819C76.2639 100.999 76.3642 101.136 76.4932 101.23C76.6222 101.324 76.7731 101.371 76.9457 101.371C77.073 101.371 77.1872 101.345 77.2883 101.293C77.3912 101.24 77.4757 101.164 77.542 101.065C77.61 100.964 77.6545 100.843 77.6754 100.701H78.7268C78.7094 101.008 78.6257 101.279 78.4757 101.512C78.3275 101.744 78.1226 101.925 77.8611 102.056C77.5995 102.187 77.2901 102.252 76.9326 102.252ZM81.271 102.252C80.8578 102.252 80.5021 102.169 80.2039 102.001C79.9075 101.832 79.6791 101.593 79.5187 101.285C79.3582 100.974 79.278 100.607 79.278 100.184C79.278 99.7703 79.3582 99.4076 79.5187 99.0955C79.6791 98.7834 79.9049 98.5402 80.1961 98.3658C80.489 98.1914 80.8325 98.1042 81.2266 98.1042C81.4916 98.1042 81.7383 98.147 81.9668 98.2324C82.1969 98.3161 82.3974 98.4425 82.5683 98.6117C82.7409 98.7808 82.8752 98.9935 82.9711 99.2498C83.067 99.5044 83.115 99.8026 83.115 100.144V100.45H79.7227V99.7599H82.0662C82.0662 99.5994 82.0313 99.4573 81.9615 99.3335C81.8918 99.2097 81.795 99.113 81.6712 99.0432C81.5492 98.9717 81.407 98.936 81.2449 98.936C81.0758 98.936 80.9258 98.9752 80.795 99.0537C80.666 99.1304 80.5649 99.2341 80.4916 99.3649C80.4184 99.4939 80.3809 99.6378 80.3792 99.7965V100.453C80.3792 100.652 80.4158 100.823 80.489 100.968C80.564 101.113 80.6695 101.225 80.8055 101.303C80.9415 101.381 81.1028 101.421 81.2894 101.421C81.4132 101.421 81.5265 101.403 81.6294 101.368C81.7322 101.334 81.8203 101.281 81.8935 101.211C81.9668 101.142 82.0226 101.056 82.0609 100.955L83.0914 101.023C83.0391 101.271 82.9319 101.487 82.7697 101.672C82.6093 101.855 82.4018 101.998 82.1472 102.101C81.8944 102.202 81.6023 102.252 81.271 102.252ZM87.3619 102.252C86.9504 102.252 86.5964 102.165 86.3 101.991C86.0053 101.815 85.7786 101.571 85.6199 101.259C85.463 100.946 85.3846 100.587 85.3846 100.181C85.3846 99.7694 85.4639 99.4085 85.6226 99.0981C85.783 98.786 86.0105 98.5428 86.3052 98.3684C86.5999 98.1923 86.9504 98.1042 87.3566 98.1042C87.7071 98.1042 88.014 98.1679 88.2773 98.2952C88.5406 98.4225 88.7489 98.6012 88.9024 98.8314C89.0558 99.0615 89.1404 99.3318 89.1561 99.6422H88.1047C88.075 99.4416 87.9966 99.2803 87.8693 99.1583C87.7437 99.0345 87.5789 98.9726 87.3749 98.9726C87.2023 98.9726 87.0515 99.0197 86.9225 99.1138C86.7952 99.2062 86.6958 99.3414 86.6243 99.5192C86.5528 99.6971 86.5171 99.9124 86.5171 100.165C86.5171 100.422 86.5519 100.64 86.6217 100.819C86.6932 100.999 86.7934 101.136 86.9225 101.23C87.0515 101.324 87.2023 101.371 87.3749 101.371C87.5022 101.371 87.6164 101.345 87.7176 101.293C87.8204 101.24 87.905 101.164 87.9713 101.065C88.0393 100.964 88.0837 100.843 88.1047 100.701H89.1561C89.1387 101.008 89.055 101.279 88.905 101.512C88.7568 101.744 88.5519 101.925 88.2904 102.056C88.0288 102.187 87.7193 102.252 87.3619 102.252ZM89.8695 102.174V98.1566H90.9497V98.8575H90.9915C91.0647 98.6082 91.1877 98.4199 91.3603 98.2926C91.5329 98.1635 91.7317 98.099 91.9566 98.099C92.0124 98.099 92.0726 98.1025 92.1371 98.1095C92.2016 98.1165 92.2583 98.126 92.3071 98.1383V99.1269C92.2548 99.1112 92.1824 99.0973 92.09 99.0851C91.9976 99.0729 91.913 99.0667 91.8363 99.0667C91.6724 99.0667 91.5259 99.1025 91.3969 99.174C91.2696 99.2437 91.1685 99.3414 91.0935 99.4669C91.0203 99.5925 90.9837 99.7372 90.9837 99.9011V102.174H89.8695ZM94.527 102.252C94.1137 102.252 93.758 102.169 93.4599 102.001C93.1635 101.832 92.935 101.593 92.7746 101.285C92.6142 100.974 92.534 100.607 92.534 100.184C92.534 99.7703 92.6142 99.4076 92.7746 99.0955C92.935 98.7834 93.1608 98.5402 93.452 98.3658C93.745 98.1914 94.0885 98.1042 94.4825 98.1042C94.7476 98.1042 94.9943 98.147 95.2227 98.2324C95.4529 98.3161 95.6534 98.4425 95.8243 98.6117C95.9969 98.7808 96.1312 98.9935 96.2271 99.2498C96.323 99.5044 96.3709 99.8026 96.3709 100.144V100.45H92.9786V99.7599H95.3221C95.3221 99.5994 95.2872 99.4573 95.2175 99.3335C95.1477 99.2097 95.051 99.113 94.9272 99.0432C94.8051 98.9717 94.663 98.936 94.5008 98.936C94.3317 98.936 94.1817 98.9752 94.051 99.0537C93.9219 99.1304 93.8208 99.2341 93.7476 99.3649C93.6743 99.4939 93.6369 99.6378 93.6351 99.7965V100.453C93.6351 100.652 93.6717 100.823 93.745 100.968C93.8199 101.113 93.9254 101.225 94.0614 101.303C94.1974 101.381 94.3587 101.421 94.5453 101.421C94.6691 101.421 94.7824 101.403 94.8853 101.368C94.9882 101.334 95.0762 101.281 95.1495 101.211C95.2227 101.142 95.2785 101.056 95.3169 100.955L96.3474 101.023C96.2951 101.271 96.1878 101.487 96.0257 101.672C95.8653 101.855 95.6578 101.998 95.4032 102.101C95.1504 102.202 94.8583 102.252 94.527 102.252ZM98.2436 102.25C97.9873 102.25 97.7589 102.205 97.5583 102.116C97.3578 102.026 97.1992 101.892 97.0823 101.716C96.9672 101.538 96.9097 101.317 96.9097 101.052C96.9097 100.829 96.9507 100.641 97.0326 100.49C97.1146 100.338 97.2262 100.216 97.3674 100.123C97.5087 100.031 97.6691 99.9612 97.8487 99.9142C98.03 99.8671 98.2201 99.834 98.4188 99.8148C98.6525 99.7904 98.8408 99.7677 98.9838 99.7468C99.1268 99.7241 99.2305 99.691 99.295 99.6474C99.3595 99.6038 99.3918 99.5393 99.3918 99.4538V99.4381C99.3918 99.2725 99.3395 99.1443 99.2349 99.0537C99.132 98.963 98.9855 98.9177 98.7955 98.9177C98.5949 98.9177 98.4354 98.9621 98.3168 99.0511C98.1983 99.1382 98.1198 99.2481 98.0814 99.3806L97.0509 99.2969C97.1032 99.0528 97.2061 98.8418 97.3596 98.664C97.513 98.4844 97.7109 98.3466 97.9533 98.2507C98.1974 98.1531 98.4799 98.1042 98.8007 98.1042C99.0239 98.1042 99.2375 98.1304 99.4415 98.1827C99.6472 98.235 99.8295 98.3161 99.9881 98.426C100.149 98.5358 100.275 98.677 100.367 98.8497C100.46 99.0205 100.506 99.2254 100.506 99.4643V102.174H99.4493V101.617H99.418C99.3534 101.742 99.2671 101.853 99.159 101.949C99.0509 102.043 98.921 102.117 98.7693 102.171C98.6176 102.224 98.4424 102.25 98.2436 102.25ZM98.5627 101.481C98.7266 101.481 98.8713 101.449 98.9969 101.384C99.1224 101.318 99.2209 101.229 99.2924 101.117C99.3639 101.006 99.3996 100.879 99.3996 100.738V100.312C99.3648 100.334 99.3168 100.355 99.2558 100.374C99.1965 100.392 99.1294 100.408 99.0544 100.424C98.9794 100.438 98.9044 100.451 98.8295 100.463C98.7545 100.474 98.6865 100.483 98.6255 100.492C98.4947 100.511 98.3805 100.542 98.2828 100.584C98.1852 100.626 98.1093 100.682 98.0553 100.754C98.0012 100.823 97.9742 100.911 97.9742 101.015C97.9742 101.167 98.0291 101.283 98.139 101.363C98.2506 101.442 98.3918 101.481 98.5627 101.481ZM103.507 98.1566V98.9935H101.088V98.1566H103.507ZM101.637 97.1941H102.751V100.939C102.751 101.042 102.767 101.123 102.798 101.18C102.83 101.236 102.873 101.275 102.929 101.298C102.987 101.32 103.053 101.332 103.128 101.332C103.18 101.332 103.233 101.327 103.285 101.319C103.337 101.308 103.377 101.3 103.405 101.295L103.581 102.124C103.525 102.142 103.446 102.162 103.345 102.184C103.244 102.209 103.121 102.224 102.976 102.229C102.708 102.239 102.472 102.204 102.27 102.122C102.07 102.04 101.914 101.912 101.802 101.74C101.69 101.567 101.635 101.349 101.637 101.086V97.1941ZM106.021 102.252C105.608 102.252 105.252 102.169 104.954 102.001C104.657 101.832 104.429 101.593 104.268 101.285C104.108 100.974 104.028 100.607 104.028 100.184C104.028 99.7703 104.108 99.4076 104.268 99.0955C104.429 98.7834 104.655 98.5402 104.946 98.3658C105.239 98.1914 105.582 98.1042 105.976 98.1042C106.241 98.1042 106.488 98.147 106.716 98.2324C106.947 98.3161 107.147 98.4425 107.318 98.6117C107.491 98.7808 107.625 98.9935 107.721 99.2498C107.817 99.5044 107.865 99.8026 107.865 100.144V100.45H104.472V99.7599H106.816C106.816 99.5994 106.781 99.4573 106.711 99.3335C106.642 99.2097 106.545 99.113 106.421 99.0432C106.299 98.9717 106.157 98.936 105.995 98.936C105.825 98.936 105.676 98.9752 105.545 99.0537C105.416 99.1304 105.315 99.2341 105.241 99.3649C105.168 99.4939 105.131 99.6378 105.129 99.7965V100.453C105.129 100.652 105.165 100.823 105.239 100.968C105.314 101.113 105.419 101.225 105.555 101.303C105.691 101.381 105.852 101.421 106.039 101.421C106.163 101.421 106.276 101.403 106.379 101.368C106.482 101.334 106.57 101.281 106.643 101.211C106.716 101.142 106.772 101.056 106.811 100.955L107.841 101.023C107.789 101.271 107.682 101.487 107.519 101.672C107.359 101.855 107.152 101.998 106.897 102.101C106.644 102.202 106.352 102.252 106.021 102.252ZM110.072 102.239C109.767 102.239 109.491 102.161 109.243 102.004C108.997 101.845 108.802 101.612 108.657 101.306C108.514 100.997 108.443 100.619 108.443 100.17C108.443 99.7102 108.517 99.3274 108.665 99.0223C108.813 98.7154 109.01 98.4861 109.256 98.3344C109.504 98.181 109.775 98.1042 110.07 98.1042C110.294 98.1042 110.482 98.1426 110.632 98.2193C110.784 98.2943 110.906 98.3885 110.998 98.5018C111.092 98.6134 111.164 98.7232 111.213 98.8314H111.247V96.8174H112.358V102.174H111.26V101.531H111.213C111.16 101.642 111.086 101.753 110.99 101.863C110.896 101.971 110.773 102.061 110.621 102.132C110.471 102.204 110.288 102.239 110.072 102.239ZM110.425 101.353C110.605 101.353 110.757 101.304 110.88 101.206C111.006 101.107 111.102 100.968 111.168 100.79C111.236 100.613 111.27 100.404 111.27 100.165C111.27 99.9264 111.237 99.7189 111.171 99.5428C111.104 99.3667 111.008 99.2307 110.883 99.1348C110.757 99.0389 110.605 98.9909 110.425 98.9909C110.242 98.9909 110.088 99.0406 109.962 99.14C109.837 99.2394 109.742 99.3771 109.677 99.5532C109.613 99.7293 109.58 99.9333 109.58 100.165C109.58 100.399 109.613 100.606 109.677 100.785C109.743 100.963 109.839 101.102 109.962 101.204C110.088 101.303 110.242 101.353 110.425 101.353Z" fill="#032B3A"/>
<path d="M58.7582 107.339V112.696H58.1096V107.339H58.7582ZM60.5923 110.279V112.696H59.9751V108.678H60.5714V109.306H60.6237C60.7179 109.102 60.8609 108.938 61.0527 108.814C61.2445 108.689 61.4921 108.626 61.7955 108.626C62.0675 108.626 62.3055 108.682 62.5095 108.793C62.7135 108.903 62.8722 109.071 62.9855 109.296C63.0988 109.519 63.1555 109.801 63.1555 110.143V112.696H62.5383V110.185C62.5383 109.869 62.4563 109.623 62.2924 109.447C62.1285 109.269 61.9036 109.18 61.6176 109.18C61.4206 109.18 61.2445 109.223 61.0893 109.309C60.9358 109.394 60.8146 109.519 60.7257 109.683C60.6368 109.847 60.5923 110.045 60.5923 110.279ZM67.4246 108.678L65.939 112.696H65.3113L63.8257 108.678H64.4953L65.6043 111.88H65.6461L66.7551 108.678H67.4246ZM69.7276 112.779C69.3649 112.779 69.0467 112.693 68.7729 112.52C68.5009 112.348 68.2882 112.106 68.1347 111.796C67.9831 111.486 67.9072 111.123 67.9072 110.708C67.9072 110.289 67.9831 109.924 68.1347 109.612C68.2882 109.3 68.5009 109.058 68.7729 108.885C69.0467 108.712 69.3649 108.626 69.7276 108.626C70.0903 108.626 70.4076 108.712 70.6796 108.885C70.9534 109.058 71.1661 109.3 71.3178 109.612C71.4712 109.924 71.548 110.289 71.548 110.708C71.548 111.123 71.4712 111.486 71.3178 111.796C71.1661 112.106 70.9534 112.348 70.6796 112.52C70.4076 112.693 70.0903 112.779 69.7276 112.779ZM69.7276 112.225C70.0031 112.225 70.2298 112.154 70.4076 112.013C70.5855 111.872 70.7171 111.686 70.8025 111.456C70.888 111.226 70.9307 110.976 70.9307 110.708C70.9307 110.439 70.888 110.189 70.8025 109.957C70.7171 109.725 70.5855 109.538 70.4076 109.395C70.2298 109.252 70.0031 109.18 69.7276 109.18C69.4521 109.18 69.2254 109.252 69.0476 109.395C68.8697 109.538 68.7381 109.725 68.6526 109.957C68.5672 110.189 68.5245 110.439 68.5245 110.708C68.5245 110.976 68.5672 111.226 68.6526 111.456C68.7381 111.686 68.8697 111.872 69.0476 112.013C69.2254 112.154 69.4521 112.225 69.7276 112.225ZM72.4902 112.696V108.678H73.1074V112.696H72.4902ZM72.8041 108.009C72.6837 108.009 72.58 107.968 72.4928 107.886C72.4074 107.804 72.3646 107.705 72.3646 107.59C72.3646 107.475 72.4074 107.377 72.4928 107.295C72.58 107.213 72.6837 107.172 72.8041 107.172C72.9244 107.172 73.0272 107.213 73.1127 107.295C73.1999 107.377 73.2435 107.475 73.2435 107.59C73.2435 107.705 73.1999 107.804 73.1127 107.886C73.0272 107.968 72.9244 108.009 72.8041 108.009ZM75.8701 112.779C75.4934 112.779 75.1691 112.69 74.8971 112.513C74.6251 112.335 74.4158 112.09 74.2694 111.778C74.1229 111.466 74.0497 111.109 74.0497 110.708C74.0497 110.3 74.1247 109.94 74.2746 109.628C74.4263 109.314 74.6373 109.069 74.9076 108.893C75.1796 108.715 75.4969 108.626 75.8596 108.626C76.1421 108.626 76.3966 108.678 76.6233 108.783C76.85 108.888 77.0357 109.034 77.1804 109.222C77.3251 109.411 77.4149 109.63 77.4498 109.881H76.8326C76.7855 109.698 76.6809 109.536 76.5187 109.395C76.3583 109.252 76.1421 109.18 75.8701 109.18C75.6294 109.18 75.4184 109.243 75.2371 109.369C75.0575 109.493 74.9171 109.668 74.816 109.894C74.7166 110.119 74.6669 110.384 74.6669 110.687C74.6669 110.997 74.7158 111.268 74.8134 111.498C74.9128 111.728 75.0523 111.907 75.2319 112.034C75.4132 112.161 75.6259 112.225 75.8701 112.225C76.0305 112.225 76.1761 112.197 76.3068 112.141C76.4376 112.085 76.5483 112.005 76.639 111.901C76.7297 111.796 76.7942 111.67 76.8326 111.524H77.4498C77.4149 111.761 77.3286 111.975 77.1909 112.165C77.0549 112.353 76.8744 112.503 76.6495 112.615C76.4263 112.724 76.1665 112.779 75.8701 112.779ZM80.0365 112.779C79.6494 112.779 79.3155 112.694 79.0348 112.523C78.7558 112.35 78.5405 112.11 78.3888 111.801C78.2388 111.491 78.1638 111.13 78.1638 110.718C78.1638 110.307 78.2388 109.944 78.3888 109.63C78.5405 109.315 78.7515 109.069 79.0217 108.893C79.2937 108.715 79.6111 108.626 79.9738 108.626C80.183 108.626 80.3896 108.661 80.5936 108.731C80.7976 108.8 80.9833 108.914 81.1507 109.071C81.3181 109.226 81.4515 109.432 81.5509 109.688C81.6503 109.944 81.7 110.26 81.7 110.635V110.896H78.6032V110.363H81.0723C81.0723 110.136 81.0269 109.934 80.9363 109.756C80.8473 109.578 80.72 109.438 80.5544 109.335C80.3905 109.232 80.1969 109.18 79.9738 109.18C79.7279 109.18 79.5152 109.241 79.3356 109.364C79.1577 109.484 79.0208 109.641 78.9249 109.834C78.829 110.028 78.7811 110.235 78.7811 110.457V110.813C78.7811 111.116 78.8334 111.373 78.938 111.584C79.0444 111.793 79.1917 111.953 79.38 112.063C79.5684 112.171 79.7872 112.225 80.0365 112.225C80.1987 112.225 80.3452 112.202 80.4759 112.157C80.6085 112.11 80.7227 112.04 80.8186 111.948C80.9145 111.853 80.9886 111.737 81.0409 111.597L81.6372 111.765C81.5744 111.967 81.4689 112.145 81.3207 112.298C81.1725 112.45 80.9894 112.568 80.7715 112.654C80.5535 112.738 80.3085 112.779 80.0365 112.779ZM86.7086 112.696L87.5874 107.339H88.1105L87.2317 112.696H86.7086ZM84.271 111.21L84.3547 110.687H88.3512L88.2675 111.21H84.271ZM84.8255 112.696L85.7043 107.339H86.2274L85.3486 112.696H84.8255ZM84.5849 109.348L84.6686 108.825H88.665L88.5813 109.348H84.5849ZM89.2208 111.597V111.064L91.5748 107.339H91.9619V108.166H91.7003L89.9218 110.98V111.022H93.0917V111.597H89.2208ZM91.7422 112.696V111.435V111.187V107.339H92.3594V112.696H91.7422ZM95.8831 107.339V112.696H95.2345V108.019H95.2031L93.8954 108.888V108.228L95.2345 107.339H95.8831Z" fill="#233D48"/>
<path d="M159.306 102.844V96.1479H159.735V102.844H159.306ZM160.444 98.358C160.423 98.147 160.333 97.9831 160.174 97.8662C160.015 97.7494 159.8 97.691 159.528 97.691C159.343 97.691 159.187 97.7172 159.06 97.7695C158.933 97.82 158.835 97.8907 158.767 97.9813C158.701 98.072 158.668 98.1749 158.668 98.2899C158.664 98.3859 158.684 98.4695 158.728 98.541C158.773 98.6125 158.835 98.6744 158.913 98.7267C158.992 98.7773 159.083 98.8218 159.185 98.8601C159.288 98.8967 159.398 98.9281 159.515 98.9543L159.996 99.0694C160.23 99.1217 160.444 99.1914 160.64 99.2786C160.835 99.3658 161.004 99.473 161.147 99.6003C161.29 99.7276 161.401 99.8776 161.479 100.05C161.559 100.223 161.6 100.421 161.602 100.644C161.6 100.972 161.517 101.256 161.351 101.497C161.187 101.735 160.95 101.921 160.64 102.054C160.331 102.184 159.959 102.25 159.523 102.25C159.09 102.25 158.714 102.184 158.393 102.051C158.074 101.919 157.825 101.722 157.645 101.463C157.467 101.201 157.374 100.878 157.365 100.492H158.461C158.473 100.672 158.525 100.822 158.615 100.942C158.708 101.061 158.831 101.15 158.984 101.211C159.139 101.271 159.315 101.3 159.51 101.3C159.702 101.3 159.868 101.272 160.009 101.217C160.152 101.161 160.263 101.083 160.342 100.984C160.42 100.885 160.459 100.77 160.459 100.641C160.459 100.521 160.423 100.42 160.352 100.338C160.282 100.256 160.179 100.186 160.043 100.129C159.909 100.071 159.744 100.019 159.549 99.9717L158.966 99.8252C158.514 99.7154 158.158 99.5436 157.896 99.31C157.634 99.0763 157.505 98.7616 157.506 98.3658C157.505 98.0415 157.591 97.7581 157.765 97.5158C157.941 97.2734 158.183 97.0842 158.49 96.9482C158.797 96.8122 159.145 96.7442 159.536 96.7442C159.934 96.7442 160.28 96.8122 160.577 96.9482C160.875 97.0842 161.107 97.2734 161.273 97.5158C161.438 97.7581 161.524 98.0389 161.529 98.358H160.444ZM162.333 102.174V101.358L164.239 99.5925C164.401 99.4355 164.537 99.2943 164.647 99.1688C164.759 99.0432 164.843 98.9203 164.901 98.8C164.959 98.6779 164.987 98.5463 164.987 98.405C164.987 98.2481 164.952 98.113 164.88 97.9996C164.809 97.8845 164.711 97.7965 164.587 97.7355C164.463 97.6727 164.323 97.6413 164.166 97.6413C164.002 97.6413 163.859 97.6744 163.737 97.7407C163.615 97.807 163.521 97.902 163.455 98.0258C163.388 98.1496 163.355 98.2969 163.355 98.4678H162.28C162.28 98.1173 162.36 97.8131 162.518 97.555C162.677 97.2969 162.899 97.0973 163.185 96.956C163.471 96.8148 163.801 96.7442 164.174 96.7442C164.557 96.7442 164.891 96.8122 165.176 96.9482C165.462 97.0825 165.684 97.269 165.843 97.5079C166.001 97.7468 166.081 98.0206 166.081 98.3292C166.081 98.5314 166.04 98.7311 165.96 98.9281C165.882 99.1252 165.741 99.344 165.539 99.5846C165.337 99.8235 165.052 100.11 164.684 100.445L163.902 101.211V101.248H166.151V102.174H162.333ZM169.072 102.292C168.622 102.29 168.235 102.179 167.911 101.959C167.588 101.74 167.34 101.422 167.165 101.005C166.993 100.588 166.907 100.087 166.909 99.5009C166.909 98.9168 166.995 98.419 167.168 98.0075C167.342 97.596 167.591 97.283 167.913 97.0685C168.238 96.8523 168.624 96.7442 169.072 96.7442C169.52 96.7442 169.905 96.8523 170.228 97.0685C170.552 97.2847 170.802 97.5986 170.976 98.0101C171.15 98.4199 171.237 98.9168 171.235 99.5009C171.235 100.089 171.148 100.591 170.973 101.007C170.801 101.424 170.553 101.742 170.231 101.962C169.908 102.182 169.522 102.292 169.072 102.292ZM169.072 101.353C169.379 101.353 169.624 101.198 169.807 100.89C169.99 100.581 170.081 100.118 170.079 99.5009C170.079 99.0946 170.037 98.7564 169.953 98.4861C169.871 98.2158 169.755 98.0127 169.603 97.8767C169.453 97.7407 169.276 97.6727 169.072 97.6727C168.767 97.6727 168.523 97.8253 168.34 98.1304C168.157 98.4355 168.064 98.8924 168.062 99.5009C168.062 99.9124 168.103 100.256 168.185 100.531C168.269 100.805 168.387 101.011 168.538 101.149C168.69 101.285 168.868 101.353 169.072 101.353ZM174.143 102.292C173.693 102.29 173.306 102.179 172.982 101.959C172.659 101.74 172.41 101.422 172.236 101.005C172.063 100.588 171.978 100.087 171.98 99.5009C171.98 98.9168 172.066 98.419 172.239 98.0075C172.413 97.596 172.662 97.283 172.984 97.0685C173.308 96.8523 173.695 96.7442 174.143 96.7442C174.591 96.7442 174.976 96.8523 175.299 97.0685C175.623 97.2847 175.873 97.5986 176.047 98.0101C176.221 98.4199 176.308 98.9168 176.306 99.5009C176.306 100.089 176.219 100.591 176.044 101.007C175.872 101.424 175.624 101.742 175.301 101.962C174.979 102.182 174.593 102.292 174.143 102.292ZM174.143 101.353C174.45 101.353 174.695 101.198 174.878 100.89C175.061 100.581 175.152 100.118 175.15 99.5009C175.15 99.0946 175.108 98.7564 175.024 98.4861C174.942 98.2158 174.825 98.0127 174.674 97.8767C174.524 97.7407 174.347 97.6727 174.143 97.6727C173.838 97.6727 173.594 97.8253 173.41 98.1304C173.227 98.4355 173.135 98.8924 173.133 99.5009C173.133 99.9124 173.174 100.256 173.256 100.531C173.34 100.805 173.458 101.011 173.609 101.149C173.761 101.285 173.939 101.353 174.143 101.353ZM177.559 102.242C177.387 102.242 177.238 102.181 177.115 102.059C176.993 101.935 176.932 101.787 176.932 101.614C176.932 101.443 176.993 101.297 177.115 101.175C177.238 101.053 177.387 100.992 177.559 100.992C177.727 100.992 177.873 101.053 177.999 101.175C178.124 101.297 178.187 101.443 178.187 101.614C178.187 101.729 178.157 101.835 178.098 101.931C178.041 102.025 177.965 102.101 177.871 102.158C177.776 102.214 177.673 102.242 177.559 102.242ZM180.976 102.292C180.526 102.29 180.139 102.179 179.814 101.959C179.492 101.74 179.243 101.422 179.069 101.005C178.896 100.588 178.811 100.087 178.813 99.5009C178.813 98.9168 178.899 98.419 179.072 98.0075C179.246 97.596 179.495 97.283 179.817 97.0685C180.141 96.8523 180.528 96.7442 180.976 96.7442C181.424 96.7442 181.809 96.8523 182.132 97.0685C182.456 97.2847 182.705 97.5986 182.88 98.0101C183.054 98.4199 183.141 98.9168 183.139 99.5009C183.139 100.089 183.052 100.591 182.877 101.007C182.705 101.424 182.457 101.742 182.134 101.962C181.812 102.182 181.426 102.292 180.976 102.292ZM180.976 101.353C181.283 101.353 181.528 101.198 181.711 100.89C181.894 100.581 181.984 100.118 181.983 99.5009C181.983 99.0946 181.941 98.7564 181.857 98.4861C181.775 98.2158 181.658 98.0127 181.507 97.8767C181.357 97.7407 181.18 97.6727 180.976 97.6727C180.671 97.6727 180.427 97.8253 180.243 98.1304C180.06 98.4355 179.968 98.8924 179.966 99.5009C179.966 99.9124 180.007 100.256 180.089 100.531C180.173 100.805 180.291 101.011 180.442 101.149C180.594 101.285 180.772 101.353 180.976 101.353ZM186.047 102.292C185.597 102.29 185.21 102.179 184.885 101.959C184.563 101.74 184.314 101.422 184.14 101.005C183.967 100.588 183.882 100.087 183.884 99.5009C183.884 98.9168 183.97 98.419 184.142 98.0075C184.317 97.596 184.565 97.283 184.888 97.0685C185.212 96.8523 185.598 96.7442 186.047 96.7442C186.495 96.7442 186.88 96.8523 187.203 97.0685C187.527 97.2847 187.776 97.5986 187.951 98.0101C188.125 98.4199 188.211 98.9168 188.21 99.5009C188.21 100.089 188.122 100.591 187.948 101.007C187.775 101.424 187.528 101.742 187.205 101.962C186.883 102.182 186.496 102.292 186.047 102.292ZM186.047 101.353C186.353 101.353 186.598 101.198 186.782 100.89C186.965 100.581 187.055 100.118 187.054 99.5009C187.054 99.0946 187.012 98.7564 186.928 98.4861C186.846 98.2158 186.729 98.0127 186.577 97.8767C186.428 97.7407 186.251 97.6727 186.047 97.6727C185.741 97.6727 185.497 97.8253 185.314 98.1304C185.131 98.4355 185.039 98.8924 185.037 99.5009C185.037 99.9124 185.078 100.256 185.16 100.531C185.244 100.805 185.361 101.011 185.513 101.149C185.665 101.285 185.843 101.353 186.047 101.353Z" fill="#233D48"/>
</g>
</g>
<defs>
<clipPath id="clip0_2_12032">
<rect width="224" height="117" fill="white"/>
</clipPath>
<clipPath id="clip1_2_12032">
<path d="M28 15.2087C28 12.8843 29.8843 11 32.2087 11H192.791C195.116 11 197 12.8843 197 15.2087V120.426C197 122.75 195.116 124.635 192.791 124.635H32.2087C29.8843 124.635 28 122.75 28 120.426V15.2087Z" fill="white"/>
</clipPath>
</defs>
</svg>
