<svg width="224" height="117" viewBox="0 0 224 117" fill="none" xmlns="http://www.w3.org/2000/svg">
<g clip-path="url(#clip0_36_5168)">
<path d="M54.5 47C54.5 42.5817 58.0817 39 62.5 39H162.5C166.918 39 170.5 42.5817 170.5 47V69C170.5 73.4183 166.918 77 162.5 77H62.5C58.0817 77 54.5 73.4183 54.5 69V47Z" fill="#F1F0E9"/>
<path d="M72.0913 53.496L72.7393 54.528L67.0913 57.992L72.7393 61.488L72.0193 62.472L65.9393 58.672V57.296L72.0913 53.496ZM82.613 51.984L83.237 63H81.901L81.557 57.248C81.541 56.8587 81.525 56.464 81.509 56.064C81.493 55.664 81.4823 55.28 81.477 54.912C81.4717 54.544 81.469 54.216 81.469 53.928C81.469 53.64 81.469 53.416 81.469 53.256L79.613 61.024H78.221L76.229 53.256C76.2343 53.4107 76.2397 53.64 76.245 53.944C76.2503 54.2427 76.253 54.5813 76.253 54.96C76.2583 55.3387 76.2557 55.728 76.245 56.128C76.2397 56.5227 76.229 56.8907 76.213 57.232L75.917 63H74.613L75.237 51.984H77.173L78.957 59.528L80.661 51.984H82.613ZM91.3588 61.16C91.3588 61.496 91.4148 61.7413 91.5268 61.896C91.6388 62.0507 91.8121 62.1653 92.0468 62.24L91.7188 63.184C91.3561 63.136 91.0388 63.0213 90.7668 62.84C90.4948 62.6533 90.2974 62.3733 90.1748 62C89.8708 62.3893 89.4921 62.6853 89.0388 62.888C88.5854 63.0853 88.0841 63.184 87.5348 63.184C86.6921 63.184 86.0281 62.9467 85.5428 62.472C85.0574 61.9973 84.8148 61.368 84.8148 60.584C84.8148 59.7147 85.1534 59.048 85.8307 58.584C86.5081 58.12 87.4868 57.888 88.7668 57.888H90.0068V57.184C90.0068 56.576 89.8281 56.1467 89.4708 55.896C89.1188 55.64 88.6281 55.512 87.9988 55.512C87.7214 55.512 87.3961 55.5467 87.0228 55.616C86.6494 55.68 86.2441 55.7893 85.8068 55.944L85.4548 54.928C85.9721 54.736 86.4574 54.6 86.9108 54.52C87.3641 54.44 87.7961 54.4 88.2068 54.4C89.2574 54.4 90.0441 54.6453 90.5668 55.136C91.0948 55.6213 91.3588 56.2827 91.3588 57.12V61.16ZM87.8788 62.16C88.2948 62.16 88.6921 62.056 89.0708 61.848C89.4494 61.6347 89.7614 61.3413 90.0068 60.968V58.8H88.7908C87.8628 58.8 87.2068 58.96 86.8228 59.28C86.4441 59.6 86.2548 60.0293 86.2548 60.568C86.2548 61.0907 86.3881 61.488 86.6548 61.76C86.9268 62.0267 87.3348 62.16 87.8788 62.16ZM95.0005 63V61.968H96.3125V55.608H95.0005V54.576H97.3365L97.5845 56.568C97.9098 55.8747 98.3045 55.3387 98.7685 54.96C99.2325 54.5813 99.8458 54.392 100.609 54.392C100.843 54.392 101.051 54.4107 101.233 54.448C101.419 54.48 101.609 54.5227 101.801 54.576L101.409 55.776C101.233 55.728 101.073 55.6933 100.929 55.672C100.785 55.6453 100.619 55.632 100.433 55.632C99.7872 55.632 99.2325 55.8613 98.7685 56.32C98.3045 56.7787 97.9338 57.472 97.6565 58.4V61.968H99.3685V63H95.0005ZM100.505 57.424V55.592L100.641 54.576H101.801L101.609 57.424H100.505ZM111.57 54.576L107.778 58.368L112.01 63H110.242L106.098 58.4L109.826 54.576H111.57ZM105.946 51.016V63H104.602V51.184L105.946 51.016ZM119.148 51.016L120.492 51.184V63H119.316L119.188 61.888C118.873 62.336 118.511 62.664 118.1 62.872C117.695 63.08 117.26 63.184 116.796 63.184C116.065 63.184 115.463 63 114.988 62.632C114.513 62.264 114.161 61.752 113.932 61.096C113.703 60.4347 113.588 59.6693 113.588 58.8C113.588 57.9573 113.719 57.2053 113.98 56.544C114.241 55.8773 114.617 55.3547 115.108 54.976C115.604 54.592 116.199 54.4 116.892 54.4C117.377 54.4 117.804 54.4853 118.172 54.656C118.54 54.8213 118.865 55.0667 119.148 55.392V51.016ZM117.244 55.48C116.54 55.48 115.999 55.7547 115.62 56.304C115.241 56.8533 115.052 57.6853 115.052 58.8C115.052 59.5253 115.129 60.1333 115.284 60.624C115.439 61.1147 115.665 61.4827 115.964 61.728C116.268 61.9733 116.639 62.096 117.076 62.096C117.556 62.096 117.964 61.96 118.3 61.688C118.641 61.416 118.924 61.1093 119.148 60.768V56.56C118.919 56.2187 118.641 55.9547 118.316 55.768C117.991 55.576 117.633 55.48 117.244 55.48ZM126.91 54.4C127.704 54.4 128.368 54.5813 128.902 54.944C129.44 55.3013 129.843 55.808 130.11 56.464C130.382 57.12 130.518 57.8933 130.518 58.784C130.518 59.6427 130.379 60.4027 130.102 61.064C129.824 61.7253 129.416 62.2453 128.878 62.624C128.344 62.9973 127.683 63.184 126.894 63.184C126.104 63.184 125.44 63.0027 124.902 62.64C124.363 62.2773 123.955 61.768 123.678 61.112C123.406 60.4507 123.27 59.68 123.27 58.8C123.27 57.9307 123.408 57.1653 123.686 56.504C123.963 55.8427 124.371 55.328 124.91 54.96C125.454 54.5867 126.12 54.4 126.91 54.4ZM126.91 55.496C126.184 55.496 125.635 55.7653 125.262 56.304C124.894 56.8373 124.71 57.6693 124.71 58.8C124.71 59.9093 124.891 60.7333 125.254 61.272C125.622 61.8107 126.168 62.08 126.894 62.08C127.619 62.08 128.163 61.8107 128.526 61.272C128.894 60.7333 129.078 59.904 129.078 58.784C129.078 57.664 128.896 56.8373 128.534 56.304C128.171 55.7653 127.63 55.496 126.91 55.496ZM139.536 63H137.632L136.544 56.816L135.36 63H133.504L131.968 54.576H133.344L134.416 62.168L135.76 55.648H137.352L138.624 62.168L139.696 54.576H141.008L139.536 63ZM142.889 63V54.576H144.033L144.137 55.744C144.479 55.312 144.905 54.9813 145.417 54.752C145.935 54.5173 146.436 54.4 146.921 54.4C147.748 54.4 148.348 54.6187 148.721 55.056C149.1 55.4933 149.289 56.1013 149.289 56.88V63H147.945V57.872C147.945 57.296 147.913 56.832 147.849 56.48C147.785 56.1227 147.652 55.864 147.449 55.704C147.247 55.5387 146.932 55.456 146.505 55.456C146.175 55.456 145.863 55.528 145.569 55.672C145.281 55.816 145.023 55.9973 144.793 56.216C144.569 56.4293 144.383 56.6453 144.233 56.864V63H142.889ZM152.931 53.496L159.083 57.296V58.672L153.011 62.472L152.283 61.48L157.931 57.992L152.283 54.512L152.931 53.496Z" fill="#233D48"/>
</g>
<defs>
<clipPath id="clip0_36_5168">
<path d="M0 8C0 3.58172 3.58172 0 8 0H216C220.418 0 224 3.58172 224 8V109C224 113.418 220.418 117 216 117H8C3.58172 117 0 113.418 0 109V8Z" fill="white"/>
</clipPath>
</defs>
</svg>
