<svg width="274" height="214" viewBox="0 0 274 214" fill="none" xmlns="http://www.w3.org/2000/svg">
<path d="M82.5 23C82.5 18.8579 85.8579 15.5 90 15.5H224C228.142 15.5 231.5 18.8579 231.5 23V47C231.5 51.1421 228.142 54.5 224 54.5H90C85.8579 54.5 82.5 51.1421 82.5 47V23Z" fill="white"/>
<path d="M82.5 23C82.5 18.8579 85.8579 15.5 90 15.5H224C228.142 15.5 231.5 18.8579 231.5 23V47C231.5 51.1421 228.142 54.5 224 54.5H90C85.8579 54.5 82.5 51.1421 82.5 47V23Z" stroke="#DADFE2"/>
<path d="M102 35C102 33.8954 102.895 33 104 33C105.105 33 106 33.8954 106 35C106 36.1046 105.105 37 104 37C102.895 37 102 36.1046 102 35ZM108 35C108 33.8954 108.895 33 110 33C111.105 33 112 33.8954 112 35C112 36.1046 111.105 37 110 37C108.895 37 108 36.1046 108 35ZM116 33C114.895 33 114 33.8954 114 35C114 36.1046 114.895 37 116 37C117.105 37 118 36.1046 118 35C118 33.8954 117.105 33 116 33Z" fill="#388523"/>
<path d="M127.058 29.8182H129.315L132.338 37.196H132.457L135.48 29.8182H137.737V40H135.967V33.005H135.873L133.059 39.9702H131.736L128.922 32.9901H128.828V40H127.058V29.8182ZM142.997 40.1491C142.251 40.1491 141.605 39.9851 141.058 39.657C140.511 39.3288 140.087 38.8698 139.785 38.2798C139.487 37.6899 139.338 37.0005 139.338 36.2116C139.338 35.4228 139.487 34.7318 139.785 34.1385C140.087 33.5452 140.511 33.0845 141.058 32.7564C141.605 32.4283 142.251 32.2642 142.997 32.2642C143.743 32.2642 144.389 32.4283 144.936 32.7564C145.483 33.0845 145.905 33.5452 146.204 34.1385C146.505 34.7318 146.656 35.4228 146.656 36.2116C146.656 37.0005 146.505 37.6899 146.204 38.2798C145.905 38.8698 145.483 39.3288 144.936 39.657C144.389 39.9851 143.743 40.1491 142.997 40.1491ZM143.007 38.7074C143.411 38.7074 143.749 38.5964 144.021 38.3743C144.293 38.1489 144.495 37.8473 144.628 37.4695C144.763 37.0916 144.831 36.6707 144.831 36.2067C144.831 35.7393 144.763 35.3168 144.628 34.9389C144.495 34.5578 144.293 34.2545 144.021 34.0291C143.749 33.8037 143.411 33.6911 143.007 33.6911C142.593 33.6911 142.248 33.8037 141.973 34.0291C141.701 34.2545 141.497 34.5578 141.361 34.9389C141.229 35.3168 141.162 35.7393 141.162 36.2067C141.162 36.6707 141.229 37.0916 141.361 37.4695C141.497 37.8473 141.701 38.1489 141.973 38.3743C142.248 38.5964 142.593 38.7074 143.007 38.7074ZM148.184 40V32.3636H149.929V33.6364H150.008C150.147 33.1955 150.386 32.8558 150.724 32.6172C151.065 32.3752 151.455 32.2543 151.892 32.2543C151.992 32.2543 152.103 32.2592 152.225 32.2692C152.351 32.2758 152.456 32.2874 152.539 32.304V33.9595C152.462 33.933 152.341 33.9098 152.176 33.8899C152.013 33.8667 151.856 33.8551 151.703 33.8551C151.375 33.8551 151.08 33.9264 150.818 34.0689C150.56 34.2081 150.356 34.402 150.207 34.6506C150.058 34.8991 149.983 35.1858 149.983 35.5107V40H148.184ZM156.801 40.1491C156.035 40.1491 155.374 39.9901 154.817 39.6719C154.263 39.3504 153.837 38.8963 153.539 38.3097C153.241 37.7197 153.092 37.0253 153.092 36.2266C153.092 35.4411 153.241 34.7517 153.539 34.1584C153.841 33.5618 154.262 33.0978 154.802 32.7663C155.342 32.4316 155.977 32.2642 156.706 32.2642C157.177 32.2642 157.621 32.3404 158.038 32.4929C158.459 32.642 158.831 32.8741 159.152 33.1889C159.477 33.5038 159.732 33.9048 159.918 34.392C160.103 34.8759 160.196 35.4527 160.196 36.1222V36.674H153.937V35.4609H158.471C158.468 35.1162 158.393 34.8097 158.247 34.5412C158.101 34.2694 157.898 34.0556 157.636 33.8999C157.377 33.7441 157.076 33.6662 156.731 33.6662C156.363 33.6662 156.04 33.7557 155.761 33.9347C155.483 34.1103 155.266 34.3423 155.11 34.6307C154.958 34.9157 154.88 35.2289 154.877 35.5703V36.6293C154.877 37.0734 154.958 37.4545 155.12 37.7727C155.283 38.0876 155.51 38.3295 155.801 38.4986C156.093 38.6643 156.434 38.7472 156.825 38.7472C157.087 38.7472 157.324 38.7107 157.536 38.6378C157.748 38.5616 157.932 38.4505 158.088 38.3047C158.244 38.1589 158.362 37.9782 158.441 37.7628L160.122 37.9517C160.015 38.3958 159.813 38.7836 159.515 39.1151C159.22 39.4432 158.842 39.6984 158.381 39.8807C157.921 40.0597 157.394 40.1491 156.801 40.1491ZM166.578 40H164.61L168.194 29.8182H170.471L174.061 40H172.092L169.372 31.9062H169.293L166.578 40ZM166.643 36.0078H172.012V37.4893H166.643V36.0078ZM178.421 40.1491C177.658 40.1491 177.004 39.9818 176.457 39.647C175.913 39.3123 175.494 38.8499 175.199 38.2599C174.907 37.6667 174.762 36.9839 174.762 36.2116C174.762 35.4361 174.911 34.7517 175.209 34.1584C175.507 33.5618 175.928 33.0978 176.472 32.7663C177.019 32.4316 177.665 32.2642 178.411 32.2642C179.031 32.2642 179.579 32.3786 180.056 32.6072C180.537 32.8326 180.92 33.1525 181.205 33.5668C181.49 33.9777 181.652 34.4583 181.692 35.0085H179.972C179.902 34.6406 179.737 34.334 179.475 34.0888C179.216 33.8402 178.87 33.7159 178.436 33.7159C178.068 33.7159 177.745 33.8153 177.466 34.0142C177.188 34.2098 176.971 34.4915 176.815 34.8594C176.662 35.2273 176.586 35.6681 176.586 36.1818C176.586 36.7022 176.662 37.1496 176.815 37.5241C176.967 37.8954 177.181 38.1821 177.456 38.3842C177.735 38.5831 178.061 38.6825 178.436 38.6825C178.701 38.6825 178.938 38.6328 179.147 38.5334C179.359 38.4306 179.536 38.2831 179.679 38.0909C179.821 37.8987 179.919 37.665 179.972 37.3899H181.692C181.649 37.9302 181.49 38.4091 181.215 38.8267C180.94 39.241 180.565 39.5658 180.091 39.8011C179.617 40.0331 179.06 40.1491 178.421 40.1491ZM186.983 32.3636V33.7557H182.593V32.3636H186.983ZM183.677 30.5341H185.477V37.7031C185.477 37.9451 185.513 38.1307 185.586 38.2599C185.662 38.3859 185.762 38.4721 185.884 38.5185C186.007 38.5649 186.143 38.5881 186.292 38.5881C186.405 38.5881 186.507 38.5798 186.6 38.5632C186.696 38.5466 186.769 38.5317 186.819 38.5185L187.122 39.9254C187.026 39.9586 186.889 39.995 186.71 40.0348C186.534 40.0746 186.319 40.0978 186.063 40.1044C185.613 40.1177 185.207 40.0497 184.845 39.9006C184.484 39.7481 184.197 39.5128 183.985 39.1946C183.776 38.8764 183.674 38.4787 183.677 38.0014V30.5341ZM188.488 40V32.3636H190.288V40H188.488ZM189.393 31.2798C189.108 31.2798 188.863 31.1854 188.657 30.9964C188.452 30.8042 188.349 30.5739 188.349 30.3054C188.349 30.0336 188.452 29.8033 188.657 29.6143C188.863 29.4221 189.108 29.326 189.393 29.326C189.681 29.326 189.927 29.4221 190.129 29.6143C190.334 29.8033 190.437 30.0336 190.437 30.3054C190.437 30.5739 190.334 30.8042 190.129 30.9964C189.927 31.1854 189.681 31.2798 189.393 31.2798ZM195.47 40.1491C194.724 40.1491 194.078 39.9851 193.531 39.657C192.984 39.3288 192.56 38.8698 192.258 38.2798C191.96 37.6899 191.81 37.0005 191.81 36.2116C191.81 35.4228 191.96 34.7318 192.258 34.1385C192.56 33.5452 192.984 33.0845 193.531 32.7564C194.078 32.4283 194.724 32.2642 195.47 32.2642C196.215 32.2642 196.862 32.4283 197.408 32.7564C197.955 33.0845 198.378 33.5452 198.676 34.1385C198.978 34.7318 199.129 35.4228 199.129 36.2116C199.129 37.0005 198.978 37.6899 198.676 38.2798C198.378 38.8698 197.955 39.3288 197.408 39.657C196.862 39.9851 196.215 40.1491 195.47 40.1491ZM195.479 38.7074C195.884 38.7074 196.222 38.5964 196.494 38.3743C196.765 38.1489 196.968 37.8473 197.1 37.4695C197.236 37.0916 197.304 36.6707 197.304 36.2067C197.304 35.7393 197.236 35.3168 197.1 34.9389C196.968 34.5578 196.765 34.2545 196.494 34.0291C196.222 33.8037 195.884 33.6911 195.479 33.6911C195.065 33.6911 194.72 33.8037 194.445 34.0291C194.174 34.2545 193.97 34.5578 193.834 34.9389C193.701 35.3168 193.635 35.7393 193.635 36.2067C193.635 36.6707 193.701 37.0916 193.834 37.4695C193.97 37.8473 194.174 38.1489 194.445 38.3743C194.72 38.5964 195.065 38.7074 195.479 38.7074ZM202.456 35.5256V40H200.656V32.3636H202.376V33.6612H202.466C202.641 33.2337 202.922 32.8939 203.306 32.642C203.694 32.3902 204.173 32.2642 204.743 32.2642C205.27 32.2642 205.729 32.3769 206.12 32.6023C206.514 32.8277 206.819 33.1541 207.035 33.5817C207.253 34.0092 207.361 34.5279 207.358 35.1378V40H205.558V35.4162C205.558 34.9058 205.426 34.5064 205.16 34.218C204.899 33.9297 204.536 33.7855 204.072 33.7855C203.757 33.7855 203.477 33.8551 203.231 33.9943C202.989 34.1302 202.799 34.3274 202.66 34.5859C202.524 34.8445 202.456 35.1577 202.456 35.5256ZM215.223 34.3821L213.582 34.5611C213.536 34.3954 213.455 34.2396 213.339 34.0938C213.226 33.9479 213.074 33.8303 212.881 33.7408C212.689 33.6513 212.454 33.6065 212.175 33.6065C211.801 33.6065 211.486 33.6877 211.231 33.8501C210.979 34.0125 210.855 34.223 210.858 34.4815C210.855 34.7036 210.936 34.8842 211.101 35.0234C211.271 35.1626 211.549 35.277 211.937 35.3665L213.239 35.6449C213.962 35.8007 214.499 36.0476 214.85 36.3857C215.205 36.7237 215.384 37.1662 215.387 37.7131C215.384 38.1937 215.243 38.6179 214.964 38.9858C214.689 39.3504 214.306 39.6354 213.816 39.8409C213.325 40.0464 212.762 40.1491 212.126 40.1491C211.191 40.1491 210.439 39.9536 209.869 39.5625C209.298 39.1681 208.959 38.6196 208.849 37.9169L210.604 37.7479C210.684 38.0926 210.853 38.3527 211.111 38.5284C211.37 38.7041 211.706 38.7919 212.121 38.7919C212.548 38.7919 212.891 38.7041 213.15 38.5284C213.412 38.3527 213.543 38.1357 213.543 37.8771C213.543 37.6584 213.458 37.4777 213.289 37.3352C213.123 37.1927 212.865 37.0833 212.513 37.0071L211.211 36.7337C210.478 36.5812 209.936 36.3243 209.585 35.9631C209.234 35.5985 209.06 35.1378 209.063 34.581C209.06 34.1103 209.187 33.7027 209.446 33.358C209.708 33.0099 210.071 32.7415 210.535 32.5526C211.002 32.3603 211.541 32.2642 212.15 32.2642C213.045 32.2642 213.75 32.4548 214.263 32.8359C214.78 33.2171 215.1 33.7325 215.223 34.3821Z" fill="#388523"/>
<g filter="url(#filter0_dd_2_4728)">
<path d="M33 70C33 65.5817 36.5817 62 41 62H224C228.418 62 232 65.5817 232 70V190C232 194.418 228.418 198 224 198H41C36.5817 198 33 194.418 33 190V70Z" fill="white"/>
<path d="M41 62.5H224C228.142 62.5 231.5 65.8579 231.5 70V190C231.5 194.142 228.142 197.5 224 197.5H41C36.8579 197.5 33.5 194.142 33.5 190V70C33.5 65.8579 36.8579 62.5 41 62.5Z" stroke="#DADFE2"/>
<path d="M59.2193 91.3053C59.127 91.2098 59.0167 91.1336 58.8947 91.0812C58.7727 91.0288 58.6415 91.0012 58.5087 91C58.3759 90.9989 58.2442 91.0242 58.1213 91.0745C57.9984 91.1247 57.8868 91.199 57.7929 91.2929C57.699 91.3868 57.6247 91.4984 57.5745 91.6213C57.5242 91.7442 57.4989 91.8759 57.5 92.0087C57.5012 92.1415 57.5288 92.2727 57.5812 92.3947C57.6336 92.5167 57.7098 92.627 57.8053 92.7193L59.8053 94.7193C59.9928 94.9068 60.2471 95.0121 60.5123 95.0121C60.7775 95.0121 61.0318 94.9068 61.2193 94.7193L65.2193 90.7193C65.3148 90.627 65.391 90.5167 65.4434 90.3947C65.4958 90.2727 65.5234 90.1415 65.5245 90.0087C65.5257 89.8759 65.5004 89.7442 65.4501 89.6213C65.3998 89.4984 65.3256 89.3868 65.2317 89.2929C65.1378 89.199 65.0261 89.1247 64.9032 89.0745C64.7803 89.0242 64.6487 88.9989 64.5159 89C64.3831 89.0012 64.2519 89.0288 64.1299 89.0812C64.0079 89.1336 63.8975 89.2098 63.8053 89.3053L60.5123 92.5983L59.2193 91.3053Z" fill="#233D48"/>
<path d="M58.7929 80.2929C58.9804 80.1054 59.2348 80 59.5 80H63.5C63.7652 80 64.0196 80.1054 64.2071 80.2929L65.9142 82H67.5C68.6046 82 69.5 82.8954 69.5 84V98C69.5 99.1046 68.6046 100 67.5 100H55.5C54.3954 100 53.5 99.1046 53.5 98V84C53.5 82.8954 54.3954 82 55.5 82H57.0858L58.7929 80.2929ZM64.2071 85.7071C64.0196 85.8946 63.7652 86 63.5 86H59.5C59.2348 86 58.9804 85.8946 58.7929 85.7071L57.0858 84H55.5V98H67.5V84H65.9142L64.2071 85.7071ZM59.9142 82L58.9142 83L59.9142 84H63.0858L64.0858 83L63.0858 82H59.9142Z" fill="#233D48"/>
<path d="M90.5043 84.8182H92.7614L95.7841 92.196H95.9034L98.9261 84.8182H101.183V95H99.4134V88.005H99.3189L96.505 94.9702H95.1825L92.3686 87.9901H92.2741V95H90.5043V84.8182ZM106.493 95.1491C105.727 95.1491 105.066 94.9901 104.509 94.6719C103.956 94.3504 103.53 93.8963 103.232 93.3097C102.933 92.7197 102.784 92.0253 102.784 91.2266C102.784 90.4411 102.933 89.7517 103.232 89.1584C103.533 88.5618 103.954 88.0978 104.494 87.7663C105.035 87.4316 105.669 87.2642 106.398 87.2642C106.869 87.2642 107.313 87.3404 107.731 87.4929C108.152 87.642 108.523 87.8741 108.844 88.1889C109.169 88.5038 109.424 88.9048 109.61 89.392C109.796 89.8759 109.888 90.4527 109.888 91.1222V91.674H103.629V90.4609H108.163C108.16 90.1162 108.085 89.8097 107.94 89.5412C107.794 89.2694 107.59 89.0556 107.328 88.8999C107.07 88.7441 106.768 88.6662 106.423 88.6662C106.055 88.6662 105.732 88.7557 105.454 88.9347C105.175 89.1103 104.958 89.3423 104.803 89.6307C104.65 89.9157 104.572 90.2289 104.569 90.5703V91.6293C104.569 92.0734 104.65 92.4545 104.812 92.7727C104.975 93.0876 105.202 93.3295 105.494 93.4986C105.785 93.6643 106.127 93.7472 106.518 93.7472C106.78 93.7472 107.017 93.7107 107.229 93.6378C107.441 93.5616 107.625 93.4505 107.781 93.3047C107.936 93.1589 108.054 92.9782 108.134 92.7628L109.814 92.9517C109.708 93.3958 109.506 93.7836 109.207 94.1151C108.912 94.4432 108.535 94.6984 108.074 94.8807C107.613 95.0597 107.086 95.1491 106.493 95.1491ZM113.211 90.5256V95H111.411V87.3636H113.131V88.6612H113.221C113.396 88.2337 113.676 87.8939 114.061 87.642C114.449 87.3902 114.928 87.2642 115.498 87.2642C116.025 87.2642 116.484 87.3769 116.875 87.6023C117.269 87.8277 117.574 88.1541 117.79 88.5817C118.008 89.0092 118.116 89.5279 118.113 90.1378V95H116.313V90.4162C116.313 89.9058 116.18 89.5064 115.915 89.218C115.653 88.9297 115.291 88.7855 114.827 88.7855C114.512 88.7855 114.232 88.8551 113.986 88.9943C113.744 89.1302 113.554 89.3274 113.415 89.5859C113.279 89.8445 113.211 90.1577 113.211 90.5256ZM124.809 91.7884V87.3636H126.609V95H124.864V93.6428H124.785C124.612 94.0703 124.329 94.42 123.934 94.6918C123.543 94.9635 123.061 95.0994 122.488 95.0994C121.987 95.0994 121.545 94.9884 121.16 94.7663C120.779 94.541 120.481 94.2145 120.265 93.7869C120.05 93.3561 119.942 92.8357 119.942 92.2259V87.3636H121.742V91.9474C121.742 92.4313 121.875 92.8158 122.14 93.1009C122.405 93.3859 122.753 93.5284 123.184 93.5284C123.449 93.5284 123.706 93.4638 123.954 93.3345C124.203 93.2053 124.407 93.013 124.566 92.7578C124.728 92.4993 124.809 92.1761 124.809 91.7884ZM131.933 95V87.3636H133.732V95H131.933ZM132.837 86.2798C132.552 86.2798 132.307 86.1854 132.102 85.9964C131.896 85.8042 131.793 85.5739 131.793 85.3054C131.793 85.0336 131.896 84.8033 132.102 84.6143C132.307 84.4221 132.552 84.326 132.837 84.326C133.126 84.326 133.371 84.4221 133.573 84.6143C133.779 84.8033 133.881 85.0336 133.881 85.3054C133.881 85.5739 133.779 85.8042 133.573 85.9964C133.371 86.1854 133.126 86.2798 132.837 86.2798ZM139.396 87.3636V88.7557H135.006V87.3636H139.396ZM136.09 85.5341H137.89V92.7031C137.89 92.9451 137.926 93.1307 137.999 93.2599C138.075 93.3859 138.175 93.4721 138.297 93.5185C138.42 93.5649 138.556 93.5881 138.705 93.5881C138.818 93.5881 138.921 93.5798 139.013 93.5632C139.109 93.5466 139.182 93.5317 139.232 93.5185L139.535 94.9254C139.439 94.9586 139.302 94.995 139.123 95.0348C138.947 95.0746 138.732 95.0978 138.476 95.1044C138.026 95.1177 137.62 95.0497 137.258 94.9006C136.897 94.7481 136.61 94.5128 136.398 94.1946C136.189 93.8764 136.087 93.4787 136.09 93.0014V85.5341ZM144.2 95.1491C143.434 95.1491 142.773 94.9901 142.216 94.6719C141.663 94.3504 141.237 93.8963 140.939 93.3097C140.64 92.7197 140.491 92.0253 140.491 91.2266C140.491 90.4411 140.64 89.7517 140.939 89.1584C141.24 88.5618 141.661 88.0978 142.201 87.7663C142.742 87.4316 143.376 87.2642 144.105 87.2642C144.576 87.2642 145.02 87.3404 145.438 87.4929C145.859 87.642 146.23 87.8741 146.551 88.1889C146.876 88.5038 147.132 88.9048 147.317 89.392C147.503 89.8759 147.596 90.4527 147.596 91.1222V91.674H141.336V90.4609H145.87C145.867 90.1162 145.792 89.8097 145.647 89.5412C145.501 89.2694 145.297 89.0556 145.035 88.8999C144.777 88.7441 144.475 88.6662 144.13 88.6662C143.762 88.6662 143.439 88.7557 143.161 88.9347C142.882 89.1103 142.665 89.3423 142.51 89.6307C142.357 89.9157 142.279 90.2289 142.276 90.5703V91.6293C142.276 92.0734 142.357 92.4545 142.52 92.7727C142.682 93.0876 142.909 93.3295 143.201 93.4986C143.492 93.6643 143.834 93.7472 144.225 93.7472C144.487 93.7472 144.724 93.7107 144.936 93.6378C145.148 93.5616 145.332 93.4505 145.488 93.3047C145.643 93.1589 145.761 92.9782 145.841 92.7628L147.521 92.9517C147.415 93.3958 147.213 93.7836 146.914 94.1151C146.619 94.4432 146.242 94.6984 145.781 94.8807C145.32 95.0597 144.793 95.1491 144.2 95.1491ZM149.118 95V87.3636H150.838V88.6612H150.928C151.087 88.2237 151.35 87.8823 151.718 87.6371C152.086 87.3885 152.525 87.2642 153.036 87.2642C153.553 87.2642 153.989 87.3902 154.343 87.642C154.701 87.8906 154.953 88.2304 155.099 88.6612H155.178C155.347 88.237 155.633 87.8989 156.034 87.647C156.438 87.3918 156.917 87.2642 157.47 87.2642C158.173 87.2642 158.746 87.4863 159.191 87.9304C159.635 88.3745 159.857 89.0225 159.857 89.8743V95H158.052V90.1527C158.052 89.6787 157.926 89.3324 157.674 89.1136C157.422 88.8916 157.114 88.7805 156.749 88.7805C156.315 88.7805 155.976 88.9164 155.73 89.1882C155.488 89.4567 155.367 89.8063 155.367 90.2372V95H153.602V90.0781C153.602 89.6837 153.483 89.3688 153.244 89.1335C153.009 88.8982 152.701 88.7805 152.32 88.7805C152.061 88.7805 151.826 88.8468 151.614 88.9794C151.402 89.1087 151.233 89.2926 151.107 89.5312C150.981 89.7666 150.918 90.0417 150.918 90.3565V95H149.118Z" fill="#233D48"/>
<path d="M58.7193 131.305C58.627 131.21 58.5167 131.134 58.3947 131.081C58.2727 131.029 58.1415 131.001 58.0087 131C57.8759 130.999 57.7442 131.024 57.6213 131.075C57.4984 131.125 57.3868 131.199 57.2929 131.293C57.199 131.387 57.1247 131.498 57.0745 131.621C57.0242 131.744 56.9989 131.876 57 132.009C57.0012 132.142 57.0288 132.273 57.0812 132.395C57.1336 132.517 57.2098 132.627 57.3053 132.719L59.3053 134.719C59.4928 134.907 59.7471 135.012 60.0123 135.012C60.2775 135.012 60.5318 134.907 60.7193 134.719L64.7193 130.719C64.8148 130.627 64.891 130.517 64.9434 130.395C64.9958 130.273 65.0234 130.142 65.0245 130.009C65.0257 129.876 65.0004 129.744 64.9501 129.621C64.8998 129.498 64.8256 129.387 64.7317 129.293C64.6378 129.199 64.5261 129.125 64.4032 129.075C64.2803 129.024 64.1487 128.999 64.0159 129C63.8831 129.001 63.7519 129.029 63.6299 129.081C63.5079 129.134 63.3975 129.21 63.3053 129.305L60.0123 132.598L58.7193 131.305Z" fill="#233D48"/>
<path d="M58.2929 120.293C58.4804 120.105 58.7348 120 59 120H63C63.2652 120 63.5196 120.105 63.7071 120.293L65.4142 122H67C68.1046 122 69 122.895 69 124V138C69 139.105 68.1046 140 67 140H55C53.8954 140 53 139.105 53 138V124C53 122.895 53.8954 122 55 122H56.5858L58.2929 120.293ZM63.7071 125.707C63.5196 125.895 63.2652 126 63 126H59C58.7348 126 58.4804 125.895 58.2929 125.707L56.5858 124H55V138H67V124H65.4142L63.7071 125.707ZM59.4142 122L58.4142 123L59.4142 124H62.5858L63.5858 123L62.5858 122H59.4142Z" fill="#233D48"/>
<path d="M90.0043 124.818H92.2614L95.2841 132.196H95.4034L98.4261 124.818H100.683V135H98.9134V128.005H98.8189L96.005 134.97H94.6825L91.8686 127.99H91.7741V135H90.0043V124.818ZM105.993 135.149C105.227 135.149 104.566 134.99 104.009 134.672C103.456 134.35 103.03 133.896 102.732 133.31C102.433 132.72 102.284 132.025 102.284 131.227C102.284 130.441 102.433 129.752 102.732 129.158C103.033 128.562 103.454 128.098 103.994 127.766C104.535 127.432 105.169 127.264 105.898 127.264C106.369 127.264 106.813 127.34 107.231 127.493C107.652 127.642 108.023 127.874 108.344 128.189C108.669 128.504 108.924 128.905 109.11 129.392C109.296 129.876 109.388 130.453 109.388 131.122V131.674H103.129V130.461H107.663C107.66 130.116 107.585 129.81 107.44 129.541C107.294 129.269 107.09 129.056 106.828 128.9C106.57 128.744 106.268 128.666 105.923 128.666C105.555 128.666 105.232 128.756 104.954 128.935C104.675 129.11 104.458 129.342 104.303 129.631C104.15 129.916 104.072 130.229 104.069 130.57V131.629C104.069 132.073 104.15 132.455 104.312 132.773C104.475 133.088 104.702 133.33 104.994 133.499C105.285 133.664 105.627 133.747 106.018 133.747C106.28 133.747 106.517 133.711 106.729 133.638C106.941 133.562 107.125 133.451 107.281 133.305C107.436 133.159 107.554 132.978 107.634 132.763L109.314 132.952C109.208 133.396 109.006 133.784 108.707 134.115C108.412 134.443 108.035 134.698 107.574 134.881C107.113 135.06 106.586 135.149 105.993 135.149ZM112.711 130.526V135H110.911V127.364H112.631V128.661H112.721C112.896 128.234 113.176 127.894 113.561 127.642C113.949 127.39 114.428 127.264 114.998 127.264C115.525 127.264 115.984 127.377 116.375 127.602C116.769 127.828 117.074 128.154 117.29 128.582C117.508 129.009 117.616 129.528 117.613 130.138V135H115.813V130.416C115.813 129.906 115.68 129.506 115.415 129.218C115.153 128.93 114.791 128.786 114.327 128.786C114.012 128.786 113.732 128.855 113.486 128.994C113.244 129.13 113.054 129.327 112.915 129.586C112.779 129.844 112.711 130.158 112.711 130.526ZM124.309 131.788V127.364H126.109V135H124.364V133.643H124.285C124.112 134.07 123.829 134.42 123.434 134.692C123.043 134.964 122.561 135.099 121.988 135.099C121.487 135.099 121.045 134.988 120.66 134.766C120.279 134.541 119.981 134.214 119.765 133.787C119.55 133.356 119.442 132.836 119.442 132.226V127.364H121.242V131.947C121.242 132.431 121.375 132.816 121.64 133.101C121.905 133.386 122.253 133.528 122.684 133.528C122.949 133.528 123.206 133.464 123.454 133.335C123.703 133.205 123.907 133.013 124.066 132.758C124.228 132.499 124.309 132.176 124.309 131.788ZM131.433 135V127.364H133.232V135H131.433ZM132.337 126.28C132.052 126.28 131.807 126.185 131.602 125.996C131.396 125.804 131.293 125.574 131.293 125.305C131.293 125.034 131.396 124.803 131.602 124.614C131.807 124.422 132.052 124.326 132.337 124.326C132.626 124.326 132.871 124.422 133.073 124.614C133.279 124.803 133.381 125.034 133.381 125.305C133.381 125.574 133.279 125.804 133.073 125.996C132.871 126.185 132.626 126.28 132.337 126.28ZM138.896 127.364V128.756H134.506V127.364H138.896ZM135.59 125.534H137.39V132.703C137.39 132.945 137.426 133.131 137.499 133.26C137.575 133.386 137.675 133.472 137.797 133.518C137.92 133.565 138.056 133.588 138.205 133.588C138.318 133.588 138.421 133.58 138.513 133.563C138.609 133.547 138.682 133.532 138.732 133.518L139.035 134.925C138.939 134.959 138.802 134.995 138.623 135.035C138.447 135.075 138.232 135.098 137.976 135.104C137.526 135.118 137.12 135.05 136.758 134.901C136.397 134.748 136.11 134.513 135.898 134.195C135.689 133.876 135.587 133.479 135.59 133.001V125.534ZM143.7 135.149C142.934 135.149 142.273 134.99 141.716 134.672C141.163 134.35 140.737 133.896 140.439 133.31C140.14 132.72 139.991 132.025 139.991 131.227C139.991 130.441 140.14 129.752 140.439 129.158C140.74 128.562 141.161 128.098 141.701 127.766C142.242 127.432 142.876 127.264 143.605 127.264C144.076 127.264 144.52 127.34 144.938 127.493C145.359 127.642 145.73 127.874 146.051 128.189C146.376 128.504 146.632 128.905 146.817 129.392C147.003 129.876 147.096 130.453 147.096 131.122V131.674H140.836V130.461H145.37C145.367 130.116 145.292 129.81 145.147 129.541C145.001 129.269 144.797 129.056 144.535 128.9C144.277 128.744 143.975 128.666 143.63 128.666C143.262 128.666 142.939 128.756 142.661 128.935C142.382 129.11 142.165 129.342 142.01 129.631C141.857 129.916 141.779 130.229 141.776 130.57V131.629C141.776 132.073 141.857 132.455 142.02 132.773C142.182 133.088 142.409 133.33 142.701 133.499C142.992 133.664 143.334 133.747 143.725 133.747C143.987 133.747 144.224 133.711 144.436 133.638C144.648 133.562 144.832 133.451 144.988 133.305C145.143 133.159 145.261 132.978 145.341 132.763L147.021 132.952C146.915 133.396 146.713 133.784 146.414 134.115C146.119 134.443 145.742 134.698 145.281 134.881C144.82 135.06 144.293 135.149 143.7 135.149ZM148.618 135V127.364H150.338V128.661H150.428C150.587 128.224 150.85 127.882 151.218 127.637C151.586 127.388 152.025 127.264 152.536 127.264C153.053 127.264 153.489 127.39 153.843 127.642C154.201 127.891 154.453 128.23 154.599 128.661H154.678C154.847 128.237 155.133 127.899 155.534 127.647C155.938 127.392 156.417 127.264 156.97 127.264C157.673 127.264 158.246 127.486 158.691 127.93C159.135 128.375 159.357 129.022 159.357 129.874V135H157.552V130.153C157.552 129.679 157.426 129.332 157.174 129.114C156.922 128.892 156.614 128.781 156.249 128.781C155.815 128.781 155.476 128.916 155.23 129.188C154.988 129.457 154.867 129.806 154.867 130.237V135H153.102V130.078C153.102 129.684 152.983 129.369 152.744 129.134C152.509 128.898 152.201 128.781 151.82 128.781C151.561 128.781 151.326 128.847 151.114 128.979C150.902 129.109 150.733 129.293 150.607 129.531C150.481 129.767 150.418 130.042 150.418 130.357V135H148.618Z" fill="#233D48"/>
<path d="M59.2193 171.305C59.127 171.21 59.0167 171.134 58.8947 171.081C58.7727 171.029 58.6415 171.001 58.5087 171C58.3759 170.999 58.2442 171.024 58.1213 171.075C57.9984 171.125 57.8868 171.199 57.7929 171.293C57.699 171.387 57.6247 171.498 57.5745 171.621C57.5242 171.744 57.4989 171.876 57.5 172.009C57.5012 172.142 57.5288 172.273 57.5812 172.395C57.6336 172.517 57.7098 172.627 57.8053 172.719L59.8053 174.719C59.9928 174.907 60.2471 175.012 60.5123 175.012C60.7775 175.012 61.0318 174.907 61.2193 174.719L65.2193 170.719C65.3148 170.627 65.391 170.517 65.4434 170.395C65.4958 170.273 65.5234 170.142 65.5245 170.009C65.5257 169.876 65.5004 169.744 65.4501 169.621C65.3998 169.498 65.3256 169.387 65.2317 169.293C65.1378 169.199 65.0261 169.125 64.9032 169.075C64.7803 169.024 64.6487 168.999 64.5159 169C64.3831 169.001 64.2519 169.029 64.1299 169.081C64.0079 169.134 63.8975 169.21 63.8053 169.305L60.5123 172.598L59.2193 171.305Z" fill="#233D48"/>
<path d="M58.7929 160.293C58.9804 160.105 59.2348 160 59.5 160H63.5C63.7652 160 64.0196 160.105 64.2071 160.293L65.9142 162H67.5C68.6046 162 69.5 162.895 69.5 164V178C69.5 179.105 68.6046 180 67.5 180H55.5C54.3954 180 53.5 179.105 53.5 178V164C53.5 162.895 54.3954 162 55.5 162H57.0858L58.7929 160.293ZM64.2071 165.707C64.0196 165.895 63.7652 166 63.5 166H59.5C59.2348 166 58.9804 165.895 58.7929 165.707L57.0858 164H55.5V178H67.5V164H65.9142L64.2071 165.707ZM59.9142 162L58.9142 163L59.9142 164H63.0858L64.0858 163L63.0858 162H59.9142Z" fill="#233D48"/>
<path d="M90.5043 164.818H92.7614L95.7841 172.196H95.9034L98.9261 164.818H101.183V175H99.4134V168.005H99.3189L96.505 174.97H95.1825L92.3686 167.99H92.2741V175H90.5043V164.818ZM106.493 175.149C105.727 175.149 105.066 174.99 104.509 174.672C103.956 174.35 103.53 173.896 103.232 173.31C102.933 172.72 102.784 172.025 102.784 171.227C102.784 170.441 102.933 169.752 103.232 169.158C103.533 168.562 103.954 168.098 104.494 167.766C105.035 167.432 105.669 167.264 106.398 167.264C106.869 167.264 107.313 167.34 107.731 167.493C108.152 167.642 108.523 167.874 108.844 168.189C109.169 168.504 109.424 168.905 109.61 169.392C109.796 169.876 109.888 170.453 109.888 171.122V171.674H103.629V170.461H108.163C108.16 170.116 108.085 169.81 107.94 169.541C107.794 169.269 107.59 169.056 107.328 168.9C107.07 168.744 106.768 168.666 106.423 168.666C106.055 168.666 105.732 168.756 105.454 168.935C105.175 169.11 104.958 169.342 104.803 169.631C104.65 169.916 104.572 170.229 104.569 170.57V171.629C104.569 172.073 104.65 172.455 104.812 172.773C104.975 173.088 105.202 173.33 105.494 173.499C105.785 173.664 106.127 173.747 106.518 173.747C106.78 173.747 107.017 173.711 107.229 173.638C107.441 173.562 107.625 173.451 107.781 173.305C107.936 173.159 108.054 172.978 108.134 172.763L109.814 172.952C109.708 173.396 109.506 173.784 109.207 174.115C108.912 174.443 108.535 174.698 108.074 174.881C107.613 175.06 107.086 175.149 106.493 175.149ZM113.211 170.526V175H111.411V167.364H113.131V168.661H113.221C113.396 168.234 113.676 167.894 114.061 167.642C114.449 167.39 114.928 167.264 115.498 167.264C116.025 167.264 116.484 167.377 116.875 167.602C117.269 167.828 117.574 168.154 117.79 168.582C118.008 169.009 118.116 169.528 118.113 170.138V175H116.313V170.416C116.313 169.906 116.18 169.506 115.915 169.218C115.653 168.93 115.291 168.786 114.827 168.786C114.512 168.786 114.232 168.855 113.986 168.994C113.744 169.13 113.554 169.327 113.415 169.586C113.279 169.844 113.211 170.158 113.211 170.526ZM124.809 171.788V167.364H126.609V175H124.864V173.643H124.785C124.612 174.07 124.329 174.42 123.934 174.692C123.543 174.964 123.061 175.099 122.488 175.099C121.987 175.099 121.545 174.988 121.16 174.766C120.779 174.541 120.481 174.214 120.265 173.787C120.05 173.356 119.942 172.836 119.942 172.226V167.364H121.742V171.947C121.742 172.431 121.875 172.816 122.14 173.101C122.405 173.386 122.753 173.528 123.184 173.528C123.449 173.528 123.706 173.464 123.954 173.335C124.203 173.205 124.407 173.013 124.566 172.758C124.728 172.499 124.809 172.176 124.809 171.788ZM131.933 175V167.364H133.732V175H131.933ZM132.837 166.28C132.552 166.28 132.307 166.185 132.102 165.996C131.896 165.804 131.793 165.574 131.793 165.305C131.793 165.034 131.896 164.803 132.102 164.614C132.307 164.422 132.552 164.326 132.837 164.326C133.126 164.326 133.371 164.422 133.573 164.614C133.779 164.803 133.881 165.034 133.881 165.305C133.881 165.574 133.779 165.804 133.573 165.996C133.371 166.185 133.126 166.28 132.837 166.28ZM139.396 167.364V168.756H135.006V167.364H139.396ZM136.09 165.534H137.89V172.703C137.89 172.945 137.926 173.131 137.999 173.26C138.075 173.386 138.175 173.472 138.297 173.518C138.42 173.565 138.556 173.588 138.705 173.588C138.818 173.588 138.921 173.58 139.013 173.563C139.109 173.547 139.182 173.532 139.232 173.518L139.535 174.925C139.439 174.959 139.302 174.995 139.123 175.035C138.947 175.075 138.732 175.098 138.476 175.104C138.026 175.118 137.62 175.05 137.258 174.901C136.897 174.748 136.61 174.513 136.398 174.195C136.189 173.876 136.087 173.479 136.09 173.001V165.534ZM144.2 175.149C143.434 175.149 142.773 174.99 142.216 174.672C141.663 174.35 141.237 173.896 140.939 173.31C140.64 172.72 140.491 172.025 140.491 171.227C140.491 170.441 140.64 169.752 140.939 169.158C141.24 168.562 141.661 168.098 142.201 167.766C142.742 167.432 143.376 167.264 144.105 167.264C144.576 167.264 145.02 167.34 145.438 167.493C145.859 167.642 146.23 167.874 146.551 168.189C146.876 168.504 147.132 168.905 147.317 169.392C147.503 169.876 147.596 170.453 147.596 171.122V171.674H141.336V170.461H145.87C145.867 170.116 145.792 169.81 145.647 169.541C145.501 169.269 145.297 169.056 145.035 168.9C144.777 168.744 144.475 168.666 144.13 168.666C143.762 168.666 143.439 168.756 143.161 168.935C142.882 169.11 142.665 169.342 142.51 169.631C142.357 169.916 142.279 170.229 142.276 170.57V171.629C142.276 172.073 142.357 172.455 142.52 172.773C142.682 173.088 142.909 173.33 143.201 173.499C143.492 173.664 143.834 173.747 144.225 173.747C144.487 173.747 144.724 173.711 144.936 173.638C145.148 173.562 145.332 173.451 145.488 173.305C145.643 173.159 145.761 172.978 145.841 172.763L147.521 172.952C147.415 173.396 147.213 173.784 146.914 174.115C146.619 174.443 146.242 174.698 145.781 174.881C145.32 175.06 144.793 175.149 144.2 175.149ZM149.118 175V167.364H150.838V168.661H150.928C151.087 168.224 151.35 167.882 151.718 167.637C152.086 167.388 152.525 167.264 153.036 167.264C153.553 167.264 153.989 167.39 154.343 167.642C154.701 167.891 154.953 168.23 155.099 168.661H155.178C155.347 168.237 155.633 167.899 156.034 167.647C156.438 167.392 156.917 167.264 157.47 167.264C158.173 167.264 158.746 167.486 159.191 167.93C159.635 168.375 159.857 169.022 159.857 169.874V175H158.052V170.153C158.052 169.679 157.926 169.332 157.674 169.114C157.422 168.892 157.114 168.781 156.749 168.781C156.315 168.781 155.976 168.916 155.73 169.188C155.488 169.457 155.367 169.806 155.367 170.237V175H153.602V170.078C153.602 169.684 153.483 169.369 153.244 169.134C153.009 168.898 152.701 168.781 152.32 168.781C152.061 168.781 151.826 168.847 151.614 168.979C151.402 169.109 151.233 169.293 151.107 169.531C150.981 169.767 150.918 170.042 150.918 170.357V175H149.118Z" fill="#233D48"/>
</g>
<defs>
<filter id="filter0_dd_2_4728" x="21" y="54" width="223" height="160" filterUnits="userSpaceOnUse" color-interpolation-filters="sRGB">
<feFlood flood-opacity="0" result="BackgroundImageFix"/>
<feColorMatrix in="SourceAlpha" type="matrix" values="0 0 0 0 0 0 0 0 0 0 0 0 0 0 0 0 0 0 127 0" result="hardAlpha"/>
<feOffset dy="4"/>
<feGaussianBlur stdDeviation="6"/>
<feColorMatrix type="matrix" values="0 0 0 0 0 0 0 0 0 0 0 0 0 0 0 0 0 0 0.05 0"/>
<feBlend mode="normal" in2="BackgroundImageFix" result="effect1_dropShadow_2_4728"/>
<feColorMatrix in="SourceAlpha" type="matrix" values="0 0 0 0 0 0 0 0 0 0 0 0 0 0 0 0 0 0 127 0" result="hardAlpha"/>
<feOffset dy="1"/>
<feGaussianBlur stdDeviation="2"/>
<feColorMatrix type="matrix" values="0 0 0 0 0 0 0 0 0 0 0 0 0 0 0 0 0 0 0.1 0"/>
<feBlend mode="normal" in2="effect1_dropShadow_2_4728" result="effect2_dropShadow_2_4728"/>
<feBlend mode="normal" in="SourceGraphic" in2="effect2_dropShadow_2_4728" result="shape"/>
</filter>
</defs>
</svg>
