<svg width="224" height="117" viewBox="0 0 224 117" fill="none" xmlns="http://www.w3.org/2000/svg">
<g clip-path="url(#clip0_1346_32277)">
<path d="M78.9733 15.3733H179.827C182.919 15.3733 185.427 17.8805 185.427 20.9733V38.8933C185.427 41.9861 182.919 44.4933 179.827 44.4933H78.9733C75.8805 44.4933 73.3733 41.9861 73.3733 38.8933V20.9733C73.3733 17.8805 75.8805 15.3733 78.9733 15.3733Z" fill="white"/>
<path d="M78.9733 15.3733H179.827C182.919 15.3733 185.427 17.8805 185.427 20.9733V38.8933C185.427 41.9861 182.919 44.4933 179.827 44.4933H78.9733C75.8805 44.4933 73.3733 41.9861 73.3733 38.8933V20.9733C73.3733 17.8805 75.8805 15.3733 78.9733 15.3733Z" stroke="#DADFE2" stroke-width="0.746667"/>
<path d="M87.9333 29.9333C87.9333 29.1086 88.6019 28.44 89.4267 28.44C90.2514 28.44 90.92 29.1086 90.92 29.9333C90.92 30.7581 90.2514 31.4267 89.4267 31.4267C88.6019 31.4267 87.9333 30.7581 87.9333 29.9333ZM92.4133 29.9333C92.4133 29.1086 93.0819 28.44 93.9067 28.44C94.7315 28.44 95.4 29.1086 95.4 29.9333C95.4 30.7581 94.7315 31.4267 93.9067 31.4267C93.0819 31.4267 92.4133 30.7581 92.4133 29.9333ZM98.3867 28.44C97.5619 28.44 96.8933 29.1086 96.8933 29.9333C96.8933 30.7581 97.5619 31.4267 98.3867 31.4267C99.2115 31.4267 99.88 30.7581 99.88 29.9333C99.88 29.1086 99.2115 28.44 98.3867 28.44Z" fill="#388523"/>
<path d="M107.043 25.8309H108.729L110.985 31.3397H111.075L113.332 25.8309H115.017V33.4333H113.695V28.2104H113.625L111.524 33.411H110.536L108.435 28.1992H108.365V33.4333H107.043V25.8309ZM118.944 33.5447C118.387 33.5447 117.905 33.4222 117.497 33.1772C117.088 32.9322 116.771 32.5894 116.546 32.1489C116.324 31.7084 116.212 31.1937 116.212 30.6047C116.212 30.0157 116.324 29.4997 116.546 29.0567C116.771 28.6137 117.088 28.2698 117.497 28.0248C117.905 27.7798 118.387 27.6573 118.944 27.6573C119.501 27.6573 119.984 27.7798 120.392 28.0248C120.8 28.2698 121.116 28.6137 121.339 29.0567C121.564 29.4997 121.676 30.0157 121.676 30.6047C121.676 31.1937 121.564 31.7084 121.339 32.1489C121.116 32.5894 120.8 32.9322 120.392 33.1772C119.984 33.4222 119.501 33.5447 118.944 33.5447ZM118.952 32.4682C119.254 32.4682 119.506 32.3853 119.709 32.2195C119.912 32.0512 120.063 31.826 120.162 31.5438C120.263 31.2617 120.314 30.9474 120.314 30.601C120.314 30.252 120.263 29.9365 120.162 29.6544C120.063 29.3698 119.912 29.1433 119.709 28.9751C119.506 28.8068 119.254 28.7226 118.952 28.7226C118.642 28.7226 118.385 28.8068 118.18 28.9751C117.977 29.1433 117.824 29.3698 117.723 29.6544C117.624 29.9365 117.575 30.252 117.575 30.601C117.575 30.9474 117.624 31.2617 117.723 31.5438C117.824 31.826 117.977 32.0512 118.18 32.2195C118.385 32.3853 118.642 32.4682 118.952 32.4682ZM122.817 33.4333V27.7315H124.12V28.6818H124.179C124.283 28.3527 124.461 28.099 124.714 27.9208C124.969 27.7402 125.26 27.6498 125.586 27.6498C125.66 27.6498 125.743 27.6535 125.835 27.661C125.929 27.6659 126.007 27.6746 126.069 27.687V28.9231C126.012 28.9033 125.922 28.886 125.798 28.8711C125.677 28.8538 125.559 28.8451 125.445 28.8451C125.2 28.8451 124.98 28.8983 124.784 29.0048C124.591 29.1087 124.439 29.2535 124.328 29.4391C124.216 29.6247 124.161 29.8387 124.161 30.0813V33.4333H122.817ZM129.251 33.5447C128.679 33.5447 128.186 33.4259 127.77 33.1883C127.357 32.9483 127.039 32.6092 126.816 32.1712C126.593 31.7307 126.482 31.2122 126.482 30.6158C126.482 30.0293 126.593 29.5146 126.816 29.0716C127.041 28.6261 127.355 28.2797 127.759 28.0322C128.162 27.7822 128.636 27.6573 129.18 27.6573C129.532 27.6573 129.863 27.7142 130.175 27.828C130.49 27.9394 130.767 28.1126 131.007 28.3477C131.249 28.5828 131.44 28.8823 131.578 29.246C131.717 29.6074 131.786 30.038 131.786 30.5379V30.9499H127.113V30.0442H130.498C130.496 29.7868 130.44 29.5579 130.331 29.3574C130.222 29.1545 130.07 28.9949 129.875 28.8785C129.682 28.7622 129.456 28.7041 129.199 28.7041C128.924 28.7041 128.683 28.7709 128.475 28.9045C128.267 29.0357 128.105 29.2089 127.989 29.4242C127.875 29.6371 127.817 29.8709 127.814 30.1258V30.9165C127.814 31.2481 127.875 31.5327 127.996 31.7703C128.118 32.0054 128.287 32.186 128.505 32.3123C128.723 32.436 128.978 32.4979 129.27 32.4979C129.465 32.4979 129.642 32.4706 129.8 32.4162C129.959 32.3593 130.096 32.2764 130.212 32.1675C130.329 32.0586 130.417 31.9237 130.476 31.7629L131.731 31.9039C131.651 32.2355 131.501 32.5251 131.278 32.7726C131.058 33.0176 130.775 33.2081 130.431 33.3442C130.087 33.4779 129.694 33.5447 129.251 33.5447ZM136.552 33.4333H135.082L137.758 25.8309H139.458L142.139 33.4333H140.669L138.638 27.39H138.579L136.552 33.4333ZM136.6 30.4525H140.609V31.5587H136.6V30.4525ZM145.394 33.5447C144.825 33.5447 144.336 33.4197 143.928 33.1698C143.522 32.9198 143.209 32.5746 142.989 32.1341C142.771 31.6911 142.662 31.1813 142.662 30.6047C142.662 30.0256 142.773 29.5146 142.996 29.0716C143.219 28.6261 143.533 28.2797 143.939 28.0322C144.347 27.7822 144.83 27.6573 145.387 27.6573C145.849 27.6573 146.259 27.7426 146.615 27.9134C146.974 28.0817 147.26 28.3205 147.473 28.6298C147.686 28.9367 147.807 29.2955 147.837 29.7063H146.552C146.5 29.4317 146.377 29.2027 146.181 29.0196C145.988 28.834 145.729 28.7412 145.405 28.7412C145.131 28.7412 144.889 28.8154 144.681 28.9639C144.473 29.1099 144.311 29.3203 144.195 29.595C144.081 29.8697 144.024 30.1988 144.024 30.5824C144.024 30.9709 144.081 31.305 144.195 31.5847C144.309 31.8619 144.469 32.0759 144.674 32.2269C144.882 32.3754 145.126 32.4496 145.405 32.4496C145.603 32.4496 145.78 32.4125 145.936 32.3382C146.094 32.2615 146.227 32.1514 146.333 32.0079C146.44 31.8643 146.513 31.6899 146.552 31.4845H147.837C147.804 31.8878 147.686 32.2454 147.48 32.5573C147.275 32.8666 146.995 33.1091 146.641 33.2848C146.287 33.4581 145.872 33.5447 145.394 33.5447ZM151.787 27.7315V28.7709H148.509V27.7315H151.787ZM149.319 26.3654H150.663V31.7183C150.663 31.899 150.69 32.0376 150.744 32.1341C150.801 32.2281 150.875 32.2925 150.967 32.3271C151.058 32.3618 151.16 32.3791 151.271 32.3791C151.355 32.3791 151.432 32.3729 151.501 32.3605C151.573 32.3481 151.628 32.337 151.665 32.3271L151.891 33.3776C151.819 33.4024 151.717 33.4296 151.583 33.4593C151.452 33.489 151.291 33.5063 151.101 33.5113C150.764 33.5212 150.461 33.4704 150.191 33.3591C149.921 33.2452 149.707 33.0695 149.549 32.832C149.393 32.5944 149.316 32.2974 149.319 31.941V26.3654ZM152.911 33.4333V27.7315H154.255V33.4333H152.911ZM153.587 26.9223C153.374 26.9223 153.191 26.8517 153.037 26.7107C152.884 26.5671 152.807 26.3951 152.807 26.1947C152.807 25.9918 152.884 25.8198 153.037 25.6787C153.191 25.5352 153.374 25.4634 153.587 25.4634C153.802 25.4634 153.985 25.5352 154.136 25.6787C154.29 25.8198 154.366 25.9918 154.366 26.1947C154.366 26.3951 154.29 26.5671 154.136 26.7107C153.985 26.8517 153.802 26.9223 153.587 26.9223ZM158.124 33.5447C157.567 33.5447 157.084 33.4222 156.676 33.1772C156.268 32.9322 155.951 32.5894 155.726 32.1489C155.503 31.7084 155.392 31.1937 155.392 30.6047C155.392 30.0157 155.503 29.4997 155.726 29.0567C155.951 28.6137 156.268 28.2698 156.676 28.0248C157.084 27.7798 157.567 27.6573 158.124 27.6573C158.681 27.6573 159.163 27.7798 159.572 28.0248C159.98 28.2698 160.295 28.6137 160.518 29.0567C160.743 29.4997 160.856 30.0157 160.856 30.6047C160.856 31.1937 160.743 31.7084 160.518 32.1489C160.295 32.5894 159.98 32.9322 159.572 33.1772C159.163 33.4222 158.681 33.5447 158.124 33.5447ZM158.131 32.4682C158.433 32.4682 158.686 32.3853 158.889 32.2195C159.091 32.0512 159.242 31.826 159.341 31.5438C159.443 31.2617 159.494 30.9474 159.494 30.601C159.494 30.252 159.443 29.9365 159.341 29.6544C159.242 29.3698 159.091 29.1433 158.889 28.9751C158.686 28.8068 158.433 28.7226 158.131 28.7226C157.822 28.7226 157.565 28.8068 157.359 28.9751C157.156 29.1433 157.004 29.3698 156.903 29.6544C156.804 29.9365 156.754 30.252 156.754 30.601C156.754 30.9474 156.804 31.2617 156.903 31.5438C157.004 31.826 157.156 32.0512 157.359 32.2195C157.565 32.3853 157.822 32.4682 158.131 32.4682ZM163.34 30.0924V33.4333H161.997V27.7315H163.281V28.7004H163.348C163.479 28.3811 163.688 28.1275 163.975 27.9394C164.265 27.7513 164.622 27.6573 165.048 27.6573C165.441 27.6573 165.784 27.7414 166.076 27.9097C166.371 28.078 166.598 28.3217 166.759 28.641C166.923 28.9602 167.003 29.3475 167 29.8029V33.4333H165.657V30.0107C165.657 29.6296 165.558 29.3314 165.36 29.1161C165.164 28.9008 164.893 28.7932 164.547 28.7932C164.312 28.7932 164.103 28.8451 163.919 28.9491C163.739 29.0505 163.596 29.1978 163.493 29.3908C163.391 29.5838 163.34 29.8177 163.34 30.0924ZM172.873 29.2386L171.648 29.3723C171.613 29.2485 171.553 29.1322 171.466 29.0233C171.382 28.9144 171.268 28.8266 171.125 28.7598C170.981 28.6929 170.805 28.6595 170.598 28.6595C170.318 28.6595 170.083 28.7202 169.892 28.8414C169.704 28.9627 169.611 29.1198 169.614 29.3129C169.611 29.4787 169.672 29.6135 169.796 29.7175C169.922 29.8214 170.13 29.9068 170.419 29.9736L171.392 30.1815C171.931 30.2978 172.332 30.4822 172.595 30.7346C172.859 30.987 172.993 31.3174 172.996 31.7257C172.993 32.0846 172.888 32.4013 172.68 32.676C172.475 32.9483 172.189 33.1611 171.823 33.3145C171.456 33.468 171.036 33.5447 170.56 33.5447C169.863 33.5447 169.301 33.3987 168.875 33.1067C168.449 32.8122 168.196 32.4026 168.114 31.8779L169.424 31.7517C169.484 32.0091 169.61 32.2034 169.803 32.3345C169.996 32.4657 170.247 32.5313 170.557 32.5313C170.876 32.5313 171.132 32.4657 171.325 32.3345C171.521 32.2034 171.618 32.0413 171.618 31.8482C171.618 31.6849 171.555 31.55 171.429 31.4436C171.305 31.3372 171.112 31.2555 170.85 31.1986L169.877 30.9945C169.33 30.8806 168.926 30.6888 168.664 30.4191C168.401 30.1469 168.271 29.8029 168.274 29.3871C168.271 29.0357 168.367 28.7313 168.56 28.4739C168.755 28.2141 169.026 28.0136 169.373 27.8726C169.721 27.729 170.124 27.6573 170.579 27.6573C171.247 27.6573 171.773 27.7996 172.157 28.0842C172.543 28.3687 172.781 28.7536 172.873 29.2386Z" fill="#388523"/>
<g filter="url(#filter0_dd_1346_32277)">
<path d="M37.4133 56.0667C37.4133 52.7677 40.0877 50.0933 43.3867 50.0933H180.027C183.326 50.0933 186 52.7677 186 56.0667V145.667C186 148.966 183.326 151.64 180.027 151.64H43.3866C40.0877 151.64 37.4133 148.966 37.4133 145.667V56.0667Z" fill="white"/>
<path d="M43.3867 50.4667H180.027C183.119 50.4667 185.627 52.9739 185.627 56.0667V145.667C185.627 148.759 183.119 151.267 180.027 151.267H43.3866C40.2939 151.267 37.7867 148.759 37.7867 145.667V56.0667C37.7867 52.9739 40.2939 50.4667 43.3867 50.4667Z" stroke="#DADFE2" stroke-width="0.746667"/>
<path d="M56.9904 71.9746C56.9215 71.9033 56.8391 71.8464 56.748 71.8073C56.6569 71.7682 56.5589 71.7476 56.4598 71.7467C56.3607 71.7458 56.2623 71.7647 56.1706 71.8023C56.0788 71.8398 55.9954 71.8952 55.9253 71.9654C55.8552 72.0355 55.7998 72.1188 55.7622 72.2106C55.7247 72.3023 55.7058 72.4007 55.7067 72.4998C55.7075 72.599 55.7281 72.6969 55.7673 72.788C55.8064 72.8791 55.8633 72.9615 55.9346 73.0304L57.4279 74.5237C57.5679 74.6637 57.7578 74.7424 57.9558 74.7424C58.1538 74.7424 58.3437 74.6637 58.4837 74.5237L61.4704 71.5371C61.5417 71.4682 61.5986 71.3858 61.6377 71.2947C61.6768 71.2036 61.6974 71.1056 61.6983 71.0065C61.6992 70.9073 61.6803 70.809 61.6427 70.7172C61.6052 70.6255 61.5498 70.5421 61.4796 70.472C61.4095 70.4019 61.3261 70.3464 61.2344 70.309C61.1426 70.2714 61.0443 70.2525 60.9452 70.2533C60.846 70.2542 60.7481 70.2748 60.657 70.314C60.5659 70.3531 60.4834 70.41 60.4146 70.4813L57.9558 72.9401L56.9904 71.9746Z" fill="#233D48"/>
<path d="M56.672 63.752C56.812 63.612 57.0019 63.5333 57.2 63.5333H60.1866C60.3847 63.5333 60.5746 63.612 60.7146 63.752L61.9892 65.0267H63.1733C63.9981 65.0267 64.6666 65.6952 64.6666 66.52V76.9733C64.6666 77.7981 63.9981 78.4667 63.1733 78.4667H54.2133C53.3886 78.4667 52.72 77.7981 52.72 76.9733V66.52C52.72 65.6952 53.3886 65.0267 54.2133 65.0267H55.3974L56.672 63.752ZM60.7146 67.7946C60.5746 67.9347 60.3847 68.0133 60.1866 68.0133H57.2C57.0019 68.0133 56.812 67.9347 56.672 67.7946L55.3974 66.52H54.2133V76.9733H63.1733V66.52H61.9892L60.7146 67.7946ZM57.5092 65.0267L56.7626 65.7733L57.5092 66.52H59.8774L60.624 65.7733L59.8774 65.0267H57.5092Z" fill="#233D48"/>
<path d="M80.3499 66.8976H82.0352L84.2922 72.4064H84.3813L86.6383 66.8976H88.3236V74.5H87.0021V69.277H86.9315L84.8305 74.4777H83.8431L81.742 69.2659H81.6715V74.5H80.3499V66.8976ZM92.2881 74.6114C91.7165 74.6114 91.2227 74.4926 90.807 74.255C90.3937 74.0149 90.0757 73.6759 89.853 73.2379C89.6302 72.7974 89.5189 72.2789 89.5189 71.6825C89.5189 71.096 89.6302 70.5812 89.853 70.1383C90.0782 69.6928 90.3925 69.3463 90.7959 69.0989C91.1992 68.8489 91.6732 68.7239 92.2176 68.7239C92.569 68.7239 92.9006 68.7809 93.2124 68.8947C93.5267 69.0061 93.8039 69.1793 94.044 69.4144C94.2865 69.6495 94.477 69.9489 94.6156 70.3127C94.7542 70.674 94.8235 71.1046 94.8235 71.6045V72.0166H90.1499V71.1108H93.5354C93.5329 70.8535 93.4772 70.6245 93.3684 70.4241C93.2595 70.2212 93.1073 70.0615 92.9118 69.9452C92.7187 69.8289 92.4935 69.7708 92.2362 69.7708C91.9615 69.7708 91.7202 69.8376 91.5123 69.9712C91.3044 70.1024 91.1423 70.2756 91.026 70.4909C90.9122 70.7037 90.854 70.9376 90.8515 71.1925V71.9832C90.8515 72.3148 90.9122 72.5994 91.0334 72.837C91.1547 73.0721 91.3242 73.2527 91.542 73.3789C91.7598 73.5027 92.0147 73.5645 92.3067 73.5645C92.5022 73.5645 92.6791 73.5373 92.8375 73.4829C92.9959 73.426 93.1333 73.3431 93.2496 73.2342C93.3659 73.1253 93.4537 72.9904 93.5131 72.8295L94.7678 72.9706C94.6886 73.3022 94.5377 73.5918 94.3149 73.8392C94.0947 74.0842 93.8126 74.2748 93.4686 74.4109C93.1246 74.5445 92.7311 74.6114 92.2881 74.6114ZM97.3041 71.1591V74.5H95.9603V68.7982H97.2447V69.767H97.3116C97.4427 69.4478 97.6518 69.1941 97.9389 69.0061C98.2284 68.818 98.5861 68.7239 99.0117 68.7239C99.4052 68.7239 99.7479 68.8081 100.04 68.9764C100.334 69.1446 100.562 69.3884 100.723 69.7077C100.886 70.0269 100.967 70.4142 100.964 70.8695V74.5H99.6205V71.0774C99.6205 70.6963 99.5215 70.3981 99.3235 70.1828C99.128 69.9675 98.857 69.8598 98.5106 69.8598C98.2755 69.8598 98.0664 69.9118 97.8832 70.0158C97.7026 70.1172 97.5603 70.2645 97.4563 70.4575C97.3549 70.6505 97.3041 70.8844 97.3041 71.1591ZM105.965 72.102V68.7982H107.308V74.5H106.005V73.4866H105.946C105.817 73.8058 105.606 74.0669 105.311 74.2698C105.019 74.4728 104.659 74.5742 104.231 74.5742C103.857 74.5742 103.527 74.4913 103.24 74.3255C102.955 74.1572 102.732 73.9135 102.572 73.5942C102.411 73.2725 102.33 72.884 102.33 72.4286V68.7982H103.674V72.2208C103.674 72.5821 103.773 72.8691 103.971 73.082C104.169 73.2948 104.429 73.4012 104.751 73.4012C104.949 73.4012 105.14 73.353 105.326 73.2564C105.512 73.1599 105.664 73.0164 105.783 72.8258C105.904 72.6328 105.965 72.3915 105.965 72.102ZM111.283 74.5V68.7982H112.627V74.5H111.283ZM111.959 67.9889C111.746 67.9889 111.563 67.9184 111.409 67.7773C111.256 67.6338 111.179 67.4618 111.179 67.2614C111.179 67.0584 111.256 66.8864 111.409 66.7454C111.563 66.6018 111.746 66.5301 111.959 66.5301C112.174 66.5301 112.357 66.6018 112.508 66.7454C112.661 66.8864 112.738 67.0584 112.738 67.2614C112.738 67.4618 112.661 67.6338 112.508 67.7773C112.357 67.9184 112.174 67.9889 111.959 67.9889ZM116.856 68.7982V69.8376H113.578V68.7982H116.856ZM114.387 67.4321H115.731V72.785C115.731 72.9657 115.758 73.1042 115.813 73.2008C115.87 73.2948 115.944 73.3591 116.035 73.3938C116.127 73.4284 116.229 73.4458 116.34 73.4458C116.424 73.4458 116.501 73.4396 116.57 73.4272C116.642 73.4148 116.696 73.4037 116.733 73.3938L116.96 74.4443C116.888 74.4691 116.785 74.4963 116.652 74.526C116.521 74.5557 116.36 74.573 116.169 74.578C115.833 74.5879 115.529 74.5371 115.26 74.4258C114.99 74.3119 114.776 74.1362 114.617 73.8986C114.462 73.6611 114.385 73.3641 114.387 73.0077V67.4321ZM120.443 74.6114C119.871 74.6114 119.377 74.4926 118.962 74.255C118.548 74.0149 118.23 73.6759 118.008 73.2379C117.785 72.7974 117.673 72.2789 117.673 71.6825C117.673 71.096 117.785 70.5812 118.008 70.1383C118.233 69.6928 118.547 69.3463 118.95 69.0989C119.354 68.8489 119.828 68.7239 120.372 68.7239C120.724 68.7239 121.055 68.7809 121.367 68.8947C121.681 69.0061 121.958 69.1793 122.199 69.4144C122.441 69.6495 122.632 69.9489 122.77 70.3127C122.909 70.674 122.978 71.1046 122.978 71.6045V72.0166H118.305V71.1108H121.69C121.688 70.8535 121.632 70.6245 121.523 70.4241C121.414 70.2212 121.262 70.0615 121.066 69.9452C120.873 69.8289 120.648 69.7708 120.391 69.7708C120.116 69.7708 119.875 69.8376 119.667 69.9712C119.459 70.1024 119.297 70.2756 119.181 70.4909C119.067 70.7037 119.009 70.9376 119.006 71.1925V71.9832C119.006 72.3148 119.067 72.5994 119.188 72.837C119.309 73.0721 119.479 73.2527 119.697 73.3789C119.914 73.5027 120.169 73.5645 120.461 73.5645C120.657 73.5645 120.834 73.5373 120.992 73.4829C121.15 73.426 121.288 73.3431 121.404 73.2342C121.52 73.1253 121.608 72.9904 121.668 72.8295L122.922 72.9706C122.843 73.3022 122.692 73.5918 122.47 73.8392C122.249 74.0842 121.967 74.2748 121.623 74.4109C121.279 74.5445 120.886 74.6114 120.443 74.6114ZM124.115 74.5V68.7982H125.399V69.767H125.466C125.585 69.4404 125.782 69.1855 126.056 69.0023C126.331 68.8167 126.659 68.7239 127.04 68.7239C127.426 68.7239 127.752 68.818 128.016 69.0061C128.284 69.1917 128.472 69.4453 128.581 69.767H128.64C128.766 69.4503 128.979 69.1979 129.278 69.0098C129.58 68.8192 129.938 68.7239 130.351 68.7239C130.876 68.7239 131.304 68.8897 131.636 69.2214C131.967 69.553 132.133 70.0368 132.133 70.6728V74.5H130.786V70.8807C130.786 70.5268 130.692 70.2682 130.503 70.1048C130.315 69.939 130.085 69.8561 129.813 69.8561C129.489 69.8561 129.235 69.9576 129.052 70.1605C128.871 70.361 128.781 70.6221 128.781 70.9438V74.5H127.463V70.825C127.463 70.5305 127.374 70.2954 127.196 70.1197C127.02 69.944 126.79 69.8561 126.506 69.8561C126.312 69.8561 126.137 69.9056 125.978 70.0046C125.82 70.1011 125.694 70.2385 125.6 70.4167C125.506 70.5924 125.459 70.7978 125.459 71.0329V74.5H124.115Z" fill="#233D48"/>
<path d="M56.6171 101.841C56.5482 101.77 56.4658 101.713 56.3747 101.674C56.2836 101.635 56.1856 101.614 56.0865 101.613C55.9874 101.613 55.889 101.631 55.7973 101.669C55.7055 101.706 55.6221 101.762 55.552 101.832C55.4819 101.902 55.4265 101.985 55.389 102.077C55.3514 102.169 55.3325 102.267 55.3334 102.366C55.3342 102.466 55.3548 102.564 55.394 102.655C55.4331 102.746 55.49 102.828 55.5613 102.897L57.0546 104.39C57.1946 104.53 57.3845 104.609 57.5825 104.609C57.7805 104.609 57.9704 104.53 58.1104 104.39L61.0971 101.404C61.1684 101.335 61.2253 101.252 61.2644 101.161C61.3035 101.07 61.3242 100.972 61.325 100.873C61.3259 100.774 61.307 100.676 61.2694 100.584C61.2319 100.492 61.1765 100.409 61.1063 100.339C61.0362 100.269 60.9528 100.213 60.8611 100.176C60.7693 100.138 60.671 100.119 60.5719 100.12C60.4727 100.121 60.3748 100.141 60.2837 100.181C60.1926 100.22 60.1101 100.277 60.0413 100.348L57.5825 102.807L56.6171 101.841Z" fill="#233D48"/>
<path d="M56.2987 93.6187C56.4387 93.4787 56.6286 93.4 56.8267 93.4H59.8133C60.0114 93.4 60.2013 93.4787 60.3413 93.6187L61.6159 94.8933H62.8C63.6248 94.8933 64.2933 95.5619 64.2933 96.3867V106.84C64.2933 107.665 63.6248 108.333 62.8 108.333H53.84C53.0153 108.333 52.3467 107.665 52.3467 106.84V96.3867C52.3467 95.5619 53.0153 94.8933 53.84 94.8933H55.0241L56.2987 93.6187ZM60.3413 97.6613C60.2013 97.8013 60.0114 97.88 59.8133 97.88H56.8267C56.6286 97.88 56.4387 97.8013 56.2987 97.6613L55.0241 96.3867H53.84V106.84H62.8V96.3867H61.6159L60.3413 97.6613ZM57.1359 94.8933L56.3893 95.64L57.1359 96.3867H59.5041L60.2507 95.64L59.5041 94.8933H57.1359Z" fill="#233D48"/>
<path d="M79.9767 96.7642H81.662L83.9189 102.273H84.008L86.265 96.7642H87.9503V104.367H86.6288V99.1437H86.5582L84.4572 104.344H83.4698L81.3687 99.1326H81.2982V104.367H79.9767V96.7642ZM91.9148 104.478C91.3432 104.478 90.8495 104.359 90.4337 104.122C90.0204 103.882 89.7024 103.543 89.4797 103.105C89.257 102.664 89.1456 102.146 89.1456 101.549C89.1456 100.963 89.257 100.448 89.4797 100.005C89.7049 99.5595 90.0192 99.213 90.4226 98.9655C90.8259 98.7156 91.2999 98.5906 91.8443 98.5906C92.1957 98.5906 92.5273 98.6475 92.8392 98.7614C93.1534 98.8727 93.4306 99.046 93.6707 99.2811C93.9132 99.5162 94.1038 99.8156 94.2423 100.179C94.3809 100.541 94.4502 100.971 94.4502 101.471V101.883H89.7767V100.978H93.1621C93.1596 100.72 93.104 100.491 92.9951 100.291C92.8862 100.088 92.734 99.9282 92.5385 99.8119C92.3454 99.6956 92.1202 99.6374 91.8629 99.6374C91.5882 99.6374 91.3469 99.7042 91.139 99.8379C90.9311 99.969 90.769 100.142 90.6527 100.358C90.5389 100.57 90.4807 100.804 90.4782 101.059V101.85C90.4782 102.181 90.5389 102.466 90.6601 102.704C90.7814 102.939 90.9509 103.119 91.1687 103.246C91.3865 103.369 91.6414 103.431 91.9334 103.431C92.1289 103.431 92.3058 103.404 92.4642 103.35C92.6226 103.293 92.76 103.21 92.8763 103.101C92.9926 102.992 93.0804 102.857 93.1398 102.696L94.3945 102.837C94.3153 103.169 94.1644 103.458 93.9417 103.706C93.7214 103.951 93.4393 104.141 93.0953 104.278C92.7513 104.411 92.3578 104.478 91.9148 104.478ZM96.9308 101.026V104.367H95.5871V98.6649H96.8714V99.6337H96.9383C97.0694 99.3145 97.2785 99.0608 97.5656 98.8727C97.8552 98.6846 98.2128 98.5906 98.6384 98.5906C99.0319 98.5906 99.3747 98.6747 99.6667 98.843C99.9612 99.0113 100.189 99.2551 100.35 99.5743C100.513 99.8936 100.593 100.281 100.591 100.736V104.367H99.2472V100.944C99.2472 100.563 99.1482 100.265 98.9502 100.049C98.7547 99.8342 98.4837 99.7265 98.1373 99.7265C97.9022 99.7265 97.6931 99.7785 97.5099 99.8824C97.3293 99.9839 97.187 100.131 97.083 100.324C96.9816 100.517 96.9308 100.751 96.9308 101.026ZM105.591 101.969V98.6649H106.935V104.367H105.632V103.353H105.573C105.444 103.673 105.232 103.934 104.938 104.137C104.646 104.339 104.286 104.441 103.858 104.441C103.484 104.441 103.154 104.358 102.867 104.192C102.582 104.024 102.359 103.78 102.198 103.461C102.037 103.139 101.957 102.751 101.957 102.295V98.6649H103.301V102.087C103.301 102.449 103.4 102.736 103.598 102.949C103.796 103.161 104.056 103.268 104.377 103.268C104.575 103.268 104.767 103.22 104.953 103.123C105.138 103.027 105.291 102.883 105.409 102.693C105.531 102.499 105.591 102.258 105.591 101.969ZM110.91 104.367V98.6649H112.254V104.367H110.91ZM111.585 97.8556C111.373 97.8556 111.189 97.7851 111.036 97.644C110.883 97.5005 110.806 97.3285 110.806 97.128C110.806 96.9251 110.883 96.7531 111.036 96.612C111.189 96.4685 111.373 96.3967 111.585 96.3967C111.801 96.3967 111.984 96.4685 112.135 96.612C112.288 96.7531 112.365 96.9251 112.365 97.128C112.365 97.3285 112.288 97.5005 112.135 97.644C111.984 97.7851 111.801 97.8556 111.585 97.8556ZM116.483 98.6649V99.7042H113.205V98.6649H116.483ZM114.014 97.2988H115.358V102.652C115.358 102.832 115.385 102.971 115.439 103.067C115.496 103.161 115.571 103.226 115.662 103.26C115.754 103.295 115.855 103.312 115.967 103.312C116.051 103.312 116.127 103.306 116.197 103.294C116.269 103.281 116.323 103.27 116.36 103.26L116.587 104.311C116.515 104.336 116.412 104.363 116.278 104.393C116.147 104.422 115.986 104.44 115.796 104.445C115.459 104.455 115.156 104.404 114.886 104.292C114.617 104.179 114.403 104.003 114.244 103.765C114.088 103.528 114.012 103.231 114.014 102.874V97.2988ZM120.069 104.478C119.498 104.478 119.004 104.359 118.588 104.122C118.175 103.882 117.857 103.543 117.634 103.105C117.412 102.664 117.3 102.146 117.3 101.549C117.3 100.963 117.412 100.448 117.634 100.005C117.859 99.5595 118.174 99.213 118.577 98.9655C118.981 98.7156 119.454 98.5906 119.999 98.5906C120.35 98.5906 120.682 98.6475 120.994 98.7614C121.308 98.8727 121.585 99.046 121.825 99.2811C122.068 99.5162 122.258 99.8156 122.397 100.179C122.536 100.541 122.605 100.971 122.605 101.471V101.883H117.931V100.978H121.317C121.314 100.72 121.259 100.491 121.15 100.291C121.041 100.088 120.889 99.9282 120.693 99.8119C120.5 99.6956 120.275 99.6374 120.017 99.6374C119.743 99.6374 119.501 99.7042 119.294 99.8379C119.086 99.969 118.924 100.142 118.807 100.358C118.693 100.57 118.635 100.804 118.633 101.059V101.85C118.633 102.181 118.693 102.466 118.815 102.704C118.936 102.939 119.106 103.119 119.323 103.246C119.541 103.369 119.796 103.431 120.088 103.431C120.283 103.431 120.46 103.404 120.619 103.35C120.777 103.293 120.915 103.21 121.031 103.101C121.147 102.992 121.235 102.857 121.294 102.696L122.549 102.837C122.47 103.169 122.319 103.458 122.096 103.706C121.876 103.951 121.594 104.141 121.25 104.278C120.906 104.411 120.512 104.478 120.069 104.478ZM123.742 104.367V98.6649H125.026V99.6337H125.093C125.212 99.307 125.408 99.0521 125.683 98.869C125.958 98.6834 126.286 98.5906 126.667 98.5906C127.053 98.5906 127.378 98.6846 127.643 98.8727C127.91 99.0583 128.098 99.312 128.207 99.6337H128.267C128.393 99.3169 128.606 99.0645 128.905 98.8764C129.207 98.6859 129.565 98.5906 129.978 98.5906C130.503 98.5906 130.931 98.7564 131.262 99.088C131.594 99.4196 131.76 99.9035 131.76 100.539V104.367H130.412V100.747C130.412 100.393 130.318 100.135 130.13 99.9715C129.942 99.8057 129.712 99.7228 129.44 99.7228C129.116 99.7228 128.862 99.8243 128.679 100.027C128.498 100.228 128.408 100.489 128.408 100.81V104.367H127.09V100.692C127.09 100.397 127.001 100.162 126.823 99.9864C126.647 99.8107 126.417 99.7228 126.132 99.7228C125.939 99.7228 125.764 99.7723 125.605 99.8713C125.447 99.9678 125.321 100.105 125.226 100.283C125.132 100.459 125.085 100.664 125.085 100.9V104.367H123.742Z" fill="#233D48"/>
</g>
</g>
<defs>
<filter id="filter0_dd_1346_32277" x="28.4533" y="44.12" width="166.507" height="119.467" filterUnits="userSpaceOnUse" color-interpolation-filters="sRGB">
<feFlood flood-opacity="0" result="BackgroundImageFix"/>
<feColorMatrix in="SourceAlpha" type="matrix" values="0 0 0 0 0 0 0 0 0 0 0 0 0 0 0 0 0 0 127 0" result="hardAlpha"/>
<feOffset dy="2.98667"/>
<feGaussianBlur stdDeviation="4.48"/>
<feColorMatrix type="matrix" values="0 0 0 0 0 0 0 0 0 0 0 0 0 0 0 0 0 0 0.05 0"/>
<feBlend mode="normal" in2="BackgroundImageFix" result="effect1_dropShadow_1346_32277"/>
<feColorMatrix in="SourceAlpha" type="matrix" values="0 0 0 0 0 0 0 0 0 0 0 0 0 0 0 0 0 0 127 0" result="hardAlpha"/>
<feOffset dy="0.746667"/>
<feGaussianBlur stdDeviation="1.49333"/>
<feColorMatrix type="matrix" values="0 0 0 0 0 0 0 0 0 0 0 0 0 0 0 0 0 0 0.1 0"/>
<feBlend mode="normal" in2="effect1_dropShadow_1346_32277" result="effect2_dropShadow_1346_32277"/>
<feBlend mode="normal" in="SourceGraphic" in2="effect2_dropShadow_1346_32277" result="shape"/>
</filter>
<clipPath id="clip0_1346_32277">
<rect width="224" height="117" fill="white"/>
</clipPath>
</defs>
</svg>
