<svg width="224" height="117" viewBox="0 0 224 117" fill="none" xmlns="http://www.w3.org/2000/svg">
<g filter="url(#filter0_dd_4_5800)">
<g clip-path="url(#clip0_4_5800)">
<path d="M12 18.0123C12 15.7964 13.7964 14 16.0123 14H208.602C210.818 14 212.615 15.7964 212.615 18.0123V98.209C212.615 100.425 210.818 102.221 208.602 102.221H16.0123C13.7964 102.221 12 100.425 12 98.209V18.0123Z" fill="white"/>
<path d="M20.7853 25.2705H23.0678L25.4786 31.1522H25.5812L27.992 25.2705H30.2746V34.0246H28.4793V28.3267H28.4066L26.1412 33.9819H24.9187L22.6532 28.3054H22.5805V34.0246H20.7853V25.2705ZM34.7318 34.1528C34.0678 34.1528 33.4936 34.0118 33.0092 33.7297C32.5276 33.4447 32.1557 33.0486 31.8935 32.5414C31.6314 32.0313 31.5003 31.44 31.5003 30.7675C31.5003 30.0892 31.6314 29.4965 31.8935 28.9893C32.1557 28.4792 32.5276 28.0831 33.0092 27.801C33.4936 27.516 34.0678 27.3735 34.7318 27.3735C35.3957 27.3735 35.9685 27.516 36.4501 27.801C36.9345 28.0831 37.3078 28.4792 37.57 28.9893C37.8322 29.4965 37.9633 30.0892 37.9633 30.7675C37.9633 31.44 37.8322 32.0313 37.57 32.5414C37.3078 33.0486 36.9345 33.4447 36.4501 33.7297C35.9685 34.0118 35.3957 34.1528 34.7318 34.1528ZM34.7403 32.7423C35.0424 32.7423 35.2946 32.6568 35.4969 32.4858C35.6992 32.312 35.8517 32.0754 35.9543 31.7762C36.0597 31.477 36.1124 31.1365 36.1124 30.7546C36.1124 30.3728 36.0597 30.0322 35.9543 29.733C35.8517 29.4338 35.6992 29.1973 35.4969 29.0235C35.2946 28.8496 35.0424 28.7627 34.7403 28.7627C34.4354 28.7627 34.1789 28.8496 33.9709 29.0235C33.7657 29.1973 33.6104 29.4338 33.505 29.733C33.4024 30.0322 33.3511 30.3728 33.3511 30.7546C33.3511 31.1365 33.4024 31.477 33.505 31.7762C33.6104 32.0754 33.7657 32.312 33.9709 32.4858C34.1789 32.6568 34.4354 32.7423 34.7403 32.7423ZM41.5666 34.1315C41.0679 34.1315 40.6163 34.0032 40.2116 33.7468C39.8098 33.4874 39.4907 33.107 39.2542 32.6055C39.0205 32.1011 38.9036 31.4827 38.9036 30.7504C38.9036 29.9981 39.0248 29.3726 39.267 28.8739C39.5092 28.3723 39.8312 27.9976 40.233 27.7497C40.6377 27.4989 41.0808 27.3735 41.5624 27.3735C41.93 27.3735 42.2363 27.4362 42.4814 27.5616C42.7293 27.6841 42.9288 27.838 43.0798 28.0233C43.2337 28.2056 43.3505 28.3852 43.4303 28.5618H43.4859V25.2705H45.3025V34.0246H43.5072V32.9731H43.4303C43.3448 33.1555 43.2237 33.3364 43.067 33.5159C42.9131 33.6926 42.7122 33.8394 42.4643 33.9562C42.2192 34.073 41.92 34.1315 41.5666 34.1315ZM42.1437 32.6824C42.4372 32.6824 42.6851 32.6026 42.8874 32.443C43.0926 32.2806 43.2493 32.0541 43.3576 31.7634C43.4688 31.4727 43.5243 31.1322 43.5243 30.7418C43.5243 30.3514 43.4702 30.0123 43.3619 29.7245C43.2536 29.4367 43.0969 29.2144 42.8917 29.0577C42.6865 28.9009 42.4372 28.8226 42.1437 28.8226C41.8445 28.8226 41.5923 28.9038 41.3871 29.0662C41.1819 29.2287 41.0266 29.4538 40.9212 29.7416C40.8158 30.0294 40.763 30.3628 40.763 30.7418C40.763 31.1237 40.8158 31.4613 40.9212 31.7549C41.0295 32.0455 41.1848 32.2735 41.3871 32.4388C41.5923 32.6012 41.8445 32.6824 42.1437 32.6824ZM48.6719 34.1486C48.253 34.1486 47.8797 34.0759 47.552 33.9306C47.2242 33.7824 46.9649 33.5644 46.774 33.2766C46.5859 32.9859 46.4919 32.624 46.4919 32.1909C46.4919 31.8261 46.5589 31.5198 46.6928 31.2718C46.8267 31.0239 47.0091 30.8244 47.2399 30.6734C47.4707 30.5224 47.7329 30.4084 48.0264 30.3315C48.3228 30.2545 48.6334 30.2004 48.9583 30.169C49.3401 30.1291 49.6479 30.0921 49.8815 30.0579C50.1152 30.0209 50.2848 29.9667 50.3902 29.8955C50.4956 29.8242 50.5484 29.7188 50.5484 29.5792V29.5535C50.5484 29.2828 50.4629 29.0733 50.2919 28.9252C50.1238 28.777 49.8844 28.7029 49.5738 28.7029C49.2461 28.7029 48.9853 28.7756 48.7915 28.9209C48.5978 29.0634 48.4695 29.2429 48.4068 29.4595L46.7227 29.3227C46.8082 28.9237 46.9763 28.5789 47.2271 28.2883C47.4779 27.9948 47.8013 27.7696 48.1974 27.6129C48.5963 27.4533 49.058 27.3735 49.5823 27.3735C49.9471 27.3735 50.2962 27.4163 50.6296 27.5018C50.9658 27.5873 51.2636 27.7198 51.5229 27.8993C51.7851 28.0788 51.9917 28.3096 52.1427 28.5918C52.2938 28.871 52.3693 29.2059 52.3693 29.5963V34.0246H50.6424V33.1141H50.5911C50.4857 33.3193 50.3446 33.5003 50.1679 33.657C49.9912 33.8109 49.7789 33.932 49.531 34.0203C49.2831 34.1058 48.9967 34.1486 48.6719 34.1486ZM49.1933 32.8919C49.4612 32.8919 49.6977 32.8391 49.9029 32.7337C50.1081 32.6254 50.2691 32.4801 50.3859 32.2977C50.5028 32.1153 50.5612 31.9087 50.5612 31.6779V30.9812C50.5042 31.0182 50.4258 31.0524 50.3261 31.0838C50.2292 31.1123 50.1195 31.1393 49.9969 31.165C49.8744 31.1878 49.7519 31.2092 49.6293 31.2291C49.5068 31.2462 49.3957 31.2619 49.2959 31.2761C49.0822 31.3075 48.8956 31.3573 48.736 31.4257C48.5764 31.4941 48.4524 31.5867 48.3641 31.7036C48.2758 31.8175 48.2316 31.96 48.2316 32.131C48.2316 32.3789 48.3214 32.5684 48.5009 32.6995C48.6833 32.8277 48.9141 32.8919 49.1933 32.8919ZM55.6029 25.2705V34.0246H53.782V25.2705H55.6029ZM63.3397 27.459V28.8269H59.3858V27.459H63.3397ZM60.2834 25.886H62.1044V32.0071C62.1044 32.1752 62.13 32.3063 62.1813 32.4003C62.2326 32.4915 62.3038 32.5556 62.395 32.5927C62.4891 32.6297 62.5973 32.6482 62.7199 32.6482C62.8054 32.6482 62.8909 32.6411 62.9763 32.6268C63.0618 32.6098 63.1274 32.5969 63.173 32.5884L63.4594 33.9434C63.3682 33.9719 63.2399 34.0046 63.0747 34.0417C62.9094 34.0816 62.7085 34.1058 62.472 34.1144C62.0331 34.1315 61.6484 34.073 61.3179 33.9391C60.9901 33.8052 60.7351 33.5972 60.5527 33.315C60.3704 33.0329 60.2806 32.6767 60.2834 32.2464V25.886ZM64.5258 34.0246V27.459H66.3468V34.0246H64.5258ZM65.4406 26.6127C65.1699 26.6127 64.9376 26.5229 64.7438 26.3434C64.5529 26.161 64.4575 25.943 64.4575 25.6894C64.4575 25.4386 64.5529 25.2235 64.7438 25.044C64.9376 24.8616 65.1699 24.7704 65.4406 24.7704C65.7113 24.7704 65.9421 24.8616 66.133 25.044C66.3268 25.2235 66.4237 25.4386 66.4237 25.6894C66.4237 25.943 66.3268 26.161 66.133 26.3434C65.9421 26.5229 65.7113 26.6127 65.4406 26.6127ZM71.2977 27.459V28.8269H67.3438V27.459H71.2977ZM68.2414 25.886H70.0623V32.0071C70.0623 32.1752 70.088 32.3063 70.1393 32.4003C70.1906 32.4915 70.2618 32.5556 70.353 32.5927C70.447 32.6297 70.5553 32.6482 70.6779 32.6482C70.7634 32.6482 70.8488 32.6411 70.9343 32.6268C71.0198 32.6098 71.0854 32.5969 71.131 32.5884L71.4173 33.9434C71.3262 33.9719 71.1979 34.0046 71.0326 34.0417C70.8674 34.0816 70.6665 34.1058 70.4299 34.1144C69.9911 34.1315 69.6064 34.073 69.2758 33.9391C68.9481 33.8052 68.6931 33.5972 68.5107 33.315C68.3283 33.0329 68.2386 32.6767 68.2414 32.2464V25.886ZM74.4458 25.2705V34.0246H72.6249V25.2705H74.4458ZM78.8966 34.1528C78.2212 34.1528 77.6399 34.016 77.1526 33.7425C76.6682 33.4661 76.2949 33.0757 76.0327 32.5713C75.7705 32.064 75.6394 31.4642 75.6394 30.7717C75.6394 30.0964 75.7705 29.5036 76.0327 28.9936C76.2949 28.4835 76.6639 28.0859 77.1398 27.801C77.6185 27.516 78.1799 27.3735 78.8239 27.3735C79.2571 27.3735 79.6603 27.4433 80.0336 27.583C80.4097 27.7198 80.7375 27.9264 81.0167 28.2028C81.2988 28.4792 81.5183 28.8269 81.675 29.2457C81.8317 29.6618 81.9101 30.1491 81.9101 30.7076V31.2077H76.3661V30.0793H80.196C80.196 29.8171 80.139 29.5849 80.025 29.3825C79.9111 29.1802 79.7529 29.0221 79.5506 28.9081C79.3511 28.7912 79.1189 28.7328 78.8538 28.7328C78.5774 28.7328 78.3324 28.7969 78.1186 28.9252C77.9078 29.0505 77.7425 29.2201 77.6228 29.4338C77.5031 29.6447 77.4418 29.8798 77.439 30.1391V31.212C77.439 31.5369 77.4988 31.8175 77.6185 32.0541C77.7411 32.2906 77.9135 32.473 78.1357 32.6012C78.358 32.7294 78.6216 32.7936 78.9265 32.7936C79.1288 32.7936 79.3141 32.7651 79.4822 32.7081C79.6503 32.6511 79.7942 32.5656 79.9139 32.4516C80.0336 32.3376 80.1248 32.198 80.1875 32.0327L81.8716 32.1438C81.7861 32.5485 81.6109 32.9018 81.3459 33.2039C81.0837 33.5031 80.7446 33.7368 80.3285 33.9049C79.9153 34.0702 79.438 34.1528 78.8966 34.1528Z" fill="#032B3A"/>
<path d="M198.572 27.3339L195.917 24.6792C195.823 24.5879 195.696 24.5373 195.565 24.5385C195.433 24.5396 195.307 24.5924 195.214 24.6853C195.121 24.7783 195.069 24.9041 195.067 25.0356C195.066 25.1671 195.117 25.2938 195.208 25.3884L197.863 28.043L195.208 30.6977C195.117 30.7923 195.066 30.9189 195.067 31.0505C195.069 31.182 195.121 31.3077 195.214 31.4007C195.307 31.4937 195.433 31.5465 195.565 31.5476C195.696 31.5488 195.823 31.4982 195.917 31.4068L198.572 28.7522L201.227 31.4068C201.321 31.4982 201.448 31.5488 201.579 31.5476C201.711 31.5465 201.837 31.4937 201.93 31.4007C202.023 31.3077 202.075 31.182 202.077 31.0505C202.078 30.9189 202.027 30.7923 201.936 30.6977L199.281 28.043L201.936 25.3884C201.984 25.3421 202.022 25.2868 202.048 25.2256C202.074 25.1644 202.088 25.0986 202.089 25.032C202.089 24.9654 202.077 24.8994 202.052 24.8377C202.026 24.7761 201.989 24.7201 201.942 24.673C201.895 24.6259 201.839 24.5887 201.777 24.5635C201.716 24.5383 201.65 24.5256 201.583 24.5261C201.516 24.5267 201.451 24.5406 201.389 24.5668C201.328 24.5931 201.273 24.6313 201.227 24.6792L198.572 27.3339Z" fill="#233D48"/>
<g clip-path="url(#clip1_4_5800)">
<path d="M20.0244 48.0553C20.0244 46.9474 20.9226 46.0492 22.0306 46.0492H170.065C171.173 46.0492 172.071 46.9474 172.071 48.0553V48.0553C172.071 49.1633 171.173 50.0615 170.065 50.0615H22.0306C20.9226 50.0615 20.0244 49.1633 20.0244 48.0553V48.0553Z" fill="black" fill-opacity="0.08"/>
<rect x="20.0244" y="46.0492" width="151.532" height="4.0123" fill="url(#paint0_linear_4_5800)"/>
<rect x="-96.332" y="46.0492" width="151.532" height="4.0123" fill="url(#paint1_linear_4_5800)"/>
</g>
<g clip-path="url(#clip2_4_5800)">
<path d="M20.0244 56.0799C20.0244 54.972 20.9226 54.0738 22.0306 54.0738H202.584C203.692 54.0738 204.59 54.972 204.59 56.0799V56.0799C204.59 57.1879 203.692 58.0861 202.584 58.0861H22.0306C20.9226 58.0861 20.0244 57.1879 20.0244 56.0799V56.0799Z" fill="black" fill-opacity="0.08"/>
<rect x="20.0244" y="54.0738" width="184.646" height="4.0123" fill="url(#paint2_linear_4_5800)"/>
<rect x="-96.332" y="54.0738" width="184.646" height="4.0123" fill="url(#paint3_linear_4_5800)"/>
</g>
<g clip-path="url(#clip3_4_5800)">
<path d="M20.0244 64.1045C20.0244 62.9966 20.9226 62.0984 22.0306 62.0984H156.882C157.99 62.0984 158.888 62.9966 158.888 64.1045V64.1045C158.888 65.2125 157.99 66.1107 156.882 66.1107H22.0306C20.9226 66.1107 20.0244 65.2125 20.0244 64.1045V64.1045Z" fill="black" fill-opacity="0.08"/>
<rect x="20.0244" y="62.0984" width="139.486" height="4.0123" fill="url(#paint4_linear_4_5800)"/>
<rect x="-96.332" y="62.0984" width="139.486" height="4.0123" fill="url(#paint5_linear_4_5800)"/>
</g>
<path d="M24.0367 74.386H55.0613C57.1387 74.386 58.8228 76.0701 58.8228 78.1475V90.1844C58.8228 92.2619 57.1387 93.946 55.0613 93.946H24.0367C21.9593 93.946 20.2752 92.2619 20.2752 90.1844V78.1476C20.2752 76.0701 21.9593 74.386 24.0367 74.386Z" fill="white"/>
<path d="M24.0367 74.386H55.0613C57.1387 74.386 58.8228 76.0701 58.8228 78.1475V90.1844C58.8228 92.2619 57.1387 93.946 55.0613 93.946H24.0367C21.9593 93.946 20.2752 92.2619 20.2752 90.1844V78.1476C20.2752 76.0701 21.9593 74.386 24.0367 74.386Z" stroke="#DADFE2" stroke-width="0.501537"/>
<path d="M30.7673 86.166H29.0368V81.0594H30.8022C31.3092 81.0594 31.7447 81.1617 32.1087 81.3661C32.4744 81.5689 32.7554 81.8607 32.9515 82.2413C33.1477 82.622 33.2457 83.0774 33.2457 83.6077C33.2457 84.1397 33.1468 84.5968 32.949 84.9791C32.7529 85.3614 32.4694 85.6548 32.0988 85.8593C31.7297 86.0638 31.2859 86.166 30.7673 86.166ZM29.9619 85.3656H30.7224C31.0781 85.3656 31.3748 85.3008 31.6125 85.1711C31.8502 85.0398 32.0289 84.8445 32.1486 84.5851C32.2683 84.3242 32.3281 83.9984 32.3281 83.6077C32.3281 83.2171 32.2683 82.8929 32.1486 82.6353C32.0289 82.376 31.8519 82.1823 31.6175 82.0543C31.3848 81.9246 31.0956 81.8598 30.7498 81.8598H29.9619V85.3656ZM35.7803 86.2408C35.3963 86.2408 35.0647 86.161 34.7854 86.0014C34.5078 85.8402 34.2942 85.6124 34.1446 85.3182C33.995 85.0223 33.9202 84.6741 33.9202 84.2735C33.9202 83.8795 33.995 83.5337 34.1446 83.2362C34.2959 82.937 34.507 82.7043 34.7779 82.538C35.0489 82.3701 35.3672 82.2862 35.7329 82.2862C35.969 82.2862 36.1917 82.3244 36.4012 82.4009C36.6123 82.4757 36.7985 82.5921 36.9597 82.75C37.1226 82.9079 37.2506 83.109 37.3437 83.3534C37.4368 83.5961 37.4833 83.8853 37.4833 84.2211V84.4979H34.3441V83.8895H36.6181C36.6164 83.7166 36.579 83.5628 36.5059 83.4282C36.4328 83.2919 36.3305 83.1847 36.1992 83.1065C36.0695 83.0284 35.9183 82.9893 35.7454 82.9893C35.5609 82.9893 35.3988 83.0342 35.2592 83.124C35.1196 83.2121 35.0107 83.3285 34.9325 83.4731C34.8561 83.616 34.817 83.7731 34.8154 83.9443V84.4754C34.8154 84.6982 34.8561 84.8893 34.9375 85.0489C35.019 85.2068 35.1328 85.3282 35.2791 85.413C35.4254 85.4961 35.5966 85.5376 35.7928 85.5376C35.9241 85.5376 36.043 85.5194 36.1493 85.4828C36.2557 85.4446 36.348 85.3889 36.4261 85.3157C36.5042 85.2426 36.5633 85.152 36.6031 85.0439L37.4459 85.1387C37.3927 85.3614 37.2913 85.5559 37.1417 85.7222C36.9938 85.8867 36.8043 86.0147 36.5732 86.1061C36.3422 86.1959 36.0779 86.2408 35.7803 86.2408ZM39.1496 81.0594V86.166H38.2469V81.0594H39.1496ZM41.7733 86.2408C41.3893 86.2408 41.0577 86.161 40.7784 86.0014C40.5008 85.8402 40.2872 85.6124 40.1376 85.3182C39.988 85.0223 39.9132 84.6741 39.9132 84.2735C39.9132 83.8795 39.988 83.5337 40.1376 83.2362C40.2889 82.937 40.5 82.7043 40.7709 82.538C41.0419 82.3701 41.3602 82.2862 41.7259 82.2862C41.962 82.2862 42.1847 82.3244 42.3942 82.4009C42.6053 82.4757 42.7914 82.5921 42.9527 82.75C43.1156 82.9079 43.2436 83.109 43.3367 83.3534C43.4298 83.5961 43.4763 83.8853 43.4763 84.2211V84.4979H40.3371V83.8895H42.6111C42.6094 83.7166 42.572 83.5628 42.4989 83.4282C42.4257 83.2919 42.3235 83.1847 42.1922 83.1065C42.0625 83.0284 41.9113 82.9893 41.7384 82.9893C41.5539 82.9893 41.3918 83.0342 41.2522 83.124C41.1125 83.2121 41.0036 83.3285 40.9255 83.4731C40.8491 83.616 40.81 83.7731 40.8083 83.9443V84.4754C40.8083 84.6982 40.8491 84.8893 40.9305 85.0489C41.012 85.2068 41.1258 85.3282 41.2721 85.413C41.4184 85.4961 41.5896 85.5376 41.7858 85.5376C41.9171 85.5376 42.0359 85.5194 42.1423 85.4828C42.2487 85.4446 42.341 85.3889 42.4191 85.3157C42.4972 85.2426 42.5562 85.152 42.5961 85.0439L43.4389 85.1387C43.3857 85.3614 43.2843 85.5559 43.1347 85.7222C42.9868 85.8867 42.7973 86.0147 42.5662 86.1061C42.3351 86.1959 42.0708 86.2408 41.7733 86.2408ZM46.1524 82.3361V83.0342H43.9507V82.3361H46.1524ZM44.4942 81.4185H45.3969V85.014C45.3969 85.1354 45.4152 85.2285 45.4517 85.2933C45.49 85.3564 45.5398 85.3997 45.6013 85.4229C45.6628 85.4462 45.731 85.4578 45.8058 85.4578C45.8623 85.4578 45.9138 85.4537 45.9604 85.4454C46.0086 85.4371 46.0452 85.4296 46.0701 85.4229L46.2222 86.1286C46.174 86.1452 46.105 86.1635 46.0152 86.1834C45.9271 86.2034 45.8191 86.215 45.6911 86.2183C45.465 86.225 45.2614 86.1909 45.0802 86.1161C44.899 86.0397 44.7552 85.9216 44.6488 85.762C44.5441 85.6025 44.4926 85.403 44.4942 85.1636V81.4185ZM48.5617 86.2408C48.1777 86.2408 47.846 86.161 47.5668 86.0014C47.2892 85.8402 47.0756 85.6124 46.926 85.3182C46.7764 85.0223 46.7016 84.6741 46.7016 84.2735C46.7016 83.8795 46.7764 83.5337 46.926 83.2362C47.0772 82.937 47.2884 82.7043 47.5593 82.538C47.8303 82.3701 48.1486 82.2862 48.5143 82.2862C48.7503 82.2862 48.9731 82.3244 49.1825 82.4009C49.3936 82.4757 49.5798 82.5921 49.7411 82.75C49.904 82.9079 50.032 83.109 50.1251 83.3534C50.2181 83.5961 50.2647 83.8853 50.2647 84.2211V84.4979H47.1254V83.8895H49.3995C49.3978 83.7166 49.3604 83.5628 49.2873 83.4282C49.2141 83.2919 49.1119 83.1847 48.9806 83.1065C48.8509 83.0284 48.6996 82.9893 48.5268 82.9893C48.3422 82.9893 48.1802 83.0342 48.0405 83.124C47.9009 83.2121 47.792 83.3285 47.7139 83.4731C47.6374 83.616 47.5984 83.7731 47.5967 83.9443V84.4754C47.5967 84.6982 47.6374 84.8893 47.7189 85.0489C47.8003 85.2068 47.9142 85.3282 48.0605 85.413C48.2068 85.4961 48.378 85.5376 48.5741 85.5376C48.7055 85.5376 48.8243 85.5194 48.9307 85.4828C49.0371 85.4446 49.1293 85.3889 49.2075 85.3157C49.2856 85.2426 49.3446 85.152 49.3845 85.0439L50.2273 85.1387C50.1741 85.3614 50.0727 85.5559 49.9231 85.7222C49.7751 85.8867 49.5856 86.0147 49.3546 86.1061C49.1235 86.1959 48.8592 86.2408 48.5617 86.2408Z" fill="#D24232"/>
<path d="M121.492 74.386H153.516C155.594 74.386 157.278 76.0701 157.278 78.1475V90.1844C157.278 92.2618 155.594 93.9459 153.516 93.9459H121.492C119.414 93.9459 117.73 92.2618 117.73 90.1844V78.1475C117.73 76.0701 119.414 74.386 121.492 74.386Z" fill="white"/>
<path d="M121.492 74.386H153.516C155.594 74.386 157.278 76.0701 157.278 78.1475V90.1844C157.278 92.2618 155.594 93.9459 153.516 93.9459H121.492C119.414 93.9459 117.73 92.2618 117.73 90.1844V78.1475C117.73 76.0701 119.414 74.386 121.492 74.386Z" stroke="#DADFE2" stroke-width="0.501537"/>
<path d="M130.591 82.7824H129.659C129.632 82.6294 129.583 82.494 129.512 82.3759C129.44 82.2562 129.351 82.1548 129.245 82.0717C129.139 81.9886 129.017 81.9263 128.881 81.8847C128.746 81.8415 128.601 81.8199 128.445 81.8199C128.167 81.8199 127.921 81.8897 127.707 82.0293C127.492 82.1673 127.324 82.3701 127.203 82.6377C127.082 82.9037 127.021 83.2287 127.021 83.6127C127.021 84.0033 127.082 84.3324 127.203 84.6001C127.326 84.866 127.494 85.0672 127.707 85.2035C127.921 85.3381 128.166 85.4055 128.442 85.4055C128.595 85.4055 128.738 85.3855 128.871 85.3456C129.006 85.3041 129.126 85.2434 129.233 85.1636C129.341 85.0838 129.431 84.9857 129.504 84.8694C129.579 84.753 129.631 84.62 129.659 84.4704L130.591 84.4754C130.557 84.7181 130.481 84.9458 130.365 85.1586C130.25 85.3714 130.099 85.5592 129.913 85.7221C129.727 85.8834 129.509 86.0097 129.26 86.1011C129.011 86.1909 128.734 86.2358 128.43 86.2358C127.981 86.2358 127.58 86.1319 127.228 85.9241C126.875 85.7163 126.598 85.4163 126.395 85.024C126.192 84.6317 126.091 84.1612 126.091 83.6127C126.091 83.0625 126.193 82.592 126.398 82.2014C126.602 81.8091 126.88 81.509 127.233 81.3013C127.585 81.0935 127.984 80.9896 128.43 80.9896C128.714 80.9896 128.978 81.0295 129.223 81.1093C129.467 81.1891 129.685 81.3062 129.876 81.4608C130.067 81.6138 130.224 81.8016 130.347 82.0244C130.472 82.2454 130.553 82.4981 130.591 82.7824ZM132.501 86.2433C132.258 86.2433 132.04 86.2 131.845 86.1136C131.652 86.0255 131.499 85.8958 131.386 85.7246C131.275 85.5534 131.219 85.3423 131.219 85.0913C131.219 84.8752 131.259 84.6965 131.339 84.5552C131.419 84.4139 131.528 84.3009 131.666 84.2161C131.803 84.1313 131.959 84.0673 132.132 84.0241C132.306 83.9792 132.487 83.9468 132.673 83.9268C132.897 83.9036 133.079 83.8828 133.219 83.8645C133.359 83.8446 133.46 83.8146 133.523 83.7747C133.588 83.7332 133.62 83.6692 133.62 83.5828V83.5678C133.62 83.38 133.565 83.2345 133.453 83.1314C133.342 83.0284 133.182 82.9768 132.972 82.9768C132.751 82.9768 132.576 83.0251 132.446 83.1215C132.318 83.2179 132.232 83.3317 132.187 83.4631L131.344 83.3434C131.41 83.1107 131.52 82.9162 131.673 82.7599C131.826 82.602 132.013 82.484 132.234 82.4059C132.455 82.3261 132.699 82.2862 132.967 82.2862C133.152 82.2862 133.335 82.3078 133.518 82.351C133.701 82.3942 133.868 82.4657 134.019 82.5654C134.171 82.6635 134.292 82.7973 134.383 82.9669C134.476 83.1364 134.523 83.3484 134.523 83.6027V86.166H133.655V85.6398H133.625C133.571 85.7462 133.493 85.846 133.393 85.9391C133.295 86.0305 133.172 86.1044 133.022 86.161C132.874 86.2158 132.7 86.2433 132.501 86.2433ZM132.735 85.58C132.916 85.58 133.073 85.5443 133.206 85.4728C133.339 85.3996 133.442 85.3032 133.513 85.1835C133.586 85.0639 133.623 84.9334 133.623 84.7921V84.3408C133.595 84.364 133.546 84.3856 133.478 84.4056C133.412 84.4255 133.337 84.443 133.254 84.458C133.171 84.4729 133.088 84.4862 133.007 84.4978C132.926 84.5095 132.855 84.5195 132.795 84.5278C132.66 84.5461 132.54 84.576 132.434 84.6175C132.327 84.6591 132.243 84.7173 132.182 84.7921C132.12 84.8652 132.089 84.96 132.089 85.0763C132.089 85.2426 132.15 85.3681 132.271 85.4528C132.393 85.5376 132.547 85.58 132.735 85.58ZM136.333 83.9219V86.166H135.431V82.336H136.293V82.9868H136.338C136.426 82.7724 136.567 82.602 136.76 82.4757C136.954 82.3493 137.194 82.2862 137.48 82.2862C137.745 82.2862 137.975 82.3427 138.171 82.4557C138.369 82.5688 138.522 82.7325 138.63 82.9469C138.739 83.1614 138.793 83.4215 138.792 83.7274V86.166H137.889V83.867C137.889 83.611 137.823 83.4107 137.69 83.2661C137.558 83.1215 137.376 83.0492 137.144 83.0492C136.986 83.0492 136.845 83.0841 136.722 83.1539C136.601 83.222 136.505 83.3209 136.435 83.4506C136.367 83.5803 136.333 83.7373 136.333 83.9219ZM141.38 86.2408C140.998 86.2408 140.669 86.1568 140.395 85.9889C140.122 85.821 139.912 85.5891 139.764 85.2933C139.618 84.9957 139.545 84.6533 139.545 84.266C139.545 83.877 139.62 83.5337 139.769 83.2362C139.919 82.937 140.13 82.7042 140.403 82.538C140.677 82.3701 141.001 82.2862 141.375 82.2862C141.686 82.2862 141.961 82.3435 142.2 82.4582C142.441 82.5713 142.633 82.7317 142.776 82.9394C142.919 83.1456 143.001 83.3866 143.021 83.6625H142.158C142.123 83.478 142.04 83.3243 141.909 83.2013C141.779 83.0766 141.605 83.0143 141.387 83.0143C141.203 83.0143 141.041 83.0641 140.901 83.1639C140.762 83.2619 140.653 83.4032 140.575 83.5877C140.498 83.7723 140.46 83.9933 140.46 84.251C140.46 84.512 140.498 84.7364 140.575 84.9242C140.651 85.1104 140.758 85.2542 140.896 85.3556C141.036 85.4553 141.2 85.5052 141.387 85.5052C141.52 85.5052 141.639 85.4803 141.744 85.4304C141.85 85.3789 141.939 85.3049 142.011 85.2085C142.082 85.1121 142.131 84.9949 142.158 84.8569H143.021C142.999 85.1279 142.919 85.3681 142.781 85.5775C142.643 85.7853 142.455 85.9482 142.218 86.0662C141.98 86.1826 141.701 86.2408 141.38 86.2408ZM145.457 86.2408C145.073 86.2408 144.742 86.161 144.462 86.0014C144.185 85.8401 143.971 85.6124 143.822 85.3182C143.672 85.0223 143.597 84.674 143.597 84.2734C143.597 83.8795 143.672 83.5337 143.822 83.2362C143.973 82.937 144.184 82.7042 144.455 82.538C144.726 82.3701 145.044 82.2862 145.41 82.2862C145.646 82.2862 145.869 82.3244 146.078 82.4009C146.289 82.4757 146.475 82.592 146.637 82.7499C146.8 82.9079 146.928 83.109 147.021 83.3534C147.114 83.5961 147.16 83.8853 147.16 84.2211V84.4978H144.021V83.8894H146.295C146.293 83.7166 146.256 83.5628 146.183 83.4282C146.11 83.2919 146.008 83.1846 145.876 83.1065C145.747 83.0284 145.595 82.9893 145.422 82.9893C145.238 82.9893 145.076 83.0342 144.936 83.124C144.797 83.2121 144.688 83.3284 144.61 83.473C144.533 83.616 144.494 83.7731 144.492 83.9443V84.4754C144.492 84.6982 144.533 84.8893 144.615 85.0489C144.696 85.2068 144.81 85.3282 144.956 85.4129C145.102 85.4961 145.274 85.5376 145.47 85.5376C145.601 85.5376 145.72 85.5193 145.826 85.4828C145.933 85.4445 146.025 85.3888 146.103 85.3157C146.181 85.2426 146.24 85.152 146.28 85.0439L147.123 85.1387C147.07 85.3614 146.968 85.5559 146.819 85.7221C146.671 85.8867 146.481 86.0147 146.25 86.1061C146.019 86.1959 145.755 86.2408 145.457 86.2408ZM148.827 81.0594V86.166H147.924V81.0594H148.827Z" fill="#233D48"/>
<path d="M161.541 78.1475C161.541 75.9316 163.337 74.1352 165.553 74.1352H200.578C202.794 74.1352 204.59 75.9316 204.59 78.1475V90.1844C204.59 92.4003 202.794 94.1967 200.578 94.1967H165.553C163.337 94.1967 161.541 92.4003 161.541 90.1844V78.1475Z" fill="#388523"/>
<path d="M161.541 78.1475C161.541 75.9316 163.337 74.1352 165.553 74.1352H200.578C202.794 74.1352 204.59 75.9316 204.59 78.1475V90.1844C204.59 92.4003 202.794 94.1967 200.578 94.1967H165.553C163.337 94.1967 161.541 92.4003 161.541 90.1844V78.1475Z" stroke="#388523"/>
<path d="M170.363 86.166V81.0594H172.278C172.67 81.0594 172.999 81.1325 173.265 81.2788C173.533 81.4251 173.735 81.6262 173.871 81.8822C174.009 82.1366 174.078 82.4258 174.078 82.7499C174.078 83.0774 174.009 83.3683 173.871 83.6226C173.733 83.877 173.529 84.0773 173.26 84.2236C172.991 84.3682 172.659 84.4405 172.265 84.4405H170.996V83.68H172.14C172.37 83.68 172.558 83.6401 172.704 83.5603C172.85 83.4805 172.958 83.3708 173.028 83.2312C173.1 83.0915 173.135 82.9311 173.135 82.7499C173.135 82.5688 173.1 82.4092 173.028 82.2712C172.958 82.1332 172.849 82.026 172.701 81.9496C172.555 81.8714 172.367 81.8324 172.135 81.8324H171.288V86.166H170.363ZM174.841 86.166V82.336H175.717V82.9744H175.757C175.826 82.7533 175.946 82.5829 176.116 82.4632C176.287 82.3419 176.482 82.2812 176.702 82.2812C176.751 82.2812 176.807 82.2837 176.869 82.2887C176.932 82.292 176.984 82.2978 177.026 82.3061V83.1364C176.987 83.1231 176.927 83.1115 176.844 83.1015C176.762 83.0899 176.683 83.0841 176.607 83.0841C176.442 83.0841 176.294 83.1198 176.163 83.1913C176.033 83.2611 175.931 83.3583 175.856 83.483C175.781 83.6077 175.744 83.7515 175.744 83.9144V86.166H174.841ZM177.625 86.166V82.336H178.528V86.166H177.625ZM178.079 81.7925C177.936 81.7925 177.813 81.7451 177.71 81.6503C177.607 81.5539 177.556 81.4384 177.556 81.3038C177.556 81.1674 177.607 81.0519 177.71 80.9572C177.813 80.8608 177.936 80.8125 178.079 80.8125C178.224 80.8125 178.347 80.8608 178.448 80.9572C178.551 81.0519 178.603 81.1674 178.603 81.3038C178.603 81.4384 178.551 81.5539 178.448 81.6503C178.347 81.7451 178.224 81.7925 178.079 81.7925ZM179.456 86.166V82.336H180.319V82.9868H180.364C180.444 82.7674 180.576 82.5962 180.76 82.4732C180.945 82.3485 181.165 82.2862 181.421 82.2862C181.68 82.2862 181.899 82.3493 182.077 82.4757C182.256 82.6003 182.383 82.7707 182.456 82.9868H182.496C182.58 82.774 182.723 82.6045 182.925 82.4782C183.127 82.3502 183.368 82.2862 183.645 82.2862C183.998 82.2862 184.285 82.3975 184.508 82.6203C184.731 82.843 184.842 83.168 184.842 83.5952V86.166H183.937V83.7349C183.937 83.4971 183.874 83.3234 183.747 83.2137C183.621 83.1024 183.466 83.0467 183.284 83.0467C183.066 83.0467 182.895 83.1148 182.772 83.2511C182.651 83.3858 182.59 83.5611 182.59 83.7772V86.166H181.705V83.6975C181.705 83.4996 181.645 83.3417 181.526 83.2237C181.408 83.1057 181.253 83.0467 181.062 83.0467C180.932 83.0467 180.814 83.0799 180.708 83.1464C180.601 83.2112 180.517 83.3035 180.454 83.4232C180.39 83.5412 180.359 83.6792 180.359 83.8371V86.166H179.456ZM186.86 86.2433C186.617 86.2433 186.399 86.2 186.204 86.1136C186.011 86.0255 185.858 85.8958 185.745 85.7246C185.634 85.5534 185.578 85.3423 185.578 85.0913C185.578 84.8752 185.618 84.6965 185.698 84.5552C185.778 84.4139 185.887 84.3009 186.025 84.2161C186.162 84.1313 186.318 84.0673 186.491 84.0241C186.665 83.9792 186.846 83.9468 187.032 83.9268C187.256 83.9036 187.438 83.8828 187.578 83.8645C187.718 83.8446 187.819 83.8146 187.882 83.7747C187.947 83.7332 187.979 83.6692 187.979 83.5828V83.5678C187.979 83.38 187.924 83.2345 187.812 83.1314C187.701 83.0284 187.541 82.9768 187.331 82.9768C187.11 82.9768 186.935 83.0251 186.805 83.1215C186.677 83.2179 186.591 83.3317 186.546 83.4631L185.703 83.3434C185.769 83.1107 185.879 82.9162 186.032 82.7599C186.185 82.602 186.372 82.484 186.593 82.4059C186.814 82.3261 187.058 82.2862 187.326 82.2862C187.511 82.2862 187.694 82.3078 187.877 82.351C188.06 82.3942 188.227 82.4657 188.378 82.5654C188.53 82.6635 188.651 82.7973 188.742 82.9669C188.835 83.1364 188.882 83.3484 188.882 83.6027V86.166H188.014V85.6398H187.984C187.93 85.7462 187.852 85.846 187.752 85.9391C187.654 86.0305 187.531 86.1044 187.381 86.161C187.233 86.2158 187.059 86.2433 186.86 86.2433ZM187.094 85.58C187.275 85.58 187.432 85.5443 187.565 85.4728C187.698 85.3996 187.801 85.3032 187.872 85.1835C187.945 85.0639 187.982 84.9334 187.982 84.7921V84.3408C187.954 84.364 187.905 84.3856 187.837 84.4056C187.771 84.4255 187.696 84.443 187.613 84.458C187.53 84.4729 187.447 84.4862 187.366 84.4978C187.285 84.5095 187.214 84.5195 187.154 84.5278C187.019 84.5461 186.899 84.576 186.792 84.6175C186.686 84.6591 186.602 84.7173 186.541 84.7921C186.479 84.8652 186.448 84.96 186.448 85.0763C186.448 85.2426 186.509 85.3681 186.63 85.4528C186.752 85.5376 186.906 85.58 187.094 85.58ZM189.79 86.166V82.336H190.665V82.9744H190.705C190.775 82.7533 190.894 82.5829 191.064 82.4632C191.235 82.3419 191.43 82.2812 191.65 82.2812C191.7 82.2812 191.755 82.2837 191.817 82.2887C191.88 82.292 191.932 82.2978 191.974 82.3061V83.1364C191.936 83.1231 191.875 83.1115 191.792 83.1015C191.71 83.0899 191.631 83.0841 191.555 83.0841C191.39 83.0841 191.242 83.1198 191.111 83.1913C190.981 83.2611 190.879 83.3583 190.804 83.483C190.73 83.6077 190.692 83.7515 190.692 83.9144V86.166H189.79ZM193.251 87.6022C193.128 87.6022 193.014 87.5922 192.91 87.5723C192.806 87.554 192.724 87.5324 192.663 87.5074L192.872 86.8043C193.003 86.8425 193.121 86.8608 193.224 86.8591C193.327 86.8575 193.417 86.8251 193.495 86.7619C193.575 86.7004 193.643 86.5973 193.697 86.4527L193.775 86.2457L192.386 82.336H193.343L194.226 85.2284H194.266L195.151 82.336H196.111L194.578 86.6297C194.506 86.8325 194.411 87.0062 194.293 87.1509C194.175 87.2971 194.031 87.4085 193.86 87.485C193.69 87.5631 193.487 87.6022 193.251 87.6022Z" fill="white"/>
</g>
<path d="M208.602 13.7492H16.0123C13.6579 13.7492 11.7492 15.6579 11.7492 18.0123V98.209C11.7492 100.563 13.6579 102.472 16.0123 102.472H208.602C210.957 102.472 212.866 100.563 212.866 98.209V18.0123C212.866 15.6579 210.957 13.7492 208.602 13.7492Z" stroke="#DADFE2" stroke-width="0.501537"/>
</g>
<defs>
<filter id="filter0_dd_4_5800" x="5.4796" y="9.48618" width="213.655" height="101.261" filterUnits="userSpaceOnUse" color-interpolation-filters="sRGB">
<feFlood flood-opacity="0" result="BackgroundImageFix"/>
<feColorMatrix in="SourceAlpha" type="matrix" values="0 0 0 0 0 0 0 0 0 0 0 0 0 0 0 0 0 0 127 0" result="hardAlpha"/>
<feOffset dy="2.00615"/>
<feGaussianBlur stdDeviation="3.00922"/>
<feColorMatrix type="matrix" values="0 0 0 0 0 0 0 0 0 0 0 0 0 0 0 0 0 0 0.05 0"/>
<feBlend mode="normal" in2="BackgroundImageFix" result="effect1_dropShadow_4_5800"/>
<feColorMatrix in="SourceAlpha" type="matrix" values="0 0 0 0 0 0 0 0 0 0 0 0 0 0 0 0 0 0 127 0" result="hardAlpha"/>
<feOffset dy="0.501537"/>
<feGaussianBlur stdDeviation="1.00307"/>
<feColorMatrix type="matrix" values="0 0 0 0 0 0 0 0 0 0 0 0 0 0 0 0 0 0 0.1 0"/>
<feBlend mode="normal" in2="effect1_dropShadow_4_5800" result="effect2_dropShadow_4_5800"/>
<feBlend mode="normal" in="SourceGraphic" in2="effect2_dropShadow_4_5800" result="shape"/>
</filter>
<linearGradient id="paint0_linear_4_5800" x1="171.556" y1="48.0553" x2="20.0244" y2="48.0553" gradientUnits="userSpaceOnUse">
<stop stop-color="white" stop-opacity="0"/>
<stop offset="0.299948" stop-color="white" stop-opacity="0.8"/>
<stop offset="1" stop-color="white" stop-opacity="0"/>
</linearGradient>
<linearGradient id="paint1_linear_4_5800" x1="55.1997" y1="48.0553" x2="-96.332" y2="48.0553" gradientUnits="userSpaceOnUse">
<stop stop-color="white" stop-opacity="0"/>
<stop offset="0.299948" stop-color="white" stop-opacity="0.8"/>
<stop offset="1" stop-color="white" stop-opacity="0"/>
</linearGradient>
<linearGradient id="paint2_linear_4_5800" x1="204.67" y1="56.0799" x2="20.0244" y2="56.0799" gradientUnits="userSpaceOnUse">
<stop stop-color="white" stop-opacity="0"/>
<stop offset="0.299948" stop-color="white" stop-opacity="0.8"/>
<stop offset="1" stop-color="white" stop-opacity="0"/>
</linearGradient>
<linearGradient id="paint3_linear_4_5800" x1="88.3135" y1="56.0799" x2="-96.332" y2="56.0799" gradientUnits="userSpaceOnUse">
<stop stop-color="white" stop-opacity="0"/>
<stop offset="0.299948" stop-color="white" stop-opacity="0.8"/>
<stop offset="1" stop-color="white" stop-opacity="0"/>
</linearGradient>
<linearGradient id="paint4_linear_4_5800" x1="159.51" y1="64.1045" x2="20.0244" y2="64.1045" gradientUnits="userSpaceOnUse">
<stop stop-color="white" stop-opacity="0"/>
<stop offset="0.299948" stop-color="white" stop-opacity="0.8"/>
<stop offset="1" stop-color="white" stop-opacity="0"/>
</linearGradient>
<linearGradient id="paint5_linear_4_5800" x1="43.1536" y1="64.1045" x2="-96.332" y2="64.1045" gradientUnits="userSpaceOnUse">
<stop stop-color="white" stop-opacity="0"/>
<stop offset="0.299948" stop-color="white" stop-opacity="0.8"/>
<stop offset="1" stop-color="white" stop-opacity="0"/>
</linearGradient>
<clipPath id="clip0_4_5800">
<path d="M12 18.0123C12 15.7964 13.7964 14 16.0123 14H208.602C210.818 14 212.615 15.7964 212.615 18.0123V98.209C212.615 100.425 210.818 102.221 208.602 102.221H16.0123C13.7964 102.221 12 100.425 12 98.209V18.0123Z" fill="white"/>
</clipPath>
<clipPath id="clip1_4_5800">
<path d="M20.0244 48.0553C20.0244 46.9474 20.9226 46.0492 22.0306 46.0492H170.065C171.173 46.0492 172.071 46.9474 172.071 48.0553V48.0553C172.071 49.1633 171.173 50.0615 170.065 50.0615H22.0306C20.9226 50.0615 20.0244 49.1633 20.0244 48.0553V48.0553Z" fill="white"/>
</clipPath>
<clipPath id="clip2_4_5800">
<path d="M20.0244 56.0799C20.0244 54.972 20.9226 54.0738 22.0306 54.0738H202.584C203.692 54.0738 204.59 54.972 204.59 56.0799V56.0799C204.59 57.1879 203.692 58.0861 202.584 58.0861H22.0306C20.9226 58.0861 20.0244 57.1879 20.0244 56.0799V56.0799Z" fill="white"/>
</clipPath>
<clipPath id="clip3_4_5800">
<path d="M20.0244 64.1045C20.0244 62.9966 20.9226 62.0984 22.0306 62.0984H156.882C157.99 62.0984 158.888 62.9966 158.888 64.1045V64.1045C158.888 65.2125 157.99 66.1107 156.882 66.1107H22.0306C20.9226 66.1107 20.0244 65.2125 20.0244 64.1045V64.1045Z" fill="white"/>
</clipPath>
</defs>
</svg>
