<svg width="292" height="140" viewBox="0 0 292 140" fill="none" xmlns="http://www.w3.org/2000/svg">
<g filter="url(#filter0_dd_2_5241)">
<g clip-path="url(#clip0_2_5241)">
<path d="M9 12.48C9 9.45349 11.4535 7 14.48 7H277.52C280.547 7 283 9.45348 283 12.48V122.16C283 125.187 280.547 127.64 277.52 127.64H14.48C11.4535 127.64 9 125.187 9 122.16V12.48Z" fill="white"/>
<path d="M20.9991 23.0036H24.1167L27.4093 31.0368H27.5495L30.8421 23.0036H33.9596V34.96H31.5077V27.1778H31.4084L28.3142 34.9016H26.6445L23.5504 27.1487H23.4511V34.96H20.9991V23.0036ZM40.0473 35.1351C39.1404 35.1351 38.3562 34.9425 37.6946 34.5572C37.0368 34.168 36.5289 33.627 36.1708 32.9342C35.8127 32.2375 35.6337 31.4299 35.6337 30.5114C35.6337 29.5851 35.8127 28.7755 36.1708 28.0827C36.5289 27.3861 37.0368 26.8451 37.6946 26.4598C38.3562 26.0706 39.1404 25.876 40.0473 25.876C40.9541 25.876 41.7364 26.0706 42.3942 26.4598C43.0558 26.8451 43.5657 27.3861 43.9238 28.0827C44.2818 28.7755 44.4609 29.5851 44.4609 30.5114C44.4609 31.4299 44.2818 32.2375 43.9238 32.9342C43.5657 33.627 43.0558 34.168 42.3942 34.5572C41.7364 34.9425 40.9541 35.1351 40.0473 35.1351ZM40.059 33.2086C40.4715 33.2086 40.816 33.0918 41.0923 32.8583C41.3686 32.6209 41.5769 32.2978 41.717 31.8892C41.861 31.4805 41.933 31.0154 41.933 30.4939C41.933 29.9723 41.861 29.5072 41.717 29.0986C41.5769 28.6899 41.3686 28.3669 41.0923 28.1295C40.816 27.892 40.4715 27.7733 40.059 27.7733C39.6425 27.7733 39.2922 27.892 39.0081 28.1295C38.7279 28.3669 38.5158 28.6899 38.3718 29.0986C38.2317 29.5072 38.1616 29.9723 38.1616 30.4939C38.1616 31.0154 38.2317 31.4805 38.3718 31.8892C38.5158 32.2978 38.7279 32.6209 39.0081 32.8583C39.2922 33.0918 39.6425 33.2086 40.059 33.2086ZM49.3824 35.1059C48.7013 35.1059 48.0844 34.9308 47.5317 34.5805C46.9829 34.2263 46.547 33.7068 46.224 33.0218C45.9048 32.3329 45.7453 31.4883 45.7453 30.488C45.7453 29.4605 45.9107 28.6062 46.2415 27.9251C46.5723 27.2401 47.0121 26.7283 47.5609 26.3897C48.1136 26.0472 48.7188 25.876 49.3765 25.876C49.8786 25.876 50.297 25.9616 50.6317 26.1328C50.9703 26.3002 51.2428 26.5104 51.449 26.7633C51.6592 27.0124 51.8188 27.2576 51.9278 27.4989H52.0037V23.0036H54.4848V34.96H52.0329V33.5238H51.9278C51.811 33.7729 51.6456 34.0201 51.4315 34.2653C51.2214 34.5066 50.947 34.707 50.6084 34.8666C50.2736 35.0262 49.865 35.1059 49.3824 35.1059ZM50.1705 33.1268C50.5714 33.1268 50.91 33.0179 51.1863 32.7999C51.4666 32.5781 51.6806 32.2686 51.8285 31.8717C51.9803 31.4747 52.0562 31.0096 52.0562 30.4764C52.0562 29.9431 51.9823 29.48 51.8344 29.0869C51.6865 28.6938 51.4724 28.3902 51.1922 28.1762C50.9119 27.9621 50.5714 27.8551 50.1705 27.8551C49.7618 27.8551 49.4174 27.966 49.1372 28.1878C48.8569 28.4097 48.6448 28.7172 48.5008 29.1102C48.3568 29.5033 48.2848 29.9587 48.2848 30.4764C48.2848 30.9979 48.3568 31.4591 48.5008 31.86C48.6487 32.257 48.8608 32.5683 49.1372 32.7941C49.4174 33.0159 49.7618 33.1268 50.1705 33.1268ZM59.0867 35.1293C58.5146 35.1293 58.0047 35.03 57.5571 34.8316C57.1095 34.6292 56.7554 34.3314 56.4946 33.9383C56.2377 33.5413 56.1093 33.0471 56.1093 32.4555C56.1093 31.9573 56.2007 31.5389 56.3837 31.2003C56.5666 30.8617 56.8157 30.5892 57.1309 30.3829C57.4462 30.1767 57.8043 30.021 58.2051 29.9159C58.6099 29.8108 59.0342 29.7369 59.4778 29.6941C59.9994 29.6396 60.4197 29.589 60.7389 29.5423C61.058 29.4917 61.2896 29.4177 61.4336 29.3204C61.5776 29.2231 61.6496 29.0791 61.6496 28.8884V28.8534C61.6496 28.4836 61.5328 28.1976 61.2993 27.9952C61.0697 27.7928 60.7428 27.6916 60.3185 27.6916C59.8709 27.6916 59.5148 27.7908 59.2502 27.9893C58.9855 28.1839 58.8104 28.4291 58.7247 28.7249L56.4245 28.5381C56.5413 27.9932 56.7709 27.5223 57.1134 27.1253C57.4559 26.7244 57.8977 26.417 58.4387 26.2029C58.9836 25.9849 59.6141 25.876 60.3302 25.876C60.8284 25.876 61.3052 25.9343 61.7605 26.0511C62.2198 26.1679 62.6265 26.3488 62.9807 26.594C63.3388 26.8392 63.6209 27.1545 63.8272 27.5398C64.0335 27.9212 64.1366 28.3785 64.1366 28.9118V34.96H61.778V33.7165H61.708C61.564 33.9967 61.3713 34.2439 61.13 34.4579C60.8887 34.6681 60.5988 34.8335 60.2601 34.9542C59.9215 35.0709 59.5304 35.1293 59.0867 35.1293ZM59.7989 33.4129C60.1648 33.4129 60.4878 33.3409 60.7681 33.1969C61.0483 33.049 61.2682 32.8505 61.4278 32.6014C61.5873 32.3523 61.6671 32.0701 61.6671 31.7549V30.8033C61.5893 30.8539 61.4822 30.9006 61.346 30.9434C61.2137 30.9823 61.0639 31.0193 60.8965 31.0543C60.7291 31.0855 60.5618 31.1147 60.3944 31.1419C60.2271 31.1652 60.0753 31.1867 59.9391 31.2061C59.6471 31.2489 59.3922 31.317 59.1743 31.4104C58.9563 31.5039 58.787 31.6303 58.6664 31.7899C58.5457 31.9456 58.4854 32.1402 58.4854 32.3737C58.4854 32.7123 58.608 32.9712 58.8532 33.1502C59.1023 33.3253 59.4175 33.4129 59.7989 33.4129ZM68.5531 23.0036V34.96H66.0661V23.0036H68.5531ZM79.12 25.9927V27.8609H73.7198V25.9927H79.12ZM74.9458 23.8443H77.4328V32.2044C77.4328 32.4341 77.4679 32.6131 77.5379 32.7415C77.608 32.8661 77.7053 32.9536 77.8298 33.0042C77.9583 33.0548 78.1061 33.0801 78.2735 33.0801C78.3903 33.0801 78.507 33.0704 78.6238 33.0509C78.7406 33.0276 78.8301 33.0101 78.8923 32.9984L79.2835 34.8491C79.1589 34.888 78.9838 34.9327 78.7581 34.9833C78.5323 35.0378 78.2579 35.0709 77.9349 35.0826C77.3355 35.1059 76.8101 35.0262 76.3586 34.8432C75.911 34.6603 75.5627 34.3762 75.3136 33.9909C75.0645 33.6056 74.9419 33.1191 74.9458 32.5314V23.8443ZM80.7401 34.96V25.9927H83.2271V34.96H80.7401ZM81.9894 24.8368C81.6197 24.8368 81.3025 24.7142 81.0378 24.469C80.7771 24.2199 80.6467 23.9221 80.6467 23.5758C80.6467 23.2333 80.7771 22.9394 81.0378 22.6942C81.3025 22.4451 81.6197 22.3206 81.9894 22.3206C82.3592 22.3206 82.6744 22.4451 82.9352 22.6942C83.1999 22.9394 83.3322 23.2333 83.3322 23.5758C83.3322 23.9221 83.1999 24.2199 82.9352 24.469C82.6744 24.7142 82.3592 24.8368 81.9894 24.8368ZM89.989 25.9927V27.8609H84.5888V25.9927H89.989ZM85.8148 23.8443H88.3018V32.2044C88.3018 32.4341 88.3369 32.6131 88.4069 32.7415C88.477 32.8661 88.5743 32.9536 88.6988 33.0042C88.8273 33.0548 88.9752 33.0801 89.1425 33.0801C89.2593 33.0801 89.3761 33.0704 89.4928 33.0509C89.6096 33.0276 89.6991 33.0101 89.7614 32.9984L90.1525 34.8491C90.028 34.888 89.8528 34.9327 89.6271 34.9833C89.4014 35.0378 89.127 35.0709 88.8039 35.0826C88.2045 35.1059 87.6791 35.0262 87.2276 34.8432C86.7801 34.6603 86.4317 34.3762 86.1826 33.9909C85.9335 33.6056 85.8109 33.1191 85.8148 32.5314V23.8443ZM94.2888 23.0036V34.96H91.8018V23.0036H94.2888ZM100.368 35.1351C99.4453 35.1351 98.6513 34.9483 97.9857 34.5747C97.3241 34.1972 96.8142 33.6639 96.4562 32.975C96.0981 32.2823 95.9191 31.463 95.9191 30.5172C95.9191 29.5948 96.0981 28.7853 96.4562 28.0886C96.8142 27.3919 97.3183 26.849 97.9682 26.4598C98.6221 26.0706 99.3888 25.876 100.268 25.876C100.86 25.876 101.411 25.9713 101.921 26.162C102.434 26.3488 102.882 26.631 103.263 27.0085C103.649 27.3861 103.948 27.8609 104.162 28.433C104.376 29.0013 104.484 29.6668 104.484 30.4297V31.1127H96.9115V29.5715H102.142C102.142 29.2134 102.065 28.8962 101.909 28.6198C101.753 28.3435 101.537 28.1275 101.261 27.9718C100.988 27.8122 100.671 27.7325 100.309 27.7325C99.9318 27.7325 99.5971 27.82 99.3052 27.9952C99.0171 28.1664 98.7914 28.398 98.6279 28.6899C98.4645 28.9779 98.3808 29.299 98.3769 29.6532V31.1185C98.3769 31.5622 98.4586 31.9456 98.6221 32.2686C98.7895 32.5917 99.0249 32.8408 99.3285 33.0159C99.6321 33.1911 99.9921 33.2786 100.409 33.2786C100.685 33.2786 100.938 33.2397 101.167 33.1619C101.397 33.084 101.594 32.9673 101.757 32.8116C101.921 32.6559 102.045 32.4652 102.131 32.2395L104.431 32.3912C104.314 32.9439 104.075 33.4265 103.713 33.8391C103.355 34.2477 102.892 34.5669 102.323 34.7965C101.759 35.0223 101.107 35.1351 100.368 35.1351Z" fill="#032B3A"/>
<path d="M263.821 25.2113L260.195 21.5856C260.066 21.4609 259.893 21.3918 259.713 21.3934C259.534 21.3949 259.362 21.467 259.235 21.594C259.108 21.721 259.036 21.8928 259.034 22.0724C259.033 22.252 259.102 22.425 259.226 22.5542L262.852 26.1799L259.226 29.8056C259.102 29.9348 259.033 30.1079 259.034 30.2875C259.036 30.4671 259.108 30.6389 259.235 30.7659C259.362 30.8929 259.534 30.9649 259.713 30.9665C259.893 30.9681 260.066 30.899 260.195 30.7742L263.821 27.1485L267.446 30.7742C267.576 30.899 267.749 30.9681 267.928 30.9665C268.108 30.9649 268.28 30.8929 268.407 30.7659C268.534 30.6389 268.606 30.4671 268.607 30.2875C268.609 30.1079 268.54 29.9348 268.415 29.8056L264.789 26.1799L268.415 22.5542C268.48 22.491 268.533 22.4155 268.569 22.3319C268.604 22.2483 268.623 22.1584 268.624 22.0675C268.625 21.9765 268.608 21.8863 268.573 21.8021C268.539 21.718 268.488 21.6415 268.424 21.5772C268.359 21.5128 268.283 21.462 268.199 21.4275C268.114 21.3931 268.024 21.3758 267.933 21.3766C267.842 21.3773 267.752 21.3962 267.669 21.4321C267.585 21.468 267.51 21.5202 267.446 21.5856L263.821 25.2113Z" fill="#233D48"/>
<g clip-path="url(#clip1_2_5241)">
<path d="M19.96 53.66C19.96 52.1467 21.1867 50.92 22.7 50.92H224.886C226.399 50.92 227.626 52.1467 227.626 53.66V53.66C227.626 55.1732 226.399 56.4 224.886 56.4H22.7C21.1867 56.4 19.96 55.1732 19.96 53.66V53.66Z" fill="black" fill-opacity="0.08"/>
<rect x="19.96" y="50.92" width="208.01" height="5.48" fill="url(#paint0_linear_2_5241)"/>
<rect x="-138.96" y="50.92" width="208.01" height="5.48" fill="url(#paint1_linear_2_5241)"/>
</g>
<g clip-path="url(#clip2_2_5241)">
<path d="M19.96 64.62C19.96 63.1067 21.1867 61.88 22.7 61.88H269.3C270.813 61.88 272.04 63.1067 272.04 64.62V64.62C272.04 66.1332 270.813 67.36 269.3 67.36H22.7C21.1867 67.36 19.96 66.1332 19.96 64.62V64.62Z" fill="black" fill-opacity="0.08"/>
<rect x="19.96" y="61.88" width="251.7" height="5.48" fill="url(#paint2_linear_2_5241)"/>
<rect x="-138.96" y="61.88" width="251.7" height="5.48" fill="url(#paint3_linear_2_5241)"/>
</g>
<g clip-path="url(#clip3_2_5241)">
<path d="M19.96 75.58C19.96 74.0667 21.1867 72.84 22.7 72.84H206.88C208.393 72.84 209.62 74.0667 209.62 75.58V75.58C209.62 77.0933 208.393 78.32 206.88 78.32H22.7C21.1867 78.32 19.96 77.0933 19.96 75.58V75.58Z" fill="black" fill-opacity="0.08"/>
<rect x="19.96" y="72.84" width="190.46" height="5.48" fill="url(#paint4_linear_2_5241)"/>
<rect x="-138.96" y="72.84" width="190.46" height="5.48" fill="url(#paint5_linear_2_5241)"/>
</g>
<path d="M25.44 89.6225H67.4C70.2373 89.6225 72.5375 91.9226 72.5375 94.76V111.2C72.5375 114.037 70.2373 116.337 67.4 116.337H25.44C22.6026 116.337 20.3025 114.037 20.3025 111.2V94.76C20.3025 91.9226 22.6026 89.6225 25.44 89.6225Z" fill="white"/>
<path d="M25.44 89.6225H67.4C70.2373 89.6225 72.5375 91.9226 72.5375 94.76V111.2C72.5375 114.037 70.2373 116.337 67.4 116.337H25.44C22.6026 116.337 20.3025 114.037 20.3025 111.2V94.76C20.3025 91.9226 22.6026 89.6225 25.44 89.6225Z" stroke="#DADFE2" stroke-width="0.685"/>
<path d="M34.426 105.98H32.0626V99.0055H34.4737C35.1662 99.0055 35.761 99.1451 36.2582 99.4243C36.7577 99.7013 37.1414 100.1 37.4093 100.62C37.6772 101.14 37.8111 101.762 37.8111 102.486C37.8111 103.212 37.6761 103.837 37.4059 104.359C37.138 104.881 36.7509 105.282 36.2446 105.561C35.7406 105.84 35.1344 105.98 34.426 105.98ZM33.326 104.887H34.3647C34.8506 104.887 35.2559 104.798 35.5805 104.621C35.9052 104.442 36.1492 104.175 36.3127 103.821C36.4762 103.464 36.5579 103.019 36.5579 102.486C36.5579 101.952 36.4762 101.51 36.3127 101.158C36.1492 100.804 35.9074 100.539 35.5873 100.364C35.2695 100.187 34.8744 100.099 34.4022 100.099H33.326V104.887ZM41.2729 106.082C40.7484 106.082 40.2955 105.973 39.9141 105.755C39.5349 105.535 39.2432 105.224 39.0388 104.822C38.8345 104.418 38.7323 103.942 38.7323 103.395C38.7323 102.857 38.8345 102.385 39.0388 101.979C39.2454 101.57 39.5338 101.252 39.9038 101.025C40.2739 100.796 40.7087 100.681 41.2082 100.681C41.5306 100.681 41.8348 100.733 42.1209 100.838C42.4092 100.94 42.6635 101.099 42.8837 101.314C43.1062 101.53 43.281 101.805 43.4081 102.139C43.5353 102.47 43.5989 102.865 43.5989 103.324V103.702H39.3113V102.871H42.4171C42.4149 102.635 42.3638 102.425 42.2639 102.241C42.164 102.055 42.0244 101.908 41.845 101.801C41.6679 101.695 41.4613 101.641 41.2252 101.641C40.9732 101.641 40.7518 101.703 40.5611 101.825C40.3704 101.946 40.2217 102.105 40.115 102.302C40.0106 102.497 39.9572 102.712 39.9549 102.946V103.671C39.9549 103.975 40.0106 104.236 40.1218 104.454C40.233 104.67 40.3886 104.836 40.5884 104.952C40.7882 105.065 41.022 105.122 41.2899 105.122C41.4693 105.122 41.6316 105.097 41.7769 105.047C41.9222 104.995 42.0482 104.919 42.1549 104.819C42.2616 104.719 42.3422 104.595 42.3967 104.448L43.5478 104.577C43.4751 104.881 43.3366 105.147 43.1323 105.374C42.9302 105.599 42.6714 105.773 42.3558 105.898C42.0403 106.021 41.6793 106.082 41.2729 106.082ZM45.8746 99.0055V105.98H44.6418V99.0055H45.8746ZM49.4581 106.082C48.9336 106.082 48.4807 105.973 48.0993 105.755C47.7201 105.535 47.4284 105.224 47.2241 104.822C47.0197 104.418 46.9176 103.942 46.9176 103.395C46.9176 102.857 47.0197 102.385 47.2241 101.979C47.4307 101.57 47.719 101.252 48.0891 101.025C48.4591 100.796 48.8939 100.681 49.3934 100.681C49.7158 100.681 50.02 100.733 50.3061 100.838C50.5944 100.94 50.8487 101.099 51.0689 101.314C51.2914 101.53 51.4662 101.805 51.5934 102.139C51.7205 102.47 51.7841 102.865 51.7841 103.324V103.702H47.4965V102.871H50.6024C50.6001 102.635 50.549 102.425 50.4491 102.241C50.3492 102.055 50.2096 101.908 50.0302 101.801C49.8531 101.695 49.6465 101.641 49.4104 101.641C49.1584 101.641 48.937 101.703 48.7463 101.825C48.5556 101.946 48.4069 102.105 48.3002 102.302C48.1958 102.497 48.1424 102.712 48.1401 102.946V103.671C48.1401 103.975 48.1958 104.236 48.307 104.454C48.4183 104.67 48.5738 104.836 48.7736 104.952C48.9734 105.065 49.2072 105.122 49.4751 105.122C49.6545 105.122 49.8168 105.097 49.9621 105.047C50.1074 104.995 50.2334 104.919 50.3401 104.819C50.4468 104.719 50.5274 104.595 50.5819 104.448L51.733 104.577C51.6603 104.881 51.5218 105.147 51.3175 105.374C51.1155 105.599 50.8566 105.773 50.5411 105.898C50.2255 106.021 49.8645 106.082 49.4581 106.082ZM55.4391 100.749V101.703H52.432V100.749H55.4391ZM53.1744 99.4959H54.4072V104.407C54.4072 104.572 54.4322 104.7 54.4821 104.788C54.5343 104.874 54.6024 104.933 54.6864 104.965C54.7704 104.997 54.8635 105.013 54.9657 105.013C55.0429 105.013 55.1133 105.007 55.1768 104.996C55.2427 104.984 55.2926 104.974 55.3267 104.965L55.5344 105.929C55.4686 105.952 55.3744 105.977 55.2518 106.004C55.1314 106.031 54.9839 106.047 54.809 106.052C54.5003 106.061 54.2222 106.014 53.9747 105.912C53.7272 105.807 53.5308 105.646 53.3855 105.428C53.2425 105.21 53.1721 104.938 53.1744 104.611V99.4959ZM58.7297 106.082C58.2052 106.082 57.7523 105.973 57.3709 105.755C56.9917 105.535 56.7 105.224 56.4956 104.822C56.2913 104.418 56.1891 103.942 56.1891 103.395C56.1891 102.857 56.2913 102.385 56.4956 101.979C56.7022 101.57 56.9906 101.252 57.3606 101.025C57.7307 100.796 58.1655 100.681 58.665 100.681C58.9874 100.681 59.2916 100.733 59.5776 100.838C59.866 100.94 60.1203 101.099 60.3405 101.314C60.563 101.53 60.7378 101.805 60.8649 102.139C60.9921 102.47 61.0557 102.865 61.0557 103.324V103.702H56.7681V102.871H59.8739C59.8717 102.635 59.8206 102.425 59.7207 102.241C59.6208 102.055 59.4812 101.908 59.3018 101.801C59.1247 101.695 58.9181 101.641 58.682 101.641C58.43 101.641 58.2086 101.703 58.0179 101.825C57.8272 101.946 57.6785 102.105 57.5718 102.302C57.4673 102.497 57.414 102.712 57.4117 102.946V103.671C57.4117 103.975 57.4673 104.236 57.5786 104.454C57.6898 104.67 57.8454 104.836 58.0452 104.952C58.2449 105.065 58.4788 105.122 58.7467 105.122C58.9261 105.122 59.0884 105.097 59.2337 105.047C59.379 104.995 59.505 104.919 59.6117 104.819C59.7184 104.719 59.799 104.595 59.8535 104.448L61.0046 104.577C60.9319 104.881 60.7934 105.147 60.5891 105.374C60.387 105.599 60.1282 105.773 59.8126 105.898C59.4971 106.021 59.1361 106.082 58.7297 106.082Z" fill="#D24232"/>
<path d="M158.2 89.6225H202.16C204.997 89.6225 207.297 91.9227 207.297 94.76V111.2C207.297 114.037 204.997 116.338 202.16 116.338H158.2C155.362 116.338 153.062 114.037 153.062 111.2V94.76C153.062 91.9227 155.362 89.6225 158.2 89.6225Z" fill="white"/>
<path d="M158.2 89.6225H202.16C204.997 89.6225 207.297 91.9227 207.297 94.76V111.2C207.297 114.037 204.997 116.338 202.16 116.338H158.2C155.362 116.338 153.062 114.037 153.062 111.2V94.76C153.062 91.9227 155.362 89.6225 158.2 89.6225Z" stroke="#DADFE2" stroke-width="0.685"/>
<path d="M170.739 101.359H169.465C169.429 101.15 169.362 100.965 169.264 100.804C169.166 100.64 169.045 100.502 168.9 100.388C168.754 100.275 168.589 100.189 168.402 100.133C168.219 100.074 168.02 100.044 167.807 100.044C167.427 100.044 167.091 100.14 166.798 100.33C166.506 100.519 166.276 100.796 166.111 101.161C165.945 101.524 165.862 101.968 165.862 102.493C165.862 103.026 165.945 103.476 166.111 103.841C166.279 104.205 166.508 104.479 166.798 104.666C167.091 104.849 167.426 104.941 167.803 104.941C168.012 104.941 168.207 104.914 168.389 104.86C168.573 104.803 168.737 104.72 168.883 104.611C169.03 104.502 169.154 104.368 169.254 104.209C169.356 104.05 169.426 103.869 169.465 103.664L170.739 103.671C170.691 104.003 170.588 104.314 170.429 104.604C170.272 104.895 170.067 105.151 169.812 105.374C169.558 105.594 169.261 105.767 168.92 105.891C168.58 106.014 168.202 106.075 167.786 106.075C167.173 106.075 166.626 105.933 166.145 105.65C165.663 105.366 165.284 104.956 165.007 104.42C164.73 103.884 164.592 103.242 164.592 102.493C164.592 101.741 164.731 101.099 165.011 100.565C165.29 100.029 165.67 99.6196 166.151 99.3358C166.633 99.052 167.178 98.9101 167.786 98.9101C168.174 98.9101 168.535 98.9646 168.869 99.0736C169.203 99.1826 169.5 99.3426 169.761 99.5538C170.022 99.7627 170.237 100.019 170.405 100.323C170.575 100.625 170.686 100.97 170.739 101.359ZM173.346 106.086C173.015 106.086 172.716 106.027 172.451 105.909C172.187 105.788 171.979 105.611 171.824 105.377C171.672 105.143 171.596 104.855 171.596 104.512C171.596 104.217 171.651 103.973 171.759 103.78C171.868 103.587 172.017 103.433 172.206 103.317C172.394 103.201 172.606 103.114 172.842 103.055C173.081 102.993 173.327 102.949 173.581 102.922C173.888 102.89 174.137 102.862 174.327 102.837C174.518 102.809 174.656 102.769 174.743 102.714C174.831 102.657 174.876 102.57 174.876 102.452V102.431C174.876 102.175 174.8 101.976 174.647 101.835C174.495 101.695 174.276 101.624 173.99 101.624C173.688 101.624 173.449 101.69 173.272 101.822C173.097 101.954 172.979 102.109 172.917 102.288L171.766 102.125C171.857 101.807 172.007 101.541 172.216 101.328C172.425 101.112 172.68 100.951 172.982 100.844C173.284 100.736 173.618 100.681 173.983 100.681C174.235 100.681 174.486 100.711 174.736 100.77C174.986 100.829 175.214 100.926 175.42 101.062C175.627 101.196 175.793 101.379 175.918 101.611C176.045 101.842 176.108 102.132 176.108 102.479V105.98H174.923V105.261H174.882C174.807 105.407 174.702 105.543 174.566 105.67C174.432 105.795 174.263 105.896 174.058 105.973C173.856 106.048 173.619 106.086 173.346 106.086ZM173.667 105.18C173.914 105.18 174.129 105.131 174.31 105.033C174.492 104.933 174.631 104.802 174.729 104.638C174.829 104.475 174.879 104.297 174.879 104.104V103.487C174.84 103.519 174.775 103.548 174.681 103.576C174.591 103.603 174.488 103.627 174.375 103.647C174.261 103.668 174.149 103.686 174.038 103.702C173.927 103.718 173.83 103.731 173.748 103.743C173.564 103.768 173.4 103.808 173.255 103.865C173.109 103.922 172.995 104.001 172.911 104.104C172.827 104.203 172.785 104.333 172.785 104.492C172.785 104.719 172.867 104.89 173.033 105.006C173.199 105.122 173.41 105.18 173.667 105.18ZM178.581 102.915V105.98H177.348V100.749H178.526V101.638H178.588C178.708 101.345 178.9 101.112 179.163 100.94C179.429 100.767 179.757 100.681 180.147 100.681C180.508 100.681 180.823 100.758 181.091 100.913C181.361 101.067 181.57 101.291 181.717 101.583C181.867 101.876 181.941 102.232 181.939 102.649V105.98H180.706V102.84C180.706 102.49 180.615 102.217 180.433 102.019C180.254 101.822 180.005 101.723 179.688 101.723C179.472 101.723 179.28 101.771 179.112 101.866C178.946 101.959 178.816 102.094 178.72 102.271C178.627 102.448 178.581 102.663 178.581 102.915ZM185.474 106.082C184.951 106.082 184.503 105.968 184.128 105.738C183.756 105.509 183.469 105.192 183.267 104.788C183.067 104.382 182.967 103.914 182.967 103.385C182.967 102.854 183.069 102.385 183.274 101.979C183.478 101.57 183.766 101.252 184.139 101.025C184.513 100.796 184.956 100.681 185.467 100.681C185.891 100.681 186.267 100.759 186.594 100.916C186.923 101.07 187.185 101.289 187.381 101.573C187.576 101.855 187.687 102.184 187.714 102.561H186.536C186.488 102.309 186.375 102.099 186.196 101.931C186.018 101.761 185.781 101.675 185.484 101.675C185.232 101.675 185.01 101.744 184.82 101.88C184.629 102.014 184.48 102.207 184.374 102.459C184.269 102.711 184.217 103.013 184.217 103.365C184.217 103.721 184.269 104.028 184.374 104.284C184.478 104.538 184.624 104.735 184.813 104.873C185.004 105.009 185.227 105.078 185.484 105.078C185.665 105.078 185.828 105.044 185.971 104.975C186.116 104.905 186.238 104.804 186.335 104.672C186.433 104.541 186.5 104.381 186.536 104.192H187.714C187.685 104.562 187.576 104.89 187.388 105.176C187.199 105.46 186.943 105.683 186.618 105.844C186.293 106.003 185.912 106.082 185.474 106.082ZM191.043 106.082C190.518 106.082 190.065 105.973 189.684 105.755C189.305 105.535 189.013 105.224 188.808 104.822C188.604 104.418 188.502 103.942 188.502 103.395C188.502 102.857 188.604 102.385 188.808 101.979C189.015 101.57 189.303 101.252 189.673 101.025C190.044 100.796 190.478 100.681 190.978 100.681C191.3 100.681 191.604 100.733 191.89 100.838C192.179 100.94 192.433 101.099 192.653 101.314C192.876 101.53 193.051 101.805 193.178 102.139C193.305 102.47 193.368 102.865 193.368 103.324V103.702H189.081V102.871H192.187C192.184 102.635 192.133 102.425 192.034 102.241C191.934 102.055 191.794 101.908 191.615 101.801C191.438 101.695 191.231 101.641 190.995 101.641C190.743 101.641 190.521 101.703 190.331 101.825C190.14 101.946 189.991 102.105 189.885 102.302C189.78 102.497 189.727 102.712 189.725 102.946V103.671C189.725 103.975 189.78 104.236 189.891 104.454C190.003 104.67 190.158 104.836 190.358 104.952C190.558 105.065 190.792 105.122 191.06 105.122C191.239 105.122 191.401 105.097 191.547 105.047C191.692 104.995 191.818 104.919 191.925 104.819C192.031 104.719 192.112 104.595 192.166 104.448L193.317 104.577C193.245 104.881 193.106 105.147 192.902 105.374C192.7 105.599 192.441 105.773 192.125 105.898C191.81 106.021 191.449 106.082 191.043 106.082ZM195.644 99.0055V105.98H194.411V99.0055H195.644Z" fill="#233D48"/>
<path d="M213.12 94.76C213.12 91.7335 215.574 89.28 218.6 89.28H266.56C269.587 89.28 272.04 91.7335 272.04 94.76V111.2C272.04 114.227 269.587 116.68 266.56 116.68H218.6C215.574 116.68 213.12 114.227 213.12 111.2V94.76Z" fill="#388523"/>
<path d="M213.12 94.76C213.12 91.7335 215.574 89.28 218.6 89.28H266.56C269.587 89.28 272.04 91.7335 272.04 94.76V111.2C272.04 114.227 269.587 116.68 266.56 116.68H218.6C215.574 116.68 213.12 114.227 213.12 111.2V94.76Z" stroke="#388523"/>
<path d="M225.231 105.98V99.0055H227.846C228.382 99.0055 228.831 99.1054 229.195 99.3052C229.56 99.505 229.836 99.7797 230.022 100.129C230.211 100.477 230.305 100.872 230.305 101.314C230.305 101.762 230.211 102.159 230.022 102.506C229.834 102.854 229.556 103.127 229.188 103.327C228.82 103.525 228.367 103.623 227.829 103.623H226.096V102.585H227.659C227.972 102.585 228.229 102.53 228.428 102.421C228.628 102.312 228.776 102.162 228.871 101.972C228.969 101.781 229.018 101.562 229.018 101.314C229.018 101.067 228.969 100.849 228.871 100.661C228.776 100.472 228.627 100.326 228.425 100.221C228.225 100.115 227.967 100.061 227.652 100.061H226.494V105.98H225.231ZM231.348 105.98V100.749H232.543V101.621H232.598C232.693 101.319 232.856 101.086 233.088 100.923C233.322 100.757 233.589 100.674 233.888 100.674C233.956 100.674 234.032 100.678 234.116 100.684C234.203 100.689 234.274 100.697 234.331 100.708V101.842C234.279 101.824 234.196 101.808 234.082 101.795C233.971 101.779 233.863 101.771 233.759 101.771C233.534 101.771 233.332 101.82 233.153 101.917C232.976 102.013 232.836 102.145 232.734 102.316C232.632 102.486 232.581 102.682 232.581 102.905V105.98H231.348ZM235.15 105.98V100.749H236.383V105.98H235.15ZM235.77 100.007C235.575 100.007 235.407 99.942 235.266 99.8126C235.125 99.6809 235.055 99.5231 235.055 99.3392C235.055 99.1531 235.125 98.9953 235.266 98.8659C235.407 98.7342 235.575 98.6683 235.77 98.6683C235.967 98.6683 236.135 98.7342 236.274 98.8659C236.415 98.9953 236.485 99.1531 236.485 99.3392C236.485 99.5231 236.415 99.6809 236.274 99.8126C236.135 99.942 235.967 100.007 235.77 100.007ZM237.651 105.98V100.749H238.829V101.638H238.89C238.999 101.338 239.18 101.104 239.432 100.936C239.684 100.766 239.984 100.681 240.334 100.681C240.688 100.681 240.987 100.767 241.23 100.94C241.475 101.11 241.648 101.343 241.747 101.638H241.802C241.918 101.347 242.113 101.116 242.388 100.943C242.665 100.768 242.993 100.681 243.372 100.681C243.853 100.681 244.246 100.833 244.55 101.137C244.854 101.442 245.007 101.885 245.007 102.469V105.98H243.77V102.66C243.77 102.335 243.684 102.098 243.511 101.948C243.339 101.796 243.128 101.72 242.878 101.72C242.581 101.72 242.348 101.813 242.18 101.999C242.014 102.183 241.931 102.422 241.931 102.718V105.98H240.722V102.609C240.722 102.338 240.641 102.123 240.477 101.962C240.316 101.8 240.105 101.72 239.844 101.72C239.667 101.72 239.505 101.765 239.36 101.856C239.215 101.944 239.099 102.07 239.013 102.234C238.927 102.395 238.883 102.584 238.883 102.799V105.98H237.651ZM247.762 106.086C247.431 106.086 247.132 106.027 246.867 105.909C246.603 105.788 246.395 105.611 246.24 105.377C246.088 105.143 246.012 104.855 246.012 104.512C246.012 104.217 246.066 103.973 246.175 103.78C246.284 103.587 246.433 103.433 246.622 103.317C246.81 103.201 247.022 103.114 247.258 103.055C247.497 102.993 247.743 102.949 247.997 102.922C248.304 102.89 248.553 102.862 248.743 102.837C248.934 102.809 249.072 102.769 249.159 102.714C249.247 102.657 249.292 102.57 249.292 102.452V102.431C249.292 102.175 249.215 101.976 249.063 101.835C248.911 101.695 248.692 101.624 248.406 101.624C248.104 101.624 247.865 101.69 247.688 101.822C247.513 101.954 247.395 102.109 247.333 102.288L246.182 102.125C246.273 101.807 246.423 101.541 246.632 101.328C246.841 101.112 247.096 100.951 247.398 100.844C247.7 100.736 248.034 100.681 248.399 100.681C248.651 100.681 248.902 100.711 249.152 100.77C249.402 100.829 249.63 100.926 249.836 101.062C250.043 101.196 250.209 101.379 250.334 101.611C250.461 101.842 250.524 102.132 250.524 102.479V105.98H249.339V105.261H249.298C249.223 105.407 249.118 105.543 248.982 105.67C248.848 105.795 248.679 105.896 248.474 105.973C248.272 106.048 248.035 106.086 247.762 106.086ZM248.083 105.18C248.33 105.18 248.545 105.131 248.726 105.033C248.908 104.933 249.047 104.802 249.145 104.638C249.245 104.475 249.295 104.297 249.295 104.104V103.487C249.256 103.519 249.191 103.548 249.097 103.576C249.007 103.603 248.904 103.627 248.791 103.647C248.677 103.668 248.565 103.686 248.454 103.702C248.343 103.718 248.246 103.731 248.164 103.743C247.98 103.768 247.816 103.808 247.671 103.865C247.525 103.922 247.411 104.001 247.327 104.104C247.243 104.203 247.201 104.333 247.201 104.492C247.201 104.719 247.283 104.89 247.449 105.006C247.615 105.122 247.826 105.18 248.083 105.18ZM251.764 105.98V100.749H252.959V101.621H253.014C253.109 101.319 253.273 101.086 253.504 100.923C253.738 100.757 254.005 100.674 254.305 100.674C254.373 100.674 254.449 100.678 254.533 100.684C254.619 100.689 254.69 100.697 254.747 100.708V101.842C254.695 101.824 254.612 101.808 254.499 101.795C254.387 101.779 254.28 101.771 254.175 101.771C253.95 101.771 253.748 101.82 253.569 101.917C253.392 102.013 253.252 102.145 253.15 102.316C253.048 102.486 252.997 102.682 252.997 102.905V105.98H251.764ZM256.492 107.942C256.324 107.942 256.168 107.928 256.025 107.901C255.884 107.876 255.772 107.846 255.688 107.812L255.974 106.852C256.153 106.904 256.313 106.929 256.454 106.927C256.595 106.925 256.719 106.88 256.825 106.794C256.934 106.71 257.026 106.569 257.101 106.372L257.207 106.089L255.31 100.749H256.618L257.823 104.7H257.878L259.087 100.749H260.398L258.303 106.613C258.206 106.89 258.076 107.128 257.915 107.325C257.754 107.525 257.557 107.677 257.323 107.782C257.091 107.888 256.814 107.942 256.492 107.942Z" fill="white"/>
</g>
<path d="M277.52 6.6575H14.48C11.2643 6.6575 8.6575 9.26433 8.6575 12.48V122.16C8.6575 125.376 11.2643 127.982 14.48 127.982H277.52C280.736 127.982 283.342 125.376 283.342 122.16V12.48C283.342 9.26432 280.736 6.6575 277.52 6.6575Z" stroke="#DADFE2" stroke-width="0.685"/>
</g>
<defs>
<filter id="filter0_dd_2_5241" x="0.0954294" y="0.835002" width="291.809" height="138.45" filterUnits="userSpaceOnUse" color-interpolation-filters="sRGB">
<feFlood flood-opacity="0" result="BackgroundImageFix"/>
<feColorMatrix in="SourceAlpha" type="matrix" values="0 0 0 0 0 0 0 0 0 0 0 0 0 0 0 0 0 0 127 0" result="hardAlpha"/>
<feOffset dy="2.74"/>
<feGaussianBlur stdDeviation="4.11"/>
<feColorMatrix type="matrix" values="0 0 0 0 0 0 0 0 0 0 0 0 0 0 0 0 0 0 0.05 0"/>
<feBlend mode="normal" in2="BackgroundImageFix" result="effect1_dropShadow_2_5241"/>
<feColorMatrix in="SourceAlpha" type="matrix" values="0 0 0 0 0 0 0 0 0 0 0 0 0 0 0 0 0 0 127 0" result="hardAlpha"/>
<feOffset dy="0.685"/>
<feGaussianBlur stdDeviation="1.37"/>
<feColorMatrix type="matrix" values="0 0 0 0 0 0 0 0 0 0 0 0 0 0 0 0 0 0 0.1 0"/>
<feBlend mode="normal" in2="effect1_dropShadow_2_5241" result="effect2_dropShadow_2_5241"/>
<feBlend mode="normal" in="SourceGraphic" in2="effect2_dropShadow_2_5241" result="shape"/>
</filter>
<linearGradient id="paint0_linear_2_5241" x1="227.97" y1="53.66" x2="19.96" y2="53.66" gradientUnits="userSpaceOnUse">
<stop stop-color="white" stop-opacity="0"/>
<stop offset="0.299948" stop-color="white" stop-opacity="0.8"/>
<stop offset="1" stop-color="white" stop-opacity="0"/>
</linearGradient>
<linearGradient id="paint1_linear_2_5241" x1="69.05" y1="53.66" x2="-138.96" y2="53.6599" gradientUnits="userSpaceOnUse">
<stop stop-color="white" stop-opacity="0"/>
<stop offset="0.299948" stop-color="white" stop-opacity="0.8"/>
<stop offset="1" stop-color="white" stop-opacity="0"/>
</linearGradient>
<linearGradient id="paint2_linear_2_5241" x1="271.66" y1="64.62" x2="19.96" y2="64.62" gradientUnits="userSpaceOnUse">
<stop stop-color="white" stop-opacity="0"/>
<stop offset="0.299948" stop-color="white" stop-opacity="0.8"/>
<stop offset="1" stop-color="white" stop-opacity="0"/>
</linearGradient>
<linearGradient id="paint3_linear_2_5241" x1="112.74" y1="64.62" x2="-138.96" y2="64.62" gradientUnits="userSpaceOnUse">
<stop stop-color="white" stop-opacity="0"/>
<stop offset="0.299948" stop-color="white" stop-opacity="0.8"/>
<stop offset="1" stop-color="white" stop-opacity="0"/>
</linearGradient>
<linearGradient id="paint4_linear_2_5241" x1="210.42" y1="75.58" x2="19.96" y2="75.58" gradientUnits="userSpaceOnUse">
<stop stop-color="white" stop-opacity="0"/>
<stop offset="0.299948" stop-color="white" stop-opacity="0.8"/>
<stop offset="1" stop-color="white" stop-opacity="0"/>
</linearGradient>
<linearGradient id="paint5_linear_2_5241" x1="51.5" y1="75.58" x2="-138.96" y2="75.58" gradientUnits="userSpaceOnUse">
<stop stop-color="white" stop-opacity="0"/>
<stop offset="0.299948" stop-color="white" stop-opacity="0.8"/>
<stop offset="1" stop-color="white" stop-opacity="0"/>
</linearGradient>
<clipPath id="clip0_2_5241">
<path d="M9 12.48C9 9.45349 11.4535 7 14.48 7H277.52C280.547 7 283 9.45348 283 12.48V122.16C283 125.187 280.547 127.64 277.52 127.64H14.48C11.4535 127.64 9 125.187 9 122.16V12.48Z" fill="white"/>
</clipPath>
<clipPath id="clip1_2_5241">
<path d="M19.96 53.66C19.96 52.1467 21.1867 50.92 22.7 50.92H224.886C226.399 50.92 227.626 52.1467 227.626 53.66V53.66C227.626 55.1732 226.399 56.4 224.886 56.4H22.7C21.1867 56.4 19.96 55.1732 19.96 53.66V53.66Z" fill="white"/>
</clipPath>
<clipPath id="clip2_2_5241">
<path d="M19.96 64.62C19.96 63.1067 21.1867 61.88 22.7 61.88H269.3C270.813 61.88 272.04 63.1067 272.04 64.62V64.62C272.04 66.1332 270.813 67.36 269.3 67.36H22.7C21.1867 67.36 19.96 66.1332 19.96 64.62V64.62Z" fill="white"/>
</clipPath>
<clipPath id="clip3_2_5241">
<path d="M19.96 75.58C19.96 74.0667 21.1867 72.84 22.7 72.84H206.88C208.393 72.84 209.62 74.0667 209.62 75.58V75.58C209.62 77.0933 208.393 78.32 206.88 78.32H22.7C21.1867 78.32 19.96 77.0933 19.96 75.58V75.58Z" fill="white"/>
</clipPath>
</defs>
</svg>
