<svg width="224" height="117" viewBox="0 0 224 117" fill="none" xmlns="http://www.w3.org/2000/svg">
<g clip-path="url(#clip0_2314_47858)">
<g filter="url(#filter0_dd_2314_47858)">
<path d="M15 15.4463C15 11.8861 17.8861 9 21.4463 9H203.554C207.114 9 210 11.8861 210 15.4463V44.4546C210 48.0147 207.114 50.9008 203.554 50.9008H21.4463C17.8861 50.9008 15 48.0147 15 44.4545V15.4463Z" fill="white"/>
<path d="M21.4463 9.40289H203.554C206.891 9.40289 209.597 12.1086 209.597 15.4463V44.4546C209.597 47.7922 206.891 50.4979 203.554 50.4979H21.4463C18.1086 50.4979 15.4029 47.7922 15.4029 44.4545V15.4463C15.4029 12.1086 18.1086 9.40289 21.4463 9.40289Z" stroke="#DADFE2" stroke-width="0.805785"/>
<path d="M28.8861 26.0766H30.0719L32.8601 32.8869H32.9562L35.7444 26.0766H36.9302V34.281H36.0008V28.0476H35.9207L33.3568 34.281H32.4595L29.8956 28.0476H29.8155V34.281H28.8861V26.0766ZM42.6718 31.7652V28.1277H43.6173V34.281H42.6718V33.2394H42.6077C42.4635 33.5519 42.2392 33.8176 41.9347 34.0366C41.6303 34.253 41.2457 34.3611 40.781 34.3611C40.3964 34.3611 40.0546 34.277 39.7554 34.1087C39.4563 33.9378 39.2213 33.6814 39.0504 33.3396C38.8795 32.9951 38.794 32.5611 38.794 32.0376V28.1277H39.7394V31.9735C39.7394 32.4222 39.8649 32.7801 40.116 33.0471C40.3697 33.3142 40.6929 33.4478 41.0854 33.4478C41.3205 33.4478 41.5595 33.3877 41.8025 33.2675C42.0482 33.1473 42.2539 32.963 42.4195 32.7146C42.5877 32.4663 42.6718 32.1498 42.6718 31.7652ZM46.2943 26.0766V34.281H45.3489V26.0766H46.2943ZM50.7019 28.1277V28.9289H47.5131V28.1277H50.7019ZM48.4425 26.6535H49.388V32.5184C49.388 32.7854 49.4267 32.9857 49.5041 33.1193C49.5843 33.2501 49.6857 33.3383 49.8086 33.3837C49.9341 33.4264 50.0663 33.4478 50.2052 33.4478C50.3093 33.4478 50.3948 33.4424 50.4616 33.4317C50.5283 33.4184 50.5818 33.4077 50.6218 33.3997L50.8141 34.249C50.75 34.273 50.6605 34.297 50.5457 34.3211C50.4309 34.3478 50.2853 34.3611 50.109 34.3611C49.842 34.3611 49.5802 34.3037 49.3239 34.1889C49.0701 34.074 48.8592 33.8991 48.6909 33.6641C48.5253 33.4291 48.4425 33.1326 48.4425 32.7747V26.6535ZM52.1241 34.281V28.1277H53.0695V34.281H52.1241ZM52.6048 27.1022C52.4205 27.1022 52.2616 27.0394 52.1281 26.9139C51.9972 26.7884 51.9318 26.6375 51.9318 26.4612C51.9318 26.285 51.9972 26.1341 52.1281 26.0085C52.2616 25.883 52.4205 25.8203 52.6048 25.8203C52.7891 25.8203 52.9466 25.883 53.0775 26.0085C53.211 26.1341 53.2778 26.285 53.2778 26.4612C53.2778 26.6375 53.211 26.7884 53.0775 26.9139C52.9466 27.0394 52.7891 27.1022 52.6048 27.1022ZM59.4161 28.1277C59.368 27.7218 59.173 27.4067 58.8312 27.1823C58.4893 26.958 58.07 26.8458 57.5733 26.8458C57.2101 26.8458 56.8923 26.9046 56.6198 27.0221C56.3501 27.1396 56.1391 27.3012 55.9869 27.5068C55.8373 27.7124 55.7626 27.9461 55.7626 28.2079C55.7626 28.4269 55.8146 28.6151 55.9188 28.7727C56.0256 28.9276 56.1618 29.0571 56.3274 29.1613C56.493 29.2628 56.6666 29.3469 56.8482 29.4137C57.0298 29.4778 57.1967 29.5298 57.3489 29.5699L58.1822 29.7942C58.3959 29.8503 58.6335 29.9278 58.8953 30.0266C59.1597 30.1254 59.4121 30.2603 59.6524 30.4312C59.8954 30.5995 60.0957 30.8158 60.2533 31.0802C60.4109 31.3446 60.4897 31.6691 60.4897 32.0537C60.4897 32.497 60.3735 32.8976 60.1412 33.2555C59.9115 33.6133 59.575 33.8978 59.1316 34.1087C58.691 34.3197 58.1555 34.4252 57.5252 34.4252C56.9377 34.4252 56.4289 34.3304 55.9989 34.1408C55.5716 33.9512 55.2351 33.6868 54.9894 33.3476C54.7464 33.0084 54.6088 32.6145 54.5768 32.1658H55.6023C55.629 32.4756 55.7332 32.732 55.9148 32.935C56.0991 33.1353 56.3314 33.2848 56.6118 33.3837C56.8949 33.4798 57.1994 33.5279 57.5252 33.5279C57.9044 33.5279 58.245 33.4664 58.5467 33.3436C58.8485 33.2181 59.0876 33.0445 59.2638 32.8228C59.4401 32.5985 59.5282 32.3367 59.5282 32.0376C59.5282 31.7652 59.4521 31.5435 59.2999 31.3726C59.1477 31.2017 58.9474 31.0628 58.699 30.956C58.4506 30.8492 58.1822 30.7557 57.8938 30.6756L56.8842 30.3871C56.2433 30.2029 55.7358 29.9398 55.362 29.598C54.9881 29.2561 54.8011 28.8088 54.8011 28.2559C54.8011 27.7966 54.9253 27.396 55.1737 27.0541C55.4247 26.7096 55.7612 26.4425 56.1832 26.2529C56.6078 26.0606 57.0819 25.9645 57.6053 25.9645C58.1341 25.9645 58.6042 26.0593 59.0155 26.2489C59.4267 26.4359 59.7526 26.6922 59.9929 27.0181C60.236 27.3439 60.3642 27.7138 60.3775 28.1277H59.4161ZM64.5748 34.4092C63.9819 34.4092 63.4705 34.2783 63.0405 34.0166C62.6132 33.7522 62.2834 33.3837 62.051 32.9109C61.8213 32.4356 61.7065 31.8827 61.7065 31.2524C61.7065 30.6222 61.8213 30.0667 62.051 29.5859C62.2834 29.1025 62.6065 28.726 63.0205 28.4562C63.4371 28.1838 63.9232 28.0476 64.4787 28.0476C64.7992 28.0476 65.1156 28.101 65.4281 28.2079C65.7406 28.3147 66.025 28.4883 66.2814 28.7286C66.5378 28.9663 66.7421 29.2815 66.8943 29.6741C67.0466 30.0667 67.1227 30.5501 67.1227 31.1243V31.5249H62.3795V30.7076H66.1612C66.1612 30.3604 66.0918 30.0506 65.9529 29.7782C65.8167 29.5058 65.6217 29.2908 65.368 29.1333C65.117 28.9757 64.8205 28.8969 64.4787 28.8969C64.1021 28.8969 63.7763 28.9904 63.5012 29.1773C63.2288 29.3616 63.0192 29.602 62.8723 29.8984C62.7254 30.1949 62.6519 30.5127 62.6519 30.8518V31.3967C62.6519 31.8614 62.7321 32.2553 62.8923 32.5784C63.0552 32.8989 63.2809 33.1433 63.5693 33.3115C63.8577 33.4771 64.1929 33.5599 64.5748 33.5599C64.8232 33.5599 65.0475 33.5252 65.2478 33.4558C65.4508 33.3837 65.6257 33.2768 65.7726 33.1353C65.9195 32.9911 66.033 32.8121 66.1131 32.5985L67.0265 32.8549C66.9304 33.1647 66.7688 33.4371 66.5418 33.6721C66.3148 33.9044 66.0344 34.086 65.7005 34.2169C65.3667 34.3451 64.9915 34.4092 64.5748 34.4092ZM69.5063 26.0766V34.281H68.5608V26.0766H69.5063ZM73.8178 34.4092C73.2249 34.4092 72.7134 34.2783 72.2834 34.0166C71.8561 33.7522 71.5263 33.3837 71.294 32.9109C71.0643 32.4356 70.9494 31.8827 70.9494 31.2524C70.9494 30.6222 71.0643 30.0667 71.294 29.5859C71.5263 29.1025 71.8495 28.726 72.2634 28.4562C72.68 28.1838 73.1661 28.0476 73.7216 28.0476C74.0421 28.0476 74.3586 28.101 74.671 28.2079C74.9835 28.3147 75.2679 28.4883 75.5243 28.7286C75.7807 28.9663 75.985 29.2815 76.1372 29.6741C76.2895 30.0667 76.3656 30.5501 76.3656 31.1243V31.5249H71.6224V30.7076H75.4041C75.4041 30.3604 75.3347 30.0506 75.1958 29.7782C75.0596 29.5058 74.8647 29.2908 74.6109 29.1333C74.3599 28.9757 74.0635 28.8969 73.7216 28.8969C73.345 28.8969 73.0192 28.9904 72.7441 29.1773C72.4717 29.3616 72.2621 29.602 72.1152 29.8984C71.9683 30.1949 71.8949 30.5127 71.8949 30.8518V31.3967C71.8949 31.8614 71.975 32.2553 72.1352 32.5784C72.2981 32.8989 72.5238 33.1433 72.8122 33.3115C73.1007 33.4771 73.4358 33.5599 73.8178 33.5599C74.0661 33.5599 74.2905 33.5252 74.4908 33.4558C74.6937 33.3837 74.8687 33.2768 75.0156 33.1353C75.1624 32.9911 75.2759 32.8121 75.3561 32.5985L76.2694 32.8549C76.1733 33.1647 76.0117 33.4371 75.7847 33.6721C75.5577 33.9044 75.2773 34.086 74.9434 34.2169C74.6096 34.3451 74.2344 34.4092 73.8178 34.4092ZM80.3035 34.4092C79.7267 34.4092 79.2299 34.273 78.8133 34.0006C78.3967 33.7282 78.0762 33.3529 77.8518 32.8749C77.6275 32.3968 77.5153 31.8507 77.5153 31.2364C77.5153 30.6115 77.6302 30.06 77.8598 29.5819C78.0922 29.1012 78.4153 28.726 78.8293 28.4562C79.2459 28.1838 79.732 28.0476 80.2875 28.0476C80.7201 28.0476 81.1101 28.1277 81.4573 28.288C81.8044 28.4482 82.0889 28.6726 82.3105 28.961C82.5322 29.2494 82.6698 29.5859 82.7232 29.9705H81.7777C81.7056 29.6901 81.5454 29.4417 81.297 29.2254C81.0513 29.0064 80.7201 28.8969 80.3035 28.8969C79.935 28.8969 79.6118 28.993 79.3341 29.1853C79.059 29.3749 78.844 29.6434 78.6891 29.9905C78.5369 30.3351 78.4607 30.7397 78.4607 31.2044C78.4607 31.6798 78.5355 32.0937 78.6851 32.4462C78.8373 32.7988 79.051 33.0725 79.326 33.2675C79.6038 33.4624 79.9296 33.5599 80.3035 33.5599C80.5492 33.5599 80.7722 33.5172 80.9725 33.4317C81.1728 33.3463 81.3424 33.2234 81.4813 33.0632C81.6202 32.9029 81.719 32.7106 81.7777 32.4863H82.7232C82.6698 32.8495 82.5376 33.1767 82.3266 33.4678C82.1183 33.7562 81.8418 33.9859 81.4973 34.1568C81.1555 34.3251 80.7575 34.4092 80.3035 34.4092ZM86.7813 28.1277V28.9289H83.5925V28.1277H86.7813ZM84.5219 26.6535H85.4673V32.5184C85.4673 32.7854 85.506 32.9857 85.5835 33.1193C85.6636 33.2501 85.7651 33.3383 85.8879 33.3837C86.0135 33.4264 86.1457 33.4478 86.2845 33.4478C86.3887 33.4478 86.4741 33.4424 86.5409 33.4317C86.6077 33.4184 86.6611 33.4077 86.7012 33.3997L86.8934 34.249C86.8294 34.273 86.7399 34.297 86.625 34.3211C86.5102 34.3478 86.3647 34.3611 86.1884 34.3611C85.9213 34.3611 85.6596 34.3037 85.4032 34.1889C85.1495 34.074 84.9385 33.8991 84.7702 33.6641C84.6047 33.4291 84.5219 33.1326 84.5219 32.7747V26.6535Z" fill="#233D48"/>
<path d="M183.976 26.9621C183.818 26.8052 183.612 26.7269 183.406 26.7273C183.201 26.7277 182.995 26.8062 182.839 26.9627C182.682 27.1193 182.604 27.3244 182.603 27.5297C182.603 27.7359 182.681 27.9422 182.839 28.0995L186.868 32.1318C187.025 32.2891 187.231 32.3678 187.438 32.3678C187.644 32.3678 187.851 32.2891 188.008 32.1318L192.037 28.1029C192.194 27.9456 192.273 27.7393 192.273 27.5331C192.272 27.3278 192.194 27.1227 192.037 26.9661C191.88 26.8096 191.675 26.7311 191.47 26.7307C191.264 26.7303 191.057 26.8086 190.9 26.9655L187.438 30.4212L183.976 26.9621Z" fill="#233D48"/>
</g>
<g filter="url(#filter1_dd_2314_47858)">
<g clip-path="url(#clip1_2314_47858)">
<path d="M15 57.3472C15 53.787 17.8861 50.9009 21.4463 50.9009H203.554C207.114 50.9009 210 53.787 210 57.3472V286.19C210 289.75 207.114 292.636 203.554 292.636H21.4463C17.8861 292.636 15 289.75 15 286.19V57.3472Z" fill="white"/>
<rect x="28.6984" y="58.7067" width="11.281" height="11.281" rx="0.805785" fill="white" stroke="#388523" stroke-width="1.61157"/>
<path d="M54.8269 62.7067H53.8334C53.7746 62.4209 53.6718 62.1699 53.5249 61.9535C53.3807 61.7372 53.2044 61.5556 52.9961 61.4087C52.7905 61.2592 52.5621 61.147 52.3111 61.0722C52.0601 60.9974 51.7983 60.96 51.5259 60.96C51.0292 60.96 50.5792 61.0856 50.1759 61.3366C49.7753 61.5877 49.4561 61.9575 49.2184 62.4463C48.9834 62.935 48.8659 63.5346 48.8659 64.245C48.8659 64.9554 48.9834 65.555 49.2184 66.0437C49.4561 66.5324 49.7753 66.9023 50.1759 67.1534C50.5792 67.4044 51.0292 67.5299 51.5259 67.5299C51.7983 67.5299 52.0601 67.4925 52.3111 67.4178C52.5621 67.343 52.7905 67.2322 52.9961 67.0853C53.2044 66.9357 53.3807 66.7528 53.5249 66.5364C53.6718 66.3174 53.7746 66.0664 53.8334 65.7833H54.8269C54.7521 66.2026 54.6159 66.5778 54.4183 66.909C54.2206 67.2402 53.9749 67.5219 53.6812 67.7543C53.3874 67.984 53.0576 68.1589 52.6917 68.2791C52.3285 68.3992 51.9399 68.4593 51.5259 68.4593C50.8262 68.4593 50.2039 68.2884 49.6591 67.9466C49.1143 67.6047 48.6856 67.1187 48.3732 66.4884C48.0607 65.8581 47.9045 65.1103 47.9045 64.245C47.9045 63.3797 48.0607 62.6319 48.3732 62.0016C48.6856 61.3713 49.1143 60.8853 49.6591 60.5434C50.2039 60.2016 50.8262 60.0306 51.5259 60.0306C51.9399 60.0306 52.3285 60.0907 52.6917 60.2109C53.0576 60.3311 53.3874 60.5074 53.6812 60.7397C53.9749 60.9694 54.2206 61.2498 54.4183 61.581C54.6159 61.9095 54.7521 62.2847 54.8269 62.7067ZM57.2495 64.6456V68.3472H56.3041V60.1428H57.2495V63.1553H57.3297C57.4739 62.8375 57.6902 62.5852 57.9786 62.3982C58.2697 62.2086 58.657 62.1138 59.1404 62.1138C59.5597 62.1138 59.9269 62.1979 60.242 62.3662C60.5572 62.5317 60.8016 62.7868 60.9751 63.1313C61.1514 63.4732 61.2395 63.9085 61.2395 64.4373V68.3472H60.2941V64.5014C60.2941 64.0126 60.1673 63.6347 59.9135 63.3677C59.6625 63.0979 59.314 62.9631 58.868 62.9631C58.5582 62.9631 58.2804 63.0285 58.0347 63.1594C57.7917 63.2902 57.5994 63.4812 57.4578 63.7322C57.319 63.9833 57.2495 64.2877 57.2495 64.6456ZM65.549 68.4754C64.9561 68.4754 64.4447 68.3445 64.0147 68.0828C63.5874 67.8184 63.2576 67.4498 63.0252 66.9771C62.7956 66.5017 62.6807 65.9489 62.6807 65.3186C62.6807 64.6883 62.7956 64.1328 63.0252 63.6521C63.2576 63.1687 63.5807 62.7921 63.9947 62.5224C64.4113 62.25 64.8974 62.1138 65.4529 62.1138C65.7734 62.1138 66.0899 62.1672 66.4023 62.274C66.7148 62.3808 66.9992 62.5544 67.2556 62.7948C67.512 63.0325 67.7163 63.3476 67.8685 63.7402C68.0208 64.1328 68.0969 64.6162 68.0969 65.1904V65.591H63.3537V64.7738H67.1354C67.1354 64.4266 67.066 64.1168 66.9271 63.8444C66.7909 63.572 66.5959 63.357 66.3422 63.1994C66.0912 63.0418 65.7947 62.9631 65.4529 62.9631C65.0763 62.9631 64.7505 63.0565 64.4754 63.2435C64.203 63.4278 63.9934 63.6681 63.8465 63.9646C63.6996 64.261 63.6261 64.5788 63.6261 64.918V65.4628C63.6261 65.9275 63.7063 66.3215 63.8665 66.6446C64.0294 66.9651 64.2551 67.2095 64.5435 67.3777C64.832 67.5433 65.1671 67.6261 65.549 67.6261C65.7974 67.6261 66.0217 67.5914 66.222 67.5219C66.425 67.4498 66.6 67.343 66.7468 67.2014C66.8937 67.0572 67.0072 66.8783 67.0874 66.6646L68.0007 66.921C67.9046 67.2308 67.743 67.5032 67.516 67.7383C67.289 67.9706 67.0086 68.1522 66.6747 68.2831C66.3409 68.4113 65.9657 68.4754 65.549 68.4754ZM72.0348 68.4754C71.4579 68.4754 70.9612 68.3392 70.5446 68.0667C70.1279 67.7943 69.8075 67.4191 69.5831 66.9411C69.3588 66.463 69.2466 65.9168 69.2466 65.3026C69.2466 64.6776 69.3614 64.1261 69.5911 63.6481C69.8235 63.1674 70.1466 62.7921 70.5606 62.5224C70.9772 62.25 71.4633 62.1138 72.0188 62.1138C72.4514 62.1138 72.8414 62.1939 73.1885 62.3541C73.5357 62.5144 73.8202 62.7387 74.0418 63.0272C74.2635 63.3156 74.401 63.6521 74.4545 64.0367H73.509C73.4369 63.7563 73.2767 63.5079 73.0283 63.2916C72.7826 63.0726 72.4514 62.9631 72.0348 62.9631C71.6663 62.9631 71.3431 63.0592 71.0653 63.2515C70.7903 63.4411 70.5753 63.7095 70.4204 64.0567C70.2681 64.4012 70.192 64.8058 70.192 65.2705C70.192 65.7459 70.2668 66.1599 70.4164 66.5124C70.5686 66.8649 70.7823 67.1387 71.0573 67.3336C71.3351 67.5286 71.6609 67.6261 72.0348 67.6261C72.2805 67.6261 72.5035 67.5834 72.7038 67.4979C72.9041 67.4124 73.0737 67.2896 73.2126 67.1293C73.3515 66.9691 73.4503 66.7768 73.509 66.5525H74.4545C74.401 66.9157 74.2688 67.2428 74.0579 67.5339C73.8495 67.8224 73.5731 68.0521 73.2286 68.223C72.8868 68.3912 72.4888 68.4754 72.0348 68.4754ZM76.7179 66.1038L76.7018 64.934H76.8941L79.5862 62.1939H80.7559L77.8876 65.0943H77.8075L76.7179 66.1038ZM75.8365 68.3472V60.1428H76.782V68.3472H75.8365ZM79.7464 68.3472L77.3428 65.3026L78.0158 64.6456L80.9482 68.3472H79.7464ZM82.101 68.3472V60.1428H83.0464V63.1714H83.1265C83.196 63.0645 83.2921 62.9283 83.4149 62.7628C83.5405 62.5945 83.7194 62.4449 83.9518 62.3141C84.1868 62.1805 84.5046 62.1138 84.9052 62.1138C85.4233 62.1138 85.88 62.2433 86.2753 62.5024C86.6705 62.7614 86.979 63.1286 87.2006 63.604C87.4223 64.0794 87.5332 64.6403 87.5332 65.2866C87.5332 65.9382 87.4223 66.5031 87.2006 66.9811C86.979 67.4565 86.6719 67.825 86.2793 68.0868C85.8867 68.3458 85.434 68.4754 84.9212 68.4754C84.526 68.4754 84.2095 68.4099 83.9718 68.2791C83.7341 68.1455 83.5512 67.9946 83.423 67.8264C83.2948 67.6555 83.196 67.5139 83.1265 67.4017H83.0143V68.3472H82.101ZM83.0304 65.2705C83.0304 65.7352 83.0985 66.1452 83.2347 66.5004C83.3709 66.8529 83.5698 67.1293 83.8316 67.3296C84.0933 67.5273 84.4138 67.6261 84.793 67.6261C85.1883 67.6261 85.5181 67.5219 85.7825 67.3136C86.0496 67.1026 86.2499 66.8195 86.3834 66.4643C86.5196 66.1065 86.5877 65.7085 86.5877 65.2705C86.5877 64.8379 86.521 64.448 86.3874 64.1008C86.2566 63.7509 86.0576 63.4745 85.7905 63.2715C85.5261 63.0659 85.1936 62.9631 84.793 62.9631C84.4084 62.9631 84.0853 63.0605 83.8236 63.2555C83.5618 63.4478 83.3642 63.7175 83.2307 64.0647C83.0971 64.4092 83.0304 64.8112 83.0304 65.2705ZM91.4791 68.4754C90.9236 68.4754 90.4362 68.3432 90.0169 68.0788C89.6003 67.8144 89.2744 67.4445 89.0394 66.9691C88.8071 66.4937 88.6909 65.9382 88.6909 65.3026C88.6909 64.6616 88.8071 64.1021 89.0394 63.6241C89.2744 63.146 89.6003 62.7748 90.0169 62.5104C90.4362 62.246 90.9236 62.1138 91.4791 62.1138C92.0346 62.1138 92.5207 62.246 92.9373 62.5104C93.3566 62.7748 93.6824 63.146 93.9148 63.6241C94.1498 64.1021 94.2673 64.6616 94.2673 65.3026C94.2673 65.9382 94.1498 66.4937 93.9148 66.9691C93.6824 67.4445 93.3566 67.8144 92.9373 68.0788C92.5207 68.3432 92.0346 68.4754 91.4791 68.4754ZM91.4791 67.6261C91.9011 67.6261 92.2482 67.5179 92.5207 67.3016C92.7931 67.0853 92.9947 66.8008 93.1256 66.4483C93.2564 66.0958 93.3219 65.7139 93.3219 65.3026C93.3219 64.8913 93.2564 64.5081 93.1256 64.1529C92.9947 63.7976 92.7931 63.5105 92.5207 63.2916C92.2482 63.0726 91.9011 62.9631 91.4791 62.9631C91.0571 62.9631 90.7099 63.0726 90.4375 63.2916C90.1651 63.5105 89.9635 63.7976 89.8326 64.1529C89.7017 64.5081 89.6363 64.8913 89.6363 65.3026C89.6363 65.7139 89.7017 66.0958 89.8326 66.4483C89.9635 66.8008 90.1651 67.0853 90.4375 67.3016C90.7099 67.5179 91.0571 67.6261 91.4791 67.6261ZM96.1621 62.1939L97.6364 64.7097L99.1106 62.1939H100.2L98.2132 65.2705L100.2 68.3472H99.1106L97.6364 65.9596L96.1621 68.3472H95.0725L97.0275 65.2705L95.0725 62.1939H96.1621ZM104.85 68.3472V60.1428H105.844V67.4658H109.657V68.3472H104.85ZM112.878 68.4914C112.488 68.4914 112.135 68.4179 111.817 68.2711C111.499 68.1215 111.247 67.9065 111.06 67.6261C110.873 67.343 110.779 67.0011 110.779 66.6005C110.779 66.248 110.849 65.9622 110.987 65.7432C111.126 65.5216 111.312 65.348 111.544 65.2225C111.777 65.0969 112.033 65.0035 112.313 64.942C112.597 64.8779 112.881 64.8272 113.167 64.7898C113.541 64.7417 113.844 64.7057 114.076 64.6816C114.311 64.6549 114.482 64.6109 114.589 64.5494C114.698 64.488 114.753 64.3812 114.753 64.229V64.1969C114.753 63.8017 114.645 63.4945 114.429 63.2755C114.215 63.0565 113.891 62.947 113.455 62.947C113.004 62.947 112.65 63.0458 112.394 63.2435C112.137 63.4411 111.957 63.6521 111.853 63.8764L110.955 63.556C111.116 63.1821 111.329 62.8909 111.596 62.6826C111.866 62.4717 112.16 62.3248 112.478 62.242C112.798 62.1565 113.113 62.1138 113.423 62.1138C113.621 62.1138 113.848 62.1378 114.104 62.1859C114.363 62.2313 114.613 62.3261 114.853 62.4703C115.096 62.6145 115.298 62.8322 115.458 63.1233C115.618 63.4144 115.699 63.8043 115.699 64.2931V68.3472H114.753V67.5139H114.705C114.641 67.6474 114.534 67.7903 114.385 67.9426C114.235 68.0948 114.036 68.2243 113.788 68.3311C113.539 68.438 113.236 68.4914 112.878 68.4914ZM113.023 67.6421C113.396 67.6421 113.712 67.5687 113.968 67.4218C114.227 67.2749 114.422 67.0853 114.553 66.8529C114.686 66.6206 114.753 66.3762 114.753 66.1198V65.2545C114.713 65.3026 114.625 65.3466 114.489 65.3867C114.355 65.4241 114.2 65.4575 114.024 65.4869C113.85 65.5136 113.681 65.5376 113.515 65.559C113.352 65.5777 113.22 65.5937 113.119 65.607C112.873 65.6391 112.643 65.6912 112.43 65.7633C112.219 65.8327 112.048 65.9382 111.917 66.0798C111.789 66.2186 111.725 66.4082 111.725 66.6486C111.725 66.9771 111.846 67.2255 112.089 67.3937C112.335 67.5593 112.646 67.6421 113.023 67.6421ZM117.552 68.3472V60.1428H118.498V63.1714H118.578C118.647 63.0645 118.743 62.9283 118.866 62.7628C118.992 62.5945 119.171 62.4449 119.403 62.3141C119.638 62.1805 119.956 62.1138 120.357 62.1138C120.875 62.1138 121.331 62.2433 121.727 62.5024C122.122 62.7614 122.43 63.1286 122.652 63.604C122.874 64.0794 122.985 64.6403 122.985 65.2866C122.985 65.9382 122.874 66.5031 122.652 66.9811C122.43 67.4565 122.123 67.825 121.731 68.0868C121.338 68.3458 120.885 68.4754 120.373 68.4754C119.977 68.4754 119.661 68.4099 119.423 68.2791C119.185 68.1455 119.003 67.9946 118.874 67.8264C118.746 67.6555 118.647 67.5139 118.578 67.4017H118.466V68.3472H117.552ZM118.482 65.2705C118.482 65.7352 118.55 66.1452 118.686 66.5004C118.822 66.8529 119.021 67.1293 119.283 67.3296C119.545 67.5273 119.865 67.6261 120.244 67.6261C120.64 67.6261 120.97 67.5219 121.234 67.3136C121.501 67.1026 121.701 66.8195 121.835 66.4643C121.971 66.1065 122.039 65.7085 122.039 65.2705C122.039 64.8379 121.972 64.448 121.839 64.1008C121.708 63.7509 121.509 63.4745 121.242 63.2715C120.978 63.0659 120.645 62.9631 120.244 62.9631C119.86 62.9631 119.537 63.0605 119.275 63.2555C119.013 63.4478 118.816 63.7175 118.682 64.0647C118.549 64.4092 118.482 64.8112 118.482 65.2705ZM127.011 68.4754C126.418 68.4754 125.906 68.3445 125.476 68.0828C125.049 67.8184 124.719 67.4498 124.487 66.9771C124.257 66.5017 124.142 65.9489 124.142 65.3186C124.142 64.6883 124.257 64.1328 124.487 63.6521C124.719 63.1687 125.042 62.7921 125.456 62.5224C125.873 62.25 126.359 62.1138 126.914 62.1138C127.235 62.1138 127.551 62.1672 127.864 62.274C128.176 62.3808 128.461 62.5544 128.717 62.7948C128.974 63.0325 129.178 63.3476 129.33 63.7402C129.482 64.1328 129.558 64.6162 129.558 65.1904V65.591H124.815V64.7738H128.597C128.597 64.4266 128.528 64.1168 128.389 63.8444C128.252 63.572 128.058 63.357 127.804 63.1994C127.553 63.0418 127.256 62.9631 126.914 62.9631C126.538 62.9631 126.212 63.0565 125.937 63.2435C125.665 63.4278 125.455 63.6681 125.308 63.9646C125.161 64.261 125.088 64.5788 125.088 64.918V65.4628C125.088 65.9275 125.168 66.3215 125.328 66.6446C125.491 66.9651 125.717 67.2095 126.005 67.3777C126.294 67.5433 126.629 67.6261 127.011 67.6261C127.259 67.6261 127.483 67.5914 127.684 67.5219C127.887 67.4498 128.062 67.343 128.208 67.2014C128.355 67.0572 128.469 66.8783 128.549 66.6646L129.462 66.921C129.366 67.2308 129.205 67.5032 128.978 67.7383C128.751 67.9706 128.47 68.1522 128.136 68.2831C127.802 68.4113 127.427 68.4754 127.011 68.4754ZM131.942 60.1428V68.3472H130.997V60.1428H131.942Z" fill="#424E56"/>
<rect x="28.6984" y="85.5992" width="11.281" height="11.281" rx="0.805785" fill="white" stroke="#388523" stroke-width="1.61157"/>
<path d="M54.8269 89.5993H53.8334C53.7746 89.3135 53.6718 89.0624 53.5249 88.8461C53.3807 88.6298 53.2044 88.4482 52.9961 88.3013C52.7905 88.1517 52.5621 88.0396 52.3111 87.9648C52.0601 87.89 51.7983 87.8526 51.5259 87.8526C51.0292 87.8526 50.5792 87.9781 50.1759 88.2292C49.7753 88.4802 49.4561 88.8501 49.2184 89.3389C48.9834 89.8276 48.8659 90.4272 48.8659 91.1376C48.8659 91.848 48.9834 92.4475 49.2184 92.9363C49.4561 93.425 49.7753 93.7949 50.1759 94.0459C50.5792 94.297 51.0292 94.4225 51.5259 94.4225C51.7983 94.4225 52.0601 94.3851 52.3111 94.3103C52.5621 94.2356 52.7905 94.1247 52.9961 93.9778C53.2044 93.8283 53.3807 93.6453 53.5249 93.429C53.6718 93.21 53.7746 92.959 53.8334 92.6759H54.8269C54.7521 93.0952 54.6159 93.4704 54.4183 93.8016C54.2206 94.1327 53.9749 94.4145 53.6812 94.6469C53.3874 94.8765 53.0576 95.0515 52.6917 95.1716C52.3285 95.2918 51.9399 95.3519 51.5259 95.3519C50.8262 95.3519 50.2039 95.181 49.6591 94.8391C49.1143 94.4973 48.6856 94.0112 48.3732 93.3809C48.0607 92.7507 47.9045 92.0029 47.9045 91.1376C47.9045 90.2723 48.0607 89.5245 48.3732 88.8942C48.6856 88.2639 49.1143 87.7778 49.6591 87.436C50.2039 87.0941 50.8262 86.9232 51.5259 86.9232C51.9399 86.9232 52.3285 86.9833 52.6917 87.1035C53.0576 87.2237 53.3874 87.3999 53.6812 87.6323C53.9749 87.862 54.2206 88.1424 54.4183 88.4736C54.6159 88.802 54.7521 89.1773 54.8269 89.5993ZM57.2495 91.5382V95.2397H56.3041V87.0354H57.2495V90.0479H57.3297C57.4739 89.7301 57.6902 89.4777 57.9786 89.2908C58.2697 89.1012 58.657 89.0064 59.1404 89.0064C59.5597 89.0064 59.9269 89.0905 60.242 89.2587C60.5572 89.4243 60.8016 89.6794 60.9751 90.0239C61.1514 90.3657 61.2395 90.8011 61.2395 91.3299V95.2397H60.2941V91.394C60.2941 90.9052 60.1673 90.5273 59.9135 90.2602C59.6625 89.9905 59.314 89.8556 58.868 89.8556C58.5582 89.8556 58.2804 89.9211 58.0347 90.0519C57.7917 90.1828 57.5994 90.3738 57.4578 90.6248C57.319 90.8758 57.2495 91.1803 57.2495 91.5382ZM65.549 95.3679C64.9561 95.3679 64.4447 95.2371 64.0147 94.9753C63.5874 94.7109 63.2576 94.3424 63.0252 93.8697C62.7956 93.3943 62.6807 92.8415 62.6807 92.2112C62.6807 91.5809 62.7956 91.0254 63.0252 90.5447C63.2576 90.0613 63.5807 89.6847 63.9947 89.415C64.4113 89.1426 64.8974 89.0064 65.4529 89.0064C65.7734 89.0064 66.0899 89.0598 66.4023 89.1666C66.7148 89.2734 66.9992 89.447 67.2556 89.6874C67.512 89.9251 67.7163 90.2402 67.8685 90.6328C68.0208 91.0254 68.0969 91.5088 68.0969 92.083V92.4836H63.3537V91.6664H67.1354C67.1354 91.3192 67.066 91.0094 66.9271 90.737C66.7909 90.4646 66.5959 90.2496 66.3422 90.092C66.0912 89.9344 65.7947 89.8556 65.4529 89.8556C65.0763 89.8556 64.7505 89.9491 64.4754 90.1361C64.203 90.3203 63.9934 90.5607 63.8465 90.8571C63.6996 91.1536 63.6261 91.4714 63.6261 91.8106V92.3554C63.6261 92.8201 63.7063 93.214 63.8665 93.5372C64.0294 93.8577 64.2551 94.102 64.5435 94.2703C64.832 94.4359 65.1671 94.5187 65.549 94.5187C65.7974 94.5187 66.0217 94.4839 66.222 94.4145C66.425 94.3424 66.6 94.2356 66.7468 94.094C66.8937 93.9498 67.0072 93.7709 67.0874 93.5572L68.0007 93.8136C67.9046 94.1234 67.743 94.3958 67.516 94.6308C67.289 94.8632 67.0086 95.0448 66.6747 95.1756C66.3409 95.3038 65.9657 95.3679 65.549 95.3679ZM72.0348 95.3679C71.4579 95.3679 70.9612 95.2317 70.5446 94.9593C70.1279 94.6869 69.8075 94.3117 69.5831 93.8336C69.3588 93.3556 69.2466 92.8094 69.2466 92.1952C69.2466 91.5702 69.3614 91.0187 69.5911 90.5407C69.8235 90.0599 70.1466 89.6847 70.5606 89.415C70.9772 89.1426 71.4633 89.0064 72.0188 89.0064C72.4514 89.0064 72.8414 89.0865 73.1885 89.2467C73.5357 89.407 73.8202 89.6313 74.0418 89.9197C74.2635 90.2082 74.401 90.5447 74.4545 90.9293H73.509C73.4369 90.6488 73.2767 90.4005 73.0283 90.1841C72.7826 89.9651 72.4514 89.8556 72.0348 89.8556C71.6663 89.8556 71.3431 89.9518 71.0653 90.1441C70.7903 90.3337 70.5753 90.6021 70.4204 90.9493C70.2681 91.2938 70.192 91.6984 70.192 92.1631C70.192 92.6385 70.2668 93.0525 70.4164 93.405C70.5686 93.7575 70.7823 94.0313 71.0573 94.2262C71.3351 94.4212 71.6609 94.5187 72.0348 94.5187C72.2805 94.5187 72.5035 94.4759 72.7038 94.3905C72.9041 94.305 73.0737 94.1822 73.2126 94.0219C73.3515 93.8617 73.4503 93.6694 73.509 93.445H74.4545C74.401 93.8083 74.2688 94.1354 74.0579 94.4265C73.8495 94.715 73.5731 94.9446 73.2286 95.1156C72.8868 95.2838 72.4888 95.3679 72.0348 95.3679ZM76.7179 92.9964L76.7018 91.8266H76.8941L79.5862 89.0865H80.7559L77.8876 91.9868H77.8075L76.7179 92.9964ZM75.8365 95.2397V87.0354H76.782V95.2397H75.8365ZM79.7464 95.2397L77.3428 92.1952L78.0158 91.5382L80.9482 95.2397H79.7464ZM82.101 95.2397V87.0354H83.0464V90.0639H83.1265C83.196 89.9571 83.2921 89.8209 83.4149 89.6553C83.5405 89.4871 83.7194 89.3375 83.9518 89.2067C84.1868 89.0731 84.5046 89.0064 84.9052 89.0064C85.4233 89.0064 85.88 89.1359 86.2753 89.3949C86.6705 89.654 86.979 90.0212 87.2006 90.4966C87.4223 90.972 87.5332 91.5328 87.5332 92.1791C87.5332 92.8308 87.4223 93.3956 87.2006 93.8737C86.979 94.3491 86.6719 94.7176 86.2793 94.9794C85.8867 95.2384 85.434 95.3679 84.9212 95.3679C84.526 95.3679 84.2095 95.3025 83.9718 95.1716C83.7341 95.0381 83.5512 94.8872 83.423 94.719C83.2948 94.548 83.196 94.4065 83.1265 94.2943H83.0143V95.2397H82.101ZM83.0304 92.1631C83.0304 92.6278 83.0985 93.0378 83.2347 93.393C83.3709 93.7455 83.5698 94.0219 83.8316 94.2222C84.0933 94.4198 84.4138 94.5187 84.793 94.5187C85.1883 94.5187 85.5181 94.4145 85.7825 94.2062C86.0496 93.9952 86.2499 93.7121 86.3834 93.3569C86.5196 92.999 86.5877 92.6011 86.5877 92.1631C86.5877 91.7305 86.521 91.3405 86.3874 90.9933C86.2566 90.6435 86.0576 90.3671 85.7905 90.1641C85.5261 89.9585 85.1936 89.8556 84.793 89.8556C84.4084 89.8556 84.0853 89.9531 83.8236 90.1481C83.5618 90.3404 83.3642 90.6101 83.2307 90.9573C83.0971 91.3018 83.0304 91.7038 83.0304 92.1631ZM91.4791 95.3679C90.9236 95.3679 90.4362 95.2357 90.0169 94.9713C89.6003 94.7069 89.2744 94.3371 89.0394 93.8617C88.8071 93.3863 88.6909 92.8308 88.6909 92.1952C88.6909 91.5542 88.8071 90.9947 89.0394 90.5166C89.2744 90.0386 89.6003 89.6674 90.0169 89.403C90.4362 89.1386 90.9236 89.0064 91.4791 89.0064C92.0346 89.0064 92.5207 89.1386 92.9373 89.403C93.3566 89.6674 93.6824 90.0386 93.9148 90.5166C94.1498 90.9947 94.2673 91.5542 94.2673 92.1952C94.2673 92.8308 94.1498 93.3863 93.9148 93.8617C93.6824 94.3371 93.3566 94.7069 92.9373 94.9713C92.5207 95.2357 92.0346 95.3679 91.4791 95.3679ZM91.4791 94.5187C91.9011 94.5187 92.2482 94.4105 92.5207 94.1942C92.7931 93.9778 92.9947 93.6934 93.1256 93.3409C93.2564 92.9884 93.3219 92.6064 93.3219 92.1952C93.3219 91.7839 93.2564 91.4006 93.1256 91.0454C92.9947 90.6902 92.7931 90.4031 92.5207 90.1841C92.2482 89.9651 91.9011 89.8556 91.4791 89.8556C91.0571 89.8556 90.7099 89.9651 90.4375 90.1841C90.1651 90.4031 89.9635 90.6902 89.8326 91.0454C89.7017 91.4006 89.6363 91.7839 89.6363 92.1952C89.6363 92.6064 89.7017 92.9884 89.8326 93.3409C89.9635 93.6934 90.1651 93.9778 90.4375 94.1942C90.7099 94.4105 91.0571 94.5187 91.4791 94.5187ZM96.1621 89.0865L97.6364 91.6023L99.1106 89.0865H100.2L98.2132 92.1631L100.2 95.2397H99.1106L97.6364 92.8521L96.1621 95.2397H95.0725L97.0275 92.1631L95.0725 89.0865H96.1621ZM104.85 95.2397V87.0354H105.844V94.3584H109.657V95.2397H104.85ZM112.878 95.384C112.488 95.384 112.135 95.3105 111.817 95.1636C111.499 95.0141 111.247 94.7991 111.06 94.5187C110.873 94.2356 110.779 93.8937 110.779 93.4931C110.779 93.1406 110.849 92.8548 110.987 92.6358C111.126 92.4142 111.312 92.2406 111.544 92.115C111.777 91.9895 112.033 91.896 112.313 91.8346C112.597 91.7705 112.881 91.7198 113.167 91.6824C113.541 91.6343 113.844 91.5983 114.076 91.5742C114.311 91.5475 114.482 91.5035 114.589 91.442C114.698 91.3806 114.753 91.2738 114.753 91.1215V91.0895C114.753 90.6942 114.645 90.3871 114.429 90.1681C114.215 89.9491 113.891 89.8396 113.455 89.8396C113.004 89.8396 112.65 89.9384 112.394 90.1361C112.137 90.3337 111.957 90.5447 111.853 90.769L110.955 90.4485C111.116 90.0746 111.329 89.7835 111.596 89.5752C111.866 89.3642 112.16 89.2173 112.478 89.1346C112.798 89.0491 113.113 89.0064 113.423 89.0064C113.621 89.0064 113.848 89.0304 114.104 89.0785C114.363 89.1239 114.613 89.2187 114.853 89.3629C115.096 89.5071 115.298 89.7248 115.458 90.0159C115.618 90.307 115.699 90.6969 115.699 91.1856V95.2397H114.753V94.4065H114.705C114.641 94.54 114.534 94.6829 114.385 94.8351C114.235 94.9874 114.036 95.1169 113.788 95.2237C113.539 95.3305 113.236 95.384 112.878 95.384ZM113.023 94.5347C113.396 94.5347 113.712 94.4612 113.968 94.3144C114.227 94.1675 114.422 93.9778 114.553 93.7455C114.686 93.5131 114.753 93.2688 114.753 93.0124V92.1471C114.713 92.1952 114.625 92.2392 114.489 92.2793C114.355 92.3167 114.2 92.3501 114.024 92.3794C113.85 92.4061 113.681 92.4302 113.515 92.4515C113.352 92.4702 113.22 92.4863 113.119 92.4996C112.873 92.5317 112.643 92.5837 112.43 92.6559C112.219 92.7253 112.048 92.8308 111.917 92.9723C111.789 93.1112 111.725 93.3008 111.725 93.5412C111.725 93.8697 111.846 94.1181 112.089 94.2863C112.335 94.4519 112.646 94.5347 113.023 94.5347ZM117.552 95.2397V87.0354H118.498V90.0639H118.578C118.647 89.9571 118.743 89.8209 118.866 89.6553C118.992 89.4871 119.171 89.3375 119.403 89.2067C119.638 89.0731 119.956 89.0064 120.357 89.0064C120.875 89.0064 121.331 89.1359 121.727 89.3949C122.122 89.654 122.43 90.0212 122.652 90.4966C122.874 90.972 122.985 91.5328 122.985 92.1791C122.985 92.8308 122.874 93.3956 122.652 93.8737C122.43 94.3491 122.123 94.7176 121.731 94.9794C121.338 95.2384 120.885 95.3679 120.373 95.3679C119.977 95.3679 119.661 95.3025 119.423 95.1716C119.185 95.0381 119.003 94.8872 118.874 94.719C118.746 94.548 118.647 94.4065 118.578 94.2943H118.466V95.2397H117.552ZM118.482 92.1631C118.482 92.6278 118.55 93.0378 118.686 93.393C118.822 93.7455 119.021 94.0219 119.283 94.2222C119.545 94.4198 119.865 94.5187 120.244 94.5187C120.64 94.5187 120.97 94.4145 121.234 94.2062C121.501 93.9952 121.701 93.7121 121.835 93.3569C121.971 92.999 122.039 92.6011 122.039 92.1631C122.039 91.7305 121.972 91.3405 121.839 90.9933C121.708 90.6435 121.509 90.3671 121.242 90.1641C120.978 89.9585 120.645 89.8556 120.244 89.8556C119.86 89.8556 119.537 89.9531 119.275 90.1481C119.013 90.3404 118.816 90.6101 118.682 90.9573C118.549 91.3018 118.482 91.7038 118.482 92.1631ZM127.011 95.3679C126.418 95.3679 125.906 95.2371 125.476 94.9753C125.049 94.7109 124.719 94.3424 124.487 93.8697C124.257 93.3943 124.142 92.8415 124.142 92.2112C124.142 91.5809 124.257 91.0254 124.487 90.5447C124.719 90.0613 125.042 89.6847 125.456 89.415C125.873 89.1426 126.359 89.0064 126.914 89.0064C127.235 89.0064 127.551 89.0598 127.864 89.1666C128.176 89.2734 128.461 89.447 128.717 89.6874C128.974 89.9251 129.178 90.2402 129.33 90.6328C129.482 91.0254 129.558 91.5088 129.558 92.083V92.4836H124.815V91.6664H128.597C128.597 91.3192 128.528 91.0094 128.389 90.737C128.252 90.4646 128.058 90.2496 127.804 90.092C127.553 89.9344 127.256 89.8556 126.914 89.8556C126.538 89.8556 126.212 89.9491 125.937 90.1361C125.665 90.3203 125.455 90.5607 125.308 90.8571C125.161 91.1536 125.088 91.4714 125.088 91.8106V92.3554C125.088 92.8201 125.168 93.214 125.328 93.5372C125.491 93.8577 125.717 94.102 126.005 94.2703C126.294 94.4359 126.629 94.5187 127.011 94.5187C127.259 94.5187 127.483 94.4839 127.684 94.4145C127.887 94.3424 128.062 94.2356 128.208 94.094C128.355 93.9498 128.469 93.7709 128.549 93.5572L129.462 93.8136C129.366 94.1234 129.205 94.3958 128.978 94.6308C128.751 94.8632 128.47 95.0448 128.136 95.1756C127.802 95.3038 127.427 95.3679 127.011 95.3679ZM131.942 87.0354V95.2397H130.997V87.0354H131.942Z" fill="#424E56"/>
<rect x="28.6984" y="112.492" width="11.281" height="11.281" rx="0.805785" fill="white" stroke="#388523" stroke-width="1.61157"/>
<path d="M54.8269 116.492H53.8334C53.7746 116.206 53.6718 115.955 53.5249 115.739C53.3807 115.522 53.2044 115.341 52.9961 115.194C52.7905 115.044 52.5621 114.932 52.3111 114.857C52.0601 114.783 51.7983 114.745 51.5259 114.745C51.0292 114.745 50.5792 114.871 50.1759 115.122C49.7753 115.373 49.4561 115.743 49.2184 116.231C48.9834 116.72 48.8659 117.32 48.8659 118.03C48.8659 118.741 48.9834 119.34 49.2184 119.829C49.4561 120.318 49.7753 120.687 50.1759 120.939C50.5792 121.19 51.0292 121.315 51.5259 121.315C51.7983 121.315 52.0601 121.278 52.3111 121.203C52.5621 121.128 52.7905 121.017 52.9961 120.87C53.2044 120.721 53.3807 120.538 53.5249 120.322C53.6718 120.103 53.7746 119.852 53.8334 119.568H54.8269C54.7521 119.988 54.6159 120.363 54.4183 120.694C54.2206 121.025 53.9749 121.307 53.6812 121.539C53.3874 121.769 53.0576 121.944 52.6917 122.064C52.3285 122.184 51.9399 122.244 51.5259 122.244C50.8262 122.244 50.2039 122.074 49.6591 121.732C49.1143 121.39 48.6856 120.904 48.3732 120.274C48.0607 119.643 47.9045 118.895 47.9045 118.03C47.9045 117.165 48.0607 116.417 48.3732 115.787C48.6856 115.156 49.1143 114.67 49.6591 114.329C50.2039 113.987 50.8262 113.816 51.5259 113.816C51.9399 113.816 52.3285 113.876 52.6917 113.996C53.0576 114.116 53.3874 114.293 53.6812 114.525C53.9749 114.755 54.2206 115.035 54.4183 115.366C54.6159 115.695 54.7521 116.07 54.8269 116.492ZM57.2495 118.431V122.132H56.3041V113.928H57.2495V116.941H57.3297C57.4739 116.623 57.6902 116.37 57.9786 116.183C58.2697 115.994 58.657 115.899 59.1404 115.899C59.5597 115.899 59.9269 115.983 60.242 116.151C60.5572 116.317 60.8016 116.572 60.9751 116.916C61.1514 117.258 61.2395 117.694 61.2395 118.222V122.132H60.2941V118.287C60.2941 117.798 60.1673 117.42 59.9135 117.153C59.6625 116.883 59.314 116.748 58.868 116.748C58.5582 116.748 58.2804 116.814 58.0347 116.945C57.7917 117.075 57.5994 117.266 57.4578 117.517C57.319 117.768 57.2495 118.073 57.2495 118.431ZM65.549 122.261C64.9561 122.261 64.4447 122.13 64.0147 121.868C63.5874 121.604 63.2576 121.235 63.0252 120.762C62.7956 120.287 62.6807 119.734 62.6807 119.104C62.6807 118.473 62.7956 117.918 63.0252 117.437C63.2576 116.954 63.5807 116.577 63.9947 116.308C64.4113 116.035 64.8974 115.899 65.4529 115.899C65.7734 115.899 66.0899 115.952 66.4023 116.059C66.7148 116.166 66.9992 116.34 67.2556 116.58C67.512 116.818 67.7163 117.133 67.8685 117.525C68.0208 117.918 68.0969 118.401 68.0969 118.976V119.376H63.3537V118.559H67.1354C67.1354 118.212 67.066 117.902 66.9271 117.63C66.7909 117.357 66.5959 117.142 66.3422 116.985C66.0912 116.827 65.7947 116.748 65.4529 116.748C65.0763 116.748 64.7505 116.842 64.4754 117.029C64.203 117.213 63.9934 117.453 63.8465 117.75C63.6996 118.046 63.6261 118.364 63.6261 118.703V119.248C63.6261 119.713 63.7063 120.107 63.8665 120.43C64.0294 120.75 64.2551 120.995 64.5435 121.163C64.832 121.328 65.1671 121.411 65.549 121.411C65.7974 121.411 66.0217 121.377 66.222 121.307C66.425 121.235 66.6 121.128 66.7468 120.987C66.8937 120.842 67.0072 120.663 67.0874 120.45L68.0007 120.706C67.9046 121.016 67.743 121.288 67.516 121.523C67.289 121.756 67.0086 121.937 66.6747 122.068C66.3409 122.196 65.9657 122.261 65.549 122.261ZM72.0348 122.261C71.4579 122.261 70.9612 122.124 70.5446 121.852C70.1279 121.579 69.8075 121.204 69.5831 120.726C69.3588 120.248 69.2466 119.702 69.2466 119.088C69.2466 118.463 69.3614 117.911 69.5911 117.433C69.8235 116.953 70.1466 116.577 70.5606 116.308C70.9772 116.035 71.4633 115.899 72.0188 115.899C72.4514 115.899 72.8414 115.979 73.1885 116.139C73.5357 116.3 73.8202 116.524 74.0418 116.812C74.2635 117.101 74.401 117.437 74.4545 117.822H73.509C73.4369 117.541 73.2767 117.293 73.0283 117.077C72.7826 116.858 72.4514 116.748 72.0348 116.748C71.6663 116.748 71.3431 116.844 71.0653 117.037C70.7903 117.226 70.5753 117.495 70.4204 117.842C70.2681 118.186 70.192 118.591 70.192 119.056C70.192 119.531 70.2668 119.945 70.4164 120.298C70.5686 120.65 70.7823 120.924 71.0573 121.119C71.3351 121.314 71.6609 121.411 72.0348 121.411C72.2805 121.411 72.5035 121.369 72.7038 121.283C72.9041 121.198 73.0737 121.075 73.2126 120.914C73.3515 120.754 73.4503 120.562 73.509 120.338H74.4545C74.401 120.701 74.2688 121.028 74.0579 121.319C73.8495 121.608 73.5731 121.837 73.2286 122.008C72.8868 122.176 72.4888 122.261 72.0348 122.261ZM76.7179 119.889L76.7018 118.719H76.8941L79.5862 115.979H80.7559L77.8876 118.879H77.8075L76.7179 119.889ZM75.8365 122.132V113.928H76.782V122.132H75.8365ZM79.7464 122.132L77.3428 119.088L78.0158 118.431L80.9482 122.132H79.7464ZM82.101 122.132V113.928H83.0464V116.957H83.1265C83.196 116.85 83.2921 116.713 83.4149 116.548C83.5405 116.38 83.7194 116.23 83.9518 116.099C84.1868 115.966 84.5046 115.899 84.9052 115.899C85.4233 115.899 85.88 116.028 86.2753 116.288C86.6705 116.547 86.979 116.914 87.2006 117.389C87.4223 117.865 87.5332 118.425 87.5332 119.072C87.5332 119.723 87.4223 120.288 87.2006 120.766C86.979 121.242 86.6719 121.61 86.2793 121.872C85.8867 122.131 85.434 122.261 84.9212 122.261C84.526 122.261 84.2095 122.195 83.9718 122.064C83.7341 121.931 83.5512 121.78 83.423 121.612C83.2948 121.441 83.196 121.299 83.1265 121.187H83.0143V122.132H82.101ZM83.0304 119.056C83.0304 119.52 83.0985 119.93 83.2347 120.286C83.3709 120.638 83.5698 120.914 83.8316 121.115C84.0933 121.312 84.4138 121.411 84.793 121.411C85.1883 121.411 85.5181 121.307 85.7825 121.099C86.0496 120.888 86.2499 120.605 86.3834 120.249C86.5196 119.892 86.5877 119.494 86.5877 119.056C86.5877 118.623 86.521 118.233 86.3874 117.886C86.2566 117.536 86.0576 117.26 85.7905 117.057C85.5261 116.851 85.1936 116.748 84.793 116.748C84.4084 116.748 84.0853 116.846 83.8236 117.041C83.5618 117.233 83.3642 117.503 83.2307 117.85C83.0971 118.194 83.0304 118.596 83.0304 119.056ZM91.4791 122.261C90.9236 122.261 90.4362 122.128 90.0169 121.864C89.6003 121.6 89.2744 121.23 89.0394 120.754C88.8071 120.279 88.6909 119.723 88.6909 119.088C88.6909 118.447 88.8071 117.887 89.0394 117.409C89.2744 116.931 89.6003 116.56 90.0169 116.296C90.4362 116.031 90.9236 115.899 91.4791 115.899C92.0346 115.899 92.5207 116.031 92.9373 116.296C93.3566 116.56 93.6824 116.931 93.9148 117.409C94.1498 117.887 94.2673 118.447 94.2673 119.088C94.2673 119.723 94.1498 120.279 93.9148 120.754C93.6824 121.23 93.3566 121.6 92.9373 121.864C92.5207 122.128 92.0346 122.261 91.4791 122.261ZM91.4791 121.411C91.9011 121.411 92.2482 121.303 92.5207 121.087C92.7931 120.87 92.9947 120.586 93.1256 120.233C93.2564 119.881 93.3219 119.499 93.3219 119.088C93.3219 118.676 93.2564 118.293 93.1256 117.938C92.9947 117.583 92.7931 117.296 92.5207 117.077C92.2482 116.858 91.9011 116.748 91.4791 116.748C91.0571 116.748 90.7099 116.858 90.4375 117.077C90.1651 117.296 89.9635 117.583 89.8326 117.938C89.7017 118.293 89.6363 118.676 89.6363 119.088C89.6363 119.499 89.7017 119.881 89.8326 120.233C89.9635 120.586 90.1651 120.87 90.4375 121.087C90.7099 121.303 91.0571 121.411 91.4791 121.411ZM96.1621 115.979L97.6364 118.495L99.1106 115.979H100.2L98.2132 119.056L100.2 122.132H99.1106L97.6364 119.745L96.1621 122.132H95.0725L97.0275 119.056L95.0725 115.979H96.1621ZM104.85 122.132V113.928H105.844V121.251H109.657V122.132H104.85ZM112.878 122.277C112.488 122.277 112.135 122.203 111.817 122.056C111.499 121.907 111.247 121.692 111.06 121.411C110.873 121.128 110.779 120.786 110.779 120.386C110.779 120.033 110.849 119.747 110.987 119.528C111.126 119.307 111.312 119.133 111.544 119.008C111.777 118.882 112.033 118.789 112.313 118.727C112.597 118.663 112.881 118.612 113.167 118.575C113.541 118.527 113.844 118.491 114.076 118.467C114.311 118.44 114.482 118.396 114.589 118.335C114.698 118.273 114.753 118.166 114.753 118.014V117.982C114.753 117.587 114.645 117.28 114.429 117.061C114.215 116.842 113.891 116.732 113.455 116.732C113.004 116.732 112.65 116.831 112.394 117.029C112.137 117.226 111.957 117.437 111.853 117.662L110.955 117.341C111.116 116.967 111.329 116.676 111.596 116.468C111.866 116.257 112.16 116.11 112.478 116.027C112.798 115.942 113.113 115.899 113.423 115.899C113.621 115.899 113.848 115.923 114.104 115.971C114.363 116.016 114.613 116.111 114.853 116.255C115.096 116.4 115.298 116.617 115.458 116.908C115.618 117.2 115.699 117.589 115.699 118.078V122.132H114.753V121.299H114.705C114.641 121.433 114.534 121.575 114.385 121.728C114.235 121.88 114.036 122.009 113.788 122.116C113.539 122.223 113.236 122.277 112.878 122.277ZM113.023 121.427C113.396 121.427 113.712 121.354 113.968 121.207C114.227 121.06 114.422 120.87 114.553 120.638C114.686 120.406 114.753 120.161 114.753 119.905V119.04C114.713 119.088 114.625 119.132 114.489 119.172C114.355 119.209 114.2 119.243 114.024 119.272C113.85 119.299 113.681 119.323 113.515 119.344C113.352 119.363 113.22 119.379 113.119 119.392C112.873 119.424 112.643 119.476 112.43 119.548C112.219 119.618 112.048 119.723 111.917 119.865C111.789 120.004 111.725 120.193 111.725 120.434C111.725 120.762 111.846 121.011 112.089 121.179C112.335 121.344 112.646 121.427 113.023 121.427ZM117.552 122.132V113.928H118.498V116.957H118.578C118.647 116.85 118.743 116.713 118.866 116.548C118.992 116.38 119.171 116.23 119.403 116.099C119.638 115.966 119.956 115.899 120.357 115.899C120.875 115.899 121.331 116.028 121.727 116.288C122.122 116.547 122.43 116.914 122.652 117.389C122.874 117.865 122.985 118.425 122.985 119.072C122.985 119.723 122.874 120.288 122.652 120.766C122.43 121.242 122.123 121.61 121.731 121.872C121.338 122.131 120.885 122.261 120.373 122.261C119.977 122.261 119.661 122.195 119.423 122.064C119.185 121.931 119.003 121.78 118.874 121.612C118.746 121.441 118.647 121.299 118.578 121.187H118.466V122.132H117.552ZM118.482 119.056C118.482 119.52 118.55 119.93 118.686 120.286C118.822 120.638 119.021 120.914 119.283 121.115C119.545 121.312 119.865 121.411 120.244 121.411C120.64 121.411 120.97 121.307 121.234 121.099C121.501 120.888 121.701 120.605 121.835 120.249C121.971 119.892 122.039 119.494 122.039 119.056C122.039 118.623 121.972 118.233 121.839 117.886C121.708 117.536 121.509 117.26 121.242 117.057C120.978 116.851 120.645 116.748 120.244 116.748C119.86 116.748 119.537 116.846 119.275 117.041C119.013 117.233 118.816 117.503 118.682 117.85C118.549 118.194 118.482 118.596 118.482 119.056ZM127.011 122.261C126.418 122.261 125.906 122.13 125.476 121.868C125.049 121.604 124.719 121.235 124.487 120.762C124.257 120.287 124.142 119.734 124.142 119.104C124.142 118.473 124.257 117.918 124.487 117.437C124.719 116.954 125.042 116.577 125.456 116.308C125.873 116.035 126.359 115.899 126.914 115.899C127.235 115.899 127.551 115.952 127.864 116.059C128.176 116.166 128.461 116.34 128.717 116.58C128.974 116.818 129.178 117.133 129.33 117.525C129.482 117.918 129.558 118.401 129.558 118.976V119.376H124.815V118.559H128.597C128.597 118.212 128.528 117.902 128.389 117.63C128.252 117.357 128.058 117.142 127.804 116.985C127.553 116.827 127.256 116.748 126.914 116.748C126.538 116.748 126.212 116.842 125.937 117.029C125.665 117.213 125.455 117.453 125.308 117.75C125.161 118.046 125.088 118.364 125.088 118.703V119.248C125.088 119.713 125.168 120.107 125.328 120.43C125.491 120.75 125.717 120.995 126.005 121.163C126.294 121.328 126.629 121.411 127.011 121.411C127.259 121.411 127.483 121.377 127.684 121.307C127.887 121.235 128.062 121.128 128.208 120.987C128.355 120.842 128.469 120.663 128.549 120.45L129.462 120.706C129.366 121.016 129.205 121.288 128.978 121.523C128.751 121.756 128.47 121.937 128.136 122.068C127.802 122.196 127.427 122.261 127.011 122.261ZM131.942 113.928V122.132H130.997V113.928H131.942Z" fill="#424E56"/>
</g>
<path d="M21.4463 51.3038H203.554C206.891 51.3038 209.597 54.0095 209.597 57.3472V286.19C209.597 289.528 206.891 292.234 203.554 292.234H21.4463C18.1086 292.234 15.4029 289.528 15.4029 286.19V57.3472C15.4029 54.0095 18.1086 51.3038 21.4463 51.3038Z" stroke="#DADFE2" stroke-width="0.805785"/>
</g>
</g>
<defs>
<filter id="filter0_dd_2314_47858" x="11.7769" y="5.77686" width="201.446" height="48.3472" filterUnits="userSpaceOnUse" color-interpolation-filters="sRGB">
<feFlood flood-opacity="0" result="BackgroundImageFix"/>
<feColorMatrix in="SourceAlpha" type="matrix" values="0 0 0 0 0 0 0 0 0 0 0 0 0 0 0 0 0 0 127 0" result="hardAlpha"/>
<feMorphology radius="3.22314" operator="dilate" in="SourceAlpha" result="effect1_dropShadow_2314_47858"/>
<feOffset/>
<feColorMatrix type="matrix" values="0 0 0 0 0.5184 0 0 0 0 0.59064 0 0 0 0 0.6216 0 0 0 1 0"/>
<feBlend mode="normal" in2="BackgroundImageFix" result="effect1_dropShadow_2314_47858"/>
<feColorMatrix in="SourceAlpha" type="matrix" values="0 0 0 0 0 0 0 0 0 0 0 0 0 0 0 0 0 0 127 0" result="hardAlpha"/>
<feMorphology radius="1.61157" operator="dilate" in="SourceAlpha" result="effect2_dropShadow_2314_47858"/>
<feOffset/>
<feColorMatrix type="matrix" values="0 0 0 0 1 0 0 0 0 1 0 0 0 0 1 0 0 0 1 0"/>
<feBlend mode="normal" in2="effect1_dropShadow_2314_47858" result="effect2_dropShadow_2314_47858"/>
<feBlend mode="normal" in="SourceGraphic" in2="effect2_dropShadow_2314_47858" result="shape"/>
</filter>
<filter id="filter1_dd_2314_47858" x="5.33058" y="44.4546" width="214.339" height="261.074" filterUnits="userSpaceOnUse" color-interpolation-filters="sRGB">
<feFlood flood-opacity="0" result="BackgroundImageFix"/>
<feColorMatrix in="SourceAlpha" type="matrix" values="0 0 0 0 0 0 0 0 0 0 0 0 0 0 0 0 0 0 127 0" result="hardAlpha"/>
<feOffset dy="3.22314"/>
<feGaussianBlur stdDeviation="4.83471"/>
<feColorMatrix type="matrix" values="0 0 0 0 0 0 0 0 0 0 0 0 0 0 0 0 0 0 0.05 0"/>
<feBlend mode="normal" in2="BackgroundImageFix" result="effect1_dropShadow_2314_47858"/>
<feColorMatrix in="SourceAlpha" type="matrix" values="0 0 0 0 0 0 0 0 0 0 0 0 0 0 0 0 0 0 127 0" result="hardAlpha"/>
<feOffset dy="0.805785"/>
<feGaussianBlur stdDeviation="1.61157"/>
<feColorMatrix type="matrix" values="0 0 0 0 0 0 0 0 0 0 0 0 0 0 0 0 0 0 0.1 0"/>
<feBlend mode="normal" in2="effect1_dropShadow_2314_47858" result="effect2_dropShadow_2314_47858"/>
<feBlend mode="normal" in="SourceGraphic" in2="effect2_dropShadow_2314_47858" result="shape"/>
</filter>
<clipPath id="clip0_2314_47858">
<rect width="224" height="117" fill="white"/>
</clipPath>
<clipPath id="clip1_2314_47858">
<path d="M15 57.3472C15 53.787 17.8861 50.9009 21.4463 50.9009H203.554C207.114 50.9009 210 53.787 210 57.3472V286.19C210 289.75 207.114 292.636 203.554 292.636H21.4463C17.8861 292.636 15 289.75 15 286.19V57.3472Z" fill="white"/>
</clipPath>
</defs>
</svg>
