<svg width="224" height="117" viewBox="0 0 224 117" fill="none" xmlns="http://www.w3.org/2000/svg">
<g clip-path="url(#clip0_2815_11480)">
<path d="M246 117C246 81.461 231.882 47.3776 206.752 22.2477C181.622 -2.88218 147.539 -17 112 -17C76.461 -17 42.3776 -2.88219 17.2477 22.2477C-7.88217 47.3776 -22 81.461 -22 117L246 117Z" fill="#5D757E"/>
<path d="M212.643 117C212.643 90.3079 202.04 64.7089 183.166 45.8346C164.291 26.9604 138.692 16.3569 112 16.3569C85.3079 16.3569 59.7089 26.9604 40.8346 45.8346C21.9604 64.7089 11.3569 90.3079 11.3569 117L212.643 117Z" fill="#3F5D69"/>
<path d="M166.294 117C166.294 102.6 160.574 88.7902 150.392 78.608C140.21 68.4258 126.4 62.7056 112 62.7056C97.6002 62.7056 83.7902 68.4258 73.608 78.608C63.4258 88.7902 57.7056 102.6 57.7056 117L166.294 117Z" fill="#032B3A"/>
<path d="M86.4195 64.0602L100.282 30L69.0912 69.4179C65.281 74.233 68.7104 81.3198 74.8507 81.3198H110.901V64.0602H86.4195Z" fill="#F2C94C"/>
<path d="M73.322 53.6554L100.252 30.0305L88.0111 53.6554H73.322Z" fill="#F2C94C"/>
<path d="M138.015 64.0602L124.152 30L155.343 69.4179C159.153 74.233 155.724 81.3198 149.584 81.3198H113.533V64.0602H138.015Z" fill="#8F762D"/>
<path d="M151.113 53.6554L124.183 30.0305L136.424 53.6554H151.113Z" fill="#8F762D"/>
<path d="M117.558 53.0127L126.63 91.9385H97.8647L106.937 53.0127L112.248 51.1768L117.558 53.0127Z" fill="#F2C94C"/>
<path d="M112.248 30.0613L118.926 45.5766H105.569L112.248 30.0613Z" fill="#F2C94C"/>
<g style="mix-blend-mode:multiply">
<path d="M112.248 40.8333L118.919 45.4848H105.577L112.248 40.8333Z" fill="#BA9A3A"/>
</g>
<g style="mix-blend-mode:multiply">
<path d="M112.248 85.2676L126.631 92.0001H97.8647L112.248 85.2676Z" fill="#BA9A3A"/>
</g>
<g style="mix-blend-mode:multiply">
<path d="M112.431 41.0779V30.5508L118.797 45.6071L112.431 41.0779Z" fill="#C4C4C4"/>
</g>
<path d="M112.309 69.7829L112.248 51.1768L117.583 53.0129L120.143 64.0603L112.309 69.7829Z" fill="#BA9A3A"/>
<path d="M112.309 69.844V85.2675L126.631 92L124.152 81.3198L112.309 69.844Z" fill="#BA9A3A"/>
<path d="M86.4197 64.0601L100.252 30.0305L77.3003 69.8439L86.4197 64.0601Z" fill="#BA9A3A"/>
<path d="M138.015 64.0909L124.183 30.0613L146.767 69.8441L138.015 64.0909Z" fill="#F2C94C"/>
<path d="M81.5846 53.6556L86.3891 47.627L73.322 53.6556H81.5846Z" fill="#B07911"/>
<path d="M142.911 53.5637L136.362 47.5657L150.929 53.5637H142.911Z" fill="#B07911"/>
<path d="M155.703 78.076L146.767 69.844H112.309L124.183 81.3504H149.429C153.493 81.3504 155.305 79.1675 155.703 78.076Z" fill="#B07911"/>
<path d="M68.9153 78.076L77.3003 69.844H112.309L100.436 81.3504H75.1887C71.1248 81.3504 69.3131 79.1675 68.9153 78.076Z" fill="#B07911"/>
<path d="M120.143 64.0908H138.627L146.767 69.844H113.472L120.143 64.0908Z" fill="#F2C94C"/>
</g>
<defs>
<clipPath id="clip0_2815_11480">
<path d="M0 8C0 3.58172 3.58172 0 8 0H216C220.418 0 224 3.58172 224 8V109C224 113.418 220.418 117 216 117H8C3.58172 117 0 113.418 0 109V8Z" fill="white"/>
</clipPath>
</defs>
</svg>
