<svg width="224" height="117" viewBox="0 0 224 117" fill="none" xmlns="http://www.w3.org/2000/svg">
<path d="M7 20.3086C7 18.3402 8.5957 16.7445 10.5641 16.7445H213.436C215.404 16.7445 217 18.3402 217 20.3086V96.9979C217 98.9663 215.404 100.562 213.436 100.562H10.5641C8.5957 100.562 7 98.9663 7 96.9979V20.3086Z" fill="white"/>
<path d="M18.692 31.2118H23.1984C25.6113 31.2118 27.2892 32.8577 27.2892 35.0949C27.2892 37.3321 25.6113 38.9781 23.1984 38.9781H21.4086V42.3978H18.692V31.2118ZM21.3607 36.5491H23.0226C23.8855 36.5491 24.5566 35.9419 24.5566 35.0949C24.5566 34.248 23.8855 33.6408 23.0226 33.6408H21.3607V36.5491ZM31.7194 42.6215C29.7539 42.6215 27.9801 40.8158 27.9801 38.3229C27.9801 35.83 29.7539 34.0243 31.7194 34.0243C32.9179 34.0243 33.7648 34.6635 34.0844 35.047H34.1643L34.5319 34.248H36.4015V42.3978H34.5319L34.1643 41.5988H34.0844C33.7648 41.9823 32.9179 42.6215 31.7194 42.6215ZM32.1828 40.3364C33.0937 40.3364 33.8767 39.5054 33.8767 38.3229C33.8767 37.1404 33.0937 36.3094 32.1828 36.3094C31.272 36.3094 30.5049 37.1404 30.5049 38.3229C30.5049 39.5054 31.272 40.3364 32.1828 40.3364ZM42.0473 45.434C39.075 45.434 38.2441 43.3725 38.1162 42.7493L40.705 42.6215C40.8328 42.9251 41.2643 43.2926 42.0313 43.2926C42.9582 43.2926 43.5494 42.7493 43.5494 41.8225V41.1833H43.4695C43.2298 41.4709 42.5746 42.0142 41.488 42.0142C39.4745 42.0142 37.7647 40.2565 37.7647 38.0033C37.7647 35.7821 39.4745 34.0243 41.4401 34.0243C42.6066 34.0243 43.3896 34.6315 43.7572 35.047H43.8371L44.2206 34.248H46.0742V41.6946C46.0742 43.9478 44.5402 45.434 42.0473 45.434ZM41.9195 39.8889C42.7984 39.8889 43.5494 39.1059 43.5494 38.0352C43.5494 36.9486 42.7984 36.1816 41.9195 36.1816C41.0246 36.1816 40.2895 36.9486 40.2895 38.0352C40.2895 39.1059 41.0246 39.8889 41.9195 39.8889ZM55.8135 38.1791C55.8135 38.6265 55.7656 38.9461 55.7176 39.1059H49.9009C50.1406 40.0008 50.8118 40.4962 51.6747 40.4962C52.4737 40.4962 52.8892 40.0967 53.049 39.9209L55.5738 40.0327C55.1264 41.1833 53.7841 42.6215 51.7067 42.6215C49.3257 42.6215 47.44 40.6879 47.44 38.3229C47.44 35.9898 49.3576 34.0243 51.6907 34.0243C54.0557 34.0243 55.8135 35.878 55.8135 38.1791ZM51.6587 36.1177C50.8118 36.1177 50.1247 36.645 49.885 37.5399H53.4165C53.2248 36.7089 52.5536 36.1177 51.6587 36.1177ZM66.0643 42.3978H63.3477V33.8165H60.1517V31.2118H69.2443V33.8165H66.0643V42.3978ZM71.5886 33.3212C70.7896 33.3212 70.1823 32.7139 70.1823 31.9629C70.1823 31.1958 70.7896 30.6046 71.5886 30.6046C72.3716 30.6046 72.9788 31.1958 72.9788 31.9629C72.9788 32.7139 72.3716 33.3212 71.5886 33.3212ZM72.851 42.3978H70.3262V34.248H72.851V42.3978ZM78.1024 42.6215C76.3606 42.6215 75.1781 41.4709 75.1781 39.5054V36.4532H73.9316V34.4078H74.5229C75.1141 34.4078 75.4657 34.0562 75.4657 33.481V32.1706H77.7029V34.248H79.3488V36.4532H77.7029V39.1059C77.7029 39.8729 78.1024 40.2245 78.7735 40.2245C78.9653 40.2245 79.189 40.1925 79.3488 40.1126V42.4137C79.1091 42.5096 78.6777 42.6215 78.1024 42.6215ZM83.3709 42.3978H80.8461V31.2118H83.3709V42.3978ZM93.1884 38.1791C93.1884 38.6265 93.1405 38.9461 93.0926 39.1059H87.2759C87.5156 40.0008 88.1867 40.4962 89.0496 40.4962C89.8486 40.4962 90.2641 40.0967 90.4239 39.9209L92.9487 40.0327C92.5013 41.1833 91.159 42.6215 89.0816 42.6215C86.7006 42.6215 84.815 40.6879 84.815 38.3229C84.815 35.9898 86.7326 34.0243 89.0656 34.0243C91.4307 34.0243 93.1884 35.878 93.1884 38.1791ZM89.0337 36.1177C88.1867 36.1177 87.4996 36.645 87.2599 37.5399H90.7915C90.5997 36.7089 89.9285 36.1177 89.0337 36.1177Z" fill="#032B3A"/>
<path d="M18.1628 55.9489V50.7836H20.0997C20.4966 50.7836 20.8295 50.8576 21.0985 51.0056C21.3692 51.1535 21.5735 51.357 21.7114 51.6159C21.8509 51.8732 21.9207 52.1657 21.9207 52.4936C21.9207 52.8248 21.8509 53.1191 21.7114 53.3763C21.5718 53.6336 21.3658 53.8362 21.0934 53.9841C20.8211 54.1304 20.4856 54.2036 20.0871 54.2036H18.8034V53.4343H19.961C20.1931 53.4343 20.3831 53.394 20.531 53.3133C20.679 53.2326 20.7883 53.1216 20.8589 52.9804C20.9312 52.8391 20.9673 52.6769 20.9673 52.4936C20.9673 52.3103 20.9312 52.1489 20.8589 52.0094C20.7883 51.8698 20.6781 51.7614 20.5285 51.684C20.3805 51.605 20.1897 51.5655 19.956 51.5655H19.0985V55.9489H18.1628ZM23.7385 56.027C23.493 56.027 23.2719 55.9833 23.0752 55.8959C22.8801 55.8068 22.7254 55.6756 22.6111 55.5024C22.4985 55.3293 22.4421 55.1157 22.4421 54.8618C22.4421 54.6433 22.4825 54.4625 22.5632 54.3196C22.6439 54.1767 22.754 54.0623 22.8936 53.9766C23.0331 53.8908 23.1903 53.8261 23.3652 53.7824C23.5418 53.737 23.7242 53.7042 23.9125 53.684C24.1395 53.6605 24.3236 53.6395 24.4648 53.621C24.6061 53.6008 24.7086 53.5705 24.7725 53.5302C24.8381 53.4881 24.8709 53.4234 24.8709 53.336V53.3208C24.8709 53.1308 24.8146 52.9837 24.7019 52.8795C24.5893 52.7752 24.427 52.7231 24.2152 52.7231C23.9915 52.7231 23.8141 52.7719 23.683 52.8694C23.5535 52.9669 23.4661 53.0821 23.4207 53.2149L22.5682 53.0939C22.6355 52.8585 22.7465 52.6617 22.9011 52.5037C23.0558 52.344 23.245 52.2246 23.4686 52.1455C23.6922 52.0648 23.9394 52.0245 24.2101 52.0245C24.3967 52.0245 24.5825 52.0463 24.7675 52.0901C24.9524 52.1338 25.1214 52.2061 25.2744 52.307C25.4274 52.4062 25.5502 52.5415 25.6427 52.713C25.7368 52.8845 25.7839 53.0989 25.7839 53.3561V55.9489H24.9062V55.4167H24.8759C24.8205 55.5243 24.7423 55.6252 24.6414 55.7193C24.5422 55.8118 24.4169 55.8866 24.2656 55.9438C24.116 55.9993 23.9402 56.027 23.7385 56.027ZM23.9756 55.3562C24.1588 55.3562 24.3177 55.32 24.4522 55.2477C24.5867 55.1737 24.6901 55.0762 24.7624 54.9552C24.8364 54.8341 24.8734 54.7021 24.8734 54.5592V54.1027C24.8448 54.1262 24.7961 54.1481 24.7271 54.1683C24.6599 54.1884 24.5842 54.2061 24.5001 54.2212C24.4161 54.2364 24.3329 54.2498 24.2505 54.2616C24.1681 54.2733 24.0966 54.2834 24.0361 54.2918C23.8999 54.3103 23.778 54.3406 23.6704 54.3826C23.5628 54.4247 23.4779 54.4835 23.4157 54.5592C23.3534 54.6332 23.3223 54.729 23.3223 54.8467C23.3223 55.0148 23.3837 55.1418 23.5064 55.2275C23.6292 55.3133 23.7856 55.3562 23.9756 55.3562ZM28.3867 57.4823C28.0588 57.4823 27.7772 57.4377 27.5418 57.3486C27.3064 57.2612 27.1172 57.1435 26.9743 56.9955C26.8314 56.8476 26.7322 56.6836 26.6767 56.5037L27.4989 56.3045C27.5359 56.3801 27.5897 56.455 27.6603 56.5289C27.7309 56.6046 27.8259 56.6668 27.9453 56.7156C28.0664 56.766 28.2185 56.7912 28.4018 56.7912C28.6607 56.7912 28.8751 56.7282 29.0449 56.6021C29.2148 56.4776 29.2997 56.2725 29.2997 55.9867V55.2528H29.2543C29.2072 55.3469 29.1383 55.4436 29.0475 55.5428C28.9584 55.642 28.8398 55.7252 28.6919 55.7925C28.5456 55.8597 28.3615 55.8934 28.1395 55.8934C27.8419 55.8934 27.572 55.8236 27.3299 55.684C27.0895 55.5428 26.8978 55.3326 26.7549 55.0535C26.6137 54.7727 26.543 54.4213 26.543 53.9993C26.543 53.5739 26.6137 53.2149 26.7549 52.9224C26.8978 52.6281 27.0903 52.4053 27.3325 52.254C27.5746 52.101 27.8444 52.0245 28.142 52.0245C28.369 52.0245 28.5557 52.0632 28.7019 52.1405C28.8499 52.2162 28.9676 52.3078 29.055 52.4154C29.1425 52.5213 29.2089 52.6214 29.2543 52.7155H29.3047V52.0749H30.2051V56.0119C30.2051 56.3431 30.1261 56.6172 29.968 56.8341C29.81 57.051 29.5939 57.2133 29.3199 57.3209C29.0458 57.4285 28.7347 57.4823 28.3867 57.4823ZM28.3942 55.1771C28.5876 55.1771 28.7524 55.13 28.8886 55.0359C29.0248 54.9417 29.1282 54.8063 29.1988 54.6298C29.2694 54.4533 29.3047 54.2414 29.3047 53.9942C29.3047 53.7504 29.2694 53.5369 29.1988 53.3536C29.1299 53.1704 29.0273 53.0283 28.8911 52.9274C28.7566 52.8248 28.591 52.7735 28.3942 52.7735C28.1908 52.7735 28.021 52.8265 27.8848 52.9324C27.7486 53.0384 27.646 53.1838 27.5771 53.3688C27.5082 53.552 27.4737 53.7605 27.4737 53.9942C27.4737 54.2313 27.5082 54.439 27.5771 54.6172C27.6477 54.7937 27.7511 54.9316 27.8873 55.0308C28.0252 55.1283 28.1942 55.1771 28.3942 55.1771ZM32.8558 56.0245C32.4674 56.0245 32.132 55.9438 31.8495 55.7824C31.5687 55.6193 31.3527 55.3889 31.2013 55.0913C31.05 54.7921 30.9743 54.4398 30.9743 54.0346C30.9743 53.6361 31.05 53.2864 31.2013 52.9854C31.3543 52.6828 31.5679 52.4474 31.8419 52.2792C32.116 52.1094 32.438 52.0245 32.8079 52.0245C33.0467 52.0245 33.272 52.0632 33.4838 52.1405C33.6974 52.2162 33.8857 52.3339 34.0488 52.4936C34.2135 52.6533 34.343 52.8568 34.4372 53.1039C34.5313 53.3494 34.5784 53.642 34.5784 53.9816V54.2616H31.4031V53.6462H33.7032C33.7016 53.4713 33.6637 53.3158 33.5897 53.1796C33.5158 53.0417 33.4124 52.9333 33.2795 52.8543C33.1484 52.7752 32.9954 52.7357 32.8205 52.7357C32.6339 52.7357 32.4699 52.7811 32.3287 52.8719C32.1875 52.961 32.0773 53.0787 31.9983 53.225C31.921 53.3696 31.8815 53.5285 31.8798 53.7017V54.2389C31.8798 54.4642 31.921 54.6575 32.0034 54.819C32.0857 54.9787 32.2009 55.1014 32.3489 55.1872C32.4968 55.2713 32.67 55.3133 32.8684 55.3133C33.0013 55.3133 33.1215 55.2948 33.2291 55.2578C33.3367 55.2191 33.43 55.1628 33.509 55.0888C33.5881 55.0148 33.6478 54.9232 33.6881 54.8139L34.5406 54.9098C34.4868 55.1351 34.3842 55.3318 34.2329 55.4999C34.0832 55.6664 33.8916 55.7958 33.6578 55.8883C33.4241 55.9791 33.1568 56.0245 32.8558 56.0245ZM39.9599 52.2036C39.9364 51.9833 39.8372 51.8118 39.6623 51.6891C39.4891 51.5663 39.2638 51.5049 38.9864 51.5049C38.7913 51.5049 38.624 51.5344 38.4845 51.5932C38.3449 51.6521 38.2382 51.7319 38.1642 51.8328C38.0902 51.9337 38.0524 52.0489 38.0507 52.1783C38.0507 52.2859 38.0751 52.3793 38.1238 52.4583C38.1743 52.5373 38.2424 52.6046 38.3281 52.6601C38.4139 52.7139 38.5089 52.7593 38.6131 52.7962C38.7174 52.8332 38.8224 52.8643 38.9284 52.8896L39.4126 53.0106C39.6076 53.056 39.7951 53.1174 39.975 53.1947C40.1566 53.2721 40.3189 53.3696 40.4618 53.4873C40.6064 53.605 40.7207 53.7471 40.8048 53.9135C40.8889 54.08 40.9309 54.275 40.9309 54.4987C40.9309 54.8013 40.8536 55.0678 40.6989 55.2982C40.5442 55.5268 40.3206 55.7059 40.028 55.8354C39.7371 55.9631 39.3849 56.027 38.9712 56.027C38.5694 56.027 38.2205 55.9648 37.9246 55.8404C37.6303 55.716 37.4 55.5344 37.2335 55.2956C37.0687 55.0569 36.9796 54.766 36.9662 54.423H37.8867C37.9002 54.6029 37.9557 54.7525 38.0532 54.8719C38.1507 54.9913 38.2777 55.0804 38.434 55.1393C38.5921 55.1981 38.7686 55.2275 38.9637 55.2275C39.1671 55.2275 39.3453 55.1973 39.4984 55.1367C39.653 55.0745 39.7741 54.9888 39.8615 54.8795C39.949 54.7685 39.9935 54.639 39.9952 54.4911C39.9935 54.3566 39.954 54.2456 39.8767 54.1582C39.7993 54.0691 39.6909 53.9951 39.5513 53.9362C39.4134 53.8757 39.252 53.8219 39.0671 53.7748L38.4794 53.6235C38.054 53.5142 37.7178 53.3486 37.4706 53.1266C37.2251 52.903 37.1024 52.6062 37.1024 52.2363C37.1024 51.932 37.1848 51.6655 37.3495 51.4368C37.516 51.2082 37.7421 51.0308 38.028 50.9047C38.3138 50.7769 38.6375 50.713 38.999 50.713C39.3655 50.713 39.6867 50.7769 39.9624 50.9047C40.2398 51.0308 40.4576 51.2065 40.6156 51.4318C40.7737 51.6554 40.8552 51.9127 40.8603 52.2036H39.9599ZM44.1938 54.3196V52.0749H45.1068V55.9489H44.2216V55.2603H44.1812C44.0938 55.4772 43.95 55.6546 43.75 55.7925C43.5516 55.9304 43.3069 55.9993 43.016 55.9993C42.7621 55.9993 42.5377 55.943 42.3426 55.8303C42.1493 55.716 41.998 55.5504 41.8887 55.3335C41.7794 55.1149 41.7247 54.8509 41.7247 54.5415V52.0749H42.6377V54.4003C42.6377 54.6458 42.705 54.8408 42.8395 54.9854C42.974 55.13 43.1505 55.2023 43.3691 55.2023C43.5036 55.2023 43.6339 55.1695 43.76 55.104C43.8862 55.0384 43.9896 54.9409 44.0703 54.8114C44.1527 54.6802 44.1938 54.5163 44.1938 54.3196ZM46.086 55.9489V50.7836H46.999V52.7155H47.0369C47.0839 52.6214 47.1504 52.5213 47.2361 52.4154C47.3219 52.3078 47.4379 52.2162 47.5842 52.1405C47.7304 52.0632 47.9171 52.0245 48.1441 52.0245C48.4433 52.0245 48.7132 52.101 48.9537 52.254C49.1958 52.4053 49.3875 52.6298 49.5287 52.9274C49.6716 53.2233 49.7431 53.5865 49.7431 54.0169C49.7431 54.4423 49.6733 54.8038 49.5337 55.1014C49.3942 55.399 49.2042 55.626 48.9637 55.7824C48.7233 55.9388 48.4509 56.0169 48.1466 56.0169C47.9246 56.0169 47.7405 55.98 47.5942 55.906C47.448 55.832 47.3303 55.7429 47.2412 55.6386C47.1537 55.5327 47.0856 55.4327 47.0369 55.3385H46.9839V55.9489H46.086ZM46.9814 54.0119C46.9814 54.2624 47.0167 54.4818 47.0873 54.6702C47.1596 54.8585 47.263 55.0056 47.3975 55.1115C47.5337 55.2158 47.6985 55.2679 47.8919 55.2679C48.0936 55.2679 48.2626 55.2141 48.3988 55.1065C48.535 54.9972 48.6376 54.8484 48.7065 54.6601C48.7771 54.4701 48.8124 54.254 48.8124 54.0119C48.8124 53.7715 48.7779 53.5579 48.709 53.3713C48.6401 53.1846 48.5375 53.0384 48.4013 52.9324C48.2651 52.8265 48.0953 52.7735 47.8919 52.7735C47.6968 52.7735 47.5312 52.8248 47.395 52.9274C47.2588 53.03 47.1554 53.1737 47.0848 53.3587C47.0158 53.5436 46.9814 53.7614 46.9814 54.0119ZM52.4537 52.0749V52.7811H50.2267V52.0749H52.4537ZM50.7765 51.1468H51.6895V54.7836C51.6895 54.9064 51.708 55.0005 51.745 55.0661C51.7836 55.13 51.8341 55.1737 51.8963 55.1973C51.9585 55.2208 52.0274 55.2326 52.1031 55.2326C52.1603 55.2326 52.2124 55.2284 52.2595 55.22C52.3082 55.2116 52.3452 55.204 52.3704 55.1973L52.5243 55.911C52.4755 55.9278 52.4058 55.9463 52.315 55.9665C52.2258 55.9867 52.1166 55.9985 51.9871 56.0018C51.7584 56.0085 51.5525 55.9741 51.3692 55.8984C51.1859 55.8211 51.0405 55.7017 50.9329 55.5403C50.8269 55.3789 50.7748 55.1771 50.7765 54.935V51.1468ZM53.2172 55.9489V52.0749H54.1302V55.9489H53.2172ZM53.6763 51.5251C53.5317 51.5251 53.4072 51.4772 53.303 51.3814C53.1987 51.2838 53.1466 51.167 53.1466 51.0308C53.1466 50.8929 53.1987 50.7761 53.303 50.6802C53.4072 50.5827 53.5317 50.5339 53.6763 50.5339C53.8225 50.5339 53.947 50.5827 54.0495 50.6802C54.1538 50.7761 54.2059 50.8929 54.2059 51.0308C54.2059 51.167 54.1538 51.2838 54.0495 51.3814C53.947 51.4772 53.8225 51.5251 53.6763 51.5251ZM57.0035 52.0749V52.7811H54.7765V52.0749H57.0035ZM55.3263 51.1468H56.2393V54.7836C56.2393 54.9064 56.2578 55.0005 56.2948 55.0661C56.3335 55.13 56.3839 55.1737 56.4461 55.1973C56.5083 55.2208 56.5773 55.2326 56.6529 55.2326C56.7101 55.2326 56.7622 55.2284 56.8093 55.22C56.8581 55.2116 56.8951 55.204 56.9203 55.1973L57.0741 55.911C57.0254 55.9278 56.9556 55.9463 56.8648 55.9665C56.7757 55.9867 56.6664 55.9985 56.5369 56.0018C56.3083 56.0085 56.1023 55.9741 55.919 55.8984C55.7357 55.8211 55.5903 55.7017 55.4827 55.5403C55.3768 55.3789 55.3246 55.1771 55.3263 54.935V51.1468ZM58.7633 50.7836V55.9489H57.8503V50.7836H58.7633ZM61.4172 56.0245C61.0288 56.0245 60.6933 55.9438 60.4109 55.7824C60.1301 55.6193 59.914 55.3889 59.7627 55.0913C59.6114 54.7921 59.5357 54.4398 59.5357 54.0346C59.5357 53.6361 59.6114 53.2864 59.7627 52.9854C59.9157 52.6828 60.1292 52.4474 60.4033 52.2792C60.6774 52.1094 60.9993 52.0245 61.3692 52.0245C61.608 52.0245 61.8333 52.0632 62.0452 52.1405C62.2587 52.2162 62.447 52.3339 62.6101 52.4936C62.7749 52.6533 62.9044 52.8568 62.9985 53.1039C63.0927 53.3494 63.1397 53.642 63.1397 53.9816V54.2616H59.9644V53.6462H62.2646C62.2629 53.4713 62.2251 53.3158 62.1511 53.1796C62.0771 53.0417 61.9737 52.9333 61.8409 52.8543C61.7097 52.7752 61.5567 52.7357 61.3819 52.7357C61.1952 52.7357 61.0313 52.7811 60.89 52.8719C60.7488 52.961 60.6387 53.0787 60.5597 53.225C60.4823 53.3696 60.4428 53.5285 60.4411 53.7017V54.2389C60.4411 54.4642 60.4823 54.6575 60.5647 54.819C60.6471 54.9787 60.7623 55.1014 60.9102 55.1872C61.0582 55.2713 61.2314 55.3133 61.4298 55.3133C61.5626 55.3133 61.6828 55.2948 61.7904 55.2578C61.898 55.2191 61.9914 55.1628 62.0704 55.0888C62.1494 55.0148 62.2091 54.9232 62.2495 54.8139L63.1019 54.9098C63.0481 55.1351 62.9455 55.3318 62.7942 55.4999C62.6446 55.6664 62.4529 55.7958 62.2192 55.8883C61.9855 55.9791 61.7181 56.0245 61.4172 56.0245Z" fill="#627A84"/>
<g clip-path="url(#clip0_4_5839)">
<path d="M104.958 30.9938C104.958 29.0078 106.568 27.3978 108.554 27.3978H160.566C162.552 27.3978 164.162 29.0078 164.162 30.9938V41.5572C164.162 43.5432 162.552 45.1532 160.566 45.1532H108.554C106.568 45.1532 104.958 43.5432 104.958 41.5572V30.9938Z" fill="#388523"/>
<path d="M104.958 30.9938C104.958 29.0078 106.568 27.3978 108.554 27.3978H160.566C162.552 27.3978 164.162 29.0078 164.162 30.9938V41.5572C164.162 43.5432 162.552 45.1532 160.566 45.1532H108.554C106.568 45.1532 104.958 43.5432 104.958 41.5572V30.9938Z" stroke="#388523"/>
<path d="M112.783 37.7755V33.2559H114.477C114.825 33.2559 115.116 33.3207 115.351 33.4501C115.588 33.5796 115.767 33.7576 115.888 33.9842C116.01 34.2093 116.071 34.4653 116.071 34.7522C116.071 35.042 116.01 35.2995 115.888 35.5246C115.765 35.7496 115.585 35.9269 115.347 36.0564C115.108 36.1844 114.815 36.2484 114.466 36.2484H113.343V35.5753H114.356C114.559 35.5753 114.725 35.54 114.855 35.4694C114.984 35.3988 115.08 35.3017 115.142 35.1781C115.205 35.0545 115.236 34.9125 115.236 34.7522C115.236 34.5918 115.205 34.4506 115.142 34.3285C115.08 34.2063 114.983 34.1114 114.853 34.0438C114.723 33.9746 114.556 33.9401 114.352 33.9401H113.601V37.7755H112.783ZM116.747 37.7755V34.3858H117.521V34.9508H117.556C117.618 34.7551 117.724 34.6043 117.874 34.4984C118.026 34.391 118.199 34.3373 118.393 34.3373C118.437 34.3373 118.486 34.3395 118.541 34.3439C118.597 34.3468 118.643 34.352 118.68 34.3593V35.0942C118.646 35.0825 118.592 35.0722 118.519 35.0633C118.447 35.053 118.377 35.0479 118.309 35.0479C118.163 35.0479 118.032 35.0795 117.916 35.1428C117.801 35.2046 117.711 35.2906 117.645 35.401C117.578 35.5113 117.545 35.6386 117.545 35.7828V37.7755H116.747ZM119.21 37.7755V34.3858H120.009V37.7755H119.21ZM119.612 33.9047C119.486 33.9047 119.377 33.8628 119.285 33.779C119.194 33.6936 119.149 33.5914 119.149 33.4722C119.149 33.3516 119.194 33.2493 119.285 33.1655C119.377 33.0801 119.486 33.0375 119.612 33.0375C119.74 33.0375 119.849 33.0801 119.939 33.1655C120.03 33.2493 120.076 33.3516 120.076 33.4722C120.076 33.5914 120.03 33.6936 119.939 33.779C119.849 33.8628 119.74 33.9047 119.612 33.9047ZM120.831 37.7755V34.3858H121.594V34.9618H121.634C121.705 34.7676 121.822 34.6161 121.985 34.5072C122.148 34.3969 122.343 34.3417 122.57 34.3417C122.799 34.3417 122.993 34.3976 123.15 34.5094C123.309 34.6198 123.421 34.7706 123.486 34.9618H123.521C123.596 34.7735 123.722 34.6234 123.9 34.5116C124.08 34.3983 124.293 34.3417 124.538 34.3417C124.85 34.3417 125.105 34.4403 125.302 34.6374C125.499 34.8346 125.598 35.1222 125.598 35.5003V37.7755H124.796V35.6239C124.796 35.4135 124.741 35.2597 124.629 35.1626C124.517 35.0641 124.38 35.0148 124.218 35.0148C124.026 35.0148 123.875 35.0751 123.766 35.1957C123.658 35.3149 123.605 35.4701 123.605 35.6614V37.7755H122.821V35.5908C122.821 35.4157 122.768 35.2759 122.662 35.1715C122.558 35.067 122.421 35.0148 122.252 35.0148C122.137 35.0148 122.033 35.0442 121.939 35.103C121.844 35.1604 121.769 35.2421 121.714 35.348C121.658 35.4525 121.63 35.5746 121.63 35.7143V37.7755H120.831ZM127.383 37.8439C127.169 37.8439 126.975 37.8057 126.803 37.7292C126.632 37.6512 126.497 37.5364 126.397 37.3849C126.298 37.2334 126.249 37.0465 126.249 36.8244C126.249 36.6331 126.284 36.475 126.355 36.3499C126.426 36.2249 126.522 36.1248 126.644 36.0498C126.766 35.9747 126.904 35.9181 127.057 35.8799C127.211 35.8401 127.371 35.8114 127.536 35.7938C127.734 35.7732 127.895 35.7548 128.019 35.7386C128.143 35.721 128.232 35.6945 128.288 35.6592C128.346 35.6224 128.374 35.5657 128.374 35.4892V35.476C128.374 35.3098 128.325 35.181 128.226 35.0898C128.128 34.9986 127.986 34.953 127.8 34.953C127.605 34.953 127.45 34.9956 127.335 35.081C127.222 35.1663 127.145 35.2671 127.105 35.3833L126.359 35.2774C126.418 35.0714 126.515 34.8993 126.651 34.761C126.786 34.6212 126.952 34.5168 127.147 34.4476C127.343 34.377 127.559 34.3417 127.796 34.3417C127.959 34.3417 128.122 34.3608 128.284 34.3991C128.446 34.4373 128.593 34.5006 128.727 34.5889C128.861 34.6757 128.969 34.7941 129.05 34.9442C129.132 35.0942 129.173 35.2818 129.173 35.5069V37.7755H128.405V37.3099H128.379C128.33 37.404 128.262 37.4923 128.173 37.5747C128.087 37.6556 127.977 37.7211 127.845 37.7711C127.714 37.8196 127.56 37.8439 127.383 37.8439ZM127.591 37.2569C127.751 37.2569 127.89 37.2253 128.008 37.162C128.126 37.0973 128.216 37.012 128.279 36.906C128.344 36.8001 128.376 36.6846 128.376 36.5596V36.1601C128.351 36.1807 128.309 36.1998 128.248 36.2175C128.19 36.2351 128.123 36.2506 128.05 36.2638C127.976 36.2771 127.903 36.2888 127.831 36.2991C127.759 36.3094 127.697 36.3183 127.644 36.3256C127.525 36.3418 127.418 36.3683 127.324 36.4051C127.23 36.4419 127.155 36.4933 127.101 36.5596C127.046 36.6243 127.019 36.7081 127.019 36.8111C127.019 36.9583 127.073 37.0693 127.18 37.1444C127.288 37.2194 127.425 37.2569 127.591 37.2569ZM129.976 37.7755V34.3858H130.751V34.9508H130.786C130.848 34.7551 130.954 34.6043 131.104 34.4984C131.256 34.391 131.429 34.3373 131.623 34.3373C131.667 34.3373 131.716 34.3395 131.771 34.3439C131.826 34.3468 131.873 34.352 131.91 34.3593V35.0942C131.876 35.0825 131.822 35.0722 131.749 35.0633C131.676 35.053 131.607 35.0479 131.539 35.0479C131.393 35.0479 131.262 35.0795 131.146 35.1428C131.031 35.2046 130.941 35.2906 130.875 35.401C130.808 35.5113 130.775 35.6386 130.775 35.7828V37.7755H129.976ZM133.04 39.0466C132.931 39.0466 132.83 39.0378 132.738 39.0202C132.646 39.004 132.574 38.9849 132.519 38.9628L132.705 38.3405C132.821 38.3743 132.925 38.3905 133.016 38.389C133.107 38.3875 133.187 38.3588 133.256 38.3029C133.327 38.2485 133.387 38.1573 133.435 38.0293L133.503 37.8461L132.274 34.3858H133.122L133.903 36.9457H133.938L134.722 34.3858H135.571L134.214 38.186C134.151 38.3655 134.067 38.5192 133.962 38.6472C133.858 38.7767 133.73 38.8752 133.579 38.9429C133.428 39.0121 133.249 39.0466 133.04 39.0466ZM138.281 37.7755H137.407L138.998 33.2559H140.009L141.603 37.7755H140.729L139.521 34.1828H139.486L138.281 37.7755ZM138.31 36.0034H140.693V36.6611H138.31V36.0034ZM143.538 37.8417C143.2 37.8417 142.909 37.7674 142.666 37.6188C142.425 37.4702 142.239 37.265 142.108 37.0031C141.978 36.7398 141.914 36.4367 141.914 36.0939C141.914 35.7496 141.98 35.4458 142.112 35.1825C142.245 34.9177 142.432 34.7117 142.673 34.5646C142.916 34.416 143.202 34.3417 143.533 34.3417C143.809 34.3417 144.052 34.3925 144.264 34.494C144.477 34.594 144.647 34.736 144.774 34.9199C144.9 35.1023 144.972 35.3156 144.99 35.5599H144.226C144.196 35.3966 144.122 35.2605 144.006 35.1516C143.891 35.0413 143.737 34.9861 143.545 34.9861C143.381 34.9861 143.238 35.0302 143.114 35.1185C142.991 35.2053 142.894 35.3304 142.825 35.4937C142.757 35.657 142.724 35.8526 142.724 36.0807C142.724 36.3117 142.757 36.5103 142.825 36.6765C142.893 36.8413 142.988 36.9686 143.11 37.0583C143.233 37.1466 143.378 37.1907 143.545 37.1907C143.662 37.1907 143.767 37.1686 143.86 37.1245C143.954 37.0789 144.033 37.0134 144.096 36.9281C144.159 36.8428 144.203 36.739 144.226 36.6169H144.99C144.971 36.8567 144.9 37.0693 144.778 37.2547C144.656 37.4386 144.49 37.5828 144.279 37.6872C144.069 37.7902 143.822 37.8417 143.538 37.8417ZM147.339 34.3858V35.0037H145.39V34.3858H147.339ZM145.871 33.5737H146.67V36.756C146.67 36.8634 146.686 36.9457 146.718 37.0031C146.752 37.059 146.796 37.0973 146.851 37.1179C146.905 37.1385 146.966 37.1488 147.032 37.1488C147.082 37.1488 147.127 37.1451 147.169 37.1377C147.211 37.1304 147.244 37.1238 147.266 37.1179L147.4 37.7424C147.358 37.7571 147.297 37.7733 147.217 37.791C147.139 37.8086 147.044 37.8189 146.93 37.8219C146.73 37.8277 146.55 37.7976 146.39 37.7314C146.229 37.6637 146.102 37.5592 146.008 37.418C145.915 37.2768 145.87 37.1002 145.871 36.8884V33.5737ZM148.007 37.7755V34.3858H148.806V37.7755H148.007ZM148.408 33.9047C148.282 33.9047 148.173 33.8628 148.082 33.779C147.991 33.6936 147.945 33.5914 147.945 33.4722C147.945 33.3516 147.991 33.2493 148.082 33.1655C148.173 33.0801 148.282 33.0375 148.408 33.0375C148.536 33.0375 148.645 33.0801 148.735 33.1655C148.826 33.2493 148.872 33.3516 148.872 33.4722C148.872 33.5914 148.826 33.6936 148.735 33.779C148.645 33.8628 148.536 33.9047 148.408 33.9047ZM151.106 37.8417C150.775 37.8417 150.488 37.7689 150.245 37.6232C150.002 37.4776 149.814 37.2738 149.68 37.012C149.548 36.7501 149.481 36.4441 149.481 36.0939C149.481 35.7438 149.548 35.437 149.68 35.1737C149.814 34.9103 150.002 34.7058 150.245 34.5602C150.488 34.4145 150.775 34.3417 151.106 34.3417C151.437 34.3417 151.724 34.4145 151.966 34.5602C152.209 34.7058 152.397 34.9103 152.529 35.1737C152.663 35.437 152.73 35.7438 152.73 36.0939C152.73 36.4441 152.663 36.7501 152.529 37.012C152.397 37.2738 152.209 37.4776 151.966 37.6232C151.724 37.7689 151.437 37.8417 151.106 37.8417ZM151.11 37.2017C151.29 37.2017 151.44 37.1525 151.56 37.0539C151.681 36.9538 151.771 36.82 151.829 36.6522C151.89 36.4845 151.92 36.2977 151.92 36.0917C151.92 35.8843 151.89 35.6967 151.829 35.529C151.771 35.3598 151.681 35.2252 151.56 35.1251C151.44 35.0251 151.29 34.9751 151.11 34.9751C150.926 34.9751 150.773 35.0251 150.651 35.1251C150.53 35.2252 150.44 35.3598 150.38 35.529C150.321 35.6967 150.291 35.8843 150.291 36.0917C150.291 36.2977 150.321 36.4845 150.38 36.6522C150.44 36.82 150.53 36.9538 150.651 37.0539C150.773 37.1525 150.926 37.2017 151.11 37.2017ZM154.207 35.7894V37.7755H153.408V34.3858H154.171V34.9618H154.211C154.289 34.772 154.414 34.6212 154.584 34.5094C154.756 34.3976 154.969 34.3417 155.222 34.3417C155.456 34.3417 155.66 34.3917 155.833 34.4918C156.008 34.5918 156.144 34.7367 156.239 34.9265C156.336 35.1163 156.384 35.3465 156.383 35.6172V37.7755H155.584V35.7408C155.584 35.5143 155.525 35.337 155.407 35.209C155.291 35.081 155.13 35.017 154.924 35.017C154.784 35.017 154.66 35.0479 154.551 35.1097C154.444 35.17 154.359 35.2575 154.297 35.3723C154.237 35.487 154.207 35.6261 154.207 35.7894Z" fill="white"/>
<path d="M171.31 27.6197H202.751C204.614 27.6197 206.125 29.1303 206.125 30.9938V41.5572C206.125 43.4207 204.614 44.9313 202.751 44.9313H171.31C169.446 44.9313 167.936 43.4207 167.936 41.5572V30.9938C167.936 29.1303 169.446 27.6197 171.31 27.6197Z" fill="white"/>
<path d="M171.31 27.6197H202.751C204.614 27.6197 206.125 29.1303 206.125 30.9938V41.5572C206.125 43.4207 204.614 44.9313 202.751 44.9313H171.31C169.446 44.9313 167.936 43.4207 167.936 41.5572V30.9938C167.936 29.1303 169.446 27.6197 171.31 27.6197Z" stroke="#DADFE2" stroke-width="0.443887"/>
<path d="M181.344 32.6903C181.604 32.4296 181.945 32.2993 182.286 32.2993C182.627 32.2993 182.968 32.4296 183.228 32.6903L183.748 33.2115C184.008 33.4722 184.138 33.8138 184.138 34.1554C184.138 34.497 184.008 34.8386 183.748 35.0992L179.655 39.2236C179.615 39.2637 179.568 39.2957 179.516 39.318L177.388 40.2146C177.27 40.2652 177.152 40.2887 177.038 40.2893C176.796 40.2906 176.573 40.1887 176.41 40.026C176.253 39.868 176.152 39.6526 176.148 39.4182C176.145 39.2975 176.168 39.1717 176.222 39.0462L177.158 36.954C177.18 36.902 177.212 36.8547 177.252 36.8147L181.344 32.6903ZM182.6 33.3195C182.426 33.1457 182.145 33.1457 181.972 33.3195L181.582 33.7104L182.73 34.8609L183.12 34.47C183.293 34.2962 183.293 34.0145 183.12 33.8408L182.6 33.3195ZM182.102 35.4902L180.954 34.3397L178.193 37.1293L179.341 38.2798L182.102 35.4902ZM178.564 38.759L177.715 37.9086L177.038 39.3967L178.564 38.759Z" fill="#388523"/>
<path d="M187.856 37.7755V33.2559H190.795V33.9423H188.675V35.1693H190.643V35.8556H188.675V37.0892H190.813V37.7755H187.856ZM192.853 37.8351C192.587 37.8351 192.349 37.7667 192.138 37.6299C191.928 37.493 191.761 37.2944 191.639 37.034C191.517 36.7736 191.456 36.4573 191.456 36.0851C191.456 35.7085 191.518 35.3907 191.642 35.1317C191.767 34.8713 191.935 34.6749 192.147 34.5425C192.359 34.4086 192.595 34.3417 192.855 34.3417C193.054 34.3417 193.217 34.3755 193.345 34.4432C193.473 34.5094 193.575 34.5896 193.65 34.6838C193.725 34.7764 193.783 34.864 193.824 34.9464H193.857V33.2559H194.658V37.7755H193.873V37.2415H193.824C193.783 37.3238 193.723 37.4114 193.645 37.5041C193.567 37.5953 193.464 37.6733 193.336 37.738C193.208 37.8027 193.047 37.8351 192.853 37.8351ZM193.076 37.1797C193.245 37.1797 193.389 37.1341 193.509 37.0428C193.628 36.9502 193.718 36.8214 193.78 36.6567C193.842 36.4919 193.873 36.2999 193.873 36.0807C193.873 35.8615 193.842 35.6709 193.78 35.5091C193.72 35.3473 193.63 35.2215 193.511 35.1317C193.393 35.042 193.248 34.9971 193.076 34.9971C192.898 34.9971 192.749 35.0435 192.63 35.1362C192.511 35.2288 192.421 35.3568 192.361 35.5201C192.301 35.6834 192.271 35.8703 192.271 36.0807C192.271 36.2925 192.301 36.4816 192.361 36.6478C192.423 36.8126 192.513 36.9428 192.632 37.0384C192.753 37.1326 192.901 37.1797 193.076 37.1797ZM195.51 37.7755V34.3858H196.308V37.7755H195.51ZM195.911 33.9047C195.785 33.9047 195.676 33.8628 195.585 33.779C195.493 33.6936 195.448 33.5914 195.448 33.4722C195.448 33.3516 195.493 33.2493 195.585 33.1655C195.676 33.0801 195.785 33.0375 195.911 33.0375C196.039 33.0375 196.148 33.0801 196.238 33.1655C196.329 33.2493 196.375 33.3516 196.375 33.4722C196.375 33.5914 196.329 33.6936 196.238 33.779C196.148 33.8628 196.039 33.9047 195.911 33.9047ZM198.823 34.3858V35.0037H196.874V34.3858H198.823ZM197.355 33.5737H198.154V36.756C198.154 36.8634 198.17 36.9457 198.202 37.0031C198.236 37.059 198.28 37.0973 198.335 37.1179C198.389 37.1385 198.45 37.1488 198.516 37.1488C198.566 37.1488 198.611 37.1451 198.653 37.1377C198.695 37.1304 198.728 37.1238 198.75 37.1179L198.884 37.7424C198.842 37.7571 198.781 37.7733 198.701 37.791C198.623 37.8086 198.528 37.8189 198.414 37.8219C198.214 37.8277 198.034 37.7976 197.874 37.7314C197.713 37.6637 197.586 37.5592 197.492 37.418C197.399 37.2768 197.354 37.1002 197.355 36.8884V33.5737Z" fill="#388523"/>
</g>
<g clip-path="url(#clip1_4_5839)">
<path d="M17.6533 73.9288C17.6533 72.9482 18.4483 72.1533 19.4289 72.1533H171.325C172.306 72.1533 173.101 72.9482 173.101 73.9288V73.9288C173.101 74.9094 172.306 75.7044 171.325 75.7044H19.4289C18.4483 75.7044 17.6533 74.9094 17.6533 73.9288V73.9288Z" fill="black" fill-opacity="0.08"/>
<rect x="17.6533" y="72.1533" width="154.585" height="3.5511" fill="url(#paint0_linear_4_5839)"/>
<rect x="-85.3281" y="72.1532" width="154.585" height="3.5511" fill="url(#paint1_linear_4_5839)"/>
</g>
<g clip-path="url(#clip2_4_5839)">
<path d="M17.6533 81.031C17.6533 80.0504 18.4483 79.2555 19.4289 79.2555H204.571C205.552 79.2555 206.347 80.0504 206.347 81.031V81.031C206.347 82.0116 205.552 82.8066 204.571 82.8066H19.4289C18.4483 82.8066 17.6533 82.0116 17.6533 81.031V81.031Z" fill="black" fill-opacity="0.08"/>
<rect x="17.6533" y="79.2555" width="189.432" height="3.5511" fill="url(#paint2_linear_4_5839)"/>
<rect x="-85.3281" y="79.2555" width="189.432" height="3.5511" fill="url(#paint3_linear_4_5839)"/>
</g>
<g clip-path="url(#clip3_4_5839)">
<path d="M17.6533 88.1332C17.6533 87.1526 18.4483 86.3576 19.4289 86.3576H157.847C158.828 86.3576 159.623 87.1526 159.623 88.1332V88.1332C159.623 89.1138 158.828 89.9087 157.847 89.9087H19.4289C18.4483 89.9087 17.6533 89.1138 17.6533 88.1332V88.1332Z" fill="black" fill-opacity="0.08"/>
<rect x="17.6533" y="86.3576" width="142.268" height="3.5511" fill="url(#paint4_linear_4_5839)"/>
<rect x="-85.3281" y="86.3576" width="142.268" height="3.5511" fill="url(#paint5_linear_4_5839)"/>
</g>
<defs>
<linearGradient id="paint0_linear_4_5839" x1="172.238" y1="73.9288" x2="17.6533" y2="73.9288" gradientUnits="userSpaceOnUse">
<stop stop-color="white" stop-opacity="0"/>
<stop offset="0.299948" stop-color="white" stop-opacity="0.8"/>
<stop offset="1" stop-color="white" stop-opacity="0"/>
</linearGradient>
<linearGradient id="paint1_linear_4_5839" x1="69.2567" y1="73.9288" x2="-85.3281" y2="73.9288" gradientUnits="userSpaceOnUse">
<stop stop-color="white" stop-opacity="0"/>
<stop offset="0.299948" stop-color="white" stop-opacity="0.8"/>
<stop offset="1" stop-color="white" stop-opacity="0"/>
</linearGradient>
<linearGradient id="paint2_linear_4_5839" x1="207.086" y1="81.031" x2="17.6533" y2="81.031" gradientUnits="userSpaceOnUse">
<stop stop-color="white" stop-opacity="0"/>
<stop offset="0.299948" stop-color="white" stop-opacity="0.8"/>
<stop offset="1" stop-color="white" stop-opacity="0"/>
</linearGradient>
<linearGradient id="paint3_linear_4_5839" x1="104.104" y1="81.031" x2="-85.3281" y2="81.031" gradientUnits="userSpaceOnUse">
<stop stop-color="white" stop-opacity="0"/>
<stop offset="0.299948" stop-color="white" stop-opacity="0.8"/>
<stop offset="1" stop-color="white" stop-opacity="0"/>
</linearGradient>
<linearGradient id="paint4_linear_4_5839" x1="159.922" y1="88.1332" x2="17.6533" y2="88.1332" gradientUnits="userSpaceOnUse">
<stop stop-color="white" stop-opacity="0"/>
<stop offset="0.299948" stop-color="white" stop-opacity="0.8"/>
<stop offset="1" stop-color="white" stop-opacity="0"/>
</linearGradient>
<linearGradient id="paint5_linear_4_5839" x1="56.9401" y1="88.1332" x2="-85.3281" y2="88.1332" gradientUnits="userSpaceOnUse">
<stop stop-color="white" stop-opacity="0"/>
<stop offset="0.299948" stop-color="white" stop-opacity="0.8"/>
<stop offset="1" stop-color="white" stop-opacity="0"/>
</linearGradient>
<clipPath id="clip0_4_5839">
<rect width="101.389" height="17.7555" fill="white" transform="translate(104.958 27.3978)"/>
</clipPath>
<clipPath id="clip1_4_5839">
<path d="M17.6533 73.9288C17.6533 72.9482 18.4483 72.1533 19.4289 72.1533H171.325C172.306 72.1533 173.101 72.9482 173.101 73.9288V73.9288C173.101 74.9094 172.306 75.7044 171.325 75.7044H19.4289C18.4483 75.7044 17.6533 74.9094 17.6533 73.9288V73.9288Z" fill="white"/>
</clipPath>
<clipPath id="clip2_4_5839">
<path d="M17.6533 81.031C17.6533 80.0504 18.4483 79.2555 19.4289 79.2555H204.571C205.552 79.2555 206.347 80.0504 206.347 81.031V81.031C206.347 82.0116 205.552 82.8066 204.571 82.8066H19.4289C18.4483 82.8066 17.6533 82.0116 17.6533 81.031V81.031Z" fill="white"/>
</clipPath>
<clipPath id="clip3_4_5839">
<path d="M17.6533 88.1332C17.6533 87.1526 18.4483 86.3576 19.4289 86.3576H157.847C158.828 86.3576 159.623 87.1526 159.623 88.1332V88.1332C159.623 89.1138 158.828 89.9087 157.847 89.9087H19.4289C18.4483 89.9087 17.6533 89.1138 17.6533 88.1332V88.1332Z" fill="white"/>
</clipPath>
</defs>
</svg>
