<svg width="274" height="171" viewBox="0 0 274 171" fill="none" xmlns="http://www.w3.org/2000/svg">
<path d="M17.5412 42V21.6364H25.9531C27.4777 21.6364 28.7936 21.9347 29.9006 22.5312C31.0142 23.1212 31.8726 23.9465 32.4759 25.0071C33.0791 26.0611 33.3807 27.2874 33.3807 28.6861C33.3807 30.0914 33.0724 31.321 32.456 32.375C31.8461 33.4223 30.9744 34.2344 29.8409 34.8111C28.7074 35.3878 27.3617 35.6761 25.804 35.6761H20.6136V31.7983H24.8892C25.6316 31.7983 26.2514 31.669 26.7486 31.4105C27.2524 31.152 27.6335 30.7907 27.892 30.3267C28.1506 29.8561 28.2798 29.3092 28.2798 28.6861C28.2798 28.0563 28.1506 27.5128 27.892 27.0554C27.6335 26.5914 27.2524 26.2334 26.7486 25.9815C26.2448 25.7296 25.625 25.6037 24.8892 25.6037H22.4631V42H17.5412ZM39.5653 42.2585C38.5909 42.2585 37.7259 42.0961 36.9702 41.7713C36.2211 41.4399 35.6278 40.9427 35.1903 40.2798C34.7595 39.6103 34.544 38.7718 34.544 37.7642C34.544 36.9157 34.6932 36.1998 34.9915 35.6165C35.2898 35.0331 35.7008 34.5592 36.2244 34.1946C36.7481 33.83 37.3513 33.5549 38.0341 33.3693C38.7169 33.1771 39.446 33.0478 40.2216 32.9815C41.09 32.902 41.7893 32.8191 42.3196 32.733C42.8499 32.6402 43.2344 32.5109 43.473 32.3452C43.7183 32.1728 43.8409 31.9309 43.8409 31.6193V31.5696C43.8409 31.0592 43.6652 30.6648 43.3139 30.3864C42.9626 30.108 42.4886 29.9688 41.892 29.9688C41.2491 29.9688 40.732 30.108 40.3409 30.3864C39.9498 30.6648 39.7012 31.0492 39.5952 31.5398L35.1108 31.3807C35.2434 30.4527 35.5848 29.6241 36.1349 28.8949C36.6918 28.1591 37.4541 27.5824 38.4219 27.1648C39.3963 26.7405 40.5663 26.5284 41.9318 26.5284C42.9063 26.5284 43.8045 26.6444 44.6264 26.8764C45.4484 27.1018 46.1643 27.4332 46.7741 27.8707C47.384 28.3016 47.8546 28.8319 48.1861 29.4616C48.5241 30.0914 48.6932 30.8106 48.6932 31.6193V42H44.1193V39.8722H44C43.7282 40.3892 43.3802 40.8267 42.956 41.1847C42.5384 41.5426 42.0445 41.8111 41.4744 41.9901C40.911 42.169 40.2746 42.2585 39.5653 42.2585ZM41.0668 39.0767C41.5904 39.0767 42.0611 38.9706 42.4787 38.7585C42.9029 38.5464 43.241 38.2547 43.4929 37.8835C43.7448 37.5057 43.8707 37.0682 43.8707 36.571V35.1193C43.7315 35.1922 43.5625 35.2585 43.3636 35.3182C43.1714 35.3778 42.9593 35.4342 42.7273 35.4872C42.4953 35.5402 42.2566 35.5866 42.0114 35.6264C41.7661 35.6662 41.5308 35.7027 41.3054 35.7358C40.848 35.8087 40.4569 35.9214 40.1321 36.0739C39.8139 36.2263 39.5687 36.4252 39.3963 36.6705C39.2306 36.9091 39.1477 37.1941 39.1477 37.5256C39.1477 38.0294 39.3267 38.4138 39.6847 38.679C40.0492 38.9441 40.5099 39.0767 41.0668 39.0767ZM58.7855 48.0455C57.3338 48.0455 56.0909 47.8433 55.0568 47.4389C54.0227 47.0346 53.2107 46.4811 52.6207 45.7784C52.0308 45.0758 51.6761 44.2803 51.5568 43.392L56.1605 43.1335C56.2467 43.4451 56.4058 43.7169 56.6378 43.9489C56.8764 44.1809 57.1847 44.3598 57.5625 44.4858C57.947 44.6117 58.3977 44.6747 58.9148 44.6747C59.7301 44.6747 60.4029 44.4759 60.9332 44.0781C61.4702 43.687 61.7386 43.0009 61.7386 42.0199V39.3352H61.5696C61.3774 39.8059 61.0857 40.2268 60.6946 40.598C60.3035 40.9692 59.8163 41.2609 59.233 41.473C58.6563 41.6851 57.9934 41.7912 57.2443 41.7912C56.1307 41.7912 55.1098 41.5327 54.1818 41.0156C53.2604 40.492 52.5213 39.6832 51.9645 38.5895C51.4143 37.4891 51.1392 36.0739 51.1392 34.3438C51.1392 32.5606 51.4242 31.0923 51.9943 29.9389C52.5644 28.7789 53.3101 27.9205 54.2315 27.3636C55.1596 26.8068 56.1572 26.5284 57.2244 26.5284C58.0265 26.5284 58.7126 26.6676 59.2827 26.946C59.8594 27.2178 60.3333 27.5691 60.7045 28C61.0758 28.4309 61.3575 28.8783 61.5497 29.3423H61.6889V26.7273H66.5312V42.0597C66.5312 43.3523 66.2064 44.4427 65.5568 45.331C64.9072 46.2192 63.9991 46.892 62.8324 47.3494C61.6657 47.8134 60.3168 48.0455 58.7855 48.0455ZM58.9347 38.2514C59.5246 38.2514 60.0284 38.0956 60.446 37.7841C60.8636 37.4725 61.1851 37.0251 61.4105 36.4418C61.6359 35.8584 61.7486 35.1591 61.7486 34.3438C61.7486 33.5152 61.6359 32.8026 61.4105 32.206C61.1918 31.6027 60.8703 31.1387 60.446 30.8139C60.0284 30.4891 59.5246 30.3267 58.9347 30.3267C58.3314 30.3267 57.821 30.4924 57.4034 30.8239C56.9858 31.1553 56.6676 31.6226 56.4489 32.2259C56.2367 32.8224 56.1307 33.5284 56.1307 34.3438C56.1307 35.1591 56.2401 35.8584 56.4588 36.4418C56.6776 37.0251 56.9924 37.4725 57.4034 37.7841C57.821 38.0956 58.3314 38.2514 58.9347 38.2514ZM76.7702 42.2884C75.1727 42.2884 73.7939 41.9735 72.6339 41.3438C71.4805 40.7074 70.5922 39.8026 69.9691 38.6293C69.3526 37.4493 69.0444 36.0473 69.0444 34.4233C69.0444 32.8456 69.3559 31.4669 69.979 30.2869C70.6022 29.1004 71.4805 28.179 72.614 27.5227C73.7475 26.8598 75.0832 26.5284 76.6211 26.5284C77.7082 26.5284 78.7025 26.6974 79.604 27.0355C80.5056 27.3736 81.2844 27.8741 81.9407 28.5369C82.5969 29.1998 83.1074 30.0185 83.4719 30.9929C83.8365 31.9607 84.0188 33.071 84.0188 34.3239V35.5369H70.7447V32.7131H79.4947C79.488 32.196 79.3654 31.7353 79.1268 31.331C78.8881 30.9266 78.56 30.6117 78.1424 30.3864C77.7314 30.1544 77.2575 30.0384 76.7205 30.0384C76.177 30.0384 75.6897 30.161 75.2589 30.4062C74.828 30.6449 74.4866 30.973 74.2347 31.3906C73.9828 31.8016 73.8503 32.2689 73.837 32.7926V35.6662C73.837 36.2893 73.9596 36.8362 74.2049 37.3068C74.4502 37.7708 74.7982 38.1321 75.2489 38.3906C75.6997 38.6491 76.2366 38.7784 76.8597 38.7784C77.2906 38.7784 77.6817 38.7187 78.033 38.5994C78.3844 38.4801 78.686 38.3045 78.9379 38.0724C79.1897 37.8404 79.3787 37.5554 79.5046 37.2173L83.9691 37.3466C83.7835 38.3475 83.3758 39.2192 82.7461 39.9616C82.123 40.6974 81.3043 41.2708 80.2901 41.6818C79.2759 42.0862 78.1026 42.2884 76.7702 42.2884ZM91.8516 25.6335V21.6364H109.063V25.6335H102.888V42H98.0362V25.6335H91.8516ZM111.467 42V26.7273H116.329V42H111.467ZM113.903 24.9474C113.22 24.9474 112.634 24.7221 112.143 24.2713C111.653 23.8139 111.407 23.2637 111.407 22.6207C111.407 21.9844 111.653 21.4408 112.143 20.9901C112.634 20.5327 113.22 20.304 113.903 20.304C114.592 20.304 115.179 20.5327 115.663 20.9901C116.154 21.4408 116.399 21.9844 116.399 22.6207C116.399 23.2637 116.154 23.8139 115.663 24.2713C115.179 24.7221 114.592 24.9474 113.903 24.9474ZM128.045 26.7273V30.3068H118.41V26.7273H128.045ZM120.428 23.0682H125.29V37.1974C125.29 37.4957 125.337 37.7377 125.43 37.9233C125.529 38.1023 125.672 38.2315 125.857 38.3111C126.043 38.384 126.265 38.4205 126.523 38.4205C126.709 38.4205 126.905 38.4039 127.11 38.3707C127.322 38.331 127.481 38.2978 127.587 38.2713L128.323 41.7812C128.091 41.8475 127.763 41.9304 127.339 42.0298C126.921 42.1293 126.421 42.1922 125.837 42.2188C124.697 42.2718 123.719 42.1392 122.904 41.821C122.095 41.4962 121.476 40.9924 121.045 40.3097C120.621 39.6269 120.415 38.7685 120.428 37.7344V23.0682ZM135.716 21.6364V42H130.854V21.6364H135.716ZM145.95 42.2884C144.352 42.2884 142.974 41.9735 141.814 41.3438C140.66 40.7074 139.772 39.8026 139.149 38.6293C138.532 37.4493 138.224 36.0473 138.224 34.4233C138.224 32.8456 138.536 31.4669 139.159 30.2869C139.782 29.1004 140.66 28.179 141.794 27.5227C142.927 26.8598 144.263 26.5284 145.801 26.5284C146.888 26.5284 147.882 26.6974 148.784 27.0355C149.685 27.3736 150.464 27.8741 151.12 28.5369C151.777 29.1998 152.287 30.0185 152.652 30.9929C153.016 31.9607 153.199 33.071 153.199 34.3239V35.5369H139.924V32.7131H148.674C148.668 32.196 148.545 31.7353 148.306 31.331C148.068 30.9266 147.74 30.6117 147.322 30.3864C146.911 30.1544 146.437 30.0384 145.9 30.0384C145.357 30.0384 144.869 30.161 144.439 30.4062C144.008 30.6449 143.666 30.973 143.414 31.3906C143.163 31.8016 143.03 32.2689 143.017 32.7926V35.6662C143.017 36.2893 143.139 36.8362 143.385 37.3068C143.63 37.7708 143.978 38.1321 144.429 38.3906C144.879 38.6491 145.416 38.7784 146.039 38.7784C146.47 38.7784 146.861 38.7187 147.213 38.5994C147.564 38.4801 147.866 38.3045 148.118 38.0724C148.369 37.8404 148.558 37.5554 148.684 37.2173L153.149 37.3466C152.963 38.3475 152.556 39.2192 151.926 39.9616C151.303 40.6974 150.484 41.2708 149.47 41.6818C148.456 42.0862 147.282 42.2884 145.95 42.2884Z" fill="#032B3A"/>
<path d="M16 75C16 70.5817 19.5817 67 24 67H250C254.418 67 258 70.5817 258 75V99C258 103.418 254.418 107 250 107H24C19.5817 107 16 103.418 16 99V75Z" fill="#388523"/>
<path d="M16 75C16 70.5817 19.5817 67 24 67H250C254.418 67 258 70.5817 258 75V99C258 103.418 254.418 107 250 107H24C19.5817 107 16 103.418 16 99V75Z" stroke="#388523"/>
<path d="M87.9379 92V81.8182H91.756C92.5382 81.8182 93.1945 81.964 93.7248 82.2557C94.2584 82.5473 94.6611 82.9484 94.9329 83.4588C95.208 83.9659 95.3455 84.5426 95.3455 85.1889C95.3455 85.8419 95.208 86.4219 94.9329 86.929C94.6578 87.4361 94.2518 87.8355 93.7148 88.1271C93.1779 88.4155 92.5167 88.5597 91.7312 88.5597H89.2006V87.0433H91.4826C91.94 87.0433 92.3145 86.9638 92.6062 86.8047C92.8978 86.6456 93.1133 86.4268 93.2525 86.1484C93.395 85.87 93.4663 85.5502 93.4663 85.1889C93.4663 84.8277 93.395 84.5095 93.2525 84.2344C93.1133 83.9593 92.8962 83.7455 92.6012 83.593C92.3095 83.4373 91.9334 83.3594 91.4727 83.3594H89.7823V92H87.9379ZM96.8681 92V84.3636H98.6131V85.6364H98.6926C98.8319 85.1955 99.0705 84.8558 99.4086 84.6172C99.7499 84.3752 100.139 84.2543 100.577 84.2543C100.676 84.2543 100.787 84.2592 100.91 84.2692C101.036 84.2758 101.14 84.2874 101.223 84.304V85.9595C101.147 85.933 101.026 85.9098 100.86 85.8899C100.698 85.8667 100.54 85.8551 100.388 85.8551C100.06 85.8551 99.7649 85.9264 99.503 86.0689C99.2445 86.2081 99.0407 86.402 98.8915 86.6506C98.7424 86.8991 98.6678 87.1858 98.6678 87.5107V92H96.8681ZM102.419 92V84.3636H104.219V92H102.419ZM103.324 83.2798C103.039 83.2798 102.793 83.1854 102.588 82.9964C102.382 82.8042 102.28 82.5739 102.28 82.3054C102.28 82.0336 102.382 81.8033 102.588 81.6143C102.793 81.4221 103.039 81.326 103.324 81.326C103.612 81.326 103.857 81.4221 104.059 81.6143C104.265 81.8033 104.368 82.0336 104.368 82.3054C104.368 82.5739 104.265 82.8042 104.059 82.9964C103.857 83.1854 103.612 83.2798 103.324 83.2798ZM106.069 92V84.3636H107.789V85.6612H107.879C108.038 85.2237 108.301 84.8823 108.669 84.6371C109.037 84.3885 109.476 84.2642 109.987 84.2642C110.504 84.2642 110.94 84.3902 111.294 84.642C111.652 84.8906 111.904 85.2304 112.05 85.6612H112.13C112.299 85.237 112.584 84.8989 112.985 84.647C113.389 84.3918 113.868 84.2642 114.422 84.2642C115.124 84.2642 115.698 84.4863 116.142 84.9304C116.586 85.3745 116.808 86.0225 116.808 86.8743V92H115.003V87.1527C115.003 86.6787 114.877 86.3324 114.625 86.1136C114.373 85.8916 114.065 85.7805 113.701 85.7805C113.266 85.7805 112.927 85.9164 112.681 86.1882C112.44 86.4567 112.319 86.8063 112.319 87.2372V92H110.554V87.0781C110.554 86.6837 110.434 86.3688 110.196 86.1335C109.96 85.8982 109.652 85.7805 109.271 85.7805C109.012 85.7805 108.777 85.8468 108.565 85.9794C108.353 86.1087 108.184 86.2926 108.058 86.5312C107.932 86.7666 107.869 87.0417 107.869 87.3565V92H106.069ZM120.831 92.1541C120.347 92.1541 119.911 92.0679 119.524 91.8956C119.139 91.7199 118.834 91.4614 118.609 91.12C118.387 90.7786 118.276 90.3577 118.276 89.8572C118.276 89.4264 118.355 89.0701 118.514 88.7884C118.673 88.5066 118.891 88.2812 119.166 88.1122C119.441 87.9432 119.751 87.8156 120.095 87.7294C120.443 87.6399 120.803 87.5753 121.174 87.5355C121.622 87.4891 121.985 87.4477 122.263 87.4112C122.541 87.3714 122.744 87.3118 122.869 87.2322C122.999 87.1494 123.063 87.0218 123.063 86.8494V86.8196C123.063 86.4451 122.952 86.1551 122.73 85.9496C122.508 85.7441 122.188 85.6413 121.771 85.6413C121.33 85.6413 120.98 85.7375 120.722 85.9297C120.467 86.1219 120.294 86.349 120.205 86.6108L118.524 86.3722C118.657 85.9081 118.876 85.5204 119.181 85.2088C119.485 84.8939 119.858 84.6586 120.299 84.5028C120.74 84.3438 121.227 84.2642 121.761 84.2642C122.129 84.2642 122.495 84.3073 122.86 84.3935C123.224 84.4796 123.557 84.6222 123.859 84.821C124.16 85.0166 124.402 85.2834 124.585 85.6214C124.77 85.9595 124.863 86.3821 124.863 86.8892V92H123.133V90.951H123.073C122.964 91.1631 122.81 91.362 122.611 91.5476C122.415 91.7299 122.169 91.8774 121.87 91.9901C121.575 92.0994 121.229 92.1541 120.831 92.1541ZM121.298 90.8317C121.66 90.8317 121.973 90.7604 122.238 90.6179C122.503 90.4721 122.707 90.2798 122.85 90.0412C122.995 89.8026 123.068 89.5424 123.068 89.2607V88.3608C123.012 88.4072 122.916 88.4503 122.78 88.4901C122.647 88.5298 122.498 88.5646 122.333 88.5945C122.167 88.6243 122.003 88.6508 121.84 88.674C121.678 88.6972 121.537 88.7171 121.418 88.7337C121.149 88.7701 120.909 88.8298 120.697 88.9126C120.485 88.9955 120.317 89.1115 120.195 89.2607C120.072 89.4065 120.011 89.5954 120.011 89.8274C120.011 90.1589 120.132 90.4091 120.374 90.5781C120.616 90.7472 120.924 90.8317 121.298 90.8317ZM126.673 92V84.3636H128.418V85.6364H128.497C128.637 85.1955 128.875 84.8558 129.213 84.6172C129.555 84.3752 129.944 84.2543 130.382 84.2543C130.481 84.2543 130.592 84.2592 130.715 84.2692C130.841 84.2758 130.945 84.2874 131.028 84.304V85.9595C130.952 85.933 130.831 85.9098 130.665 85.8899C130.503 85.8667 130.345 85.8551 130.193 85.8551C129.865 85.8551 129.57 85.9264 129.308 86.0689C129.049 86.2081 128.845 86.402 128.696 86.6506C128.547 86.8991 128.472 87.1858 128.472 87.5107V92H126.673ZM133.575 94.8636C133.329 94.8636 133.102 94.8438 132.893 94.804C132.688 94.7675 132.524 94.7244 132.401 94.6747L132.819 93.2727C133.081 93.349 133.314 93.3854 133.52 93.3821C133.725 93.3788 133.906 93.3142 134.062 93.1882C134.221 93.0656 134.355 92.8601 134.464 92.5717L134.619 92.1591L131.849 84.3636H133.759L135.518 90.1307H135.598L137.363 84.3636H139.277L136.219 92.9247C136.077 93.3291 135.888 93.6754 135.653 93.9638C135.417 94.2554 135.129 94.4775 134.788 94.63C134.45 94.7857 134.045 94.8636 133.575 94.8636ZM145.382 92H143.413L146.998 81.8182H149.275L152.864 92H150.896L148.176 83.9062H148.097L145.382 92ZM145.447 88.0078H150.816V89.4893H145.447V88.0078ZM157.224 92.1491C156.462 92.1491 155.808 91.9818 155.261 91.647C154.717 91.3123 154.298 90.8499 154.003 90.2599C153.711 89.6667 153.565 88.9839 153.565 88.2116C153.565 87.4361 153.714 86.7517 154.013 86.1584C154.311 85.5618 154.732 85.0978 155.276 84.7663C155.822 84.4316 156.469 84.2642 157.214 84.2642C157.834 84.2642 158.383 84.3786 158.86 84.6072C159.341 84.8326 159.723 85.1525 160.009 85.5668C160.294 85.9777 160.456 86.4583 160.496 87.0085H158.776C158.706 86.6406 158.54 86.334 158.278 86.0888C158.02 85.8402 157.674 85.7159 157.239 85.7159C156.871 85.7159 156.548 85.8153 156.27 86.0142C155.991 86.2098 155.774 86.4915 155.619 86.8594C155.466 87.2273 155.39 87.6681 155.39 88.1818C155.39 88.7022 155.466 89.1496 155.619 89.5241C155.771 89.8954 155.985 90.1821 156.26 90.3842C156.538 90.5831 156.865 90.6825 157.239 90.6825C157.504 90.6825 157.741 90.6328 157.95 90.5334C158.162 90.4306 158.34 90.2831 158.482 90.0909C158.625 89.8987 158.723 89.665 158.776 89.3899H160.496C160.453 89.9302 160.294 90.4091 160.018 90.8267C159.743 91.241 159.369 91.5658 158.895 91.8011C158.421 92.0331 157.864 92.1491 157.224 92.1491ZM165.787 84.3636V85.7557H161.397V84.3636H165.787ZM162.481 82.5341H164.28V89.7031C164.28 89.9451 164.317 90.1307 164.39 90.2599C164.466 90.3859 164.565 90.4721 164.688 90.5185C164.811 90.5649 164.947 90.5881 165.096 90.5881C165.208 90.5881 165.311 90.5798 165.404 90.5632C165.5 90.5466 165.573 90.5317 165.623 90.5185L165.926 91.9254C165.83 91.9586 165.692 91.995 165.513 92.0348C165.338 92.0746 165.122 92.0978 164.867 92.1044C164.416 92.1177 164.01 92.0497 163.649 91.9006C163.288 91.7481 163.001 91.5128 162.789 91.1946C162.58 90.8764 162.477 90.4787 162.481 90.0014V82.5341ZM167.292 92V84.3636H169.092V92H167.292ZM168.197 83.2798C167.912 83.2798 167.666 83.1854 167.461 82.9964C167.255 82.8042 167.153 82.5739 167.153 82.3054C167.153 82.0336 167.255 81.8033 167.461 81.6143C167.666 81.4221 167.912 81.326 168.197 81.326C168.485 81.326 168.73 81.4221 168.933 81.6143C169.138 81.8033 169.241 82.0336 169.241 82.3054C169.241 82.5739 169.138 82.8042 168.933 82.9964C168.73 83.1854 168.485 83.2798 168.197 83.2798ZM174.273 92.1491C173.528 92.1491 172.881 91.9851 172.334 91.657C171.787 91.3288 171.363 90.8698 171.062 90.2798C170.763 89.6899 170.614 89.0005 170.614 88.2116C170.614 87.4228 170.763 86.7318 171.062 86.1385C171.363 85.5452 171.787 85.0845 172.334 84.7564C172.881 84.4283 173.528 84.2642 174.273 84.2642C175.019 84.2642 175.665 84.4283 176.212 84.7564C176.759 85.0845 177.182 85.5452 177.48 86.1385C177.782 86.7318 177.932 87.4228 177.932 88.2116C177.932 89.0005 177.782 89.6899 177.48 90.2798C177.182 90.8698 176.759 91.3288 176.212 91.657C175.665 91.9851 175.019 92.1491 174.273 92.1491ZM174.283 90.7074C174.688 90.7074 175.026 90.5964 175.297 90.3743C175.569 90.1489 175.771 89.8473 175.904 89.4695C176.04 89.0916 176.108 88.6707 176.108 88.2067C176.108 87.7393 176.04 87.3168 175.904 86.9389C175.771 86.5578 175.569 86.2545 175.297 86.0291C175.026 85.8037 174.688 85.6911 174.283 85.6911C173.869 85.6911 173.524 85.8037 173.249 86.0291C172.977 86.2545 172.773 86.5578 172.638 86.9389C172.505 87.3168 172.439 87.7393 172.439 88.2067C172.439 88.6707 172.505 89.0916 172.638 89.4695C172.773 89.8473 172.977 90.1489 173.249 90.3743C173.524 90.5964 173.869 90.7074 174.283 90.7074ZM181.26 87.5256V92H179.46V84.3636H181.18V85.6612H181.27C181.445 85.2337 181.725 84.8939 182.11 84.642C182.498 84.3902 182.976 84.2642 183.547 84.2642C184.074 84.2642 184.533 84.3769 184.924 84.6023C185.318 84.8277 185.623 85.1541 185.838 85.5817C186.057 86.0092 186.165 86.5279 186.162 87.1378V92H184.362V87.4162C184.362 86.9058 184.229 86.5064 183.964 86.218C183.702 85.9297 183.339 85.7855 182.875 85.7855C182.56 85.7855 182.28 85.8551 182.035 85.9943C181.793 86.1302 181.603 86.3274 181.463 86.5859C181.328 86.8445 181.26 87.1577 181.26 87.5256Z" fill="white"/>
<path d="M24 115.5H250C254.142 115.5 257.5 118.858 257.5 123V147C257.5 151.142 254.142 154.5 250 154.5H24C19.8579 154.5 16.5 151.142 16.5 147V123C16.5 118.858 19.8579 115.5 24 115.5Z" fill="white"/>
<path d="M24 115.5H250C254.142 115.5 257.5 118.858 257.5 123V147C257.5 151.142 254.142 154.5 250 154.5H24C19.8579 154.5 16.5 151.142 16.5 147V123C16.5 118.858 19.8579 115.5 24 115.5Z" stroke="#DADFE2"/>
<path d="M92.7075 126.923C93.2933 126.336 94.0611 126.042 94.8288 126.042C95.5966 126.042 96.3644 126.336 96.9502 126.923L98.1217 128.097C98.7075 128.685 99.0004 129.454 99.0004 130.224C99.0004 130.993 98.7075 131.763 98.1217 132.35L88.9018 141.642C88.8119 141.732 88.7056 141.804 88.5887 141.854L83.7939 143.874C83.5285 143.988 83.2626 144.041 83.0061 144.042C82.4607 144.045 81.9577 143.816 81.5919 143.449C81.2368 143.093 81.0108 142.608 81.0004 142.08C80.995 141.808 81.0469 141.525 81.1678 141.242L83.2756 136.529C83.3257 136.411 83.3976 136.305 83.4876 136.215L92.7075 126.923ZM95.5359 128.341C95.1454 127.949 94.5123 127.949 94.1217 128.341L93.243 129.221L95.8288 131.813L96.7075 130.932C97.098 130.541 97.098 129.906 96.7075 129.515L95.5359 128.341ZM94.4146 133.231L91.8288 130.639L85.6089 136.923L88.1947 139.515L94.4146 133.231ZM86.4432 140.595L84.532 138.679L83.0061 142.031L86.4432 140.595Z" fill="#388523"/>
<path d="M107.058 129.818H109.315L112.338 137.196H112.457L115.48 129.818H117.737V140H115.967V133.005H115.873L113.059 139.97H111.736L108.922 132.99H108.828V140H107.058V129.818ZM122.997 140.149C122.251 140.149 121.605 139.985 121.058 139.657C120.511 139.329 120.087 138.87 119.785 138.28C119.487 137.69 119.338 137 119.338 136.212C119.338 135.423 119.487 134.732 119.785 134.138C120.087 133.545 120.511 133.085 121.058 132.756C121.605 132.428 122.251 132.264 122.997 132.264C123.743 132.264 124.389 132.428 124.936 132.756C125.483 133.085 125.905 133.545 126.204 134.138C126.505 134.732 126.656 135.423 126.656 136.212C126.656 137 126.505 137.69 126.204 138.28C125.905 138.87 125.483 139.329 124.936 139.657C124.389 139.985 123.743 140.149 122.997 140.149ZM123.007 138.707C123.411 138.707 123.749 138.596 124.021 138.374C124.293 138.149 124.495 137.847 124.628 137.469C124.763 137.092 124.831 136.671 124.831 136.207C124.831 135.739 124.763 135.317 124.628 134.939C124.495 134.558 124.293 134.254 124.021 134.029C123.749 133.804 123.411 133.691 123.007 133.691C122.593 133.691 122.248 133.804 121.973 134.029C121.701 134.254 121.497 134.558 121.361 134.939C121.229 135.317 121.162 135.739 121.162 136.207C121.162 136.671 121.229 137.092 121.361 137.469C121.497 137.847 121.701 138.149 121.973 138.374C122.248 138.596 122.593 138.707 123.007 138.707ZM128.184 140V132.364H129.929V133.636H130.008C130.147 133.196 130.386 132.856 130.724 132.617C131.065 132.375 131.455 132.254 131.892 132.254C131.992 132.254 132.103 132.259 132.225 132.269C132.351 132.276 132.456 132.287 132.539 132.304V133.96C132.462 133.933 132.341 133.91 132.176 133.89C132.013 133.867 131.856 133.855 131.703 133.855C131.375 133.855 131.08 133.926 130.818 134.069C130.56 134.208 130.356 134.402 130.207 134.651C130.058 134.899 129.983 135.186 129.983 135.511V140H128.184ZM136.801 140.149C136.035 140.149 135.374 139.99 134.817 139.672C134.263 139.35 133.837 138.896 133.539 138.31C133.241 137.72 133.092 137.025 133.092 136.227C133.092 135.441 133.241 134.752 133.539 134.158C133.841 133.562 134.262 133.098 134.802 132.766C135.342 132.432 135.977 132.264 136.706 132.264C137.177 132.264 137.621 132.34 138.038 132.493C138.459 132.642 138.831 132.874 139.152 133.189C139.477 133.504 139.732 133.905 139.918 134.392C140.103 134.876 140.196 135.453 140.196 136.122V136.674H133.937V135.461H138.471C138.468 135.116 138.393 134.81 138.247 134.541C138.101 134.269 137.898 134.056 137.636 133.9C137.377 133.744 137.076 133.666 136.731 133.666C136.363 133.666 136.04 133.756 135.761 133.935C135.483 134.11 135.266 134.342 135.11 134.631C134.958 134.916 134.88 135.229 134.877 135.57V136.629C134.877 137.073 134.958 137.455 135.12 137.773C135.283 138.088 135.51 138.33 135.801 138.499C136.093 138.664 136.434 138.747 136.825 138.747C137.087 138.747 137.324 138.711 137.536 138.638C137.748 138.562 137.932 138.451 138.088 138.305C138.244 138.159 138.362 137.978 138.441 137.763L140.122 137.952C140.015 138.396 139.813 138.784 139.515 139.115C139.22 139.443 138.842 139.698 138.381 139.881C137.921 140.06 137.394 140.149 136.801 140.149ZM146.578 140H144.61L148.194 129.818H150.471L154.061 140H152.092L149.372 131.906H149.293L146.578 140ZM146.643 136.008H152.012V137.489H146.643V136.008ZM158.421 140.149C157.658 140.149 157.004 139.982 156.457 139.647C155.913 139.312 155.494 138.85 155.199 138.26C154.907 137.667 154.762 136.984 154.762 136.212C154.762 135.436 154.911 134.752 155.209 134.158C155.507 133.562 155.928 133.098 156.472 132.766C157.019 132.432 157.665 132.264 158.411 132.264C159.031 132.264 159.579 132.379 160.056 132.607C160.537 132.833 160.92 133.152 161.205 133.567C161.49 133.978 161.652 134.458 161.692 135.009H159.972C159.902 134.641 159.737 134.334 159.475 134.089C159.216 133.84 158.87 133.716 158.436 133.716C158.068 133.716 157.745 133.815 157.466 134.014C157.188 134.21 156.971 134.491 156.815 134.859C156.662 135.227 156.586 135.668 156.586 136.182C156.586 136.702 156.662 137.15 156.815 137.524C156.967 137.895 157.181 138.182 157.456 138.384C157.735 138.583 158.061 138.683 158.436 138.683C158.701 138.683 158.938 138.633 159.147 138.533C159.359 138.431 159.536 138.283 159.679 138.091C159.821 137.899 159.919 137.665 159.972 137.39H161.692C161.649 137.93 161.49 138.409 161.215 138.827C160.94 139.241 160.565 139.566 160.091 139.801C159.617 140.033 159.06 140.149 158.421 140.149ZM166.983 132.364V133.756H162.593V132.364H166.983ZM163.677 130.534H165.477V137.703C165.477 137.945 165.513 138.131 165.586 138.26C165.662 138.386 165.762 138.472 165.884 138.518C166.007 138.565 166.143 138.588 166.292 138.588C166.405 138.588 166.507 138.58 166.6 138.563C166.696 138.547 166.769 138.532 166.819 138.518L167.122 139.925C167.026 139.959 166.889 139.995 166.71 140.035C166.534 140.075 166.319 140.098 166.063 140.104C165.613 140.118 165.207 140.05 164.845 139.901C164.484 139.748 164.197 139.513 163.985 139.195C163.776 138.876 163.674 138.479 163.677 138.001V130.534ZM168.488 140V132.364H170.288V140H168.488ZM169.393 131.28C169.108 131.28 168.863 131.185 168.657 130.996C168.452 130.804 168.349 130.574 168.349 130.305C168.349 130.034 168.452 129.803 168.657 129.614C168.863 129.422 169.108 129.326 169.393 129.326C169.681 129.326 169.927 129.422 170.129 129.614C170.334 129.803 170.437 130.034 170.437 130.305C170.437 130.574 170.334 130.804 170.129 130.996C169.927 131.185 169.681 131.28 169.393 131.28ZM175.47 140.149C174.724 140.149 174.078 139.985 173.531 139.657C172.984 139.329 172.56 138.87 172.258 138.28C171.96 137.69 171.81 137 171.81 136.212C171.81 135.423 171.96 134.732 172.258 134.138C172.56 133.545 172.984 133.085 173.531 132.756C174.078 132.428 174.724 132.264 175.47 132.264C176.215 132.264 176.862 132.428 177.408 132.756C177.955 133.085 178.378 133.545 178.676 134.138C178.978 134.732 179.129 135.423 179.129 136.212C179.129 137 178.978 137.69 178.676 138.28C178.378 138.87 177.955 139.329 177.408 139.657C176.862 139.985 176.215 140.149 175.47 140.149ZM175.479 138.707C175.884 138.707 176.222 138.596 176.494 138.374C176.765 138.149 176.968 137.847 177.1 137.469C177.236 137.092 177.304 136.671 177.304 136.207C177.304 135.739 177.236 135.317 177.1 134.939C176.968 134.558 176.765 134.254 176.494 134.029C176.222 133.804 175.884 133.691 175.479 133.691C175.065 133.691 174.72 133.804 174.445 134.029C174.174 134.254 173.97 134.558 173.834 134.939C173.701 135.317 173.635 135.739 173.635 136.207C173.635 136.671 173.701 137.092 173.834 137.469C173.97 137.847 174.174 138.149 174.445 138.374C174.72 138.596 175.065 138.707 175.479 138.707ZM182.456 135.526V140H180.656V132.364H182.376V133.661H182.466C182.641 133.234 182.922 132.894 183.306 132.642C183.694 132.39 184.173 132.264 184.743 132.264C185.27 132.264 185.729 132.377 186.12 132.602C186.514 132.828 186.819 133.154 187.035 133.582C187.253 134.009 187.361 134.528 187.358 135.138V140H185.558V135.416C185.558 134.906 185.426 134.506 185.16 134.218C184.899 133.93 184.536 133.786 184.072 133.786C183.757 133.786 183.477 133.855 183.231 133.994C182.989 134.13 182.799 134.327 182.66 134.586C182.524 134.844 182.456 135.158 182.456 135.526ZM195.223 134.382L193.582 134.561C193.536 134.395 193.455 134.24 193.339 134.094C193.226 133.948 193.074 133.83 192.881 133.741C192.689 133.651 192.454 133.607 192.175 133.607C191.801 133.607 191.486 133.688 191.231 133.85C190.979 134.013 190.855 134.223 190.858 134.482C190.855 134.704 190.936 134.884 191.101 135.023C191.271 135.163 191.549 135.277 191.937 135.366L193.239 135.645C193.962 135.801 194.499 136.048 194.85 136.386C195.205 136.724 195.384 137.166 195.387 137.713C195.384 138.194 195.243 138.618 194.964 138.986C194.689 139.35 194.306 139.635 193.816 139.841C193.325 140.046 192.762 140.149 192.126 140.149C191.191 140.149 190.439 139.954 189.869 139.562C189.298 139.168 188.959 138.62 188.849 137.917L190.604 137.748C190.684 138.093 190.853 138.353 191.111 138.528C191.37 138.704 191.706 138.792 192.121 138.792C192.548 138.792 192.891 138.704 193.15 138.528C193.412 138.353 193.543 138.136 193.543 137.877C193.543 137.658 193.458 137.478 193.289 137.335C193.123 137.193 192.865 137.083 192.513 137.007L191.211 136.734C190.478 136.581 189.936 136.324 189.585 135.963C189.234 135.598 189.06 135.138 189.063 134.581C189.06 134.11 189.187 133.703 189.446 133.358C189.708 133.01 190.071 132.741 190.535 132.553C191.002 132.36 191.541 132.264 192.15 132.264C193.045 132.264 193.75 132.455 194.263 132.836C194.78 133.217 195.1 133.732 195.223 134.382Z" fill="#388523"/>
</svg>
