<svg width="224" height="117" viewBox="0 0 224 117" fill="none" xmlns="http://www.w3.org/2000/svg">
<g clip-path="url(#clip0_2568_35162)">
<path d="M-3 23C-3 18.5817 0.581722 15 5 15H55C59.4183 15 63 18.5817 63 23V31C63 35.4183 59.4183 39 55 39H5C0.581722 39 -3 35.4183 -3 31V23Z" fill="#F1F0E9"/>
<path d="M-3 55C-3 50.5817 0.581722 47 5 47H55C59.4183 47 63 50.5817 63 55V63C63 67.4183 59.4183 71 55 71H5C0.581722 71 -3 67.4183 -3 63V55Z" fill="#F1F0E9"/>
<path d="M-3 87C-3 82.5817 0.581722 79 5 79H55C59.4183 79 63 82.5817 63 87V95C63 99.4183 59.4183 103 55 103H5C0.581722 103 -3 99.4183 -3 95V87Z" fill="#F1F0E9"/>
<path d="M71 23C71 18.5817 74.5817 15 79 15H103C107.418 15 111 18.5817 111 23V95C111 99.4183 107.418 103 103 103H79C74.5817 103 71 99.4183 71 95V23Z" fill="#DFDDD2"/>
<path d="M119 23C119 18.5817 122.582 15 127 15H135C139.418 15 143 18.5817 143 23V31C143 35.4183 139.418 39 135 39H127C122.582 39 119 35.4183 119 31V23Z" fill="#F1F0E9"/>
<path d="M151 23C151 18.5817 154.582 15 159 15H167C171.418 15 175 18.5817 175 23V31C175 35.4183 171.418 39 167 39H159C154.582 39 151 35.4183 151 31V23Z" fill="#F1F0E9"/>
<path d="M183 23C183 18.5817 186.582 15 191 15H199C203.418 15 207 18.5817 207 23V31C207 35.4183 203.418 39 199 39H191C186.582 39 183 35.4183 183 31V23Z" fill="#F1F0E9"/>
<path d="M119 55C119 50.5817 122.582 47 127 47H135C139.418 47 143 50.5817 143 55V63C143 67.4183 139.418 71 135 71H127C122.582 71 119 67.4183 119 63V55Z" fill="#F1F0E9"/>
<path d="M151 55C151 50.5817 154.582 47 159 47H167C171.418 47 175 50.5817 175 55V63C175 67.4183 171.418 71 167 71H159C154.582 71 151 67.4183 151 63V55Z" fill="#F1F0E9"/>
<path d="M183 55C183 50.5817 186.582 47 191 47H199C203.418 47 207 50.5817 207 55V63C207 67.4183 203.418 71 199 71H191C186.582 71 183 67.4183 183 63V55Z" fill="#F1F0E9"/>
<path d="M119 87C119 82.5817 122.582 79 127 79H199C203.418 79 207 82.5817 207 87V95C207 99.4183 203.418 103 199 103H127C122.582 103 119 99.4183 119 95V87Z" fill="#F1F0E9"/>
<path d="M215 23C215 18.5817 218.582 15 223 15H247C251.418 15 255 18.5817 255 23V95C255 99.4183 251.418 103 247 103H223C218.582 103 215 99.4183 215 95V23Z" fill="#DFDDD2"/>
<path d="M-3 -73C-3 -77.4183 0.581722 -81 5 -81H29C33.4183 -81 37 -77.4183 37 -73V-0.999998C37 3.41828 33.4183 7 29 7H5C0.581722 7 -3 3.41828 -3 -1V-73Z" fill="#DFDDD2"/>
<path d="M45 -9C45 -13.4183 48.5817 -17 53 -17H103C107.418 -17 111 -13.4183 111 -9V-1C111 3.41828 107.418 7 103 7H53C48.5817 7 45 3.41828 45 -1V-9Z" fill="#F1F0E9"/>
<path d="M119 -73C119 -77.4183 122.582 -81 127 -81H151C155.418 -81 159 -77.4183 159 -73V-0.999998C159 3.41828 155.418 7 151 7H127C122.582 7 119 3.41828 119 -1V-73Z" fill="#DFDDD2"/>
<path d="M167 -9C167 -13.4183 170.582 -17 175 -17H225C229.418 -17 233 -13.4183 233 -9V-1C233 3.41828 229.418 7 225 7H175C170.582 7 167 3.41828 167 -1V-9Z" fill="#F1F0E9"/>
<path d="M-52 119C-52 114.582 -48.4183 111 -44 111H6C10.4183 111 14 114.582 14 119V127C14 131.418 10.4183 135 6 135H-44C-48.4183 135 -52 131.418 -52 127V119Z" fill="#F1F0E9"/>
<path d="M22 119C22 114.582 25.5817 111 30 111H54C58.4183 111 62 114.582 62 119V191C62 195.418 58.4183 199 54 199H30C25.5817 199 22 195.418 22 191V119Z" fill="#DFDDD2"/>
<path d="M70 119C70 114.582 73.5817 111 78 111H128C132.418 111 136 114.582 136 119V127C136 131.418 132.418 135 128 135H78C73.5817 135 70 131.418 70 127V119Z" fill="#F1F0E9"/>
<path d="M144 119C144 114.582 147.582 111 152 111H176C180.418 111 184 114.582 184 119V191C184 195.418 180.418 199 176 199H152C147.582 199 144 195.418 144 191V119Z" fill="#DFDDD2"/>
<path d="M192 119C192 114.582 195.582 111 200 111H250C254.418 111 258 114.582 258 119V127C258 131.418 254.418 135 250 135H200C195.582 135 192 131.418 192 127V119Z" fill="#F1F0E9"/>
</g>
<defs>
<clipPath id="clip0_2568_35162">
<path d="M0 8C0 3.58172 3.58172 0 8 0H216C220.418 0 224 3.58172 224 8V109C224 113.418 220.418 117 216 117H8C3.58172 117 0 113.418 0 109V8Z" fill="white"/>
</clipPath>
</defs>
</svg>
