<svg width="224" height="117" viewBox="0 0 224 117" fill="none" xmlns="http://www.w3.org/2000/svg">
<g filter="url(#filter0_d_2_11783)">
<mask id="path-2-inside-1_2_11783" fill="white">
<path fill-rule="evenodd" clip-rule="evenodd" d="M30.8933 22C28.7431 22 27 23.7431 27 25.8934V91.1067C27 93.2569 28.7431 95 30.8933 95H192.953C195.104 95 196.847 93.2569 196.847 91.1067V66.7304L205.091 58.4857L196.847 50.241V25.8934C196.847 23.7431 195.104 22 192.953 22H30.8933Z"/>
</mask>
<path fill-rule="evenodd" clip-rule="evenodd" d="M30.8933 22C28.7431 22 27 23.7431 27 25.8934V91.1067C27 93.2569 28.7431 95 30.8933 95H192.953C195.104 95 196.847 93.2569 196.847 91.1067V66.7304L205.091 58.4857L196.847 50.241V25.8934C196.847 23.7431 195.104 22 192.953 22H30.8933Z" fill="white"/>
<path d="M196.847 66.7304L196.503 66.3863L196.36 66.5288V66.7304H196.847ZM205.091 58.4857L205.435 58.8298L205.78 58.4857L205.435 58.1416L205.091 58.4857ZM196.847 50.241H196.36V50.4426L196.503 50.5852L196.847 50.241ZM27.4867 25.8934C27.4867 24.0119 29.0119 22.4867 30.8933 22.4867V21.5134C28.4743 21.5134 26.5133 23.4744 26.5133 25.8934H27.4867ZM27.4867 91.1067V25.8934H26.5133V91.1067H27.4867ZM30.8933 94.5134C29.0119 94.5134 27.4867 92.9882 27.4867 91.1067H26.5133C26.5133 93.5257 28.4743 95.4867 30.8933 95.4867V94.5134ZM192.953 94.5134H30.8933V95.4867H192.953V94.5134ZM196.36 91.1067C196.36 92.9881 194.835 94.5134 192.953 94.5134V95.4867C195.372 95.4867 197.333 93.5257 197.333 91.1067H196.36ZM196.36 66.7304V91.1067H197.333V66.7304H196.36ZM204.747 58.1416L196.503 66.3863L197.191 67.0745L205.435 58.8298L204.747 58.1416ZM196.503 50.5852L204.747 58.8298L205.435 58.1416L197.191 49.8969L196.503 50.5852ZM196.36 25.8934V50.241H197.333V25.8934H196.36ZM192.953 22.4867C194.835 22.4867 196.36 24.0119 196.36 25.8934H197.333C197.333 23.4744 195.372 21.5134 192.953 21.5134V22.4867ZM30.8933 22.4867H192.953V21.5134H30.8933V22.4867Z" fill="#DADFE2" mask="url(#path-2-inside-1_2_11783)"/>
<path d="M185.654 32.5052L183.078 29.9292C182.986 29.8406 182.863 29.7915 182.735 29.7927C182.608 29.7938 182.486 29.8449 182.395 29.9352C182.305 30.0254 182.254 30.1475 182.253 30.2751C182.252 30.4027 182.301 30.5256 182.39 30.6174L184.965 33.1933L182.39 35.7692C182.301 35.861 182.252 35.984 182.253 36.1116C182.254 36.2392 182.305 36.3612 182.395 36.4514C182.486 36.5417 182.608 36.5929 182.735 36.594C182.863 36.5951 182.986 36.5461 183.078 36.4574L185.654 33.8815L188.23 36.4574C188.321 36.5461 188.444 36.5951 188.572 36.594C188.699 36.5929 188.822 36.5417 188.912 36.4514C189.002 36.3612 189.053 36.2392 189.054 36.1116C189.055 35.984 189.006 35.861 188.918 35.7692L186.342 33.1933L188.918 30.6174C188.964 30.5725 189.001 30.5188 189.027 30.4594C189.052 30.4 189.066 30.3362 189.066 30.2716C189.067 30.2069 189.054 30.1429 189.03 30.0831C189.006 30.0232 188.969 29.9689 188.924 29.9232C188.878 29.8775 188.824 29.8414 188.764 29.8169C188.704 29.7924 188.64 29.7801 188.575 29.7807C188.511 29.7812 188.447 29.7947 188.388 29.8202C188.328 29.8457 188.274 29.8828 188.23 29.9292L185.654 32.5052Z" fill="#233D48"/>
</g>
<defs>
<filter id="filter0_d_2_11783" x="24.08" y="19.08" width="183.932" height="78.84" filterUnits="userSpaceOnUse" color-interpolation-filters="sRGB">
<feFlood flood-opacity="0" result="BackgroundImageFix"/>
<feColorMatrix in="SourceAlpha" type="matrix" values="0 0 0 0 0 0 0 0 0 0 0 0 0 0 0 0 0 0 127 0" result="hardAlpha"/>
<feOffset/>
<feGaussianBlur stdDeviation="1.46"/>
<feColorMatrix type="matrix" values="0 0 0 0 0.709804 0 0 0 0 0.709804 0 0 0 0 0.709804 0 0 0 0.4 0"/>
<feBlend mode="normal" in2="BackgroundImageFix" result="effect1_dropShadow_2_11783"/>
<feBlend mode="normal" in="SourceGraphic" in2="effect1_dropShadow_2_11783" result="shape"/>
</filter>
</defs>
</svg>
