<svg width="224" height="117" viewBox="0 0 224 117" fill="none" xmlns="http://www.w3.org/2000/svg">
<path d="M40 21C40 16.5817 43.5817 13 48 13H176C180.418 13 184 16.5817 184 21V97C184 101.418 180.418 105 176 105H48C43.5817 105 40 101.418 40 97V21Z" fill="white"/>
<circle cx="65" cy="33" r="7" fill="white" stroke="#388523" stroke-width="6"/>
<path d="M84.233 38V27.8182H87.6733C88.4688 27.8182 89.1217 27.9541 89.6321 28.2259C90.1425 28.4943 90.5204 28.8639 90.7656 29.3345C91.0109 29.8052 91.1335 30.3404 91.1335 30.9403C91.1335 31.5402 91.0109 32.0722 90.7656 32.5362C90.5204 33.0002 90.1442 33.3648 89.6371 33.63C89.13 33.8918 88.482 34.0227 87.6932 34.0227H84.9091V32.9091H87.6534C88.197 32.9091 88.6345 32.8295 88.9659 32.6705C89.3007 32.5114 89.5426 32.286 89.6918 31.9943C89.8442 31.6993 89.9205 31.348 89.9205 30.9403C89.9205 30.5327 89.8442 30.1764 89.6918 29.8714C89.5393 29.5665 89.2957 29.3312 88.9609 29.1655C88.6262 28.9964 88.1837 28.9119 87.6335 28.9119H85.4659V38H84.233ZM89.0256 33.4261L91.5312 38H90.0994L87.6335 33.4261H89.0256ZM95.2761 38.179C94.7922 38.179 94.353 38.0878 93.9586 37.9055C93.5642 37.7199 93.251 37.4531 93.019 37.1051C92.787 36.7538 92.671 36.3295 92.671 35.8324C92.671 35.3949 92.7572 35.0402 92.9295 34.7685C93.1019 34.4934 93.3322 34.2779 93.6206 34.1222C93.9089 33.9664 94.2271 33.8504 94.5751 33.7741C94.9264 33.6946 95.2794 33.6316 95.6341 33.5852C96.0981 33.5256 96.4743 33.4808 96.7626 33.451C97.0543 33.4179 97.2664 33.3632 97.399 33.2869C97.5349 33.2107 97.6028 33.0781 97.6028 32.8892V32.8494C97.6028 32.3589 97.4686 31.9777 97.2001 31.706C96.935 31.4342 96.5323 31.2983 95.992 31.2983C95.4319 31.2983 94.9927 31.4209 94.6745 31.6662C94.3564 31.9115 94.1326 32.1733 94.0034 32.4517L92.8897 32.054C93.0886 31.59 93.3538 31.2287 93.6852 30.9702C94.0199 30.7083 94.3845 30.526 94.7789 30.4233C95.1767 30.3172 95.5678 30.2642 95.9522 30.2642C96.1975 30.2642 96.4792 30.294 96.7974 30.3537C97.1189 30.41 97.4288 30.5277 97.7271 30.7067C98.0287 30.8857 98.2789 31.1558 98.4778 31.517C98.6767 31.8783 98.7761 32.3622 98.7761 32.9688V38H97.6028V36.9659H97.5431C97.4636 37.1316 97.331 37.3089 97.1454 37.4979C96.9598 37.6868 96.7129 37.8475 96.4047 37.9801C96.0964 38.1127 95.7202 38.179 95.2761 38.179ZM95.4551 37.125C95.9191 37.125 96.3102 37.0339 96.6284 36.8516C96.9499 36.6693 97.1918 36.4339 97.3542 36.1456C97.5199 35.8572 97.6028 35.554 97.6028 35.2358V34.1619C97.5531 34.2216 97.4437 34.2763 97.2747 34.326C97.109 34.3724 96.9167 34.4138 96.698 34.4503C96.4825 34.4834 96.2721 34.5133 96.0666 34.5398C95.8644 34.563 95.7003 34.5829 95.5744 34.5994C95.2695 34.6392 94.9844 34.7038 94.7193 34.7933C94.4574 34.8795 94.2453 35.0104 94.0829 35.1861C93.9238 35.3584 93.8443 35.5937 93.8443 35.892C93.8443 36.2997 93.9951 36.608 94.2967 36.8168C94.6016 37.0223 94.9877 37.125 95.4551 37.125ZM103.801 38.1591C103.165 38.1591 102.603 37.9983 102.116 37.6768C101.629 37.352 101.247 36.8946 100.972 36.3047C100.697 35.7114 100.56 35.0104 100.56 34.2017C100.56 33.3996 100.697 32.7036 100.972 32.1136C101.247 31.5237 101.63 31.0679 102.121 30.7464C102.611 30.425 103.178 30.2642 103.821 30.2642C104.318 30.2642 104.711 30.3471 104.999 30.5128C105.291 30.6752 105.513 30.8608 105.665 31.0696C105.821 31.2751 105.942 31.4441 106.028 31.5767H106.128V27.8182H107.301V38H106.168V36.8267H106.028C105.942 36.9659 105.82 37.1416 105.661 37.3537C105.501 37.5625 105.274 37.7498 104.979 37.9155C104.684 38.0779 104.292 38.1591 103.801 38.1591ZM103.96 37.1051C104.431 37.1051 104.829 36.9825 105.153 36.7372C105.478 36.4886 105.725 36.1456 105.894 35.7081C106.063 35.2673 106.148 34.7585 106.148 34.1818C106.148 33.6117 106.065 33.1129 105.899 32.6854C105.733 32.2545 105.488 31.9197 105.163 31.6811C104.839 31.4392 104.438 31.3182 103.96 31.3182C103.463 31.3182 103.049 31.4458 102.717 31.701C102.389 31.9529 102.142 32.2959 101.977 32.7301C101.814 33.161 101.733 33.6449 101.733 34.1818C101.733 34.7254 101.816 35.2192 101.982 35.6634C102.151 36.1042 102.399 36.4555 102.727 36.7173C103.059 36.9759 103.47 37.1051 103.96 37.1051ZM109.613 38V30.3636H110.786V38H109.613ZM110.21 29.0909C109.981 29.0909 109.784 29.013 109.618 28.8572C109.455 28.7015 109.374 28.5142 109.374 28.2955C109.374 28.0767 109.455 27.8894 109.618 27.7337C109.784 27.5779 109.981 27.5 110.21 27.5C110.438 27.5 110.634 27.5779 110.796 27.7337C110.962 27.8894 111.045 28.0767 111.045 28.2955C111.045 28.5142 110.962 28.7015 110.796 28.8572C110.634 29.013 110.438 29.0909 110.21 29.0909ZM116.037 38.1591C115.348 38.1591 114.743 37.995 114.223 37.6669C113.706 37.3388 113.301 36.8797 113.01 36.2898C112.721 35.6998 112.577 35.0104 112.577 34.2216C112.577 33.4261 112.721 32.7318 113.01 32.1385C113.301 31.5452 113.706 31.0845 114.223 30.7564C114.743 30.4283 115.348 30.2642 116.037 30.2642C116.727 30.2642 117.33 30.4283 117.847 30.7564C118.367 31.0845 118.772 31.5452 119.06 32.1385C119.352 32.7318 119.498 33.4261 119.498 34.2216C119.498 35.0104 119.352 35.6998 119.06 36.2898C118.772 36.8797 118.367 37.3388 117.847 37.6669C117.33 37.995 116.727 38.1591 116.037 38.1591ZM116.037 37.1051C116.561 37.1051 116.992 36.9709 117.33 36.7024C117.668 36.4339 117.918 36.081 118.081 35.6435C118.243 35.206 118.324 34.732 118.324 34.2216C118.324 33.7112 118.243 33.2356 118.081 32.7947C117.918 32.3539 117.668 31.9976 117.33 31.7259C116.992 31.4541 116.561 31.3182 116.037 31.3182C115.514 31.3182 115.083 31.4541 114.745 31.7259C114.407 31.9976 114.157 32.3539 113.994 32.7947C113.832 33.2356 113.751 33.7112 113.751 34.2216C113.751 34.732 113.832 35.206 113.994 35.6435C114.157 36.081 114.407 36.4339 114.745 36.7024C115.083 36.9709 115.514 37.1051 116.037 37.1051ZM125.385 38V27.8182H126.618V36.9062H131.351V38H125.385ZM135.348 38.179C134.864 38.179 134.425 38.0878 134.031 37.9055C133.636 37.7199 133.323 37.4531 133.091 37.1051C132.859 36.7538 132.743 36.3295 132.743 35.8324C132.743 35.3949 132.829 35.0402 133.002 34.7685C133.174 34.4934 133.404 34.2779 133.693 34.1222C133.981 33.9664 134.299 33.8504 134.647 33.7741C134.999 33.6946 135.352 33.6316 135.706 33.5852C136.17 33.5256 136.547 33.4808 136.835 33.451C137.127 33.4179 137.339 33.3632 137.471 33.2869C137.607 33.2107 137.675 33.0781 137.675 32.8892V32.8494C137.675 32.3589 137.541 31.9777 137.272 31.706C137.007 31.4342 136.605 31.2983 136.064 31.2983C135.504 31.2983 135.065 31.4209 134.747 31.6662C134.429 31.9115 134.205 32.1733 134.076 32.4517L132.962 32.054C133.161 31.59 133.426 31.2287 133.757 30.9702C134.092 30.7083 134.457 30.526 134.851 30.4233C135.249 30.3172 135.64 30.2642 136.025 30.2642C136.27 30.2642 136.551 30.294 136.87 30.3537C137.191 30.41 137.501 30.5277 137.799 30.7067C138.101 30.8857 138.351 31.1558 138.55 31.517C138.749 31.8783 138.848 32.3622 138.848 32.9688V38H137.675V36.9659H137.615C137.536 37.1316 137.403 37.3089 137.218 37.4979C137.032 37.6868 136.785 37.8475 136.477 37.9801C136.169 38.1127 135.792 38.179 135.348 38.179ZM135.527 37.125C135.991 37.125 136.382 37.0339 136.701 36.8516C137.022 36.6693 137.264 36.4339 137.426 36.1456C137.592 35.8572 137.675 35.554 137.675 35.2358V34.1619C137.625 34.2216 137.516 34.2763 137.347 34.326C137.181 34.3724 136.989 34.4138 136.77 34.4503C136.555 34.4834 136.344 34.5133 136.139 34.5398C135.937 34.563 135.773 34.5829 135.647 34.5994C135.342 34.6392 135.057 34.7038 134.792 34.7933C134.53 34.8795 134.318 35.0104 134.155 35.1861C133.996 35.3584 133.917 35.5937 133.917 35.892C133.917 36.2997 134.067 36.608 134.369 36.8168C134.674 37.0223 135.06 37.125 135.527 37.125ZM141.149 38V27.8182H142.322V31.5767H142.422C142.508 31.4441 142.627 31.2751 142.78 31.0696C142.935 30.8608 143.157 30.6752 143.446 30.5128C143.738 30.3471 144.132 30.2642 144.629 30.2642C145.272 30.2642 145.839 30.425 146.329 30.7464C146.82 31.0679 147.203 31.5237 147.478 32.1136C147.753 32.7036 147.89 33.3996 147.89 34.2017C147.89 35.0104 147.753 35.7114 147.478 36.3047C147.203 36.8946 146.822 37.352 146.334 37.6768C145.847 37.9983 145.285 38.1591 144.649 38.1591C144.158 38.1591 143.766 38.0779 143.471 37.9155C143.176 37.7498 142.949 37.5625 142.79 37.3537C142.631 37.1416 142.508 36.9659 142.422 36.8267H142.282V38H141.149ZM142.302 34.1818C142.302 34.7585 142.387 35.2673 142.556 35.7081C142.725 36.1456 142.972 36.4886 143.297 36.7372C143.622 36.9825 144.019 37.1051 144.49 37.1051C144.98 37.1051 145.39 36.9759 145.718 36.7173C146.049 36.4555 146.298 36.1042 146.464 35.6634C146.633 35.2192 146.717 34.7254 146.717 34.1818C146.717 33.6449 146.634 33.161 146.469 32.7301C146.306 32.2959 146.059 31.9529 145.728 31.701C145.4 31.4458 144.987 31.3182 144.49 31.3182C144.013 31.3182 143.612 31.4392 143.287 31.6811C142.962 31.9197 142.717 32.2545 142.551 32.6854C142.385 33.1129 142.302 33.6117 142.302 34.1818ZM152.887 38.1591C152.151 38.1591 151.516 37.9967 150.983 37.6719C150.452 37.3438 150.043 36.8864 149.755 36.2997C149.47 35.7098 149.327 35.0237 149.327 34.2415C149.327 33.4593 149.47 32.7699 149.755 32.1733C150.043 31.5734 150.444 31.1061 150.958 30.7713C151.475 30.4332 152.078 30.2642 152.768 30.2642C153.165 30.2642 153.558 30.3305 153.946 30.4631C154.334 30.5956 154.687 30.8111 155.005 31.1094C155.323 31.4044 155.577 31.7955 155.765 32.2827C155.954 32.7699 156.049 33.3698 156.049 34.0824V34.5795H150.162V33.5653H154.856C154.856 33.1345 154.769 32.75 154.597 32.4119C154.428 32.0739 154.186 31.8071 153.871 31.6115C153.56 31.416 153.192 31.3182 152.768 31.3182C152.3 31.3182 151.896 31.4342 151.555 31.6662C151.216 31.8949 150.956 32.1932 150.774 32.5611C150.592 32.929 150.501 33.3234 150.501 33.7443V34.4205C150.501 34.9972 150.6 35.486 150.799 35.8871C151.001 36.2848 151.281 36.5881 151.639 36.7969C151.997 37.0024 152.413 37.1051 152.887 37.1051C153.195 37.1051 153.474 37.062 153.722 36.9759C153.974 36.8864 154.191 36.7538 154.373 36.5781C154.556 36.3991 154.697 36.1771 154.796 35.9119L155.93 36.2301C155.81 36.6146 155.61 36.9527 155.328 37.2443C155.046 37.5327 154.698 37.758 154.284 37.9205C153.87 38.0795 153.404 38.1591 152.887 38.1591ZM159.007 27.8182V38H157.834V27.8182H159.007Z" fill="#233D48"/>
<circle cx="65" cy="59" r="9" fill="white" stroke="#DADFE2" stroke-width="2"/>
<path d="M84.233 64V53.8182H87.6733C88.4688 53.8182 89.1217 53.9541 89.6321 54.2259C90.1425 54.4943 90.5204 54.8639 90.7656 55.3345C91.0109 55.8052 91.1335 56.3404 91.1335 56.9403C91.1335 57.5402 91.0109 58.0722 90.7656 58.5362C90.5204 59.0002 90.1442 59.3648 89.6371 59.63C89.13 59.8918 88.482 60.0227 87.6932 60.0227H84.9091V58.9091H87.6534C88.197 58.9091 88.6345 58.8295 88.9659 58.6705C89.3007 58.5114 89.5426 58.286 89.6918 57.9943C89.8442 57.6993 89.9205 57.348 89.9205 56.9403C89.9205 56.5327 89.8442 56.1764 89.6918 55.8714C89.5393 55.5665 89.2957 55.3312 88.9609 55.1655C88.6262 54.9964 88.1837 54.9119 87.6335 54.9119H85.4659V64H84.233ZM89.0256 59.4261L91.5312 64H90.0994L87.6335 59.4261H89.0256ZM95.2761 64.179C94.7922 64.179 94.353 64.0878 93.9586 63.9055C93.5642 63.7199 93.251 63.4531 93.019 63.1051C92.787 62.7538 92.671 62.3295 92.671 61.8324C92.671 61.3949 92.7572 61.0402 92.9295 60.7685C93.1019 60.4934 93.3322 60.2779 93.6206 60.1222C93.9089 59.9664 94.2271 59.8504 94.5751 59.7741C94.9264 59.6946 95.2794 59.6316 95.6341 59.5852C96.0981 59.5256 96.4743 59.4808 96.7626 59.451C97.0543 59.4179 97.2664 59.3632 97.399 59.2869C97.5349 59.2107 97.6028 59.0781 97.6028 58.8892V58.8494C97.6028 58.3589 97.4686 57.9777 97.2001 57.706C96.935 57.4342 96.5323 57.2983 95.992 57.2983C95.4319 57.2983 94.9927 57.4209 94.6745 57.6662C94.3564 57.9115 94.1326 58.1733 94.0034 58.4517L92.8897 58.054C93.0886 57.59 93.3538 57.2287 93.6852 56.9702C94.0199 56.7083 94.3845 56.526 94.7789 56.4233C95.1767 56.3172 95.5678 56.2642 95.9522 56.2642C96.1975 56.2642 96.4792 56.294 96.7974 56.3537C97.1189 56.41 97.4288 56.5277 97.7271 56.7067C98.0287 56.8857 98.2789 57.1558 98.4778 57.517C98.6767 57.8783 98.7761 58.3622 98.7761 58.9688V64H97.6028V62.9659H97.5431C97.4636 63.1316 97.331 63.3089 97.1454 63.4979C96.9598 63.6868 96.7129 63.8475 96.4047 63.9801C96.0964 64.1127 95.7202 64.179 95.2761 64.179ZM95.4551 63.125C95.9191 63.125 96.3102 63.0339 96.6284 62.8516C96.9499 62.6693 97.1918 62.4339 97.3542 62.1456C97.5199 61.8572 97.6028 61.554 97.6028 61.2358V60.1619C97.5531 60.2216 97.4437 60.2763 97.2747 60.326C97.109 60.3724 96.9167 60.4138 96.698 60.4503C96.4825 60.4834 96.2721 60.5133 96.0666 60.5398C95.8644 60.563 95.7003 60.5829 95.5744 60.5994C95.2695 60.6392 94.9844 60.7038 94.7193 60.7933C94.4574 60.8795 94.2453 61.0104 94.0829 61.1861C93.9238 61.3584 93.8443 61.5937 93.8443 61.892C93.8443 62.2997 93.9951 62.608 94.2967 62.8168C94.6016 63.0223 94.9877 63.125 95.4551 63.125ZM103.801 64.1591C103.165 64.1591 102.603 63.9983 102.116 63.6768C101.629 63.352 101.247 62.8946 100.972 62.3047C100.697 61.7114 100.56 61.0104 100.56 60.2017C100.56 59.3996 100.697 58.7036 100.972 58.1136C101.247 57.5237 101.63 57.0679 102.121 56.7464C102.611 56.425 103.178 56.2642 103.821 56.2642C104.318 56.2642 104.711 56.3471 104.999 56.5128C105.291 56.6752 105.513 56.8608 105.665 57.0696C105.821 57.2751 105.942 57.4441 106.028 57.5767H106.128V53.8182H107.301V64H106.168V62.8267H106.028C105.942 62.9659 105.82 63.1416 105.661 63.3537C105.501 63.5625 105.274 63.7498 104.979 63.9155C104.684 64.0779 104.292 64.1591 103.801 64.1591ZM103.96 63.1051C104.431 63.1051 104.829 62.9825 105.153 62.7372C105.478 62.4886 105.725 62.1456 105.894 61.7081C106.063 61.2673 106.148 60.7585 106.148 60.1818C106.148 59.6117 106.065 59.1129 105.899 58.6854C105.733 58.2545 105.488 57.9197 105.163 57.6811C104.839 57.4392 104.438 57.3182 103.96 57.3182C103.463 57.3182 103.049 57.4458 102.717 57.701C102.389 57.9529 102.142 58.2959 101.977 58.7301C101.814 59.161 101.733 59.6449 101.733 60.1818C101.733 60.7254 101.816 61.2192 101.982 61.6634C102.151 62.1042 102.399 62.4555 102.727 62.7173C103.059 62.9759 103.47 63.1051 103.96 63.1051ZM109.613 64V56.3636H110.786V64H109.613ZM110.21 55.0909C109.981 55.0909 109.784 55.013 109.618 54.8572C109.455 54.7015 109.374 54.5142 109.374 54.2955C109.374 54.0767 109.455 53.8894 109.618 53.7337C109.784 53.5779 109.981 53.5 110.21 53.5C110.438 53.5 110.634 53.5779 110.796 53.7337C110.962 53.8894 111.045 54.0767 111.045 54.2955C111.045 54.5142 110.962 54.7015 110.796 54.8572C110.634 55.013 110.438 55.0909 110.21 55.0909ZM116.037 64.1591C115.348 64.1591 114.743 63.995 114.223 63.6669C113.706 63.3388 113.301 62.8797 113.01 62.2898C112.721 61.6998 112.577 61.0104 112.577 60.2216C112.577 59.4261 112.721 58.7318 113.01 58.1385C113.301 57.5452 113.706 57.0845 114.223 56.7564C114.743 56.4283 115.348 56.2642 116.037 56.2642C116.727 56.2642 117.33 56.4283 117.847 56.7564C118.367 57.0845 118.772 57.5452 119.06 58.1385C119.352 58.7318 119.498 59.4261 119.498 60.2216C119.498 61.0104 119.352 61.6998 119.06 62.2898C118.772 62.8797 118.367 63.3388 117.847 63.6669C117.33 63.995 116.727 64.1591 116.037 64.1591ZM116.037 63.1051C116.561 63.1051 116.992 62.9709 117.33 62.7024C117.668 62.4339 117.918 62.081 118.081 61.6435C118.243 61.206 118.324 60.732 118.324 60.2216C118.324 59.7112 118.243 59.2356 118.081 58.7947C117.918 58.3539 117.668 57.9976 117.33 57.7259C116.992 57.4541 116.561 57.3182 116.037 57.3182C115.514 57.3182 115.083 57.4541 114.745 57.7259C114.407 57.9976 114.157 58.3539 113.994 58.7947C113.832 59.2356 113.751 59.7112 113.751 60.2216C113.751 60.732 113.832 61.206 113.994 61.6435C114.157 62.081 114.407 62.4339 114.745 62.7024C115.083 62.9709 115.514 63.1051 116.037 63.1051ZM125.385 64V53.8182H126.618V62.9062H131.351V64H125.385ZM135.348 64.179C134.864 64.179 134.425 64.0878 134.031 63.9055C133.636 63.7199 133.323 63.4531 133.091 63.1051C132.859 62.7538 132.743 62.3295 132.743 61.8324C132.743 61.3949 132.829 61.0402 133.002 60.7685C133.174 60.4934 133.404 60.2779 133.693 60.1222C133.981 59.9664 134.299 59.8504 134.647 59.7741C134.999 59.6946 135.352 59.6316 135.706 59.5852C136.17 59.5256 136.547 59.4808 136.835 59.451C137.127 59.4179 137.339 59.3632 137.471 59.2869C137.607 59.2107 137.675 59.0781 137.675 58.8892V58.8494C137.675 58.3589 137.541 57.9777 137.272 57.706C137.007 57.4342 136.605 57.2983 136.064 57.2983C135.504 57.2983 135.065 57.4209 134.747 57.6662C134.429 57.9115 134.205 58.1733 134.076 58.4517L132.962 58.054C133.161 57.59 133.426 57.2287 133.757 56.9702C134.092 56.7083 134.457 56.526 134.851 56.4233C135.249 56.3172 135.64 56.2642 136.025 56.2642C136.27 56.2642 136.551 56.294 136.87 56.3537C137.191 56.41 137.501 56.5277 137.799 56.7067C138.101 56.8857 138.351 57.1558 138.55 57.517C138.749 57.8783 138.848 58.3622 138.848 58.9688V64H137.675V62.9659H137.615C137.536 63.1316 137.403 63.3089 137.218 63.4979C137.032 63.6868 136.785 63.8475 136.477 63.9801C136.169 64.1127 135.792 64.179 135.348 64.179ZM135.527 63.125C135.991 63.125 136.382 63.0339 136.701 62.8516C137.022 62.6693 137.264 62.4339 137.426 62.1456C137.592 61.8572 137.675 61.554 137.675 61.2358V60.1619C137.625 60.2216 137.516 60.2763 137.347 60.326C137.181 60.3724 136.989 60.4138 136.77 60.4503C136.555 60.4834 136.344 60.5133 136.139 60.5398C135.937 60.563 135.773 60.5829 135.647 60.5994C135.342 60.6392 135.057 60.7038 134.792 60.7933C134.53 60.8795 134.318 61.0104 134.155 61.1861C133.996 61.3584 133.917 61.5937 133.917 61.892C133.917 62.2997 134.067 62.608 134.369 62.8168C134.674 63.0223 135.06 63.125 135.527 63.125ZM141.149 64V53.8182H142.322V57.5767H142.422C142.508 57.4441 142.627 57.2751 142.78 57.0696C142.935 56.8608 143.157 56.6752 143.446 56.5128C143.738 56.3471 144.132 56.2642 144.629 56.2642C145.272 56.2642 145.839 56.425 146.329 56.7464C146.82 57.0679 147.203 57.5237 147.478 58.1136C147.753 58.7036 147.89 59.3996 147.89 60.2017C147.89 61.0104 147.753 61.7114 147.478 62.3047C147.203 62.8946 146.822 63.352 146.334 63.6768C145.847 63.9983 145.285 64.1591 144.649 64.1591C144.158 64.1591 143.766 64.0779 143.471 63.9155C143.176 63.7498 142.949 63.5625 142.79 63.3537C142.631 63.1416 142.508 62.9659 142.422 62.8267H142.282V64H141.149ZM142.302 60.1818C142.302 60.7585 142.387 61.2673 142.556 61.7081C142.725 62.1456 142.972 62.4886 143.297 62.7372C143.622 62.9825 144.019 63.1051 144.49 63.1051C144.98 63.1051 145.39 62.9759 145.718 62.7173C146.049 62.4555 146.298 62.1042 146.464 61.6634C146.633 61.2192 146.717 60.7254 146.717 60.1818C146.717 59.6449 146.634 59.161 146.469 58.7301C146.306 58.2959 146.059 57.9529 145.728 57.701C145.4 57.4458 144.987 57.3182 144.49 57.3182C144.013 57.3182 143.612 57.4392 143.287 57.6811C142.962 57.9197 142.717 58.2545 142.551 58.6854C142.385 59.1129 142.302 59.6117 142.302 60.1818ZM152.887 64.1591C152.151 64.1591 151.516 63.9967 150.983 63.6719C150.452 63.3438 150.043 62.8864 149.755 62.2997C149.47 61.7098 149.327 61.0237 149.327 60.2415C149.327 59.4593 149.47 58.7699 149.755 58.1733C150.043 57.5734 150.444 57.1061 150.958 56.7713C151.475 56.4332 152.078 56.2642 152.768 56.2642C153.165 56.2642 153.558 56.3305 153.946 56.4631C154.334 56.5956 154.687 56.8111 155.005 57.1094C155.323 57.4044 155.577 57.7955 155.765 58.2827C155.954 58.7699 156.049 59.3698 156.049 60.0824V60.5795H150.162V59.5653H154.856C154.856 59.1345 154.769 58.75 154.597 58.4119C154.428 58.0739 154.186 57.8071 153.871 57.6115C153.56 57.416 153.192 57.3182 152.768 57.3182C152.3 57.3182 151.896 57.4342 151.555 57.6662C151.216 57.8949 150.956 58.1932 150.774 58.5611C150.592 58.929 150.501 59.3234 150.501 59.7443V60.4205C150.501 60.9972 150.6 61.486 150.799 61.8871C151.001 62.2848 151.281 62.5881 151.639 62.7969C151.997 63.0024 152.413 63.1051 152.887 63.1051C153.195 63.1051 153.474 63.062 153.722 62.9759C153.974 62.8864 154.191 62.7538 154.373 62.5781C154.556 62.3991 154.697 62.1771 154.796 61.9119L155.93 62.2301C155.81 62.6146 155.61 62.9527 155.328 63.2443C155.046 63.5327 154.698 63.758 154.284 63.9205C153.87 64.0795 153.404 64.1591 152.887 64.1591ZM159.007 53.8182V64H157.834V53.8182H159.007Z" fill="#233D48"/>
<circle cx="65" cy="85" r="9" fill="white" stroke="#DADFE2" stroke-width="2"/>
<path d="M84.233 90V79.8182H87.6733C88.4688 79.8182 89.1217 79.9541 89.6321 80.2259C90.1425 80.4943 90.5204 80.8639 90.7656 81.3345C91.0109 81.8052 91.1335 82.3404 91.1335 82.9403C91.1335 83.5402 91.0109 84.0722 90.7656 84.5362C90.5204 85.0002 90.1442 85.3648 89.6371 85.63C89.13 85.8918 88.482 86.0227 87.6932 86.0227H84.9091V84.9091H87.6534C88.197 84.9091 88.6345 84.8295 88.9659 84.6705C89.3007 84.5114 89.5426 84.286 89.6918 83.9943C89.8442 83.6993 89.9205 83.348 89.9205 82.9403C89.9205 82.5327 89.8442 82.1764 89.6918 81.8714C89.5393 81.5665 89.2957 81.3312 88.9609 81.1655C88.6262 80.9964 88.1837 80.9119 87.6335 80.9119H85.4659V90H84.233ZM89.0256 85.4261L91.5312 90H90.0994L87.6335 85.4261H89.0256ZM95.2761 90.179C94.7922 90.179 94.353 90.0878 93.9586 89.9055C93.5642 89.7199 93.251 89.4531 93.019 89.1051C92.787 88.7538 92.671 88.3295 92.671 87.8324C92.671 87.3949 92.7572 87.0402 92.9295 86.7685C93.1019 86.4934 93.3322 86.2779 93.6206 86.1222C93.9089 85.9664 94.2271 85.8504 94.5751 85.7741C94.9264 85.6946 95.2794 85.6316 95.6341 85.5852C96.0981 85.5256 96.4743 85.4808 96.7626 85.451C97.0543 85.4179 97.2664 85.3632 97.399 85.2869C97.5349 85.2107 97.6028 85.0781 97.6028 84.8892V84.8494C97.6028 84.3589 97.4686 83.9777 97.2001 83.706C96.935 83.4342 96.5323 83.2983 95.992 83.2983C95.4319 83.2983 94.9927 83.4209 94.6745 83.6662C94.3564 83.9115 94.1326 84.1733 94.0034 84.4517L92.8897 84.054C93.0886 83.59 93.3538 83.2287 93.6852 82.9702C94.0199 82.7083 94.3845 82.526 94.7789 82.4233C95.1767 82.3172 95.5678 82.2642 95.9522 82.2642C96.1975 82.2642 96.4792 82.294 96.7974 82.3537C97.1189 82.41 97.4288 82.5277 97.7271 82.7067C98.0287 82.8857 98.2789 83.1558 98.4778 83.517C98.6767 83.8783 98.7761 84.3622 98.7761 84.9688V90H97.6028V88.9659H97.5431C97.4636 89.1316 97.331 89.3089 97.1454 89.4979C96.9598 89.6868 96.7129 89.8475 96.4047 89.9801C96.0964 90.1127 95.7202 90.179 95.2761 90.179ZM95.4551 89.125C95.9191 89.125 96.3102 89.0339 96.6284 88.8516C96.9499 88.6693 97.1918 88.4339 97.3542 88.1456C97.5199 87.8572 97.6028 87.554 97.6028 87.2358V86.1619C97.5531 86.2216 97.4437 86.2763 97.2747 86.326C97.109 86.3724 96.9167 86.4138 96.698 86.4503C96.4825 86.4834 96.2721 86.5133 96.0666 86.5398C95.8644 86.563 95.7003 86.5829 95.5744 86.5994C95.2695 86.6392 94.9844 86.7038 94.7193 86.7933C94.4574 86.8795 94.2453 87.0104 94.0829 87.1861C93.9238 87.3584 93.8443 87.5937 93.8443 87.892C93.8443 88.2997 93.9951 88.608 94.2967 88.8168C94.6016 89.0223 94.9877 89.125 95.4551 89.125ZM103.801 90.1591C103.165 90.1591 102.603 89.9983 102.116 89.6768C101.629 89.352 101.247 88.8946 100.972 88.3047C100.697 87.7114 100.56 87.0104 100.56 86.2017C100.56 85.3996 100.697 84.7036 100.972 84.1136C101.247 83.5237 101.63 83.0679 102.121 82.7464C102.611 82.425 103.178 82.2642 103.821 82.2642C104.318 82.2642 104.711 82.3471 104.999 82.5128C105.291 82.6752 105.513 82.8608 105.665 83.0696C105.821 83.2751 105.942 83.4441 106.028 83.5767H106.128V79.8182H107.301V90H106.168V88.8267H106.028C105.942 88.9659 105.82 89.1416 105.661 89.3537C105.501 89.5625 105.274 89.7498 104.979 89.9155C104.684 90.0779 104.292 90.1591 103.801 90.1591ZM103.96 89.1051C104.431 89.1051 104.829 88.9825 105.153 88.7372C105.478 88.4886 105.725 88.1456 105.894 87.7081C106.063 87.2673 106.148 86.7585 106.148 86.1818C106.148 85.6117 106.065 85.1129 105.899 84.6854C105.733 84.2545 105.488 83.9197 105.163 83.6811C104.839 83.4392 104.438 83.3182 103.96 83.3182C103.463 83.3182 103.049 83.4458 102.717 83.701C102.389 83.9529 102.142 84.2959 101.977 84.7301C101.814 85.161 101.733 85.6449 101.733 86.1818C101.733 86.7254 101.816 87.2192 101.982 87.6634C102.151 88.1042 102.399 88.4555 102.727 88.7173C103.059 88.9759 103.47 89.1051 103.96 89.1051ZM109.613 90V82.3636H110.786V90H109.613ZM110.21 81.0909C109.981 81.0909 109.784 81.013 109.618 80.8572C109.455 80.7015 109.374 80.5142 109.374 80.2955C109.374 80.0767 109.455 79.8894 109.618 79.7337C109.784 79.5779 109.981 79.5 110.21 79.5C110.438 79.5 110.634 79.5779 110.796 79.7337C110.962 79.8894 111.045 80.0767 111.045 80.2955C111.045 80.5142 110.962 80.7015 110.796 80.8572C110.634 81.013 110.438 81.0909 110.21 81.0909ZM116.037 90.1591C115.348 90.1591 114.743 89.995 114.223 89.6669C113.706 89.3388 113.301 88.8797 113.01 88.2898C112.721 87.6998 112.577 87.0104 112.577 86.2216C112.577 85.4261 112.721 84.7318 113.01 84.1385C113.301 83.5452 113.706 83.0845 114.223 82.7564C114.743 82.4283 115.348 82.2642 116.037 82.2642C116.727 82.2642 117.33 82.4283 117.847 82.7564C118.367 83.0845 118.772 83.5452 119.06 84.1385C119.352 84.7318 119.498 85.4261 119.498 86.2216C119.498 87.0104 119.352 87.6998 119.06 88.2898C118.772 88.8797 118.367 89.3388 117.847 89.6669C117.33 89.995 116.727 90.1591 116.037 90.1591ZM116.037 89.1051C116.561 89.1051 116.992 88.9709 117.33 88.7024C117.668 88.4339 117.918 88.081 118.081 87.6435C118.243 87.206 118.324 86.732 118.324 86.2216C118.324 85.7112 118.243 85.2356 118.081 84.7947C117.918 84.3539 117.668 83.9976 117.33 83.7259C116.992 83.4541 116.561 83.3182 116.037 83.3182C115.514 83.3182 115.083 83.4541 114.745 83.7259C114.407 83.9976 114.157 84.3539 113.994 84.7947C113.832 85.2356 113.751 85.7112 113.751 86.2216C113.751 86.732 113.832 87.206 113.994 87.6435C114.157 88.081 114.407 88.4339 114.745 88.7024C115.083 88.9709 115.514 89.1051 116.037 89.1051ZM125.385 90V79.8182H126.618V88.9062H131.351V90H125.385ZM135.348 90.179C134.864 90.179 134.425 90.0878 134.031 89.9055C133.636 89.7199 133.323 89.4531 133.091 89.1051C132.859 88.7538 132.743 88.3295 132.743 87.8324C132.743 87.3949 132.829 87.0402 133.002 86.7685C133.174 86.4934 133.404 86.2779 133.693 86.1222C133.981 85.9664 134.299 85.8504 134.647 85.7741C134.999 85.6946 135.352 85.6316 135.706 85.5852C136.17 85.5256 136.547 85.4808 136.835 85.451C137.127 85.4179 137.339 85.3632 137.471 85.2869C137.607 85.2107 137.675 85.0781 137.675 84.8892V84.8494C137.675 84.3589 137.541 83.9777 137.272 83.706C137.007 83.4342 136.605 83.2983 136.064 83.2983C135.504 83.2983 135.065 83.4209 134.747 83.6662C134.429 83.9115 134.205 84.1733 134.076 84.4517L132.962 84.054C133.161 83.59 133.426 83.2287 133.757 82.9702C134.092 82.7083 134.457 82.526 134.851 82.4233C135.249 82.3172 135.64 82.2642 136.025 82.2642C136.27 82.2642 136.551 82.294 136.87 82.3537C137.191 82.41 137.501 82.5277 137.799 82.7067C138.101 82.8857 138.351 83.1558 138.55 83.517C138.749 83.8783 138.848 84.3622 138.848 84.9688V90H137.675V88.9659H137.615C137.536 89.1316 137.403 89.3089 137.218 89.4979C137.032 89.6868 136.785 89.8475 136.477 89.9801C136.169 90.1127 135.792 90.179 135.348 90.179ZM135.527 89.125C135.991 89.125 136.382 89.0339 136.701 88.8516C137.022 88.6693 137.264 88.4339 137.426 88.1456C137.592 87.8572 137.675 87.554 137.675 87.2358V86.1619C137.625 86.2216 137.516 86.2763 137.347 86.326C137.181 86.3724 136.989 86.4138 136.77 86.4503C136.555 86.4834 136.344 86.5133 136.139 86.5398C135.937 86.563 135.773 86.5829 135.647 86.5994C135.342 86.6392 135.057 86.7038 134.792 86.7933C134.53 86.8795 134.318 87.0104 134.155 87.1861C133.996 87.3584 133.917 87.5937 133.917 87.892C133.917 88.2997 134.067 88.608 134.369 88.8168C134.674 89.0223 135.06 89.125 135.527 89.125ZM141.149 90V79.8182H142.322V83.5767H142.422C142.508 83.4441 142.627 83.2751 142.78 83.0696C142.935 82.8608 143.157 82.6752 143.446 82.5128C143.738 82.3471 144.132 82.2642 144.629 82.2642C145.272 82.2642 145.839 82.425 146.329 82.7464C146.82 83.0679 147.203 83.5237 147.478 84.1136C147.753 84.7036 147.89 85.3996 147.89 86.2017C147.89 87.0104 147.753 87.7114 147.478 88.3047C147.203 88.8946 146.822 89.352 146.334 89.6768C145.847 89.9983 145.285 90.1591 144.649 90.1591C144.158 90.1591 143.766 90.0779 143.471 89.9155C143.176 89.7498 142.949 89.5625 142.79 89.3537C142.631 89.1416 142.508 88.9659 142.422 88.8267H142.282V90H141.149ZM142.302 86.1818C142.302 86.7585 142.387 87.2673 142.556 87.7081C142.725 88.1456 142.972 88.4886 143.297 88.7372C143.622 88.9825 144.019 89.1051 144.49 89.1051C144.98 89.1051 145.39 88.9759 145.718 88.7173C146.049 88.4555 146.298 88.1042 146.464 87.6634C146.633 87.2192 146.717 86.7254 146.717 86.1818C146.717 85.6449 146.634 85.161 146.469 84.7301C146.306 84.2959 146.059 83.9529 145.728 83.701C145.4 83.4458 144.987 83.3182 144.49 83.3182C144.013 83.3182 143.612 83.4392 143.287 83.6811C142.962 83.9197 142.717 84.2545 142.551 84.6854C142.385 85.1129 142.302 85.6117 142.302 86.1818ZM152.887 90.1591C152.151 90.1591 151.516 89.9967 150.983 89.6719C150.452 89.3438 150.043 88.8864 149.755 88.2997C149.47 87.7098 149.327 87.0237 149.327 86.2415C149.327 85.4593 149.47 84.7699 149.755 84.1733C150.043 83.5734 150.444 83.1061 150.958 82.7713C151.475 82.4332 152.078 82.2642 152.768 82.2642C153.165 82.2642 153.558 82.3305 153.946 82.4631C154.334 82.5956 154.687 82.8111 155.005 83.1094C155.323 83.4044 155.577 83.7955 155.765 84.2827C155.954 84.7699 156.049 85.3698 156.049 86.0824V86.5795H150.162V85.5653H154.856C154.856 85.1345 154.769 84.75 154.597 84.4119C154.428 84.0739 154.186 83.8071 153.871 83.6115C153.56 83.416 153.192 83.3182 152.768 83.3182C152.3 83.3182 151.896 83.4342 151.555 83.6662C151.216 83.8949 150.956 84.1932 150.774 84.5611C150.592 84.929 150.501 85.3234 150.501 85.7443V86.4205C150.501 86.9972 150.6 87.486 150.799 87.8871C151.001 88.2848 151.281 88.5881 151.639 88.7969C151.997 89.0024 152.413 89.1051 152.887 89.1051C153.195 89.1051 153.474 89.062 153.722 88.9759C153.974 88.8864 154.191 88.7538 154.373 88.5781C154.556 88.3991 154.697 88.1771 154.796 87.9119L155.93 88.2301C155.81 88.6146 155.61 88.9527 155.328 89.2443C155.046 89.5327 154.698 89.758 154.284 89.9205C153.87 90.0795 153.404 90.1591 152.887 90.1591ZM159.007 79.8182V90H157.834V79.8182H159.007Z" fill="#233D48"/>
</svg>
