<svg width="224" height="117" viewBox="0 0 224 117" fill="none" xmlns="http://www.w3.org/2000/svg">
<path d="M2 22C2 19.7909 3.79086 18 6 18H219C221.209 18 223 19.7909 223 22V95.721C223 97.9301 221.209 99.721 219 99.721H6C3.79086 99.721 2 97.9301 2 95.721V22Z" fill="white"/>
<path d="M6.77688 41.2523V34.8368H10.6487V35.526H7.55375V37.6937H10.4482V38.3829H7.55375V40.5632H10.6989V41.2523H6.77688ZM15.8833 36.4407L14.104 41.2523H13.3521L11.5728 36.4407H12.3748L13.703 40.275H13.7531L15.0813 36.4407H15.8833ZM18.7041 41.3526C18.2405 41.3526 17.8406 41.2502 17.5044 41.0456C17.1702 40.8388 16.9123 40.5506 16.7306 40.181C16.551 39.8092 16.4612 39.377 16.4612 38.8841C16.4612 38.3912 16.551 37.9569 16.7306 37.5809C16.9123 37.203 17.165 36.9085 17.4887 36.6976C17.8145 36.4845 18.1946 36.378 18.629 36.378C18.8796 36.378 19.127 36.4198 19.3714 36.5033C19.6157 36.5869 19.8381 36.7226 20.0386 36.9106C20.2391 37.0964 20.3989 37.3429 20.5179 37.6499C20.6369 37.9569 20.6965 38.3349 20.6965 38.7839V39.0971H16.9875V38.4581H19.9446C19.9446 38.1866 19.8903 37.9443 19.7817 37.7313C19.6752 37.5183 19.5228 37.3502 19.3244 37.227C19.1281 37.1038 18.8963 37.0421 18.629 37.0421C18.3345 37.0421 18.0797 37.1152 17.8646 37.2614C17.6516 37.4055 17.4877 37.5935 17.3728 37.8253C17.2579 38.0571 17.2005 38.3056 17.2005 38.5708V38.9969C17.2005 39.3602 17.2632 39.6683 17.3885 39.921C17.5158 40.1716 17.6923 40.3627 17.9179 40.4942C18.1434 40.6237 18.4055 40.6885 18.7041 40.6885C18.8984 40.6885 19.0738 40.6613 19.2304 40.607C19.3891 40.5506 19.5259 40.4671 19.6408 40.3564C19.7556 40.2436 19.8444 40.1037 19.907 39.9366L20.6213 40.1371C20.5461 40.3794 20.4197 40.5924 20.2422 40.7762C20.0647 40.9579 19.8454 41.0999 19.5844 41.2022C19.3233 41.3024 19.0299 41.3526 18.7041 41.3526ZM21.821 41.2523V36.4407H22.5353V37.1674H22.5854C22.6731 36.9294 22.8318 36.7362 23.0615 36.5879C23.2913 36.4396 23.5502 36.3655 23.8384 36.3655C23.8927 36.3655 23.9606 36.3666 24.042 36.3686C24.1235 36.3707 24.1851 36.3739 24.2269 36.378V37.1299C24.2018 37.1236 24.1444 37.1142 24.0546 37.1017C23.9669 37.087 23.8739 37.0797 23.7758 37.0797C23.5419 37.0797 23.333 37.1288 23.1493 37.227C22.9676 37.323 22.8235 37.4567 22.717 37.6279C22.6125 37.7971 22.5603 37.9903 22.5603 38.2075V41.2523H21.821ZM25.7258 43.0567C25.6005 43.0567 25.4888 43.0462 25.3906 43.0254C25.2925 43.0066 25.2246 42.9878 25.187 42.969L25.3749 42.3174C25.5545 42.3633 25.7133 42.38 25.8511 42.3675C25.9889 42.355 26.1111 42.2934 26.2176 42.1827C26.3262 42.0741 26.4254 41.8976 26.5152 41.6533L26.653 41.2774L24.8737 36.4407H25.6757L27.0039 40.275H27.054L28.3822 36.4407H29.1842L27.1417 41.954C27.0498 42.2025 26.936 42.4082 26.8003 42.5711C26.6645 42.7361 26.5068 42.8583 26.3272 42.9376C26.1497 43.017 25.9493 43.0567 25.7258 43.0567Z" fill="#233D48"/>
<path d="M43.2395 22.315H113.431V53.1897H43.2395C40.5942 53.1897 38.4498 51.0452 38.4498 48.3999V27.1048C38.4498 24.4595 40.5942 22.315 43.2395 22.315Z" fill="white"/>
<path d="M43.2395 22.315H113.431V53.1897H43.2395C40.5942 53.1897 38.4498 51.0452 38.4498 48.3999V27.1048C38.4498 24.4595 40.5942 22.315 43.2395 22.315Z" stroke="#DADFE2" stroke-width="0.630094" stroke-linecap="round"/>
<path d="M51.1359 34.351V40.7665H50.359V35.1654H50.3214L48.7551 36.2055V35.416L50.359 34.351H51.1359Z" fill="#233D48"/>
<path d="M113.431 22.315H183.622C186.268 22.315 188.412 24.4595 188.412 27.1048V48.3999C188.412 51.0452 186.268 53.1897 183.622 53.1897H113.431V22.315Z" fill="white"/>
<path d="M113.431 22.315H183.622C186.268 22.315 188.412 24.4595 188.412 27.1048V48.3999C188.412 51.0452 186.268 53.1897 183.622 53.1897H113.431V22.315Z" stroke="#DADFE2" stroke-width="0.630094"/>
<path d="M125.14 41.2523L123.385 34.8368H124.175L125.516 40.0619H125.578L126.944 34.8368H127.821L129.187 40.0619H129.25L130.59 34.8368H131.38L129.626 41.2523H128.824L127.408 36.14H127.358L125.942 41.2523H125.14ZM133.817 41.3526C133.353 41.3526 132.953 41.2502 132.617 41.0456C132.283 40.8388 132.025 40.5506 131.843 40.181C131.664 39.8092 131.574 39.377 131.574 38.8841C131.574 38.3912 131.664 37.9569 131.843 37.5809C132.025 37.203 132.278 36.9085 132.601 36.6976C132.927 36.4845 133.307 36.378 133.742 36.378C133.992 36.378 134.24 36.4198 134.484 36.5033C134.728 36.5869 134.951 36.7226 135.151 36.9106C135.352 37.0964 135.512 37.3429 135.631 37.6499C135.75 37.9569 135.809 38.3349 135.809 38.7839V39.0971H132.1V38.4581H135.057C135.057 38.1866 135.003 37.9443 134.895 37.7313C134.788 37.5183 134.636 37.3502 134.437 37.227C134.241 37.1038 134.009 37.0421 133.742 37.0421C133.447 37.0421 133.192 37.1152 132.977 37.2614C132.764 37.4055 132.6 37.5935 132.486 37.8253C132.371 38.0571 132.313 38.3056 132.313 38.5708V38.9969C132.313 39.3602 132.376 39.6683 132.501 39.921C132.629 40.1716 132.805 40.3627 133.031 40.4942C133.256 40.6237 133.518 40.6885 133.817 40.6885C134.011 40.6885 134.187 40.6613 134.343 40.607C134.502 40.5506 134.639 40.4671 134.754 40.3564C134.868 40.2436 134.957 40.1037 135.02 39.9366L135.734 40.1371C135.659 40.3794 135.533 40.5924 135.355 40.7762C135.178 40.9579 134.958 41.0999 134.697 41.2022C134.436 41.3024 134.143 41.3526 133.817 41.3526ZM138.951 41.3526C138.488 41.3526 138.088 41.2502 137.751 41.0456C137.417 40.8388 137.159 40.5506 136.978 40.181C136.798 39.8092 136.708 39.377 136.708 38.8841C136.708 38.3912 136.798 37.9569 136.978 37.5809C137.159 37.203 137.412 36.9085 137.736 36.6976C138.062 36.4845 138.442 36.378 138.876 36.378C139.127 36.378 139.374 36.4198 139.618 36.5033C139.863 36.5869 140.085 36.7226 140.286 36.9106C140.486 37.0964 140.646 37.3429 140.765 37.6499C140.884 37.9569 140.944 38.3349 140.944 38.7839V39.0971H137.235V38.4581H140.192C140.192 38.1866 140.137 37.9443 140.029 37.7313C139.922 37.5183 139.77 37.3502 139.571 37.227C139.375 37.1038 139.143 37.0421 138.876 37.0421C138.582 37.0421 138.327 37.1152 138.112 37.2614C137.899 37.4055 137.735 37.5935 137.62 37.8253C137.505 38.0571 137.448 38.3056 137.448 38.5708V38.9969C137.448 39.3602 137.51 39.6683 137.636 39.921C137.763 40.1716 137.939 40.3627 138.165 40.4942C138.39 40.6237 138.653 40.6885 138.951 40.6885C139.145 40.6885 139.321 40.6613 139.477 40.607C139.636 40.5506 139.773 40.4671 139.888 40.3564C140.003 40.2436 140.091 40.1037 140.154 39.9366L140.868 40.1371C140.793 40.3794 140.667 40.5924 140.489 40.7762C140.312 40.9579 140.093 41.0999 139.831 41.2022C139.57 41.3024 139.277 41.3526 138.951 41.3526ZM142.757 39.4981L142.745 38.5834H142.895L145 36.4407H145.915L143.672 38.7087H143.609L142.757 39.4981ZM142.068 41.2523V34.8368H142.807V41.2523H142.068ZM145.125 41.2523L143.246 38.8716L143.772 38.3578L146.065 41.2523H145.125ZM147.13 38.5458C147.13 37.7564 147.232 37.0307 147.437 36.3686C147.643 35.7045 147.938 35.0937 148.32 34.5361H148.972C148.821 34.7428 148.68 34.9976 148.549 35.3004C148.419 35.6012 148.305 35.9322 148.207 36.2935C148.109 36.6527 148.032 37.0244 147.975 37.4087C147.921 37.7929 147.894 38.172 147.894 38.5458C147.894 39.0428 147.942 39.5472 148.038 40.0588C148.134 40.5705 148.264 41.0456 148.426 41.4841C148.589 41.9227 148.771 42.2798 148.972 42.5555H148.32C147.938 41.9979 147.643 41.3881 147.437 40.726C147.232 40.0619 147.13 39.3352 147.13 38.5458ZM153.471 37.5183L152.807 37.7063C152.765 37.5956 152.703 37.488 152.622 37.3836C152.542 37.2771 152.434 37.1894 152.296 37.1205C152.158 37.0515 151.982 37.0171 151.767 37.0171C151.472 37.0171 151.227 37.085 151.03 37.2207C150.836 37.3544 150.739 37.5246 150.739 37.7313C150.739 37.9151 150.806 38.0602 150.94 38.1667C151.073 38.2732 151.282 38.362 151.566 38.433L152.28 38.6084C152.71 38.7128 153.031 38.8726 153.242 39.0877C153.453 39.3007 153.558 39.5754 153.558 39.9116C153.558 40.1872 153.479 40.4337 153.32 40.6509C153.164 40.8681 152.944 41.0393 152.662 41.1646C152.381 41.2899 152.053 41.3526 151.679 41.3526C151.188 41.3526 150.782 41.2461 150.46 41.033C150.139 40.82 149.935 40.5089 149.849 40.0995L150.551 39.9241C150.618 40.1831 150.744 40.3773 150.93 40.5068C151.118 40.6362 151.363 40.701 151.666 40.701C152.011 40.701 152.284 40.6279 152.487 40.4817C152.692 40.3334 152.794 40.1559 152.794 39.9492C152.794 39.7821 152.736 39.6422 152.619 39.5294C152.502 39.4145 152.322 39.3289 152.08 39.2725L151.278 39.0846C150.837 38.9802 150.514 38.8183 150.307 38.599C150.102 38.3777 150 38.101 150 37.7689C150 37.4974 150.076 37.2572 150.228 37.0484C150.383 36.8396 150.593 36.6756 150.858 36.5566C151.125 36.4376 151.428 36.378 151.767 36.378C152.243 36.378 152.617 36.4825 152.888 36.6913C153.162 36.9001 153.356 37.1758 153.471 37.5183ZM156.25 38.5458C156.25 39.3352 156.147 40.0619 155.94 40.726C155.735 41.3881 155.442 41.9979 155.06 42.5555H154.408C154.558 42.3487 154.698 42.0939 154.828 41.7911C154.959 41.4904 155.074 41.1604 155.172 40.8012C155.271 40.4399 155.347 40.0672 155.401 39.6829C155.457 39.2966 155.486 38.9175 155.486 38.5458C155.486 38.0487 155.438 37.5444 155.342 37.0327C155.246 36.5211 155.116 36.046 154.953 35.6074C154.79 35.1689 154.609 34.8118 154.408 34.5361H155.06C155.442 35.0937 155.735 35.7045 155.94 36.3686C156.147 37.0307 156.25 37.7564 156.25 38.5458Z" fill="#012939"/>
<path d="M168.377 35.4156C168.254 35.2928 168.093 35.2317 167.932 35.2319C167.771 35.2322 167.611 35.2936 167.488 35.416C167.366 35.5385 167.304 35.6989 167.304 35.8594C167.304 36.0206 167.365 36.1819 167.488 36.305L170.639 39.458C170.762 39.5811 170.923 39.6426 171.085 39.6426C171.246 39.6426 171.407 39.5811 171.531 39.458L174.681 36.3076C174.804 36.1846 174.866 36.0233 174.865 35.862C174.865 35.7015 174.804 35.5411 174.681 35.4187C174.559 35.2963 174.398 35.2349 174.237 35.2346C174.076 35.2343 173.915 35.2955 173.792 35.4182L171.085 38.1204L168.377 35.4156Z" fill="#233D48"/>
<path d="M196.399 41.3526C195.965 41.3526 195.584 41.2492 195.256 41.0424C194.93 40.8357 194.675 40.5464 194.492 40.1747C194.31 39.803 194.219 39.3686 194.219 38.8716C194.219 38.3704 194.31 37.9328 194.492 37.559C194.675 37.1852 194.93 36.8949 195.256 36.6882C195.584 36.4814 195.965 36.378 196.399 36.378C196.834 36.378 197.214 36.4814 197.54 36.6882C197.868 36.8949 198.122 37.1852 198.304 37.559C198.488 37.9328 198.58 38.3704 198.58 38.8716C198.58 39.3686 198.488 39.803 198.304 40.1747C198.122 40.5464 197.868 40.8357 197.54 41.0424C197.214 41.2492 196.834 41.3526 196.399 41.3526ZM196.399 40.6885C196.729 40.6885 197.001 40.6039 197.214 40.4347C197.427 40.2656 197.585 40.0431 197.687 39.7675C197.789 39.4918 197.84 39.1932 197.84 38.8716C197.84 38.55 197.789 38.2503 197.687 37.9725C197.585 37.6948 197.427 37.4703 197.214 37.299C197.001 37.1278 196.729 37.0421 196.399 37.0421C196.069 37.0421 195.798 37.1278 195.585 37.299C195.372 37.4703 195.214 37.6948 195.112 37.9725C195.01 38.2503 194.958 38.55 194.958 38.8716C194.958 39.1932 195.01 39.4918 195.112 39.7675C195.214 40.0431 195.372 40.2656 195.585 40.4347C195.798 40.6039 196.069 40.6885 196.399 40.6885ZM200.447 38.3578V41.2523H199.708V36.4407H200.422V37.1925H200.485C200.598 36.9482 200.769 36.7519 200.999 36.6036C201.229 36.4532 201.525 36.378 201.888 36.378C202.214 36.378 202.499 36.4449 202.744 36.5785C202.988 36.7101 203.178 36.9106 203.314 37.18C203.45 37.4473 203.517 37.7856 203.517 38.1949V41.2523H202.778V38.2451C202.778 37.8671 202.68 37.5726 202.484 37.3617C202.287 37.1487 202.018 37.0421 201.675 37.0421C201.439 37.0421 201.229 37.0933 201.043 37.1956C200.859 37.298 200.714 37.4473 200.607 37.6436C200.501 37.8399 200.447 38.078 200.447 38.3578Z" fill="#233D48"/>
<path d="M11.1048 63.9012H213.895C216.541 63.9012 218.685 66.0457 218.685 68.6909V90.6162C218.685 93.2615 216.541 95.4059 213.895 95.4059H11.1048C8.45947 95.4059 6.31505 93.2615 6.31505 90.6162V68.6909C6.31505 66.0457 8.45948 63.9012 11.1048 63.9012Z" fill="white"/>
<path d="M11.1048 63.9012H213.895C216.541 63.9012 218.685 66.0457 218.685 68.6909V90.6162C218.685 93.2615 216.541 95.4059 213.895 95.4059H11.1048C8.45947 95.4059 6.31505 93.2615 6.31505 90.6162V68.6909C6.31505 66.0457 8.45948 63.9012 11.1048 63.9012Z" stroke="#DADFE2" stroke-width="0.630094"/>
<g clip-path="url(#clip0_2314_50197)">
<path d="M24.8472 78.3419C24.8096 78.0245 24.6572 77.7781 24.3899 77.6027C24.1225 77.4272 23.7947 77.3395 23.4062 77.3395C23.1222 77.3395 22.8737 77.3855 22.6607 77.4773C22.4498 77.5692 22.2848 77.6956 22.1657 77.8564C22.0488 78.0172 21.9903 78.1999 21.9903 78.4046C21.9903 78.5758 22.031 78.7231 22.1125 78.8463C22.196 78.9674 22.3025 79.0687 22.432 79.1501C22.5615 79.2295 22.6972 79.2953 22.8392 79.3475C22.9812 79.3976 23.1118 79.4383 23.2308 79.4697L23.8824 79.6451C24.0495 79.6889 24.2353 79.7495 24.44 79.8268C24.6467 79.904 24.8441 80.0095 25.032 80.1432C25.2221 80.2747 25.3787 80.4439 25.5019 80.6506C25.6251 80.8574 25.6867 81.1111 25.6867 81.4119C25.6867 81.7585 25.5959 82.0718 25.4142 82.3516C25.2346 82.6315 24.9715 82.8539 24.6248 83.0189C24.2802 83.1838 23.8615 83.2663 23.3686 83.2663C22.9092 83.2663 22.5114 83.1922 22.1751 83.0439C21.841 82.8956 21.5779 82.6889 21.3857 82.4237C21.1957 82.1585 21.0881 81.8504 21.0631 81.4996H21.865C21.8859 81.7418 21.9673 81.9423 22.1093 82.101C22.2534 82.2576 22.4351 82.3746 22.6544 82.4519C22.8758 82.5271 23.1139 82.5646 23.3686 82.5646C23.6652 82.5646 23.9315 82.5166 24.1674 82.4205C24.4034 82.3224 24.5903 82.1866 24.7282 82.0133C24.866 81.8379 24.9349 81.6332 24.9349 81.3993C24.9349 81.1863 24.8754 81.013 24.7564 80.8793C24.6373 80.7457 24.4807 80.6371 24.2865 80.5535C24.0923 80.47 23.8824 80.3969 23.6568 80.3343L22.8674 80.1087C22.3662 79.9646 21.9694 79.7589 21.6771 79.4916C21.3847 79.2243 21.2385 78.8745 21.2385 78.4422C21.2385 78.083 21.3356 77.7697 21.5298 77.5024C21.7261 77.233 21.9893 77.0242 22.3192 76.8759C22.6513 76.7255 23.022 76.6503 23.4313 76.6503C23.8448 76.6503 24.2123 76.7245 24.534 76.8728C24.8556 77.0189 25.1103 77.2194 25.2983 77.4742C25.4883 77.729 25.5886 78.0182 25.599 78.3419H24.8472Z" fill="#233D48"/>
</g>
<g clip-path="url(#clip1_2314_50197)">
<path d="M49.9359 76.7381H50.8632L53.0435 82.0634H53.1186L55.2989 76.7381H56.2262V83.1536H55.4994V78.2793H55.4367L53.4319 83.1536H52.7302L50.7254 78.2793H50.6627V83.1536H49.9359V76.7381Z" fill="#233D48"/>
</g>
<g clip-path="url(#clip2_2314_50197)">
<path d="M80.3876 77.4272V76.7381H85.1993V77.4272H83.1819V83.1536H82.405V77.4272H80.3876Z" fill="#233D48"/>
</g>
<g clip-path="url(#clip3_2314_50197)">
<path d="M110.256 83.1536L108.501 76.7381H109.291L110.631 81.9632H110.694L112.06 76.7381H112.937L114.303 81.9632H114.365L115.706 76.7381H116.496L114.741 83.1536H113.939L112.523 78.0412H112.473L111.057 83.1536H110.256Z" fill="#233D48"/>
</g>
<g clip-path="url(#clip4_2314_50197)">
<path d="M127.984 71.8415C127.984 69.0222 130.27 66.7367 133.089 66.7367H151.328C154.147 66.7367 156.433 69.0222 156.433 71.8415V87.4658C156.433 90.2851 154.147 92.5706 151.328 92.5706H133.089C130.27 92.5706 127.984 90.2851 127.984 87.4658V71.8415Z" fill="#388523"/>
<path d="M139.805 77.4272V76.7381H144.616V77.4272H142.599V83.1536H141.822V77.4272H139.805Z" fill="white"/>
</g>
<g clip-path="url(#clip5_2314_50197)">
<path d="M170.105 83.1536V76.7381H173.952V77.4272H170.882V79.595H173.664V80.2841H170.882V83.1536H170.105Z" fill="#233D48"/>
</g>
<g clip-path="url(#clip6_2314_50197)">
<path d="M203.098 78.3419C203.061 78.0245 202.908 77.7781 202.641 77.6027C202.374 77.4272 202.046 77.3395 201.657 77.3395C201.373 77.3395 201.125 77.3855 200.912 77.4773C200.701 77.5692 200.536 77.6956 200.417 77.8564C200.3 78.0172 200.241 78.1999 200.241 78.4046C200.241 78.5758 200.282 78.7231 200.363 78.8463C200.447 78.9674 200.553 79.0687 200.683 79.1501C200.812 79.2295 200.948 79.2953 201.09 79.3475C201.232 79.3976 201.363 79.4383 201.482 79.4697L202.133 79.6451C202.3 79.6889 202.486 79.7495 202.691 79.8268C202.898 79.904 203.095 80.0095 203.283 80.1432C203.473 80.2747 203.63 80.4439 203.753 80.6506C203.876 80.8574 203.938 81.1111 203.938 81.4119C203.938 81.7585 203.847 82.0718 203.665 82.3516C203.486 82.6315 203.222 82.8539 202.876 83.0189C202.531 83.1838 202.112 83.2663 201.62 83.2663C201.16 83.2663 200.762 83.1922 200.426 83.0439C200.092 82.8956 199.829 82.6889 199.637 82.4237C199.447 82.1585 199.339 81.8504 199.314 81.4996H200.116C200.137 81.7418 200.218 81.9423 200.36 82.101C200.504 82.2576 200.686 82.3746 200.905 82.4519C201.127 82.5271 201.365 82.5646 201.62 82.5646C201.916 82.5646 202.182 82.5166 202.418 82.4205C202.654 82.3224 202.841 82.1866 202.979 82.0133C203.117 81.8379 203.186 81.6332 203.186 81.3993C203.186 81.1863 203.126 81.013 203.007 80.8793C202.888 80.7457 202.732 80.6371 202.537 80.5535C202.343 80.47 202.133 80.3969 201.908 80.3343L201.118 80.1087C200.617 79.9646 200.22 79.7589 199.928 79.4916C199.636 79.2243 199.489 78.8745 199.489 78.4422C199.489 78.083 199.587 77.7697 199.781 77.5024C199.977 77.233 200.24 77.0242 200.57 76.8759C200.902 76.7255 201.273 76.6503 201.682 76.6503C202.096 76.6503 202.463 76.7245 202.785 76.8728C203.107 77.0189 203.361 77.2194 203.549 77.4742C203.739 77.729 203.84 78.0182 203.85 78.3419H203.098Z" fill="#233D48"/>
</g>
<defs>
<clipPath id="clip0_2314_50197">
<rect width="29.7085" height="27.094" fill="white" transform="translate(8.52026 66.1066)"/>
</clipPath>
<clipPath id="clip1_2314_50197">
<rect width="29.7085" height="27.094" fill="white" transform="translate(38.2288 66.1066)"/>
</clipPath>
<clipPath id="clip2_2314_50197">
<rect width="29.7085" height="27.094" fill="white" transform="translate(67.9373 66.1066)"/>
</clipPath>
<clipPath id="clip3_2314_50197">
<rect width="29.7085" height="27.094" fill="white" transform="translate(97.6458 66.1066)"/>
</clipPath>
<clipPath id="clip4_2314_50197">
<rect width="29.7085" height="27.094" fill="white" transform="translate(127.354 66.1066)"/>
</clipPath>
<clipPath id="clip5_2314_50197">
<rect width="29.7085" height="27.094" fill="white" transform="translate(157.063 66.1066)"/>
</clipPath>
<clipPath id="clip6_2314_50197">
<rect width="29.7085" height="27.094" fill="white" transform="translate(186.771 66.1066)"/>
</clipPath>
</defs>
</svg>
