<svg width="224" height="117" viewBox="0 0 224 117" fill="none" xmlns="http://www.w3.org/2000/svg">
<path d="M10 19C10 14.5817 13.5817 11 18 11H150C154.418 11 158 14.5817 158 19V97C158 101.418 154.418 105 150 105H18C13.5817 105 10 101.418 10 97V19Z" fill="#DADFE2"/>
<path d="M18 23C18 20.7909 19.7909 19 22 19H55.3333C57.5425 19 59.3333 20.7909 59.3333 23V93C59.3333 95.2091 57.5425 97 55.3333 97H22C19.7909 97 18 95.2091 18 93V23Z" fill="#84979F"/>
<path d="M63.333 23C63.333 20.7909 65.1239 19 67.333 19H100.666C102.875 19 104.666 20.7909 104.666 23V93C104.666 95.2091 102.875 97 100.666 97H67.333C65.1239 97 63.333 95.2091 63.333 93V23Z" fill="#84979F"/>
<path d="M108.667 23C108.667 20.7909 110.458 19 112.667 19H146C148.209 19 150 20.7909 150 23V93C150 95.2091 148.209 97 146 97H112.667C110.458 97 108.667 95.2091 108.667 93V23Z" fill="#84979F"/>
<path d="M167 23C167 20.7909 168.791 19 171 19H210C212.209 19 214 20.7909 214 23V93C214 95.2091 212.209 97 210 97H171C168.791 97 167 95.2091 167 93V23Z" fill="#DADFE2"/>
<path d="M171 27C171 24.7909 172.791 23 175 23H206C208.209 23 210 24.7909 210 27V41C210 43.2091 208.209 45 206 45H175C172.791 45 171 43.2091 171 41V27Z" fill="#84979F"/>
<path d="M171 51C171 48.7909 172.791 47 175 47H206C208.209 47 210 48.7909 210 51V65C210 67.2091 208.209 69 206 69H175C172.791 69 171 67.2091 171 65V51Z" fill="#84979F"/>
<path d="M171 75C171 72.7909 172.791 71 175 71H206C208.209 71 210 72.7909 210 75V89C210 91.2091 208.209 93 206 93H175C172.791 93 171 91.2091 171 89V75Z" fill="#84979F"/>
</svg>
