<svg width="224" height="117" viewBox="0 0 224 117" fill="none" xmlns="http://www.w3.org/2000/svg">
<path d="M23.2406 45.3262H200.781C203.483 45.3262 205.674 47.5168 205.674 50.219V65.8762C205.674 68.5784 203.483 70.769 200.781 70.769H23.2406C20.5265 70.769 18.3262 68.5688 18.3262 65.8546V50.2406C18.3262 47.5265 20.5265 45.3262 23.2406 45.3262Z" fill="#F1F0E9"/>
<path d="M23.2406 45.3262H200.781C203.483 45.3262 205.674 47.5168 205.674 50.219V65.8762C205.674 68.5784 203.483 70.769 200.781 70.769H23.2406C20.5265 70.769 18.3262 68.5688 18.3262 65.8546V50.2406C18.3262 47.5265 20.5265 45.3262 23.2406 45.3262Z" stroke="#DADFE2" stroke-width="0.652381"/>
<rect x="18.3262" y="45.3262" width="93.3476" height="25.3476" rx="4.89286" fill="white" stroke="#DADFE2" stroke-width="0.652381"/>
<path d="M53.0905 58.2264C53.0905 58.9421 52.9565 59.5551 52.6884 60.0654C52.4224 60.5735 52.0591 60.9627 51.5986 61.233C51.1402 61.5033 50.6202 61.6384 50.0385 61.6384C49.4569 61.6384 48.9358 61.5033 48.4752 61.233C48.0168 60.9606 47.6536 60.5703 47.3854 60.0622C47.1195 59.5519 46.9865 58.94 46.9865 58.2264C46.9865 57.5107 47.1195 56.8988 47.3854 56.3907C47.6536 55.8804 48.0168 55.4901 48.4752 55.2198C48.9358 54.9495 49.4569 54.8144 50.0385 54.8144C50.6202 54.8144 51.1402 54.9495 51.5986 55.2198C52.0591 55.4901 52.4224 55.8804 52.6884 56.3907C52.9565 56.8988 53.0905 57.5107 53.0905 58.2264ZM51.8808 58.2264C51.8808 57.7226 51.8018 57.2977 51.644 56.9518C51.4883 56.6036 51.2721 56.3409 50.9953 56.1636C50.7185 55.9842 50.3996 55.8944 50.0385 55.8944C49.6774 55.8944 49.3585 55.9842 49.0817 56.1636C48.805 56.3409 48.5877 56.6036 48.4298 56.9518C48.2741 57.2977 48.1963 57.7226 48.1963 58.2264C48.1963 58.7302 48.2741 59.1562 48.4298 59.5043C48.5877 59.8503 48.805 60.113 49.0817 60.2924C49.3585 60.4697 49.6774 60.5584 50.0385 60.5584C50.3996 60.5584 50.7185 60.4697 50.9953 60.2924C51.2721 60.113 51.4883 59.8503 51.644 59.5043C51.8018 59.1562 51.8808 58.7302 51.8808 58.2264ZM54.1762 63.4158V56.5658H55.3309V57.3896H55.399C55.4595 57.2685 55.545 57.1399 55.6552 57.0037C55.7655 56.8653 55.9147 56.7474 56.1028 56.6501C56.2909 56.5507 56.5309 56.5009 56.8228 56.5009C57.2077 56.5009 57.5548 56.5993 57.864 56.7961C58.1753 56.9907 58.4218 57.2793 58.6035 57.6621C58.7872 58.0426 58.8791 58.5097 58.8791 59.0632C58.8791 59.6102 58.7894 60.0751 58.6099 60.4578C58.4305 60.8406 58.1861 61.1325 57.8769 61.3336C57.5677 61.5346 57.2175 61.6352 56.8261 61.6352C56.5407 61.6352 56.3039 61.5876 56.1158 61.4925C55.9277 61.3973 55.7763 61.2827 55.6617 61.1487C55.5493 61.0125 55.4617 60.8838 55.399 60.7627H55.3503V63.4158H54.1762ZM55.3276 59.0567C55.3276 59.3789 55.3731 59.6611 55.4639 59.9032C55.5568 60.1454 55.6898 60.3346 55.8628 60.4708C56.0379 60.6049 56.2498 60.6719 56.4985 60.6719C56.758 60.6719 56.9753 60.6027 57.1504 60.4643C57.3256 60.3238 57.4575 60.1324 57.5461 59.8903C57.6369 59.6459 57.6823 59.3681 57.6823 59.0567C57.6823 58.7475 57.638 58.4729 57.5494 58.2329C57.4607 57.9929 57.3288 57.8048 57.1537 57.6686C56.9785 57.5323 56.7601 57.4642 56.4985 57.4642C56.2477 57.4642 56.0347 57.5302 55.8596 57.6621C55.6844 57.794 55.5514 57.9788 55.4606 58.2167C55.372 58.4545 55.3276 58.7345 55.3276 59.0567ZM62.3722 56.5658V57.4739H59.5084V56.5658H62.3722ZM60.2154 55.3722H61.3895V60.0492C61.3895 60.207 61.4133 60.3281 61.4609 60.4124C61.5106 60.4946 61.5755 60.5508 61.6555 60.5811C61.7355 60.6114 61.8241 60.6265 61.9214 60.6265C61.9949 60.6265 62.062 60.6211 62.1225 60.6103C62.1852 60.5995 62.2328 60.5897 62.2652 60.5811L62.4631 61.499C62.4004 61.5206 62.3106 61.5444 62.1939 61.5703C62.0793 61.5963 61.9387 61.6114 61.7722 61.6157C61.4782 61.6244 61.2133 61.5801 60.9776 61.4828C60.7419 61.3833 60.5549 61.2298 60.4165 61.0222C60.2803 60.8146 60.2132 60.5552 60.2154 60.2438V55.3722ZM63.3542 61.5476V56.5658H64.5283V61.5476H63.3542ZM63.9445 55.8587C63.7585 55.8587 63.5985 55.7971 63.4645 55.6739C63.3304 55.5485 63.2634 55.3982 63.2634 55.223C63.2634 55.0457 63.3304 54.8955 63.4645 54.7722C63.5985 54.6468 63.7585 54.5841 63.9445 54.5841C64.1326 54.5841 64.2926 54.6468 64.4245 54.7722C64.5586 54.8955 64.6256 55.0457 64.6256 55.223C64.6256 55.3982 64.5586 55.5485 64.4245 55.6739C64.2926 55.7971 64.1326 55.8587 63.9445 55.8587ZM67.9087 61.6449C67.4222 61.6449 67.0005 61.5379 66.6438 61.3238C66.287 61.1098 66.0102 60.8103 65.8135 60.4254C65.6189 60.0405 65.5216 59.5908 65.5216 59.0762C65.5216 58.5616 65.6189 58.1107 65.8135 57.7237C66.0102 57.3366 66.287 57.0361 66.6438 56.822C67.0005 56.608 67.4222 56.5009 67.9087 56.5009C68.3952 56.5009 68.8168 56.608 69.1736 56.822C69.5304 57.0361 69.8061 57.3366 70.0007 57.7237C70.1974 58.1107 70.2958 58.5616 70.2958 59.0762C70.2958 59.5908 70.1974 60.0405 70.0007 60.4254C69.8061 60.8103 69.5304 61.1098 69.1736 61.3238C68.8168 61.5379 68.3952 61.6449 67.9087 61.6449ZM67.9152 60.7043C68.179 60.7043 68.3995 60.6319 68.5768 60.487C68.7541 60.34 68.886 60.1432 68.9725 59.8967C69.0612 59.6503 69.1055 59.3756 69.1055 59.0729C69.1055 58.7681 69.0612 58.4924 68.9725 58.2459C68.886 57.9972 68.7541 57.7994 68.5768 57.6523C68.3995 57.5053 68.179 57.4318 67.9152 57.4318C67.6449 57.4318 67.42 57.5053 67.2405 57.6523C67.0632 57.7994 66.9303 57.9972 66.8416 58.2459C66.7551 58.4924 66.7119 58.7681 66.7119 59.0729C66.7119 59.3756 66.7551 59.6503 66.8416 59.8967C66.9303 60.1432 67.0632 60.34 67.2405 60.487C67.42 60.6319 67.6449 60.7043 67.9152 60.7043ZM72.4664 58.6286V61.5476H71.2923V56.5658H72.4145V57.4123H72.4729C72.5875 57.1334 72.7702 56.9118 73.021 56.7474C73.274 56.5831 73.5865 56.5009 73.9584 56.5009C74.3022 56.5009 74.6016 56.5745 74.8568 56.7215C75.1141 56.8685 75.313 57.0815 75.4536 57.3604C75.5963 57.6394 75.6666 57.9778 75.6644 58.3756V61.5476H74.4903V58.5572C74.4903 58.2242 74.4038 57.9637 74.2308 57.7756C74.06 57.5875 73.8232 57.4934 73.5205 57.4934C73.3151 57.4934 73.1324 57.5388 72.9724 57.6296C72.8146 57.7183 72.6902 57.8469 72.5994 58.0156C72.5108 58.1842 72.4664 58.3886 72.4664 58.6286ZM81.8122 54.9052V61.5476H80.6089V56.0761H80.57L79.0164 57.0685V55.9658L80.6673 54.9052H81.8122Z" fill="#233D48"/>
<path d="M146.591 58.2264C146.591 58.9421 146.456 59.5551 146.188 60.0654C145.922 60.5735 145.559 60.9627 145.099 61.233C144.64 61.5033 144.12 61.6384 143.539 61.6384C142.957 61.6384 142.436 61.5033 141.975 61.233C141.517 60.9606 141.154 60.5703 140.885 60.0622C140.619 59.5519 140.487 58.94 140.487 58.2264C140.487 57.5107 140.619 56.8988 140.885 56.3907C141.154 55.8804 141.517 55.4901 141.975 55.2198C142.436 54.9495 142.957 54.8144 143.539 54.8144C144.12 54.8144 144.64 54.9495 145.099 55.2198C145.559 55.4901 145.922 55.8804 146.188 56.3907C146.456 56.8988 146.591 57.5107 146.591 58.2264ZM145.381 58.2264C145.381 57.7226 145.302 57.2977 145.144 56.9518C144.988 56.6036 144.772 56.3409 144.495 56.1636C144.219 55.9842 143.9 55.8944 143.539 55.8944C143.177 55.8944 142.858 55.9842 142.582 56.1636C142.305 56.3409 142.088 56.6036 141.93 56.9518C141.774 57.2977 141.696 57.7226 141.696 58.2264C141.696 58.7302 141.774 59.1562 141.93 59.5043C142.088 59.8503 142.305 60.113 142.582 60.2924C142.858 60.4697 143.177 60.5584 143.539 60.5584C143.9 60.5584 144.219 60.4697 144.495 60.2924C144.772 60.113 144.988 59.8503 145.144 59.5043C145.302 59.1562 145.381 58.7302 145.381 58.2264ZM147.676 63.4158V56.5658H148.831V57.3896H148.899C148.96 57.2685 149.045 57.1399 149.155 57.0037C149.266 56.8653 149.415 56.7474 149.603 56.6501C149.791 56.5507 150.031 56.5009 150.323 56.5009C150.708 56.5009 151.055 56.5993 151.364 56.7961C151.675 56.9907 151.922 57.2793 152.103 57.6621C152.287 58.0426 152.379 58.5097 152.379 59.0632C152.379 59.6102 152.289 60.0751 152.11 60.4578C151.93 60.8406 151.686 61.1325 151.377 61.3336C151.068 61.5346 150.717 61.6352 150.326 61.6352C150.041 61.6352 149.804 61.5876 149.616 61.4925C149.428 61.3973 149.276 61.2827 149.162 61.1487C149.049 61.0125 148.962 60.8838 148.899 60.7627H148.85V63.4158H147.676ZM148.828 59.0567C148.828 59.3789 148.873 59.6611 148.964 59.9032C149.057 60.1454 149.19 60.3346 149.363 60.4708C149.538 60.6049 149.75 60.6719 149.999 60.6719C150.258 60.6719 150.475 60.6027 150.65 60.4643C150.826 60.3238 150.957 60.1324 151.046 59.8903C151.137 59.6459 151.182 59.3681 151.182 59.0567C151.182 58.7475 151.138 58.4729 151.049 58.2329C150.961 57.9929 150.829 57.8048 150.654 57.6686C150.479 57.5323 150.26 57.4642 149.999 57.4642C149.748 57.4642 149.535 57.5302 149.36 57.6621C149.184 57.794 149.051 57.9788 148.961 58.2167C148.872 58.4545 148.828 58.7345 148.828 59.0567ZM155.872 56.5658V57.4739H153.008V56.5658H155.872ZM153.715 55.3722H154.89V60.0492C154.89 60.207 154.913 60.3281 154.961 60.4124C155.011 60.4946 155.075 60.5508 155.155 60.5811C155.235 60.6114 155.324 60.6265 155.421 60.6265C155.495 60.6265 155.562 60.6211 155.623 60.6103C155.685 60.5995 155.733 60.5897 155.765 60.5811L155.963 61.499C155.9 61.5206 155.811 61.5444 155.694 61.5703C155.579 61.5963 155.439 61.6114 155.272 61.6157C154.978 61.6244 154.713 61.5801 154.478 61.4828C154.242 61.3833 154.055 61.2298 153.916 61.0222C153.78 60.8146 153.713 60.5552 153.715 60.2438V55.3722ZM156.854 61.5476V56.5658H158.028V61.5476H156.854ZM157.444 55.8587C157.259 55.8587 157.099 55.7971 156.964 55.6739C156.83 55.5485 156.763 55.3982 156.763 55.223C156.763 55.0457 156.83 54.8955 156.964 54.7722C157.099 54.6468 157.259 54.5841 157.444 54.5841C157.633 54.5841 157.793 54.6468 157.924 54.7722C158.059 54.8955 158.126 55.0457 158.126 55.223C158.126 55.3982 158.059 55.5485 157.924 55.6739C157.793 55.7971 157.633 55.8587 157.444 55.8587ZM161.409 61.6449C160.922 61.6449 160.501 61.5379 160.144 61.3238C159.787 61.1098 159.51 60.8103 159.313 60.4254C159.119 60.0405 159.022 59.5908 159.022 59.0762C159.022 58.5616 159.119 58.1107 159.313 57.7237C159.51 57.3366 159.787 57.0361 160.144 56.822C160.501 56.608 160.922 56.5009 161.409 56.5009C161.895 56.5009 162.317 56.608 162.674 56.822C163.03 57.0361 163.306 57.3366 163.501 57.7237C163.697 58.1107 163.796 58.5616 163.796 59.0762C163.796 59.5908 163.697 60.0405 163.501 60.4254C163.306 60.8103 163.03 61.1098 162.674 61.3238C162.317 61.5379 161.895 61.6449 161.409 61.6449ZM161.415 60.7043C161.679 60.7043 161.9 60.6319 162.077 60.487C162.254 60.34 162.386 60.1432 162.473 59.8967C162.561 59.6503 162.605 59.3756 162.605 59.0729C162.605 58.7681 162.561 58.4924 162.473 58.2459C162.386 57.9972 162.254 57.7994 162.077 57.6523C161.9 57.5053 161.679 57.4318 161.415 57.4318C161.145 57.4318 160.92 57.5053 160.741 57.6523C160.563 57.7994 160.43 57.9972 160.342 58.2459C160.255 58.4924 160.212 58.7681 160.212 59.0729C160.212 59.3756 160.255 59.6503 160.342 59.8967C160.43 60.1432 160.563 60.34 160.741 60.487C160.92 60.6319 161.145 60.7043 161.415 60.7043ZM165.966 58.6286V61.5476H164.792V56.5658H165.915V57.4123H165.973C166.088 57.1334 166.27 56.9118 166.521 56.7474C166.774 56.5831 167.086 56.5009 167.458 56.5009C167.802 56.5009 168.102 56.5745 168.357 56.7215C168.614 56.8685 168.813 57.0815 168.954 57.3604C169.096 57.6394 169.167 57.9778 169.164 58.3756V61.5476H167.99V58.5572C167.99 58.2242 167.904 57.9637 167.731 57.7756C167.56 57.5875 167.323 57.4934 167.021 57.4934C166.815 57.4934 166.632 57.5388 166.472 57.6296C166.315 57.7183 166.19 57.8469 166.099 58.0156C166.011 58.1842 165.966 58.3886 165.966 58.6286ZM172.61 61.5476V60.6784L174.917 58.4178C175.137 58.1951 175.321 57.9972 175.468 57.8242C175.615 57.6513 175.725 57.4837 175.799 57.3215C175.872 57.1593 175.909 56.9864 175.909 56.8026C175.909 56.5928 175.861 56.4134 175.766 56.2642C175.671 56.1128 175.54 55.9961 175.374 55.9139C175.207 55.8317 175.018 55.7906 174.806 55.7906C174.588 55.7906 174.396 55.836 174.232 55.9269C174.068 56.0155 173.94 56.142 173.849 56.3063C173.761 56.4707 173.716 56.6663 173.716 56.8934H172.572C172.572 56.4717 172.668 56.1052 172.86 55.7939C173.053 55.4825 173.318 55.2414 173.655 55.0706C173.994 54.8998 174.384 54.8144 174.822 54.8144C175.268 54.8144 175.659 54.8976 175.997 55.0641C176.334 55.2306 176.595 55.4587 176.781 55.7485C176.97 56.0382 177.064 56.369 177.064 56.7409C177.064 56.9896 177.016 57.2339 176.921 57.4739C176.826 57.714 176.658 57.9799 176.418 58.2718C176.18 58.5637 175.846 58.9172 175.416 59.3324L174.271 60.4968V60.5422H177.164V61.5476H172.61Z" fill="#233D48"/>
</svg>
