<svg width="224" height="117" viewBox="0 0 224 117" fill="none" xmlns="http://www.w3.org/2000/svg">
<g clip-path="url(#clip0_39_20078)">
<path d="M20 39.5H204C208.142 39.5 211.5 42.8579 211.5 47V71C211.5 75.1421 208.142 78.5 204 78.5H20C15.8579 78.5 12.5 75.1421 12.5 71V47C12.5 42.8579 15.8579 39.5 20 39.5Z" fill="white"/>
<path d="M20 39.5H204C208.142 39.5 211.5 42.8579 211.5 47V71C211.5 75.1421 208.142 78.5 204 78.5H20C15.8579 78.5 12.5 75.1421 12.5 71V47C12.5 42.8579 15.8579 39.5 20 39.5Z" stroke="#DADFE2"/>
<mask id="path-3-inside-1_39_20078" fill="white">
<path d="M12 47C12 42.5817 15.5817 39 20 39H104C108.418 39 112 42.5817 112 47V71C112 75.4183 108.418 79 104 79H20C15.5817 79 12 75.4183 12 71V47Z"/>
</mask>
<path d="M12 47C12 42.5817 15.5817 39 20 39H104C108.418 39 112 42.5817 112 47V71C112 75.4183 108.418 79 104 79H20C15.5817 79 12 75.4183 12 71V47Z" fill="white"/>
<path d="M20 39V40H104V39V38H20V39ZM112 47H111V71H112H113V47H112ZM104 79V78H20V79V80H104V79ZM12 71H13V47H12H11V71H12ZM20 79V78C16.134 78 13 74.866 13 71H12H11C11 75.9706 15.0294 80 20 80V79ZM112 71H111C111 74.866 107.866 78 104 78V79V80C108.971 80 113 75.9706 113 71H112ZM104 39V40C107.866 40 111 43.134 111 47H112H113C113 42.0294 108.971 38 104 38V39ZM20 39V38C15.0294 38 11 42.0294 11 47H12H13C13 43.134 16.134 40 20 40V39Z" fill="#388523" mask="url(#path-3-inside-1_39_20078)"/>
<path d="M44.1023 58.9091C44.1023 60.0062 43.8968 60.9458 43.4858 61.728C43.0781 62.5069 42.5213 63.1035 41.8153 63.5178C41.1127 63.9321 40.3156 64.1392 39.424 64.1392C38.5324 64.1392 37.7337 63.9321 37.0277 63.5178C36.325 63.1001 35.7682 62.5019 35.3572 61.723C34.9496 60.9408 34.7457 60.0028 34.7457 58.9091C34.7457 57.812 34.9496 56.8741 35.3572 56.0952C35.7682 55.313 36.325 54.7147 37.0277 54.3004C37.7337 53.8861 38.5324 53.679 39.424 53.679C40.3156 53.679 41.1127 53.8861 41.8153 54.3004C42.5213 54.7147 43.0781 55.313 43.4858 56.0952C43.8968 56.8741 44.1023 57.812 44.1023 58.9091ZM42.2479 58.9091C42.2479 58.1368 42.1269 57.4856 41.8849 56.9553C41.6463 56.4216 41.3149 56.0189 40.8906 55.7472C40.4664 55.4721 39.9775 55.3345 39.424 55.3345C38.8705 55.3345 38.3816 55.4721 37.9574 55.7472C37.5331 56.0189 37.2 56.4216 36.9581 56.9553C36.7195 57.4856 36.6001 58.1368 36.6001 58.9091C36.6001 59.6813 36.7195 60.3343 36.9581 60.8679C37.2 61.3982 37.5331 61.8009 37.9574 62.076C38.3816 62.3478 38.8705 62.4837 39.424 62.4837C39.9775 62.4837 40.4664 62.3478 40.8906 62.076C41.3149 61.8009 41.6463 61.3982 41.8849 60.8679C42.1269 60.3343 42.2479 59.6813 42.2479 58.9091ZM45.7665 66.8636V56.3636H47.5364V57.6264H47.6408C47.7336 57.4408 47.8645 57.2436 48.0336 57.0348C48.2026 56.8227 48.4313 56.642 48.7196 56.4929C49.008 56.3404 49.3759 56.2642 49.8233 56.2642C50.4133 56.2642 50.9453 56.415 51.4192 56.7166C51.8965 57.0149 52.2743 57.4574 52.5527 58.044C52.8345 58.6274 52.9753 59.3433 52.9753 60.1918C52.9753 61.0303 52.8378 61.7429 52.5627 62.3295C52.2876 62.9162 51.9131 63.3636 51.4391 63.6719C50.9651 63.9801 50.4282 64.1342 49.8283 64.1342C49.3908 64.1342 49.0279 64.0613 48.7395 63.9155C48.4512 63.7696 48.2192 63.594 48.0435 63.3885C47.8712 63.1797 47.7369 62.9825 47.6408 62.7969H47.5662V66.8636H45.7665ZM47.5314 60.1818C47.5314 60.6757 47.601 61.1082 47.7402 61.4794C47.8828 61.8506 48.0866 62.1406 48.3517 62.3494C48.6202 62.5549 48.945 62.6577 49.3262 62.6577C49.7239 62.6577 50.057 62.5516 50.3255 62.3395C50.5939 62.1241 50.7961 61.8307 50.932 61.4595C51.0712 61.085 51.1408 60.6591 51.1408 60.1818C51.1408 59.7079 51.0729 59.2869 50.937 58.919C50.8011 58.5511 50.5989 58.2628 50.3304 58.054C50.062 57.8452 49.7272 57.7408 49.3262 57.7408C48.9417 57.7408 48.6152 57.8419 48.3468 58.044C48.0783 58.2462 47.8745 58.5296 47.7353 58.8942C47.5994 59.2588 47.5314 59.688 47.5314 60.1818ZM58.3297 56.3636V57.7557H53.9398V56.3636H58.3297ZM55.0236 54.5341H56.8233V61.7031C56.8233 61.9451 56.8598 62.1307 56.9327 62.2599C57.0089 62.3859 57.1084 62.4721 57.231 62.5185C57.3536 62.5649 57.4895 62.5881 57.6387 62.5881C57.7514 62.5881 57.8541 62.5798 57.9469 62.5632C58.043 62.5466 58.1159 62.5317 58.1657 62.5185L58.4689 63.9254C58.3728 63.9586 58.2353 63.995 58.0563 64.0348C57.8806 64.0746 57.6652 64.0978 57.41 64.1044C56.9592 64.1177 56.5532 64.0497 56.1919 63.9006C55.8307 63.7481 55.544 63.5128 55.3319 63.1946C55.123 62.8764 55.0203 62.4787 55.0236 62.0014V54.5341ZM59.8349 64V56.3636H61.6346V64H59.8349ZM60.7397 55.2798C60.4547 55.2798 60.2094 55.1854 60.0039 54.9964C59.7984 54.8042 59.6957 54.5739 59.6957 54.3054C59.6957 54.0336 59.7984 53.8033 60.0039 53.6143C60.2094 53.4221 60.4547 53.326 60.7397 53.326C61.0281 53.326 61.2733 53.4221 61.4755 53.6143C61.681 53.8033 61.7837 54.0336 61.7837 54.3054C61.7837 54.5739 61.681 54.8042 61.4755 54.9964C61.2733 55.1854 61.0281 55.2798 60.7397 55.2798ZM66.8162 64.1491C66.0705 64.1491 65.4242 63.9851 64.8773 63.657C64.3304 63.3288 63.9062 62.8698 63.6046 62.2798C63.3063 61.6899 63.1571 61.0005 63.1571 60.2116C63.1571 59.4228 63.3063 58.7318 63.6046 58.1385C63.9062 57.5452 64.3304 57.0845 64.8773 56.7564C65.4242 56.4283 66.0705 56.2642 66.8162 56.2642C67.562 56.2642 68.2083 56.4283 68.7551 56.7564C69.302 57.0845 69.7246 57.5452 70.0229 58.1385C70.3245 58.7318 70.4753 59.4228 70.4753 60.2116C70.4753 61.0005 70.3245 61.6899 70.0229 62.2798C69.7246 62.8698 69.302 63.3288 68.7551 63.657C68.2083 63.9851 67.562 64.1491 66.8162 64.1491ZM66.8262 62.7074C67.2305 62.7074 67.5686 62.5964 67.8404 62.3743C68.1122 62.1489 68.3143 61.8473 68.4469 61.4695C68.5828 61.0916 68.6507 60.6707 68.6507 60.2067C68.6507 59.7393 68.5828 59.3168 68.4469 58.9389C68.3143 58.5578 68.1122 58.2545 67.8404 58.0291C67.5686 57.8037 67.2305 57.6911 66.8262 57.6911C66.4119 57.6911 66.0672 57.8037 65.7921 58.0291C65.5203 58.2545 65.3165 58.5578 65.1806 58.9389C65.048 59.3168 64.9817 59.7393 64.9817 60.2067C64.9817 60.6707 65.048 61.0916 65.1806 61.4695C65.3165 61.8473 65.5203 62.1489 65.7921 62.3743C66.0672 62.5964 66.4119 62.7074 66.8262 62.7074ZM73.8026 59.5256V64H72.0028V56.3636H73.723V57.6612H73.8125C73.9882 57.2337 74.2682 56.8939 74.6527 56.642C75.0405 56.3902 75.5194 56.2642 76.0895 56.2642C76.6165 56.2642 77.0755 56.3769 77.4666 56.6023C77.861 56.8277 78.166 57.1541 78.3814 57.5817C78.6001 58.0092 78.7079 58.5279 78.7045 59.1378V64H76.9048V59.4162C76.9048 58.9058 76.7723 58.5064 76.5071 58.218C76.2453 57.9297 75.8823 57.7855 75.4183 57.7855C75.1035 57.7855 74.8234 57.8551 74.5781 57.9943C74.3362 58.1302 74.1456 58.3274 74.0064 58.5859C73.8705 58.8445 73.8026 59.1577 73.8026 59.5256ZM88.1282 53.8182V64H86.2837V55.6129H86.2241L83.8427 57.1342V55.4439L86.3732 53.8182H88.1282Z" fill="#388523"/>
<path d="M143.102 58.9091C143.102 60.0062 142.897 60.9458 142.486 61.728C142.078 62.5069 141.521 63.1035 140.815 63.5178C140.113 63.9321 139.316 64.1392 138.424 64.1392C137.532 64.1392 136.734 63.9321 136.028 63.5178C135.325 63.1001 134.768 62.5019 134.357 61.723C133.95 60.9408 133.746 60.0028 133.746 58.9091C133.746 57.812 133.95 56.8741 134.357 56.0952C134.768 55.313 135.325 54.7147 136.028 54.3004C136.734 53.8861 137.532 53.679 138.424 53.679C139.316 53.679 140.113 53.8861 140.815 54.3004C141.521 54.7147 142.078 55.313 142.486 56.0952C142.897 56.8741 143.102 57.812 143.102 58.9091ZM141.248 58.9091C141.248 58.1368 141.127 57.4856 140.885 56.9553C140.646 56.4216 140.315 56.0189 139.891 55.7472C139.466 55.4721 138.978 55.3345 138.424 55.3345C137.871 55.3345 137.382 55.4721 136.957 55.7472C136.533 56.0189 136.2 56.4216 135.958 56.9553C135.719 57.4856 135.6 58.1368 135.6 58.9091C135.6 59.6813 135.719 60.3343 135.958 60.8679C136.2 61.3982 136.533 61.8009 136.957 62.076C137.382 62.3478 137.871 62.4837 138.424 62.4837C138.978 62.4837 139.466 62.3478 139.891 62.076C140.315 61.8009 140.646 61.3982 140.885 60.8679C141.127 60.3343 141.248 59.6813 141.248 58.9091ZM144.767 66.8636V56.3636H146.536V57.6264H146.641C146.734 57.4408 146.865 57.2436 147.034 57.0348C147.203 56.8227 147.431 56.642 147.72 56.4929C148.008 56.3404 148.376 56.2642 148.823 56.2642C149.413 56.2642 149.945 56.415 150.419 56.7166C150.896 57.0149 151.274 57.4574 151.553 58.044C151.834 58.6274 151.975 59.3433 151.975 60.1918C151.975 61.0303 151.838 61.7429 151.563 62.3295C151.288 62.9162 150.913 63.3636 150.439 63.6719C149.965 63.9801 149.428 64.1342 148.828 64.1342C148.391 64.1342 148.028 64.0613 147.74 63.9155C147.451 63.7696 147.219 63.594 147.044 63.3885C146.871 63.1797 146.737 62.9825 146.641 62.7969H146.566V66.8636H144.767ZM146.531 60.1818C146.531 60.6757 146.601 61.1082 146.74 61.4794C146.883 61.8506 147.087 62.1406 147.352 62.3494C147.62 62.5549 147.945 62.6577 148.326 62.6577C148.724 62.6577 149.057 62.5516 149.325 62.3395C149.594 62.1241 149.796 61.8307 149.932 61.4595C150.071 61.085 150.141 60.6591 150.141 60.1818C150.141 59.7079 150.073 59.2869 149.937 58.919C149.801 58.5511 149.599 58.2628 149.33 58.054C149.062 57.8452 148.727 57.7408 148.326 57.7408C147.942 57.7408 147.615 57.8419 147.347 58.044C147.078 58.2462 146.874 58.5296 146.735 58.8942C146.599 59.2588 146.531 59.688 146.531 60.1818ZM157.33 56.3636V57.7557H152.94V56.3636H157.33ZM154.024 54.5341H155.823V61.7031C155.823 61.9451 155.86 62.1307 155.933 62.2599C156.009 62.3859 156.108 62.4721 156.231 62.5185C156.354 62.5649 156.49 62.5881 156.639 62.5881C156.751 62.5881 156.854 62.5798 156.947 62.5632C157.043 62.5466 157.116 62.5317 157.166 62.5185L157.469 63.9254C157.373 63.9586 157.235 63.995 157.056 64.0348C156.881 64.0746 156.665 64.0978 156.41 64.1044C155.959 64.1177 155.553 64.0497 155.192 63.9006C154.831 63.7481 154.544 63.5128 154.332 63.1946C154.123 62.8764 154.02 62.4787 154.024 62.0014V54.5341ZM158.835 64V56.3636H160.635V64H158.835ZM159.74 55.2798C159.455 55.2798 159.209 55.1854 159.004 54.9964C158.798 54.8042 158.696 54.5739 158.696 54.3054C158.696 54.0336 158.798 53.8033 159.004 53.6143C159.209 53.4221 159.455 53.326 159.74 53.326C160.028 53.326 160.273 53.4221 160.475 53.6143C160.681 53.8033 160.784 54.0336 160.784 54.3054C160.784 54.5739 160.681 54.8042 160.475 54.9964C160.273 55.1854 160.028 55.2798 159.74 55.2798ZM165.816 64.1491C165.07 64.1491 164.424 63.9851 163.877 63.657C163.33 63.3288 162.906 62.8698 162.605 62.2798C162.306 61.6899 162.157 61.0005 162.157 60.2116C162.157 59.4228 162.306 58.7318 162.605 58.1385C162.906 57.5452 163.33 57.0845 163.877 56.7564C164.424 56.4283 165.07 56.2642 165.816 56.2642C166.562 56.2642 167.208 56.4283 167.755 56.7564C168.302 57.0845 168.725 57.5452 169.023 58.1385C169.325 58.7318 169.475 59.4228 169.475 60.2116C169.475 61.0005 169.325 61.6899 169.023 62.2798C168.725 62.8698 168.302 63.3288 167.755 63.657C167.208 63.9851 166.562 64.1491 165.816 64.1491ZM165.826 62.7074C166.231 62.7074 166.569 62.5964 166.84 62.3743C167.112 62.1489 167.314 61.8473 167.447 61.4695C167.583 61.0916 167.651 60.6707 167.651 60.2067C167.651 59.7393 167.583 59.3168 167.447 58.9389C167.314 58.5578 167.112 58.2545 166.84 58.0291C166.569 57.8037 166.231 57.6911 165.826 57.6911C165.412 57.6911 165.067 57.8037 164.792 58.0291C164.52 58.2545 164.316 58.5578 164.181 58.9389C164.048 59.3168 163.982 59.7393 163.982 60.2067C163.982 60.6707 164.048 61.0916 164.181 61.4695C164.316 61.8473 164.52 62.1489 164.792 62.3743C165.067 62.5964 165.412 62.7074 165.826 62.7074ZM172.803 59.5256V64H171.003V56.3636H172.723V57.6612H172.812C172.988 57.2337 173.268 56.8939 173.653 56.642C174.04 56.3902 174.519 56.2642 175.089 56.2642C175.616 56.2642 176.076 56.3769 176.467 56.6023C176.861 56.8277 177.166 57.1541 177.381 57.5817C177.6 58.0092 177.708 58.5279 177.705 59.1378V64H175.905V59.4162C175.905 58.9058 175.772 58.5064 175.507 58.218C175.245 57.9297 174.882 57.7855 174.418 57.7855C174.103 57.7855 173.823 57.8551 173.578 57.9943C173.336 58.1302 173.146 58.3274 173.006 58.5859C172.871 58.8445 172.803 59.1577 172.803 59.5256ZM182.987 64V62.6676L186.522 59.2024C186.86 58.861 187.141 58.5578 187.367 58.2926C187.592 58.0275 187.761 57.7706 187.874 57.522C187.987 57.2734 188.043 57.0083 188.043 56.7266C188.043 56.4051 187.97 56.13 187.824 55.9013C187.678 55.6693 187.478 55.4903 187.223 55.3643C186.967 55.2384 186.677 55.1754 186.353 55.1754C186.018 55.1754 185.725 55.245 185.473 55.3842C185.221 55.5201 185.025 55.714 184.886 55.9659C184.75 56.2178 184.682 56.5178 184.682 56.8658H182.927C182.927 56.2195 183.075 55.6577 183.37 55.1804C183.665 54.7031 184.071 54.3336 184.588 54.0717C185.108 53.8099 185.705 53.679 186.377 53.679C187.06 53.679 187.66 53.8066 188.177 54.0618C188.694 54.317 189.095 54.6667 189.38 55.1108C189.669 55.5549 189.813 56.062 189.813 56.6321C189.813 57.0133 189.74 57.3878 189.594 57.7557C189.448 58.1236 189.191 58.5312 188.824 58.9787C188.459 59.4261 187.947 59.968 187.287 60.6044L185.532 62.3892V62.4588H189.967V64H182.987Z" fill="#5D757E"/>
</g>
<defs>
<clipPath id="clip0_39_20078">
<path d="M0 8C0 3.58172 3.58172 0 8 0H216C220.418 0 224 3.58172 224 8V109C224 113.418 220.418 117 216 117H8C3.58172 117 0 113.418 0 109V8Z" fill="white"/>
</clipPath>
</defs>
</svg>
