<svg width="224" height="117" viewBox="0 0 224 117" fill="none" xmlns="http://www.w3.org/2000/svg">
<path d="M35.4156 9.26899H181.521C183.811 9.26899 185.668 11.1255 185.668 13.4156V31.4832C185.668 33.7733 183.811 35.6298 181.521 35.6298H35.4156C33.1255 35.6298 31.269 33.7733 31.269 31.4832V13.4156C31.269 11.1255 33.1255 9.26899 35.4156 9.26899Z" fill="white"/>
<path d="M35.4156 9.26899H181.521C183.811 9.26899 185.668 11.1255 185.668 13.4156V31.4832C185.668 33.7733 183.811 35.6298 181.521 35.6298H35.4156C33.1255 35.6298 31.269 33.7733 31.269 31.4832V13.4156C31.269 11.1255 33.1255 9.26899 35.4156 9.26899Z" stroke="#DADFE2" stroke-width="0.537976"/>
<path d="M40.4954 19.4718L42.1215 24.0828H42.1857L43.8119 19.4718H44.5073L42.496 24.9494H41.8113L39.8 19.4718H40.4954ZM46.1013 25.0457C45.841 25.0457 45.6048 24.9967 45.3926 24.8986C45.1804 24.7987 45.0119 24.6552 44.8871 24.468C44.7623 24.279 44.6998 24.0507 44.6998 23.7833C44.6998 23.5479 44.7462 23.3571 44.8389 23.2109C44.9316 23.0629 45.0556 22.947 45.2107 22.8632C45.3658 22.7794 45.537 22.717 45.7242 22.676C45.9132 22.6332 46.1031 22.5993 46.2939 22.5744C46.5435 22.5423 46.7459 22.5182 46.901 22.5021C47.058 22.4843 47.1721 22.4549 47.2434 22.4139C47.3165 22.3729 47.353 22.3016 47.353 22.1999V22.1785C47.353 21.9146 47.2808 21.7096 47.1364 21.5634C46.9938 21.4172 46.7771 21.344 46.4865 21.344C46.1851 21.344 45.9489 21.41 45.7777 21.542C45.6065 21.6739 45.4862 21.8148 45.4166 21.9646L44.8175 21.7506C44.9245 21.501 45.0672 21.3066 45.2455 21.1675C45.4256 21.0267 45.6217 20.9286 45.8339 20.8733C46.0478 20.8163 46.2582 20.7877 46.4651 20.7877C46.597 20.7877 46.7486 20.8038 46.9198 20.8359C47.0927 20.8662 47.2594 20.9295 47.4199 21.0258C47.5822 21.1221 47.7168 21.2674 47.8238 21.4617C47.9308 21.6561 47.9843 21.9164 47.9843 22.2427V24.9494H47.353V24.3931H47.321C47.2782 24.4822 47.2068 24.5776 47.107 24.6793C47.0071 24.7809 46.8743 24.8674 46.7085 24.9387C46.5426 25.01 46.3403 25.0457 46.1013 25.0457ZM46.1976 24.4787C46.4473 24.4787 46.6577 24.4296 46.8288 24.3316C47.0018 24.2335 47.1319 24.1069 47.2193 23.9518C47.3085 23.7967 47.353 23.6335 47.353 23.4623V22.8846C47.3263 22.9167 47.2675 22.9461 47.1765 22.9729C47.0874 22.9978 46.984 23.0201 46.8663 23.0397C46.7504 23.0576 46.6371 23.0736 46.5266 23.0879C46.4178 23.1004 46.3296 23.1111 46.2618 23.12C46.0978 23.1414 45.9444 23.1761 45.8018 23.2243C45.6609 23.2706 45.5468 23.3411 45.4594 23.4356C45.3738 23.5283 45.3311 23.6549 45.3311 23.8154C45.3311 24.0347 45.4122 24.2005 45.5744 24.3128C45.7385 24.4234 45.9462 24.4787 46.1976 24.4787ZM49.7675 19.4718V24.9494H49.1363V19.4718H49.7675ZM53.5126 23.2698V20.8412H54.1438V24.9494H53.5126V24.254H53.4698C53.3736 24.4626 53.2238 24.64 53.0205 24.7863C52.8172 24.9307 52.5605 25.0029 52.2502 25.0029C51.9935 25.0029 51.7652 24.9467 51.5655 24.8344C51.3658 24.7203 51.2089 24.5491 51.0948 24.3209C50.9807 24.0909 50.9236 23.8011 50.9236 23.4516V20.8412H51.5548V23.4088C51.5548 23.7084 51.6386 23.9473 51.8062 24.1256C51.9756 24.3039 52.1914 24.3931 52.4535 24.3931C52.6104 24.3931 52.77 24.353 52.9323 24.2727C53.0963 24.1925 53.2336 24.0695 53.3441 23.9036C53.4565 23.7378 53.5126 23.5265 53.5126 23.2698ZM57.0224 25.035C56.6265 25.035 56.2851 24.9476 55.998 24.7729C55.7127 24.5964 55.4925 24.3503 55.3374 24.0347C55.184 23.7173 55.1074 23.3482 55.1074 22.9274C55.1074 22.5066 55.184 22.1357 55.3374 21.8148C55.4925 21.492 55.7083 21.2406 55.9846 21.0605C56.2628 20.8787 56.5873 20.7877 56.9582 20.7877C57.1722 20.7877 57.3834 20.8234 57.5921 20.8947C57.8007 20.966 57.9906 21.0819 58.1618 21.2424C58.3329 21.4011 58.4693 21.6115 58.571 21.8736C58.6726 22.1357 58.7234 22.4585 58.7234 22.8418V23.1093H55.5567V22.5637H58.0815C58.0815 22.3319 58.0352 22.125 57.9424 21.9432C57.8515 21.7613 57.7213 21.6177 57.5519 21.5125C57.3843 21.4073 57.1864 21.3547 56.9582 21.3547C56.7068 21.3547 56.4892 21.4172 56.3056 21.542C56.1237 21.665 55.9837 21.8255 55.8857 22.0234C55.7876 22.2213 55.7386 22.4335 55.7386 22.6599V23.0237C55.7386 23.3339 55.7921 23.5969 55.899 23.8127C56.0078 24.0267 56.1585 24.1898 56.3511 24.3022C56.5436 24.4127 56.7674 24.468 57.0224 24.468C57.1882 24.468 57.338 24.4448 57.4717 24.3984C57.6072 24.3503 57.724 24.279 57.8221 24.1845C57.9201 24.0882 57.9959 23.9687 58.0494 23.8261L58.6592 23.9972C58.595 24.2041 58.4872 24.386 58.3356 24.5429C58.184 24.698 57.9968 24.8192 57.7739 24.9066C57.5511 24.9922 57.3005 25.035 57.0224 25.035Z" fill="#012939"/>
<path d="M168.562 20.4543C168.457 20.3495 168.319 20.2972 168.182 20.2975C168.044 20.2977 167.907 20.3501 167.803 20.4547C167.698 20.5592 167.646 20.6962 167.646 20.8332C167.645 20.9709 167.698 21.1086 167.803 21.2136L170.493 23.9057C170.598 24.0108 170.736 24.0633 170.873 24.0633C171.011 24.0633 171.149 24.0108 171.254 23.9057L173.944 21.2159C174.049 21.1109 174.101 20.9731 174.101 20.8355C174.101 20.6984 174.049 20.5615 173.944 20.4569C173.839 20.3524 173.702 20.3 173.565 20.2998C173.428 20.2995 173.29 20.3518 173.185 20.4565L170.873 22.7637L168.562 20.4543Z" fill="#233D48"/>
<g filter="url(#filter0_dd_2_11868)">
<rect x="38.269" y="29.269" width="154.462" height="78.462" rx="4.03482" fill="#EEEFEF" stroke="#B7B7B7" stroke-width="0.537976"/>
<path d="M56.9511 62.3827C56.9511 63.0429 56.8319 63.6135 56.5935 64.0944C56.3551 64.5753 56.028 64.9462 55.6123 65.207C55.1966 65.4679 54.7218 65.5983 54.1879 65.5983C53.654 65.5983 53.1792 65.4679 52.7635 65.207C52.3478 64.9462 52.0207 64.5753 51.7823 64.0944C51.5439 63.6135 51.4247 63.0429 51.4247 62.3827C51.4247 61.7224 51.5439 61.1518 51.7823 60.6709C52.0207 60.19 52.3478 59.8191 52.7635 59.5583C53.1792 59.2974 53.654 59.167 54.1879 59.167C54.7218 59.167 55.1966 59.2974 55.6123 59.5583C56.028 59.8191 56.3551 60.19 56.5935 60.6709C56.8319 61.1518 56.9511 61.7224 56.9511 62.3827ZM56.2175 62.3827C56.2175 61.8406 56.1268 61.3831 55.9455 61.0102C55.7662 60.6373 55.5226 60.3551 55.2149 60.1635C54.9093 59.972 54.5669 59.8762 54.1879 59.8762C53.8089 59.8762 53.4655 59.972 53.1578 60.1635C52.8521 60.3551 52.6086 60.6373 52.4272 61.0102C52.2479 61.3831 52.1583 61.8406 52.1583 62.3827C52.1583 62.9247 52.2479 63.3822 52.4272 63.7551C52.6086 64.128 52.8521 64.4103 53.1578 64.6018C53.4655 64.7934 53.8089 64.8891 54.1879 64.8891C54.5669 64.8891 54.9093 64.7934 55.2149 64.6018C55.5226 64.4103 55.7662 64.128 55.9455 63.7551C56.1268 63.3822 56.2175 62.9247 56.2175 62.3827ZM57.7917 67.2733V60.8176H58.4886V61.5635H58.5742C58.6272 61.482 58.7006 61.378 58.7943 61.2517C58.8901 61.1233 59.0266 61.0092 59.2039 60.9093C59.3832 60.8074 59.6257 60.7565 59.9314 60.7565C60.3267 60.7565 60.6752 60.8553 60.9768 61.053C61.2784 61.2507 61.5137 61.5309 61.6829 61.8936C61.852 62.2563 61.9366 62.6842 61.9366 63.1774C61.9366 63.6746 61.852 64.1056 61.6829 64.4704C61.5137 64.8331 61.2794 65.1143 60.9798 65.314C60.6803 65.5117 60.3349 65.6105 59.9436 65.6105C59.642 65.6105 59.4006 65.5606 59.2192 65.4607C59.0378 65.3588 58.8982 65.2437 58.8004 65.1153C58.7026 64.9849 58.6272 64.8769 58.5742 64.7913H58.5131V67.2733H57.7917ZM58.5009 63.1652C58.5009 63.5197 58.5528 63.8325 58.6568 64.1036C58.7607 64.3726 58.9125 64.5835 59.1122 64.7363C59.3119 64.8871 59.5564 64.9625 59.8458 64.9625C60.1474 64.9625 60.3991 64.883 60.6008 64.7241C60.8046 64.5631 60.9574 64.3471 61.0593 64.0761C61.1632 63.803 61.2152 63.4994 61.2152 63.1652C61.2152 62.835 61.1643 62.5375 61.0624 62.2726C60.9625 62.0057 60.8107 61.7948 60.6069 61.6399C60.4052 61.483 60.1515 61.4045 59.8458 61.4045C59.5524 61.4045 59.3058 61.4789 59.1061 61.6277C58.9064 61.7744 58.7556 61.9802 58.6537 62.2451C58.5518 62.508 58.5009 62.8147 58.5009 63.1652ZM64.7426 60.8176V61.429H62.3095V60.8176H64.7426ZM63.0186 59.6928H63.74V64.1678C63.74 64.3715 63.7696 64.5244 63.8287 64.6263C63.8898 64.7261 63.9672 64.7934 64.061 64.828C64.1567 64.8606 64.2576 64.8769 64.3636 64.8769C64.4431 64.8769 64.5083 64.8728 64.5592 64.8647C64.6102 64.8545 64.6509 64.8463 64.6815 64.8402L64.8282 65.4882C64.7793 65.5066 64.711 65.5249 64.6234 65.5433C64.5358 65.5636 64.4247 65.5738 64.2902 65.5738C64.0864 65.5738 63.8867 65.53 63.6911 65.4424C63.4975 65.3548 63.3365 65.2213 63.2082 65.042C63.0818 64.8626 63.0186 64.6364 63.0186 64.3634V59.6928ZM65.4915 65.5127V60.8176H66.2129V65.5127H65.4915ZM65.8583 60.0351C65.7177 60.0351 65.5964 59.9872 65.4945 59.8915C65.3947 59.7957 65.3448 59.6806 65.3448 59.5461C65.3448 59.4116 65.3947 59.2964 65.4945 59.2007C65.5964 59.1049 65.7177 59.057 65.8583 59.057C65.9989 59.057 66.1191 59.1049 66.219 59.2007C66.3209 59.2964 66.3718 59.4116 66.3718 59.5461C66.3718 59.6806 66.3209 59.7957 66.219 59.8915C66.1191 59.9872 65.9989 60.0351 65.8583 60.0351ZM69.1053 65.6105C68.6814 65.6105 68.3095 65.5096 67.9896 65.3079C67.6717 65.1062 67.4231 64.8239 67.2437 64.4612C67.0664 64.0985 66.9778 63.6746 66.9778 63.1896C66.9778 62.7006 67.0664 62.2736 67.2437 61.9089C67.4231 61.5441 67.6717 61.2609 67.9896 61.0591C68.3095 60.8574 68.6814 60.7565 69.1053 60.7565C69.5291 60.7565 69.9 60.8574 70.2179 61.0591C70.5378 61.2609 70.7864 61.5441 70.9637 61.9089C71.143 62.2736 71.2327 62.7006 71.2327 63.1896C71.2327 63.6746 71.143 64.0985 70.9637 64.4612C70.7864 64.8239 70.5378 65.1062 70.2179 65.3079C69.9 65.5096 69.5291 65.6105 69.1053 65.6105ZM69.1053 64.9625C69.4272 64.9625 69.6921 64.88 69.9 64.7149C70.1078 64.5498 70.2617 64.3328 70.3615 64.0638C70.4614 63.7948 70.5113 63.5034 70.5113 63.1896C70.5113 62.8758 70.4614 62.5834 70.3615 62.3124C70.2617 62.0413 70.1078 61.8223 69.9 61.6552C69.6921 61.4881 69.4272 61.4045 69.1053 61.4045C68.7833 61.4045 68.5184 61.4881 68.3105 61.6552C68.1027 61.8223 67.9488 62.0413 67.849 62.3124C67.7491 62.5834 67.6992 62.8758 67.6992 63.1896C67.6992 63.5034 67.7491 63.7948 67.849 64.0638C67.9488 64.3328 68.1027 64.5498 68.3105 64.7149C68.5184 64.88 68.7833 64.9625 69.1053 64.9625ZM72.719 62.6883V65.5127H71.9976V60.8176H72.6946V61.5512H72.7557C72.8657 61.3128 73.0328 61.1213 73.257 60.9766C73.4811 60.8299 73.7705 60.7565 74.1251 60.7565C74.443 60.7565 74.7211 60.8217 74.9596 60.9521C75.198 61.0805 75.3834 61.2761 75.5159 61.539C75.6483 61.7998 75.7146 62.13 75.7146 62.5294V65.5127H74.9932V62.5783C74.9932 62.2094 74.8974 61.9221 74.7059 61.7163C74.5143 61.5084 74.2514 61.4045 73.9172 61.4045C73.687 61.4045 73.4811 61.4544 73.2998 61.5543C73.1205 61.6541 72.9788 61.7998 72.8749 61.9914C72.771 62.183 72.719 62.4153 72.719 62.6883ZM80.8842 65.5983C80.4807 65.5983 80.121 65.529 79.8052 65.3904C79.4913 65.2519 79.2417 65.0593 79.0563 64.8127C78.8729 64.5641 78.773 64.2758 78.7567 63.9477H79.527C79.5433 64.1494 79.6126 64.3236 79.7349 64.4704C79.8571 64.6151 80.0171 64.7271 80.2148 64.8066C80.4124 64.8861 80.6315 64.9258 80.8719 64.9258C81.1409 64.9258 81.3793 64.8789 81.5872 64.7852C81.7951 64.6915 81.9581 64.561 82.0763 64.394C82.1945 64.2269 82.2536 64.0333 82.2536 63.8132C82.2536 63.5829 82.1965 63.3802 82.0824 63.2049C81.9683 63.0276 81.8012 62.889 81.5811 62.7892C81.361 62.6893 81.092 62.6394 80.7741 62.6394H80.2728V61.9669H80.7741C81.0227 61.9669 81.2408 61.9221 81.4283 61.8325C81.6178 61.7428 81.7655 61.6164 81.8715 61.4534C81.9795 61.2904 82.0335 61.0989 82.0335 60.8788C82.0335 60.6668 81.9866 60.4824 81.8929 60.3255C81.7991 60.1686 81.6667 60.0463 81.4955 59.9587C81.3264 59.8711 81.1267 59.8273 80.8964 59.8273C80.6804 59.8273 80.4766 59.867 80.2851 59.9465C80.0955 60.0239 79.9407 60.137 79.8204 60.2858C79.7002 60.4325 79.635 60.6098 79.6248 60.8176H78.8912C78.9034 60.4896 79.0023 60.2022 79.1877 59.9557C79.3731 59.707 79.6156 59.5135 79.9152 59.3749C80.2168 59.2363 80.5479 59.167 80.9086 59.167C81.2958 59.167 81.628 59.2455 81.9051 59.4024C82.1822 59.5573 82.3952 59.7621 82.5439 60.0168C82.6927 60.2715 82.7671 60.5466 82.7671 60.8421C82.7671 61.1946 82.6744 61.4952 82.4889 61.7438C82.3055 61.9924 82.0559 62.1646 81.74 62.2604V62.3093C82.1354 62.3745 82.4441 62.5426 82.6662 62.8136C82.8883 63.0826 82.9994 63.4158 82.9994 63.8132C82.9994 64.1535 82.9067 64.4592 82.7212 64.7302C82.5378 64.9992 82.2872 65.2111 81.9693 65.366C81.6514 65.5208 81.2897 65.5983 80.8842 65.5983Z" fill="#454747"/>
<rect x="38.5381" y="33.3038" width="153.924" height="11.8355" fill="#4783F9"/>
<path d="M56.9511 38.7118C56.9511 39.372 56.8319 39.9426 56.5935 40.4235C56.3551 40.9044 56.028 41.2753 55.6123 41.5361C55.1966 41.797 54.7218 41.9274 54.1879 41.9274C53.654 41.9274 53.1792 41.797 52.7635 41.5361C52.3478 41.2753 52.0207 40.9044 51.7823 40.4235C51.5439 39.9426 51.4247 39.372 51.4247 38.7118C51.4247 38.0515 51.5439 37.4809 51.7823 37C52.0207 36.5191 52.3478 36.1482 52.7635 35.8874C53.1792 35.6265 53.654 35.4961 54.1879 35.4961C54.7218 35.4961 55.1966 35.6265 55.6123 35.8874C56.028 36.1482 56.3551 36.5191 56.5935 37C56.8319 37.4809 56.9511 38.0515 56.9511 38.7118ZM56.2175 38.7118C56.2175 38.1697 56.1268 37.7122 55.9455 37.3393C55.7662 36.9664 55.5226 36.6842 55.2149 36.4926C54.9093 36.3011 54.5669 36.2053 54.1879 36.2053C53.8089 36.2053 53.4655 36.3011 53.1578 36.4926C52.8521 36.6842 52.6086 36.9664 52.4272 37.3393C52.2479 37.7122 52.1583 38.1697 52.1583 38.7118C52.1583 39.2538 52.2479 39.7113 52.4272 40.0842C52.6086 40.4571 52.8521 40.7394 53.1578 40.9309C53.4655 41.1225 53.8089 41.2182 54.1879 41.2182C54.5669 41.2182 54.9093 41.1225 55.2149 40.9309C55.5226 40.7394 55.7662 40.4571 55.9455 40.0842C56.1268 39.7113 56.2175 39.2538 56.2175 38.7118ZM57.7917 43.6024V37.1467H58.4886V37.8926H58.5742C58.6272 37.8111 58.7006 37.7071 58.7943 37.5808C58.8901 37.4524 59.0266 37.3383 59.2039 37.2384C59.3832 37.1365 59.6257 37.0856 59.9314 37.0856C60.3267 37.0856 60.6752 37.1844 60.9768 37.3821C61.2784 37.5798 61.5137 37.86 61.6829 38.2227C61.852 38.5854 61.9366 39.0133 61.9366 39.5065C61.9366 40.0037 61.852 40.4347 61.6829 40.7995C61.5137 41.1622 61.2794 41.4434 60.9798 41.6431C60.6803 41.8408 60.3349 41.9396 59.9436 41.9396C59.642 41.9396 59.4006 41.8897 59.2192 41.7898C59.0378 41.6879 58.8982 41.5728 58.8004 41.4444C58.7026 41.314 58.6272 41.206 58.5742 41.1204H58.5131V43.6024H57.7917ZM58.5009 39.4943C58.5009 39.8488 58.5528 40.1616 58.6568 40.4327C58.7607 40.7017 58.9125 40.9126 59.1122 41.0654C59.3119 41.2162 59.5564 41.2916 59.8458 41.2916C60.1474 41.2916 60.3991 41.2121 60.6008 41.0532C60.8046 40.8922 60.9574 40.6762 61.0593 40.4052C61.1632 40.1321 61.2152 39.8285 61.2152 39.4943C61.2152 39.1641 61.1643 38.8666 61.0624 38.6017C60.9625 38.3348 60.8107 38.1239 60.6069 37.969C60.4052 37.8121 60.1515 37.7336 59.8458 37.7336C59.5524 37.7336 59.3058 37.808 59.1061 37.9568C58.9064 38.1035 58.7556 38.3093 58.6537 38.5742C58.5518 38.8371 58.5009 39.1438 58.5009 39.4943ZM64.7426 37.1467V37.7581H62.3095V37.1467H64.7426ZM63.0186 36.0219H63.74V40.4969C63.74 40.7006 63.7696 40.8535 63.8287 40.9554C63.8898 41.0552 63.9672 41.1225 64.061 41.1571C64.1567 41.1897 64.2576 41.206 64.3636 41.206C64.4431 41.206 64.5083 41.2019 64.5592 41.1938C64.6102 41.1836 64.6509 41.1754 64.6815 41.1693L64.8282 41.8173C64.7793 41.8357 64.711 41.854 64.6234 41.8724C64.5358 41.8927 64.4247 41.9029 64.2902 41.9029C64.0864 41.9029 63.8867 41.8591 63.6911 41.7715C63.4975 41.6839 63.3365 41.5504 63.2082 41.3711C63.0818 41.1917 63.0186 40.9655 63.0186 40.6925V36.0219ZM65.4915 41.8418V37.1467H66.2129V41.8418H65.4915ZM65.8583 36.3642C65.7177 36.3642 65.5964 36.3163 65.4945 36.2206C65.3947 36.1248 65.3448 36.0097 65.3448 35.8752C65.3448 35.7407 65.3947 35.6255 65.4945 35.5298C65.5964 35.434 65.7177 35.3861 65.8583 35.3861C65.9989 35.3861 66.1191 35.434 66.219 35.5298C66.3209 35.6255 66.3718 35.7407 66.3718 35.8752C66.3718 36.0097 66.3209 36.1248 66.219 36.2206C66.1191 36.3163 65.9989 36.3642 65.8583 36.3642ZM69.1053 41.9396C68.6814 41.9396 68.3095 41.8387 67.9896 41.637C67.6717 41.4353 67.4231 41.153 67.2437 40.7903C67.0664 40.4276 66.9778 40.0037 66.9778 39.5187C66.9778 39.0297 67.0664 38.6027 67.2437 38.238C67.4231 37.8732 67.6717 37.59 67.9896 37.3882C68.3095 37.1865 68.6814 37.0856 69.1053 37.0856C69.5291 37.0856 69.9 37.1865 70.2179 37.3882C70.5378 37.59 70.7864 37.8732 70.9637 38.238C71.143 38.6027 71.2327 39.0297 71.2327 39.5187C71.2327 40.0037 71.143 40.4276 70.9637 40.7903C70.7864 41.153 70.5378 41.4353 70.2179 41.637C69.9 41.8387 69.5291 41.9396 69.1053 41.9396ZM69.1053 41.2916C69.4272 41.2916 69.6921 41.2091 69.9 41.044C70.1078 40.8789 70.2617 40.6619 70.3615 40.3929C70.4614 40.1239 70.5113 39.8325 70.5113 39.5187C70.5113 39.2049 70.4614 38.9125 70.3615 38.6415C70.2617 38.3704 70.1078 38.1514 69.9 37.9843C69.6921 37.8172 69.4272 37.7336 69.1053 37.7336C68.7833 37.7336 68.5184 37.8172 68.3105 37.9843C68.1027 38.1514 67.9488 38.3704 67.849 38.6415C67.7491 38.9125 67.6992 39.2049 67.6992 39.5187C67.6992 39.8325 67.7491 40.1239 67.849 40.3929C67.9488 40.6619 68.1027 40.8789 68.3105 41.044C68.5184 41.2091 68.7833 41.2916 69.1053 41.2916ZM72.719 39.0174V41.8418H71.9976V37.1467H72.6946V37.8803H72.7557C72.8657 37.6419 73.0328 37.4504 73.257 37.3057C73.4811 37.159 73.7705 37.0856 74.1251 37.0856C74.443 37.0856 74.7211 37.1508 74.9596 37.2812C75.198 37.4096 75.3834 37.6052 75.5159 37.8681C75.6483 38.129 75.7146 38.4591 75.7146 38.8585V41.8418H74.9932V38.9074C74.9932 38.5385 74.8974 38.2512 74.7059 38.0454C74.5143 37.8375 74.2514 37.7336 73.9172 37.7336C73.687 37.7336 73.4811 37.7835 73.2998 37.8834C73.1205 37.9832 72.9788 38.129 72.8749 38.3205C72.771 38.5121 72.719 38.7444 72.719 39.0174ZM80.9698 35.5817V41.8418H80.2117V36.3765H80.175L78.6467 37.3913V36.621L80.2117 35.5817H80.9698Z" fill="white"/>
<path d="M42.8418 39.2215L44.1867 40.5665L47.1456 37.6076" stroke="white" stroke-width="1.07595" stroke-linecap="round"/>
<path d="M56.9511 50.5472C56.9511 51.2074 56.8319 51.778 56.5935 52.2589C56.3551 52.7399 56.028 53.1107 55.6123 53.3716C55.1966 53.6324 54.7218 53.7628 54.1879 53.7628C53.654 53.7628 53.1792 53.6324 52.7635 53.3716C52.3478 53.1107 52.0207 52.7399 51.7823 52.2589C51.5439 51.778 51.4247 51.2074 51.4247 50.5472C51.4247 49.887 51.5439 49.3164 51.7823 48.8355C52.0207 48.3545 52.3478 47.9837 52.7635 47.7228C53.1792 47.462 53.654 47.3316 54.1879 47.3316C54.7218 47.3316 55.1966 47.462 55.6123 47.7228C56.028 47.9837 56.3551 48.3545 56.5935 48.8355C56.8319 49.3164 56.9511 49.887 56.9511 50.5472ZM56.2175 50.5472C56.2175 50.0052 56.1268 49.5477 55.9455 49.1748C55.7662 48.8018 55.5226 48.5196 55.2149 48.3281C54.9093 48.1365 54.5669 48.0407 54.1879 48.0407C53.8089 48.0407 53.4655 48.1365 53.1578 48.3281C52.8521 48.5196 52.6086 48.8018 52.4272 49.1748C52.2479 49.5477 52.1583 50.0052 52.1583 50.5472C52.1583 51.0893 52.2479 51.5467 52.4272 51.9197C52.6086 52.2926 52.8521 52.5748 53.1578 52.7664C53.4655 52.9579 53.8089 53.0537 54.1879 53.0537C54.5669 53.0537 54.9093 52.9579 55.2149 52.7664C55.5226 52.5748 55.7662 52.2926 55.9455 51.9197C56.1268 51.5467 56.2175 51.0893 56.2175 50.5472ZM57.7917 55.4379V48.9822H58.4886V49.728H58.5742C58.6272 49.6465 58.7006 49.5426 58.7943 49.4162C58.8901 49.2879 59.0266 49.1737 59.2039 49.0739C59.3832 48.972 59.6257 48.9211 59.9314 48.9211C60.3267 48.9211 60.6752 49.0199 60.9768 49.2176C61.2784 49.4152 61.5137 49.6954 61.6829 50.0581C61.852 50.4209 61.9366 50.8488 61.9366 51.3419C61.9366 51.8392 61.852 52.2702 61.6829 52.6349C61.5137 52.9976 61.2794 53.2789 60.9798 53.4786C60.6803 53.6762 60.3349 53.7751 59.9436 53.7751C59.642 53.7751 59.4006 53.7251 59.2192 53.6253C59.0378 53.5234 58.8982 53.4083 58.8004 53.2799C58.7026 53.1495 58.6272 53.0415 58.5742 52.9559H58.5131V55.4379H57.7917ZM58.5009 51.3297C58.5009 51.6843 58.5528 51.9971 58.6568 52.2681C58.7607 52.5371 58.9125 52.748 59.1122 52.9008C59.3119 53.0516 59.5564 53.127 59.8458 53.127C60.1474 53.127 60.3991 53.0476 60.6008 52.8886C60.8046 52.7276 60.9574 52.5116 61.0593 52.2406C61.1632 51.9675 61.2152 51.6639 61.2152 51.3297C61.2152 50.9996 61.1643 50.7021 61.0624 50.4372C60.9625 50.1702 60.8107 49.9593 60.6069 49.8044C60.4052 49.6475 60.1515 49.5691 59.8458 49.5691C59.5524 49.5691 59.3058 49.6434 59.1061 49.7922C58.9064 49.9389 58.7556 50.1447 58.6537 50.4097C58.5518 50.6725 58.5009 50.9792 58.5009 51.3297ZM64.7426 48.9822V49.5935H62.3095V48.9822H64.7426ZM63.0186 47.8573H63.74V52.3323C63.74 52.5361 63.7696 52.6889 63.8287 52.7908C63.8898 52.8907 63.9672 52.9579 64.061 52.9925C64.1567 53.0252 64.2576 53.0415 64.3636 53.0415C64.4431 53.0415 64.5083 53.0374 64.5592 53.0292C64.6102 53.019 64.6509 53.0109 64.6815 53.0048L64.8282 53.6528C64.7793 53.6711 64.711 53.6895 64.6234 53.7078C64.5358 53.7282 64.4247 53.7384 64.2902 53.7384C64.0864 53.7384 63.8867 53.6946 63.6911 53.6069C63.4975 53.5193 63.3365 53.3858 63.2082 53.2065C63.0818 53.0272 63.0186 52.801 63.0186 52.5279V47.8573ZM65.4915 53.6772V48.9822H66.2129V53.6772H65.4915ZM65.8583 48.1997C65.7177 48.1997 65.5964 48.1518 65.4945 48.056C65.3947 47.9602 65.3448 47.8451 65.3448 47.7106C65.3448 47.5761 65.3947 47.461 65.4945 47.3652C65.5964 47.2694 65.7177 47.2215 65.8583 47.2215C65.9989 47.2215 66.1191 47.2694 66.219 47.3652C66.3209 47.461 66.3718 47.5761 66.3718 47.7106C66.3718 47.8451 66.3209 47.9602 66.219 48.056C66.1191 48.1518 65.9989 48.1997 65.8583 48.1997ZM69.1053 53.7751C68.6814 53.7751 68.3095 53.6742 67.9896 53.4724C67.6717 53.2707 67.4231 52.9885 67.2437 52.6257C67.0664 52.263 66.9778 51.8392 66.9778 51.3542C66.9778 50.8651 67.0664 50.4382 67.2437 50.0734C67.4231 49.7087 67.6717 49.4254 67.9896 49.2237C68.3095 49.0219 68.6814 48.9211 69.1053 48.9211C69.5291 48.9211 69.9 49.0219 70.2179 49.2237C70.5378 49.4254 70.7864 49.7087 70.9637 50.0734C71.143 50.4382 71.2327 50.8651 71.2327 51.3542C71.2327 51.8392 71.143 52.263 70.9637 52.6257C70.7864 52.9885 70.5378 53.2707 70.2179 53.4724C69.9 53.6742 69.5291 53.7751 69.1053 53.7751ZM69.1053 53.127C69.4272 53.127 69.6921 53.0445 69.9 52.8795C70.1078 52.7144 70.2617 52.4974 70.3615 52.2284C70.4614 51.9594 70.5113 51.668 70.5113 51.3542C70.5113 51.0404 70.4614 50.7479 70.3615 50.4769C70.2617 50.2059 70.1078 49.9868 69.9 49.8197C69.6921 49.6526 69.4272 49.5691 69.1053 49.5691C68.7833 49.5691 68.5184 49.6526 68.3105 49.8197C68.1027 49.9868 67.9488 50.2059 67.849 50.4769C67.7491 50.7479 67.6992 51.0404 67.6992 51.3542C67.6992 51.668 67.7491 51.9594 67.849 52.2284C67.9488 52.4974 68.1027 52.7144 68.3105 52.8795C68.5184 53.0445 68.7833 53.127 69.1053 53.127ZM72.719 50.8529V53.6772H71.9976V48.9822H72.6946V49.7158H72.7557C72.8657 49.4774 73.0328 49.2858 73.257 49.1411C73.4811 48.9944 73.7705 48.9211 74.1251 48.9211C74.443 48.9211 74.7211 48.9863 74.9596 49.1167C75.198 49.2451 75.3834 49.4407 75.5159 49.7036C75.6483 49.9644 75.7146 50.2945 75.7146 50.6939V53.6772H74.9932V50.7428C74.9932 50.374 74.8974 50.0867 74.7059 49.8809C74.5143 49.673 74.2514 49.5691 73.9172 49.5691C73.687 49.5691 73.4811 49.619 73.2998 49.7188C73.1205 49.8187 72.9788 49.9644 72.8749 50.156C72.771 50.3475 72.719 50.5798 72.719 50.8529ZM78.7689 53.6772V53.127L80.8353 50.8651C81.0778 50.6002 81.2775 50.3699 81.4344 50.1743C81.5913 49.9766 81.7074 49.7912 81.7828 49.618C81.8603 49.4427 81.899 49.2593 81.899 49.0678C81.899 48.8477 81.846 48.6572 81.74 48.4962C81.6361 48.3352 81.4935 48.2109 81.3121 48.1233C81.1307 48.0356 80.927 47.9918 80.7008 47.9918C80.4603 47.9918 80.2504 48.0417 80.0711 48.1416C79.8938 48.2394 79.7563 48.377 79.6584 48.5543C79.5627 48.7315 79.5148 48.9394 79.5148 49.1778H78.7934C78.7934 48.811 78.878 48.489 79.0471 48.2119C79.2162 47.9348 79.4465 47.7188 79.7379 47.5639C80.0314 47.409 80.3605 47.3316 80.7252 47.3316C81.092 47.3316 81.417 47.409 81.7003 47.5639C81.9836 47.7188 82.2057 47.9276 82.3667 48.1905C82.5276 48.4534 82.6081 48.7458 82.6081 49.0678C82.6081 49.298 82.5664 49.5232 82.4828 49.7433C82.4013 49.9613 82.2587 50.2049 82.0549 50.4738C81.8531 50.7408 81.5729 51.0668 81.2143 51.452L79.8082 52.9559V53.0048H82.7182V53.6772H78.7689Z" fill="#454747"/>
<path d="M56.9511 74.2181C56.9511 74.8783 56.8319 75.4489 56.5935 75.9298C56.3551 76.4108 56.028 76.7816 55.6123 77.0425C55.1966 77.3033 54.7218 77.4337 54.1879 77.4337C53.654 77.4337 53.1792 77.3033 52.7635 77.0425C52.3478 76.7816 52.0207 76.4108 51.7823 75.9298C51.5439 75.4489 51.4247 74.8783 51.4247 74.2181C51.4247 73.5579 51.5439 72.9873 51.7823 72.5064C52.0207 72.0254 52.3478 71.6546 52.7635 71.3937C53.1792 71.1329 53.654 71.0025 54.1879 71.0025C54.7218 71.0025 55.1966 71.1329 55.6123 71.3937C56.028 71.6546 56.3551 72.0254 56.5935 72.5064C56.8319 72.9873 56.9511 73.5579 56.9511 74.2181ZM56.2175 74.2181C56.2175 73.6761 56.1268 73.2186 55.9455 72.8457C55.7662 72.4727 55.5226 72.1905 55.2149 71.999C54.9093 71.8074 54.5669 71.7116 54.1879 71.7116C53.8089 71.7116 53.4655 71.8074 53.1578 71.999C52.8521 72.1905 52.6086 72.4727 52.4272 72.8457C52.2479 73.2186 52.1583 73.6761 52.1583 74.2181C52.1583 74.7602 52.2479 75.2176 52.4272 75.5906C52.6086 75.9635 52.8521 76.2457 53.1578 76.4373C53.4655 76.6288 53.8089 76.7246 54.1879 76.7246C54.5669 76.7246 54.9093 76.6288 55.2149 76.4373C55.5226 76.2457 55.7662 75.9635 55.9455 75.5906C56.1268 75.2176 56.2175 74.7602 56.2175 74.2181ZM57.7917 79.1088V72.6531H58.4886V73.3989H58.5742C58.6272 73.3174 58.7006 73.2135 58.7943 73.0871C58.8901 72.9588 59.0266 72.8446 59.2039 72.7448C59.3832 72.6429 59.6257 72.592 59.9314 72.592C60.3267 72.592 60.6752 72.6908 60.9768 72.8884C61.2784 73.0861 61.5137 73.3663 61.6829 73.729C61.852 74.0918 61.9366 74.5197 61.9366 75.0128C61.9366 75.5101 61.852 75.9411 61.6829 76.3058C61.5137 76.6685 61.2794 76.9498 60.9798 77.1495C60.6803 77.3471 60.3349 77.446 59.9436 77.446C59.642 77.446 59.4006 77.396 59.2192 77.2962C59.0378 77.1943 58.8982 77.0792 58.8004 76.9508C58.7026 76.8204 58.6272 76.7124 58.5742 76.6268H58.5131V79.1088H57.7917ZM58.5009 75.0006C58.5009 75.3552 58.5528 75.668 58.6568 75.939C58.7607 76.208 58.9125 76.4189 59.1122 76.5717C59.3119 76.7225 59.5564 76.7979 59.8458 76.7979C60.1474 76.7979 60.3991 76.7185 60.6008 76.5595C60.8046 76.3985 60.9574 76.1825 61.0593 75.9115C61.1632 75.6384 61.2152 75.3348 61.2152 75.0006C61.2152 74.6705 61.1643 74.373 61.0624 74.1081C60.9625 73.8411 60.8107 73.6302 60.6069 73.4753C60.4052 73.3184 60.1515 73.24 59.8458 73.24C59.5524 73.24 59.3058 73.3143 59.1061 73.4631C58.9064 73.6098 58.7556 73.8156 58.6537 74.0806C58.5518 74.3434 58.5009 74.6501 58.5009 75.0006ZM64.7426 72.6531V73.2644H62.3095V72.6531H64.7426ZM63.0186 71.5282H63.74V76.0032C63.74 76.207 63.7696 76.3598 63.8287 76.4617C63.8898 76.5616 63.9672 76.6288 64.061 76.6634C64.1567 76.6961 64.2576 76.7124 64.3636 76.7124C64.4431 76.7124 64.5083 76.7083 64.5592 76.7001C64.6102 76.6899 64.6509 76.6818 64.6815 76.6757L64.8282 77.3237C64.7793 77.342 64.711 77.3604 64.6234 77.3787C64.5358 77.3991 64.4247 77.4093 64.2902 77.4093C64.0864 77.4093 63.8867 77.3655 63.6911 77.2778C63.4975 77.1902 63.3365 77.0567 63.2082 76.8774C63.0818 76.6981 63.0186 76.4719 63.0186 76.1988V71.5282ZM65.4915 77.3481V72.6531H66.2129V77.3481H65.4915ZM65.8583 71.8706C65.7177 71.8706 65.5964 71.8227 65.4945 71.7269C65.3947 71.6311 65.3448 71.516 65.3448 71.3815C65.3448 71.247 65.3947 71.1319 65.4945 71.0361C65.5964 70.9403 65.7177 70.8924 65.8583 70.8924C65.9989 70.8924 66.1191 70.9403 66.219 71.0361C66.3209 71.1319 66.3718 71.247 66.3718 71.3815C66.3718 71.516 66.3209 71.6311 66.219 71.7269C66.1191 71.8227 65.9989 71.8706 65.8583 71.8706ZM69.1053 77.446C68.6814 77.446 68.3095 77.3451 67.9896 77.1433C67.6717 76.9416 67.4231 76.6594 67.2437 76.2966C67.0664 75.9339 66.9778 75.5101 66.9778 75.0251C66.9778 74.536 67.0664 74.1091 67.2437 73.7443C67.4231 73.3796 67.6717 73.0963 67.9896 72.8946C68.3095 72.6928 68.6814 72.592 69.1053 72.592C69.5291 72.592 69.9 72.6928 70.2179 72.8946C70.5378 73.0963 70.7864 73.3796 70.9637 73.7443C71.143 74.1091 71.2327 74.536 71.2327 75.0251C71.2327 75.5101 71.143 75.9339 70.9637 76.2966C70.7864 76.6594 70.5378 76.9416 70.2179 77.1433C69.9 77.3451 69.5291 77.446 69.1053 77.446ZM69.1053 76.7979C69.4272 76.7979 69.6921 76.7154 69.9 76.5504C70.1078 76.3853 70.2617 76.1683 70.3615 75.8993C70.4614 75.6303 70.5113 75.3389 70.5113 75.0251C70.5113 74.7112 70.4614 74.4188 70.3615 74.1478C70.2617 73.8768 70.1078 73.6577 69.9 73.4906C69.6921 73.3235 69.4272 73.24 69.1053 73.24C68.7833 73.24 68.5184 73.3235 68.3105 73.4906C68.1027 73.6577 67.9488 73.8768 67.849 74.1478C67.7491 74.4188 67.6992 74.7112 67.6992 75.0251C67.6992 75.3389 67.7491 75.6303 67.849 75.8993C67.9488 76.1683 68.1027 76.3853 68.3105 76.5504C68.5184 76.7154 68.7833 76.7979 69.1053 76.7979ZM72.719 74.5238V77.3481H71.9976V72.6531H72.6946V73.3867H72.7557C72.8657 73.1483 73.0328 72.9567 73.257 72.812C73.4811 72.6653 73.7705 72.592 74.1251 72.592C74.443 72.592 74.7211 72.6572 74.9596 72.7876C75.198 72.916 75.3834 73.1116 75.5159 73.3745C75.6483 73.6353 75.7146 73.9654 75.7146 74.3648V77.3481H74.9932V74.4137C74.9932 74.0449 74.8974 73.7576 74.7059 73.5517C74.5143 73.3439 74.2514 73.24 73.9172 73.24C73.687 73.24 73.4811 73.2899 73.2998 73.3897C73.1205 73.4896 72.9788 73.6353 72.8749 73.8268C72.771 74.0184 72.719 74.2507 72.719 74.5238ZM78.6222 76.0643V75.4408L81.3732 71.0881H81.8256V72.054H81.52L79.4414 75.343V75.3919H83.1461V76.0643H78.6222ZM81.5689 77.3481V75.8748V75.5844V71.0881H82.2902V77.3481H81.5689Z" fill="#454747"/>
<path d="M56.9511 97.889C56.9511 98.5492 56.8319 99.1198 56.5935 99.6007C56.3551 100.082 56.028 100.453 55.6123 100.713C55.1966 100.974 54.7218 101.105 54.1879 101.105C53.654 101.105 53.1792 100.974 52.7635 100.713C52.3478 100.453 52.0207 100.082 51.7823 99.6007C51.5439 99.1198 51.4247 98.5492 51.4247 97.889C51.4247 97.2288 51.5439 96.6582 51.7823 96.1773C52.0207 95.6963 52.3478 95.3255 52.7635 95.0646C53.1792 94.8038 53.654 94.6734 54.1879 94.6734C54.7218 94.6734 55.1966 94.8038 55.6123 95.0646C56.028 95.3255 56.3551 95.6963 56.5935 96.1773C56.8319 96.6582 56.9511 97.2288 56.9511 97.889ZM56.2175 97.889C56.2175 97.347 56.1268 96.8895 55.9455 96.5166C55.7662 96.1436 55.5226 95.8614 55.2149 95.6699C54.9093 95.4783 54.5669 95.3825 54.1879 95.3825C53.8089 95.3825 53.4655 95.4783 53.1578 95.6699C52.8521 95.8614 52.6086 96.1436 52.4272 96.5166C52.2479 96.8895 52.1583 97.347 52.1583 97.889C52.1583 98.4311 52.2479 98.8885 52.4272 99.2615C52.6086 99.6344 52.8521 99.9166 53.1578 100.108C53.4655 100.3 53.8089 100.395 54.1879 100.395C54.5669 100.395 54.9093 100.3 55.2149 100.108C55.5226 99.9166 55.7662 99.6344 55.9455 99.2615C56.1268 98.8885 56.2175 98.4311 56.2175 97.889ZM57.7917 102.78V96.324H58.4886V97.0698H58.5742C58.6272 96.9883 58.7006 96.8844 58.7943 96.758C58.8901 96.6297 59.0266 96.5155 59.2039 96.4157C59.3832 96.3138 59.6257 96.2629 59.9314 96.2629C60.3267 96.2629 60.6752 96.3617 60.9768 96.5593C61.2784 96.757 61.5137 97.0372 61.6829 97.3999C61.852 97.7627 61.9366 98.1906 61.9366 98.6837C61.9366 99.181 61.852 99.612 61.6829 99.9767C61.5137 100.339 61.2794 100.621 60.9798 100.82C60.6803 101.018 60.3349 101.117 59.9436 101.117C59.642 101.117 59.4006 101.067 59.2192 100.967C59.0378 100.865 58.8982 100.75 58.8004 100.622C58.7026 100.491 58.6272 100.383 58.5742 100.298H58.5131V102.78H57.7917ZM58.5009 98.6715C58.5009 99.0261 58.5528 99.3389 58.6568 99.6099C58.7607 99.8789 58.9125 100.09 59.1122 100.243C59.3119 100.393 59.5564 100.469 59.8458 100.469C60.1474 100.469 60.3991 100.389 60.6008 100.23C60.8046 100.069 60.9574 99.8534 61.0593 99.5824C61.1632 99.3093 61.2152 99.0057 61.2152 98.6715C61.2152 98.3414 61.1643 98.0439 61.0624 97.779C60.9625 97.512 60.8107 97.3011 60.6069 97.1462C60.4052 96.9893 60.1515 96.9109 59.8458 96.9109C59.5524 96.9109 59.3058 96.9852 59.1061 97.134C58.9064 97.2807 58.7556 97.4865 58.6537 97.7515C58.5518 98.0143 58.5009 98.321 58.5009 98.6715ZM64.7426 96.324V96.9353H62.3095V96.324H64.7426ZM63.0186 95.1991H63.74V99.6741C63.74 99.8779 63.7696 100.031 63.8287 100.133C63.8898 100.232 63.9672 100.3 64.061 100.334C64.1567 100.367 64.2576 100.383 64.3636 100.383C64.4431 100.383 64.5083 100.379 64.5592 100.371C64.6102 100.361 64.6509 100.353 64.6815 100.347L64.8282 100.995C64.7793 101.013 64.711 101.031 64.6234 101.05C64.5358 101.07 64.4247 101.08 64.2902 101.08C64.0864 101.08 63.8867 101.036 63.6911 100.949C63.4975 100.861 63.3365 100.728 63.2082 100.548C63.0818 100.369 63.0186 100.143 63.0186 99.8697V95.1991ZM65.4915 101.019V96.324H66.2129V101.019H65.4915ZM65.8583 95.5415C65.7177 95.5415 65.5964 95.4936 65.4945 95.3978C65.3947 95.302 65.3448 95.1869 65.3448 95.0524C65.3448 94.9179 65.3947 94.8028 65.4945 94.707C65.5964 94.6112 65.7177 94.5633 65.8583 94.5633C65.9989 94.5633 66.1191 94.6112 66.219 94.707C66.3209 94.8028 66.3718 94.9179 66.3718 95.0524C66.3718 95.1869 66.3209 95.302 66.219 95.3978C66.1191 95.4936 65.9989 95.5415 65.8583 95.5415ZM69.1053 101.117C68.6814 101.117 68.3095 101.016 67.9896 100.814C67.6717 100.613 67.4231 100.33 67.2437 99.9675C67.0664 99.6048 66.9778 99.181 66.9778 98.696C66.9778 98.2069 67.0664 97.78 67.2437 97.4152C67.4231 97.0505 67.6717 96.7672 67.9896 96.5655C68.3095 96.3637 68.6814 96.2629 69.1053 96.2629C69.5291 96.2629 69.9 96.3637 70.2179 96.5655C70.5378 96.7672 70.7864 97.0505 70.9637 97.4152C71.143 97.78 71.2327 98.2069 71.2327 98.696C71.2327 99.181 71.143 99.6048 70.9637 99.9675C70.7864 100.33 70.5378 100.613 70.2179 100.814C69.9 101.016 69.5291 101.117 69.1053 101.117ZM69.1053 100.469C69.4272 100.469 69.6921 100.386 69.9 100.221C70.1078 100.056 70.2617 99.8392 70.3615 99.5702C70.4614 99.3012 70.5113 99.0098 70.5113 98.696C70.5113 98.3821 70.4614 98.0897 70.3615 97.8187C70.2617 97.5477 70.1078 97.3286 69.9 97.1615C69.6921 96.9944 69.4272 96.9109 69.1053 96.9109C68.7833 96.9109 68.5184 96.9944 68.3105 97.1615C68.1027 97.3286 67.9488 97.5477 67.849 97.8187C67.7491 98.0897 67.6992 98.3821 67.6992 98.696C67.6992 99.0098 67.7491 99.3012 67.849 99.5702C67.9488 99.8392 68.1027 100.056 68.3105 100.221C68.5184 100.386 68.7833 100.469 69.1053 100.469ZM72.719 98.1947V101.019H71.9976V96.324H72.6946V97.0576H72.7557C72.8657 96.8192 73.0328 96.6276 73.257 96.4829C73.4811 96.3362 73.7705 96.2629 74.1251 96.2629C74.443 96.2629 74.7211 96.3281 74.9596 96.4585C75.198 96.5869 75.3834 96.7825 75.5159 97.0454C75.6483 97.3062 75.7146 97.6363 75.7146 98.0357V101.019H74.9932V98.0846C74.9932 97.7158 74.8974 97.4285 74.7059 97.2226C74.5143 97.0148 74.2514 96.9109 73.9172 96.9109C73.687 96.9109 73.4811 96.9608 73.2998 97.0606C73.1205 97.1605 72.9788 97.3062 72.8749 97.4977C72.771 97.6893 72.719 97.9216 72.719 98.1947ZM80.7252 101.105C80.3666 101.105 80.0436 101.033 79.7563 100.891C79.4689 100.748 79.2387 100.552 79.0654 100.304C78.8922 100.055 78.7975 99.7719 78.7812 99.454H79.5148C79.5433 99.7373 79.6717 99.9716 79.8999 100.157C80.1302 100.34 80.4053 100.432 80.7252 100.432C80.982 100.432 81.2102 100.372 81.4099 100.252C81.6117 100.132 81.7696 99.9665 81.8837 99.7566C81.9999 99.5447 82.0579 99.3053 82.0579 99.0383C82.0579 98.7653 81.9978 98.5217 81.8776 98.3078C81.7594 98.0918 81.5964 97.9216 81.3885 97.7973C81.1807 97.673 80.9433 97.6098 80.6763 97.6078C80.4848 97.6058 80.2881 97.6353 80.0864 97.6964C79.8846 97.7555 79.7186 97.8319 79.5881 97.9257L78.879 97.8401L79.258 94.759H82.5103V95.4314H79.8938L79.6737 97.2777H79.7104C79.8388 97.1758 79.9998 97.0912 80.1934 97.024C80.3869 96.9567 80.5887 96.9231 80.7986 96.9231C81.1817 96.9231 81.523 97.0148 81.8226 97.1982C82.1242 97.3796 82.3605 97.6282 82.5317 97.944C82.7049 98.2599 82.7915 98.6206 82.7915 99.0261C82.7915 99.4255 82.7019 99.7821 82.5225 100.096C82.3453 100.408 82.1007 100.654 81.7889 100.836C81.4772 101.015 81.1226 101.105 80.7252 101.105Z" fill="#454747"/>
<path d="M55.0927 84.4885C55.056 84.1788 54.9072 83.9383 54.6464 83.7672C54.3856 83.596 54.0656 83.5104 53.6866 83.5104C53.4095 83.5104 53.167 83.5552 52.9591 83.6449C52.7533 83.7346 52.5923 83.8578 52.4762 84.0147C52.362 84.1717 52.305 84.35 52.305 84.5497C52.305 84.7168 52.3447 84.8604 52.4242 84.9807C52.5057 85.0989 52.6096 85.1977 52.736 85.2772C52.8623 85.3546 52.9948 85.4188 53.1333 85.4697C53.2719 85.5186 53.3993 85.5584 53.5154 85.5889L54.1512 85.7601C54.3142 85.8029 54.4956 85.862 54.6953 85.9374C54.897 86.0128 55.0896 86.1157 55.273 86.2461C55.4585 86.3745 55.6113 86.5396 55.7315 86.7413C55.8517 86.943 55.9119 87.1906 55.9119 87.4841C55.9119 87.8224 55.8232 88.128 55.6459 88.4011C55.4707 88.6741 55.2139 88.8912 54.8756 89.0522C54.5394 89.2131 54.1308 89.2936 53.6499 89.2936C53.2016 89.2936 52.8134 89.2213 52.4853 89.0766C52.1593 88.9319 51.9025 88.7302 51.715 88.4714C51.5296 88.2126 51.4247 87.912 51.4002 87.5697H52.1827C52.2031 87.8061 52.2826 88.0017 52.4211 88.1565C52.5617 88.3094 52.739 88.4235 52.953 88.4989C53.169 88.5723 53.4013 88.6089 53.6499 88.6089C53.9393 88.6089 54.1991 88.5621 54.4294 88.4683C54.6596 88.3726 54.842 88.2401 54.9765 88.071C55.111 87.8998 55.1783 87.7001 55.1783 87.4719C55.1783 87.264 55.1202 87.0949 55.004 86.9644C54.8879 86.834 54.735 86.7281 54.5455 86.6466C54.356 86.565 54.1512 86.4937 53.9311 86.4326L53.1608 86.2125C52.6718 86.0719 52.2846 85.8712 51.9993 85.6103C51.714 85.3495 51.5714 85.0082 51.5714 84.5863C51.5714 84.2358 51.6661 83.9302 51.8556 83.6693C52.0472 83.4065 52.304 83.2027 52.6259 83.058C52.9499 82.9113 53.3116 82.8379 53.7111 82.8379C54.1145 82.8379 54.4732 82.9103 54.787 83.055C55.1008 83.1976 55.3494 83.3932 55.5328 83.6418C55.7183 83.8904 55.8161 84.1727 55.8263 84.4885H55.0927ZM58.6927 89.2814C58.2403 89.2814 57.85 89.1816 57.522 88.9819C57.1959 88.7801 56.9443 88.4989 56.767 88.1382C56.5917 87.7755 56.5041 87.3537 56.5041 86.8727C56.5041 86.3918 56.5917 85.968 56.767 85.6012C56.9443 85.2323 57.1908 84.945 57.5067 84.7392C57.8246 84.5313 58.1955 84.4274 58.6193 84.4274C58.8638 84.4274 59.1053 84.4682 59.3437 84.5497C59.5822 84.6312 59.7992 84.7636 59.9948 84.947C60.1904 85.1284 60.3463 85.3689 60.4625 85.6684C60.5786 85.968 60.6367 86.3368 60.6367 86.7749V87.0806H57.0176V86.457H59.9031C59.9031 86.1921 59.8501 85.9557 59.7442 85.7479C59.6402 85.54 59.4915 85.376 59.2979 85.2558C59.1063 85.1355 58.8802 85.0754 58.6193 85.0754C58.332 85.0754 58.0834 85.1467 57.8735 85.2894C57.6656 85.43 57.5057 85.6134 57.3936 85.8396C57.2815 86.0658 57.2255 86.3083 57.2255 86.5671V86.9828C57.2255 87.3374 57.2866 87.6379 57.4089 87.8845C57.5332 88.129 57.7054 88.3155 57.9254 88.4439C58.1455 88.5702 58.4013 88.6334 58.6927 88.6334C58.8822 88.6334 59.0534 88.6069 59.2062 88.5539C59.3611 88.4989 59.4945 88.4174 59.6066 88.3094C59.7187 88.1993 59.8053 88.0628 59.8664 87.8998L60.5634 88.0954C60.49 88.3318 60.3667 88.5397 60.1935 88.719C60.0203 88.8963 59.8063 89.0348 59.5516 89.1347C59.2969 89.2325 59.0106 89.2814 58.6927 89.2814ZM63.3052 89.2814C62.865 89.2814 62.486 89.1775 62.1681 88.9696C61.8502 88.7618 61.6057 88.4755 61.4345 88.1107C61.2633 87.7459 61.1778 87.3292 61.1778 86.8605C61.1778 86.3837 61.2654 85.9629 61.4406 85.5981C61.6179 85.2313 61.8645 84.945 62.1803 84.7392C62.4982 84.5313 62.8691 84.4274 63.293 84.4274C63.6231 84.4274 63.9206 84.4885 64.1855 84.6108C64.4504 84.7331 64.6675 84.9042 64.8366 85.1243C65.0057 85.3444 65.1107 85.6012 65.1514 85.8946H64.4301C64.375 85.6806 64.2528 85.4911 64.0633 85.3261C63.8758 85.159 63.6231 85.0754 63.3052 85.0754C63.024 85.0754 62.7774 85.1488 62.5655 85.2955C62.3556 85.4402 62.1916 85.645 62.0734 85.9099C61.9572 86.1728 61.8991 86.4815 61.8991 86.8361C61.8991 87.1988 61.9562 87.5146 62.0703 87.7836C62.1865 88.0526 62.3495 88.2615 62.5594 88.4103C62.7713 88.559 63.0199 88.6334 63.3052 88.6334C63.4927 88.6334 63.6628 88.6008 63.8157 88.5356C63.9685 88.4704 64.0979 88.3766 64.2039 88.2544C64.3098 88.1321 64.3852 87.9854 64.4301 87.8142H65.1514C65.1107 88.0913 65.0098 88.341 64.8488 88.5631C64.6899 88.7832 64.479 88.9584 64.2161 89.0888C63.9553 89.2172 63.6516 89.2814 63.3052 89.2814ZM67.9116 84.4885V85.0999H65.4785V84.4885H67.9116ZM66.1877 83.3637H66.909V87.8387C66.909 88.0424 66.9386 88.1953 66.9977 88.2972C67.0588 88.397 67.1362 88.4643 67.23 88.4989C67.3258 88.5315 67.4266 88.5478 67.5326 88.5478C67.6121 88.5478 67.6773 88.5437 67.7282 88.5356C67.7792 88.5254 67.8199 88.5172 67.8505 88.5111L67.9972 89.1591C67.9483 89.1775 67.88 89.1958 67.7924 89.2142C67.7048 89.2345 67.5937 89.2447 67.4592 89.2447C67.2555 89.2447 67.0557 89.2009 66.8601 89.1133C66.6665 89.0257 66.5055 88.8922 66.3772 88.7129C66.2508 88.5335 66.1877 88.3073 66.1877 88.0343V83.3637ZM68.6605 89.1836V84.4885H69.3819V89.1836H68.6605ZM69.0273 83.706C68.8867 83.706 68.7655 83.6581 68.6636 83.5624C68.5637 83.4666 68.5138 83.3514 68.5138 83.217C68.5138 83.0825 68.5637 82.9673 68.6636 82.8716C68.7655 82.7758 68.8867 82.7279 69.0273 82.7279C69.1679 82.7279 69.2881 82.7758 69.388 82.8716C69.4899 82.9673 69.5408 83.0825 69.5408 83.217C69.5408 83.3514 69.4899 83.4666 69.388 83.5624C69.2881 83.6581 69.1679 83.706 69.0273 83.706ZM72.2743 89.2814C71.8504 89.2814 71.4785 89.1805 71.1586 88.9788C70.8407 88.7771 70.5921 88.4948 70.4127 88.1321C70.2355 87.7694 70.1468 87.3455 70.1468 86.8605C70.1468 86.3714 70.2355 85.9445 70.4127 85.5798C70.5921 85.215 70.8407 84.9318 71.1586 84.73C71.4785 84.5283 71.8504 84.4274 72.2743 84.4274C72.6981 84.4274 73.069 84.5283 73.3869 84.73C73.7068 84.9318 73.9554 85.215 74.1327 85.5798C74.3121 85.9445 74.4017 86.3714 74.4017 86.8605C74.4017 87.3455 74.3121 87.7694 74.1327 88.1321C73.9554 88.4948 73.7068 88.7771 73.3869 88.9788C73.069 89.1805 72.6981 89.2814 72.2743 89.2814ZM72.2743 88.6334C72.5962 88.6334 72.8611 88.5509 73.069 88.3858C73.2769 88.2207 73.4307 88.0037 73.5306 87.7347C73.6304 87.4657 73.6803 87.1743 73.6803 86.8605C73.6803 86.5467 73.6304 86.2543 73.5306 85.9833C73.4307 85.7122 73.2769 85.4932 73.069 85.3261C72.8611 85.159 72.5962 85.0754 72.2743 85.0754C71.9523 85.0754 71.6874 85.159 71.4795 85.3261C71.2717 85.4932 71.1178 85.7122 71.018 85.9833C70.9181 86.2543 70.8682 86.5467 70.8682 86.8605C70.8682 87.1743 70.9181 87.4657 71.018 87.7347C71.1178 88.0037 71.2717 88.2207 71.4795 88.3858C71.6874 88.5509 71.9523 88.6334 72.2743 88.6334ZM75.888 86.3592V89.1836H75.1666V84.4885H75.8636V85.2221H75.9247C76.0347 84.9837 76.2018 84.7922 76.426 84.6475C76.6502 84.5008 76.9395 84.4274 77.2941 84.4274C77.612 84.4274 77.8901 84.4926 78.1286 84.623C78.367 84.7514 78.5524 84.947 78.6849 85.2099C78.8173 85.4707 78.8836 85.8009 78.8836 86.2003V89.1836H78.1622V86.2492C78.1622 85.8803 78.0664 85.593 77.8749 85.3872C77.6833 85.1793 77.4204 85.0754 77.0862 85.0754C76.856 85.0754 76.6502 85.1253 76.4688 85.2252C76.2895 85.325 76.1478 85.4707 76.0439 85.6623C75.94 85.8539 75.888 86.0862 75.888 86.3592ZM83.7231 89.2814C83.3318 89.2814 82.9864 89.1826 82.6868 88.9849C82.3873 88.7852 82.1529 88.504 81.9838 88.1413C81.8147 87.7765 81.7301 87.3455 81.7301 86.8483C81.7301 86.3551 81.8147 85.9272 81.9838 85.5645C82.1529 85.2018 82.3883 84.9216 82.6899 84.7239C82.9915 84.5262 83.34 84.4274 83.7353 84.4274C84.041 84.4274 84.2824 84.4783 84.4597 84.5802C84.639 84.6801 84.7756 84.7942 84.8693 84.9226C84.9651 85.0489 85.0395 85.1529 85.0924 85.2344H85.1536V82.9235H85.875V89.1836H85.178V88.4622H85.0924C85.0395 88.5478 84.9641 88.6558 84.8663 88.7862C84.7684 88.9146 84.6289 89.0297 84.4475 89.1316C84.2661 89.2315 84.0246 89.2814 83.7231 89.2814ZM83.8209 88.6334C84.1102 88.6334 84.3548 88.558 84.5545 88.4072C84.7542 88.2544 84.906 88.0435 85.0099 87.7745C85.1138 87.5034 85.1658 87.1906 85.1658 86.8361C85.1658 86.4856 85.1149 86.1789 85.013 85.916C84.9111 85.6511 84.7603 85.4453 84.5606 85.2986C84.3609 85.1498 84.1143 85.0754 83.8209 85.0754C83.5152 85.0754 83.2605 85.1539 83.0567 85.3108C82.855 85.4657 82.7031 85.6766 82.6013 85.9435C82.5014 86.2084 82.4515 86.5059 82.4515 86.8361C82.4515 87.1703 82.5024 87.4739 82.6043 87.747C82.7082 88.018 82.8611 88.234 83.0628 88.395C83.2666 88.5539 83.5193 88.6334 83.8209 88.6334ZM86.9601 89.1836V84.4885H87.6815V89.1836H86.9601ZM87.3269 83.706C87.1863 83.706 87.065 83.6581 86.9631 83.5624C86.8633 83.4666 86.8134 83.3514 86.8134 83.217C86.8134 83.0825 86.8633 82.9673 86.9631 82.8716C87.065 82.7758 87.1863 82.7279 87.3269 82.7279C87.4675 82.7279 87.5877 82.7758 87.6876 82.8716C87.7895 82.9673 87.8404 83.0825 87.8404 83.217C87.8404 83.3514 87.7895 83.4666 87.6876 83.5624C87.5877 83.6581 87.4675 83.706 87.3269 83.706ZM92.5057 84.4885L90.7695 89.1836H90.0359L88.2997 84.4885H89.0822L90.3782 88.2299H90.4271L91.7232 84.4885H92.5057ZM93.1216 89.1836V84.4885H93.843V89.1836H93.1216ZM93.4884 83.706C93.3478 83.706 93.2265 83.6581 93.1246 83.5624C93.0248 83.4666 92.9749 83.3514 92.9749 83.217C92.9749 83.0825 93.0248 82.9673 93.1246 82.8716C93.2265 82.7758 93.3478 82.7279 93.4884 82.7279C93.629 82.7279 93.7492 82.7758 93.8491 82.8716C93.951 82.9673 94.0019 83.0825 94.0019 83.217C94.0019 83.3514 93.951 83.4666 93.8491 83.5624C93.7492 83.6581 93.629 83.706 93.4884 83.706ZM96.6008 89.2814C96.2096 89.2814 95.8642 89.1826 95.5646 88.9849C95.2651 88.7852 95.0307 88.504 94.8616 88.1413C94.6925 87.7765 94.6079 87.3455 94.6079 86.8483C94.6079 86.3551 94.6925 85.9272 94.8616 85.5645C95.0307 85.2018 95.2661 84.9216 95.5677 84.7239C95.8693 84.5262 96.2177 84.4274 96.6131 84.4274C96.9187 84.4274 97.1602 84.4783 97.3375 84.5802C97.5168 84.6801 97.6534 84.7942 97.7471 84.9226C97.8429 85.0489 97.9173 85.1529 97.9702 85.2344H98.0314V82.9235H98.7527V89.1836H98.0558V88.4622H97.9702C97.9173 88.5478 97.8419 88.6558 97.744 88.7862C97.6462 88.9146 97.5066 89.0297 97.3253 89.1316C97.1439 89.2315 96.9024 89.2814 96.6008 89.2814ZM96.6987 88.6334C96.988 88.6334 97.2326 88.558 97.4323 88.4072C97.632 88.2544 97.7838 88.0435 97.8877 87.7745C97.9916 87.5034 98.0436 87.1906 98.0436 86.8361C98.0436 86.4856 97.9927 86.1789 97.8908 85.916C97.7889 85.6511 97.6381 85.4453 97.4384 85.2986C97.2387 85.1498 96.9921 85.0754 96.6987 85.0754C96.393 85.0754 96.1383 85.1539 95.9345 85.3108C95.7327 85.4657 95.5809 85.6766 95.479 85.9435C95.3792 86.2084 95.3293 86.5059 95.3293 86.8361C95.3293 87.1703 95.3802 87.4739 95.4821 87.747C95.586 88.018 95.7389 88.234 95.9406 88.395C96.1444 88.5539 96.3971 88.6334 96.6987 88.6334ZM101.806 89.2814C101.354 89.2814 100.964 89.1816 100.636 88.9819C100.31 88.7801 100.058 88.4989 99.8807 88.1382C99.7054 87.7755 99.6178 87.3537 99.6178 86.8727C99.6178 86.3918 99.7054 85.968 99.8807 85.6012C100.058 85.2323 100.305 84.945 100.62 84.7392C100.938 84.5313 101.309 84.4274 101.733 84.4274C101.978 84.4274 102.219 84.4682 102.457 84.5497C102.696 84.6312 102.913 84.7636 103.109 84.947C103.304 85.1284 103.46 85.3689 103.576 85.6684C103.692 85.968 103.75 86.3368 103.75 86.7749V87.0806H100.131V86.457H103.017C103.017 86.1921 102.964 85.9557 102.858 85.7479C102.754 85.54 102.605 85.376 102.412 85.2558C102.22 85.1355 101.994 85.0754 101.733 85.0754C101.446 85.0754 101.197 85.1467 100.987 85.2894C100.779 85.43 100.619 85.6134 100.507 85.8396C100.395 86.0658 100.339 86.3083 100.339 86.5671V86.9828C100.339 87.3374 100.4 87.6379 100.523 87.8845C100.647 88.129 100.819 88.3155 101.039 88.4439C101.259 88.5702 101.515 88.6334 101.806 88.6334C101.996 88.6334 102.167 88.6069 102.32 88.5539C102.475 88.4989 102.608 88.4174 102.72 88.3094C102.832 88.1993 102.919 88.0628 102.98 87.8998L103.677 88.0954C103.604 88.3318 103.48 88.5397 103.307 88.719C103.134 88.8963 102.92 89.0348 102.665 89.1347C102.411 89.2325 102.124 89.2814 101.806 89.2814ZM104.512 89.1836V84.4885H105.208V85.1977H105.257C105.343 84.9654 105.498 84.7769 105.722 84.6322C105.946 84.4875 106.199 84.4152 106.48 84.4152C106.533 84.4152 106.599 84.4162 106.679 84.4182C106.758 84.4203 106.818 84.4233 106.859 84.4274V85.161C106.835 85.1549 106.779 85.1457 106.691 85.1335C106.605 85.1192 106.515 85.1121 106.419 85.1121C106.191 85.1121 105.987 85.16 105.808 85.2558C105.63 85.3495 105.49 85.4799 105.386 85.647C105.284 85.8121 105.233 86.0006 105.233 86.2125V89.1836H104.512ZM111.504 84.4885V85.0999H109.071V84.4885H111.504ZM109.78 83.3637H110.502V87.8387C110.502 88.0424 110.531 88.1953 110.591 88.2972C110.652 88.397 110.729 88.4643 110.823 88.4989C110.919 88.5315 111.019 88.5478 111.125 88.5478C111.205 88.5478 111.27 88.5437 111.321 88.5356C111.372 88.5254 111.413 88.5172 111.443 88.5111L111.59 89.1591C111.541 89.1775 111.473 89.1958 111.385 89.2142C111.298 89.2345 111.187 89.2447 111.052 89.2447C110.848 89.2447 110.649 89.2009 110.453 89.1133C110.259 89.0257 110.098 88.8922 109.97 88.7129C109.844 88.5335 109.78 88.3073 109.78 88.0343V83.3637ZM112.253 89.1836V84.4885H112.975V89.1836H112.253ZM112.62 83.706C112.48 83.706 112.358 83.6581 112.256 83.5624C112.157 83.4666 112.107 83.3514 112.107 83.217C112.107 83.0825 112.157 82.9673 112.256 82.8716C112.358 82.7758 112.48 82.7279 112.62 82.7279C112.761 82.7279 112.881 82.7758 112.981 82.8716C113.083 82.9673 113.134 83.0825 113.134 83.217C113.134 83.3514 113.083 83.4666 112.981 83.5624C112.881 83.6581 112.761 83.706 112.62 83.706ZM116.002 84.4885V85.0999H113.568V84.4885H116.002ZM114.278 83.3637H114.999V87.8387C114.999 88.0424 115.029 88.1953 115.088 88.2972C115.149 88.397 115.226 88.4643 115.32 88.4989C115.416 88.5315 115.517 88.5478 115.623 88.5478C115.702 88.5478 115.767 88.5437 115.818 88.5356C115.869 88.5254 115.91 88.5172 115.94 88.5111L116.087 89.1591C116.038 89.1775 115.97 89.1958 115.882 89.2142C115.795 89.2345 115.684 89.2447 115.549 89.2447C115.345 89.2447 115.146 89.2009 114.95 89.1133C114.757 89.0257 114.596 88.8922 114.467 88.7129C114.341 88.5335 114.278 88.3073 114.278 88.0343V83.3637ZM117.573 82.9235V89.1836H116.851V82.9235H117.573ZM120.526 89.2814C120.074 89.2814 119.684 89.1816 119.356 88.9819C119.029 88.7801 118.778 88.4989 118.601 88.1382C118.425 87.7755 118.338 87.3537 118.338 86.8727C118.338 86.3918 118.425 85.968 118.601 85.6012C118.778 85.2323 119.024 84.945 119.34 84.7392C119.658 84.5313 120.029 84.4274 120.453 84.4274C120.697 84.4274 120.939 84.4682 121.177 84.5497C121.416 84.6312 121.633 84.7636 121.828 84.947C122.024 85.1284 122.18 85.3689 122.296 85.6684C122.412 85.968 122.47 86.3368 122.47 86.7749V87.0806H118.851V86.457H121.737C121.737 86.1921 121.684 85.9557 121.578 85.7479C121.474 85.54 121.325 85.376 121.131 85.2558C120.94 85.1355 120.714 85.0754 120.453 85.0754C120.166 85.0754 119.917 85.1467 119.707 85.2894C119.499 85.43 119.339 85.6134 119.227 85.8396C119.115 86.0658 119.059 86.3083 119.059 86.5671V86.9828C119.059 87.3374 119.12 87.6379 119.242 87.8845C119.367 88.129 119.539 88.3155 119.759 88.4439C119.979 88.5702 120.235 88.6334 120.526 88.6334C120.716 88.6334 120.887 88.6069 121.04 88.5539C121.195 88.4989 121.328 88.4174 121.44 88.3094C121.552 88.1993 121.639 88.0628 121.7 87.8998L122.397 88.0954C122.324 88.3318 122.2 88.5397 122.027 88.719C121.854 88.8963 121.64 89.0348 121.385 89.1347C121.13 89.2325 120.844 89.2814 120.526 89.2814Z" fill="#ACADAF"/>
</g>
<defs>
<filter id="filter0_dd_2_11868" x="29.3924" y="20.3924" width="172.69" height="96.2976" filterUnits="userSpaceOnUse" color-interpolation-filters="sRGB">
<feFlood flood-opacity="0" result="BackgroundImageFix"/>
<feColorMatrix in="SourceAlpha" type="matrix" values="0 0 0 0 0 0 0 0 0 0 0 0 0 0 0 0 0 0 127 0" result="hardAlpha"/>
<feOffset/>
<feGaussianBlur stdDeviation="3.22785"/>
<feColorMatrix type="matrix" values="0 0 0 0 0 0 0 0 0 0 0 0 0 0 0 0 0 0 0.25 0"/>
<feBlend mode="normal" in2="BackgroundImageFix" result="effect1_dropShadow_2_11868"/>
<feColorMatrix in="SourceAlpha" type="matrix" values="0 0 0 0 0 0 0 0 0 0 0 0 0 0 0 0 0 0 127 0" result="hardAlpha"/>
<feOffset/>
<feGaussianBlur stdDeviation="4.3038"/>
<feColorMatrix type="matrix" values="0 0 0 0 0 0 0 0 0 0 0 0 0 0 0 0 0 0 0.075 0"/>
<feBlend mode="normal" in2="effect1_dropShadow_2_11868" result="effect2_dropShadow_2_11868"/>
<feBlend mode="normal" in="SourceGraphic" in2="effect2_dropShadow_2_11868" result="shape"/>
</filter>
</defs>
</svg>
