<svg width="224" height="117" viewBox="0 0 224 117" fill="none" xmlns="http://www.w3.org/2000/svg">
<path d="M29 31.5H194.508C198.65 31.5 202.008 34.8579 202.008 39V78C202.008 82.1421 198.65 85.5 194.508 85.5H29C24.8579 85.5 21.5 82.1421 21.5 78V39C21.5 34.8579 24.8579 31.5 29 31.5Z" fill="white"/>
<path d="M29 31.5H194.508C198.65 31.5 202.008 34.8579 202.008 39V78C202.008 82.1421 198.65 85.5 194.508 85.5H29C24.8579 85.5 21.5 82.1421 21.5 78V39C21.5 34.8579 24.8579 31.5 29 31.5Z" stroke="#DADFE2"/>
<path d="M33 50C33 46.134 36.134 43 40 43H99C102.866 43 106 46.134 106 50V50C106 53.866 102.866 57 99 57H40C36.134 57 33 53.866 33 50V50Z" fill="#233D48"/>
<path d="M33 70C33 67.7909 34.7909 66 37 66H142.508C144.717 66 146.508 67.7909 146.508 70V70C146.508 72.2091 144.717 74 142.508 74H37C34.7909 74 33 72.2091 33 70V70Z" fill="#5D757E"/>
<path d="M169.508 43.583H183.508C187.052 43.583 189.925 46.4562 189.925 50C189.925 53.5438 187.052 56.417 183.508 56.417H169.508C165.964 56.417 163.091 53.5438 163.091 50C163.091 46.4562 165.964 43.583 169.508 43.583Z" fill="#388523"/>
<path d="M169.508 43.583H183.508C187.052 43.583 189.925 46.4562 189.925 50C189.925 53.5438 187.052 56.417 183.508 56.417H169.508C165.964 56.417 163.091 53.5438 163.091 50C163.091 46.4562 165.964 43.583 169.508 43.583Z" stroke="#388523" stroke-width="1.16667"/>
<circle cx="183.508" cy="50.0002" r="4.66667" fill="white"/>
</svg>
