<svg width="224" height="117" viewBox="0 0 224 117" fill="none" xmlns="http://www.w3.org/2000/svg">
<path d="M10 15C10 12.7909 11.7909 11 14 11H210C212.209 11 214 12.7909 214 15V101C214 103.209 212.209 105 210 105H14C11.7909 105 10 103.209 10 101V15Z" fill="white"/>
<path d="M18 23C18 20.7909 19.7909 19 22 19H148C150.209 19 152 20.7909 152 23V93C152 95.2091 150.209 97 148 97H22C19.7909 97 18 95.2091 18 93V23Z" fill="#DADFE2"/>
<path d="M156 23C156 20.7909 157.791 19 160 19H202C204.209 19 206 20.7909 206 23V93C206 95.2091 204.209 97 202 97H160C157.791 97 156 95.2091 156 93V23Z" fill="#84979F"/>
</svg>
