<svg width="224" height="117" viewBox="0 0 224 117" fill="none" xmlns="http://www.w3.org/2000/svg">
<g clip-path="url(#clip0_4_6352)">
<g filter="url(#filter0_dd_4_6352)">
<g clip-path="url(#clip1_4_6352)">
<path d="M18 15.2406C18 12.3463 20.3463 10 23.2406 10H206V225H23.2406C20.3463 225 18 222.654 18 219.759V15.2406Z" fill="white"/>
<g filter="url(#filter1_dd_4_6352)">
<rect width="188" height="41.7524" transform="translate(18 10)" fill="white"/>
<path d="M28.4385 25.6572C28.4385 22.7748 30.7751 20.4381 33.6575 20.4381H49.3147C52.1971 20.4381 54.5337 22.7748 54.5337 25.6572V41.3143C54.5337 44.1967 52.1971 46.5333 49.3147 46.5333H33.6575C30.7751 46.5333 28.4385 44.1967 28.4385 41.3143V25.6572Z" fill="white"/>
<path d="M38.494 34.1381L40.1809 35.8251C40.4356 36.0799 40.4356 36.4929 40.1809 36.7477C39.9261 37.0025 39.5131 37.0025 39.2583 36.7477L36.4577 33.9471C36.2029 33.6923 36.2029 33.2793 36.4577 33.0245L39.2583 30.2239C39.5131 29.9691 39.9261 29.9691 40.1809 30.2239C40.4356 30.4787 40.4356 30.8917 40.1809 31.1465L38.494 32.8334H46.0523C46.4126 32.8334 46.7047 33.1255 46.7047 33.4858C46.7047 33.8461 46.4126 34.1381 46.0523 34.1381H38.494Z" fill="#233D48"/>
<path d="M66.9199 30.8736C66.8754 30.4251 66.6845 30.0766 66.3472 29.8283C66.0099 29.5799 65.5521 29.4558 64.9738 29.4558C64.5809 29.4558 64.2492 29.5114 63.9786 29.6226C63.708 29.7301 63.5004 29.8802 63.3559 30.0729C63.215 30.2657 63.1446 30.4844 63.1446 30.729C63.1372 30.9329 63.1798 31.1108 63.2725 31.2628C63.3688 31.4148 63.5004 31.5464 63.6672 31.6576C63.834 31.765 64.0268 31.8596 64.2455 31.9411C64.4642 32.019 64.6977 32.0857 64.946 32.1413L65.9691 32.3859C66.4658 32.4971 66.9217 32.6454 67.3369 32.8307C67.752 33.0161 68.1116 33.244 68.4155 33.5146C68.7195 33.7852 68.9548 34.104 69.1216 34.4709C69.2921 34.8379 69.3793 35.2586 69.383 35.7331C69.3793 36.4299 69.2013 37.0341 68.8492 37.5457C68.5008 38.0535 67.9967 38.4482 67.3369 38.73C66.6808 39.008 65.8894 39.147 64.9627 39.147C64.0434 39.147 63.2428 39.0061 62.5608 38.7244C61.8824 38.4427 61.3524 38.0257 60.9706 37.4734C60.5925 36.9174 60.3942 36.2298 60.3757 35.4106H62.7053C62.7313 35.7924 62.8406 36.1112 63.0334 36.3669C63.2298 36.619 63.4911 36.8099 63.8173 36.9396C64.1472 37.0656 64.5198 37.1287 64.9349 37.1287C65.3426 37.1287 65.6966 37.0693 65.9969 36.9507C66.3008 36.8321 66.5362 36.6672 66.703 36.4559C66.8698 36.2446 66.9532 36.0018 66.9532 35.7275C66.9532 35.4718 66.8772 35.2568 66.7253 35.0826C66.577 34.9083 66.3583 34.7601 66.0692 34.6377C65.7837 34.5154 65.4335 34.4042 65.0183 34.3041L63.7784 33.9928C62.8184 33.7593 62.0604 33.3941 61.5044 32.8974C60.9483 32.4007 60.6722 31.7317 60.6759 30.8903C60.6722 30.2008 60.8557 29.5985 61.2263 29.0832C61.6007 28.568 62.1141 28.1658 62.7665 27.8767C63.4189 27.5876 64.1602 27.443 64.9905 27.443C65.8356 27.443 66.5733 27.5876 67.2034 27.8767C67.8373 28.1658 68.3303 28.568 68.6824 29.0832C69.0345 29.5985 69.2162 30.1953 69.2273 30.8736H66.9199ZM70.9579 38.9857V30.4455H73.3264V38.9857H70.9579ZM72.1477 29.3446C71.7956 29.3446 71.4935 29.2278 71.2414 28.9943C70.9931 28.7571 70.8689 28.4735 70.8689 28.1436C70.8689 27.8174 70.9931 27.5375 71.2414 27.304C71.4935 27.0668 71.7956 26.9482 72.1477 26.9482C72.4998 26.9482 72.8001 27.0668 73.0484 27.304C73.3005 27.5375 73.4265 27.8174 73.4265 28.1436C73.4265 28.4735 73.3005 28.7571 73.0484 28.9943C72.8001 29.2278 72.4998 29.3446 72.1477 29.3446ZM78.3708 39.1247C77.7221 39.1247 77.1346 38.9579 76.6083 38.6243C76.0856 38.287 75.6705 37.7922 75.3628 37.1398C75.0589 36.4837 74.9069 35.6793 74.9069 34.7267C74.9069 33.7481 75.0644 32.9345 75.3795 32.2858C75.6946 31.6335 76.1134 31.146 76.6361 30.8235C77.1624 30.4974 77.7388 30.3343 78.3652 30.3343C78.8434 30.3343 79.2419 30.4158 79.5607 30.5789C79.8831 30.7383 80.1426 30.9385 80.3391 31.1794C80.5392 31.4166 80.6912 31.6501 80.795 31.88H80.8673V27.5987H83.2303V38.9857H80.8951V37.6179H80.795C80.6838 37.8552 80.5263 38.0905 80.3224 38.3241C80.1222 38.5539 79.8609 38.7448 79.5384 38.8968C79.2196 39.0487 78.8304 39.1247 78.3708 39.1247ZM79.1214 37.2399C79.5032 37.2399 79.8257 37.1361 80.0889 36.9285C80.3557 36.7172 80.5596 36.4225 80.7005 36.0444C80.845 35.6664 80.9173 35.2234 80.9173 34.7156C80.9173 34.2078 80.8469 33.7667 80.706 33.3923C80.5652 33.0179 80.3613 32.7288 80.0944 32.5249C79.8275 32.3211 79.5032 32.2191 79.1214 32.2191C78.7322 32.2191 78.4042 32.3248 78.1373 32.536C77.8704 32.7473 77.6684 33.0402 77.5312 33.4145C77.3941 33.7889 77.3255 34.2226 77.3255 34.7156C77.3255 35.2123 77.3941 35.6515 77.5312 36.0333C77.6721 36.4114 77.8741 36.7079 78.1373 36.9229C78.4042 37.1342 78.7322 37.2399 79.1214 37.2399ZM89.0698 39.1525C88.1913 39.1525 87.4351 38.9746 86.8013 38.6188C86.1711 38.2592 85.6855 37.7514 85.3445 37.0953C85.0035 36.4355 84.833 35.6552 84.833 34.7545C84.833 33.876 85.0035 33.105 85.3445 32.4415C85.6855 31.778 86.1656 31.2609 86.7846 30.8903C87.4073 30.5196 88.1375 30.3343 88.9752 30.3343C89.5387 30.3343 90.0632 30.4251 90.5487 30.6067C91.038 30.7846 91.4643 31.0534 91.8276 31.4129C92.1945 31.7725 92.4799 32.2247 92.6838 32.7696C92.8877 33.3107 92.9896 33.9446 92.9896 34.6711V35.3216H85.7782V33.8538H90.76C90.76 33.5128 90.6859 33.2107 90.5376 32.9475C90.3894 32.6843 90.1836 32.4786 89.9205 32.3303C89.661 32.1783 89.3589 32.1024 89.0142 32.1024C88.6546 32.1024 88.3358 32.1858 88.0578 32.3526C87.7835 32.5157 87.5685 32.7362 87.4129 33.0142C87.2572 33.2885 87.1775 33.5943 87.1738 33.9316V35.3272C87.1738 35.7498 87.2516 36.1149 87.4073 36.4225C87.5667 36.7302 87.7909 36.9674 88.0801 37.1342C88.3692 37.301 88.7121 37.3844 89.1087 37.3844C89.3719 37.3844 89.6128 37.3474 89.8315 37.2732C90.0502 37.1991 90.2374 37.0879 90.3931 36.9396C90.5487 36.7913 90.6674 36.6097 90.7489 36.3947L92.9396 36.5393C92.8284 37.0656 92.6004 37.5253 92.2557 37.9182C91.9147 38.3074 91.4736 38.6113 90.9324 38.83C90.3949 39.045 89.774 39.1525 89.0698 39.1525ZM98.6164 38.9857H94.5798V27.5987H98.6498C99.7951 27.5987 100.781 27.8267 101.608 28.2826C102.434 28.7348 103.07 29.3853 103.515 30.2342C103.963 31.083 104.188 32.0987 104.188 33.2811C104.188 34.4672 103.963 35.4866 103.515 36.3391C103.07 37.1917 102.431 37.8459 101.597 38.3018C100.766 38.7578 99.7729 38.9857 98.6164 38.9857ZM96.9873 36.9229H98.5163C99.228 36.9229 99.8266 36.7969 100.312 36.5448C100.801 36.2891 101.168 35.8943 101.413 35.3606C101.661 34.8231 101.786 34.1299 101.786 33.2811C101.786 32.4397 101.661 31.7521 101.413 31.2183C101.168 30.6845 100.803 30.2916 100.318 30.0396C99.8322 29.7875 99.2336 29.6615 98.5219 29.6615H96.9873V36.9229ZM105.926 38.9857V30.4455H108.223V31.9356H108.312C108.467 31.4055 108.729 31.0052 109.096 30.7346C109.463 30.4603 109.885 30.3231 110.363 30.3231C110.482 30.3231 110.61 30.3305 110.747 30.3454C110.884 30.3602 111.005 30.3806 111.108 30.4065V32.5082C110.997 32.4749 110.843 32.4452 110.647 32.4193C110.451 32.3933 110.271 32.3804 110.108 32.3804C109.759 32.3804 109.448 32.4563 109.174 32.6083C108.903 32.7566 108.688 32.9642 108.529 33.2311C108.373 33.4979 108.295 33.8056 108.295 34.154V38.9857H105.926ZM114.524 39.147C113.979 39.147 113.493 39.0524 113.067 38.8634C112.641 38.6706 112.303 38.3871 112.055 38.0127C111.81 37.6346 111.688 37.1639 111.688 36.6004C111.688 36.126 111.775 35.7275 111.949 35.405C112.124 35.0826 112.361 34.8231 112.661 34.6266C112.961 34.4302 113.302 34.2819 113.684 34.1818C114.07 34.0817 114.474 34.0113 114.896 33.9705C115.393 33.9186 115.793 33.8705 116.097 33.826C116.401 33.7778 116.622 33.7074 116.759 33.6147C116.896 33.522 116.965 33.3849 116.965 33.2033V33.1699C116.965 32.8178 116.853 32.5453 116.631 32.3526C116.412 32.1598 116.101 32.0634 115.697 32.0634C115.271 32.0634 114.931 32.158 114.679 32.347C114.427 32.5323 114.261 32.7659 114.179 33.0476L111.988 32.8696C112.1 32.3507 112.318 31.9022 112.644 31.5241C112.971 31.1423 113.391 30.8495 113.907 30.6456C114.426 30.438 115.026 30.3343 115.708 30.3343C116.182 30.3343 116.637 30.3899 117.07 30.5011C117.508 30.6123 117.895 30.7846 118.232 31.0181C118.573 31.2517 118.842 31.5519 119.039 31.9189C119.235 32.2821 119.333 32.7177 119.333 33.2255V38.9857H117.087V37.8014H117.02C116.883 38.0683 116.7 38.3037 116.47 38.5076C116.24 38.7077 115.964 38.8652 115.641 38.9802C115.319 39.0914 114.946 39.147 114.524 39.147ZM115.202 37.5123C115.55 37.5123 115.858 37.4437 116.125 37.3066C116.392 37.1657 116.601 36.9767 116.753 36.7395C116.905 36.5022 116.981 36.2335 116.981 35.9332V35.027C116.907 35.0751 116.805 35.1196 116.675 35.1604C116.549 35.1975 116.407 35.2327 116.247 35.266C116.088 35.2957 115.929 35.3235 115.769 35.3494C115.61 35.3717 115.465 35.3921 115.336 35.4106C115.058 35.4514 114.815 35.5162 114.607 35.6052C114.4 35.6942 114.238 35.8146 114.123 35.9666C114.009 36.1149 113.951 36.3002 113.951 36.5226C113.951 36.8451 114.068 37.0916 114.301 37.2621C114.539 37.4289 114.839 37.5123 115.202 37.5123ZM122.855 38.9857L120.531 30.4455H122.928L124.251 36.1834H124.329L125.708 30.4455H128.06L129.461 36.1501H129.533L130.834 30.4455H133.225L130.906 38.9857H128.399L126.931 33.6147H126.825L125.358 38.9857H122.855ZM138.167 39.1525C137.288 39.1525 136.532 38.9746 135.898 38.6188C135.268 38.2592 134.782 37.7514 134.441 37.0953C134.1 36.4355 133.93 35.6552 133.93 34.7545C133.93 33.876 134.1 33.105 134.441 32.4415C134.782 31.778 135.262 31.2609 135.881 30.8903C136.504 30.5196 137.234 30.3343 138.072 30.3343C138.635 30.3343 139.16 30.4251 139.646 30.6067C140.135 30.7846 140.561 31.0534 140.924 31.4129C141.291 31.7725 141.577 32.2247 141.781 32.7696C141.984 33.3107 142.086 33.9446 142.086 34.6711V35.3216H134.875V33.8538H139.857C139.857 33.5128 139.783 33.2107 139.634 32.9475C139.486 32.6843 139.28 32.4786 139.017 32.3303C138.758 32.1783 138.456 32.1024 138.111 32.1024C137.751 32.1024 137.433 32.1858 137.155 32.3526C136.88 32.5157 136.665 32.7362 136.51 33.0142C136.354 33.2885 136.274 33.5943 136.271 33.9316V35.3272C136.271 35.7498 136.348 36.1149 136.504 36.4225C136.663 36.7302 136.888 36.9674 137.177 37.1342C137.466 37.301 137.809 37.3844 138.205 37.3844C138.469 37.3844 138.71 37.3474 138.928 37.2732C139.147 37.1991 139.334 37.0879 139.49 36.9396C139.646 36.7913 139.764 36.6097 139.846 36.3947L142.036 36.5393C141.925 37.0656 141.697 37.5253 141.352 37.9182C141.011 38.3074 140.57 38.6113 140.029 38.83C139.492 39.045 138.871 39.1525 138.167 39.1525ZM143.632 38.9857V30.4455H145.928V31.9356H146.017C146.173 31.4055 146.434 31.0052 146.801 30.7346C147.168 30.4603 147.591 30.3231 148.069 30.3231C148.188 30.3231 148.315 30.3305 148.453 30.3454C148.59 30.3602 148.71 30.3806 148.814 30.4065V32.5082C148.703 32.4749 148.549 32.4452 148.353 32.4193C148.156 32.3933 147.976 32.3804 147.813 32.3804C147.465 32.3804 147.153 32.4563 146.879 32.6083C146.609 32.7566 146.394 32.9642 146.234 33.2311C146.078 33.4979 146.001 33.8056 146.001 34.154V38.9857H143.632Z" fill="#032B3A"/>
<path d="M183.819 32.5632L180.366 29.1102C180.243 28.9914 180.079 28.9256 179.907 28.9271C179.736 28.9286 179.573 28.9972 179.452 29.1182C179.331 29.2391 179.262 29.4027 179.261 29.5738C179.259 29.7448 179.325 29.9096 179.444 30.0327L182.897 33.4857L179.444 36.9388C179.325 37.0618 179.259 37.2266 179.261 37.3976C179.262 37.5687 179.331 37.7323 179.452 37.8533C179.573 37.9742 179.736 38.0429 179.907 38.0444C180.079 38.0459 180.243 37.9801 180.366 37.8612L183.819 34.4082L187.272 37.8612C187.395 37.9801 187.56 38.0459 187.731 38.0444C187.902 38.0429 188.066 37.9742 188.187 37.8533C188.308 37.7323 188.377 37.5687 188.378 37.3976C188.379 37.2266 188.314 37.0618 188.195 36.9388L184.742 33.4857L188.195 30.0327C188.257 29.9725 188.307 29.9005 188.341 29.8209C188.375 29.7413 188.393 29.6557 188.394 29.5691C188.395 29.4825 188.378 29.3966 188.345 29.3164C188.313 29.2362 188.264 29.1634 188.203 29.1021C188.142 29.0409 188.069 28.9924 187.989 28.9596C187.909 28.9268 187.823 28.9103 187.736 28.9111C187.649 28.9118 187.564 28.9298 187.484 28.964C187.405 28.9982 187.333 29.0479 187.272 29.1102L183.819 32.5632Z" fill="#233D48"/>
</g>
<g clip-path="url(#clip2_4_6352)">
<g clip-path="url(#clip3_4_6352)">
<path d="M33.6572 64.8C33.6572 63.3588 34.8256 62.1905 36.2668 62.1905H160.127C161.568 62.1905 162.736 63.3588 162.736 64.8V64.8C162.736 66.2412 161.568 67.4095 160.127 67.4095H36.2668C34.8256 67.4095 33.6572 66.2412 33.6572 64.8V64.8Z" fill="black" fill-opacity="0.08"/>
<rect x="33.6572" y="62.1905" width="128.724" height="5.21905" fill="url(#paint0_linear_4_6352)"/>
</g>
<g clip-path="url(#clip4_4_6352)">
<path d="M33.6572 75.2381C33.6572 73.7969 34.8256 72.6286 36.2668 72.6286H187.733C189.175 72.6286 190.343 73.7969 190.343 75.2381V75.2381C190.343 76.6793 189.175 77.8476 187.733 77.8476H36.2668C34.8256 77.8476 33.6572 76.6793 33.6572 75.2381V75.2381Z" fill="black" fill-opacity="0.08"/>
<rect x="33.6572" y="72.6286" width="157" height="5.21905" fill="url(#paint1_linear_4_6352)"/>
<rect x="-117.695" y="72.6286" width="157" height="5.21905" fill="url(#paint2_linear_4_6352)"/>
</g>
<g clip-path="url(#clip5_4_6352)">
<path d="M33.6572 85.6762C33.6572 84.235 34.8256 83.0667 36.2668 83.0667H148.935C150.376 83.0667 151.545 84.235 151.545 85.6762V85.6762C151.545 87.1174 150.376 88.2857 148.935 88.2857H36.2667C34.8255 88.2857 33.6572 87.1174 33.6572 85.6762V85.6762Z" fill="black" fill-opacity="0.08"/>
<rect x="33.6572" y="83.0667" width="118.152" height="5.21905" fill="url(#paint3_linear_4_6352)"/>
</g>
</g>
</g>
</g>
</g>
<defs>
<filter id="filter0_dd_4_6352" x="10.1714" y="4.78095" width="203.657" height="230.657" filterUnits="userSpaceOnUse" color-interpolation-filters="sRGB">
<feFlood flood-opacity="0" result="BackgroundImageFix"/>
<feColorMatrix in="SourceAlpha" type="matrix" values="0 0 0 0 0 0 0 0 0 0 0 0 0 0 0 0 0 0 127 0" result="hardAlpha"/>
<feOffset dy="2.60952"/>
<feGaussianBlur stdDeviation="3.91429"/>
<feColorMatrix type="matrix" values="0 0 0 0 0 0 0 0 0 0 0 0 0 0 0 0 0 0 0.05 0"/>
<feBlend mode="normal" in2="BackgroundImageFix" result="effect1_dropShadow_4_6352"/>
<feColorMatrix in="SourceAlpha" type="matrix" values="0 0 0 0 0 0 0 0 0 0 0 0 0 0 0 0 0 0 127 0" result="hardAlpha"/>
<feOffset dy="0.652381"/>
<feGaussianBlur stdDeviation="1.30476"/>
<feColorMatrix type="matrix" values="0 0 0 0 0 0 0 0 0 0 0 0 0 0 0 0 0 0 0.1 0"/>
<feBlend mode="normal" in2="effect1_dropShadow_4_6352" result="effect2_dropShadow_4_6352"/>
<feBlend mode="normal" in="SourceGraphic" in2="effect2_dropShadow_4_6352" result="shape"/>
</filter>
<filter id="filter1_dd_4_6352" x="10.1714" y="4.78095" width="203.657" height="57.4095" filterUnits="userSpaceOnUse" color-interpolation-filters="sRGB">
<feFlood flood-opacity="0" result="BackgroundImageFix"/>
<feColorMatrix in="SourceAlpha" type="matrix" values="0 0 0 0 0 0 0 0 0 0 0 0 0 0 0 0 0 0 127 0" result="hardAlpha"/>
<feOffset dy="2.60952"/>
<feGaussianBlur stdDeviation="3.91429"/>
<feColorMatrix type="matrix" values="0 0 0 0 0 0 0 0 0 0 0 0 0 0 0 0 0 0 0.05 0"/>
<feBlend mode="normal" in2="BackgroundImageFix" result="effect1_dropShadow_4_6352"/>
<feColorMatrix in="SourceAlpha" type="matrix" values="0 0 0 0 0 0 0 0 0 0 0 0 0 0 0 0 0 0 127 0" result="hardAlpha"/>
<feOffset dy="0.652381"/>
<feGaussianBlur stdDeviation="1.30476"/>
<feColorMatrix type="matrix" values="0 0 0 0 0 0 0 0 0 0 0 0 0 0 0 0 0 0 0.1 0"/>
<feBlend mode="normal" in2="effect1_dropShadow_4_6352" result="effect2_dropShadow_4_6352"/>
<feBlend mode="normal" in="SourceGraphic" in2="effect2_dropShadow_4_6352" result="shape"/>
</filter>
<linearGradient id="paint0_linear_4_6352" x1="162.381" y1="64.8" x2="33.6572" y2="64.8" gradientUnits="userSpaceOnUse">
<stop stop-color="white" stop-opacity="0"/>
<stop offset="0.299948" stop-color="white" stop-opacity="0.8"/>
<stop offset="1" stop-color="white" stop-opacity="0"/>
</linearGradient>
<linearGradient id="paint1_linear_4_6352" x1="190.657" y1="75.2381" x2="33.6572" y2="75.2381" gradientUnits="userSpaceOnUse">
<stop stop-color="white" stop-opacity="0"/>
<stop offset="0.299948" stop-color="white" stop-opacity="0.8"/>
<stop offset="1" stop-color="white" stop-opacity="0"/>
</linearGradient>
<linearGradient id="paint2_linear_4_6352" x1="39.3047" y1="75.2381" x2="-117.695" y2="75.2381" gradientUnits="userSpaceOnUse">
<stop stop-color="white" stop-opacity="0"/>
<stop offset="0.299948" stop-color="white" stop-opacity="0.8"/>
<stop offset="1" stop-color="white" stop-opacity="0"/>
</linearGradient>
<linearGradient id="paint3_linear_4_6352" x1="151.81" y1="85.6762" x2="33.6572" y2="85.6762" gradientUnits="userSpaceOnUse">
<stop stop-color="white" stop-opacity="0"/>
<stop offset="0.299948" stop-color="white" stop-opacity="0.8"/>
<stop offset="1" stop-color="white" stop-opacity="0"/>
</linearGradient>
<clipPath id="clip0_4_6352">
<path d="M0 8C0 3.58172 3.58172 0 8 0H216C220.418 0 224 3.58172 224 8V109C224 113.418 220.418 117 216 117H8C3.58172 117 0 113.418 0 109V8Z" fill="white"/>
</clipPath>
<clipPath id="clip1_4_6352">
<path d="M18 15.2406C18 12.3463 20.3463 10 23.2406 10H206V225H23.2406C20.3463 225 18 222.654 18 219.759V15.2406Z" fill="white"/>
</clipPath>
<clipPath id="clip2_4_6352">
<rect width="188" height="173.248" fill="white" transform="translate(18 51.7524)"/>
</clipPath>
<clipPath id="clip3_4_6352">
<path d="M33.6572 64.8C33.6572 63.3588 34.8256 62.1905 36.2668 62.1905H160.127C161.568 62.1905 162.736 63.3588 162.736 64.8V64.8C162.736 66.2412 161.568 67.4095 160.127 67.4095H36.2668C34.8256 67.4095 33.6572 66.2412 33.6572 64.8V64.8Z" fill="white"/>
</clipPath>
<clipPath id="clip4_4_6352">
<path d="M33.6572 75.2381C33.6572 73.7969 34.8256 72.6286 36.2668 72.6286H187.733C189.175 72.6286 190.343 73.7969 190.343 75.2381V75.2381C190.343 76.6793 189.175 77.8476 187.733 77.8476H36.2668C34.8256 77.8476 33.6572 76.6793 33.6572 75.2381V75.2381Z" fill="white"/>
</clipPath>
<clipPath id="clip5_4_6352">
<path d="M33.6572 85.6762C33.6572 84.235 34.8256 83.0667 36.2668 83.0667H148.935C150.376 83.0667 151.545 84.235 151.545 85.6762V85.6762C151.545 87.1174 150.376 88.2857 148.935 88.2857H36.2667C34.8255 88.2857 33.6572 87.1174 33.6572 85.6762V85.6762Z" fill="white"/>
</clipPath>
</defs>
</svg>
