<svg width="224" height="117" viewBox="0 0 224 117" fill="none" xmlns="http://www.w3.org/2000/svg">
<path d="M60 8C60 5.79086 61.7909 4 64 4H160C162.209 4 164 5.79086 164 8V108C164 110.209 162.209 112 160 112H64C61.7909 112 60 110.209 60 108V8Z" fill="white"/>
<path d="M68 16C68 13.7909 69.7909 12 72 12H152C154.209 12 156 13.7909 156 16V40C156 42.2091 154.209 44 152 44H72C69.7909 44 68 42.2091 68 40V16Z" fill="#DADFE2"/>
<path d="M68 56C68 53.7909 69.7909 52 72 52H152C154.209 52 156 53.7909 156 56V60C156 62.2091 154.209 64 152 64H72C69.7909 64 68 62.2091 68 60V56Z" fill="#DADFE2"/>
<path d="M68 76C68 73.7909 69.7909 72 72 72H152C154.209 72 156 73.7909 156 76V80C156 82.2091 154.209 84 152 84H72C69.7909 84 68 82.2091 68 80V76Z" fill="#DADFE2"/>
<path d="M68 96C68 93.7909 69.7909 92 72 92H152C154.209 92 156 93.7909 156 96V100C156 102.209 154.209 104 152 104H72C69.7909 104 68 102.209 68 100V96Z" fill="#DADFE2"/>
</svg>
