<svg width="224" height="117" viewBox="0 0 224 117" fill="none" xmlns="http://www.w3.org/2000/svg">
<rect x="62.5" y="47" width="100" height="24" rx="12" fill="#E7F0E5"/>
<rect x="70.5" y="55" width="8" height="8" rx="4" fill="#388523"/>
<path d="M90.3295 56.4545C90.2784 56.0227 90.071 55.6875 89.7074 55.4489C89.3438 55.2102 88.8977 55.0909 88.3693 55.0909C87.983 55.0909 87.6449 55.1534 87.3551 55.2784C87.0682 55.4034 86.8438 55.5753 86.6818 55.794C86.5227 56.0128 86.4432 56.2614 86.4432 56.5398C86.4432 56.7727 86.4986 56.973 86.6094 57.1406C86.723 57.3054 86.8679 57.4432 87.044 57.554C87.2202 57.6619 87.4048 57.7514 87.598 57.8224C87.7912 57.8906 87.9688 57.946 88.1307 57.9886L89.017 58.2273C89.2443 58.2869 89.4972 58.3693 89.7756 58.4744C90.0568 58.5795 90.3253 58.723 90.581 58.9048C90.8395 59.0838 91.0526 59.3139 91.2202 59.5952C91.3878 59.8764 91.4716 60.2216 91.4716 60.6307C91.4716 61.1023 91.348 61.5284 91.1009 61.9091C90.8565 62.2898 90.4986 62.5923 90.027 62.8168C89.5582 63.0412 88.9886 63.1534 88.3182 63.1534C87.6932 63.1534 87.152 63.0526 86.6946 62.8509C86.2401 62.6491 85.8821 62.3679 85.6207 62.0071C85.3622 61.6463 85.2159 61.2273 85.1818 60.75H86.2727C86.3011 61.0795 86.4119 61.3523 86.6051 61.5682C86.8011 61.7812 87.0483 61.9403 87.3466 62.0455C87.6477 62.1477 87.9716 62.1989 88.3182 62.1989C88.7216 62.1989 89.0838 62.1335 89.4048 62.0028C89.7259 61.8693 89.9801 61.6847 90.1676 61.4489C90.3551 61.2102 90.4489 60.9318 90.4489 60.6136C90.4489 60.3239 90.3679 60.0881 90.206 59.9062C90.044 59.7244 89.831 59.5767 89.5668 59.4631C89.3026 59.3494 89.017 59.25 88.7102 59.1648L87.6364 58.858C86.9545 58.6619 86.4148 58.3821 86.017 58.0185C85.6193 57.6548 85.4205 57.179 85.4205 56.5909C85.4205 56.1023 85.5526 55.6761 85.8168 55.3125C86.0838 54.946 86.4418 54.6619 86.8906 54.4602C87.3423 54.2557 87.8466 54.1534 88.4034 54.1534C88.9659 54.1534 89.4659 54.2543 89.9034 54.456C90.3409 54.6548 90.6875 54.9276 90.9432 55.2741C91.2017 55.6207 91.3381 56.0142 91.3523 56.4545H90.3295ZM95.9194 56.4545V57.3068H92.5273V56.4545H95.9194ZM93.516 54.8864H94.5217V61.125C94.5217 61.4091 94.5629 61.6222 94.6452 61.7642C94.7305 61.9034 94.8384 61.9972 94.9691 62.0455C95.1026 62.0909 95.2433 62.1136 95.391 62.1136C95.5018 62.1136 95.5927 62.108 95.6637 62.0966C95.7347 62.0824 95.7915 62.071 95.8342 62.0625L96.0387 62.9659C95.9705 62.9915 95.8754 63.017 95.7532 63.0426C95.631 63.071 95.4762 63.0852 95.2887 63.0852C95.0046 63.0852 94.7262 63.0241 94.4535 62.902C94.1836 62.7798 93.9592 62.5938 93.7802 62.3438C93.604 62.0938 93.516 61.7784 93.516 61.3977V54.8864ZM99.3583 63.1534C98.9435 63.1534 98.5671 63.0753 98.229 62.919C97.891 62.7599 97.6225 62.5312 97.4237 62.233C97.2248 61.9318 97.1254 61.5682 97.1254 61.142C97.1254 60.767 97.1992 60.4631 97.3469 60.2301C97.4947 59.9943 97.6921 59.8097 97.9393 59.6761C98.1864 59.5426 98.4592 59.4432 98.7575 59.3778C99.0586 59.3097 99.3612 59.2557 99.6651 59.2159C100.063 59.1648 100.385 59.1264 100.632 59.1009C100.882 59.0724 101.064 59.0256 101.178 58.9602C101.294 58.8949 101.353 58.7812 101.353 58.6193V58.5852C101.353 58.1648 101.238 57.8381 101.007 57.6051C100.78 57.3722 100.435 57.2557 99.9719 57.2557C99.4918 57.2557 99.1154 57.3608 98.8427 57.571C98.57 57.7812 98.3782 58.0057 98.2674 58.2443L97.3129 57.9034C97.4833 57.5057 97.7106 57.196 97.9947 56.9744C98.2816 56.75 98.5941 56.5937 98.9322 56.5057C99.2731 56.4148 99.6083 56.3693 99.9379 56.3693C100.148 56.3693 100.39 56.3949 100.662 56.446C100.938 56.4943 101.203 56.5952 101.459 56.7486C101.718 56.902 101.932 57.1335 102.103 57.4432C102.273 57.7528 102.358 58.1676 102.358 58.6875V63H101.353V62.1136H101.301C101.233 62.2557 101.12 62.4077 100.961 62.5696C100.801 62.7315 100.59 62.8693 100.326 62.983C100.061 63.0966 99.739 63.1534 99.3583 63.1534ZM99.5117 62.25C99.9094 62.25 100.245 62.1719 100.517 62.0156C100.793 61.8594 101 61.6577 101.14 61.4105C101.282 61.1634 101.353 60.9034 101.353 60.6307V59.7102C101.31 59.7614 101.216 59.8082 101.071 59.8509C100.929 59.8906 100.765 59.9261 100.577 59.9574C100.392 59.9858 100.212 60.0114 100.036 60.0341C99.8626 60.054 99.7219 60.071 99.614 60.0852C99.3526 60.1193 99.1083 60.1747 98.881 60.2514C98.6566 60.3253 98.4748 60.4375 98.3356 60.5881C98.1992 60.7358 98.131 60.9375 98.131 61.1932C98.131 61.5426 98.2603 61.8068 98.5188 61.9858C98.7802 62.1619 99.1112 62.25 99.5117 62.25ZM107.04 56.4545V57.3068H103.648V56.4545H107.04ZM104.637 54.8864H105.643V61.125C105.643 61.4091 105.684 61.6222 105.766 61.7642C105.852 61.9034 105.96 61.9972 106.09 62.0455C106.224 62.0909 106.364 62.1136 106.512 62.1136C106.623 62.1136 106.714 62.108 106.785 62.0966C106.856 62.0824 106.913 62.071 106.955 62.0625L107.16 62.9659C107.092 62.9915 106.996 63.017 106.874 63.0426C106.752 63.071 106.597 63.0852 106.41 63.0852C106.126 63.0852 105.847 63.0241 105.575 62.902C105.305 62.7798 105.08 62.5938 104.901 62.3438C104.725 62.0938 104.637 61.7784 104.637 61.3977V54.8864ZM112.678 60.3239V56.4545H113.684V63H112.678V61.892H112.61C112.457 62.2244 112.218 62.5071 111.894 62.7401C111.57 62.9702 111.161 63.0852 110.667 63.0852C110.258 63.0852 109.894 62.9957 109.576 62.8168C109.258 62.6349 109.008 62.3622 108.826 61.9986C108.644 61.6321 108.553 61.1705 108.553 60.6136V56.4545H109.559V60.5455C109.559 61.0227 109.692 61.4034 109.96 61.6875C110.229 61.9716 110.573 62.1136 110.991 62.1136C111.241 62.1136 111.495 62.0497 111.754 61.9219C112.015 61.794 112.234 61.598 112.41 61.3338C112.589 61.0696 112.678 60.733 112.678 60.3239ZM120.162 57.9205L119.259 58.1761C119.202 58.0256 119.118 57.8793 119.007 57.7372C118.9 57.5923 118.752 57.473 118.564 57.3793C118.377 57.2855 118.137 57.2386 117.844 57.2386C117.444 57.2386 117.11 57.331 116.843 57.5156C116.578 57.6974 116.446 57.929 116.446 58.2102C116.446 58.4602 116.537 58.6577 116.719 58.8026C116.901 58.9474 117.185 59.0682 117.571 59.1648L118.543 59.4034C119.128 59.5455 119.564 59.7628 119.851 60.0554C120.138 60.3452 120.282 60.7187 120.282 61.1761C120.282 61.5511 120.174 61.8864 119.958 62.1818C119.745 62.4773 119.446 62.7102 119.063 62.8807C118.679 63.0511 118.233 63.1364 117.725 63.1364C117.057 63.1364 116.505 62.9915 116.067 62.7017C115.63 62.4119 115.353 61.9886 115.236 61.4318L116.191 61.1932C116.282 61.5455 116.453 61.8097 116.706 61.9858C116.962 62.1619 117.296 62.25 117.708 62.25C118.176 62.25 118.549 62.1506 118.824 61.9517C119.103 61.75 119.242 61.5085 119.242 61.2273C119.242 61 119.162 60.8097 119.003 60.6562C118.844 60.5 118.6 60.3835 118.27 60.3068L117.179 60.0511C116.58 59.9091 116.14 59.6889 115.858 59.3906C115.58 59.0895 115.441 58.7131 115.441 58.2614C115.441 57.892 115.544 57.5653 115.752 57.2812C115.962 56.9972 116.248 56.7741 116.608 56.6122C116.972 56.4503 117.384 56.3693 117.844 56.3693C118.492 56.3693 119 56.5114 119.37 56.7955C119.742 57.0795 120.006 57.4545 120.162 57.9205ZM121.932 63V54.2727H122.989V62.0625H127.045V63H121.932ZM130.472 63.1534C130.057 63.1534 129.68 63.0753 129.342 62.919C129.004 62.7599 128.736 62.5312 128.537 62.233C128.338 61.9318 128.239 61.5682 128.239 61.142C128.239 60.767 128.313 60.4631 128.46 60.2301C128.608 59.9943 128.805 59.8097 129.053 59.6761C129.3 59.5426 129.572 59.4432 129.871 59.3778C130.172 59.3097 130.474 59.2557 130.778 59.2159C131.176 59.1648 131.499 59.1264 131.746 59.1009C131.996 59.0724 132.178 59.0256 132.291 58.9602C132.408 58.8949 132.466 58.7812 132.466 58.6193V58.5852C132.466 58.1648 132.351 57.8381 132.121 57.6051C131.893 57.3722 131.548 57.2557 131.085 57.2557C130.605 57.2557 130.229 57.3608 129.956 57.571C129.683 57.7812 129.491 58.0057 129.381 58.2443L128.426 57.9034C128.597 57.5057 128.824 57.196 129.108 56.9744C129.395 56.75 129.707 56.5937 130.045 56.5057C130.386 56.4148 130.722 56.3693 131.051 56.3693C131.261 56.3693 131.503 56.3949 131.776 56.446C132.051 56.4943 132.317 56.5952 132.572 56.7486C132.831 56.902 133.045 57.1335 133.216 57.4432C133.386 57.7528 133.472 58.1676 133.472 58.6875V63H132.466V62.1136H132.415C132.347 62.2557 132.233 62.4077 132.074 62.5696C131.915 62.7315 131.703 62.8693 131.439 62.983C131.175 63.0966 130.852 63.1534 130.472 63.1534ZM130.625 62.25C131.023 62.25 131.358 62.1719 131.631 62.0156C131.906 61.8594 132.114 61.6577 132.253 61.4105C132.395 61.1634 132.466 60.9034 132.466 60.6307V59.7102C132.423 59.7614 132.33 59.8082 132.185 59.8509C132.043 59.8906 131.878 59.9261 131.69 59.9574C131.506 59.9858 131.325 60.0114 131.149 60.0341C130.976 60.054 130.835 60.071 130.727 60.0852C130.466 60.1193 130.222 60.1747 129.994 60.2514C129.77 60.3253 129.588 60.4375 129.449 60.5881C129.313 60.7358 129.244 60.9375 129.244 61.1932C129.244 61.5426 129.374 61.8068 129.632 61.9858C129.893 62.1619 130.224 62.25 130.625 62.25ZM135.444 63V54.2727H136.449V57.4943H136.534C136.608 57.3807 136.711 57.2358 136.841 57.0597C136.975 56.8807 137.165 56.7216 137.412 56.5824C137.662 56.4403 138 56.3693 138.426 56.3693C138.978 56.3693 139.463 56.5071 139.884 56.7827C140.304 57.0582 140.632 57.4489 140.868 57.9545C141.104 58.4602 141.222 59.0568 141.222 59.7443C141.222 60.4375 141.104 61.0384 140.868 61.5469C140.632 62.0526 140.306 62.4446 139.888 62.723C139.471 62.9986 138.989 63.1364 138.444 63.1364C138.023 63.1364 137.686 63.0668 137.434 62.9276C137.181 62.7855 136.986 62.625 136.85 62.446C136.713 62.2642 136.608 62.1136 136.534 61.9943H136.415V63H135.444ZM136.432 59.7273C136.432 60.2216 136.505 60.6577 136.65 61.0355C136.794 61.4105 137.006 61.7045 137.284 61.9176C137.563 62.1278 137.904 62.233 138.307 62.233C138.728 62.233 139.078 62.1222 139.36 61.9006C139.644 61.6761 139.857 61.375 139.999 60.9972C140.144 60.6165 140.216 60.1932 140.216 59.7273C140.216 59.267 140.145 58.8523 140.003 58.483C139.864 58.1108 139.652 57.8168 139.368 57.6009C139.087 57.3821 138.733 57.2727 138.307 57.2727C137.898 57.2727 137.554 57.3764 137.276 57.5838C136.998 57.7884 136.787 58.0753 136.645 58.4446C136.503 58.8111 136.432 59.2386 136.432 59.7273ZM145.505 63.1364C144.874 63.1364 144.33 62.9972 143.873 62.7188C143.418 62.4375 143.067 62.0455 142.82 61.5426C142.576 61.0369 142.453 60.4489 142.453 59.7784C142.453 59.108 142.576 58.517 142.82 58.0057C143.067 57.4915 143.411 57.0909 143.851 56.804C144.294 56.5142 144.811 56.3693 145.402 56.3693C145.743 56.3693 146.08 56.4261 146.412 56.5398C146.745 56.6534 147.047 56.8381 147.32 57.0938C147.593 57.3466 147.81 57.6818 147.972 58.0994C148.134 58.517 148.215 59.0312 148.215 59.642V60.0682H143.169V59.1989H147.192C147.192 58.8295 147.118 58.5 146.971 58.2102C146.826 57.9205 146.618 57.6918 146.348 57.5241C146.081 57.3565 145.766 57.2727 145.402 57.2727C145.002 57.2727 144.655 57.3722 144.363 57.571C144.073 57.767 143.85 58.0227 143.694 58.3381C143.537 58.6534 143.459 58.9915 143.459 59.3523V59.9318C143.459 60.4261 143.544 60.8452 143.715 61.1889C143.888 61.5298 144.128 61.7898 144.435 61.9688C144.742 62.1449 145.098 62.233 145.505 62.233C145.769 62.233 146.007 62.196 146.221 62.1222C146.436 62.0455 146.623 61.9318 146.779 61.7812C146.935 61.6278 147.056 61.4375 147.141 61.2102L148.113 61.483C148.01 61.8125 147.838 62.1023 147.597 62.3523C147.355 62.5994 147.057 62.7926 146.702 62.9318C146.347 63.0682 145.948 63.1364 145.505 63.1364ZM150.75 54.2727V63H149.745V54.2727H150.75Z" fill="#1A430F"/>
</svg>
