<svg width="224" height="117" viewBox="0 0 224 117" fill="none" xmlns="http://www.w3.org/2000/svg">
<g clip-path="url(#clip0_1346_70112)">
<path d="M20.5 47C20.5 42.5817 24.0817 39 28.5 39H196.5C200.918 39 204.5 42.5817 204.5 47V69C204.5 73.4183 200.918 77 196.5 77H28.5C24.0817 77 20.5 73.4183 20.5 69V47Z" fill="#F1F0E9"/>
<path d="M38.5131 53.496L39.1611 54.528L33.5131 57.992L39.1611 61.488L38.4411 62.472L32.3611 58.672V57.296L38.5131 53.496ZM49.1309 59.952C49.1309 60.5813 48.9735 61.1413 48.6589 61.632C48.3442 62.1173 47.8882 62.4987 47.2909 62.776C46.6935 63.048 45.9655 63.184 45.1069 63.184C44.3015 63.184 43.5709 63.0613 42.9149 62.816C42.2642 62.5707 41.7069 62.224 41.2429 61.776L42.0669 60.848C42.4509 61.2053 42.8909 61.4907 43.3869 61.704C43.8829 61.912 44.4642 62.016 45.1309 62.016C45.5789 62.016 45.9975 61.944 46.3869 61.8C46.7762 61.6507 47.0909 61.4267 47.3309 61.128C47.5709 60.824 47.6909 60.44 47.6909 59.976C47.6909 59.6187 47.6215 59.3147 47.4829 59.064C47.3442 58.8133 47.0989 58.592 46.7469 58.4C46.3949 58.2027 45.9042 58.0107 45.2749 57.824C44.5495 57.6107 43.9202 57.3707 43.3869 57.104C42.8589 56.832 42.4482 56.4987 42.1549 56.104C41.8669 55.7093 41.7229 55.2213 41.7229 54.64C41.7229 54.0907 41.8749 53.6027 42.1789 53.176C42.4829 52.7493 42.9015 52.416 43.4349 52.176C43.9735 51.9307 44.5922 51.808 45.2909 51.808C46.0535 51.808 46.7149 51.9173 47.2749 52.136C47.8402 52.3493 48.3522 52.6587 48.8109 53.064L47.9949 53.968C47.6002 53.616 47.1762 53.3627 46.7229 53.208C46.2695 53.048 45.8082 52.968 45.3389 52.968C44.9389 52.968 44.5709 53.0293 44.2349 53.152C43.9042 53.2693 43.6375 53.448 43.4349 53.688C43.2375 53.9227 43.1389 54.224 43.1389 54.592C43.1389 54.9067 43.2242 55.1787 43.3949 55.408C43.5655 55.6373 43.8535 55.848 44.2589 56.04C44.6642 56.2267 45.2162 56.424 45.9149 56.632C46.4855 56.7973 47.0135 57.0053 47.4989 57.256C47.9895 57.5013 48.3842 57.8373 48.6829 58.264C48.9815 58.6853 49.1309 59.248 49.1309 59.952ZM58.4366 62.576C58.1486 62.768 57.7993 62.9173 57.3886 63.024C56.978 63.1307 56.5753 63.184 56.1806 63.184C55.274 63.184 54.5753 62.9467 54.0846 62.472C53.594 61.9973 53.3486 61.3867 53.3486 60.64V55.616H51.4126V54.576H53.3486V52.664L54.6926 52.504V54.576H57.6046L57.4446 55.616H54.6926V60.624C54.6926 61.0933 54.8153 61.4507 55.0606 61.696C55.3113 61.9413 55.7246 62.064 56.3006 62.064C56.6153 62.064 56.906 62.0267 57.1726 61.952C57.4393 61.8773 57.6873 61.7813 57.9166 61.664L58.4366 62.576ZM68.3504 54.576L65.3904 63.056C65.193 63.6267 64.9424 64.1493 64.6384 64.624C64.3397 65.0987 63.9477 65.4907 63.4624 65.8C62.9824 66.1147 62.3717 66.3093 61.6304 66.384L61.4224 65.312C62.0037 65.216 62.4624 65.0693 62.7984 64.872C63.1344 64.6747 63.3984 64.4213 63.5904 64.112C63.7877 63.8027 63.961 63.432 64.1104 63H63.6624L60.7184 54.576H62.1584L64.5744 61.976L66.9584 54.576H68.3504ZM74.2161 51.184V60.92C74.2161 61.336 74.3441 61.632 74.6001 61.808C74.8615 61.9787 75.1975 62.064 75.6081 62.064C75.8641 62.064 76.1068 62.0373 76.3361 61.984C76.5655 61.9307 76.7948 61.8587 77.0241 61.768L77.3841 62.752C77.1548 62.864 76.8695 62.9627 76.5281 63.048C76.1921 63.1387 75.8108 63.184 75.3841 63.184C74.6375 63.184 74.0321 62.9787 73.5681 62.568C73.1041 62.152 72.8721 61.5787 72.8721 60.848V52.248H70.2881V51.184H74.2161ZM81.5859 59.264C81.6125 59.9147 81.7379 60.448 81.9619 60.864C82.1859 61.2747 82.4819 61.5787 82.8499 61.776C83.2179 61.968 83.6179 62.064 84.0499 62.064C84.4819 62.064 84.8712 62 85.2179 61.872C85.5699 61.744 85.9299 61.5547 86.2979 61.304L86.9299 62.192C86.5352 62.5013 86.0845 62.744 85.5779 62.92C85.0765 63.096 84.5619 63.184 84.0339 63.184C83.2179 63.184 82.5219 63 81.9459 62.632C81.3699 62.264 80.9299 61.752 80.6259 61.096C80.3272 60.4347 80.1779 59.6693 80.1779 58.8C80.1779 57.9467 80.3299 57.1893 80.6339 56.528C80.9379 55.8667 81.3645 55.3467 81.9139 54.968C82.4632 54.5893 83.1112 54.4 83.8579 54.4C84.5672 54.4 85.1779 54.568 85.6899 54.904C86.2019 55.2347 86.5939 55.7093 86.8659 56.328C87.1432 56.9413 87.2819 57.6747 87.2819 58.528C87.2819 58.672 87.2792 58.808 87.2739 58.936C87.2685 59.0587 87.2605 59.168 87.2499 59.264H81.5859ZM83.8739 55.504C83.2499 55.504 82.7272 55.7253 82.3059 56.168C81.8899 56.6107 81.6525 57.296 81.5939 58.224H85.9859C85.9699 57.3227 85.7725 56.6453 85.3939 56.192C85.0152 55.7333 84.5085 55.504 83.8739 55.504ZM90.6836 63V51.984H92.0756V61.76H97.0996L96.9396 63H90.6836ZM103.981 54.576V61.936H106.357V63H100.037V61.936H102.637V55.64H100.117V54.576H103.981ZM102.909 50.632C103.208 50.632 103.445 50.7227 103.621 50.904C103.803 51.0853 103.893 51.3067 103.893 51.568C103.893 51.84 103.803 52.0693 103.621 52.256C103.445 52.4373 103.208 52.528 102.909 52.528C102.627 52.528 102.395 52.4373 102.213 52.256C102.032 52.0693 101.941 51.84 101.941 51.568C101.941 51.3067 102.032 51.0853 102.213 50.904C102.395 50.7227 102.627 50.632 102.909 50.632ZM109.311 63V54.576H110.455L110.559 55.744C110.9 55.312 111.327 54.9813 111.839 54.752C112.356 54.5173 112.858 54.4 113.343 54.4C114.17 54.4 114.77 54.6187 115.143 55.056C115.522 55.4933 115.711 56.1013 115.711 56.88V63H114.367V57.872C114.367 57.296 114.335 56.832 114.271 56.48C114.207 56.1227 114.074 55.864 113.871 55.704C113.668 55.5387 113.354 55.456 112.927 55.456C112.596 55.456 112.284 55.528 111.991 55.672C111.703 55.816 111.444 55.9973 111.215 56.216C110.991 56.4293 110.804 56.6453 110.655 56.864V63H109.311ZM125.593 62.576C125.305 62.768 124.956 62.9173 124.545 63.024C124.134 63.1307 123.732 63.184 123.337 63.184C122.43 63.184 121.732 62.9467 121.241 62.472C120.75 61.9973 120.505 61.3867 120.505 60.64V55.616H118.569V54.576H120.505V52.664L121.849 52.504V54.576H124.761L124.601 55.616H121.849V60.624C121.849 61.0933 121.972 61.4507 122.217 61.696C122.468 61.9413 122.881 62.064 123.457 62.064C123.772 62.064 124.062 62.0267 124.329 61.952C124.596 61.8773 124.844 61.7813 125.073 61.664L125.593 62.576ZM132.619 51.808C133.339 51.808 133.941 51.8987 134.427 52.08C134.912 52.2613 135.373 52.528 135.811 52.88L135.035 53.784C134.688 53.4907 134.32 53.2827 133.931 53.16C133.547 53.032 133.144 52.968 132.723 52.968C132.12 52.968 131.563 53.112 131.051 53.4C130.539 53.6827 130.125 54.1547 129.811 54.816C129.501 55.472 129.347 56.3627 129.347 57.488C129.347 58.5813 129.493 59.4587 129.787 60.12C130.085 60.7813 130.488 61.2587 130.995 61.552C131.501 61.8453 132.067 61.992 132.691 61.992C133.309 61.992 133.816 61.8987 134.211 61.712C134.611 61.5253 134.957 61.312 135.251 61.072L135.971 61.984C135.635 62.3093 135.197 62.592 134.659 62.832C134.12 63.0667 133.459 63.184 132.675 63.184C131.784 63.184 130.976 62.9653 130.251 62.528C129.531 62.0907 128.96 61.4507 128.539 60.608C128.117 59.76 127.907 58.72 127.907 57.488C127.907 56.2507 128.12 55.2107 128.547 54.368C128.979 53.5253 129.552 52.888 130.267 52.456C130.987 52.024 131.771 51.808 132.619 51.808ZM141.3 54.4C142.095 54.4 142.759 54.5813 143.292 54.944C143.831 55.3013 144.234 55.808 144.5 56.464C144.772 57.12 144.908 57.8933 144.908 58.784C144.908 59.6427 144.77 60.4027 144.492 61.064C144.215 61.7253 143.807 62.2453 143.268 62.624C142.735 62.9973 142.074 63.184 141.284 63.184C140.495 63.184 139.831 63.0027 139.292 62.64C138.754 62.2773 138.346 61.768 138.068 61.112C137.796 60.4507 137.66 59.68 137.66 58.8C137.66 57.9307 137.799 57.1653 138.076 56.504C138.354 55.8427 138.762 55.328 139.3 54.96C139.844 54.5867 140.511 54.4 141.3 54.4ZM141.3 55.496C140.575 55.496 140.026 55.7653 139.652 56.304C139.284 56.8373 139.1 57.6693 139.1 58.8C139.1 59.9093 139.282 60.7333 139.644 61.272C140.012 61.8107 140.559 62.08 141.284 62.08C142.01 62.08 142.554 61.8107 142.916 61.272C143.284 60.7333 143.468 59.904 143.468 58.784C143.468 57.664 143.287 56.8373 142.924 56.304C142.562 55.7653 142.02 55.496 141.3 55.496ZM147.686 63V54.576H148.83L148.934 55.744C149.275 55.312 149.702 54.9813 150.214 54.752C150.731 54.5173 151.233 54.4 151.718 54.4C152.545 54.4 153.145 54.6187 153.518 55.056C153.897 55.4933 154.086 56.1013 154.086 56.88V63H152.742V57.872C152.742 57.296 152.71 56.832 152.646 56.48C152.582 56.1227 152.449 55.864 152.246 55.704C152.043 55.5387 151.729 55.456 151.302 55.456C150.971 55.456 150.659 55.528 150.366 55.672C150.078 55.816 149.819 55.9973 149.59 56.216C149.366 56.4293 149.179 56.6453 149.03 56.864V63H147.686ZM162.256 51.016C162.709 51.016 163.12 51.056 163.488 51.136C163.856 51.216 164.205 51.328 164.536 51.472L164.104 52.472C163.832 52.3547 163.544 52.2667 163.24 52.208C162.936 52.1493 162.621 52.12 162.296 52.12C161.709 52.12 161.267 52.2347 160.968 52.464C160.675 52.6933 160.528 53.0453 160.528 53.52V55.232H163.384L163.24 56.288H160.528V63H159.184V56.288H157.176V55.232H159.184V53.552C159.184 53.0293 159.317 52.5787 159.584 52.2C159.856 51.8213 160.224 51.5307 160.688 51.328C161.152 51.12 161.675 51.016 162.256 51.016ZM171.138 55.232V61.936H173.514V63H167.194V61.936H169.794V56.288H167.274V55.232H171.138ZM170.066 51.216C170.364 51.216 170.602 51.3067 170.778 51.488C170.959 51.6693 171.05 51.8907 171.05 52.152C171.05 52.424 170.959 52.6533 170.778 52.84C170.602 53.0213 170.364 53.112 170.066 53.112C169.783 53.112 169.551 53.0213 169.37 52.84C169.188 52.6533 169.098 52.424 169.098 52.152C169.098 51.8907 169.188 51.6693 169.37 51.488C169.551 51.3067 169.783 51.216 170.066 51.216ZM183.315 53.68L183.731 54.944C183.374 55.056 182.993 55.1253 182.587 55.152C182.182 55.1787 181.742 55.192 181.267 55.192C181.753 55.416 182.118 55.7067 182.363 56.064C182.609 56.416 182.731 56.832 182.731 57.312C182.731 57.8667 182.606 58.36 182.355 58.792C182.105 59.224 181.742 59.5627 181.267 59.808C180.798 60.0533 180.23 60.176 179.563 60.176C179.281 60.176 179.043 60.1627 178.851 60.136C178.665 60.1093 178.483 60.0693 178.307 60.016C178.179 60.1013 178.073 60.2187 177.987 60.368C177.907 60.5173 177.867 60.672 177.867 60.832C177.867 61.0347 177.947 61.2027 178.107 61.336C178.267 61.4693 178.563 61.536 178.995 61.536H180.515C181.081 61.536 181.587 61.6373 182.035 61.84C182.489 62.0427 182.843 62.3147 183.099 62.656C183.361 62.9973 183.491 63.3867 183.491 63.824C183.491 64.6507 183.139 65.2853 182.435 65.728C181.737 66.1707 180.747 66.392 179.467 66.392C178.571 66.392 177.865 66.2987 177.347 66.112C176.83 65.9307 176.459 65.6507 176.235 65.272C176.017 64.8987 175.907 64.4267 175.907 63.856H177.123C177.123 64.1813 177.187 64.4507 177.315 64.664C177.443 64.8773 177.675 65.0347 178.011 65.136C178.347 65.2427 178.83 65.296 179.459 65.296C180.078 65.296 180.582 65.2427 180.971 65.136C181.366 65.0347 181.657 64.88 181.843 64.672C182.035 64.4693 182.131 64.216 182.131 63.912C182.131 63.512 181.95 63.2107 181.587 63.008C181.225 62.8053 180.771 62.704 180.227 62.704H178.723C177.998 62.704 177.462 62.544 177.115 62.224C176.774 61.904 176.603 61.536 176.603 61.12C176.603 60.848 176.681 60.584 176.835 60.328C176.995 60.072 177.227 59.8453 177.531 59.648C177.046 59.392 176.689 59.0747 176.459 58.696C176.23 58.3173 176.115 57.8587 176.115 57.32C176.115 56.7493 176.257 56.2453 176.539 55.808C176.822 55.3653 177.217 55.0187 177.723 54.768C178.23 54.5173 178.814 54.392 179.475 54.392C180.185 54.3867 180.761 54.3573 181.203 54.304C181.646 54.2453 182.025 54.1627 182.339 54.056C182.659 53.9493 182.985 53.824 183.315 53.68ZM179.475 55.376C178.798 55.376 178.297 55.56 177.971 55.928C177.651 56.2907 177.491 56.7547 177.491 57.32C177.491 57.8907 177.657 58.36 177.987 58.728C178.318 59.096 178.825 59.28 179.507 59.28C180.105 59.28 180.558 59.1067 180.867 58.76C181.182 58.4133 181.339 57.9307 181.339 57.312C181.339 56.6773 181.182 56.1973 180.867 55.872C180.558 55.5413 180.094 55.376 179.475 55.376ZM186.509 53.496L192.661 57.296V58.672L186.589 62.472L185.861 61.48L191.509 57.992L185.861 54.512L186.509 53.496Z" fill="#233D48"/>
</g>
<defs>
<clipPath id="clip0_1346_70112">
<path d="M0 8C0 3.58172 3.58172 0 8 0H216C220.418 0 224 3.58172 224 8V109C224 113.418 220.418 117 216 117H8C3.58172 117 0 113.418 0 109V8Z" fill="white"/>
</clipPath>
</defs>
</svg>
