<svg width="224" height="117" viewBox="0 0 224 117" fill="none" xmlns="http://www.w3.org/2000/svg">
<g clip-path="url(#clip0_4_6435)">
<g clip-path="url(#clip1_4_6435)">
<rect x="13.2519" y="8.25192" width="196.496" height="329.005" rx="0.755754" fill="white" stroke="#EDEDED" stroke-width="0.503836"/>
<g clip-path="url(#clip2_4_6435)">
<path d="M22.5158 49.4519L24.2564 54.3872H24.3251L26.0656 49.4519H26.8099L24.6572 55.3147H23.9243L21.7715 49.4519H22.5158ZM28.5161 55.4178C28.2374 55.4178 27.9846 55.3653 27.7575 55.2603C27.5304 55.1534 27.35 54.9998 27.2164 54.7994C27.0828 54.5971 27.016 54.3528 27.016 54.0666C27.016 53.8146 27.0656 53.6104 27.1649 53.4539C27.2641 53.2955 27.3968 53.1715 27.5628 53.0818C27.7288 52.9921 27.912 52.9253 28.1124 52.8814C28.3147 52.8356 28.518 52.7993 28.7222 52.7726C28.9894 52.7383 29.206 52.7125 29.372 52.6953C29.54 52.6762 29.6621 52.6447 29.7385 52.6009C29.8167 52.557 29.8558 52.4806 29.8558 52.3718V52.3489C29.8558 52.0665 29.7785 51.847 29.6239 51.6905C29.4713 51.534 29.2394 51.4558 28.9283 51.4558C28.6058 51.4558 28.3529 51.5264 28.1697 51.6676C27.9865 51.8088 27.8577 51.9596 27.7832 52.1199L27.142 51.8909C27.2565 51.6237 27.4092 51.4157 27.6 51.2668C27.7928 51.1161 28.0027 51.0111 28.2298 50.9519C28.4588 50.8909 28.684 50.8603 28.9054 50.8603C29.0466 50.8603 29.2089 50.8775 29.3921 50.9119C29.5772 50.9443 29.7556 51.012 29.9274 51.1151C30.1011 51.2182 30.2452 51.3737 30.3597 51.5817C30.4742 51.7898 30.5314 52.0684 30.5314 52.4176V55.3147H29.8558V54.7193H29.8215C29.7757 54.8147 29.6993 54.9168 29.5925 55.0256C29.4856 55.1343 29.3434 55.2269 29.1659 55.3032C28.9884 55.3796 28.7718 55.4178 28.5161 55.4178ZM28.6191 54.8109C28.8863 54.8109 29.1115 54.7584 29.2947 54.6534C29.4799 54.5484 29.6192 54.4129 29.7127 54.2469C29.8081 54.0809 29.8558 53.9062 29.8558 53.723V53.1047C29.8272 53.139 29.7642 53.1705 29.6669 53.1992C29.5715 53.2259 29.4608 53.2497 29.3348 53.2707C29.2108 53.2898 29.0896 53.307 28.9713 53.3223C28.8548 53.3356 28.7604 53.3471 28.6878 53.3566C28.5123 53.3795 28.3481 53.4167 28.1955 53.4683C28.0447 53.5179 27.9225 53.5933 27.829 53.6944C27.7374 53.7936 27.6916 53.9291 27.6916 54.1009C27.6916 54.3357 27.7785 54.5131 27.9521 54.6334C28.1277 54.7517 28.35 54.8109 28.6191 54.8109ZM32.4401 49.4519V55.3147H31.7645V49.4519H32.4401ZM36.4486 53.5169V50.9176H37.1242V55.3147H36.4486V54.5704H36.4028C36.2998 54.7937 36.1395 54.9836 35.9219 55.1401C35.7043 55.2947 35.4295 55.372 35.0974 55.372C34.8226 55.372 34.5783 55.3118 34.3646 55.1916C34.1508 55.0695 33.9829 54.8862 33.8608 54.642C33.7386 54.3958 33.6775 54.0856 33.6775 53.7116V50.9176H34.3531V53.6658C34.3531 53.9864 34.4428 54.2421 34.6222 54.433C34.8035 54.6238 35.0345 54.7193 35.315 54.7193C35.483 54.7193 35.6538 54.6763 35.8274 54.5904C36.003 54.5046 36.15 54.3729 36.2683 54.1954C36.3885 54.0179 36.4486 53.7917 36.4486 53.5169ZM40.2052 55.4063C39.7815 55.4063 39.4161 55.3128 39.1088 55.1258C38.8035 54.9368 38.5678 54.6735 38.4017 54.3357C38.2376 53.9959 38.1555 53.6009 38.1555 53.1505C38.1555 52.7001 38.2376 52.3031 38.4017 51.9596C38.5678 51.6142 38.7987 51.3451 39.0945 51.1523C39.3922 50.9577 39.7396 50.8603 40.1365 50.8603C40.3655 50.8603 40.5917 50.8985 40.815 50.9748C41.0383 51.0512 41.2415 51.1752 41.4247 51.347C41.608 51.5168 41.754 51.742 41.8627 52.0226C41.9715 52.3031 42.0259 52.6486 42.0259 53.0589V53.3452H38.6365V52.7612H41.3389C41.3389 52.5131 41.2892 52.2917 41.19 52.097C41.0927 51.9024 40.9533 51.7487 40.772 51.6361C40.5926 51.5235 40.3808 51.4672 40.1365 51.4672C39.8674 51.4672 39.6346 51.534 39.438 51.6676C39.2434 51.7993 39.0935 51.9711 38.9886 52.1829C38.8836 52.3947 38.8311 52.6218 38.8311 52.8642V53.2535C38.8311 53.5856 38.8884 53.8671 39.0029 54.098C39.1193 54.3271 39.2806 54.5017 39.4867 54.6219C39.6928 54.7402 39.9323 54.7994 40.2052 54.7994C40.3827 54.7994 40.543 54.7746 40.6862 54.725C40.8312 54.6735 40.9562 54.5971 41.0612 54.496C41.1661 54.3929 41.2473 54.265 41.3045 54.1124L41.9572 54.2956C41.8885 54.517 41.773 54.7116 41.6108 54.8796C41.4486 55.0456 41.2482 55.1754 41.0096 55.2689C40.7711 55.3605 40.5029 55.4063 40.2052 55.4063Z" fill="#012939"/>
<line x1="13.5039" y1="67.2008" x2="60.9643" y2="67.2008" stroke="#E1E1E1" stroke-width="0.503836"/>
<path d="M78.5874 49.4519L80.3279 54.3872H80.3966L82.1372 49.4519H82.8815L80.7287 55.3147H79.9959L77.8431 49.4519H78.5874ZM84.5876 55.4178C84.309 55.4178 84.0561 55.3653 83.829 55.2603C83.6019 55.1534 83.4216 54.9998 83.288 54.7994C83.1544 54.5971 83.0876 54.3528 83.0876 54.0666C83.0876 53.8146 83.1372 53.6104 83.2364 53.4539C83.3357 53.2955 83.4683 53.1715 83.6344 53.0818C83.8004 52.9921 83.9836 52.9253 84.184 52.8814C84.3863 52.8356 84.5895 52.7993 84.7938 52.7726C85.0609 52.7383 85.2776 52.7125 85.4436 52.6953C85.6115 52.6762 85.7337 52.6447 85.81 52.6009C85.8883 52.557 85.9274 52.4806 85.9274 52.3718V52.3489C85.9274 52.0665 85.8501 51.847 85.6955 51.6905C85.5428 51.534 85.3109 51.4558 84.9999 51.4558C84.6773 51.4558 84.4245 51.5264 84.2413 51.6676C84.058 51.8088 83.9292 51.9596 83.8548 52.1199L83.2135 51.8909C83.328 51.6237 83.4807 51.4157 83.6716 51.2668C83.8643 51.1161 84.0743 51.0111 84.3014 50.9519C84.5304 50.8909 84.7556 50.8603 84.977 50.8603C85.1182 50.8603 85.2804 50.8775 85.4636 50.9119C85.6487 50.9443 85.8272 51.012 85.999 51.1151C86.1726 51.2182 86.3167 51.3737 86.4312 51.5817C86.5457 51.7898 86.603 52.0684 86.603 52.4176V55.3147H85.9274V54.7193H85.893C85.8472 54.8147 85.7709 54.9168 85.664 55.0256C85.5571 55.1343 85.415 55.2269 85.2375 55.3032C85.06 55.3796 84.8434 55.4178 84.5876 55.4178ZM84.6907 54.8109C84.9579 54.8109 85.1831 54.7584 85.3663 54.6534C85.5514 54.5484 85.6907 54.4129 85.7842 54.2469C85.8797 54.0809 85.9274 53.9062 85.9274 53.723V53.1047C85.8988 53.139 85.8358 53.1705 85.7384 53.1992C85.643 53.2259 85.5323 53.2497 85.4064 53.2707C85.2823 53.2898 85.1611 53.307 85.0428 53.3223C84.9264 53.3356 84.8319 53.3471 84.7594 53.3566C84.5838 53.3795 84.4197 53.4167 84.267 53.4683C84.1162 53.5179 83.9941 53.5933 83.9006 53.6944C83.809 53.7936 83.7632 53.9291 83.7632 54.1009C83.7632 54.3357 83.85 54.5131 84.0237 54.6334C84.1993 54.7517 84.4216 54.8109 84.6907 54.8109ZM88.5117 49.4519V55.3147H87.8361V49.4519H88.5117ZM92.5202 53.5169V50.9176H93.1958V55.3147H92.5202V54.5704H92.4744C92.3713 54.7937 92.211 54.9836 91.9935 55.1401C91.7759 55.2947 91.5011 55.372 91.169 55.372C90.8942 55.372 90.6499 55.3118 90.4361 55.1916C90.2224 55.0695 90.0545 54.8862 89.9323 54.642C89.8102 54.3958 89.7491 54.0856 89.7491 53.7116V50.9176H90.4247V53.6658C90.4247 53.9864 90.5144 54.2421 90.6938 54.433C90.8751 54.6238 91.106 54.7193 91.3866 54.7193C91.5545 54.7193 91.7253 54.6763 91.899 54.5904C92.0746 54.5046 92.2215 54.3729 92.3398 54.1954C92.4601 54.0179 92.5202 53.7917 92.5202 53.5169ZM96.2768 55.4063C95.8531 55.4063 95.4876 55.3128 95.1804 55.1258C94.875 54.9368 94.6393 54.6735 94.4733 54.3357C94.3091 53.9959 94.2271 53.6009 94.2271 53.1505C94.2271 52.7001 94.3091 52.3031 94.4733 51.9596C94.6393 51.6142 94.8702 51.3451 95.1661 51.1523C95.4638 50.9577 95.8111 50.8603 96.2081 50.8603C96.4371 50.8603 96.6632 50.8985 96.8865 50.9748C97.1098 51.0512 97.3131 51.1752 97.4963 51.347C97.6795 51.5168 97.8255 51.742 97.9343 52.0226C98.0431 52.3031 98.0975 52.6486 98.0975 53.0589V53.3452H94.708V52.7612H97.4104C97.4104 52.5131 97.3608 52.2917 97.2616 52.097C97.1642 51.9024 97.0249 51.7487 96.8436 51.6361C96.6642 51.5235 96.4524 51.4672 96.2081 51.4672C95.939 51.4672 95.7062 51.534 95.5096 51.6676C95.3149 51.7993 95.1651 51.9711 95.0601 52.1829C94.9552 52.3947 94.9027 52.6218 94.9027 52.8642V53.2535C94.9027 53.5856 94.9599 53.8671 95.0744 54.098C95.1909 54.3271 95.3521 54.5017 95.5582 54.6219C95.7644 54.7402 96.0039 54.7994 96.2768 54.7994C96.4543 54.7994 96.6146 54.7746 96.7577 54.725C96.9028 54.6735 97.0278 54.5971 97.1327 54.496C97.2377 54.3929 97.3188 54.265 97.3761 54.1124L98.0288 54.2956C97.9601 54.517 97.8446 54.7116 97.6824 54.8796C97.5202 55.0456 97.3198 55.1754 97.0812 55.2689C96.8426 55.3605 96.5745 55.4063 96.2768 55.4063Z" fill="#012939"/>
<line x1="60.3608" y1="67.2008" x2="115.783" y2="67.2008" stroke="#E1E1E1" stroke-width="0.503836"/>
<path d="M120.764 49.4519L122.504 54.3872H122.573L124.314 49.4519H125.058L122.905 55.3147H122.172L120.02 49.4519H120.764ZM126.764 55.4178C126.485 55.4178 126.233 55.3653 126.006 55.2603C125.778 55.1534 125.598 54.9998 125.464 54.7994C125.331 54.5971 125.264 54.3528 125.264 54.0666C125.264 53.8146 125.314 53.6104 125.413 53.4539C125.512 53.2955 125.645 53.1715 125.811 53.0818C125.977 52.9921 126.16 52.9253 126.36 52.8814C126.563 52.8356 126.766 52.7993 126.97 52.7726C127.237 52.7383 127.454 52.7125 127.62 52.6953C127.788 52.6762 127.91 52.6447 127.987 52.6009C128.065 52.557 128.104 52.4806 128.104 52.3718V52.3489C128.104 52.0665 128.027 51.847 127.872 51.6905C127.719 51.534 127.487 51.4558 127.176 51.4558C126.854 51.4558 126.601 51.5264 126.418 51.6676C126.235 51.8088 126.106 51.9596 126.031 52.1199L125.39 51.8909C125.505 51.6237 125.657 51.4157 125.848 51.2668C126.041 51.1161 126.251 51.0111 126.478 50.9519C126.707 50.8909 126.932 50.8603 127.153 50.8603C127.295 50.8603 127.457 50.8775 127.64 50.9119C127.825 50.9443 128.004 51.012 128.175 51.1151C128.349 51.2182 128.493 51.3737 128.608 51.5817C128.722 51.7898 128.779 52.0684 128.779 52.4176V55.3147H128.104V54.7193H128.07C128.024 54.8147 127.947 54.9168 127.841 55.0256C127.734 55.1343 127.591 55.2269 127.414 55.3032C127.236 55.3796 127.02 55.4178 126.764 55.4178ZM126.867 54.8109C127.134 54.8109 127.36 54.7584 127.543 54.6534C127.728 54.5484 127.867 54.4129 127.961 54.2469C128.056 54.0809 128.104 53.9062 128.104 53.723V53.1047C128.075 53.139 128.012 53.1705 127.915 53.1992C127.82 53.2259 127.709 53.2497 127.583 53.2707C127.459 53.2898 127.338 53.307 127.219 53.3223C127.103 53.3356 127.008 53.3471 126.936 53.3566C126.76 53.3795 126.596 53.4167 126.444 53.4683C126.293 53.5179 126.171 53.5933 126.077 53.6944C125.985 53.7936 125.94 53.9291 125.94 54.1009C125.94 54.3357 126.027 54.5131 126.2 54.6334C126.376 54.7517 126.598 54.8109 126.867 54.8109ZM130.688 49.4519V55.3147H130.013V49.4519H130.688ZM134.697 53.5169V50.9176H135.372V55.3147H134.697V54.5704H134.651C134.548 54.7937 134.388 54.9836 134.17 55.1401C133.952 55.2947 133.678 55.372 133.345 55.372C133.071 55.372 132.826 55.3118 132.613 55.1916C132.399 55.0695 132.231 54.8862 132.109 54.642C131.987 54.3958 131.926 54.0856 131.926 53.7116V50.9176H132.601V53.6658C132.601 53.9864 132.691 54.2421 132.87 54.433C133.052 54.6238 133.283 54.7193 133.563 54.7193C133.731 54.7193 133.902 54.6763 134.075 54.5904C134.251 54.5046 134.398 54.3729 134.516 54.1954C134.637 54.0179 134.697 53.7917 134.697 53.5169ZM138.453 55.4063C138.03 55.4063 137.664 55.3128 137.357 55.1258C137.052 54.9368 136.816 54.6735 136.65 54.3357C136.486 53.9959 136.404 53.6009 136.404 53.1505C136.404 52.7001 136.486 52.3031 136.65 51.9596C136.816 51.6142 137.047 51.3451 137.343 51.1523C137.64 50.9577 137.988 50.8603 138.385 50.8603C138.614 50.8603 138.84 50.8985 139.063 50.9748C139.286 51.0512 139.49 51.1752 139.673 51.347C139.856 51.5168 140.002 51.742 140.111 52.0226C140.22 52.3031 140.274 52.6486 140.274 53.0589V53.3452H136.885V52.7612H139.587C139.587 52.5131 139.537 52.2917 139.438 52.097C139.341 51.9024 139.201 51.7487 139.02 51.6361C138.841 51.5235 138.629 51.4672 138.385 51.4672C138.115 51.4672 137.883 51.534 137.686 51.6676C137.491 51.7993 137.342 51.9711 137.237 52.1829C137.132 52.3947 137.079 52.6218 137.079 52.8642V53.2535C137.079 53.5856 137.136 53.8671 137.251 54.098C137.367 54.3271 137.529 54.5017 137.735 54.6219C137.941 54.7402 138.18 54.7994 138.453 54.7994C138.631 54.7994 138.791 54.7746 138.934 54.725C139.079 54.6735 139.204 54.5971 139.309 54.496C139.414 54.3929 139.495 54.265 139.553 54.1124L140.205 54.2956C140.137 54.517 140.021 54.7116 139.859 54.8796C139.697 55.0456 139.496 55.1754 139.258 55.2689C139.019 55.3605 138.751 55.4063 138.453 55.4063Z" fill="#012939"/>
<line x1="115.783" y1="67.2008" x2="163.243" y2="67.2008" stroke="#E1E1E1" stroke-width="0.503836"/>
<path d="M186.15 49.4519L187.89 54.3872H187.959L189.7 49.4519H190.444L188.291 55.3147H187.558L185.406 49.4519H186.15ZM192.15 55.4178C191.872 55.4178 191.619 55.3653 191.392 55.2603C191.164 55.1534 190.984 54.9998 190.851 54.7994C190.717 54.5971 190.65 54.3528 190.65 54.0666C190.65 53.8146 190.7 53.6104 190.799 53.4539C190.898 53.2955 191.031 53.1715 191.197 53.0818C191.363 52.9921 191.546 52.9253 191.747 52.8814C191.949 52.8356 192.152 52.7993 192.356 52.7726C192.623 52.7383 192.84 52.7125 193.006 52.6953C193.174 52.6762 193.296 52.6447 193.373 52.6009C193.451 52.557 193.49 52.4806 193.49 52.3718V52.3489C193.49 52.0665 193.413 51.847 193.258 51.6905C193.105 51.534 192.874 51.4558 192.562 51.4558C192.24 51.4558 191.987 51.5264 191.804 51.6676C191.621 51.8088 191.492 51.9596 191.417 52.1199L190.776 51.8909C190.891 51.6237 191.043 51.4157 191.234 51.2668C191.427 51.1161 191.637 51.0111 191.864 50.9519C192.093 50.8909 192.318 50.8603 192.54 50.8603C192.681 50.8603 192.843 50.8775 193.026 50.9119C193.211 50.9443 193.39 51.012 193.562 51.1151C193.735 51.2182 193.879 51.3737 193.994 51.5817C194.108 51.7898 194.166 52.0684 194.166 52.4176V55.3147H193.49V54.7193H193.456C193.41 54.8147 193.333 54.9168 193.227 55.0256C193.12 55.1343 192.978 55.2269 192.8 55.3032C192.623 55.3796 192.406 55.4178 192.15 55.4178ZM192.253 54.8109C192.52 54.8109 192.746 54.7584 192.929 54.6534C193.114 54.5484 193.253 54.4129 193.347 54.2469C193.442 54.0809 193.49 53.9062 193.49 53.723V53.1047C193.461 53.139 193.398 53.1705 193.301 53.1992C193.206 53.2259 193.095 53.2497 192.969 53.2707C192.845 53.2898 192.724 53.307 192.605 53.3223C192.489 53.3356 192.394 53.3471 192.322 53.3566C192.146 53.3795 191.982 53.4167 191.83 53.4683C191.679 53.5179 191.557 53.5933 191.463 53.6944C191.372 53.7936 191.326 53.9291 191.326 54.1009C191.326 54.3357 191.413 54.5131 191.586 54.6334C191.762 54.7517 191.984 54.8109 192.253 54.8109ZM196.074 49.4519V55.3147H195.399V49.4519H196.074ZM200.083 53.5169V50.9176H200.758V55.3147H200.083V54.5704H200.037C199.934 54.7937 199.774 54.9836 199.556 55.1401C199.338 55.2947 199.064 55.372 198.732 55.372C198.457 55.372 198.212 55.3118 197.999 55.1916C197.785 55.0695 197.617 54.8862 197.495 54.642C197.373 54.3958 197.312 54.0856 197.312 53.7116V50.9176H197.987V53.6658C197.987 53.9864 198.077 54.2421 198.256 54.433C198.438 54.6238 198.669 54.7193 198.949 54.7193C199.117 54.7193 199.288 54.6763 199.462 54.5904C199.637 54.5046 199.784 54.3729 199.902 54.1954C200.023 54.0179 200.083 53.7917 200.083 53.5169ZM203.839 55.4063C203.416 55.4063 203.05 55.3128 202.743 55.1258C202.438 54.9368 202.202 54.6735 202.036 54.3357C201.872 53.9959 201.79 53.6009 201.79 53.1505C201.79 52.7001 201.872 52.3031 202.036 51.9596C202.202 51.6142 202.433 51.3451 202.729 51.1523C203.026 50.9577 203.374 50.8603 203.771 50.8603C204 50.8603 204.226 50.8985 204.449 50.9748C204.672 51.0512 204.876 51.1752 205.059 51.347C205.242 51.5168 205.388 51.742 205.497 52.0226C205.606 52.3031 205.66 52.6486 205.66 53.0589V53.3452H202.271V52.7612H204.973C204.973 52.5131 204.923 52.2917 204.824 52.097C204.727 51.9024 204.587 51.7487 204.406 51.6361C204.227 51.5235 204.015 51.4672 203.771 51.4672C203.502 51.4672 203.269 51.534 203.072 51.6676C202.877 51.7993 202.728 51.9711 202.623 52.1829C202.518 52.3947 202.465 52.6218 202.465 52.8642V53.2535C202.465 53.5856 202.522 53.8671 202.637 54.098C202.753 54.3271 202.915 54.5017 203.121 54.6219C203.327 54.7402 203.566 54.7994 203.839 54.7994C204.017 54.7994 204.177 54.7746 204.32 54.725C204.465 54.6735 204.59 54.5971 204.695 54.496C204.8 54.3929 204.881 54.265 204.939 54.1124L205.591 54.2956C205.523 54.517 205.407 54.7116 205.245 54.8796C205.083 55.0456 204.882 55.1754 204.644 55.2689C204.405 55.3605 204.137 55.4063 203.839 55.4063Z" fill="#012939"/>
<line x1="162.64" y1="67.2008" x2="210.1" y2="67.2008" stroke="#E1E1E1" stroke-width="0.503836"/>
<path d="M22.5158 79.1782L24.2564 84.1135H24.3251L26.0656 79.1782H26.8099L24.6572 85.041H23.9243L21.7715 79.1782H22.5158ZM28.5161 85.1441C28.2374 85.1441 27.9846 85.0916 27.7575 84.9866C27.5304 84.8797 27.35 84.7261 27.2164 84.5257C27.0828 84.3234 27.016 84.0791 27.016 83.7929C27.016 83.541 27.0656 83.3368 27.1649 83.1803C27.2641 83.0219 27.3968 82.8978 27.5628 82.8081C27.7288 82.7184 27.912 82.6516 28.1124 82.6077C28.3147 82.5619 28.518 82.5257 28.7222 82.4989C28.9894 82.4646 29.206 82.4388 29.372 82.4216C29.54 82.4026 29.6621 82.3711 29.7385 82.3272C29.8167 82.2833 29.8558 82.2069 29.8558 82.0982V82.0753C29.8558 81.7928 29.7785 81.5733 29.6239 81.4168C29.4713 81.2603 29.2394 81.1821 28.9283 81.1821C28.6058 81.1821 28.3529 81.2527 28.1697 81.3939C27.9865 81.5352 27.8577 81.6859 27.7832 81.8462L27.142 81.6172C27.2565 81.35 27.4092 81.142 27.6 80.9931C27.7928 80.8424 28.0027 80.7374 28.2298 80.6783C28.4588 80.6172 28.684 80.5866 28.9054 80.5866C29.0466 80.5866 29.2089 80.6038 29.3921 80.6382C29.5772 80.6706 29.7556 80.7384 29.9274 80.8414C30.1011 80.9445 30.2452 81.1 30.3597 81.308C30.4742 81.5161 30.5314 81.7947 30.5314 82.144V85.041H29.8558V84.4456H29.8215C29.7757 84.541 29.6993 84.6431 29.5925 84.7519C29.4856 84.8607 29.3434 84.9532 29.1659 85.0296C28.9884 85.1059 28.7718 85.1441 28.5161 85.1441ZM28.6191 84.5372C28.8863 84.5372 29.1115 84.4847 29.2947 84.3797C29.4799 84.2748 29.6192 84.1393 29.7127 83.9732C29.8081 83.8072 29.8558 83.6326 29.8558 83.4494V82.831C29.8272 82.8654 29.7642 82.8968 29.6669 82.9255C29.5715 82.9522 29.4608 82.976 29.3348 82.997C29.2108 83.0161 29.0896 83.0333 28.9713 83.0486C28.8548 83.0619 28.7604 83.0734 28.6878 83.0829C28.5123 83.1058 28.3481 83.143 28.1955 83.1946C28.0447 83.2442 27.9225 83.3196 27.829 83.4207C27.7374 83.52 27.6916 83.6555 27.6916 83.8272C27.6916 84.062 27.7785 84.2395 27.9521 84.3597C28.1277 84.478 28.35 84.5372 28.6191 84.5372ZM32.4401 79.1782V85.041H31.7645V79.1782H32.4401ZM36.4486 83.2432V80.6439H37.1242V85.041H36.4486V84.2967H36.4028C36.2998 84.52 36.1395 84.7099 35.9219 84.8664C35.7043 85.021 35.4295 85.0983 35.0974 85.0983C34.8226 85.0983 34.5783 85.0382 34.3646 84.9179C34.1508 84.7958 33.9829 84.6126 33.8608 84.3683C33.7386 84.1221 33.6775 83.812 33.6775 83.4379V80.6439H34.3531V83.3921C34.3531 83.7127 34.4428 83.9685 34.6222 84.1593C34.8035 84.3501 35.0345 84.4456 35.315 84.4456C35.483 84.4456 35.6538 84.4026 35.8274 84.3168C36.003 84.2309 36.15 84.0992 36.2683 83.9217C36.3885 83.7442 36.4486 83.5181 36.4486 83.2432ZM40.2052 85.1326C39.7815 85.1326 39.4161 85.0391 39.1088 84.8521C38.8035 84.6631 38.5678 84.3998 38.4017 84.062C38.2376 83.7223 38.1555 83.3272 38.1555 82.8768C38.1555 82.4264 38.2376 82.0294 38.4017 81.6859C38.5678 81.3405 38.7987 81.0714 39.0945 80.8786C39.3922 80.684 39.7396 80.5866 40.1365 80.5866C40.3655 80.5866 40.5917 80.6248 40.815 80.7012C41.0383 80.7775 41.2415 80.9015 41.4247 81.0733C41.608 81.2432 41.754 81.4684 41.8627 81.7489C41.9715 82.0294 42.0259 82.3749 42.0259 82.7852V83.0715H38.6365V82.4875H41.3389C41.3389 82.2394 41.2892 82.018 41.19 81.8233C41.0927 81.6287 40.9533 81.475 40.772 81.3624C40.5926 81.2498 40.3808 81.1935 40.1365 81.1935C39.8674 81.1935 39.6346 81.2603 39.438 81.3939C39.2434 81.5256 39.0935 81.6974 38.9886 81.9092C38.8836 82.1211 38.8311 82.3482 38.8311 82.5905V82.9799C38.8311 83.3119 38.8884 83.5934 39.0029 83.8244C39.1193 84.0534 39.2806 84.228 39.4867 84.3482C39.6928 84.4666 39.9323 84.5257 40.2052 84.5257C40.3827 84.5257 40.543 84.5009 40.6862 84.4513C40.8312 84.3998 40.9562 84.3234 41.0612 84.2223C41.1661 84.1192 41.2473 83.9914 41.3045 83.8387L41.9572 84.0219C41.8885 84.2433 41.773 84.4379 41.6108 84.6059C41.4486 84.7719 41.2482 84.9017 41.0096 84.9952C40.7711 85.0868 40.5029 85.1326 40.2052 85.1326Z" fill="#012939"/>
<line x1="13.5039" y1="96.9272" x2="60.9643" y2="96.9272" stroke="#E1E1E1" stroke-width="0.503836"/>
<path d="M78.5874 79.1782L80.3279 84.1135H80.3966L82.1372 79.1782H82.8815L80.7287 85.041H79.9959L77.8431 79.1782H78.5874ZM84.5876 85.1441C84.309 85.1441 84.0561 85.0916 83.829 84.9866C83.6019 84.8797 83.4216 84.7261 83.288 84.5257C83.1544 84.3234 83.0876 84.0791 83.0876 83.7929C83.0876 83.541 83.1372 83.3368 83.2364 83.1803C83.3357 83.0219 83.4683 82.8978 83.6344 82.8081C83.8004 82.7184 83.9836 82.6516 84.184 82.6077C84.3863 82.5619 84.5895 82.5257 84.7938 82.4989C85.0609 82.4646 85.2776 82.4388 85.4436 82.4216C85.6115 82.4026 85.7337 82.3711 85.81 82.3272C85.8883 82.2833 85.9274 82.2069 85.9274 82.0982V82.0753C85.9274 81.7928 85.8501 81.5733 85.6955 81.4168C85.5428 81.2603 85.3109 81.1821 84.9999 81.1821C84.6773 81.1821 84.4245 81.2527 84.2413 81.3939C84.058 81.5352 83.9292 81.6859 83.8548 81.8462L83.2135 81.6172C83.328 81.35 83.4807 81.142 83.6716 80.9931C83.8643 80.8424 84.0743 80.7374 84.3014 80.6783C84.5304 80.6172 84.7556 80.5866 84.977 80.5866C85.1182 80.5866 85.2804 80.6038 85.4636 80.6382C85.6487 80.6706 85.8272 80.7384 85.999 80.8414C86.1726 80.9445 86.3167 81.1 86.4312 81.308C86.5457 81.5161 86.603 81.7947 86.603 82.144V85.041H85.9274V84.4456H85.893C85.8472 84.541 85.7709 84.6431 85.664 84.7519C85.5571 84.8607 85.415 84.9532 85.2375 85.0296C85.06 85.1059 84.8434 85.1441 84.5876 85.1441ZM84.6907 84.5372C84.9579 84.5372 85.1831 84.4847 85.3663 84.3797C85.5514 84.2748 85.6907 84.1393 85.7842 83.9732C85.8797 83.8072 85.9274 83.6326 85.9274 83.4494V82.831C85.8988 82.8654 85.8358 82.8968 85.7384 82.9255C85.643 82.9522 85.5323 82.976 85.4064 82.997C85.2823 83.0161 85.1611 83.0333 85.0428 83.0486C84.9264 83.0619 84.8319 83.0734 84.7594 83.0829C84.5838 83.1058 84.4197 83.143 84.267 83.1946C84.1162 83.2442 83.9941 83.3196 83.9006 83.4207C83.809 83.52 83.7632 83.6555 83.7632 83.8272C83.7632 84.062 83.85 84.2395 84.0237 84.3597C84.1993 84.478 84.4216 84.5372 84.6907 84.5372ZM88.5117 79.1782V85.041H87.8361V79.1782H88.5117ZM92.5202 83.2432V80.6439H93.1958V85.041H92.5202V84.2967H92.4744C92.3713 84.52 92.211 84.7099 91.9935 84.8664C91.7759 85.021 91.5011 85.0983 91.169 85.0983C90.8942 85.0983 90.6499 85.0382 90.4361 84.9179C90.2224 84.7958 90.0545 84.6126 89.9323 84.3683C89.8102 84.1221 89.7491 83.812 89.7491 83.4379V80.6439H90.4247V83.3921C90.4247 83.7127 90.5144 83.9685 90.6938 84.1593C90.8751 84.3501 91.106 84.4456 91.3866 84.4456C91.5545 84.4456 91.7253 84.4026 91.899 84.3168C92.0746 84.2309 92.2215 84.0992 92.3398 83.9217C92.4601 83.7442 92.5202 83.5181 92.5202 83.2432ZM96.2768 85.1326C95.8531 85.1326 95.4876 85.0391 95.1804 84.8521C94.875 84.6631 94.6393 84.3998 94.4733 84.062C94.3091 83.7223 94.2271 83.3272 94.2271 82.8768C94.2271 82.4264 94.3091 82.0294 94.4733 81.6859C94.6393 81.3405 94.8702 81.0714 95.1661 80.8786C95.4638 80.684 95.8111 80.5866 96.2081 80.5866C96.4371 80.5866 96.6632 80.6248 96.8865 80.7012C97.1098 80.7775 97.3131 80.9015 97.4963 81.0733C97.6795 81.2432 97.8255 81.4684 97.9343 81.7489C98.0431 82.0294 98.0975 82.3749 98.0975 82.7852V83.0715H94.708V82.4875H97.4104C97.4104 82.2394 97.3608 82.018 97.2616 81.8233C97.1642 81.6287 97.0249 81.475 96.8436 81.3624C96.6642 81.2498 96.4524 81.1935 96.2081 81.1935C95.939 81.1935 95.7062 81.2603 95.5096 81.3939C95.3149 81.5256 95.1651 81.6974 95.0601 81.9092C94.9552 82.1211 94.9027 82.3482 94.9027 82.5905V82.9799C94.9027 83.3119 94.9599 83.5934 95.0744 83.8244C95.1909 84.0534 95.3521 84.228 95.5582 84.3482C95.7644 84.4666 96.0039 84.5257 96.2768 84.5257C96.4543 84.5257 96.6146 84.5009 96.7577 84.4513C96.9028 84.3998 97.0278 84.3234 97.1327 84.2223C97.2377 84.1192 97.3188 83.9914 97.3761 83.8387L98.0288 84.0219C97.9601 84.2433 97.8446 84.4379 97.6824 84.6059C97.5202 84.7719 97.3198 84.9017 97.0812 84.9952C96.8426 85.0868 96.5745 85.1326 96.2768 85.1326Z" fill="#012939"/>
<line x1="60.3608" y1="96.9272" x2="115.783" y2="96.9272" stroke="#E1E1E1" stroke-width="0.503836"/>
<path d="M120.764 79.1782L122.504 84.1135H122.573L124.314 79.1782H125.058L122.905 85.041H122.172L120.02 79.1782H120.764ZM126.764 85.1441C126.485 85.1441 126.233 85.0916 126.006 84.9866C125.778 84.8797 125.598 84.7261 125.464 84.5257C125.331 84.3234 125.264 84.0791 125.264 83.7929C125.264 83.541 125.314 83.3368 125.413 83.1803C125.512 83.0219 125.645 82.8978 125.811 82.8081C125.977 82.7184 126.16 82.6516 126.36 82.6077C126.563 82.5619 126.766 82.5257 126.97 82.4989C127.237 82.4646 127.454 82.4388 127.62 82.4216C127.788 82.4026 127.91 82.3711 127.987 82.3272C128.065 82.2833 128.104 82.2069 128.104 82.0982V82.0753C128.104 81.7928 128.027 81.5733 127.872 81.4168C127.719 81.2603 127.487 81.1821 127.176 81.1821C126.854 81.1821 126.601 81.2527 126.418 81.3939C126.235 81.5352 126.106 81.6859 126.031 81.8462L125.39 81.6172C125.505 81.35 125.657 81.142 125.848 80.9931C126.041 80.8424 126.251 80.7374 126.478 80.6783C126.707 80.6172 126.932 80.5866 127.153 80.5866C127.295 80.5866 127.457 80.6038 127.64 80.6382C127.825 80.6706 128.004 80.7384 128.175 80.8414C128.349 80.9445 128.493 81.1 128.608 81.308C128.722 81.5161 128.779 81.7947 128.779 82.144V85.041H128.104V84.4456H128.07C128.024 84.541 127.947 84.6431 127.841 84.7519C127.734 84.8607 127.591 84.9532 127.414 85.0296C127.236 85.1059 127.02 85.1441 126.764 85.1441ZM126.867 84.5372C127.134 84.5372 127.36 84.4847 127.543 84.3797C127.728 84.2748 127.867 84.1393 127.961 83.9732C128.056 83.8072 128.104 83.6326 128.104 83.4494V82.831C128.075 82.8654 128.012 82.8968 127.915 82.9255C127.82 82.9522 127.709 82.976 127.583 82.997C127.459 83.0161 127.338 83.0333 127.219 83.0486C127.103 83.0619 127.008 83.0734 126.936 83.0829C126.76 83.1058 126.596 83.143 126.444 83.1946C126.293 83.2442 126.171 83.3196 126.077 83.4207C125.985 83.52 125.94 83.6555 125.94 83.8272C125.94 84.062 126.027 84.2395 126.2 84.3597C126.376 84.478 126.598 84.5372 126.867 84.5372ZM130.688 79.1782V85.041H130.013V79.1782H130.688ZM134.697 83.2432V80.6439H135.372V85.041H134.697V84.2967H134.651C134.548 84.52 134.388 84.7099 134.17 84.8664C133.952 85.021 133.678 85.0983 133.345 85.0983C133.071 85.0983 132.826 85.0382 132.613 84.9179C132.399 84.7958 132.231 84.6126 132.109 84.3683C131.987 84.1221 131.926 83.812 131.926 83.4379V80.6439H132.601V83.3921C132.601 83.7127 132.691 83.9685 132.87 84.1593C133.052 84.3501 133.283 84.4456 133.563 84.4456C133.731 84.4456 133.902 84.4026 134.075 84.3168C134.251 84.2309 134.398 84.0992 134.516 83.9217C134.637 83.7442 134.697 83.5181 134.697 83.2432ZM138.453 85.1326C138.03 85.1326 137.664 85.0391 137.357 84.8521C137.052 84.6631 136.816 84.3998 136.65 84.062C136.486 83.7223 136.404 83.3272 136.404 82.8768C136.404 82.4264 136.486 82.0294 136.65 81.6859C136.816 81.3405 137.047 81.0714 137.343 80.8786C137.64 80.684 137.988 80.5866 138.385 80.5866C138.614 80.5866 138.84 80.6248 139.063 80.7012C139.286 80.7775 139.49 80.9015 139.673 81.0733C139.856 81.2432 140.002 81.4684 140.111 81.7489C140.22 82.0294 140.274 82.3749 140.274 82.7852V83.0715H136.885V82.4875H139.587C139.587 82.2394 139.537 82.018 139.438 81.8233C139.341 81.6287 139.201 81.475 139.02 81.3624C138.841 81.2498 138.629 81.1935 138.385 81.1935C138.115 81.1935 137.883 81.2603 137.686 81.3939C137.491 81.5256 137.342 81.6974 137.237 81.9092C137.132 82.1211 137.079 82.3482 137.079 82.5905V82.9799C137.079 83.3119 137.136 83.5934 137.251 83.8244C137.367 84.0534 137.529 84.228 137.735 84.3482C137.941 84.4666 138.18 84.5257 138.453 84.5257C138.631 84.5257 138.791 84.5009 138.934 84.4513C139.079 84.3998 139.204 84.3234 139.309 84.2223C139.414 84.1192 139.495 83.9914 139.553 83.8387L140.205 84.0219C140.137 84.2433 140.021 84.4379 139.859 84.6059C139.697 84.7719 139.496 84.9017 139.258 84.9952C139.019 85.0868 138.751 85.1326 138.453 85.1326Z" fill="#012939"/>
<line x1="115.783" y1="96.9272" x2="163.243" y2="96.9272" stroke="#E1E1E1" stroke-width="0.503836"/>
<path d="M186.15 79.1782L187.89 84.1135H187.959L189.7 79.1782H190.444L188.291 85.041H187.558L185.406 79.1782H186.15ZM192.15 85.1441C191.872 85.1441 191.619 85.0916 191.392 84.9866C191.164 84.8797 190.984 84.7261 190.851 84.5257C190.717 84.3234 190.65 84.0791 190.65 83.7929C190.65 83.541 190.7 83.3368 190.799 83.1803C190.898 83.0219 191.031 82.8978 191.197 82.8081C191.363 82.7184 191.546 82.6516 191.747 82.6077C191.949 82.5619 192.152 82.5257 192.356 82.4989C192.623 82.4646 192.84 82.4388 193.006 82.4216C193.174 82.4026 193.296 82.3711 193.373 82.3272C193.451 82.2833 193.49 82.2069 193.49 82.0982V82.0753C193.49 81.7928 193.413 81.5733 193.258 81.4168C193.105 81.2603 192.874 81.1821 192.562 81.1821C192.24 81.1821 191.987 81.2527 191.804 81.3939C191.621 81.5352 191.492 81.6859 191.417 81.8462L190.776 81.6172C190.891 81.35 191.043 81.142 191.234 80.9931C191.427 80.8424 191.637 80.7374 191.864 80.6783C192.093 80.6172 192.318 80.5866 192.54 80.5866C192.681 80.5866 192.843 80.6038 193.026 80.6382C193.211 80.6706 193.39 80.7384 193.562 80.8414C193.735 80.9445 193.879 81.1 193.994 81.308C194.108 81.5161 194.166 81.7947 194.166 82.144V85.041H193.49V84.4456H193.456C193.41 84.541 193.333 84.6431 193.227 84.7519C193.12 84.8607 192.978 84.9532 192.8 85.0296C192.623 85.1059 192.406 85.1441 192.15 85.1441ZM192.253 84.5372C192.52 84.5372 192.746 84.4847 192.929 84.3797C193.114 84.2748 193.253 84.1393 193.347 83.9732C193.442 83.8072 193.49 83.6326 193.49 83.4494V82.831C193.461 82.8654 193.398 82.8968 193.301 82.9255C193.206 82.9522 193.095 82.976 192.969 82.997C192.845 83.0161 192.724 83.0333 192.605 83.0486C192.489 83.0619 192.394 83.0734 192.322 83.0829C192.146 83.1058 191.982 83.143 191.83 83.1946C191.679 83.2442 191.557 83.3196 191.463 83.4207C191.372 83.52 191.326 83.6555 191.326 83.8272C191.326 84.062 191.413 84.2395 191.586 84.3597C191.762 84.478 191.984 84.5372 192.253 84.5372ZM196.074 79.1782V85.041H195.399V79.1782H196.074ZM200.083 83.2432V80.6439H200.758V85.041H200.083V84.2967H200.037C199.934 84.52 199.774 84.7099 199.556 84.8664C199.338 85.021 199.064 85.0983 198.732 85.0983C198.457 85.0983 198.212 85.0382 197.999 84.9179C197.785 84.7958 197.617 84.6126 197.495 84.3683C197.373 84.1221 197.312 83.812 197.312 83.4379V80.6439H197.987V83.3921C197.987 83.7127 198.077 83.9685 198.256 84.1593C198.438 84.3501 198.669 84.4456 198.949 84.4456C199.117 84.4456 199.288 84.4026 199.462 84.3168C199.637 84.2309 199.784 84.0992 199.902 83.9217C200.023 83.7442 200.083 83.5181 200.083 83.2432ZM203.839 85.1326C203.416 85.1326 203.05 85.0391 202.743 84.8521C202.438 84.6631 202.202 84.3998 202.036 84.062C201.872 83.7223 201.79 83.3272 201.79 82.8768C201.79 82.4264 201.872 82.0294 202.036 81.6859C202.202 81.3405 202.433 81.0714 202.729 80.8786C203.026 80.684 203.374 80.5866 203.771 80.5866C204 80.5866 204.226 80.6248 204.449 80.7012C204.672 80.7775 204.876 80.9015 205.059 81.0733C205.242 81.2432 205.388 81.4684 205.497 81.7489C205.606 82.0294 205.66 82.3749 205.66 82.7852V83.0715H202.271V82.4875H204.973C204.973 82.2394 204.923 82.018 204.824 81.8233C204.727 81.6287 204.587 81.475 204.406 81.3624C204.227 81.2498 204.015 81.1935 203.771 81.1935C203.502 81.1935 203.269 81.2603 203.072 81.3939C202.877 81.5256 202.728 81.6974 202.623 81.9092C202.518 82.1211 202.465 82.3482 202.465 82.5905V82.9799C202.465 83.3119 202.522 83.5934 202.637 83.8244C202.753 84.0534 202.915 84.228 203.121 84.3482C203.327 84.4666 203.566 84.5257 203.839 84.5257C204.017 84.5257 204.177 84.5009 204.32 84.4513C204.465 84.3998 204.59 84.3234 204.695 84.2223C204.8 84.1192 204.881 83.9914 204.939 83.8387L205.591 84.0219C205.523 84.2433 205.407 84.4379 205.245 84.6059C205.083 84.7719 204.882 84.9017 204.644 84.9952C204.405 85.0868 204.137 85.1326 203.839 85.1326Z" fill="#012939"/>
<line x1="162.64" y1="96.9272" x2="210.1" y2="96.9272" stroke="#E1E1E1" stroke-width="0.503836"/>
<path d="M22.5158 108.905L24.2564 113.84H24.3251L26.0656 108.905H26.8099L24.6572 114.767H23.9243L21.7715 108.905H22.5158ZM28.5161 114.87C28.2374 114.87 27.9846 114.818 27.7575 114.713C27.5304 114.606 27.35 114.452 27.2164 114.252C27.0828 114.05 27.016 113.805 27.016 113.519C27.016 113.267 27.0656 113.063 27.1649 112.907C27.2641 112.748 27.3968 112.624 27.5628 112.534C27.7288 112.445 27.912 112.378 28.1124 112.334C28.3147 112.288 28.518 112.252 28.7222 112.225C28.9894 112.191 29.206 112.165 29.372 112.148C29.54 112.129 29.6621 112.097 29.7385 112.053C29.8167 112.01 29.8558 111.933 29.8558 111.824V111.802C29.8558 111.519 29.7785 111.3 29.6239 111.143C29.4713 110.987 29.2394 110.908 28.9283 110.908C28.6058 110.908 28.3529 110.979 28.1697 111.12C27.9865 111.261 27.8577 111.412 27.7832 111.573L27.142 111.344C27.2565 111.076 27.4092 110.868 27.6 110.719C27.7928 110.569 28.0027 110.464 28.2298 110.405C28.4588 110.343 28.684 110.313 28.9054 110.313C29.0466 110.313 29.2089 110.33 29.3921 110.364C29.5772 110.397 29.7556 110.465 29.9274 110.568C30.1011 110.671 30.2452 110.826 30.3597 111.034C30.4742 111.242 30.5314 111.521 30.5314 111.87V114.767H29.8558V114.172H29.8215C29.7757 114.267 29.6993 114.369 29.5925 114.478C29.4856 114.587 29.3434 114.68 29.1659 114.756C28.9884 114.832 28.7718 114.87 28.5161 114.87ZM28.6191 114.263C28.8863 114.263 29.1115 114.211 29.2947 114.106C29.4799 114.001 29.6192 113.866 29.7127 113.7C29.8081 113.534 29.8558 113.359 29.8558 113.176V112.557C29.8272 112.592 29.7642 112.623 29.6669 112.652C29.5715 112.679 29.4608 112.702 29.3348 112.723C29.2108 112.742 29.0896 112.76 28.9713 112.775C28.8548 112.788 28.7604 112.8 28.6878 112.809C28.5123 112.832 28.3481 112.869 28.1955 112.921C28.0447 112.971 27.9225 113.046 27.829 113.147C27.7374 113.246 27.6916 113.382 27.6916 113.554C27.6916 113.788 27.7785 113.966 27.9521 114.086C28.1277 114.204 28.35 114.263 28.6191 114.263ZM32.4401 108.905V114.767H31.7645V108.905H32.4401ZM36.4486 112.97V110.37H37.1242V114.767H36.4486V114.023H36.4028C36.2998 114.246 36.1395 114.436 35.9219 114.593C35.7043 114.747 35.4295 114.825 35.0974 114.825C34.8226 114.825 34.5783 114.764 34.3646 114.644C34.1508 114.522 33.9829 114.339 33.8608 114.095C33.7386 113.848 33.6775 113.538 33.6775 113.164V110.37H34.3531V113.118C34.3531 113.439 34.4428 113.695 34.6222 113.886C34.8035 114.076 35.0345 114.172 35.315 114.172C35.483 114.172 35.6538 114.129 35.8274 114.043C36.003 113.957 36.15 113.826 36.2683 113.648C36.3885 113.471 36.4486 113.244 36.4486 112.97ZM40.2052 114.859C39.7815 114.859 39.4161 114.765 39.1088 114.578C38.8035 114.389 38.5678 114.126 38.4017 113.788C38.2376 113.449 38.1555 113.054 38.1555 112.603C38.1555 112.153 38.2376 111.756 38.4017 111.412C38.5678 111.067 38.7987 110.798 39.0945 110.605C39.3922 110.41 39.7396 110.313 40.1365 110.313C40.3655 110.313 40.5917 110.351 40.815 110.427C41.0383 110.504 41.2415 110.628 41.4247 110.8C41.608 110.969 41.754 111.195 41.8627 111.475C41.9715 111.756 42.0259 112.101 42.0259 112.512V112.798H38.6365V112.214H41.3389C41.3389 111.966 41.2892 111.744 41.19 111.55C41.0927 111.355 40.9533 111.201 40.772 111.089C40.5926 110.976 40.3808 110.92 40.1365 110.92C39.8674 110.92 39.6346 110.987 39.438 111.12C39.2434 111.252 39.0935 111.424 38.9886 111.636C38.8836 111.847 38.8311 112.074 38.8311 112.317V112.706C38.8311 113.038 38.8884 113.32 39.0029 113.551C39.1193 113.78 39.2806 113.954 39.4867 114.075C39.6928 114.193 39.9323 114.252 40.2052 114.252C40.3827 114.252 40.543 114.227 40.6862 114.178C40.8312 114.126 40.9562 114.05 41.0612 113.949C41.1661 113.846 41.2473 113.718 41.3045 113.565L41.9572 113.748C41.8885 113.97 41.773 114.164 41.6108 114.332C41.4486 114.498 41.2482 114.628 41.0096 114.722C40.7711 114.813 40.5029 114.859 40.2052 114.859Z" fill="#012939"/>
<path d="M78.5874 108.905L80.3279 113.84H80.3966L82.1372 108.905H82.8815L80.7287 114.767H79.9959L77.8431 108.905H78.5874ZM84.5876 114.87C84.309 114.87 84.0561 114.818 83.829 114.713C83.6019 114.606 83.4216 114.452 83.288 114.252C83.1544 114.05 83.0876 113.805 83.0876 113.519C83.0876 113.267 83.1372 113.063 83.2364 112.907C83.3357 112.748 83.4683 112.624 83.6344 112.534C83.8004 112.445 83.9836 112.378 84.184 112.334C84.3863 112.288 84.5895 112.252 84.7938 112.225C85.0609 112.191 85.2776 112.165 85.4436 112.148C85.6115 112.129 85.7337 112.097 85.81 112.053C85.8883 112.01 85.9274 111.933 85.9274 111.824V111.802C85.9274 111.519 85.8501 111.3 85.6955 111.143C85.5428 110.987 85.3109 110.908 84.9999 110.908C84.6773 110.908 84.4245 110.979 84.2413 111.12C84.058 111.261 83.9292 111.412 83.8548 111.573L83.2135 111.344C83.328 111.076 83.4807 110.868 83.6716 110.719C83.8643 110.569 84.0743 110.464 84.3014 110.405C84.5304 110.343 84.7556 110.313 84.977 110.313C85.1182 110.313 85.2804 110.33 85.4636 110.364C85.6487 110.397 85.8272 110.465 85.999 110.568C86.1726 110.671 86.3167 110.826 86.4312 111.034C86.5457 111.242 86.603 111.521 86.603 111.87V114.767H85.9274V114.172H85.893C85.8472 114.267 85.7709 114.369 85.664 114.478C85.5571 114.587 85.415 114.68 85.2375 114.756C85.06 114.832 84.8434 114.87 84.5876 114.87ZM84.6907 114.263C84.9579 114.263 85.1831 114.211 85.3663 114.106C85.5514 114.001 85.6907 113.866 85.7842 113.7C85.8797 113.534 85.9274 113.359 85.9274 113.176V112.557C85.8988 112.592 85.8358 112.623 85.7384 112.652C85.643 112.679 85.5323 112.702 85.4064 112.723C85.2823 112.742 85.1611 112.76 85.0428 112.775C84.9264 112.788 84.8319 112.8 84.7594 112.809C84.5838 112.832 84.4197 112.869 84.267 112.921C84.1162 112.971 83.9941 113.046 83.9006 113.147C83.809 113.246 83.7632 113.382 83.7632 113.554C83.7632 113.788 83.85 113.966 84.0237 114.086C84.1993 114.204 84.4216 114.263 84.6907 114.263ZM88.5117 108.905V114.767H87.8361V108.905H88.5117ZM92.5202 112.97V110.37H93.1958V114.767H92.5202V114.023H92.4744C92.3713 114.246 92.211 114.436 91.9935 114.593C91.7759 114.747 91.5011 114.825 91.169 114.825C90.8942 114.825 90.6499 114.764 90.4361 114.644C90.2224 114.522 90.0545 114.339 89.9323 114.095C89.8102 113.848 89.7491 113.538 89.7491 113.164V110.37H90.4247V113.118C90.4247 113.439 90.5144 113.695 90.6938 113.886C90.8751 114.076 91.106 114.172 91.3866 114.172C91.5545 114.172 91.7253 114.129 91.899 114.043C92.0746 113.957 92.2215 113.826 92.3398 113.648C92.4601 113.471 92.5202 113.244 92.5202 112.97ZM96.2768 114.859C95.8531 114.859 95.4876 114.765 95.1804 114.578C94.875 114.389 94.6393 114.126 94.4733 113.788C94.3091 113.449 94.2271 113.054 94.2271 112.603C94.2271 112.153 94.3091 111.756 94.4733 111.412C94.6393 111.067 94.8702 110.798 95.1661 110.605C95.4638 110.41 95.8111 110.313 96.2081 110.313C96.4371 110.313 96.6632 110.351 96.8865 110.427C97.1098 110.504 97.3131 110.628 97.4963 110.8C97.6795 110.969 97.8255 111.195 97.9343 111.475C98.0431 111.756 98.0975 112.101 98.0975 112.512V112.798H94.708V112.214H97.4104C97.4104 111.966 97.3608 111.744 97.2616 111.55C97.1642 111.355 97.0249 111.201 96.8436 111.089C96.6642 110.976 96.4524 110.92 96.2081 110.92C95.939 110.92 95.7062 110.987 95.5096 111.12C95.3149 111.252 95.1651 111.424 95.0601 111.636C94.9552 111.847 94.9027 112.074 94.9027 112.317V112.706C94.9027 113.038 94.9599 113.32 95.0744 113.551C95.1909 113.78 95.3521 113.954 95.5582 114.075C95.7644 114.193 96.0039 114.252 96.2768 114.252C96.4543 114.252 96.6146 114.227 96.7577 114.178C96.9028 114.126 97.0278 114.05 97.1327 113.949C97.2377 113.846 97.3188 113.718 97.3761 113.565L98.0288 113.748C97.9601 113.97 97.8446 114.164 97.6824 114.332C97.5202 114.498 97.3198 114.628 97.0812 114.722C96.8426 114.813 96.5745 114.859 96.2768 114.859Z" fill="#012939"/>
<path d="M120.764 108.905L122.504 113.84H122.573L124.314 108.905H125.058L122.905 114.767H122.172L120.02 108.905H120.764ZM126.764 114.87C126.485 114.87 126.233 114.818 126.006 114.713C125.778 114.606 125.598 114.452 125.464 114.252C125.331 114.05 125.264 113.805 125.264 113.519C125.264 113.267 125.314 113.063 125.413 112.907C125.512 112.748 125.645 112.624 125.811 112.534C125.977 112.445 126.16 112.378 126.36 112.334C126.563 112.288 126.766 112.252 126.97 112.225C127.237 112.191 127.454 112.165 127.62 112.148C127.788 112.129 127.91 112.097 127.987 112.053C128.065 112.01 128.104 111.933 128.104 111.824V111.802C128.104 111.519 128.027 111.3 127.872 111.143C127.719 110.987 127.487 110.908 127.176 110.908C126.854 110.908 126.601 110.979 126.418 111.12C126.235 111.261 126.106 111.412 126.031 111.573L125.39 111.344C125.505 111.076 125.657 110.868 125.848 110.719C126.041 110.569 126.251 110.464 126.478 110.405C126.707 110.343 126.932 110.313 127.153 110.313C127.295 110.313 127.457 110.33 127.64 110.364C127.825 110.397 128.004 110.465 128.175 110.568C128.349 110.671 128.493 110.826 128.608 111.034C128.722 111.242 128.779 111.521 128.779 111.87V114.767H128.104V114.172H128.07C128.024 114.267 127.947 114.369 127.841 114.478C127.734 114.587 127.591 114.68 127.414 114.756C127.236 114.832 127.02 114.87 126.764 114.87ZM126.867 114.263C127.134 114.263 127.36 114.211 127.543 114.106C127.728 114.001 127.867 113.866 127.961 113.7C128.056 113.534 128.104 113.359 128.104 113.176V112.557C128.075 112.592 128.012 112.623 127.915 112.652C127.82 112.679 127.709 112.702 127.583 112.723C127.459 112.742 127.338 112.76 127.219 112.775C127.103 112.788 127.008 112.8 126.936 112.809C126.76 112.832 126.596 112.869 126.444 112.921C126.293 112.971 126.171 113.046 126.077 113.147C125.985 113.246 125.94 113.382 125.94 113.554C125.94 113.788 126.027 113.966 126.2 114.086C126.376 114.204 126.598 114.263 126.867 114.263ZM130.688 108.905V114.767H130.013V108.905H130.688ZM134.697 112.97V110.37H135.372V114.767H134.697V114.023H134.651C134.548 114.246 134.388 114.436 134.17 114.593C133.952 114.747 133.678 114.825 133.345 114.825C133.071 114.825 132.826 114.764 132.613 114.644C132.399 114.522 132.231 114.339 132.109 114.095C131.987 113.848 131.926 113.538 131.926 113.164V110.37H132.601V113.118C132.601 113.439 132.691 113.695 132.87 113.886C133.052 114.076 133.283 114.172 133.563 114.172C133.731 114.172 133.902 114.129 134.075 114.043C134.251 113.957 134.398 113.826 134.516 113.648C134.637 113.471 134.697 113.244 134.697 112.97ZM138.453 114.859C138.03 114.859 137.664 114.765 137.357 114.578C137.052 114.389 136.816 114.126 136.65 113.788C136.486 113.449 136.404 113.054 136.404 112.603C136.404 112.153 136.486 111.756 136.65 111.412C136.816 111.067 137.047 110.798 137.343 110.605C137.64 110.41 137.988 110.313 138.385 110.313C138.614 110.313 138.84 110.351 139.063 110.427C139.286 110.504 139.49 110.628 139.673 110.8C139.856 110.969 140.002 111.195 140.111 111.475C140.22 111.756 140.274 112.101 140.274 112.512V112.798H136.885V112.214H139.587C139.587 111.966 139.537 111.744 139.438 111.55C139.341 111.355 139.201 111.201 139.02 111.089C138.841 110.976 138.629 110.92 138.385 110.92C138.115 110.92 137.883 110.987 137.686 111.12C137.491 111.252 137.342 111.424 137.237 111.636C137.132 111.847 137.079 112.074 137.079 112.317V112.706C137.079 113.038 137.136 113.32 137.251 113.551C137.367 113.78 137.529 113.954 137.735 114.075C137.941 114.193 138.18 114.252 138.453 114.252C138.631 114.252 138.791 114.227 138.934 114.178C139.079 114.126 139.204 114.05 139.309 113.949C139.414 113.846 139.495 113.718 139.553 113.565L140.205 113.748C140.137 113.97 140.021 114.164 139.859 114.332C139.697 114.498 139.496 114.628 139.258 114.722C139.019 114.813 138.751 114.859 138.453 114.859Z" fill="#012939"/>
<path d="M186.15 108.905L187.89 113.84H187.959L189.7 108.905H190.444L188.291 114.767H187.558L185.406 108.905H186.15ZM192.15 114.87C191.872 114.87 191.619 114.818 191.392 114.713C191.164 114.606 190.984 114.452 190.851 114.252C190.717 114.05 190.65 113.805 190.65 113.519C190.65 113.267 190.7 113.063 190.799 112.907C190.898 112.748 191.031 112.624 191.197 112.534C191.363 112.445 191.546 112.378 191.747 112.334C191.949 112.288 192.152 112.252 192.356 112.225C192.623 112.191 192.84 112.165 193.006 112.148C193.174 112.129 193.296 112.097 193.373 112.053C193.451 112.01 193.49 111.933 193.49 111.824V111.802C193.49 111.519 193.413 111.3 193.258 111.143C193.105 110.987 192.874 110.908 192.562 110.908C192.24 110.908 191.987 110.979 191.804 111.12C191.621 111.261 191.492 111.412 191.417 111.573L190.776 111.344C190.891 111.076 191.043 110.868 191.234 110.719C191.427 110.569 191.637 110.464 191.864 110.405C192.093 110.343 192.318 110.313 192.54 110.313C192.681 110.313 192.843 110.33 193.026 110.364C193.211 110.397 193.39 110.465 193.562 110.568C193.735 110.671 193.879 110.826 193.994 111.034C194.108 111.242 194.166 111.521 194.166 111.87V114.767H193.49V114.172H193.456C193.41 114.267 193.333 114.369 193.227 114.478C193.12 114.587 192.978 114.68 192.8 114.756C192.623 114.832 192.406 114.87 192.15 114.87ZM192.253 114.263C192.52 114.263 192.746 114.211 192.929 114.106C193.114 114.001 193.253 113.866 193.347 113.7C193.442 113.534 193.49 113.359 193.49 113.176V112.557C193.461 112.592 193.398 112.623 193.301 112.652C193.206 112.679 193.095 112.702 192.969 112.723C192.845 112.742 192.724 112.76 192.605 112.775C192.489 112.788 192.394 112.8 192.322 112.809C192.146 112.832 191.982 112.869 191.83 112.921C191.679 112.971 191.557 113.046 191.463 113.147C191.372 113.246 191.326 113.382 191.326 113.554C191.326 113.788 191.413 113.966 191.586 114.086C191.762 114.204 191.984 114.263 192.253 114.263ZM196.074 108.905V114.767H195.399V108.905H196.074ZM200.083 112.97V110.37H200.758V114.767H200.083V114.023H200.037C199.934 114.246 199.774 114.436 199.556 114.593C199.338 114.747 199.064 114.825 198.732 114.825C198.457 114.825 198.212 114.764 197.999 114.644C197.785 114.522 197.617 114.339 197.495 114.095C197.373 113.848 197.312 113.538 197.312 113.164V110.37H197.987V113.118C197.987 113.439 198.077 113.695 198.256 113.886C198.438 114.076 198.669 114.172 198.949 114.172C199.117 114.172 199.288 114.129 199.462 114.043C199.637 113.957 199.784 113.826 199.902 113.648C200.023 113.471 200.083 113.244 200.083 112.97ZM203.839 114.859C203.416 114.859 203.05 114.765 202.743 114.578C202.438 114.389 202.202 114.126 202.036 113.788C201.872 113.449 201.79 113.054 201.79 112.603C201.79 112.153 201.872 111.756 202.036 111.412C202.202 111.067 202.433 110.798 202.729 110.605C203.026 110.41 203.374 110.313 203.771 110.313C204 110.313 204.226 110.351 204.449 110.427C204.672 110.504 204.876 110.628 205.059 110.8C205.242 110.969 205.388 111.195 205.497 111.475C205.606 111.756 205.66 112.101 205.66 112.512V112.798H202.271V112.214H204.973C204.973 111.966 204.923 111.744 204.824 111.55C204.727 111.355 204.587 111.201 204.406 111.089C204.227 110.976 204.015 110.92 203.771 110.92C203.502 110.92 203.269 110.987 203.072 111.12C202.877 111.252 202.728 111.424 202.623 111.636C202.518 111.847 202.465 112.074 202.465 112.317V112.706C202.465 113.038 202.522 113.32 202.637 113.551C202.753 113.78 202.915 113.954 203.121 114.075C203.327 114.193 203.566 114.252 203.839 114.252C204.017 114.252 204.177 114.227 204.32 114.178C204.465 114.126 204.59 114.05 204.695 113.949C204.8 113.846 204.881 113.718 204.939 113.565L205.591 113.748C205.523 113.97 205.407 114.164 205.245 114.332C205.083 114.498 204.882 114.628 204.644 114.722C204.405 114.813 204.137 114.859 203.839 114.859Z" fill="#012939"/>
</g>
<path d="M22.1437 25.9771V20.1142H23.2058V22.5962H25.9225V20.1142H26.9874V25.9771H25.9225V23.4865H23.2058V25.9771H22.1437ZM30.0433 26.0629C29.6025 26.0629 29.2217 25.9713 28.9011 25.7881C28.5824 25.603 28.3372 25.3415 28.1654 25.0037C27.9936 24.664 27.9078 24.2642 27.9078 23.8043C27.9078 23.3519 27.9936 22.955 28.1654 22.6134C28.3391 22.2698 28.5814 22.0027 28.8925 21.8118C29.2036 21.6191 29.5691 21.5227 29.9889 21.5227C30.2599 21.5227 30.5157 21.5666 30.7561 21.6544C30.9985 21.7402 31.2123 21.8738 31.3974 22.0551C31.5844 22.2364 31.7314 22.4674 31.8383 22.7479C31.9451 23.0266 31.9986 23.3586 31.9986 23.7441V24.0619H28.3944V23.3634H31.0052C31.0033 23.1649 30.9604 22.9884 30.8764 22.8338C30.7924 22.6773 30.675 22.5542 30.5243 22.4645C30.3754 22.3748 30.2017 22.33 30.0033 22.33C29.7914 22.33 29.6053 22.3815 29.445 22.4845C29.2847 22.5857 29.1597 22.7193 29.07 22.8853C28.9822 23.0495 28.9374 23.2298 28.9355 23.4264V24.0361C28.9355 24.2919 28.9822 24.5113 29.0757 24.6946C29.1693 24.8759 29.3 25.0152 29.4679 25.1125C29.6359 25.2079 29.8324 25.2556 30.0576 25.2556C30.2084 25.2556 30.3449 25.2347 30.467 25.1927C30.5892 25.1488 30.6951 25.0848 30.7848 25.0009C30.8745 24.9169 30.9422 24.8129 30.988 24.6888L31.9556 24.7976C31.8946 25.0534 31.7781 25.2766 31.6064 25.4675C31.4365 25.6564 31.219 25.8034 30.9537 25.9083C30.6884 26.0114 30.385 26.0629 30.0433 26.0629ZM34.1406 26.0658C33.8619 26.0658 33.611 26.0162 33.3877 25.9169C33.1663 25.8158 32.9907 25.6669 32.861 25.4704C32.7331 25.2738 32.6692 25.0314 32.6692 24.7432C32.6692 24.4951 32.715 24.29 32.8066 24.1277C32.8982 23.9655 33.0232 23.8357 33.1816 23.7384C33.34 23.6411 33.5184 23.5676 33.7169 23.518C33.9173 23.4665 34.1244 23.4292 34.3381 23.4063C34.5958 23.3796 34.8047 23.3558 34.965 23.3348C35.1254 23.3119 35.2418 23.2775 35.3143 23.2317C35.3887 23.184 35.4259 23.1105 35.4259 23.0113V22.9941C35.4259 22.7785 35.362 22.6115 35.2341 22.4931C35.1063 22.3748 34.9221 22.3156 34.6816 22.3156C34.4278 22.3156 34.2265 22.371 34.0776 22.4817C33.9307 22.5924 33.8314 22.7231 33.7799 22.8739L32.8123 22.7365C32.8886 22.4693 33.0146 22.246 33.1902 22.0666C33.3657 21.8853 33.5804 21.7498 33.8343 21.6601C34.0881 21.5685 34.3686 21.5227 34.6759 21.5227C34.8878 21.5227 35.0986 21.5475 35.3086 21.5971C35.5185 21.6467 35.7103 21.7288 35.884 21.8433C36.0576 21.9559 36.197 22.1095 36.3019 22.3042C36.4088 22.4989 36.4622 22.7422 36.4622 23.0342V25.9771H35.466V25.373H35.4317C35.3687 25.4952 35.2799 25.6097 35.1654 25.7165C35.0528 25.8215 34.9107 25.9064 34.7389 25.9713C34.569 26.0343 34.3696 26.0658 34.1406 26.0658ZM34.4097 25.3043C34.6177 25.3043 34.7981 25.2633 34.9507 25.1812C35.1034 25.0972 35.2208 24.9866 35.3028 24.8491C35.3868 24.7117 35.4288 24.5619 35.4288 24.3997V23.8815C35.3964 23.9083 35.341 23.9331 35.2628 23.956C35.1864 23.9789 35.1005 23.9989 35.0051 24.0161C34.9097 24.0333 34.8152 24.0485 34.7217 24.0619C34.6282 24.0753 34.5471 24.0867 34.4784 24.0963C34.3238 24.1172 34.1854 24.1516 34.0633 24.1993C33.9411 24.247 33.8448 24.3138 33.7742 24.3997C33.7035 24.4837 33.6682 24.5925 33.6682 24.726C33.6682 24.9169 33.7379 25.061 33.8772 25.1583C34.0165 25.2556 34.194 25.3043 34.4097 25.3043ZM39.136 26.0543C38.7906 26.0543 38.4814 25.9656 38.2085 25.7881C37.9356 25.6106 37.7199 25.353 37.5615 25.0152C37.4031 24.6774 37.3239 24.2671 37.3239 23.7842C37.3239 23.2956 37.4041 22.8834 37.5644 22.5475C37.7266 22.2097 37.9451 21.9549 38.2199 21.7832C38.4948 21.6095 38.8011 21.5227 39.1389 21.5227C39.3965 21.5227 39.6084 21.5666 39.7744 21.6544C39.9404 21.7402 40.0721 21.8443 40.1694 21.9664C40.2668 22.0866 40.3422 22.2002 40.3956 22.3071H40.4385V20.1142H41.4777V25.9771H40.4586V25.2843H40.3956C40.3422 25.3912 40.2649 25.5047 40.1637 25.6249C40.0626 25.7433 39.929 25.8444 39.7629 25.9284C39.5969 26.0124 39.3879 26.0543 39.136 26.0543ZM39.4251 25.2041C39.6446 25.2041 39.8316 25.145 39.9862 25.0266C40.1408 24.9064 40.2582 24.7394 40.3383 24.5257C40.4185 24.3119 40.4586 24.0629 40.4586 23.7785C40.4586 23.4941 40.4185 23.247 40.3383 23.0371C40.2601 22.8271 40.1437 22.6639 39.9891 22.5475C39.8364 22.4311 39.6484 22.3729 39.4251 22.3729C39.1942 22.3729 39.0015 22.433 38.8469 22.5533C38.6923 22.6735 38.5759 22.8395 38.4976 23.0514C38.4194 23.2632 38.3803 23.5056 38.3803 23.7785C38.3803 24.0533 38.4194 24.2986 38.4976 24.5142C38.5778 24.728 38.6951 24.8969 38.8497 25.0209C39.0062 25.143 39.198 25.2041 39.4251 25.2041ZM44.5286 26.0629C44.0878 26.0629 43.707 25.9713 43.3864 25.7881C43.0677 25.603 42.8225 25.3415 42.6507 25.0037C42.4789 24.664 42.3931 24.2642 42.3931 23.8043C42.3931 23.3519 42.4789 22.955 42.6507 22.6134C42.8244 22.2698 43.0667 22.0027 43.3778 21.8118C43.6889 21.6191 44.0544 21.5227 44.4742 21.5227C44.7452 21.5227 45.001 21.5666 45.2414 21.6544C45.4838 21.7402 45.6976 21.8738 45.8827 22.0551C46.0697 22.2364 46.2167 22.4674 46.3235 22.7479C46.4304 23.0266 46.4839 23.3586 46.4839 23.7441V24.0619H42.8797V23.3634H45.4905C45.4886 23.1649 45.4457 22.9884 45.3617 22.8338C45.2777 22.6773 45.1603 22.5542 45.0096 22.4645C44.8607 22.3748 44.687 22.33 44.4886 22.33C44.2767 22.33 44.0906 22.3815 43.9303 22.4845C43.77 22.5857 43.645 22.7193 43.5553 22.8853C43.4675 23.0495 43.4227 23.2298 43.4208 23.4264V24.0361C43.4208 24.2919 43.4675 24.5113 43.561 24.6946C43.6546 24.8759 43.7853 25.0152 43.9532 25.1125C44.1212 25.2079 44.3177 25.2556 44.5429 25.2556C44.6937 25.2556 44.8302 25.2347 44.9523 25.1927C45.0745 25.1488 45.1804 25.0848 45.2701 25.0009C45.3598 24.9169 45.4275 24.8129 45.4733 24.6888L46.4409 24.7976C46.3798 25.0534 46.2634 25.2766 46.0917 25.4675C45.9218 25.6564 45.7042 25.8034 45.439 25.9083C45.1737 26.0114 44.8702 26.0629 44.5286 26.0629ZM47.3606 25.9771V21.5799H48.3654V22.3128H48.4112C48.4913 22.059 48.6287 21.8633 48.8234 21.7259C49.02 21.5866 49.2442 21.517 49.4961 21.517C49.5534 21.517 49.6173 21.5198 49.6879 21.5255C49.7605 21.5294 49.8206 21.536 49.8683 21.5456V22.4989C49.8244 22.4836 49.7547 22.4702 49.6593 22.4588C49.5658 22.4454 49.4751 22.4387 49.3874 22.4387C49.1984 22.4387 49.0286 22.4798 48.8778 22.5618C48.7289 22.642 48.6116 22.7536 48.5257 22.8968C48.4398 23.0399 48.3969 23.205 48.3969 23.392V25.9771H47.3606Z" fill="#011B25"/>
<line x1="13.5039" y1="38.252" x2="60.5039" y2="38.252" stroke="#011B25" stroke-width="0.503836"/>
<path d="M74.4207 26.0922V20.2293H75.4828V22.7113H78.1995V20.2293H79.2644V26.0922H78.1995V23.6016H75.4828V26.0922H74.4207ZM82.3204 26.178C81.8795 26.178 81.4988 26.0864 81.1782 25.9032C80.8594 25.7181 80.6142 25.4566 80.4424 25.1188C80.2707 24.7791 80.1848 24.3793 80.1848 23.9194C80.1848 23.4671 80.2707 23.0701 80.4424 22.7285C80.6161 22.385 80.8585 22.1178 81.1696 21.9269C81.4806 21.7342 81.8461 21.6378 82.266 21.6378C82.537 21.6378 82.7927 21.6817 83.0332 21.7695C83.2756 21.8554 83.4893 21.989 83.6744 22.1703C83.8615 22.3516 84.0084 22.5825 84.1153 22.863C84.2222 23.1417 84.2756 23.4737 84.2756 23.8593V24.177H80.6715V23.4785H83.2822C83.2803 23.28 83.2374 23.1035 83.1534 22.9489C83.0694 22.7924 82.9521 22.6693 82.8013 22.5796C82.6524 22.4899 82.4788 22.4451 82.2803 22.4451C82.0685 22.4451 81.8824 22.4966 81.7221 22.5997C81.5618 22.7008 81.4368 22.8344 81.3471 23.0004C81.2593 23.1646 81.2144 23.3449 81.2125 23.5415V24.1512C81.2125 24.407 81.2593 24.6265 81.3528 24.8097C81.4463 24.991 81.577 25.1303 81.745 25.2276C81.9129 25.323 82.1095 25.3708 82.3347 25.3708C82.4855 25.3708 82.6219 25.3498 82.7441 25.3078C82.8662 25.2639 82.9721 25.2 83.0618 25.116C83.1515 25.032 83.2193 24.928 83.2651 24.8039L84.2327 24.9127C84.1716 25.1685 84.0552 25.3918 83.8834 25.5826C83.7136 25.7715 83.496 25.9185 83.2307 26.0235C82.9654 26.1265 82.662 26.178 82.3204 26.178ZM86.4176 26.1809C86.139 26.1809 85.888 26.1313 85.6647 26.032C85.4433 25.9309 85.2678 25.782 85.138 25.5855C85.0101 25.3889 84.9462 25.1465 84.9462 24.8583C84.9462 24.6102 84.992 24.4051 85.0836 24.2429C85.1752 24.0806 85.3002 23.9509 85.4586 23.8535C85.617 23.7562 85.7955 23.6827 85.9939 23.6331C86.1943 23.5816 86.4014 23.5444 86.6151 23.5215C86.8728 23.4947 87.0818 23.4709 87.2421 23.4499C87.4024 23.427 87.5188 23.3926 87.5913 23.3468C87.6658 23.2991 87.703 23.2256 87.703 23.1264V23.1092C87.703 22.8936 87.639 22.7266 87.5112 22.6082C87.3833 22.4899 87.1991 22.4308 86.9587 22.4308C86.7048 22.4308 86.5035 22.4861 86.3546 22.5968C86.2077 22.7075 86.1084 22.8382 86.0569 22.989L85.0893 22.8516C85.1657 22.5844 85.2916 22.3611 85.4672 22.1817C85.6428 22.0004 85.8575 21.8649 86.1113 21.7752C86.3651 21.6836 86.6457 21.6378 86.9529 21.6378C87.1648 21.6378 87.3757 21.6626 87.5856 21.7122C87.7955 21.7618 87.9873 21.8439 88.161 21.9584C88.3347 22.071 88.474 22.2246 88.579 22.4193C88.6858 22.614 88.7393 22.8573 88.7393 23.1493V26.0922H87.7431V25.4881H87.7087C87.6457 25.6103 87.557 25.7248 87.4425 25.8317C87.3299 25.9366 87.1877 26.0215 87.0159 26.0864C86.8461 26.1494 86.6466 26.1809 86.4176 26.1809ZM86.6867 25.4194C86.8947 25.4194 87.0751 25.3784 87.2278 25.2963C87.3804 25.2124 87.4978 25.1017 87.5799 24.9643C87.6639 24.8268 87.7058 24.677 87.7058 24.5148V23.9967C87.6734 24.0234 87.6181 24.0482 87.5398 24.0711C87.4635 24.094 87.3776 24.114 87.2822 24.1312C87.1867 24.1484 87.0923 24.1637 86.9988 24.177C86.9052 24.1904 86.8241 24.2018 86.7554 24.2114C86.6008 24.2324 86.4625 24.2667 86.3403 24.3144C86.2182 24.3621 86.1218 24.4289 86.0512 24.5148C85.9806 24.5988 85.9453 24.7076 85.9453 24.8412C85.9453 25.032 86.0149 25.1761 86.1543 25.2734C86.2936 25.3708 86.4711 25.4194 86.6867 25.4194ZM91.413 26.1695C91.0676 26.1695 90.7584 26.0807 90.4855 25.9032C90.2126 25.7257 89.997 25.4681 89.8386 25.1303C89.6802 24.7925 89.601 24.3822 89.601 23.8993C89.601 23.4108 89.6811 22.9985 89.8414 22.6626C90.0036 22.3248 90.2222 22.0701 90.497 21.8983C90.7718 21.7246 91.0781 21.6378 91.4159 21.6378C91.6736 21.6378 91.8854 21.6817 92.0514 21.7695C92.2175 21.8554 92.3492 21.9594 92.4465 22.0815C92.5438 22.2017 92.6192 22.3153 92.6726 22.4222H92.7156V20.2293H93.7547V26.0922H92.7356V25.3994H92.6726C92.6192 25.5063 92.5419 25.6198 92.4408 25.7401C92.3396 25.8584 92.206 25.9595 92.04 26.0435C91.8739 26.1275 91.665 26.1695 91.413 26.1695ZM91.7022 25.3192C91.9217 25.3192 92.1087 25.2601 92.2633 25.1417C92.4179 25.0215 92.5352 24.8545 92.6154 24.6408C92.6955 24.427 92.7356 24.178 92.7356 23.8936C92.7356 23.6092 92.6955 23.3621 92.6154 23.1522C92.5371 22.9422 92.4207 22.7791 92.2661 22.6626C92.1135 22.5462 91.9255 22.488 91.7022 22.488C91.4713 22.488 91.2785 22.5481 91.1239 22.6684C90.9693 22.7886 90.8529 22.9546 90.7747 23.1665C90.6964 23.3783 90.6573 23.6207 90.6573 23.8936C90.6573 24.1684 90.6964 24.4137 90.7747 24.6293C90.8548 24.8431 90.9722 25.012 91.1268 25.136C91.2833 25.2582 91.4751 25.3192 91.7022 25.3192ZM96.8057 26.178C96.3648 26.178 95.9841 26.0864 95.6634 25.9032C95.3447 25.7181 95.0995 25.4566 94.9277 25.1188C94.756 24.7791 94.6701 24.3793 94.6701 23.9194C94.6701 23.4671 94.756 23.0701 94.9277 22.7285C95.1014 22.385 95.3438 22.1178 95.6549 21.9269C95.9659 21.7342 96.3314 21.6378 96.7513 21.6378C97.0223 21.6378 97.278 21.6817 97.5185 21.7695C97.7609 21.8554 97.9746 21.989 98.1597 22.1703C98.3468 22.3516 98.4937 22.5825 98.6006 22.863C98.7075 23.1417 98.7609 23.4737 98.7609 23.8593V24.177H95.1567V23.4785H97.7675C97.7656 23.28 97.7227 23.1035 97.6387 22.9489C97.5547 22.7924 97.4374 22.6693 97.2866 22.5796C97.1377 22.4899 96.9641 22.4451 96.7656 22.4451C96.5538 22.4451 96.3677 22.4966 96.2074 22.5997C96.0471 22.7008 95.922 22.8344 95.8323 23.0004C95.7446 23.1646 95.6997 23.3449 95.6978 23.5415V24.1512C95.6978 24.407 95.7446 24.6265 95.8381 24.8097C95.9316 24.991 96.0623 25.1303 96.2303 25.2276C96.3982 25.323 96.5948 25.3708 96.82 25.3708C96.9708 25.3708 97.1072 25.3498 97.2293 25.3078C97.3515 25.2639 97.4574 25.2 97.5471 25.116C97.6368 25.032 97.7046 24.928 97.7504 24.8039L98.718 24.9127C98.6569 25.1685 98.5405 25.3918 98.3687 25.5826C98.1989 25.7715 97.9813 25.9185 97.716 26.0235C97.4507 26.1265 97.1473 26.178 96.8057 26.178ZM99.6376 26.0922V21.695H100.642V22.4279H100.688C100.768 22.1741 100.906 21.9785 101.1 21.841C101.297 21.7017 101.521 21.6321 101.773 21.6321C101.83 21.6321 101.894 21.6349 101.965 21.6407C102.038 21.6445 102.098 21.6512 102.145 21.6607V22.614C102.101 22.5987 102.032 22.5853 101.936 22.5739C101.843 22.5605 101.752 22.5539 101.664 22.5539C101.475 22.5539 101.306 22.5949 101.155 22.677C101.006 22.7571 100.889 22.8688 100.803 23.0119C100.717 23.155 100.674 23.3201 100.674 23.5071V26.0922H99.6376Z" fill="#011B25"/>
<line x1="60.3608" y1="37.9783" x2="115.783" y2="37.9783" stroke="#011B25" stroke-width="0.503836"/>
<path d="M120.392 25.9771V20.1142H121.454V22.5962H124.171V20.1142H125.235V25.9771H124.171V23.4865H121.454V25.9771H120.392ZM128.291 26.0629C127.851 26.0629 127.47 25.9713 127.149 25.7881C126.83 25.603 126.585 25.3415 126.413 25.0037C126.242 24.664 126.156 24.2642 126.156 23.8043C126.156 23.3519 126.242 22.955 126.413 22.6134C126.587 22.2698 126.829 22.0027 127.141 21.8118C127.452 21.6191 127.817 21.5227 128.237 21.5227C128.508 21.5227 128.764 21.5666 129.004 21.6544C129.247 21.7402 129.46 21.8738 129.645 22.0551C129.832 22.2364 129.979 22.4674 130.086 22.7479C130.193 23.0266 130.247 23.3586 130.247 23.7441V24.0619H126.642V23.3634H129.253C129.251 23.1649 129.208 22.9884 129.124 22.8338C129.04 22.6773 128.923 22.5542 128.772 22.4645C128.623 22.3748 128.45 22.33 128.251 22.33C128.039 22.33 127.853 22.3815 127.693 22.4845C127.533 22.5857 127.408 22.7193 127.318 22.8853C127.23 23.0495 127.185 23.2298 127.184 23.4264V24.0361C127.184 24.2919 127.23 24.5113 127.324 24.6946C127.417 24.8759 127.548 25.0152 127.716 25.1125C127.884 25.2079 128.08 25.2556 128.306 25.2556C128.456 25.2556 128.593 25.2347 128.715 25.1927C128.837 25.1488 128.943 25.0848 129.033 25.0009C129.123 24.9169 129.19 24.8129 129.236 24.6888L130.204 24.7976C130.143 25.0534 130.026 25.2766 129.854 25.4675C129.685 25.6564 129.467 25.8034 129.202 25.9083C128.936 26.0114 128.633 26.0629 128.291 26.0629ZM132.389 26.0658C132.11 26.0658 131.859 26.0162 131.636 25.9169C131.414 25.8158 131.239 25.6669 131.109 25.4704C130.981 25.2738 130.917 25.0314 130.917 24.7432C130.917 24.4951 130.963 24.29 131.055 24.1277C131.146 23.9655 131.271 23.8357 131.43 23.7384C131.588 23.6411 131.766 23.5676 131.965 23.518C132.165 23.4665 132.372 23.4292 132.586 23.4063C132.844 23.3796 133.053 23.3558 133.213 23.3348C133.373 23.3119 133.49 23.2775 133.562 23.2317C133.637 23.184 133.674 23.1105 133.674 23.0113V22.9941C133.674 22.7785 133.61 22.6115 133.482 22.4931C133.354 22.3748 133.17 22.3156 132.93 22.3156C132.676 22.3156 132.475 22.371 132.326 22.4817C132.179 22.5924 132.079 22.7231 132.028 22.8739L131.06 22.7365C131.137 22.4693 131.263 22.246 131.438 22.0666C131.614 21.8853 131.828 21.7498 132.082 21.6601C132.336 21.5685 132.617 21.5227 132.924 21.5227C133.136 21.5227 133.347 21.5475 133.557 21.5971C133.767 21.6467 133.958 21.7288 134.132 21.8433C134.306 21.9559 134.445 22.1095 134.55 22.3042C134.657 22.4989 134.71 22.7422 134.71 23.0342V25.9771H133.714V25.373H133.68C133.617 25.4952 133.528 25.6097 133.413 25.7165C133.301 25.8215 133.159 25.9064 132.987 25.9713C132.817 26.0343 132.618 26.0658 132.389 26.0658ZM132.658 25.3043C132.866 25.3043 133.046 25.2633 133.199 25.1812C133.351 25.0972 133.469 24.9866 133.551 24.8491C133.635 24.7117 133.677 24.5619 133.677 24.3997V23.8815C133.644 23.9083 133.589 23.9331 133.511 23.956C133.434 23.9789 133.349 23.9989 133.253 24.0161C133.158 24.0333 133.063 24.0485 132.97 24.0619C132.876 24.0753 132.795 24.0867 132.726 24.0963C132.572 24.1172 132.433 24.1516 132.311 24.1993C132.189 24.247 132.093 24.3138 132.022 24.3997C131.952 24.4837 131.916 24.5925 131.916 24.726C131.916 24.9169 131.986 25.061 132.125 25.1583C132.265 25.2556 132.442 25.3043 132.658 25.3043ZM137.384 26.0543C137.039 26.0543 136.729 25.9656 136.457 25.7881C136.184 25.6106 135.968 25.353 135.81 25.0152C135.651 24.6774 135.572 24.2671 135.572 23.7842C135.572 23.2956 135.652 22.8834 135.812 22.5475C135.975 22.2097 136.193 21.9549 136.468 21.7832C136.743 21.6095 137.049 21.5227 137.387 21.5227C137.645 21.5227 137.856 21.5666 138.022 21.6544C138.188 21.7402 138.32 21.8443 138.417 21.9664C138.515 22.0866 138.59 22.2002 138.644 22.3071H138.687V20.1142H139.726V25.9771H138.707V25.2843H138.644C138.59 25.3912 138.513 25.5047 138.412 25.6249C138.311 25.7433 138.177 25.8444 138.011 25.9284C137.845 26.0124 137.636 26.0543 137.384 26.0543ZM137.673 25.2041C137.893 25.2041 138.08 25.145 138.234 25.0266C138.389 24.9064 138.506 24.7394 138.586 24.5257C138.667 24.3119 138.707 24.0629 138.707 23.7785C138.707 23.4941 138.667 23.247 138.586 23.0371C138.508 22.8271 138.392 22.6639 138.237 22.5475C138.084 22.4311 137.896 22.3729 137.673 22.3729C137.442 22.3729 137.25 22.433 137.095 22.5533C136.94 22.6735 136.824 22.8395 136.746 23.0514C136.667 23.2632 136.628 23.5056 136.628 23.7785C136.628 24.0533 136.667 24.2986 136.746 24.5142C136.826 24.728 136.943 24.8969 137.098 25.0209C137.254 25.143 137.446 25.2041 137.673 25.2041ZM142.777 26.0629C142.336 26.0629 141.955 25.9713 141.634 25.7881C141.316 25.603 141.071 25.3415 140.899 25.0037C140.727 24.664 140.641 24.2642 140.641 23.8043C140.641 23.3519 140.727 22.955 140.899 22.6134C141.072 22.2698 141.315 22.0027 141.626 21.8118C141.937 21.6191 142.302 21.5227 142.722 21.5227C142.993 21.5227 143.249 21.5666 143.489 21.6544C143.732 21.7402 143.946 21.8738 144.131 22.0551C144.318 22.2364 144.465 22.4674 144.572 22.7479C144.678 23.0266 144.732 23.3586 144.732 23.7441V24.0619H141.128V23.3634H143.739C143.737 23.1649 143.694 22.9884 143.61 22.8338C143.526 22.6773 143.408 22.5542 143.258 22.4645C143.109 22.3748 142.935 22.33 142.737 22.33C142.525 22.33 142.339 22.3815 142.178 22.4845C142.018 22.5857 141.893 22.7193 141.803 22.8853C141.716 23.0495 141.671 23.2298 141.669 23.4264V24.0361C141.669 24.2919 141.716 24.5113 141.809 24.6946C141.903 24.8759 142.033 25.0152 142.201 25.1125C142.369 25.2079 142.566 25.2556 142.791 25.2556C142.942 25.2556 143.078 25.2347 143.2 25.1927C143.322 25.1488 143.428 25.0848 143.518 25.0009C143.608 24.9169 143.676 24.8129 143.721 24.6888L144.689 24.7976C144.628 25.0534 144.511 25.2766 144.34 25.4675C144.17 25.6564 143.952 25.8034 143.687 25.9083C143.422 26.0114 143.118 26.0629 142.777 26.0629ZM145.609 25.9771V21.5799H146.613V22.3128H146.659C146.739 22.059 146.877 21.8633 147.071 21.7259C147.268 21.5866 147.492 21.517 147.744 21.517C147.801 21.517 147.865 21.5198 147.936 21.5255C148.009 21.5294 148.069 21.536 148.116 21.5456V22.4989C148.072 22.4836 148.003 22.4702 147.907 22.4588C147.814 22.4454 147.723 22.4387 147.635 22.4387C147.446 22.4387 147.277 22.4798 147.126 22.5618C146.977 22.642 146.86 22.7536 146.774 22.8968C146.688 23.0399 146.645 23.205 146.645 23.392V25.9771H145.609Z" fill="#011B25"/>
<line x1="115.783" y1="38.252" x2="162.783" y2="38.252" stroke="#011B25" stroke-width="0.503836"/>
<path d="M177.585 26.0922V20.2293H178.647V22.7113H181.364V20.2293H182.429V26.0922H181.364V23.6016H178.647V26.0922H177.585ZM185.485 26.178C185.044 26.178 184.663 26.0864 184.343 25.9032C184.024 25.7181 183.779 25.4566 183.607 25.1188C183.435 24.7791 183.349 24.3793 183.349 23.9194C183.349 23.4671 183.435 23.0701 183.607 22.7285C183.781 22.385 184.023 22.1178 184.334 21.9269C184.645 21.7342 185.011 21.6378 185.43 21.6378C185.701 21.6378 185.957 21.6817 186.198 21.7695C186.44 21.8554 186.654 21.989 186.839 22.1703C187.026 22.3516 187.173 22.5825 187.28 22.863C187.387 23.1417 187.44 23.4737 187.44 23.8593V24.177H183.836V23.4785H186.447C186.445 23.28 186.402 23.1035 186.318 22.9489C186.234 22.7924 186.117 22.6693 185.966 22.5796C185.817 22.4899 185.643 22.4451 185.445 22.4451C185.233 22.4451 185.047 22.4966 184.887 22.5997C184.726 22.7008 184.601 22.8344 184.512 23.0004C184.424 23.1646 184.379 23.3449 184.377 23.5415V24.1512C184.377 24.407 184.424 24.6265 184.517 24.8097C184.611 24.991 184.741 25.1303 184.909 25.2276C185.077 25.323 185.274 25.3708 185.499 25.3708C185.65 25.3708 185.786 25.3498 185.909 25.3078C186.031 25.2639 186.137 25.2 186.226 25.116C186.316 25.032 186.384 24.928 186.43 24.8039L187.397 24.9127C187.336 25.1685 187.22 25.3918 187.048 25.5826C186.878 25.7715 186.66 25.9185 186.395 26.0235C186.13 26.1265 185.826 26.178 185.485 26.178ZM189.582 26.1809C189.303 26.1809 189.052 26.1313 188.829 26.032C188.608 25.9309 188.432 25.782 188.302 25.5855C188.175 25.3889 188.111 25.1465 188.111 24.8583C188.111 24.6102 188.156 24.4051 188.248 24.2429C188.34 24.0806 188.465 23.9509 188.623 23.8535C188.781 23.7562 188.96 23.6827 189.158 23.6331C189.359 23.5816 189.566 23.5444 189.78 23.5215C190.037 23.4947 190.246 23.4709 190.407 23.4499C190.567 23.427 190.683 23.3926 190.756 23.3468C190.83 23.2991 190.867 23.2256 190.867 23.1264V23.1092C190.867 22.8936 190.804 22.7266 190.676 22.6082C190.548 22.4899 190.364 22.4308 190.123 22.4308C189.869 22.4308 189.668 22.4861 189.519 22.5968C189.372 22.7075 189.273 22.8382 189.221 22.989L188.254 22.8516C188.33 22.5844 188.456 22.3611 188.632 22.1817C188.807 22.0004 189.022 21.8649 189.276 21.7752C189.53 21.6836 189.81 21.6378 190.117 21.6378C190.329 21.6378 190.54 21.6626 190.75 21.7122C190.96 21.7618 191.152 21.8439 191.325 21.9584C191.499 22.071 191.638 22.2246 191.743 22.4193C191.85 22.614 191.904 22.8573 191.904 23.1493V26.0922H190.908V25.4881H190.873C190.81 25.6103 190.721 25.7248 190.607 25.8317C190.494 25.9366 190.352 26.0215 190.18 26.0864C190.011 26.1494 189.811 26.1809 189.582 26.1809ZM189.851 25.4194C190.059 25.4194 190.24 25.3784 190.392 25.2963C190.545 25.2124 190.662 25.1017 190.744 24.9643C190.828 24.8268 190.87 24.677 190.87 24.5148V23.9967C190.838 24.0234 190.783 24.0482 190.704 24.0711C190.628 24.094 190.542 24.114 190.447 24.1312C190.351 24.1484 190.257 24.1637 190.163 24.177C190.07 24.1904 189.989 24.2018 189.92 24.2114C189.765 24.2324 189.627 24.2667 189.505 24.3144C189.383 24.3621 189.286 24.4289 189.216 24.5148C189.145 24.5988 189.11 24.7076 189.11 24.8412C189.11 25.032 189.179 25.1761 189.319 25.2734C189.458 25.3708 189.636 25.4194 189.851 25.4194ZM194.578 26.1695C194.232 26.1695 193.923 26.0807 193.65 25.9032C193.377 25.7257 193.161 25.4681 193.003 25.1303C192.845 24.7925 192.765 24.3822 192.765 23.8993C192.765 23.4108 192.846 22.9985 193.006 22.6626C193.168 22.3248 193.387 22.0701 193.661 21.8983C193.936 21.7246 194.243 21.6378 194.58 21.6378C194.838 21.6378 195.05 21.6817 195.216 21.7695C195.382 21.8554 195.514 21.9594 195.611 22.0815C195.708 22.2017 195.784 22.3153 195.837 22.4222H195.88V20.2293H196.919V26.0922H195.9V25.3994H195.837C195.784 25.5063 195.706 25.6198 195.605 25.7401C195.504 25.8584 195.37 25.9595 195.204 26.0435C195.038 26.1275 194.829 26.1695 194.578 26.1695ZM194.867 25.3192C195.086 25.3192 195.273 25.2601 195.428 25.1417C195.582 25.0215 195.7 24.8545 195.78 24.6408C195.86 24.427 195.9 24.178 195.9 23.8936C195.9 23.6092 195.86 23.3621 195.78 23.1522C195.702 22.9422 195.585 22.7791 195.431 22.6626C195.278 22.5462 195.09 22.488 194.867 22.488C194.636 22.488 194.443 22.5481 194.288 22.6684C194.134 22.7886 194.017 22.9546 193.939 23.1665C193.861 23.3783 193.822 23.6207 193.822 23.8936C193.822 24.1684 193.861 24.4137 193.939 24.6293C194.019 24.8431 194.137 25.012 194.291 25.136C194.448 25.2582 194.64 25.3192 194.867 25.3192ZM199.97 26.178C199.529 26.178 199.149 26.0864 198.828 25.9032C198.509 25.7181 198.264 25.4566 198.092 25.1188C197.92 24.7791 197.835 24.3793 197.835 23.9194C197.835 23.4671 197.92 23.0701 198.092 22.7285C198.266 22.385 198.508 22.1178 198.819 21.9269C199.13 21.7342 199.496 21.6378 199.916 21.6378C200.187 21.6378 200.442 21.6817 200.683 21.7695C200.925 21.8554 201.139 21.989 201.324 22.1703C201.511 22.3516 201.658 22.5825 201.765 22.863C201.872 23.1417 201.925 23.4737 201.925 23.8593V24.177H198.321V23.4785H200.932C200.93 23.28 200.887 23.1035 200.803 22.9489C200.719 22.7924 200.602 22.6693 200.451 22.5796C200.302 22.4899 200.129 22.4451 199.93 22.4451C199.718 22.4451 199.532 22.4966 199.372 22.5997C199.212 22.7008 199.087 22.8344 198.997 23.0004C198.909 23.1646 198.864 23.3449 198.862 23.5415V24.1512C198.862 24.407 198.909 24.6265 199.003 24.8097C199.096 24.991 199.227 25.1303 199.395 25.2276C199.563 25.323 199.759 25.3708 199.984 25.3708C200.135 25.3708 200.272 25.3498 200.394 25.3078C200.516 25.2639 200.622 25.2 200.712 25.116C200.801 25.032 200.869 24.928 200.915 24.8039L201.882 24.9127C201.821 25.1685 201.705 25.3918 201.533 25.5826C201.363 25.7715 201.146 25.9185 200.88 26.0235C200.615 26.1265 200.312 26.178 199.97 26.178ZM202.802 26.0922V21.695H203.807V22.4279H203.853C203.933 22.1741 204.07 21.9785 204.265 21.841C204.461 21.7017 204.686 21.6321 204.938 21.6321C204.995 21.6321 205.059 21.6349 205.129 21.6407C205.202 21.6445 205.262 21.6512 205.31 21.6607V22.614C205.266 22.5987 205.196 22.5853 205.101 22.5739C205.007 22.5605 204.917 22.5539 204.829 22.5539C204.64 22.5539 204.47 22.5949 204.319 22.677C204.17 22.7571 204.053 22.8688 203.967 23.0119C203.881 23.155 203.838 23.3201 203.838 23.5071V26.0922H202.802Z" fill="#011B25"/>
<line x1="162.64" y1="37.9783" x2="209.496" y2="37.9783" stroke="#011B25" stroke-width="0.503836"/>
</g>
<line x1="13" y1="38" x2="210" y2="38" stroke="#032B3A" stroke-width="2"/>
</g>
<defs>
<clipPath id="clip0_4_6435">
<rect width="224" height="117" fill="white"/>
</clipPath>
<clipPath id="clip1_4_6435">
<rect x="13" y="8" width="197" height="329.509" rx="8" fill="white"/>
</clipPath>
<clipPath id="clip2_4_6435">
<rect width="195.992" height="267.537" fill="white" transform="translate(13.5039 37.7264)"/>
</clipPath>
</defs>
</svg>
