<svg width="224" height="117" viewBox="0 0 224 117" fill="none" xmlns="http://www.w3.org/2000/svg">
<path d="M13 39C13 34.5817 16.5817 31 21 31H204C208.418 31 212 34.5817 212 39V79C212 83.4183 208.418 87 204 87H21C16.5817 87 13 83.4183 13 79V39Z" fill="white"/>
<mask id="path-2-outside-1_2_11843" maskUnits="userSpaceOnUse" x="21" y="39" width="183" height="41" fill="black">
<rect fill="white" x="21" y="39" width="183" height="41"/>
<path d="M21 39H204V79H21V39Z"/>
</mask>
<path d="M204 78H21V80H204V78Z" fill="#DADFE2" mask="url(#path-2-outside-1_2_11843)"/>
<mask id="path-4-inside-2_2_11843" fill="white">
<path d="M21 39H66V79H21V39Z"/>
</mask>
<path d="M66 75H21V83H66V75Z" fill="#388523" mask="url(#path-4-inside-2_2_11843)"/>
<path d="M29.9957 55.1307V53.3636H39.2798V55.1307H35.6832V65H33.5923V55.1307H29.9957ZM42.3026 65.1761C41.7495 65.1761 41.2514 65.0777 40.8082 64.8807C40.3688 64.6799 40.0204 64.3845 39.7628 63.9943C39.509 63.6042 39.3821 63.1231 39.3821 62.5511C39.3821 62.0587 39.473 61.6515 39.6548 61.3295C39.8366 61.0076 40.0848 60.75 40.3991 60.5568C40.7135 60.3636 41.0677 60.2178 41.4616 60.1193C41.8594 60.017 42.2704 59.9432 42.6946 59.8977C43.206 59.8447 43.6207 59.7973 43.9389 59.7557C44.2571 59.7102 44.4882 59.642 44.6321 59.5511C44.7798 59.4564 44.8537 59.3106 44.8537 59.1136V59.0795C44.8537 58.6515 44.7268 58.3201 44.473 58.0852C44.2192 57.8504 43.8537 57.733 43.3764 57.733C42.8726 57.733 42.473 57.8428 42.1776 58.0625C41.8859 58.2822 41.6889 58.5417 41.5866 58.8409L39.6662 58.5682C39.8177 58.0379 40.0677 57.5947 40.4162 57.2386C40.7647 56.8788 41.1908 56.6098 41.6946 56.4318C42.1984 56.25 42.7552 56.1591 43.3651 56.1591C43.7855 56.1591 44.2041 56.2083 44.6207 56.3068C45.0374 56.4053 45.4181 56.5682 45.7628 56.7955C46.1075 57.0189 46.384 57.3239 46.5923 57.7102C46.8045 58.0966 46.9105 58.5795 46.9105 59.1591V65H44.9332V63.8011H44.8651C44.7401 64.0436 44.5639 64.2708 44.3366 64.483C44.1132 64.6913 43.831 64.8598 43.4901 64.9886C43.1529 65.1136 42.7571 65.1761 42.3026 65.1761ZM42.8366 63.6648C43.2495 63.6648 43.6075 63.5833 43.9105 63.4205C44.2135 63.2538 44.4465 63.0341 44.6094 62.7614C44.776 62.4886 44.8594 62.1913 44.8594 61.8693V60.8409C44.795 60.8939 44.6851 60.9432 44.5298 60.9886C44.3783 61.0341 44.2079 61.0739 44.0185 61.108C43.8291 61.142 43.6416 61.1723 43.456 61.1989C43.2704 61.2254 43.1094 61.2481 42.973 61.267C42.6662 61.3087 42.3916 61.3769 42.1491 61.4716C41.9067 61.5663 41.7154 61.6989 41.5753 61.8693C41.4351 62.036 41.3651 62.2519 41.3651 62.517C41.3651 62.8958 41.5033 63.1818 41.7798 63.375C42.0563 63.5682 42.4086 63.6648 42.8366 63.6648ZM49.0696 65V53.3636H51.1264V57.7159H51.2116C51.3177 57.5038 51.4673 57.2784 51.6605 57.0398C51.8537 56.7973 52.1151 56.5909 52.4446 56.4205C52.7741 56.2462 53.1946 56.1591 53.706 56.1591C54.3802 56.1591 54.9882 56.3314 55.5298 56.6761C56.0753 57.017 56.5071 57.5227 56.8253 58.1932C57.1473 58.8598 57.3082 59.678 57.3082 60.6477C57.3082 61.6061 57.151 62.4205 56.8366 63.0909C56.5223 63.7614 56.0942 64.2727 55.5526 64.625C55.0109 64.9773 54.3973 65.1534 53.7116 65.1534C53.2116 65.1534 52.7969 65.0701 52.4673 64.9034C52.1378 64.7367 51.8726 64.536 51.6719 64.3011C51.4749 64.0625 51.3215 63.8371 51.2116 63.625H51.0923V65H49.0696ZM51.0866 60.6364C51.0866 61.2008 51.1662 61.6951 51.3253 62.1193C51.4882 62.5436 51.7211 62.875 52.0241 63.1136C52.331 63.3485 52.7022 63.4659 53.1378 63.4659C53.5923 63.4659 53.973 63.3447 54.2798 63.1023C54.5866 62.8561 54.8177 62.5208 54.973 62.0966C55.1321 61.6686 55.2116 61.1818 55.2116 60.6364C55.2116 60.0947 55.134 59.6136 54.9787 59.1932C54.8234 58.7727 54.5923 58.4432 54.2855 58.2045C53.9787 57.9659 53.5961 57.8466 53.1378 57.8466C52.6984 57.8466 52.3253 57.9621 52.0185 58.1932C51.7116 58.4242 51.4787 58.7481 51.3196 59.1648C51.1643 59.5814 51.0866 60.072 51.0866 60.6364Z" fill="#032B3A"/>
<path d="M98.9957 55.1307V53.3636H108.28V55.1307H104.683V65H102.592V55.1307H98.9957ZM111.303 65.1761C110.75 65.1761 110.251 65.0777 109.808 64.8807C109.369 64.6799 109.02 64.3845 108.763 63.9943C108.509 63.6042 108.382 63.1231 108.382 62.5511C108.382 62.0587 108.473 61.6515 108.655 61.3295C108.837 61.0076 109.085 60.75 109.399 60.5568C109.714 60.3636 110.068 60.2178 110.462 60.1193C110.859 60.017 111.27 59.9432 111.695 59.8977C112.206 59.8447 112.621 59.7973 112.939 59.7557C113.257 59.7102 113.488 59.642 113.632 59.5511C113.78 59.4564 113.854 59.3106 113.854 59.1136V59.0795C113.854 58.6515 113.727 58.3201 113.473 58.0852C113.219 57.8504 112.854 57.733 112.376 57.733C111.873 57.733 111.473 57.8428 111.178 58.0625C110.886 58.2822 110.689 58.5417 110.587 58.8409L108.666 58.5682C108.818 58.0379 109.068 57.5947 109.416 57.2386C109.765 56.8788 110.191 56.6098 110.695 56.4318C111.198 56.25 111.755 56.1591 112.365 56.1591C112.786 56.1591 113.204 56.2083 113.621 56.3068C114.037 56.4053 114.418 56.5682 114.763 56.7955C115.107 57.0189 115.384 57.3239 115.592 57.7102C115.804 58.0966 115.911 58.5795 115.911 59.1591V65H113.933V63.8011H113.865C113.74 64.0436 113.564 64.2708 113.337 64.483C113.113 64.6913 112.831 64.8598 112.49 64.9886C112.153 65.1136 111.757 65.1761 111.303 65.1761ZM111.837 63.6648C112.25 63.6648 112.607 63.5833 112.911 63.4205C113.214 63.2538 113.446 63.0341 113.609 62.7614C113.776 62.4886 113.859 62.1913 113.859 61.8693V60.8409C113.795 60.8939 113.685 60.9432 113.53 60.9886C113.378 61.0341 113.208 61.0739 113.018 61.108C112.829 61.142 112.642 61.1723 112.456 61.1989C112.27 61.2254 112.109 61.2481 111.973 61.267C111.666 61.3087 111.392 61.3769 111.149 61.4716C110.907 61.5663 110.715 61.6989 110.575 61.8693C110.435 62.036 110.365 62.2519 110.365 62.517C110.365 62.8958 110.503 63.1818 110.78 63.375C111.056 63.5682 111.409 63.6648 111.837 63.6648ZM118.07 65V53.3636H120.126V57.7159H120.212C120.318 57.5038 120.467 57.2784 120.661 57.0398C120.854 56.7973 121.115 56.5909 121.445 56.4205C121.774 56.2462 122.195 56.1591 122.706 56.1591C123.38 56.1591 123.988 56.3314 124.53 56.6761C125.075 57.017 125.507 57.5227 125.825 58.1932C126.147 58.8598 126.308 59.678 126.308 60.6477C126.308 61.6061 126.151 62.4205 125.837 63.0909C125.522 63.7614 125.094 64.2727 124.553 64.625C124.011 64.9773 123.397 65.1534 122.712 65.1534C122.212 65.1534 121.797 65.0701 121.467 64.9034C121.138 64.7367 120.873 64.536 120.672 64.3011C120.475 64.0625 120.321 63.8371 120.212 63.625H120.092V65H118.07ZM120.087 60.6364C120.087 61.2008 120.166 61.6951 120.325 62.1193C120.488 62.5436 120.721 62.875 121.024 63.1136C121.331 63.3485 121.702 63.4659 122.138 63.4659C122.592 63.4659 122.973 63.3447 123.28 63.1023C123.587 62.8561 123.818 62.5208 123.973 62.0966C124.132 61.6686 124.212 61.1818 124.212 60.6364C124.212 60.0947 124.134 59.6136 123.979 59.1932C123.823 58.7727 123.592 58.4432 123.286 58.2045C122.979 57.9659 122.596 57.8466 122.138 57.8466C121.698 57.8466 121.325 57.9621 121.018 58.1932C120.712 58.4242 120.479 58.7481 120.32 59.1648C120.164 59.5814 120.087 60.072 120.087 60.6364Z" fill="#627A84"/>
<path d="M167.996 55.1307V53.3636H177.28V55.1307H173.683V65H171.592V55.1307H167.996ZM180.303 65.1761C179.75 65.1761 179.251 65.0777 178.808 64.8807C178.369 64.6799 178.02 64.3845 177.763 63.9943C177.509 63.6042 177.382 63.1231 177.382 62.5511C177.382 62.0587 177.473 61.6515 177.655 61.3295C177.837 61.0076 178.085 60.75 178.399 60.5568C178.714 60.3636 179.068 60.2178 179.462 60.1193C179.859 60.017 180.27 59.9432 180.695 59.8977C181.206 59.8447 181.621 59.7973 181.939 59.7557C182.257 59.7102 182.488 59.642 182.632 59.5511C182.78 59.4564 182.854 59.3106 182.854 59.1136V59.0795C182.854 58.6515 182.727 58.3201 182.473 58.0852C182.219 57.8504 181.854 57.733 181.376 57.733C180.873 57.733 180.473 57.8428 180.178 58.0625C179.886 58.2822 179.689 58.5417 179.587 58.8409L177.666 58.5682C177.818 58.0379 178.068 57.5947 178.416 57.2386C178.765 56.8788 179.191 56.6098 179.695 56.4318C180.198 56.25 180.755 56.1591 181.365 56.1591C181.786 56.1591 182.204 56.2083 182.621 56.3068C183.037 56.4053 183.418 56.5682 183.763 56.7955C184.107 57.0189 184.384 57.3239 184.592 57.7102C184.804 58.0966 184.911 58.5795 184.911 59.1591V65H182.933V63.8011H182.865C182.74 64.0436 182.564 64.2708 182.337 64.483C182.113 64.6913 181.831 64.8598 181.49 64.9886C181.153 65.1136 180.757 65.1761 180.303 65.1761ZM180.837 63.6648C181.25 63.6648 181.607 63.5833 181.911 63.4205C182.214 63.2538 182.446 63.0341 182.609 62.7614C182.776 62.4886 182.859 62.1913 182.859 61.8693V60.8409C182.795 60.8939 182.685 60.9432 182.53 60.9886C182.378 61.0341 182.208 61.0739 182.018 61.108C181.829 61.142 181.642 61.1723 181.456 61.1989C181.27 61.2254 181.109 61.2481 180.973 61.267C180.666 61.3087 180.392 61.3769 180.149 61.4716C179.907 61.5663 179.715 61.6989 179.575 61.8693C179.435 62.036 179.365 62.2519 179.365 62.517C179.365 62.8958 179.503 63.1818 179.78 63.375C180.056 63.5682 180.409 63.6648 180.837 63.6648ZM187.07 65V53.3636H189.126V57.7159H189.212C189.318 57.5038 189.467 57.2784 189.661 57.0398C189.854 56.7973 190.115 56.5909 190.445 56.4205C190.774 56.2462 191.195 56.1591 191.706 56.1591C192.38 56.1591 192.988 56.3314 193.53 56.6761C194.075 57.017 194.507 57.5227 194.825 58.1932C195.147 58.8598 195.308 59.678 195.308 60.6477C195.308 61.6061 195.151 62.4205 194.837 63.0909C194.522 63.7614 194.094 64.2727 193.553 64.625C193.011 64.9773 192.397 65.1534 191.712 65.1534C191.212 65.1534 190.797 65.0701 190.467 64.9034C190.138 64.7367 189.873 64.536 189.672 64.3011C189.475 64.0625 189.321 63.8371 189.212 63.625H189.092V65H187.07ZM189.087 60.6364C189.087 61.2008 189.166 61.6951 189.325 62.1193C189.488 62.5436 189.721 62.875 190.024 63.1136C190.331 63.3485 190.702 63.4659 191.138 63.4659C191.592 63.4659 191.973 63.3447 192.28 63.1023C192.587 62.8561 192.818 62.5208 192.973 62.0966C193.132 61.6686 193.212 61.1818 193.212 60.6364C193.212 60.0947 193.134 59.6136 192.979 59.1932C192.823 58.7727 192.592 58.4432 192.286 58.2045C191.979 57.9659 191.596 57.8466 191.138 57.8466C190.698 57.8466 190.325 57.9621 190.018 58.1932C189.712 58.4242 189.479 58.7481 189.32 59.1648C189.164 59.5814 189.087 60.072 189.087 60.6364Z" fill="#627A84"/>
</svg>
