<svg width="224" height="117" viewBox="0 0 224 117" fill="none" xmlns="http://www.w3.org/2000/svg">
<path d="M26 19C26 16.7909 27.7909 15 30 15H194C196.209 15 198 16.7909 198 19V99C198 101.209 196.209 103 194 103H30C27.7909 103 26 101.209 26 99V19Z" fill="white"/>
<path d="M34 27C34 24.7909 35.7909 23 38 23H62C64.2091 23 66 24.7909 66 27V51C66 53.2091 64.2091 55 62 55H38C35.7909 55 34 53.2091 34 51V27Z" fill="#DADFE2"/>
<path d="M74 27C74 24.7909 75.7909 23 78 23H102C104.209 23 106 24.7909 106 27V51C106 53.2091 104.209 55 102 55H78C75.7909 55 74 53.2091 74 51V27Z" fill="#DADFE2"/>
<path d="M114 27C114 24.7909 115.791 23 118 23H142C144.209 23 146 24.7909 146 27V51C146 53.2091 144.209 55 142 55H118C115.791 55 114 53.2091 114 51V27Z" fill="#DADFE2"/>
<path d="M154 27C154 24.7909 155.791 23 158 23H182C184.209 23 186 24.7909 186 27V51C186 53.2091 184.209 55 182 55H158C155.791 55 154 53.2091 154 51V27Z" fill="#DADFE2"/>
<path d="M34 67C34 64.7909 35.7909 63 38 63H62C64.2091 63 66 64.7909 66 67V91C66 93.2091 64.2091 95 62 95H38C35.7909 95 34 93.2091 34 91V67Z" fill="#DADFE2"/>
<path d="M74 67C74 64.7909 75.7909 63 78 63H102C104.209 63 106 64.7909 106 67V91C106 93.2091 104.209 95 102 95H78C75.7909 95 74 93.2091 74 91V67Z" fill="#DADFE2"/>
</svg>
