<svg width="224" height="117" viewBox="0 0 224 117" fill="none" xmlns="http://www.w3.org/2000/svg">
<g filter="url(#filter0_dd_2_11882)">
<rect x="29" y="35" width="166" height="48" rx="4" fill="#032B3A"/>
<path d="M49.7027 59.0288C49.6104 58.9333 49.5001 58.8571 49.3781 58.8047C49.2561 58.7523 49.1249 58.7247 48.9921 58.7236C48.8593 58.7224 48.7276 58.7477 48.6047 58.798C48.4818 58.8483 48.3702 58.9225 48.2763 59.0164C48.1824 59.1103 48.1081 59.222 48.0579 59.3449C48.0076 59.4677 47.9823 59.5994 47.9834 59.7322C47.9846 59.865 48.0122 59.9962 48.0646 60.1182C48.117 60.2402 48.1932 60.3506 48.2887 60.4428L52.9877 65.7357C53.1752 65.9232 53.4295 66.0285 53.6947 66.0285C53.9598 66.0285 54.2142 65.9232 54.4017 65.7357L65.6945 54.4428C65.7901 54.3505 65.8662 54.2402 65.9187 54.1182C65.9711 53.9962 65.9986 53.865 65.9998 53.7322C66.001 53.5994 65.9757 53.4677 65.9254 53.3448C65.8751 53.2219 65.8008 53.1103 65.7069 53.0164C65.6131 52.9225 65.5014 52.8483 65.3785 52.798C65.2556 52.7477 65.1239 52.7224 64.9912 52.7235C64.8584 52.7247 64.7272 52.7523 64.6052 52.8047C64.4831 52.8571 64.3728 52.9333 64.2806 53.0288L53.6947 63.6147L49.7027 59.0288Z" fill="#388523"/>
<path d="M85.7727 54.1136V52.8636H94.5V54.1136H90.8409V64.5H89.4318V54.1136H85.7727ZM98.7727 64.6818C97.9848 64.6818 97.2936 64.4943 96.6989 64.1193C96.108 63.7443 95.6458 63.2197 95.3125 62.5455C94.983 61.8712 94.8182 61.0833 94.8182 60.1818C94.8182 59.2727 94.983 58.4792 95.3125 57.8011C95.6458 57.1231 96.108 56.5966 96.6989 56.2216C97.2936 55.8466 97.9848 55.6591 98.7727 55.6591C99.5606 55.6591 100.25 55.8466 100.841 56.2216C101.436 56.5966 101.898 57.1231 102.227 57.8011C102.561 58.4792 102.727 59.2727 102.727 60.1818C102.727 61.0833 102.561 61.8712 102.227 62.5455C101.898 63.2197 101.436 63.7443 100.841 64.1193C100.25 64.4943 99.5606 64.6818 98.7727 64.6818ZM98.7727 63.4773C99.3712 63.4773 99.8636 63.3239 100.25 63.017C100.636 62.7102 100.922 62.3068 101.108 61.8068C101.294 61.3068 101.386 60.7652 101.386 60.1818C101.386 59.5985 101.294 59.0549 101.108 58.5511C100.922 58.0473 100.636 57.6402 100.25 57.3295C99.8636 57.0189 99.3712 56.8636 98.7727 56.8636C98.1742 56.8636 97.6818 57.0189 97.2955 57.3295C96.9091 57.6402 96.6231 58.0473 96.4375 58.5511C96.2519 59.0549 96.1591 59.5985 96.1591 60.1818C96.1591 60.7652 96.2519 61.3068 96.4375 61.8068C96.6231 62.3068 96.9091 62.7102 97.2955 63.017C97.6818 63.3239 98.1742 63.4773 98.7727 63.4773ZM107.342 64.7045C106.789 64.7045 106.287 64.6004 105.837 64.392C105.386 64.1799 105.028 63.875 104.763 63.4773C104.498 63.0758 104.365 62.5909 104.365 62.0227C104.365 61.5227 104.464 61.1174 104.661 60.8068C104.857 60.4924 105.121 60.2462 105.45 60.0682C105.78 59.8902 106.143 59.7576 106.541 59.6705C106.943 59.5795 107.346 59.5076 107.751 59.4545C108.282 59.3864 108.712 59.3352 109.041 59.3011C109.375 59.2633 109.617 59.2008 109.768 59.1136C109.924 59.0265 110.001 58.875 110.001 58.6591V58.6136C110.001 58.053 109.848 57.6174 109.541 57.3068C109.238 56.9962 108.778 56.8409 108.161 56.8409C107.52 56.8409 107.018 56.9811 106.655 57.2614C106.291 57.5417 106.036 57.8409 105.888 58.1591L104.615 57.7045C104.842 57.1742 105.145 56.7614 105.524 56.4659C105.907 56.1667 106.323 55.9583 106.774 55.8409C107.229 55.7197 107.676 55.6591 108.115 55.6591C108.395 55.6591 108.717 55.6932 109.081 55.7614C109.448 55.8258 109.803 55.9602 110.143 56.1648C110.488 56.3693 110.774 56.678 111.001 57.0909C111.229 57.5038 111.342 58.0568 111.342 58.75V64.5H110.001V63.3182H109.933C109.842 63.5076 109.691 63.7102 109.479 63.9261C109.267 64.142 108.984 64.3258 108.632 64.4773C108.28 64.6288 107.85 64.7045 107.342 64.7045ZM107.547 63.5C108.077 63.5 108.524 63.3958 108.888 63.1875C109.255 62.9792 109.532 62.7102 109.717 62.3807C109.907 62.0511 110.001 61.7045 110.001 61.3409V60.1136C109.945 60.1818 109.82 60.2443 109.626 60.3011C109.437 60.3542 109.217 60.4015 108.967 60.4432C108.721 60.4811 108.481 60.5152 108.246 60.5455C108.015 60.572 107.827 60.5947 107.683 60.6136C107.335 60.6591 107.009 60.733 106.706 60.8352C106.407 60.9337 106.164 61.0833 105.979 61.2841C105.797 61.4811 105.706 61.75 105.706 62.0909C105.706 62.5568 105.878 62.9091 106.223 63.1477C106.571 63.3826 107.013 63.5 107.547 63.5ZM119.972 57.7273L118.767 58.0682C118.691 57.8674 118.58 57.6723 118.432 57.483C118.288 57.2898 118.091 57.1307 117.841 57.0057C117.591 56.8807 117.271 56.8182 116.881 56.8182C116.347 56.8182 115.902 56.9413 115.545 57.1875C115.193 57.4299 115.017 57.7386 115.017 58.1136C115.017 58.447 115.138 58.7102 115.381 58.9034C115.623 59.0966 116.002 59.2576 116.517 59.3864L117.812 59.7045C118.593 59.8939 119.174 60.1837 119.557 60.5739C119.939 60.9602 120.131 61.4583 120.131 62.0682C120.131 62.5682 119.987 63.0152 119.699 63.4091C119.415 63.803 119.017 64.1136 118.506 64.3409C117.994 64.5682 117.4 64.6818 116.722 64.6818C115.831 64.6818 115.095 64.4886 114.511 64.1023C113.928 63.7159 113.559 63.1515 113.403 62.4091L114.676 62.0909C114.797 62.5606 115.027 62.9129 115.364 63.1477C115.705 63.3826 116.15 63.5 116.699 63.5C117.324 63.5 117.82 63.3674 118.188 63.1023C118.559 62.8333 118.744 62.5114 118.744 62.1364C118.744 61.8333 118.638 61.5795 118.426 61.375C118.214 61.1667 117.888 61.0114 117.449 60.9091L115.994 60.5682C115.195 60.3788 114.608 60.0852 114.233 59.6875C113.862 59.286 113.676 58.7841 113.676 58.1818C113.676 57.6894 113.814 57.2538 114.091 56.875C114.371 56.4962 114.752 56.1989 115.233 55.983C115.718 55.767 116.267 55.6591 116.881 55.6591C117.744 55.6591 118.422 55.8485 118.915 56.2273C119.411 56.6061 119.763 57.1061 119.972 57.7273ZM125.945 55.7727V56.9091H121.422V55.7727H125.945ZM122.74 53.6818H124.081V62C124.081 62.3788 124.136 62.6629 124.246 62.8523C124.359 63.0379 124.503 63.1629 124.678 63.2273C124.856 63.2879 125.043 63.3182 125.24 63.3182C125.388 63.3182 125.509 63.3106 125.604 63.2955C125.698 63.2765 125.774 63.2614 125.831 63.25L126.104 64.4545C126.013 64.4886 125.886 64.5227 125.723 64.5568C125.56 64.5947 125.354 64.6136 125.104 64.6136C124.725 64.6136 124.354 64.5322 123.99 64.3693C123.63 64.2064 123.331 63.9583 123.092 63.625C122.857 63.2917 122.74 62.8712 122.74 62.3636V53.6818Z" fill="white"/>
<path d="M161 57.5861L155.707 52.2931C155.519 52.1109 155.266 52.0101 155.004 52.0124C154.742 52.0147 154.491 52.1199 154.306 52.3053C154.12 52.4907 154.015 52.7415 154.013 53.0037C154.01 53.2659 154.111 53.5185 154.293 53.7071L159.586 59.0001L154.293 64.2931C154.111 64.4817 154.01 64.7343 154.013 64.9965C154.015 65.2587 154.12 65.5095 154.306 65.6949C154.491 65.8803 154.742 65.9855 155.004 65.9878C155.266 65.9901 155.519 65.8893 155.707 65.7071L161 60.4141L166.293 65.7071C166.482 65.8893 166.735 65.9901 166.997 65.9878C167.259 65.9855 167.51 65.8803 167.695 65.6949C167.881 65.5095 167.986 65.2587 167.988 64.9965C167.99 64.7343 167.89 64.4817 167.707 64.2931L162.414 59.0001L167.707 53.7071C167.803 53.6148 167.879 53.5045 167.932 53.3825C167.984 53.2605 168.012 53.1293 168.013 52.9965C168.014 52.8637 167.989 52.732 167.938 52.6091C167.888 52.4862 167.814 52.3746 167.72 52.2807C167.626 52.1868 167.514 52.1125 167.391 52.0623C167.268 52.012 167.137 51.9867 167.004 51.9878C166.871 51.989 166.74 52.0166 166.618 52.069C166.496 52.1214 166.386 52.1976 166.293 52.2931L161 57.5861Z" fill="#233D48"/>
</g>
<defs>
<filter id="filter0_dd_2_11882" x="13" y="27" width="198" height="88" filterUnits="userSpaceOnUse" color-interpolation-filters="sRGB">
<feFlood flood-opacity="0" result="BackgroundImageFix"/>
<feColorMatrix in="SourceAlpha" type="matrix" values="0 0 0 0 0 0 0 0 0 0 0 0 0 0 0 0 0 0 127 0" result="hardAlpha"/>
<feOffset dy="16"/>
<feGaussianBlur stdDeviation="8"/>
<feColorMatrix type="matrix" values="0 0 0 0 0 0 0 0 0 0 0 0 0 0 0 0 0 0 0.075 0"/>
<feBlend mode="normal" in2="BackgroundImageFix" result="effect1_dropShadow_2_11882"/>
<feColorMatrix in="SourceAlpha" type="matrix" values="0 0 0 0 0 0 0 0 0 0 0 0 0 0 0 0 0 0 127 0" result="hardAlpha"/>
<feOffset/>
<feGaussianBlur stdDeviation="4"/>
<feColorMatrix type="matrix" values="0 0 0 0 0 0 0 0 0 0 0 0 0 0 0 0 0 0 0.05 0"/>
<feBlend mode="normal" in2="effect1_dropShadow_2_11882" result="effect2_dropShadow_2_11882"/>
<feBlend mode="normal" in="SourceGraphic" in2="effect2_dropShadow_2_11882" result="shape"/>
</filter>
</defs>
</svg>
