<svg width="224" height="117" viewBox="0 0 224 117" fill="none" xmlns="http://www.w3.org/2000/svg">
<path d="M73 46C73 41.5817 76.5817 38 81 38H144C148.418 38 152 41.5817 152 46V72C152 76.4183 148.418 80 144 80H81C76.5817 80 73 76.4183 73 72V46Z" fill="#032B3A"/>
<path d="M89.5568 55.3643V53.8182H97.6804V55.3643H94.5334V64H92.7038V55.3643H89.5568ZM101.39 64.1491C100.645 64.1491 99.9984 63.9851 99.4515 63.657C98.9047 63.3288 98.4804 62.8698 98.1788 62.2798C97.8805 61.6899 97.7314 61.0005 97.7314 60.2116C97.7314 59.4228 97.8805 58.7318 98.1788 58.1385C98.4804 57.5452 98.9047 57.0845 99.4515 56.7564C99.9984 56.4283 100.645 56.2642 101.39 56.2642C102.136 56.2642 102.782 56.4283 103.329 56.7564C103.876 57.0845 104.299 57.5452 104.597 58.1385C104.899 58.7318 105.05 59.4228 105.05 60.2116C105.05 61.0005 104.899 61.6899 104.597 62.2798C104.299 62.8698 103.876 63.3288 103.329 63.657C102.782 63.9851 102.136 64.1491 101.39 64.1491ZM101.4 62.7074C101.805 62.7074 102.143 62.5964 102.415 62.3743C102.686 62.1489 102.889 61.8473 103.021 61.4695C103.157 61.0916 103.225 60.6707 103.225 60.2067C103.225 59.7393 103.157 59.3168 103.021 58.9389C102.889 58.5578 102.686 58.2545 102.415 58.0291C102.143 57.8037 101.805 57.6911 101.4 57.6911C100.986 57.6911 100.641 57.8037 100.366 58.0291C100.095 58.2545 99.8907 58.5578 99.7548 58.9389C99.6222 59.3168 99.5559 59.7393 99.5559 60.2067C99.5559 60.6707 99.6222 61.0916 99.7548 61.4695C99.8907 61.8473 100.095 62.1489 100.366 62.3743C100.641 62.5964 100.986 62.7074 101.4 62.7074ZM109.908 64.1491C109.162 64.1491 108.516 63.9851 107.969 63.657C107.422 63.3288 106.998 62.8698 106.696 62.2798C106.398 61.6899 106.249 61.0005 106.249 60.2116C106.249 59.4228 106.398 58.7318 106.696 58.1385C106.998 57.5452 107.422 57.0845 107.969 56.7564C108.516 56.4283 109.162 56.2642 109.908 56.2642C110.654 56.2642 111.3 56.4283 111.847 56.7564C112.394 57.0845 112.816 57.5452 113.115 58.1385C113.416 58.7318 113.567 59.4228 113.567 60.2116C113.567 61.0005 113.416 61.6899 113.115 62.2798C112.816 62.8698 112.394 63.3288 111.847 63.657C111.3 63.9851 110.654 64.1491 109.908 64.1491ZM109.918 62.7074C110.322 62.7074 110.66 62.5964 110.932 62.3743C111.204 62.1489 111.406 61.8473 111.539 61.4695C111.675 61.0916 111.743 60.6707 111.743 60.2067C111.743 59.7393 111.675 59.3168 111.539 58.9389C111.406 58.5578 111.204 58.2545 110.932 58.0291C110.66 57.8037 110.322 57.6911 109.918 57.6911C109.504 57.6911 109.159 57.8037 108.884 58.0291C108.612 58.2545 108.408 58.5578 108.272 58.9389C108.14 59.3168 108.074 59.7393 108.074 60.2067C108.074 60.6707 108.14 61.0916 108.272 61.4695C108.408 61.8473 108.612 62.1489 108.884 62.3743C109.159 62.5964 109.504 62.7074 109.918 62.7074ZM116.894 53.8182V64H115.095V53.8182H116.894ZM122.558 56.3636V57.7557H118.168V56.3636H122.558ZM119.252 54.5341H121.052V61.7031C121.052 61.9451 121.088 62.1307 121.161 62.2599C121.237 62.3859 121.337 62.4721 121.46 62.5185C121.582 62.5649 121.718 62.5881 121.867 62.5881C121.98 62.5881 122.083 62.5798 122.175 62.5632C122.272 62.5466 122.344 62.5317 122.394 62.5185L122.697 63.9254C122.601 63.9586 122.464 63.995 122.285 64.0348C122.109 64.0746 121.894 64.0978 121.638 64.1044C121.188 64.1177 120.782 64.0497 120.42 63.9006C120.059 63.7481 119.772 63.5128 119.56 63.1946C119.352 62.8764 119.249 62.4787 119.252 62.0014V54.5341ZM124.063 64V56.3636H125.863V64H124.063ZM124.968 55.2798C124.683 55.2798 124.438 55.1854 124.232 54.9964C124.027 54.8042 123.924 54.5739 123.924 54.3054C123.924 54.0336 124.027 53.8033 124.232 53.6143C124.438 53.4221 124.683 53.326 124.968 53.326C125.257 53.326 125.502 53.4221 125.704 53.6143C125.91 53.8033 126.012 54.0336 126.012 54.3054C126.012 54.5739 125.91 54.8042 125.704 54.9964C125.502 55.1854 125.257 55.2798 124.968 55.2798ZM127.714 66.8636V56.3636H129.484V57.6264H129.588C129.681 57.4408 129.812 57.2436 129.981 57.0348C130.15 56.8227 130.379 56.642 130.667 56.4929C130.955 56.3404 131.323 56.2642 131.771 56.2642C132.361 56.2642 132.893 56.415 133.366 56.7166C133.844 57.0149 134.222 57.4574 134.5 58.044C134.782 58.6274 134.923 59.3433 134.923 60.1918C134.923 61.0303 134.785 61.7429 134.51 62.3295C134.235 62.9162 133.86 63.3636 133.386 63.6719C132.912 63.9801 132.375 64.1342 131.776 64.1342C131.338 64.1342 130.975 64.0613 130.687 63.9155C130.398 63.7696 130.166 63.594 129.991 63.3885C129.818 63.1797 129.684 62.9825 129.588 62.7969H129.513V66.8636H127.714ZM129.479 60.1818C129.479 60.6757 129.548 61.1082 129.688 61.4794C129.83 61.8506 130.034 62.1406 130.299 62.3494C130.567 62.5549 130.892 62.6577 131.273 62.6577C131.671 62.6577 132.004 62.5516 132.273 62.3395C132.541 62.1241 132.743 61.8307 132.879 61.4595C133.018 61.085 133.088 60.6591 133.088 60.1818C133.088 59.7079 133.02 59.2869 132.884 58.919C132.748 58.5511 132.546 58.2628 132.278 58.054C132.009 57.8452 131.674 57.7408 131.273 57.7408C130.889 57.7408 130.562 57.8419 130.294 58.044C130.026 58.2462 129.822 58.5296 129.683 58.8942C129.547 59.2588 129.479 59.688 129.479 60.1818Z" fill="white"/>
<path d="M120.071 78.8579L113 85.929L105.929 78.8579H120.071Z" fill="#032B3A"/>
</svg>
