<svg aria-hidden="true" style="position: absolute; width: 0; height: 0; overflow: hidden;" version="1.1" xmlns="http://www.w3.org/2000/svg" xmlns:xlink="http://www.w3.org/1999/xlink">
<defs>
<symbol id="icon--gift" viewBox="0 0 24 24">
<title>gift</title>
<path d="M6 5.5c0-1.933 1.567-3.5 3.5-3.5 1.183 0 2.229 0.587 2.863 1.486 0.471-0.307 1.033-0.486 1.637-0.486 1.657 0 3 1.343 3 3 0 0.351-0.060 0.687-0.171 1h4.171c0.552 0 1 0.448 1 1v4c0 0.552-0.448 1-1 1h-1v7c0 1.105-0.895 2-2 2h-12c-1.105 0-2-0.895-2-2v-7h-1c-0.552 0-1-0.448-1-1v-4c0-0.552 0.448-1 1-1h3.337c-0.216-0.455-0.337-0.963-0.337-1.5zM13 20h5v-7h-5v7zM11 13h-5v7h5v-7zM13 11h7v-2h-7v2zM11 9h-7v2h7v-2zM11 7v-1.5c0-0.828-0.672-1.5-1.5-1.5s-1.5 0.672-1.5 1.5 0.672 1.5 1.5 1.5h1.5zM13 6v1h1c0.552 0 1-0.448 1-1s-0.448-1-1-1c-0.552 0-1 0.448-1 1z"></path>
</symbol>
<symbol id="icon--recurring" viewBox="0 0 24 24">
<title>recurring</title>
<path d="M7 3c-0.552 0-1 0.448-1 1v1h-1c-1.105 0-2 0.895-2 2v9c0 1.105 0.895 2 2 2h11c1.105 0 2-0.895 2-2v-9c0-1.105-0.895-2-2-2h-1v-1c0-0.552-0.448-1-1-1s-1 0.448-1 1v1h-5v-1c0-0.552-0.448-1-1-1zM16 7v2h-11v-2h11zM5 16v-5h11v5h-11z"></path>
<path d="M7 21c-1.105 0-2-0.895-2-2h13c0.552 0 1-0.448 1-1v-11c1.105 0 2 0.895 2 2v10c0 1.105-0.895 2-2 2h-12z"></path>
</symbol>
<symbol id="icon--address" viewBox="0 0 24 24">
<title>address</title>
<path d="M12.774 21.601c-0.193 0.266-0.484 0.399-0.774 0.399s-0.581-0.133-0.774-0.399c-1.821-2.508-6.226-8.534-6.226-11.601 0-3.866 3.134-7 7-7s7 3.134 7 7c0 3.067-4.405 9.093-6.226 11.601zM12 19.5c0 0 5-6.739 5-9.5s-2.239-5-5-5c-2.761 0-5 2.239-5 5s5 9.5 5 9.5z"></path>
<path d="M14 10c0 1.105-0.895 2-2 2s-2-0.895-2-2c0-1.105 0.895-2 2-2s2 0.895 2 2z"></path>
</symbol>
<symbol id="icon--cross" viewBox="0 0 24 24">
<title>cross</title>
<path d="M12 10.586l-5.293-5.293c-0.189-0.182-0.441-0.283-0.703-0.281s-0.513 0.107-0.698 0.293c-0.185 0.185-0.291 0.436-0.293 0.698s0.099 0.515 0.281 0.703l5.293 5.293-5.293 5.293c-0.182 0.189-0.283 0.441-0.281 0.703s0.107 0.513 0.293 0.698c0.185 0.185 0.436 0.291 0.698 0.293s0.515-0.099 0.703-0.281l5.293-5.293 5.293 5.293c0.189 0.182 0.441 0.283 0.703 0.281s0.513-0.108 0.698-0.293c0.185-0.185 0.291-0.436 0.293-0.698s-0.099-0.515-0.281-0.703l-5.293-5.293 5.293-5.293c0.096-0.092 0.172-0.203 0.224-0.325s0.080-0.253 0.081-0.386c0.001-0.133-0.024-0.264-0.074-0.387s-0.125-0.235-0.218-0.328c-0.094-0.094-0.206-0.168-0.328-0.218s-0.255-0.076-0.387-0.074-0.264 0.029-0.386 0.081c-0.122 0.052-0.232 0.129-0.325 0.224l-5.293 5.293z"></path>
</symbol>
<symbol id="icon--list" viewBox="0 0 24 24">
<title>list</title>
<path d="M19.278 10.617h-14.485c-0.666 0-1.207 0.541-1.207 1.207s0.541 1.207 1.207 1.207h14.485c0.668 0 1.207-0.541 1.207-1.207s-0.539-1.207-1.207-1.207zM4.793 8.203h14.485c0.668 0 1.207-0.541 1.207-1.207s-0.539-1.207-1.207-1.207h-14.485c-0.666 0-1.207 0.541-1.207 1.207s0.541 1.207 1.207 1.207zM19.278 15.445h-14.485c-0.666 0-1.207 0.539-1.207 1.207s0.541 1.207 1.207 1.207h14.485c0.668 0 1.207-0.539 1.207-1.207s-0.539-1.207-1.207-1.207z"></path>
</symbol>
<symbol id="icon--arrowLeft" viewBox="0 0 24 24">
<title>arrowLeft</title>
<path d="M15.209 15.797c0.195 0.195 0.292 0.451 0.291 0.707s-0.098 0.51-0.292 0.704c-0.194 0.195-0.449 0.292-0.704 0.292-0.256 0-0.512-0.097-0.707-0.292l-5.004-5c-0.195-0.195-0.293-0.451-0.293-0.708s0.098-0.512 0.293-0.708l5-5c0.195-0.195 0.451-0.293 0.707-0.292 0.255 0 0.509 0.098 0.704 0.292s0.292 0.449 0.292 0.704c0 0.256-0.097 0.512-0.291 0.707l-4.289 4.297 4.293 4.297z"></path>
</symbol>
<symbol id="icon--arrowDown" viewBox="0 0 24 24">
<title>arrowDown</title>
<path d="M7.703 8.291c-0.195-0.195-0.451-0.292-0.707-0.291s-0.51 0.098-0.704 0.292-0.292 0.449-0.292 0.704c-0 0.256 0.097 0.512 0.292 0.707l5 5.004c0.195 0.195 0.451 0.293 0.708 0.293s0.512-0.098 0.708-0.293l5-5c0.195-0.195 0.293-0.451 0.292-0.707-0-0.255-0.098-0.509-0.292-0.704s-0.449-0.292-0.704-0.292c-0.256-0-0.512 0.097-0.707 0.291l-4.297 4.289-4.297-4.293z"></path>
</symbol>
<symbol id="icon--arrowUp" viewBox="0 0 24 24">
<title>arrowUp</title>
<path d="M16.297 14.709c0.195 0.195 0.451 0.292 0.707 0.291s0.51-0.098 0.704-0.292c0.195-0.194 0.292-0.449 0.292-0.704 0-0.256-0.097-0.512-0.292-0.707l-5-5.004c-0.195-0.195-0.451-0.293-0.708-0.293s-0.512 0.098-0.708 0.293l-5 5c-0.195 0.195-0.293 0.451-0.292 0.707 0 0.255 0.098 0.509 0.292 0.704s0.449 0.292 0.704 0.292c0.256 0 0.512-0.097 0.707-0.291l4.297-4.289 4.297 4.293z"></path>
</symbol>
<symbol id="icon--arrowRight" viewBox="0 0 24 24">
<title>arrowRight</title>
<path d="M8.791 15.797c-0.195 0.195-0.292 0.451-0.291 0.707s0.098 0.51 0.292 0.704c0.194 0.195 0.449 0.292 0.704 0.292 0.256 0 0.512-0.097 0.707-0.292l5.004-5c0.195-0.195 0.293-0.451 0.293-0.708s-0.098-0.512-0.293-0.708l-5-5c-0.195-0.195-0.451-0.293-0.707-0.292-0.255 0-0.509 0.098-0.704 0.292s-0.292 0.449-0.292 0.704c-0 0.256 0.097 0.512 0.291 0.707l4.289 4.297-4.293 4.297z"></path>
</symbol>
<symbol id="icon--twitter" viewBox="0 0 24 24">
<title>twitter</title>
<path d="M21 6.774c-0.661 0.303-1.374 0.505-2.119 0.595 0.763-0.469 1.346-1.212 1.624-2.095-0.714 0.433-1.504 0.75-2.344 0.919-0.675-0.736-1.634-1.194-2.696-1.194-2.039 0-3.691 1.695-3.691 3.786 0 0.296 0.032 0.584 0.095 0.862-3.068-0.159-5.789-1.666-7.61-3.959-0.316 0.559-0.499 1.212-0.499 1.904 0 1.313 0.65 2.474 1.641 3.151-0.605-0.018-1.174-0.191-1.673-0.472v0.047c0 1.835 1.272 3.368 2.963 3.714-0.309 0.087-0.636 0.133-0.974 0.133-0.239 0-0.467-0.025-0.696-0.069 0.471 1.504 1.835 2.6 3.448 2.632-1.265 1.017-2.854 1.623-4.587 1.623-0.299 0-0.591-0.018-0.882-0.054 1.638 1.078 3.578 1.702 5.663 1.702 6.791 0 10.506-5.773 10.506-10.778 0-0.166-0.003-0.328-0.010-0.49 0.721-0.53 1.346-1.197 1.842-1.958l-0.001 0.001z"></path>
</symbol>
<symbol id="icon--facebook" viewBox="0 0 24 24">
<title>facebook</title>
<path d="M14.188 6.375h2.812v-3.375h-2.812c-2.171 0-3.938 1.766-3.938 3.938v1.688h-2.25v3.375h2.25v9h3.375v-9h2.812l0.563-3.375h-3.375v-1.688c0-0.305 0.258-0.563 0.563-0.563z"></path>
</symbol>
<symbol id="icon--archive" viewBox="0 0 24 24">
<title>archive</title>
<path d="M5 5c0-1.105 0.895-2 2-2h10c1.105 0 2 0.895 2 2h-14z"></path>
<path d="M6 6c-1.105 0-2 0.895-2 2h16c0-1.105-0.895-2-2-2h-12z"></path>
<path d="M9 13c-0.552 0-1 0.448-1 1s0.448 1 1 1h6c0.552 0 1-0.448 1-1s-0.448-1-1-1h-6z"></path>
<path d="M2 11v8c0 1.105 0.895 2 2 2h16c1.105 0 2-0.895 2-2v-8c0-1.105-0.895-2-2-2h-16c-1.105 0-2 0.895-2 2zM4 11h16v8h-16v-8z"></path>
</symbol>
<symbol id="icon--vcard" viewBox="0 0 24 24">
<title>vcard</title>
<path d="M14 9c-0.552 0-1 0.448-1 1s0.448 1 1 1h4c0.552 0 1-0.448 1-1s-0.448-1-1-1h-4z"></path>
<path d="M13 16c0-0.552 0.448-1 1-1h4c0.552 0 1 0.448 1 1s-0.448 1-1 1h-4c-0.552 0-1-0.448-1-1z"></path>
<path d="M14 12c-0.552 0-1 0.448-1 1s0.448 1 1 1h4c0.552 0 1-0.448 1-1s-0.448-1-1-1h-4z"></path>
<path d="M8 14c-1.575 0-2.864 1.205-2.999 2.735-0.010 0.145 0.11 0.265 0.256 0.265h5.492c0.145 0 0.266-0.12 0.251-0.265-0.135-1.53-1.424-2.735-2.999-2.735z"></path>
<path d="M8 13c1.105 0 2-0.895 2-2s-0.895-2-2-2-2 0.895-2 2c0 1.105 0.895 2 2 2z"></path>
<path d="M2 8v10c0 1.105 0.895 2 2 2h16c1.105 0 2-0.895 2-2v-10c0-1.105-0.895-2-2-2h-16c-1.105 0-2 0.895-2 2zM4 8h16v10h-16v-10z"></path>
</symbol>
<symbol id="icon--search" viewBox="0 0 24 24">
<title>search</title>
<path d="M15.906 17.32l3.387 3.387c0.39 0.39 1.024 0.39 1.414 0s0.39-1.024 0-1.414l-3.387-3.387c1.053-1.355 1.68-3.057 1.68-4.906 0-4.418-3.582-8-8-8s-8 3.582-8 8c0 4.418 3.582 8 8 8 1.849 0 3.551-0.627 4.906-1.68zM17 11c0 3.314-2.686 6-6 6s-6-2.686-6-6c0-3.314 2.686-6 6-6s6 2.686 6 6z"></path>
</symbol>
<symbol id="icon--youtube" viewBox="0 0 24 24">
<title>youtube</title>
<path fill="#000" style="fill: var(--color1, #000)" d="M21.588 7.191c-0.231-0.857-0.906-1.532-1.763-1.763-1.565-0.428-7.825-0.428-7.825-0.428s-6.26 0-7.825 0.412c-0.84 0.231-1.532 0.923-1.763 1.779-0.412 1.565-0.412 4.81-0.412 4.81s0 3.262 0.412 4.811c0.231 0.857 0.906 1.532 1.763 1.763 1.582 0.428 7.825 0.428 7.825 0.428s6.26 0 7.825-0.412c0.857-0.231 1.532-0.906 1.763-1.763 0.412-1.565 0.412-4.811 0.412-4.811s0.017-3.262-0.412-4.827z"></path>
<path fill="#fff" style="fill: var(--color2, #fff)" d="M15.213 12.002l-5.206-2.998v5.997l5.206-2.998z"></path>
</symbol>
<symbol id="icon--checkmark" viewBox="0 0 24 24">
<title>checkmark</title>
<path d="M4.703 12.029c-0.092-0.096-0.203-0.172-0.325-0.224s-0.253-0.080-0.386-0.081c-0.133-0.001-0.264 0.024-0.387 0.075s-0.235 0.125-0.328 0.218-0.168 0.206-0.218 0.328c-0.050 0.123-0.076 0.255-0.074 0.387s0.029 0.264 0.081 0.386c0.052 0.122 0.129 0.232 0.224 0.325l4.699 5.293c0.188 0.187 0.442 0.293 0.707 0.293s0.519-0.105 0.707-0.293l11.293-11.293c0.096-0.092 0.172-0.203 0.224-0.325s0.080-0.253 0.081-0.386-0.024-0.264-0.074-0.387c-0.050-0.123-0.125-0.235-0.219-0.328s-0.206-0.168-0.328-0.218-0.255-0.076-0.387-0.074c-0.133 0.001-0.264 0.029-0.386 0.081s-0.232 0.129-0.325 0.224l-10.586 10.586-3.992-4.586z"></path>
</symbol>
<symbol id="icon--minus" viewBox="0 0 24 24">
<title>minus</title>
<path d="M12.035 1.685c-5.601 0-10.139 4.541-10.139 10.139 0 5.601 4.54 10.139 10.139 10.139s10.139-4.54 10.139-10.139c0-5.6-4.54-10.139-10.139-10.139zM18.131 10.59v2.468h-12.191v-2.468h12.191z"></path>
</symbol>
<symbol id="icon--plus" viewBox="0 0 24 24">
<title>plus</title>
<path d="M12.035 1.685c-5.601 0-10.139 4.541-10.139 10.139 0 5.601 4.54 10.139 10.139 10.139s10.139-4.54 10.139-10.139c0-5.6-4.54-10.139-10.139-10.139zM13.269 13.058v4.861h-2.467v-4.861h-4.862v-2.467h4.861v-4.862h2.468v4.861h4.861v2.468h-4.861z"></path>
</symbol>
<symbol id="icon--minus2" viewBox="0 0 24 24">
<title>minus2</title>
<path d="M18.311 10.617h-12.552c-0.668 0-0.724 0.541-0.724 1.207s0.057 1.207 0.724 1.207h12.552c0.668 0 0.725-0.541 0.725-1.207s-0.058-1.207-0.725-1.207z"></path>
</symbol>
<symbol id="icon--plus2" viewBox="0 0 24 24">
<title>plus2</title>
<path d="M12 3c-0.552 0-1 0.448-1 1v7h-7c-0.552 0-1 0.448-1 1s0.448 1 1 1h7v7c0 0.552 0.448 1 1 1s1-0.448 1-1v-7h7c0.552 0 1-0.448 1-1s-0.448-1-1-1h-7v-7c0-0.552-0.448-1-1-1z"></path>
</symbol>
<symbol id="icon--google" viewBox="0 0 24 24">
<title>google</title>
<path d="M12.636 10.548v2.62h4.331c-0.173 1.125-1.308 3.295-4.331 3.295-2.606 0-4.734-2.161-4.734-4.823s2.128-4.823 4.734-4.823c1.486 0 2.475 0.633 3.042 1.177l2.072-1.997c-1.331-1.242-3.056-1.997-5.114-1.997-4.223 0.005-7.636 3.417-7.636 7.641s3.412 7.636 7.636 7.636c4.406 0 7.331-3.098 7.331-7.463 0-0.502-0.056-0.886-0.122-1.266h-7.209z"></path>
</symbol>
<symbol id="icon--backArrow" viewBox="0 0 24 24">
<title>backArrow</title>
<path d="M7.414 13l2.586 2.586c0.39 0.39 0.39 1.024 0 1.414s-1.024 0.39-1.414 0l-4.293-4.293c-0.391-0.39-0.391-1.024 0-1.414l4.293-4.293c0.391-0.391 1.024-0.391 1.414 0s0.39 1.024 0 1.414l-2.586 2.586h11.586c0.552 0 1 0.448 1 1s-0.448 1-1 1h-11.586z"></path>
</symbol>
<symbol id="icon--email" viewBox="0 0 24 24">
<title>email</title>
<path d="M2 7c0-1.105 0.895-2 2-2h16c1.105 0 2 0.895 2 2v12c0 1.105-0.895 2-2 2h-16c-1.105 0-2-0.895-2-2v-12zM18.667 7h-13.334l6.667 7 6.667-7zM4 8.517v10.483h16v-10.483l-6.545 6.94c-0.789 0.837-2.121 0.837-2.91 0l-6.545-6.94z"></path>
</symbol>
<symbol id="icon--event" viewBox="0 0 24 24">
<title>event</title>
<path d="M14 13c-0.552 0-1 0.448-1 1v2c0 0.552 0.448 1 1 1h2c0.552 0 1-0.448 1-1v-2c0-0.552-0.448-1-1-1h-2z"></path>
<path d="M16 3c-0.552 0-1 0.448-1 1v1h-6v-1c0-0.552-0.448-1-1-1s-1 0.448-1 1v1h-2c-1.105 0-2 0.895-2 2v12c0 1.105 0.895 2 2 2h14c1.105 0 2-0.895 2-2v-12c0-1.105-0.895-2-2-2h-2v-1c0-0.552-0.448-1-1-1zM19 7v2h-14v-2h14zM5 11h14v8h-14v-8z"></path>
</symbol>
<symbol id="icon--logout" viewBox="0 0 24 24">
<title>logout</title>
<path d="M3 5c0-1.105 0.895-2 2-2h7v2h-7v14h7v2h-7c-1.105 0-2-0.895-2-2v-14z"></path>
<path d="M18.414 9c-0.39-0.391-1.024-0.391-1.414 0s-0.39 1.024 0 1.414l0.586 0.586h-9.586c-0.552 0-1 0.448-1 1s0.448 1 1 1h9.586l-0.586 0.586c-0.39 0.39-0.39 1.024 0 1.414s1.024 0.39 1.414 0l2.293-2.293c0.39-0.39 0.39-1.024 0-1.414l-2.293-2.293z"></path>
</symbol>
<symbol id="icon--phone" viewBox="0 0 24 24">
<title>phone</title>
<path d="M2.007 5.061c-0.117-1.712 1.293-3.061 2.941-3.061h2.368c1.434 0 2.67 1.005 2.951 2.401l0.457 2.267c0.221 1.095-0.324 2.202-1.331 2.701-0.101 0.050-0.166 0.124-0.198 0.19-0.029 0.060-0.030 0.11-0.014 0.157 0.587 1.765 2.087 4.156 5.010 5.021 0.055 0.016 0.115 0.014 0.184-0.020 0.074-0.036 0.15-0.105 0.2-0.204 0.503-0.999 1.618-1.54 2.722-1.321l2.285 0.453c1.407 0.279 2.419 1.505 2.419 2.928v2.559c0 1.491-1.149 2.875-2.799 2.869-3.169-0.013-7.23-0.854-10.635-3.418-3.44-2.591-6.106-6.864-6.56-13.521zM4.947 3.991c-0.569 0-0.972 0.453-0.939 0.935 0.419 6.141 2.838 9.861 5.771 12.070 2.969 2.236 6.569 3.002 9.43 3.013 0.395 0.002 0.784-0.34 0.784-0.878v-2.559c0-0.474-0.337-0.883-0.806-0.976l-2.284-0.453c-0.217-0.043-0.435 0.063-0.534 0.259-0.475 0.944-1.585 1.587-2.752 1.242-3.774-1.117-5.635-4.179-6.342-6.304-0.389-1.169 0.27-2.28 1.22-2.751 0.198-0.098 0.305-0.315 0.261-0.53l-0.457-2.267c-0.094-0.465-0.505-0.8-0.984-0.8h-2.368z"></path>
</symbol>
<symbol id="icon--property" viewBox="0 0 24 24">
<title>property</title>
<path d="M19.394 11h-0.394v9c0 1.105-0.895 2-2 2h-10c-1.105 0-2-0.895-2-2v-9h-0.394c-0.916 0-1.35-1.13-0.669-1.743l7.394-6.655c0.38-0.342 0.958-0.342 1.338 0l7.394 6.655c0.681 0.613 0.247 1.743-0.669 1.743zM17 9.197l-5-4.507-5 4.507v10.803h2v-3.385c0-1.105 0.895-2 2-2h2c1.105 0 2 0.895 2 2v3.385h2v-10.803zM11 16v4h2v-3h-2v-1z"></path>
</symbol>
<symbol id="icon--sync" viewBox="0 0 24 24">
<title>sync</title>
<path d="M9.65 3.384c0.34-0.435 0.968-0.512 1.404-0.172l2.555 1.996c0.435 0.34 0.512 0.968 0.172 1.404l-1.996 2.555c-0.34 0.435-0.969 0.512-1.404 0.172s-0.512-0.968-0.172-1.404l0.386-0.598c-1.274 0.374-2.398 1.251-3.048 2.528-1.069 2.098-0.515 4.596 1.197 6.064l-1.418 1.418c-2.307-2.067-3.034-5.499-1.561-8.389 0.986-1.936 2.75-3.216 4.717-3.655l-0.659-0.515c-0.435-0.34-0.512-0.968-0.172-1.404z"></path>
<path d="M13.291 16.698l0.49-0.627c0.34-0.435 0.263-1.064-0.172-1.404s-1.064-0.263-1.404 0.172l-1.996 2.555c-0.34 0.435-0.263 1.064 0.172 1.404l2.555 1.996c0.435 0.34 1.064 0.263 1.404-0.172s0.263-1.064-0.172-1.404l-0.659-0.515c1.967-0.439 3.73-1.719 4.717-3.655 1.484-2.912 0.734-6.375-1.614-8.437l-1.419 1.419c1.754 1.461 2.331 3.99 1.251 6.11-0.668 1.311-1.835 2.201-3.152 2.557z"></path>
</symbol>
<symbol id="icon--task" viewBox="0 0 24 24">
<title>task</title>
<path d="M9.719 13.305c-0.092-0.096-0.203-0.172-0.325-0.224s-0.253-0.080-0.386-0.081c-0.133-0.001-0.264 0.024-0.387 0.075s-0.235 0.124-0.328 0.218-0.168 0.206-0.218 0.328c-0.050 0.123-0.076 0.255-0.074 0.387s0.029 0.264 0.081 0.386c0.052 0.122 0.129 0.232 0.224 0.325l2 2c0.188 0.188 0.442 0.293 0.707 0.293s0.519-0.105 0.707-0.293l4-4c0.096-0.092 0.172-0.203 0.224-0.325s0.080-0.253 0.081-0.386c0.001-0.133-0.024-0.264-0.074-0.387s-0.124-0.234-0.218-0.328c-0.094-0.094-0.206-0.168-0.329-0.218s-0.255-0.076-0.387-0.075c-0.133 0.001-0.264 0.029-0.386 0.081s-0.232 0.129-0.325 0.224l-3.293 3.293-1.293-1.293z"></path>
<path d="M9.293 2.293l-1.707 1.707h-1.586c-1.105 0-2 0.895-2 2v14c0 1.105 0.895 2 2 2h12c1.105 0 2-0.895 2-2v-14c0-1.105-0.895-2-2-2h-1.586l-1.707-1.707c-0.188-0.188-0.442-0.293-0.707-0.293h-4c-0.265 0-0.52 0.105-0.707 0.293zM14.707 7.707l1.707-1.707h1.586v14h-12v-14h1.586l1.707 1.707c0.188 0.188 0.442 0.293 0.707 0.293h4c0.265 0 0.52-0.105 0.707-0.293zM10.414 4h3.172l1 1-1 1h-3.172l-1-1 1-1z"></path>
</symbol>
<symbol id="icon--visit" viewBox="0 0 24 24">
<title>visit</title>
<path d="M4 5c-1.105 0-2 0.895-2 2v10c0 1.105 0.895 2 2 2h1.171c0.412 1.165 1.523 2 2.829 2s2.418-0.835 2.829-2h3.341c0.412 1.165 1.523 2 2.829 2s2.418-0.835 2.829-2h0.171c1.105 0 2-0.895 2-2v-6l-2.903-4.147c-0.374-0.535-0.986-0.853-1.638-0.853h-3.726c-0.346-0.598-0.992-1-1.732-1h-8zM19.829 17c-0.412-1.165-1.523-2-2.829-2s-2.418 0.835-2.829 2h-0.171v-4h6v4h-0.171zM12 7v10h-1.171c-0.412-1.165-1.523-2-2.829-2s-2.417 0.835-2.829 2h-1.171v-10h8zM9 18c0 0.552-0.448 1-1 1s-1-0.448-1-1c0-0.552 0.448-1 1-1s1 0.448 1 1zM17.25 8l1.75 3h-5v-3h3.25zM18 18c0 0.552-0.448 1-1 1s-1-0.448-1-1c0-0.552 0.448-1 1-1s1 0.448 1 1z"></path>
</symbol>
<symbol id="icon--starburst" viewBox="0 0 24 24">
<title>starburst</title>
<path d="M12 2c-0.552 0-1 0.448-1 1v4c0 0.552 0.448 1 1 1s1-0.448 1-1v-4c0-0.552-0.448-1-1-1z"></path>
<path d="M12 16c-0.552 0-1 0.448-1 1v4c0 0.552 0.448 1 1 1s1-0.448 1-1v-4c0-0.552-0.448-1-1-1z"></path>
<path d="M2 12c0-0.552 0.448-1 1-1h4c0.552 0 1 0.448 1 1s-0.448 1-1 1h-4c-0.552 0-1-0.448-1-1z"></path>
<path d="M17 11c-0.552 0-1 0.448-1 1s0.448 1 1 1h4c0.552 0 1-0.448 1-1s-0.448-1-1-1h-4z"></path>
<path d="M5.292 5.292c0.203-0.203 0.473-0.301 0.739-0.292 0.245 0.008 0.488 0.105 0.675 0.292l2.002 2.001c0.204 0.204 0.302 0.475 0.292 0.743-0.009 0.244-0.106 0.485-0.292 0.672s-0.428 0.284-0.672 0.292c-0.268 0.009-0.538-0.088-0.743-0.292l-2.002-2.001c-0.183-0.183-0.28-0.42-0.292-0.66-0.013-0.272 0.084-0.547 0.292-0.755z"></path>
<path d="M18.708 5.292c-0.203-0.203-0.473-0.301-0.739-0.292-0.245 0.008-0.488 0.105-0.675 0.292l-2.002 2.001c-0.204 0.204-0.302 0.475-0.292 0.743 0.009 0.244 0.106 0.485 0.292 0.672s0.428 0.284 0.672 0.292c0.268 0.009 0.538-0.088 0.743-0.292l2.002-2.001c0.183-0.183 0.28-0.42 0.292-0.66 0.013-0.272-0.084-0.547-0.292-0.755z"></path>
<path d="M5.292 18.708c0.203 0.204 0.473 0.301 0.739 0.292 0.245-0.008 0.488-0.105 0.675-0.292l2.002-2.001c0.204-0.204 0.302-0.475 0.292-0.743-0.009-0.244-0.106-0.485-0.292-0.672s-0.428-0.284-0.672-0.292c-0.268-0.009-0.538 0.088-0.743 0.292l-2.002 2.001c-0.183 0.183-0.28 0.42-0.292 0.66-0.013 0.271 0.084 0.547 0.292 0.755z"></path>
<path d="M18.708 18.661c-0.203 0.204-0.473 0.301-0.739 0.292-0.245-0.008-0.488-0.105-0.675-0.292l-2.002-1.954c-0.204-0.204-0.302-0.475-0.292-0.743 0.009-0.244 0.106-0.485 0.292-0.672s0.428-0.284 0.672-0.292c0.268-0.009 0.538 0.088 0.743 0.292l2.002 1.954c0.183 0.183 0.28 0.42 0.292 0.66 0.013 0.271-0.084 0.547-0.292 0.755z"></path>
</symbol>
<symbol id="icon--googlePlay" viewBox="0 0 24 24">
<title>googlePlay</title>
<path d="M20.561 11.159l-16.056-8.968c-0.338-0.188-0.651-0.232-0.904-0.154l-0.001-0.001h-0.001c-0.364 0.115-0.599 0.491-0.599 1.057l0.002 17.812c0 0.56 0.229 0.928 0.581 1.051 0.255 0.088 0.575 0.045 0.921-0.146l16.056-8.971c0.828-0.465 0.828-1.22 0-1.682l0.001 0.001z"></path>
</symbol>
<symbol id="icon--apple" viewBox="0 0 24 24">
<title>apple</title>
<path d="M18.496 12.577c-0.027-2.993 2.45-4.448 2.564-4.516-1.403-2.045-3.578-2.325-4.342-2.347-1.826-0.192-3.598 1.093-4.528 1.093-0.949 0-2.382-1.074-3.926-1.043-1.987 0.031-3.846 1.181-4.865 2.967-2.104 3.643-0.535 8.995 1.481 11.94 1.008 1.442 2.187 3.052 3.729 2.995 1.509-0.062 2.072-0.962 3.893-0.962 1.804 0 2.333 0.962 3.906 0.926 1.619-0.026 2.639-1.448 3.612-2.903 1.165-1.653 1.633-3.28 1.652-3.364-0.038-0.013-3.145-1.199-3.175-4.785zM15.525 3.777c0.812-1.015 1.367-2.396 1.213-3.797-1.175 0.052-2.643 0.812-3.489 1.805-0.748 0.875-1.417 2.308-1.244 3.656 1.319 0.098 2.674-0.666 3.521-1.665z"></path>
</symbol>
<symbol id="icon--clients" viewBox="0 0 24 24">
<title>clients</title>
<path d="M13 14c-1.575 0-2.864 1.205-2.999 2.735-0.010 0.145 0.11 0.265 0.256 0.265h5.492c0.145 0 0.266-0.12 0.251-0.265-0.135-1.53-1.424-2.735-2.999-2.735z"></path>
<path d="M13 13c1.105 0 2-0.895 2-2s-0.895-2-2-2-2 0.895-2 2c0 1.105 0.895 2 2 2z"></path>
<path d="M4 5v1h-1c-0.552 0-1 0.448-1 1s0.448 1 1 1h1v3h-1c-0.552 0-1 0.448-1 1s0.448 1 1 1h1v3h-1c-0.552 0-1 0.448-1 1s0.448 1 1 1h1v2c0 1.105 0.895 2 2 2h14c1.105 0 2-0.895 2-2v-15c0-1.105-0.895-2-2-2h-14c-1.105 0-2 0.895-2 2zM6 5h14v15h-14v-15z"></path>
</symbol>
<symbol id="icon--clockIn" viewBox="0 0 24 24">
<title>clockIn</title>
<path d="M10.515 8.143c-0.667-0.4-1.515 0.080-1.515 0.857v6c0 0.777 0.848 1.257 1.515 0.858l5-3c0.647-0.388 0.647-1.327 0-1.715l-5-3z"></path>
<path d="M21 12c0-4.971-4.029-9-9-9s-9 4.029-9 9c0 4.971 4.029 9 9 9s9-4.029 9-9zM19 12c0 3.866-3.134 7-7 7s-7-3.134-7-7c0-3.866 3.134-7 7-7s7 3.134 7 7z"></path>
</symbol>
<symbol id="icon--clockOut" viewBox="0 0 24 24">
<title>clockOut</title>
<path d="M9 10c0-0.552 0.448-1 1-1h4c0.552 0 1 0.448 1 1v4c0 0.552-0.448 1-1 1h-4c-0.552 0-1-0.448-1-1v-4z"></path>
<path d="M22 12c0-5.523-4.477-10-10-10s-10 4.477-10 10c0 5.523 4.477 10 10 10s10-4.477 10-10zM20 12c0 4.418-3.582 8-8 8s-8-3.582-8-8c0-4.418 3.582-8 8-8s8 3.582 8 8z"></path>
</symbol>
<symbol id="icon--edit" viewBox="0 0 24 24">
<title>edit</title>
<path d="M14.707 3.923c0.586-0.587 1.354-0.881 2.121-0.881s1.536 0.294 2.121 0.881l1.172 1.174c0.586 0.587 0.879 1.357 0.879 2.126s-0.293 1.539-0.879 2.126l-9.22 9.292c-0.090 0.090-0.196 0.162-0.313 0.213l-4.795 2.020c-0.265 0.114-0.531 0.167-0.788 0.168-0.545 0.003-1.048-0.226-1.414-0.593-0.355-0.356-0.581-0.841-0.591-1.369-0.005-0.272 0.046-0.555 0.167-0.838l2.108-4.713c0.050-0.117 0.122-0.224 0.212-0.314l9.22-9.292zM17.535 5.341c-0.39-0.391-1.024-0.391-1.414 0l-0.879 0.881 2.586 2.592 0.879-0.881c0.39-0.391 0.39-1.026 0-1.418l-1.172-1.174zM16.414 10.231l-2.586-2.592-6.22 6.285 2.586 2.592 6.22-6.285zM8.443 17.595l-1.911-1.916-1.526 3.352 3.437-1.437z"></path>
</symbol>
<symbol id="icon--invoice" viewBox="0 0 24 24">
<title>invoice</title>
<path d="M6 2c-1.105 0-2 0.895-2 2v16c0 1.105 0.895 2 2 2h12c1.105 0 2-0.895 2-2v-12.586c0-0.53-0.211-1.039-0.586-1.414l-3.414-3.414c-0.375-0.375-0.884-0.586-1.414-0.586h-8.586zM6 20v-16h8.586l3.414 3.414v12.586h-12zM13.293 9.707c-0.667-0.667-1.29-0.707-1.316-0.707-0.528 0-0.977 0.45-0.977 1 0 0.646 0.128 0.752 1.243 1.030 1.031 0.258 2.757 0.69 2.757 2.97-0.002 0.618-0.196 1.22-0.554 1.724s-0.863 0.885-1.446 1.090v0.184c0 0.265-0.105 0.52-0.293 0.707s-0.442 0.293-0.707 0.293c-0.265 0-0.52-0.105-0.707-0.293s-0.293-0.442-0.293-0.707v-0.2c-0.644-0.229-1.228-0.602-1.707-1.090-0.188-0.188-0.293-0.442-0.293-0.707s0.105-0.52 0.293-0.707 0.442-0.293 0.707-0.293c0.265-0 0.52 0.105 0.707 0.293 0.667 0.667 1.291 0.707 1.317 0.707 0.528 0 0.976-0.448 0.976-1 0-0.646-0.127-0.75-1.242-1.030-1.031-0.257-2.758-0.69-2.758-2.97 0.002-0.618 0.195-1.221 0.553-1.725s0.863-0.885 1.447-1.091v-0.184c0-0.265 0.105-0.52 0.293-0.707s0.442-0.293 0.707-0.293c0.265 0 0.52 0.105 0.707 0.293s0.293 0.442 0.293 0.707v0.2c0.645 0.229 1.229 0.603 1.707 1.093 0.182 0.189 0.283 0.441 0.281 0.703s-0.108 0.513-0.293 0.698c-0.185 0.185-0.436 0.291-0.698 0.293s-0.515-0.099-0.703-0.281z"></path>
</symbol>
<symbol id="icon--job" viewBox="0 0 24 24">
<title>job</title>
<path d="M8.899 5.757c0.496-0.496 1.057-0.887 1.656-1.173 0.842-0.402 1.759-0.597 2.673-0.584 1.507 0.021 3.007 0.607 4.157 1.757l4.616 4.616-4.243 4.243-3.479-3.479-1.172 1.172 1.414 1.414-6.692 6.692c-0.391 0.39-0.902 0.586-1.414 0.586s-1.024-0.195-1.414-0.586l-1.414-1.414c-0.391-0.39-0.586-0.902-0.586-1.414s0.195-1.024 0.586-1.414l6.692-6.692 1.414 1.414 1.172-1.172-3.965-3.965zM17.757 11.787l1.414-1.414-3.202-3.202c-1.047-1.047-2.53-1.392-3.864-1.036l5.652 5.652zM11.692 13.722l-1.414-1.414-5.278 5.278 1.414 1.414 5.278-5.278z"></path>
</symbol>
<symbol id="icon--markSent" viewBox="0 0 24 24">
<title>markSent</title>
<path d="M3.719 13.301c-0.092-0.096-0.203-0.172-0.325-0.224s-0.253-0.080-0.386-0.081c-0.133-0.001-0.264 0.024-0.387 0.074s-0.235 0.125-0.328 0.218c-0.094 0.094-0.168 0.206-0.218 0.329s-0.076 0.255-0.074 0.387c0.001 0.133 0.029 0.264 0.081 0.386s0.129 0.232 0.224 0.325l1.586 1.992c0.188 0.188 0.442 0.293 0.707 0.293s0.519-0.105 0.707-0.293l3.39-3.202c0.096-0.092 0.172-0.203 0.224-0.325s0.080-0.253 0.081-0.386c0.001-0.133-0.024-0.264-0.074-0.387s-0.125-0.234-0.218-0.328c-0.094-0.094-0.206-0.168-0.328-0.218s-0.255-0.076-0.387-0.075c-0.133 0.001-0.264 0.029-0.386 0.081s-0.232 0.129-0.325 0.224l-2.683 2.495-0.879-1.285z"></path>
<path d="M6 10v-2.586l6.293 6.293c0.39 0.39 1.024 0.39 1.414 0l6.293-6.293v9.586c0 0.552-0.448 1-1 1h-14.829c0.412 1.165 1.523 2 2.829 2h12c1.657 0 3-1.343 3-3v-10c0-1.657-1.343-3-3-3h-12c-1.657 0-3 1.343-3 3v3h2zM13 11.586l-5.586-5.586h11.172l-5.586 5.586z"></path>
</symbol>
<symbol id="icon--moveVisits" viewBox="0 0 24 24">
<title>moveVisits</title>
<path d="M4 4h8c0.74 0 1.387 0.402 1.732 1h3.726c0.653 0 1.264 0.318 1.638 0.853l2.903 4.147v6c0 1.105-0.895 2-2 2h-0.171c-0.412 1.165-1.523 2-2.829 2s-2.418-0.835-2.829-2h-3.341c-0.412 1.165-1.523 2-2.829 2s-2.417-0.835-2.829-2h-1.171c-1.105 0-2-0.895-2-2h3.171c0.412-1.165 1.523-2 2.829-2s2.418 0.835 2.829 2h1.171v-10h-10c0-1.105 0.895-2 2-2zM19.829 16h0.171v-4h-6v4h0.171c0.412-1.165 1.523-2 2.829-2s2.418 0.835 2.829 2zM9 17c0-0.552-0.448-1-1-1s-1 0.448-1 1c0 0.552 0.448 1 1 1s1-0.448 1-1zM17.25 7h-3.25v3h5l-1.75-3zM18 17c0-0.552-0.448-1-1-1s-1 0.448-1 1c0 0.552 0.448 1 1 1s1-0.448 1-1z"></path>
<path d="M2 8c0-0.552 0.448-1 1-1h4c0.552 0 1 0.448 1 1s-0.448 1-1 1h-4c-0.552 0-1-0.448-1-1z"></path>
<path d="M4 11c0-0.552 0.448-1 1-1h3c0.552 0 1 0.448 1 1s-0.448 1-1 1h-3c-0.552 0-1-0.448-1-1z"></path>
</symbol>
<symbol id="icon--payment" viewBox="0 0 24 24">
<title>payment</title>
<path d="M13 13c-0.552 0-1 0.448-1 1s0.448 1 1 1h4c0.552 0 1-0.448 1-1s-0.448-1-1-1h-4z"></path>
<path d="M4 5c-1.105 0-2 0.895-2 2v10c0 1.105 0.895 2 2 2h16c1.105 0 2-0.895 2-2v-10c0-1.105-0.895-2-2-2h-16zM20 7v2h-16v-2h16zM4 17v-6h16v6h-16z"></path>
</symbol>
<symbol id="icon--pdf" viewBox="0 0 24 24">
<title>pdf</title>
<path d="M12.038 10.807c0.221 0.394 0.464 0.722 0.686 0.963 0.309 0.328 0.619 0.635 0.885 0.897 1.747-0.328 2.941-0.197 3.295 0.394 0.066 0.131 0.265 0.569-0.221 1.050-0.309 0.328-0.708 0.503-1.15 0.481-0.619 0-1.349-0.35-2.167-1.007-0.442 0.088-0.951 0.219-1.504 0.372-0.464 0.131-0.907 0.285-1.283 0.416-0.663 1.182-1.526 2.385-2.344 2.582-0.088 0.022-0.177 0.044-0.265 0.044-0.221 0-0.42-0.066-0.597-0.219-0.31-0.241-0.42-0.569-0.354-0.919 0.177-0.919 1.636-1.685 2.963-2.188 0.177-0.328 0.354-0.678 0.486-1.029 0.265-0.635 0.486-1.225 0.641-1.75-0.597-1.138-1.106-2.538-0.774-3.304 0.155-0.394 0.509-0.591 0.951-0.591 0.376 0 0.708 0.153 0.907 0.46 0.398 0.569 0.332 1.707-0.155 3.348zM7.881 16.015c0.066 0.109 0.088 0.131 0.155 0.109 0.31-0.066 0.752-0.525 1.216-1.182-0.907 0.438-1.327 0.853-1.371 1.072zM11.114 7.932c-0.002 0.003-0.003 0.006-0.005 0.009-0.133 0.284 0.044 0.963 0.332 1.707 0.177-0.897 0.177-1.466 0.022-1.685-0.022-0.044-0.066-0.088-0.199-0.088-0.123 0-0.132 0.019-0.15 0.056zM11.537 13.156c0.035-0.010 0.070-0.019 0.104-0.029 0.332-0.087 0.663-0.175 0.951-0.241-0.155-0.175-0.332-0.35-0.509-0.525-0.016-0.019-0.033-0.040-0.051-0.061-0.104-0.123-0.233-0.275-0.347-0.442-0.089 0.281-0.206 0.577-0.329 0.886-0.030 0.076-0.060 0.152-0.091 0.23-0.044 0.088-0.089 0.197-0.133 0.306 0.138-0.051 0.277-0.089 0.405-0.125zM15.576 13.718c0.243 0 0.42-0.022 0.531-0.219s-0.442-0.241-1.526-0.131c0.376 0.219 0.73 0.35 0.995 0.35z"></path>
<path d="M6 2c-1.105 0-2 0.895-2 2v16c0 1.105 0.895 2 2 2h12c1.105 0 2-0.895 2-2v-12.586c0-0.53-0.211-1.039-0.586-1.414l-3.414-3.414c-0.375-0.375-0.884-0.586-1.414-0.586h-8.586zM6 20v-16h8.586l3.414 3.414v12.586h-12z"></path>
</symbol>
<symbol id="icon--quickbooks" viewBox="0 0 24 24">
<title>quickbooks</title>
<path d="M6.78 12.060c0 1.52 1.23 2.75 2.75 2.75h0.39v-1.020h-0.39c-0.95 0-1.73-0.78-1.73-1.73s0.78-1.73 1.73-1.73h0.94v5.35c0 0.56 0.46 1.020 1.020 1.020v-7.39h-1.97c-1.51 0-2.74 1.23-2.74 2.75z"></path>
<path d="M13.86 9.31h0.39c1.52 0 2.75 1.23 2.75 2.75s-1.23 2.75-2.75 2.75h-1.97v-7.39c0.56 0 1.020 0.46 1.020 1.020v5.35h0.95c0.95 0 1.73-0.78 1.73-1.73s-0.78-1.73-1.73-1.73h-0.39v-1.020z"></path>
<path d="M22 12c0 5.523-4.477 10-10 10s-10-4.477-10-10c0-5.523 4.477-10 10-10s10 4.477 10 10zM12 20c4.418 0 8-3.582 8-8s-3.582-8-8-8c-4.418 0-8 3.582-8 8s3.582 8 8 8z"></path>
</symbol>
<symbol id="icon--quoteCopy" viewBox="0 0 24 24">
<title>quoteCopy</title>
<path d="M18.93 10.006c0.078 0.547 0.518 0.997 1.071 0.997s1.006-0.449 0.945-0.998c-0.46-4.172-3.772-7.539-7.945-7.999-0.247-0.027-0.474 0.049-0.648 0.192-0.214 0.175-0.35 0.449-0.35 0.753 0 0.247 0.090 0.472 0.239 0.652 0.183 0.222 0.456 0.375 0.758 0.418 3.068 0.437 5.493 2.918 5.931 5.986z"></path>
<path d="M14 12.003c0-1.656-1.343-2.999-3-2.999s-3 1.343-3 2.999 1.343 2.999 3 2.999c1.657 0 3-1.343 3-2.999zM12 12.003c0 0.552-0.448 1-1 1s-1-0.448-1-1c0-0.552 0.448-1 1-1s1 0.448 1 1z"></path>
<path d="M3.586 6.004l1.414-1.414c0.391-0.39 0.902-0.586 1.414-0.586s1.024 0.195 1.414 0.586l0.991 0.991c0.735-0.262 1.356-0.576 2.181-0.576 3.866 0 7 3.133 7 6.998v4.998h3c0.552 0 1 0.448 1 1v1.999c0 0.552-0.448 1-1 1s-1-0.448-1-1v-1h-9c-3.866 0-7-3.133-7-6.998 0-0.825 0.314-1.445 0.577-2.18l-0.991-0.991c-0.391-0.39-0.586-0.902-0.586-1.414s0.195-1.023 0.586-1.414zM6.979 6.569l-0.565-0.565-1.414 1.414 0.565 0.565c0.402-0.536 0.878-1.012 1.414-1.414zM11 7.004c-2.761 0-5 2.238-5 4.999s2.239 4.999 5 4.999h5v-4.999c0-2.761-2.239-4.999-5-4.999z"></path>
</symbol>
<symbol id="icon--quote" viewBox="0 0 24 24">
<title>quote</title>
<path d="M14 12c0-1.657-1.343-3-3-3s-3 1.343-3 3 1.343 3 3 3c1.657 0 3-1.343 3-3zM12 12c0 0.552-0.448 1-1 1s-1-0.448-1-1c0-0.552 0.448-1 1-1s1 0.448 1 1z"></path>
<path d="M3.586 6l1.414-1.414c0.391-0.391 0.902-0.586 1.414-0.586s1.024 0.195 1.414 0.586l0.991 0.991c0.735-0.262 1.356-0.577 2.181-0.577 3.866 0 7 3.134 7 7v5h3c0.552 0 1 0.448 1 1v2c0 0.552-0.448 1-1 1s-1-0.448-1-1v-1h-9c-3.866 0-7-3.134-7-7 0-0.825 0.314-1.446 0.577-2.181l-0.991-0.991c-0.391-0.391-0.586-0.902-0.586-1.414s0.195-1.024 0.586-1.414zM6.979 6.565l-0.565-0.565-1.414 1.414 0.565 0.565c0.402-0.536 0.878-1.013 1.414-1.414zM11 7c-2.761 0-5 2.239-5 5s2.239 5 5 5h5v-5c0-2.761-2.239-5-5-5z"></path>
</symbol>
<symbol id="icon--redo" viewBox="0 0 24 24">
<title>redo</title>
<path d="M13 19c3.866 0 7-3.134 7-7s-3.134-7-7-7c-2.379 0-4.48 1.187-5.745 3h1.745c0.552 0 1 0.448 1 1s-0.448 1-1 1h-4c-0.274 0-0.522-0.11-0.702-0.288l-0.006 0.006c0.001-0.003 0.002-0.006 0.002-0.009-0.182-0.181-0.294-0.432-0.294-0.709v-4c0-0.552 0.448-1 1-1s1 0.448 1 1v1.343c1.65-2.039 4.173-3.343 7-3.343 4.971 0 9 4.029 9 9s-4.029 9-9 9c-1.243 0-2.427-0.252-3.504-0.708-0.598-0.253-0.693-1.024-0.234-1.483l0.053-0.053c0.306-0.306 0.772-0.374 1.177-0.218 0.779 0.299 1.624 0.463 2.508 0.463zM6.009 8h0.013l-0.006-0.006-0.006 0.006z"></path>
</symbol>
<symbol id="icon--sendInvoice" viewBox="0 0 24 24">
<title>sendInvoice</title>
<path d="M13.977 9c0.026 0 0.649 0.040 1.316 0.707 0.189 0.182 0.441 0.283 0.703 0.281s0.513-0.107 0.698-0.293c0.185-0.185 0.291-0.436 0.293-0.698s-0.099-0.515-0.281-0.703c-0.478-0.49-1.062-0.864-1.707-1.093v-0.2c0-0.265-0.105-0.52-0.293-0.707s-0.442-0.293-0.707-0.293c-0.265 0-0.52 0.105-0.707 0.293s-0.293 0.442-0.293 0.707v0.184c-0.583 0.206-1.089 0.587-1.447 1.091s-0.551 1.107-0.553 1.725c0 2.28 1.727 2.713 2.758 2.97 1.115 0.28 1.242 0.384 1.242 1.030 0 0.552-0.448 1-0.976 1-0.026 0-0.65-0.040-1.317-0.707-0.188-0.188-0.442-0.293-0.707-0.293s-0.52 0.106-0.707 0.293-0.293 0.442-0.293 0.707c0 0.265 0.106 0.52 0.293 0.707 0.479 0.488 1.063 0.861 1.707 1.090v0.2c0 0.265 0.105 0.52 0.293 0.707s0.442 0.293 0.707 0.293c0.265 0 0.52-0.105 0.707-0.293s0.293-0.442 0.293-0.707v-0.184c0.583-0.205 1.088-0.586 1.446-1.090s0.552-1.106 0.554-1.724c0-2.28-1.726-2.712-2.757-2.97-1.115-0.278-1.243-0.384-1.243-1.030 0-0.55 0.449-1 0.977-1z"></path>
<path d="M8 2c-1.105 0-2 0.895-2 2v2h2v-2h8.586l3.414 3.414v12.586h-12v-2h-2v2c0 1.105 0.895 2 2 2h12c1.105 0 2-0.895 2-2v-12.586c0-0.53-0.211-1.039-0.586-1.414l-3.414-3.414c-0.375-0.375-0.884-0.586-1.414-0.586h-8.586z"></path>
<path d="M2 11c0-0.552 0.448-1 1-1h4c0.552 0 1 0.448 1 1s-0.448 1-1 1h-4c-0.552 0-1-0.448-1-1z"></path>
<path d="M4 14c0-0.552 0.448-1 1-1h3c0.552 0 1 0.448 1 1s-0.448 1-1 1h-3c-0.552 0-1-0.448-1-1z"></path>
<path d="M6 6h2v2h-2v-2z"></path>
<path d="M6 17h2v1h-2v-1z"></path>
</symbol>
<symbol id="icon--signature" viewBox="0 0 24 24">
<title>signature</title>
<path d="M9 13.831v3.172h3.172c0.53 0 1.039-0.211 1.414-0.586l7.831-7.831c0.415-0.415 0.61-0.968 0.583-1.512-0.023-0.479-0.218-0.951-0.583-1.317l-1.172-1.172c-0.366-0.366-0.838-0.56-1.317-0.583-0.544-0.026-1.096 0.168-1.512 0.583l-7.831 7.831c-0.375 0.375-0.586 0.884-0.586 1.414zM12.172 15.002h-1.172v-1.172l7.831-7.831 1.172 1.172-7.831 7.831z"></path>
<path d="M5.782 17.002c-0.329 0-0.65 0.091-0.957 0.225l-0.001 0.001c-0.261 0.116-0.52 0.267-0.776 0.442-0.187 0.128-0.365 0.263-0.529 0.397-0.099 0.081-0.174 0.147-0.222 0.191-0.374 0.343-0.397 1.073-0.057 1.445l0.002 0.002c0.342 0.371 0.921 0.397 1.294 0.055 0.108-0.099 0.307-0.263 0.546-0.427 0.182-0.124 0.345-0.217 0.483-0.278 0.066-0.029 0.12-0.048 0.161-0.059 0.039-0.010 0.057-0.011 0.057-0.011 0.038 0 0.171 0.025 0.416 0.125 0.227 0.093 0.502 0.231 0.803 0.404 0.554 0.319 1.179 0.487 1.818 0.487h4.189c0.506 0 0.917-0.411 0.917-0.917s-0.418-1.083-0.924-1.083h-4.182c-0.316 0-0.626-0.083-0.902-0.243l-0.002-0.001c-0.756-0.434-1.503-0.756-2.133-0.756z"></path>
</symbol>
<symbol id="icon--addNote" viewBox="0 0 24 24">
<title>addNote</title>
<path d="M6 4c0-1.105 0.895-2 2-2h8.586c0.53 0 1.039 0.211 1.414 0.586l3.414 3.414c0.375 0.375 0.586 0.884 0.586 1.414v12.586c0 1.105-0.895 2-2 2h-12c-1.105 0-2-0.895-2-2v-2h2v2h12v-12.586l-3.414-3.414h-8.586v2h-2v-2z"></path>
<path d="M5 9c0-0.552 0.448-1 1-1s1 0.448 1 1v2h2c0.552 0 1 0.448 1 1s-0.448 1-1 1h-2v2c0 0.552-0.448 1-1 1s-1-0.448-1-1v-2h-2c-0.552 0-1-0.448-1-1s0.448-1 1-1h2v-2z"></path>
</symbol>
<symbol id="icon--link" viewBox="0 0 24 24">
<title>link</title>
<path d="M4.464 12.473c-0.985 0.986-1.473 2.282-1.464 3.574 0.009 1.269 0.497 2.535 1.464 3.503s2.232 1.457 3.5 1.466c1.291 0.009 2.586-0.48 3.571-1.466l2.173-1.831c0.208-0.208 0.305-0.486 0.292-0.758-0.012-0.239-0.109-0.475-0.292-0.657s-0.418-0.28-0.657-0.292c-0.272-0.014-0.549 0.084-0.757 0.292l-2.173 1.832c-1.172 1.173-3.071 1.173-4.243 0s-1.172-3.074 0-4.246l1.83-2.175c0.208-0.208 0.305-0.485 0.292-0.758-0.012-0.239-0.109-0.475-0.292-0.657s-0.418-0.28-0.657-0.292c-0.272-0.014-0.549 0.084-0.757 0.292l-1.83 2.175z"></path>
<path d="M17.698 13.597c-0.182 0.182-0.416 0.279-0.654 0.292-0.273 0.014-0.551-0.083-0.76-0.292-0.23-0.23-0.324-0.544-0.284-0.844 0.029-0.209 0.123-0.411 0.284-0.572l1.838-2.037c1.172-1.173 1.172-3.074 0-4.246s-3.071-1.173-4.243 0l-2.172 1.83c-0.199 0.199-0.461 0.297-0.722 0.293-0.251-0.004-0.501-0.101-0.692-0.293-0.195-0.195-0.293-0.452-0.293-0.708 0-0.064 0.006-0.127 0.018-0.19 0.036-0.19 0.128-0.371 0.275-0.518l2.172-1.83c0.985-0.986 2.28-1.475 3.571-1.466 1.268 0.009 2.533 0.498 3.5 1.466s1.455 2.234 1.464 3.503c0.009 1.293-0.479 2.588-1.464 3.574l-1.838 2.038z"></path>
<path d="M9.286 13.309c-0.164 0.165-0.26 0.372-0.286 0.586-0.036 0.295 0.059 0.603 0.286 0.829s0.534 0.322 0.828 0.286c0.214-0.026 0.421-0.121 0.586-0.286l4.012-4.015c0.219-0.219 0.315-0.515 0.289-0.801-0.021-0.224-0.117-0.443-0.289-0.615s-0.39-0.268-0.614-0.289c-0.286-0.027-0.581 0.070-0.8 0.289l-4.012 4.015z"></path>
</symbol>
<symbol id="icon--note" viewBox="0 0 24 24">
<title>note</title>
<path d="M4 4c0-1.105 0.895-2 2-2h8.586c0.53 0 1.039 0.211 1.414 0.586l3.414 3.414c0.375 0.375 0.586 0.884 0.586 1.414v12.586c0 1.105-0.895 2-2 2h-12c-1.105 0-2-0.895-2-2v-16zM6 4v16h12v-12.586l-3.414-3.414h-8.586z"></path>
</symbol>
<symbol id="icon--trash" viewBox="0 0 24 24">
<title>trash</title>
<path d="M9 11c0-0.552 0.448-1 1-1s1 0.448 1 1v6c0 0.552-0.448 1-1 1s-1-0.448-1-1v-6z"></path>
<path d="M14 10c-0.552 0-1 0.448-1 1v6c0 0.552 0.448 1 1 1s1-0.448 1-1v-6c0-0.552-0.448-1-1-1z"></path>
<path d="M8 4c0-0.552 0.448-1 1-1h6c0.552 0 1 0.448 1 1v2h3c0.552 0 1 0.448 1 1s-0.448 1-1 1h-1v12c0 1.105-0.895 2-2 2h-8c-1.105 0-2-0.895-2-2v-12h-1c-0.552 0-1-0.448-1-1s0.448-1 1-1h3v-2zM14 6v-1h-4v1h4zM8 8v12h8v-12h-8z"></path>
</symbol>
<symbol id="icon--excel" viewBox="0 0 24 24">
<title>excel</title>
<path d="M11 11v-1h2c0.552 0 1-0.448 1-1s-0.448-1-1-1h-3c-0.552 0-1 0.448-1 1v6c0 0.552 0.448 1 1 1h3c0.552 0 1-0.448 1-1s-0.448-1-1-1h-2v-1h2c0.552 0 1-0.448 1-1s-0.448-1-1-1h-2z"></path>
<path d="M6 2c-1.105 0-2 0.895-2 2v16c0 1.105 0.895 2 2 2h12c1.105 0 2-0.895 2-2v-12.586c0-0.53-0.211-1.039-0.586-1.414l-3.414-3.414c-0.375-0.375-0.884-0.586-1.414-0.586h-8.586zM6 20v-16h8.586l3.414 3.414v12.586h-12z"></path>
</symbol>
<symbol id="icon--file" viewBox="0 0 24 24">
<title>file</title>
<path d="M14 9c0-0.552-0.448-1-1-1h-3c-0.552 0-1 0.448-1 1v6c0 0.552 0.448 1 1 1s1-0.448 1-1v-1.5h2c0.552 0 1-0.448 1-1s-0.448-1-1-1h-2v-1.5h2c0.552 0 1-0.448 1-1z"></path>
<path d="M6 2c-1.105 0-2 0.895-2 2v16c0 1.105 0.895 2 2 2h12c1.105 0 2-0.895 2-2v-12.586c0-0.53-0.211-1.039-0.586-1.414l-3.414-3.414c-0.375-0.375-0.884-0.586-1.414-0.586h-8.586zM6 20v-16h8.586l3.414 3.414v12.586h-12z"></path>
</symbol>
<symbol id="icon--word" viewBox="0 0 24 24">
<title>word</title>
<path d="M16.973 10.082c0.016-0.060 0.025-0.12 0.027-0.18 0.022-0.479-0.36-0.903-0.864-0.903-0.415 0-0.772 0.295-0.849 0.703l-1.138 4.664-0.995-3.632c-0.119-0.435-0.514-0.736-0.965-0.736h-0.357c-0.447 0-0.839 0.296-0.962 0.726l-1.039 3.642-1.121-4.664c-0.077-0.408-0.433-0.704-0.848-0.704-0.483 0-0.855 0.391-0.863 0.846-0.001 0.075 0.007 0.151 0.027 0.228l1.557 5.171c0.112 0.444 0.512 0.754 0.969 0.754h0.537c0.444 0 0.835-0.293 0.96-0.719l0.946-3.23 0.911 3.221c0.122 0.431 0.515 0.728 0.962 0.728h0.535c0.455 0 0.853-0.307 0.968-0.748l1.602-5.17z"></path>
<path d="M6 2c-1.105 0-2 0.895-2 2v16c0 1.105 0.895 2 2 2h12c1.105 0 2-0.895 2-2v-12.586c0-0.53-0.211-1.039-0.586-1.414l-3.414-3.414c-0.375-0.375-0.884-0.586-1.414-0.586h-8.586zM6 20v-16h8.586l3.414 3.414v12.586h-12z"></path>
</symbol>
<symbol id="icon--linkedIn" viewBox="0 0 24 24">
<title>linkedIn</title>
<path d="M4.928 7.924c1.066 0 1.929-0.879 1.929-1.962 0-1.084-0.863-1.962-1.929-1.962s-1.929 0.879-1.929 1.962c0 1.084 0.863 1.962 1.929 1.962zM3 9.231h3.857v11.769h-3.857v-11.769zM9.429 9.231h3.558v1.855h0.051c0.495-0.903 1.707-1.855 3.512-1.855 3.756 0 4.45 2.378 4.45 5.471v6.299h-3.709v-5.584c0-1.332-0.027-3.045-1.929-3.045-1.932 0-2.226 1.45-2.226 2.948v5.681h-3.707v-11.77z"></path>
</symbol>
<symbol id="icon--alert" viewBox="0 0 24 24">
<title>alert</title>
<path d="M12 7c-0.552 0-1 0.448-1 1v5c0 0.552 0.448 1 1 1s1-0.448 1-1v-5c0-0.552-0.448-1-1-1z"></path>
<path d="M11 17c0-0.552 0.448-1 1-1s1 0.448 1 1c0 0.552-0.448 1-1 1s-1-0.448-1-1z"></path>
<path d="M22 12c0-5.523-4.477-10-10-10s-10 4.477-10 10c0 5.523 4.477 10 10 10s10-4.477 10-10zM20 12c0 4.418-3.582 8-8 8s-8-3.582-8-8c0-4.418 3.582-8 8-8s8 3.582 8 8z"></path>
</symbol>
<symbol id="icon--person" viewBox="0 0 24 24">
<title>person</title>
<path d="M12 11c-2.209 0-4-1.791-4-4s1.791-4 4-4c2.209 0 4 1.791 4 4s-1.791 4-4 4zM12 9c1.105 0 2-0.895 2-2s-0.895-2-2-2c-1.104 0-2 0.895-2 2s0.895 2 2 2z"></path>
<path d="M5.289 19h13.421c-0.86-2.892-3.541-5-6.711-5s-5.851 2.108-6.711 5zM19.003 19l-0.003 0zM5 19l-0.003-0zM3.045 19.016c0.904-4.016 4.666-7.016 8.955-7.016s8.054 3 8.958 7.016c0.030 0.132 0.042 0.261 0.039 0.386-0.002 0.064-0.007 0.127-0.017 0.188-0.124 0.807-0.901 1.41-1.802 1.41h-14.351c-0.915 0-1.702-0.622-1.808-1.447-0.022-0.171-0.015-0.352 0.027-0.537z"></path>
</symbol>
<symbol id="icon--calendar" viewBox="0 0 24 24">
<title>calendar</title>
<path d="M15 4c0-0.552 0.448-1 1-1s1 0.448 1 1v1h2c1.105 0 2 0.895 2 2v12c0 1.105-0.895 2-2 2h-14c-1.105 0-2-0.895-2-2v-12c0-1.105 0.895-2 2-2h2v-1c0-0.552 0.448-1 1-1s1 0.448 1 1v1h6v-1zM5 7v2h14v-2h-14zM19 11h-14v8h14v-8z"></path>
</symbol>
<symbol id="icon--timer" viewBox="0 0 24 24">
<title>timer</title>
<path d="M12 6c-0.552 0-1 0.448-1 1v5.622l3.293 3.111c0.184 0.184 0.422 0.281 0.662 0.292 0.271 0.012 0.545-0.085 0.752-0.292 0.202-0.202 0.3-0.469 0.293-0.734-0.006-0.247-0.104-0.492-0.293-0.681l-2.707-2.526v-4.794c0-0.552-0.448-1-1-1z"></path>
<path d="M22 12c0-5.523-4.477-10-10-10s-10 4.477-10 10c0 5.523 4.477 10 10 10s10-4.477 10-10zM20 12c0 4.418-3.582 8-8 8s-8-3.582-8-8c0-4.418 3.582-8 8-8s8 3.582 8 8z"></path>
</symbol>
<symbol id="icon--schedule" viewBox="0 0 24 24">
<title>schedule</title>
<path d="M7 8c0 0.552-0.448 1-1 1s-1-0.448-1-1c0-0.552 0.448-1 1-1s1 0.448 1 1z"></path>
<path d="M6 13c0.552 0 1-0.448 1-1s-0.448-1-1-1c-0.552 0-1 0.448-1 1s0.448 1 1 1z"></path>
<path d="M7 16c0 0.552-0.448 1-1 1s-1-0.448-1-1c0-0.552 0.448-1 1-1s1 0.448 1 1z"></path>
<path d="M10 7c-0.552 0-1 0.448-1 1s0.448 1 1 1h8c0.552 0 1-0.448 1-1s-0.448-1-1-1h-8z"></path>
<path d="M9 12c0-0.552 0.448-1 1-1h8c0.552 0 1 0.448 1 1s-0.448 1-1 1h-8c-0.552 0-1-0.448-1-1z"></path>
<path d="M10 15c-0.552 0-1 0.448-1 1s0.448 1 1 1h8c0.552 0 1-0.448 1-1s-0.448-1-1-1h-8z"></path>
<path d="M4 3h16c1.105 0 2 0.895 2 2v14c0 1.105-0.895 2-2 2h-16c-1.105 0-2-0.895-2-2v-14c0-1.105 0.895-2 2-2zM20 5h-16v14h16v-14z"></path>
</symbol>
<symbol id="icon--star" viewBox="0 0 24 24">
<title>star</title>
<path d="M15.673 13.337l3.673-3.58-5.076-0.738-2.27-4.599-2.27 4.6-5.076 0.737 3.673 3.58-0.867 5.176 4.54-2.507 4.54 2.386-0.867-5.055zM12 18.335l-4.505 2.491c-0.255 0.135-0.543 0.195-0.831 0.174s-0.564-0.121-0.798-0.291c-0.234-0.17-0.415-0.401-0.524-0.669s-0.14-0.56-0.091-0.844l0.86-5.138-3.644-3.553c-0.207-0.201-0.353-0.456-0.422-0.737s-0.058-0.574 0.031-0.848c0.089-0.274 0.253-0.518 0.474-0.704s0.489-0.306 0.774-0.348l5.037-0.732 2.252-4.273c0.128-0.259 0.325-0.477 0.57-0.63s0.528-0.233 0.817-0.233c0.289 0 0.572 0.081 0.817 0.233s0.443 0.371 0.57 0.63l2.252 4.273 5.037 0.732c0.285 0.041 0.554 0.162 0.774 0.348s0.385 0.43 0.474 0.704c0.089 0.274 0.1 0.568 0.031 0.848s-0.215 0.535-0.422 0.737l-3.645 3.553 0.86 5.139c0.049 0.284 0.017 0.577-0.092 0.844s-0.29 0.499-0.523 0.668c-0.233 0.17-0.51 0.27-0.797 0.291s-0.576-0.039-0.831-0.174l-4.505-2.492z"></path>
</symbol>
<symbol id="icon--starFill" viewBox="0 0 24 24">
<title>starFill</title>
<path d="M12 18.626l-4.505 2.196c-0.255 0.135-0.543 0.195-0.831 0.174s-0.564-0.122-0.798-0.291c-0.234-0.17-0.415-0.401-0.524-0.669s-0.14-0.56-0.091-0.844l0.86-4.843-3.644-3.553c-0.207-0.201-0.353-0.456-0.422-0.737s-0.058-0.574 0.031-0.848c0.089-0.274 0.253-0.518 0.474-0.704s0.489-0.306 0.774-0.348l5.037-0.732 2.252-4.564c0.128-0.259 0.325-0.477 0.57-0.63s0.528-0.233 0.817-0.233c0.289 0 0.572 0.081 0.817 0.233s0.443 0.371 0.57 0.63l2.252 4.564 5.037 0.732c0.285 0.041 0.554 0.162 0.774 0.348s0.385 0.43 0.474 0.704c0.089 0.274 0.1 0.568 0.031 0.848s-0.215 0.535-0.422 0.737l-3.645 3.553 0.86 4.843c0.049 0.284 0.017 0.577-0.092 0.844s-0.29 0.499-0.523 0.668c-0.233 0.17-0.51 0.27-0.797 0.291s-0.576-0.039-0.831-0.174l-4.505-2.196z"></path>
</symbol>
<symbol id="icon--cog" viewBox="0 0 24 24">
<title>cog</title>
<path d="M13.207 4.017v1.938l1.249 0.51c0.51 0.21 0.989 0.49 1.439 0.829l1.059 0.829 1.169-0.669 0.51-0.3 0.999 1.728-0.51 0.3-1.169 0.669 0.18 1.329c0.050 0.33 0.070 0.589 0.070 0.829s-0.020 0.499-0.070 0.829l-0.18 1.329 1.169 0.669 0.51 0.3-0.999 1.728-0.51-0.3-1.169-0.669-1.059 0.829c-0.44 0.35-0.929 0.629-1.439 0.829l-1.249 0.51v1.938l-2.433-0.019v-1.938l-1.249-0.51c-0.51-0.21-0.989-0.489-1.439-0.829l-1.059-0.819-1.169 0.669-0.51 0.3-0.999-1.728 0.51-0.3 1.169-0.669-0.18-1.329c-0.050-0.34-0.070-0.599-0.070-0.839s0.020-0.5 0.070-0.829l0.18-1.329-1.668-0.979 0.999-1.728 0.51 0.3 1.159 0.669 1.059-0.829c0.45-0.34 0.929-0.619 1.439-0.829l1.249-0.51v-1.928l2.433 0.019zM11.995 15.986c2.208 0 4.209-1.769 4.209-3.977s-2.001-4.015-4.209-4.015c-2.208 0-4.218 1.788-4.218 3.996s2.020 3.996 4.218 3.996zM14.206 2.019l-4.421-0.019c-0.549 0-0.999 0.45-0.999 0.999v1.578c-0.699 0.29-1.339 0.659-1.918 1.119l-1.379-0.799c-0.16-0.090-0.33-0.13-0.5-0.13-0.35 0-0.679 0.18-0.869 0.5l-1.998 3.457c-0.111 0.197-0.149 0.416-0.122 0.626 0.038 0.299 0.21 0.578 0.492 0.743l1.379 0.799c-0.050 0.36-0.090 0.719-0.090 1.099s0.030 0.739 0.090 1.109l-1.379 0.799c-0.282 0.165-0.454 0.444-0.492 0.741-0.027 0.208 0.012 0.425 0.122 0.618l1.998 3.467c0.18 0.32 0.519 0.499 0.859 0.499 0.17 0 0.34-0.040 0.5-0.13l1.379-0.799c0.579 0.45 1.219 0.829 1.918 1.109v1.578c0 0.549 0.45 0.999 0.999 0.999l4.421 0.019c0.549 0 0.999-0.45 0.999-0.999v-1.578c0.689-0.28 1.339-0.659 1.918-1.109l1.379 0.799c0.16 0.090 0.33 0.13 0.499 0.13 0.35 0 0.679-0.18 0.869-0.5l1.998-3.457c0.144-0.246 0.169-0.527 0.094-0.779-0.071-0.239-0.231-0.453-0.464-0.59l-1.379-0.799c0.050-0.36 0.090-0.729 0.090-1.109s-0.030-0.739-0.090-1.109l1.379-0.799c0.282-0.165 0.454-0.443 0.492-0.741 0.027-0.208-0.011-0.425-0.122-0.618l-1.998-3.467c-0.18-0.32-0.519-0.5-0.859-0.5-0.17 0-0.34 0.040-0.499 0.13l-1.379 0.799c-0.579-0.45-1.219-0.829-1.918-1.109v-1.578c0-0.549-0.45-0.999-0.999-0.999zM11.995 13.988c-1.099 0-2.22-0.899-2.22-1.998s1.121-1.998 2.22-1.998c1.099 0 2.211 0.918 2.211 2.017s-1.102 1.979-2.211 1.979z"></path>
</symbol>
<symbol id="icon--invoiceLater" viewBox="0 0 24 24">
<title>invoiceLater</title>
<path d="M6 4c0-1.105 0.895-2 2-2h8.586c0.53 0 1.039 0.211 1.414 0.586l3.414 3.414c0.375 0.375 0.586 0.884 0.586 1.414v12.586c0 1.105-0.895 2-2 2h-12c-1.105 0-2-0.895-2-2v-2h2v2h12v-12.586l-3.414-3.414h-8.586v2h-2v-2zM15.293 9.707c-0.667-0.667-1.29-0.707-1.316-0.707-0.528 0-0.977 0.45-0.977 1 0 0.646 0.128 0.752 1.243 1.030 1.031 0.258 2.757 0.69 2.757 2.97-0.002 0.618-0.196 1.22-0.554 1.724s-0.863 0.885-1.446 1.090v0.184c0 0.265-0.105 0.52-0.293 0.707s-0.442 0.293-0.707 0.293c-0.265 0-0.52-0.105-0.707-0.293s-0.293-0.442-0.293-0.707v-0.2c-0.644-0.229-1.228-0.602-1.707-1.090-0.188-0.188-0.293-0.442-0.293-0.707s0.105-0.52 0.293-0.707 0.442-0.293 0.707-0.293c0.265-0 0.52 0.105 0.707 0.293 0.667 0.667 1.291 0.707 1.317 0.707 0.528 0 0.976-0.448 0.976-1 0-0.646-0.127-0.75-1.242-1.030-1.031-0.257-2.758-0.69-2.758-2.97 0.002-0.618 0.195-1.221 0.553-1.725s0.863-0.885 1.447-1.091v-0.184c0-0.265 0.105-0.52 0.293-0.707s0.442-0.293 0.707-0.293c0.265 0 0.52 0.105 0.707 0.293s0.293 0.442 0.293 0.707v0.2c0.645 0.229 1.229 0.603 1.707 1.093 0.182 0.189 0.283 0.441 0.281 0.703s-0.108 0.513-0.293 0.698c-0.185 0.185-0.436 0.291-0.698 0.293s-0.515-0.099-0.703-0.281zM3 10c0-0.552 0.448-1 1-1s1 0.448 1 1v4c0 0.552-0.448 1-1 1s-1-0.448-1-1v-4zM7 9c-0.552 0-1 0.448-1 1v4c0 0.552 0.448 1 1 1s1-0.448 1-1v-4c0-0.552-0.448-1-1-1z"></path>
</symbol>
<symbol id="icon--jobOnHold" viewBox="0 0 24 24">
<title>jobOnHold</title>
<path d="M8.899 5.757c0.496-0.496 1.057-0.887 1.656-1.173 0.842-0.402 1.759-0.597 2.673-0.584 1.507 0.021 3.007 0.607 4.157 1.757l4.616 4.616-4.243 4.243-3.479-3.479-1.35 1.35 1.417 1.412-6.516 6.516c-0.391 0.39-0.902 0.586-1.414 0.586s-1.024-0.195-1.414-0.586l-1.414-1.414c-0.391-0.39-0.586-0.902-0.586-1.414s0.195-1.024 0.586-1.414l6.512-6.512 1.403 1.403 1.364-1.341-3.965-3.965zM17.757 11.787l1.414-1.414-3.202-3.202c-1.047-1.047-2.53-1.392-3.864-1.036l5.652 5.652zM11.692 13.722l-1.414-1.414-5.278 5.278 1.414 1.414 5.278-5.278z"></path>
<path d="M3.293 4.293c0.195-0.195 0.451-0.293 0.707-0.293 0.043 0 0.086 0.003 0.129 0.008 0.211 0.027 0.416 0.122 0.578 0.285l15.013 14.962c0.167 0.167 0.256 0.363 0.28 0.565 0.038 0.325-0.094 0.663-0.345 0.914-0.181 0.181-0.418 0.269-0.655 0.266-0.228-0.003-0.455-0.092-0.629-0.266l-15.078-15.027c-0.162-0.162-0.257-0.367-0.285-0.578-0.005-0.040-0.008-0.080-0.008-0.121-0.002-0.259 0.095-0.518 0.293-0.715z"></path>
</symbol>
<symbol id="icon--chemical" viewBox="0 0 24 24">
<title>chemical</title>
<path d="M8 4c0-0.552 0.448-1 1-1h6c0.552 0 1 0.448 1 1s-0.448 1-1 1v3.783l4.91 10.803c0.301 0.662-0.183 1.414-0.91 1.414h-14c-0.727 0-1.211-0.752-0.91-1.414l4.91-10.803v-3.783c-0.552 0-1-0.448-1-1zM11 9.217l-1.265 2.783h1.265c0.552 0 1 0.448 1 1s-0.448 1-1 1h-2c-0.057 0-0.113-0.005-0.168-0.014l-0.461 1.014h3.629c0.552 0 1 0.448 1 1s-0.448 1-1 1h-4.538l-0.909 2h10.894l-4.447-9.783v-4.217h-2v4.217z"></path>
</symbol>
<symbol id="icon--company" viewBox="0 0 24 24">
<title>company</title>
<path d="M6 6h2v2h-2v-2z"></path>
<path d="M12 6h-2v2h2v-2z"></path>
<path d="M10 9h2v2h-2v-2z"></path>
<path d="M8 9h-2v2h2v-2z"></path>
<path d="M10 12h2v2h-2v-2z"></path>
<path d="M8 12h-2v2h2v-2z"></path>
<path d="M5 3h8c1.105 0 2 0.895 2 2v16h-10c-1.105 0-2-0.895-2-2v-14c0-1.105 0.895-2 2-2zM13 5h-8v14h3v-2c0-0.552 0.448-1 1-1v0c0.552 0 1 0.448 1 1v2h3v-14z"></path>
<path d="M16 5h3c1.105 0 2 0.895 2 2v12c0 1.105-0.895 2-2 2h-3v-2h3v-12h-3v-2z"></path>
<path d="M16 9h2v2h-2v-2z"></path>
<path d="M18 12h-2v2h2v-2z"></path>
</symbol>
<symbol id="icon--printer" viewBox="0 0 24 24">
<title>printer</title>
<path d="M18 11c-0.552 0-1 0.448-1 1s0.448 1 1 1c0.552 0 1-0.448 1-1s-0.448-1-1-1z"></path>
<path d="M6 4v4h-2c-1.105 0-2 0.895-2 2v8h5v2c0 1.105 0.895 2 2 2h6c1.105 0 2-0.895 2-2v-2h5v-8c0-1.105-0.895-2-2-2h-2v-4c0-1.105-0.895-2-2-2h-8c-1.105 0-2 0.895-2 2zM16 4v4h-8v-4h8zM15 16v4h-6v-4h6zM7 14v2h-3v-6h16v6h-3v-2h-10z"></path>
</symbol>
<symbol id="icon--help" viewBox="0 0 24 24">
<title>help</title>
<path d="M11.969 7c-1.375 0-2.575 1.161-2.707 1.293-0.173 0.19-0.267 0.439-0.261 0.697s0.11 0.502 0.291 0.684c0.181 0.182 0.426 0.288 0.683 0.294s0.507-0.086 0.698-0.258c0.291-0.286 0.904-0.71 1.296-0.71 0.211 0 0.416 0.067 0.587 0.191s0.298 0.299 0.363 0.499c0.066 0.2 0.066 0.416 0.002 0.617s-0.191 0.376-0.361 0.501c-1.011 0.74-1.591 1.808-1.591 2.929v0.263c0 0.265 0.105 0.52 0.293 0.707s0.442 0.293 0.707 0.293 0.52-0.105 0.707-0.293c0.188-0.188 0.293-0.442 0.293-0.707v-0.263c0-0.653 0.484-1.105 0.773-1.317 0.38-0.279 0.688-0.644 0.901-1.064s0.325-0.885 0.326-1.356c0-1.654-1.346-3-3-3z"></path>
<path d="M12 16c-0.552 0-1 0.448-1 1s0.448 1 1 1c0.552 0 1-0.448 1-1s-0.448-1-1-1z"></path>
<path d="M22 12c0-5.523-4.477-10-10-10s-10 4.477-10 10c0 5.523 4.477 10 10 10s10-4.477 10-10zM20 12c0 4.418-3.582 8-8 8s-8-3.582-8-8c0-4.418 3.582-8 8-8s8 3.582 8 8z"></path>
</symbol>
<symbol id="icon--reminder" viewBox="0 0 24 24">
<title>reminder</title>
<path d="M11 3c0-0.552 0.448-1 1-1s1 0.448 1 1v1c0 0.028-0.001 0.055-0.003 0.082 2.839 0.475 5.003 2.943 5.003 5.918v6l1.793 1.793c0.133 0.133 0.207 0.312 0.207 0.5 0 0.39-0.317 0.707-0.707 0.707h-14.586c-0.39 0-0.707-0.317-0.707-0.707 0-0.188 0.074-0.367 0.207-0.5l1.793-1.793v-6c0-2.974 2.164-5.443 5.003-5.918-0.002-0.027-0.003-0.055-0.003-0.082v-1zM12 6c-2.209 0-4 1.791-4 4v7h8v-7c0-2.209-1.791-4-4-4z"></path>
<path d="M14 20c0 1.105-0.895 2-2 2s-2-0.895-2-2h4z"></path>
</symbol>
<symbol id="icon--grid" viewBox="0 0 24 24">
<title>grid</title>
<path d="M4 2h8c1.105 0 2 0.895 2 2v2c0 1.105-0.895 2-2 2h-8c-1.105 0-2-0.895-2-2v-2c0-1.105 0.895-2 2-2zM12 4h-8v2h8v-2z"></path>
<path d="M12 9h8c1.105 0 2 0.895 2 2v2c0 1.105-0.895 2-2 2h-8c-1.105 0-2-0.895-2-2v-2c0-1.105 0.895-2 2-2zM20 13v-2h-8v2h8z"></path>
<path d="M5 18v2c0 1.105 0.895 2 2 2h8c1.105 0 2-0.895 2-2v-2c0-1.105-0.895-2-2-2h-8c-1.105 0-2 0.895-2 2zM7 18h8v2h-8v-2z"></path>
<path d="M4 9h2c1.105 0 2 0.895 2 2v2c0 1.105-0.895 2-2 2h-2c-1.105 0-2-0.895-2-2v-2c0-1.105 0.895-2 2-2zM6 11h-2v2h2v-2z"></path>
<path d="M16 4v2c0 1.105 0.895 2 2 2h2c1.105 0 2-0.895 2-2v-2c0-1.105-0.895-2-2-2h-2c-1.105 0-2 0.895-2 2zM18 4h2v2h-2v-2z"></path>
</symbol>
<symbol id="icon--add" viewBox="0 0 24 24">
<title>add</title>
<path d="M12 3c-0.552 0-1 0.448-1 1v7h-7c-0.552 0-1 0.448-1 1s0.448 1 1 1h7v7c0 0.552 0.448 1 1 1s1-0.448 1-1v-7h7c0.552 0 1-0.448 1-1s-0.448-1-1-1h-7v-7c0-0.552-0.448-1-1-1z"></path>
</symbol>
<symbol id="icon--badInvoice" viewBox="0 0 24 24">
<title>badInvoice</title>
<path d="M6 4c0-1.105 0.895-2 2-2h8.586c0.53 0 1.039 0.211 1.414 0.586l3.414 3.414c0.375 0.375 0.586 0.884 0.586 1.414v12.586c0 1.105-0.895 2-2 2h-12c-1.105 0-2-0.895-2-2v-3h2v3h12v-12.586l-3.414-3.414h-8.586v3h-2v-3zM13.977 9c0.026 0 0.649 0.040 1.316 0.707 0.189 0.182 0.441 0.283 0.703 0.281s0.513-0.107 0.698-0.293c0.185-0.185 0.291-0.436 0.293-0.698s-0.099-0.515-0.281-0.703c-0.478-0.49-1.062-0.864-1.707-1.093v-0.2c0-0.265-0.105-0.52-0.293-0.707s-0.442-0.293-0.707-0.293c-0.265 0-0.52 0.105-0.707 0.293s-0.293 0.442-0.293 0.707v0.184c-0.583 0.206-1.089 0.587-1.447 1.091s-0.551 1.107-0.553 1.725c0 2.28 1.727 2.713 2.758 2.97 1.115 0.28 1.242 0.384 1.242 1.030 0 0.552-0.448 1-0.976 1-0.026 0-0.65-0.040-1.317-0.707-0.188-0.188-0.442-0.293-0.707-0.293s-0.52 0.106-0.707 0.293-0.293 0.442-0.293 0.707c0 0.265 0.106 0.52 0.293 0.707 0.479 0.488 1.063 0.861 1.707 1.090v0.2c0 0.265 0.105 0.52 0.293 0.707s0.442 0.293 0.707 0.293c0.265 0 0.52-0.105 0.707-0.293s0.293-0.442 0.293-0.707v-0.184c0.583-0.205 1.088-0.586 1.446-1.090s0.552-1.106 0.554-1.724c0-2.28-1.726-2.712-2.757-2.97-1.115-0.278-1.243-0.384-1.243-1.030 0-0.55 0.449-1 0.977-1zM4.712 12l-1.445-1.445c-0.356-0.356-0.356-0.933 0-1.288s0.933-0.356 1.288 0l1.445 1.445 1.445-1.445c0.356-0.356 0.933-0.356 1.288 0s0.356 0.933 0 1.288l-1.445 1.445 1.445 1.445c0.356 0.356 0.356 0.933 0 1.289s-0.933 0.356-1.288 0l-1.445-1.445-1.445 1.445c-0.356 0.356-0.933 0.356-1.288 0s-0.356-0.933 0-1.289l1.445-1.445z"></path>
</symbol>
<symbol id="icon--moveMarker" viewBox="0 0 24 24">
<title>moveMarker</title>
<path d="M4 12c0-0.552 0.448-1 1-1h4c0.552 0 1 0.448 1 1s-0.448 1-1 1h-4c-0.552 0-1-0.448-1-1z"></path>
<path d="M6 15c0-0.552 0.448-1 1-1h3c0.552 0 1 0.448 1 1s-0.448 1-1 1h-3c-0.552 0-1-0.448-1-1z"></path>
<path d="M13.84 21.509l-0.066 0.091c-0.193 0.266-0.484 0.399-0.774 0.399s-0.581-0.133-0.774-0.399l-0.066-0.091c-0.777-1.069-1.979-2.724-3.115-4.509h2.228c0.946 1.446 1.728 2.5 1.728 2.5s5-6.739 5-9.5c0-2.761-2.239-5-5-5s-5 2.239-5 5h-2c0-3.866 3.134-7 7-7s7 3.134 7 7c0 3.030-4.3 8.949-6.16 11.509z"></path>
<path d="M11 10c0 1.105 0.895 2 2 2s2-0.895 2-2c0-1.105-0.895-2-2-2s-2 0.895-2 2z"></path>
</symbol>
<symbol id="icon--paidInvoice" viewBox="0 0 24 24">
<title>paidInvoice</title>
<path d="M8 2c-1.105 0-2 0.895-2 2v4h2v-4h8.586l3.414 3.414v12.586h-12v-3h-2v3c0 1.105 0.895 2 2 2h12c1.105 0 2-0.895 2-2v-12.586c0-0.53-0.211-1.039-0.586-1.414l-3.414-3.414c-0.375-0.375-0.884-0.586-1.414-0.586h-8.586zM13.977 9c0.026 0 0.649 0.040 1.316 0.707 0.189 0.182 0.441 0.283 0.703 0.281s0.513-0.107 0.698-0.293c0.185-0.185 0.291-0.436 0.293-0.698s-0.099-0.515-0.281-0.703c-0.478-0.49-1.062-0.864-1.707-1.093v-0.2c0-0.265-0.105-0.52-0.293-0.707s-0.442-0.293-0.707-0.293c-0.265 0-0.52 0.105-0.707 0.293s-0.293 0.442-0.293 0.707v0.184c-0.583 0.206-1.089 0.587-1.447 1.091s-0.551 1.107-0.553 1.725c0 2.28 1.727 2.713 2.758 2.97 1.115 0.28 1.242 0.384 1.242 1.030 0 0.552-0.448 1-0.976 1-0.026 0-0.65-0.040-1.317-0.707-0.188-0.188-0.442-0.293-0.707-0.293s-0.52 0.106-0.707 0.293-0.293 0.442-0.293 0.707c0 0.265 0.106 0.52 0.293 0.707 0.479 0.488 1.063 0.861 1.707 1.090v0.2c0 0.265 0.105 0.52 0.293 0.707s0.442 0.293 0.707 0.293c0.265 0 0.52-0.105 0.707-0.293s0.293-0.442 0.293-0.707v-0.184c0.583-0.205 1.088-0.586 1.446-1.090s0.552-1.106 0.554-1.724c0-2.28-1.726-2.712-2.757-2.97-1.115-0.278-1.243-0.384-1.243-1.030 0-0.55 0.449-1 0.977-1zM8.293 11.707c0.391-0.39 0.391-1.024 0-1.414s-1.024-0.391-1.414 0l-2.586 2.586-0.586-0.586c-0.391-0.39-1.024-0.39-1.414 0s-0.391 1.024 0 1.414l1.293 1.293c0.391 0.39 1.024 0.39 1.414 0l3.293-3.293z"></path>
</symbol>
<symbol id="icon--sms" viewBox="0 0 24 24">
<title>sms</title>
<path d="M3 4v16c0 1.105 0.895 2 2 2h8c1.105 0 2-0.895 2-2v-4h5c0.552 0 1-0.448 1-1v-6c0-0.552-0.448-1-1-1h-5v-4c0-1.105-0.895-2-2-2h-8c-1.105 0-2 0.895-2 2zM13 17.603v2.397h-8v-13h8v1h-5c-0.552 0-1 0.448-1 1v6c0 0.552 0.448 1 1 1h2v2c0 0.854 1.002 1.315 1.651 0.759l1.349-1.157zM5 4h8v1h-8v-1zM9 14v-4h10v4h-4.87l-2.13 1.826v-1.826h-3z"></path>
</symbol>
<symbol id="icon--dashboard" viewBox="0 0 24 24">
<title>dashboard</title>
<path d="M19.99 4h-15.97c-1.12 0-2.020 0.9-2.020 2.020v11.97c0 1.11 0.9 2.020 2.020 2.020h15.97c1.11 0 2.020-0.9 2.020-2.020v-11.97c-0.010-1.12-0.91-2.020-2.020-2.020zM8 18h-4v-12h4v12zM20 18h-10v-8h10v8zM20 8h-10v-2h10v2z"></path>
</symbol>
<symbol id="icon--work" viewBox="0 0 24 24">
<title>work</title>
<path d="M9 3h6c1.105 0 2 0.895 2 2v2h3c1.105 0 2 0.895 2 2v11c0 1.105-0.895 2-2 2h-16c-1.105 0-2-0.895-2-2v-11c0-1.105 0.895-2 2-2h3v-2c0-1.105 0.895-2 2-2zM15 7v-2h-6v2h6zM20 9h-16v4h5c0-1.105 0.895-2 2-2h2c1.105 0 2 0.895 2 2h5v-4zM20 15h-5v1c0 1.105-0.895 2-2 2h-2c-1.105 0-2-0.895-2-2v-1h-5v5h16v-5zM11 13v3h2v-3h-2z"></path>
</symbol>
<symbol id="icon--userUnassigned" viewBox="0 0 24 24">
<title>userUnassigned</title>
<path d="M5.14 4.724c0.003-0.003 0.006-0.006 0.009-0.009l1.415 1.415c-0.003 0.003-0.006 0.006-0.009 0.009l1.937 1.937c0.002-0.004 0.004-0.008 0.006-0.011l1.54 1.54c-0.001 0.005-0.002 0.010-0.003 0.015l2.345 2.344c0.005-0.001 0.010-0.002 0.015-0.003l1.54 1.54c-0.004 0.002-0.008 0.004-0.011 0.006l3.937 3.937c0.003-0.003 0.006-0.006 0.008-0.009l1.415 1.415c-0.003 0.003-0.006 0.006-0.008 0.009l0.434 0.433c0.175 0.175 0.272 0.399 0.29 0.629 0.022 0.281-0.075 0.57-0.29 0.786-0.196 0.196-0.453 0.294-0.71 0.293-0.255-0.001-0.51-0.098-0.704-0.293l-0.533-0.533c-1.629 1.151-3.617 1.826-5.763 1.826-5.523 0-10-4.477-10-10 0-2.146 0.676-4.133 1.826-5.762l-0.533-0.533c-0.187-0.187-0.285-0.431-0.292-0.676-0.008-0.266 0.089-0.535 0.292-0.738 0.177-0.177 0.404-0.274 0.636-0.29 0.279-0.020 0.565 0.077 0.778 0.29l0.434 0.433zM5.266 7.678c-0.802 1.246-1.266 2.73-1.266 4.322 0 2.195 0.884 4.183 2.315 5.629 1.018-1.015 2.396-2.028 4.076-2.427 0.728-0.173 1.486-0.226 2.266-0.132l-1.093-1.093c-1.862-0.201-3.34-1.68-3.542-3.541l-2.757-2.757zM12 20c1.469 0 2.846-0.396 4.029-1.087-2.078-1.865-3.825-2.087-5.175-1.766-1.134 0.27-2.138 0.955-2.951 1.726 1.198 0.716 2.599 1.127 4.096 1.127z"></path>
<path d="M9.94 6.571l1.507 1.507c0.176-0.050 0.361-0.077 0.553-0.077 1.105 0 2 0.895 2 2 0 0.192-0.027 0.377-0.077 0.553l1.507 1.507c0.362-0.602 0.57-1.306 0.57-2.060 0-2.209-1.791-4-4-4-0.753 0-1.458 0.208-2.060 0.571z"></path>
<path d="M20 12c0 1.342-0.33 2.606-0.914 3.717l1.467 1.467c0.918-1.512 1.447-3.286 1.447-5.184 0-5.523-4.477-10-10-10-1.898 0-3.672 0.529-5.184 1.447l1.467 1.467c1.11-0.584 2.375-0.914 3.717-0.914 4.418 0 8 3.582 8 8z"></path>
</symbol>
<symbol id="icon--user" viewBox="0 0 24 24">
<title>user</title>
<path d="M16 10c0-2.209-1.791-4-4-4s-4 1.791-4 4c0 2.209 1.791 4 4 4s4-1.791 4-4zM14 10c0 1.105-0.895 2-2 2s-2-0.895-2-2c0-1.105 0.895-2 2-2s2 0.895 2 2z"></path>
<path d="M22 12c0 5.523-4.477 10-10 10s-10-4.477-10-10c0-5.523 4.477-10 10-10s10 4.477 10 10zM12 20c1.469 0 2.846-0.396 4.029-1.087-2.078-1.865-3.825-2.087-5.175-1.766-1.134 0.27-2.138 0.955-2.951 1.726 1.198 0.716 2.599 1.127 4.096 1.127zM10.392 15.201c2.206-0.525 4.683 0.056 7.246 2.475 1.459-1.449 2.363-3.457 2.363-5.676 0-4.418-3.582-8-8-8s-8 3.582-8 8c0 2.195 0.884 4.183 2.315 5.629 1.018-1.015 2.396-2.028 4.076-2.427z"></path>
</symbol>
<symbol id="icon--thumbsUp" viewBox="0 0 24 24">
<title>thumbsUp</title>
<path d="M8 11.78v7.22h8l3-5.759v-1.291h-7.639l1.036-7.944-4.397 7.774zM6.134 11l4.555-8.034c1.124-1.846 3.971-0.845 3.692 1.299l-0.741 5.685h6.861c0.276 0 0.5 0.224 0.5 0.5v3c0 0.138-0.029 0.274-0.084 0.401l-3.276 6.647c-0.091 0.197-0.246 0.357-0.441 0.453-0.131 0.065-0.276 0.049-0.422 0.049h-12.777c-1.105 0-2-1.045-2-2.149v-5.851c0-1.105 0.895-2 2-2h2.134zM6 13h-2v6h2v-6z"></path>
</symbol>
<symbol id="icon--sms2" viewBox="0 0 24 24">
<title>sms2</title>
<path d="M7 6c-0.552 0-1 0.448-1 1s0.448 1 1 1h10c0.552 0 1-0.448 1-1s-0.448-1-1-1h-10z"></path>
<path d="M6 10c0-0.552 0.448-1 1-1h10c0.552 0 1 0.448 1 1s-0.448 1-1 1h-10c-0.552 0-1-0.448-1-1z"></path>
<path d="M7 12c-0.552 0-1 0.448-1 1s0.448 1 1 1h6c0.552 0 1-0.448 1-1s-0.448-1-1-1h-6z"></path>
<path d="M2 4v15.586c0 0.891 1.077 1.337 1.707 0.707l2.293-2.293h14c1.105 0 2-0.895 2-2v-12c0-1.105-0.895-2-2-2h-16c-1.105 0-2 0.895-2 2zM4 4h16v12h-15l-1 1v-13z"></path>
</symbol>
<symbol id="icon--sun" viewBox="0 0 24 24">
<title>sun</title>
<path d="M12 7c0.55 0 1-0.45 1-1v-2c0-0.55-0.45-1-1-1s-1 0.45-1 1v2c0 0.55 0.45 1 1 1z"></path>
<path d="M16.58 15h2.42c0.552 0 1 0.448 1 1s-0.448 1-1 1h-14c-0.552 0-1-0.448-1-1s0.448-1 1-1h2.42c-0.27-0.61-0.42-1.29-0.42-2 0-2.76 2.24-5 5-5s5 2.24 5 5c0 0.71-0.15 1.39-0.42 2zM12 10c-1.66 0-3 1.34-3 3 0 0.77 0.3 1.47 0.78 2h4.44c0.48-0.53 0.78-1.23 0.78-2 0-1.66-1.34-3-3-3z"></path>
<path d="M7 19c0-0.552 0.448-1 1-1h8c0.552 0 1 0.448 1 1s-0.448 1-1 1h-8c-0.552 0-1-0.448-1-1z"></path>
<path d="M5 14h-2c-0.55 0-1-0.45-1-1s0.45-1 1-1h2c0.55 0 1 0.45 1 1s-0.45 1-1 1z"></path>
<path d="M19 14c-0.55 0-1-0.45-1-1s0.45-1 1-1h2c0.55 0 1 0.45 1 1s-0.45 1-1 1h-2z"></path>
<path d="M7.709 8.709c-0.209 0.209-0.486 0.306-0.76 0.291-0.238-0.013-0.474-0.11-0.66-0.291l-2.049-2.059c-0.162-0.189-0.241-0.42-0.241-0.65 0-0.282 0.119-0.562 0.351-0.76 0.191-0.165 0.432-0.245 0.671-0.24 0.225 0.005 0.45 0.085 0.629 0.24l2.059 2.049c0.239 0.227 0.335 0.547 0.291 0.852-0.030 0.204-0.124 0.402-0.281 0.558l-0.010 0.010z"></path>
<path d="M16.291 8.709c0.209 0.209 0.486 0.306 0.76 0.291 0.238-0.013 0.474-0.11 0.66-0.291l2.049-2.059c0.162-0.189 0.241-0.42 0.241-0.65-0-0.282-0.119-0.562-0.351-0.76-0.191-0.165-0.432-0.245-0.671-0.24-0.225 0.005-0.45 0.085-0.629 0.24l-2.059 2.049c-0.239 0.227-0.335 0.547-0.291 0.852 0.030 0.204 0.124 0.402 0.281 0.558l0.010 0.010z"></path>
</symbol>
<symbol id="icon--userSwitch" viewBox="0 0 24 24">
<title>userSwitch</title>
<path d="M8 6c-1.652 0-3 1.348-3 3s1.348 3 3 3c1.652 0 3-1.348 3-3s-1.338-3-3-3zM8 10.154c-0.637 0-1.154-0.517-1.154-1.154s0.517-1.154 1.154-1.154c0.637 0 1.154 0.517 1.154 1.154s-0.517 1.154-1.154 1.154z"></path>
<path d="M13 9c0-1.652 1.348-3 3-3 1.662 0 3 1.348 3 3s-1.348 3-3 3c-1.652 0-3-1.348-3-3zM14.846 9c0 0.637 0.517 1.154 1.154 1.154s1.154-0.517 1.154-1.154c0-0.637-0.517-1.154-1.154-1.154s-1.154 0.517-1.154 1.154z"></path>
<path d="M21.496 19h-6.496c0-0.701-0.12-1.374-0.341-2h4.811c-0.692-1.19-1.986-2-3.471-2-0.754 0-1.464 0.212-2.070 0.578-0.392-0.564-0.878-1.057-1.435-1.457 0.987-0.706 2.197-1.122 3.505-1.122 3.15 0 5.727 2.41 5.998 5.47 0.030 0.29-0.211 0.53-0.501 0.53z"></path>
<path d="M2.001 18.47c0.271-3.060 2.849-5.47 5.998-5.47s5.727 2.41 5.998 5.47c0.030 0.29-0.211 0.53-0.502 0.53h-10.983c-0.291 0-0.532-0.24-0.512-0.53zM11.47 17c-0.692-1.19-1.986-2-3.47-2-1.474 0-2.778 0.81-3.471 2h6.941z"></path>
</symbol>
<symbol id="icon--menu" viewBox="0 0 24 24">
<title>menu</title>
<path d="M4 7c0-0.552 0.448-1 1-1h10c0.552 0 1 0.448 1 1s-0.448 1-1 1h-10c-0.552 0-1-0.448-1-1z"></path>
<path d="M4 17c0 0.552 0.448 1 1 1h10c0.552 0 1-0.448 1-1s-0.448-1-1-1h-10c-0.552 0-1 0.448-1 1z"></path>
<path d="M18.414 9c-0.39-0.391-1.024-0.391-1.414 0s-0.39 1.024 0 1.414l0.586 0.586h-12.586c-0.552 0-1 0.448-1 1s0.448 1 1 1h12.586l-0.586 0.586c-0.39 0.39-0.39 1.024 0 1.414s1.024 0.39 1.414 0l2.293-2.293c0.39-0.39 0.39-1.024 0-1.414l-2.293-2.293z"></path>
</symbol>
<symbol id="icon--expense" viewBox="0 0 24 24">
<title>expense</title>
<path d="M13.293 8.707c-0.667-0.667-1.29-0.707-1.316-0.707-0.528 0-0.977 0.45-0.977 1 0 0.646 0.128 0.752 1.243 1.030 1.031 0.258 2.757 0.69 2.757 2.97-0.002 0.618-0.196 1.22-0.554 1.724s-0.863 0.885-1.446 1.090v0.184c0 0.265-0.105 0.52-0.293 0.707s-0.442 0.293-0.707 0.293c-0.265 0-0.52-0.105-0.707-0.293s-0.293-0.442-0.293-0.707v-0.2c-0.644-0.229-1.228-0.602-1.707-1.090-0.188-0.188-0.293-0.442-0.293-0.707s0.105-0.52 0.293-0.707 0.442-0.293 0.707-0.293c0.265-0 0.52 0.105 0.707 0.293 0.667 0.667 1.291 0.707 1.317 0.707 0.528 0 0.976-0.448 0.976-1 0-0.646-0.127-0.75-1.242-1.030-1.031-0.257-2.758-0.69-2.758-2.97 0.002-0.618 0.195-1.221 0.553-1.725s0.863-0.885 1.447-1.091v-0.184c0-0.265 0.105-0.52 0.293-0.707s0.442-0.293 0.707-0.293c0.265 0 0.52 0.105 0.707 0.293s0.293 0.442 0.293 0.707v0.2c0.645 0.229 1.229 0.603 1.707 1.093 0.182 0.189 0.283 0.441 0.281 0.703s-0.108 0.513-0.293 0.698c-0.185 0.185-0.436 0.291-0.698 0.293s-0.515-0.099-0.703-0.281z"></path>
<path d="M4 4c0-1.105 0.895-2 2-2h12c1.105 0 2 0.895 2 2v17c0 0.799-0.89 1.275-1.555 0.832l-2.318-1.545-1.42 1.42c-0.39 0.39-1.024 0.39-1.414 0l-1.293-1.293-1.293 1.293c-0.39 0.39-1.024 0.39-1.414 0l-1.42-1.42-2.318 1.545c-0.665 0.443-1.555-0.033-1.555-0.832v-17zM6 4v15.132l1.445-0.964c0.397-0.264 0.925-0.212 1.262 0.125l1.293 1.293 1.293-1.293c0.39-0.39 1.024-0.39 1.414 0l1.293 1.293 1.293-1.293c0.337-0.337 0.865-0.389 1.262-0.125l1.445 0.964v-15.132h-12z"></path>
</symbol>
<symbol id="icon--sort" viewBox="0 0 24 24">
<title>sort</title>
<path d="M16 8c1.105 0 2 0.895 2 2v1c1.105 0 2 0.895 2 2v1c0 1.105-0.895 2-2 2h-10c-1.105 0-2-0.895-2-2v-1c-1.105 0-2-0.895-2-2v-1c0-1.105 0.895-2 2-2h10zM15.5 11c0.276 0 0.5-0.224 0.5-0.5s-0.224-0.5-0.5-0.5h-9c-0.276 0-0.5 0.224-0.5 0.5s0.224 0.5 0.5 0.5h9zM8 13v1h10v-1h-10z"></path>
<path d="M11.293 3.293c0.195-0.195 0.451-0.293 0.707-0.293s0.512 0.098 0.707 0.293l2.293 2c0.39 0.391 0.39 1.024 0 1.414s-1.024 0.391-1.414 0l-1.586-1.293-1.586 1.293c-0.39 0.391-1.024 0.391-1.414 0s-0.391-1.024 0-1.414l2.293-2z"></path>
<path d="M12 18.586l-1.586-1.293c-0.2-0.2-0.464-0.298-0.726-0.293-0.25 0.005-0.498 0.102-0.688 0.293-0.391 0.39-0.391 1.024 0 1.414l2.293 2c0.195 0.195 0.451 0.293 0.707 0.293s0.512-0.098 0.707-0.293l2.293-2c0.39-0.39 0.39-1.024 0-1.414-0.19-0.19-0.439-0.288-0.688-0.293-0.262-0.005-0.526 0.093-0.726 0.293l-1.586 1.293z"></path>
</symbol>
<symbol id="icon--knot" viewBox="0 0 24 24">
<title>knot</title>
<path d="M15 16.351c0 0.358-0.291 0.649-0.649 0.649h-4.702c-0.358 0-0.649-0.291-0.649-0.649 0-0.714-0.399-1.355-0.937-1.823-1.264-1.1-2.063-2.721-2.063-4.528 0-3.314 2.686-6 6-6s6 2.686 6 6c0 1.807-0.799 3.428-2.063 4.528-0.539 0.469-0.937 1.109-0.937 1.823zM14 14.042c0-0.357 0.197-0.679 0.477-0.901 0.928-0.732 1.523-1.867 1.523-3.141 0-2.209-1.791-4-4-4s-4 1.791-4 4c0 1.274 0.595 2.409 1.523 3.141 0.28 0.221 0.477 0.544 0.477 0.901 0 0.529 0.429 0.958 0.958 0.958h2.083c0.529 0 0.958-0.429 0.958-0.958z"></path>
<path d="M10 18c-0.552 0-1 0.448-1 1s0.448 1 1 1h4c0.552 0 1-0.448 1-1s-0.448-1-1-1h-4z"></path>
</symbol>
<symbol id="icon--clearFilters" viewBox="0 0 24 24">
<title>clearFilters</title>
<path d="M4.705 4.291l5.555 6.058 2.241 2.241v-0.008l2 2v0.008l5.208 4.704c0.16 0.16 0.254 0.36 0.283 0.568 0.008 0.056 0.011 0.112 0.009 0.168-0.007 0.246-0.105 0.49-0.293 0.678-0.202 0.203-0.47 0.3-0.736 0.292-0.037-0.001-0.074-0.004-0.11-0.009-0.208-0.029-0.408-0.123-0.568-0.283l-3.793-3.29v0.582c0 0.315-0.148 0.611-0.4 0.8l-4 3c-0.659 0.494-1.6 0.024-1.6-0.8v-9.582l-5.209-5.713c-0.212-0.212-0.309-0.496-0.291-0.773 0.015-0.233 0.112-0.463 0.291-0.641 0.18-0.18 0.413-0.277 0.649-0.291 0.275-0.016 0.555 0.081 0.766 0.291zM10.5 13.418v5.582l2-1.5v-2.082l-2-2z"></path>
<path d="M7.95 5l-1.95-1.95v-0.050h14c0.854 0 1.315 1.002 0.759 1.651l-5.759 6.719v0.68l-1.732-1.732 4.558-5.318h-9.876z"></path>
</symbol>
<symbol id="icon--lock" viewBox="0 0 24 24">
<title>lock</title>
<path d="M12 14c-0.552 0-1 0.448-1 1v1c0 0.552 0.448 1 1 1s1-0.448 1-1v-1c0-0.552-0.448-1-1-1z"></path>
<path d="M12 3c2.209 0 4 1.791 4 4v3h2c1.105 0 2 0.895 2 2v7c0 1.105-0.895 2-2 2h-12c-1.105 0-2-0.895-2-2v-7c0-1.105 0.895-2 2-2h2v-3c0-2.209 1.791-4 4-4zM14 7c0-1.105-0.895-2-2-2s-2 0.895-2 2v3h4v-3zM6 12v7h12v-7h-12z"></path>
</symbol>
<symbol id="icon--textBox" viewBox="0 0 24 24">
<title>textBox</title>
<path d="M4 8c0-0.552 0.448-1 1-1h7c0.552 0 1 0.448 1 1s-0.448 1-1 1h-7c-0.552 0-1-0.448-1-1z"></path>
<path d="M15 8c0-0.552 0.448-1 1-1h3c0.552 0 1 0.448 1 1s-0.448 1-1 1h-3c-0.552 0-1-0.448-1-1z"></path>
<path d="M5 11c-0.552 0-1 0.448-1 1s0.448 1 1 1h3c0.552 0 1-0.448 1-1s-0.448-1-1-1h-3z"></path>
<path d="M11 12c0-0.552 0.448-1 1-1h7c0.552 0 1 0.448 1 1s-0.448 1-1 1h-7c-0.552 0-1-0.448-1-1z"></path>
<path d="M4 16c0-0.552 0.448-1 1-1h5c0.552 0 1 0.448 1 1s-0.448 1-1 1h-5c-0.552 0-1-0.448-1-1z"></path>
<path d="M14 15c-0.552 0-1 0.448-1 1s0.448 1 1 1h5c0.552 0 1-0.448 1-1s-0.448-1-1-1h-5z"></path>
</symbol>
<symbol id="icon--textField" viewBox="0 0 24 24">
<title>textField</title>
<path d="M5 9c-0.552 0-1 0.448-1 1s0.448 1 1 1h7c0.552 0 1-0.448 1-1s-0.448-1-1-1h-7z"></path>
<path d="M16 9c-0.552 0-1 0.448-1 1s0.448 1 1 1h3c0.552 0 1-0.448 1-1s-0.448-1-1-1h-3z"></path>
<path d="M4 14c0-0.552 0.448-1 1-1h3c0.552 0 1 0.448 1 1s-0.448 1-1 1h-3c-0.552 0-1-0.448-1-1z"></path>
<path d="M12 13c-0.552 0-1 0.448-1 1s0.448 1 1 1h7c0.552 0 1-0.448 1-1s-0.448-1-1-1h-7z"></path>
</symbol>
<symbol id="icon--checkbox" viewBox="0 0 24 24">
<title>checkbox</title>
<path d="M8.719 11.211c-0.092-0.096-0.203-0.172-0.325-0.224s-0.253-0.080-0.386-0.081c-0.133-0.001-0.264 0.024-0.387 0.074s-0.235 0.125-0.328 0.219-0.168 0.206-0.218 0.328c-0.050 0.123-0.076 0.255-0.074 0.387s0.029 0.264 0.081 0.386 0.129 0.232 0.224 0.325l2.68 3.086c0.188 0.187 0.442 0.293 0.707 0.293s0.519-0.105 0.707-0.293l5.274-4.992c0.096-0.092 0.172-0.203 0.224-0.325s0.080-0.253 0.081-0.386c0.001-0.133-0.024-0.264-0.074-0.387s-0.125-0.235-0.219-0.328-0.206-0.168-0.328-0.218c-0.123-0.050-0.255-0.076-0.387-0.074s-0.264 0.029-0.386 0.081-0.232 0.129-0.325 0.224l-4.566 4.285-1.973-2.379z"></path>
<path d="M5 3h14c1.105 0 2 0.895 2 2v14c0 1.105-0.895 2-2 2h-14c-1.105 0-2-0.895-2-2v-14c0-1.105 0.895-2 2-2zM19 5h-14v14h14v-14z"></path>
</symbol>
<symbol id="icon--camera" viewBox="0 0 24 24">
<title>camera</title>
<path d="M8.618 4c-0.758 0-1.45 0.428-1.789 1.106l-0.447 0.894h-2.382c-1.105 0-2 0.895-2 2v10c0 1.105 0.895 2 2 2h16c1.105 0 2-0.895 2-2v-10c0-1.105-0.895-2-2-2h-2.382l-0.447-0.894c-0.339-0.678-1.031-1.106-1.789-1.106h-6.764zM7.618 8l1-2h6.764l1 2h3.618v10h-16v-10h3.618zM16 13c0-2.209-1.791-4-4-4s-4 1.791-4 4 1.791 4 4 4c2.209 0 4-1.791 4-4zM14 13c0 1.105-0.895 2-2 2s-2-0.895-2-2c0-1.105 0.895-2 2-2s2 0.895 2 2z"></path>
</symbol>
<symbol id="icon--chat" viewBox="0 0 24 24">
<title>chat</title>
<path d="M3 2c-0.552 0-1 0.448-1 1v6c0 0.552 0.448 1 1 1h2v2c0 0.854 1.002 1.315 1.651 0.759l3.219-2.759h5.13c0.552 0 1-0.448 1-1v-6c0-0.552-0.448-1-1-1h-12zM4 8v-4h10v4h-4.87l-2.13 1.826v-1.826h-3z"></path>
<path d="M21 12c0.552 0 1 0.448 1 1v6c0 0.552-0.448 1-1 1h-2v2c0 0.854-1.002 1.315-1.651 0.759l-3.219-2.759h-5.13c-0.552 0-1-0.448-1-1v-6c0-0.552 0.448-1 1-1h12zM20 18v-4h-10v4h4.87l2.13 1.826v-1.826h3z"></path>
</symbol>
<symbol id="icon--eye" viewBox="0 0 24 24">
<title>eye</title>
<path d="M16 12c0-2.209-1.791-4-4-4s-4 1.791-4 4c0 2.209 1.791 4 4 4s4-1.791 4-4zM14 12c0 1.105-0.895 2-2 2s-2-0.895-2-2c0-1.105 0.895-2 2-2s2 0.895 2 2z"></path>
<path d="M21.863 12.477c0.092-0.148 0.137-0.312 0.137-0.477s-0.046-0.329-0.137-0.477c-1.068-1.723-5.16-7.523-9.863-7.523s-8.795 5.8-9.863 7.523c-0.092 0.148-0.137 0.312-0.137 0.477s0.046 0.329 0.137 0.477c1.068 1.723 5.16 7.523 9.863 7.523s8.794-5.8 9.863-7.523zM20 12c0 0-3.582 6-8 6s-8-6-8-6 3.582-6 8-6c4.418 0 8 6 8 6z"></path>
</symbol>
<symbol id="icon--percent" viewBox="0 0 24 24">
<title>percent</title>
<path d="M18.707 5.29c0.201 0.201 0.298 0.466 0.293 0.73-0.006 0.248-0.103 0.495-0.293 0.684l-12.004 12.004c-0.207 0.207-0.483 0.304-0.754 0.292-0.24-0.011-0.477-0.108-0.66-0.292-0.173-0.173-0.269-0.394-0.289-0.62-0.025-0.284 0.072-0.577 0.289-0.794l12.004-12.004c0.177-0.177 0.404-0.274 0.635-0.29 0.279-0.020 0.566 0.077 0.779 0.29z"></path>
<path d="M8 11c-1.657 0-3-1.343-3-3s1.343-3 3-3c1.657 0 3 1.343 3 3s-1.343 3-3 3zM8 9c0.552 0 1-0.448 1-1s-0.448-1-1-1c-0.552 0-1 0.448-1 1s0.448 1 1 1z"></path>
<path d="M19 16c0-1.657-1.343-3-3-3s-3 1.343-3 3c0 1.657 1.343 3 3 3s3-1.343 3-3zM17 16c0 0.552-0.448 1-1 1s-1-0.448-1-1c0-0.552 0.448-1 1-1s1 0.448 1 1z"></path>
</symbol>
<symbol id="icon--angieslist" viewBox="0 0 24 24">
<title>angieslist</title>
<path d="M9.87 19.419l1.547-4.419h5.583c2.761 0 5-2.239 5-5s-2.239-5-5-5h-10c-2.761 0-5 2.239-5 5 0 2.677 2.104 4.862 4.748 4.994l1.549 4.426c0.084 0.239 0.272 0.427 0.511 0.511 0.434 0.152 0.91-0.077 1.062-0.511zM10.117 13.668l-1.034 2.953-1.022-2.919c-0.067-0.192-0.244-0.324-0.447-0.334l-0.784-0.039c-1.767-0.088-3.164-1.551-3.164-3.329 0-1.841 1.492-3.333 3.333-3.333h10c1.841 0 3.333 1.492 3.333 3.333s-1.492 3.333-3.333 3.333h-6.411c-0.212 0-0.402 0.134-0.472 0.335z"></path>
</symbol>
<symbol id="icon--instagram" viewBox="0 0 24 24">
<title>instagram</title>
<path d="M12 2c-2.716 0-3.056 0.012-4.123 0.060-1.064 0.049-1.791 0.218-2.427 0.465-0.658 0.256-1.215 0.597-1.771 1.153s-0.898 1.114-1.153 1.771c-0.247 0.636-0.416 1.363-0.465 2.427-0.049 1.067-0.060 1.407-0.060 4.123s0.012 3.056 0.060 4.123c0.049 1.064 0.218 1.791 0.465 2.427 0.256 0.658 0.597 1.215 1.153 1.771s1.114 0.898 1.771 1.153c0.636 0.247 1.363 0.416 2.427 0.465 1.067 0.049 1.407 0.060 4.123 0.060s3.056-0.012 4.123-0.060c1.064-0.048 1.791-0.218 2.427-0.465 0.658-0.255 1.215-0.597 1.771-1.153s0.898-1.114 1.153-1.771c0.247-0.636 0.416-1.363 0.465-2.427 0.049-1.067 0.060-1.407 0.060-4.123s-0.012-3.056-0.060-4.123c-0.048-1.064-0.218-1.791-0.465-2.427-0.255-0.658-0.597-1.215-1.153-1.771s-1.114-0.898-1.771-1.153c-0.636-0.247-1.363-0.416-2.427-0.465-1.067-0.049-1.407-0.060-4.123-0.060zM12 3.802c2.67 0 2.986 0.010 4.041 0.058 0.975 0.044 1.504 0.207 1.857 0.344 0.467 0.181 0.8 0.398 1.15 0.748s0.567 0.683 0.748 1.15c0.137 0.352 0.3 0.882 0.344 1.857 0.048 1.054 0.058 1.371 0.058 4.041s-0.010 2.986-0.058 4.041c-0.045 0.975-0.207 1.504-0.344 1.857-0.181 0.467-0.398 0.8-0.748 1.15s-0.683 0.567-1.15 0.748c-0.352 0.137-0.882 0.3-1.857 0.344-1.054 0.048-1.371 0.058-4.041 0.058s-2.987-0.010-4.041-0.058c-0.975-0.045-1.505-0.207-1.857-0.344-0.467-0.181-0.8-0.398-1.15-0.748s-0.567-0.683-0.748-1.15c-0.137-0.352-0.3-0.882-0.344-1.857-0.048-1.054-0.058-1.371-0.058-4.041s0.010-2.986 0.058-4.041c0.044-0.975 0.207-1.504 0.344-1.857 0.181-0.467 0.398-0.8 0.748-1.15s0.683-0.567 1.15-0.748c0.352-0.137 0.882-0.3 1.857-0.344 1.054-0.048 1.371-0.058 4.041-0.058zM6.865 12c0 2.836 2.299 5.135 5.135 5.135s5.135-2.299 5.135-5.135c0-2.836-2.299-5.135-5.135-5.135s-5.135 2.299-5.135 5.135zM12 15.333c-1.841 0-3.333-1.492-3.333-3.333s1.492-3.333 3.333-3.333c1.841 0 3.333 1.492 3.333 3.333s-1.492 3.333-3.333 3.333zM17.338 7.862c0.663 0 1.2-0.537 1.2-1.2s-0.537-1.2-1.2-1.2c-0.663 0-1.2 0.537-1.2 1.2s0.537 1.2 1.2 1.2z"></path>
</symbol>
<symbol id="icon--yelp" viewBox="0 0 24 24">
<title>yelp</title>
<path d="M12.165 9.632c-0.069-1.631-0.551-8.894-0.609-9.231-0.083-0.304-0.317-0.522-0.655-0.609-1.033-0.262-4.985 0.865-5.717 1.634-0.234 0.249-0.323 0.557-0.252 0.828 0.115 0.241 5.013 8.069 5.013 8.069 0.724 1.193 1.315 1.008 1.508 0.946 0.192-0.061 0.78-0.246 0.712-1.638zM16.233 13.030c4.051-0.997 4.208-1.050 4.368-1.157 0.244-0.167 0.367-0.449 0.347-0.791v-0.035c-0.104-1.009-1.848-3.639-2.706-4.066-0.304-0.149-0.61-0.138-0.86 0.033-0.157 0.105-0.273 0.261-2.441 3.273l-0.992 1.37c-0.259 0.319-0.262 0.777-0.010 1.17 0.262 0.405 0.703 0.604 1.108 0.49l-0.021 0.035c0.2-0.077 0.557-0.166 1.208-0.323zM18.074 22.019c0.9-0.364 2.865-2.903 3.004-3.88 0.047-0.339-0.057-0.633-0.288-0.819-0.15-0.116-0.268-0.161-3.831-1.349 0 0-1.563-0.525-1.583-0.535-0.377-0.149-0.811-0.012-1.1 0.354-0.301 0.373-0.348 0.865-0.108 1.238l0.63 1.040c2.117 3.492 2.278 3.739 2.43 3.86 0.235 0.189 0.534 0.219 0.847 0.092zM12.017 23.344c0.062-0.182 0.069-0.308 0.079-4.115l0.010-1.7c0.025-0.411-0.236-0.787-0.668-0.956-0.443-0.173-0.919-0.065-1.186 0.274l-0.785 0.943c-2.687 3.204-2.796 3.352-2.863 3.542-0.039 0.114-0.056 0.231-0.041 0.349 0.016 0.169 0.091 0.338 0.216 0.493 0.622 0.753 3.608 1.87 4.562 1.704 0.332-0.061 0.572-0.251 0.675-0.535zM3.443 11.376c-0.386 0.629-0.548 2.607-0.415 3.921 0.047 0.434 0.125 0.795 0.236 1.011 0.154 0.298 0.414 0.476 0.71 0.486 0.19 0.011 0.308-0.023 3.875-1.188l1.592-0.517c0.395-0.102 0.661-0.471 0.687-0.943 0.025-0.483-0.221-0.91-0.626-1.064l-1.12-0.463c-3.832-1.606-4.004-1.67-4.198-1.672-0.296-0.011-0.56 0.14-0.741 0.431z"></path>
</symbol>
<symbol id="icon--dropdown" viewBox="0 0 24 24">
<title>dropdown</title>
<path d="M12 12.586l-2.293-2.294c-0.206-0.206-0.48-0.304-0.75-0.292-0.241 0.010-0.48 0.108-0.664 0.292-0.192 0.192-0.289 0.442-0.293 0.693-0.004 0.261 0.094 0.522 0.293 0.721l3 3.001c0.195 0.195 0.451 0.293 0.707 0.293s0.512-0.098 0.707-0.293l3.005-3c0.169-0.169 0.264-0.383 0.288-0.603 0.030-0.289-0.066-0.59-0.288-0.811-0.197-0.197-0.455-0.294-0.712-0.293-0.254 0.001-0.508 0.099-0.702 0.293l-2.298 2.293z"></path>
<path d="M22 12c0-5.523-4.477-10-10-10s-10 4.477-10 10c0 5.523 4.477 10 10 10s10-4.477 10-10zM20 12c0 4.418-3.582 8-8 8s-8-3.582-8-8c0-4.418 3.582-8 8-8s8 3.582 8 8z"></path>
</symbol>
<symbol id="icon--timeline" viewBox="0 0 24 24">
<title>timeline</title>
<path d="M8 5c0-1.657-1.343-3-3-3s-3 1.343-3 3c0 1.306 0.835 2.417 2 2.829v1.341c-1.165 0.412-2 1.523-2 2.829s0.835 2.418 2 2.829v1.341c-1.165 0.412-2 1.523-2 2.829 0 1.657 1.343 3 3 3s3-1.343 3-3c0-1.306-0.835-2.418-2-2.829v-1.341c1.165-0.412 2-1.523 2-2.829s-0.835-2.417-2-2.829v-1.341c1.165-0.412 2-1.523 2-2.829zM5 6c-0.552 0-1-0.448-1-1s0.448-1 1-1c0.552 0 1 0.448 1 1s-0.448 1-1 1zM6 12c0 0.552-0.448 1-1 1s-1-0.448-1-1c0-0.552 0.448-1 1-1s1 0.448 1 1zM6 19c0 0.552-0.448 1-1 1s-1-0.448-1-1c0-0.552 0.448-1 1-1s1 0.448 1 1z"></path>
<path d="M12 3h8c1.105 0 2 0.895 2 2v4c0 1.105-0.895 2-2 2h-8c-1.105 0-2-0.895-2-2v-4c0-1.105 0.895-2 2-2zM20 5h-8v4h8v-4z"></path>
<path d="M12 13h8c1.105 0 2 0.895 2 2v4c0 1.105-0.895 2-2 2h-8c-1.105 0-2-0.895-2-2v-4c0-1.105 0.895-2 2-2zM20 15h-8v4h8v-4z"></path>
</symbol>
<symbol id="icon--availability" viewBox="0 0 24 24">
<title>availability</title>
<path d="M3 4c-0.552 0-1 0.448-1 1s0.448 1 1 1h18c0.552 0 1-0.448 1-1s-0.448-1-1-1h-18z"></path>
<path d="M3 18c-0.552 0-1 0.448-1 1s0.448 1 1 1h18c0.552 0 1-0.448 1-1s-0.448-1-1-1h-18z"></path>
<path d="M4 8h5c1.105 0 2 0.895 2 2v4c0 1.105-0.895 2-2 2h-5c-1.105 0-2-0.895-2-2v-4c0-1.105 0.895-2 2-2zM9 10h-5v4h5v-4z"></path>
<path d="M13 10v1c0 1.105 0.895 2 2 2h5c1.105 0 2-0.895 2-2v-1c0-1.105-0.895-2-2-2h-5c-1.105 0-2 0.895-2 2zM15 10h5v1h-5v-1z"></path>
</symbol>
<symbol id="icon--eyeCrossed" viewBox="0 0 24 24">
<title>eyeCrossed</title>
<path d="M6.695 6.285l11.048 11.048 1.981 1.96c0.148 0.148 0.24 0.331 0.276 0.522 0.059 0.313-0.033 0.649-0.276 0.892-0.2 0.2-0.463 0.297-0.724 0.293-0.057-0.001-0.115-0.007-0.171-0.018-0.19-0.036-0.372-0.128-0.519-0.275l-2.151-2.13c-1.266 0.845-2.675 1.422-4.159 1.422-4.702 0-8.795-5.8-9.863-7.523-0.092-0.148-0.137-0.312-0.137-0.477s0.046-0.329 0.137-0.477c0.476-0.768 1.673-2.348 3.105-3.862l-1.953-1.958c-0.173-0.173-0.27-0.395-0.289-0.621-0.024-0.284 0.072-0.576 0.289-0.793 0.196-0.196 0.454-0.294 0.711-0.293 0.029 0 0.058 0.001 0.086 0.004 0.225 0.020 0.445 0.117 0.617 0.289l1.992 1.996zM12 18c0.99 0 1.938-0.301 2.813-0.769l-1.464-1.464c-0.421 0.151-0.875 0.233-1.349 0.233-2.209 0-4-1.791-4-4 0-0.473 0.082-0.927 0.233-1.348l-1.772-1.772c-1.517 1.539-2.461 3.121-2.461 3.121s3.582 6 8 6zM10.057 12.475c0.176 0.723 0.745 1.292 1.468 1.468l-1.468-1.468z"></path>
<path d="M11.299 8.061l4.64 4.64c0.040-0.228 0.061-0.462 0.061-0.701 0-2.209-1.791-4-4-4-0.239 0-0.473 0.021-0.701 0.061z"></path>
<path d="M17.939 14.701c1.281-1.394 2.061-2.701 2.061-2.701s-3.582-6-8-6c-0.785 0-1.544 0.19-2.261 0.501l-1.395-1.395c1.132-0.669 2.366-1.106 3.656-1.106 4.702 0 8.794 5.8 9.863 7.523 0.092 0.148 0.137 0.312 0.137 0.477s-0.046 0.329-0.137 0.477c-0.432 0.696-1.481 2.059-2.712 3.435l-1.212-1.211z"></path>
</symbol>
<symbol id="icon--request" viewBox="0 0 24 24">
<title>request</title>
<path d="M12 2c-0.552 0-1 0.448-1 1v5.586l-1.293-1.301c-0.228-0.228-0.538-0.323-0.835-0.285-0.212 0.027-0.416 0.122-0.579 0.285-0.142 0.142-0.233 0.317-0.271 0.5-0.015 0.071-0.022 0.143-0.022 0.215 0.002 0.253 0.1 0.506 0.293 0.699l3 3.008c0.197 0.197 0.455 0.294 0.713 0.293 0.254-0.001 0.508-0.099 0.702-0.293l3.022-3.293c0.179-0.179 0.276-0.41 0.291-0.645 0.006-0.090-0.001-0.181-0.020-0.27-0.039-0.183-0.129-0.358-0.271-0.5-0.205-0.205-0.478-0.303-0.747-0.292-0.243 0.010-0.482 0.107-0.667 0.292l-1.314 1.586v-5.586c0-0.552-0.448-1-1-1z"></path>
<path d="M2 5c0-1.105 0.895-2 2-2h4v2h-4v9h5c0.379 0 0.725 0.214 0.894 0.553l0.724 1.447h2.764l0.724-1.447c0.169-0.339 0.516-0.553 0.894-0.553h5v-9h-4v-2h4c1.105 0 2 0.895 2 2v15c0 1.105-0.895 2-2 2h-16c-1.105 0-2-0.895-2-2v-15zM20 16h-4.382l-0.724 1.447c-0.169 0.339-0.516 0.553-0.894 0.553h-4c-0.379 0-0.725-0.214-0.894-0.553l-0.724-1.447h-4.382v4h16v-4z"></path>
</symbol>
<symbol id="icon--download" viewBox="0 0 24 24">
<title>download</title>
<path d="M2 10.5c0 3.038 2.686 5.5 6 5.5v-2c-2.209 0-4-1.567-4-3.5s1.791-3.5 4-3.5c0.498 0 0.975 0.080 1.414 0.225 0.654-1.319 2.014-2.225 3.586-2.225 2.209 0 4 1.791 4 4h0.5c1.381 0 2.5 1.119 2.5 2.5s-1.119 2.5-2.5 2.5h-1.5v2h1.5c2.485 0 4.5-2.015 4.5-4.5 0-2.064-1.39-3.804-3.285-4.334-0.775-2.417-3.041-4.166-5.715-4.166-1.786 0-3.391 0.781-4.49 2.020-0.168-0.013-0.338-0.020-0.51-0.020-3.314 0-6 2.462-6 5.5zM11 12v5.586l-0.586-0.586c-0.39-0.39-1.024-0.39-1.414 0s-0.391 1.024 0 1.414l2.293 2.293c0.39 0.39 1.024 0.39 1.414 0l2.293-2.293c0.39-0.39 0.39-1.024 0-1.414s-1.024-0.39-1.414 0l-0.586 0.586v-5.586c0-0.552-0.448-1-1-1s-1 0.448-1 1z"></path>
</symbol>
<symbol id="icon--wallet" viewBox="0 0 24 24">
<title>wallet</title>
<path d="M17 13c-0.552 0-1 0.448-1 1s0.448 1 1 1c0.552 0 1-0.448 1-1s-0.448-1-1-1z"></path>
<path d="M2 4c0-1.105 0.895-2 2-2h14c1.105 0 2 0.895 2 2v2c1.105 0 2 0.895 2 2v12c0 1.105-0.895 2-2 2h-16c-1.105 0-2-0.895-2-2v-16zM4 8v12h16v-2h-6c-1.105 0-2-0.895-2-2v-4c0-1.105 0.895-2 2-2h6v-2h-16zM4 5c0 0.552 0.448 1 1 1h13v-2h-13c-0.552 0-1 0.448-1 1zM14 12v4h6v-4h-6z"></path>
</symbol>
<symbol id="icon--video" viewBox="0 0 24 24">
<title>video</title>
<path d="M9 9c0-0.777 0.848-1.257 1.515-0.857l5 3c0.647 0.388 0.647 1.327 0 1.715l-5 3c-0.667 0.4-1.515-0.080-1.515-0.858v-6z"></path>
<path d="M22 12c0-5.523-4.477-10-10-10s-10 4.477-10 10c0 5.523 4.477 10 10 10s10-4.477 10-10zM20 12c0 4.418-3.582 8-8 8s-8-3.582-8-8c0-4.418 3.582-8 8-8s8 3.582 8 8z"></path>
</symbol>
<symbol id="icon--more" viewBox="0 0 24 24">
<title>more</title>
<path d="M4 12c0-1.105 0.895-2 2-2s2 0.895 2 2c0 1.105-0.895 2-2 2s-2-0.895-2-2zM10 12c0-1.105 0.895-2 2-2s2 0.895 2 2c0 1.105-0.895 2-2 2s-2-0.895-2-2zM18 10c-1.105 0-2 0.895-2 2s0.895 2 2 2c1.105 0 2-0.895 2-2s-0.895-2-2-2z"></path>
</symbol>
<symbol id="icon--reports" viewBox="0 0 24 24">
<title>reports</title>
<path d="M3 4c0-1.105 0.895-2 2-2h10.609c0.567 0 1.107 0.241 1.487 0.662l3.391 3.767c0.33 0.367 0.513 0.844 0.513 1.338v12.233c0 1.105-0.895 2-2 2h-14c-1.105 0-2-0.895-2-2v-16zM5 17.414v2.586h14v-12.233l-3.391-3.767h-10.609v10.586l2.293-2.293c0.391-0.39 1.024-0.39 1.414 0l1.793 1.793 3.086-3.086h-0.586c-0.552 0-1-0.448-1-1s0.448-1 1-1h3c0.552 0 1 0.448 1 1v3c0 0.552-0.448 1-1 1s-1-0.448-1-1v-0.586l-3.793 3.793c-0.39 0.39-1.024 0.39-1.414 0l-1.793-1.793-3 3z"></path>
</symbol>
<symbol id="icon--upload" viewBox="0 0 24 24">
<title>upload</title>
<path d="M2 10.5c0 3.038 2.686 5.5 6 5.5v-2c-2.209 0-4-1.567-4-3.5s1.791-3.5 4-3.5c0.498 0 0.975 0.080 1.414 0.225 0.654-1.319 2.014-2.225 3.586-2.225 2.209 0 4 1.791 4 4h0.5c1.381 0 2.5 1.119 2.5 2.5s-1.119 2.5-2.5 2.5h-1.5v2h1.5c2.485 0 4.5-2.015 4.5-4.5 0-2.064-1.39-3.804-3.285-4.334-0.775-2.417-3.041-4.166-5.715-4.166-1.786 0-3.391 0.781-4.49 2.020-0.168-0.013-0.338-0.020-0.51-0.020-3.314 0-6 2.462-6 5.5z"></path>
<path d="M12.707 9.293c-0.39-0.391-1.024-0.391-1.414 0l-2.293 2.293c-0.391 0.39-0.391 1.024 0 1.414s1.024 0.39 1.414 0l0.586-0.586v5.586c0 0.552 0.448 1 1 1s1-0.448 1-1v-5.586l0.586 0.586c0.39 0.39 1.024 0.39 1.414 0s0.39-1.024 0-1.414l-2.293-2.293z"></path>
</symbol>
<symbol id="icon--batch" viewBox="0 0 24 24">
<title>batch</title>
<path d="M9 6c0-1.105 0.895-2 2-2h4.586c0.53 0 1.039 0.211 1.414 0.586l3.414 3.414c0.375 0.375 0.586 0.884 0.586 1.414v8.586c0 1.105-0.895 2-2 2h-8c-1.105 0-2-0.895-2-2v-12zM11 6v12h8v-8.586l-3.414-3.414h-4.586z"></path>
<path d="M6 7c0-1.105 0.895-2 2-2v14c-1.105 0-2-0.895-2-2v-10z"></path>
<path d="M5 6c-1.105 0-2 0.895-2 2v8c0 1.105 0.895 2 2 2v-12z"></path>
</symbol>
<symbol id="icon--export" viewBox="0 0 24 24">
<title>export</title>
<path d="M13 5c0-0.552 0.448-1 1-1h5c0.552 0 1 0.448 1 1v5c0 0.552-0.448 1-1 1s-1-0.448-1-1v-2.586l-9.293 9.295c-0.18 0.18-0.412 0.277-0.648 0.291-0.275 0.016-0.556-0.081-0.766-0.291-0.199-0.199-0.297-0.461-0.293-0.722 0.004-0.251 0.101-0.501 0.293-0.692l9.293-9.295h-2.586c-0.552 0-1-0.448-1-1z"></path>
<path d="M3 5c0-1.105 0.895-2 2-2h6v2h-6v14h14v-6h2v6c0 1.105-0.895 2-2 2h-14c-1.105 0-2-0.895-2-2v-14z"></path>
</symbol>
<symbol id="icon--import" viewBox="0 0 24 24">
<title>import</title>
<path d="M19.71 4.292c0.213 0.213 0.31 0.499 0.29 0.778-0.005 0.075-0.019 0.15-0.041 0.222-0.046 0.152-0.129 0.294-0.249 0.414l-9.295 9.294h2.586c0.552 0 1 0.448 1 1s-0.448 1-1 1h-5c-0.552 0-1-0.448-1-1v-5c0-0.552 0.448-1 1-1s1 0.448 1 1v2.586l9.295-9.294c0.12-0.12 0.263-0.203 0.414-0.249 0.082-0.025 0.166-0.039 0.251-0.043 0.27-0.011 0.543 0.086 0.749 0.292z"></path>
<path d="M3 5c0-1.105 0.895-2 2-2h9v2h-9v14h14v-9h2v9c0 1.105-0.895 2-2 2h-14c-1.105 0-2-0.895-2-2v-14z"></path>
</symbol>
<symbol id="icon--customize" viewBox="0 0 24 24">
<title>customize</title>
<path d="M14.707 3.881c0.586-0.587 1.353-0.881 2.121-0.881s1.536 0.294 2.121 0.881l1.172 1.174c0.586 0.587 0.879 1.357 0.879 2.126s-0.293 1.539-0.879 2.126l-9.22 9.292c-0.090 0.090-0.196 0.162-0.313 0.213l-4.795 2.020c-0.265 0.114-0.531 0.167-0.788 0.168-0.545 0.003-1.048-0.227-1.414-0.593-0.355-0.356-0.581-0.841-0.591-1.369-0.005-0.272 0.046-0.555 0.167-0.838l2.108-4.713c0.050-0.117 0.122-0.224 0.212-0.314l9.22-9.292zM17.536 5.298c-0.39-0.391-1.024-0.391-1.414 0l-0.879 0.881 2.586 2.592 0.879-0.881c0.39-0.391 0.39-1.026 0-1.418l-1.172-1.174zM16.415 10.188l-2.586-2.592-6.22 6.285 2.586 2.592 6.22-6.285zM8.443 17.553l-1.911-1.916-1.526 3.352 3.437-1.437z"></path>
<path d="M8.259 2.611c-0.815-0.815-2.136-0.815-2.951 0l-2.698 2.698c-0.815 0.815-0.815 2.136 0 2.951l3.889 3.889 1.5-1.451-1.306-1.306 0.611-0.611c0.407-0.407 0.407-1.068 0-1.475s-1.068-0.407-1.475 0l-0.611 0.611-1.133-1.133 2.698-2.698 3.853 3.914 1.363-1.363-3.741-4.026z"></path>
<path d="M17.5 11.734l-1.5 1.451 3.914 4.032-2.697 2.697-1.133-1.133 0.611-0.611c0.407-0.407 0.407-1.068 0-1.475s-1.068-0.407-1.475 0l-0.611 0.611-1.608-1.806-1.5 1.5 4.241 4.389c0.815 0.815 2.136 0.815 2.951 0l2.697-2.697c0.815-0.815 0.815-2.136 0-2.951l-3.889-4.007z"></path>
</symbol>
<symbol id="icon--jobForms" viewBox="0 0 24 24">
<title>jobForms</title>
<path d="M8 12c0-0.552 0.448-1 1-1s1 0.448 1 1c0 0.552-0.448 1-1 1s-1-0.448-1-1z"></path>
<path d="M9 15c-0.552 0-1 0.448-1 1s0.448 1 1 1c0.552 0 1-0.448 1-1s-0.448-1-1-1z"></path>
<path d="M12 12c0-0.552 0.448-1 1-1h2c0.552 0 1 0.448 1 1s-0.448 1-1 1h-2c-0.552 0-1-0.448-1-1z"></path>
<path d="M13 15c-0.552 0-1 0.448-1 1s0.448 1 1 1h2c0.552 0 1-0.448 1-1s-0.448-1-1-1h-2z"></path>
<path d="M10 2h4c0.265 0 0.52 0.105 0.707 0.293l1.707 1.707h1.586c1.105 0 2 0.895 2 2v14c0 1.105-0.895 2-2 2h-12c-1.105 0-2-0.895-2-2v-14c0-1.105 0.895-2 2-2h1.586l1.707-1.707c0.188-0.188 0.442-0.293 0.707-0.293zM16.414 6l-1.707 1.707c-0.188 0.188-0.442 0.293-0.707 0.293h-4c-0.265 0-0.52-0.105-0.707-0.293l-1.707-1.707h-1.586v14h12v-14h-1.586zM9.414 5l1 1h3.172l1-1-1-1h-3.172l-1 1z"></path>
</symbol>
<symbol id="icon--embed" viewBox="0 0 24 24">
<title>embed</title>
<path d="M6 4c-1.105 0-2 0.895-2 2v2h2v-2h12v2h2v-2c0-1.105-0.895-2-2-2h-12z"></path>
<path d="M4 18v-2h2v2h12v-2h2v2c0 1.105-0.895 2-2 2h-12c-1.105 0-2-0.895-2-2z"></path>
<path d="M10.184 15.579c0.119 0.168 0.29 0.301 0.5 0.371 0.12 0.040 0.241 0.056 0.36 0.051 0.131-0.006 0.258-0.037 0.375-0.091 0.242-0.112 0.439-0.319 0.53-0.592l2.001-6.001c0.029-0.088 0.046-0.177 0.050-0.265 0.009-0.175-0.029-0.347-0.105-0.5-0.115-0.228-0.316-0.413-0.577-0.5-0.115-0.039-0.233-0.055-0.348-0.051-0.135 0.004-0.267 0.036-0.387 0.092-0.242 0.112-0.439 0.319-0.53 0.592l-2.001 6.001c-0.036 0.106-0.052 0.215-0.052 0.321 0.001 0.207 0.067 0.407 0.184 0.573z"></path>
<path d="M7.446 9.168c0.171-0.114 0.363-0.168 0.554-0.168 0.113 0 0.226 0.019 0.333 0.057 0.198 0.069 0.375 0.201 0.5 0.389 0.121 0.182 0.175 0.389 0.167 0.592-0.012 0.31-0.167 0.61-0.445 0.795l-1.753 1.168 1.753 1.168c0.278 0.185 0.433 0.485 0.445 0.795 0.008 0.203-0.046 0.41-0.167 0.592-0.146 0.219-0.364 0.362-0.602 0.418-0.26 0.061-0.544 0.019-0.784-0.141l-3.001-2.001c-0.594-0.396-0.594-1.268 0-1.664l3.001-2z"></path>
<path d="M16.001 15.001c0.191 0 0.384-0.054 0.554-0.168l3.001-2c0.594-0.396 0.594-1.268 0-1.664l-3.001-2.001c-0.24-0.16-0.524-0.203-0.784-0.141-0.238 0.056-0.456 0.199-0.602 0.419-0.121 0.182-0.175 0.389-0.167 0.592 0.012 0.31 0.167 0.61 0.445 0.795l1.752 1.168-1.752 1.168c-0.278 0.185-0.433 0.485-0.445 0.795-0.008 0.203 0.046 0.41 0.167 0.592 0.125 0.188 0.303 0.319 0.5 0.389 0.107 0.038 0.219 0.057 0.333 0.057z"></path>
</symbol>
<symbol id="icon--share" viewBox="0 0 24 24">
<title>share</title>
<path d="M20 7c0 1.657-1.343 3-3 3-0.773 0-1.478-0.292-2.010-0.773l-4.072 1.962c0.054 0.262 0.082 0.533 0.082 0.81 0 0.293-0.032 0.579-0.091 0.855l3.967 2.027c0.543-0.544 1.294-0.881 2.124-0.881 1.657 0 3 1.343 3 3s-1.343 3-3 3c-1.657 0-3-1.343-3-3 0-0.104 0.005-0.206 0.015-0.307l-4.022-2.040c-0.733 0.826-1.802 1.347-2.994 1.347-2.209 0-4-1.791-4-4s1.791-4 4-4c1.225 0 2.322 0.551 3.056 1.419l3.982-1.942c-0.025-0.155-0.038-0.314-0.038-0.476 0-1.657 1.343-3 3-3s3 1.343 3 3zM18 7c0-0.552-0.448-1-1-1s-1 0.448-1 1c0 0.552 0.448 1 1 1s1-0.448 1-1zM8.137 10.354c-0.323-0.223-0.715-0.354-1.137-0.354-1.065 0-1.936 0.833-1.997 1.883-0.002 0.039-0.003 0.078-0.003 0.117s0.001 0.077 0.003 0.116l0 0.006c0.063 1.048 0.933 1.878 1.996 1.878 0.398 0 0.769-0.116 1.081-0.317 0.553-0.356 0.919-0.977 0.919-1.683 0-0.621-0.283-1.176-0.728-1.543-0.044-0.036-0.089-0.070-0.135-0.102zM17 18c0.552 0 1-0.448 1-1s-0.448-1-1-1c-0.552 0-1 0.448-1 1s0.448 1 1 1z"></path>
</symbol>
</defs>
</svg>
