<!-- Generated by IcoMoon.io -->
<svg version="1.1" xmlns="http://www.w3.org/2000/svg" width="720" height="720" viewBox="0 0 720 720">
<title>addNote</title>
<path fill="black" d="M180.176 118.006c0-33.169 26.889-60.058 60.058-60.058h257.825c15.927 0 31.203 6.327 42.467 17.591l102.526 102.526c11.264 11.263 17.591 26.539 17.591 42.468v377.943c0 33.171-26.888 60.058-60.058 60.058h-360.352c-33.169 0-60.058-26.888-60.058-60.058v-60.058h60.058v60.058h360.352v-377.943l-102.526-102.526h-257.825v60.058h-60.058v-60.058zM150.147 268.152c0-16.585 13.445-30.030 30.030-30.030s30.030 13.445 30.030 30.030v60.058h60.058c16.585 0 30.030 13.444 30.030 30.030s-13.445 30.030-30.030 30.030h-60.058v60.058c0 16.585-13.445 30.030-30.030 30.030s-30.030-13.444-30.030-30.030v-60.058h-60.058c-16.585 0-30.030-13.444-30.030-30.030s13.445-30.030 30.030-30.030h60.058v-60.058z"></path>
</svg>
