<!-- Generated by IcoMoon.io -->
<svg version="1.1" xmlns="http://www.w3.org/2000/svg" width="720" height="720" viewBox="0 0 720 720">
<title>address</title>
<path fill="#7db00e" d="M383.595 646.543c-5.808 7.994-14.525 11.991-23.243 11.991s-17.435-3.997-23.242-11.991c-54.694-75.305-186.963-256.27-186.963-348.361 0-116.093 94.113-210.206 210.206-210.206s210.206 94.113 210.206 210.206c0 92.091-132.27 273.056-186.963 348.361zM360.352 583.46c0 0 150.147-202.356 150.147-285.278s-67.224-150.147-150.147-150.147c-82.924 0-150.147 67.223-150.147 150.147s150.147 285.278 150.147 285.278zM420.41 298.182c0 33.171-26.888 60.058-60.058 60.058s-60.058-26.888-60.058-60.058c0-33.169 26.888-60.058 60.058-60.058s60.058 26.889 60.058 60.058z"></path>
</svg>
