<!-- Generated by IcoMoon.io -->
<svg version="1.1" xmlns="http://www.w3.org/2000/svg" width="720" height="720" viewBox="0 0 720 720">
<title>apps</title>
<path fill="#7db00e" d="M90 150v120c0 33.138 26.863 60 60 60h120c33.138 0 60-26.862 60-60v-120c0-33.137-26.862-60-60-60h-120c-33.137 0-60 26.863-60 60zM150 150h120v120h-120v-120z"></path>
<path fill="#7db00e" d="M390 150v120c0 33.138 26.862 60 60 60h120c33.138 0 60-26.862 60-60v-120c0-33.137-26.862-60-60-60h-120c-33.138 0-60 26.863-60 60zM450 150h120v120h-120v-120z"></path>
<path fill="#7db00e" d="M150 390h120c33.138 0 60 26.862 60 60v120c0 33.138-26.862 60-60 60h-120c-33.137 0-60-26.862-60-60v-120c0-33.138 26.863-60 60-60zM270 450h-120v120h120v-120z"></path>
<path fill="#7db00e" d="M480 420c0-16.569 13.431-30 30-30s30 13.431 30 30v60h60c16.569 0 30 13.431 30 30s-13.431 30-30 30h-60v60c0 16.569-13.431 30-30 30s-30-13.431-30-30v-60h-60c-16.569 0-30-13.431-30-30s13.431-30 30-30h60v-60z"></path>
</svg>
