<!-- Generated by IcoMoon.io -->
<svg version="1.1" xmlns="http://www.w3.org/2000/svg" width="720" height="720" viewBox="0 0 720 720">
<title>archive</title>
<path fill="black" d="M150.147 148.035c0-33.169 26.889-60.058 60.058-60.058h300.293c33.171 0 60.058 26.889 60.058 60.058h-420.41zM180.176 178.064c-33.17 0-60.058 26.889-60.058 60.058h480.469c0-33.169-26.888-60.058-60.058-60.058h-360.352zM270.264 388.27c-16.585 0-30.030 13.444-30.030 30.030s13.445 30.030 30.030 30.030h180.176c16.585 0 30.030-13.444 30.030-30.030s-13.444-30.030-30.030-30.030h-180.176zM60.058 328.211v240.235c0 33.171 26.889 60.058 60.058 60.058h480.469c33.171 0 60.058-26.888 60.058-60.058v-240.235c0-33.169-26.888-60.058-60.058-60.058h-480.469c-33.17 0-60.058 26.889-60.058 60.058zM120.118 328.211h480.469v240.235h-480.469v-240.235z"></path>
</svg>
