<!-- Generated by IcoMoon.io -->
<svg version="1.1" xmlns="http://www.w3.org/2000/svg" width="720" height="720" viewBox="0 0 720 720">
<title>arrowUp</title>
<path fill="black" d="M489.376 439.578c5.865 5.846 13.549 8.765 21.227 8.75 7.655-0.015 15.306-2.94 21.144-8.774 5.841-5.835 8.765-13.48 8.781-21.128 0.015-7.684-2.913-15.372-8.781-21.234l-150.147-150.273c-5.868-5.863-13.558-8.795-21.249-8.795s-15.381 2.932-21.249 8.795l-150.147 150.145c-5.867 5.865-8.794 13.552-8.78 21.236 0.013 7.649 2.94 15.294 8.78 21.128s13.489 8.76 21.144 8.774c7.68 0.012 15.363-2.904 21.227-8.75l129.025-128.784 129.024 128.91z"></path>
</svg>
