<!-- Generated by IcoMoon.io -->
<svg version="1.1" xmlns="http://www.w3.org/2000/svg" width="720" height="720" viewBox="0 0 720 720">
<title>arrowRight</title>
<path fill="black" d="M264 472.25c-5.848 5.865-8.764 13.549-8.75 21.227 0.013 7.655 2.938 15.306 8.774 21.144 5.835 5.841 13.48 8.765 21.129 8.781 7.684 0.015 15.372-2.913 21.234-8.781l150.273-150.147c5.865-5.868 8.795-13.558 8.795-21.249s-2.931-15.381-8.795-21.249l-150.144-150.147c-5.865-5.867-13.552-8.794-21.236-8.78-7.649 0.013-15.293 2.94-21.129 8.78s-8.76 13.489-8.774 21.144c-0.013 7.68 2.903 15.363 8.75 21.227l128.783 129.025-128.91 129.024z"></path>
</svg>
