<!-- Generated by IcoMoon.io -->
<svg version="1.1" xmlns="http://www.w3.org/2000/svg" width="720" height="720" viewBox="0 0 720 720">
<title>arrowLeft</title>
<path fill="#7db00e" d="M456.704 472.25c5.846 5.865 8.765 13.549 8.75 21.227-0.015 7.655-2.94 15.306-8.774 21.144-5.835 5.841-13.48 8.765-21.128 8.781-7.684 0.015-15.372-2.913-21.234-8.781l-150.273-150.147c-5.863-5.868-8.795-13.558-8.795-21.249s2.932-15.381 8.795-21.249l150.145-150.147c5.865-5.867 13.552-8.794 21.236-8.78 7.649 0.013 15.294 2.94 21.128 8.78s8.76 13.489 8.774 21.144c0.012 7.68-2.904 15.363-8.75 21.227l-128.784 129.025 128.91 129.024z"></path>
</svg>
