<!-- Generated by IcoMoon.io -->
<svg version="1.1" xmlns="http://www.w3.org/2000/svg" width="720" height="720" viewBox="0 0 720 720">
<title>arrowDown</title>
<path fill="#7db00e" d="M231.327 246.874c-5.865-5.848-13.548-8.764-21.227-8.75-7.655 0.013-15.304 2.938-21.144 8.774s-8.767 13.48-8.78 21.129c-0.013 7.684 2.913 15.372 8.78 21.235l150.147 150.271c5.868 5.865 13.558 8.795 21.249 8.795s15.381-2.931 21.249-8.795l150.147-150.145c5.868-5.863 8.795-13.551 8.781-21.235-0.015-7.649-2.94-15.293-8.781-21.129-5.837-5.835-13.489-8.76-21.144-8.774-7.679-0.013-15.363 2.903-21.227 8.75l-129.024 128.783-129.025-128.91z"></path>
</svg>
