<!-- Generated by IcoMoon.io -->
<svg version="1.1" xmlns="http://www.w3.org/2000/svg" width="720" height="720" viewBox="0 0 720 720">
<title>batch</title>
<path fill="black" d="M270.264 178.064c0-33.169 26.889-60.058 60.058-60.058h137.708c15.927 0 31.203 6.327 42.467 17.591l102.526 102.526c11.264 11.263 17.591 26.539 17.591 42.468v257.825c0 33.171-26.888 60.058-60.058 60.058h-240.235c-33.169 0-60.058-26.888-60.058-60.058v-360.352zM330.322 178.064v360.352h240.235v-257.825l-102.526-102.526h-137.708zM180.176 208.094c0-33.169 26.889-60.058 60.058-60.058v420.41c-33.169 0-60.058-26.888-60.058-60.058v-300.293zM150.147 178.064c-33.169 0-60.058 26.889-60.058 60.058v240.235c0 33.171 26.889 60.058 60.058 60.058v-360.352z"></path>
</svg>
