<!-- Generated by IcoMoon.io -->
<svg version="1.1" xmlns="http://www.w3.org/2000/svg" width="720" height="720" viewBox="0 0 720 720">
<title>calendar</title>
<path fill="black" d="M450.44 118.006c0-16.585 13.444-30.030 30.030-30.030s30.030 13.445 30.030 30.030v30.030h60.058c33.171 0 60.058 26.889 60.058 60.058v360.352c0 33.171-26.888 60.058-60.058 60.058h-420.41c-33.169 0-60.058-26.888-60.058-60.058v-360.352c0-33.169 26.889-60.058 60.058-60.058h60.058v-30.030c0-16.585 13.445-30.030 30.030-30.030s30.030 13.445 30.030 30.030v30.030h180.176v-30.030zM150.147 208.094v60.058h420.41v-60.058h-420.41zM570.557 328.211h-420.41v240.235h420.41v-240.235z"></path>
</svg>
