<!-- Generated by IcoMoon.io -->
<svg version="1.1" xmlns="http://www.w3.org/2000/svg" width="720" height="720" viewBox="0 0 720 720">
<title>chat</title>
<path fill="#7db00e" d="M90.088 57.947c-16.585 0-30.030 13.445-30.030 30.030v180.176c0 16.585 13.445 30.030 30.030 30.030h60.058v60.058c0 25.657 30.093 39.497 49.572 22.802l96.668-82.86h154.053c16.585 0 30.030-13.445 30.030-30.030v-180.176c0-16.585-13.444-30.030-30.030-30.030h-360.352zM120.118 238.123v-120.118h300.293v120.118h-146.24l-63.965 54.827v-54.827h-90.088zM630.616 358.241c16.585 0 30.030 13.444 30.030 30.030v180.176c0 16.585-13.444 30.030-30.030 30.030h-60.058v60.058c0 25.657-30.092 39.497-49.572 22.802l-96.667-82.86h-154.053c-16.585 0-30.030-13.444-30.030-30.030v-180.176c0-16.585 13.445-30.030 30.030-30.030h360.352zM600.586 538.417v-120.118h-300.293v120.118h146.239l63.965 54.828v-54.828h90.088z"></path>
</svg>
