<!-- Generated by IcoMoon.io -->
<svg version="1.1" xmlns="http://www.w3.org/2000/svg" width="720" height="720" viewBox="0 0 720 720">
<title>chemical</title>
<path fill="#7db00e" d="M240.235 118.006c0-16.585 13.445-30.030 30.030-30.030h180.176c16.585 0 30.030 13.445 30.030 30.030s-13.444 30.030-30.030 30.030v113.613l147.456 324.401c9.036 19.883-5.498 42.455-27.339 42.455h-420.41c-21.84 0-36.375-22.573-27.337-42.455l147.455-324.401v-113.613c-16.585 0-30.030-13.445-30.030-30.030zM330.322 274.657l-37.993 83.583h37.993c16.585 0 30.030 13.444 30.030 30.030s-13.444 30.030-30.030 30.030h-60.058c-1.718 0-3.403-0.144-5.041-0.42l-13.841 30.45h108.971c16.585 0 30.030 13.444 30.030 30.030s-13.444 30.030-30.030 30.030h-136.27l-27.3 60.058h327.139l-133.54-293.789v-126.622h-60.058v126.622z"></path>
</svg>
