<!-- Generated by IcoMoon.io -->
<svg version="1.1" xmlns="http://www.w3.org/2000/svg" width="720" height="720" viewBox="0 0 720 720">
<title>clockIn</title>
<path fill="#7db00e" d="M315.744 242.403c-20.016-12.009-45.48 2.408-45.48 25.75v180.176c0 23.342 25.464 37.759 45.48 25.751l150.147-90.088c19.438-11.663 19.438-39.837 0-51.5l-150.147-90.088zM630.616 358.241c0-149.262-121-270.264-270.264-270.264-149.262 0-270.264 121.001-270.264 270.264 0 149.264 121.001 270.264 270.264 270.264 149.264 0 270.264-121 270.264-270.264zM570.557 358.241c0 116.093-94.112 210.206-210.206 210.206s-210.206-94.112-210.206-210.206c0-116.093 94.113-210.206 210.206-210.206s210.206 94.113 210.206 210.206z"></path>
</svg>
