<!-- Generated by IcoMoon.io -->
<svg version="1.1" xmlns="http://www.w3.org/2000/svg" width="720" height="720" viewBox="0 0 720 720">
<title>clockOut</title>
<path fill="black" d="M270.264 298.182c0-16.585 13.445-30.030 30.030-30.030h120.118c16.585 0 30.030 13.445 30.030 30.030v120.118c0 16.585-13.444 30.030-30.030 30.030h-120.118c-16.585 0-30.030-13.444-30.030-30.030v-120.118zM660.646 358.241c0-165.848-134.447-300.293-300.293-300.293-165.847 0-300.293 134.446-300.293 300.293 0 165.845 134.446 300.293 300.293 300.293 165.845 0 300.293-134.447 300.293-300.293zM600.586 358.241c0 132.678-107.556 240.235-240.235 240.235s-240.235-107.556-240.235-240.235c0-132.678 107.556-240.235 240.235-240.235s240.235 107.556 240.235 240.235z"></path>
</svg>
