<!-- Generated by IcoMoon.io -->
<svg version="1.1" xmlns="http://www.w3.org/2000/svg" width="720" height="720" viewBox="0 0 720 720">
<title>cog</title>
<path fill="#7db00e" d="M396.586 118.529v58.2l37.5 15.3c15.3 6.3 29.699 14.7 43.2 24.9l31.801 24.9 35.101-20.1 15.3-9.001 30 51.9-15.3 8.999-35.101 20.1 5.399 39.9c1.501 9.901 2.102 17.7 2.102 24.9s-0.6 15-2.102 24.9l-5.399 39.9 35.101 20.099 15.3 9.003-30 51.9-15.3-8.999-35.101-20.102-31.801 24.9c-13.2 10.502-27.901 18.9-43.2 24.9l-37.5 15.3v58.2l-73.046-0.579v-58.203l-37.501-15.3c-15.3-6.3-29.7-14.699-43.2-24.9l-31.8-24.6-35.1 20.102-15.3 8.999-30-51.9 15.3-8.999 35.101-20.102-5.399-39.9c-1.5-10.201-2.1-17.999-2.1-25.201s0.6-15 2.1-24.9l5.399-39.9-50.1-29.4 30-51.9 15.3 9.001 34.8 20.1 31.8-24.9c13.5-10.2 27.901-18.6 43.2-24.9l37.501-15.3v-57.9l73.046 0.581zM360.195 477.949c66.302 0 126.391-53.119 126.391-119.418 0-66.301-60.088-120.582-126.391-120.582-66.299 0-126.658 53.701-126.658 120.001 0 66.302 60.659 120 126.658 120zM426.585 58.529l-132.746-0.581c-16.5 0-30 13.5-30 30v47.4c-21 8.7-40.2 19.801-57.601 33.601l-41.401-24c-4.8-2.7-9.9-3.9-15-3.9-10.5 0-20.4 5.399-26.1 15l-60 103.801c-3.331 5.922-4.48 12.504-3.677 18.786 1.15 8.992 6.3 17.369 14.778 22.316l41.401 23.999c-1.5 10.799-2.7 21.6-2.7 32.999s0.9 22.2 2.7 33.299l-41.401 24.002c-8.478 4.946-13.628 13.321-14.778 22.252-0.803 6.24 0.346 12.748 3.677 18.546l60 104.103c5.401 9.6 15.6 15 25.8 15 5.1 0 10.2-1.202 15-3.9l41.401-23.999c17.4 13.501 36.6 24.9 57.601 33.299v47.401c0 16.501 13.5 30 30 30l132.749 0.583c16.498 0 30-13.501 30-30v-47.401c20.699-8.4 40.2-19.801 57.599-33.299l41.402 23.999c4.799 2.7 9.901 3.9 15 3.9 10.502 0 20.402-5.403 26.101-15l59.998-103.802c4.315-7.393 5.069-15.817 2.831-23.399-2.12-7.186-6.925-13.615-13.93-17.703l-41.402-23.999c1.501-10.799 2.7-21.9 2.7-33.299s-0.898-22.2-2.7-33.299l41.402-24.002c8.475-4.942 13.622-13.312 14.775-22.238 0.808-6.244-0.339-12.759-3.675-18.563l-59.998-104.101c-5.403-9.6-15.6-15-25.801-15-5.099 0-10.201 1.2-15 3.9l-41.402 24c-17.399-13.5-36.6-24.9-57.599-33.3v-47.4c0-16.5-13.501-30-30.002-30zM360.195 417.95c-32.999 0-66.658-26.999-66.658-60.001 0-32.999 33.659-60 66.658-60 33.003 0 66.388 27.58 66.388 60.583 0 32.999-33.086 59.42-66.388 59.42z"></path>
</svg>
