<!-- Generated by IcoMoon.io -->
<svg version="1.1" xmlns="http://www.w3.org/2000/svg" width="720" height="720" viewBox="0 0 720 720">
<title>compose</title>
<path fill="black" d="M287.855 310.693l235.155-235.155c12.471-12.471 29.062-18.311 45.392-17.52 14.381 0.697 28.558 6.537 39.542 17.52l35.182 35.182c10.981 10.983 16.822 25.162 17.519 39.544 0.79 16.33-5.048 32.921-17.519 45.392l-235.154 235.155c-11.264 11.261-26.54 17.591-42.467 17.591h-95.241v-95.241c0-15.927 6.327-31.206 17.591-42.467zM330.322 388.342h35.182l235.154-235.155-35.182-35.182-235.154 235.154v35.182zM150.147 87.976h240.235v60.058h-240.235v420.41h420.41v-240.235h60.058v240.235c0 33.171-26.888 60.058-60.058 60.058h-420.41c-33.169 0-60.058-26.888-60.058-60.058v-420.41c0-33.169 26.889-60.058 60.058-60.058z"></path>
</svg>
