<!-- Generated by IcoMoon.io -->
<svg version="1.1" xmlns="http://www.w3.org/2000/svg" width="720" height="720" viewBox="0 0 720 720">
<title>company</title>
<path fill="#7db00e" d="M180.176 178.064h60.058v60.058h-60.058v-60.058zM360.352 178.064h-60.058v60.058h60.058v-60.058zM300.293 268.152h60.058v60.058h-60.058v-60.058zM240.235 268.152h-60.058v60.058h60.058v-60.058zM300.293 358.241h60.058v60.058h-60.058v-60.058zM240.235 358.241h-60.058v60.058h60.058v-60.058zM150.147 87.976h240.235c33.171 0 60.058 26.889 60.058 60.058v480.469h-300.293c-33.169 0-60.058-26.888-60.058-60.058v-420.41c0-33.169 26.889-60.058 60.058-60.058zM390.381 148.035h-240.235v420.41h90.088v-60.058c0-16.585 13.445-30.030 30.030-30.030v0c16.585 0 30.030 13.444 30.030 30.030v60.058h90.088v-420.41zM480.469 148.035h90.088c33.171 0 60.058 26.889 60.058 60.058v360.352c0 33.171-26.888 60.058-60.058 60.058h-90.088v-60.058h90.088v-360.352h-90.088v-60.058zM480.469 268.152h60.058v60.058h-60.058v-60.058zM540.528 358.241h-60.058v60.058h60.058v-60.058z"></path>
</svg>
