<!-- Generated by IcoMoon.io -->
<svg version="1.1" xmlns="http://www.w3.org/2000/svg" width="720" height="720" viewBox="0 0 720 720">
<title>copy</title>
<path fill="#7db00e" d="M120.118 238.123c0-33.169 26.889-60.058 60.058-60.058h195.19c15.927 0 31.203 6.327 42.467 17.591l75.073 75.073c11.264 11.263 17.591 26.539 17.591 42.468v285.278c0 33.171-26.888 60.058-60.058 60.058h-270.264c-33.169 0-60.058-26.888-60.058-60.058v-360.352zM180.176 238.123v360.352h270.264v-285.278l-75.073-75.073h-195.19zM300.293 57.947c-33.169 0-60.058 26.889-60.058 60.058h210.206l120.118 120.118v300.293c33.171 0 60.058-26.888 60.058-60.058v-240.235c0-15.929-6.327-31.205-17.591-42.468l-120.118-120.118c-11.264-11.263-26.54-17.591-42.467-17.591h-150.147z"></path>
</svg>
