<!-- Generated by IcoMoon.io -->
<svg version="1.1" xmlns="http://www.w3.org/2000/svg" width="720" height="720" viewBox="0 0 720 720">
<title>customize</title>
<path fill="#7db00e" d="M441.656 114.425c17.591-17.632 40.644-26.449 63.701-26.449s46.11 8.816 63.701 26.449l35.182 35.265c17.591 17.632 26.387 40.743 26.387 63.852s-8.795 46.219-26.387 63.852l-276.867 279.021c-2.703 2.709-5.894 4.877-9.405 6.384l-143.981 60.656c-7.971 3.424-15.955 5.009-23.659 5.051-16.377 0.087-31.48-6.801-42.468-17.814-10.662-10.688-17.448-25.26-17.762-41.116-0.161-8.168 1.396-16.675 5.027-25.168l63.295-141.535c1.505-3.52 3.666-6.718 6.368-9.426l276.868-279.022zM526.591 156.992c-11.726-11.755-30.741-11.755-42.467 0l-26.387 26.448 77.65 77.832 26.387-26.448c11.726-11.755 11.726-30.813 0-42.568l-35.182-35.265zM492.919 303.839l-77.65-77.831-186.779 188.723 77.65 77.83 186.779-188.722zM253.543 524.978l-57.391-57.528-45.823 100.671 103.214-43.143zM248.020 76.298c-24.468-24.468-64.138-24.468-88.606 0l-81.005 81.005c-24.468 24.468-24.468 64.138 0 88.606l116.781 116.782 45.044-43.564-39.204-39.204 18.351-18.351c12.234-12.234 12.234-32.070 0-44.303s-32.070-12.234-44.303 0l-18.351 18.351-34.014-34.014 81.005-81.005 115.717 117.522 40.918-40.92-112.331-120.906zM525.514 350.243l-45.044 43.564 117.522 121.069-81.004 81.004-34.017-34.014 18.351-18.351c12.234-12.234 12.234-32.072 0-44.305-12.234-12.231-32.069-12.231-44.303 0l-18.351 18.351-48.287-54.218-45.044 45.044 127.346 131.796c24.468 24.468 64.14 24.468 88.608 0l81.004-81.004c24.468-24.468 24.468-64.14 0-88.608l-116.781-120.327z"></path>
</svg>
