<!-- Generated by IcoMoon.io -->
<svg version="1.1" xmlns="http://www.w3.org/2000/svg" width="720" height="720" viewBox="0 0 720 720">
<title>directions</title>
<path fill="#7db00e" d="M68.854 379.474c-11.727-11.726-11.727-30.741 0-42.467l270.264-270.264c5.631-5.631 13.269-8.795 21.234-8.795s15.604 3.163 21.234 8.795l75.073 75.073-42.467 42.468-53.84-53.84-227.796 227.796 227.796 227.796 113.898-113.898 42.467 42.467-135.132 135.132c-5.631 5.631-13.269 8.795-21.234 8.795s-15.604-3.165-21.234-8.795l-270.264-270.264zM519.294 186.86c11.726-11.727 30.741-11.727 42.467 0l90.088 90.088c11.726 11.727 11.726 30.741 0 42.468l-90.088 90.088c-11.726 11.726-30.741 11.726-42.467 0s-11.726-30.741 0-42.467l38.825-38.825h-167.738c-16.585 0-30.030 13.444-30.030 30.030v75.073c0 16.585-13.444 30.030-30.030 30.030s-30.030-13.444-30.030-30.030v-75.073c0-49.755 40.333-90.088 90.088-90.088h167.738l-38.825-38.824c-11.726-11.727-11.726-30.741 0-42.468z"></path>
</svg>
