<!-- Generated by IcoMoon.io -->
<svg version="1.1" xmlns="http://www.w3.org/2000/svg" width="720" height="720" viewBox="0 0 720 720">
<title>drag</title>
<path fill="black" d="M210 150l30-30h60l30 30v60l-30 30h-60l-30-30v-60z"></path>
<path fill="black" d="M210 330l30-30h60l30 30v60l-30 30h-60l-30-30v-60z"></path>
<path fill="black" d="M240 480l-30 30v60l30 30h60l30-30v-60l-30-30h-60z"></path>
<path fill="black" d="M390 150l30-30h60l30 30v60l-30 30h-60l-30-30v-60z"></path>
<path fill="black" d="M420 300l-30 30v60l30 30h60l30-30v-60l-30-30h-60z"></path>
<path fill="black" d="M390 510l30-30h60l30 30v60l-30 30h-60l-30-30v-60z"></path>
</svg>
