<!-- Generated by IcoMoon.io -->
<svg version="1.1" xmlns="http://www.w3.org/2000/svg" width="720" height="720" viewBox="0 0 720 720">
<title>dropdown</title>
<path fill="#7db00e" d="M360.352 375.832l-68.858-68.882c-6.192-6.192-14.413-9.115-22.522-8.769-7.25 0.309-14.41 3.231-19.946 8.769-5.754 5.754-8.685 13.264-8.792 20.804-0.111 7.829 2.82 15.69 8.792 21.663l90.092 90.115c5.862 5.865 13.549 8.795 21.234 8.795s15.369-2.931 21.234-8.795l90.25-90.088c5.066-5.066 7.943-11.493 8.634-18.105 0.904-8.691-1.973-17.703-8.634-24.363-5.903-5.907-13.657-8.838-21.396-8.796-7.631 0.043-15.249 2.974-21.071 8.796l-69.017 68.854zM660.646 358.241c0-165.848-134.447-300.293-300.293-300.293-165.847 0-300.293 134.446-300.293 300.293 0 165.845 134.446 300.293 300.293 300.293 165.845 0 300.293-134.447 300.293-300.293zM600.586 358.241c0 132.678-107.556 240.235-240.235 240.235s-240.235-107.556-240.235-240.235c0-132.678 107.556-240.235 240.235-240.235s240.235 107.556 240.235 240.235z"></path>
</svg>
