<!-- Generated by IcoMoon.io -->
<svg version="1.1" xmlns="http://www.w3.org/2000/svg" width="720" height="720" viewBox="0 0 720 720">
<title>edit</title>
<path fill="#7db00e" d="M441.644 115.695c17.591-17.632 40.648-26.448 63.701-26.448 23.056 0 46.113 8.816 63.701 26.448l35.182 35.265c17.591 17.632 26.387 40.743 26.387 63.852s-8.795 46.219-26.387 63.852l-276.867 279.021c-2.7 2.709-5.891 4.874-9.405 6.384l-143.981 60.656c-7.971 3.424-15.955 5.009-23.658 5.051-16.377 0.087-31.48-6.801-42.468-17.814-10.662-10.688-17.449-25.26-17.762-41.116-0.161-8.168 1.396-16.675 5.027-25.168l63.295-141.535c1.505-3.52 3.666-6.718 6.368-9.426l276.867-279.023zM526.579 158.263c-11.726-11.754-30.741-11.754-42.467 0l-26.387 26.448 77.65 77.832 26.387-26.448c11.726-11.755 11.726-30.813 0-42.568l-35.182-35.265zM492.908 305.11l-77.65-77.831-186.778 188.723 77.649 77.83 186.779-188.722zM253.531 526.248l-57.391-57.528-45.823 100.671 103.214-43.143z"></path>
</svg>
