<!-- Generated by IcoMoon.io -->
<svg version="1.1" xmlns="http://www.w3.org/2000/svg" width="720" height="720" viewBox="0 0 720 720">
<title>embed</title>
<path fill="black" d="M180.176 118.006c-33.169 0-60.058 26.889-60.058 60.058v60.058h60.058v-60.058h360.352v60.058h60.058v-60.058c0-33.169-26.888-60.058-60.058-60.058h-360.352zM120.117 538.417v-60.058h60.058v60.058h360.352v-60.058h60.058v60.058c0 33.171-26.888 60.058-60.058 60.058h-360.352c-33.169 0-60.058-26.888-60.058-60.058zM305.819 465.701c3.565 5.042 8.708 9.036 15.015 11.137 3.589 1.195 7.243 1.676 10.808 1.519 3.933-0.174 7.757-1.12 11.268-2.741 7.264-3.352 13.179-9.582 15.91-17.771l60.082-180.203c0.88-2.637 1.373-5.309 1.51-7.956 0.273-5.267-0.862-10.432-3.159-15.014-3.442-6.854-9.492-12.398-17.342-15.015-3.469-1.157-7-1.644-10.453-1.534-4.057 0.129-8.006 1.086-11.621 2.754-7.264 3.352-13.179 9.583-15.91 17.772l-60.082 180.205c-1.066 3.195-1.564 6.444-1.55 9.636 0.027 6.223 2.007 12.228 5.526 17.21zM223.596 273.199c5.122-3.415 10.912-5.048 16.639-5.047 3.403 0.001 6.784 0.579 9.989 1.705 5.931 2.083 11.26 6.037 15.015 11.67 3.639 5.459 5.255 11.675 5.025 17.765-0.351 9.306-5.013 18.318-13.354 23.88l-52.628 35.068 52.628 35.089c8.341 5.562 13.003 14.573 13.354 23.88 0.229 6.090-1.387 12.306-5.025 17.766-4.394 6.591-10.941 10.882-18.087 12.567-7.816 1.844-16.348 0.567-23.556-4.241l-90.106-60.076c-17.83-11.886-17.83-38.086 0-49.972l90.106-60.054zM480.49 448.35c5.727 0 11.516-1.631 16.639-5.048l90.106-60.053c17.828-11.889 17.828-38.086 0-49.972l-90.106-60.078c-7.21-4.806-15.739-6.083-23.555-4.241-7.147 1.685-13.693 5.978-18.086 12.568-3.639 5.459-5.255 11.675-5.027 17.766 0.351 9.306 5.012 18.318 13.354 23.88l52.626 35.089-52.626 35.068c-8.343 5.562-13.003 14.573-13.354 23.88-0.228 6.090 1.387 12.306 5.027 17.766 3.753 5.633 9.084 9.588 15.015 11.669 3.204 1.126 6.585 1.705 9.988 1.705z"></path>
</svg>
