<!-- Generated by IcoMoon.io -->
<svg version="1.1" xmlns="http://www.w3.org/2000/svg" width="720" height="720" viewBox="0 0 720 720">
<title>engine</title>
<path fill="black" d="M210.206 178.064c-16.585 0-30.030 13.445-30.030 30.030s13.445 30.030 30.030 30.030h90.088v30.030h-90.088c-33.169 0-60.058 26.889-60.058 60.058v30.030h-30.030v-60.058c0-16.585-13.445-30.030-30.030-30.030s-30.030 13.445-30.030 30.030v180.176c0 16.585 13.445 30.030 30.030 30.030s30.030-13.444 30.030-30.030v-60.058h30.030v30.030c0 33.171 26.889 60.058 60.058 60.058h30.030v30.030c0 16.585 13.444 30.030 30.030 30.030h300.293v-90.088h30.030v90.088h30.030c16.585 0 30.030-13.444 30.030-30.030v-180.176c0-16.585-13.444-30.030-30.030-30.030h-30.030v90.088h-30.030v-90.088c0-33.169-26.888-60.058-60.058-60.058h-150.147v-30.030h90.088c16.585 0 30.030-13.445 30.030-30.030s-13.444-30.030-30.030-30.030h-240.235zM210.206 448.329v-120.118h300.293v180.176h-210.206v-60.058h-90.088z"></path>
</svg>
