<!-- Generated by IcoMoon.io -->
<svg version="1.1" xmlns="http://www.w3.org/2000/svg" width="720" height="720" viewBox="0 0 720 720">
<title>event</title>
<path fill="#7db00e" d="M420.41 388.27c-16.585 0-30.030 13.444-30.030 30.030v60.058c0 16.585 13.444 30.030 30.030 30.030h60.058c16.585 0 30.030-13.444 30.030-30.030v-60.058c0-16.585-13.444-30.030-30.030-30.030h-60.058zM480.469 87.976c-16.585 0-30.030 13.445-30.030 30.030v30.030h-180.176v-30.030c0-16.585-13.445-30.030-30.030-30.030s-30.030 13.445-30.030 30.030v30.030h-60.058c-33.169 0-60.058 26.889-60.058 60.058v360.352c0 33.171 26.889 60.058 60.058 60.058h420.41c33.171 0 60.058-26.888 60.058-60.058v-360.352c0-33.169-26.888-60.058-60.058-60.058h-60.058v-30.030c0-16.585-13.444-30.030-30.030-30.030zM570.557 208.094v60.058h-420.41v-60.058h420.41zM150.147 328.211h420.41v240.235h-420.41v-240.235z"></path>
</svg>
