<!-- Generated by IcoMoon.io -->
<svg version="1.1" xmlns="http://www.w3.org/2000/svg" width="720" height="720" viewBox="0 0 720 720">
<title>excel</title>
<path fill="#7db00e" d="M330.322 328.211v-30.030h60.058c16.585 0 30.030-13.445 30.030-30.030s-13.444-30.030-30.030-30.030h-90.088c-16.585 0-30.030 13.445-30.030 30.030v180.176c0 16.585 13.445 30.030 30.030 30.030h90.088c16.585 0 30.030-13.444 30.030-30.030s-13.444-30.030-30.030-30.030h-60.058v-30.030h60.058c16.585 0 30.030-13.444 30.030-30.030s-13.444-30.030-30.030-30.030h-60.058zM180.176 57.947c-33.169 0-60.058 26.889-60.058 60.058v480.469c0 33.171 26.889 60.058 60.058 60.058h360.352c33.171 0 60.058-26.888 60.058-60.058v-377.943c0-15.929-6.327-31.205-17.591-42.468l-102.526-102.526c-11.264-11.263-26.54-17.591-42.467-17.591h-257.825zM180.176 598.475v-480.469h257.825l102.526 102.526v377.943h-360.352z"></path>
</svg>
