<!-- Generated by IcoMoon.io -->
<svg version="1.1" xmlns="http://www.w3.org/2000/svg" width="720" height="720" viewBox="0 0 720 720">
<title>filter</title>
<path fill="#7db00e" d="M480 270c39.186 0 72.525-25.045 84.879-60h35.121c16.569 0 30-13.432 30-30s-13.431-30-30-30h-35.121c-12.354-34.956-45.693-60-84.879-60s-72.525 25.045-84.879 60h-275.121c-16.568 0-30 13.432-30 30s13.432 30 30 30h275.121c12.354 34.956 45.693 60 84.879 60zM510 180c0 16.568-13.431 30-30 30s-30-13.432-30-30c0-16.568 13.431-30 30-30s30 13.432 30 30z"></path>
<path fill="#7db00e" d="M264.878 390h335.121c16.569 0 30-13.431 30-30s-13.431-30-30-30h-335.121c-12.355-34.956-45.692-60-84.878-60-49.705 0-90 40.293-90 90s40.295 90 90 90c39.187 0 72.524-25.044 84.878-60zM210 360c0 16.569-13.432 30-30 30s-30-13.431-30-30c0-16.569 13.432-30 30-30s30 13.431 30 30z"></path>
<path fill="#7db00e" d="M245.121 570c12.355 34.956 45.692 60 84.878 60s72.525-25.044 84.879-60h185.121c16.569 0 30-13.431 30-30s-13.431-30-30-30h-185.121c-12.354-34.956-45.693-60-84.879-60s-72.524 25.044-84.878 60h-125.121c-16.568 0-30 13.431-30 30s13.432 30 30 30h125.121zM330 570c-16.569 0-30-13.431-30-30s13.431-30 30-30c16.569 0 30 13.431 30 30s-13.431 30-30 30z"></path>
</svg>
