<!-- Generated by IcoMoon.io -->
<svg version="1.1" xmlns="http://www.w3.org/2000/svg" width="720" height="720" viewBox="0 0 720 720">
<title>future</title>
<path fill="#7db00e" d="M372.177 96.574c12.978-10.35 31.92-8.253 42.303 4.685l105.351 131.259c17.586 21.913 17.586 53.050 0 74.964l-105.351 131.259c-10.383 12.939-29.325 15.036-42.303 4.686-12.981-10.35-15.084-29.229-4.701-42.168l81.27-101.259h-163.11c-74.801 0-135.44 60.441-135.44 135s60.639 135 135.44 135h104.265c16.623 0 30.099 13.431 30.099 30s-13.476 30-30.099 30h-104.265c-108.046 0-195.635-87.303-195.635-195 0-107.694 87.589-195 195.635-195h163.11l-81.27-101.259c-10.383-12.938-8.28-31.816 4.701-42.167zM499.155 96.574c12.981-10.35 31.92-8.253 42.306 4.685l105.348 131.259c17.589 21.913 17.589 53.050 0 74.964l-105.348 131.259c-10.386 12.939-29.325 15.036-42.306 4.686s-15.084-29.229-4.701-42.168l105.351-131.259-105.351-131.259c-10.383-12.937-8.28-31.816 4.701-42.167z"></path>
</svg>
