<!-- Generated by IcoMoon.io -->
<svg version="1.1" xmlns="http://www.w3.org/2000/svg" width="720" height="720" viewBox="0 0 720 720">
<title>gift</title>
<path fill="#7db00e" d="M180.176 163.050c0-58.047 47.056-105.102 105.102-105.102 35.528 0 66.942 17.629 85.965 44.618 14.138-9.226 31.026-14.588 49.167-14.588 49.755 0 90.088 40.334 90.088 90.088 0 10.53-1.808 20.637-5.126 30.030h125.243c16.585 0 30.030 13.445 30.030 30.030v120.118c0 16.585-13.444 30.030-30.030 30.030h-30.030v210.206c0 33.171-26.888 60.058-60.058 60.058h-360.352c-33.169 0-60.058-26.888-60.058-60.058v-210.206h-30.030c-16.585 0-30.030-13.444-30.030-30.030v-120.118c0-16.585 13.445-30.030 30.030-30.030h100.202c-6.486-13.653-10.114-28.924-10.114-45.044zM390.381 598.475h150.147v-210.206h-150.147v210.206zM330.322 388.27h-150.147v210.206h150.147v-210.206zM390.381 328.211h210.206v-60.058h-210.206v60.058zM330.322 268.152h-210.206v60.058h210.206v-60.058zM330.322 208.094v-45.044c0-24.877-20.168-45.044-45.044-45.044s-45.044 20.167-45.044 45.044 20.167 45.044 45.044 45.044h45.044zM390.381 178.064v30.030h30.030c16.585 0 30.030-13.445 30.030-30.030s-13.444-30.030-30.030-30.030c-16.585 0-30.030 13.445-30.030 30.030z"></path>
</svg>
