<!-- Generated by IcoMoon.io -->
<svg version="1.1" xmlns="http://www.w3.org/2000/svg" width="720" height="720" viewBox="0 0 720 720">
<title>help</title>
<path fill="black" d="M359.406 208.094c-41.29 0-77.324 34.864-81.288 38.828-5.205 5.705-8.015 13.195-7.846 20.917s3.303 15.081 8.752 20.554c5.45 5.473 12.796 8.638 20.516 8.839s15.222-2.577 20.948-7.758c8.738-8.589 27.147-21.321 38.918-21.321 6.333 0.008 12.501 2.015 17.624 5.736 5.126 3.72 8.942 8.964 10.91 14.984 1.97 6.019 1.985 12.504 0.048 18.534s-5.73 11.291-10.834 15.038c-30.36 22.222-47.777 54.293-47.777 87.956v7.897c0 7.964 3.165 15.604 8.795 21.234 5.633 5.631 13.269 8.795 21.234 8.795s15.604-3.165 21.234-8.795c5.633-5.631 8.795-13.269 8.795-21.234v-7.897c0-19.609 14.534-33.183 23.212-39.549 11.396-8.388 20.669-19.333 27.069-31.954 6.396-12.622 9.748-26.567 9.778-40.717 0-49.669-40.419-90.088-90.088-90.088zM360.352 478.358c-16.585 0-30.030 13.444-30.030 30.030s13.444 30.030 30.030 30.030c16.585 0 30.030-13.444 30.030-30.030s-13.444-30.030-30.030-30.030zM660.646 358.241c0-165.848-134.447-300.293-300.293-300.293-165.847 0-300.293 134.446-300.293 300.293 0 165.845 134.446 300.293 300.293 300.293 165.845 0 300.293-134.447 300.293-300.293zM600.586 358.241c0 132.678-107.556 240.235-240.235 240.235s-240.235-107.556-240.235-240.235c0-132.678 107.556-240.235 240.235-240.235s240.235 107.556 240.235 240.235z"></path>
</svg>
