<!-- Generated by IcoMoon.io -->
<svg version="1.1" xmlns="http://www.w3.org/2000/svg" width="720" height="720" viewBox="0 0 720 720">
<title>home</title>
<path fill="#7db00e" d="M394.796 105.459l283.071 198.152c13.589 9.51 16.891 28.233 7.381 41.822-9.51 13.585-28.233 16.888-41.822 7.378l-72.866-51.008v236.614c0 49.755-40.335 90.088-90.088 90.088h-240.236c-49.754 0-90.088-40.333-90.088-90.088v-236.61l-72.866 51.005c-13.587 9.51-32.311 6.207-41.822-7.378-9.51-13.589-6.206-32.311 7.38-41.822l283.074-198.152c20.678-14.475 48.203-14.475 68.882 0zM510.502 259.764l-150.147-105.102-150.148 105.103v278.652c0 16.585 13.445 30.030 30.030 30.030h240.236c16.582 0 30.030-13.444 30.030-30.030v-278.653z"></path>
</svg>
