<!-- Generated by IcoMoon.io -->
<svg version="1.1" xmlns="http://www.w3.org/2000/svg" width="720" height="720" viewBox="0 0 720 720">
<title>import</title>
<path fill="#7db00e" d="M591.866 126.776c6.403 6.403 9.309 14.979 8.72 23.354-0.159 2.255-0.571 4.495-1.237 6.675-1.387 4.551-3.883 8.838-7.483 12.438l-279.135 279.085h77.65c16.585 0 30.030 13.444 30.030 30.030s-13.444 30.030-30.030 30.030h-150.147c-16.585 0-30.030-13.444-30.030-30.030v-150.147c0-16.585 13.445-30.030 30.030-30.030s30.030 13.444 30.030 30.030v77.65l279.135-279.086c3.601-3.6 7.886-6.095 12.438-7.485 2.459-0.752 5-1.18 7.549-1.285 8.096-0.333 16.3 2.59 22.48 8.769zM90.088 148.035c0-33.169 26.889-60.058 60.058-60.058h270.264v60.058h-270.264v420.41h420.41v-270.264h60.058v270.264c0 33.171-26.888 60.058-60.058 60.058h-420.41c-33.169 0-60.058-26.888-60.058-60.058v-420.41z"></path>
</svg>
