<!-- Generated by IcoMoon.io -->
<svg version="1.1" xmlns="http://www.w3.org/2000/svg" width="720" height="720" viewBox="0 0 720 720">
<title>instagram</title>
<path fill="black" d="M360.352 57.947c-81.555 0-91.781 0.345-123.81 1.808-31.963 1.458-53.793 6.535-72.893 13.958-19.747 7.673-36.494 17.941-53.189 34.635s-26.962 33.441-34.635 53.189c-7.424 19.101-12.501 40.93-13.958 72.893-1.462 32.029-1.808 42.256-1.808 123.81 0 81.553 0.345 91.781 1.808 123.811 1.458 31.963 6.535 53.792 13.958 72.893 7.673 19.747 17.941 36.492 34.635 53.188 16.695 16.693 33.441 26.963 53.189 34.636 19.101 7.423 40.93 12.501 72.893 13.957 32.029 1.463 42.256 1.808 123.81 1.808 81.553 0 91.781-0.345 123.811-1.808 31.963-1.456 53.792-6.534 72.893-13.957 19.747-7.673 36.492-17.942 53.188-34.636 16.693-16.696 26.963-33.441 34.636-53.188 7.423-19.102 12.501-40.93 13.957-72.893 1.462-32.029 1.808-42.258 1.808-123.811 0-81.555-0.345-91.781-1.808-123.81-1.456-31.963-6.534-53.793-13.957-72.893-7.673-19.747-17.942-36.494-34.636-53.189-16.696-16.694-33.441-26.962-53.188-34.635-19.102-7.424-40.93-12.501-72.893-13.958-32.029-1.462-42.258-1.808-123.811-1.808zM360.352 112.054c80.181 0 89.68 0.306 121.346 1.751 29.276 1.335 45.176 6.228 55.758 10.339 14.018 5.448 24.020 11.955 34.528 22.463 10.51 10.507 17.018 20.511 22.465 34.528 4.111 10.581 9.003 26.482 10.339 55.76 1.444 31.665 1.75 41.162 1.75 121.345s-0.306 89.68-1.75 121.346c-1.337 29.276-6.228 45.176-10.339 55.758-5.448 14.018-11.955 24.020-22.465 34.528-10.508 10.51-20.509 17.018-34.528 22.465-10.583 4.111-26.483 9.003-55.758 10.339-31.66 1.444-41.158 1.75-121.346 1.75s-89.684-0.306-121.345-1.75c-29.279-1.337-45.179-6.228-55.76-10.339-14.017-5.448-24.020-11.955-34.528-22.465-10.507-10.507-17.016-20.509-22.463-34.528-4.113-10.583-9.005-26.483-10.339-55.758-1.445-31.666-1.751-41.164-1.751-121.346s0.306-89.68 1.751-121.345c1.335-29.279 6.228-45.179 10.339-55.76 5.448-14.017 11.955-24.020 22.463-34.528s20.511-17.016 34.528-22.463c10.581-4.113 26.482-9.005 55.76-10.339 31.665-1.445 41.162-1.751 121.345-1.751zM206.147 358.241c0 85.166 69.039 154.204 154.204 154.204s154.204-69.038 154.204-154.204-69.038-154.204-154.204-154.204c-85.165 0-154.204 69.039-154.204 154.204zM360.352 458.338c-55.284 0-100.098-44.812-100.098-100.097s44.814-100.098 100.098-100.098c55.284 0 100.097 44.814 100.097 100.098s-44.812 100.097-100.097 100.097zM520.649 233.978c19.903 0 36.035-16.132 36.035-36.034s-16.132-36.036-36.035-36.036c-19.901 0-36.035 16.134-36.035 36.036s16.135 36.034 36.035 36.034z"></path>
</svg>
