<!-- Generated by IcoMoon.io -->
<svg version="1.1" xmlns="http://www.w3.org/2000/svg" width="720" height="720" viewBox="0 0 720 720">
<title>invoice</title>
<path fill="black" d="M180.176 57.947c-33.169 0-60.058 26.889-60.058 60.058v480.469c0 33.171 26.889 60.058 60.058 60.058h360.352c33.171 0 60.058-26.888 60.058-60.058v-377.943c0-15.929-6.327-31.205-17.591-42.468l-102.526-102.526c-11.264-11.263-26.54-17.591-42.467-17.591h-257.825zM180.176 598.475v-480.469h257.825l102.526 102.526v377.943h-360.352zM399.186 289.383c-20.030-20.030-38.738-21.23-39.518-21.23-15.855 0-29.339 13.513-29.339 30.030 0 19.399 3.843 22.582 37.327 30.93 30.96 7.748 82.791 20.72 82.791 89.187-0.066 18.561-5.877 36.648-16.628 51.777-10.754 15.128-25.924 26.561-43.431 32.726v5.526c0 7.964-3.165 15.604-8.795 21.234s-13.269 8.795-21.234 8.795c-7.964 0-15.604-3.165-21.234-8.795s-8.795-13.269-8.795-21.234v-6.005c-19.351-6.877-36.881-18.069-51.26-32.732-5.635-5.631-8.802-13.269-8.805-21.234-0.003-7.966 3.158-15.609 8.79-21.243s13.269-8.802 21.235-8.805c7.965-0.003 15.608 3.159 21.241 8.79 20.030 20.030 38.768 21.23 39.549 21.23 15.855 0 29.309-13.454 29.309-30.030 0-19.399-3.814-22.522-37.297-30.93-30.96-7.718-82.821-20.72-82.821-89.187 0.059-18.57 5.864-36.667 16.617-51.807s25.928-26.582 43.441-32.755v-5.526c0-7.964 3.165-15.602 8.795-21.234s13.269-8.795 21.234-8.795c7.964 0 15.604 3.163 21.234 8.795s8.795 13.269 8.795 21.234v6.005c19.366 6.888 36.9 18.115 51.26 32.823 5.472 5.664 8.499 13.249 8.43 21.123s-3.228 15.405-8.795 20.973c-5.567 5.568-13.099 8.726-20.972 8.794s-15.459-2.958-21.123-8.428z"></path>
</svg>
