<!-- Generated by IcoMoon.io -->
<svg version="1.1" xmlns="http://www.w3.org/2000/svg" width="720" height="720" viewBox="0 0 720 720">
<title>invoiceLater</title>
<path fill="#7db00e" d="M180.176 118.006c0-33.169 26.889-60.058 60.058-60.058h257.825c15.927 0 31.203 6.327 42.467 17.591l102.526 102.526c11.264 11.263 17.591 26.539 17.591 42.468v377.943c0 33.171-26.888 60.058-60.058 60.058h-360.352c-33.169 0-60.058-26.888-60.058-60.058v-60.058h60.058v60.058h360.352v-377.943l-102.526-102.526h-257.825v60.058h-60.058v-60.058zM459.245 289.383c-20.030-20.030-38.738-21.23-39.518-21.23-15.855 0-29.339 13.513-29.339 30.030 0 19.399 3.843 22.582 37.327 30.93 30.96 7.748 82.791 20.72 82.791 89.187-0.066 18.561-5.877 36.648-16.627 51.777-10.754 15.128-25.924 26.561-43.431 32.726v5.526c0 7.964-3.165 15.604-8.795 21.234s-13.269 8.795-21.234 8.795c-7.964 0-15.604-3.165-21.234-8.795s-8.795-13.269-8.795-21.234v-6.005c-19.351-6.877-36.882-18.069-51.26-32.732-5.633-5.631-8.802-13.269-8.805-21.234-0.003-7.966 3.159-15.609 8.79-21.243s13.269-8.802 21.234-8.805c7.966-0.003 15.609 3.159 21.243 8.79 20.030 20.030 38.768 21.23 39.549 21.23 15.855 0 29.309-13.454 29.309-30.030 0-19.399-3.814-22.522-37.297-30.93-30.96-7.718-82.821-20.72-82.821-89.187 0.060-18.57 5.865-36.667 16.618-51.807 10.751-15.14 25.927-26.582 43.44-32.755v-5.526c0-7.964 3.165-15.602 8.795-21.234s13.269-8.795 21.234-8.795c7.964 0 15.604 3.163 21.234 8.795s8.795 13.269 8.795 21.234v6.005c19.366 6.888 36.9 18.115 51.26 32.823 5.472 5.664 8.499 13.249 8.43 21.123s-3.228 15.405-8.795 20.973c-5.567 5.568-13.099 8.726-20.972 8.794s-15.459-2.958-21.123-8.428zM90.088 298.182c0-16.585 13.445-30.030 30.030-30.030s30.030 13.445 30.030 30.030v120.118c0 16.585-13.445 30.030-30.030 30.030s-30.030-13.444-30.030-30.030v-120.118zM210.206 268.152c-16.585 0-30.030 13.445-30.030 30.030v120.118c0 16.585 13.445 30.030 30.030 30.030s30.030-13.444 30.030-30.030v-120.118c0-16.585-13.445-30.030-30.030-30.030z"></path>
</svg>
