<!-- Generated by IcoMoon.io -->
<svg version="1.1" xmlns="http://www.w3.org/2000/svg" width="720" height="720" viewBox="0 0 720 720">
<title>jobForms</title>
<path fill="black" d="M240.235 358.241c0-16.585 13.444-30.030 30.030-30.030s30.030 13.444 30.030 30.030c0 16.585-13.444 30.030-30.030 30.030s-30.030-13.444-30.030-30.030zM270.264 448.329c-16.585 0-30.030 13.444-30.030 30.030s13.444 30.030 30.030 30.030c16.585 0 30.030-13.444 30.030-30.030s-13.444-30.030-30.030-30.030zM360.352 358.241c0-16.585 13.444-30.030 30.030-30.030h60.058c16.585 0 30.030 13.444 30.030 30.030s-13.444 30.030-30.030 30.030h-60.058c-16.585 0-30.030-13.444-30.030-30.030zM390.381 448.329c-16.585 0-30.030 13.444-30.030 30.030s13.444 30.030 30.030 30.030h60.058c16.585 0 30.030-13.444 30.030-30.030s-13.444-30.030-30.030-30.030h-60.058zM300.293 57.947h120.118c7.964 0 15.604 3.163 21.234 8.795l51.263 51.263h47.621c33.171 0 60.058 26.889 60.058 60.058v420.41c0 33.171-26.888 60.058-60.058 60.058h-360.352c-33.169 0-60.058-26.888-60.058-60.058v-420.41c0-33.169 26.889-60.058 60.058-60.058h47.62l51.263-51.263c5.632-5.631 13.269-8.795 21.234-8.795zM492.908 178.064l-51.263 51.263c-5.631 5.631-13.269 8.795-21.234 8.795h-120.118c-7.964 0-15.602-3.163-21.234-8.795l-51.263-51.263h-47.62v420.41h360.352v-420.41h-47.621zM282.703 148.035l30.029 30.030h95.241l30.030-30.030-30.030-30.030h-95.241l-30.029 30.030z"></path>
</svg>
