<!-- Generated by IcoMoon.io -->
<svg version="1.1" xmlns="http://www.w3.org/2000/svg" width="720" height="720" viewBox="0 0 720 720">
<title>knot</title>
<path fill="black" d="M450.44 488.895c0 10.766-8.726 19.492-19.492 19.492h-141.192c-10.766 0-19.492-8.726-19.492-19.492 0-21.438-11.972-40.677-28.143-54.752-37.954-33.032-61.945-81.695-61.945-135.961 0-99.508 80.667-180.176 180.176-180.176s180.176 80.667 180.176 180.176c0 54.266-23.99 102.928-61.945 135.961-16.17 14.075-28.143 33.314-28.143 54.752zM420.41 419.552c0-10.721 5.907-20.402 14.318-27.045 27.861-21.997 45.741-56.074 45.741-94.325 0-66.339-53.78-120.118-120.118-120.118-66.339 0-120.118 53.779-120.118 120.118 0 38.251 17.881 72.328 45.74 94.325 8.413 6.642 14.318 16.324 14.318 27.045 0 15.891 12.885 28.777 28.777 28.777h62.563c15.891 0 28.777-12.885 28.777-28.777zM300.293 538.417c-16.585 0-30.030 13.444-30.030 30.030s13.445 30.030 30.030 30.030h120.118c16.585 0 30.030-13.444 30.030-30.030s-13.444-30.030-30.030-30.030h-120.118z"></path>
</svg>
