<!-- Generated by IcoMoon.io -->
<svg version="1.1" xmlns="http://www.w3.org/2000/svg" width="720" height="720" viewBox="0 0 720 720">
<title>linkedIn</title>
<path fill="black" d="M147.985 235.841c32.011 0 57.926-26.396 57.926-58.918 0-32.552-25.915-58.918-57.926-58.918s-57.926 26.396-57.926 58.918c0 32.552 25.915 58.918 57.926 58.918zM90.088 275.089h115.823v353.415h-115.823v-353.415zM283.146 275.089h106.844v55.704h1.531c14.865-27.117 51.26-55.704 105.462-55.704 112.79 0 133.631 71.409 133.631 164.29v189.155h-111.379v-167.684c0-39.999-0.811-91.439-57.926-91.439-58.017 0-66.845 43.542-66.845 88.526v170.596h-111.319v-353.445z"></path>
</svg>
