<!-- Generated by IcoMoon.io -->
<svg version="1.1" xmlns="http://www.w3.org/2000/svg" width="720" height="720" viewBox="0 0 720 720">
<title>list</title>
<path fill="#7db00e" d="M578.892 316.704h-434.965c-20.010 0-36.246 16.239-36.246 36.246s16.239 36.246 36.246 36.246h434.965c20.046 0 36.246-16.239 36.246-36.246s-16.201-36.246-36.246-36.246zM143.928 244.21h434.965c20.046 0 36.246-16.239 36.246-36.246s-16.201-36.246-36.246-36.246h-434.965c-20.010 0-36.246 16.239-36.246 36.246s16.239 36.246 36.246 36.246zM578.892 461.693h-434.965c-20.010 0-36.246 16.201-36.246 36.246s16.239 36.246 36.246 36.246h434.965c20.046 0 36.246-16.201 36.246-36.246s-16.201-36.246-36.246-36.246z"></path>
</svg>
