<!-- Generated by IcoMoon.io -->
<svg version="1.1" xmlns="http://www.w3.org/2000/svg" width="720" height="720" viewBox="0 0 720 720">
<title>logout</title>
<path fill="#7db00e" d="M90.088 148.035c0-33.169 26.889-60.058 60.058-60.058h210.206v60.058h-210.206v420.41h210.206v60.058h-210.206c-33.169 0-60.058-26.888-60.058-60.058v-420.41zM552.966 268.152c-11.726-11.727-30.741-11.727-42.467 0s-11.726 30.741 0 42.467l17.591 17.591h-287.855c-16.585 0-30.030 13.444-30.030 30.030s13.445 30.030 30.030 30.030h287.855l-17.591 17.591c-11.726 11.726-11.726 30.741 0 42.467s30.741 11.726 42.467 0l68.854-68.854c11.726-11.726 11.726-30.741 0-42.467l-68.854-68.854z"></path>
</svg>
