<!-- Generated by IcoMoon.io -->
<svg version="1.1" xmlns="http://www.w3.org/2000/svg" width="720" height="720" viewBox="0 0 720 720">
<title>menu</title>
<path fill="#7db00e" d="M120.118 208.094c0-16.585 13.445-30.030 30.030-30.030h300.293c16.585 0 30.030 13.445 30.030 30.030s-13.444 30.030-30.030 30.030h-300.293c-16.585 0-30.030-13.445-30.030-30.030zM120.118 508.387c0 16.585 13.445 30.030 30.030 30.030h300.293c16.585 0 30.030-13.444 30.030-30.030s-13.444-30.030-30.030-30.030h-300.293c-16.585 0-30.030 13.444-30.030 30.030zM552.966 268.152c-11.726-11.727-30.741-11.727-42.467 0s-11.726 30.741 0 42.467l17.591 17.591h-377.943c-16.585 0-30.030 13.444-30.030 30.030s13.445 30.030 30.030 30.030h377.943l-17.591 17.591c-11.726 11.726-11.726 30.741 0 42.467s30.741 11.726 42.467 0l68.854-68.854c11.726-11.726 11.726-30.741 0-42.467l-68.854-68.854z"></path>
</svg>
