<!-- Generated by IcoMoon.io -->
<svg version="1.1" xmlns="http://www.w3.org/2000/svg" width="720" height="720" viewBox="0 0 720 720">
<title>more</title>
<path fill="#7db00e" d="M120.118 358.241c0-33.171 26.889-60.058 60.058-60.058s60.058 26.888 60.058 60.058c0 33.171-26.889 60.058-60.058 60.058s-60.058-26.888-60.058-60.058zM300.293 358.241c0-33.171 26.888-60.058 60.058-60.058s60.058 26.888 60.058 60.058c0 33.171-26.888 60.058-60.058 60.058s-60.058-26.888-60.058-60.058zM540.528 298.182c-33.171 0-60.058 26.888-60.058 60.058s26.888 60.058 60.058 60.058c33.171 0 60.058-26.888 60.058-60.058s-26.888-60.058-60.058-60.058z"></path>
</svg>
