<!-- Generated by IcoMoon.io -->
<svg version="1.1" xmlns="http://www.w3.org/2000/svg" width="720" height="720" viewBox="0 0 720 720">
<title>moveVisits</title>
<path fill="black" d="M120.118 118.006h240.235c22.231 0 41.639 12.078 52.023 30.030h111.898c19.597 0 37.963 9.562 49.203 25.618l87.169 124.529v180.176c0 33.171-26.888 60.058-60.058 60.058h-5.126c-12.366 34.99-45.738 60.058-84.962 60.058s-72.596-25.069-84.962-60.058h-100.339c-12.366 34.99-45.738 60.058-84.962 60.058s-72.595-25.069-84.961-60.058h-35.156c-33.169 0-60.058-26.888-60.058-60.058h95.214c12.367-34.99 45.737-60.058 84.961-60.058s72.596 25.069 84.962 60.058h35.156v-300.293h-300.293c0-33.169 26.889-60.058 60.058-60.058zM595.46 478.358h5.126v-120.118h-180.176v120.118h5.126c12.366-34.99 45.738-60.058 84.962-60.058s72.596 25.069 84.962 60.058zM270.264 508.387c0-16.585-13.445-30.030-30.030-30.030s-30.030 13.444-30.030 30.030c0 16.585 13.445 30.030 30.030 30.030s30.030-13.444 30.030-30.030zM518.006 208.094h-97.596v90.088h150.147l-52.552-90.088zM540.528 508.387c0-16.585-13.444-30.030-30.030-30.030s-30.030 13.444-30.030 30.030c0 16.585 13.444 30.030 30.030 30.030s30.030-13.444 30.030-30.030zM60.058 238.123c0-16.585 13.445-30.030 30.030-30.030h120.118c16.585 0 30.030 13.445 30.030 30.030s-13.445 30.030-30.030 30.030h-120.118c-16.585 0-30.030-13.445-30.030-30.030zM120.118 328.211c0-16.585 13.445-30.030 30.030-30.030h90.088c16.585 0 30.030 13.444 30.030 30.030s-13.445 30.030-30.030 30.030h-90.088c-16.585 0-30.030-13.444-30.030-30.030z"></path>
</svg>
