<!-- Generated by IcoMoon.io -->
<svg version="1.1" xmlns="http://www.w3.org/2000/svg" width="720" height="720" viewBox="0 0 720 720">
<title>paperclip</title>
<path fill="#7db00e" d="M419.445 145.583c52.878-53.996 139.947-53.528 192.24 1.034 50.193 52.369 49.527 135.191-1.5 186.746l-234.984 237.426c-71.802 72.549-189.108 72.234-260.52-0.699-70.263-71.76-69.469-186.768 1.777-257.55l169.733-168.631c11.754-11.678 30.75-11.616 42.426 0.139 11.679 11.753 11.616 30.748-0.138 42.426l-169.733 168.63c-47.86 47.55-48.393 124.803-1.194 173.010 47.971 48.99 126.771 49.203 175.004 0.468l234.984-237.425c28.152-28.442 28.518-74.133 0.828-103.024-28.851-30.101-76.884-30.359-106.053-0.57l-224.166 228.909c-8.751 8.937-8.901 23.184-0.34 32.301 9.051 9.642 24.298 9.843 33.6 0.444l215.779-218.019c11.655-11.776 30.648-11.874 42.426-0.219 11.775 11.655 11.874 30.65 0.219 42.426l-215.778 218.019c-33.221 33.564-87.666 32.847-119.989-1.584-30.572-32.562-30.036-83.436 1.214-115.347l224.165-228.91z"></path>
</svg>
