<!-- Generated by IcoMoon.io -->
<svg version="1.1" xmlns="http://www.w3.org/2000/svg" width="720" height="720" viewBox="0 0 720 720">
<title>payment</title>
<path fill="#7db00e" d="M390.381 388.27c-16.585 0-30.030 13.444-30.030 30.030s13.444 30.030 30.030 30.030h120.118c16.585 0 30.030-13.444 30.030-30.030s-13.444-30.030-30.030-30.030h-120.118zM120.118 148.035c-33.169 0-60.058 26.889-60.058 60.058v300.293c0 33.171 26.889 60.058 60.058 60.058h480.469c33.171 0 60.058-26.888 60.058-60.058v-300.293c0-33.169-26.888-60.058-60.058-60.058h-480.469zM600.586 208.094v60.058h-480.469v-60.058h480.469zM120.118 508.387v-180.176h480.469v180.176h-480.469z"></path>
</svg>
