<!-- Generated by IcoMoon.io -->
<svg version="1.1" xmlns="http://www.w3.org/2000/svg" width="720" height="720" viewBox="0 0 720 720">
<title>pdf</title>
<path fill="#7db00e" d="M361.499 322.428c6.642 11.828 13.945 21.684 20.588 28.912 9.294 9.859 18.591 19.056 26.561 26.942 52.458-9.856 88.32-5.913 98.943 11.828 1.991 3.942 7.966 17.084-6.642 31.54-9.294 9.856-21.249 15.114-34.53 14.456-18.591 0-40.506-10.514-65.076-30.227-13.279 2.631-28.552 6.574-45.155 11.171-13.942 3.942-27.225 8.544-38.512 12.486-19.923 35.482-45.821 71.622-70.391 77.536-2.656 0.657-5.312 1.316-7.969 1.316-6.64 0-12.618-1.97-17.93-6.57-9.297-7.228-12.618-17.084-10.625-27.6 5.312-27.597 49.139-50.596 88.983-65.707 5.312-9.859 10.624-20.372 14.609-30.885 7.97-19.056 14.609-36.798 19.258-52.566-17.93-34.17-33.204-76.224-23.243-99.223 4.648-11.827 15.273-17.742 28.555-17.742 11.288 0 21.249 4.599 27.225 13.799 11.955 17.085 9.961 51.254-4.648 100.535zM236.659 478.817c1.993 3.286 2.656 3.942 4.648 3.286 9.297-1.97 22.577-15.768 36.522-35.483-27.226 13.141-39.843 25.627-41.171 32.198zM333.75 236.067c-0.045 0.090-0.090 0.184-0.138 0.281-3.985 8.542 1.327 28.912 9.961 51.254 5.312-26.94 5.312-44.025 0.664-50.596-0.664-1.314-1.991-2.629-5.976-2.629-3.691 0-3.964 0.563-4.511 1.69zM346.436 392.943c1.062-0.291 2.102-0.577 3.111-0.862 9.961-2.628 19.922-5.255 28.555-7.228-4.648-5.255-9.961-10.514-15.273-15.768-0.489-0.579-1.005-1.19-1.546-1.826-3.129-3.679-7.009-8.246-10.408-13.288-2.667 8.445-6.192 17.318-9.886 26.612-0.904 2.273-1.817 4.573-2.73 6.898-1.33 2.631-2.658 5.915-3.985 9.201 4.159-1.543 8.319-2.685 12.162-3.739zM467.749 409.822c7.303 0 12.615-0.657 15.936-6.57s-13.281-7.228-45.819-3.942c11.288 6.57 21.912 10.514 29.883 10.514zM180.176 57.947c-33.169 0-60.058 26.889-60.058 60.058v480.469c0 33.171 26.889 60.058 60.058 60.058h360.352c33.171 0 60.058-26.888 60.058-60.058v-377.943c0-15.929-6.327-31.205-17.591-42.468l-102.526-102.526c-11.264-11.263-26.54-17.591-42.467-17.591h-257.825zM180.176 598.475v-480.469h257.825l102.526 102.526v377.943h-360.352z"></path>
</svg>
