<!-- Generated by IcoMoon.io -->
<svg version="1.1" xmlns="http://www.w3.org/2000/svg" width="720" height="720" viewBox="0 0 720 720">
<title>percent</title>
<path fill="black" d="M561.77 156.753c6.036 6.036 8.963 14.004 8.786 21.916-0.168 7.456-3.099 14.862-8.786 20.552l-360.475 360.463c-6.221 6.223-14.492 9.141-22.639 8.762-7.211-0.336-14.323-3.255-19.83-8.762-5.197-5.198-8.091-11.825-8.681-18.615-0.743-8.535 2.152-17.324 8.681-23.852l360.472-360.463c5.312-5.312 12.12-8.217 19.068-8.718 8.39-0.603 16.985 2.302 23.402 8.718zM240.235 328.211c-49.754 0-90.088-40.333-90.088-90.088s40.334-90.088 90.088-90.088c49.754 0 90.088 40.333 90.088 90.088s-40.334 90.088-90.088 90.088zM240.235 268.152c16.585 0 30.030-13.445 30.030-30.030s-13.445-30.030-30.030-30.030c-16.585 0-30.030 13.444-30.030 30.030s13.445 30.030 30.030 30.030zM570.557 478.358c0-49.752-40.333-90.088-90.088-90.088s-90.088 40.335-90.088 90.088c0 49.755 40.333 90.088 90.088 90.088s90.088-40.333 90.088-90.088zM510.498 478.358c0 16.585-13.444 30.030-30.030 30.030s-30.030-13.444-30.030-30.030c0-16.585 13.444-30.030 30.030-30.030s30.030 13.444 30.030 30.030z"></path>
</svg>
