<!-- Generated by IcoMoon.io -->
<svg version="1.1" xmlns="http://www.w3.org/2000/svg" width="720" height="720" viewBox="0 0 720 720">
<title>person</title>
<path fill="#7db00e" d="M360.352 328.211c-66.338 0-120.116-53.779-120.116-120.118s53.779-120.118 120.116-120.118c66.341 0 120.118 53.779 120.118 120.118s-53.776 120.118-120.118 120.118zM360.352 268.152c33.171 0 60.058-26.889 60.058-60.058s-26.888-60.058-60.058-60.058c-33.167 0-60.058 26.889-60.058 60.058s26.891 60.058 60.058 60.058zM158.836 568.446h403.034c-25.829-86.845-106.346-150.147-201.518-150.147s-175.688 63.302-201.516 150.147zM570.648 568.436l-0.081 0.009zM150.139 568.446l-0.080-0.009zM91.439 568.914c27.137-120.592 140.126-210.674 268.913-210.674 128.79 0 241.85 90.082 268.988 210.674 0.889 3.952 1.259 7.829 1.159 11.585-0.048 1.916-0.219 3.802-0.505 5.649-3.732 24.24-27.069 42.356-54.124 42.356h-430.964c-27.465 0-51.099-18.669-54.28-43.464-0.661-5.147-0.439-10.562 0.813-16.125z"></path>
</svg>
