<!-- Generated by IcoMoon.io -->
<svg version="1.1" xmlns="http://www.w3.org/2000/svg" width="720" height="720" viewBox="0 0 720 720">
<title>phone</title>
<path fill="#7db00e" d="M60.263 149.857c-3.509-51.41 38.832-91.91 88.303-91.91h71.101c43.076 0 80.164 30.173 88.612 72.090l13.72 68.080c6.63 32.892-9.745 66.117-39.979 81.118-3.024 1.5-4.99 3.717-5.939 5.695-0.863 1.799-0.894 3.29-0.423 4.707 17.63 52.988 62.686 124.803 150.45 150.772 1.652 0.487 3.466 0.406 5.534-0.595 2.213-1.066 4.504-3.141 6.015-6.133 15.114-30.002 48.596-46.254 81.74-39.675l68.605 13.615c42.24 8.385 72.644 45.188 72.644 87.935v76.833c0 44.783-34.495 86.34-84.043 86.143-95.151-0.382-217.112-25.637-319.348-102.637-103.293-77.797-183.345-206.127-196.992-406.039zM148.565 117.733c-17.074 0-29.185 13.61-28.196 28.084 12.589 184.398 85.217 296.11 173.307 362.457 89.146 67.142 197.27 90.133 283.169 90.475 11.846 0.048 23.555-10.213 23.555-26.357v-76.833c0-14.249-10.135-26.516-24.216-29.312l-68.602-13.615c-6.505-1.292-13.077 1.898-16.045 7.786-14.279 28.344-47.609 47.65-82.644 37.282-113.335-33.531-169.208-125.495-190.444-189.317-11.676-35.092 8.108-68.47 36.627-82.621 5.933-2.944 9.147-9.465 7.846-15.92l-13.721-68.080c-2.816-13.973-15.178-24.030-29.538-24.030h-71.101z"></path>
</svg>
