<!-- Generated by IcoMoon.io -->
<svg version="1.1" xmlns="http://www.w3.org/2000/svg" width="720" height="720" viewBox="0 0 720 720">
<title>printer</title>
<path fill="#7db00e" d="M540.528 328.211c-16.585 0-30.030 13.444-30.030 30.030s13.444 30.030 30.030 30.030c16.585 0 30.030-13.444 30.030-30.030s-13.444-30.030-30.030-30.030zM180.176 118.006v120.118h-60.058c-33.169 0-60.058 26.889-60.058 60.058v240.235h150.147v60.058c0 33.171 26.889 60.058 60.058 60.058h180.176c33.171 0 60.058-26.888 60.058-60.058v-60.058h150.147v-240.235c0-33.169-26.888-60.058-60.058-60.058h-60.058v-120.118c0-33.169-26.888-60.058-60.058-60.058h-240.235c-33.169 0-60.058 26.889-60.058 60.058zM480.469 118.006v120.118h-240.235v-120.118h240.235zM450.44 478.358v120.118h-180.176v-120.118h180.176zM210.206 418.299v60.058h-90.088v-180.176h480.469v180.176h-90.088v-60.058h-300.293z"></path>
</svg>
