<!-- Generated by IcoMoon.io -->
<svg version="1.1" xmlns="http://www.w3.org/2000/svg" width="720" height="720" viewBox="0 0 720 720">
<title>quickbooks</title>
<path fill="#7db00e" d="M360.352 57.947c-165.856 0-300.293 134.437-300.293 300.293 0 165.855 134.437 300.293 300.293 300.293 165.855 0 300.293-134.438 300.293-300.293s-134.438-300.293-300.293-300.293zM443.794 241.487h16.684c64.506 0 116.778 52.274 116.778 116.78 0 64.479-52.272 116.781-116.778 116.781h-83.473v-313.639c23.97 0 43.377 19.408 43.377 43.375v226.859h40.096c40.482 0 73.403-32.921 73.403-73.377 0-40.482-32.921-73.404-73.403-73.404h-16.684v-43.376zM260.226 475.021c-64.507 0-116.781-52.275-116.781-116.781 0-64.508 52.274-116.781 116.781-116.781h83.471v313.642c-23.97 0-43.377-19.438-43.377-43.377v-226.888h-40.094c-40.484 0-73.405 32.92-73.405 73.406 0 40.482 32.921 73.403 73.405 73.403h16.683v43.377h-16.683z"></path>
</svg>
