<!-- Generated by IcoMoon.io -->
<svg version="1.1" xmlns="http://www.w3.org/2000/svg" width="720" height="720" viewBox="0 0 720 720">
<title>quote</title>
<path fill="#7db00e" d="M420.41 358.241c0-49.755-40.333-90.088-90.088-90.088-49.754 0-90.088 40.333-90.088 90.088s40.333 90.088 90.088 90.088c49.755 0 90.088-40.333 90.088-90.088zM360.352 358.241c0 16.585-13.444 30.030-30.030 30.030s-30.030-13.444-30.030-30.030c0-16.585 13.444-30.030 30.030-30.030s30.030 13.444 30.030 30.030zM107.679 178.064l42.468-42.468c11.727-11.727 27.098-17.591 42.468-17.591s30.741 5.863 42.468 17.591l29.754 29.754c22.077-7.875 40.706-17.315 65.486-17.315 116.093 0 210.206 94.112 210.206 210.205v150.147h90.088c16.585 0 30.030 13.444 30.030 30.030v60.058c0 16.585-13.444 30.030-30.030 30.030s-30.030-13.444-30.030-30.030v-30.030h-270.264c-116.092 0-210.205-94.112-210.205-210.206 0-24.78 9.441-43.41 17.315-65.486l-29.754-29.754c-11.727-11.727-17.591-27.098-17.591-42.468s5.863-30.741 17.591-42.468zM209.587 195.037l-16.973-16.972-42.468 42.468 16.972 16.973c12.058-16.099 26.369-30.411 42.468-42.468zM330.322 208.094c-82.923 0-150.147 67.222-150.147 150.147s67.223 150.147 150.147 150.147h150.147v-150.147c0-82.924-67.224-150.147-150.147-150.147z"></path>
</svg>
