<!-- Generated by IcoMoon.io -->
<svg version="1.1" xmlns="http://www.w3.org/2000/svg" width="720" height="720" viewBox="0 0 720 720">
<title>recurring</title>
<path fill="#7db00e" d="M210.206 87.976c-16.585 0-30.030 13.445-30.030 30.030v30.030h-30.030c-33.169 0-60.058 26.889-60.058 60.058v270.264c0 33.171 26.889 60.058 60.058 60.058h330.322c33.171 0 60.058-26.888 60.058-60.058v-270.264c0-33.169-26.888-60.058-60.058-60.058h-30.030v-30.030c0-16.585-13.444-30.030-30.030-30.030s-30.030 13.445-30.030 30.030v30.030h-150.147v-30.030c0-16.585-13.445-30.030-30.030-30.030zM480.469 208.094v60.058h-330.322v-60.058h330.322zM150.147 478.358v-150.147h330.322v150.147h-330.322zM210.206 628.504c-33.169 0-60.058-26.888-60.058-60.058h390.381c16.585 0 30.030-13.444 30.030-30.030v-330.322c33.171 0 60.058 26.889 60.058 60.058v300.293c0 33.171-26.888 60.058-60.058 60.058h-360.352z"></path>
</svg>
