<!-- Generated by IcoMoon.io -->
<svg version="1.1" xmlns="http://www.w3.org/2000/svg" width="720" height="720" viewBox="0 0 720 720">
<title>redo</title>
<path fill="black" d="M390.381 568.446c116.093 0 210.206-94.112 210.206-210.206s-94.112-210.206-210.206-210.206c-71.43 0-134.542 35.63-172.528 90.088h52.41c16.585 0 30.030 13.445 30.030 30.030s-13.445 30.030-30.030 30.030h-120.118c-8.22 0-15.669-3.303-21.091-8.654l-0.169 0.169c0.023-0.089 0.047-0.179 0.070-0.268-5.46-5.438-8.838-12.963-8.838-21.277v-120.118c0-16.585 13.445-30.030 30.030-30.030s30.030 13.445 30.030 30.030v40.32c49.547-61.23 125.303-100.378 210.206-100.378 149.264 0 270.264 121.001 270.264 270.264 0 149.264-121 270.264-270.264 270.264-37.323 0-72.881-7.568-105.223-21.249-17.966-7.601-20.817-30.753-7.022-44.549l1.597-1.597c9.196-9.195 23.195-11.219 35.337-6.558 23.38 8.975 48.771 13.894 75.311 13.894zM180.461 238.123h0.377l-0.188-0.188-0.188 0.188z"></path>
</svg>
