<!-- Generated by IcoMoon.io -->
<svg version="1.1" xmlns="http://www.w3.org/2000/svg" width="720" height="720" viewBox="0 0 720 720">
<title>reports</title>
<path fill="#7db00e" d="M90.088 118.006c0-33.169 26.889-60.058 60.058-60.058h318.589c17.024 0 33.251 7.226 44.641 19.882l101.82 113.134c9.925 11.028 15.417 25.34 15.417 40.177v367.334c0 33.171-26.888 60.058-60.058 60.058h-420.41c-33.169 0-60.058-26.888-60.058-60.058v-480.469zM150.147 520.825v77.65h420.41v-367.334l-101.82-113.134h-318.589v317.885l68.855-68.854c11.727-11.726 30.741-11.726 42.468 0l53.839 53.84 92.665-92.665h-17.591c-16.585 0-30.030-13.444-30.030-30.030s13.444-30.030 30.030-30.030h90.088c16.585 0 30.030 13.445 30.030 30.030v90.088c0 16.585-13.444 30.030-30.030 30.030s-30.030-13.444-30.030-30.030v-17.591l-113.898 113.898c-11.726 11.726-30.741 11.726-42.467 0l-53.84-53.84-90.088 90.088z"></path>
</svg>
