<!-- Generated by IcoMoon.io -->
<svg version="1.1" xmlns="http://www.w3.org/2000/svg" width="720" height="720" viewBox="0 0 720 720">
<title>request</title>
<path fill="#7db00e" d="M360.352 57.947c-16.585 0-30.030 13.445-30.030 30.030v167.738l-38.826-39.071c-6.844-6.844-16.168-9.693-25.079-8.55-6.358 0.816-12.505 3.666-17.389 8.55-4.273 4.273-6.988 9.512-8.148 15.015-0.449 2.129-0.664 4.298-0.647 6.465 0.062 7.604 2.993 15.187 8.794 20.988l90.089 90.333c5.903 5.907 13.657 8.838 21.396 8.795 7.631-0.042 15.249-2.973 21.071-8.795l90.737-98.883c5.387-5.387 8.298-12.311 8.736-19.36 0.168-2.706-0.027-5.431-0.589-8.094-1.159-5.502-3.874-10.742-8.146-15.015-6.169-6.169-14.354-9.092-22.432-8.771-7.282 0.288-14.477 3.213-20.036 8.771l-39.473 47.62v-167.738c0-16.585-13.444-30.030-30.030-30.030zM60.058 148.035c0-33.169 26.889-60.058 60.058-60.058h120.118v60.058h-120.118v270.264h150.147c11.374 0 21.772 6.427 26.859 16.6l21.728 43.458h83.001l21.729-43.458c5.087-10.174 15.484-16.6 26.858-16.6h150.147v-270.264h-120.118v-60.058h120.118c33.171 0 60.058 26.889 60.058 60.058v450.44c0 33.171-26.888 60.058-60.058 60.058h-480.469c-33.169 0-60.058-26.888-60.058-60.058v-450.44zM600.586 478.358h-131.588l-21.729 43.458c-5.087 10.174-15.484 16.6-26.858 16.6h-120.118c-11.374 0-21.772-6.427-26.859-16.6l-21.729-43.458h-131.588v120.118h480.469v-120.118z"></path>
</svg>
