<!-- Generated by IcoMoon.io -->
<svg version="1.1" xmlns="http://www.w3.org/2000/svg" width="720" height="720" viewBox="0 0 720 720">
<title>schedule</title>
<path fill="#7db00e" d="M210.206 238.123c0 16.585-13.445 30.030-30.030 30.030s-30.030-13.445-30.030-30.030c0-16.585 13.445-30.030 30.030-30.030s30.030 13.445 30.030 30.030zM180.176 388.27c16.585 0 30.030-13.444 30.030-30.030s-13.445-30.030-30.030-30.030c-16.585 0-30.030 13.444-30.030 30.030s13.445 30.030 30.030 30.030zM210.206 478.358c0 16.585-13.445 30.030-30.030 30.030s-30.030-13.444-30.030-30.030c0-16.585 13.445-30.030 30.030-30.030s30.030 13.444 30.030 30.030zM300.293 208.094c-16.585 0-30.030 13.445-30.030 30.030s13.445 30.030 30.030 30.030h240.235c16.585 0 30.030-13.445 30.030-30.030s-13.444-30.030-30.030-30.030h-240.235zM270.264 358.241c0-16.585 13.445-30.030 30.030-30.030h240.235c16.585 0 30.030 13.444 30.030 30.030s-13.444 30.030-30.030 30.030h-240.235c-16.585 0-30.030-13.444-30.030-30.030zM300.293 448.329c-16.585 0-30.030 13.444-30.030 30.030s13.445 30.030 30.030 30.030h240.235c16.585 0 30.030-13.444 30.030-30.030s-13.444-30.030-30.030-30.030h-240.235zM120.118 87.976h480.469c33.171 0 60.058 26.889 60.058 60.058v420.41c0 33.171-26.888 60.058-60.058 60.058h-480.469c-33.169 0-60.058-26.888-60.058-60.058v-420.41c0-33.169 26.889-60.058 60.058-60.058zM600.586 148.035h-480.469v420.41h480.469v-420.41z"></path>
</svg>
