<!-- Generated by IcoMoon.io -->
<svg version="1.1" xmlns="http://www.w3.org/2000/svg" width="720" height="720" viewBox="0 0 720 720">
<title>share</title>
<path fill="black" d="M600.586 208.094c0 49.754-40.333 90.088-90.088 90.088-23.212 0-44.378-8.78-60.35-23.2l-122.292 58.924c1.615 7.859 2.465 16 2.465 24.336 0 8.807-0.949 17.393-2.748 25.661l119.138 60.867c16.313-16.351 38.867-26.468 63.785-26.468 49.755 0 90.088 40.333 90.088 90.088s-40.333 90.088-90.088 90.088c-49.755 0-90.088-40.333-90.088-90.088 0-3.108 0.156-6.18 0.465-9.21l-120.774-61.269c-22.005 24.813-54.124 40.449-89.897 40.449-66.339 0-120.118-53.78-120.118-120.118 0-66.339 53.779-120.118 120.118-120.118 36.795 0 69.725 16.544 91.757 42.598l119.577-58.332c-0.745-4.655-1.129-9.43-1.129-14.296 0-49.754 40.333-90.088 90.088-90.088s90.088 40.334 90.088 90.088zM540.528 208.094c0-16.585-13.444-30.030-30.030-30.030s-30.030 13.445-30.030 30.030c0 16.585 13.444 30.030 30.030 30.030s30.030-13.445 30.030-30.030zM244.351 308.827c-9.695-6.711-21.461-10.645-34.146-10.645-31.991 0-58.142 25.014-59.958 56.552-0.067 1.159-0.101 2.33-0.101 3.507 0 1.165 0.033 2.324 0.098 3.475l0.011 0.177c1.887 31.468 28.006 56.407 59.949 56.407 11.962 0 23.106-3.495 32.468-9.522 16.599-10.688 27.591-29.33 27.591-50.536 0-18.657-8.508-35.329-21.855-46.344-1.307-1.078-2.661-2.102-4.057-3.069zM510.498 538.417c16.585 0 30.030-13.444 30.030-30.030s-13.444-30.030-30.030-30.030c-16.585 0-30.030 13.444-30.030 30.030s13.444 30.030 30.030 30.030z"></path>
</svg>
