<!-- Generated by IcoMoon.io -->
<svg version="1.1" xmlns="http://www.w3.org/2000/svg" width="720" height="720" viewBox="0 0 720 720">
<title>signature</title>
<path fill="#7db00e" d="M270.264 413.218v95.241h95.241c15.927 0 31.203-6.33 42.467-17.591l235.154-235.155c12.471-12.471 18.309-29.062 17.519-45.392-0.697-14.382-6.538-28.56-17.519-39.544l-35.182-35.182c-10.984-10.983-25.161-16.823-39.542-17.52-16.33-0.791-32.921 5.049-45.392 17.52l-235.155 235.155c-11.263 11.261-17.591 26.537-17.591 42.467zM365.505 448.4h-35.182v-35.182l235.154-235.155 35.182 35.182-235.154 235.155zM173.625 508.459c-9.879 0-19.524 2.727-28.735 6.771l-0.041 0.018c-7.83 3.469-15.62 8.024-23.288 13.269-5.612 3.831-10.974 7.909-15.873 11.931-2.978 2.444-5.239 4.426-6.671 5.739-11.244 10.306-11.922 32.221-1.725 43.404l0.052 0.057c10.269 11.149 27.643 11.934 38.867 1.66 3.258-2.976 9.205-7.907 16.394-12.817 5.471-3.72 10.374-6.529 14.494-8.352 1.99-0.88 3.607-1.439 4.828-1.763 1.174-0.312 1.698-0.339 1.698-0.339 1.14 0 5.131 0.739 12.479 3.75 6.81 2.79 15.084 6.925 24.125 12.117 16.628 9.585 35.4 14.639 54.585 14.639h125.799c15.198 0 27.525-12.33 27.525-27.528 0-15.201-12.558-32.531-27.757-32.531h-125.568c-9.484 0-18.806-2.501-27.094-7.294l-0.045-0.027c-22.705-13.024-45.13-22.709-64.051-22.709z"></path>
</svg>
