<!-- Generated by IcoMoon.io -->
<svg version="1.1" xmlns="http://www.w3.org/2000/svg" width="720" height="720" viewBox="0 0 720 720">
<title>sliderCenter</title>
<path fill="black" d="M651.213 171.213c5.493-5.492 8.409-12.583 8.754-19.774l0.033-1.716-0.003-0.041c-0.039-3.952-0.846-7.72-2.274-11.165-1.464-3.539-3.633-6.853-6.51-9.73l-60-60c-11.715-11.715-30.711-11.715-42.426 0s-11.715 30.71 0 42.427l8.787 8.787h-77.574c-16.569 0-30 13.432-30 30s13.431 30 30 30h77.574l-8.787 8.787c-11.715 11.716-11.715 30.71 0 42.427s30.711 11.715 42.426 0l60-60z"></path>
<path fill="black" d="M330 300v-60c0-16.568 13.431-30 30-30s30 13.432 30 30v60h210c33.138 0 60 26.862 60 60v150c0 33.138-26.862 60-60 60h-210v60c0 16.569-13.431 30-30 30s-30-13.431-30-30v-60h-210c-33.137 0-60-26.862-60-60v-150c0-33.138 26.863-60 60-60h210zM330 360h-210v150h210v-150zM390 360v150h210v-150h-210z"></path>
<path fill="black" d="M240 180h-77.574l8.787 8.787c11.715 11.716 11.715 30.71 0 42.427s-30.71 11.715-42.427 0l-60-60c-2.876-2.876-5.046-6.192-6.51-9.73-1.467-3.537-2.277-7.416-2.277-11.483s0.81-7.947 2.277-11.483c1.453-3.512 3.602-6.805 6.447-9.666l0.063-0.064 60-60c11.716-11.715 30.71-11.715 42.427 0s11.715 30.71 0 42.427l-8.787 8.787h77.574c16.568 0 30 13.432 30 30s-13.431 30-30 30z"></path>
</svg>
