<!-- Generated by IcoMoon.io -->
<svg version="1.1" xmlns="http://www.w3.org/2000/svg" width="720" height="720" viewBox="0 0 720 720">
<title>sliderStart</title>
<path fill="#7db00e" d="M441.213 68.787c-11.715-11.715-30.711-11.715-42.426 0s-11.715 30.71 0 42.427l8.787 8.787h-77.574c-16.569 0-30 13.432-30 30s13.431 30 30 30h77.574l-8.787 8.787c-11.715 11.716-11.715 30.71 0 42.427s30.711 11.715 42.426 0l60-60c0 0 8.787-6.214 8.787-21.213 0-12-5.859-19.142-8.787-21.213l-60-60z"></path>
<path fill="#7db00e" d="M120 300c-33.137 0-60 26.862-60 60v150c0 33.138 26.863 60 60 60h480c33.138 0 60-26.862 60-60v-150c0-33.138-26.862-60-60-60h-480zM120 360h480v150h-480v-150z"></path>
<path fill="#7db00e" d="M210 210c16.568 0 30 13.432 30 30v390c0 16.569-13.432 30-30 30s-30-13.431-30-30v-390c0-16.568 13.432-30 30-30z"></path>
</svg>
