<!-- Generated by IcoMoon.io -->
<svg version="1.1" xmlns="http://www.w3.org/2000/svg" width="720" height="720" viewBox="0 0 720 720">
<title>sms2</title>
<path fill="#7db00e" d="M210.206 178.064c-16.585 0-30.030 13.445-30.030 30.030s13.444 30.030 30.030 30.030h300.293c16.585 0 30.030-13.445 30.030-30.030s-13.444-30.030-30.030-30.030h-300.293zM180.176 298.182c0-16.585 13.445-30.030 30.030-30.030h300.293c16.585 0 30.030 13.445 30.030 30.030s-13.444 30.030-30.030 30.030h-300.293c-16.585 0-30.030-13.444-30.030-30.030zM210.206 358.241c-16.585 0-30.030 13.444-30.030 30.030s13.445 30.030 30.030 30.030h180.176c16.585 0 30.030-13.444 30.030-30.030s-13.444-30.030-30.030-30.030h-180.176zM60.058 118.006v468.031c0 26.753 32.346 40.153 51.263 21.234l68.854-68.854h420.41c33.171 0 60.058-26.888 60.058-60.058v-360.352c0-33.169-26.888-60.058-60.058-60.058h-480.469c-33.169 0-60.058 26.889-60.058 60.058zM120.118 118.006h480.469v360.352h-450.44l-30.030 30.030v-390.381z"></path>
</svg>
