<!-- Generated by IcoMoon.io -->
<svg version="1.1" xmlns="http://www.w3.org/2000/svg" width="720" height="720" viewBox="0 0 720 720">
<title>sort</title>
<path fill="black" d="M480.469 238.123c33.171 0 60.058 26.889 60.058 60.058v30.030c33.171 0 60.058 26.888 60.058 60.058v30.030c0 33.171-26.888 60.058-60.058 60.058h-300.293c-33.169 0-60.058-26.888-60.058-60.058v-30.030c-33.169 0-60.058-26.888-60.058-60.058v-30.030c0-33.169 26.889-60.058 60.058-60.058h300.293zM465.454 328.211c8.291 0 15.015-6.723 15.015-15.015s-6.723-15.015-15.015-15.015h-270.264c-8.293 0-15.015 6.723-15.015 15.015s6.722 15.015 15.015 15.015h270.264zM240.235 388.27v30.030h300.293v-30.030h-300.293zM339.118 96.772c5.865-5.863 13.549-8.795 21.234-8.795s15.369 2.932 21.234 8.795l68.854 60.058c11.726 11.727 11.726 30.741 0 42.468s-30.741 11.727-42.467 0l-47.621-38.825-47.621 38.825c-11.726 11.727-30.741 11.727-42.467 0s-11.727-30.741 0-42.468l68.854-60.058zM360.352 556.007l-47.621-38.831c-6.009-6.009-13.929-8.937-21.803-8.79-7.494 0.141-14.946 3.072-20.665 8.79-11.727 11.726-11.727 30.741 0 42.467l68.854 60.064c5.865 5.865 13.549 8.795 21.234 8.795s15.369-2.931 21.234-8.795l68.854-60.064c11.726-11.726 11.726-30.741 0-42.467-5.718-5.718-13.171-8.648-20.663-8.79-7.874-0.147-15.796 2.781-21.804 8.79l-47.621 38.831z"></path>
</svg>
