<!-- Generated by IcoMoon.io -->
<svg version="1.1" xmlns="http://www.w3.org/2000/svg" width="720" height="720" viewBox="0 0 720 720">
<title>sparkles</title>
<path fill="#7db00e" d="M180 60c16.569 0 30 13.432 30 30v30l30 30h30c16.569 0 30 13.432 30 30s-13.43 30-30 30h-30l-30 30v30c0 16.568-13.43 30-30 30s-30-13.432-30-30v-30l-30-30h-30c-16.569 0-30-13.432-30-30s13.43-30 30-30h30l30-30v-30c0-16.568 13.43-30 30-30z"></path>
<path fill="#7db00e" d="M210 420c16.569 0 30 13.431 30 30v30l30 30h30c16.569 0 30 13.431 30 30s-13.431 30-30 30h-30l-30 30v30c0 16.569-13.43 30-30 30s-30-13.431-30-30v-30l-30-30h-30c-16.569 0-30-13.431-30-30s13.43-30 30-30h30l30-30v-30c0-16.569 13.43-30 30-30z"></path>
<path fill="#7db00e" d="M420 120l-60 165-99.406 48.438c-21.407 11.238-21.407 41.886 0 53.124l99.406 48.438 60.924 170.511c7.656 30.153 50.496 30.153 58.152 0l60.924-170.511 99.405-48.438c21.408-11.238 21.408-41.886 0-53.124l-99.405-48.438-61.845-165c-7.659-30.154-50.496-30.154-58.155 0zM330 360l60-30 30-30 30-90 30 90 30 30 60 30-60 30-30 30-30 90-30-90-30-30-60-30z"></path>
</svg>
