<!-- Generated by IcoMoon.io -->
<svg version="1.1" xmlns="http://www.w3.org/2000/svg" width="720" height="720" viewBox="0 0 720 720">
<title>starFill</title>
<path fill="#7db00e" d="M360.345 557.218l-135.281 65.942c-7.669 4.039-16.316 5.849-24.961 5.228s-16.944-3.651-23.956-8.745c-7.013-5.093-12.459-12.048-15.723-20.078s-4.215-16.813-2.746-25.353l25.825-145.429-109.427-106.694c-6.204-6.048-10.591-13.708-12.667-22.12s-1.756-17.234 0.92-25.473c2.678-8.239 7.607-15.564 14.231-21.147s14.677-9.203 23.25-10.448l151.258-21.982 67.624-137.054c3.831-7.779 9.763-14.329 17.123-18.91 7.363-4.58 15.858-7.009 24.528-7.009 8.672 0 17.168 2.428 24.531 7.009 7.36 4.581 13.29 11.131 17.12 18.91l67.626 137.054 151.258 21.982c8.573 1.245 16.627 4.864 23.252 10.448s11.552 12.909 14.231 21.147c2.679 8.239 2.997 17.063 0.922 25.473-2.078 8.411-6.465 16.071-12.67 22.12l-109.457 106.694 25.825 145.447c1.465 8.537 0.514 17.315-2.748 25.341-3.265 8.024-8.708 14.976-15.714 20.069-7.009 5.093-15.3 8.122-23.942 8.748-8.639 0.624-17.282-1.181-24.952-5.21l-135.282-65.959z"></path>
</svg>
