<!-- Generated by IcoMoon.io -->
<svg version="1.1" xmlns="http://www.w3.org/2000/svg" width="720" height="720" viewBox="0 0 720 720">
<title>sun</title>
<path fill="black" d="M360.352 208.094c16.516 0 30.030-13.513 30.030-30.030v-60.058c0-16.516-13.513-30.030-30.030-30.030s-30.030 13.513-30.030 30.030v60.058c0 16.516 13.513 30.030 30.030 30.030zM497.886 448.329h72.671c16.585 0 30.030 13.444 30.030 30.030s-13.444 30.030-30.030 30.030h-420.41c-16.585 0-30.030-13.444-30.030-30.030s13.445-30.030 30.030-30.030h72.671c-8.108-18.318-12.613-38.738-12.613-60.058 0-82.881 67.265-150.147 150.147-150.147s150.147 67.265 150.147 150.147c0 21.321-4.504 41.741-12.613 60.058zM360.352 298.182c-49.849 0-90.088 40.239-90.088 90.088 0 23.122 9.009 44.143 23.423 60.058h133.33c14.414-15.915 23.423-36.936 23.423-60.058 0-49.849-40.239-90.088-90.088-90.088zM210.206 568.446c0-16.585 13.445-30.030 30.030-30.030h240.235c16.585 0 30.030 13.444 30.030 30.030s-13.444 30.030-30.030 30.030h-240.235c-16.585 0-30.030-13.444-30.030-30.030zM150.147 418.299h-60.058c-16.516 0-30.030-13.513-30.030-30.030s13.513-30.030 30.030-30.030h60.058c16.516 0 30.030 13.513 30.030 30.030s-13.513 30.030-30.030 30.030zM570.557 418.299c-16.516 0-30.030-13.513-30.030-30.030s13.513-30.030 30.030-30.030h60.058c16.516 0 30.030 13.513 30.030 30.030s-13.513 30.030-30.030 30.030h-60.058zM231.508 259.412c-6.266 6.266-14.593 9.179-22.822 8.741-7.154-0.381-14.234-3.295-19.82-8.741l-61.524-61.835c-4.857-5.667-7.229-12.607-7.224-19.512 0.006-8.464 3.582-16.875 10.528-22.829 5.723-4.949 12.959-7.349 20.149-7.201 6.77 0.14 13.501 2.541 18.888 7.201l61.825 61.534c7.182 6.823 10.070 16.439 8.727 25.572-0.903 6.14-3.718 12.061-8.427 16.77l-0.3 0.3zM489.196 259.412c6.268 6.266 14.594 9.179 22.823 8.741 7.153-0.381 14.234-3.295 19.82-8.741l61.523-61.835c4.859-5.667 7.231-12.607 7.225-19.512-0.006-8.464-3.582-16.875-10.529-22.829-5.721-4.949-12.958-7.349-20.149-7.201-6.768 0.14-13.499 2.541-18.888 7.201l-61.824 61.534c-7.183 6.823-10.069 16.439-8.726 25.572 0.904 6.14 3.717 12.061 8.426 16.77l0.3 0.3z"></path>
</svg>
