<!-- Generated by IcoMoon.io -->
<svg version="1.1" xmlns="http://www.w3.org/2000/svg" width="720" height="720" viewBox="0 0 720 720">
<title>sync</title>
<path fill="#7db00e" d="M289.773 99.519c10.211-13.069 29.081-15.386 42.15-5.176l76.734 59.949c13.069 10.211 15.384 29.082 5.174 42.152l-59.947 76.733c-10.213 13.069-29.083 15.386-42.152 5.176s-15.386-29.082-5.177-42.152l11.591-17.956c-38.263 11.228-71.999 37.581-91.531 75.914-32.101 63.003-15.469 138.021 35.935 182.095l-42.567 42.569c-69.267-62.068-91.1-165.143-46.879-251.931 29.62-58.132 82.572-96.585 141.638-109.761l-19.792-15.462c-13.069-10.211-15.386-29.082-5.176-42.152zM399.12 499.318l14.711-18.828c10.21-13.069 7.895-31.942-5.174-42.152s-31.942-7.892-42.152 5.177l-59.951 76.731c-10.209 13.069-7.893 31.942 5.177 42.152l76.731 59.951c13.069 10.21 31.942 7.892 42.152-5.177s7.895-31.939-5.177-42.152l-19.795-15.465c59.067-13.177 112.025-51.63 141.645-109.763 44.558-87.451 22.048-191.439-48.476-253.346l-42.605 42.604c52.683 43.876 70.007 119.81 37.567 183.476-20.059 39.375-55.107 66.106-94.652 76.794z"></path>
</svg>
