<!-- Generated by IcoMoon.io -->
<svg version="1.1" xmlns="http://www.w3.org/2000/svg" width="720" height="720" viewBox="0 0 720 720">
<title>textBox</title>
<path fill="black" d="M120.118 238.123c0-16.585 13.445-30.030 30.030-30.030h210.206c16.585 0 30.030 13.445 30.030 30.030s-13.444 30.030-30.030 30.030h-210.206c-16.585 0-30.030-13.445-30.030-30.030zM450.44 238.123c0-16.585 13.444-30.030 30.030-30.030h90.088c16.585 0 30.030 13.445 30.030 30.030s-13.444 30.030-30.030 30.030h-90.088c-16.585 0-30.030-13.445-30.030-30.030zM150.147 328.211c-16.585 0-30.030 13.444-30.030 30.030s13.445 30.030 30.030 30.030h90.088c16.585 0 30.030-13.444 30.030-30.030s-13.445-30.030-30.030-30.030h-90.088zM330.322 358.241c0-16.585 13.444-30.030 30.030-30.030h210.206c16.585 0 30.030 13.444 30.030 30.030s-13.444 30.030-30.030 30.030h-210.206c-16.585 0-30.030-13.444-30.030-30.030zM120.118 478.358c0-16.585 13.445-30.030 30.030-30.030h150.147c16.585 0 30.030 13.444 30.030 30.030s-13.444 30.030-30.030 30.030h-150.147c-16.585 0-30.030-13.444-30.030-30.030zM420.41 448.329c-16.585 0-30.030 13.444-30.030 30.030s13.444 30.030 30.030 30.030h150.147c16.585 0 30.030-13.444 30.030-30.030s-13.444-30.030-30.030-30.030h-150.147z"></path>
</svg>
