<!-- Generated by IcoMoon.io -->
<svg version="1.1" xmlns="http://www.w3.org/2000/svg" width="720" height="720" viewBox="0 0 720 720">
<title>textField</title>
<path fill="#7db00e" d="M150.147 268.152c-16.585 0-30.030 13.444-30.030 30.030s13.445 30.030 30.030 30.030h210.206c16.585 0 30.030-13.444 30.030-30.030s-13.444-30.030-30.030-30.030h-210.206zM480.469 268.152c-16.585 0-30.030 13.444-30.030 30.030s13.444 30.030 30.030 30.030h90.088c16.585 0 30.030-13.444 30.030-30.030s-13.444-30.030-30.030-30.030h-90.088zM120.118 418.299c0-16.585 13.445-30.030 30.030-30.030h90.088c16.585 0 30.030 13.444 30.030 30.030s-13.445 30.030-30.030 30.030h-90.088c-16.585 0-30.030-13.444-30.030-30.030zM360.352 388.27c-16.585 0-30.030 13.444-30.030 30.030s13.444 30.030 30.030 30.030h210.206c16.585 0 30.030-13.444 30.030-30.030s-13.444-30.030-30.030-30.030h-210.206z"></path>
</svg>
