<!-- Generated by IcoMoon.io -->
<svg version="1.1" xmlns="http://www.w3.org/2000/svg" width="720" height="720" viewBox="0 0 720 720">
<title>timeline</title>
<path fill="#7db00e" d="M240.235 148.035c0-49.754-40.334-90.088-90.088-90.088s-90.088 40.334-90.088 90.088c0 39.225 25.069 72.595 60.058 84.961v40.281c-34.99 12.367-60.058 45.738-60.058 84.962s25.069 72.596 60.058 84.962v40.281c-34.99 12.366-60.058 45.738-60.058 84.962 0 49.755 40.334 90.088 90.088 90.088s90.088-40.333 90.088-90.088c0-39.224-25.069-72.596-60.058-84.962v-40.281c34.99-12.366 60.058-45.738 60.058-84.962s-25.069-72.595-60.058-84.962v-40.281c34.99-12.367 60.058-45.737 60.058-84.961zM150.147 178.064c-16.585 0-30.030-13.445-30.030-30.030s13.445-30.030 30.030-30.030c16.585 0 30.030 13.445 30.030 30.030s-13.445 30.030-30.030 30.030zM180.176 358.241c0 16.585-13.444 30.030-30.030 30.030s-30.030-13.444-30.030-30.030c0-16.585 13.444-30.030 30.030-30.030s30.030 13.444 30.030 30.030zM180.176 568.446c0 16.585-13.445 30.030-30.030 30.030s-30.030-13.444-30.030-30.030c0-16.585 13.445-30.030 30.030-30.030s30.030 13.444 30.030 30.030zM360.352 87.976h240.235c33.171 0 60.058 26.889 60.058 60.058v120.118c0 33.171-26.888 60.058-60.058 60.058h-240.235c-33.171 0-60.058-26.888-60.058-60.058v-120.118c0-33.169 26.888-60.058 60.058-60.058zM600.586 148.035h-240.235v120.118h240.235v-120.118zM360.352 388.27h240.235c33.171 0 60.058 26.888 60.058 60.058v120.118c0 33.171-26.888 60.058-60.058 60.058h-240.235c-33.171 0-60.058-26.888-60.058-60.058v-120.118c0-33.171 26.888-60.058 60.058-60.058zM600.586 448.329h-240.235v120.118h240.235v-120.118z"></path>
</svg>
