<!-- Generated by IcoMoon.io -->
<svg version="1.1" xmlns="http://www.w3.org/2000/svg" width="720" height="720" viewBox="0 0 720 720">
<title>timer</title>
<path fill="black" d="M360.352 178.064c-16.585 0-30.030 13.445-30.030 30.030v168.834l98.892 93.431c5.522 5.522 12.66 8.445 19.891 8.765 8.126 0.364 16.372-2.559 22.579-8.765 6.066-6.066 8.994-14.081 8.783-22.030-0.195-7.417-3.123-14.778-8.783-20.438l-81.304-75.839v-143.958c0-16.585-13.444-30.030-30.030-30.030zM660.646 358.241c0-165.848-134.447-300.293-300.293-300.293-165.847 0-300.293 134.446-300.293 300.293 0 165.845 134.446 300.293 300.293 300.293 165.845 0 300.293-134.447 300.293-300.293zM600.586 358.241c0 132.678-107.556 240.235-240.235 240.235s-240.235-107.556-240.235-240.235c0-132.678 107.556-240.235 240.235-240.235s240.235 107.556 240.235 240.235z"></path>
</svg>
