<!-- Generated by IcoMoon.io -->
<svg version="1.1" xmlns="http://www.w3.org/2000/svg" width="720" height="720" viewBox="0 0 720 720">
<title>today</title>
<path fill="#7db00e" d="M480 90c-16.569 0-30 13.432-30 30v30h-180v-30c0-16.568-13.432-30-30-30s-30 13.432-30 30v30h-60c-33.137 0-60 26.863-60 60v360c0 33.138 26.863 60 60 60h420c33.138 0 60-26.862 60-60v-360c0-33.137-26.862-60-60-60h-60v-30c0-16.568-13.431-30-30-30zM570 210v60h-420v-60h420zM150 330h420v240h-420v-240zM495 450c-24.852 0-45-20.148-45-45s20.148-45 45-45c24.852 0 45 20.148 45 45s-20.148 45-45 45z"></path>
</svg>
