<!-- Generated by IcoMoon.io -->
<svg version="1.1" xmlns="http://www.w3.org/2000/svg" width="720" height="720" viewBox="0 0 720 720">
<title>trash</title>
<path fill="#7db00e" d="M270.264 328.211c0-16.585 13.445-30.030 30.030-30.030s30.030 13.444 30.030 30.030v180.176c0 16.585-13.444 30.030-30.030 30.030s-30.030-13.444-30.030-30.030v-180.176zM420.41 298.182c-16.585 0-30.030 13.444-30.030 30.030v180.176c0 16.585 13.444 30.030 30.030 30.030s30.030-13.444 30.030-30.030v-180.176c0-16.585-13.444-30.030-30.030-30.030zM240.235 118.006c0-16.585 13.445-30.030 30.030-30.030h180.176c16.585 0 30.030 13.445 30.030 30.030v60.058h90.088c16.585 0 30.030 13.445 30.030 30.030s-13.444 30.030-30.030 30.030h-30.030v360.352c0 33.171-26.888 60.058-60.058 60.058h-240.235c-33.169 0-60.058-26.888-60.058-60.058v-360.352h-30.030c-16.585 0-30.030-13.445-30.030-30.030s13.445-30.030 30.030-30.030h90.088v-60.058zM420.41 178.064v-30.030h-120.118v30.030h120.118zM240.235 238.123v360.352h240.235v-360.352h-240.235z"></path>
</svg>
