<!-- Generated by IcoMoon.io -->
<svg version="1.1" xmlns="http://www.w3.org/2000/svg" width="720" height="720" viewBox="0 0 720 720">
<title>twitter</title>
<path fill="#7db00e" d="M630.616 201.307c-19.85 9.099-41.26 15.165-63.632 17.868 22.913-14.084 40.419-36.396 48.768-62.911-21.441 13.003-45.165 22.522-70.389 27.597-20.27-22.102-49.068-35.855-80.959-35.855-61.23 0-110.839 50.9-110.839 113.691 0 8.888 0.96 17.537 2.853 25.886-92.13-4.775-173.839-50.029-228.523-118.886-9.489 16.786-14.985 36.396-14.985 57.175 0 39.428 19.519 74.293 49.278 94.622-18.167-0.541-35.255-5.735-50.239-14.174v1.411c0 55.104 38.197 101.138 88.977 111.529-9.279 2.613-19.099 3.994-29.249 3.994-7.177 0-14.023-0.751-20.9-2.072 14.144 45.165 55.104 78.076 103.541 79.038-37.987 30.54-85.704 48.738-137.744 48.738-8.978 0-17.748-0.541-26.486-1.621 49.188 32.372 107.445 51.11 170.056 51.11 203.929 0 315.488-173.36 315.488-323.657 0-4.985-0.090-9.85-0.3-14.714 21.651-15.915 40.419-35.945 55.314-58.797l-0.030 0.030z"></path>
</svg>
