<!-- Generated by IcoMoon.io -->
<svg version="1.1" xmlns="http://www.w3.org/2000/svg" width="720" height="720" viewBox="0 0 720 720">
<title>userSwitch</title>
<path fill="#7db00e" d="M240.235 178.064c-49.618 0-90.088 40.47-90.088 90.088s40.47 90.088 90.088 90.088c49.618 0 90.088-40.47 90.088-90.088s-40.193-90.088-90.088-90.088zM240.235 302.801c-19.126 0-34.649-15.522-34.649-34.648s15.524-34.649 34.649-34.649c19.126 0 34.649 15.524 34.649 34.649s-15.524 34.648-34.649 34.648zM390.381 268.152c0-49.618 40.47-90.088 90.088-90.088 49.894 0 90.088 40.47 90.088 90.088s-40.47 90.088-90.088 90.088c-49.617 0-90.088-40.47-90.088-90.088zM445.821 268.152c0 19.126 15.522 34.648 34.648 34.648s34.648-15.522 34.648-34.648c0-19.126-15.522-34.649-34.648-34.649s-34.648 15.524-34.648 34.649zM645.507 568.446h-195.067c0-21.059-3.613-41.272-10.252-60.058h144.477c-20.784-35.735-59.638-60.058-104.217-60.058-22.65 0-43.963 6.366-62.158 17.369-11.768-16.922-26.363-31.729-43.101-43.741 29.632-21.194 65.963-33.687 105.259-33.687 94.577 0 171.987 72.371 180.119 164.261 0.904 8.708-6.325 15.915-15.060 15.915zM60.093 552.53c8.132-91.89 85.542-164.261 180.12-164.261 94.577 0 171.986 72.371 180.122 164.261 0.901 8.708-6.327 15.915-15.063 15.915h-329.818c-8.735 0-15.964-7.207-15.361-15.915zM344.43 508.387c-20.784-35.735-59.638-60.058-104.216-60.058-44.276 0-83.434 24.324-104.217 60.058h208.433z"></path>
</svg>
