<!-- Generated by IcoMoon.io -->
<svg version="1.1" xmlns="http://www.w3.org/2000/svg" width="720" height="720" viewBox="0 0 720 720">
<title>user</title>
<path fill="#7db00e" d="M480.469 298.182c0-66.339-53.78-120.118-120.118-120.118-66.339 0-120.118 53.779-120.118 120.118 0 66.338 53.779 120.118 120.118 120.118 66.338 0 120.118-53.78 120.118-120.118zM420.41 298.182c0 33.171-26.888 60.058-60.058 60.058s-60.058-26.888-60.058-60.058c0-33.169 26.888-60.058 60.058-60.058s60.058 26.889 60.058 60.058zM660.646 358.241c0 165.845-134.447 300.293-300.293 300.293-165.847 0-300.293-134.447-300.293-300.293 0-165.848 134.446-300.293 300.293-300.293 165.845 0 300.293 134.446 300.293 300.293zM360.352 598.475c44.125 0 85.47-11.895 121.003-32.654-62.401-55.99-114.874-62.665-155.396-53.023-34.045 8.101-64.208 28.687-88.61 51.843 35.98 21.486 78.048 33.834 123.003 33.834zM312.055 454.373c66.245-15.765 140.618 1.676 217.583 74.32 43.816-43.519 70.947-103.817 70.947-170.453 0-132.678-107.556-240.235-240.235-240.235s-240.235 107.556-240.235 240.235c0 65.912 26.544 125.625 69.525 169.029 30.575-30.495 71.956-60.891 122.413-72.896z"></path>
</svg>
