<!-- Generated by IcoMoon.io -->
<svg version="1.1" xmlns="http://www.w3.org/2000/svg" width="720" height="720" viewBox="0 0 720 720">
<title>userUnassigned</title>
<path fill="#7db00e" d="M154.354 139.742c0.093-0.087 0.186-0.174 0.278-0.262l42.493 42.493c-0.093 0.086-0.186 0.172-0.278 0.259l58.173 58.17c0.063-0.115 0.126-0.229 0.19-0.344l46.254 46.256c-0.027 0.148-0.057 0.295-0.087 0.444l70.404 70.398c0.147-0.027 0.294-0.057 0.439-0.084l46.257 46.254c-0.111 0.063-0.225 0.126-0.336 0.186l118.231 118.226c0.084-0.090 0.165-0.18 0.249-0.267l42.491 42.491c-0.084 0.087-0.165 0.177-0.249 0.264l13.020 13.018c5.264 5.264 8.165 11.997 8.703 18.88 0.661 8.45-2.24 17.126-8.703 23.588-5.889 5.889-13.612 8.819-21.327 8.795-7.655-0.024-15.303-2.955-21.144-8.795l-16.017-16.017c-48.911 34.549-108.608 54.842-173.044 54.842-165.847 0-300.293-134.447-300.293-300.293 0-64.429 20.29-124.118 54.83-173.028l-16.020-16.019c-5.626-5.626-8.554-12.93-8.781-20.301-0.247-7.993 2.68-16.066 8.781-22.167 5.318-5.318 12.136-8.224 19.093-8.719 8.383-0.596 16.967 2.31 23.375 8.719l13.018 13.017zM158.149 228.469c-24.069 37.425-38.031 81.968-38.031 129.772 0 65.912 26.544 125.625 69.525 169.029 30.575-30.495 71.956-60.891 122.413-72.896 21.864-5.204 44.612-6.789 68.044-3.967l-32.811-32.811c-55.901-6.045-100.302-50.443-106.352-106.343l-82.789-82.785zM360.352 598.475c44.125 0 85.47-11.895 121.003-32.654-62.401-55.99-114.874-62.665-155.396-53.023-34.045 8.101-64.208 28.687-88.61 51.843 35.98 21.486 78.048 33.834 123.003 33.834zM298.493 195.197l45.253 45.252c5.273-1.515 10.844-2.326 16.606-2.326 33.171 0 60.058 26.889 60.058 60.058 0 5.763-0.811 11.333-2.324 16.606l45.251 45.255c10.877-18.069 17.132-39.233 17.132-61.86 0-66.339-53.78-120.118-120.118-120.118-22.627 0-43.792 6.256-61.86 17.132zM600.586 358.241c0 40.288-9.916 78.26-27.444 111.607l44.059 44.056c27.567-45.392 43.443-98.673 43.443-155.663 0-165.848-134.447-300.293-300.293-300.293-56.99 0-110.271 15.875-155.664 43.445l44.057 44.057c33.347-17.526 71.319-27.444 111.607-27.444 132.678 0 240.235 107.556 240.235 240.235z"></path>
</svg>
