<!-- Generated by IcoMoon.io -->
<svg version="1.1" xmlns="http://www.w3.org/2000/svg" width="720" height="720" viewBox="0 0 720 720">
<title>vcard</title>
<path fill="black" d="M420.41 268.152c-16.585 0-30.030 13.444-30.030 30.030s13.444 30.030 30.030 30.030h120.118c16.585 0 30.030-13.444 30.030-30.030s-13.444-30.030-30.030-30.030h-120.118zM390.381 478.358c0-16.585 13.444-30.030 30.030-30.030h120.118c16.585 0 30.030 13.444 30.030 30.030s-13.444 30.030-30.030 30.030h-120.118c-16.585 0-30.030-13.444-30.030-30.030zM420.41 358.241c-16.585 0-30.030 13.444-30.030 30.030s13.444 30.030 30.030 30.030h120.118c16.585 0 30.030-13.444 30.030-30.030s-13.444-30.030-30.030-30.030h-120.118zM240.225 418.299c-47.289 0-85.994 36.185-90.060 82.13-0.301 4.354 3.314 7.958 7.681 7.958h164.91c4.366 0 7.982-3.604 7.528-7.958-4.066-45.945-42.77-82.13-90.059-82.13zM240.235 388.27c33.169 0 60.058-26.888 60.058-60.058s-26.889-60.058-60.058-60.058-60.058 26.889-60.058 60.058c0 33.171 26.889 60.058 60.058 60.058zM60.058 238.123v300.293c0 33.171 26.889 60.058 60.058 60.058h480.469c33.171 0 60.058-26.888 60.058-60.058v-300.293c0-33.169-26.888-60.058-60.058-60.058h-480.469c-33.169 0-60.058 26.889-60.058 60.058zM120.118 238.123h480.469v300.293h-480.469v-300.293z"></path>
</svg>
