<!-- Generated by IcoMoon.io -->
<svg version="1.1" xmlns="http://www.w3.org/2000/svg" width="720" height="720" viewBox="0 0 720 720">
<title>video</title>
<path fill="#7db00e" d="M270.264 268.153c0-23.342 25.464-37.759 45.48-25.75l150.147 90.087c19.438 11.663 19.438 39.837 0 51.5l-150.147 90.088c-20.016 12.009-45.48-2.408-45.48-25.751v-180.175zM660.646 358.241c0-165.848-134.447-300.293-300.293-300.293-165.847 0-300.293 134.446-300.293 300.293 0 165.845 134.446 300.293 300.293 300.293 165.845 0 300.293-134.447 300.293-300.293zM600.586 358.241c0 132.678-107.556 240.235-240.235 240.235s-240.235-107.556-240.235-240.235c0-132.678 107.556-240.235 240.235-240.235s240.235 107.556 240.235 240.235z"></path>
</svg>
