<!-- Generated by IcoMoon.io -->
<svg version="1.1" xmlns="http://www.w3.org/2000/svg" width="720" height="720" viewBox="0 0 720 720">
<title>work</title>
<path fill="#7db00e" d="M270.264 87.976h180.176c33.171 0 60.058 26.889 60.058 60.058v60.058h90.088c33.171 0 60.058 26.889 60.058 60.058v330.322c0 33.171-26.888 60.058-60.058 60.058h-480.469c-33.169 0-60.058-26.888-60.058-60.058v-330.322c0-33.169 26.889-60.058 60.058-60.058h90.088v-60.058c0-33.169 26.889-60.058 60.058-60.058zM450.44 208.094v-60.058h-180.176v60.058h180.176zM600.586 268.152h-480.469v120.118h150.147c0-33.171 26.889-60.058 60.058-60.058h60.058c33.171 0 60.058 26.888 60.058 60.058h150.147v-120.118zM600.586 448.329h-150.147v30.030c0 33.171-26.888 60.058-60.058 60.058h-60.058c-33.169 0-60.058-26.888-60.058-60.058v-30.030h-150.147v150.147h480.469v-150.147zM330.322 388.27v90.088h60.058v-90.088h-60.058z"></path>
</svg>
