<!-- Generated by IcoMoon.io -->
<svg version="1.1" xmlns="http://www.w3.org/2000/svg" width="720" height="720" viewBox="0 0 720 720">
<title>youtube</title>
<path fill="#7db00e" d="M595.34 160.898c-46.999-12.862-234.988-12.862-234.988-12.862s-187.993 0-234.991 12.368c-25.23 6.926-46.008 27.704-52.935 53.429-12.368 46.998-12.368 144.456-12.368 144.456s0 97.952 12.368 144.456c6.926 25.727 27.21 46.011 52.935 52.936 47.493 12.862 234.991 12.862 234.991 12.862s187.99 0 234.988-12.366c25.727-6.928 46.008-27.21 52.936-52.936 12.366-46.999 12.366-144.456 12.366-144.456s0.496-97.954-12.366-144.951c-6.928-25.725-27.21-46.008-52.936-52.935zM300.491 268.251l156.329 90.038-156.329 90.037v-180.075z"></path>
</svg>
