<!-- Generated by IcoMoon.io -->
<svg version="1.1" xmlns="http://www.w3.org/2000/svg" width="720" height="720" viewBox="0 0 720 720">
<title>alert</title>
<path fill="black" d="M360.352 208.094c-16.585 0-30.030 13.445-30.030 30.030v150.147c0 16.585 13.444 30.030 30.030 30.030s30.030-13.444 30.030-30.030v-150.147c0-16.585-13.444-30.030-30.030-30.030zM330.322 508.387c0-16.585 13.444-30.030 30.030-30.030s30.030 13.444 30.030 30.030c0 16.585-13.444 30.030-30.030 30.030s-30.030-13.444-30.030-30.030zM660.646 358.241c0-165.848-134.447-300.293-300.293-300.293-165.847 0-300.293 134.446-300.293 300.293 0 165.845 134.446 300.293 300.293 300.293 165.845 0 300.293-134.447 300.293-300.293zM600.586 358.241c0 132.678-107.556 240.235-240.235 240.235s-240.235-107.556-240.235-240.235c0-132.678 107.556-240.235 240.235-240.235s240.235 107.556 240.235 240.235z"></path>
</svg>
