<!-- Generated by IcoMoon.io -->
<svg version="1.1" xmlns="http://www.w3.org/2000/svg" width="720" height="720" viewBox="0 0 720 720">
<title>apple</title>
<path fill="black" d="M555.415 375.571c-0.808-89.865 73.582-133.585 76.984-135.619-42.129-61.424-107.43-69.817-130.378-70.487-54.845-5.772-108.044 32.817-135.982 32.817-28.495 0-71.518-32.261-117.887-31.31-59.669 0.919-115.488 35.466-146.104 89.112-63.181 109.382-16.059 270.124 44.473 358.54 30.281 43.301 65.663 91.65 111.976 89.949 45.31-1.87 62.232-28.886 116.911-28.886 54.175 0 70.069 28.886 117.301 27.798 48.626-0.78 79.242-43.495 108.462-87.189 34.992-49.632 49.046-98.509 49.603-101.017-1.145-0.392-94.438-35.997-95.357-143.705zM466.192 111.301c24.37-30.474 41.044-71.937 36.413-114.011-35.272 1.561-79.381 24.398-104.782 54.203-22.473 26.263-42.549 69.315-37.363 109.801 39.622 2.955 80.301-19.993 105.73-49.992z"></path>
</svg>
