<!-- Generated by IcoMoon.io -->
<svg version="1.1" xmlns="http://www.w3.org/2000/svg" width="720" height="720" viewBox="0 0 720 720">
<title>availability</title>
<path fill="black" d="M90.088 118.006c-16.585 0-30.030 13.445-30.030 30.030s13.445 30.030 30.030 30.030h540.528c16.585 0 30.030-13.445 30.030-30.030s-13.444-30.030-30.030-30.030h-540.528zM90.088 538.417c-16.585 0-30.030 13.444-30.030 30.030s13.445 30.030 30.030 30.030h540.528c16.585 0 30.030-13.444 30.030-30.030s-13.444-30.030-30.030-30.030h-540.528zM120.118 238.123h150.147c33.171 0 60.058 26.889 60.058 60.058v120.118c0 33.171-26.888 60.058-60.058 60.058h-150.147c-33.169 0-60.058-26.888-60.058-60.058v-120.118c0-33.169 26.889-60.058 60.058-60.058zM270.264 298.182h-150.147v120.118h150.147v-120.118zM390.381 298.182v30.030c0 33.171 26.888 60.058 60.058 60.058h150.147c33.171 0 60.058-26.888 60.058-60.058v-30.030c0-33.169-26.888-60.058-60.058-60.058h-150.147c-33.171 0-60.058 26.889-60.058 60.058zM450.44 298.182h150.147v30.030h-150.147v-30.030z"></path>
</svg>
