<!-- Generated by IcoMoon.io -->
<svg version="1.1" xmlns="http://www.w3.org/2000/svg" width="720" height="720" viewBox="0 0 720 720">
<title>badInvoice</title>
<path fill="black" d="M180.176 118.006c0-33.169 26.889-60.058 60.058-60.058h257.825c15.927 0 31.203 6.327 42.467 17.591l102.526 102.526c11.264 11.263 17.591 26.539 17.591 42.468v377.943c0 33.171-26.888 60.058-60.058 60.058h-360.352c-33.169 0-60.058-26.888-60.058-60.058v-90.088h60.058v90.088h360.352v-377.943l-102.526-102.526h-257.825v90.088h-60.058v-90.088zM419.726 268.152c0.78 0 19.489 1.202 39.518 21.23 5.664 5.47 13.249 8.497 21.123 8.428s15.405-3.226 20.972-8.794c5.567-5.568 8.726-13.099 8.795-20.973s-2.958-15.459-8.43-21.123c-14.36-14.707-31.894-25.935-51.26-32.823v-6.005c0-7.964-3.165-15.602-8.795-21.234s-13.269-8.795-21.234-8.795c-7.964 0-15.604 3.163-21.234 8.795s-8.795 13.269-8.795 21.234v5.526c-17.513 6.173-32.69 17.615-43.44 32.755-10.754 15.14-16.558 33.237-16.618 51.807 0 68.467 51.86 81.47 82.821 89.187 33.483 8.409 37.297 11.531 37.297 30.93 0 16.576-13.454 30.030-29.309 30.030-0.78 0-19.519-1.202-39.549-21.23-5.633-5.631-13.276-8.793-21.243-8.79-7.964 0.003-15.604 3.171-21.234 8.805s-8.793 13.276-8.79 21.243c0.003 7.964 3.171 15.604 8.805 21.234 14.378 14.663 31.909 25.855 51.26 32.732v6.005c0 7.964 3.165 15.604 8.795 21.234s13.269 8.795 21.234 8.795c7.964 0 15.604-3.165 21.234-8.795s8.795-13.269 8.795-21.234v-5.526c17.507-6.165 32.678-17.597 43.431-32.726 10.751-15.128 16.561-33.216 16.628-51.777 0-68.467-51.831-81.439-82.791-89.187-33.483-8.348-37.327-11.531-37.327-30.93 0-16.516 13.483-30.030 29.339-30.030zM141.486 358.241l-43.384-43.384c-10.684-10.685-10.684-28.008 0-38.692s28.007-10.684 38.691 0l43.384 43.385 43.384-43.385c10.684-10.684 28.006-10.684 38.691 0s10.684 28.007 0 38.692l-43.384 43.384 43.384 43.384c10.684 10.685 10.684 28.008 0 38.693-10.684 10.682-28.007 10.682-38.691 0l-43.384-43.386-43.384 43.386c-10.684 10.682-28.006 10.682-38.691 0-10.684-10.685-10.684-28.008 0-38.693l43.384-43.384z"></path>
</svg>
