<!-- Generated by IcoMoon.io -->
<svg version="1.1" xmlns="http://www.w3.org/2000/svg" width="720" height="720" viewBox="0 0 720 720">
<title>camera</title>
<path fill="black" d="M258.794 118.006c-22.749 0-43.545 12.852-53.719 33.199l-13.43 26.859h-71.529c-33.169 0-60.058 26.889-60.058 60.058v300.293c0 33.171 26.889 60.058 60.058 60.058h480.469c33.171 0 60.058-26.888 60.058-60.058v-300.293c0-33.169-26.888-60.058-60.058-60.058h-71.53l-13.43-26.859c-10.174-20.347-30.969-33.199-53.717-33.199h-203.117zM228.765 238.123l30.030-60.058h203.117l30.030 60.058h108.646v300.293h-480.469v-300.293h108.647zM480.469 388.27c0-66.338-53.78-120.118-120.118-120.118-66.339 0-120.118 53.78-120.118 120.118s53.779 120.118 120.118 120.118c66.338 0 120.118-53.78 120.118-120.118zM420.41 388.27c0 33.171-26.888 60.058-60.058 60.058s-60.058-26.888-60.058-60.058c0-33.171 26.888-60.058 60.058-60.058s60.058 26.888 60.058 60.058z"></path>
</svg>
