<svg fill="none" xmlns="http://www.w3.org/2000/svg" viewBox="0 0 24 24">
  <path d="M3 15V7.883a1 1 0 0 1 .876-.992l6.824-.853a1 1 0 0 1 .57.097l9.177 4.589a1 1 0 0 1 .553.894V15a2 2 0 0 1-2 2H5a2 2 0 0 1-2-2Zm-1-1h18" stroke="#000" stroke-width="2"/>
  <circle cx="6" cy="10" r="1" fill="#000"/>
  <path d="M12.072 9.129a1 1 0 0 0 1.857.742l-1.857-.742Zm1.857.742 1-2.5-1.857-.742-1 2.5 1.857.742Zm.643.258a1 1 0 0 0 1.857.742l-1.857-.742Zm1.857.742 1-2.5-1.857-.742-1 2.5 1.857.742Z" fill="#000"/>
</svg>
