<!-- Generated by IcoMoon.io -->
<svg version="1.1" xmlns="http://www.w3.org/2000/svg" width="720" height="720" viewBox="0 0 720 720">
<title>checkbox</title>
<path fill="black" d="M261.835 334.56c-2.77-2.868-6.083-5.156-9.747-6.73s-7.604-2.402-11.592-2.438c-3.987-0.033-7.942 0.727-11.632 2.234-3.691 1.51-7.043 3.741-9.863 6.562s-5.049 6.171-6.559 9.862c-1.51 3.691-2.27 7.646-2.235 11.633 0.034 3.985 0.863 7.928 2.436 11.591s3.862 6.976 6.73 9.748l80.469 92.665c5.631 5.628 13.267 8.793 21.232 8.793 7.961 0 15.597-3.165 21.23-8.793l158.36-149.903c2.871-2.772 5.156-6.083 6.73-9.748 1.576-3.663 2.402-7.604 2.438-11.591 0.033-3.988-0.727-7.942-2.234-11.632-1.51-3.691-3.741-7.043-6.562-9.863s-6.171-5.049-9.862-6.559c-3.691-1.51-7.646-2.27-11.633-2.235-3.985 0.034-7.928 0.863-11.591 2.436s-6.976 3.862-9.748 6.73l-137.128 128.673-59.239-71.433zM150.147 87.976h420.41c33.171 0 60.058 26.889 60.058 60.058v420.41c0 33.171-26.888 60.058-60.058 60.058h-420.41c-33.169 0-60.058-26.888-60.058-60.058v-420.41c0-33.169 26.889-60.058 60.058-60.058zM570.557 148.035h-420.41v420.41h420.41v-420.41z"></path>
</svg>
