<!-- Generated by IcoMoon.io -->
<svg version="1.1" xmlns="http://www.w3.org/2000/svg" width="720" height="720" viewBox="0 0 720 720">
<title>clearFilters</title>
<path fill="black" d="M141.286 126.75l166.8 181.927 67.281 67.281v-0.231l60.058 60.058v0.231l156.378 141.267c4.802 4.802 7.637 10.822 8.507 17.066 0.234 1.676 0.327 3.367 0.276 5.057-0.216 7.387-3.144 14.708-8.783 20.348-6.081 6.081-14.123 9.009-22.093 8.781-1.108-0.030-2.213-0.123-3.312-0.276-6.24-0.87-12.261-3.705-17.063-8.504l-113.91-98.802v17.465c0 9.453-4.45 18.351-12.012 24.023l-120.118 90.088c-19.796 14.846-48.047 0.721-48.047-24.023v-287.729l-156.431-171.557c-6.368-6.368-9.278-14.886-8.73-23.218 0.461-7.012 3.371-13.891 8.73-19.25 5.418-5.418 12.388-8.332 19.479-8.744 8.259-0.481 16.679 2.434 22.989 8.744zM315.308 400.834v167.612l60.058-45.044v-62.509l-60.058-60.058zM238.733 148.035l-58.556-58.556v-1.503h420.41c25.657 0 39.497 30.093 22.802 49.572l-172.948 201.77v20.423l-52.019-52.019 136.877-159.687h-296.565z"></path>
</svg>
