<!-- Generated by IcoMoon.io -->
<svg version="1.1" xmlns="http://www.w3.org/2000/svg" width="720" height="720" viewBox="0 0 720 720">
<title>clients</title>
<path fill="black" d="M390.372 418.299c-47.29 0-85.995 36.185-90.061 82.13-0.302 4.354 3.312 7.958 7.682 7.958h164.909c4.366 0 7.982-3.604 7.528-7.958-4.066-45.945-42.77-82.13-90.058-82.13zM390.381 388.27c33.171 0 60.058-26.888 60.058-60.058s-26.888-60.058-60.058-60.058-60.058 26.889-60.058 60.058c0 33.171 26.888 60.058 60.058 60.058zM120.118 148.035v30.030h-30.030c-16.585 0-30.030 13.445-30.030 30.030s13.445 30.030 30.030 30.030h30.030v90.088h-30.030c-16.585 0-30.030 13.444-30.030 30.030s13.445 30.030 30.030 30.030h30.030v90.088h-30.030c-16.585 0-30.030 13.444-30.030 30.030s13.445 30.030 30.030 30.030h30.030v60.058c0 33.171 26.889 60.058 60.058 60.058h420.41c33.171 0 60.058-26.888 60.058-60.058v-450.44c0-33.169-26.888-60.058-60.058-60.058h-420.41c-33.169 0-60.058 26.889-60.058 60.058zM180.176 148.035h420.41v450.44h-420.41v-450.44z"></path>
</svg>
