<svg fill="none" xmlns="http://www.w3.org/2000/svg" viewBox="0 0 24 24">
  <path d="M13.207 4.017v1.939l1.248.51c.51.209.99.489 1.439.828l1.059.83 1.169-.67.51-.3.998 1.729-.51.3-1.168.669.18 1.329c.05.33.07.589.07.829s-.02.5-.07.829l-.18 1.329 1.169.669.51.3-1 1.728-.51-.3-1.168-.67-1.059.83c-.44.35-.93.63-1.439.83l-1.248.509v1.938l-2.433-.02v-1.938l-1.249-.51a6.44 6.44 0 0 1-1.438-.828l-1.06-.82-1.168.67-.51.3-.999-1.729.51-.3 1.169-.669-.18-1.329c-.05-.34-.07-.599-.07-.839s.02-.5.07-.829l.18-1.329-1.16-.679-.509-.3 1-1.728.509.3 1.159.67 1.059-.83c.45-.34.929-.62 1.438-.83l1.25-.509V3.998l2.432.02Zm-1.212 11.97c2.208 0 4.209-1.77 4.209-3.977 0-2.208-2.001-4.016-4.21-4.016-2.207 0-4.217 1.788-4.217 3.996s2.02 3.996 4.218 3.996Zm2.21-13.968L9.786 2c-.55 0-.999.45-.999.999v1.578c-.7.29-1.339.66-1.918 1.12l-1.379-.8a1.01 1.01 0 0 0-1.368.37l-2 3.456a1.011 1.011 0 0 0 .37 1.37l1.379.798c-.05.36-.09.72-.09 1.1 0 .379.03.739.09 1.108l-1.379.8a1.005 1.005 0 0 0-.492.74.984.984 0 0 0 .122.618l1.999 3.467c.18.32.519.5.859.5.17 0 .34-.04.5-.13l1.378-.8c.58.45 1.219.83 1.918 1.11v1.578c0 .55.45.999 1 .999l4.42.019c.55 0 .999-.45.999-.999v-1.579a8.18 8.18 0 0 0 1.918-1.108l1.378.799c.16.09.33.13.5.13.35 0 .68-.18.87-.5l1.997-3.456a.985.985 0 0 0 .095-.78 1.022 1.022 0 0 0-.464-.59l-1.38-.798c.05-.36.09-.73.09-1.11 0-.379-.03-.739-.09-1.108l1.38-.8c.282-.164.453-.443.492-.74a.984.984 0 0 0-.123-.618L19.86 5.276a.99.99 0 0 0-.859-.5c-.17 0-.34.04-.5.13l-1.378.8a7.942 7.942 0 0 0-1.918-1.11V3.019c0-.55-.45-.999-1-.999Zm-2.21 11.97c-1.1 0-2.22-.9-2.22-1.999 0-1.099 1.12-1.998 2.22-1.998 1.099 0 2.21.919 2.21 2.018 0 1.099-1.101 1.978-2.21 1.978Z" fill="#657884"/>
</svg>
