<svg fill="none" xmlns="http://www.w3.org/2000/svg" viewBox="0 0 24 24">
  <path d="M6 4a2 2 0 0 0-2 2v2h2V6h12v2h2V6a2 2 0 0 0-2-2H6ZM4 18v-2h2v2h12v-2h2v2a2 2 0 0 1-2 2H6a2 2 0 0 1-2-2Z" fill="#657884"/>
  <path d="M10.184 15.579a.996.996 0 0 0 1.235.33.997.997 0 0 0 .53-.592l2-6.001a1 1 0 1 0-1.897-.632l-2 6a.998.998 0 0 0 .132.895ZM7.446 9.168a.995.995 0 0 1 .887-.111.996.996 0 0 1 .667.98.999.999 0 0 1-.445.795L6.803 12l1.752 1.168a.999.999 0 0 1-.325 1.806.997.997 0 0 1-.784-.141l-3-2.001a1 1 0 0 1 0-1.664l3-2ZM16 15c.191 0 .384-.054.555-.167l3-2a1 1 0 0 0 0-1.664l-3-2.001a.997.997 0 0 0-1.387.277.999.999 0 0 0 .277 1.387l1.753 1.169-1.753 1.168A.999.999 0 0 0 16.001 15Z" fill="#657884"/>
</svg>
