<svg fill="none" xmlns="http://www.w3.org/2000/svg" viewBox="0 0 24 24">
  <path d="M7.007 5.935a1.001 1.001 0 0 0 0 2.002h3.003v1.001H7.007a2.002 2.002 0 0 0-2.002 2.002v1.001H4.004V9.94a1.001 1.001 0 0 0-2.002 0v6.006a1.001 1.001 0 0 0 2.002 0v-2.002h1v1.001c0 1.106.897 2.002 2.003 2.002h1v1.001c0 .553.449 1.001 1.002 1.001h10.01v-3.003h1v3.003h1.002a1 1 0 0 0 1-1V11.94a1 1 0 0 0-1-1H20.02v3.002h-1.001V10.94a2.002 2.002 0 0 0-2.002-2.002h-5.005v-1h3.003a1.001 1.001 0 1 0 0-2.003H7.007Zm0 9.01V10.94h10.01v6.006H10.01v-2.002H7.007Z" fill="#000"/>
</svg>
