<svg fill="none" xmlns="http://www.w3.org/2000/svg" viewBox="0 0 24 24">
  <path d="M13.293 8.707C12.626 8.04 12.003 8 11.977 8 11.45 8 11 8.45 11 9c0 .646.128.752 1.243 1.03C13.274 10.288 15 10.72 15 13a2.995 2.995 0 0 1-2 2.814v.184a1 1 0 0 1-2 0v-.2a4.502 4.502 0 0 1-1.707-1.09 1 1 0 1 1 1.414-1.415c.667.667 1.291.707 1.317.707.528 0 .976-.448.976-1 0-.646-.127-.75-1.242-1.03C10.728 11.713 9 11.28 9 9a2.996 2.996 0 0 1 2-2.816V6a1 1 0 0 1 2 0v.2a4.49 4.49 0 0 1 1.707 1.093 1 1 0 0 1-1.414 1.414Z" fill="#F39624"/>
  <path d="M4 4a2 2 0 0 1 2-2h12a2 2 0 0 1 2 2v17a1 1 0 0 1-1.555.832l-2.318-1.545-1.42 1.42a1 1 0 0 1-1.414 0L12 20.414l-1.293 1.293a1 1 0 0 1-1.414 0l-1.42-1.42-2.318 1.545A1 1 0 0 1 4 21V4Zm2 0v15.131l1.445-.963a1 1 0 0 1 1.262.125L10 19.586l1.293-1.293a1 1 0 0 1 1.414 0L14 19.586l1.293-1.293a1 1 0 0 1 1.262-.125L18 19.13V4H6Z" fill="#F39624"/>
</svg>
