<!-- Generated by IcoMoon.io -->
<svg version="1.1" xmlns="http://www.w3.org/2000/svg" width="720" height="720" viewBox="0 0 720 720">
<title>expense</title>
<path fill="black" d="M399.186 259.354c-20.030-20.030-38.738-21.23-39.518-21.23-15.855 0-29.339 13.513-29.339 30.030 0 19.399 3.843 22.582 37.327 30.93 30.96 7.748 82.791 20.72 82.791 89.187-0.066 18.561-5.877 36.648-16.628 51.777-10.754 15.128-25.924 26.561-43.431 32.726v5.526c0 7.964-3.165 15.604-8.795 21.234s-13.269 8.795-21.234 8.795c-7.964 0-15.604-3.165-21.234-8.795s-8.795-13.269-8.795-21.234v-6.005c-19.351-6.877-36.881-18.069-51.26-32.732-5.635-5.631-8.802-13.269-8.805-21.234-0.003-7.966 3.159-15.609 8.79-21.243s13.269-8.802 21.235-8.805c7.965-0.003 15.608 3.159 21.241 8.79 20.030 20.030 38.768 21.23 39.549 21.23 15.855 0 29.309-13.454 29.309-30.030 0-19.399-3.814-22.522-37.297-30.93-30.96-7.718-82.821-20.72-82.821-89.187 0.059-18.57 5.864-36.667 16.617-51.807s25.928-26.582 43.441-32.755v-5.526c0-7.964 3.165-15.602 8.795-21.234s13.269-8.795 21.234-8.795c7.964 0 15.604 3.163 21.234 8.795s8.795 13.269 8.795 21.234v6.005c19.366 6.888 36.9 18.115 51.26 32.823 5.472 5.664 8.499 13.249 8.43 21.123s-3.228 15.405-8.795 20.973c-5.567 5.568-13.099 8.726-20.972 8.794s-15.459-2.958-21.123-8.428zM120.118 118.006c0-33.169 26.889-60.058 60.058-60.058h360.352c33.171 0 60.058 26.889 60.058 60.058v510.498c0 23.984-26.729 38.29-46.687 24.988l-69.605-46.404-42.65 42.65c-11.726 11.726-30.741 11.726-42.467 0l-38.825-38.825-38.825 38.825c-11.726 11.726-30.741 11.726-42.468 0l-42.651-42.65-69.604 46.404c-19.956 13.302-46.687-1.003-46.687-24.988v-510.498zM180.176 118.006v454.389l43.401-28.936c11.91-7.94 27.77-6.37 37.891 3.753l38.824 38.825 38.825-38.825c11.726-11.726 30.741-11.726 42.467 0l38.825 38.825 38.825-38.825c10.123-10.123 25.981-11.693 37.891-3.753l43.401 28.936v-454.389h-360.352z"></path>
</svg>
