<!-- Generated by IcoMoon.io -->
<svg version="1.1" xmlns="http://www.w3.org/2000/svg" width="720" height="720" viewBox="0 0 720 720">
<title>export</title>
<path fill="black" d="M390.381 148.035c0-16.585 13.444-30.030 30.030-30.030h150.147c16.585 0 30.030 13.445 30.030 30.030v150.147c0 16.585-13.444 30.030-30.030 30.030s-30.030-13.444-30.030-30.030v-77.65l-279.063 279.11c-5.414 5.415-12.38 8.331-19.465 8.745-8.263 0.484-16.689-2.429-23.003-8.745-5.977-5.976-8.908-13.847-8.792-21.681 0.111-7.534 3.042-15.036 8.792-20.786l279.063-279.111h-77.65c-16.585 0-30.030-13.445-30.030-30.030zM90.088 148.035c0-33.169 26.889-60.058 60.058-60.058h180.176v60.058h-180.176v420.41h420.41v-180.176h60.058v180.176c0 33.171-26.888 60.058-60.058 60.058h-420.41c-33.169 0-60.058-26.888-60.058-60.058v-420.41z"></path>
</svg>
