<!-- Generated by IcoMoon.io -->
<svg version="1.1" xmlns="http://www.w3.org/2000/svg" width="720" height="720" viewBox="0 0 720 720">
<title>eye</title>
<path fill="black" d="M480.469 358.241c0-66.339-53.78-120.118-120.118-120.118-66.339 0-120.118 53.779-120.118 120.118 0 66.338 53.779 120.118 120.118 120.118 66.338 0 120.118-53.78 120.118-120.118zM420.41 358.241c0 33.171-26.888 60.058-60.058 60.058s-60.058-26.888-60.058-60.058c0-33.171 26.888-60.058 60.058-60.058s60.058 26.888 60.058 60.058zM656.519 372.567c2.751-4.435 4.126-9.381 4.126-14.327s-1.375-9.892-4.126-14.327c-32.074-51.744-154.954-225.908-296.167-225.908-141.211 0-264.094 174.165-296.167 225.908-2.751 4.435-4.126 9.381-4.126 14.327s1.375 9.892 4.126 14.327c32.074 51.744 154.955 225.908 296.167 225.908 141.213 0 264.093-174.164 296.167-225.908zM600.586 358.241c0 0-107.556 180.176-240.235 180.176-132.678 0-240.235-180.176-240.235-180.176s107.556-180.176 240.235-180.176c132.678 0 240.235 180.176 240.235 180.176z"></path>
</svg>
