<!-- Generated by IcoMoon.io -->
<svg version="1.1" xmlns="http://www.w3.org/2000/svg" width="720" height="720" viewBox="0 0 720 720">
<title>eyeCrossed</title>
<path fill="black" d="M201.054 186.626l331.76 331.765 59.491 58.854c4.447 4.447 7.207 9.943 8.282 15.69 1.759 9.411-1.003 19.498-8.282 26.78-5.993 5.993-13.892 8.921-21.747 8.79-1.723-0.030-3.447-0.207-5.147-0.532-5.706-1.091-11.156-3.843-15.574-8.258l-64.59-63.956c-38.032 25.372-80.329 42.716-124.895 42.716-141.211 0-264.094-174.164-296.167-225.908-2.751-4.435-4.126-9.381-4.126-14.327s1.375-9.892 4.126-14.327c14.304-23.077 50.225-70.503 93.246-115.97l-58.657-58.795c-5.207-5.207-8.103-11.853-8.685-18.658-0.729-8.52 2.166-17.291 8.685-23.81 5.891-5.891 13.622-8.823 21.344-8.795 0.865 0.003 1.73 0.044 2.592 0.121 6.761 0.608 13.356 3.499 18.532 8.674l59.812 59.945zM360.352 538.417c29.726 0 58.194-9.045 84.469-23.081l-43.972-43.975c-12.655 4.528-26.288 6.997-40.497 6.997-66.339 0-120.118-53.776-120.118-120.118 0-14.21 2.467-27.844 6.998-40.494l-53.217-53.218c-45.546 46.218-73.898 93.712-73.898 93.712s107.556 180.176 240.235 180.176zM301.999 372.51c5.291 21.708 22.375 38.792 44.083 44.083l-44.083-44.083zM339.301 239.961l139.331 139.33c1.207-6.834 1.838-13.871 1.838-21.050 0-66.338-53.78-120.117-120.118-120.117-7.18 0-14.216 0.631-21.050 1.839zM538.684 439.343c38.476-41.858 61.902-81.103 61.902-81.103s-107.556-180.176-240.235-180.176c-23.579 0-46.365 5.691-67.896 15.050l-41.894-41.894c34.006-20.1 71.041-33.214 109.79-33.214 141.213 0 264.093 174.164 296.167 225.908 2.751 4.435 4.126 9.381 4.126 14.327s-1.375 9.892-4.126 14.327c-12.964 20.915-44.473 61.827-81.454 103.153l-36.381-36.378z"></path>
</svg>
