<svg fill="none" xmlns="http://www.w3.org/2000/svg" viewBox="0 0 24 24">
  <path d="M6.695 6.285 4.703 4.29A.996.996 0 0 0 4 3.996a.997.997 0 0 0-1 1.086c.02.226.116.448.29.621l1.953 1.958c-1.433 1.514-2.63 3.093-3.106 3.862a.903.903 0 0 0 0 .954C3.205 14.2 7.297 20 12 20c1.484 0 2.893-.578 4.16-1.422l2.15 2.13A.996.996 0 0 0 19 21a.997.997 0 0 0 1-1.184.996.996 0 0 0-.276-.523l-1.98-1.96L6.694 6.285ZM12 18c-4.418 0-8-6-8-6s.944-1.582 2.46-3.12l1.773 1.771a4 4 0 0 0 5.116 5.115l1.464 1.465C13.938 17.7 12.99 18 12 18Zm-1.943-5.525a2.003 2.003 0 0 0 1.468 1.468l-1.468-1.468Zm1.242-4.414 4.64 4.64a4 4 0 0 0-4.64-4.64Z" fill="#657884"/>
  <path d="M17.939 14.7A18.455 18.455 0 0 0 20 12s-3.582-6-8-6c-.785 0-1.544.19-2.261.501L8.344 5.106C9.476 4.436 10.71 4 12 4c4.703 0 8.794 5.8 9.863 7.523a.903.903 0 0 1 0 .954c-.432.697-1.481 2.059-2.713 3.435l-1.211-1.211Z" fill="#657884"/>
</svg>
