<!-- Generated by IcoMoon.io -->
<svg version="1.1" xmlns="http://www.w3.org/2000/svg" width="720" height="720" viewBox="0 0 720 720">
<title>fuel</title>
<path fill="black" d="M120.118 178.064c0-33.169 26.889-60.058 60.058-60.058h240.235c33.171 0 60.058 26.889 60.058 60.058v420.41h30.030c16.585 0 30.030 13.444 30.030 30.030v30.030h-480.469v-30.030c0-16.585 13.445-30.030 30.030-30.030h30.030v-420.41zM420.41 178.064h-240.235v420.41h240.235v-420.41zM210.206 208.094h180.176v150.147h-180.176v-150.147zM585.572 268.152h15.015c33.171 0 60.058 26.889 60.058 60.058v150.147c0 33.171-26.888 60.058-60.058 60.058h-150.147v-60.058h150.147v-150.147h-60.058v-30.030h-15.015c-8.291 0-15.015-6.722-15.015-15.015s6.723-15.015 15.015-15.015h60.058z"></path>
</svg>
