<!-- Generated by IcoMoon.io -->
<svg version="1.1" xmlns="http://www.w3.org/2000/svg" width="720" height="720" viewBox="0 0 720 720">
<title>grid</title>
<path fill="black" d="M120.118 57.947h240.235c33.171 0 60.058 26.889 60.058 60.058v60.058c0 33.169-26.888 60.058-60.058 60.058h-240.235c-33.169 0-60.058-26.889-60.058-60.058v-60.058c0-33.169 26.889-60.058 60.058-60.058zM360.352 118.006h-240.235v60.058h240.235v-60.058zM360.352 268.152h240.235c33.171 0 60.058 26.889 60.058 60.058v60.058c0 33.171-26.888 60.058-60.058 60.058h-240.235c-33.171 0-60.058-26.888-60.058-60.058v-60.058c0-33.169 26.888-60.058 60.058-60.058zM600.586 388.27v-60.058h-240.235v60.058h240.235zM150.147 538.417v60.058c0 33.171 26.889 60.058 60.058 60.058h240.235c33.171 0 60.058-26.888 60.058-60.058v-60.058c0-33.171-26.888-60.058-60.058-60.058h-240.235c-33.169 0-60.058 26.888-60.058 60.058zM210.206 538.417h240.235v60.058h-240.235v-60.058zM120.118 268.152h60.058c33.169 0 60.058 26.889 60.058 60.058v60.058c0 33.171-26.889 60.058-60.058 60.058h-60.058c-33.169 0-60.058-26.888-60.058-60.058v-60.058c0-33.169 26.889-60.058 60.058-60.058zM180.176 328.211h-60.058v60.058h60.058v-60.058zM480.469 118.006v60.058c0 33.169 26.888 60.058 60.058 60.058h60.058c33.171 0 60.058-26.889 60.058-60.058v-60.058c0-33.169-26.888-60.058-60.058-60.058h-60.058c-33.171 0-60.058 26.889-60.058 60.058zM540.528 118.006h60.058v60.058h-60.058v-60.058z"></path>
</svg>
