<!-- Generated by IcoMoon.io -->
<svg version="1.1" xmlns="http://www.w3.org/2000/svg" width="720" height="720" viewBox="0 0 720 720">
<title>image</title>
<path fill="black" d="M315.308 253.138c0 33.169-26.889 60.058-60.058 60.058s-60.058-26.889-60.058-60.058c0-33.169 26.889-60.058 60.058-60.058s60.058 26.889 60.058 60.058zM540.528 427.878l-78.554-94.265c-2.853-3.424-7.078-5.403-11.534-5.403s-8.681 1.979-11.534 5.403l-108.583 130.3-33.509-40.212c-2.853-3.424-7.078-5.403-11.535-5.403s-8.682 1.979-11.535 5.403l-95.595 114.715h362.379v-110.538zM90.088 148.035v420.41c0 33.171 26.889 60.058 60.058 60.058h420.41c33.171 0 60.058-26.888 60.058-60.058v-420.41c0-33.169-26.888-60.058-60.058-60.058h-420.41c-33.169 0-60.058 26.889-60.058 60.058zM150.147 148.035h420.41v420.41h-420.41v-420.41z"></path>
</svg>
