<svg fill="none" xmlns="http://www.w3.org/2000/svg" viewBox="0 0 24 24">
  <path d="M8.899 5.757A5.99 5.99 0 0 1 13.227 4a5.98 5.98 0 0 1 4.157 1.757L22 10.373l-4.243 4.242-3.479-3.479-1.171 1.172 1.414 1.414-6.693 6.692c-.39.39-.902.586-1.414.586A1.994 1.994 0 0 1 5 20.414L3.586 19A1.994 1.994 0 0 1 3 17.586c0-.512.195-1.024.586-1.414l6.692-6.693 1.414 1.414 1.172-1.171-3.965-3.965Zm8.858 6.03 1.415-1.414L15.97 7.17a3.999 3.999 0 0 0-3.864-1.036l5.651 5.652Zm-6.065 1.935-1.414-1.414L5 17.586 6.414 19l5.278-5.278Z" fill="#BBC520"/>
</svg>
