<!-- Generated by IcoMoon.io -->
<svg version="1.1" xmlns="http://www.w3.org/2000/svg" width="720" height="720" viewBox="0 0 720 720">
<title>job</title>
<path fill="black" d="M267.228 170.76c14.891-14.891 31.74-26.63 49.717-35.218 25.288-12.080 52.812-17.925 80.262-17.535 45.248 0.643 90.301 18.227 124.829 52.754l138.61 138.611-127.403 127.403-104.478-104.478-35.182 35.182 42.467 42.467-200.967 200.968c-11.727 11.726-27.098 17.591-42.468 17.591s-30.741-5.865-42.468-17.591l-42.468-42.467c-11.727-11.726-17.591-27.098-17.591-42.467 0-15.372 5.863-30.741 17.591-42.467l200.969-200.969 42.467 42.468 35.182-35.182-119.069-119.068zM533.243 351.838l42.467-42.467-96.142-96.143c-31.441-31.438-75.968-41.806-116.042-31.105l169.717 169.715zM351.115 409.944l-42.467-42.467-158.501 158.501 42.468 42.467 158.501-158.501z"></path>
</svg>
