<!-- Generated by IcoMoon.io -->
<svg version="1.1" xmlns="http://www.w3.org/2000/svg" width="720" height="720" viewBox="0 0 720 720">
<title>jobOnHold</title>
<path fill="black" d="M267.228 170.76c14.891-14.891 31.74-26.63 49.717-35.218 25.288-12.080 52.812-17.925 80.262-17.535 45.248 0.643 90.301 18.227 124.829 52.754l138.61 138.611-127.403 127.403-104.478-104.478-40.539 40.539 42.54 42.396-195.682 195.683c-11.727 11.726-27.098 17.591-42.468 17.591s-30.741-5.865-42.468-17.591l-42.468-42.467c-11.727-11.726-17.591-27.098-17.591-42.467 0-15.372 5.864-30.741 17.591-42.467l195.54-195.539 42.119 42.128 40.96-40.271-119.069-119.068zM533.243 351.838l42.467-42.467-96.142-96.143c-31.441-31.438-75.968-41.806-116.042-31.105l169.717 169.715zM351.115 409.944l-42.467-42.467-158.501 158.501 42.468 42.467 158.5-158.501zM98.882 126.801c5.864-5.864 13.55-8.795 21.234-8.795 1.294 0 2.588 0.083 3.874 0.25 6.348 0.821 12.483 3.67 17.359 8.546l450.834 449.299c5.012 5.012 7.691 10.91 8.402 16.967 1.145 9.751-2.811 19.913-10.351 27.453-5.427 5.427-12.567 8.087-19.678 7.985-6.847-0.099-13.663-2.76-18.888-7.985l-452.786-451.251c-4.876-4.876-7.725-11.012-8.546-17.359-0.155-1.204-0.238-2.414-0.248-3.625-0.064-7.768 2.867-15.557 8.794-21.483z"></path>
</svg>
