<!-- Generated by IcoMoon.io -->
<svg version="1.1" xmlns="http://www.w3.org/2000/svg" width="720" height="720" viewBox="0 0 720 720">
<title>link</title>
<path fill="black" d="M134.061 372.441c-29.59 29.615-44.247 68.518-43.973 107.333 0.269 38.101 14.927 76.122 43.973 105.192s67.033 43.744 105.102 44.014c38.781 0.273 77.65-14.399 107.237-44.014l65.254-54.996c6.247-6.255 9.168-14.579 8.757-22.769-0.361-7.177-3.279-14.255-8.757-19.738-5.481-5.484-12.549-8.405-19.723-8.765-8.179-0.409-16.498 2.513-22.745 8.765l-65.254 54.998c-35.182 35.212-92.222 35.212-127.403 0s-35.182-92.304 0-127.517l54.948-65.311c6.249-6.252 9.167-14.576 8.757-22.766-0.359-7.18-3.279-14.255-8.757-19.741-5.479-5.484-12.548-8.405-19.722-8.762-8.181-0.412-16.497 2.51-22.746 8.762l-54.948 65.311zM531.456 406.185c-5.463 5.465-12.504 8.388-19.654 8.762-8.201 0.43-16.549-2.492-22.814-8.762-6.904-6.91-9.745-16.348-8.52-25.339 0.856-6.28 3.696-12.339 8.52-17.168l55.185-61.185c35.182-35.213 35.182-92.304 0-127.517-35.179-35.213-92.22-35.213-127.403 0l-65.215 54.962c-5.976 5.981-13.843 8.914-21.675 8.8-7.537-0.11-15.042-3.043-20.792-8.8-5.865-5.87-8.796-13.563-8.795-21.256 0-1.908 0.18-3.816 0.541-5.696 1.096-5.698 3.847-11.141 8.255-15.554l65.215-54.962c29.588-29.616 68.455-44.286 107.238-44.012 38.069 0.269 76.056 14.94 105.102 44.012 29.044 29.071 43.702 67.092 43.972 105.195 0.273 38.815-14.384 77.716-43.972 107.331l-55.188 61.188zM278.838 397.557c-4.935 4.94-7.793 11.171-8.575 17.606-1.075 8.855 1.783 18.101 8.575 24.9 6.791 6.795 16.028 9.657 24.879 8.582 6.429-0.784 12.655-3.646 17.588-8.582l120.469-120.573c6.576-6.583 9.465-15.456 8.667-24.053-0.624-6.734-3.514-13.297-8.667-18.454-5.15-5.156-11.708-8.047-18.438-8.673-8.589-0.799-17.453 2.092-24.029 8.673l-120.468 120.573z"></path>
</svg>
