<svg fill="none" xmlns="http://www.w3.org/2000/svg" viewBox="0 0 24 24">
  <path d="M4.469 12.415a4.996 4.996 0 0 0-1.466 3.578 4.995 4.995 0 0 0 1.466 3.506 4.987 4.987 0 0 0 3.503 1.467 4.988 4.988 0 0 0 3.575-1.467l2.175-1.833a1 1 0 0 0 0-1.417.997.997 0 0 0-1.416 0l-2.175 1.833a3.001 3.001 0 0 1-4.247 0 3.007 3.007 0 0 1 0-4.25l1.832-2.178a1 1 0 0 0 0-1.416.998.998 0 0 0-1.416 0l-1.83 2.177Zm13.246 1.125a.997.997 0 0 1-1.415 0 1.001 1.001 0 0 1 0-1.417l1.84-2.04a3.008 3.008 0 0 0 0-4.25 3.001 3.001 0 0 0-4.248 0L11.72 7.665a.998.998 0 0 1-1.416 0 .999.999 0 0 1 0-1.417l2.174-1.832a4.987 4.987 0 0 1 3.574-1.467 4.987 4.987 0 0 1 3.504 1.467 4.996 4.996 0 0 1 1.465 3.506 4.996 4.996 0 0 1-1.465 3.578l-1.84 2.04Zm-8.42-.288a1.001 1.001 0 1 0 1.416 1.417l4.015-4.02a1 1 0 0 0-1.416-1.416l-4.015 4.019Z" fill="#000"/>
</svg>
