<svg fill="none" xmlns="http://www.w3.org/2000/svg" viewBox="0 0 24 24">
  <path d="M14.319 20.694c.142.534-.174 1.089-.72 1.177a9.999 9.999 0 0 1-9.077-16.51 10 10 0 0 1 13.04-1.671c.46.307.516.943.165 1.37-.352.425-.98.481-1.447.186a7.996 7.996 0 1 0-3.199 14.677c.547-.075 1.096.238 1.238.771Zm4.906-3.214a1 1 0 0 1 .032 1.414 9.598 9.598 0 0 1-1.94 1.578 1 1 0 1 1-1.062-1.695 7.606 7.606 0 0 0 1.556-1.264 1 1 0 0 1 1.414-.033Zm1.832-4.685a1 1 0 0 1 .76 1.193c-.15.673-.313 1.168-.467 1.586a1 1 0 1 1-1.877-.69c.132-.359.266-.765.391-1.33a1 1 0 0 1 1.193-.759Zm-.622-4.392a1 1 0 0 1 1.217.72c.046.18.137.589.192.961a1 1 0 1 1-1.979.29 8.788 8.788 0 0 0-.15-.754 1 1 0 0 1 .72-1.217Z" fill="#000"/>
  <path d="M17.733 8.293a1 1 0 0 1 0 1.414l-6 6a1 1 0 0 1-1.414 0l-3-3a1 1 0 1 1 1.414-1.414l2.293 2.293 5.293-5.293a1 1 0 0 1 1.415 0Z" fill="#000"/>
</svg>
