<svg fill="none" xmlns="http://www.w3.org/2000/svg" viewBox="0 0 24 24">
  <path d="M12 2a9.97 9.97 0 0 0-2.769.389l.553 1.922a8 8 0 1 1 0 15.379l-.554 1.92c.88.254 1.81.389 2.769.389 5.523 0 10-4.477 10-10S17.523 2 12 2ZM7.161 3.247A10.043 10.043 0 0 0 3.247 7.16l1.75.97A8.042 8.042 0 0 1 8.13 4.995l-.969-1.75ZM2.389 9.231A9.976 9.976 0 0 0 2 12c0 .96.135 1.889.389 2.769l1.922-.553A8.005 8.005 0 0 1 4 12c0-.77.109-1.514.31-2.216L2.39 9.23Zm.858 7.608a10.043 10.043 0 0 0 3.914 3.914l.97-1.75a8.042 8.042 0 0 1-3.135-3.133l-1.75.969Z" fill="#000"/>
  <path d="M16.707 8.293a1 1 0 0 1 0 1.414l-6 6a1 1 0 0 1-1.414 0l-3-3a1 1 0 1 1 1.414-1.414L10 13.586l5.293-5.293a1 1 0 0 1 1.414 0Z" fill="#000"/>
</svg>
