<svg fill="none" xmlns="http://www.w3.org/2000/svg" viewBox="0 0 24 24">
  <path d="M12.012 13.943a1 1 0 0 0-1.001 1.001v1.001a1.001 1.001 0 0 0 2.002 0v-1a1 1 0 0 0-1.001-1.002Zm0-11.01a4.004 4.004 0 0 1 4.004 4.003V9.94h2.002c1.105 0 2.002.897 2.002 2.002v7.007a2.002 2.002 0 0 1-2.002 2.002H6.006a2.002 2.002 0 0 1-2.002-2.002v-7.007c0-1.105.896-2.002 2.002-2.002h2.002V6.936a4.004 4.004 0 0 1 4.004-4.003Zm2.002 4.003a2.002 2.002 0 0 0-4.004 0V9.94h4.004V6.936Zm-8.008 5.005v7.007h12.012v-7.007H6.006Z" fill="#000"/>
</svg>
