<!-- Generated by IcoMoon.io -->
<svg version="1.1" xmlns="http://www.w3.org/2000/svg" width="720" height="720" viewBox="0 0 720 720">
<title>lock</title>
<path fill="black" d="M360.352 418.299c-16.585 0-30.030 13.444-30.030 30.030v30.030c0 16.585 13.444 30.030 30.030 30.030s30.030-13.444 30.030-30.030v-30.030c0-16.585-13.444-30.030-30.030-30.030zM360.352 87.976c66.338 0 120.118 53.779 120.118 120.118v90.088h60.058c33.171 0 60.058 26.888 60.058 60.058v210.206c0 33.171-26.888 60.058-60.058 60.058h-360.352c-33.169 0-60.058-26.888-60.058-60.058v-210.206c0-33.171 26.889-60.058 60.058-60.058h60.058v-90.088c0-66.339 53.779-120.118 120.118-120.118zM420.41 208.094c0-33.169-26.888-60.058-60.058-60.058s-60.058 26.889-60.058 60.058v90.088h120.118v-90.088zM180.176 358.241v210.206h360.352v-210.206h-360.352z"></path>
</svg>
