<svg fill="none" xmlns="http://www.w3.org/2000/svg" viewBox="0 0 24 24">
  <path d="M19 3.014v4.082a4.002 4.002 0 0 1 0 7.748v3.082c0 1.018-1.332 1.4-1.871.537A7.43 7.43 0 0 0 11 14.973v3.997a3 3 0 1 1-6 0v-4a3 3 0 0 1-3-3v-3a3 3 0 0 1 3-3h5.827a7.43 7.43 0 0 0 6.302-3.492c.539-.863 1.871-.481 1.871.536Zm0 6.224v3.465a2 2 0 0 0 0-3.465ZM7 18.97a1 1 0 1 0 2 0v-4H7v4Zm10-3.7v-9.6a9.43 9.43 0 0 1-6 2.299v5.003a9.431 9.431 0 0 1 6 2.299Zm-8-2.3v-5H5a1 1 0 0 0-1 1v3a1 1 0 0 0 1 1h4Z" fill="#000"/>
</svg>
