<!-- Generated by IcoMoon.io -->
<svg version="1.1" xmlns="http://www.w3.org/2000/svg" width="720" height="720" viewBox="0 0 720 720">
<title>markSent</title>
<path fill="black" d="M111.686 397.318c-2.77-2.868-6.083-5.156-9.748-6.73s-7.604-2.402-11.591-2.435c-3.987-0.036-7.942 0.724-11.632 2.234s-7.043 3.739-9.863 6.558c-2.82 2.82-5.049 6.174-6.559 9.865s-2.27 7.643-2.235 11.63c0.034 3.988 0.863 7.928 2.436 11.591s3.862 6.979 6.73 9.748l47.62 59.816c5.631 5.631 13.267 8.793 21.23 8.793s15.6-3.162 21.23-8.793l101.789-96.142c2.868-2.772 5.156-6.083 6.73-9.748s2.402-7.604 2.436-11.591c0.034-3.988-0.725-7.943-2.235-11.633s-3.739-7.042-6.559-9.862c-2.82-2.82-6.173-5.051-9.863-6.558-3.691-1.51-7.645-2.27-11.632-2.237-3.987 0.036-7.928 0.865-11.592 2.438s-6.978 3.862-9.747 6.73l-80.559 74.911-26.39-38.585zM180.176 298.182v-77.65l188.971 188.971c11.726 11.726 30.741 11.726 42.467 0l188.971-188.971v287.855c0 16.585-13.444 30.030-30.030 30.030h-445.313c12.367 34.99 45.737 60.058 84.961 60.058h360.352c49.755 0 90.088-40.333 90.088-90.088v-300.293c0-49.754-40.333-90.088-90.088-90.088h-360.352c-49.754 0-90.088 40.334-90.088 90.088v90.088h60.058zM390.381 345.802l-167.738-167.738h335.476l-167.738 167.738z"></path>
</svg>
