<svg fill="none" xmlns="http://www.w3.org/2000/svg" viewBox="0 0 24 24">
  <path d="M17.9 12.85v-1.675h3.475v1.675H17.9Zm1 6.725-2.85-1.95.975-1.375 2.85 1.95-.975 1.375ZM17 7.75l-.95-1.375 2.85-1.95.95 1.375L17 7.75ZM4.95 19v-4.725h-.58c-.483 0-.895-.169-1.235-.507a1.656 1.656 0 0 1-.51-1.218v-1.075c0-.487.17-.9.51-1.24.34-.34.753-.51 1.24-.51h3.2l5.35-3.2v10.95l-5.2-3.2h-.5V19H4.95Zm9.55-4.175v-5.65c.375.358.656.785.844 1.281A4.33 4.33 0 0 1 15.625 12c0 .533-.094 1.048-.281 1.544a3.421 3.421 0 0 1-.844 1.281ZM4.3 11.4v1.2h3.925l3.025 1.875-.025-4.975-3.175 1.9H4.3Z" fill="#fff"/>
</svg>
