<!-- Generated by IcoMoon.io -->
<svg version="1.1" xmlns="http://www.w3.org/2000/svg" width="720" height="720" viewBox="0 0 720 720">
<title>money</title>
<path fill="black" d="M210 330h180c16.569 0 30-13.431 30-30s-13.431-30-30-30h-180c-16.568 0-30 13.432-30 30s13.432 30 30 30z"></path>
<path fill="black" d="M60 120c0-33.137 26.863-60 60-60h360c16.569 0 30 13.432 30 30s-13.431 30-30 30h-345c-8.284 0-15 6.716-15 15v15h420c33.138 0 60 26.863 60 60v121.5c34.233 6.948 60 37.215 60 73.5s-25.767 66.552-60 73.5v91.5c0 33.138-26.862 60-60 60h-420c-33.137 0-60-26.862-60-60v-450zM540 330v-105c0-8.284-6.717-15-15-15h-390c-8.284 0-15 6.716-15 15v330c0 8.283 6.716 15 15 15h390c8.283 0 15-6.717 15-15v-75h-15c-41.421 0-75-33.579-75-75s33.579-75 75-75h15zM585 390h-60c-8.283 0-15 6.717-15 15s6.717 15 15 15h60c8.283 0 15-6.717 15-15s-6.717-15-15-15z"></path>
</svg>
