<!-- Generated by IcoMoon.io -->
<svg version="1.1" xmlns="http://www.w3.org/2000/svg" width="720" height="720" viewBox="0 0 720 720">
<title>moveMarker</title>
<path fill="black" d="M120.118 358.241c0-16.585 13.445-30.030 30.030-30.030h120.118c16.585 0 30.030 13.444 30.030 30.030s-13.445 30.030-30.030 30.030h-120.118c-16.585 0-30.030-13.444-30.030-30.030zM180.176 448.329c0-16.585 13.445-30.030 30.030-30.030h90.088c16.585 0 30.030 13.444 30.030 30.030s-13.444 30.030-30.030 30.030h-90.088c-16.585 0-30.030-13.444-30.030-30.030zM415.618 643.795l-1.994 2.748c-5.808 7.994-14.525 11.991-23.243 11.991s-17.435-3.997-23.243-11.991l-1.994-2.748c-23.318-32.098-59.416-81.791-93.554-135.409h66.893c28.401 43.41 51.897 75.073 51.897 75.073s150.147-202.356 150.147-285.278c0-82.924-67.224-150.147-150.147-150.147s-150.147 67.223-150.147 150.147h-60.058c0-116.093 94.113-210.206 210.206-210.206s210.206 94.113 210.206 210.206c0 90.989-129.126 268.741-184.969 345.613zM330.322 298.182c0 33.171 26.888 60.058 60.058 60.058s60.058-26.888 60.058-60.058c0-33.169-26.888-60.058-60.058-60.058s-60.058 26.889-60.058 60.058z"></path>
</svg>
