<svg fill="none" xmlns="http://www.w3.org/2000/svg" viewBox="0 0 24 24">
  <path d="M18.17 10.714h.973A2.852 2.852 0 0 1 22 13.571c0 1.36-.713 2.555-1.786 3.229l1.438 1.438A5.8 5.8 0 0 0 24 13.57a4.859 4.859 0 0 0-3.953-4.773 7.24 7.24 0 0 0-11.85-4.016L9.614 6.2a5.239 5.239 0 0 1 8.554 4.514Zm-.79 8.666h-5.856l-.095.001h-5.62a5.81 5.81 0 0 1-.047-11.619L4.707 6.707a1 1 0 1 1 1.414-1.414l14.586 14.586a1 1 0 0 1-1.414 1.414L17.38 19.38ZM7.739 9.739l-.002.024H5.81a3.81 3.81 0 1 0 0 7.619h5.619c.031 0 .063 0 .095-.002a2 2 0 0 0 .095.002h3.762L7.738 9.738Z" fill="#657884"/>
</svg>
