<!-- Generated by IcoMoon.io -->
<svg version="1.1" xmlns="http://www.w3.org/2000/svg" width="720" height="720" viewBox="0 0 720 720">
<title>offline</title>
<path fill="black" d="M545.606 319.631h29.243c10.484 0 20.526 1.88 29.813 5.321 32.687 12.114 55.984 43.576 55.984 80.475 0 40.855-21.417 76.707-53.635 96.944l43.182 43.179c42.789-31.792 70.512-82.719 70.512-140.123 0-71.272-51.122-130.606-118.697-143.332-20.048-99.328-107.817-174.12-213.055-174.12-54.683 0-104.636 20.183-142.827 53.51l42.605 42.605c27.215-22.522 62.136-36.056 100.222-36.056 82.052 0 149.43 62.826 156.654 142.997 0.427 4.71 0.643 9.48 0.643 14.299s-0.216 9.588-0.643 14.3zM521.937 579.883h-173.023c-0.952 0-1.904-0.009-2.853-0.033-0.955 0.024-1.91 0.036-2.868 0.036h-168.737c-96.349 0-174.456-78.109-174.456-174.458 0-95.875 77.338-173.684 173.032-174.449l-31.681-31.681c-11.727-11.727-11.727-30.741 0-42.468s30.741-11.727 42.468 0l438.001 438.002c11.726 11.726 11.726 30.741 0 42.467s-30.741 11.726-42.467 0l-57.416-57.416zM232.363 290.31c-0.023 0.24-0.045 0.482-0.067 0.722h-57.84c-63.18 0-114.398 51.218-114.398 114.396 0 63.182 51.217 114.4 114.398 114.4h168.737c0.958 0 1.916-0.024 2.865-0.069 0.946 0.045 1.898 0.066 2.856 0.066h112.964l-229.515-229.515z"></path>
</svg>
