<!-- Generated by IcoMoon.io -->
<svg version="1.1" xmlns="http://www.w3.org/2000/svg" width="720" height="720" viewBox="0 0 720 720">
<title>presentation</title>
<path fill="black" d="M60.455 150.374v330.323c0 33.171 26.889 60.058 60.058 60.058h480.071c33.167 0 60.058-26.891 60.058-60.058v-330.323c0-33.169-26.891-60.058-60.058-60.058h-480.071c-33.169 0-60.058 26.889-60.058 60.058zM120.513 150.374h480.071v330.323h-480.071v-330.323zM198.832 630.844c0-16.585 13.445-30.030 30.030-30.030h262.976c16.585 0 30.030 13.444 30.030 30.030s-13.444 30.030-30.030 30.030h-262.976c-16.585 0-30.030-13.444-30.030-30.030zM423.47 280.826c0 34.86-28.261 63.12-63.122 63.12s-63.12-28.261-63.12-63.12c0-34.86 28.259-63.121 63.12-63.121s63.122 28.26 63.122 63.121zM506.297 480.697c0 0-62.109 0-145.75 0s-146.294 0-146.294 0c0-14.198 38.874-109.688 146.094-109.688s145.952 95.532 145.952 109.688z"></path>
</svg>
