<!-- Generated by IcoMoon.io -->
<svg version="1.1" xmlns="http://www.w3.org/2000/svg" width="720" height="720" viewBox="0 0 720 720">
<title>property</title>
<path fill="black" d="M582.389 328.211h-11.831v270.264c0 33.171-26.888 60.058-60.058 60.058h-300.293c-33.169 0-60.058-26.888-60.058-60.058v-270.264h-11.832c-27.521 0-40.545-33.938-20.088-52.35l222.037-199.834c11.42-10.278 28.759-10.278 40.179 0l222.036 199.834c20.456 18.411 7.432 52.35-20.090 52.35zM510.498 274.079l-150.147-135.33-150.147 135.33v324.397h60.059v-101.637c0-33.171 26.889-60.058 60.058-60.058h60.058c33.171 0 60.058 26.888 60.058 60.058v101.637h60.058v-324.397zM330.322 478.358v120.118h60.058v-90.088h-60.058v-30.030z"></path>
</svg>
