<!-- Generated by IcoMoon.io -->
<svg version="1.1" xmlns="http://www.w3.org/2000/svg" width="720" height="720" viewBox="0 0 720 720">
<title>reminder</title>
<path fill="black" d="M330.322 87.976c0-16.585 13.444-30.030 30.030-30.030s30.030 13.445 30.030 30.030v30.030c0 0.833-0.033 1.658-0.102 2.474 85.265 14.254 150.249 88.389 150.249 177.701v180.176l53.84 53.84c3.982 3.982 6.219 9.384 6.219 15.015 0 11.726-9.507 21.234-21.234 21.234h-438.002c-11.726 0-21.233-9.507-21.233-21.234 0-5.631 2.237-11.033 6.219-15.015l53.84-53.84v-180.176c0-89.312 64.984-163.447 150.249-177.701-0.069-0.816-0.102-1.641-0.102-2.474v-30.030zM360.352 178.064c-66.339 0-120.118 53.779-120.118 120.118v210.206h240.235v-210.206c0-66.339-53.78-120.118-120.118-120.118zM420.41 598.475c0 33.171-26.888 60.058-60.058 60.058s-60.058-26.888-60.058-60.058h120.118z"></path>
</svg>
