<svg fill="none" xmlns="http://www.w3.org/2000/svg" viewBox="0 0 24 24">
  <path d="M12 2a1 1 0 0 0-1 1v5.586L9.707 7.285A.998.998 0 0 0 8 8c.002.253.1.506.293.699l3 3.008a.997.997 0 0 0 1.414 0l3.022-3.293a.996.996 0 0 0 0-1.414.997.997 0 0 0-1.414 0L13 8.586V3a1 1 0 0 0-1-1Z" fill="#556ACB"/>
  <path d="M2 5a2 2 0 0 1 2-2h4v2H4v9h5a1 1 0 0 1 .894.553L10.618 16h2.764l.724-1.447A1 1 0 0 1 15 14h5V5h-4V3h4a2 2 0 0 1 2 2v15a2 2 0 0 1-2 2H4a2 2 0 0 1-2-2V5Zm18 11h-4.382l-.724 1.447A1 1 0 0 1 14 18h-4a1 1 0 0 1-.894-.553L8.382 16H4v4h16v-4Z" fill="#556ACB"/>
</svg>
