<!-- Generated by IcoMoon.io -->
<svg version="1.1" xmlns="http://www.w3.org/2000/svg" width="720" height="720" viewBox="0 0 720 720">
<title>search</title>
<path fill="black" d="M477.634 517.993l101.718 101.715c11.726 11.726 30.741 11.726 42.467 0s11.726-30.741 0-42.467l-101.715-101.718c31.621-40.677 50.452-91.796 50.452-147.312 0-132.678-107.556-240.235-240.235-240.235s-240.235 107.556-240.235 240.235c0 132.678 107.556 240.235 240.235 240.235 55.515 0 106.634-18.831 147.312-50.452zM510.498 328.211c0 99.508-80.667 180.176-180.176 180.176s-180.176-80.667-180.176-180.176c0-99.508 80.667-180.176 180.176-180.176s180.176 80.667 180.176 180.176z"></path>
</svg>
