<svg fill="none" xmlns="http://www.w3.org/2000/svg" viewBox="0 0 24 24">
  <path d="m5.132 21.164 15.292-7.693a1.6 1.6 0 0 0 .672-.596c.165-.26.252-.563.254-.872V12a1.669 1.669 0 0 0-.25-.872 1.616 1.616 0 0 0-.666-.603L5.134 2.83a1.677 1.677 0 0 0-1.964.328 1.75 1.75 0 0 0-.49.93 1.77 1.77 0 0 0 .127 1.05v.001L5.86 12l-3.053 6.86v.002a1.775 1.775 0 0 0-.128 1.05c.065.353.235.678.49.93a1.65 1.65 0 0 0 1.196.509l.005-.001c.265-.004.525-.068.762-.187Zm2.096-9.956L4.232 4.487v-.001a.174.174 0 0 1-.012-.103.164.164 0 0 1 .046-.088l.006-.006a.146.146 0 0 1 .099-.044c.022 0 .043.006.064.016l13.842 6.949H7.228ZM4.22 19.62a.174.174 0 0 1 .012-.103l2.996-6.723h11.05l-13.845 6.95a.135.135 0 0 1-.16-.03l-.007-.006a.165.165 0 0 1-.046-.088Z" fill="#657884"/>
</svg>
