<svg fill="none" xmlns="http://www.w3.org/2000/svg" viewBox="0 0 24 24">
  <path d="M13.977 9c.026 0 .65.04 1.316.707a1 1 0 0 0 1.414-1.414A4.487 4.487 0 0 0 15 7.2V7a1 1 0 0 0-2 0v.184A2.996 2.996 0 0 0 11 10c0 2.28 1.727 2.713 2.758 2.97C14.873 13.25 15 13.354 15 14c0 .552-.448 1-.976 1-.026 0-.65-.04-1.317-.707a1 1 0 1 0-1.414 1.415A4.502 4.502 0 0 0 13 16.798v.2a1 1 0 0 0 2 0v-.184A2.995 2.995 0 0 0 17 14c0-2.28-1.726-2.712-2.757-2.97C13.128 10.752 13 10.646 13 10c0-.55.45-1 .977-1Z" fill="#8870C4"/>
  <path d="M8 2a2 2 0 0 0-2 2v2h2V4h8.586L20 7.414V20H8v-2H6v2a2 2 0 0 0 2 2h12a2 2 0 0 0 2-2V7.414A2 2 0 0 0 21.414 6L18 2.586A2 2 0 0 0 16.586 2H8Z" fill="#8870C4"/>
  <path d="M2 11a1 1 0 0 1 1-1h4a1 1 0 1 1 0 2H3a1 1 0 0 1-1-1Zm2 3a1 1 0 0 1 1-1h3a1 1 0 1 1 0 2H5a1 1 0 0 1-1-1Zm2-8h2v2H6V6Zm0 11h2v1H6v-1Z" fill="#8870C4"/>
</svg>
