<svg fill="none" xmlns="http://www.w3.org/2000/svg" viewBox="0 0 24 24">
  <path d="M21.707 5.707A.996.996 0 0 0 22 5.048v-.059a.995.995 0 0 0-.293-.696l-2-2a1 1 0 1 0-1.414 1.414l.293.293H16a1 1 0 1 0 0 2h2.586l-.293.293a1 1 0 0 0 1.414 1.414l2-2ZM11 10H4a2 2 0 0 0-2 2v5a2 2 0 0 0 2 2h7v2a1 1 0 1 0 2 0v-2h7a2 2 0 0 0 2-2v-5a2 2 0 0 0-2-2h-7V8a1 1 0 1 0-2 0v2Zm0 2v5H4v-5h7Zm2 0h7v5h-7v-5ZM8 6H5.414l.293.293a1 1 0 0 1-1.414 1.414l-2-2a.997.997 0 0 1-.002-1.412l.002-.002 2-2a1 1 0 0 1 1.414 1.414L5.414 4H8a1 1 0 1 1 0 2Z" fill="#657884"/>
</svg>
