<!-- Generated by IcoMoon.io -->
<svg version="1.1" xmlns="http://www.w3.org/2000/svg" width="720" height="720" viewBox="0 0 720 720">
<title>sms</title>
<path fill="black" d="M90.088 118.006v480.469c0 33.171 26.889 60.058 60.058 60.058h240.235c33.171 0 60.058-26.888 60.058-60.058v-120.118h150.147c16.585 0 30.030-13.444 30.030-30.030v-180.176c0-16.585-13.444-30.030-30.030-30.030h-150.147v-120.118c0-33.169-26.888-60.058-60.058-60.058h-240.235c-33.169 0-60.058 26.889-60.058 60.058zM390.381 526.489v71.987h-240.235v-390.381h240.235v30.030h-150.147c-16.585 0-30.030 13.445-30.030 30.030v180.176c0 16.585 13.445 30.030 30.030 30.030h60.058v60.058c0 25.657 30.092 39.497 49.572 22.802l40.515-34.729zM150.147 118.006h240.235v30.030h-240.235v-30.030zM270.264 418.299v-120.118h300.293v120.118h-146.239l-63.965 54.828v-54.828h-90.088z"></path>
</svg>
