<!-- Generated by IcoMoon.io -->
<svg version="1.1" xmlns="http://www.w3.org/2000/svg" width="720" height="720" viewBox="0 0 720 720">
<title>starburst</title>
<path fill="black" d="M360.352 57.947c-16.585 0-30.030 13.445-30.030 30.030v120.118c0 16.585 13.444 30.030 30.030 30.030s30.030-13.445 30.030-30.030v-120.118c0-16.585-13.444-30.030-30.030-30.030zM360.352 478.358c-16.585 0-30.030 13.444-30.030 30.030v120.118c0 16.585 13.444 30.030 30.030 30.030s30.030-13.444 30.030-30.030v-120.118c0-16.585-13.444-30.030-30.030-30.030zM60.058 358.241c0-16.585 13.445-30.030 30.030-30.030h120.117c16.585 0 30.030 13.444 30.030 30.030s-13.444 30.030-30.030 30.030h-120.117c-16.585 0-30.030-13.444-30.030-30.030zM510.498 328.211c-16.585 0-30.030 13.444-30.030 30.030s13.444 30.030 30.030 30.030h120.118c16.585 0 30.030-13.444 30.030-30.030s-13.444-30.030-30.030-30.030h-120.118zM158.908 156.815c6.109-6.109 14.197-9.037 22.2-8.78 7.36 0.236 14.65 3.162 20.268 8.78l60.111 60.093c6.135 6.135 9.060 14.264 8.776 22.301-0.259 7.326-3.184 14.574-8.776 20.167s-12.841 8.518-20.167 8.776c-8.037 0.284-16.166-2.642-22.301-8.776l-60.111-60.093c-5.501-5.501-8.421-12.605-8.762-19.808-0.385-8.153 2.535-16.434 8.762-22.66zM561.795 156.815c-6.107-6.109-14.195-9.037-22.2-8.78-7.36 0.236-14.648 3.162-20.267 8.78l-60.109 60.093c-6.135 6.135-9.063 14.264-8.777 22.301 0.258 7.326 3.183 14.574 8.777 20.167 5.592 5.593 12.84 8.518 20.165 8.776 8.039 0.284 16.168-2.642 22.303-8.776l60.109-60.093c5.502-5.501 8.423-12.605 8.762-19.808 0.385-8.153-2.535-16.434-8.762-22.66zM158.908 559.665c6.109 6.111 14.197 9.036 22.2 8.781 7.36-0.234 14.65-3.162 20.268-8.781l60.111-60.091c6.135-6.135 9.060-14.264 8.776-22.303-0.259-7.324-3.184-14.573-8.776-20.165-5.592-5.595-12.841-8.52-20.167-8.777-8.037-0.285-16.166 2.643-22.301 8.777l-60.111 60.091c-5.501 5.502-8.421 12.606-8.762 19.808-0.385 8.153 2.535 16.435 8.762 22.66zM561.795 558.254c-6.107 6.111-14.195 9.036-22.2 8.781-7.36-0.234-14.648-3.162-20.267-8.781l-60.109-58.681c-6.135-6.135-9.063-14.264-8.777-22.303 0.258-7.324 3.183-14.573 8.777-20.165 5.592-5.595 12.84-8.52 20.165-8.777 8.039-0.285 16.168 2.643 22.303 8.777l60.109 58.681c5.502 5.502 8.423 12.606 8.762 19.808 0.385 8.153-2.535 16.435-8.762 22.66z"></path>
</svg>
