<svg fill="none" xmlns="http://www.w3.org/2000/svg" viewBox="0 0 24 24">
  <path d="M9.65 3.384a1 1 0 0 1 1.403-.172l2.556 1.996a1 1 0 0 1 .172 1.404l-1.996 2.555a1 1 0 0 1-1.576-1.231l.386-.598a5.002 5.002 0 0 0-1.851 8.592l-1.418 1.418A7.003 7.003 0 0 1 10.48 5.303l-.659-.515a1 1 0 0 1-.172-1.404Zm3.641 13.314.49-.627a1 1 0 1 0-1.576-1.231l-1.996 2.555a1 1 0 0 0 .172 1.404l2.555 1.996a1 1 0 0 0 1.231-1.576l-.659-.515a7.003 7.003 0 0 0 3.103-12.092l-1.419 1.419a5.002 5.002 0 0 1-1.901 8.667Z" fill="#657884"/>
</svg>
