<!-- Generated by IcoMoon.io -->
<svg version="1.1" xmlns="http://www.w3.org/2000/svg" width="720" height="720" viewBox="0 0 720 720">
<title>syncAlert</title>
<path fill="black" d="M330 152.127c9.798-1.401 19.815-2.127 30-2.127 115.98 0 210 94.020 210 210 0 57.219-22.884 109.092-60 146.97v-26.97c0-16.569-13.431-30-30-30s-30 13.431-30 30v90c0 16.569 13.431 30 30 30h105c16.569 0 30-13.431 30-30s-13.431-30-30-30h-23.751c42.753-47.769 68.751-110.847 68.751-180 0-149.117-120.882-270-270-270-10.14 0-20.151 0.559-30 1.648v60.479z"></path>
<path fill="black" d="M360 570c10.185 0 20.202-0.726 30-2.127v60.48c-9.849 1.089-19.86 1.647-30 1.647-149.117 0-270-120.882-270-270 0-69.152 25.997-132.232 68.75-180h-23.75c-16.568 0-30-13.432-30-30s13.432-30 30-30h105c16.568 0 30 13.432 30 30v90c0 16.568-13.432 30-30 30s-30-13.432-30-30v-26.969c-37.116 37.876-60 89.75-60 146.969 0 115.98 94.020 210 210 210z"></path>
<path fill="black" d="M330 240c0-16.568 13.431-30 30-30s30 13.432 30 30v150c0 16.569-13.431 30-30 30s-30-13.431-30-30v-150z"></path>
<path fill="black" d="M360 450c-16.569 0-30 13.431-30 30s13.431 30 30 30c16.569 0 30-13.431 30-30s-13.431-30-30-30z"></path>
</svg>
