<!-- Generated by IcoMoon.io -->
<svg version="1.1" xmlns="http://www.w3.org/2000/svg" width="720" height="720" viewBox="0 0 720 720">
<title>task</title>
<path fill="black" d="M291.864 397.438c-2.77-2.868-6.083-5.156-9.748-6.73s-7.604-2.402-11.591-2.438c-3.987-0.033-7.942 0.727-11.632 2.237-3.69 1.507-7.043 3.739-9.863 6.558s-5.049 6.171-6.559 9.862c-1.51 3.691-2.27 7.646-2.235 11.633s0.863 7.928 2.436 11.591c1.574 3.663 3.862 6.976 6.73 9.748l60.059 60.058c5.631 5.631 13.267 8.793 21.23 8.793s15.6-3.162 21.23-8.793l120.118-120.118c2.868-2.772 5.156-6.083 6.73-9.748s2.402-7.604 2.435-11.591c0.036-3.988-0.724-7.942-2.234-11.633s-3.739-7.042-6.558-9.862c-2.82-2.82-6.174-5.051-9.865-6.558-3.691-1.51-7.643-2.27-11.63-2.237-3.988 0.036-7.928 0.865-11.591 2.438s-6.979 3.862-9.748 6.73l-98.886 98.886-38.828-38.828zM279.060 66.743l-51.263 51.263h-47.62c-33.169 0-60.058 26.889-60.058 60.058v420.41c0 33.171 26.889 60.058 60.058 60.058h360.352c33.171 0 60.058-26.888 60.058-60.058v-420.41c0-33.169-26.888-60.058-60.058-60.058h-47.621l-51.263-51.263c-5.631-5.631-13.269-8.795-21.234-8.795h-120.118c-7.964 0-15.602 3.163-21.234 8.795zM441.644 229.328l51.263-51.263h47.621v420.41h-360.352v-420.41h47.62l51.263 51.263c5.632 5.631 13.269 8.795 21.234 8.795h120.118c7.964 0 15.604-3.163 21.234-8.795zM312.731 118.006h95.241l30.030 30.030-30.030 30.030h-95.241l-30.029-30.030 30.029-30.030z"></path>
</svg>
