<svg fill="none" xmlns="http://www.w3.org/2000/svg" viewBox="0 0 24 24">
  <path d="M21 6.774a7.131 7.131 0 0 1-2.119.595 3.796 3.796 0 0 0 1.624-2.095 7.296 7.296 0 0 1-2.344.919 3.648 3.648 0 0 0-2.696-1.194c-2.039 0-3.691 1.695-3.691 3.786 0 .296.032.584.095.862-3.068-.159-5.789-1.666-7.61-3.959a3.867 3.867 0 0 0-.499 1.904c0 1.313.65 2.474 1.641 3.151a3.625 3.625 0 0 1-1.673-.472v.047c0 1.835 1.272 3.368 2.963 3.714a3.59 3.59 0 0 1-1.67.064c.471 1.504 1.835 2.6 3.448 2.632A7.286 7.286 0 0 1 3 18.297a10.254 10.254 0 0 0 5.663 1.702c6.791 0 10.506-5.773 10.506-10.778 0-.166-.003-.328-.01-.49a7.538 7.538 0 0 0 1.842-1.958L21 6.774Z" fill="#657884"/>
</svg>
