<svg fill="none" xmlns="http://www.w3.org/2000/svg" viewBox="0 0 24 24">
  <path fill-rule="evenodd" clip-rule="evenodd" d="M13.621 2.6a1 1 0 0 1 1.414 0L21.4 8.964a1 1 0 0 1-1.414 1.415l-.707-.707-3.268 3.268-.39 6.279a1 1 0 0 1-1.706.645l-4.182-4.182-3.536 3.536a1 1 0 0 1-1.414-1.415l3.536-3.535-4.182-4.182A1 1 0 0 1 4.78 8.38l6.28-.391 3.267-3.268-.707-.707a1 1 0 0 1 0-1.414Zm2.121 3.536-3.535 3.536a1 1 0 0 1-.645.29l-4.444.277 6.643 6.643.276-4.444a1 1 0 0 1 .291-.645l3.536-3.536-2.122-2.121Z" fill="#657884"/>
</svg>
