<svg fill="none" xmlns="http://www.w3.org/2000/svg" viewBox="0 0 24 24">
  <path d="m8.962 4.196 2.008 2.008h8.081v2.008h-6.073l2.008 2.008h4.065v4.065l2.008 2.008V6.203a2.008 2.008 0 0 0-2.008-2.007h-2.008V3.192a1.004 1.004 0 1 0-2.008 0v1.004H8.962Zm-4.555-1.92.431.431a.945.945 0 0 0 .12.147L21.844 19.74a.941.941 0 0 1-1.45 1.184l-.754-.753a2.006 2.006 0 0 1-.589.088H4.996a2.008 2.008 0 0 1-2.008-2.008V6.204c0-.728.388-1.365.967-1.718l-.88-.88a.941.941 0 1 1 1.332-1.33Zm1.266 3.928h-.677v2.008h2.685L5.673 6.204Zm4.016 4.016H4.996v8.031H17.72L9.689 10.22Z" fill="#657884"/>
</svg>
