<!-- Generated by IcoMoon.io -->
<svg version="1.1" xmlns="http://www.w3.org/2000/svg" width="720" height="720" viewBox="0 0 720 720">
<title>upload</title>
<path fill="black" d="M60.058 313.196c0 91.217 80.667 165.161 180.176 165.161v-60.058c-66.339 0-120.118-47.056-120.118-105.102s53.779-105.102 120.118-105.102c14.953 0 29.268 2.391 42.472 6.759 19.64-39.598 60.477-66.818 107.674-66.818 66.338 0 120.118 53.779 120.118 120.118h15.015c41.462 0 75.073 33.612 75.073 75.073s-33.612 75.073-75.073 75.073h-45.044v60.058h45.044c74.632 0 135.132-60.5 135.132-135.132 0-61.995-41.747-114.239-98.661-130.153-23.276-72.568-91.304-125.096-171.603-125.096-53.645 0-101.815 23.446-134.822 60.647-5.051-0.39-10.162-0.589-15.324-0.589-99.508 0-180.176 73.946-180.176 165.161zM381.586 276.948c-11.726-11.727-30.741-11.727-42.467 0l-68.854 68.855c-11.727 11.726-11.727 30.741 0 42.467s30.741 11.726 42.467 0l17.591-17.591v167.738c0 16.585 13.444 30.030 30.030 30.030s30.030-13.444 30.030-30.030v-167.737l17.591 17.591c11.726 11.726 30.741 11.726 42.467 0s11.726-30.741 0-42.467l-68.854-68.855z"></path>
</svg>
