<svg fill="none" xmlns="http://www.w3.org/2000/svg" viewBox="0 0 24 24">
  <path d="M8 6C6.348 6 5 7.348 5 9s1.348 3 3 3 3-1.348 3-3a3 3 0 0 0-3-3Zm0 4.154a1.154 1.154 0 1 1 0-2.309 1.154 1.154 0 0 1 0 2.309ZM13 9c0-1.652 1.348-3 3-3a3 3 0 1 1-3 3Zm1.846 0a1.154 1.154 0 1 0 2.309 0 1.154 1.154 0 0 0-2.309 0Zm6.65 10H15a5.99 5.99 0 0 0-.341-2h4.81A4.015 4.015 0 0 0 16 15c-.754 0-1.464.212-2.07.578a6.035 6.035 0 0 0-1.435-1.456A6.004 6.004 0 0 1 16 13c3.15 0 5.728 2.41 5.998 5.47.03.29-.21.53-.501.53Zm-19.495-.53A6.017 6.017 0 0 1 8 13c3.15 0 5.728 2.41 5.999 5.47.03.29-.211.53-.502.53H2.513A.505.505 0 0 1 2 18.47ZM11.47 17A4.015 4.015 0 0 0 8 15c-1.475 0-2.78.81-3.471 2h6.94Z" fill="#657884"/>
</svg>
