<svg fill="none" xmlns="http://www.w3.org/2000/svg" viewBox="0 0 24 24">
  <path d="m5.14 4.724.01-.009L6.563 6.13a3.788 3.788 0 0 0-.009.009l1.937 1.937.007-.012 1.54 1.54c0 .006-.002.01-.003.016l2.345 2.344.014-.003 1.54 1.54a.624.624 0 0 1-.01.007l3.937 3.937.008-.01 1.415 1.416-.008.008.433.434A.998.998 0 0 1 19 21a.997.997 0 0 1-.704-.293l-.534-.533A9.954 9.954 0 0 1 12 22C6.477 22 2 17.523 2 12c0-2.146.676-4.133 1.826-5.762l-.534-.533a.997.997 0 0 1 0-1.415.996.996 0 0 1 1.415 0l.433.434Zm.126 2.955A7.963 7.963 0 0 0 4 12c0 2.195.884 4.183 2.315 5.629 1.018-1.016 2.396-2.028 4.077-2.428a6.413 6.413 0 0 1 2.266-.132l-1.093-1.092a4.001 4.001 0 0 1-3.542-3.542L5.266 7.68ZM12 20c1.47 0 2.846-.396 4.03-1.087-2.079-1.865-3.826-2.087-5.175-1.766-1.134.27-2.138.955-2.951 1.726A7.963 7.963 0 0 0 12 20ZM9.94 6.57l1.507 1.507a2 2 0 0 1 2.476 2.476l1.507 1.507a4 4 0 0 0-5.49-5.49Z" fill="#C94221"/>
  <path d="M20 12c0 1.342-.33 2.606-.914 3.717l1.467 1.467A9.954 9.954 0 0 0 22 12c0-5.523-4.477-10-10-10a9.953 9.953 0 0 0-5.184 1.447l1.467 1.467A8 8 0 0 1 20 12Z" fill="#C94221"/>
</svg>
