<!-- Generated by IcoMoon.io -->
<svg version="1.1" xmlns="http://www.w3.org/2000/svg" width="720" height="720" viewBox="0 0 720 720">
<title>visit</title>
<path fill="black" d="M120.118 148.035c-33.169 0-60.058 26.889-60.058 60.058v300.293c0 33.171 26.889 60.058 60.058 60.058h35.156c12.367 34.99 45.737 60.058 84.961 60.058s72.596-25.069 84.962-60.058h100.339c12.366 34.99 45.738 60.058 84.962 60.058s72.596-25.069 84.962-60.058h5.126c33.171 0 60.058-26.888 60.058-60.058v-180.176l-87.169-124.529c-11.24-16.055-29.606-25.618-49.203-25.618h-111.898c-10.384-17.951-29.792-30.030-52.023-30.030h-240.235zM595.46 508.387c-12.366-34.99-45.738-60.058-84.962-60.058s-72.596 25.069-84.962 60.058h-5.126v-120.118h180.176v120.118h-5.126zM360.352 208.094v300.293h-35.156c-12.366-34.99-45.738-60.058-84.962-60.058s-72.595 25.069-84.961 60.058h-35.156v-300.293h240.235zM270.264 538.417c0 16.585-13.445 30.030-30.030 30.030s-30.030-13.444-30.030-30.030c0-16.585 13.445-30.030 30.030-30.030s30.030 13.444 30.030 30.030zM518.006 238.123l52.552 90.088h-150.147v-90.088h97.596zM540.528 538.417c0 16.585-13.444 30.030-30.030 30.030s-30.030-13.444-30.030-30.030c0-16.585 13.444-30.030 30.030-30.030s30.030 13.444 30.030 30.030z"></path>
</svg>
