<!-- Generated by IcoMoon.io -->
<svg version="1.1" xmlns="http://www.w3.org/2000/svg" width="720" height="720" viewBox="0 0 720 720">
<title>wallet</title>
<path fill="black" d="M510.498 388.27c-16.585 0-30.030 13.444-30.030 30.030s13.444 30.030 30.030 30.030c16.585 0 30.030-13.444 30.030-30.030s-13.444-30.030-30.030-30.030zM60.058 118.006c0-33.169 26.889-60.058 60.058-60.058h420.41c33.171 0 60.058 26.889 60.058 60.058v60.058c33.171 0 60.058 26.889 60.058 60.058v360.352c0 33.171-26.888 60.058-60.058 60.058h-480.469c-33.169 0-60.058-26.888-60.058-60.058v-480.469zM120.118 238.123v360.352h480.469v-60.058h-180.176c-33.171 0-60.058-26.888-60.058-60.058v-120.118c0-33.171 26.888-60.058 60.058-60.058h180.176v-60.058h-480.469zM120.118 148.035c0 16.585 13.445 30.030 30.030 30.030h390.381v-60.058h-390.381c-16.585 0-30.030 13.445-30.030 30.030zM420.41 358.241v120.118h180.176v-120.118h-180.176z"></path>
</svg>
