<!-- Generated by IcoMoon.io -->
<svg version="1.1" xmlns="http://www.w3.org/2000/svg" width="720" height="720" viewBox="0 0 720 720">
<title>word</title>
<path fill="black" d="M509.673 300.656c0.472-1.811 0.742-3.617 0.825-5.396 0.673-14.389-10.82-27.107-25.942-27.107-12.471 0-23.179 8.87-25.501 21.124l-34.182 140.058-29.876-109.058c-3.573-13.048-15.431-22.096-28.963-22.096h-10.718c-13.411 0-25.194 8.892-28.876 21.789l-31.206 109.364-33.653-140.054c-2.299-12.251-12.996-21.128-25.461-21.128-14.507 0-25.682 11.732-25.914 25.417-0.038 2.246 0.219 4.546 0.804 6.856l46.747 155.285c3.377 13.318 15.366 22.648 29.108 22.648h16.114c13.333 0 25.069-8.793 28.816-21.588l28.408-96.989 27.351 96.718c3.658 12.93 15.459 21.858 28.897 21.858h16.054c13.669 0 25.612-9.231 29.059-22.456l48.11-155.246zM180.176 57.947c-33.169 0-60.058 26.889-60.058 60.058v480.469c0 33.171 26.889 60.058 60.058 60.058h360.352c33.171 0 60.058-26.888 60.058-60.058v-377.943c0-15.929-6.327-31.205-17.591-42.468l-102.526-102.526c-11.264-11.263-26.54-17.591-42.467-17.591h-257.825zM180.176 598.475v-480.469h257.825l102.526 102.526v377.943h-360.352z"></path>
</svg>
