<svg fill="none" xmlns="http://www.w3.org/2000/svg" viewBox="0 0 24 24">
  <path d="M16.973 10.082a.865.865 0 1 0-1.686-.379l-1.138 4.665-.995-3.632a1 1 0 0 0-.965-.736h-.357a1 1 0 0 0-.961.726l-1.04 3.641-1.12-4.663a.863.863 0 1 0-1.684.37l1.556 5.172a1 1 0 0 0 .97.754h.536a1 1 0 0 0 .96-.719l.946-3.23.91 3.221a1 1 0 0 0 .963.728h.535a1 1 0 0 0 .967-.748l1.603-5.17Z" fill="#20438A"/>
  <path d="M6 2a2 2 0 0 0-2 2v16a2 2 0 0 0 2 2h12a2 2 0 0 0 2-2V7.414A2 2 0 0 0 19.414 6L16 2.586A2 2 0 0 0 14.586 2H6Zm0 18V4h8.586L18 7.414V20H6Z" fill="#20438A"/>
</svg>
