<svg fill="none" xmlns="http://www.w3.org/2000/svg" viewBox="0 0 24 24">
  <path d="M9.296 11.61v.017h3.14a1.617 1.617 0 0 0-3.14-.024v.007Z" fill="#657884"/>
  <path d="M12 22c5.523 0 10-4.477 10-10S17.523 2 12 2 2 6.477 2 12s4.477 10 10 10ZM8.576 10.286l-1.703 1.71 1.701 1.709a.306.306 0 1 1-.437.426l-1.7-1.701-1.707 1.707a.306.306 0 1 1-.428-.436l1.702-1.706-1.703-1.705a.305.305 0 0 1 .214-.524c.081 0 .157.031.215.088l1.71 1.707 1.7-1.704a.306.306 0 0 1 .434.429Zm5.705-.228a1.27 1.27 0 0 1 .781-.264h.094-.002c.169 0 .306.137.306.306 0 .169-.129.293-.309.3-.005 0-.069 0-.129.006-.661.083-.732.396-.732 1.17v2.321a.305.305 0 0 1-.61 0v-3.775c0-.168.134-.304.301-.304a.31.31 0 0 1 .3.24Zm-4.705.115a2.25 2.25 0 0 1 2.494-.067c.518.329.86.841.99 1.465v-.001c.065.352-.17.661-.606.671H9.267l.005.047c.016.089.038.174.068.258.169.442.644 1.063 1.531 1.073.272-.002.527-.07.752-.19a1.76 1.76 0 0 0 .441-.356 1.8 1.8 0 0 0 .107-.14c.149-.191.338-.156.45-.07.134.103.157.319.035.47l-.002.002-.002.002-.004.005-.002.003a2.42 2.42 0 0 1-.573.543 2.208 2.208 0 0 1-.67.286 2.108 2.108 0 0 1-.804.054 2.258 2.258 0 0 1-1.9-1.675 2.266 2.266 0 0 1 .877-2.38Zm7.976 4.066a2.242 2.242 0 0 1 0-4.483 2.243 2.243 0 0 1 0 4.483Z" fill="#657884"/>
  <path d="M17.552 10.388a1.61 1.61 0 0 0 0 3.218 1.61 1.61 0 0 0 0-3.218Zm0 .969a.64.64 0 0 1 0 1.28.64.64 0 0 1 0-1.28Z" fill="#657884"/>
</svg>
