<!-- Generated by IcoMoon.io -->
<svg version="1.1" xmlns="http://www.w3.org/2000/svg" width="720" height="720" viewBox="0 0 720 720">
<title>xero</title>
<path fill="black" d="M527.086 309.839c-26.612 0-48.233 21.687-48.233 48.311 0 26.654 21.636 48.314 48.233 48.314 26.573 0 48.221-21.687 48.221-48.314 0-26.624-21.66-48.311-48.221-48.311zM527.102 374.835c-9.21 0-16.684-7.474-16.684-16.684h0.042c0-9.207 7.459-16.681 16.628-16.681 9.171 0 16.645 7.474 16.645 16.681 0 9.21-7.474 16.684-16.63 16.684zM279.126 347.048h94.331c-5.072-21.462-24.291-37.399-47.245-37.399-22.675 0-41.734 15.576-47.046 36.663-0.004 0.072-0.009 0.147-0.014 0.225-0.012 0.162-0.024 0.336-0.025 0.51zM660.646 358.241c0-165.865-134.433-300.293-300.287-300.293s-300.299 134.428-300.299 300.293c0 165.84 134.445 300.293 300.299 300.293 165.843 0 300.287-134.454 300.287-300.293zM206.395 358.144l51.083 51.296c1.735 1.735 2.67 4.033 2.67 6.474 0 5.072-4.111 9.183-9.156 9.183-2.509 0-4.832-1.003-6.646-2.871l-51.050-51.077-51.25 51.278c-1.735 1.735-4.031 2.67-6.473 2.67-5.058 0-9.169-4.111-9.169-9.183 0-2.468 0.987-4.793 2.776-6.579l51.116-51.251-51.143-51.209c-1.761-1.735-2.75-4.072-2.75-6.54 0-5.058 4.097-9.169 9.169-9.169 2.443 0 4.738 0.934 6.473 2.643l51.317 51.249 51.116-51.156c1.735-1.775 4.044-2.736 6.513-2.736 5.058 0 9.169 4.111 9.169 9.184 0 2.426-0.947 4.724-2.643 6.432l-51.124 51.362zM527.086 425.47c-37.047 0-67.212-30.215-67.212-67.319 0-37.117 30.149-67.304 67.212-67.304 37.050 0 67.215 30.215 67.215 67.319 0 37.117-30.165 67.305-67.215 67.305zM452.308 291.994h2.802l-0.051 0.013c5.072 0 9.207 4.111 9.207 9.184 0 5.057-3.871 8.807-9.288 9.009-0.165-0.003-2.072-0.033-3.871 0.186-19.858 2.48-21.994 11.876-21.994 35.101v69.719c-0.015 5.060-4.126 9.156-9.171 9.156-5.003 0-9.141-4.096-9.141-9.129l-0.027-113.375c0-5.059 4.045-9.13 9.075-9.13 4.378 0 8.063 3.123 8.996 7.208 6.82-5.272 14.988-7.942 23.462-7.942zM362.448 301.362c15.574 9.877 25.81 25.267 29.762 43.99l-0.027-0.027c1.949 10.586-5.099 19.862-18.204 20.153h-95.695l0.133 1.403c0.481 2.67 1.162 5.246 2.042 7.741 5.085 13.294 19.339 31.936 46.004 32.245 8.144-0.054 15.804-2.096 22.558-5.7 5.285-2.964 9.702-6.765 13.264-10.706 1.162-1.399 2.243-2.814 3.204-4.204 4.456-5.739 10.144-4.685 13.534-2.081 4.003 3.069 4.685 9.555 1.027 14.093-0.039 0.051-0.078 0.093-0.117 0.135-0.063 0.072-0.126 0.141-0.177 0.225-5.285 6.607-10.718 12.132-17.216 16.313-6.261 4.030-13.054 6.859-20.102 8.594-8.141 2.135-16.042 2.589-24.156 1.6-27.333-3.348-50.263-23.582-57.042-50.276-1.335-5.378-2.002-10.837-2.002-16.243 0-21.555 10.37-42.483 28.334-55.254 21.996-15.696 52.079-16.497 74.874-2.003z"></path>
</svg>
