<!-- Generated by IcoMoon.io -->
<svg version="1.1" xmlns="http://www.w3.org/2000/svg" width="720" height="720" viewBox="0 0 720 720">
<title>yelp</title>
<path fill="black" d="M365.311 287.117c-2.085-48.965-16.553-267.081-18.273-277.199-2.505-9.124-9.514-15.678-19.663-18.273-31.022-7.854-149.701 25.977-171.69 49.055-7.039 7.489-9.694 16.733-7.581 24.858 3.445 7.249 150.546 242.312 150.546 242.312 21.748 35.826 39.48 30.267 45.28 28.422 5.769-1.845 23.408-7.399 21.388-49.174zM487.464 389.183c121.639-29.933 126.351-31.537 131.154-34.736 7.339-5.015 11.024-13.473 10.419-23.742v-1.055c-3.11-30.297-55.489-109.285-81.254-122.093-9.124-4.47-18.303-4.139-25.827 0.995-4.714 3.139-8.184 7.824-73.31 98.29l-29.782 41.141c-7.764 9.574-7.854 23.347-0.3 35.131 7.854 12.174 21.113 18.123 33.287 14.709l-0.635 1.055c6.010-2.325 16.733-4.984 36.276-9.694zM542.741 659.102c27.034-10.934 86.026-87.174 90.195-116.504 1.42-10.179-1.72-18.998-8.639-24.588-4.499-3.475-8.034-4.835-115.054-40.506 0 0-46.94-15.768-47.545-16.069-11.329-4.47-24.347-0.365-33.046 10.634-9.032 11.207-10.45 25.977-3.229 37.183l18.908 31.231c63.583 104.875 68.417 112.275 72.977 115.9 7.069 5.679 16.038 6.584 25.432 2.75zM360.871 698.884c1.875-5.47 2.085-9.244 2.385-123.572l0.3-51.049c0.755-12.354-7.099-23.622-20.058-28.697-13.288-5.195-27.607-1.965-35.611 8.214l-23.562 28.332c-80.681 96.205-83.972 100.646-85.965 106.355-1.18 3.414-1.69 6.949-1.24 10.481 0.485 5.074 2.72 10.149 6.494 14.801 18.668 22.622 108.348 56.154 136.984 51.169 9.969-1.845 17.188-7.549 20.268-16.069zM103.395 339.494c-11.599 18.878-16.463 78.294-12.473 117.743 1.42 13.018 3.745 23.863 7.099 30.357 4.62 8.939 12.444 14.288 21.326 14.588 5.709 0.33 9.244-0.695 116.353-35.672l47.815-15.526c11.869-3.049 19.845-14.138 20.632-28.332 0.755-14.498-6.645-27.337-18.788-31.956l-33.62-13.894c-115.085-48.24-120.25-50.142-126.049-50.202-8.879-0.33-16.823 4.2-22.262 12.928z"></path>
</svg>
